<svg xmlns="http://www.w3.org/2000/svg" viewBox="0 0 24 24" width="24" height="24"><defs><style>.a{fill:none;stroke:#000;stroke-linecap:round;stroke-linejoin:round;stroke-width:1.5px}</style></defs><title>3d-print-warning</title><path class="a" d="M17.25 20.25a.375.375 0 1 0 .375.375.375.375 0 0 0-.375-.375m0-2.25v-3"/><path class="a" d="M23.063 20.683a1.774 1.774 0 0 1-1.587 2.567h-8.452a1.774 1.774 0 0 1-1.587-2.567l4.226-8.452a1.774 1.774 0 0 1 3.174 0z"/><path class="a" d="M9 20.25H3.75a3 3 0 0 1-3-3V3.75a3 3 0 0 1 3-3h13.5a3 3 0 0 1 3 3v4.5m-19.5 9h7.5"/><path class="a" d="M14.25.75v3a1.5 1.5 0 0 1-1.5 1.5h-4.5m0 0v3l-1.5 1.5-1.5-1.5v-3h3zm9 0h3m-19.5 0h1.5"/></svg>