<svg xmlns="http://www.w3.org/2000/svg" viewBox="0 0 24 24" width="24" height="24"><defs><style>.a{fill:none;stroke:#000;stroke-linecap:round;stroke-linejoin:round;stroke-width:1.5px}</style></defs><title>3d-pen</title><path class="a" d="M18.5 12.921a5.25 5.25 0 1 1 0-7.424 5.249 5.249 0 0 1 0 7.424z"/><path class="a" d="M19.152 12.134a109.245 109.245 0 0 0 2.534-2.395 5.187 5.187 0 0 0 0-7.424 5.187 5.187 0 0 0-7.425 0c-.482.481-1.346 1.4-2.395 2.534M10.2 6.658c-2.432 2.655-7.351 7.87-8.78 9.454a1.492 1.492 0 0 0 .059 2.059l4.349 4.35a1.492 1.492 0 0 0 2.059.059c1.584-1.429 6.8-6.348 9.455-8.781m-2.551-4.965a.375.375 0 1 0 .265.11.374.374 0 0 0-.265-.11m-9.546 8.86l1.061 1.061m-2.652 1.591L.723 23.277"/></svg>