<svg xmlns="http://www.w3.org/2000/svg" viewBox="0 0 24 24" width="24" height="24"><defs><style>.a{fill:none;stroke:#000;stroke-linecap:round;stroke-linejoin:round;stroke-width:1.5px}</style></defs><title>3d-print-candy</title><path class="a" d="M.75 2.25h9m4.5 0h9M9.75 3a2.25 2.25 0 0 0 4.5 0V.75h-4.5zM12 5.25v3m7.5 7.5a7.5 7.5 0 1 1-7.5-7.5m4.482 1.486a7.54 7.54 0 0 1 2.268 2.74"/><path class="a" d="M7.626 16.626c1.5-1.5 4.125 2.625 6 .75s-1.875-4.875 0-6.75"/><path class="a" d="M16.792 14.5c-1.5 1.5-4.125-2.625-6-.75s1.875 4.875 0 6.75"/></svg>