<svg xmlns="http://www.w3.org/2000/svg" viewBox="0 0 24 24" width="24" height="24"><defs><style>.a{fill:none;stroke:#000;stroke-linecap:round;stroke-linejoin:round;stroke-width:1.5px}</style></defs><title>3d-print-cash</title><path class="a" d="M18.75 14.25h-2.033a1.342 1.342 0 0 0-.5 2.588l2.064.825a1.342 1.342 0 0 1-.5 2.587H15.75m1.5-6v-.75m0 7.5v-.75"/><circle class="a" cx="17.25" cy="17.25" r="6"/><path class="a" d="M9 20.25H3.75a3 3 0 0 1-3-3V3.75a3 3 0 0 1 3-3h13.5a3 3 0 0 1 3 3v4.5m-19.5 9h7.5"/><path class="a" d="M14.25.75v3a1.5 1.5 0 0 1-1.5 1.5h-4.5m0 0v3l-1.5 1.5-1.5-1.5v-3h3zm9 0h3m-19.5 0h1.5"/></svg>