<svg xmlns="http://www.w3.org/2000/svg" viewBox="0 0 24 24" width="24" height="24"><defs><style>.a{fill:none;stroke:#000;stroke-linecap:round;stroke-linejoin:round;stroke-width:1.5px}</style></defs><title>3d-print-monitor</title><path class="a" d="M6.75 23.25L.75 21v-7.5l6 2.25v7.5zm2.249-8.343l-2.249.843v7.5l6-2.25v-5.249m-3-13.501a1.5 1.5 0 0 1 1.5-1.5h10.5a1.5 1.5 0 0 1 1.5 1.5v6a1.5 1.5 0 0 1-1.5 1.5h-10.5a1.5 1.5 0 0 1-1.5-1.5m9 4.5h-4.5l.75-3h3l.75 3zm-6 0h7.5M.75 8.25l3 3 3-3"/><path class="a" d="M3.75 11.25V7.5A2.25 2.25 0 0 1 6 5.25h6.75"/></svg>