<svg xmlns="http://www.w3.org/2000/svg" viewBox="0 0 24 24" width="24" height="24"><defs><style>.a{fill:none;stroke:#000;stroke-linecap:round;stroke-linejoin:round;stroke-width:1.5px}</style></defs><title>3d-print-triangle-1</title><path class="a" d="M9.75 20.25h-6a3 3 0 0 1-3-3V3.75a3 3 0 0 1 3-3h13.5a3 3 0 0 1 3 3v9m-19.5 4.5h9"/><path class="a" d="M14.25.75v3a1.5 1.5 0 0 1-1.5 1.5h-4.5m0 0v3l-1.5 1.5-1.5-1.5v-3h3zm9 0h3m-15 12l5.25-7.5 2.098 2.997M.75 5.25h1.5m18 18a3 3 0 0 0 3-3v-1.5a3 3 0 0 0-3-3zm-7.5-6a1.5 1.5 0 0 1 1.5-1.5l1.135.005a1.873 1.873 0 0 1-.008 3.745 1.873 1.873 0 0 1 .008 3.746H14.25a1.5 1.5 0 0 1-1.5-1.5"/></svg>