<svg xmlns="http://www.w3.org/2000/svg" viewBox="0 0 24 24" width="24" height="24"><g fill="none" stroke="#000" stroke-linecap="round" stroke-linejoin="round" stroke-miterlimit="10"><path d="M.5.5h22v23H.5z"/><path d="M7.5 3.5c0 .55-.449 1-1 1h-2c-.55 0-1-.45-1-1h0c0-.549.45-1 1-1h2c.551 0 1 .451 1 1h0zm0 4c0 .55-.449 1-1 1h-2c-.55 0-1-.45-1-1h0c0-.549.45-1 1-1h2c.551 0 1 .451 1 1h0zm0 13c0 .55-.449 1-1 1h-2c-.55 0-1-.45-1-1h0c0-.549.45-1 1-1h2c.551 0 1 .451 1 1h0zm6-17c0 .55-.449 1-1 1h-2c-.55 0-1-.45-1-1h0c0-.549.45-1 1-1h2c.551 0 1 .451 1 1h0zm6 8c0 .55-.45 1-1 1h-2c-.55 0-1-.45-1-1h0c0-.549.45-1 1-1h2c.55 0 1 .451 1 1h0zm0-8c0 .55-.45 1-1 1h-2c-.55 0-1-.45-1-1h0c0-.549.45-1 1-1h2c.55 0 1 .451 1 1h0zm0 4c0 .55-.45 1-1 1h-2c-.55 0-1-.45-1-1h0c0-.549.45-1 1-1h2c.55 0 1 .451 1 1h0zm-6 9c0 .55-.449 1-1 1h-2c-.55 0-1-.45-1-1h0c0-.549.45-1 1-1h2c.551 0 1 .451 1 1h0zm0 4c0 .55-.449 1-1 1h-2c-.55 0-1-.45-1-1h0c0-.549.45-1 1-1h2c.551 0 1 .451 1 1h0zm-2 1v2m-6-2v2m6-6v2m0-15v11m-6-7v11m0-15v2m0-6v2m6-2v2m6 6v2m0 2v11m0-19v2m0-6v2"/></g><path fill="none" d="M0 0h24v24H0z"/></svg>