<svg xmlns="http://www.w3.org/2000/svg" viewBox="0 0 24 24" width="24" height="24"><defs><style>.a{fill:none;stroke:#000;stroke-linecap:round;stroke-linejoin:round;stroke-width:1.5px}</style></defs><title>ac-cool</title><rect class="a" x=".75" y=".75" width="22.5" height="10.5" rx="3" ry="3"/><path class="a" d="M5.25 3.75h13.5m0 4.5H5.25a1.5 1.5 0 0 0-1.5 1.5v1.5h16.5v-1.5a1.5 1.5 0 0 0-1.5-1.5zm-13.5 6s-1.5 0-1.5 2.25 1.5 2.25 1.5 4.5-1.5 2.25-1.5 2.25m16.5-9s-1.5 0-1.5 2.25 1.5 2.25 1.5 4.5-1.5 2.25-1.5 2.25M12 15.75v6m-2.598-4.5l5.196 3m-5.196 0l5.196-3"/></svg>