<svg xmlns="http://www.w3.org/2000/svg" viewBox="0 0 24 24" width="24" height="24"><defs><style>.a{fill:none;stroke:#000;stroke-linecap:round;stroke-linejoin:round;stroke-width:1.5px}</style></defs><title>ac-heat</title><path class="a" d="M2.25 12.75a1.5 1.5 0 0 1-1.5-1.5v-7.5a3 3 0 0 1 3-3h16.5a3 3 0 0 1 3 3v7.5a1.5 1.5 0 0 1-1.5 1.5m-21-3h22.5"/><path class="a" d="M19.5 4.125a.375.375 0 1 1-.375.375.375.375 0 0 1 .375-.375M5.25 14.25v3a3 3 0 0 1-3 3m7.5-6v7.5a1.5 1.5 0 0 1-1.5 1.5m10.5-9v3a3 3 0 0 0 3 3m-7.5-6v7.5a1.5 1.5 0 0 0 1.5 1.5"/></svg>