<svg id="Regular" xmlns="http://www.w3.org/2000/svg" viewBox="0 0 24 24" width="24" height="24"><defs><style>.cls-1{fill:none;stroke:#000;stroke-linecap:round;stroke-linejoin:round;stroke-width:1.5px}</style></defs><title>accessories-watch</title><circle class="cls-1" cx="10.5" cy="12" r="6.75"/><path class="cls-1" d="M15.75 2.25a13.7 13.7 0 0 1 4.5 9.75 13.7 13.7 0 0 1-4.5 9.75H5.25A13.7 13.7 0 0 1 .75 12a13.7 13.7 0 0 1 4.5-9.75zm4.5 9.75h3m0-1.5v3m-18-11.25V.75m10.5 1.5V.75m-10.5 22.5v-1.5m10.5 1.5v-1.5"/><path class="cls-1" d="M8.25 9.75L10.5 12l2.25-1.5"/></svg>