<svg id="Regular" xmlns="http://www.w3.org/2000/svg" viewBox="0 0 24 24" width="24" height="24"><defs><style>.cls-1{fill:none;stroke:#000;stroke-linecap:round;stroke-linejoin:round;stroke-width:1.5px}</style></defs><title>accessories-umbrella</title><path class="cls-1" d="M16.64 6.711l4.04-4.039a1.5 1.5 0 0 1 2.12 2.121l-.53.53"/><path class="cls-1" d="M2.259 21.092c-2.625-2.625 9.078-19.684 9.078-19.684a7.29 7.29 0 0 0 5.3 5.3 7.289 7.289 0 0 0 5.3 5.3S4.884 23.717 2.259 21.092zm0 0l-1.5 1.5m1.5-1.5A156.049 156.049 0 0 1 14.122 5.533M2.259 21.092a155.942 155.942 0 0 0 15.56-11.863"/></svg>