<svg xmlns="http://www.w3.org/2000/svg" viewBox="0 0 24 24" width="24" height="24"><defs><style>.a{fill:none;stroke:#000;stroke-linecap:round;stroke-linejoin:round;stroke-width:1.5px}</style></defs><title>accounting-withdraw</title><path class="a" d="M14.758 21.375H2.25a.75.75 0 0 1-.742-.861L7.379 6.375h10.5L15.5 20.514a.75.75 0 0 1-.742.861z"/><path class="a" d="M12.525 11.2l-1.969-.5a1.341 1.341 0 0 0-1.125 2.382l1.793 1.312a1.341 1.341 0 0 1-1.124 2.378l-1.97-.5m2.942-5.444l.373-1.453M9.21 18.093l.372-1.453M2.25 10.125H1.5a.75.75 0 0 1-.75-.75v-6a.75.75 0 0 1 .75-.75h21a.75.75 0 0 1 .75.75v6a.75.75 0 0 1-.75.75h-2.25"/></svg>