<svg xmlns="http://www.w3.org/2000/svg" viewBox="0 0 24 24" width="24" height="24"><g fill="none" stroke="#000" stroke-linejoin="round" stroke-miterlimit="10"><path d="M9.497 22.5H18.5s0-3.352-.474-4.781c-.413-1.244-3.396-2.076-6.526-3.255v-2.5s1-.619 1-3c1 0 1-2 0-2 0-.234 1.078-1.678.75-3-.474-1.904-6.151-1.904-6.625 0-2.369-.476-1.125 2.681-1.125 3v2c0 2.381 2 3 2 3v2.5C4.722 15.52 1.386 16.476.974 17.719.5 19.148.5 22.5.5 22.5h8.997z"/><path stroke-linecap="round" d="M21 22.5h2.5s0-3.352-.474-4.781c-.413-1.244-3.396-2.576-6.526-3.755v-1.5s1-.619 1-3c1 0 1-2 0-2 0-.234 1.078-1.862.75-3.184-.222-.891-2.125-2.298-3.625-1.298"/></g><path fill="none" d="M0 0h24v24H0z"/></svg>