<svg xmlns="http://www.w3.org/2000/svg" viewBox="0 0 24 24" width="24" height="24"><defs><style>.a{fill:none;stroke:#000;stroke-linecap:round;stroke-linejoin:round;stroke-width:1.5px}</style></defs><title>accounting-abacus</title><rect class="a" x="1.5" y=".75" width="21" height="22.5" rx="1.5" ry="1.5"/><path class="a" d="M7.5.75v3m0 3v6m0 7.5v3"/><rect class="a" x="5.25" y="3.75" width="4.5" height="3" rx="1.5" ry="1.5"/><rect class="a" x="5.25" y="12.75" width="4.5" height="3" rx="1.5" ry="1.5"/><rect class="a" x="5.25" y="17.25" width="4.5" height="3" rx="1.5" ry="1.5"/><path class="a" d="M16.5 23.25v-3m0-3v-6m0-7.5v-3"/><rect class="a" x="14.25" y="17.25" width="4.5" height="3" rx="1.5" ry="1.5"/><rect class="a" x="14.25" y="8.25" width="4.5" height="3" rx="1.5" ry="1.5"/><rect class="a" x="14.25" y="3.75" width="4.5" height="3" rx="1.5" ry="1.5"/><path class="a" d="M16.5 6.75v1.5m-9 7.5v1.5"/></svg>