<svg xmlns="http://www.w3.org/2000/svg" viewBox="0 0 24 24" width="24" height="24"><path d="M.5 9.5v3c0 .825.175 1.5 1 1.5v4.5h3V14c.824 0 .999-.676 1-1.5v-3h-5zm18 0v3c0 .825.175 1.5 1 1.5v4.5h3V14c.824 0 .999-.676 1-1.5v-3h-5zm-10 0h7v5c0 1.1-.9 2-2 2v6h-3v-6c-1.101 0-2-.9-2-2v-5zM4.5 6A1.5 1.5 0 013 7.5h0A1.5 1.5 0 011.5 6h0A1.5 1.5 0 013 4.5h0A1.5 1.5 0 014.5 6h0zm18 0A1.5 1.5 0 0121 7.5h0A1.5 1.5 0 0119.5 6h0A1.5 1.5 0 0121 4.5h0A1.5 1.5 0 0122.5 6h0zm-8-1A2.5 2.5 0 0112 7.5h0A2.5 2.5 0 019.5 5h0A2.5 2.5 0 0112 2.5h0A2.5 2.5 0 0114.5 5h0z" fill="none" stroke="#000" stroke-linejoin="round" stroke-miterlimit="10"/><path fill="none" d="M0 0h24v24H0z"/></svg>