<svg xmlns="http://www.w3.org/2000/svg" viewBox="0 0 24 24" width="24" height="24"><defs><style>.a{fill:none;stroke:#000;stroke-linecap:round;stroke-linejoin:round;stroke-width:1.5px}</style></defs><title>accounting-invoice</title><path class="a" d="M21.75 21.75a1.5 1.5 0 0 1-1.5 1.5H3.75a1.5 1.5 0 0 1-1.5-1.5V2.25a1.5 1.5 0 0 1 1.5-1.5h10.629a1.5 1.5 0 0 1 1.06.439l5.872 5.872a1.5 1.5 0 0 1 .439 1.06z"/><path class="a" d="M21.75 8.25h-6a1.5 1.5 0 0 1-1.5-1.5v-6M5.642 9.344a2.221 2.221 0 0 0 1.858.875c1.139 0 2.063-.693 2.063-1.547S8.639 7.126 7.5 7.126s-2.062-.693-2.062-1.548.923-1.547 2.062-1.547a2.221 2.221 0 0 1 1.858.875M7.5 10.219v1.031M7.5 3v1.031"/><rect class="a" x="5.25" y="14.25" width="13.5" height="6" rx=".5" ry=".5"/><path class="a" d="M5.25 17.25h13.5m-9-3v6m4.5-6v6"/></svg>