<svg xmlns="http://www.w3.org/2000/svg" viewBox="0 0 24 24" width="24" height="24"><g fill="none" stroke="#000" stroke-linejoin="round" stroke-miterlimit="10"><path d="M20.063 8.406C20.063 3.375 15.312.5 11 .5c-5.359 0-9.5 4.203-9.5 9.562 0 3.043 1 5.898 4 7.678v5.76h10v-3.477c2 .011 3.018-.134 3.719-.836.898-.898.812-4.688.812-4.688s.854.032 1.498.006a.748.748 0 00.575-.307c.129-.184.088-.406.104-.63.116-1.605-2.145-4.361-2.145-5.162z"/><path d="M11 14.553s5-3.601 5-6.268c0-3.076-4.091-4.05-5-.307-.909-3.743-5-2.77-5 .307 0 2.667 5 6.268 5 6.268z"/></g><path fill="none" d="M0 0h24v24H0z"/></svg>