<svg xmlns="http://www.w3.org/2000/svg" viewBox="0 0 24 24" width="24" height="24"><defs><style>.a{fill:none;stroke:#000;stroke-linecap:round;stroke-linejoin:round;stroke-width:1.5px}</style></defs><title>accounting-calculator</title><rect class="a" x="3.75" y=".75" width="16.5" height="22.5" rx="1.5" ry="1.5"/><rect class="a" x="6.75" y="3.75" width="10.5" height="4.5" rx=".75" ry=".75"/><path class="a" d="M7.875 12a.375.375 0 1 1-.375.375.375.375 0 0 1 .375-.375m4.281 0a.375.375 0 1 1-.375.375.375.375 0 0 1 .375-.375m3.969 0a.375.375 0 1 1-.375.375.375.375 0 0 1 .375-.375m-8.25 3.75a.375.375 0 1 1-.375.375.375.375 0 0 1 .375-.375m4.281 0a.375.375 0 1 1-.375.375.375.375 0 0 1 .375-.375m3.969 0a.375.375 0 1 1-.375.375.375.375 0 0 1 .375-.375m-8.25 3.75a.375.375 0 1 1-.375.375.375.375 0 0 1 .375-.375m4.281 0a.375.375 0 1 1-.375.375.375.375 0 0 1 .375-.375m3.969 0a.375.375 0 1 1-.375.375.375.375 0 0 1 .375-.375"/></svg>