<svg xmlns="http://www.w3.org/2000/svg" viewBox="0 0 24 24" width="24" height="24"><defs><style>.a{fill:none;stroke:#000;stroke-linecap:round;stroke-linejoin:round;stroke-width:1.5px}</style></defs><title>accounting-bill-stack-1</title><path class="a" d="M13.5 11.25h-2.033a1.342 1.342 0 0 0-.5 2.587l2.064.826a1.342 1.342 0 0 1-.5 2.587H10.5m1.5-6v-1.5m0 9v-1.5"/><path class="a" d="M6.75 21.75v-15L9 2.25h6l2.25 4.5v15H6.75z"/><path class="a" d="M15 2.25h5.25l3 4.5h-6m-10.5 0h-6l3-4.5H9M.75 10.5h6m10.5 0h6M.75 14.25h6m10.5 0h6M.75 18h6m10.5 0h6m-16.5 3.75h-6v-15m16.5 15h6v-15m-6 0H6.75"/></svg>