<svg xmlns="http://www.w3.org/2000/svg" viewBox="0 0 24 24" width="24" height="24"><defs><style>.a{fill:none;stroke:#000;stroke-linecap:round;stroke-linejoin:round;stroke-width:1.5px}</style></defs><title>accounting-coins</title><circle class="a" cx="15.75" cy="8.25" r="7.5"/><path class="a" d="M6.375 14.092a1.341 1.341 0 0 0 .843 1.245l2.064.826a1.342 1.342 0 0 1-.5 2.587H6.75m1.5 1.5v-1.5M5.281 8.867a7.5 7.5 0 1 0 9.853 9.852M17.25 5.25h-2.033a1.342 1.342 0 0 0-.5 2.587l2.064.826a1.342 1.342 0 0 1-.5 2.587H14.25m1.5-6v-1.5m0 9v-1.5"/></svg>