<svg xmlns="http://www.w3.org/2000/svg" viewBox="0 0 24 24" width="24" height="24"><defs><style>.a{fill:none;stroke:#000;stroke-linecap:round;stroke-linejoin:round;stroke-width:1.5px}</style></defs><title>accounting-invoice-hand</title><path class="a" d="M6.214 9.344a2.221 2.221 0 0 0 1.858.875c1.139 0 2.063-.693 2.063-1.547s-.924-1.546-2.063-1.546S6.01 6.433 6.01 5.578s.924-1.547 2.062-1.547a2.221 2.221 0 0 1 1.858.875m-1.858 5.313v1.031m0-8.25v1.031M23.25 20.986l-1.49-2.236V13.5c0-2-3.8-4.139-5.25-5.25m1.93 6.544l-3.648-2.924a1.3 1.3 0 0 0-1.843 1.843l3.533 3.987v2.5c0 1.181 1.688 3.045 1.688 3.045"/><path class="a" d="M13.51 23.25H2.134A1.375 1.375 0 0 1 .76 21.875V2.125A1.375 1.375 0 0 1 2.134.75h13a1.376 1.376 0 0 1 1.376 1.375v11.122"/><path class="a" d="M10.51 14.25h-6a.75.75 0 0 0-.75.75v4.5a.75.75 0 0 0 .75.75h9m-9.75-3h8.25m-3.75-3v6"/></svg>