<svg xmlns="http://www.w3.org/2000/svg" viewBox="0 0 24 24" width="24" height="24"><defs><style>.a{fill:none;stroke:#000;stroke-linecap:round;stroke-linejoin:round;stroke-width:1.5px}</style></defs><title>accounting-coins-stack</title><ellipse class="a" cx="6.75" cy="3.75" rx="6" ry="3"/><path class="a" d="M12.75 6.75c0 1.657-2.686 3-6 3s-6-1.343-6-3m12 3v-6"/><path class="a" d="M.75 3.75v15c0 1.657 2.686 3 6 3A11.284 11.284 0 0 0 9 21.527"/><path class="a" d="M.75 15.75c0 1.657 2.686 3 6 3A11.284 11.284 0 0 0 9 18.527M.75 12.75c0 1.657 2.686 3 6 3A11.284 11.284 0 0 0 9 15.527M.75 9.75c0 1.657 2.686 3 6 3A11.284 11.284 0 0 0 9 12.527"/><ellipse class="a" cx="17.25" cy="14.25" rx="6" ry="3"/><path class="a" d="M11.25 14.25v6c0 1.657 2.686 3 6 3s6-1.343 6-3v-6"/><path class="a" d="M23.25 17.25c0 1.657-2.686 3-6 3s-6-1.343-6-3"/></svg>