<svg xmlns="http://www.w3.org/2000/svg" viewBox="0 0 24 24" width="24" height="24"><defs><style>.a{fill:none;stroke:#000;stroke-linecap:round;stroke-linejoin:round;stroke-width:1.5px}</style></defs><title>accounting-document</title><path class="a" d="M21.75 21.75a1.5 1.5 0 0 1-1.5 1.5H3.75a1.5 1.5 0 0 1-1.5-1.5V2.25a1.5 1.5 0 0 1 1.5-1.5h10.629a1.5 1.5 0 0 1 1.06.439l5.872 5.872a1.5 1.5 0 0 1 .439 1.06z"/><path class="a" d="M21.75 8.25h-6a1.5 1.5 0 0 1-1.5-1.5v-6M6.2 11.594a2.224 2.224 0 0 0 1.858.875c1.139 0 2.063-.693 2.063-1.547S9.2 9.376 8.062 9.376 6 8.683 6 7.828s.924-1.547 2.062-1.547a2.221 2.221 0 0 1 1.858.875m-1.858 5.313V13.5m0-8.25v1.031M12 15h6M6.75 19.5H18"/></svg>