<svg xmlns="http://www.w3.org/2000/svg" viewBox="0 0 24 24" width="24" height="24"><defs><style>.a{fill:none;stroke:#000;stroke-linecap:round;stroke-linejoin:round;stroke-width:1.5px}</style></defs><title>action-camera</title><circle class="a" cx="13.875" cy="9" r="2.25"/><path class="a" d="M12.375 17.25h3v6h-3zm0 3h-6.75"/><rect class="a" x="5.625" y=".75" width="16.5" height="16.5" rx="2" ry="2"/><rect class="a" x="8.625" y="3.75" width="10.5" height="10.5" rx="1" ry="1"/><path class="a" d="M4.747 21.7a1.365 1.365 0 0 0 .878-1.278v-.942a1.365 1.365 0 0 0-.878-1.28l-1.994-.755a.647.647 0 0 0-.6.075.656.656 0 0 0-.28.539v3.783a.653.653 0 0 0 .28.538.641.641 0 0 0 .6.075zm3.128 1.55h12"/></svg>