<svg xmlns="http://www.w3.org/2000/svg" viewBox="0 0 24 24" width="24" height="24"><defs><style>.a{fill:none;stroke:#000;stroke-linecap:round;stroke-linejoin:round;stroke-width:1.5px}</style></defs><title>ads-window</title><rect class="a" x=".75" y=".75" width="22.5" height="22.5" rx="1" ry="1"/><path class="a" d="M20.25 6.75l-3-3m3 0l-3 3m3 3.75h-1.5a1.5 1.5 0 0 0-1.5 1.5c0 2.25 3 2.25 3 4.5a1.5 1.5 0 0 1-1.5 1.5h-1.5m-12 0v-6a1.5 1.5 0 0 1 3 0v6m-3-3h3m3 3a3 3 0 0 0 3-3v-1.5a3 3 0 0 0-3-3z"/></svg>