<svg xmlns="http://www.w3.org/2000/svg" viewBox="0 0 24 24" width="24" height="24"><defs><style>.a{fill:none;stroke:#000;stroke-linecap:round;stroke-linejoin:round;stroke-width:1.5px}</style></defs><title>adventure-car-truck-1</title><path class="a" d="M3 19.5V21a2.25 2.25 0 0 0 4.5 0v-1.5m9 0V21a2.25 2.25 0 0 0 4.5 0v-1.5M4.5 13.875a.375.375 0 0 1 .375.375m-.75 0a.375.375 0 0 1 .375-.375m0 .75a.375.375 0 0 1-.375-.375m.75 0a.375.375 0 0 1-.375.375m15-.75a.375.375 0 0 1 .375.375m-.75 0a.375.375 0 0 1 .375-.375m0 .75a.375.375 0 0 1-.375-.375m.75 0a.375.375 0 0 1-.375.375M9 14.25h6"/><path class="a" d="M19.5 8.25h-15l-2.121 2.121a3 3 0 0 0-.879 2.122v3.257a1.5 1.5 0 0 0 1.5 1.5h18a1.5 1.5 0 0 0 1.5-1.5v-3.257a3 3 0 0 0-.879-2.122zm0-6A1.5 1.5 0 0 0 18 .75H6a1.5 1.5 0 0 0-1.5 1.5v6h15zM12 .75v7.5M1.5 6.75A1.5 1.5 0 0 0 3 8.25h1.5v-4.5H3a1.5 1.5 0 0 0-1.5 1.5zm21 0a1.5 1.5 0 0 1-1.5 1.5h-1.5v-4.5H21a1.5 1.5 0 0 1 1.5 1.5zm-20.73 4.5h20.46"/></svg>