<svg xmlns="http://www.w3.org/2000/svg" viewBox="0 0 24 24" width="24" height="24"><defs><style>.a{fill:none;stroke:#000;stroke-linecap:round;stroke-linejoin:round;stroke-width:1.5px}</style></defs><title>adventure-car-2</title><circle class="a" cx="17.25" cy="19.5" r="2.25"/><circle class="a" cx="6.75" cy="19.5" r="2.25"/><path class="a" d="M21.75 18a1.5 1.5 0 0 0 1.5-1.5v-2.25a2.166 2.166 0 0 0-1.4-2.027l-3.623-1.358a1.5 1.5 0 0 1-.973-1.4V7.747C17.25 6.09 15.907 6 14.25 6H8.408a3 3 0 0 0-1.664.5l-5.326 3.555A1.5 1.5 0 0 0 .75 11.3v5.2a1.5 1.5 0 0 0 1.5 1.5m9 0h1.5M2.25 9.5v-8"/><path class="a" d="M17.669 10.5h-4.918A1.5 1.5 0 0 1 11.25 9V6"/></svg>