<svg xmlns="http://www.w3.org/2000/svg" viewBox="0 0 24 24" width="24" height="24"><defs><style>.a{fill:none;stroke:#000;stroke-linecap:round;stroke-linejoin:round;stroke-width:1.5px}</style></defs><title>adventure-car-atv</title><circle class="a" cx="16.5" cy="16.25" r="1.5"/><circle class="a" cx="7.5" cy="16.25" r="1.5"/><path class="a" d="M15 16.25H9m-8.25 0H6m12 0h5.25M15.75 11L13.5 6.5M7.661 11L6.75 8.75m-5.25 7.5V12.5A1.5 1.5 0 0 1 3 11h4.661a2.621 2.621 0 0 0 2.464 1.5 2.811 2.811 0 0 0 1.9-.711A3 3 0 0 1 14.057 11h6.193a1.5 1.5 0 0 1 1.5 1.5v3.75"/></svg>