<svg xmlns="http://www.w3.org/2000/svg" viewBox="0 0 24 24" width="24" height="24"><defs><style>.a{fill:none;stroke:#000;stroke-linecap:round;stroke-linejoin:round;stroke-width:1.5px}</style></defs><title>adventure-car-1</title><circle class="a" cx="18" cy="16.75" r="2.25"/><circle class="a" cx="3" cy="16.75" r="2.25"/><path class="a" d="M20.25 16.75h1.5a1.5 1.5 0 0 0 1.5-1.5v-1.8a1.493 1.493 0 0 0-.259-.841c-1.167-1.721-5.972-8.1-16.475-8.579A1.5 1.5 0 0 0 4.983 5.2L3.75 10.75"/><path class="a" d="M2.079 14.7L.828 12.729A1.5 1.5 0 0 1 2.25 10.75h1.5l3 2.25H15l4.874-3.878M5.25 16.75h10.5M9 13L7.5 8.5m7.5.75l-2.25 1.5m2.892 1.739L13.875 10"/></svg>