<svg xmlns="http://www.w3.org/2000/svg" viewBox="0 0 24 24" width="24" height="24"><defs><style>.a{fill:none;stroke:#000;stroke-linecap:round;stroke-linejoin:round;stroke-width:1.5px}</style></defs><title>adventure-car-convertible</title><circle class="a" cx="18" cy="16.5" r="2.25"/><circle class="a" cx="6" cy="16.5" r="2.25"/><path class="a" d="M15.75 16.5h-7.5m12 0h1.5a1.5 1.5 0 0 0 1.5-1.5v-3.27a1.5 1.5 0 0 0-1.206-1.471L15.75 9v1.5a1.5 1.5 0 0 1-1.5 1.5H9.8a1.5 1.5 0 0 1-1.248-.668L7.5 9H3.75a1.5 1.5 0 0 0-1.5 1.5v6m-1.5 0h3M7.5 9V6m8.25 3l-1.5-4.5h-1.5"/></svg>