<svg xmlns="http://www.w3.org/2000/svg" viewBox="0 0 24 24" width="24" height="24"><defs><style>.a{fill:none;stroke:#000;stroke-linecap:round;stroke-linejoin:round;stroke-width:1.5px}</style></defs><title>adventure-car</title><circle class="a" cx="17.625" cy="17.375" r="2.625"/><circle class="a" cx="4.875" cy="17.375" r="2.625"/><path class="a" d="M20.224 17.75h1.526a1.5 1.5 0 0 0 1.5-1.5V11a1.5 1.5 0 0 0-1.5-1.5H16.5l-3 4.5H9.75c-1.014-2.029-.935-3-2.25-3H2.25a1.5 1.5 0 0 0-1.5 1.5v3.75a1.523 1.523 0 0 0 1.527 1.5M16.5 9.5l-1.5-6"/><path class="a" d="M3.825 11L3.29 7.865a1.18 1.18 0 0 1 2.258-.638L7.063 11m7.964 6.75H7.473"/></svg>