<svg id="Regular" xmlns="http://www.w3.org/2000/svg" viewBox="0 0 24 24" width="24" height="24"><defs><style>.cls-1{fill:none;stroke:#000;stroke-linecap:round;stroke-linejoin:round;stroke-width:1.5px}</style></defs><title>agriculture-machine-plow-1</title><path class="cls-1" d="M5.25 11.25l-1.859 5.069M.75 8.25h22.5m-12.75-6l-8.25 6m11.25-6l8.25 6m-8.25 0h-3v-6a1.5 1.5 0 0 1 3 0zm9.75 3H.75m7.5 12H4.5V21L.75 18.75C1.464 17 3.868 15.824 6 15.585m5.25-4.335l-1.859 5.069m7.859-5.069l-1.859 5.069"/><path class="cls-1" d="M14.25 23.25H10.5V21l-3.75-2.25C7.464 17 9.868 15.824 12 15.585"/><path class="cls-1" d="M16.5 21l-3.75-2.25c.992-2.439 5.25-3.75 7.5-3-.583 3.3.625 6.2 3 7.5H16.5z"/></svg>