<svg id="Regular" xmlns="http://www.w3.org/2000/svg" viewBox="0 0 24 24" width="24" height="24"><defs><style>.cls-1{fill:none;stroke:#000;stroke-linecap:round;stroke-linejoin:round;stroke-width:1.5px}</style></defs><title>agriculture-machine-plow-2</title><path class="cls-1" d="M.75 15.75h22.5m-16.5 0l5.25-4.5 5.25 4.5m-13.5 0V21l1.5 2.25M9 15.75V21l1.5 2.25m3.75-7.5V21l1.5 2.25m3.75-7.5V21l1.5 2.25m-9-12V7.5"/><path class="cls-1" d="M22.165 10.421a1.5 1.5 0 0 1-1.342.829H3.177a1.5 1.5 0 0 1-1.342-.829L.908 8.567A1.5 1.5 0 0 1 .75 7.9V6a1.5 1.5 0 0 1 1.5-1.5h19.5a1.5 1.5 0 0 1 1.5 1.5v1.9a1.5 1.5 0 0 1-.158.671zM8.25 4.5a3.75 3.75 0 0 1 7.5 0M5.25 8.25H.795m22.413 0H18.75"/></svg>