<svg id="Regular" xmlns="http://www.w3.org/2000/svg" viewBox="0 0 24 24" width="24" height="24"><defs><style>.cls-1,.cls-2{fill:none;stroke:#000;stroke-linecap:round;stroke-linejoin:round;stroke-width:1.5px}.cls-2{fill-rule:evenodd}</style></defs><title>agriculture-machine-harvester-1</title><circle class="cls-1" cx="3" cy="19.5" r="2.25"/><circle class="cls-1" cx="12" cy="18.75" r="3"/><path class="cls-1" d="M5.12 18.75H9"/><path class="cls-2" d="M7.5 10.5h-3a3 3 0 0 0-3 3v4.327M1.5 7.5H3A1.5 1.5 0 0 1 4.5 9v1.5"/><path class="cls-1" d="M15 18.75l2.25-13.5H7.5v7.5a3 3 0 0 0 3 3H12"/><path class="cls-2" d="M18 5.25a3 3 0 0 0-3-3H9.75a3 3 0 0 0-3 3zm0 9h5.25l-3.75 6h-2.25"/></svg>