<svg id="Regular" xmlns="http://www.w3.org/2000/svg" viewBox="0 0 24 24" width="24" height="24"><defs><style>.cls-1{fill:none;stroke:#000;stroke-linecap:round;stroke-linejoin:round;stroke-width:1.5px}</style></defs><title>agriculture-machine-seeder-3</title><path class="cls-1" d="M7.681 9l.569-4.5M16.319 9l-.569-4.5m-6.5-3h5.5a1 1 0 0 1 1 1v2h-7.5v-2a1 1 0 0 1 1-1zm-7 10.5l.566 3.962A1.5 1.5 0 0 0 4.3 17.25h.4a1.5 1.5 0 0 0 1.485-1.288L6.75 12zm0 8.25h19.5m-17.25-3v5.25M9.75 12l.566 3.962A1.5 1.5 0 0 0 11.8 17.25h.4a1.5 1.5 0 0 0 1.485-1.288L14.25 12zM12 17.25v5.25M17.25 12l.566 3.962A1.5 1.5 0 0 0 19.3 17.25h.4a1.5 1.5 0 0 0 1.485-1.288L21.75 12zm2.25 5.25v5.25"/></svg>