<svg id="Regular" xmlns="http://www.w3.org/2000/svg" viewBox="0 0 24 24" width="24" height="24"><defs><style>.cls-1{fill:none;stroke:#000;stroke-linecap:round;stroke-linejoin:round;stroke-width:1.5px}</style></defs><title>agriculture-machine</title><path class="cls-1" d="M17.653 18.75h-3.4V12a1.5 1.5 0 0 1 1.5-1.5h3a1.5 1.5 0 0 1 1.5 1.5v5.25M14.25 15H4.5L.75 18.75h13.5m1.5-8.25V7.1a14.21 14.21 0 0 0-1.035-5.323.75.75 0 0 1 .7-1.031h3.675a.751.751 0 0 1 .7 1.031A14.21 14.21 0 0 0 18.75 7.1v3.4M4.5 18.75v4.5"/><circle class="cls-1" cx="20.25" cy="20.25" r="3"/></svg>