<svg id="Regular" xmlns="http://www.w3.org/2000/svg" viewBox="0 0 24 24" width="24" height="24"><defs><style>.cls-1{fill:none;stroke:#000;stroke-linecap:round;stroke-linejoin:round;stroke-width:1.5px}</style></defs><title>agriculture-machine-plow-4</title><path class="cls-1" d="M6.931 16.5l.569-6m9.569 6l-.569-6m-8-3h7a1 1 0 0 1 1 1v2h-9v-2a1 1 0 0 1 1-1zM.75 23.25V21h6v2.25M3 21l1.158-3.474A1.5 1.5 0 0 1 5.581 16.5h12.838a1.5 1.5 0 0 1 1.423 1.026L21 21M3.75 23.25V21M9 23.25V21h6v2.25M12 21v2.25m5.25 0V21h6v2.25m-3-2.25v2.25"/><path class="cls-1" d="M12.75 7.5A3.75 3.75 0 0 0 9 3.75H5.25v-3H9a6.75 6.75 0 0 1 6.75 6.75v.032"/></svg>