<svg id="Regular" xmlns="http://www.w3.org/2000/svg" viewBox="0 0 24 24" width="24" height="24"><defs><style>.cls-1{fill:none;stroke:#000;stroke-linecap:round;stroke-linejoin:round;stroke-width:1.5px}</style></defs><title>agriculture-machine-seeder-2</title><path class="cls-1" d="M3 22.421h-.75a1.5 1.5 0 0 1-1.5-1.5v-4.5a1.5 1.5 0 0 1 1.5-1.5H3m1.3 6.751a1.5 1.5 0 0 1-1.3.749m18 0h.75a1.5 1.5 0 0 0 1.5-1.5v-4.5a1.5 1.5 0 0 0-1.5-1.5H21m-1.3 6.751a1.5 1.5 0 0 0 1.3.749m-.75-3.75H3.75l2.25-6h12l2.25 6z"/><path class="cls-1" d="M2.25 14.921V5.17L.908 3.671A1.5 1.5 0 0 1 2.25 1.5h19.5a1.5 1.5 0 0 1 1.342 2.171L21.75 5.17v9.751m-13.5-2.25v-6m0 14.25v-2.25m3.75-6v-6m0 14.25v-2.25m3.75-6v-6m0 14.25v-2.25"/><path class="cls-1" d="M5.25 10.421v-2.25a1.5 1.5 0 0 1 1.5-1.5h10.5a1.5 1.5 0 0 1 1.5 1.5v2.25"/></svg>