<svg id="Regular" xmlns="http://www.w3.org/2000/svg" viewBox="0 0 24 24" width="24" height="24"><defs><style>.cls-1,.cls-2{fill:none;stroke:#000;stroke-linecap:round;stroke-linejoin:round;stroke-width:1.5px}.cls-2{fill-rule:evenodd}</style></defs><title>agriculture-machine-tractor</title><path class="cls-1" d="M9.5.757H18a1 1 0 0 1 1 1v2H8.5v-2a1 1 0 0 1 1-1z"/><circle class="cls-1" cx="17.499" cy="18.007" r="5.25"/><circle class="cls-1" cx="17.499" cy="18.007" r="2.25"/><circle class="cls-1" cx="4.125" cy="19.882" r="3.375"/><path class="cls-1" d="M4.125 20.257a.375.375 0 0 1-.375-.375m.75 0a.375.375 0 0 1-.375.375m0-.75a.375.375 0 0 1 .375.375m-.75 0a.375.375 0 0 1 .375-.375m3.354.75h5.275"/><path class="cls-2" d="M2.25 17.077V12.39a1.5 1.5 0 0 1 1.09-1.443l3.683-1.19-.023 4.5h3l.5-.755a8.407 8.407 0 0 1 12.747-1.47"/><path class="cls-1" d="M7.023 9.757l2.226-6m11.494 6.651l-2.494-6.651"/></svg>