<svg id="Regular" xmlns="http://www.w3.org/2000/svg" viewBox="0 0 24 24" width="24" height="24"><defs><style>.cls-1{fill:none;stroke:#000;stroke-linecap:round;stroke-linejoin:round;stroke-width:1.5px}</style></defs><title>agriculture-machine-plow-3</title><path class="cls-1" d="M3.747 22.874h-3v-9.75a1.5 1.5 0 0 1 3 0zm19.5 0h-3v-9.75a1.5 1.5 0 0 1 3 0zM6.928 10.124l.569-6m9.57 6l-.57-6m-7.997-3h7a1 1 0 0 1 1 1v2h-9v-2a1 1 0 0 1 1-1zm-4.753 12h16.5m-16.5 7.5h16.5m-12.75-7.5v2.25m4.5-2.25v2.25m4.5-2.25v2.25m-9 5.25v2.25m4.5-2.25v2.25m4.5-2.25v2.25m-12.75-5.25h16.5"/></svg>