<svg id="Regular" xmlns="http://www.w3.org/2000/svg" viewBox="0 0 24 24" width="24" height="24"><defs><style>.cls-1{fill:none;stroke:#000;stroke-linecap:round;stroke-linejoin:round;stroke-width:1.5px}</style></defs><title>agriculture-machine-rottary-tiller</title><path class="cls-1" d="M3.75 19.75a1.5 1.5 0 0 1-3 0v-3a1.5 1.5 0 0 1 3 0zm19.5 0a1.5 1.5 0 0 1-3 0v-3a1.5 1.5 0 0 1 3 0zM6.75 14.5v-2.7a3 3 0 0 1 1.4-2.54C9.3 8.535 11.555 7.282 12 5.5m5.25 9v-2.7a3 3 0 0 0-1.4-2.54C14.7 8.535 12.446 7.282 12 5.5m0 0v9"/><path class="cls-1" d="M4.5 9.25L1.478 7.437A1.5 1.5 0 0 1 .75 6.151V4a1.5 1.5 0 0 1 1.5-1.5h19.5a1.5 1.5 0 0 1 1.5 1.5v2.151a1.5 1.5 0 0 1-.728 1.286L19.5 9.25m-15.75 9h16.5M7.5 16.75v3m3-3v3m3-3v3m3-3v3m-14.25-4.5V11.5m19.5 3.75V11.5"/></svg>