<svg id="Regular" xmlns="http://www.w3.org/2000/svg" viewBox="0 0 24 24" width="24" height="24"><defs><style>.cls-1{fill:none;stroke:#000;stroke-linecap:round;stroke-linejoin:round;stroke-width:1.5px}</style></defs><title>agriculture-machine-seeder</title><path class="cls-1" d="M23.25 17H.75v-1.1a1.5 1.5 0 0 1 1.1-1.446C5.234 13.517 8.617 12.5 12 12.5s6.766 1.017 10.15 1.95a1.5 1.5 0 0 1 1.1 1.446zM12 10.25V17m-5.069-3.876L7.5 5m9.569 8.124L16.5 5m-8-3h7a1 1 0 0 1 1 1v2h-9V3a1 1 0 0 1 1-1zM2.25 20l-.75 2.25M5.25 20L6 22.25M21.75 20l.75 2.25M18.75 20L18 22.25"/></svg>