<svg id="Regular" xmlns="http://www.w3.org/2000/svg" viewBox="0 0 24 24" width="24" height="24"><defs><style>.cls-1{fill:none;stroke:#000;stroke-linecap:round;stroke-linejoin:round;stroke-width:1.5px}</style></defs><title>agriculture-machine-tractor-1</title><path class="cls-1" d="M.75 20.25V16.5a9.75 9.75 0 0 1 9.75-9.75v13.5z"/><circle class="cls-1" cx="2.25" cy="21.75" r="1.5"/><circle class="cls-1" cx="9" cy="21.75" r="1.5"/><path class="cls-1" d="M10.5 6.75l2.067-5.513a.751.751 0 0 1 .7-.487h6.46a.751.751 0 0 1 .7.487l1.687 4.5a.75.75 0 0 1-.7 1.013zM12.75 18a5.25 5.25 0 0 1 10.5 0c0 6.086-7.875 6.9-7.875 2.187a3.062 3.062 0 0 1 3.063-3.062M.75 17.25h4.5"/></svg>