<svg id="Regular" xmlns="http://www.w3.org/2000/svg" viewBox="0 0 24 24" width="24" height="24"><defs><style>.cls-1{fill:none;stroke:#000;stroke-linecap:round;stroke-linejoin:round;stroke-width:1.5px}</style></defs><title>agriculture-machine-harraw</title><path class="cls-1" d="M.75 8.25h22.5m-3.75-6l-15 6m18 0h-3v-6a1.5 1.5 0 0 1 3 0zm.75 3H.75m2.25 0v5.377a7.589 7.589 0 0 0 3.75 6.54s-4.5.75-6-2.25m10.5-9.667v5.377a7.589 7.589 0 0 0 3.75 6.54s-4.5.75-6-2.25m10.5-9.667v5.377a7.589 7.589 0 0 0 3.75 6.54s-4.5.75-6-2.25"/></svg>