<svg xmlns="http://www.w3.org/2000/svg" viewBox="0 0 24 24" width="24" height="24"><path fill="none" stroke="#000" stroke-linecap="round" stroke-linejoin="round" stroke-miterlimit="10" d="M1.5 12.5l-1 .026V2.5a2 2 0 012-2h19a2 2 0 012 2v10h-1"/><path fill="none" stroke="#000" stroke-linejoin="round" stroke-miterlimit="10" d="M2.5 10.5h19l-2 4h-15z"/><path fill="none" stroke="#000" stroke-linecap="round" stroke-linejoin="round" stroke-miterlimit="10" d="M3.5 2.5h17m-17 2h17"/><path d="M17.5 6a.5.5 0 100 1 .5.5 0 000-1zm2 0a.5.5 0 100 1 .5.5 0 000-1z"/><path fill="none" stroke="#000" stroke-linejoin="round" stroke-miterlimit="10" d="M.5 8.5h23"/><path fill="none" stroke="#000" stroke-linecap="round" stroke-linejoin="round" stroke-miterlimit="10" d="M5.5 16.5c1.743 1.742-1.706 4.294 0 6m6-6c1.743 1.742-1.706 4.294 0 6m6.5-6c1.743 1.742-1.706 4.294 0 6"/><path fill="none" d="M0 0h24v24H0z"/></svg>