<svg xmlns="http://www.w3.org/2000/svg" viewBox="0 0 24 24" width="24" height="24"><g fill="none" stroke="#000" stroke-linejoin="round" stroke-miterlimit="10"><path d="M23.5 21.5a1 1 0 01-1 1h-21a1 1 0 01-1-1v-12a1 1 0 011-1h21a1 1 0 011 1v12zm-4 2.5v-1.5M4.5 24v-1.498"/><path stroke-linecap="round" d="M11.5 10.5v10m-2-10v10m4-10v10m2-10v10m2-10v10m2-10v10m2-10v10m-16-9a1 1 0 112 0v4a1 1 0 11-2 0v-4z"/><circle stroke-linecap="round" cx="6.5" cy="19" r="1"/><circle stroke-linecap="round" cx="3" cy="12" r=".5"/><circle stroke-linecap="round" cx="3" cy="15" r=".5"/><path stroke-linecap="round" d="M15 .484c-.938 2.327 1 3.516 0 6m4-6c-.938 2.327 1 3.516 0 6m-8-6c-.938 2.327 1 3.516 0 6"/></g><path fill="none" d="M0 0h24v24H0z"/></svg>