<svg xmlns="http://www.w3.org/2000/svg" viewBox="0 0 24 24" width="24" height="24"><g fill="none" stroke="#000" stroke-linejoin="round" stroke-miterlimit="10"><path d="M22 9c0 6-6.444 8-10 8S2 15 2 9 6.109.5 12 .5 22 3 22 9zM9.5 20.5h5v3h-5zm7.773-4.686L14.5 20.5m-7.773-4.686L9.5 20.5"/><path stroke-linecap="round" d="M8 20.5h8"/><path d="M17.417 8.666C17.417 13.269 14.991 17 12 17s-5.417-3.731-5.417-8.334C6.583 4.064 9.008.5 12 .5s5.417 3.564 5.417 8.166z"/></g><path fill="none" d="M0 0h24v24H0z"/></svg>