<svg xmlns="http://www.w3.org/2000/svg" viewBox="0 0 24 24" width="24" height="24"><defs><style>.a{fill:none;stroke:#000;stroke-linecap:round;stroke-linejoin:round;stroke-width:1.5px}</style></defs><title>aircraft-propeller-2</title><path class="a" d="M15.75 23.25a2.25 2.25 0 1 1 1.614-3.817 3 3 0 1 1 2.886 3.817zm1.5-13.5v-6h-12l-1.8-2.4a1.5 1.5 0 0 0-2.7.9v2.469A3 3 0 0 0 2.636 7.5l4.541 1.821A6.01 6.01 0 0 0 9.4 9.75zm6-3h-3m3-3v-3m0 12v-3"/><path class="a" d="M9.75 3.75a3 3 0 0 1 6 0zm7.5 0h1.5a1.5 1.5 0 0 1 1.5 1.5v3a1.5 1.5 0 0 1-1.5 1.5h-1.5"/></svg>