<svg xmlns="http://www.w3.org/2000/svg" viewBox="0 0 24 24" width="24" height="24"><defs><style>.a{fill:none;stroke:#000;stroke-linecap:round;stroke-linejoin:round;stroke-width:1.5px}</style></defs><title>aircraft-chopper</title><path class="a" d="M17.25 12.942V10.5a5.25 5.25 0 0 0-10.5 0v2.442M12 5.25V.75M.75 2.25h22.5M17.2 19.325a4.5 4.5 0 0 1 2.3 3.925m-2.25 0H21M6.8 19.325a4.5 4.5 0 0 0-2.3 3.925m2.25 0H3m9-10.5v-7.5"/><path class="a" d="M19.5 16.125a3.375 3.375 0 0 1-3.375 3.375h-8.25a3.375 3.375 0 0 1 0-6.75h8.25a3.375 3.375 0 0 1 3.375 3.375zm-4.125-.375a.375.375 0 0 1 .375.375m-.75 0a.375.375 0 0 1 .375-.375m0 .75a.375.375 0 0 1-.375-.375m.75 0a.375.375 0 0 1-.375.375m-6.75-.75a.375.375 0 0 0-.375.375m.75 0a.375.375 0 0 0-.375-.375m0 .75A.375.375 0 0 0 9 16.125m-.75 0a.375.375 0 0 0 .375.375"/></svg>