<svg xmlns="http://www.w3.org/2000/svg" viewBox="0 0 24 24" width="24" height="24"><defs><style>.a{fill:none;stroke:#000;stroke-linecap:round;stroke-linejoin:round;stroke-width:1.5px}</style></defs><title>aircraft-hot-air-balloon-1</title><path class="a" d="M12.75 18.75v1.5a1.5 1.5 0 0 0 1.5 1.5h3a1.5 1.5 0 0 0 1.5-1.5v-2.844"/><ellipse class="a" cx="12.75" cy="11.25" rx="10.5" ry="7.5"/><path class="a" d="M3.708 7.434L.9 3.5a.79.79 0 0 1 .64-1.25h2.33a2.293 2.293 0 0 1 1.18.327l3.173 1.9M3.708 15.066L.9 19a.79.79 0 0 0 .64 1.25h2.33a2.293 2.293 0 0 0 1.18-.327l3.173-1.9M.75 11.25h6"/></svg>