<svg xmlns="http://www.w3.org/2000/svg" viewBox="0 0 24 24" width="24" height="24"><defs><style>.a{fill:none;stroke:#000;stroke-linecap:round;stroke-linejoin:round;stroke-width:1.5px}</style></defs><title>aircraft-propeller-1</title><path class="a" d="M15.75 22.5a2.25 2.25 0 1 1 1.614-3.817A3 3 0 1 1 20.25 22.5zm7.5-15h-3m3-3v-3m0 12v-3m-6-6h1.5a1.5 1.5 0 0 1 1.5 1.5v3a1.5 1.5 0 0 1-1.5 1.5h-1.5m-.75-9h-5.25m3 6.75H9m5.25-6.75L12 8.25"/><path class="a" d="M6.75 9.9L2.636 8.254A3 3 0 0 1 .75 5.469V3a1.5 1.5 0 0 1 2.7-.9l1.8 2.4h12v6h-3m1.5 0v2.25"/><circle class="a" cx="15.75" cy="14.25" r="1.5"/></svg>