<svg xmlns="http://www.w3.org/2000/svg" viewBox="0 0 24 24" width="24" height="24"><defs><style>.a{fill:none;stroke:#000;stroke-linecap:round;stroke-linejoin:round;stroke-width:1.5px}</style></defs><title>aircraft-propeller</title><path class="a" d="M15.75 23.25a2.25 2.25 0 1 1 1.614-3.817 3 3 0 1 1 2.886 3.817zM11.9 9.75h5.35v-6h-12l-1.8-2.4a1.5 1.5 0 0 0-2.7.9V6A3.75 3.75 0 0 0 4.5 9.75H6m17.25-3H21m-3.75 3a4 4 0 0 0 3.75-3 4 4 0 0 0-3.75-3m6 0v-3m0 12v-3"/><path class="a" d="M6 9.75l-.671 2.665A.75.75 0 0 0 6 13.5c4.558 0 5.882-3.269 6.75-6m-3-3.75a3 3 0 0 1 6 0z"/></svg>