<svg xmlns="http://www.w3.org/2000/svg" viewBox="0 0 24 24" width="24" height="24"><defs><style>.a{fill:none;stroke:#000;stroke-linecap:round;stroke-linejoin:round;stroke-width:1.5px}</style></defs><title>aircraft-plane-water-1</title><path class="a" d="M23.007 17.931a1.5 1.5 0 0 0-1.257-.681H2.25a1.5 1.5 0 0 0-1.372 2.106c.444 1 2.872 2.394 4.372 2.394h13.5c1.5 0 3.928-1.389 4.372-2.394a1.5 1.5 0 0 0-.115-1.425zM18 17.25l-1.5-3m-10.5 3l1.5-3m0-6H5.625l-.671-1.342A3 3 0 0 0 2.271 5.25H1.5a.75.75 0 0 0-.692 1.038L3.356 12.4a3 3 0 0 0 2.769 1.85H16.5c2.25 0 5.25-3 5.25-6h-6a1.5 1.5 0 0 1-1.5-1.5v-3c-3.75 0-6.75 4.5-6.75 4.5zm14.25 0h1.5m0-3v-3m0 12v-3m-4.5-3a4.5 4.5 0 0 0-4.5-4.5m-6 7.5h7.5"/></svg>