<svg xmlns="http://www.w3.org/2000/svg" viewBox="0 0 24 24" width="24" height="24"><defs><style>.a{fill:none;stroke:#000;stroke-linecap:round;stroke-linejoin:round;stroke-width:1.5px}</style></defs><title>aircraft-military-plane-2</title><path class="a" d="M9.531 18c-1.463.143-3.4.693-4.169 2.238a1.089 1.089 0 0 0 .026 1.011.952.952 0 0 0 .825.5h3.6M14.469 18c1.463.143 3.4.693 4.169 2.238a1.089 1.089 0 0 1-.026 1.011.952.952 0 0 1-.825.5h-3.6M9.125 8.25H3a1.5 1.5 0 0 0-1.5 1.5v1.759a1.5 1.5 0 0 0 1.219 1.473l6.656 1.268m5.5-6H21a1.5 1.5 0 0 1 1.5 1.5v1.759a1.5 1.5 0 0 1-1.219 1.473l-6.656 1.268M12 5.25V.75m-4.5 1.5h9"/><path class="a" d="M14.344 21a2.346 2.346 0 0 1-4.688 0L9.125 8.247a2.877 2.877 0 1 1 5.75 0zM12 8.25v1.5"/></svg>