<svg xmlns="http://www.w3.org/2000/svg" viewBox="0 0 24 24" width="24" height="24"><defs><style>.a{fill:none;stroke:#000;stroke-linecap:round;stroke-linejoin:round;stroke-width:1.5px}</style></defs><title>aircraft-chopper-2</title><path class="a" d="M5.316 7.5H14.7a8.567 8.567 0 0 1 8.286 6.381 7.32 7.32 0 0 1 .266 1.869A2.2 2.2 0 0 1 21 18h-8.25a2.127 2.127 0 0 1-2-1.412l-1.22-3.416a2.252 2.252 0 0 0-1.634-1.44l-4.383-.969a2.249 2.249 0 0 1-1.626-1.407L.848 6.586a1.544 1.544 0 0 1 2.681-1.468zm8.934 0v-6m9 1.5h-18"/><path class="a" d="M15.75 10.5V7.564a8.569 8.569 0 0 1 7.123 5.936H18.75a3 3 0 0 1-3-3zm7.5 10.5a1.5 1.5 0 0 1-1.5 1.5h-10.5a1.5 1.5 0 0 1-1.5-1.5M21 22.5L18.75 18M12 22.5l2.25-4.5"/></svg>