<svg xmlns="http://www.w3.org/2000/svg" viewBox="0 0 24 24" width="24" height="24"><g fill="none" stroke="#000" stroke-linecap="round" stroke-linejoin="round" stroke-miterlimit="10"><path d="M17.5 7.5A3.504 3.504 0 0014 3.995a3.49 3.49 0 00-2.449 1L8 8.5H6.5L4.999 6.493A2.497 2.497 0 003 5.495H.5c0 .562.185 1.079.496 1.496L5 12.5h12.5l3.283-3.383A.995.995 0 0020 7.5h-2.5zm3.5.995h2m-.5 1.5v2m0-5v-2"/><path d="M17.5 7.5h-4V4.031m-5 6.469H15m3.5 8c1.657 0 3-1.348 3-3.005h-19a3.004 3.004 0 003 3.005h13zm-11-6.005l-1 3m10-3l1 3M.5 21.5H2m2.5 0h10M5 1.5h1.5m2 0H17"/></g><path fill="none" d="M0 0h24v24H0z"/></svg>