<svg xmlns="http://www.w3.org/2000/svg" viewBox="0 0 24 24" width="24" height="24"><defs><style>.a{fill:none;stroke:#000;stroke-linecap:round;stroke-linejoin:round;stroke-width:1.5px}</style></defs><title>airplane-mode</title><path class="a" d="M.75 23.25L23.25.75M7.132 20.123a1.833 1.833 0 0 0 2.592 2.592L12 20.44l2.276 2.275a1.833 1.833 0 0 0 2.593-2.592L15 18.254V13.37c5.335 3.774 5.391 4.01 6.293 4.01a1.956 1.956 0 0 0 1.3-3.423l-4.671-4.118M15 5.25v-1.5a3 3 0 0 0-6 0v3.512l-7.588 6.7a1.956 1.956 0 0 0 1.3 3.423"/></svg>