<svg xmlns="http://www.w3.org/2000/svg" viewBox="0 0 24 24" width="24" height="24"><defs><style>.a{fill:none;stroke:#000;stroke-linecap:round;stroke-linejoin:round;stroke-width:1.5px}</style></defs><title>airport</title><path class="a" d="M18.585 5.25H5.415a.751.751 0 0 0-.736.9l1.08 5.4a1.5 1.5 0 0 0 1.471 1.2H9l-2.056 9.592a.751.751 0 0 0 .734.908h8.644a.751.751 0 0 0 .734-.908L15 12.75h1.77a1.5 1.5 0 0 0 1.471-1.206l1.08-5.4a.751.751 0 0 0-.736-.894zM12 5.25V.75m4.5 4.5v-3m-9 3v-3m-2.4 6h13.797M9 12.75h6m-6-4.5v4.5m6-4.5v4.5"/></svg>