<svg xmlns="http://www.w3.org/2000/svg" viewBox="0 0 24 24" width="24" height="24"><g fill="none" stroke="#000" stroke-linejoin="round" stroke-miterlimit="10"><path stroke-linecap="round" d="M17.5 7.5A3.5 3.5 0 0011.551 5L8 8.5H6.5L4.999 6.498A2.497 2.497 0 003 5.5H.5c0 .562.185 1.079.496 1.496L5 12.5h12.5l3.283-3.378A1 1 0 0020 7.5h-2.5zm3.5 1h2m-.5 1.5v2m0-5V5"/><path d="M17.5 7.5h-4V4.036"/><path stroke-linecap="round" d="M8.5 10.5H15m-9.5 8a3 3 0 01-3-3h19a3 3 0 01-3 3m-11-6l-1 3m10-3l1 3M7.751 19.75a2.65 2.65 0 01-4.504-.004m9.004.004a2.65 2.65 0 01-4.504-.004m9 .004a2.65 2.65 0 01-4.504-.004m9.004.004a2.65 2.65 0 01-4.504-.004M23.5 21a2.65 2.65 0 01-2.253-1.254m-17.992.004A2.648 2.648 0 011.004 21"/></g><path fill="none" d="M0 0h24v24H0z"/></svg>