<svg xmlns="http://www.w3.org/2000/svg" viewBox="0 0 24 24" width="24" height="24"><g fill="none" stroke="#000" stroke-linecap="round" stroke-linejoin="round" stroke-miterlimit="10"><path d="M23.5 19.5c0 2.2-1.8 4-4 4h-15c-2.2 0-4-1.8-4-4v-15c0-2.199 1.8-4 4-4h15c2.2 0 4 1.801 4 4v15z"/><path d="M8.219 12.084l-2.655-1.188-2.004 1.153 4.561 2.944 4.543-1.791-1.926 5 2.273-1.182 2.771-5.062 3.456-1.522a1.278 1.278 0 00-.99-2.356L8.219 12.084z"/><path d="M14.569 9.549L10.5 7 8.466 8.051l3.696 2.459"/></g><path fill="none" d="M0 0h24v24H0z"/></svg>