<svg xmlns="http://www.w3.org/2000/svg" viewBox="0 0 24 24" width="24" height="24"><g fill="none" stroke="#000" stroke-linejoin="round" stroke-miterlimit="10"><path stroke-linecap="round" d="M9.5 8.995l4.188 5.487a3.73 3.73 0 002.562 1.013h3.25l-2.5-5h1.5a5 5 0 005-5v-3H22l-3 3H5c-1.45 0-1.731.809-3 2.5 1.262 1.685 1.543 2.5 3 2.5h5.5"/><path stroke-linecap="round" d="M6 5.495c0-1.656 1.344-3 3-3h2.5c1.656 0 3 1.344 3 3m-4-3v3m-9-1.5v2m0 4v2m6-2.5v2.5"/><circle stroke-linecap="round" cx="7.5" cy="12.995" r="1"/><path stroke-linecap="round" d="M2.5 21.745a3.25 3.25 0 116.5 0m-6.5-.25a2 2 0 00-2 2h12A3.001 3.001 0 009 20.537"/><path d="M4.5 5.495v5"/></g><path fill="none" d="M0 0h24v24H0z"/></svg>