<svg xmlns="http://www.w3.org/2000/svg" viewBox="0 0 24 24" width="24" height="24"><defs><style>.a{fill:none;stroke:#000;stroke-linecap:round;stroke-linejoin:round;stroke-width:1.5px}</style></defs><title>airport-stairs</title><path class="a" d="M8.315 18v-4.5a1.5 1.5 0 0 0-1.5-1.5H5.492a1.5 1.5 0 0 0-1.342.829L3.065 15l-1.582 1.054A1.5 1.5 0 0 0 .815 17.3v2.2a1.5 1.5 0 0 0 1.5 1.5h2.378"/><circle class="a" cx="6.815" cy="20.25" r="2.25"/><circle class="a" cx="18.065" cy="20.25" r="2.25"/><path class="a" d="M23 16.761L11.014 2.023A1.5 1.5 0 0 0 9.875 1.5h-5.31a.749.749 0 0 0-.75.75v3a.75.75 0 0 0 .75.75h4.5l9 12h4.369A.75.75 0 0 0 23 16.761zM8.315 18h9.75m-9.129 3h7.007"/></svg>