<svg xmlns="http://www.w3.org/2000/svg" viewBox="0 0 24 24" width="24" height="24"><g fill="none" stroke="#000" stroke-linecap="round" stroke-linejoin="round" stroke-miterlimit="10"><path d="M16.002 9.973A4.029 4.029 0 0012 5.5a4.03 4.03 0 00-4.003 4.473l1.227 11.043a2.792 2.792 0 005.552 0l1.226-11.043z"/><path d="M13.578 13.5l.331-3.178A1.913 1.913 0 0012 8.203c-1.118 0-2.035.977-1.909 2.117l.253 3.18h3.234zm2.068 0H21.5a2 2 0 002-2v-2a2 2 0 00-2-2h-6.021m-6.959 0H2.5a2 2 0 00-2 2v2a2 2 0 002 2h5.77m1.73-8s.094-4 2-4 2 4 2 4h-4zm-.678 16H5.5a3 3 0 013-3h.444m6.111 0h.445a3 3 0 013 3h-3.822M7 3.5h10m1.489 4v6m2-6v6M3.5 7.5v6m2-6v6"/></g><path fill="none" d="M0 0h24v24H0z"/></svg>