<svg xmlns="http://www.w3.org/2000/svg" viewBox="0 0 24 24" width="24" height="24"><g fill="none" stroke="#000" stroke-linejoin="round" stroke-miterlimit="10"><path stroke-linecap="round" d="M12 3.5a1 1 0 00-1 1l-3 .001L10.631 7.5 8.658 17.556A3.389 3.389 0 0012 21.5m-1.5-4h3M12 3.5a1 1 0 011 1l3 .001L13.37 7.5l1.972 10.056A3.388 3.388 0 0112 21.5"/><path d="M8.879 16.431S2 11.001 1.431 10.5c-.562-.492-.501-1.304.246-1.304l8.152 2.392"/><path stroke-linecap="round" d="M13.5 17.5h-3M12 3.5a1 1 0 00-1 1l-3 .001L10.631 7.5 8.658 17.556A3.389 3.389 0 0012 21.5"/><path d="M15.121 16.431S22 11.001 22.57 10.5c.561-.492.5-1.304-.246-1.304l-8.153 2.389"/></g><path fill="none" d="M0 0h24v24H0z"/></svg>