<svg xmlns="http://www.w3.org/2000/svg" viewBox="0 0 24 24" width="24" height="24"><defs><style>.a{fill:none;stroke:#000;stroke-linecap:round;stroke-linejoin:round;stroke-width:1.5px}</style></defs><title>airport-signal</title><path class="a" d="M18.585 23.113H5.415a.751.751 0 0 1-.736-.9l1.08-5.4a1.5 1.5 0 0 1 1.471-1.2h9.54a1.5 1.5 0 0 1 1.471 1.206l1.08 5.4a.751.751 0 0 1-.736.894z"/><path class="a" d="M16.5 15.613h-9v-2.25a.75.75 0 0 1 .75-.75h7.5a.75.75 0 0 1 .75.75zm-2-7.5h-5a.477.477 0 0 1-.5-.45v-3.6a.477.477 0 0 1 .5-.45h5a.477.477 0 0 1 .5.45v3.6a.477.477 0 0 1-.5.45zm-2.5 0v4.5m-1.5 6h3v4.5h-3zm7.416-9.564a6.72 6.72 0 0 0 0-6.372m-11.832 0a6.72 6.72 0 0 0 0 6.372M2.757.886a10.515 10.515 0 0 0 0 9.954m18.486 0a10.515 10.515 0 0 0 0-9.954M12 3.613v4.5"/></svg>