<svg xmlns="http://www.w3.org/2000/svg" viewBox="0 0 24 24" width="24" height="24"><g fill="none" stroke="#000" stroke-linecap="round" stroke-linejoin="round" stroke-miterlimit="10"><path d="M7 10.495a4.5 4.5 0 010-9h12a4.5 4.5 0 010 9H7z"/><path d="M3 3.995l-2.5-1v6l2.5-1m-.244-.5h20.488m-20.488-3H11m2 0h1m2 0h1m2 0h4.244m-13.744 6l1 3H15l1-3m-4.5 1.5H14m-9.972 9.999a4.501 4.501 0 018.866-.477"/><path d="M4.165 21.284c-.418-.314-.602-.289-1.165-.289a2.5 2.5 0 00-2.5 2.5H17a3.5 3.5 0 00-4.638-3.311"/></g><path fill="none" d="M0 0h24v24H0z"/></svg>