<svg xmlns="http://www.w3.org/2000/svg" viewBox="0 0 24 24" width="24" height="24"><defs><style>.a,.b{fill:none;stroke:#000;stroke-linecap:round;stroke-width:1.5px}.a{stroke-linejoin:round}.b{stroke-miterlimit:10}</style></defs><title>alert-user</title><path class="a" d="M18 .75a5.227 5.227 0 0 0-3.938 8.69l-.656 3.779 3.423-2.11A5.246 5.246 0 1 0 18 .75z"/><circle class="a" cx="8.232" cy="15.375" r="3.375"/><path class="a" d="M13.46 23.243A6.062 6.062 0 0 0 3 23.25M18 7.5a.375.375 0 1 1-.375.375A.375.375 0 0 1 18 7.5"/><path class="b" d="M18 5.25v-1.5"/><path class="a" d="M18 14.25v9m-17.25 0V3.75a3 3 0 0 1 3-3h7.5m-10.5 6h9m-3-3h3"/></svg>