<svg xmlns="http://www.w3.org/2000/svg" viewBox="0 0 24 24" width="24" height="24"><defs><style>.a,.b{fill:none;stroke:#000;stroke-linecap:round;stroke-width:1.5px}.a{stroke-linejoin:round}.b{stroke-miterlimit:10}</style></defs><title>alert-message-laptop</title><path class="a" d="M21.75 15.75v3m-19.5 0V8.25a1.5 1.5 0 0 1 1.5-1.5H7.5m7.084 12a2.976 2.976 0 0 1-5.168 0H.75v1.5a3 3 0 0 0 3 3h16.5a3 3 0 0 0 3-3v-1.5zm4.074-17.739a6.363 6.363 0 0 0-7.582 8.8L9.013 14l4.722-1.29a6.387 6.387 0 1 0 4.923-11.7z"/><path class="a" d="M16.875 9.032a.375.375 0 1 1-.375.375.374.374 0 0 1 .375-.375"/><path class="b" d="M16.875 6.782v-3"/></svg>