<svg xmlns="http://www.w3.org/2000/svg" viewBox="0 0 24 24" width="24" height="24"><g fill="none" stroke="#000" stroke-linejoin="round" stroke-miterlimit="10"><path d="M17.5 12.5a6 6 0 00-12 0v9.093a1.907 1.907 0 003.774.389l.426-2.046a1.805 1.805 0 013.538.029l.373 1.943a1.962 1.962 0 003.889-.37V12.5zm-6-6v-3"/><circle cx="11.5" cy="2" r="1.5"/><path d="M14.703 7.427l1.015-2.908"/><circle cx="16.343" cy="3.143" r="1.5"/><path d="M8.315 7.414l-.996-2.926"/><circle cx="6.656" cy="3.143" r="1.5"/><circle cx="11.5" cy="12" r="3.5"/><circle cx="11.5" cy="12" r="1"/></g><path fill="none" d="M0 0h24v24H0z"/></svg>