<svg xmlns="http://www.w3.org/2000/svg" viewBox="0 0 24 24" width="24" height="24"><defs><style>.a{fill:none;stroke:#000;stroke-linecap:round;stroke-linejoin:round;stroke-width:1.5px}</style></defs><title>allowances-no-bikinis</title><circle class="a" cx="12" cy="12" r="11.25"/><path class="a" d="M4.045 4.046l15.91 15.909M8.094 12.531a2.969 2.969 0 0 1-2.963-2.773m11.275 2.773a2.968 2.968 0 0 0 2.969-2.968C19.375 7.923 17 6 17 6l-2.875 2.875M7.5 4.5v-.875M17 6V3.625m-2.933 14.983a3.887 3.887 0 0 0-.706 1.432 1.188 1.188 0 0 1-1.15.9h-.3a1.186 1.186 0 0 1-1.15-.9 4.655 4.655 0 0 0-4.639-3.259.422.422 0 0 1-.4-.553L6.125 15h5.125M18 15l.221.678"/></svg>