<svg xmlns="http://www.w3.org/2000/svg" viewBox="0 0 24 24" width="24" height="24"><defs><style>.a{fill:none;stroke:#000;stroke-linecap:round;stroke-linejoin:round;stroke-width:1.5px}</style></defs><title>allowances-no-pushing</title><path class="a" d="M.75 2.187l19.5 19.5"/><circle class="a" cx="12" cy="4.437" r="2.625"/><path class="a" d="M14.25 11.937h3m-11.396.75L1.723 19.4a1.5 1.5 0 1 0 2.554 1.573l1.869-3.036h2.1a2.252 2.252 0 0 1 2.25 2.25 1.5 1.5 0 0 0 3 0 5.256 5.256 0 0 0-5.25-5.25h-.254m9.258-6H12m5.25 5.25v-9a1.5 1.5 0 0 1 1.5-1.5h3a1.5 1.5 0 0 1 1.5 1.5v12"/></svg>