<svg xmlns="http://www.w3.org/2000/svg" viewBox="0 0 24 24" width="24" height="24"><defs><style>.a{fill:none;stroke:#000;stroke-linecap:round;stroke-linejoin:round;stroke-width:1.5px}</style></defs><title>allowances-no-umbrellas</title><path class="a" d="M12 3.75v1.5"/><circle class="a" cx="12" cy="12" r="11.25"/><path class="a" d="M4.045 4.046l15.91 15.909M9.629 5.679a6.725 6.725 0 0 1 9.071 5.867 2.252 2.252 0 0 0-3.8-1.138m-8.992 0a2.237 2.237 0 0 0-.608 1.138 6.809 6.809 0 0 1 .4-1.906M5.25 12a2.27 2.27 0 0 1 .046-.454c-.011.154-.046.299-.046.454zm13.5 0c0-.155-.035-.3-.046-.454a2.27 2.27 0 0 1 .046.454zM9 18.75a1.5 1.5 0 0 0 3 0v-3"/></svg>