<svg xmlns="http://www.w3.org/2000/svg" viewBox="0 0 24 24" width="24" height="24"><defs><style>.a{fill:none;stroke:#000;stroke-linecap:round;stroke-linejoin:round;stroke-width:1.5px}</style></defs><title>allowances-no-skates</title><circle class="a" cx="12" cy="12" r="11.25"/><path class="a" d="M4.045 4.046l15.91 15.909M15.75 11.25v-6H10.5V6m2.25 9.75h-4.5a1.5 1.5 0 0 1-1.5-1.5 3 3 0 0 1 1.335-2.5M12 8.25h.75M7.5 18.375a.375.375 0 1 1-.375.375.375.375 0 0 1 .375-.375m3.75 0a.375.375 0 1 1-.375.375.375.375 0 0 1 .375-.375m3.75 0a.375.375 0 1 1-.375.375.375.375 0 0 1 .375-.375"/></svg>