<svg xmlns="http://www.w3.org/2000/svg" viewBox="0 0 24 24" width="24" height="24"><defs><style>.a{fill:none;stroke:#000;stroke-linecap:round;stroke-linejoin:round;stroke-width:1.5px}</style></defs><title>allowances-no-talking</title><path class="a" d="M7.88 21.572a6 6 0 0 0 3.206.928H14a5.118 5.118 0 0 0 3.625-1.5 5.122 5.122 0 0 0 1.5-3.621V9.75m-9 0V4.5a1.5 1.5 0 0 0-1.5-1.5 1.5 1.5 0 0 0-1.5 1.5v9.75L4.686 12.3a1.539 1.539 0 0 0-2.242.348 1.537 1.537 0 0 0 0 1.707L3.876 16.5m9.249-11.25V3a1.5 1.5 0 0 0-1.5-1.5 1.5 1.5 0 0 0-1.5 1.5v1.5m6 0a1.5 1.5 0 0 0-1.5-1.5 1.5 1.5 0 0 0-1.5 1.5v2.25m9-3.75L1.875 22.5"/></svg>