<svg id="Regular" xmlns="http://www.w3.org/2000/svg" viewBox="0 0 24 24" width="24" height="24"><defs><style>.cls-1{fill:none;stroke:#000;stroke-linecap:round;stroke-linejoin:round;stroke-width:1.5px}</style></defs><title>ambulance-human</title><circle class="cls-1" cx="6.75" cy="7.5" r="2.25"/><path class="cls-1" d="M6.75 10.5a3 3 0 0 0-3 3v2.25h1.5v3h3v-3h1.5V13.5a3 3 0 0 0-3-3zm-3-8.25V.75m6 1.5V.75m-6 22.5v-1.5m6 1.5v-1.5m13.5-16.5a.75.75 0 0 0-.75-.75H21V3a.75.75 0 0 0-.75-.75h-1.5A.75.75 0 0 0 18 3v1.5h-1.5a.75.75 0 0 0-.75.75v1.5a.75.75 0 0 0 .75.75H18V9a.75.75 0 0 0 .75.75h1.5A.75.75 0 0 0 21 9V7.5h1.5a.75.75 0 0 0 .75-.75z"/><rect class="cls-1" x=".75" y="2.25" width="12" height="19.5" rx=".5" ry=".5"/></svg>