<svg id="Regular" xmlns="http://www.w3.org/2000/svg" viewBox="0 0 24 24" width="24" height="24"><defs><style>.cls-1{fill:none;stroke:#000;stroke-linecap:round;stroke-linejoin:round;stroke-width:1.5px}</style></defs><title>ambulance-car</title><path class="cls-1" d="M8.25 18.75v-9a1.5 1.5 0 0 1 1.5-1.5h12a1.5 1.5 0 0 1 1.5 1.5v10.5a1.5 1.5 0 0 1-1.5 1.5h-.878M8.25 18.878V9.75H4.921a1.5 1.5 0 0 0-1.455 1.136L3 13.5l-1.582 1.055A1.5 1.5 0 0 0 .75 15.8v4.45a1.5 1.5 0 0 0 1.5 1.5h3.128"/><circle class="cls-1" cx="7.5" cy="21" r="2.25"/><circle class="cls-1" cx="18.75" cy="21" r="2.25"/><path class="cls-1" d="M9.622 21.75h7.006M16.5 7.5a2.25 2.25 0 0 0-4.5 0v.75h4.5zm-.75 4.5v4.5m-2.25-2.25H18m-3.75-12V.75m3.75 3l.75-1.5m-8.25 1.5l-.75-1.5"/></svg>