<svg id="Regular" xmlns="http://www.w3.org/2000/svg" viewBox="0 0 24 24" width="24" height="24"><defs><style>.cls-1{fill:none;stroke:#000;stroke-linecap:round;stroke-linejoin:round;stroke-width:1.5px}</style></defs><title>ambulance-helicopter</title><path class="cls-1" d="M1.145 21.75l1.5 1.5h13.5m3.414-15.829a1.5 1.5 0 0 1-1.341.829H9.4c-2.25 0-8.25 1.5-8.25 6.75a5.249 5.249 0 0 0 5.25 5.25h2.25c4.246 0 5.863-3.381 6.445-5.357a3.006 3.006 0 0 1 1.825-1.963l3.2-1.2a3 3 0 0 0 1.756-1.756l1.033-2.756a1.455 1.455 0 0 0-2.664-1.162zm-9.414.829V.75m-9 1.5h18M5.658 20.199l-.763 3.051m7.251-3.997l.999 3.997M8.645 12v4.5m-2.25-2.25h4.5"/></svg>