<svg xmlns="http://www.w3.org/2000/svg" viewBox="0 0 24 24" width="24" height="24"><g fill="none" stroke="#000" stroke-linecap="round" stroke-linejoin="round" stroke-miterlimit="10"><path d="M8 14.5h15.5v-12m-16 0V9m8 5.5v9m-4 0h8"/><ellipse transform="rotate(-1.329 15.525 9.016)" cx="15.5" cy="9" rx="2.5" ry="1.5"/><path d="M2.537 20.999c-.025.33-.037.663-.037 1.001m.93-4.935a13.415 13.415 0 00-.596 1.937M5.431 13.6c-.42.529-.802 1.09-1.141 1.679m4.073-4.414c-.56.385-1.088.811-1.583 1.273M11 9.455a14.01 14.01 0 00-.919.408"/></g><path fill="none" d="M0 0h24v24H0z"/></svg>