<svg id="Regular" xmlns="http://www.w3.org/2000/svg" viewBox="0 0 24 24" width="24" height="24"><defs><style>.cls-1{fill:none;stroke:#000;stroke-linecap:round;stroke-linejoin:round;stroke-width:1.5px}</style></defs><title>american-football-ball-1</title><path class="cls-1" d="M23.248 3.85a2.991 2.991 0 0 0-3.1-3.1c-3.67.14-9.889 1.05-14.117 5.281S.891 16.474.752 20.15a2.991 2.991 0 0 0 3.1 3.1c3.675-.138 9.894-1.05 14.122-5.279S23.109 7.526 23.248 3.85zm-7.498 4.4l-7.5 7.5m2.625-4.875l2.25 2.25M8.25 13.5l2.25 2.25m3-7.5l2.25 2.25M1.426 14.926l7.648 7.648m13.5-13.5l-7.648-7.648"/></svg>