<svg id="Regular" xmlns="http://www.w3.org/2000/svg" viewBox="0 0 24 24" width="24" height="24"><defs><style>.cls-1{fill:none;stroke:#000;stroke-linecap:round;stroke-linejoin:round;stroke-width:1.5px}</style></defs><title>amphibian-chameleon-1</title><path class="cls-1" d="M2.313 6.75l2.25-1.5s.75-4.5 3.75-4.5 3.75 4.5 3.75 4.5l2.25 1.5m-9.75 1.5l-1.5 1.5m9-1.5l1.5 1.5m-9 1.5a20.755 20.755 0 0 0-.75 6c0 3.75 2.25 6 6.75 6a8.362 8.362 0 0 0 8.25-5.25c1.5-3.75.75-6 .75-6m-7.5-.75s1.5 4.5 0 8.25"/><path class="cls-1" d="M16.563 9.75s3-3 5.25-.75c3.4 3.4 0 11.25-2.25 13.5M.75 13.5a2.117 2.117 0 0 0 3.408-.487M.75 17.333a2.078 2.078 0 0 0 3.072-.074m8.707-3.98c1.057 1.057 2.222 1.22 3.221.221m-3.113 3.72a2.044 2.044 0 0 0 3.113.113m-9-12.083V6m3-.75V6"/></svg>