<svg id="Regular" xmlns="http://www.w3.org/2000/svg" viewBox="0 0 24 24" width="24" height="24"><defs><style>.cls-1{fill:none;stroke:#000;stroke-linecap:round;stroke-linejoin:round;stroke-width:1.5px}</style></defs><title>amphibian-frog-body</title><path class="cls-1" d="M16.29 14.386c.664-1.091 1.611-1.956 2.793-1.47 1.979.815-.333 5.625-.333 5.625"/><path class="cls-1" d="M7.5 14.791c1.321-2.2.286-5.948-.516-8.34a2.5 2.5 0 0 1 .832-2.78l3.417-2.658a1.249 1.249 0 0 1 1.534 0l3.417 2.658a2.5 2.5 0 0 1 .832 2.78c-.8 2.392-1.837 6.139-.516 8.34"/><path class="cls-1" d="M5.25 18.541s-2.312-4.81-.333-5.625c1.181-.486 2.128.378 2.793 1.47"/><path class="cls-1" d="M1.375 16.041s.506 6.25 4.048 6.25c3.035 0 3.035-3.125 3.035-3.125A8.66 8.66 0 0 0 12 20.416a8.66 8.66 0 0 0 3.542-1.25s0 3.125 3.035 3.125c3.542 0 4.048-6.25 4.048-6.25M7.115 6.848c-.293 1.129-.851 2.318-2.059 2.318-1.459 0-2.431-2.5-2.431-2.5M.75 5.416l1.875 1.25.625-1.875m13.635 2.057c.293 1.129.851 2.318 2.059 2.318 1.459 0 2.431-2.5 2.431-2.5m1.875-1.25l-1.875 1.25-.625-1.875m-8.75 4v5.25"/></svg>