<svg id="Regular" xmlns="http://www.w3.org/2000/svg" viewBox="0 0 24 24" width="24" height="24"><defs><style>.cls-1{fill:none;stroke:#000;stroke-linecap:round;stroke-linejoin:round;stroke-width:1.5px}</style></defs><title>amphibian-chameleon-2</title><path class="cls-1" d="M6.75 5.25h-1.5a4.791 4.791 0 0 0-4.5 4.5c0 2.071 2.015 3 4.5 3 6.75 0 13.5-.75 13.5 1.5s-3 2.25-3 2.25"/><path class="cls-1" d="M15.992 12.755a4.569 4.569 0 0 0-4.742 2.995c-.75 3 1.5 4.5 4.5 4.5 3.75 0 7.5-1.5 7.5-8.25 0-4.38-3.158-5.918-8.245-6.458M5.625 8.25A.375.375 0 0 1 6 8.625m-.75 0a.375.375 0 0 1 .375-.375m0 .75a.375.375 0 0 1-.375-.375m.75 0A.375.375 0 0 1 5.625 9m1.121 3.739c.3.753 1.016 3.842-3 4.511M9 5.25l2.25-1.5m-.75 3h2.25M9 8.25l2.25 1.5"/></svg>