<svg id="Regular" xmlns="http://www.w3.org/2000/svg" viewBox="0 0 24 24" width="24" height="24"><defs><style>.cls-1{fill:none;stroke:#000;stroke-linecap:round;stroke-linejoin:round;stroke-width:1.5px}</style></defs><title>amphibian-chameleon</title><path class="cls-1" d="M18.75 16c-3.75-.75-4.5 4.5-.75 4.5s5.25-3 5.25-6.75A8.3 8.3 0 0 0 15 5.5C9.75 5.5 8.25 7 8.25 7a2.664 2.664 0 0 0-1.5-2.25c-4.5.75-6 5.25-6 5.25s.75 3.75 6.75 3.75L3.75 17.5h4.5S12 16 12 13.75a2.2 2.2 0 0 0-2.25-2.25m-4.125-3A.375.375 0 0 1 6 8.875m-.75 0a.375.375 0 0 1 .375-.375m0 .75a.375.375 0 0 1-.375-.375m.75 0a.375.375 0 0 1-.375.375M.75 17.5H13.5M12 13.75h3.75"/></svg>