<svg id="Regular" xmlns="http://www.w3.org/2000/svg" viewBox="0 0 24 24" width="24" height="24"><defs><style>.cls-1{fill:none;stroke:#000;stroke-linecap:round;stroke-linejoin:round;stroke-width:1.5px}</style></defs><title>amphibian-foot</title><ellipse class="cls-1" cx="12" cy="18.75" rx="4.5" ry="3.75"/><circle class="cls-1" cx="7.5" cy="3" r="1.5"/><circle class="cls-1" cx="2.25" cy="9" r="1.5"/><circle class="cls-1" cx="16.5" cy="3" r="1.5"/><circle class="cls-1" cx="21.75" cy="9" r="1.5"/><path class="cls-1" d="M2.909 10.348l4.656 7.761m13.526-7.761l-4.656 7.761M8.885 3.577a3.736 3.736 0 0 0 6.23 0M16.5 4.5a3.851 3.851 0 0 0 .75 3c1.594 1.875 3 1.5 3 1.5M7.5 4.5a3.851 3.851 0 0 1-.75 3c-1.594 1.875-3 1.5-3 1.5m6.784 6.204L9.75 10.5m3.716 4.704l.784-4.704"/></svg>