<svg id="Regular" xmlns="http://www.w3.org/2000/svg" viewBox="0 0 24 24" width="24" height="24"><defs><style>.cls-1{fill:none;stroke:#000;stroke-linecap:round;stroke-linejoin:round;stroke-width:1.5px}</style></defs><title>amusement-park-rollercoaster</title><path class="cls-1" d="M23.25 18.75c-1.234 0-2.559-.313-4.032-2.437l-1.981-2.973A6.474 6.474 0 0 0 12 10.5a6.474 6.474 0 0 0-5.237 2.84l-1.981 2.973C3.309 18.437 1.984 18.75.75 18.75m6.75-6.319v6.319m3-8.037v8.037m3-8.037v8.037m3-6.32v6.32"/><rect class="cls-1" x="9" y="4.5" width="6" height="3.75" rx="1.875" ry="1.875"/><rect class="cls-1" x="1.234" y="7.63" width="6" height="3.75" rx="1.875" ry="1.875" transform="rotate(-40.057 4.234 9.506)"/></svg>