<svg id="Regular" xmlns="http://www.w3.org/2000/svg" viewBox="0 0 24 24" width="24" height="24"><defs><style>.cls-1{fill:none;stroke:#000;stroke-linecap:round;stroke-linejoin:round;stroke-width:1.5px}</style></defs><title>amusement-park-speed-machine</title><path class="cls-1" d="M2.25.75h19.5M12 7.5V.75m3 13.5H9V10.5a3 3 0 0 1 6 0zm1.5 1.5a1.5 1.5 0 0 1-1.5 1.5H9a1.5 1.5 0 0 1 0-3h6a1.5 1.5 0 0 1 1.5 1.5zm-4.5 1.5v6M1.125 15a.375.375 0 0 1 .375.375m-.75 0A.375.375 0 0 1 1.125 15m0 .75a.375.375 0 0 1-.375-.375m.75 0a.375.375 0 0 1-.375.375m0-6a.375.375 0 0 1 .375.375m-.75 0a.375.375 0 0 1 .375-.375m0 .75a.375.375 0 0 1-.375-.375m.75 0a.375.375 0 0 1-.375.375m0-6a.375.375 0 0 1 .375.375m-.75 0a.375.375 0 0 1 .375-.375m0 .75a.375.375 0 0 1-.375-.375m.75 0a.375.375 0 0 1-.375.375M22.875 15a.375.375 0 0 1 .375.375m-.75 0a.375.375 0 0 1 .375-.375m0 .75a.375.375 0 0 1-.375-.375m.75 0a.375.375 0 0 1-.375.375m0-6a.375.375 0 0 1 .375.375m-.75 0a.375.375 0 0 1 .375-.375m0 .75a.375.375 0 0 1-.375-.375m.75 0a.375.375 0 0 1-.375.375m0-6a.375.375 0 0 1 .375.375m-.75 0a.375.375 0 0 1 .375-.375m0 .75a.375.375 0 0 1-.375-.375m.75 0a.375.375 0 0 1-.375.375M19.5.75v22.5M4.5.75v22.5m15-4.5h.75a3 3 0 0 1 3 3v1.5M4.5 18.75h-.75a3 3 0 0 0-3 3v1.5m0 0h22.5"/></svg>