<svg id="Regular" xmlns="http://www.w3.org/2000/svg" viewBox="0 0 24 24" width="24" height="24"><defs><style>.cls-1{fill:none;stroke:#000;stroke-linecap:round;stroke-linejoin:round;stroke-width:1.5px}</style></defs><title>amusement-park-strength-meter</title><path class="cls-1" d="M.737 23.25V4.5a3.75 3.75 0 0 1 7.5 0v18.75m-3.75-18v18m-1.5-15h3m-3 5.25h3m-3 5.25h3m-5.25 4.5h22.5"/><rect class="cls-1" x="13.784" y="11.55" width="4.5" height="6" rx=".5" ry=".5" transform="rotate(-36.7 16.033 14.55)"/><path class="cls-1" d="M17.838 13.205l5.412-4.034M13.487 23.25l.608-2.432a.749.749 0 0 1 .727-.568H18.9a.751.751 0 0 1 .728.568l.608 2.432m-5.999-15l-.75-1.5m5.25 1.5l.75-1.5"/></svg>