<svg id="Regular" xmlns="http://www.w3.org/2000/svg" viewBox="0 0 24 24" width="24" height="24"><defs><style>.cls-1{fill:none;stroke:#000;stroke-linecap:round;stroke-linejoin:round;stroke-width:1.5px}</style></defs><title>amusement-park-ferris-wheel</title><circle class="cls-1" cx="12" cy="3" r="2.25"/><circle class="cls-1" cx="19.5" cy="7.5" r="2.25"/><circle class="cls-1" cx="4.5" cy="7.5" r="2.25"/><circle class="cls-1" cx="19.5" cy="15" r="2.25"/><circle class="cls-1" cx="12" cy="11.25" r="2.25"/><circle class="cls-1" cx="4.5" cy="15" r="2.25"/><path class="cls-1" d="M18.123 16.779a8.251 8.251 0 0 1-3.385 2.256M20.1 9.669a8.335 8.335 0 0 1 .017 3.068M14.23 3.305a8.251 8.251 0 0 1 3.893 2.416m-12.246 0A8.251 8.251 0 0 1 9.77 3.305M3.9 12.831a8.352 8.352 0 0 1 0-3.162m5.362 9.366a8.267 8.267 0 0 1-3.338-2.205"/><path class="cls-1" d="M7.991 22.186a.75.75 0 0 0 .681 1.064h6.656a.75.75 0 0 0 .681-1.064l-3.328-8.25a.75.75 0 0 0-1.362 0z"/></svg>