<svg id="Regular" xmlns="http://www.w3.org/2000/svg" viewBox="0 0 24 24" width="24" height="24"><defs><style>.cls-1{fill:none;stroke:#000;stroke-linecap:round;stroke-linejoin:round;stroke-width:1.5px}</style></defs><title>amusement-park-electric-cars</title><path class="cls-1" d="M23.25 21.75a1.5 1.5 0 0 1-1.5 1.5H2.25a1.5 1.5 0 0 1 0-3h19.5a1.5 1.5 0 0 1 1.5 1.5zm-21-1.5v-4.5a3 3 0 0 1 3-3h1.5L9 16.5h6.75v-3.75l1.975.988a7.28 7.28 0 0 1 4.025 6.512m-16.5-7.5v-12L.75 6h4.5m10.5 10.5l-3-3"/></svg>