<svg id="Regular" xmlns="http://www.w3.org/2000/svg" viewBox="0 0 24 24" width="24" height="24"><defs><style>.cls-1{fill:none;stroke:#000;stroke-linecap:round;stroke-linejoin:round;stroke-width:1.5px}</style></defs><title>amusement-park-disneyland</title><path class="cls-1" d="M8.75 21v-5.25h6V21m3-3v5.25m4.5 0V18m0 0L20 13.5 17.75 18m-9-2.25l3-6 3 6m-3-6v-3M20 13.5v-3M1.25 18v5.25m4.5 0V18m0 0L3.5 13.5 1.25 18m2.25-4.5v-3M5.75 21h12M17 3.556h6M21.5.75l-3 5.612m0-5.612l3 5.612M1.25 5.444h6m-1.5-2.806l-3 5.612m0-5.612l3 5.612"/></svg>