<svg id="Regular" xmlns="http://www.w3.org/2000/svg" viewBox="0 0 24 24" width="24" height="24"><defs><style>.cls-1{fill:none;stroke:#000;stroke-linecap:round;stroke-linejoin:round;stroke-width:1.5px}</style></defs><title>amusement-park-castle</title><path class="cls-1" d="M9 16.5V9.75h6v6.75m3-4.5v4.5m4.5 0V12m0 0l-2.25-4.5L18 12M9 9.75l3-6 3 6m-3-6v-3m8.25 6.75v-3M1.5 12v4.5m4.5 0V12m0 0L3.75 7.5 1.5 12m2.25-4.5v-3m-3 12v6.75h9v-1.5a2.25 2.25 0 0 1 4.5 0v1.5h9V16.5zm22.5 3.75h-9.577m-3.346 0H.75"/></svg>