<svg id="Regular" xmlns="http://www.w3.org/2000/svg" viewBox="0 0 24 24" width="24" height="24"><defs><style>.cls-1{fill:none;stroke:#000;stroke-linecap:round;stroke-linejoin:round;stroke-width:1.5px}</style></defs><title>amusement-park-merry-go-round-toys</title><path class="cls-1" d="M12 10.5v12.75m9.672-16.973a1.5 1.5 0 0 1 .73 1.579A2.866 2.866 0 0 1 19.5 10.5a4.425 4.425 0 0 1-3.75-2.25A4.425 4.425 0 0 1 12 10.5a4.425 4.425 0 0 1-3.75-2.25A4.425 4.425 0 0 1 4.5 10.5a2.866 2.866 0 0 1-2.9-2.644 1.5 1.5 0 0 1 .73-1.579L12 .75zM12 .75l-3.75 7.5M12 .75l3.75 7.5M8.466 19.623a.776.776 0 0 1-.775.627H4.309a.776.776 0 0 1-.775-.627l-.523-3a.727.727 0 0 1 .175-.608.8.8 0 0 1 .6-.265h4.43a.8.8 0 0 1 .6.265.727.727 0 0 1 .175.608zM6 15.75v-5.552M6 23.25v-3m14.466-.627a.776.776 0 0 1-.775.627h-3.382a.776.776 0 0 1-.775-.627l-.523-3a.727.727 0 0 1 .175-.608.8.8 0 0 1 .6-.265h4.43a.8.8 0 0 1 .6.265.727.727 0 0 1 .175.608zM18 15.75v-5.552m0 13.052v-3m-16.5 3h21"/></svg>