<svg id="Regular" xmlns="http://www.w3.org/2000/svg" viewBox="0 0 24 24" width="24" height="24"><defs><style>.cls-1{fill:none;stroke:#000;stroke-linecap:round;stroke-linejoin:round;stroke-width:1.5px}</style></defs><title>amusement-park-ferris-wheel-person</title><circle class="cls-1" cx="10.5" cy="3" r="2.25"/><circle class="cls-1" cx="18" cy="7.5" r="2.25"/><circle class="cls-1" cx="3" cy="7.5" r="2.25"/><circle class="cls-1" cx="10.5" cy="11.25" r="2.25"/><circle class="cls-1" cx="3" cy="15" r="2.25"/><path class="cls-1" d="M12.73 3.305a8.251 8.251 0 0 1 3.893 2.416m-12.246 0A8.251 8.251 0 0 1 8.27 3.305M2.4 12.831a8.352 8.352 0 0 1 0-3.162m5.362 9.366a8.267 8.267 0 0 1-3.338-2.205"/><path class="cls-1" d="M12.82 18l-1.639-4.064a.75.75 0 0 0-1.362 0l-3.328 8.25a.75.75 0 0 0 .681 1.064h4.078"/><circle class="cls-1" cx="18.75" cy="15.375" r="2.625"/><path class="cls-1" d="M14.25 23.25a4.5 4.5 0 0 1 9 0"/></svg>