<svg xmlns="http://www.w3.org/2000/svg" viewBox="0 0 24 24" width="24" height="24"><defs><style>.a{fill:none;stroke:#000;stroke-linecap:round;stroke-linejoin:round;stroke-width:1.5px}</style></defs><title>analytics-graph-bar-1</title><path class="a" d="M.75 23.25h22.5M6 17.25H3a.75.75 0 0 0-.75.75v5.25h4.5V18a.75.75 0 0 0-.75-.75zm7.5-7.5h-3a.75.75 0 0 0-.75.75v12.75h4.5V10.5a.75.75 0 0 0-.75-.75zm7.5 4.5h-3a.75.75 0 0 0-.75.75v8.25h4.5V15a.75.75 0 0 0-.75-.75z"/><circle class="a" cx="2.25" cy="10.5" r="1.5"/><circle class="a" cx="9" cy="2.25" r="1.5"/><circle class="a" cx="21.75" cy="6" r="1.5"/><path class="a" d="M3.2 9.339l4.85-5.928m12.261 2.165l-9.872-2.903"/></svg>