<svg xmlns="http://www.w3.org/2000/svg" viewBox="0 0 24 24" width="24" height="24"><defs><style>.a{fill:none;stroke:#000;stroke-linecap:round;stroke-linejoin:round;stroke-width:1.5px}</style></defs><title>analytics-mountain</title><path class="a" d="M.75.75v22.5h22.5"/><path class="a" d="M14.15 17.358a5.493 5.493 0 0 0 1.487 1.623l.713.519m-12.6 0l.713-.519A5.385 5.385 0 0 0 6.7 14.939l.4-6.979a2.921 2.921 0 0 1 2.95-2.71h.137"/><path class="a" d="M9.15 19.5l.713-.519a5.385 5.385 0 0 0 2.237-4.042l.4-6.979a2.921 2.921 0 0 1 2.95-2.71 2.921 2.921 0 0 1 2.955 2.71l.4 6.979a5.385 5.385 0 0 0 2.232 4.042l.713.519"/></svg>