<svg xmlns="http://www.w3.org/2000/svg" viewBox="0 0 24 24" width="24" height="24"><defs><style>.a{fill:none;stroke:#000;stroke-linecap:round;stroke-linejoin:round;stroke-width:1.5px}</style></defs><title>analytics-bars-horizontal</title><path class="a" d="M.75.75v22.5h22.5"/><path class="a" d="M13.5 6.75H.75v-3H13.5a.766.766 0 0 1 .767.767v1.466a.767.767 0 0 1-.767.767zm0 6H.75v-3H13.5a.766.766 0 0 1 .767.767v1.466a.767.767 0 0 1-.767.767zm5.983 6H.75v-3h18.733a.766.766 0 0 1 .767.767v1.466a.767.767 0 0 1-.767.767z"/></svg>