<svg xmlns="http://www.w3.org/2000/svg" viewBox="0 0 24 24" width="24" height="24"><defs><style>.a{fill:none;stroke:#000;stroke-linecap:round;stroke-linejoin:round;stroke-width:1.5px}</style></defs><title>android</title><path class="a" d="M16.5 19.274h-9a1.5 1.5 0 0 1-1.5-1.5v-6h12v6a1.5 1.5 0 0 1-1.5 1.5zM12 2.774a6 6 0 0 0-6 6h12a6 6 0 0 0-6-6z"/><path class="a" d="M3 16.274v-1.5a3 3 0 0 1 3-3h12a3 3 0 0 1 3 3v1.5m-13.5 3v3.124m9-3.124v3.124M7.949 4.347L5.25 1.649m10.801 2.698l2.699-2.698"/></svg>