<svg xmlns="http://www.w3.org/2000/svg" viewBox="0 0 24 24" width="24" height="24"><defs><style>.a{fill:none;stroke:#000;stroke-linecap:round;stroke-linejoin:round;stroke-width:1.5px}</style></defs><title>android-1</title><path class="a" d="M18.75 23.253H5.25a1.5 1.5 0 0 1-1.5-1.5v-10.5h16.5v10.5a1.5 1.5 0 0 1-1.5 1.5zm1.5-12.753a8.25 8.25 0 0 0-16.5 0v.75h16.5z"/><path class="a" d="M8.625 6.753a.375.375 0 1 1-.375.375.375.375 0 0 1 .375-.375m6.75 0a.375.375 0 1 1-.375.375.375.375 0 0 1 .375-.375M7.359 3.682L5.25.753m11.391 2.929L18.75.753m-15 10.5a3 3 0 0 0-3 3v6m19.5-9a3 3 0 0 1 3 3v6"/></svg>