<svg xmlns="http://www.w3.org/2000/svg" viewBox="0 0 24 24" width="24" height="24"><defs><style>.a{fill:none;stroke:#000;stroke-linecap:round;stroke-linejoin:round;stroke-width:1.5px}</style></defs><title>android-sync</title><path class="a" d="M9.75 11.253h-6v10.5a1.5 1.5 0 0 0 1.5 1.5h3M19.941 8.257A8.251 8.251 0 0 0 3.75 10.5v.75"/><path class="a" d="M8.625 6.753a.375.375 0 1 1-.375.375.375.375 0 0 1 .375-.375m6.75 0a.375.375 0 1 1-.375.375.375.375 0 0 1 .375-.375M7.359 3.682L5.25.753m11.391 2.929L18.75.753m-15 10.5a3 3 0 0 0-3 3v6m14.25-1.5h-3.75v3.75m11.417-3.016a5.573 5.573 0 0 1-10.74-.734m7.573-3h3.75v-3.75M11.833 15.02a5.572 5.572 0 0 1 10.74.733"/></svg>