<svg xmlns="http://www.w3.org/2000/svg" viewBox="0 0 24 24" width="24" height="24"><g fill="none" stroke="#000" stroke-linejoin="round" stroke-miterlimit="10"><circle cx="12" cy="9.042" r="3.479"/><path d="M13.969 11.91l3.734 9.022a2.001 2.001 0 01-1.911 2.588H8.208a1.997 1.997 0 01-1.608-.812 1.996 1.996 0 01-.303-1.776l3.76-9.005"/><ellipse cx="12" cy="2.021" rx="4.5" ry="1.5"/><path d="M9.844 12.437S1.833 8.146.541 6.98C0 17.021 5.5 16.521 8.5 15.521m5.682-3.097s7.985-4.278 9.277-5.444C24 17.021 18.5 16.521 15.5 15.521"/></g><path fill="none" d="M0 0h24v24H0z"/></svg>