<svg xmlns="http://www.w3.org/2000/svg" viewBox="0 0 24 24" width="24" height="24"><path fill="none" stroke="#000" stroke-linejoin="round" stroke-miterlimit="10" d="M7 17s3.609-3 5-3 5 3 5 3-3.957 2-5 2-5-2-5-2z"/><path fill="none" stroke="#000" stroke-linejoin="round" stroke-miterlimit="10" d="M21.5 16c0 5.248-4.253 7.5-9.5 7.5-5.246 0-9.5-2.252-9.5-7.5 0-5.246 4.254-12.5 9.5-12.5 5.247 0 9.5 7.254 9.5 12.5z"/><path fill="none" stroke="#000" stroke-linecap="round" stroke-linejoin="round" stroke-miterlimit="10" d="M9.366 4.111L6 3m4.265.766L8 1m4 10l4-3m-4 3L8 8m6.731 1.018c.117-.016.239-.021.363-.016a2 2 0 11-1.928 1.195M9.25 9.016a2.001 2.001 0 10-.135 3.982 2.001 2.001 0 001.712-2.816M9 18l2.938 3.531L15 18"/><path d="M15 10.516a.5.5 0 10.002 1.002.5.5 0 00-.002-1.002zm-6 0a.5.5 0 10.002 1.002A.5.5 0 009 10.516z"/><path fill="none" d="M0 0h24v24H0z"/></svg>