<svg id="Regular" xmlns="http://www.w3.org/2000/svg" viewBox="0 0 24 24" width="24" height="24"><defs><style>.cls-1{fill:none;stroke:#000;stroke-linecap:round;stroke-linejoin:round;stroke-width:1.5px}</style></defs><title>animal-products-fried-egg-pan</title><circle class="cls-1" cx="13.5" cy="10.495" r="9.75"/><path class="cls-1" d="M.75 23.245l6.115-5.606m5.689-13.204a6.351 6.351 0 0 0-5.5 4.456 1.574 1.574 0 0 0 1.8 2 4.144 4.144 0 0 1 3.736.873 4.038 4.038 0 0 1 1.31 3.107 1.575 1.575 0 0 0 2.291 1.438 6.325 6.325 0 0 0 3.24-6.281 6.4 6.4 0 0 0-2.567-4.4"/><circle class="cls-1" cx="14.328" cy="6.37" r="2.625"/></svg>