<svg id="Regular" xmlns="http://www.w3.org/2000/svg" viewBox="0 0 24 24" width="24" height="24"><defs><style>.cls-1{fill:none;stroke:#000;stroke-linecap:round;stroke-linejoin:round;stroke-width:1.5px}</style></defs><title>animal-print-paw-1</title><path class="cls-1" d="M12.01 11.25c-4.556 0-8.25 3.022-8.25 6.75a5.616 5.616 0 0 0 .473 2.251 3.016 3.016 0 0 0 3.981 1.432A10.118 10.118 0 0 1 12.01 21a10.118 10.118 0 0 1 3.8.683 3.016 3.016 0 0 0 3.981-1.432A5.616 5.616 0 0 0 20.26 18c0-3.728-3.694-6.75-8.25-6.75z"/><ellipse class="cls-1" cx="8.629" cy="6.005" rx="1.875" ry="2.25" transform="rotate(-6.787 8.63 6.003)"/><ellipse class="cls-1" cx="2.678" cy="9.714" rx="1.875" ry="2.25" transform="rotate(-18.905 2.679 9.715)"/><ellipse class="cls-1" cx="15.391" cy="6.005" rx="2.25" ry="1.875" transform="rotate(-83.213 15.391 6.004)"/><ellipse class="cls-1" cx="21.342" cy="9.714" rx="2.25" ry="1.875" transform="rotate(-71.095 21.342 9.714)"/><path class="cls-1" d="M1.629 7.737L.76 6m6.893-1.964L6.76 2.25m9.607 1.786l.893-1.786m5.131 5.487L23.26 6"/></svg>