<svg id="Regular" xmlns="http://www.w3.org/2000/svg" viewBox="0 0 24 24" width="24" height="24"><defs><style>.cls-1{fill:none;stroke:#000;stroke-linecap:round;stroke-linejoin:round;stroke-width:1.5px}</style></defs><title>animal-products-turkey</title><path class="cls-1" d="M21.75 19.87c0 1.656-4.365 3-9.75 3s-9.75-1.344-9.75-3m-1.5 0h22.5m-11.121-3.879a3 3 0 0 1 0-4.243c1.171-1.171 4.131-2.232 5.3-1.06s.111 4.131-1.061 5.3m1.064-5.3l3.182-3.182"/><circle class="cls-1" cx="21.675" cy="6.445" r="1.5"/><path class="cls-1" d="M20.25 19.87a7.209 7.209 0 0 0-2.78-5.615m-5.822-1.878c-4.393.168-7.9 3.458-7.9 7.493m8.113-18.75C13.3 3.993 8.959 5 11.111 7.87m-3.75-6.75C8.8 3.993 4.459 5 6.611 7.87"/></svg>