<svg id="Regular" xmlns="http://www.w3.org/2000/svg" viewBox="0 0 24 24" width="24" height="24"><defs><style>.cls-1{fill:none;stroke:#000;stroke-linecap:round;stroke-linejoin:round;stroke-width:1.5px}</style></defs><title>animal-print-paw</title><path class="cls-1" d="M16.482 14.79a4.2 4.2 0 0 0-2.034-3.114 4.736 4.736 0 0 0-4.876 0 4.2 4.2 0 0 0-2.034 3.114 2.181 2.181 0 0 1-1.161 1.638 3.445 3.445 0 0 0-1.7 4.1 3.574 3.574 0 0 0 2.5 2.325 3.959 3.959 0 0 0 3.474-.667 2.244 2.244 0 0 1 2.718 0 3.959 3.959 0 0 0 3.474.667 3.574 3.574 0 0 0 2.5-2.325 3.445 3.445 0 0 0-1.7-4.1 2.181 2.181 0 0 1-1.161-1.638z"/><ellipse class="cls-1" cx="8.26" cy="5.75" rx="2.25" ry="3"/><ellipse class="cls-1" cx="3.01" cy="11.75" rx="2.25" ry="3"/><ellipse class="cls-1" cx="15.76" cy="5.75" rx="2.25" ry="3"/><ellipse class="cls-1" cx="21.01" cy="11.75" rx="2.25" ry="3"/><path class="cls-1" d="M3.01 8.75v-1.5m5.25-4.5v-1.5m7.5 1.5v-1.5m5.25 7.5v-1.5"/></svg>