<svg id="Regular" xmlns="http://www.w3.org/2000/svg" viewBox="0 0 24 24" width="24" height="24"><defs><style>.cls-1{fill:none;stroke:#000;stroke-linecap:round;stroke-linejoin:round;stroke-width:1.5px}</style></defs><title>animal-products-cheese</title><path class="cls-1" d="M.75 11.351L12.268 1.232a1.51 1.51 0 0 1 1.125-.375c4.4.405 7.909 2.519 9.857 7.494m-22.5 3v4.062a1.5 1.5 0 0 0 .9 1.375 2.251 2.251 0 0 1-.425 4.263.6.6 0 0 0-.475.587 1.5 1.5 0 0 0 1.7 1.487l19.5-2.6a1.5 1.5 0 0 0 1.3-1.487V8.351z"/><circle class="cls-1" cx="10.875" cy="17.726" r="1.875"/><circle class="cls-1" cx="18.375" cy="13.226" r="1.875"/><path class="cls-1" d="M6.375 13.6a.375.375 0 1 1-.375.376.375.375 0 0 1 .375-.375m10.5 4.499a.375.375 0 1 1-.375.375.375.375 0 0 1 .375-.375m-3.75-5.249a.375.375 0 1 1-.375.375.375.375 0 0 1 .375-.375"/></svg>