<svg id="Regular" xmlns="http://www.w3.org/2000/svg" viewBox="0 0 24 24" width="24" height="24"><defs><style>.cls-1{fill:none;stroke:#000;stroke-linecap:round;stroke-linejoin:round;stroke-width:1.5px}</style></defs><title>animal-print-bird-3</title><path class="cls-1" d="M20.443 8.132a1.876 1.876 0 0 0-2.625-.374l-3.871 2.906V4.875a1.875 1.875 0 0 0-3.75 0v5.789l-3.87-2.906a1.875 1.875 0 0 0-2.251 3l6.121 4.6v3.772a1.875 1.875 0 0 0 3.75 0v-3.777l6.122-4.6a1.876 1.876 0 0 0 .374-2.621zM12.072 3V.75m0 20.25v1.625m8.371-14.493l1.317-.882m-18.058.882L2.51 7.062"/></svg>