<svg id="Regular" xmlns="http://www.w3.org/2000/svg" viewBox="0 0 24 24" width="24" height="24"><defs><style>.cls-1{fill:none;stroke:#000;stroke-linecap:round;stroke-linejoin:round;stroke-width:1.5px}</style></defs><title>animal-products-eggs</title><path class="cls-1" d="M21.75 14.245a1.5 1.5 0 0 0 0-3H2.25a1.5 1.5 0 0 0 0 3zm-18.75 0l1.158 3.474a1.5 1.5 0 0 0 1.423 1.026h3.838a1.5 1.5 0 0 0 1.423-1.026L12 14.245m0 0l1.158 3.474a1.5 1.5 0 0 0 1.423 1.026h3.838a1.5 1.5 0 0 0 1.423-1.026L21 14.245m-18-3c0-3.314 2.015-6 4.5-6s4.5 2.686 4.5 6m0 0c0-3.314 2.015-6 4.5-6s4.5 2.686 4.5 6"/></svg>