<svg id="Regular" xmlns="http://www.w3.org/2000/svg" viewBox="0 0 24 24" width="24" height="24"><defs><style>.cls-1{fill:none;stroke:#000;stroke-linecap:round;stroke-linejoin:round;stroke-width:1.5px}</style></defs><title>animal-products-egg</title><path class="cls-1" d="M19.036 12.745a7.5 7.5 0 0 0 .464-2.625c0-5.178-3.358-9.375-7.5-9.375s-7.5 4.2-7.5 9.375a8.206 8.206 0 0 0 .423 2.625m9.019 10.5a11.707 11.707 0 0 0 7.021-9.5c.033-.514-.2-1-.713-1H3.75c-.515 0-.746.482-.713 1a11.707 11.707 0 0 0 7.021 9.5m-7.058 0h18"/></svg>