<svg xmlns="http://www.w3.org/2000/svg" viewBox="0 0 24 24" width="24" height="24"><defs><style>.a{fill:none;stroke:#000;stroke-linecap:round;stroke-linejoin:round;stroke-width:1.5px}</style></defs><title>ankle-tracker</title><path class="a" d="M12 13.5v3M12 .75V4.5m0 12l5.414 3.61a3 3 0 0 1 1.336 2.5v.644M12 16.5l-5.414 3.61a3 3 0 0 0-1.336 2.5v.644M12 16.5v6.75M19.837 7.7a2.249 2.249 0 0 1 0 2.6M21 4.691a5.251 5.251 0 0 1 0 8.618M4.163 7.7a2.249 2.249 0 0 0 0 2.6M3 4.691a5.251 5.251 0 0 0 0 8.618"/><circle class="a" cx="12" cy="9" r="1.5"/><rect class="a" x="7.5" y="4.5" width="9" height="9" rx="1.5" ry="1.5"/></svg>