<svg xmlns="http://www.w3.org/2000/svg" viewBox="0 0 24 24" width="24" height="24"><defs><style>.a{fill:none;stroke:#000;stroke-linecap:round;stroke-linejoin:round;stroke-width:1.5px}</style></defs><title>answer-machine</title><rect class="a" x="3.75" y="2.25" width="7.5" height="19.5" rx="3" ry="3"/><path class="a" d="M4.15 20.25h-.4a3 3 0 0 1-3-3V6.75a3 3 0 0 1 3-3h.4m6.699 16.5h9.4a3 3 0 0 0 3-3V6.75a3 3 0 0 0-3-3h-9.4m4.151 3h4.5m-.375 4.5"/><path class="a" d="M19.125 11.25a.375.375 0 1 0 .375.375.375.375 0 0 0-.375-.375m0 3.75a.375.375 0 1 0 .375.375.375.375 0 0 0-.375-.375m-3.75-3.75a.375.375 0 1 0 .375.375.375.375 0 0 0-.375-.375m0 3.75a.375.375 0 1 0 .375.375.375.375 0 0 0-.375-.375"/></svg>