<svg xmlns="http://www.w3.org/2000/svg" viewBox="0 0 24 24" width="24" height="24"><defs><style>.a{fill:none;stroke:#000;stroke-linecap:round;stroke-linejoin:round;stroke-width:1.5px}</style></defs><title>antenna-tower</title><path class="a" d="M.75 23.25H21m-11.25 0h-9V7.992a.5.5 0 0 1 .5-.492h8a.5.5 0 0 1 .5.492z"/><path class="a" d="M7.5 5.144a.7.7 0 0 0-.75-.644h-3a.7.7 0 0 0-.75.644V7.5h4.5zM5.25 4.5V.75m-1.5 9.75h3m-3 3h3m-3 3h3m-3 3h3m6.156-14.079a5.961 5.961 0 0 1 5.829 5.829M13.905.764a9.751 9.751 0 0 1 9.33 9.288M17.25 14.25H13.5a.75.75 0 0 0-.75.75v8.25H18V15a.75.75 0 0 0-.75-.75z"/></svg>