<svg xmlns="http://www.w3.org/2000/svg" viewBox="0 0 24 24" width="24" height="24"><defs><style>.a{fill:none;stroke:#000;stroke-linecap:round;stroke-linejoin:round;stroke-width:1.5px}</style></defs><title>antenna-house-connect</title><path class="a" d="M9 19.464L5.262 10.5 1.5 19.463M5.25 10.5V8.25M3 5.625a2.119 2.119 0 0 1 2.25-1.958A2.119 2.119 0 0 1 7.5 5.625"/><path class="a" d="M.75 4.667A4.239 4.239 0 0 1 5.25.75a4.239 4.239 0 0 1 4.5 3.917M5.25 20.25v2.021a1 1 0 0 0 1.018.979h11.464a1 1 0 0 0 1.018-.979V19.5m3-5.5v5.5h-6V14"/><path class="a" d="M14.25 15l4.5-3 4.5 3m-20.192.75h4.393"/></svg>