<svg xmlns="http://www.w3.org/2000/svg" viewBox="0 0 24 24" width="24" height="24"><defs><style>.a{fill:none;stroke:#000;stroke-linecap:round;stroke-linejoin:round;stroke-width:1.5px}</style></defs><title>antenna-2</title><path class="a" d="M13.5 17.799v5.451m-3 0v-5.451"/><rect class="a" x="9.75" y="11.25" width="4.5" height="6.75" rx="1.5" ry="1.5"/><path class="a" d="M12 11.25V7.5m-2.25 6.75l-3.788.602M9 6.75a3 3 0 0 1 6 0"/><path class="a" d="M6 5.642C6 2.94 8.686.75 12 .75s6 2.19 6 4.892M5.019 18.415l.763-.135c.422-.075.725-.351.678-.617l-.94-5.3c-.047-.266-.427-.421-.849-.346l-.763.135a4.257 4.257 0 0 0 1.111 6.263zm9.231-4.165l3.789.602m.942 3.563l-.763-.135c-.422-.075-.725-.351-.678-.617l.94-5.3c.047-.266.427-.421.849-.346l.763.135a4.257 4.257 0 0 1-1.111 6.263z"/></svg>