<svg xmlns="http://www.w3.org/2000/svg" viewBox="0 0 24 24" width="24" height="24"><defs><style>.a{fill:none;stroke:#000;stroke-linecap:round;stroke-linejoin:round;stroke-width:1.5px}</style></defs><title>antenna</title><path class="a" d="M11.266 15.23a3.75 3.75 0 1 1 3.75-3.75z"/><rect class="a" x="15.16" y="1.379" width="6" height="6" rx="1.5" ry="1.5" transform="rotate(-45 18.16 4.379)"/><rect class="a" x="1.371" y="15.374" width="6" height="6" rx="1.5" ry="1.5" transform="rotate(-45 4.372 18.374)"/><path class="a" d="M7.023 7.237l1.591 1.591m8.355 4.935a5.265 5.265 0 0 1-3.188 3.194m6.369-3.544a8.256 8.256 0 0 1-6.729 6.728m9.829-7.477A11.25 11.25 0 0 1 12.5 23.25"/></svg>