<svg xmlns="http://www.w3.org/2000/svg" viewBox="0 0 24 24" width="24" height="24"><defs><style>.a{fill:none;stroke:#000;stroke-linecap:round;stroke-linejoin:round;stroke-width:1.5px}</style></defs><title>antique-sling-1</title><path class="a" d="M12 15.75v-5.068l6.091-6.091a2.25 2.25 0 0 0-3.182-3.182L9.75 6.568 4.591 1.409a2.25 2.25 0 0 0-3.182 3.182L7.5 10.682V15m0 6a2.25 2.25 0 0 0 4.372.75"/><path class="a" d="M3.75 3.75v9a6 6 0 0 0 6 6h8.918m-2.918-15v7.141a2.609 2.609 0 0 0 2.61 2.609"/><path class="a" d="M21.749 21.75a1.5 1.5 0 0 1-.9-.3A7.16 7.16 0 0 1 18 15.75a7.074 7.074 0 0 1 2.849-5.7 1.5 1.5 0 0 1 1.8 2.4 4.124 4.124 0 0 0 0 6.6 1.5 1.5 0 0 1-.9 2.7z"/></svg>