<svg xmlns="http://www.w3.org/2000/svg" viewBox="0 0 24 24" width="24" height="24"><defs><style>.a{fill:none;stroke:#000;stroke-linecap:round;stroke-linejoin:round;stroke-width:1.5px}</style></defs><title>antique-armor</title><path class="a" d="M21 23.25V.75h-8.25a1.5 1.5 0 0 0-1.5 1.5v4.5H21m-9.75-4.5H3l1.5 3-1.5 3h6.75a1.5 1.5 0 0 0 1.5-1.5zm6.75 21h-3l1.405-5.619a.754.754 0 0 0-.163-.676L11.814 11.9a.749.749 0 0 0-1.128 0l-4.428 5.06a.754.754 0 0 0-.163.676L7.5 23.25H3.75m7.5-7.5v4.5M9 18h4.5m-6 5.25H15"/></svg>