<svg xmlns="http://www.w3.org/2000/svg" viewBox="0 0 24 24" width="24" height="24"><defs><style>.a{fill:none;stroke:#000;stroke-linecap:round;stroke-linejoin:round;stroke-width:1.5px}</style></defs><title>antique-axe</title><path class="a" d="M12.03 14.1a7.689 7.689 0 0 1 1.284 3.93.748.748 0 0 0 .732.715 8.99 8.99 0 0 0 9.2-9.2.751.751 0 0 0-.716-.732 7.684 7.684 0 0 1-3.93-1.291M16.48 5.4a7.69 7.69 0 0 1-1.288-3.935.75.75 0 0 0-.732-.713 8.99 8.99 0 0 0-9.2 9.2.749.749 0 0 0 .715.732 7.684 7.684 0 0 1 3.933 1.286"/><path class="a" d="M17.435 4.444a1.5 1.5 0 0 1 2.121 2.121L3.311 22.811a1.5 1.5 0 0 1-2.122-2.122zM8.432 11.2a6 6 0 0 1 7.278-7.275M12.8 15.568a6 6 0 0 0 7.275-7.278"/></svg>