<svg xmlns="http://www.w3.org/2000/svg" viewBox="0 0 24 24" width="24" height="24"><defs><style>.a{fill:none;stroke:#000;stroke-linecap:round;stroke-linejoin:round;stroke-width:1.5px}</style></defs><title>antique-catapult</title><circle class="a" cx="6.75" cy="20.25" r="3"/><circle class="a" cx="17.25" cy="20.25" r="3"/><path class="a" d="M3.75 20.25H1.5a.75.75 0 0 1-.75-.75V18a.75.75 0 0 1 .75-.75h21a.75.75 0 0 1 .75.75v1.5a.75.75 0 0 1-.75.75h-2.25m-10.5 0h4.5m-1.5-3l4.5-7.5 4.5 7.5m-4.5 0v-9m-3.375 7.125L9 10.491m.012.009A3 3 0 1 1 4.77 6.262z"/><circle class="a" cx="16.125" cy="2.625" r="1.875"/><path class="a" d="M12 4.5A10.789 10.789 0 0 0 9.75 6"/></svg>