<svg xmlns="http://www.w3.org/2000/svg" viewBox="0 0 24 24" width="24" height="24"><defs><style>.a{fill:none;stroke:#000;stroke-linecap:round;stroke-linejoin:round;stroke-width:1.5px}</style></defs><title>antique-mace-double</title><circle class="a" cx="17.25" cy="3" r="2.25"/><path class="a" d="M17.25 5.25a2.249 2.249 0 0 1-2.222-1.9L3.459 17.55a2.535 2.535 0 0 1 2.326 1.895l11.569-14.2a.894.894 0 0 1-.104.005z"/><path class="a" d="M4.932 18.117a2.546 2.546 0 0 1-.315 4.166 3.089 3.089 0 0 1-.949.365l-2.918.6v-2.977a3.091 3.091 0 0 1 .166-1 2.546 2.546 0 0 1 4.016-1.15z"/><circle class="a" cx="19.5" cy="19.5" r="3"/><path class="a" d="M18.125 5.072L19.5 16.5m2.121.879l1.629-1.629m-1.629 5.871l1.629 1.629m-5.871-1.629L15.75 23.25m1.629-5.871L15.75 15.75"/></svg>