<svg xmlns="http://www.w3.org/2000/svg" viewBox="0 0 24 24" width="24" height="24"><defs><style>.a{fill:none;stroke:#000;stroke-linecap:round;stroke-linejoin:round;stroke-width:1.5px}</style></defs><title>antique-battering-ram</title><circle class="a" cx="6.75" cy="18" r="3"/><circle class="a" cx="17.25" cy="18" r="3"/><path class="a" d="M3.75 18H1.5a.75.75 0 0 1-.75-.75v-1.5A.75.75 0 0 1 1.5 15h21a.75.75 0 0 1 .75.75v1.5a.75.75 0 0 1-.75.75h-2.25m-10.5 0h4.5m-6-5.267V3.75A.75.75 0 0 0 7.5 3H6a.75.75 0 0 0-.75.75v8.983m13.5 0V3.75A.75.75 0 0 0 18 3h-1.5a.75.75 0 0 0-.75.75v8.983M1.25 6h4v6h-4a.5.5 0 0 1-.5-.5v-5a.5.5 0 0 1 .5-.5zm17.5 0h2.5a2 2 0 0 1 2 2v2a2 2 0 0 1-2 2h-2.5V6zM8.25 6h7.5v6h-7.5z"/></svg>