<svg xmlns="http://www.w3.org/2000/svg" viewBox="0 0 24 24" width="24" height="24"><defs><style>.a{fill:none;stroke:#000;stroke-linecap:round;stroke-linejoin:round;stroke-width:1.5px}</style></defs><title>antique-sword-1</title><path class="a" d="M3.4 12.919s0 2.2 2.744 4.938 4.937 2.743 4.937 2.743m6.584-14.265l-7.133 7.133"/><path class="a" d="M1.205 20.6A1.551 1.551 0 0 0 3.4 22.8l4.578-4.577a3.1 3.1 0 0 1 2.2-.909h.909l10.3-10.3a.776.776 0 0 0 .187-.3l1.636-4.943a.775.775 0 0 0-.981-.981L17.29 2.436a.776.776 0 0 0-.3.187l-10.3 10.3v.909a3.1 3.1 0 0 1-.909 2.2z"/></svg>