<svg xmlns="http://www.w3.org/2000/svg" viewBox="0 0 24 24" width="24" height="24"><defs><style>.a{fill:none;stroke:#000;stroke-linecap:round;stroke-linejoin:round;stroke-width:1.5px}</style></defs><title>antique-mace</title><path class="a" d="M4.6 22.7c-.912.912-3.713.413-3.713.413s-.5-2.8.413-3.713a2.333 2.333 0 0 1 3.3 3.3zM20.614 3.386l-2.121 2.121M23.25 9.75h-3.001m.365 6.364l-2.121-2.121M14.25 18.75v-3.001m-9-5.999h3.001m-.365-6.364l2.121 2.121M14.25.75v3.001"/><circle class="a" cx="14.25" cy="9.75" r="6"/><path class="a" d="M3.15 18.729l5.93-5.931m2.122 2.122l-5.931 5.93M15.75 8.25l.75-.75m-.75 3.75l.75.75m-3.75-.75L12 12m.75-3.75L12 7.5"/></svg>