<svg xmlns="http://www.w3.org/2000/svg" viewBox="0 0 24 24" width="24" height="24"><defs><style>.a{fill:none;stroke:#000;stroke-linecap:round;stroke-linejoin:round;stroke-width:1.5px}</style></defs><title>app-window-lock-1</title><path class="a" d="M19.51 21h1.5a1.5 1.5 0 0 0 1.5-1.5V3a1.5 1.5 0 0 0-1.5-1.5h-18A1.5 1.5 0 0 0 1.51 3v16.5a1.5 1.5 0 0 0 1.5 1.5h1.5m-3-14.997h21"/><rect class="a" x="7.509" y="15.003" width="9" height="7.5" rx="1.5" ry="1.5"/><path class="a" d="M12.009 10.5a3 3 0 0 0-3 3V15h6v-1.5a3 3 0 0 0-3-3zm0 7.908a.375.375 0 1 1-.375.375.375.375 0 0 1 .375-.375"/></svg>