<svg xmlns="http://www.w3.org/2000/svg" viewBox="0 0 24 24" width="24" height="24"><defs><style>.a{fill:none;stroke:#000;stroke-linecap:round;stroke-linejoin:round;stroke-width:1.5px}</style></defs><title>app-window-skull</title><path class="a" d="M19.51 21h1.5a1.5 1.5 0 0 0 1.5-1.5V3a1.5 1.5 0 0 0-1.5-1.5h-18A1.5 1.5 0 0 0 1.51 3v16.5a1.5 1.5 0 0 0 1.5 1.5h1.5m-3-14.997h21"/><path class="a" d="M18.01 15a6 6 0 0 0-12 0 4.9 4.9 0 0 0 3 4.638v2.112a.75.75 0 0 0 .75.75h4.5a.75.75 0 0 0 .75-.75v-2.109a4.9 4.9 0 0 0 3-4.641zm-6 7.503v-2.25"/><path class="a" d="M9.76 14.253a.75.75 0 1 1-.75.75.75.75 0 0 1 .75-.75m4.5 0a.75.75 0 1 1-.75.75.75.75 0 0 1 .75-.75"/></svg>