<svg xmlns="http://www.w3.org/2000/svg" viewBox="0 0 24 24" width="24" height="24"><defs><style>.a{fill:none;stroke:#000;stroke-linecap:round;stroke-linejoin:round;stroke-width:1.5px}</style></defs><title>app-window-user</title><path class="a" d="M21.76 8.253v-6a1.5 1.5 0 0 0-1.5-1.5h-18a1.5 1.5 0 0 0-1.5 1.5v16.5a1.5 1.5 0 0 0 1.5 1.5h7.5m-9-15h21"/><circle class="a" cx="18.01" cy="13.128" r="2.625"/><path class="a" d="M18.01 16.5a5.251 5.251 0 0 0-5.25 5.25v1.5h10.5v-1.5a5.25 5.25 0 0 0-5.25-5.25zM3.76 9.753h1.5m-1.5 3h1.5m-1.5 3h1.5m3-6h5.25m-5.25 3h4.5m-4.5 3h3.75"/></svg>