<svg xmlns="http://www.w3.org/2000/svg" viewBox="0 0 24 24" width="24" height="24"><defs><style>.a{fill:none;stroke:#000;stroke-linecap:round;stroke-linejoin:round;stroke-width:1.5px}</style></defs><title>app-window-text</title><path class="a" d="M2.26 21.753a1.5 1.5 0 0 1-1.5-1.5V3.869a1.62 1.62 0 0 1 1.615-1.616h19.278a1.612 1.612 0 0 1 1.607 1.608v16.277a1.619 1.619 0 0 1-1.615 1.615zm21-15H.76m16.5-4.5v4.5m-4.5-4.5v4.5m-6.75 3.75h1.5m-1.5 3h1.5m-1.5 3h1.5m3-6h7.5m-7.5 3h7.5m-7.5 3h7.5"/></svg>