<svg xmlns="http://www.w3.org/2000/svg" viewBox="0 0 24 24" width="24" height="24"><defs><style>.a{fill:none;stroke:#000;stroke-linecap:round;stroke-linejoin:round;stroke-width:1.5px}</style></defs><title>app-window-warning</title><path class="a" d="M21.76 10.5V2.253a1.5 1.5 0 0 0-1.5-1.5h-18a1.5 1.5 0 0 0-1.5 1.5v16.5a1.5 1.5 0 0 0 1.5 1.5h6m-7.5-15h21m-4.504 15a.375.375 0 1 1-.375.375.375.375 0 0 1 .375-.375m0-2.25v-3"/><path class="a" d="M23.069 20.686a1.774 1.774 0 0 1-1.587 2.567H13.03a1.773 1.773 0 0 1-1.586-2.567l4.225-8.452a1.774 1.774 0 0 1 3.174 0z"/></svg>