<svg xmlns="http://www.w3.org/2000/svg" viewBox="0 0 24 24" width="24" height="24"><defs><style>.a{fill:none;stroke:#000;stroke-linecap:round;stroke-linejoin:round;stroke-width:1.5px}</style></defs><title>app-window-star-1</title><path class="a" d="M21.76 9.753v-7.5a1.5 1.5 0 0 0-1.5-1.5h-18a1.5 1.5 0 0 0-1.5 1.5v16.5a1.5 1.5 0 0 0 1.5 1.5h6m-7.5-15h21"/><path class="a" d="M17.968 11.684l1.538 4.069h3a.736.736 0 0 1 .518 1.284l-2.6 1.815 1.441 3.313a.785.785 0 0 1-1.118.982l-3.481-1.96-3.48 1.96a.785.785 0 0 1-1.118-.982l1.432-3.313-2.6-1.815a.735.735 0 0 1 .514-1.284h3l1.541-4.069a.8.8 0 0 1 1.413 0z"/></svg>