<svg xmlns="http://www.w3.org/2000/svg" viewBox="0 0 24 24" width="24" height="24"><defs><style>.a{fill:none;stroke:#000;stroke-linecap:round;stroke-linejoin:round;stroke-width:1.5px}</style></defs><title>app-window-graph</title><path class="a" d="M2.26 21.753a1.5 1.5 0 0 1-1.5-1.5V3.869a1.62 1.62 0 0 1 1.615-1.616h19.278a1.612 1.612 0 0 1 1.607 1.608v16.277a1.619 1.619 0 0 1-1.615 1.615zm21-15H.76m16.5-4.5v4.5m-4.5-4.5v4.5"/><path class="a" d="M.76 15.753h5.823a1.5 1.5 0 0 0 1.342-.829L9.7 11.373a.75.75 0 0 1 1.383.1l1.855 5.565a.75.75 0 0 0 1.382.1l1.78-3.555a1.5 1.5 0 0 1 1.341-.83h5.819"/></svg>