<svg xmlns="http://www.w3.org/2000/svg" viewBox="0 0 24 24" width="24" height="24"><defs><style>.a{fill:none;stroke:#000;stroke-linecap:round;stroke-linejoin:round;stroke-width:1.5px}</style></defs><title>app-window-cash-1</title><path class="a" d="M21.76 8.253v-6a1.5 1.5 0 0 0-1.5-1.5h-18a1.5 1.5 0 0 0-1.5 1.5v16.5a1.5 1.5 0 0 0 1.5 1.5h6m-7.5-15h21m-3 9h-2.033a1.342 1.342 0 0 0-.5 2.588l2.064.825a1.342 1.342 0 0 1-.5 2.587H15.76m1.5-6v-.75m0 7.5v-.75"/><circle class="a" cx="17.26" cy="17.253" r="6"/></svg>