<svg xmlns="http://www.w3.org/2000/svg" viewBox="0 0 24 24" width="24" height="24"><defs><style>.a{fill:none;stroke:#000;stroke-linecap:round;stroke-linejoin:round;stroke-width:1.5px}</style></defs><title>app-window-link</title><path class="a" d="M21.76 8.253v-6a1.5 1.5 0 0 0-1.5-1.5h-18a1.5 1.5 0 0 0-1.5 1.5v16.5a1.5 1.5 0 0 0 1.5 1.5h6m-7.5-15h21m-4.495 14.129a2.282 2.282 0 0 1-.639 1.92l-1.292 1.292a2.416 2.416 0 0 1-3.415-3.414l1.292-1.292a2.276 2.276 0 0 1 1.878-.644m4.299.014a2.282 2.282 0 0 0 1.921-.639l1.291-1.292a2.416 2.416 0 0 0-3.414-3.414L17.9 13.205a2.272 2.272 0 0 0-.644 1.878m-2.246 4.42l4.5-4.5"/></svg>