<svg xmlns="http://www.w3.org/2000/svg" viewBox="0 0 24 24" width="24" height="24"><defs><style>.a{fill:none;stroke:#000;stroke-linecap:round;stroke-linejoin:round;stroke-width:1.5px}</style></defs><title>app-window-music</title><path class="a" d="M18.76 21.753h2.25a1.5 1.5 0 0 0 1.5-1.5v-16.5a1.5 1.5 0 0 0-1.5-1.5h-18a1.5 1.5 0 0 0-1.5 1.5v16.5a1.5 1.5 0 0 0 1.5 1.5h1.5m-3-15h21"/><circle class="a" cx="8.635" cy="19.128" r="1.875"/><circle class="a" cx="16.135" cy="16.878" r="1.875"/><path class="a" d="M10.51 19.128v-6.793a1.5 1.5 0 0 1 1.026-1.423l4.5-1.25a1.5 1.5 0 0 1 1.974 1.423v5.793"/></svg>