<svg xmlns="http://www.w3.org/2000/svg" viewBox="0 0 24 24" width="24" height="24"><defs><style>.a{fill:none;stroke:#000;stroke-linecap:round;stroke-linejoin:round;stroke-width:1.5px}</style></defs><title>app-window-eye</title><rect class="a" x="1.51" y="2.253" width="21" height="19.5" rx="1.5" ry="1.5"/><path class="a" d="M1.51 6.753h21m-4.652 7.054a.732.732 0 0 1 0 .894C17.1 15.7 15.015 18 12.01 18s-5.09-2.3-5.848-3.3a.734.734 0 0 1 0-.894c.759-.994 2.843-3.3 5.848-3.3s5.09 2.306 5.848 3.301z"/><path class="a" d="M12.01 13.878a.375.375 0 1 1-.375.375.375.375 0 0 1 .375-.375"/></svg>