<svg id="Regular" xmlns="http://www.w3.org/2000/svg" viewBox="0 0 24 24" width="24" height="24"><defs><style>.cls-1{fill:none;stroke:#000;stroke-linecap:round;stroke-linejoin:round;stroke-width:1.5px}</style></defs><title>appliances-vitamix</title><path class="cls-1" d="M14.3 15.75H6.8a1.5 1.5 0 0 0-1.474 1.223l-.847 4.5a1.5 1.5 0 0 0 1.473 1.777h9.194a1.5 1.5 0 0 0 1.474-1.777l-.847-4.5A1.5 1.5 0 0 0 14.3 15.75zm-9.751-12l2.25 12h7.5l2.25-12h-12z"/><path class="cls-1" d="M15.986 6.75h2.063a1.5 1.5 0 0 1 1.5 1.5v4.5"/><circle class="cls-1" cx="10.549" cy="19.5" r="1.5"/><path class="cls-1" d="M5.634 1.579L4.549 3.75h12l-1.086-2.171A1.5 1.5 0 0 0 14.122.75H6.976a1.5 1.5 0 0 0-1.342.829zM9.049 15.75v-7.5m3 7.5v-7.5"/></svg>