<svg id="Regular" xmlns="http://www.w3.org/2000/svg" viewBox="0 0 24 24" width="24" height="24"><defs><style>.cls-1{fill:none;stroke:#000;stroke-linecap:round;stroke-linejoin:round;stroke-width:1.5px}</style></defs><title>appliances-aspirator</title><path class="cls-1" d="M6.92 17.857l-.62.823a1.585 1.585 0 0 0 .243 2.177 1.585 1.585 0 0 1 .242 2.177l-.162.216m5.934-5.393l-.618.823a1.584 1.584 0 0 0 .243 2.177 1.585 1.585 0 0 1 .242 2.177l-.162.216m5.545-5.393l-.618.823a1.584 1.584 0 0 0 .243 2.177 1.585 1.585 0 0 1 .242 2.177l-.162.216m-.262-19.5H6.75l-5.639 4.5a1.5 1.5 0 0 0-.361.976v3.524a1.5 1.5 0 0 0 1.5 1.5h19.5a1.5 1.5 0 0 0 1.5-1.5V9.226a1.5 1.5 0 0 0-.361-.976zm-10.5-3v3h10.5v-3m-12 10.5H7.5m3 0h2.25"/><path class="cls-1" d="M18.75 10.875a.375.375 0 1 1-.375.375.375.375 0 0 1 .375-.375M1.111 8.25h21.778"/></svg>