<svg id="Regular" xmlns="http://www.w3.org/2000/svg" viewBox="0 0 24 24" width="24" height="24"><defs><style>.cls-1{fill:none;stroke:#000;stroke-linecap:round;stroke-linejoin:round;stroke-width:1.5px}</style></defs><title>appliances-stand-alone-mixer</title><path class="cls-1" d="M2.25 5.25v1.5a1.5 1.5 0 0 0 1.5 1.5h7.5a1.5 1.5 0 0 1 1.5 1.5v13.5h9a1.5 1.5 0 0 0 1.5-1.5V2.25a1.5 1.5 0 0 0-1.5-1.5h-15a4.5 4.5 0 0 0-4.5 4.5zm4.5 3v10.5"/><rect class="cls-1" x="3.75" y="11.25" width="6" height="7.5" rx="1.809" ry="1.809"/><path class="cls-1" d="M.75 23.25h12"/><circle class="cls-1" cx="18" cy="16.5" r="2.25"/><path class="cls-1" d="M14.25 3.75v1.5m3-1.5v1.5m3-1.5v1.5"/></svg>