<svg id="Regular" xmlns="http://www.w3.org/2000/svg" viewBox="0 0 24 24" width="24" height="24"><defs><style>.cls-1{fill:none;stroke:#000;stroke-linecap:round;stroke-linejoin:round;stroke-width:1.5px}</style></defs><title>appliances-blender</title><path class="cls-1" d="M15.75 20.25l-1.8-2.4a1.5 1.5 0 0 0-1.2-.6h-4.5a1.5 1.5 0 0 0-1.2.6l-1.8 2.4v1.5a1.5 1.5 0 0 0 1.5 1.5h7.5a1.5 1.5 0 0 0 1.5-1.5zm-10.5 0h10.5m-1.336-7.314a1.5 1.5 0 0 1-1.488 1.314H8.074a1.5 1.5 0 0 1-1.488-1.314l-1.125-9A1.5 1.5 0 0 1 6.949 2.25h7.1a1.5 1.5 0 0 1 1.488 1.686zM10.5 2.25V.75"/><path class="cls-1" d="M5.625 5.25H17.25a1.5 1.5 0 0 1 1.5 1.5v3a1.5 1.5 0 0 1-1.5 1.5h-2.625"/></svg>