<svg id="Regular" xmlns="http://www.w3.org/2000/svg" viewBox="0 0 24 24" width="24" height="24"><defs><style>.cls-1{fill:none;stroke:#000;stroke-linecap:round;stroke-linejoin:round;stroke-width:1.5px}</style></defs><title>appliances-slow-cooker</title><path class="cls-1" d="M3.75 12.75h16.5v8.5a2 2 0 0 1-2 2H5.75a2 2 0 0 1-2-2v-8.5zm16.5 1.5h3m-19.5 0h-3m3-1.5c0-3.314 3.694-4.5 8.25-4.5s8.25 1.186 8.25 4.5m-6 6h1.5M12 5.25v3m6.75-7.5c1.437 2.873-2.151 2.381 0 5.25M5.206.75c1.437 2.873-2.151 2.381 0 5.25"/></svg>