<svg id="Regular" xmlns="http://www.w3.org/2000/svg" viewBox="0 0 24 24" width="24" height="24"><defs><style>.cls-1{fill:none;stroke:#000;stroke-linecap:round;stroke-linejoin:round;stroke-width:1.5px}</style></defs><title>appliances-rice-cooker</title><path class="cls-1" d="M21.75 20.25H2.25V10.5A9.75 9.75 0 0 1 12 .75a9.75 9.75 0 0 1 9.75 9.75zm-3 3H5.25a3 3 0 0 1-3-3h19.5a3 3 0 0 1-3 3z"/><path class="cls-1" d="M14.25 14.25h-4.5a1.5 1.5 0 0 0-1.5 1.5v4.5h7.5v-4.5a1.5 1.5 0 0 0-1.5-1.5zm-3 3h1.5M2.278 9.75h19.444m-4.472-3c-.485-1.718-3.059-3-5.25-3s-4.765 1.282-5.25 3z"/></svg>