<svg id="Regular" xmlns="http://www.w3.org/2000/svg" viewBox="0 0 24 24" width="24" height="24"><defs><style>.cls-1{fill:none;stroke:#000;stroke-linecap:round;stroke-linejoin:round;stroke-width:1.5px}</style></defs><title>appliances-oven</title><path class="cls-1" d="M2.25 1.5h19.5v21H2.25zm-1.5 0h22.5m-22.5 21h22.5"/><rect class="cls-1" x="5.25" y="10.5" width="13.5" height="9" rx=".961" ry=".961"/><path class="cls-1" d="M9 13.5h6M5.25 4.125a.375.375 0 1 1-.375.375.375.375 0 0 1 .375-.375m3 0a.375.375 0 1 1-.375.375.375.375 0 0 1 .375-.375m-6 3.375h19.5m-8.25-3h5.25"/></svg>