<svg id="Regular" xmlns="http://www.w3.org/2000/svg" viewBox="0 0 24 24" width="24" height="24"><defs><style>.cls-1{fill:none;stroke:#000;stroke-linecap:round;stroke-linejoin:round;stroke-width:1.5px}</style></defs><title>appliances-mixer</title><path class="cls-1" d="M20.25 10.875a1.5 1.5 0 0 1-1.5 1.5H5.25a1.5 1.5 0 0 1-1.5-1.5v-3a4.5 4.5 0 0 1 4.5-4.5h4.5a7.5 7.5 0 0 1 7.5 7.5zM9 3.375l-.75-2.25"/><path class="cls-1" d="M12 6.375v3h4.5m-9.75-2.25h1.5m-1.5 2.25h1.5m-.75 3v10.5m3-3a3 3 0 0 1-6 0c0-1.657 1.343-5.25 3-5.25s3 3.593 3 5.25z"/></svg>