<svg xmlns="http://www.w3.org/2000/svg" viewBox="0 0 24 24" width="24" height="24"><g fill="none" stroke="#000" stroke-linecap="round" stroke-linejoin="round" stroke-miterlimit="10"><path d="M14.5 1.5V6a2.5 2.5 0 11-5 0V1.5h-2a2 2 0 00-2 2c0 .257-1 7.059-1 19h15c0-11.938-1-18.737-1-19a2 2 0 00-2-2h-2z"/><path d="M16.5 14.5h-9v.5a4.5 4.5 0 009 0v-.5zM4.679 14h-.765c-.777 0-1.864.45-2.414 1s-1 1.637-1 2.414V18.5M19.321 14h.765c.777 0 1.864.45 2.414 1s1 1.637 1 2.414V18.5"/></g><path fill="none" d="M0 0h24v24H0z"/></svg>