<svg xmlns="http://www.w3.org/2000/svg" viewBox="0 0 24 24" width="24" height="24"><defs><style>.a{fill:none;stroke:#000;stroke-linecap:round;stroke-linejoin:round;stroke-width:1.5px}</style></defs><title>archive-drawer</title><path class="a" d="M22.5 15.75H15a3 3 0 0 1-6 0H1.5a.75.75 0 0 0-.75.75v3.75a1.5 1.5 0 0 0 1.5 1.5h19.5a1.5 1.5 0 0 0 1.5-1.5V16.5a.75.75 0 0 0-.75-.75zm-.75-3v-9a1.5 1.5 0 0 0-1.5-1.5H10.5A1.5 1.5 0 0 0 9 3.75v9m-6.75 0v-6a1.5 1.5 0 0 1 1.5-1.5H6m8.999 1.5h3.751m-6.751 3.75h6.751"/></svg>