<svg xmlns="http://www.w3.org/2000/svg" viewBox="0 0 24 24" width="24" height="24"><defs><style>.a{fill:none;stroke:#000;stroke-linecap:round;stroke-linejoin:round;stroke-width:1.5px}</style></defs><title>architecture-fence-1</title><path class="a" d="M5.25 19.5a.75.75 0 0 1-.75.75h-3a.75.75 0 0 1-.75-.75V5.25a2.25 2.25 0 0 1 4.5 0zm9 0a.75.75 0 0 1-.75.75h-3a.75.75 0 0 1-.75-.75V5.25a2.25 2.25 0 0 1 4.5 0zm9 0a.75.75 0 0 1-.75.75h-3a.75.75 0 0 1-.75-.75V5.25a2.25 2.25 0 0 1 4.5 0zm-18-11.25h4.5m4.5 0h4.5m-13.5 9h4.5m4.5 0h4.5"/></svg>