<svg xmlns="http://www.w3.org/2000/svg" viewBox="0 0 24 24" width="24" height="24"><defs><style>.a{fill:none;stroke:#000;stroke-linecap:round;stroke-linejoin:round;stroke-width:1.5px}</style></defs><title>archive-locker</title><rect class="a" x=".751" y=".75" width="22.499" height="22.5" rx="1.5" ry="1.5"/><path class="a" d="M.751 8.25h22.498M.751 15.75h22.498m-8.249 3a.75.75 0 0 1-.75.75h-4.5a.75.75 0 0 1-.75-.75m6-7.5a.75.75 0 0 1-.75.75h-4.5a.75.75 0 0 1-.75-.75m6-7.5a.75.75 0 0 1-.75.75h-4.5A.75.75 0 0 1 9 3.75"/></svg>