<svg xmlns="http://www.w3.org/2000/svg" viewBox="0 0 24 24" width="24" height="24"><defs><style>.a{fill:none;stroke:#000;stroke-linecap:round;stroke-linejoin:round;stroke-width:1.5px}</style></defs><title>architecture-well</title><path class="a" d="M4.75 18h14.5a1 1 0 0 1 1 1v3.5H3.75V19a1 1 0 0 1 1-1zm.5 0V6m13.5 12V6m1.921-.987a.749.749 0 0 1-.712.987H4.041a.749.749 0 0 1-.712-.987l.829-2.487A1.5 1.5 0 0 1 5.581 1.5h12.838a1.5 1.5 0 0 1 1.423 1.026zM12 6v4.5m-2.25 0h4.5L13.5 15h-3l-.75-4.5zm-9 12h22.5"/></svg>