<svg xmlns="http://www.w3.org/2000/svg" viewBox="0 0 24 24" width="24" height="24"><defs><style>.a{fill:none;stroke:#000;stroke-linecap:round;stroke-linejoin:round;stroke-width:1.5px}</style></defs><title>archive-drawer-table</title><path class="a" d="M18.75 21.75H5.25a3 3 0 0 1-3-3v-18h19.5v18a3 3 0 0 1-3 3zm-13.5 0v1.5m13.5-1.5v1.5M.75.75h1.5m19.5 0h1.5"/><path class="a" d="M12 4.875c.1 0-.375-.034-.375.375A.375.375 0 1 0 12 4.875m0 8.625c.1 0-.375-.034-.375.375A.375.375 0 1 0 12 13.5M2.25 9h19.5"/></svg>