<svg xmlns="http://www.w3.org/2000/svg" viewBox="0 0 24 24" width="24" height="24"><defs><style>.a{fill:none;stroke:#000;stroke-linecap:round;stroke-linejoin:round;stroke-width:1.5px}</style></defs><title>architecture-fence-2</title><path class="a" d="M7.5 20.75h-3a1.5 1.5 0 0 1-1.5-1.5V5.75l1.607-2.678a.75.75 0 0 1 1.286 0L7.5 5.75zm4.5 0H7.5v-15l1.607-2.678a.75.75 0 0 1 1.286 0L12 5.75zm4.5 0H12v-15l1.607-2.678a.75.75 0 0 1 1.286 0L16.5 5.75zm4.5-1.5a1.5 1.5 0 0 1-1.5 1.5h-3v-15l1.607-2.678a.75.75 0 0 1 1.286 0L21 5.75zM.75 8.75h22.5m-22.5 7.5h22.5"/></svg>