<svg id="Regular" xmlns="http://www.w3.org/2000/svg" viewBox="0 0 24 24" width="24" height="24"><defs><style>.cls-1{fill:none;stroke:#000;stroke-linecap:round;stroke-linejoin:round;stroke-width:1.5px}</style></defs><title>archery-person</title><circle class="cls-1" cx="8.25" cy="3.375" r="2.625"/><path class="cls-1" d="M8.25 17.25v4.5M5.243 13.5l.007 8.25a1.5 1.5 0 0 0 3 0 1.5 1.5 0 0 0 3 0V10.5h6a1.5 1.5 0 0 0 0-3h-6"/><path class="cls-1" d="M15.75.75s6 2.25 6 8.25-6 8.25-6 8.25m-9-6.75h-3a1.5 1.5 0 0 1 0-3h3a1.5 1.5 0 0 1 0 3z"/></svg>