<svg xmlns="http://www.w3.org/2000/svg" viewBox="0 0 24 24" width="24" height="24"><defs><style>.a{fill:none;stroke:#000;stroke-linecap:round;stroke-linejoin:round;stroke-width:1.5px}</style></defs><title>arduino-plus-minus-1</title><path class="a" d="M12 12s1.35 3.15 3.6 3.15a3.15 3.15 0 1 0 0-6.3C13.35 8.85 12 12 12 12zm0 0s-1.35 3.15-3.6 3.15a3.15 3.15 0 1 1 0-6.3C10.65 8.85 12 12 12 12z"/><path class="a" d="M20.25 18.75h-18a1.5 1.5 0 0 1-1.5-1.5V6.75a1.5 1.5 0 0 1 1.5-1.5h18a1.5 1.5 0 0 1 1.5 1.5v1.5l1.5.75v6l-1.5.75v1.5a1.5 1.5 0 0 1-1.5 1.5z"/></svg>