<svg id="Regular" xmlns="http://www.w3.org/2000/svg" viewBox="0 0 24 24" width="24" height="24"><defs><style>.cls-1{fill:none;stroke:#000;stroke-linecap:round;stroke-linejoin:round;stroke-width:1.5px}</style></defs><title>armchair</title><path class="cls-1" d="M20.25 12V9a8.25 8.25 0 0 0-16.5 0v3"/><path class="cls-1" d="M23.25 15a3 3 0 1 0-4.983 2.25H5.733a3 3 0 1 0-3.483.35v2.65a1.5 1.5 0 0 0 1.5 1.5h16.5a1.5 1.5 0 0 0 1.5-1.5V17.6a3 3 0 0 0 1.5-2.6zm-19.5 6.75v1.5m16.5-1.5v1.5M10.5 7.5l3 3m0-3l-3 3"/></svg>