<svg id="Regular" xmlns="http://www.w3.org/2000/svg" viewBox="0 0 24 24" width="24" height="24"><defs><style>.cls-1{fill:none;stroke:#000;stroke-linecap:round;stroke-linejoin:round;stroke-width:1.5px}</style></defs><title>armchair-1</title><path class="cls-1" d="M3.75 12.75V9a8.25 8.25 0 0 1 16.5 0v3.75m0 0a3 3 0 0 0-3 3H6.75a3 3 0 0 0-3-3h-1.5a1.5 1.5 0 0 0 0 3 1.5 1.5 0 0 1 1.5 1.5v3a1.5 1.5 0 0 0 1.5 1.5h13.5a1.5 1.5 0 0 0 1.5-1.5v-3a1.5 1.5 0 0 1 1.5-1.5 1.5 1.5 0 0 0 0-3zm-15 9v1.5m13.5-1.5v1.5M10.5 7.5l3 3m0-3l-3 3"/></svg>