<svg id="Regular" xmlns="http://www.w3.org/2000/svg" viewBox="0 0 24 24" width="24" height="24"><defs><style>.cls-1{fill:none;stroke:#000;stroke-linecap:round;stroke-linejoin:round;stroke-width:1.5px}</style></defs><title>armchair-modern</title><path class="cls-1" d="M21.46.8a2.245 2.245 0 0 0-2.667 1.835L17.316 11.5a1.5 1.5 0 0 1-1.48 1.254H8.189A1.5 1.5 0 0 1 6.71 11.5L5.232 2.631a2.25 2.25 0 0 0-4.439.74l3 18a2.251 2.251 0 0 0 2.22 1.88h12a2.25 2.25 0 0 0 2.219-1.88L23.2 3.539A2.365 2.365 0 0 0 21.46.8zM5.134 2.251h13.758"/></svg>