<svg xmlns="http://www.w3.org/2000/svg" viewBox="0 0 24 24" width="24" height="24"><defs><style>.a{fill:none;stroke:#000;stroke-linecap:round;stroke-linejoin:round;stroke-width:1.5px}</style></defs><title>army-arrow</title><path class="a" d="M18.682 4.962L6.485 17.16m12.57-14.999a1.5 1.5 0 0 0-.666 2.508l.587.587a1.5 1.5 0 0 0 2.508-.666l.916-3.34zM5.752 22.135a.75.75 0 0 1-1.242-.293l-.677-2.03-2.033-.677a.751.751 0 0 1-.294-1.242l.733-.733a3 3 0 1 1 4.246 4.24zM5.107 4.962L17.305 17.16M4.735 2.161A1.5 1.5 0 0 1 5.4 4.669l-.587.587a1.5 1.5 0 0 1-2.507-.666L1.4 1.25zm13.303 19.974a.75.75 0 0 0 1.242-.293l.676-2.03 2.031-.677a.75.75 0 0 0 .293-1.242l-.733-.733a3 3 0 0 0-4.242 4.24z"/></svg>