<svg xmlns="http://www.w3.org/2000/svg" viewBox="0 0 24 24" width="24" height="24"><defs><style>.a{fill:none;stroke:#000;stroke-linecap:round;stroke-linejoin:round;stroke-width:1.5px}</style></defs><title>army-sword-fight</title><path class="a" d="M23.05 9.725A11.264 11.264 0 0 0 14.275.95m-4.5 0A11.264 11.264 0 0 0 1 9.725m0 4.5A11.264 11.264 0 0 0 9.775 23m4.5 0a11.264 11.264 0 0 0 8.775-8.775M12.025 4.1a.375.375 0 0 1 .375.375m-.75 0a.375.375 0 0 1 .375-.375m0 .75a.375.375 0 0 1-.375-.375m.75 0a.375.375 0 0 1-.375.375m0 14.25a.375.375 0 0 1 .375.375m-.75 0a.375.375 0 0 1 .375-.375m0 .75a.375.375 0 0 1-.375-.375m.75 0a.375.375 0 0 1-.375.375m-7.5-8.25a.375.375 0 0 1 .375.375m-.75 0a.375.375 0 0 1 .375-.375m0 .75a.375.375 0 0 1-.375-.375m.75 0a.375.375 0 0 1-.375.375m15-.75a.375.375 0 0 1 .375.375m-.75 0a.375.375 0 0 1 .375-.375m0 .75a.375.375 0 0 1-.375-.375m.75 0a.375.375 0 0 1-.375.375M6.775 6.725l10.5 10.5m-3.75-.75l3-3m.75-6.75l-10.5 10.5m3.75-.75l-3-3"/></svg>