<svg xmlns="http://www.w3.org/2000/svg" viewBox="0 0 24 24" width="24" height="24"><defs><style>.a{fill:none;stroke:#000;stroke-linecap:round;stroke-linejoin:round;stroke-width:1.5px}</style></defs><title>army-dog-tag</title><rect class="a" x="7" y="8.25" width="10.5" height="15" rx="3" ry="3"/><path class="a" d="M11.5 17.25H13m-6 0h1.5m7.5 0h1.5m-5.25-5.625a.375.375 0 0 1 .375.375m-.75 0a.375.375 0 0 1 .375-.375m0 .75a.375.375 0 0 1-.375-.375m.75 0a.375.375 0 0 1-.375.375M4 .75l1.5 1.5M7.75 4.5L9.25 6M20.5.75L19 2.25M16.75 4.5L15.25 6"/></svg>