<svg xmlns="http://www.w3.org/2000/svg" viewBox="0 0 24 24" width="24" height="24"><defs><style>.a{fill:none;stroke:#000;stroke-linecap:round;stroke-linejoin:round;stroke-width:1.5px}</style></defs><title>army-dog-tag-1</title><path class="a" d="M17.972 4.9a2.993 2.993 0 0 1 1.319 2.482v12.236a3.011 3.011 0 0 1-2.27 2.912 17.741 17.741 0 0 1-5.25.72 17.73 17.73 0 0 1-5.25-.72 3.011 3.011 0 0 1-2.271-2.912V7.382A3.011 3.011 0 0 1 6.521 4.47a17.658 17.658 0 0 1 4.309-.7m.941 3.73l6-6.75M8.646 3.984L5.771.75m6.75 10.5v7.5m-3 0v-3m0-3v-1.5"/></svg>