<svg id="Regular" xmlns="http://www.w3.org/2000/svg" viewBox="0 0 24 24" width="24" height="24"><defs><style>.cls-1{fill:none;stroke:#000;stroke-linecap:round;stroke-linejoin:round;stroke-width:1.5px}</style></defs><title>arrow-dot-up-1</title><path class="cls-1" d="M12.25 3a.375.375 0 1 1 .375-.375.375.375 0 0 1-.375.375m1.875 3.375A.375.375 0 1 1 14.5 6a.375.375 0 0 1-.375.375m0 3.75a.375.375 0 1 1 .375-.375.375.375 0 0 1-.375.375m3.75 3a.375.375 0 1 1 .375-.375.375.375 0 0 1-.375.375m3.75 0A.375.375 0 1 1 22 12.75a.375.375 0 0 1-.375.375m-3.75-3.75A.375.375 0 1 1 18.25 9a.375.375 0 0 1-.375.375m-7.5-3A.375.375 0 1 1 10.75 6a.375.375 0 0 1-.375.375m0 3.75a.375.375 0 1 1 .375-.375.375.375 0 0 1-.375.375m3.75 3.75a.375.375 0 1 1 .375-.375.375.375 0 0 1-.375.375m-3.75 0a.375.375 0 1 1 .375-.375.375.375 0 0 1-.375.375m3.75 3.75a.375.375 0 1 1 .375-.375.375.375 0 0 1-.375.375m-3.75 0a.375.375 0 1 1 .375-.375.375.375 0 0 1-.375.375m3.75 3.75A.375.375 0 1 1 14.5 21a.375.375 0 0 1-.375.375m-3.75 0A.375.375 0 1 1 10.75 21a.375.375 0 0 1-.375.375m-3.75-8.25A.375.375 0 1 1 7 12.75a.375.375 0 0 1-.375.375m-3.75 0a.375.375 0 1 1 .375-.375.375.375 0 0 1-.375.375m3.75-3.75A.375.375 0 1 1 7 9a.375.375 0 0 1-.375.375"/></svg>