<svg id="Regular" xmlns="http://www.w3.org/2000/svg" viewBox="0 0 24 24" width="24" height="24"><defs><style>.cls-1{fill:none;stroke:#000;stroke-linecap:round;stroke-linejoin:round;stroke-width:1.5px}</style></defs><title>arrow-thick-circle-down-2</title><circle class="cls-1" cx="12" cy="12" r="11.25"/><path class="cls-1" d="M12 5.25A2.25 2.25 0 0 0 9.75 7.5v5.25l-1.125-1.125a1.592 1.592 0 0 0-2.25 0 1.592 1.592 0 0 0 0 2.25l5.1 5.095a.749.749 0 0 0 1.06 0l5.1-5.095a1.592 1.592 0 0 0 0-2.25 1.592 1.592 0 0 0-2.25 0L14.25 12.75V7.5A2.25 2.25 0 0 0 12 5.25z"/></svg>