<svg id="Regular" xmlns="http://www.w3.org/2000/svg" viewBox="0 0 24 24" width="24" height="24"><defs><style>.cls-1{fill:none;stroke:#000;stroke-linecap:round;stroke-linejoin:round;stroke-width:1.5px;fill-rule:evenodd}</style></defs><title>arrow-double-up</title><path class="cls-1" d="M11.75 7.222l-7.1 4.517a.751.751 0 0 1-1.15-.633V6.545a1.5 1.5 0 0 1 .7-1.265L10.945.985a1.5 1.5 0 0 1 1.61 0l6.75 4.3A1.5 1.5 0 0 1 20 6.545v4.561a.751.751 0 0 1-1.153.633zm0 11.394l-7.1 4.517A.751.751 0 0 1 3.5 22.5v-4.56a1.5 1.5 0 0 1 .7-1.266l6.75-4.295a1.5 1.5 0 0 1 1.61 0l6.75 4.3A1.5 1.5 0 0 1 20 17.94v4.56a.751.751 0 0 1-1.153.633z"/></svg>