<svg id="Regular" xmlns="http://www.w3.org/2000/svg" viewBox="0 0 24 24" width="24" height="24"><defs><style>.cls-1{fill:none;stroke:#000;stroke-linecap:round;stroke-linejoin:round;stroke-width:1.5px}</style></defs><title>arrow-thick-left-3</title><path class="cls-1" d="M13.243 3.75a.75.75 0 0 1 .53 1.28l-4.72 4.72H22.5a.75.75 0 0 1 .75.75v3a.75.75 0 0 1-.75.75H9.053l4.72 4.72a.75.75 0 0 1-.53 1.28H9.311a1.5 1.5 0 0 1-1.061-.439L.97 12.53a.749.749 0 0 1 0-1.06l7.28-7.281a1.5 1.5 0 0 1 1.061-.439z"/></svg>