<svg id="Regular" xmlns="http://www.w3.org/2000/svg" viewBox="0 0 24 24" width="24" height="24"><defs><style>.cls-1{fill:none;stroke:#000;stroke-linecap:round;stroke-linejoin:round;stroke-width:1.5px;fill-rule:evenodd}</style></defs><title>arrow-double-right-1</title><path class="cls-1" d="M14.59 18.289l4.162-6.54-4.162-6.538c-.424-.667-.08-1.711.565-1.711h2.411a1.372 1.372 0 0 1 1.129.7l4.369 6.866a1.332 1.332 0 0 1 0 1.358L18.7 19.3a1.372 1.372 0 0 1-1.129.7h-2.416c-.645 0-.989-1.044-.565-1.711zm-8.403 0l4.162-6.539-4.162-6.539c-.424-.667-.08-1.711.564-1.711h1.771a1.371 1.371 0 0 1 1.129.7l4.37 6.867a1.337 1.337 0 0 1 0 1.358L9.651 19.3a1.371 1.371 0 0 1-1.129.7H6.751c-.644 0-.988-1.044-.564-1.711z"/><path class="cls-1" d="M.75 19.25L6 11.75.75 4.25"/></svg>