<svg id="Regular" xmlns="http://www.w3.org/2000/svg" viewBox="0 0 24 24" width="24" height="24"><defs><style>.cls-1{fill:none;stroke:#000;stroke-linecap:round;stroke-linejoin:round;stroke-width:1.5px}</style></defs><title>arrow-dot-corner-left-1</title><path class="cls-1" d="M4.821 18.679a.375.375 0 1 1-.53 0 .374.374 0 0 1 .53 0m1.061-3.713a.375.375 0 1 1-.53 0 .377.377 0 0 1 .53 0m2.652-2.651a.375.375 0 1 1-.531 0 .375.375 0 0 1 .531 0M8 7.542a.375.375 0 1 1-.53 0 .374.374 0 0 1 .53 0M5.352 4.89a.375.375 0 1 1-.531 0 .377.377 0 0 1 .531 0m0 5.303a.375.375 0 1 1-.531 0 .377.377 0 0 1 .531 0m3.182 7.425a.375.375 0 1 1-.531 0 .375.375 0 0 1 .531 0m2.651-2.652a.375.375 0 1 1-.53 0 .375.375 0 0 1 .53 0m0-5.303a.375.375 0 1 1-.53 0 .374.374 0 0 1 .53 0m2.652 2.652a.375.375 0 1 1-.53 0 .375.375 0 0 1 .53 0m0-5.304a.375.375 0 1 1-.53 0 .377.377 0 0 1 .53 0m2.652 2.652a.375.375 0 1 1-.531 0 .375.375 0 0 1 .531 0m0-5.303a.375.375 0 1 1-.531 0 .375.375 0 0 1 .531 0m2.651 2.651a.375.375 0 1 1-.53 0 .375.375 0 0 1 .53 0M15.958 15.5a.375.375 0 1 1-.53 0 .374.374 0 0 1 .53 0m2.652 2.648a.375.375 0 1 1-.53 0 .377.377 0 0 1 .53 0m-5.303 0a.375.375 0 1 1-.531 0 .377.377 0 0 1 .531 0"/></svg>