<svg id="Regular" xmlns="http://www.w3.org/2000/svg" viewBox="0 0 24 24" width="24" height="24"><defs><style>.cls-1{fill:none;stroke:#000;stroke-linecap:round;stroke-linejoin:round;stroke-width:1.5px}</style></defs><title>arrow-dot-right-1</title><path class="cls-1" d="M21.375 11.375a.375.375 0 1 1-.375.375.375.375 0 0 1 .375-.375M18 13.25a.375.375 0 1 1-.375.375.375.375 0 0 1 .375-.375m-3.75 0a.375.375 0 1 1-.375.375.375.375 0 0 1 .375-.375m-3 3.75a.375.375 0 1 1-.375.375.375.375 0 0 1 .375-.375m0 3.75a.375.375 0 1 1-.375.375.375.375 0 0 1 .375-.375M15 17a.375.375 0 1 1-.375.375A.375.375 0 0 1 15 17m3-7.5a.375.375 0 1 1-.375.375A.375.375 0 0 1 18 9.5m-3.75 0a.375.375 0 1 1-.375.375.375.375 0 0 1 .375-.375m-3.75 3.75a.375.375 0 1 1-.375.375.375.375 0 0 1 .375-.375m0-3.75a.375.375 0 1 1-.375.375.375.375 0 0 1 .375-.375m-3.75 3.75a.375.375 0 1 1-.375.375.375.375 0 0 1 .375-.375m0-3.75a.375.375 0 1 1-.375.375.375.375 0 0 1 .375-.375M3 13.25a.375.375 0 1 1-.375.375A.375.375 0 0 1 3 13.25M3 9.5a.375.375 0 1 1-.375.375A.375.375 0 0 1 3 9.5m8.25-3.75a.375.375 0 1 1-.375.375.375.375 0 0 1 .375-.375m0-3.75a.375.375 0 1 1-.375.375A.375.375 0 0 1 11.25 2M15 5.75a.375.375 0 1 1-.375.375A.375.375 0 0 1 15 5.75"/></svg>