<svg id="Regular" xmlns="http://www.w3.org/2000/svg" viewBox="0 0 24 24" width="24" height="24"><defs><style>.cls-1{fill:none;stroke:#000;stroke-linecap:round;stroke-linejoin:round;stroke-width:1.5px;fill-rule:evenodd}</style></defs><title>arrow-double-down</title><path class="cls-1" d="M11.75 16.778l7.1-4.517a.751.751 0 0 1 1.15.633v4.561a1.5 1.5 0 0 1-.7 1.265l-6.75 4.3a1.5 1.5 0 0 1-1.61 0l-6.74-4.3a1.5 1.5 0 0 1-.7-1.265v-4.561a.751.751 0 0 1 1.153-.633zm0-11.394l7.1-4.517A.751.751 0 0 1 20 1.5v4.56a1.5 1.5 0 0 1-.7 1.266l-6.75 4.3a1.5 1.5 0 0 1-1.61 0l-6.74-4.3a1.5 1.5 0 0 1-.7-1.266V1.5A.751.751 0 0 1 4.653.867z"/></svg>