<svg id="Regular" xmlns="http://www.w3.org/2000/svg" viewBox="0 0 24 24" width="24" height="24"><defs><style>.cls-1{fill:none;stroke:#000;stroke-linecap:round;stroke-linejoin:round;stroke-width:1.5px}</style></defs><title>arrow-thick-right-4</title><rect class="cls-1" x=".75" y=".75" width="22.5" height="22.5" rx="3" ry="3" transform="rotate(-180 12 12)"/><path class="cls-1" d="M6 9.75h7.5l-3.22-3.22a.75.75 0 0 1 .531-1.28h2.068a1.5 1.5 0 0 1 1.06.439l5.781 5.781a.749.749 0 0 1 0 1.06l-5.781 5.781a1.5 1.5 0 0 1-1.06.439h-2.068a.75.75 0 0 1-.531-1.28l3.22-3.22H6a.75.75 0 0 1-.75-.75v-3A.75.75 0 0 1 6 9.75z"/></svg>