<svg id="Regular" xmlns="http://www.w3.org/2000/svg" viewBox="0 0 24 24" width="24" height="24"><defs><style>.cls-1{fill:none;stroke:#000;stroke-linecap:round;stroke-linejoin:round;stroke-width:1.5px}</style></defs><title>arrow-dot-down-1</title><path class="cls-1" d="M12 20.875a.375.375 0 1 1-.375.375.375.375 0 0 1 .375-.375M10.125 17.5a.375.375 0 1 1-.375.375.375.375 0 0 1 .375-.375m0-3.75a.375.375 0 1 1-.375.375.375.375 0 0 1 .375-.375m-3.75-3a.375.375 0 1 1-.375.375.375.375 0 0 1 .375-.375m-3.75 0a.375.375 0 1 1-.375.375.375.375 0 0 1 .375-.375m3.75 3.75a.375.375 0 1 1-.375.375.375.375 0 0 1 .375-.375m7.5 3a.375.375 0 1 1-.375.375.375.375 0 0 1 .375-.375m0-3.75a.375.375 0 1 1-.375.375.375.375 0 0 1 .375-.375M10.125 10a.375.375 0 1 1-.375.375.375.375 0 0 1 .375-.375m3.75 0a.375.375 0 1 1-.375.375.375.375 0 0 1 .375-.375m-3.75-3.75a.375.375 0 1 1-.375.375.375.375 0 0 1 .375-.375m3.75 0a.375.375 0 1 1-.375.375.375.375 0 0 1 .375-.375m-3.75-3.75a.375.375 0 1 1-.375.375.375.375 0 0 1 .375-.375m3.75 0a.375.375 0 1 1-.375.375.375.375 0 0 1 .375-.375m3.75 8.25a.375.375 0 1 1-.375.375.375.375 0 0 1 .375-.375m3.75 0a.375.375 0 1 1-.375.375.375.375 0 0 1 .375-.375m-3.75 3.75a.375.375 0 1 1-.375.375.375.375 0 0 1 .375-.375"/></svg>