<svg id="Regular" xmlns="http://www.w3.org/2000/svg" viewBox="0 0 24 24" width="24" height="24"><defs><style>.cls-1{fill:none;stroke:#000;stroke-linecap:round;stroke-linejoin:round;stroke-width:1.5px}</style></defs><title>arrow-thick-dot-corner-down-left</title><path class="cls-1" d="M5.89 18.36a.375.375 0 1 0 0 .53.374.374 0 0 0 0-.53m6 0a.375.375 0 1 0 0 .53.374.374 0 0 0 0-.53m-6-12a.375.375 0 1 0 0 .53.374.374 0 0 0 0-.53m4.5 7.5a.375.375 0 1 0 0 .53.374.374 0 0 0 0-.53m4.5-4.5a.375.375 0 1 0 0 .53.374.374 0 0 0 0-.53m4.5-4.5a.375.375 0 1 0 0 .53.374.374 0 0 0 0-.53m-13.5 7.5a.375.375 0 1 0 0 .53.374.374 0 0 0 0-.53m12 6.53a.375.375 0 1 0-.53 0 .374.374 0 0 0 .53 0"/></svg>