<svg id="Regular" xmlns="http://www.w3.org/2000/svg" viewBox="0 0 24 24" width="24" height="24"><defs><style>.cls-1{fill:none;stroke:#000;stroke-linecap:round;stroke-linejoin:round;stroke-width:1.5px}</style></defs><title>arrow-thick-dot-up</title><path class="cls-1" d="M11.875 2.5a.375.375 0 1 1-.375.375.375.375 0 0 1 .375-.375m4.5 3a.375.375 0 1 1-.375.375.375.375 0 0 1 .375-.375m-12.75 3a.375.375 0 1 1-.375.375.375.375 0 0 1 .375-.375m8.25 0a.375.375 0 1 1-.375.375.375.375 0 0 1 .375-.375m0 6a.375.375 0 1 1-.375.375.375.375 0 0 1 .375-.375m0 6a.375.375 0 1 1-.375.375.375.375 0 0 1 .375-.375m-4.5-15A.375.375 0 1 1 7 5.875a.375.375 0 0 1 .375-.375m12.75 3a.375.375 0 1 1-.375.375.375.375 0 0 1 .375-.375"/></svg>