<svg id="Regular" xmlns="http://www.w3.org/2000/svg" viewBox="0 0 24 24" width="24" height="24"><defs><style>.cls-1{fill:none;stroke:#000;stroke-linecap:round;stroke-linejoin:round;stroke-width:1.5px}</style></defs><title>arrow-dot-corner-right-1</title><path class="cls-1" d="M19.86 18.429a.375.375 0 1 1 0 .53.374.374 0 0 1 0-.53m-3.712-1.061a.375.375 0 1 1 0 .53.375.375 0 0 1 0-.53M13.5 14.716a.375.375 0 1 1 0 .531.375.375 0 0 1 0-.531m-4.777.531a.375.375 0 1 1 0 .53.374.374 0 0 1 0-.53M6.071 17.9a.375.375 0 1 1 0 .531.377.377 0 0 1 0-.531m5.304 0a.375.375 0 1 1 0 .531.375.375 0 0 1 0-.531m7.425-3.184a.375.375 0 1 1 0 .531.377.377 0 0 1 0-.531m-2.652-2.651a.375.375 0 1 1 0 .53.374.374 0 0 1 0-.53m-5.304 0a.375.375 0 1 1 0 .53.375.375 0 0 1 0-.53M13.5 9.413a.375.375 0 1 1 0 .53.375.375 0 0 1 0-.53m-5.307 0a.375.375 0 1 1 0 .53.375.375 0 0 1 0-.53m2.651-2.652a.375.375 0 1 1 0 .531.377.377 0 0 1 0-.531m-5.303 0a.375.375 0 1 1 0 .531.375.375 0 0 1 0-.531M8.193 4.11a.375.375 0 1 1 0 .53.374.374 0 0 1 0-.53m8.485 3.182a.375.375 0 1 1 0 .53.374.374 0 0 1 0-.53M19.33 4.64a.375.375 0 1 1 0 .531.375.375 0 0 1 0-.531m0 5.303a.375.375 0 1 1 0 .531.375.375 0 0 1 0-.531"/></svg>