<svg id="Regular" xmlns="http://www.w3.org/2000/svg" viewBox="0 0 24 24" width="24" height="24"><defs><style>.cls-1{fill:none;stroke:#000;stroke-linecap:round;stroke-linejoin:round;stroke-width:1.5px}</style></defs><title>arrow-thick-left bottom-corner-1</title><path class="cls-1" d="M17.25 21a.75.75 0 0 0 .75-.75v-3a.75.75 0 0 0-.75-.75h-6.568l9.728-9.728a.75.75 0 0 0 0-1.061L18.289 3.59a.75.75 0 0 0-1.061 0L7.5 13.318V6.75A.75.75 0 0 0 6.75 6h-3a.75.75 0 0 0-.75.75V19.5A1.5 1.5 0 0 0 4.5 21z"/></svg>