<svg id="Regular" xmlns="http://www.w3.org/2000/svg" viewBox="0 0 24 24" width="24" height="24"><defs><style>.cls-1{fill:none;stroke:#000;stroke-linecap:round;stroke-linejoin:round;stroke-width:1.5px}</style></defs><title>arrow-thick-left-bottom-corner-3</title><path class="cls-1" d="M20.53 5.591L18.409 3.47a.75.75 0 0 0-1.061 0L7.84 12.978V6.41a.75.75 0 0 0-1.28-.53L3.779 8.66a1.5 1.5 0 0 0-.439 1.061V19.91a.75.75 0 0 0 .75.75h10.189a1.5 1.5 0 0 0 1.061-.439l2.78-2.781a.75.75 0 0 0-.53-1.28h-6.568l9.508-9.508a.75.75 0 0 0 0-1.061z"/></svg>