<svg id="Regular" xmlns="http://www.w3.org/2000/svg" viewBox="0 0 24 24" width="24" height="24"><defs><style>.cls-1{fill:none;stroke:#000;stroke-linecap:round;stroke-linejoin:round;stroke-width:1.5px}</style></defs><title>arrow-thick-right-3</title><path class="cls-1" d="M10.757 4a.75.75 0 0 0-.53 1.28l4.72 4.72H1.5a.75.75 0 0 0-.75.75v3a.75.75 0 0 0 .75.75h13.447l-4.72 4.72a.75.75 0 0 0 .53 1.28h3.932a1.5 1.5 0 0 0 1.061-.439l7.28-7.281a.749.749 0 0 0 0-1.06l-7.28-7.281A1.5 1.5 0 0 0 14.689 4z"/></svg>