<svg id="Regular" xmlns="http://www.w3.org/2000/svg" viewBox="0 0 24 24" width="24" height="24"><defs><style>.cls-1{fill:none;stroke:#000;stroke-linecap:round;stroke-linejoin:round;stroke-width:1.5px}</style></defs><title>arrow-dot-corner-down-left</title><rect class="cls-1" x=".75" y=".75" width="22.5" height="22.5" rx="2" ry="2"/><path class="cls-1" d="M7.765 7.235a.375.375 0 1 1-.53 0 .374.374 0 0 1 .53 0m.75 5.25a.375.375 0 1 1-.53 0 .374.374 0 0 1 .53 0m3 3a.375.375 0 1 1-.53 0 .374.374 0 0 1 .53 0m-.75-5.25a.375.375 0 1 1-.53 0 .374.374 0 0 1 .53 0m3 3a.375.375 0 1 1-.53 0 .374.374 0 0 1 .53 0m-.75-5.25a.375.375 0 1 1-.53 0 .374.374 0 0 1 .53 0m3 3a.375.375 0 1 1-.53 0 .374.374 0 0 1 .53 0m-.75-5.25a.375.375 0 1 1-.53 0 .374.374 0 0 1 .53 0m3 3a.375.375 0 1 1-.53 0 .374.374 0 0 1 .53 0m-10.5 7.5a.375.375 0 1 1-.53 0 .374.374 0 0 1 .53 0m9 0a.375.375 0 1 1-.53 0 .374.374 0 0 1 .53 0"/></svg>