<svg id="Regular" xmlns="http://www.w3.org/2000/svg" viewBox="0 0 24 24" width="24" height="24"><defs><style>.cls-1{fill:none;stroke:#000;stroke-linecap:round;stroke-linejoin:round;stroke-width:1.5px}</style></defs><title>arrow-thick-circle-bottom-left-corner-2</title><circle class="cls-1" cx="12" cy="12" r="11.25"/><path class="cls-1" d="M16.826 7.174a2.249 2.249 0 0 0-3.182 0l-3.712 3.712V9.3a1.591 1.591 0 0 0-1.591-1.6A1.591 1.591 0 0 0 6.75 9.3v7.2a.75.75 0 0 0 .75.75h7.205a1.591 1.591 0 0 0 1.595-1.591 1.591 1.591 0 0 0-1.591-1.591h-1.595l3.712-3.712a2.249 2.249 0 0 0 0-3.182z"/></svg>