<svg id="Regular" xmlns="http://www.w3.org/2000/svg" viewBox="0 0 24 24" width="24" height="24"><defs><style>.cls-1{fill:none;stroke:#000;stroke-linecap:round;stroke-linejoin:round;stroke-width:1.5px}</style></defs><title>arrow-thick-dot-right</title><path class="cls-1" d="M20.625 11.25a.375.375 0 1 1-.375.375.375.375 0 0 1 .375-.375M18 16.125a.375.375 0 1 1-.375-.375.375.375 0 0 1 .375.375M14.625 3a.375.375 0 1 1-.375.375.375.375 0 0 1 .375-.375m0 8.25a.375.375 0 1 1-.375.375.375.375 0 0 1 .375-.375m-6 0a.375.375 0 1 1-.375.375.375.375 0 0 1 .375-.375m-6 0a.375.375 0 1 1-.375.375.375.375 0 0 1 .375-.375m15-4.5a.375.375 0 1 1-.375.375.375.375 0 0 1 .375-.375m-3 12.75a.375.375 0 1 1-.375.375.375.375 0 0 1 .375-.375"/></svg>