<svg id="Regular" xmlns="http://www.w3.org/2000/svg" viewBox="0 0 24 24" width="24" height="24"><defs><style>.cls-1{fill:none;stroke:#000;stroke-linecap:round;stroke-linejoin:round;stroke-width:1.5px}</style></defs><title>arrow-thick-dot-left</title><path class="cls-1" d="M2.875 11.5a.375.375 0 1 1-.375.375.375.375 0 0 1 .375-.375m3-4.5a.375.375 0 1 1-.375.375A.375.375 0 0 1 5.875 7m3 13.5a.375.375 0 1 1 .375-.375.375.375 0 0 1-.375.375m0-9a.375.375 0 1 1-.375.375.375.375 0 0 1 .375-.375m6 0a.375.375 0 1 1-.375.375.375.375 0 0 1 .375-.375m6 0a.375.375 0 1 1-.375.375.375.375 0 0 1 .375-.375m-15 5.25a.375.375 0 1 1 .375-.375.375.375 0 0 1-.375.375m3-13.5a.375.375 0 1 1-.375.375.375.375 0 0 1 .375-.375"/></svg>