<svg id="Regular" xmlns="http://www.w3.org/2000/svg" viewBox="0 0 24 24" width="24" height="24"><defs><style>.cls-1{fill:none;stroke:#000;stroke-linecap:round;stroke-linejoin:round;stroke-width:1.5px;fill-rule:evenodd}</style></defs><title>arrow-double-up-1</title><path class="cls-1" d="M18.289 9.41l-6.54-4.162L5.211 9.41c-.667.424-1.711.08-1.711-.565V6.434a1.372 1.372 0 0 1 .7-1.129L11.07.936a1.332 1.332 0 0 1 1.358 0L19.3 5.305a1.372 1.372 0 0 1 .7 1.129v2.411c0 .645-1.044.989-1.711.565zm0 8.403l-6.539-4.162-6.539 4.162c-.667.424-1.711.08-1.711-.564v-1.771a1.371 1.371 0 0 1 .7-1.129l6.867-4.37a1.337 1.337 0 0 1 1.358 0l6.867 4.37a1.371 1.371 0 0 1 .7 1.129v1.771c.008.644-1.036.988-1.703.564z"/><path class="cls-1" d="M19.25 23.25L11.75 18l-7.5 5.25"/></svg>