<svg id="Regular" xmlns="http://www.w3.org/2000/svg" viewBox="0 0 24 24" width="24" height="24"><defs><style>.cls-1{fill:none;stroke:#000;stroke-linecap:round;stroke-linejoin:round;stroke-width:1.5px}</style></defs><title>arrow-thick-left-1</title><path class="cls-1" d="M10.205 22.03a.75.75 0 0 0 1.061 0l2.121-2.121a.75.75 0 0 0 0-1.061L8.743 14.2H22.5a.75.75 0 0 0 .75-.75v-3a.75.75 0 0 0-.75-.75H8.743l4.644-4.64a.75.75 0 0 0 0-1.061l-2.121-2.121a.75.75 0 0 0-1.061 0l-9.016 9.015a1.5 1.5 0 0 0 0 2.122z"/></svg>