<svg xmlns="http://www.w3.org/2000/svg" viewBox="0 0 24 24" width="24" height="24"><g fill="none" stroke="#000" stroke-linejoin="round" stroke-miterlimit="10"><path stroke-linecap="round" d="M1.866 22L17.069 6.798"/><path d="M16.716 4.323l.353 2.475 2.475.353 2.121-4.95z"/><path stroke-linecap="round" d="M7.475 16.409l-2.495-.373-4.596 3.182 2.848 1.434m4.243-4.243l.374 2.495L4.666 23.5l-1.434-2.848M21.866 22L6.663 6.798"/><path d="M7.017 4.323l-.354 2.475-2.475.353-2.121-4.95z"/><path stroke-linecap="round" d="M16.258 16.409l-.374 2.495 3.182 4.596 1.434-2.848m-4.242-4.243l2.494-.373 4.597 3.182-2.849 1.434"/></g><path fill="none" d="M0 0h24v24H0z"/></svg>