<svg xmlns="http://www.w3.org/2000/svg" viewBox="0 0 24 24" width="24" height="24"><defs><style>.a{fill:none;stroke:#000;stroke-linecap:round;stroke-linejoin:round;stroke-width:1.5px}</style></defs><title>artboard-shrink</title><path class="a" d="M5.25 20.25H16.5a.75.75 0 0 0 .75-.75V18a.75.75 0 0 0-.75-.75H6.75v-4.5h-3v6a1.5 1.5 0 0 0 1.5 1.5zM6 6.75H4.5a.75.75 0 0 0-.75.75v2.25h3V7.5A.75.75 0 0 0 6 6.75z"/><path class="a" d="M14.25 17.25v-6a1.5 1.5 0 0 0-1.5-1.5H1.5a.75.75 0 0 0-.75.75V12a.75.75 0 0 0 .75.75h9.75v4.5zm-.75 6H12a.75.75 0 0 1-.75-.75v-2.25h3v2.25a.75.75 0 0 1-.75.75zM23.25.75l-9.44 9.44"/></svg>