<svg xmlns="http://www.w3.org/2000/svg" viewBox="0 0 24 24" width="24" height="24"><defs><style>.a{fill:none;stroke:#000;stroke-linecap:round;stroke-linejoin:round;stroke-width:1.5px}</style></defs><title>artboard-shapes</title><path class="a" d="M4.5.75v.75m-3 3H.75M4.5 23.25v-.75m-3-3H.75M19.5.75v.75m3 3h.75M19.5 23.25v-.75m3-3h.75M4.5 4.5h15v15h-15z"/><path class="a" d="M11.25 14.25H9a1.5 1.5 0 0 1-1.5-1.5V9A1.5 1.5 0 0 1 9 7.5h2.25a1.5 1.5 0 0 1 1.5 1.5v.75"/><rect class="a" x="11.25" y="9.75" width="5.25" height="6.75" rx="1" ry="1"/></svg>