<svg xmlns="http://www.w3.org/2000/svg" viewBox="0 0 24 24" width="24" height="24"><defs><style>.a{fill:none;stroke:#000;stroke-linecap:round;stroke-linejoin:round;stroke-width:1.5px}</style></defs><title>artboard-circle</title><path class="a" d="M22.5 17.25h-2.25v-12a1.5 1.5 0 0 0-1.5-1.5h-12V1.5A.75.75 0 0 0 6 .75H4.5a.75.75 0 0 0-.75.75v2.25H1.5a.75.75 0 0 0-.75.75V6a.75.75 0 0 0 .75.75h2.25v12a1.5 1.5 0 0 0 1.5 1.5h12v2.25a.75.75 0 0 0 .75.75h1.5a.75.75 0 0 0 .75-.75v-2.25h2.25a.75.75 0 0 0 .75-.75V18a.75.75 0 0 0-.75-.75zm-15.75 0V6.75h10.5v10.5z"/><circle class="a" cx="12" cy="12" r="2.25"/></svg>