<svg xmlns="http://www.w3.org/2000/svg" viewBox="0 0 24 24" width="24" height="24"><defs><style>.a{fill:none;stroke:#000;stroke-linecap:round;stroke-linejoin:round;stroke-width:1.5px}</style></defs><title>artificial-arm</title><path class="a" d="M11.734 9.511L.992 19.179m7.658 3.829l8.047-9.195m1.829-4.955a1.436 1.436 0 1 0 2.031 2.03l2.031-2.03a1.436 1.436 0 0 0-2.031-2.031z"/><path class="a" d="M16.5 6.827a1.436 1.436 0 0 0 2.03 2.031l2.031-2.031A1.436 1.436 0 1 0 18.526 4.8z"/><path class="a" d="M14.465 4.8A1.436 1.436 0 0 0 16.5 6.827l2.03-2.03a1.436 1.436 0 0 0-2.03-2.031z"/><path class="a" d="M15.819 3.443a1.436 1.436 0 0 0-2.031-2.031L11.6 3.6a3.831 3.831 0 0 0-.778 4.292c.792 1.743-.217.5 4.656 5.369a1.914 1.914 0 0 0 2.707 0L20.9 10.55M8.587 15.493a.25.25 0 1 0 0 .353.249.249 0 0 0 0-.353m.423-3.425l4.844 4.844"/></svg>