<svg xmlns="http://www.w3.org/2000/svg" viewBox="0 0 24 24" width="24" height="24"><g fill="none" stroke="#000" stroke-linejoin="round" stroke-miterlimit="10"><path stroke-linecap="round" d="M9 9.502c0-.553.448-.5 1-.5.553 0 1-.053 1 .5m2 0c0-.553.448-.5 1-.5.553 0 1-.053 1 .5m3.46 6.566c-1.218-.199-2.555-.342-3.89-.568m-5.125 0C5.148 16.227.5 16.078.5 20.244V23.5h23v-3.256c0-1.952-.982-2.951-2.484-3.538"/><path stroke-linecap="round" d="M7 8.5c-1.5 0-1.5 3 0 3 0 3 3.5 5 5 5s5-2 5-5c1.5 0 1.5-3 0-3v-.195"/><path d="M5.551 6.322L6.02 9.25"/><path stroke-linecap="round" d="M12.666 6.5H6.572c-1.278 0-2.447-.803-2.84-2.018C3.04 2.336 4.414.5 6.25.5 11 .5 13 3 13 3c7-1 8 3.5 7 4.5-2.5 2.5-8.5-1-10.5-4M13 3s.5-2.5 2-2.5"/><path d="M5.5 16.078V23.5"/><path stroke-linecap="round" d="M7.5 15.786V19.5a2 2 0 002 2h4"/><path stroke-linecap="round" d="M9 15.572V16c0 1.381 1.343 2.5 3 2.5s3-1.119 3-2.5v-.43m7.807-.695c-.586.936-1.555.797-2.491.21s-1.485-1.396-.899-2.333c.586-.936 2.598-1.322 4.083-2.752-.638 1.96-.107 3.939-.693 4.875z"/><path stroke-linecap="round" d="M20.316 15.085c-.341-.214-.629-.458-.831-.727L14 23.5h4l3.539-7.962c-.391-.03-.81-.194-1.223-.453z"/></g><path fill="none" d="M0 0h24v24H0z"/></svg>