<svg id="Regular" xmlns="http://www.w3.org/2000/svg" viewBox="0 0 24 24" width="24" height="24"><defs><style>.cls-1{fill:none;stroke:#000;stroke-linecap:round;stroke-linejoin:round;stroke-width:1.5px}</style></defs><title>asian-food-noodles-bowl</title><path class="cls-1" d="M2.903 6.75l19.5-6m-19.5 7.5l19.5-3M8.562 7.379a2.779 2.779 0 0 1-.025 2.713l-.9 1.566a5.334 5.334 0 0 0-.327 2.592m3.97-7.289a2.777 2.777 0 0 1 .257 3.131l-.9 1.566a5.334 5.334 0 0 0-.327 2.592m3.907-7.5a2.777 2.777 0 0 1 .447 3.342l-.895 1.566a5.334 5.334 0 0 0-.327 2.592"/><path class="cls-1" d="M2.348 14.25a.75.75 0 0 0-.694 1.034 11.547 11.547 0 0 0 6.5 5.787V22.5a.75.75 0 0 0 .75.75h6a.75.75 0 0 0 .75-.75v-1.429a11.556 11.556 0 0 0 6.5-5.786.75.75 0 0 0-.694-1.035z"/></svg>