<svg id="Regular" xmlns="http://www.w3.org/2000/svg" viewBox="0 0 24 24" width="24" height="24"><defs><style>.cls-1{fill:none;stroke:#000;stroke-linecap:round;stroke-linejoin:round;stroke-width:1.5px}</style></defs><title>asian-food-pork-bun</title><path class="cls-1" d="M15 7.5a5.026 5.026 0 0 1-2.343-2.212.751.751 0 0 0-1.313 0A5.021 5.021 0 0 1 9 7.5C3.167 10.417.75 12.835.75 17.25c0 3.935 5.037 6 11.25 6s11.25-2.065 11.25-6c0-5.078-3.539-7.395-8.25-9.75zM4.694.75l-.618.823a1.585 1.585 0 0 0 .243 2.177 1.585 1.585 0 0 1 .242 2.177l-.161.216M19.307.75l.617.823a1.584 1.584 0 0 1-.242 2.177 1.585 1.585 0 0 0-.243 2.177l.163.216M12 10.5v2.25m3-2.25l1.212 2.25M9 10.5l-1.211 2.25"/></svg>