<svg id="Regular" xmlns="http://www.w3.org/2000/svg" viewBox="0 0 24 24" width="24" height="24"><defs><style>.cls-1{fill:none;stroke:#000;stroke-linecap:round;stroke-linejoin:round;stroke-width:1.5px}</style></defs><title>asian-food-noodles</title><path class="cls-1" d="M23.25 3.75H.75V1.5A.75.75 0 0 1 1.5.75h21.75m-10.5 22.5a2.758 2.758 0 0 1 0-3.9 2.758 2.758 0 0 0 0-3.9 2.758 2.758 0 0 1 0-3.9 2.758 2.758 0 0 0 0-3.9 2.758 2.758 0 0 1 0-3.9m-3.692 19.5a2.758 2.758 0 0 1 0-3.9 2.758 2.758 0 0 0 0-3.9 2.758 2.758 0 0 1 0-3.9 2.758 2.758 0 0 0 0-3.9 2.758 2.758 0 0 1 0-3.9m-3.75 19.5a2.758 2.758 0 0 1 0-3.9 2.758 2.758 0 0 0 0-3.9 2.758 2.758 0 0 1 0-3.9 2.758 2.758 0 0 0 0-3.9 2.758 2.758 0 0 1 0-3.9"/><path class="cls-1" d="M23.25 3.75H.75V6a.75.75 0 0 0 .75.75h3.209m7.442 0H23.25"/></svg>