<svg id="Regular" xmlns="http://www.w3.org/2000/svg" viewBox="0 0 24 24" width="24" height="24"><defs><style>.cls-1{fill:none;stroke:#000;stroke-linecap:round;stroke-linejoin:round;stroke-width:1.5px}</style></defs><title>asian-interior-furniture</title><path class="cls-1" d="M.75 23.25v-18a1.5 1.5 0 0 1 1.5-1.5h19.5a1.5 1.5 0 0 1 1.5 1.5v18"/><path class="cls-1" d="M9.75.75a3 3 0 0 1-6 0zm-9 16.5h22.5m-22.5-4.5h22.5m-15-9v9m7.5-9v9m-15-4.5h1.5m4.5 0h3m4.5 0h3m4.5 0h1.5M12 12.75v4.5m2.25 3h6m-6 3l1.5-3m3 0l1.5 3"/></svg>