<svg id="Regular" xmlns="http://www.w3.org/2000/svg" viewBox="0 0 24 24" width="24" height="24"><defs><style>.cls-1{fill:none;stroke:#000;stroke-linecap:round;stroke-linejoin:round;stroke-width:1.5px}</style></defs><title>asian-interior-bonsai-tree</title><path class="cls-1" d="M20.189 9s.75 5.25-3 5.25c-3.689 0-2.939 4.5-2.939 4.5m1.896 4.5H7.854a3 3 0 0 1-2.683-1.658L3.75 18.75h16.5l-1.421 2.842a3 3 0 0 1-2.683 1.658z"/><path class="cls-1" d="M14.6 15.75h-1.85a3 3 0 0 1-3-3v-3m0 3h-1.5A2.25 2.25 0 0 1 6 10.5v-.75"/><path class="cls-1" d="M12.75 9.75a3 3 0 1 0-.95-5.844A4.5 4.5 0 0 0 3 5.25a2.25 2.25 0 0 0 0 4.5zM22.5 7.5a2.25 2.25 0 0 0-4.5 0A1.5 1.5 0 0 0 19.5 9H21a1.5 1.5 0 0 0 1.5-1.5z"/></svg>