<svg id="Regular" xmlns="http://www.w3.org/2000/svg" viewBox="0 0 24 24" width="24" height="24"><defs><style>.cls-1{fill:none;stroke:#000;stroke-linecap:round;stroke-linejoin:round;stroke-width:1.5px}</style></defs><title>asian-interior-stove</title><path class="cls-1" d="M3.75 15.75l-1.5 6m18-6l1.5 6"/><rect class="cls-1" x=".75" y="12.75" width="22.5" height="3" rx=".75" ry=".75"/><path class="cls-1" d="M21.75 10.5a2.25 2.25 0 0 1-4.5 0V8.25h4.5zm-10.5-5.25h-6l-.75 7.5H12l-.75-7.5zm-6 0a3 3 0 0 1 6 0"/><path class="cls-1" d="M11.7 9.75h.3a2.25 2.25 0 0 0 2.25-2.25V6a2.25 2.25 0 0 1 2.25-2.25M5.25 5.25h-1.5a1.5 1.5 0 0 0-1.5 1.5v1.5"/></svg>