<svg id="Regular" xmlns="http://www.w3.org/2000/svg" viewBox="0 0 24 24" width="24" height="24"><defs><style>.cls-1{fill:none;stroke:#000;stroke-linecap:round;stroke-linejoin:round;stroke-width:1.5px}</style></defs><title>asian-interior-lamp</title><path class="cls-1" d="M9 4.452V.75h6v3.702m1.5 15.798h-9v-1.5a1.5 1.5 0 0 1 1.5-1.5h6a1.5 1.5 0 0 1 1.5 1.5zm-9-.75v3.75m9-3.75v3.75m-4.5-3v3m-6.366-10.5h12.731M5.634 8.25h12.731M21 9.75h1.5M3 9.75H1.5m2.25-4.5l-1.5-.75m1.5 9.75l-1.5.75m18-9.75l1.5-.75m-1.5 9.75l1.5.75M12 17.25V3.75"/><circle class="cls-1" cx="12" cy="10.5" r="6.75"/></svg>