<svg id="Regular" xmlns="http://www.w3.org/2000/svg" viewBox="0 0 24 24" width="24" height="24"><defs><style>.cls-1{fill:none;stroke:#000;stroke-linecap:round;stroke-linejoin:round;stroke-width:1.5px}</style></defs><title>asian-food-rice</title><path class="cls-1" d="M23.25 10.5c0 6.213-5.036 9.75-11.25 9.75S.75 16.713.75 10.5z"/><path class="cls-1" d="M7.8 19.655l-1.255 2.51a.75.75 0 0 0 .671 1.085h9.573a.75.75 0 0 0 .671-1.085l-1.26-2.51m5.55-9.155a3 3 0 0 0-3-3h-2.493A5.222 5.222 0 0 0 6.5 6.8a3.717 3.717 0 0 0-.5-.05 3.75 3.75 0 0 0-3.75 3.75M18 7.5l5.25-3m-7.621 1.642L20.25.75"/></svg>