<svg id="Regular" xmlns="http://www.w3.org/2000/svg" viewBox="0 0 24 24" width="24" height="24"><defs><style>.cls-1{fill:none;stroke:#000;stroke-linecap:round;stroke-linejoin:round;stroke-width:1.5px}</style></defs><title>asian-food-pho</title><path class="cls-1" d="M17.032 1.5c1.436 2.873-2.9 3.881-.75 6.75m-3.75-6.75c1.436 2.873-2.9 3.881-.75 6.75M8.032 1.5c1.436 2.873-2.9 3.881-.75 6.75M1.125 13.5a.375.375 0 0 0-.323.564C2.662 17.249 6.624 19.5 12 19.5s9.339-2.251 11.2-5.436a.375.375 0 0 0-.324-.564zm5.625 9c0-1.657 2.351-3 5.25-3s5.25 1.343 5.25 3z"/></svg>