<svg id="Regular" xmlns="http://www.w3.org/2000/svg" viewBox="0 0 24 24" width="24" height="24"><defs><style>.cls-1{fill:none;stroke:#000;stroke-linecap:round;stroke-linejoin:round;stroke-width:1.5px}</style></defs><title>asian-interior-painting</title><rect class="cls-1" x=".75" y=".75" width="22.5" height="22.5" rx="1" ry="1"/><path class="cls-1" d="M.75 20.25h22.5M10.5 16.5L9 20.25m4.5-3.75l1.5 3.75m-11.25-4.5l.5 3.021A1.771 1.771 0 0 0 6 20.25m14.25-4.5l-.5 3.021A1.771 1.771 0 0 1 18 20.25m-9.52-4.5a1.477 1.477 0 0 0 1.27.75h4.5a1.477 1.477 0 0 0 1.27-.75M9 3.75h6v7.5H9zm-1.5 0h9m-9 7.5h9"/></svg>