<svg id="Regular" xmlns="http://www.w3.org/2000/svg" viewBox="0 0 24 24" width="24" height="24"><defs><style>.cls-1{fill:none;stroke:#000;stroke-linecap:round;stroke-linejoin:round;stroke-width:1.5px}</style></defs><title>asian-food-kiosk</title><path class="cls-1" d="M23.25 5.25H.75l1.159-3.474A1.5 1.5 0 0 1 3.332.75h17.337a1.5 1.5 0 0 1 1.423 1.026zm-15 0a3.75 3.75 0 0 1-7.5 0m15 0a3.75 3.75 0 0 1-7.5 0m15 0a3.75 3.75 0 0 1-7.5 0M8.25.75v4.5m7.5-4.5v4.5m-13.5 3v15m19.5-15v15m-21-7.5h22.5M6 18.75h4.5m-3.75 4.5l1.5-4.5 1.5 4.5m4.5-4.5h4.5M15 23.25l1.5-4.5 1.5 4.5"/></svg>