<svg id="Regular" xmlns="http://www.w3.org/2000/svg" viewBox="0 0 24 24" width="24" height="24"><defs><style>.cls-1{fill:none;stroke:#000;stroke-linecap:round;stroke-linejoin:round;stroke-width:1.5px}</style></defs><title>asian-interior-boiler</title><path class="cls-1" d="M11.356 15.75a2.991 2.991 0 0 1 .3 3.409 1.065 1.065 0 0 1-1.136-.909 2.413 2.413 0 0 0-1.25 2.273A2.727 2.727 0 0 0 12 23.25a2.764 2.764 0 0 0 2.727-2.727 4.534 4.534 0 0 0-3.371-4.773zM.75 23.25h6l-.816-2.45a3 3 0 0 0-2.846-2.05H.75m22.5 4.5h-6l.816-2.448a3 3 0 0 1 2.846-2.052h2.338m-8.427-13.5H9.177a1.5 1.5 0 0 0-1.342.83L6.128 9.494a2.25 2.25 0 0 0 2.013 3.256h7.718a2.25 2.25 0 0 0 2.013-3.256L16.165 6.08a1.5 1.5 0 0 0-1.342-.83zm-5.073 0V3a2.25 2.25 0 0 1 4.5 0v2.25"/><path class="cls-1" d="M17.978 9.75h.772a1.5 1.5 0 0 0 1.5-1.5v-1.5a1.5 1.5 0 0 1 1.5-1.5"/></svg>