<svg xmlns="http://www.w3.org/2000/svg" viewBox="0 0 24 24" width="24" height="24"><defs><style>.a{fill:none;stroke:#000;stroke-linecap:round;stroke-linejoin:round;stroke-width:1.5px}</style></defs><title>asp-1</title><rect class="a" x=".738" y=".754" width="22.5" height="22.5" rx="1.5" ry="1.5"/><path class="a" d="M4.488 18v-6a1.5 1.5 0 0 1 3 0v6m-3-2.996h3m6-4.504h-1.5a1.5 1.5 0 0 0-1.5 1.5c0 2.25 3 2.25 3 4.5a1.5 1.5 0 0 1-1.5 1.5h-1.5m6 .004v-7.5m0-.004h.75a2.25 2.25 0 0 1 0 4.5h-.75"/></svg>