<svg xmlns="http://www.w3.org/2000/svg" viewBox="0 0 24 24" width="24" height="24"><defs><style>.a{fill:none;stroke:#000;stroke-linecap:round;stroke-linejoin:round;stroke-width:1.5px}</style></defs><title>astrology-aries</title><path class="a" d="M18.031 11.071a9.732 9.732 0 0 1 3.742 7.679.933.933 0 0 1-1.591.659L18.773 18l-5.829 4.934a1.5 1.5 0 0 1-1.842 0L5.273 18l-1.409 1.409a.933.933 0 0 1-1.591-.659 9.733 9.733 0 0 1 3.75-7.686m8.964-3.233a2.11 2.11 0 0 1 .51-3.1L21.471.913A1.2 1.2 0 0 1 22.922 2.8l-4.735 5.141a2.11 2.11 0 0 1-3.2-.11zm-5.929 0a2.11 2.11 0 0 0-.51-3.1L2.574.913A1.2 1.2 0 0 0 1.124 2.8l4.735 5.141a2.109 2.109 0 0 0 3.2-.11zM8.636 4.8a6 6 0 0 1 6.772 0"/><path class="a" d="M17.834 8.251a6.019 6.019 0 0 1 .189 1.5V12c0 1.868-4.053 5.7-5.5 7.01a.749.749 0 0 1-1.006 0c-1.443-1.307-5.5-5.143-5.5-7.011V9.75a6 6 0 0 1 .186-1.49m2.82 2.24l1.5.75m4.5-.75l-1.5.75"/></svg>