<svg xmlns="http://www.w3.org/2000/svg" viewBox="0 0 24 24" width="24" height="24"><defs><style>.a{fill:none;stroke:#000;stroke-linecap:round;stroke-linejoin:round;stroke-width:1.5px}</style></defs><title>astrology-broom</title><path class="a" d="M11.08 11.571l-9.016 2.771a.776.776 0 0 0-.513.934A14.394 14.394 0 0 0 9.5 23.222a.778.778 0 0 0 .935-.513l2.77-9.016zM6.107 16.31l-2.954 1.883m5.309.473L6.58 21.62M18.773 15a3.75 3.75 0 0 1 3.75 3.75v.375A2.625 2.625 0 0 1 19.9 21.75a1.875 1.875 0 1 1 0-3.75M9.023 7.5a3.75 3.75 0 0 1-3.75-3.75v-.375A2.625 2.625 0 0 1 7.9.75a1.875 1.875 0 0 1 0 3.75"/><path class="a" d="M12.141 12.632l3.712-3.712 1.591-4.773L20.626.965"/></svg>