<svg xmlns="http://www.w3.org/2000/svg" viewBox="0 0 24 24" width="24" height="24"><defs><style>.a{fill:none;stroke:#000;stroke-linecap:round;stroke-linejoin:round;stroke-width:1.5px}</style></defs><title>astrology-virgo</title><path class="a" d="M9.344 19V5.607a4.286 4.286 0 0 0-4.286-4.286A4.285 4.285 0 0 0 .773 5.607V19m8.571 0V5.607a4.286 4.286 0 0 1 4.286-4.286 4.286 4.286 0 0 1 4.286 4.286v14.464a2.678 2.678 0 0 0 2.678 2.679 2.679 2.679 0 0 0 2.679-2.679v-.535"/><path class="a" d="M17.916 6.679h2.553a2.8 2.8 0 0 1 2.8 2.8 2.8 2.8 0 0 1-.574 1.7l-8 10.5"/></svg>