<svg xmlns="http://www.w3.org/2000/svg" viewBox="0 0 24 24" width="24" height="24"><defs><style>.a{fill:none;stroke:#000;stroke-linecap:round;stroke-linejoin:round;stroke-width:1.5px}</style></defs><title>astronomy-telescope-stars</title><path class="a" d="M6.751 23l4.5-7.5m4.5 7.5l-4.5-7.5m0 0V23M3.325 10.634l2.314-.944 1.134 2.777-2.315.945a.5.5 0 0 1-.652-.274l-.755-1.852a.5.5 0 0 1 .274-.652z"/><path class="a" d="M5.535 8.112l5.092-2.078 2.267 5.555-5.092 2.078a.5.5 0 0 1-.652-.274L5.26 8.764a.5.5 0 0 1 .275-.652zm12.888-6.795a.75.75 0 0 0-1.046-.379L10.66 4.327a.75.75 0 0 0-.343.946l2.888 7.076a.75.75 0 0 0 .907.436l7.171-2.279a.749.749 0 0 0 .481-1zM20.25 14.75v4.5M18 17h4.5M3.75 1.25v4.5M1.5 3.5H6"/></svg>