<svg xmlns="http://www.w3.org/2000/svg" viewBox="0 0 24 24" width="24" height="24"><defs><style>.a{fill:none;stroke:#000;stroke-linecap:round;stroke-linejoin:round;stroke-width:1.5px}</style></defs><title>astronomy-earth-rotation</title><path class="a" d="M23.245 12.1a11.173 11.173 0 0 1-.707 3.807m-2.11 3.527a11.214 11.214 0 0 1-3.017 2.429M13.5 23.138A11.694 11.694 0 0 1 9.633 23m-3.794-1.593a11.454 11.454 0 0 1-2.82-2.652m-1.833-3.679a10.78 10.78 0 0 1-.4-3.852m1.029-3.979a11.282 11.282 0 0 1 2.211-3.179m3.388-2.332a11.382 11.382 0 0 1 3.755-.942"/><circle class="a" cx="21" cy="3" r="2.25"/><circle class="a" cx="12" cy="12" r="6.75"/><path class="a" d="M7.486 6.981l1.042 1.39a1.5 1.5 0 0 1 .223 1.375l-.363 1.09a1.5 1.5 0 0 0-.032.838l.374 1.5a1.5 1.5 0 0 1-.683 1.65l-1.628.976m12.29-4.55H16.08a1.5 1.5 0 0 0-1.471 1.794l.3 1.511a1.5 1.5 0 0 0 .41.766l1.452 1.452"/></svg>