<svg xmlns="http://www.w3.org/2000/svg" viewBox="0 0 24 24" width="24" height="24"><g fill="none" stroke="#000" stroke-linecap="round" stroke-linejoin="round" stroke-miterlimit="10"><path d="M8.5.5h7v6h-7zm-2 6h11c1.333 3.333 1.333 6.666 0 10h-11c-1.334-3.334-1.334-6.667 0-10zm1 10h3v7h-3zm-1.5 7h6m1.5-7h3v7h-3zm-1.5 7h6"/><circle cx="21.5" cy="15.5" r="1.5"/><path d="M17.5 6.5c2.485 0 4 2.014 4 4.5v3"/><circle cx="2.5" cy="15.5" r="1.5"/><path d="M6.5 6.5c-2.485 0-4 2.014-4 4.5v3m8-11.5h3v2h-3zm-2 9v-3m2 3v-3"/><circle cx="15.5" cy="9.5" r="1"/><path d="M6 14.5h12"/></g><path fill="none" d="M0 0h24v24H0z"/></svg>