<svg xmlns="http://www.w3.org/2000/svg" viewBox="0 0 24 24" width="24" height="24"><defs><style>.a{fill:none;stroke:#000;stroke-linecap:round;stroke-linejoin:round;stroke-width:1.5px}</style></defs><title>astronomy-planet</title><circle class="a" cx="9.5" cy="14.25" r="6"/><path class="a" d="M12.5 19.446l1.125 1.949M4.304 17.25l-1.949 1.125m12.341-7.125l1.949-1.125M6.5 9.054L5.375 7.105m9.321 10.145l1.949 1.125M6.5 19.446l-1.125 1.949M12.5 9.054l1.125-1.949M4.304 11.25l-1.949-1.125M15.5 14.25h2.25m-8.25 6v2.25m0-14.25V6m-6 8.25H1.25m10.5-1.875a.375.375 0 0 1 .375.375m-.75 0a.375.375 0 0 1 .375-.375m0 .75a.375.375 0 0 1-.375-.375m.75 0a.375.375 0 0 1-.375.375M8 11.625a.375.375 0 0 1 .375.375m-.75 0A.375.375 0 0 1 8 11.625m0 .75A.375.375 0 0 1 7.625 12m.75 0a.375.375 0 0 1-.375.375m.75 3.75a.375.375 0 0 1 .375.375m-.75 0a.375.375 0 0 1 .375-.375m0 .75a.375.375 0 0 1-.375-.375m.75 0a.375.375 0 0 1-.375.375"/><circle class="a" cx="19.25" cy="5.25" r="2.25"/><path class="a" d="M19.25 1.5V3m2.25 2.25H23M19.25 7.5V9M17 5.25h-1.5m6.402-2.652l-1.061 1.061m0 3.182l1.061 1.061m-4.243-1.061l-1.061 1.061m1.061-4.243l-1.061-1.061"/></svg>