<svg xmlns="http://www.w3.org/2000/svg" viewBox="0 0 24 24" width="24" height="24"><g fill="none" stroke="#000" stroke-linejoin="round" stroke-miterlimit="10"><path stroke-linecap="round" d="M6.25 6.121l4.596-4.597a3.502 3.502 0 014.95 0m4.951 4.951a3.499 3.499 0 010 4.949l-4.596 4.597"/><path d="M12.261 15.666l-.707.707a1.5 1.5 0 002.121 2.122l2.122-2.122a4.5 4.5 0 000-6.363l-3.536-3.535a4.499 4.499 0 00-6.364 0L3.776 8.596a1.5 1.5 0 102.121 2.121l.708-.707"/><path stroke-linecap="round" d="M8.726 7.889L.948 15.666a1.501 1.501 0 002.122 2.121l3.182-3.182a1 1 0 111.415 1.415l-3.182 3.182a1.5 1.5 0 102.122 2.121l7.778-7.778"/><circle stroke-linecap="round" cx="16.848" cy="5.422" r="4"/><circle stroke-linecap="round" cx="16.848" cy="5.423" r="2"/><path stroke-linecap="round" d="M10.493 8.95l2.828 2.828-2.828 2.828-2.829-2.828zM9.034 18.894c3.474 4.858 9.875 3.011 13.966-.598"/></g><path fill="none" d="M0 0h24v24H0z"/></svg>