<svg xmlns="http://www.w3.org/2000/svg" viewBox="0 0 24 24" width="24" height="24"><defs><style>.a{fill:none;stroke:#000;stroke-linecap:round;stroke-linejoin:round;stroke-width:1.5px}</style></defs><title>astrology-aquarius</title><path class="a" d="M.773 4.25l4.913 5.132a.98.98 0 0 0 1.413 0l4.211-4.395a.979.979 0 0 1 1.413 0l4.215 4.4a.98.98 0 0 0 1.413 0l4.922-5.137m-22.5 9.783l4.913 5.131a.979.979 0 0 0 1.413 0l4.211-4.4a.979.979 0 0 1 1.413 0l4.215 4.4a.98.98 0 0 0 1.413 0l4.922-5.133"/></svg>