<svg xmlns="http://www.w3.org/2000/svg" viewBox="0 0 24 24" width="24" height="24"><g fill="none" stroke="#000" stroke-linejoin="round" stroke-miterlimit="10"><path stroke-linecap="round" d="M4.5 15.5a4 4 0 00-4 4v4h23v-4a4 4 0 00-4-4h-15zm0 2h2m-2 2h2m-2 2h2M16.5 9v1s-1 3-4.5 3-4.5-3-4.5-3V9c0-2.209 2.291-4 4.5-4s4.5 1.791 4.5 4z"/><path stroke-linecap="round" d="M18 8.5l-.011 2.5S17.5 15.5 12 15.5 6.011 11 6.011 11L6 8.5a6 6 0 0112 0z"/><circle stroke-linecap="round" cx="19" cy="19.5" r="1.5"/><path stroke-linecap="round" d="M8.5 17.5h5v4h-5z"/><path d="M3.5 15.627V7.5a2 2 0 012-2h1.303M20.5 15.627V7.5a2 2 0 00-2-2h-1.303"/><path stroke-linecap="round" d="M9.25 8.75L10.5 7.5m2.75 3.5l1.25-1.25m-4 .75l3.25-3.25"/></g><path fill="none" d="M0 0h24v24H0z"/></svg>