<svg id="Regular" xmlns="http://www.w3.org/2000/svg" viewBox="0 0 24 24" width="24" height="24"><defs><style>.cls-1{fill:none;stroke:#000;stroke-linecap:round;stroke-linejoin:round;stroke-width:1.5px}</style></defs><title>athletics-jumping-person</title><circle class="cls-1" cx="14.25" cy="3.375" r="2.625"/><path class="cls-1" d="M20 9.989l2.663-2.05a1.5 1.5 0 0 0-1.828-2.378L18.173 7.61a1.447 1.447 0 0 1-1.184.293L9.98 5.719a4.505 4.505 0 0 0-3.655.436l-2.6 1.559a1.5 1.5 0 0 0 1.544 2.572l2.6-1.557a1.507 1.507 0 0 1 1.218-.146l1.951.607-1.7 3.964-3.376 1.688a1.5 1.5 0 0 1-.67.158H2.25a1.5 1.5 0 0 0 0 3h3.042a4.516 4.516 0 0 0 2.008-.475l3.652-1.825 3.877-.553a1.477 1.477 0 0 1 1.043.236l3.546 2.364a1.5 1.5 0 1 0 1.664-2.5l-3.546-2.364a4.515 4.515 0 0 0-3.134-.711l-1.472.21.986-2.3m.334 8.668v4.5m-3 0h6"/></svg>