<svg id="Regular" xmlns="http://www.w3.org/2000/svg" viewBox="0 0 24 24" width="24" height="24"><defs><style>.cls-1{fill:none;stroke:#000;stroke-linecap:round;stroke-linejoin:round;stroke-width:1.5px}</style></defs><title>athletics-javelin-throwing</title><circle class="cls-1" cx="11.25" cy="8.625" r="2.625"/><path class="cls-1" d="M.75 7.272L19.5.75M2.771 9.842l.989 2.473a5.991 5.991 0 0 0 7.547 3.438l.3-.106.959 2.239-1.854 3.092a1.5 1.5 0 1 0 2.572 1.544l1.894-3.156 1.289-.215a1.5 1.5 0 0 1 1.669 1l.69 2.069a1.5 1.5 0 1 0 2.844-.95l-.688-2.066a4.469 4.469 0 0 0-5.009-3.017l-.81.135-.719-1.676 7.8-2.736a1.5 1.5 0 1 0-.993-2.83l-10.933 3.841A3 3 0 0 1 6.546 11.2l-.834-2.084"/></svg>