<svg id="Regular" xmlns="http://www.w3.org/2000/svg" viewBox="0 0 24 24" width="24" height="24"><defs><style>.cls-1{fill:none;stroke:#000;stroke-linecap:round;stroke-linejoin:round;stroke-width:1.5px}</style></defs><title>athletics-long-jumping</title><circle class="cls-1" cx="10.25" cy="3.375" r="2.625"/><path class="cls-1" d="M13.249 19.5a1.5 1.5 0 0 1-.67-.158L8.4 17.25H2.75a1.5 1.5 0 0 1-1.286-2.272l4.5-7.5a1.5 1.5 0 0 1 2.058-.514L11.416 9h3.334a1.5 1.5 0 0 1 0 3H11a1.49 1.49 0 0 1-.772-.214l-2.464-1.478L5.4 14.25h3.35a1.5 1.5 0 0 1 .671.158l4.5 2.25a1.5 1.5 0 0 1-.672 2.842zm-11.999.75h3a3 3 0 0 1 2.4 1.2L8 23.25m4.5-1.125a.375.375 0 0 1 .375.375m-.75 0a.375.375 0 0 1 .375-.375m0 .75a.375.375 0 0 1-.375-.375m.75 0a.375.375 0 0 1-.375.375m4.5-.75a.375.375 0 0 1 .375.375m-.75 0a.375.375 0 0 1 .375-.375m0 .75a.375.375 0 0 1-.375-.375m.75 0a.375.375 0 0 1-.375.375m4.5-.75a.375.375 0 0 1 .375.375m-.75 0a.375.375 0 0 1 .375-.375m0 .75a.375.375 0 0 1-.375-.375m.75 0a.375.375 0 0 1-.375.375"/></svg>