<svg id="Regular" xmlns="http://www.w3.org/2000/svg" viewBox="0 0 24 24" width="24" height="24"><defs><style>.cls-1{fill:none;stroke:#000;stroke-linecap:round;stroke-linejoin:round;stroke-width:1.5px}</style></defs><title>athletics-pole-vault</title><circle class="cls-1" cx="3.375" cy="4.875" r="2.625"/><path class="cls-1" d="M8.483 4.476l-.318 1.908a1.5 1.5 0 0 1-.888 1.134l-3.742 1.6a1.5 1.5 0 0 0-.594 2.3L7.206 16.9a1.5 1.5 0 0 1 .237 1.4l-.99 2.976a1.5 1.5 0 1 0 2.844.95l.992-2.977a4.473 4.473 0 0 0-.581-3.96l.106-.106a1.5 1.5 0 0 1 2.122 0l2.378 2.379a1.5 1.5 0 0 0 2.122-2.122l-2.379-2.378a4.493 4.493 0 0 0-6.166-.162L6.5 11.114l1.957-.84a4.477 4.477 0 0 0 2.665-3.4l.156-.935M7.5.75S23.25 3 23.25 23.25"/></svg>