<svg id="Regular" xmlns="http://www.w3.org/2000/svg" viewBox="0 0 24 24" width="24" height="24"><defs><style>.cls-1{fill:none;stroke:#000;stroke-linecap:round;stroke-linejoin:round;stroke-width:1.5px}</style></defs><title>athletics-running-1</title><path class="cls-1" d="M14.25 11.25V.75l4.5 3.75-4.5 3"/><path class="cls-1" d="M11.25 3.75h-.75a9.75 9.75 0 0 0 0 19.5h12.75m0-19.5H21"/><path class="cls-1" d="M23.25 11.25H10.5a2.25 2.25 0 0 0 0 4.5h12.75M20.786 7.5H18.75m-10.106.3a6.093 6.093 0 0 0-2.436 1.512M4.68 12.066a5.849 5.849 0 0 0 0 2.868m1.528 2.754A6.093 6.093 0 0 0 8.644 19.2m3.158.3H14.7m3.188 0h2.898"/></svg>