<svg id="Regular" xmlns="http://www.w3.org/2000/svg" viewBox="0 0 24 24" width="24" height="24"><defs><style>.cls-1{fill:none;stroke:#000;stroke-linecap:round;stroke-linejoin:round;stroke-width:1.5px}</style></defs><title>athletics-discus-throwing</title><circle class="cls-1" cx="16.25" cy="4.375" r="2.625"/><path class="cls-1" d="M20.5 12.43a4.473 4.473 0 0 0-2.456-2.414L9 6.36a1.5 1.5 0 0 0-1.125 2.78l3.856 1.56-1.979 2.968a1.5 1.5 0 0 0-.223 1.126l.592 2.962-1.682 1.683a1.5 1.5 0 0 0 2.122 2.122l2.25-2.25a1.5 1.5 0 0 0 .41-1.355L13.03 17l1.72.738V20.5a1.5 1.5 0 0 0 3 0v-3.75a1.5 1.5 0 0 0-.91-1.378l-3.592-1.54 1.322-1.983 2.344.947a1.5 1.5 0 0 1 .829 1.954 1.5 1.5 0 1 0 2.78 1.125 4.473 4.473 0 0 0-.023-3.445zM4.408 8.934a3 3 0 1 1 3.148-5.079"/></svg>