<svg xmlns="http://www.w3.org/2000/svg" viewBox="0 0 24 24" width="24" height="24"><defs><style>.a{fill:none;stroke:#000;stroke-linecap:round;stroke-linejoin:round;stroke-width:1.5px}</style></defs><title>atomic-bomb</title><path class="a" d="M21 5.25a2.987 2.987 0 0 0-4.807-2.381 5.207 5.207 0 0 0-8.385 0A2.987 2.987 0 0 0 3 5.25M9 9v4.75M12 9v3.75M15 9v4.75m-8.91 9.5a3.067 3.067 0 0 0 2.91-3v-2.5m8.911 5.5a3.067 3.067 0 0 1-2.906-3L15 17.75m-3 1v4.5m-9-18a2.25 2.25 0 0 0 0 4.5h2.25M21 5.25a2.25 2.25 0 0 1 0 4.5h-2.25"/><path class="a" d="M16 13.75h-1.778a2.968 2.968 0 0 0-4.443 0H8a2 2 0 0 0 0 4h1.779a2.968 2.968 0 0 0 4.443 0H16a2 2 0 0 0 0-4z"/></svg>