<svg xmlns="http://www.w3.org/2000/svg" viewBox="0 0 24 24" width="24" height="24"><g fill="none" stroke="#000" stroke-linecap="round" stroke-linejoin="round" stroke-miterlimit="10"><path d="M10.5 23.5H.5v-1c0-.551.448-1 1-1h8a1 1 0 011 1v1zm-1-2h-8v-1c0-.551.448-1 1-1h6a1 1 0 011 1v1zM7 8.89l5.5-5.499 3.5 3.5-5.5 5.5z"/><path d="M7 8.891l-.5-.5c-.942-.94-2.445.555-1.5 1.5l4.5 4.5c.943.942 2.446-.555 1.5-1.5l-.5-.5m5.5-5.5l.5.5c.943.942 2.446-.555 1.5-1.5l-4.5-4.5c-.942-.94-2.445.555-1.5 1.5l.5.5m.75 6.25l10.25 10.25"/></g><path fill="none" d="M0 0h24v24H0z"/></svg>