<svg xmlns="http://www.w3.org/2000/svg" viewBox="0 0 24 24" width="24" height="24"><defs><style>.a{fill:none;stroke:#000;stroke-linecap:round;stroke-linejoin:round;stroke-width:1.5px}</style></defs><title>audio-book-file</title><path class="a" d="M2.25 20.251a1.5 1.5 0 0 1-1.5-1.5v-16.5a1.5 1.5 0 0 1 1.5-1.5h10.629a1.5 1.5 0 0 1 1.06.44l2.872 2.871a1.5 1.5 0 0 1 .439 1.061v3.128"/><path class="a" d="M20.25 22.5v-5.581a5.841 5.841 0 0 0-6-5.668 5.841 5.841 0 0 0-6 5.668V22.5"/><circle class="a" cx="14.25" cy="19.501" r="3.75"/><path class="a" d="M8.25 22.5a3 3 0 1 1 .016-6m11.984 6a3 3 0 1 0-.016-6"/></svg>