<svg xmlns="http://www.w3.org/2000/svg" viewBox="0 0 24 24" width="24" height="24"><defs><style>.a{fill:none;stroke:#000;stroke-linecap:round;stroke-linejoin:round;stroke-width:1.5px}</style></defs><title>audio-document-wav</title><path class="a" d="M1.5 3.75h21m-21 16.5h21m-4.5-12v2.55a8.932 8.932 0 0 0 1.5 4.954A8.932 8.932 0 0 0 21 10.8V8.25m-18 0v2.017a8.982 8.982 0 0 0 .644 3.342L4.5 15.75 6 10.5l1.5 5.25.856-2.141A8.982 8.982 0 0 0 9 10.267V8.25m3 7.5v-6a1.5 1.5 0 0 1 3 0v6m-3-3h3"/></svg>