<svg xmlns="http://www.w3.org/2000/svg" viewBox="0 0 24 24" width="24" height="24"><defs><style>.a{fill:none;stroke:#000;stroke-linecap:round;stroke-linejoin:round;stroke-width:1.5px}</style></defs><title>audio-document-mp3-1</title><path class="a" d="M7.5 18v-7.5l-2.25 3.75L3 10.5V18m7.5 0v-7.5m0 0h.75a2.25 2.25 0 0 1 0 4.5h-.75m6-3a1.5 1.5 0 0 1 1.5-1.5l1.135.005a1.873 1.873 0 0 1-.008 3.745 1.873 1.873 0 0 1 .008 3.75H18a1.5 1.5 0 0 1-1.5-1.5m6.75 4.5v.75a1.5 1.5 0 0 1-1.5 1.5H2.25a1.5 1.5 0 0 1-1.5-1.5V21m0-13.5V2.25a1.5 1.5 0 0 1 1.5-1.5h19.5a1.5 1.5 0 0 1 1.5 1.5V7.5"/></svg>