<svg xmlns="http://www.w3.org/2000/svg" viewBox="0 0 24 24" width="24" height="24"><defs><style>.a{fill:none;stroke:#000;stroke-linecap:round;stroke-linejoin:round;stroke-width:1.5px}</style></defs><title>audio-file-volume</title><path class="a" d="M13.1 8.326a.716.716 0 0 0-.752.068L8.443 11.25H6.718a.717.717 0 0 0-.718.718v1.564a.717.717 0 0 0 .718.718h1.725l3.908 2.856a.718.718 0 0 0 1.149-.574V8.968a.717.717 0 0 0-.4-.642zm3.4 5.892a2.071 2.071 0 0 0 0-3"/><path class="a" d="M22.5 21.75a1.5 1.5 0 0 1-1.5 1.5H3a1.5 1.5 0 0 1-1.5-1.5V2.25A1.5 1.5 0 0 1 3 .75h15a1.5 1.5 0 0 1 1.047.426l3 2.883a1.5 1.5 0 0 1 .453 1.074z"/></svg>