<svg xmlns="http://www.w3.org/2000/svg" viewBox="0 0 24 24" width="24" height="24"><defs><style>.a{fill:none;stroke:#000;stroke-linecap:round;stroke-linejoin:round;stroke-width:1.5px}</style></defs><title>audio-document-wav-1</title><path class="a" d="M18 10.5v2.546A8.932 8.932 0 0 0 19.5 18a8.932 8.932 0 0 0 1.5-4.954V10.5m-18 0v2.017a8.991 8.991 0 0 0 .644 3.343L4.5 18 6 12.75 7.5 18l.856-2.14A8.991 8.991 0 0 0 9 12.517V10.5m3 7.5v-6a1.5 1.5 0 0 1 3 0v6m-3-3h3m8.25 6v.75a1.5 1.5 0 0 1-1.5 1.5H2.25a1.5 1.5 0 0 1-1.5-1.5V21m0-13.5V2.25a1.5 1.5 0 0 1 1.5-1.5h19.5a1.5 1.5 0 0 1 1.5 1.5V7.5"/></svg>