<svg xmlns="http://www.w3.org/2000/svg" viewBox="0 0 24 24" width="24" height="24"><defs><style>.a{fill:none;stroke:#000;stroke-linecap:round;stroke-linejoin:round;stroke-width:1.5px}</style></defs><title>audio-file-aac</title><path class="a" d="M5.25 23.25h-3a1.5 1.5 0 0 1-1.5-1.5V2.25a1.5 1.5 0 0 1 1.5-1.5h10.629a1.5 1.5 0 0 1 1.06.439l5.872 5.872a1.5 1.5 0 0 1 .439 1.06v4.629"/><path class="a" d="M20.25 8.25h-6a1.5 1.5 0 0 1-1.5-1.5v-6m10.5 15a3 3 0 0 0-3 3v1.5a3 3 0 0 0 3 3m-15 0v-6a1.5 1.5 0 0 1 3 0v6m-3-3h3m3 3v-6a1.5 1.5 0 0 1 3 0v6m-3-3h3"/></svg>