<svg xmlns="http://www.w3.org/2000/svg" viewBox="0 0 24 24" width="24" height="24"><defs><style>.a{fill:none;stroke:#000;stroke-linecap:round;stroke-linejoin:round;stroke-width:1.5px}</style></defs><title>audio-book-art</title><path class="a" d="M12 23.251c-.507-1.667-3.918-3.617-9.843-3.886A1.5 1.5 0 0 1 .75 17.858V4.507A1.5 1.5 0 0 1 2.25 3M12 23.251c.507-1.667 3.918-3.617 9.843-3.886a1.5 1.5 0 0 0 1.407-1.507V4.507A1.5 1.5 0 0 0 21.75 3M12 15.001v8.25m1.224-21.958a6.16 6.16 0 0 0-2.552-.542c-2.985 0-5.4 2.049-5.4 4.576a4.632 4.632 0 0 0 3.3 4.213c.767.274 1.4.051 1.845-.966A1.6 1.6 0 0 1 12 7.556m3.744-1.388l-2.82 5.729m2.216-7.571a1.383 1.383 0 0 0 .6 1.842 1.342 1.342 0 0 0 1.813-.614 2.96 2.96 0 0 0-.6-3.888c.201 1.634-1.008 1.023-1.813 2.66zm-6.497.833a.378.378 0 0 1 .375.381m-.75 0a.377.377 0 0 1 .375-.381m0 .762a.378.378 0 0 1-.375-.381m.75 0a.378.378 0 0 1-.375.381m2.25-3.012a.378.378 0 0 1 .375.381m-.75 0a.377.377 0 0 1 .375-.381m0 .762a.378.378 0 0 1-.375-.381m.75 0a.378.378 0 0 1-.375.381"/></svg>