<svg xmlns="http://www.w3.org/2000/svg" viewBox="0 0 24 24" width="24" height="24"><defs><style>.a{fill:none;stroke:#000;stroke-linecap:round;stroke-linejoin:round;stroke-width:1.5px}</style></defs><title>audio-file-share</title><circle class="a" cx="13.5" cy="18" r="2.25"/><circle class="a" cx="21" cy="21" r="2.25"/><circle class="a" cx="21" cy="13.5" r="2.25"/><path class="a" d="M15.425 16.845l3.65-2.19m-3.487 4.18l3.324 1.33M8.25 20.25h-6a1.5 1.5 0 0 1-1.5-1.5V2.25a1.5 1.5 0 0 1 1.5-1.5h10.629a1.5 1.5 0 0 1 1.06.439l2.872 2.872a1.5 1.5 0 0 1 .439 1.06V8.25"/><ellipse class="a" cx="6" cy="12.75" rx="2.25" ry="1.5"/><path class="a" d="M8.25 12.75l-.295-5.929 1.062-.113A2.685 2.685 0 0 1 11.6 7.99"/></svg>