<svg xmlns="http://www.w3.org/2000/svg" viewBox="0 0 24 24" width="24" height="24"><defs><style>.a{fill:none;stroke:#000;stroke-linecap:round;stroke-linejoin:round;stroke-width:1.5px}</style></defs><title>audio-file-add</title><circle class="a" cx="17.25" cy="17.241" r="6"/><path class="a" d="M17.25 14.241v6m-3-3h6m-12 3.018h-6a1.5 1.5 0 0 1-1.5-1.5v-16.5a1.5 1.5 0 0 1 1.5-1.5h10.629a1.5 1.5 0 0 1 1.06.44l2.872 2.871a1.5 1.5 0 0 1 .439 1.061v3.128"/><ellipse class="a" cx="6" cy="12.759" rx="2.25" ry="1.5"/><path class="a" d="M8.25 12.759L7.955 6.83l1.062-.112A2.682 2.682 0 0 1 11.6 8"/></svg>