<svg xmlns="http://www.w3.org/2000/svg" viewBox="0 0 24 24" width="24" height="24"><defs><style>.a{fill:none;stroke:#000;stroke-linecap:round;stroke-linejoin:round;stroke-width:1.5px}</style></defs><title>audio-file-wav</title><path class="a" d="M3 23.25h-.75a1.5 1.5 0 0 1-1.5-1.5V2.25a1.5 1.5 0 0 1 1.5-1.5h10.629a1.5 1.5 0 0 1 1.06.439l5.872 5.872a1.5 1.5 0 0 1 .439 1.06v4.629"/><path class="a" d="M20.25 8.25h-6a1.5 1.5 0 0 1-1.5-1.5v-6m7.5 15v2.55a8.932 8.932 0 0 0 1.5 4.954 8.932 8.932 0 0 0 1.5-4.954v-2.55m-18 0v2.017a9 9 0 0 0 .644 3.342l.856 2.141L8.25 18l1.5 5.25.856-2.141a8.982 8.982 0 0 0 .644-3.342V15.75m3 7.5v-6a1.5 1.5 0 0 1 3 0v6m-3-3h3"/></svg>