<svg xmlns="http://www.w3.org/2000/svg" viewBox="0 0 24 24" width="24" height="24"><defs><style>.a{fill:none;stroke:#000;stroke-linecap:round;stroke-linejoin:round;stroke-width:1.5px}</style></defs><title>audio-book-headphones</title><path class="a" d="M2.25 19.5A1.5 1.5 0 0 1 .75 18v-3a1.5 1.5 0 0 1 1.5-1.5 1.5 1.5 0 0 1 1.5 1.5v3a1.5 1.5 0 0 1-1.5 1.5zm19.5 0a1.5 1.5 0 0 1-1.5-1.5v-3a1.5 1.5 0 0 1 1.5-1.5 1.5 1.5 0 0 1 1.5 1.5v3a1.5 1.5 0 0 1-1.5 1.5zm-1.5-4.5v-3.75A8.274 8.274 0 0 0 12 3a8.275 8.275 0 0 0-8.25 8.25V15"/><rect class="a" x="6.75" y="9.001" width="10.5" height="12" rx=".75" ry=".75"/><path class="a" d="M12 12.001h2.25m-4.5 3h4.5m-4.5 3h4.5"/></svg>