<svg xmlns="http://www.w3.org/2000/svg" viewBox="0 0 24 24" width="24" height="24"><defs><style>.a{fill:none;stroke:#000;stroke-linecap:round;stroke-linejoin:round;stroke-width:1.5px}</style></defs><title>audio-file-information</title><circle class="a" cx="17.25" cy="17.25" r="6"/><path class="a" d="M17.25 20.25v-3m0-2.939a.375.375 0 1 0 .375.375.375.375 0 0 0-.375-.375m-9 5.939h-6a1.5 1.5 0 0 1-1.5-1.5V2.25a1.5 1.5 0 0 1 1.5-1.5h10.629a1.5 1.5 0 0 1 1.06.439l2.872 2.872a1.5 1.5 0 0 1 .439 1.06V8.25"/><ellipse class="a" cx="6" cy="12.75" rx="2.25" ry="1.5"/><path class="a" d="M8.25 12.75l-.295-5.929 1.062-.113A2.685 2.685 0 0 1 11.6 7.99"/></svg>