<svg xmlns="http://www.w3.org/2000/svg" viewBox="0 0 24 24" width="24" height="24"><defs><style>.a{fill:none;stroke:#000;stroke-linecap:round;stroke-linejoin:round;stroke-width:1.5px}</style></defs><title>auto-pilot-car-signal</title><circle class="a" cx="9.75" cy="21.013" r="2.25"/><circle class="a" cx="18" cy="21.013" r="2.25"/><path class="a" d="M15.75 21.013H12m2.25-9.75v-2.25m.75-6.75h2.25m3 0a1.5 1.5 0 0 1 1.5 1.5m0 3v2.25m-14.25 12H6a.75.75 0 0 1-.75-.75 9 9 0 0 1 18 0 .75.75 0 0 1-.75.75h-2.25"/><path class="a" d="M13.039 11.344l-.495 2.106a3 3 0 0 1-2.92 2.313h-3.17M12 2.263h-1.5M1.848 7.165a3.75 3.75 0 0 1 5.3-5.3zm6.176-1.933a3 3 0 0 1-2.8 2.805m5.77-2.337a6 6 0 0 1-5.3 5.3"/></svg>