<svg xmlns="http://www.w3.org/2000/svg" viewBox="0 0 24 24" width="24" height="24"><defs><style>.a{fill:none;stroke:#000;stroke-linecap:round;stroke-linejoin:round;stroke-width:1.5px}</style></defs><title>auto-pilot-car-radius</title><path class="a" d="M23.25 16.013a6 6 0 0 1-6 6m3-6a3 3 0 0 1-3 3m1.463-8.25H21a.752.752 0 0 0 .75-.75V8.05a1.678 1.678 0 0 0-.928-1.5L17.25 5.513l-1.017-2.034a1.747 1.747 0 0 0-1.563-.966H8.58a1.747 1.747 0 0 0-1.563.966L6 5.513H3.75a1.5 1.5 0 0 0-1.5 1.5v3a.753.753 0 0 0 .75.75h2.287"/><circle class="a" cx="7.125" cy="11.138" r="1.875"/><circle class="a" cx="16.875" cy="11.138" r="1.875"/><path class="a" d="M8.962 10.763h6.076M.75 16.013a6 6 0 0 0 6 6m-3-6a3 3 0 0 0 3 3"/></svg>