<svg xmlns="http://www.w3.org/2000/svg" viewBox="0 0 24 24" width="24" height="24"><defs><style>.a{fill:none;stroke:#000;stroke-linecap:round;stroke-linejoin:round;stroke-width:1.5px}</style></defs><title>auto-pilot-car-wheel-disable</title><path class="a" d="M2.048 17.263a11.253 11.253 0 0 1 15.568-15M21.75 6.4a11.253 11.253 0 0 1-15 15.568m-2.1-6.205a8.252 8.252 0 0 1 11.1-11.1m3.6 3.6a8.252 8.252 0 0 1-11.1 11.1M12 9.013a24.936 24.936 0 0 0-8.1 1.444m16.2 0a21.967 21.967 0 0 0-2.1-.646m-8.162 8.202a9.829 9.829 0 0 1-.049 1.95m-5.908-6.475a5.9 5.9 0 0 1 2.869.129m13.369-.129c-3.617-.659-6.5 1.5-5.908 6.475M23.25.763l-22.5 22.5"/></svg>