<svg xmlns="http://www.w3.org/2000/svg" viewBox="0 0 24 24" width="24" height="24"><defs><style>.a{fill:none;stroke:#000;stroke-linecap:round;stroke-linejoin:round;stroke-width:1.5px}</style></defs><title>auto-pilot-car-signal-1</title><circle class="a" cx="6.75" cy="20.263" r="2.25"/><circle class="a" cx="17.25" cy="20.263" r="2.25"/><path class="a" d="M15 20.263H9m-.361-9.95l-.895 3.565a1.5 1.5 0 0 1-1.455 1.135H2.8m10.7-5.144v3.644a1.5 1.5 0 0 0 1.5 1.5h3a1.5 1.5 0 0 0 1.492-1.347v-.832M5.441 7.513a5.253 5.253 0 0 1 0-6m2.632 4.5a2.25 2.25 0 0 1 0-3m10.486 4.5a5.253 5.253 0 0 0 0-6m-2.632 4.5a2.25 2.25 0 0 0 0-3M12 9.763v-2.25"/><path class="a" d="M4.5 20.263H3a1.5 1.5 0 0 1-1.479-1.75A10.634 10.634 0 0 1 12 9.763a10.634 10.634 0 0 1 10.479 8.75 1.5 1.5 0 0 1-.334 1.217 1.771 1.771 0 0 1-1.269.533H19.5"/></svg>