<svg xmlns="http://www.w3.org/2000/svg" viewBox="0 0 24 24" width="24" height="24"><defs><style>.a{fill:none;stroke:#000;stroke-linecap:round;stroke-linejoin:round;stroke-width:1.5px}</style></defs><title>award-ribbon-star-1</title><path class="a" d="M4.807 13.042L.75 18l3.75.75 1.5 4.5 3.944-6.258m9.249-3.95L23.25 18l-3.75.75-1.5 4.5-3.944-6.258"/><circle class="a" cx="12" cy="9" r="8.25"/><path class="a" d="M12.531 4.292l1.248 2.458h2.127a.582.582 0 0 1 .419 1l-1.953 1.918 1.082 2.485a.589.589 0 0 1-.839.737L12 11.419 9.385 12.89a.589.589 0 0 1-.839-.737l1.082-2.485-1.953-1.922a.582.582 0 0 1 .419-1h2.127l1.249-2.454a.6.6 0 0 1 1.061 0z"/></svg>