<svg xmlns="http://www.w3.org/2000/svg" viewBox="0 0 24 24" width="24" height="24"><defs><style>.a{fill:none;stroke:#000;stroke-linecap:round;stroke-linejoin:round;stroke-width:1.5px}</style></defs><title>award-medal-2</title><path class="a" d="M12.7 12.434l1.665 3.319h2.85a.775.775 0 0 1 .544 1.328l-2.433 1.669 1.266 3.393a.788.788 0 0 1-1.11 1L12 21.184l-3.491 1.961a.789.789 0 0 1-1.11-1L9 18.75l-2.76-1.659a.781.781 0 0 1 .548-1.338h2.835l1.665-3.319a.793.793 0 0 1 1.412 0zM9.75.75v6m4.5-6v6m3 4.5l1.5-10.5H5.25l1.5 10.5"/></svg>