<svg xmlns="http://www.w3.org/2000/svg" viewBox="0 0 24 24" width="24" height="24"><defs><style>.a{fill:none;stroke:#000;stroke-linecap:round;stroke-linejoin:round;stroke-width:1.5px}</style></defs><title>award-star-1</title><path class="a" d="M12.707 1.184L14.37 4.5h2.83a.777.777 0 0 1 .559 1.328L15.161 7.6l1.439 3.308a.785.785 0 0 1-1.118.982L12 9.93l-3.484 1.96a.786.786 0 0 1-1.116-.982L8.839 7.6l-2.6-1.769A.777.777 0 0 1 6.8 4.5h2.829l1.664-3.316a.793.793 0 0 1 1.414 0zM12 9.93V15m9 8.25a9.034 9.034 0 0 0-18 0z"/></svg>