<svg xmlns="http://www.w3.org/2000/svg" viewBox="0 0 24 24" width="24" height="24"><defs><style>.a{fill:none;stroke:#000;stroke-linecap:round;stroke-linejoin:round;stroke-width:1.5px}</style></defs><title>award-wall-star</title><path class="a" d="M12.531 8.792l1.248 2.458h2.127a.582.582 0 0 1 .419 1l-1.953 1.922 1.083 2.485a.589.589 0 0 1-.84.736L12 15.919l-2.615 1.47a.589.589 0 0 1-.839-.736l1.082-2.485-1.953-1.922a.582.582 0 0 1 .42-1h2.126l1.249-2.454a.6.6 0 0 1 1.061 0zM.75 6.75h9m4.5 0h9"/><path class="a" d="M20.25 6.75L12 .75l-8.25 6V16.9a1.5 1.5 0 0 0 .586 1.189l6.75 4.846a1.5 1.5 0 0 0 1.829 0l6.75-4.846a1.5 1.5 0 0 0 .585-1.189z"/></svg>