<svg xmlns="http://www.w3.org/2000/svg" viewBox="0 0 24 24" width="24" height="24"><defs><style>.a{fill:none;stroke:#000;stroke-linecap:round;stroke-linejoin:round;stroke-width:1.5px}</style></defs><title>award-star-head</title><path class="a" d="M12.616 1.13l1.456 2.62h2.479a.679.679 0 0 1 .489 1.162L14.763 7.4l1.262 2.9a.687.687 0 0 1-.979.858L12 9.44l-3.052 1.714a.687.687 0 0 1-.979-.858L9.231 7.4 6.954 4.912a.68.68 0 0 1 .489-1.162h2.48l1.456-2.62a.693.693 0 0 1 1.237 0zM13.5 19.5v3.75h3.75m-.75-7.5v3.75h3.75m-.75-6.75v3.75h3.75m-3.75 0l3-3m-12 6v3.75H6.75m.75-7.5v3.75H3.75m.75-6.75v3.75H.75m3.75 0l-3-3"/></svg>