<svg xmlns="http://www.w3.org/2000/svg" viewBox="0 0 24 24" width="24" height="24"><defs><style>.a{fill:none;stroke:#000;stroke-linecap:round;stroke-linejoin:round;stroke-width:1.5px}</style></defs><title>award-medal</title><circle class="a" cx="12" cy="15" r="8.25"/><path class="a" d="M12.531 10.292l1.248 2.458h2.127a.582.582 0 0 1 .419 1l-1.953 1.922 1.082 2.485a.589.589 0 0 1-.839.737L12 17.419 9.385 18.89a.589.589 0 0 1-.839-.737l1.082-2.485-1.953-1.922a.582.582 0 0 1 .419-1h2.127l1.249-2.458a.6.6 0 0 1 1.061.004zM8.25.75l1.694 6.258m-5.137 3.95L.75.75m15 0l-1.694 6.258m5.137 3.95L23.25.75"/></svg>