<svg xmlns="http://www.w3.org/2000/svg" viewBox="0 0 24 24" width="24" height="24"><defs><style>.a{fill:none;stroke:#000;stroke-linecap:round;stroke-linejoin:round;stroke-width:1.5px}</style></defs><title>award-medal-shine</title><circle class="a" cx="12" cy="14.25" r="4.5"/><path class="a" d="M12 13.875a.375.375 0 1 0 .375.375.375.375 0 0 0-.375-.375m-3.798-2.036L.75 5.25l3-4.5 5.687 9.728m6.361 1.361L23.25 5.25l-3-4.5-5.686 9.728M3.75.75h16.5m-6 4.5h-4.5m2.25 18v-1.5m6.364-1.136l-1.06-1.061M5.636 20.614l1.061-1.061M19.5 15H21M3 15h1.5"/></svg>