<svg xmlns="http://www.w3.org/2000/svg" viewBox="0 0 24 24" width="24" height="24"><defs><style>.a{fill:none;stroke:#000;stroke-linecap:round;stroke-linejoin:round;stroke-width:1.5px}</style></defs><title>award-ribbon-star-3</title><circle class="a" cx="12" cy="9" r="8.25"/><path class="a" d="M15.75 16.349l1.5 6.901-5.25-3-5.25 3 1.5-6.901m4.281-12.057l1.248 2.458h2.127a.582.582 0 0 1 .419 1l-1.952 1.918 1.081 2.485a.589.589 0 0 1-.839.737L12 11.419 9.385 12.89a.589.589 0 0 1-.839-.737l1.082-2.485-1.953-1.922a.582.582 0 0 1 .419-1h2.127l1.249-2.454a.6.6 0 0 1 1.061 0z"/></svg>