<svg xmlns="http://www.w3.org/2000/svg" viewBox="0 0 24 24" width="24" height="24"><defs><style>.a{fill:none;stroke:#000;stroke-linecap:round;stroke-linejoin:round;stroke-width:1.5px}</style></defs><title>baby-boy</title><path class="a" d="M8.625 12.5a.375.375 0 0 1 .375.375m-.75 0a.375.375 0 0 1 .375-.375m0 .75a.375.375 0 0 1-.375-.375m.75 0a.375.375 0 0 1-.375.375m6.75-.75a.375.375 0 0 1 .375.375m-.75 0a.375.375 0 0 1 .375-.375m0 .75a.375.375 0 0 1-.375-.375m.75 0a.375.375 0 0 1-.375.375"/><path class="a" d="M20.625 11.375h-.014a9 9 0 0 0-17.222 0h-.014a2.625 2.625 0 0 0 0 5.25h.014a9 9 0 0 0 17.222 0h.014a2.625 2.625 0 0 0 0-5.25zm-5.271 6.375a4.5 4.5 0 0 1-6.708 0m5.842-16.5a4.5 4.5 0 1 1-6.846 4.874"/></svg>