<svg xmlns="http://www.w3.org/2000/svg" viewBox="0 0 24 24" width="24" height="24"><defs><style>.a{fill:none;stroke:#000;stroke-linecap:round;stroke-linejoin:round;stroke-width:1.5px}</style></defs><title>baby-care-pacifier</title><path class="a" d="M7.308 5.246a36.864 36.864 0 0 0 11.446 11.446m-4.38-3.251l2.283-2.283a5.376 5.376 0 0 1 2.892-1.5 4.42 4.42 0 0 0 2.384-1.234 4.5 4.5 0 0 0-6.359-6.359 4.42 4.42 0 0 0-1.234 2.386 5.393 5.393 0 0 1-1.5 2.892l-2.281 2.283"/><circle class="a" cx="7.944" cy="16.056" r="3.597"/><path class="a" d="M14.8 13.8a7.2 7.2 0 1 1-4.6-4.6"/></svg>