<svg xmlns="http://www.w3.org/2000/svg" viewBox="0 0 24 24" width="24" height="24"><defs><style>.a{fill:none;stroke:#000;stroke-linecap:round;stroke-linejoin:round;stroke-width:1.5px}</style></defs><title>baby-hold</title><path class="a" d="M5.762 12.75a9 9 0 1 1 12.988 4.8M14.25.75a2.25 2.25 0 0 1 0 4.5m3.375 3a.375.375 0 0 1 .375.375m-.75 0a.375.375 0 0 1 .375-.375m0 .75a.375.375 0 0 1-.375-.375m.75 0a.375.375 0 0 1-.375.375m-6.75-.75a.375.375 0 0 1 .375.375m-.75 0a.375.375 0 0 1 .375-.375m0 .75a.375.375 0 0 1-.375-.375m.75 0a.375.375 0 0 1-.375.375M.75 14.25v9m0-1.5h15a3 3 0 0 0-3-3H9a3 3 0 0 0-3-3H.75m5.25 3h3m7.5-5.25a3.75 3.75 0 0 1-4.5 0"/></svg>