<svg xmlns="http://www.w3.org/2000/svg" viewBox="0 0 24 24" width="24" height="24"><defs><style>.a{fill:none;stroke:#000;stroke-linecap:round;stroke-linejoin:round;stroke-width:1.5px}</style></defs><title>baby-care-diaper</title><path class="a" d="M23.25 11a11.25 11.25 0 0 1-22.5 0V2.75A.75.75 0 0 1 1.5 2h21a.75.75 0 0 1 .75.75zm-6.698 10.291a5.253 5.253 0 0 1 6.391-7.67m-15.495 7.67a5.253 5.253 0 0 0-6.391-7.67"/><path class="a" d="M15.93 7.089a1.9 1.9 0 0 0-2.751 0L12 8.308l-1.179-1.219a1.9 1.9 0 0 0-2.751 0 2.06 2.06 0 0 0 0 2.845l3.511 3.137a.579.579 0 0 0 .838 0l3.511-3.137a2.06 2.06 0 0 0 0-2.845zM.75 9.5H4.5m.75-3.75H.75m22.5 3.75H19.5m-.75-3.75h4.5"/></svg>