<svg xmlns="http://www.w3.org/2000/svg" viewBox="0 0 24 24" width="24" height="24"><g fill="none" stroke="#000" stroke-linejoin="round" stroke-miterlimit="10"><path d="M20.207 16.52a1.999 1.999 0 01-2.828 0l-9.9-9.899a2 2 0 012.828-2.828l9.899 9.899c.781.781.783 2.048.001 2.828z"/><path d="M20.915 5.914a2 2 0 00-2.829-2.828c-3.135 3.292-4.849.057-6.639 1.847l2.396 2.396 2.828 2.829 2.2 2.2c1.798-1.798-1.17-3.23 2.044-6.444zm-4.269 9.94a7.497 7.497 0 01-12.725 4.227A7.501 7.501 0 018.122 7.359"/><circle cx="9.223" cy="14.777" r="4.5"/></g><path fill="none" d="M0 0h24v24H0z"/></svg>