<svg xmlns="http://www.w3.org/2000/svg" viewBox="0 0 24 24" width="24" height="24"><path fill="none" stroke="#000" stroke-linejoin="round" stroke-miterlimit="10" d="M15 .896c-1.833-.584-3.022 2.133-.583 2.688C18.873 4.6 18.646 11 12 11S5.127 4.6 9.583 3.584C12.022 3.029 10.833.312 9 .896 4.104 2.215.5 6.688.5 12c0 6.352 5.148 11.5 11.5 11.5S23.5 18.352 23.5 12c0-5.312-3.604-9.785-8.5-11.104z"/><path d="M10.5 17a.5.5 0 10.002 1.002A.5.5 0 0010.5 17zm3 0a.5.5 0 10.002 1.002A.5.5 0 0013.5 17z"/><path fill="none" stroke="#000" stroke-linejoin="round" stroke-miterlimit="10" d="M12 15c-.54 0-1.053.084-1.523.229.011-.075.023-.151.023-.229a1.5 1.5 0 00-3 0c0 .689.467 1.264 1.099 1.439C8.227 16.895 8 17.426 8 18c0 1.658 1.791 3 4 3m0-6c.54 0 1.053.084 1.523.229-.011-.075-.023-.151-.023-.229a1.5 1.5 0 013 0c0 .689-.467 1.264-1.099 1.439.372.456.599.987.599 1.561 0 1.658-1.791 3-4 3"/><path fill="none" d="M0 0h24v24H0z"/></svg>