<svg xmlns="http://www.w3.org/2000/svg" viewBox="0 0 24 24" width="24" height="24"><defs><style>.a{fill:none;stroke:#000;stroke-linecap:round;stroke-linejoin:round;stroke-width:1.5px}</style></defs><title>baby-trolley</title><path class="a" d="M9.75 12a3.75 3.75 0 0 0-7.5 0l-.75 6.75h2.25l.75 4.5h3l.75-4.5"/><circle class="a" cx="6" cy="3.75" r="3"/><path class="a" d="M3 3.75S3 7.5.75 7.5M9 3.75S9 7.5 11.25 7.5m-.75 8.25a.75.75 0 0 1 .75-.75H18v-3.688a.749.749 0 0 1 .875-.739A5.25 5.25 0 0 1 18 21h-3a4.5 4.5 0 0 1-4.5-4.5zm10.125 6.75a.375.375 0 0 1 .375.375m-.75 0a.375.375 0 0 1 .375-.375m0 .75a.375.375 0 0 1-.375-.375m.75 0a.375.375 0 0 1-.375.375m-7.5-.75a.375.375 0 0 1 .375.375m-.75 0a.375.375 0 0 1 .375-.375m0 .75a.375.375 0 0 1-.375-.375m.75 0a.375.375 0 0 1-.375.375"/></svg>