<svg xmlns="http://www.w3.org/2000/svg" viewBox="0 0 24 24" width="24" height="24"><defs><style>.a{fill:none;stroke:#000;stroke-linecap:round;stroke-linejoin:round;stroke-width:1.5px}</style></defs><title>baby-mother</title><path class="a" d="M19.112 9a8.25 8.25 0 1 0-16.5 0v2.076a4.5 4.5 0 0 1-.364 1.773l-1.375 3.21c-.324.755.138 1.427.762 1.962 1.308 1.12 3.821 1.826 6.615 2.1"/><path class="a" d="M15 8.882a6.364 6.364 0 0 1-4.138-3.632s-1.433 3.6-5.031 3.745a5.257 5.257 0 0 0 2.419 6.06"/><circle class="a" cx="17.25" cy="17.25" r="6"/><path class="a" d="M18.75 19.848a3 3 0 0 1-3 0m1.5-8.598a1.5 1.5 0 0 1 0 3m2.625 1.5a.375.375 0 0 1 .375.375m-.75 0a.375.375 0 0 1 .375-.375m0 .75a.375.375 0 0 1-.375-.375m.75 0a.375.375 0 0 1-.375.375m-5.25-.75a.375.375 0 0 1 .375.375m-.75 0a.375.375 0 0 1 .375-.375m0 .75a.375.375 0 0 1-.375-.375m.75 0a.375.375 0 0 1-.375.375"/></svg>