<svg xmlns="http://www.w3.org/2000/svg" viewBox="0 0 24 24" width="24" height="24"><defs><style>.a{fill:none;stroke:#000;stroke-linecap:round;stroke-linejoin:round;stroke-width:1.5px}</style></defs><title>baby-care-trolley-1</title><circle class="a" cx="3" cy="21" r="2.25"/><circle class="a" cx="18" cy="21" r="2.25"/><path class="a" d="M4.591 19.409L19.5 4.5h3.75"/><path class="a" d="M18.651 5.35a8.252 8.252 0 0 0-13.765-1.6l7.864 7.5M3 18.75v-4.5a1.5 1.5 0 0 1 1.5-1.5h6.75"/><path class="a" d="M5.25 18.75h5.444a3 3 0 0 0 2.2-.955l6.239-6.7a1.5 1.5 0 0 0-.381-2.246L16.5 7.5m-.228 12.06l-2.83-2.358"/></svg>