<svg xmlns="http://www.w3.org/2000/svg" viewBox="0 0 24 24" width="24" height="24"><defs><style>.a{fill:none;stroke:#000;stroke-linecap:round;stroke-linejoin:round;stroke-width:1.5px}</style></defs><title>baby-girl</title><path class="a" d="M13.984 18.176a3 3 0 0 1-3.968 0m7.234-6.001a1.5 1.5 0 0 1-3 0m-4.5 0a1.5 1.5 0 0 1-3 0"/><circle class="a" cx="12" cy="4.675" r="2.25"/><path class="a" d="M13.955 3.561l2.683-2.147a.751.751 0 0 1 1.1.174 5.2 5.2 0 0 1 0 6.174.753.753 0 0 1-1.1.174l-2.683-2.147m-3.91-2.228L7.362 1.414a.751.751 0 0 0-1.1.174 5.2 5.2 0 0 0 0 6.174.753.753 0 0 0 1.1.174l2.683-2.147"/><path class="a" d="M5.87 7.086a9 9 0 0 0-2.481 3.964h-.014a2.625 2.625 0 0 0 0 5.25h.014a9 9 0 0 0 17.222 0h.014a2.625 2.625 0 0 0 0-5.25h-.014a9 9 0 0 0-2.481-3.964"/></svg>