<svg xmlns="http://www.w3.org/2000/svg" viewBox="0 0 24 24" width="24" height="24"><g fill="none" stroke="#000" stroke-linejoin="round" stroke-miterlimit="10"><path d="M9.5 17.5v-10h6a2 2 0 012 2v3h4v5h-12zM.5 2v12.5h3l.958-7.084"/><path d="M10.851 7.378L3.199.948A1.642 1.642 0 00.885 3.261l8.55 9.772M.5 14.5V17c0 1.312.531 3.031 2.875 3.031s3.344-2.094 3.344-2.094S3.5 19.438 3.5 14.5h-3zm23 7a2 2 0 01-2 2h-11a2 2 0 010-4h11a2 2 0 012 2z"/><path stroke-linecap="round" d="M11.5 12V9.5H14"/><circle cx="11.5" cy="21.5" r="1"/><circle cx="16" cy="21.5" r="1"/><circle cx="20.5" cy="21.5" r="1"/></g><path fill="none" d="M0 0h24v24H0z"/></svg>