<svg xmlns="http://www.w3.org/2000/svg" viewBox="0 0 24 24" width="24" height="24"><g fill="none" stroke="#000" stroke-linecap="round" stroke-linejoin="round" stroke-miterlimit="10"><path d="M5.5 23.5h-2a1 1 0 01-1-1V18A1.5 1.5 0 014 16.5h1.5v7zm13 0h2a1 1 0 001-1V18a1.5 1.5 0 00-1.5-1.5h-1.5v7zm-2 0h-9V18A1.5 1.5 0 019 16.5h6a1.5 1.5 0 011.5 1.5v5.5z"/><path d="M18.5 10.5v13h-13v-13m4 0h5"/><path d="M7.5 7.5h2v5h-2zm7 0h2v5h-2zm-7 12h9m-14 0h3m13 0h3"/><path d="M7.5 10.5h-2a1 1 0 01-1-1v-6a3 3 0 013-3h9a3 3 0 013 3v6a1 1 0 01-1 1h-2"/></g><path fill="none" d="M0 0h24v24H0z"/></svg>