<svg id="Regular" xmlns="http://www.w3.org/2000/svg" viewBox="0 0 24 24" width="24" height="24"><defs><style>.cls-1{fill:none;stroke:#000;stroke-linecap:round;stroke-linejoin:round;stroke-width:1.5px}</style></defs><title>badminton-shuttlecock</title><path class="cls-1" d="M7.152 22.152a3.75 3.75 0 0 1-5.3-5.3l.531-.53 5.3 5.3z"/><path class="cls-1" transform="rotate(45 6.092 17.91)" d="M2.341 16.409h7.5v3h-7.5z"/><path class="cls-1" d="M9.8 19.5l12.5-4.877a1.5 1.5 0 0 0 .954-1.4V11.25a1.5 1.5 0 0 0-1.5-1.5h-3v-3a1.5 1.5 0 0 0-1.5-1.5h-3v-3a1.5 1.5 0 0 0-1.5-1.5h-1.979a1.5 1.5 0 0 0-1.4.954L4.5 14.2zm4.45-14.25L6.237 15.934M18.75 9.75L8.066 17.763"/></svg>