<svg xmlns="http://www.w3.org/2000/svg" viewBox="0 0 24 24" width="24" height="24"><defs><style>.a{fill:none;stroke:#000;stroke-linecap:round;stroke-linejoin:round;stroke-width:1.5px}</style></defs><title>baggage-leave</title><circle class="a" cx="9.75" cy="3.375" r="2.625"/><path class="a" d="M11.235 15.479l-2.348-.939a4.518 4.518 0 0 1-2.4-2.265l-2.522 4.2a1.489 1.489 0 0 0-.214.771v4.5a1.5 1.5 0 0 1-3 0v-4.5a4.5 4.5 0 0 1 .642-2.314l4.071-6.785a1.5 1.5 0 0 1 2.679.216l1.023 2.556a1.5 1.5 0 0 0 .834.835l1.238.5M23.25 23.25H13.5a2.25 2.25 0 0 1 0-4.5h9.75"/><rect class="a" x="14.25" y="9.75" width="9" height="6" rx=".5" ry=".5"/><path class="a" d="M17.25 9.75v-1.5a1.5 1.5 0 0 1 3 0v1.5M15 20.625a.375.375 0 1 1-.375.375.375.375 0 0 1 .375-.375m3.75 0a.375.375 0 1 1-.375.375.375.375 0 0 1 .375-.375m3.75 0a.375.375 0 1 1-.375.375.375.375 0 0 1 .375-.375"/></svg>