<svg xmlns="http://www.w3.org/2000/svg" viewBox="0 0 24 24" width="24" height="24"><defs><style>.a{fill:none;stroke:#000;stroke-linecap:round;stroke-linejoin:round;stroke-width:1.5px}</style></defs><title>baggage-add</title><path class="a" d="M8.25 17.249h-4.9a2.651 2.651 0 0 1-2.6-2.7v-8.1a2.651 2.651 0 0 1 2.6-2.7h14.3a2.651 2.651 0 0 1 2.6 2.7v1.8m-13.5-4.5v13.5m7.5-13.5v4.5"/><path class="a" d="M11.625.749h-2.25a1.068 1.068 0 0 0-1.125 1v2h4.5v-2a1.068 1.068 0 0 0-1.125-1z"/><circle class="a" cx="17.25" cy="17.249" r="6"/><path class="a" d="M17.25 14.249v6m-3-3h6"/></svg>