<svg xmlns="http://www.w3.org/2000/svg" viewBox="0 0 24 24" width="24" height="24"><defs><style>.a{fill:none;stroke:#000;stroke-linecap:round;stroke-linejoin:round;stroke-width:1.5px}</style></defs><title>baggage-line</title><rect class="a" x="3.75" y="3.749" width="18" height="12" rx="1" ry="1"/><path class="a" d="M8.25 3.749v12m9-12v12m-7.5-12a3 3 0 0 1 6 0m7.5 19.5H3a2.25 2.25 0 0 1 0-4.5h20.25"/><path class="a" d="M6.75 20.624a.375.375 0 1 1-.375.376.375.375 0 0 1 .375-.375m4.5-.001a.375.375 0 1 1-.375.375.375.375 0 0 1 .375-.375m4.5 0a.375.375 0 1 1-.375.375.375.375 0 0 1 .375-.375m4.5 0a.375.375 0 1 1-.375.375.375.375 0 0 1 .375-.375"/></svg>