<svg xmlns="http://www.w3.org/2000/svg" viewBox="0 0 24 24" width="24" height="24"><defs><style>.a{fill:none;stroke:#000;stroke-linecap:round;stroke-linejoin:round;stroke-width:1.5px}</style></defs><title>baggage-cart-1</title><rect class="a" x="8.25" y="4.499" width="13.5" height="9" rx="1.5" ry="1.5"/><path class="a" d="M13.5 1.5h3A1.5 1.5 0 0 1 18 3v1.5h-6V3a1.5 1.5 0 0 1 1.5-1.5zM18 4.499v9m-6-9v9M23.25 16.5H7.292a1.5 1.5 0 0 1-1.484-1.277L3.942 2.777A1.5 1.5 0 0 0 2.458 1.5H.75"/><circle class="a" cx="19.875" cy="20.624" r="1.875"/><circle class="a" cx="9.375" cy="20.624" r="1.875"/></svg>