<svg xmlns="http://www.w3.org/2000/svg" viewBox="0 0 24 24" width="24" height="24"><defs><style>.a{fill:none;stroke:#000;stroke-linecap:round;stroke-linejoin:round;stroke-width:1.5px}</style></defs><title>baggage-drop-off</title><rect class="a" x="11.25" y="14.062" width="12" height="9" rx="1.5" ry="1.5"/><path class="a" d="M20.25 23.062v-10.5a1.5 1.5 0 0 0-1.5-1.5h-3a1.5 1.5 0 0 0-1.5 1.5v10.5"/><circle class="a" cx="4.5" cy="3.562" r="2.625"/><path class="a" d="M2.25 20.812a2.25 2.25 0 0 0 4.5 0v-3.75a1.5 1.5 0 0 0 1.5-1.5v-4.5a3 3 0 0 0-3-3h-1.5a3 3 0 0 0-3 3v4.5a1.5 1.5 0 0 0 1.5 1.5zM18 1.312l2.25 2.25L18 5.812m2.25-2.25h-6"/></svg>