<svg xmlns="http://www.w3.org/2000/svg" viewBox="0 0 24 24" width="24" height="24"><g fill="none" stroke="#000" stroke-linejoin="round" stroke-miterlimit="10"><path d="M14.208 3.265l6.531 6.529m-.178-7.25a.998.998 0 01.897.896c.239 2.437-.478 9.481-4.677 13.681-4.2 4.2-11.274 4.946-13.711 4.707a.997.997 0 01-.896-.897c-.238-2.438.509-9.51 4.707-13.709 4.2-4.2 11.243-4.916 13.68-4.678z"/><path stroke-linecap="round" d="M8.282 15.015l6.363-6.364m-6.363 4.243l2.121 2.121m0-4.244l2.121 2.123m0-4.243l2.121 2.12"/><path d="M2.628 15.726l5.65 5.649"/></g><path fill="none" d="M0 0h24v24H0z"/></svg>