<svg xmlns="http://www.w3.org/2000/svg" viewBox="0 0 24 24" width="24" height="24"><g fill="none" stroke="#000" stroke-linejoin="round" stroke-miterlimit="10"><circle cx="12" cy="12.003" r="11.5"/><path d="M20.771 19.318c-1.395-3.756-4.74-6.587-8.771-7.315M1.128 15.764c4.388.814 8.307-.819 10.872-3.761M13.93.664C11.368 3.745 10.514 8.003 12 12.003m-7.206 3.894a11.503 11.503 0 01-1.263-11.66m5.11 10.451a11.499 11.499 0 01.234-13.685m3.201 2.776a11.504 11.504 0 0110.712 4.27m-11.507-.278c4.861-.658 9.815 1.882 11.984 6.51m-4.281 1.883a11.512 11.512 0 01-9.334 7.102m6.288-9.773a11.5 11.5 0 01-11.842 6.865"/></g><path fill="none" d="M0 0h24v24H0z"/></svg>