<svg xmlns="http://www.w3.org/2000/svg" viewBox="0 0 24 24" width="24" height="24"><path fill="none" stroke="#000" stroke-linecap="round" stroke-linejoin="round" stroke-miterlimit="10" d="M12 .503C5.649.503.5 5.652.5 12.003s5.149 11.5 11.5 11.5 11.5-5.149 11.5-11.5S18.35.503 12 .503h0z"/><path fill="none" stroke="#000" stroke-linecap="round" stroke-linejoin="round" stroke-miterlimit="10" d="M8.854 16.862L6.9 10.831l5.113-3.727 5.113 3.727-1.953 6.031zm7.515-15.466l-4.356 1.861-4.355-1.861m-4.335 3.16l.418 4.731-3.111 3.58m1.658 5.114l4.613 1.063 2.434 4.073m5.359 0l2.432-4.075 4.612-1.063m1.658-5.113l-3.112-3.582.418-4.728m-8.689-1.299v3.847m5.113 3.876l3.158-1.696m-5.111 7.578l1.953 2.18m-8.272-2.18l-1.953 2.182m-3.16-9.757L6.9 10.831"/><path fill="none" d="M0 0h24v24H0z"/></svg>