<svg id="Regular" xmlns="http://www.w3.org/2000/svg" viewBox="0 0 24 24" width="24" height="24"><defs><style>.cls-1{fill:none;stroke:#000;stroke-linecap:round;stroke-linejoin:round;stroke-width:1.5px}</style></defs><title>bandage-leg</title><path class="cls-1" d="M11 14.25H8.75c-3.328 0-5.425 2.051-6.292 5.243a3 3 0 0 0 2.913 3.757H20a1.5 1.5 0 0 0 1.5-1.5V2.25A1.5 1.5 0 0 0 20 .75h-7.5"/><path class="cls-1" d="M21.5 6.75L7.129 1.275A1.5 1.5 0 0 0 5.2 2.12L3.307 6.857a1.5 1.5 0 0 0 .836 1.95L21.5 15.75zm-4.498 10.081L11.75 23.25m-8.339-6.045l9.428 4.714M11 14.25l3.782 5.294M18.5.75l-1.686 4.215"/></svg>