<svg id="Regular" xmlns="http://www.w3.org/2000/svg" viewBox="0 0 24 24" width="24" height="24"><defs><style>.cls-1{fill:none;stroke:#000;stroke-linecap:round;stroke-linejoin:round;stroke-width:1.5px}</style></defs><title>bandage-leg-hanging</title><path class="cls-1" d="M11.721 7.962l5.019 4.451m-.843-6.127l5.019 4.451m-.009-8.077l-2.943 5.459m-6.034 6.225l10.378-4.165a1.5 1.5 0 0 0 .834-1.951L20.907 2.66a3 3 0 1 0-5.568 2.234l.561 1.392-4.284 1.72M.75 18.75l6.114-2.892m.219-5.522L.75 12"/><path class="cls-1" d="M11.25.75l.7 13.958a1.5 1.5 0 0 1-.907 1.453l-2.1.9a1.5 1.5 0 0 1-2.089-1.444L7.5.75M.75 23.25h21a1.5 1.5 0 0 0 1.5-1.5v-5.313a1.436 1.436 0 0 0-2.668-.739l-1.395 2.324a1.5 1.5 0 0 1-1.286.728H11.25"/></svg>