<svg id="Regular" xmlns="http://www.w3.org/2000/svg" viewBox="0 0 24 24" width="24" height="24"><defs><style>.cls-1{fill:none;stroke:#000;stroke-linecap:round;stroke-linejoin:round;stroke-width:1.5px}</style></defs><title>bandage-leg-hanging-hospital</title><path class="cls-1" d="M.75 18.75h22.5v3H.75zm0 4.5v-1.5m22.5 1.5v-1.5"/><circle class="cls-1" cx="3.75" cy="16.125" r="2.625"/><path class="cls-1" d="M21 9.75h.75a1.5 1.5 0 0 1 0 3h-3.573l-2.585 5.171a1.5 1.5 0 0 1-1.342.829h-4.5a1.5 1.5 0 0 1 0-3h3.573l2.585-5.171a1.5 1.5 0 0 1 1.342-.829"/><path class="cls-1" d="M16.677 15.75h5.073a1.5 1.5 0 0 1 0 3h-7.5M9 3.75H6.75V1.5A.75.75 0 0 0 6 .75H4.5a.75.75 0 0 0-.75.75v2.25H1.5a.75.75 0 0 0-.75.75V6a.75.75 0 0 0 .75.75h2.25V9a.75.75 0 0 0 .75.75H6A.75.75 0 0 0 6.75 9V6.75H9A.75.75 0 0 0 9.75 6V4.5A.75.75 0 0 0 9 3.75zm6-3l3.062 12.231M23.25.75l-3 12"/></svg>