<svg xmlns="http://www.w3.org/2000/svg" viewBox="0 0 24 24" width="24" height="24"><g fill="none" stroke="#000" stroke-linejoin="round" stroke-miterlimit="10"><path stroke-linecap="round" d="M7.867 14.878l-.516.626m4.134-5.006l-.516.625m-3.379 2.8c-.428.519-.304.946.277.955.581.009 1.399-.404 1.828-.923.428-.52.304-.946-.277-.955-.581-.007-.705-.436-.277-.954s1.247-.931 1.828-.924c.58.01.705.437.276.955"/><path stroke-linecap="round" d="M19.5 8.5l-9 9H.5l9-9z"/><path stroke-linecap="round" d="M19.5 11L11 19.5H.5"/><path d="M18 12.5h5.5v-6H.5v6h5"/></g><path fill="none" d="M0 0h24v24H0z"/></svg>