<svg xmlns="http://www.w3.org/2000/svg" viewBox="0 0 24 24" width="24" height="24"><g fill="none" stroke="#000" stroke-linejoin="round" stroke-miterlimit="10"><path stroke-linecap="round" d="M23.5 8.5l-6 4h-5m11-2l-6 4h-5m11-2l-6 4h-5m11-2l-6 4h-5"/><path stroke-linecap="round" d="M12.5 19.5h-7V10l6-4.5h7l-6 4.5zm-7-7h-5m5 2h-5m5 2h-5m5 2h-5"/><path d="M17.167 6.5H23.5l-6 4h-5m-7 0h-5l6-4h3.667"/><path stroke-linecap="round" d="M9 17v1m0-8v1m-1.5 4.5A1.5 1.5 0 109 14a1.5 1.5 0 111.5-1.5"/></g><path fill="none" d="M0 0h24v24H0z"/></svg>