<svg id="Regular" xmlns="http://www.w3.org/2000/svg" viewBox="0 0 24 24" width="24" height="24"><defs><style>.cls-1{fill:none;stroke:#000;stroke-linecap:round;stroke-linejoin:round;stroke-width:1.5px}</style></defs><title>barbecue-grill</title><path class="cls-1" d="M17.625 9a1.134 1.134 0 0 1 1.125 1.349 6.9 6.9 0 0 1-13.477 0A1.132 1.132 0 0 1 6.4 9zM19.5 23.25l-3.267-8.923M4.5 23.25l3.267-8.923m10.635 5.923H5.598M6.92.75l-.62.823a1.584 1.584 0 0 0 .245 2.177 1.585 1.585 0 0 1 .242 2.177l-.162.216M12.556.75l-.617.823a1.585 1.585 0 0 0 .242 2.177 1.584 1.584 0 0 1 .243 2.177l-.162.216M17.806.75l-.617.823a1.585 1.585 0 0 0 .242 2.177 1.584 1.584 0 0 1 .243 2.177l-.162.216"/></svg>