<svg xmlns="http://www.w3.org/2000/svg" viewBox="0 0 24 24" width="24" height="24"><g fill="none" stroke="#000" stroke-linejoin="round" stroke-miterlimit="10"><ellipse transform="rotate(-134.999 7.95 16.056)" cx="7.95" cy="16.056" rx="2" ry="2.5"/><path stroke-linecap="round" d="M20.324 9.338l-5.645-5.646m1.403 9.889l-5.647-5.646m2.819 8.474l-5.647-5.646"/><circle cx="15.375" cy="8.631" r="2"/><path stroke-linecap="round" d="M11.84 9.338l2.828 2.83-2.83 2.827-2.827-2.829zM16.082 5.096l2.828 2.828 2.828-2.828a.999.999 0 000-1.414l-1.414-1.414a.997.997 0 00-1.414 0l-2.828 2.828zm4.953-2.117l1.903-1.911M6.183 17.823l-1.414 1.414a2.5 2.5 0 11-3.536 0"/></g><path fill="none" d="M0 0h24v24H0z"/></svg>