<svg id="Regular" xmlns="http://www.w3.org/2000/svg" viewBox="0 0 24 24" width="24" height="24"><defs><style>.cls-1{fill:none;stroke:#000;stroke-linecap:round;stroke-linejoin:round;stroke-width:1.5px}</style></defs><title>barbecue-steak-shrimp</title><path class="cls-1" d="M16.5 12.75h-1.383a7.5 7.5 0 1 0-6.867 10.5h8.25a5.25 5.25 0 0 0 0-10.5z"/><path class="cls-1" d="M16.5 15.75h-3.75a4.5 4.5 0 1 0-4.5 4.5h8.25a2.25 2.25 0 0 0 0-4.5z"/><path class="cls-1" d="M7.125 14.25a.375.375 0 1 1-.375.375.375.375 0 0 1 .375-.375m8.838-9.11a1.556 1.556 0 0 0 1.447-.093 1.927 1.927 0 0 1 2.86 1.859c-.046.874-.555 3.106 1.4 3.209A5.65 5.65 0 0 0 22.779 3.9a5.254 5.254 0 0 0-8.326-1.8 1.51 1.51 0 0 0 .347 2.484zm3.175-.172l.692-3.875m.428 5.421l2.974.156"/></svg>