<svg xmlns="http://www.w3.org/2000/svg" viewBox="0 0 24 24" width="24" height="24"><defs><style>.a{fill:none;stroke:#000;stroke-linecap:round;stroke-linejoin:round;stroke-width:1.5px}</style></defs><title>barcode-tag</title><path class="a" d="M4.183 7.605l-.546 3.888a1.5 1.5 0 0 0 .439 1.068l9.5 9.5a1.5 1.5 0 0 0 2.122 0l6.363-6.361a1.5 1.5 0 0 0 0-2.121l-9.623-9.626a1.5 1.5 0 0 0-1.1-.439L7.5 4.122"/><circle class="a" cx="8.442" cy="8.442" r="1.5"/><path class="a" d="M7.382 7.382L1.5 1.5m9.954 9.954l2.121-2.121m0 4.242l2.122-2.121m0 4.242l2.121-2.121m-8.485 0l4.242 4.243"/></svg>