<svg xmlns="http://www.w3.org/2000/svg" viewBox="0 0 24 24" width="24" height="24"><defs><style>.a{fill:none;stroke:#000;stroke-linecap:round;stroke-linejoin:round;stroke-width:1.5px}</style></defs><title>barcode-search</title><path class="a" d="M3.75 5.25v7.5m3-7.5v4.5m6-4.5v3m3-3V7.5m3-2.25v3m-9-3v4.5m-3 3h1.5m-4.5-12H2.287A1.537 1.537 0 0 0 .75 2.287V3.75m21 0V2.287A1.537 1.537 0 0 0 20.213.75H18.75m-18 13.5v1.463a1.537 1.537 0 0 0 1.537 1.537H3.75"/><circle class="a" cx="15.75" cy="15.75" r="5.25"/><path class="a" d="M23.25 23.25l-3.788-3.788"/></svg>