<svg xmlns="http://www.w3.org/2000/svg" viewBox="0 0 24 24" width="24" height="24"><g fill="none" stroke="#000" stroke-linejoin="round" stroke-miterlimit="10"><ellipse stroke-linecap="round" cx="12.958" cy="4" rx="7.5" ry="3.5"/><path stroke-linecap="round" d="M21.339 14.682c-.773 1.606-4.231 2.818-8.381 2.818-4.082 0-7.495-1.173-8.341-2.741m16.832-4.163c-.773 1.607-4.342 2.904-8.491 2.904-4.082 0-7.578-1.335-8.424-2.904m16.474 7.061c-.832 1.553-4.183 2.843-8.05 2.843-6.698 0-8.222-3.139-7.995-2.739M21.155 7.5c-.832 1.553-4.33 3-8.197 3-3.831 0-7.281-1.469-8.15-3"/><path stroke-linecap="round" d="M20.458 4c2.312 9 0 16 0 16s-1 3.5-7.5 3.5-7.5-3.5-7.5-3.5-2.156-7 0-16"/><ellipse cx="9.958" cy="4" rx="1.5" ry=".5"/></g><path fill="none" d="M0 0h24v24H0z"/></svg>