<svg id="Regular" xmlns="http://www.w3.org/2000/svg" viewBox="0 0 24 24" width="24" height="24"><defs><style>.cls-1{fill:none;stroke:#000;stroke-linecap:round;stroke-linejoin:round;stroke-width:1.5px}</style></defs><title>baseball-glove</title><path class="cls-1" d="M15.25 9V2.625a1.875 1.875 0 0 0-3.75 0v8.625a3 3 0 0 1-6 0V7.5a2.25 2.25 0 0 0-4.5 0v4.875a10.875 10.875 0 0 0 21.75 0v-5.25a1.875 1.875 0 0 0-3.75 0M5.5 9.75h6m-3-7.609V9.75m7.6 8.444a7.433 7.433 0 0 1-2.646 1.136m-3.161 0a7.454 7.454 0 0 1-2.645-1.136"/><path class="cls-1" d="M3.8 5.319a11.222 11.222 0 0 1 7.7-3.794l.375-.025m3.375 3.375a1.875 1.875 0 0 1 3.75 0V10.5"/></svg>