<svg id="Regular" xmlns="http://www.w3.org/2000/svg" viewBox="0 0 24 24" width="24" height="24"><defs><style>.cls-1{fill:none;stroke:#000;stroke-linecap:round;stroke-linejoin:round;stroke-width:1.5px}</style></defs><title>baseball-helmet</title><path class="cls-1" d="M10.5 21.5A9.75 9.75 0 1 1 20.222 11H10.5a1.5 1.5 0 0 0 0 3 3.75 3.75 0 0 1 0 7.5zm0-4.125a.375.375 0 0 1 .375.375m-.75 0a.375.375 0 0 1 .375-.375m0 .75a.375.375 0 0 1-.375-.375m.75 0a.375.375 0 0 1-.375.375M20.222 11h3.028"/></svg>