<svg id="Regular" xmlns="http://www.w3.org/2000/svg" viewBox="0 0 24 24" width="24" height="24"><defs><style>.cls-1{fill:none;stroke:#000;stroke-linecap:round;stroke-linejoin:round;stroke-width:1.5px}</style></defs><title>baseball-player</title><circle class="cls-1" cx="16.75" cy="6.75" r="3"/><path class="cls-1" d="M5.431 9.729l2.316-7.582a2.141 2.141 0 1 1 3.93 1.684l-3.8 6.741M21.25 23.25L20.5 21v-6.75a3 3 0 0 0-3-3h-4.758a4.472 4.472 0 0 0-3.181 1.318L7 15.129l-1.939-1.94a1.5 1.5 0 0 0-2.122 2.122l1.94 1.939a3 3 0 0 0 4.242 0l2.379-2.379a2.124 2.124 0 0 1 1.5-.621V21l-.75 2.25m4.5-.75v.75"/></svg>