<svg id="Regular" xmlns="http://www.w3.org/2000/svg" viewBox="0 0 24 24" width="24" height="24"><defs><style>.cls-1{fill:none;stroke:#000;stroke-linecap:round;stroke-linejoin:round;stroke-width:1.5px}</style></defs><title>basketball-hoop</title><path class="cls-1" d="M6.273 15.75H3.75a3 3 0 0 1-3-3V10.5C.75 4.287 5.787.75 12 .75s11.25 3.537 11.25 9.75v2.25a3 3 0 0 1-3 3h-2.523"/><path class="cls-1" d="M16.5 21.75l1.339-6.616a.749.749 0 0 0-.738-.884H6.9a.749.749 0 0 0-.738.884L7.5 21.75m2.25-7.5l.75 9m3.75-9l-.75 9m-6.911-6h10.822m-10.215 3h9.608"/><rect class="cls-1" x="6.75" y="5.25" width="10.5" height="6" rx="1" ry="1"/></svg>