<svg id="Regular" xmlns="http://www.w3.org/2000/svg" viewBox="0 0 24 24" width="24" height="24"><defs><style>.cls-1{fill:none;stroke:#000;stroke-linecap:round;stroke-linejoin:round;stroke-width:1.5px}</style></defs><title>bat-fly</title><path class="cls-1" d="M14.25 2.5L15 7a7.574 7.574 0 0 0 3.75-1.5 11.757 11.757 0 0 0 1.58-1.252 1.5 1.5 0 0 1 2.491.742 18.508 18.508 0 0 1 .429 4.26A20.359 20.359 0 0 1 21 19a2.664 2.664 0 0 0-1.5-2.25c-2.121-1.061-3 1.5-3 1.5s-1.5-2.25-3-.75a5.857 5.857 0 0 0-1.5 3.75 5.857 5.857 0 0 0-1.5-3.75c-1.5-1.5-3 .75-3 .75s-.879-2.561-3-1.5A2.664 2.664 0 0 0 3 19 20.359 20.359 0 0 1 .75 9.25a18.508 18.508 0 0 1 .429-4.26 1.5 1.5 0 0 1 2.491-.742A11.757 11.757 0 0 0 5.25 5.5 7.574 7.574 0 0 0 9 7l.75-4.5"/><path class="cls-1" d="M9.328 5.031l.422-.281A4.754 4.754 0 0 1 12 4a4.754 4.754 0 0 1 2.25.75l.422.281M11.25 8.5h1.5"/></svg>