<svg id="Regular" xmlns="http://www.w3.org/2000/svg" viewBox="0 0 24 24" width="24" height="24"><defs><style>.cls-1{fill:none;stroke:#000;stroke-linecap:round;stroke-linejoin:round;stroke-width:1.5px}</style></defs><title>bat</title><path class="cls-1" d="M.75.75h22.5m-15 22.5V18c0-3 3.75-3.75 3.75-3.75s3.75.75 3.75 3.75v5.25"/><path class="cls-1" d="M8.25 21A5.738 5.738 0 0 0 12 22.5a5.738 5.738 0 0 0 3.75-1.5m-8.567-6.557A6.38 6.38 0 0 1 6.75 12c0-5.25 4.594-8.25 5.25-8.25s5.25 3 5.25 8.25a6.393 6.393 0 0 1-.432 2.441M9.97 5.049L8.25.75m5.78 4.299L15.75.75M11.25 18h1.5M12.5 7.832a9.377 9.377 0 0 0-1.219 6.629"/></svg>