<svg xmlns="http://www.w3.org/2000/svg" viewBox="0 0 24 24" width="24" height="24"><defs><style>.a{fill:none;stroke:#000;stroke-linecap:round;stroke-linejoin:round;stroke-width:1.5px}</style></defs><title>bathroom-hair-dryer</title><path class="a" d="M.75 10.127a1.492 1.492 0 0 0 1.081 1.44c2.7.772 9.881 2.683 14.669 2.683a6.75 6.75 0 0 0 0-13.5C11.712.75 4.534 2.661 1.831 3.432A1.494 1.494 0 0 0 .75 4.873zM17.25.794v13.412"/><path class="a" d="M16.5 14.25a25.941 25.941 0 0 1-2.731-.163l-.648 5.832A3 3 0 0 0 16.1 23.25h1.15a3 3 0 0 0 3-3v-7.137a6.716 6.716 0 0 1-3.75 1.137zM3.75 2.906v9.188"/></svg>