<svg xmlns="http://www.w3.org/2000/svg" viewBox="0 0 24 24" width="24" height="24"><defs><style>.a{fill:none;stroke:#000;stroke-linecap:round;stroke-linejoin:round;stroke-width:1.5px}</style></defs><title>bathroom-shower-person</title><circle class="a" cx="13.5" cy="10.875" r="2.625"/><path class="a" d="M16.5 23.25V18.7c2.687-.3 6.75-2.258 6.75-8.2a1.5 1.5 0 0 0-3 0c0 4.932-3.754 5.238-4.51 5.25H9a3 3 0 0 0 0 6h3a1.5 1.5 0 0 0 0-3H9m1.5 3v1.5M.75.75h1.5l1.402 1.402"/><path class="a" d="M4.273 5.774A.74.74 0 0 1 3.1 5.632 3 3 0 0 1 7.134 1.6a.739.739 0 0 1 .141 1.173zM8.575 4.68l1.116.62m.681-2.921l1.615.44m2.603.71l1.615.441M6.353 7.024l.577 1.038m-2.922.681l.44 1.615m.71 2.603l.245.896"/></svg>