<svg xmlns="http://www.w3.org/2000/svg" viewBox="0 0 24 24" width="24" height="24"><g fill="none" stroke="#000" stroke-linejoin="round" stroke-miterlimit="10"><path d="M13.5 14.5h10a9 9 0 01-9 9h-5a9 9 0 01-9-9h6M17.271 2.361l.901-.902C19.459.312 21.5 1.233 21.5 2.954V14.5"/><path d="M17.271 5.714a2.37 2.37 0 00-3.352-3.353l-.559.559 3.352 3.353.559-.559z"/><path stroke-linecap="round" d="M11.408 3.581l-1.816.838m6.301 3.661l-.786 1.84m-1.896-3.623l-1.422 1.406M13.5 13.5a1 1 0 00-1-1h-5a1 1 0 00-1 1v6h7v-6z"/></g><path fill="none" d="M0 0h24v24H0z"/></svg>