<svg xmlns="http://www.w3.org/2000/svg" viewBox="0 0 24 24" width="24" height="24"><defs><style>.a{fill:none;stroke:#000;stroke-linecap:round;stroke-linejoin:round;stroke-width:1.5px}</style></defs><title>bathroom-shower-1</title><path class="a" d="M9.554 6.75a6 6 0 1 1 12 0v16.5"/><path class="a" d="M5.054 11.25a4.5 4.5 0 0 1 9 0zm4.5 3.75a.375.375 0 1 1-.375.375.375.375 0 0 1 .375-.375m0 6a.375.375 0 1 1-.375.375.375.375 0 0 1 .375-.375m4.009-5.981a.375.375 0 1 1-.24.472.375.375 0 0 1 .24-.472m1.858 5.705a.375.375 0 1 1-.24.472.375.375 0 0 1 .24-.472m-9.876-5.705a.375.375 0 1 0 .24.472.375.375 0 0 0-.24-.472m-1.858 5.705a.375.375 0 1 0 .241.472.374.374 0 0 0-.241-.472"/></svg>