<svg xmlns="http://www.w3.org/2000/svg" viewBox="0 0 24 24" width="24" height="24"><defs><style>.a{fill:none;stroke:#000;stroke-linecap:round;stroke-linejoin:round;stroke-width:1.5px}</style></defs><title>bathroom-person</title><circle class="a" cx="12.004" cy="14.07" r="3"/><path class="a" d="M17.2 23.07a5.25 5.25 0 0 0-10.393 0zM12 6.945a.375.375 0 1 1-.375.375.375.375 0 0 1 .375-.375m-3-3a.375.375 0 1 1-.375.375A.375.375 0 0 1 9 3.945m-3 3a.375.375 0 1 1-.375.375A.375.375 0 0 1 6 6.945m-3 3a.375.375 0 1 1-.375.375A.375.375 0 0 1 3 9.945m9-9a.375.375 0 1 1-.375.375A.375.375 0 0 1 12 .945m3 3a.375.375 0 1 0 .375.375.375.375 0 0 0-.375-.375m3 3a.375.375 0 1 0 .375.375.375.375 0 0 0-.375-.375m3 3a.375.375 0 1 0 .375.375.375.375 0 0 0-.375-.375"/></svg>