<svg xmlns="http://www.w3.org/2000/svg" viewBox="0 0 24 24" width="24" height="24"><defs><style>.a{fill:none;stroke:#000;stroke-linecap:round;stroke-linejoin:round;stroke-width:1.5px}</style></defs><title>bathroom-shower-head</title><path class="a" d="M22.254 9.911a10.5 10.5 0 0 0-20.129 0zm-10.065-7.5v-1.5m-.318 12.375a.375.375 0 1 1-.375.375.375.375 0 0 1 .375-.375m0 6a.375.375 0 1 1-.375.375.375.375 0 0 1 .375-.375m-6 0a.375.375 0 1 1-.375.375.375.375 0 0 1 .375-.375m12 0a.375.375 0 1 1-.375.375.375.375 0 0 1 .375-.375m-9-3a.375.375 0 1 1-.375.375.375.375 0 0 1 .375-.375m6 0a.375.375 0 1 1-.375.375.375.375 0 0 1 .375-.375m-6 6a.375.375 0 1 1-.375.375.375.375 0 0 1 .375-.375m-6 0a.375.375 0 1 1-.375.375.375.375 0 0 1 .375-.375m12 0a.375.375 0 1 1-.375.375.375.375 0 0 1 .375-.375m6 0a.375.375 0 1 1-.375.375.375.375 0 0 1 .375-.375"/></svg>