<svg xmlns="http://www.w3.org/2000/svg" viewBox="0 0 24 24" width="24" height="24"><defs><style>.a{fill:none;stroke:#000;stroke-linecap:round;stroke-linejoin:round;stroke-width:1.5px}</style></defs><title>bathroom-robe-female</title><path class="a" d="M3.751 3.75l-3 12.75 3.508 1.528"/><path class="a" d="M15.751.75q3.75 0 4.5 3l-3 7.5a25.535 25.535 0 0 1 3 11.25 37.483 37.483 0 0 1-8.25.75 37.483 37.483 0 0 1-8.25-.75 25.535 25.535 0 0 1 3-11.25l-3-7.5q.75-3 4.5-3z"/><path class="a" d="M20.251 3.75l3 12.75-3.508 1.528M6.751 11.25h10.5m-3 11.951V11.25l-6-10.5m7.5 0l-3.75 6.562m-2.25 3.938v4.5"/></svg>