<svg xmlns="http://www.w3.org/2000/svg" viewBox="0 0 24 24" width="24" height="24"><defs><style>.a{fill:none;stroke:#000;stroke-linecap:round;stroke-linejoin:round;stroke-width:1.5px}</style></defs><title>bathroom-mirror-cabinet</title><path class="a" d="M21.75 14.25a1.5 1.5 0 0 0 0-3H2.25a1.5 1.5 0 0 0 0 3zm-3 9h-6V18a7.758 7.758 0 0 1 3-.75 7.758 7.758 0 0 1 3 .75zm-9-9v3a1.5 1.5 0 0 0 1.5 1.5h1.5m9-4.5v3a1.5 1.5 0 0 1-1.5 1.5h-1.5m1.5-18H3.75a1.5 1.5 0 0 0-1.5 1.5v9h19.5v-9a1.5 1.5 0 0 0-1.5-1.5zm-10.5 7.5V6"/><path class="a" d="M13.5 8.25c0 1.657-1.264 3-3.75 3S6 9.907 6 8.25z"/></svg>