<svg xmlns="http://www.w3.org/2000/svg" viewBox="0 0 24 24" width="24" height="24"><defs><style>.a{fill:none;stroke:#000;stroke-linecap:round;stroke-linejoin:round;stroke-width:1.5px}</style></defs><title>bathroom-tub-person</title><circle class="a" cx="6.75" cy="3.75" r="2.625"/><path class="a" d="M14.329 12.375h7.421a1.5 1.5 0 0 1 1.5 1.5v1.5c0 3.314-4.186 6-7.5 6h-7.5c-3.314 0-7.5-2.686-7.5-6v-1.5a1.5 1.5 0 0 1 1.5-1.5H4.5v-3a1.5 1.5 0 0 1 2.461-1.153l2.779 2.316a1.505 1.505 0 0 0 1.791.1l2.637-1.758a1.5 1.5 0 0 1 1.664 2.5L13.2 13.131a4.528 4.528 0 0 1-5.377-.287l-.567-.476M3.75 22.875l1.961-1.961m14.539 1.961l-1.961-1.961"/></svg>