<svg xmlns="http://www.w3.org/2000/svg" viewBox="0 0 24 24" width="24" height="24"><path fill="none" stroke="#000" stroke-linecap="round" stroke-linejoin="round" stroke-miterlimit="10" d="M3.5 20.5h-2v-3h21v3h-2m-6 0h-5"/><circle fill="none" stroke="#000" stroke-linecap="round" stroke-linejoin="round" stroke-miterlimit="10" cx="6.5" cy="20.5" r="3"/><circle fill="none" stroke="#000" stroke-linecap="round" stroke-linejoin="round" stroke-miterlimit="10" cx="17.5" cy="20.5" r="3"/><path d="M6.5 20a.5.5 0 100 1 .5.5 0 000-1zm11 0a.5.5 0 100 1 .5.5 0 000-1z"/><path fill="none" stroke="#000" stroke-linejoin="round" stroke-miterlimit="10" d="M6.5 14.5H1v-4h5.5m10 4h-8m10-4h1a2 2 0 010 4h-1m-10-4h8"/><path fill="none" stroke="#000" stroke-linecap="round" stroke-linejoin="round" stroke-miterlimit="10" d="M6.5 17.5v-11h2v11m8 0v-11h2v11"/><path fill="none" stroke="#000" stroke-linejoin="round" stroke-miterlimit="10" d="M6.5 7.5l-3 3m13-3l-3 3"/><path fill="none" d="M0 0h24v24H0z"/></svg>