<svg xmlns="http://www.w3.org/2000/svg" viewBox="0 0 24 24" width="24" height="24"><defs><style>.a{fill:none;stroke:#000;stroke-linecap:round;stroke-linejoin:round;stroke-width:1.5px}</style></defs><title>battery-charge</title><path class="a" d="M6.75 3h-4.5a1.5 1.5 0 0 0-1.5 1.5v9a1.5 1.5 0 0 0 1.5 1.5h4.5m9-12h3a1.5 1.5 0 0 1 1.5 1.5V6h1.5a1.5 1.5 0 0 1 1.5 1.5v3a1.5 1.5 0 0 1-1.5 1.5h-1.5v1.5a1.5 1.5 0 0 1-1.5 1.5h-3m-4.5-1.5a3 3 0 0 1-3-3V9a1.5 1.5 0 0 1 1.5-1.5h3a1.5 1.5 0 0 1 1.5 1.5v1.5a3 3 0 0 1-3 3zm-1.5-6v-3m3 3v-3m-1.5 9V21"/></svg>