<svg xmlns="http://www.w3.org/2000/svg" viewBox="0 0 24 24" width="24" height="24"><g fill="none" stroke="#000" stroke-linejoin="round" stroke-miterlimit="10"><path d="M14.517 13.517l8.132-8.924-3.95-3.065.379 2.773-2.831.387.379 2.774-2.857.35.379 2.688H9.843l.379-2.688-2.857-.385.38-2.756-2.831-.379.378-2.769-3.95 3.068 8.115 8.925m9.098 8.144s4.94 2.888 4.94-2.675c0-3.75-4.307-3.337-3.5-6.969.46-2.066 2.62-2.473 4.005-2.516"/><path d="M20.214 20.412L14.517 13.5H9.474l-5.697 6.912 3.161 2.38 5.058-6.131 5.056 6.131z"/></g><path fill="none" d="M0 0h24v24H0z"/></svg>