<svg id="Regular" xmlns="http://www.w3.org/2000/svg" viewBox="0 0 24 24" width="24" height="24"><defs><style>.cls-1{fill:none;stroke:#000;stroke-linecap:round;stroke-linejoin:round;stroke-width:1.5px}</style></defs><title>beach-parasol-water-1</title><path class="cls-1" d="M3 19.75a3 3 0 0 1-2.25 2.905M9 19.75a3 3 0 0 1-6 0m12 0a3 3 0 0 1-6 0m12 0a3 3 0 0 1-6 0m8.248 2.905A3 3 0 0 1 21 19.75m-9-2.25a7.151 7.151 0 0 1 6-3.75h5.25m-3.237-9.192c-.786-2.358-4.29-3.314-7.827-2.135s-5.766 4.046-4.98 6.4l.237.711L20.25 5.269zm-3.945 9.51l-2.222-6.664M11.712 1l.474 1.423"/></svg>