<svg xmlns="http://www.w3.org/2000/svg" viewBox="0 0 24 24" width="24" height="24"><defs><style>.a{fill:none;stroke:#000;stroke-linecap:round;stroke-linejoin:round;stroke-width:1.5px}</style></defs><title>beacon-remote-plane-1</title><path class="a" d="M19.73 8.509l2.548-2.548a3.073 3.073 0 0 0 .672-3.531 3.01 3.01 0 0 0-4.825-.8l-3.331 3.33-9.243-2.433a1.5 1.5 0 0 0-1.442.39l-.684.683a1.5 1.5 0 0 0 .289 2.347l6.307 3.785-4.8 5.44-1.5.022a1.5 1.5 0 0 0-1.282.387L.97 16.953a.75.75 0 0 0 .235 1.22l2.862 1.633L5.972 22.8a.749.749 0 0 0 1.219.235L8.5 21.783a1.5 1.5 0 0 0 .447-1.36l.025-1.5.987-.923M18 19.463a.375.375 0 1 1-.375.375.375.375 0 0 1 .375-.375"/><rect class="a" x="12.75" y="12.75" width="10.5" height="10.5" rx="1.5" ry="1.5"/><path class="a" d="M15.75 17.4a3.181 3.181 0 0 1 4.5 0"/></svg>