<svg xmlns="http://www.w3.org/2000/svg" viewBox="0 0 24 24" width="24" height="24"><defs><style>.a{fill:none;stroke:#000;stroke-linecap:round;stroke-linejoin:round;stroke-width:1.5px}</style></defs><title>beacon-bluetooth</title><path class="a" d="M8.25 15l7.5-6L12 6v12l3.75-3-7.5-6"/><path class="a" d="M17.507 23.25H6.493a3 3 0 0 1-2.122-.878l-2.742-2.743a3 3 0 0 1-.879-2.121V6.493a3 3 0 0 1 .879-2.121l2.742-2.743A3 3 0 0 1 6.493.75h11.015a3 3 0 0 1 2.121.879l2.742 2.741a3 3 0 0 1 .879 2.122v11.016a3 3 0 0 1-.879 2.121l-2.742 2.743a3 3 0 0 1-2.122.878z"/><path class="a" d="M18.75 6.375a.375.375 0 1 0 .375.375.375.375 0 0 0-.375-.375"/></svg>