<svg xmlns="http://www.w3.org/2000/svg" viewBox="0 0 24 24" width="24" height="24"><path d="M23.5 17.484h-6c-2.451 0-4.621.787-5.99 2M17.5 17.5l-3.316-8.367m-2.579-6.508l-.369-.93m.369.93C6.728 4.558 3.56 8.11 4.984 11.703l.368.931 2.324-.922.561-1.299 1.298.562 9.296-3.686.561-1.297 1.298.561 2.324-.922-.368-.93c-1.423-3.593-6.164-4.01-11.041-2.076zM23.5 23.5c-1 0-2-.896-2-2 0 1.104-1 2-2 2s-2-.896-2-2c0 1.104-1 2-2 2s-2-.896-2-2c0 1.104-1 2-2 2s-2-.896-2-2c0 1.104-1 2-2 2s-2-.896-2-2c0 1.104-1 2-2 2s-2-.896-2-2c0 .69-.463 1.299-1 1.658" fill="none" stroke="#000" stroke-linecap="round" stroke-linejoin="round" stroke-miterlimit="10"/><path fill="none" d="M0 0h24v24H0z"/></svg>