<svg id="Regular" xmlns="http://www.w3.org/2000/svg" viewBox="0 0 24 24" width="24" height="24"><defs><style>.cls-1{fill:none;stroke:#000;stroke-linecap:round;stroke-linejoin:round;stroke-width:1.5px}</style></defs><title>beach-sun-birds</title><path class="cls-1" d="M.75 23.25a5.511 5.511 0 0 0 4.5-1.5 4.547 4.547 0 0 0 6.75 0 4.547 4.547 0 0 0 6.75 0 5.511 5.511 0 0 0 4.5 1.5m-22.5-4.5a5.511 5.511 0 0 0 4.5-1.5 4.547 4.547 0 0 0 6.75 0 4.547 4.547 0 0 0 6.75 0 5.511 5.511 0 0 0 4.5 1.5M18 3.75l1.5 1.5 1.5-1.5M20.25 9l1.5 1.5 1.5-1.5"/><circle class="cls-1" cx="6.75" cy="6" r="2.25"/><path class="cls-1" d="M11.25 6h1.5M2.25 6H.75M9 2.049L9.75.75M4.5 9.951l-.75 1.299m.75-9.201L3.75.75M9 9.951l.75 1.299"/></svg>