<svg id="Regular" xmlns="http://www.w3.org/2000/svg" viewBox="0 0 24 24" width="24" height="24"><defs><style>.cls-1{fill:none;stroke:#000;stroke-linecap:round;stroke-linejoin:round;stroke-width:1.5px}</style></defs><title>beach-person-water-parasol</title><circle class="cls-1" cx="4.5" cy="9" r="2.25"/><path class="cls-1" d="M15.065 18.686l-1.657-1.657L9.961 19.9a1.5 1.5 0 0 1-2.181-.281l-2.389-3.342-.961 1.682"/><path class="cls-1" d="M.909 19.421a1.494 1.494 0 0 1 .039-1.415l3-5.25A1.5 1.5 0 0 1 5.174 12a1.477 1.477 0 0 1 1.3.627l2.811 3.935 3.257-2.716a1.5 1.5 0 0 1 2.022.092l3.75 3.75M18 3.75c0-1.657-3.358-3-7.5-3S3 2.093 3 3.75zm-7.5 0V12M.75 23.25a4.666 4.666 0 0 0 3.75-1.9 4.649 4.649 0 0 0 7.5 0 4.649 4.649 0 0 0 7.5 0 4.666 4.666 0 0 0 3.75 1.9"/></svg>