<svg id="Regular" xmlns="http://www.w3.org/2000/svg" viewBox="0 0 24 24" width="24" height="24"><defs><style>.cls-1{fill:none;stroke:#000;stroke-linecap:round;stroke-linejoin:round;stroke-width:1.5px}</style></defs><title>beach-palm-water-1</title><path class="cls-1" d="M13.493 19.072a4.25 4.25 0 0 0 1.882.428A4.638 4.638 0 0 0 18.75 18a5.511 5.511 0 0 0 4.5 1.5M11.134 8.477l-.767 14.761m-6.079.012L9.234 7.855m0 0l8.276 2.709a.751.751 0 0 0 .975-.861 4.728 4.728 0 0 0-3.6-4.015c-3.75-.75-5.25 1.5-5.25 1.5l-.4.667"/><path class="cls-1" d="M9.234 7.855L1.7 9.9a.751.751 0 0 1-.934-.874 4.754 4.754 0 0 1 3.616-4.088c2.182-.437 4.273 0 5.528 1.925m4.168-1.295l3.1-3.117a.747.747 0 0 0-.208-1.211 4.869 4.869 0 0 0-5.088.51c-1.7 1.273-1.5 3.938-1.5 3.938v.769"/><path class="cls-1" d="M5.679 4.785l-1.95-2.117a.748.748 0 0 1 .393-1.242 13.168 13.168 0 0 1 2.51-.238A5.079 5.079 0 0 1 10.6 3.76M.75 23.25h22.5"/></svg>