<svg id="Regular" xmlns="http://www.w3.org/2000/svg" viewBox="0 0 24 24" width="24" height="24"><defs><style>.cls-1{fill:none;stroke:#000;stroke-linecap:round;stroke-linejoin:round;stroke-width:1.5px}</style></defs><title>beach-swim</title><path class="cls-1" d="M.75 23.248l1.36-.907a1.958 1.958 0 0 1 2.171 0l.764.509a1.952 1.952 0 0 0 2.17 0l.764-.509a1.956 1.956 0 0 1 2.17 0l.764.509a1.954 1.954 0 0 0 2.171 0l.764-.509a1.956 1.956 0 0 1 2.17 0l.764.509a1.952 1.952 0 0 0 2.17 0l.764-.509a1.958 1.958 0 0 1 2.171 0l1.363.909M2.712 19.558L2.25 17.25h7.5l-.462 2.308M8.25 17.25V15a2.25 2.25 0 0 0-4.5 0v2.25"/><circle class="cls-1" cx="17.25" cy="3.375" r="2.625"/><path class="cls-1" d="M17.25 18v5.077m-3-.939v-9.886m0 2.748a1.5 1.5 0 0 1-3 0v-3a4.5 4.5 0 0 1 4.5-4.5h3a4.5 4.5 0 0 1 4.5 4.5v3a1.5 1.5 0 0 1-3 0v7.093m0-7.093v-3"/><path class="cls-1" d="M14.25 16.5l3 1.5 3-1.5m-6-2.25h6"/></svg>