<svg id="Regular" xmlns="http://www.w3.org/2000/svg" viewBox="0 0 24 24" width="24" height="24"><defs><style>.cls-1{fill:none;stroke:#000;stroke-linecap:round;stroke-linejoin:round;stroke-width:1.5px}</style></defs><title>beach-palm-sunbed</title><path class="cls-1" d="M8.25 7.5l6.35 3.887a.729.729 0 0 0 1.109-.6 4.1 4.1 0 0 0-2.189-4.083 5.953 5.953 0 0 0-2.02-.592M8.25 7.5H1.5a.769.769 0 0 1-.684-1.033 4.165 4.165 0 0 1 3.957-2.68 5.549 5.549 0 0 1 2.627.744"/><path class="cls-1" d="M12.864 6.429l3.309-1.97a.653.653 0 0 0 .085-1.073 4.264 4.264 0 0 0-4.428-.673 3.243 3.243 0 0 0-1.53 1.426"/><path class="cls-1" d="M5.907 3.939L4.712 1.72a.656.656 0 0 1 .6-.969 11.571 11.571 0 0 1 2.188.343 4.454 4.454 0 0 1 2.808 3.045M23.25 20.25h-8.867a1.5 1.5 0 0 1-1.312-.772L10.5 14.25m9.752 6l.75 3m-7.392-3.216l-1.608 3.216m-.395-6.75H16.5M.75 23.25C.867 21.258.84 12.828 7.5 7.5m.75 0A31.7 31.7 0 0 0 6 23.25"/></svg>