<svg xmlns="http://www.w3.org/2000/svg" viewBox="0 0 24 24" width="24" height="24"><defs><style>.a{fill:none;stroke:#000;stroke-linecap:round;stroke-linejoin:round;stroke-width:1.5px}</style></defs><title>beacon-remote-house</title><path class="a" d="M6 19.463a.375.375 0 1 1-.375.375.375.375 0 0 1 .375-.375"/><rect class="a" x=".75" y="12.713" width="10.5" height="10.538" rx="1.5" ry="1.5"/><path class="a" d="M3.75 17.4a3.181 3.181 0 0 1 4.5 0M3.136 9.75a4.052 4.052 0 0 1 5.728 0M1.5 7.5a6.364 6.364 0 0 1 9 0m12.75-3.75V12H13.5m9.75-8.25L18 .75l-5.25 3v1.5"/><path class="a" d="M19.5 12h-3V9a1.5 1.5 0 0 1 3 0z"/></svg>