<svg id="Regular" xmlns="http://www.w3.org/2000/svg" viewBox="0 0 24 24" width="24" height="24"><defs><style>.cls-1{fill:none;stroke:#000;stroke-linecap:round;stroke-linejoin:round;stroke-width:1.5px}</style></defs><title>beach-parasol-water</title><path class="cls-1" d="M.75 21.783L1.6 22.9a.978.978 0 0 0 1.5 0l.943-1.131a.978.978 0 0 1 1.5 0l.945 1.131a.978.978 0 0 0 1.5 0l.943-1.131a.978.978 0 0 1 1.5 0l.949 1.131a.978.978 0 0 0 1.5 0l.942-1.131a.978.978 0 0 1 1.5 0l.943 1.131a.978.978 0 0 0 1.5 0l.943-1.131a.978.978 0 0 1 1.5 0l.942 1.131a.978.978 0 0 0 1.5 0l.585-.7m-12.214-3.229a7.911 7.911 0 0 1 4.729-1.721h7.5m-1.212-9.99a.979.979 0 0 0 .442-1.535 9.786 9.786 0 0 0-17.426 6.064.979.979 0 0 0 1.3.929zM11.624 2.598L10.981.75m3.215 9.239l2.527 7.261"/></svg>