<svg id="Regular" xmlns="http://www.w3.org/2000/svg" viewBox="0 0 24 24" width="24" height="24"><defs><style>.cls-1{fill:none;stroke:#000;stroke-linecap:round;stroke-linejoin:round;stroke-width:1.5px}</style></defs><title>beanie</title><path class="cls-1" d="M23.25 19.125a3 3 0 0 1-3 3H3.75a3 3 0 0 1 0-6h16.5a3 3 0 0 1 3 3zm-3-3H3.75v-6a8.25 8.25 0 0 1 16.5 0zm-13.5 0v6m10.5-6v6m-5.25-6v6"/><path class="cls-1" d="M8.25 16.125v-4.808a12 12 0 0 1 1.824-6.36L12 1.875m3.75 14.25v-4.808a12 12 0 0 0-1.824-6.36L12 1.875"/></svg>