<svg id="Regular" xmlns="http://www.w3.org/2000/svg" viewBox="0 0 24 24" width="24" height="24"><defs><style>.cls-1{fill:none;stroke:#000;stroke-linecap:round;stroke-linejoin:round;stroke-width:1.5px}</style></defs><title>beard-style-shaving-machine</title><path class="cls-1" d="M17.479 8.25H6.521A1.5 1.5 0 0 1 5.041 7L4.5 3.75h15L18.959 7a1.5 1.5 0 0 1-1.48 1.25zM4.5 3.75v-3m3 4.501v-4.5m3 4.5v-4.5m3 4.5v-4.5m3 4.5v-4.5m3-.001v3M12 11.625a.375.375 0 0 1 .375.375m-.75 0a.375.375 0 0 1 .375-.375m0 .75a.375.375 0 0 1-.375-.375m.75 0a.375.375 0 0 1-.375.375M7.5 15.75h9m-5.25 3h1.5"/><path class="cls-1" d="M16.5 18.75a4.5 4.5 0 0 1-9 0V10.5L9 8.25h6l1.5 2.25z"/></svg>