<svg id="Regular" xmlns="http://www.w3.org/2000/svg" viewBox="0 0 24 24" width="24" height="24"><defs><style>.cls-1{fill:none;stroke:#000;stroke-linecap:round;stroke-linejoin:round;stroke-width:1.5px}</style></defs><title>bear-paw</title><path class="cls-1" d="M12.76 3a2.247 2.247 0 0 0-4.139-1.215A6.674 6.674 0 0 0 6.76 1.5a6.686 6.686 0 0 0-1.86.285 2.245 2.245 0 1 0-3.547 2.727A4.668 4.668 0 0 0 .76 6.751a6 6 0 0 0 12 0 4.668 4.668 0 0 0-.593-2.239A2.234 2.234 0 0 0 12.76 3zM6.01 7.501h1.5m-.75 2.25v-2.25m6.362 15.237a1.338 1.338 0 0 0 1.724.33 4.474 4.474 0 0 1 4.367 0 1.337 1.337 0 0 0 1.723-.33 3.6 3.6 0 0 0 .824-2.266c0-2.24-2.118-4.055-4.731-4.055S12.3 18.232 12.3 20.472a3.6 3.6 0 0 0 .822 2.266zm1.888-8.571l-.75-1.5m-3 3l-.75-.75m8.25-.75l.75-1.5m3 3l.75-.75"/></svg>