<svg id="Regular" xmlns="http://www.w3.org/2000/svg" viewBox="0 0 24 24" width="24" height="24"><defs><style>.cls-1{fill:none;stroke:#000;stroke-linecap:round;stroke-linejoin:round;stroke-width:1.5px}</style></defs><title>bear-head</title><path class="cls-1" d="M5.646 6.387a9 9 0 0 1 12.728 0m1.862 2.579a9.039 9.039 0 1 1-16.452 0m6.726 4.535h3m-6 2.25a2.25 2.25 0 0 0 4.5 0"/><path class="cls-1" d="M16.51 15.751a2.25 2.25 0 0 1-4.5 0V13.5M7.885 9.751a.375.375 0 0 1 .375.375m-.75 0a.375.375 0 0 1 .375-.375m0 .749a.375.375 0 0 1-.375-.375m.75.001a.375.375 0 0 1-.375.375m8.25-.75a.375.375 0 0 1 .375.375m-.75 0a.375.375 0 0 1 .375-.375m0 .749a.375.375 0 0 1-.375-.375m.75.001a.375.375 0 0 1-.375.375m-8.69-5.508a3.371 3.371 0 1 0-3.661 3.973m16.452 0a3.367 3.367 0 1 0-3.661-3.973"/></svg>