<svg id="Regular" xmlns="http://www.w3.org/2000/svg" viewBox="0 0 24 24" width="24" height="24"><defs><style>.cls-1{fill:none;stroke:#000;stroke-linecap:round;stroke-linejoin:round;stroke-width:1.5px}</style></defs><title>beard-style-mustache-1</title><path class="cls-1" d="M16.718 1.777A6.361 6.361 0 0 0 12 3.892a6.361 6.361 0 0 0-4.718-2.115A6.644 6.644 0 0 0 .75 8.527v7.85a.751.751 0 0 0 1.118.657A6.431 6.431 0 0 0 5.3 11.518 9.944 9.944 0 0 0 12 8.733a9.944 9.944 0 0 0 6.7 2.785 6.431 6.431 0 0 0 3.433 5.516.751.751 0 0 0 1.118-.657v-7.85a6.644 6.644 0 0 0-6.533-6.75z"/><path class="cls-1" d="M12 13.777a5.237 5.237 0 0 0 3 1.5 10.046 10.046 0 0 1-2.45 6.98.744.744 0 0 1-1.1 0A10.046 10.046 0 0 1 9 15.277a5.237 5.237 0 0 0 3-1.5z"/></svg>