<svg id="Regular" xmlns="http://www.w3.org/2000/svg" viewBox="0 0 24 24" width="24" height="24"><defs><style>.cls-1{fill:none;stroke:#000;stroke-linecap:round;stroke-linejoin:round;stroke-width:1.5px}</style></defs><title>beard-style-shave</title><path class="cls-1" d="M21.75 6.75H21a1.5 1.5 0 0 1-1.5-1.5V4.5A1.5 1.5 0 0 0 18 3H6a1.5 1.5 0 0 0-1.5 1.5v.75A1.5 1.5 0 0 1 3 6.75h-.75a1.5 1.5 0 0 0-1.5 1.5v7.5a1.5 1.5 0 0 0 1.5 1.5H3a1.5 1.5 0 0 1 1.5 1.5v.75A1.5 1.5 0 0 0 6 21h12a1.5 1.5 0 0 0 1.5-1.5v-.75a1.5 1.5 0 0 1 1.5-1.5h.75a1.5 1.5 0 0 0 1.5-1.5v-7.5a1.5 1.5 0 0 0-1.5-1.5zM7.5 6h9m-9 12h9m-6-6H6.75m10.5 0H13.5"/><circle class="cls-1" cx="12" cy="12" r="1.5"/><path class="cls-1" d="M18.75 13.5a1.5 1.5 0 0 1 0-3m-13.5 3a1.5 1.5 0 0 0 0-3"/></svg>