<svg id="Regular" xmlns="http://www.w3.org/2000/svg" viewBox="0 0 24 24" width="24" height="24"><defs><style>.cls-1{fill:none;stroke:#000;stroke-linecap:round;stroke-linejoin:round;stroke-width:1.5px}</style></defs><title>bed-single</title><circle class="cls-1" cx="7.5" cy="16.5" r="2.25"/><path class="cls-1" d="M12 14.25h8.5a2 2 0 0 1 2 2v2.5H12v-4.5zm-10.5 4.5h21v3h-21zm0 4.5v-9m21 9v-1.5M20.145 5.907a.749.749 0 0 1-.745.843h-4.3a.749.749 0 0 1-.745-.843l.563-4.5a.75.75 0 0 1 .744-.657h3.176a.75.75 0 0 1 .744.657zm-2.895.843v4.5"/></svg>