<svg id="Regular" xmlns="http://www.w3.org/2000/svg" viewBox="0 0 24 24" width="24" height="24"><defs><style>.cls-1{fill:none;stroke:#000;stroke-linecap:round;stroke-linejoin:round;stroke-width:1.5px}</style></defs><title>bed-bunk</title><path class="cls-1" d="M.75 23.25V.75m0 9h13.5m-13.5-3h13.5m-9-3h-3a1.5 1.5 0 0 0-1.5 1.5v1.5h6v-1.5a1.5 1.5 0 0 0-1.5-1.5zm12 0v19.5m6-19.5v19.5m-6-16.5h6m-6 4.5h6m-6 4.5h6m-6 4.5h6m-9-1.5H10.5a.75.75 0 0 0-.75.75v3.75m4.5 0v-9m-13.5 3h6v6h-6zm7.5 0H.75"/></svg>