<svg id="Regular" xmlns="http://www.w3.org/2000/svg" viewBox="0 0 24 24" width="24" height="24"><defs><style>.cls-1{fill:none;stroke:#000;stroke-linecap:round;stroke-linejoin:round;stroke-width:1.5px}</style></defs><title>bed-double</title><path class="cls-1" d="M23.25 23.25v-4.5a1.5 1.5 0 0 0-1.5-1.5H2.25a1.5 1.5 0 0 0-1.5 1.5v4.5m0-1.5h22.5m-3-7.5H3.75a1.5 1.5 0 0 0-1.5 1.5v1.5h19.5v-1.5a1.5 1.5 0 0 0-1.5-1.5zM9 11.25H6a.75.75 0 0 0-.75.75v2.25h4.5V12a.75.75 0 0 0-.75-.75zm9 0h-3a.75.75 0 0 0-.75.75v2.25h4.5V12a.75.75 0 0 0-.75-.75zm-15.75-9a1.5 1.5 0 0 0-1.5 1.5v9m22.5 0v-9a1.5 1.5 0 0 0-1.5-1.5M8.709 6.75H4.791a.75.75 0 0 1-.712-.987l1-3a.751.751 0 0 1 .712-.513h1.918a.751.751 0 0 1 .712.513l1 3a.75.75 0 0 1-.712.987zM6.75 2.25V.75m8.541 6h3.918a.75.75 0 0 0 .712-.987l-1-3a.751.751 0 0 0-.712-.513h-1.918a.751.751 0 0 0-.712.513l-1 3a.75.75 0 0 0 .712.987zm1.959-4.5V.75m-6 1.5h1.5"/></svg>