<svg xmlns="http://www.w3.org/2000/svg" viewBox="0 0 24 24" width="24" height="24"><path fill="none" stroke="#000" stroke-linejoin="round" stroke-miterlimit="10" d="M16.502 22.5a2 2 0 00-2-2h-4a2 2 0 00-2 2v1h8v-1zm-9.5-16h11"/><path d="M14.502 9a.5.5 0 10.002 1.002A.5.5 0 0014.502 9zm-2 2a.5.5 0 10.002 1.002.5.5 0 00-.002-1.002zm-2.5-3a.5.5 0 10.002 1.002A.5.5 0 0010.002 8zm2 6.5a.5.5 0 10.002 1.002.5.5 0 00-.002-1.002z"/><path fill="none" stroke="#000" stroke-linejoin="round" stroke-miterlimit="10" d="M18.113 6.39a1.9 1.9 0 01-.611.11 2 2 0 01-2-2c0-.366.105-.705.277-1h-9.25c.129 3.071.865 4.903 2.167 8 .973 2.315 1.306 7.5.306 9.5v.19c.367-.42.899-.69 1.5-.69h4c.601 0 1.134.271 1.5.69V21c-.5-2-.666-7.185.307-9.5.85-2.024 1.451-3.491 1.804-5.11z"/><path fill="none" stroke="#000" stroke-linejoin="round" stroke-miterlimit="10" d="M17.502.5H6.9c-1.934.031-1.832 3 .102 3h8.777a1.977 1.977 0 00-.277 1 2 2 0 002 2c.366 0 .705-.105 1-.277V8.5a1 1 0 102 0v-5a3 3 0 00-3-3z"/><path fill="none" d="M0 0h24v24H0z"/></svg>