<svg id="Regular" xmlns="http://www.w3.org/2000/svg" viewBox="0 0 24 24" width="24" height="24"><defs><style>.cls-1{fill:none;stroke:#000;stroke-linecap:round;stroke-linejoin:round;stroke-width:1.5px}</style></defs><title>beer-opener</title><path class="cls-1" d="M11.683 16.445a7.306 7.306 0 0 1 4.136-2.07 7.306 7.306 0 0 0 4.138-2.066l2.852-2.852a1.462 1.462 0 0 0 0-2.069L16.6 1.179a1.462 1.462 0 0 0-2.069 0l-2.848 2.847A7.3 7.3 0 0 0 9.6 8.271a6.677 6.677 0 0 1-1.9 3.878l-5.994 5.994a3.036 3.036 0 0 0-.43 3.874 2.93 2.93 0 0 0 4.459.376zm-7.501 3.361l.518-.518"/><path class="cls-1" d="M13.873 5.6h3.9a.976.976 0 0 1 .976.976v2.2a1.951 1.951 0 0 1-1.949 1.949h-1.951A1.951 1.951 0 0 1 12.9 8.774v-2.2a.976.976 0 0 1 .973-.974z" transform="rotate(45 15.824 8.163)"/></svg>