<svg id="Regular" xmlns="http://www.w3.org/2000/svg" viewBox="0 0 24 24" width="24" height="24"><defs><style>.cls-1{fill:none;stroke:#000;stroke-linecap:round;stroke-linejoin:round;stroke-width:1.5px}</style></defs><title>beer-glass-foam</title><path class="cls-1" d="M4.5 5.122v.636a13.9 13.9 0 0 0 1.551 6.407 13.954 13.954 0 0 1 1.493 7.693L7.385 21.6a1.455 1.455 0 0 0 1.361 1.65h5.183a1.455 1.455 0 0 0 1.36-1.649l-.159-1.743a13.972 13.972 0 0 1 1.493-7.693A13.718 13.718 0 0 0 18 7.973M5.077 9.75h12.521"/><path class="cls-1" d="M9.375 12a.375.375 0 1 1-.375.375.375.375 0 0 1 .375-.375m3 3a.375.375 0 1 1-.375.375.375.375 0 0 1 .375-.375m-1.5 3.75a.375.375 0 1 1-.375.375.375.375 0 0 1 .375-.375M18 .75H5.25a2.25 2.25 0 0 0 0 4.5h8.356A2.967 2.967 0 0 0 18 7.084V10.5a1.5 1.5 0 0 0 3 0V3.75a3 3 0 0 0-3-3z"/></svg>