<svg id="Regular" xmlns="http://www.w3.org/2000/svg" viewBox="0 0 24 24" width="24" height="24"><defs><style>.cls-1{fill:none;stroke:#000;stroke-linecap:round;stroke-linejoin:round;stroke-width:1.5px}</style></defs><title>beer-mug</title><path class="cls-1" d="M17.25 9.75h2.1a3.759 3.759 0 0 1 3.9 3.6v1.8a3.759 3.759 0 0 1-3.9 3.6h-2.1"/><path class="cls-1" d="M17.25 8.256v13.6a1.372 1.372 0 0 1-1.35 1.394H5.1a1.373 1.373 0 0 1-1.35-1.393v-12.4m4.5 5.442v4.178m4.5-6.267v6.267"/><path class="cls-1" d="M19.365 5.1a3.43 3.43 0 0 0-5.2-1.9 4.047 4.047 0 0 0-7.584.4 3.431 3.431 0 1 0-2.829 5.856h.006A3.37 3.37 0 0 0 7.39 12.74a3.472 3.472 0 0 0 2.69-1.829 3.208 3.208 0 0 0 .41-1.3 1.484 1.484 0 0 1 1.488-1.359c1.743 0 3.705.007 5.278 0A2.213 2.213 0 0 0 19.5 6.21a3.531 3.531 0 0 0-.135-1.11z"/></svg>