<svg xmlns="http://www.w3.org/2000/svg" viewBox="0 0 24 24" width="24" height="24"><g fill="none" stroke="#000" stroke-linejoin="round" stroke-miterlimit="10"><path d="M18.5 3c-.758 0-1.463.215-2.066.581A5.497 5.497 0 0011.5.5a5.497 5.497 0 00-4.934 3.081A3.97 3.97 0 004.5 3a4 4 0 000 8c.191 0 .379-.018.564-.043-.04.175-.064.355-.064.543a2.499 2.499 0 105 0c0-.075-.016-.146-.021-.217a5.48 5.48 0 005.579-1.58A3.977 3.977 0 0018.5 11a4 4 0 100-8z"/><path d="M18.289 18.5h2.355c1.02 0 1.855-.899 1.855-2v-3c0-1.1-.9-2-2-2h-3"/><path stroke-linecap="round" d="M20.5 22c0 .825-.675 1.5-1.5 1.5H4c-.825 0-1.5-.675-1.5-1.5h0c0-.824.675-1.5 1.5-1.5h15c.825 0 1.5.676 1.5 1.5h0zm-15-9l-1 7.5m13-9.627l1 9.627m-4-7l.5 5m-3.5-5v5m-3-4.5L8 18.5"/></g><path fill="none" d="M0 0h24v24H0z"/></svg>