<svg xmlns="http://www.w3.org/2000/svg" viewBox="0 0 24 24" width="24" height="24"><g fill="none" stroke="#000" stroke-linecap="round" stroke-linejoin="round" stroke-miterlimit="10"><path d="M6 7.5v1c-1 .5-.5 3 1 3 0 3 3.5 5 5 5m6-9v1c1 .5.5 3-1 3 0 3-3.5 5-5 5"/><path d="M7.5 13.42V16l-4.404 1.255A4 4 0 00.5 21v2.5h23V21a3.998 3.998 0 00-2.596-3.745L16.5 16v-2.58"/><path d="M16.5 16c0 1-1 3-4.5 3s-4.5-2-4.5-3m4.5 7.5v-7m6-9s-2-1-6-1-6 1-6 1v-5s.5-2 6-2c6 0 6 2 6 2v5z"/><path d="M18 5.5s-2-1-6-1-6 1-6 1"/><circle cx="14.5" cy="21" r=".5"/><path d="M9 9.502c0-.553.447-.5 1-.5s1-.053 1 .5m2 0c0-.553.447-.5 1-.5s1-.053 1 .5"/></g><path fill="none" d="M0 0h24v24H0z"/></svg>