<svg xmlns="http://www.w3.org/2000/svg" viewBox="0 0 24 24" width="24" height="24"><g fill="none" stroke="#000" stroke-linejoin="round" stroke-miterlimit="10"><path d="M15.5 8.006c0-3.07 6-4 6 3 0 4-2 11.5-5 11.5-2 0-1.958-1.417-1.958-1.417M8.5 8.006c-.042-3-6-4-6 3 0 4 2.042 11.5 5.042 11.5 2 0 1.958-1.417 1.958-1.417"/><path stroke-linecap="round" d="M12.5 5.506v-2c0-1.1-.4-2-1.5-2h-1"/><path d="M8.25 9.499a3.758 3.758 0 117.5.001l-.577 10.013a3.178 3.178 0 01-6.346 0L8.25 9.499z"/></g><path fill="none" d="M0 0h24v24H0z"/></svg>