<svg id="Regular" xmlns="http://www.w3.org/2000/svg" viewBox="0 0 24 24" width="24" height="24"><defs><style>.cls-1{fill:none;stroke:#000;stroke-linecap:round;stroke-linejoin:round;stroke-width:1.5px}</style></defs><title>bench</title><path class="cls-1" d="M2.75 4.5h18.5a.5.5 0 0 1 .5.5v2.5H2.25V5a.5.5 0 0 1 .5-.5zm-.5 3h19.5V10a.5.5 0 0 1-.5.5H2.75a.5.5 0 0 1-.5-.5V7.5zm21 7.5a1.5 1.5 0 0 1-1.5 1.5H2.25a1.5 1.5 0 0 1 0-3h19.5a1.5 1.5 0 0 1 1.5 1.5zm-18-4.5v3m13.5-3v3M5.25 3v1.5M18.75 3v1.5M3 16.5L1.5 21M21 16.5l1.5 4.5"/></svg>