<svg xmlns="http://www.w3.org/2000/svg" viewBox="0 0 24 24" width="24" height="24"><defs><style>.a{fill:none;stroke:#000;stroke-linecap:round;stroke-linejoin:round;stroke-width:1.5px}</style></defs><title>bicycle-city-guide</title><circle class="a" cx="20.25" cy="20.25" r="3"/><circle class="a" cx="6.75" cy="20.25" r="3"/><path class="a" d="M9.75 20.25h3a1.684 1.684 0 0 0 1.65-1.319 6 6 0 0 1 5.85-4.681v-4.5a1.5 1.5 0 0 0-1.5-1.5h-1.5"/><path class="a" d="M.75 14.25h6a6 6 0 0 1 5.2 3h3.106"/><path class="a" d="M4.629 18.129L.75 14.25v-7.5a6 6 0 0 1 6-6H9c3.75 0 5.25 1.679 5.25 3.75M3 14.25L6.75.75m-1.5 13.5l8.034-12.177M11.25 11.25h4.5m-2.25 0l-1.553 6"/></svg>