<svg xmlns="http://www.w3.org/2000/svg" viewBox="0 0 24 24" width="24" height="24"><defs><style>.a{fill:none;stroke:#000;stroke-linecap:round;stroke-linejoin:round;stroke-width:1.5px}</style></defs><title>bicycle-lock-key</title><path class="a" d="M10.908 4.81a.375.375 0 0 1-.375.375m0-.75a.375.375 0 0 1 .375.375m-.75 0a.375.375 0 0 1 .375-.375m0 .75a.375.375 0 0 1-.375-.375"/><path class="a" d="M14.25 6.434h5.215a1.624 1.624 0 1 0 0-3.248H14.25a4.06 4.06 0 1 0 0 3.248z"/><circle class="a" cx="4.5" cy="19.5" r="3.75"/><circle class="a" cx="19.5" cy="19.5" r="3.75"/><path class="a" d="M9 11.25h3m6 1.5l-7.5 6.75h-6l6-6 7.5-.75z"/><path class="a" d="M19.5 9.75l-2.171-.017L19.5 19.5"/></svg>