<svg xmlns="http://www.w3.org/2000/svg" viewBox="0 0 24 24" width="24" height="24"><defs><style>.a{fill:none;stroke:#000;stroke-linecap:round;stroke-linejoin:round;stroke-width:1.5px}</style></defs><title>bicycle-person</title><path class="a" d="M.75 23.25V15a.75.75 0 0 1 .75-.75h3"/><circle class="a" cx="6.75" cy="3.375" r="2.625"/><path class="a" d="M2.25 11.25a3 3 0 0 1 3-3h3a3 3 0 0 1 3 3"/><circle class="a" cx="9" cy="19.5" r="3.75"/><path class="a" d="M23.244 23.174a3.751 3.751 0 0 1 0-7.349M13.5 11.25h3m4.963 1.5L15 19.5H9l6-6 6.463-.75z"/><path class="a" d="M22.5 9.75l-2.171-.017 2.921 7.771"/></svg>