<svg id="Regular" xmlns="http://www.w3.org/2000/svg" viewBox="0 0 24 24" width="24" height="24"><defs><style>.cls-1{fill:none;stroke:#000;stroke-linecap:round;stroke-linejoin:round;stroke-width:1.5px}</style></defs><title>biking-helmet</title><path class="cls-1" d="M3.75 5.25v-1.5a1.767 1.767 0 0 1 .75-1.477C6.222 1.083 9.4.75 11.25.75c3.233 0 9.643 1.573 11.814 6.943a2.581 2.581 0 0 1-2.4 3.54L3.75 11.25a3 3 0 0 1 0-6zm1.512.372A3.367 3.367 0 0 0 3.75 5.25m19.314 2.443c-2.072-3.122-8.138-5.319-13.252-2.88M3.75 11.25l.816 2.45a3 3 0 0 0 2.846 2.05h3.838m1.5-4.5v3"/><circle class="cls-1" cx="12.75" cy="15.75" r="1.5"/><path class="cls-1" d="M5.751 15.248L9.75 11.25m8.563 11.561a1.5 1.5 0 0 1-2.122 0l-1.06-1.061a1.5 1.5 0 0 1 2.121-2.121l1.061 1.06a1.5 1.5 0 0 1 0 2.122z"/><path class="cls-1" d="M12.75 17.25l.316.631a3.06 3.06 0 0 0 1.289 1.33l.775.419"/></svg>