<svg xmlns="http://www.w3.org/2000/svg" viewBox="0 0 24 24" width="24" height="24"><path d="M12.189 18.5h-1.5c-1.408-3.808-3.67-7.082-6.5-10 0 0 3 1 8 1s8-1 8-1c-2.83 2.918-5.092 6.192-6.5 10h-1.5zM22.311 7.793c-.586.586-2.122.707-2.122.707s.121-1.535.707-2.121 1.377-.744 1.768-.354.232 1.182-.353 1.768zm0 1.414c-.586-.586-2.122-.707-2.122-.707s.121 1.535.707 2.121 1.377.744 1.768.354.232-1.182-.353-1.768zM2.067 7.793c.586.586 2.122.707 2.122.707s-.122-1.535-.707-2.121c-.586-.586-1.378-.744-1.768-.354-.39.391-.232 1.182.353 1.768zm0 1.414c.586-.586 2.122-.707 2.122-.707s-.122 1.535-.707 2.121c-.586.586-1.378.744-1.769.354-.389-.391-.231-1.182.354-1.768zM4.5 8.811l-1 5.5m16.378-5.5l1 5.5" fill="none" stroke="#000" stroke-linecap="round" stroke-linejoin="round" stroke-miterlimit="10"/><path fill="none" d="M0 0h24v24H0z"/></svg>