<svg xmlns="http://www.w3.org/2000/svg" viewBox="0 0 24 24" width="24" height="24"><defs><style>.a{fill:none;stroke:#000;stroke-linecap:round;stroke-linejoin:round;stroke-width:1.5px}</style></defs><title>bin-paper-2</title><path class="a" d="M17.38 23.25H6.62a1.5 1.5 0 0 1-1.494-1.365L3.75 6.75h16.5l-1.376 15.135a1.5 1.5 0 0 1-1.494 1.365zM4.5 15l8.25-8.25m-1.5 16.5L19.5 15M5.12 21.879L20.25 6.75M19.5 15l-8.25-8.25m1.5 16.5L4.5 15m14.38 6.879L3.75 6.75m15.35-3a3 3 0 0 0-4.267-.993 3 3 0 0 0-5.662 0A3 3 0 0 0 4.9 3.75m-2.65 3h19.5"/></svg>