<svg xmlns="http://www.w3.org/2000/svg" viewBox="0 0 24 24" width="24" height="24"><g fill="none" stroke="#000" stroke-linecap="round" stroke-linejoin="round" stroke-miterlimit="10"><circle cx="5.5" cy="17.532" r="5"/><path d="M10.5 6.032v-4c-.75-.75-2.25-.75-3 0l-1.5 4-1.5 1.5-3 7"/><circle cx="18.5" cy="17.532" r="5"/><path d="M13.5 6.032V2.095c.75-.75 2.25-.75 3 0L18 6.032l1.5 1.5 3 7M8 10.032c0-1.105 1.791-2 4-2s4 .895 4 2m-5.5 7.5V8.177m3 9.355V8.177m-11 9.355c0-1.656 1.344-3 3-3m10 3c0-1.656 1.344-3 3-3"/></g><path fill="none" d="M0 0h24v24H0z"/></svg>