<svg id="Regular" xmlns="http://www.w3.org/2000/svg" viewBox="0 0 24 24" width="24" height="24"><defs><style>.cls-1{fill:none;stroke:#000;stroke-linecap:round;stroke-linejoin:round;stroke-width:1.5px}</style></defs><title>bird</title><path class="cls-1" d="M8.457 7.1a.375.375 0 0 1 .375.375m-.75-.005a.375.375 0 0 1 .375-.37m0 .745a.375.375 0 0 1-.375-.375m.75 0a.375.375 0 0 1-.375.375m7.115-.745a.375.375 0 0 0-.375.375m.75-.005a.375.375 0 0 0-.375-.375m0 .75a.375.375 0 0 0 .375-.375m-.747 0a.375.375 0 0 0 .375.375m-.56 15.263l-.732-3.658m-5.268 3.658l.731-3.658"/><path class="cls-1" d="M12.015.75a9.461 9.461 0 0 0-9.236 11.626L.821 17.27a.792.792 0 0 0 1.012 1.03l3.518-1.319a9.476 9.476 0 0 0 13.328 0L22.2 18.3a.791.791 0 0 0 1.011-1.034l-1.961-4.89A9.461 9.461 0 0 0 12.015.75z"/><path class="cls-1" d="M8.062 12.4l3.953 3.953 3.953-3.953a5.062 5.062 0 0 0-7.906 0z"/></svg>