<svg id="Regular" xmlns="http://www.w3.org/2000/svg" viewBox="0 0 24 24" width="24" height="24"><defs><style>.cls-1{fill:none;stroke:#000;stroke-linecap:round;stroke-linejoin:round;stroke-width:1.5px}</style></defs><title>bird-cage-2</title><path class="cls-1" d="M1.288 21.2a3 3 0 0 0 2.846 2.05h15.757a3 3 0 0 0 2.846-2.05l.487-1.462a.75.75 0 0 0-.711-.987h-21a.75.75 0 0 0-.712.987zm3.225-2.45L5.864 6.584A1.5 1.5 0 0 1 7.355 5.25h9.315a1.5 1.5 0 0 1 1.491 1.334l1.352 12.166"/><path class="cls-1" d="M15.013 5.25v-1.5a3 3 0 0 0-6 0v1.5m4.5 10.5v-3.375a2.625 2.625 0 0 0-5.25 0v3.375m5.25-3l2.25 1.5m-4.875-1.5a.374.374 0 0 0-.375.375m.75 0a.375.375 0 0 0-.375-.375m0 .75a.375.375 0 0 0 .375-.375m-.75 0a.374.374 0 0 0 .375.375"/></svg>