<svg id="Regular" xmlns="http://www.w3.org/2000/svg" viewBox="0 0 24 24" width="24" height="24"><defs><style>.cls-1{fill:none;stroke:#000;stroke-linecap:round;stroke-linejoin:round;stroke-width:1.5px}</style></defs><title>bird-cage-1</title><path class="cls-1" d="M3.421 7.4a2.955 2.955 0 0 0-.037-1.283l-.943-3.735a.756.756 0 0 1 1.041-.868 8.044 8.044 0 0 0 3.1.736c2.276 0 3.034-1.5 5.31-1.5s3.034 1.5 5.309 1.5a8.044 8.044 0 0 0 3.1-.736.756.756 0 0 1 1.041.868l-.943 3.729a2.969 2.969 0 0 0-.043 1.289l2.372 12.4a3.012 3.012 0 0 1-3 3.456H4.048a3.012 3.012 0 0 1-3-3.456L3.421 7.4z"/><path class="cls-1" d="M8.514 12.75a3.75 3.75 0 1 1 7.423.756 5.238 5.238 0 0 1-10.423-.756zm2.25 5.25v2.25m5.25-7.5h2.25M12.639 12a.375.375 0 0 0-.375.375m.75 0a.375.375 0 0 0-.375-.375m0 .75a.375.375 0 0 0 .375-.375m-.75 0a.375.375 0 0 0 .375.375"/></svg>