<svg xmlns="http://www.w3.org/2000/svg" viewBox="0 0 24 24" width="24" height="24"><g fill="none" stroke="#000" stroke-linecap="round" stroke-linejoin="round" stroke-miterlimit="10"><path d="M.5 23.5h23M1.5 13v6.5c0 1.101.9 2 2 2h17c1.1 0 2-.899 2-2V13"/><path d="M1.5 13c0 1.381 1.5 2.5 2.5 2.5s2.5-1.119 2.5-2.5c0 1.521 1.5 2.75 2.75 2.75S12 14.521 12 13c0 1.521 1.5 2.75 2.75 2.75S17.5 14.521 17.5 13c0 1.381 1.5 2.5 2.5 2.5s2.5-1.119 2.5-2.5v-2.5h-21V13zM7 3a1.5 1.5 0 11-3 0C4 2.173 5.5.5 5.5.5S7 2.173 7 3zm13 0a1.5 1.5 0 11-3 0c0-.827 1.5-2.5 1.5-2.5S20 2.173 20 3zm-7 0a1.5 1.5 0 11-3 0c0-.827 1.5-2.5 1.5-2.5S13 2.173 13 3zm-2.5 3.5h2v4h-2zm-6 0h2v4h-2zm13 0h2v4h-2z"/></g><path fill="none" d="M0 0h24v24H0z"/></svg>