<svg xmlns="http://www.w3.org/2000/svg" viewBox="0 0 24 24" width="24" height="24"><g fill="none" stroke="#000" stroke-linecap="round" stroke-linejoin="round" stroke-miterlimit="10"><path d="M10.5 9.521V11.5m2-1.979V11.5m-2 6.021V19.5m2-1.979V19.5m2-6.5a1.5 1.5 0 01-1.5 1.5H9.5v-3H13a1.5 1.5 0 011.5 1.5zm0 3a1.5 1.5 0 01-1.5 1.5H9.5v-3H13a1.5 1.5 0 011.5 1.5z"/><path d="M23.5 19.5a2 2 0 01-2 2h-19a2 2 0 01-2-2v-15a2 2 0 012-2h19a2 2 0 012 2v15zm-23-12h23"/><circle cx="4" cy="5" r=".5"/><circle cx="7" cy="5" r=".5"/><circle cx="10" cy="5" r=".5"/></g><path fill="none" d="M0 0h24v24H0z"/></svg>