<svg xmlns="http://www.w3.org/2000/svg" viewBox="0 0 24 24" width="24" height="24"><path fill="none" stroke="#000" stroke-linecap="round" stroke-linejoin="round" stroke-miterlimit="10" d="M21.306 12.142c.836-2.416-1.12-4.876-3.648-4.624A5.997 5.997 0 006 9.5C2.962 9.5.5 11.978.5 15.015c0 3.038 2.462 5.515 5.5 5.515h13c2.485 0 4.5-2.029 4.5-4.515a4.515 4.515 0 00-2.194-3.873z"/><path fill="none" stroke="#000" stroke-linecap="round" stroke-linejoin="round" stroke-miterlimit="10" d="M15.5 11a1.5 1.5 0 01-1.5 1.5h-3.5v-3H14a1.5 1.5 0 011.5 1.5zm0 3a1.5 1.5 0 01-1.5 1.5h-3.5v-3H14a1.5 1.5 0 011.5 1.5zm-4-6.5v2m2-2v2m-2 6v2m2-2v2"/><path fill="none" d="M0 0h24v24H0z"/></svg>