<svg xmlns="http://www.w3.org/2000/svg" viewBox="0 0 24 24" width="24" height="24"><g fill="none" stroke="#000" stroke-linecap="round" stroke-linejoin="round" stroke-miterlimit="10"><path d="M10.5 7v1.5m2-1.5v1.5m-2 6V16m2-1.5V16m2-6a1.5 1.5 0 01-1.5 1.5H9.5v-3H13c.828 0 1.5.673 1.5 1.5zm0 3a1.5 1.5 0 01-1.5 1.5H9.5v-3H13c.828 0 1.5.673 1.5 1.5z"/><path d="M19.5 18.5c0 .55-.449 1-1 1h-13c-.55 0-1-.45-1-1v-13c0-.549.45-1 1-1h13c.551 0 1 .451 1 1v13zm-8-18v4m-4-4v4m9-4v4m-16 8h4m-4 4h4m-4-9h4m8 16v-4m4 4v-4m-9 4v-4m16-8h-4m4-4h-4m4 9h-4"/></g><path fill="none" d="M0 0h24v24H0z"/></svg>