<svg xmlns="http://www.w3.org/2000/svg" viewBox="0 0 24 24" width="24" height="24"><g fill="none" stroke="#000" stroke-linecap="round" stroke-linejoin="round" stroke-miterlimit="10"><path d="M1.5 17.5V5A1.5 1.5 0 013 3.5h18A1.5 1.5 0 0122.5 5v12.5m-8 0v1h-5v-1h-9v2a1 1 0 001 1h21a1 1 0 001-1v-2h-9zm-4-11.979V7.5m2-1.979V7.5m-2 6.021V15.5m2-1.979V15.5"/><path d="M14.5 9a1.5 1.5 0 01-1.5 1.5H9.5v-3H13A1.5 1.5 0 0114.5 9zm0 3a1.5 1.5 0 01-1.5 1.5H9.5v-3H13a1.5 1.5 0 011.5 1.5z"/></g><path fill="none" d="M0 0h24v24H0z"/></svg>