<svg xmlns="http://www.w3.org/2000/svg" viewBox="0 0 24 24" width="24" height="24"><g fill="none" stroke="#000" stroke-miterlimit="10"><g stroke-linejoin="round"><path stroke-linecap="round" d="M10.5 6.521V8.5m2-1.979V8.5m-2 6.021V16.5m2-1.979V16.5m2-6.5a1.5 1.5 0 01-1.5 1.5H9.5v-3H13a1.5 1.5 0 011.5 1.5zm0 3a1.5 1.5 0 01-1.5 1.5H9.5v-3H13a1.5 1.5 0 011.5 1.5z"/><circle cx="11.5" cy="11.5" r="7"/></g><circle stroke-linejoin="round" cx="11.5" cy="11.5" r="11"/><path d="M7.846 17.472a20.649 20.649 0 003.193 5.019m0-21.982a20.63 20.63 0 00-3.193 5.02"/><path stroke-linejoin="round" d="M2.279 5.5h5.579M.5 11.5h4m-2.801 5h4.903"/><path d="M15.154 17.472a20.649 20.649 0 01-3.193 5.019m0-21.982a20.63 20.63 0 013.193 5.02"/><path stroke-linejoin="round" d="M20.721 5.5h-5.579m7.358 6h-4m2.801 5h-4.903"/></g><path fill="none" d="M0 0h24v24H0z"/></svg>