<svg id="Regular" xmlns="http://www.w3.org/2000/svg" viewBox="0 0 24 24" width="24" height="24"><defs><style>.cls-1{fill:none;stroke:#000;stroke-linecap:round;stroke-linejoin:round;stroke-width:1.5px}</style></defs><title>blazer-1</title><path class="cls-1" d="M22.5 4.5l.713 14.964a.75.75 0 0 1-.75.786H18.75M15 .75l3 1.5c-1.324 6.149-3.073 9.371-6 10.5 0 0 3-8.25 3-12zm-6 0l-3 1.5c1.324 6.149 3.073 9.371 6 10.5 0 0-3-8.25-3-12zM1.5 4.5L.787 19.464a.75.75 0 0 0 .75.786H5.25"/><path class="cls-1" d="M6 2.25L1.5 4.5l3.75 5.25V22.5a.75.75 0 0 0 .75.75h2.25a3 3 0 0 0 2.4-1.2l1.35-1.8 1.35 1.8a3 3 0 0 0 2.4 1.2H18a.75.75 0 0 0 .75-.75V9.75L22.5 4.5 18 2.25M9 .75h6m-3 12v7.5m-3.75-3h1.5m4.5 0h1.5"/></svg>