<svg id="Regular" xmlns="http://www.w3.org/2000/svg" viewBox="0 0 24 24" width="24" height="24"><defs><style>.cls-1{fill:none;stroke:#000;stroke-linecap:round;stroke-linejoin:round;stroke-width:1.5px}</style></defs><title>blazer</title><path class="cls-1" d="M18 2.25l4.5 2.25-3.75 5.25V22.5a.75.75 0 0 1-.75.75h-2.144a3 3 0 0 1-2.5-1.336l-1.605-2.408a3 3 0 0 1-.5-1.664V12"/><path class="cls-1" d="M22.5 4.5l.713 14.964a.75.75 0 0 1-.75.786H18.75M15 .75l3 1.5c-1.324 6.15-3.823 8.621-6.75 9.75C11.25 12 15 4.5 15 .75zM1.5 4.5L.787 19.464a.75.75 0 0 0 .75.786H5.25"/><path class="cls-1" d="M6 2.25L1.5 4.5l3.75 5.25V22.5a.75.75 0 0 0 .75.75h2.144a3 3 0 0 0 2.5-1.336L12 19.875"/><path class="cls-1" d="M12 10.411C10.906 8 9 3.423 9 .75l-3 1.5c1.135 5.273 3.135 7.841 5.527 9.179M9 .75h6m-.75 14.625a.375.375 0 1 1-.375.375.375.375 0 0 1 .375-.375"/></svg>