<svg xmlns="http://www.w3.org/2000/svg" viewBox="0 0 24 24" width="24" height="24"><path fill="none" stroke="#000" stroke-linejoin="round" stroke-miterlimit="10" d="M18.5 22.5h-13l2-7h9zm-10-7l-3-12h13l-3 12z"/><path fill="none" stroke="#000" stroke-linecap="round" stroke-linejoin="round" stroke-miterlimit="10" d="M14.5 22.5v1m-5-1v1"/><path fill="none" stroke="#000" stroke-linejoin="round" stroke-miterlimit="10" d="M5.5 3.5L7 .5h10l1.5 3z"/><path fill="none" stroke="#000" stroke-linecap="round" stroke-linejoin="round" stroke-miterlimit="10" d="M18 5.5h1.5a2 2 0 012 2V12"/><circle fill="none" stroke="#000" stroke-linecap="round" stroke-linejoin="round" stroke-miterlimit="10" cx="12" cy="19.5" r="1"/><path d="M9.5 17a.5.5 0 100 1 .5.5 0 000-1zm5 0a.5.5 0 100 1 .5.5 0 000-1z"/><path fill="none" stroke="#000" stroke-linecap="round" stroke-linejoin="round" stroke-miterlimit="10" d="M10.5 15.5v-7m3 7v-7"/><path fill="none" d="M0 0h24v24H0z"/></svg>