<svg id="Regular" xmlns="http://www.w3.org/2000/svg" viewBox="0 0 24 24" width="24" height="24"><defs><style>.cls-1{fill:none;stroke:#000;stroke-linecap:round;stroke-linejoin:round;stroke-width:1.5px}</style></defs><title>blood-drop-type-ab</title><path class="cls-1" d="M19.5 9.75v-6m0 0H21a1.5 1.5 0 0 1 0 3h-1.5m0 0H21a1.5 1.5 0 0 1 0 3h-1.5m-6 0v-4.5a1.5 1.5 0 0 1 3 0v4.5m-3-2.25h3m4.406-6a6 6 0 0 0-5.812 0m0 10.5a6 6 0 0 0 5.812 0M15 16.5a6.75 6.75 0 0 1-13.5 0c0-4.871 4.448-12.212 6.123-14.8a.744.744 0 0 1 1.254 0c.228.353.507.794.82 1.3M8.25 20.25A3.75 3.75 0 0 1 4.5 16.5"/></svg>