<svg id="Regular" xmlns="http://www.w3.org/2000/svg" viewBox="0 0 24 24" width="24" height="24"><defs><style>.cls-1{fill:none;stroke:#000;stroke-linecap:round;stroke-linejoin:round;stroke-width:1.5px}</style></defs><title>blood-drop-type-o</title><path class="cls-1" d="M14.25 16.5a6.75 6.75 0 0 1-13.5 0c0-4.871 4.45-12.212 6.123-14.8a.744.744 0 0 1 1.254 0M7.5 20.25a3.75 3.75 0 0 1-3.75-3.75m13.5-12.75a1.5 1.5 0 0 0-1.5 1.5v3a1.5 1.5 0 0 0 3 0v-3a1.5 1.5 0 0 0-1.5-1.5z"/><circle class="cls-1" cx="17.25" cy="6.75" r="6"/></svg>