<svg id="Regular" xmlns="http://www.w3.org/2000/svg" viewBox="0 0 24 24" width="24" height="24"><defs><style>.cls-1{fill:none;stroke:#000;stroke-linecap:round;stroke-linejoin:round;stroke-width:1.5px}</style></defs><title>board-game-jenga</title><path class="cls-1" d="M.75 18.75h6v4.5h-5a1 1 0 0 1-1-1v-3.5zm16.414-4.5H2.25a1.5 1.5 0 0 0-1.5 1.5v3h17.366m-11.366 0h6v3.5a1 1 0 0 1-1 1h-5v-4.5zm-5-18h4a1 1 0 0 1 1 1v3.5h-6v-3.5a1 1 0 0 1 1-1zm12 0h4a1 1 0 0 1 1 1v3.5h-6v-3.5a1 1 0 0 1 1-1zm-7 9h6v4.5h-6z"/><rect class="cls-1" x="17.216" y="5.244" width="4.5" height="18.013" rx="1.5" ry="1.5" transform="rotate(-11.915 19.466 14.252)"/><path class="cls-1" d="M18.75 5.25h-18v3a1.5 1.5 0 0 0 1.5 1.5h13.965"/></svg>