<svg id="Regular" xmlns="http://www.w3.org/2000/svg" viewBox="0 0 24 24" width="24" height="24"><defs><style>.cls-1{fill:none;stroke:#000;stroke-linecap:round;stroke-linejoin:round;stroke-width:1.5px}</style></defs><title>board-game-dice-1</title><path class="cls-1" d="M8.525 3.86l7.225 2.89 7.225-2.89"/><path class="cls-1" d="M15.75 16.5a3.529 3.529 0 0 0 1.435-.3l5.174-2.3a1.5 1.5 0 0 0 .891-1.371v-7.8a1.5 1.5 0 0 0-.891-1.371l-5.174-2.3a3.528 3.528 0 0 0-2.87 0l-5.174 2.3a1.5 1.5 0 0 0-.891 1.367V7.5m0 2.636a.374.374 0 0 1 .375.375m-.75 0a.374.374 0 0 1 .375-.375m0 .75a.375.375 0 0 1-.375-.375m.75 0a.375.375 0 0 1-.375.375m4.728 3.683a.374.374 0 0 1 .375.375m-.753 0a.374.374 0 0 1 .375-.375m.003.75a.375.375 0 0 1-.375-.375m.75 0a.375.375 0 0 1-.375.375m-7.353 4.023a.375.375 0 0 1 .375.375m-.75 0a.375.375 0 0 1 .375-.375m0 .75a.375.375 0 0 1-.375-.375m.75 0a.375.375 0 0 1-.375.375M3 13.717a.375.375 0 0 1 .375.375m-.75 0A.375.375 0 0 1 3 13.717m0 .75a.375.375 0 0 1-.375-.375m.75 0a.375.375 0 0 1-.375.375m1.181 1.879a.375.375 0 0 1 .315.427m-.742-.112a.376.376 0 0 1 .427-.315m-.112.742a.376.376 0 0 1-.315-.427m.746.112a.375.375 0 0 1-.427.315m7.291 1.341a.374.374 0 0 1 .375.375m-.75-.004a.374.374 0 0 1 .375-.375m0 .754a.375.375 0 0 1-.375-.375m.75-.004a.375.375 0 0 1-.375.375M15.75 3.228a.375.375 0 0 1 .375.375m-.75-.003a.375.375 0 0 1 .375-.375m0 .753a.375.375 0 0 1-.375-.375m.75-.003a.375.375 0 0 1-.375.375m4.875 3.568a.375.375 0 0 1 .375.375m-.75 0a.375.375 0 0 1 .375-.375m0 .75a.375.375 0 0 1-.375-.375m.75 0a.375.375 0 0 1-.375.375m0 3a.375.375 0 0 1 .375.375m-.75 0a.375.375 0 0 1 .375-.375m0 .75a.375.375 0 0 1-.375-.375m.75 0a.375.375 0 0 1-.375.375M8.25 13.5v9.75"/><path class="cls-1" d="M1.025 10.61L8.25 13.5l7.225-2.89"/><path class="cls-1" d="M6.815 22.945a3.528 3.528 0 0 0 2.87 0l5.174-2.3a1.5 1.5 0 0 0 .891-1.371v-7.8a1.5 1.5 0 0 0-.891-1.371l-5.174-2.3a3.528 3.528 0 0 0-2.87 0L1.641 10.1a1.5 1.5 0 0 0-.891 1.375v7.8a1.5 1.5 0 0 0 .891 1.371z"/></svg>