<svg id="Regular" xmlns="http://www.w3.org/2000/svg" viewBox="0 0 24 24" width="24" height="24"><defs><style>.cls-1{fill:none;stroke:#000;stroke-linecap:round;stroke-linejoin:round;stroke-width:1.5px}</style></defs><title>board-game-deuce</title><rect class="cls-1" x="1.04" y="6.172" width="21.92" height="11.657" rx="1.5" ry="1.5" transform="rotate(-45 12 12)"/><path class="cls-1" d="M7.879 7.879l8.242 8.242m2.873-7.509a.374.374 0 0 1 0 .53m-.53-.53a.374.374 0 0 1 .53 0m-.53.53a.375.375 0 0 1 0-.53m.53.53a.375.375 0 0 1-.53 0m-5.136-2.076a.377.377 0 0 1 0 .531m-.528-.531a.377.377 0 0 1 .531 0M12.8 7.6a.377.377 0 0 1 0-.531m.528.531a.377.377 0 0 1-.531 0m-4.621 4.618a.375.375 0 0 1 0 .53m-.53-.53a.374.374 0 0 1 .53 0m-.53.53a.374.374 0 0 1 0-.53m.53.53a.374.374 0 0 1-.53 0m4.136 3.076a.374.374 0 0 1 0 .53m-.53-.53a.375.375 0 0 1 .53 0m-.53.53a.374.374 0 0 1 0-.53m.53.53a.374.374 0 0 1-.53 0m-6.167-1.045a.375.375 0 0 1 0 .53m-.53-.53a.374.374 0 0 1 .53 0m-.53.53a.374.374 0 0 1 0-.53m.53.53a.374.374 0 0 1-.53 0m4.136 3.076a.374.374 0 0 1 0 .53m-.53-.53a.375.375 0 0 1 .53 0m-.53.53a.374.374 0 0 1 0-.53m.53.53a.374.374 0 0 1-.53 0"/></svg>