<svg id="Regular" xmlns="http://www.w3.org/2000/svg" viewBox="0 0 24 24" width="24" height="24"><defs><style>.cls-1{fill:none;stroke:#000;stroke-linecap:round;stroke-linejoin:round;stroke-width:1.5px}</style></defs><title>board-game-dice-pawn</title><rect class="cls-1" x="1" y="12.75" width="10.5" height="10.5" rx="1" ry="1" transform="rotate(-180 6.25 18)"/><path class="cls-1" d="M4.375 15.75a.375.375 0 0 0-.375.375m.75 0a.375.375 0 0 0-.375-.375m0 .75a.375.375 0 0 0 .375-.375m-.75 0a.375.375 0 0 0 .375.375m3.75-.75a.375.375 0 0 0-.375.375m.75 0a.375.375 0 0 0-.375-.375m0 .75a.375.375 0 0 0 .375-.375m-.75 0a.375.375 0 0 0 .375.375m0 3a.375.375 0 0 0-.375.375m.75 0a.375.375 0 0 0-.375-.375m0 .75a.375.375 0 0 0 .375-.375m-.75 0a.375.375 0 0 0 .375.375m-3.75-.75a.375.375 0 0 0-.375.375m.75 0a.375.375 0 0 0-.375-.375m0 .75a.375.375 0 0 0 .375-.375m-.75 0a.375.375 0 0 0 .375.375m9.908-3.007l1.024-7.068a4.891 4.891 0 1 1 3.636 0l1.35 8.189h1.286a1.5 1.5 0 0 1 1.455 1.136l.152 1.987a1.5 1.5 0 0 1-1.477 1.763H15.25"/></svg>