<svg xmlns="http://www.w3.org/2000/svg" viewBox="0 0 24 24" width="24" height="24"><g fill="none" stroke="#000" stroke-linejoin="round" stroke-miterlimit="10"><path stroke-linecap="round" d="M3.349 20.493C1.601 19.084.5 17.02.5 14.495h6c1.381 0 2.5.619 2.5 2.005h14.5a5.968 5.968 0 01-1.5 3.963"/><path stroke-linecap="round" d="M6.5 14.495v-6h5c1.381 0 2.5 1.619 2.5 3h6.5v5"/><path stroke-linecap="round" d="M8.5 8.495v-4h5v5m-5-3h5m9.5-5.5c-.425 1.455-1.908 2.5-3.5 2.5a3.491 3.491 0 01-2.501-1.051C16.396 1.828 15.989.995 15 .995a2 2 0 00-2 2m-2.5 0c0-.817.393-1.544 1-2m9 10.5h1M7.247 21.746a2.647 2.647 0 01-2.251 1.249 2.648 2.648 0 01-2.253-1.254"/><path stroke-linecap="round" d="M11.747 21.746a2.647 2.647 0 01-2.251 1.249 2.648 2.648 0 01-2.253-1.254"/><path stroke-linecap="round" d="M16.243 21.746a2.647 2.647 0 01-2.251 1.249 2.648 2.648 0 01-2.253-1.254"/><path stroke-linecap="round" d="M20.743 21.746a2.647 2.647 0 01-2.251 1.249 2.648 2.648 0 01-2.253-1.254m6.757 1.254a2.648 2.648 0 01-2.253-1.254m-17.992.005A2.647 2.647 0 01.5 22.995m6-10.5h4v-2h-4m9 1v2h5m-2 .005v-2"/><path d="M1.591 18.5h21.566"/></g><path fill="none" d="M0 0h24v24H0z"/></svg>