<svg xmlns="http://www.w3.org/2000/svg" viewBox="0 0 24 24" width="24" height="24"><g fill="none" stroke="#000" stroke-linecap="round" stroke-linejoin="round" stroke-miterlimit="10"><path d="M1.501 21.497A4.976 4.976 0 01.5 18.495h23a4.974 4.974 0 01-1 3m1-3v-12.5a2.5 2.5 0 00-2.5-2.5h-2.5v15"/><path d="M18.5 5.495H22V8.5h-3.5m5-2.5V1.495m-22 13h17m-8-4v8m4-4v4m-9-8v4m1.747 7.751a2.647 2.647 0 01-2.251 1.249 2.648 2.648 0 01-2.253-1.254"/><path d="M11.747 22.246a2.647 2.647 0 01-2.251 1.249 2.648 2.648 0 01-2.253-1.254"/><path d="M16.243 22.246a2.647 2.647 0 01-2.251 1.249 2.648 2.648 0 01-2.253-1.254"/><path d="M20.743 22.246a2.647 2.647 0 01-2.251 1.249 2.648 2.648 0 01-2.253-1.254m6.757 1.254a2.648 2.648 0 01-2.253-1.254m-17.992.005A2.647 2.647 0 01.5 23.495M8 .995L8.009 5.8m-.738 1.695a1.008 1.008 0 111.747-.686c0 .257-.097.492-.255.671"/><path d="M1.5 18.495v-8h17v-.5L8.828.617a.5.5 0 00-.682.732l6.354 9.146"/></g><path fill="none" d="M0 0h24v24H0z"/></svg>