<svg xmlns="http://www.w3.org/2000/svg" viewBox="0 0 24 24" width="24" height="24"><g fill="none" stroke="#000" stroke-linejoin="round" stroke-miterlimit="10"><path d="M20.77 20.912l2.73-5.394h-20l-2 6"/><path d="M16 8.518L4.155 8.5l-2.593 3.018H6.5l-1 4h16z"/><path d="M17.5 10.518h-8l3 3H20"/><path stroke-linecap="round" d="M13 8.518l-4-4M.5 21.5c2.451.521 4.5-2 4.5-2s1.159 1.979 3.493 1.979C10.928 21.479 12 19.5 12 19.5s1.058 1.979 3.493 1.979C17.828 21.479 19 19.5 19 19.5s2.049 2.521 4.5 2v2H.5v-2z"/></g><path fill="none" d="M0 0h24v24H0z"/></svg>