<svg xmlns="http://www.w3.org/2000/svg" viewBox="0 0 24 24" width="24" height="24"><g fill="none" stroke="#000" stroke-linejoin="round" stroke-miterlimit="10"><path d="M2.929 21.16C2.015 19.837 1.281 18.182 1 16.528l22-.011c-.28 1.659-.967 3.253-1.884 4.58M11.5 16.486l-9.969-3.937L11.5.643zm2 0l6.968-3.937L13.5 3.643z"/><path stroke-linecap="round" d="M.5 21.5c2.451.521 4.5-2 4.5-2s1.159 1.979 3.493 1.979C10.928 21.479 12 19.5 12 19.5s1.058 1.979 3.493 1.979C17.828 21.479 19 19.5 19 19.5s2.049 2.521 4.5 2v2H.5v-2z"/></g><path fill="none" d="M0 0h24v24H0z"/></svg>