<svg xmlns="http://www.w3.org/2000/svg" viewBox="0 0 24 24" width="24" height="24"><path d="M21.5 23.5c-1 0-2-.895-2-2 0 1.105-1 2-2 2s-2-.895-2-2c0 1.105-1 2-2 2s-2-.895-2-2c0 1.105-1 2-2 2s-2-.895-2-2c0 1.105-1 2-2 2s-2-.895-2-2c0 1.105-1 2-2 2m20-4c-1 0-2-.895-2-2 0 1.105-1 2-2 2s-2-.895-2-2c0 1.105-1 2-2 2s-2-.895-2-2c0 1.105-1 2-2 2s-2-.895-2-2c0 1.105-1 2-2 2s-2-.895-2-2c0 1.105-1 2-2 2m16-4c1-.5 1.5-2 1.5-3H3c0 1.075.5 2.5 1.683 3m5.817-3V.5m7 9h-7V1zm-7 0h8" fill="none" stroke="#000" stroke-linecap="round" stroke-linejoin="round" stroke-miterlimit="10"/><path fill="none" d="M0 0h24v24H0z"/></svg>