<svg xmlns="http://www.w3.org/2000/svg" viewBox="0 0 24 24" width="24" height="24"><g fill="none" stroke="#000" stroke-linejoin="round" stroke-miterlimit="10"><path stroke-linecap="round" d="M2 2.5h19"/><path d="M14.934 21.454L18 16.5l-6.5-2-6.5 2 3.099 4.942M4 2.5h15l2 9c-5.492 1.341-13.158 1.326-19 0l2-9z"/><path stroke-linecap="round" d="M11.5 14.5v-2m0-10.018v-2M.5 21.5c2.451.521 4.5-2 4.5-2s1.159 1.979 3.493 1.979C10.928 21.479 12 19.5 12 19.5s1.058 1.979 3.493 1.979C17.828 21.479 19 19.5 19 19.5s2.049 2.521 4.5 2v2H.5v-2z"/></g><path fill="none" d="M0 0h24v24H0z"/></svg>