<svg xmlns="http://www.w3.org/2000/svg" viewBox="0 0 24 24" width="24" height="24"><g fill="none" stroke="#000" stroke-linejoin="round" stroke-miterlimit="10"><path stroke-linecap="round" d="M20.008 23.246c-.729.463-2.008.147-2.008-.853 0-1.5-2.5-1.5-2.5 0s-2.5 1.5-2.5 0-2.5-1.5-2.5 0-2.5 1.5-2.5 0-2.5-1.5-2.5 0c0 1-1.277 1.347-2.006.886m8.006-1.991V9.393m-8.5 2l8.5-2 8.5 2"/><path d="M4 11.157l2.536 10.125M19 11.157l-2.528 10.137"/><path stroke-linecap="round" d="M5.5 10.805V7.518c0-1.1.9-2 2-2h8c1.1 0 2 .9 2 2v3.287M9 7.5h5m-4.5-2v-5h4v5m-4-2h4M4.816 14.467l6.684-2.074 6.649 2.052"/></g><path fill="none" d="M0 0h24v24H0z"/></svg>