<svg xmlns="http://www.w3.org/2000/svg" viewBox="0 0 24 24" width="24" height="24"><g fill="none" stroke="#000" stroke-linecap="round" stroke-linejoin="round" stroke-miterlimit="10"><path d="M1.629 19.999A5.967 5.967 0 01.5 16.495h23a5.966 5.966 0 01-1.126 3.5m-.874-3.5v-5c0-1.656-1.344-3-3-3h-2v8"/><path d="M16.5 11.5h3v1.995h-3M2.5 16.5v-2h4v2m6-.005v-9h-9m1 2.005v.5m0 2v.5M8 7.495a4.5 4.5 0 014.5 4.5M14 4.241a1.5 1.5 0 011.5 1.5m0 0a1.5 1.5 0 011.5-1.5m1.1-1.797c1.268 0 2.324.898 2.567 2.093M23.5 2.241a2.885 2.885 0 00-2.824 2.296M7.251 21.5a2.65 2.65 0 01-4.504-.005m9.004.005a2.65 2.65 0 01-4.504-.005m9 .005a2.65 2.65 0 01-4.504-.005m9.004.005a2.65 2.65 0 01-4.504-.005M23 22.75c-.95 0-1.785-.502-2.253-1.255M2.755 21.5a2.65 2.65 0 01-2.251 1.25"/></g><path fill="none" d="M0 0h24v24H0z"/></svg>