<svg xmlns="http://www.w3.org/2000/svg" viewBox="0 0 24 24" width="24" height="24"><g fill="none" stroke="#000" stroke-linecap="round" stroke-linejoin="round" stroke-miterlimit="10"><path d="M1.624 19.994A5.98 5.98 0 01.5 16.495h23a5.97 5.97 0 01-1.126 3.5M3.5 16.495v-5h17v5m-14-5v-5h4v5m-4-3h4m3 3v-5h4v5m-4-3H17m-8-4a2 2 0 012-2m1.5-1.5a1.5 1.5 0 01-1.5 1.5m4 2a2 2 0 012-2m1.5-1.5a1.5 1.5 0 01-1.5 1.5M7.255 21.246a2.647 2.647 0 01-2.251 1.249 2.648 2.648 0 01-2.253-1.254"/><path d="M11.755 21.246a2.647 2.647 0 01-2.251 1.249 2.648 2.648 0 01-2.253-1.254"/><path d="M16.251 21.246A2.647 2.647 0 0114 22.495a2.648 2.648 0 01-2.253-1.254"/><path d="M20.751 21.246a2.647 2.647 0 01-2.251 1.249 2.648 2.648 0 01-2.253-1.254m6.757 1.254a2.648 2.648 0 01-2.253-1.254m-17.992.005a2.647 2.647 0 01-2.251 1.249M6.5 14.5H8m3.5 0H13m3 0h1.5"/></g><path fill="none" d="M0 0h24v24H0z"/></svg>