<svg xmlns="http://www.w3.org/2000/svg" viewBox="0 0 24 24" width="24" height="24"><g fill="none" stroke="#000" stroke-linecap="round" stroke-linejoin="round" stroke-miterlimit="10"><path d="M16 14.495c0-2.221-.966-4.627-2.5-6H.5"/><path d="M20.5 20.496a7.488 7.488 0 003-6.001H12c0 1.5-1 3-2.5 3h-9"/><circle cx="3" cy="11.995" r="1.5"/><circle cx="9" cy="11.995" r="1.5"/><path d="M11.833 15.495H.5m1.5 0v2m2.5-2v2m2.5-2v2m2.5-2v2m-6-9v-4h2v4m3 .005V4.495h2v4M.5.86a2.256 2.256 0 001.7.769c.47 0 .905-.143 1.267-.388l.417-.282A3.382 3.382 0 015.6.495c1.709 0 2.9 1 3.4 2.5M7.251 21.746A2.647 2.647 0 015 22.995a2.648 2.648 0 01-2.253-1.254"/><path d="M11.751 21.746A2.647 2.647 0 019.5 22.995a2.648 2.648 0 01-2.253-1.254"/><path d="M16.247 21.746a2.647 2.647 0 01-2.251 1.249 2.648 2.648 0 01-2.253-1.254"/><path d="M20.747 21.746a2.647 2.647 0 01-2.251 1.249 2.648 2.648 0 01-2.253-1.254M23 22.995a2.648 2.648 0 01-2.253-1.254m-17.992.005a2.647 2.647 0 01-2.251 1.249"/></g><path fill="none" d="M0 0h24v24H0z"/></svg>