<svg id="Regular" xmlns="http://www.w3.org/2000/svg" viewBox="0 0 24 24" width="24" height="24"><defs><style>.cls-1{fill:none;stroke:#000;stroke-linecap:round;stroke-linejoin:round;stroke-width:1.5px}</style></defs><title>body-care-toothbrush-paste</title><path class="cls-1" d="M11 20.25H3.5v1.5a1.5 1.5 0 0 0 1.5 1.5h4.5a1.5 1.5 0 0 0 1.5-1.5zm0 0H3.5L.768 2.478A1.5 1.5 0 0 1 2.25.75h10a1.5 1.5 0 0 1 1.482 1.728zm-9.806-15H13.31M20 21.75a1.5 1.5 0 0 0 3 0V2.25a1.5 1.5 0 0 0-3 0zm-4.498-1.5h4.5m-4.5-3h4.5m-4.5-3h4.5"/></svg>