<svg id="Regular" xmlns="http://www.w3.org/2000/svg" viewBox="0 0 24 24" width="24" height="24"><defs><style>.cls-1{fill:none;stroke:#000;stroke-linecap:round;stroke-linejoin:round;stroke-width:1.5px}</style></defs><title>body-care-snail</title><path class="cls-1" d="M7.057 19.9a5.81 5.81 0 0 1 5.231-8.3c7.438 0 7.729 11.558.466 9.371a3.379 3.379 0 0 1-2.326-4.171A2.621 2.621 0 0 1 12 15.116"/><path class="cls-1" d="M17.4 19.7a7.882 7.882 0 0 1 5.85 3.55H7.067c-4.041 0-3.991-2.822-6.317-10.5a3 3 0 0 1 3-3 3 3 0 0 1 2.6 1.507m9.4-6.757h7.5M19.5.75v7.5M9 6.75h4.5M11.25 4.5V9m-7.5.75a3 3 0 0 0-3-3"/></svg>