<svg id="Regular" xmlns="http://www.w3.org/2000/svg" viewBox="0 0 24 24" width="24" height="24"><defs><style>.cls-1{fill:none;stroke:#000;stroke-linecap:round;stroke-linejoin:round;stroke-width:1.5px}</style></defs><title>body-care-soap</title><path class="cls-1" d="M11.227 20.25h-4.5a3 3 0 0 1-3-3v-7.5a3 3 0 0 1 3-3h6a3 3 0 0 1 3 3v.75m-12-8.25l.622-.621A3 3 0 0 1 6.47.75h7.007m-.75 6h-6v-1.5a1.5 1.5 0 0 1 1.5-1.5h3a1.5 1.5 0 0 1 1.5 1.5zm-3-3v-3m12 18.794a3.75 3.75 0 0 1-7.5 0c0-2.47 3.125-6.794 3.75-6.794s3.75 4.324 3.75 6.794z"/></svg>