<svg id="Regular" xmlns="http://www.w3.org/2000/svg" viewBox="0 0 24 24" width="24" height="24"><defs><style>.cls-1{fill:none;stroke:#000;stroke-linecap:round;stroke-linejoin:round;stroke-width:1.5px}</style></defs><title>body-care-sun-cream</title><path class="cls-1" d="M9.75 20.25h-6a108.391 108.391 0 0 1-3-18.714A.751.751 0 0 1 1.5.75H12a.752.752 0 0 1 .749.786A108.391 108.391 0 0 1 9.75 20.25zm0 0v2.25a.75.75 0 0 1-.75.75H4.5a.75.75 0 0 1-.75-.75v-2.25M1.219 6.75h11.063M2.019 12h9.462m4.269-7.5a3.75 3.75 0 1 1-1.5 7.19M15.75.75v1.5m5.303.697l-1.06 1.06M23.25 8.25h-1.5m-.697 5.303l-1.06-1.06M15.75 15.75v-1.5"/></svg>