<svg id="Regular" xmlns="http://www.w3.org/2000/svg" viewBox="0 0 24 24" width="24" height="24"><defs><style>.cls-1{fill:none;stroke:#000;stroke-linecap:round;stroke-linejoin:round;stroke-width:1.5px}</style></defs><title>body-care-sun-lotion</title><path class="cls-1" d="M15.75.749v1.5m5.303.697l-1.06 1.061m3.257 4.242h-1.5m-.697 5.304l-1.06-1.061m-4.243 3.257v-1.5"/><rect class="cls-1" x=".75" y="9.751" width="12" height="13.5" rx="3" ry="3"/><path class="cls-1" d="M.75 5.251l.621-.622a3 3 0 0 1 2.122-.878H10.5m-.75 6h-6v-1.5a1.5 1.5 0 0 1 1.5-1.5h3a1.5 1.5 0 0 1 1.5 1.5zm-3-3v-3m6 2.249a3.75 3.75 0 1 1 3 6"/></svg>