<svg xmlns="http://www.w3.org/2000/svg" viewBox="0 0 24 24" width="24" height="24"><g fill="none" stroke="#000" stroke-linejoin="round" stroke-miterlimit="10"><path d="M20.326 13.5c.027-.329.041-1.662.041-2 0-5.522-3.582-11-8-11s-8 5.478-8 11c0 .338.014 1.671.039 2h15.92z"/><path stroke-linecap="round" d="M12.367 3.126c-2.719 0-4.924 3.558-4.924 6.956M3.867 23.5h17a2 2 0 00-2-2h-2.008c2.547-1.81 4.396-5.098 4.875-8H3c.479 2.902 2.328 6.19 4.875 8H5.867a2 2 0 00-2 2zm4.008-2h8.992"/></g><path fill="none" d="M0 0h24v24H0z"/></svg>