<svg xmlns="http://www.w3.org/2000/svg" viewBox="0 0 24 24" width="24" height="24"><defs><style>.a{fill:none;stroke:#000;stroke-linecap:round;stroke-linejoin:round;stroke-width:1.5px}</style></defs><title>bomb-rocket-1</title><path class="a" d="M13.5 3.75h-3a3 3 0 0 0-3 3v10.886a4.5 4.5 0 0 0 1.318 3.182L12 23.25l3.182-2.432a4.5 4.5 0 0 0 1.318-3.182V6.75a3 3 0 0 0-3-3z"/><path class="a" d="M8 19.688a11.829 11.829 0 0 1 4-.938 11.829 11.829 0 0 1 4 .938M7.5 7.5V2.25L4.029.8A.75.75 0 0 0 3 1.5v3.635a.751.751 0 0 0 .471.7zm9 0V2.25L19.971.8A.75.75 0 0 1 21 1.5v3.635a.751.751 0 0 1-.471.7zm-4.5.75V.75"/></svg>