<svg xmlns="http://www.w3.org/2000/svg" viewBox="0 0 24 24" width="24" height="24"><defs><style>.a{fill:none;stroke:#000;stroke-linecap:round;stroke-linejoin:round;stroke-width:1.5px}</style></defs><title>bomb-fire-bottle</title><path class="a" d="M21 10.421a3.525 3.525 0 0 0 2.243-3.2 5.669 5.669 0 0 0-4.214-5.971 3.742 3.742 0 0 1 .379 4.263 1.332 1.332 0 0 1-1.421-1.137 2.493 2.493 0 0 0-1.258 1.338m-1.394 7.18l2.888-2.023-1.455-2.078-2.889 2.024a3.17 3.17 0 0 1-2.8.416 3.168 3.168 0 0 0-2.8.417l-6.988 4.888a1.269 1.269 0 0 0-.311 1.767l2.91 4.154a1.267 1.267 0 0 0 1.766.311l6.979-4.888a3.175 3.175 0 0 0 1.35-2.494 3.169 3.169 0 0 1 1.35-2.494z"/><path class="a" d="M7.523 12.173l4.365 6.233-4.155 2.91-4.365-6.232z"/></svg>