<svg xmlns="http://www.w3.org/2000/svg" viewBox="0 0 24 24" width="24" height="24"><g fill="none" stroke="#000" stroke-linecap="round" stroke-linejoin="round" stroke-miterlimit="10"><path d="M.5 17.25a6.25 6.25 0 006.25 6.25h6.5a6.25 6.25 0 006.25-6.25V6.5a5 5 0 00-5 5v-8a6 6 0 00-6 6v-6a8 8 0 00-8 8v5.75z"/><path d="M11.5 17.5a4 4 0 01-8 0h8zm-7-5v3m5-3v3m1-13.5C11 1 11.961.5 13 .5h1.5m2.5 2c.5-1 1.461-1.5 2.5-1.5H21m-1.5 4c.5-1 1.461-1.5 2.5-1.5h1.5"/></g><path fill="none" d="M0 0h24v24H0z"/></svg>