<svg xmlns="http://www.w3.org/2000/svg" viewBox="0 0 24 24" width="24" height="24"><defs><style>.a{fill:none;stroke:#000;stroke-linecap:round;stroke-linejoin:round;stroke-width:1.5px}</style></defs><title>bomb-explosive-belt</title><ellipse class="a" cx="5.75" cy="5.25" rx="3" ry="2.25"/><path class="a" d="M20.75 14.25c0 1.243-1.343 2.25-3 2.25h-12c-1.657 0-3-1.007-3-2.25m18-3.75c0 1.243-1.343 2.25-3 2.25h-12c-1.657 0-3-1.007-3-2.25"/><ellipse class="a" cx="11.75" cy="5.25" rx="3" ry="2.25"/><ellipse class="a" cx="17.75" cy="5.25" rx="3" ry="2.25"/><path class="a" d="M5.75 4.5V.75m6 3.75V.75m6 3.75V.75m-15 4.5V21c0 1.243 1.343 2.25 3 2.25s3-1.007 3-2.25c0 1.243 1.343 2.25 3 2.25s3-1.007 3-2.25c0 1.243 1.343 2.25 3 2.25s3-1.007 3-2.25V5.25m-12 0v7.5m0 3.75V21m6 0v-4.5m0-3.75V6"/></svg>