<svg xmlns="http://www.w3.org/2000/svg" viewBox="0 0 24 24" width="24" height="24"><g fill="none" stroke="#000" stroke-linejoin="round" stroke-miterlimit="10"><path d="M12.213 14.423l-2.931 2.931c.02-.02.225.136.345.257 1.159 1.158 1.139 3.016-.021 4.175-1.158 1.159-3.059 1.138-4.218-.021a2.952 2.952 0 01-.801-2.684 2.926 2.926 0 01-2.676-.795c-1.159-1.158-1.133-3.011.025-4.17 1.158-1.158 3.09-1.106 4.249.053.121.121.43.479.41.499l2.931-2.931.582 1.998 2.105.688zm4.115-1.989l2.186-3.756c-.014.024.188.182.336.268 1.416.824 3.203.327 4.027-1.09.824-1.416.329-3.241-1.088-4.065a2.976 2.976 0 00-2.813-.098 2.97 2.97 0 00-5.531-1.325c-.825 1.416-.218 3.307 1.199 4.131.147.086.572.293.587.269l-2.187 3.756 2.054.099 1.23 1.811z"/><path stroke-linecap="round" d="M7.5 9.5h-2m5-3v-2M8.309 7.192L6.692 6.015M18.5 14.5h2m-5 3v2m2.192-2.692l1.617 1.177"/></g><path fill="none" d="M0 0h24v24H0z"/></svg>