<svg xmlns="http://www.w3.org/2000/svg" viewBox="0 0 24 24" width="24" height="24"><defs><style>.a{fill:none;stroke:#000;stroke-linecap:round;stroke-linejoin:round;stroke-width:1.5px}</style></defs><title>book-library-shelf</title><path class="a" d="M8.25 19.5a3.75 3.75 0 0 1-7.5 0V6.75m15 12.75a3.75 3.75 0 0 1-7.5 0m15-12.75V19.5a3.75 3.75 0 0 1-7.5 0"/><path class="a" d="M8.25 6.75a3.75 3.75 0 0 1-7.5 0v-6m15 6a3.75 3.75 0 0 1-7.5 0m15-6v6a3.75 3.75 0 0 1-7.5 0M4.5.75V7.5M12 .75V7.5M19.5.75V7.5m-11.25 12V.75m7.5 18.75V.75"/></svg>