<svg xmlns="http://www.w3.org/2000/svg" viewBox="0 0 24 24" width="24" height="24"><defs><style>.a{fill:none;stroke:#000;stroke-linecap:round;stroke-linejoin:round;stroke-width:1.5px}</style></defs><title>book-next-page</title><path class="a" d="M18.752 19.579C13.639 20.305 12 22.125 12 22.125V4.712S9.545 1.985 1.268 1.875a.506.506 0 0 0-.366.15.522.522 0 0 0-.152.369v16.375a.515.515 0 0 0 .5.519C9.543 19.4 12 22.125 12 22.125m0-17.413s2.455-2.727 10.732-2.837a.506.506 0 0 1 .366.15.522.522 0 0 1 .152.369v12.231m-4.5 4.939v-4.39a.557.557 0 0 1 .563-.549h3.937z"/></svg>