<svg xmlns="http://www.w3.org/2000/svg" viewBox="0 0 24 24" width="24" height="24"><defs><style>.a{fill:none;stroke:#000;stroke-linecap:round;stroke-linejoin:round;stroke-width:1.5px}</style></defs><title>book-star</title><path class="a" d="M9 23.25H3.75A2.25 2.25 0 0 1 1.5 21m18-12V1.5a.75.75 0 0 0-.75-.75H4.5a3 3 0 0 0-3 3V21a2.25 2.25 0 0 1 2.25-2.25H9"/><path class="a" d="M17.2 11.68L18.738 15h3a.735.735 0 0 1 .518 1.283l-2.6 2.563 1.444 3.316a.786.786 0 0 1-1.119.982l-3.491-1.961L13 23.144a.786.786 0 0 1-1.119-.982l1.443-3.313-2.6-2.563A.734.734 0 0 1 11.238 15h3l1.544-3.323a.8.8 0 0 1 1.418.003z"/></svg>