<svg xmlns="http://www.w3.org/2000/svg" viewBox="0 0 24 24" width="24" height="24"><defs><style>.a{fill:none;stroke:#000;stroke-linecap:round;stroke-linejoin:round;stroke-width:1.5px}</style></defs><title>book-open-1</title><path class="a" d="M12 4.57A22.371 22.371 0 0 0 1.285 1.293a.514.514 0 0 0-.376.141.507.507 0 0 0-.159.366v16.742a.512.512 0 0 0 .49.511 13.062 13.062 0 0 1 9.781 2.559 1.954 1.954 0 0 0 .98.135"/><path class="a" d="M12 4.57a22.371 22.371 0 0 1 10.715-3.277.514.514 0 0 1 .376.141.507.507 0 0 1 .159.369v16.739a.512.512 0 0 1-.49.511 13.062 13.062 0 0 0-9.781 2.559 1.954 1.954 0 0 1-.98.135M12 4.57v17.187"/><path class="a" d="M2.25 18.974V22.2a.511.511 0 0 0 .623.5A44.739 44.739 0 0 1 12 21.758a39.581 39.581 0 0 1 8.582.937.513.513 0 0 0 .623-.5v-3.237"/></svg>