<svg xmlns="http://www.w3.org/2000/svg" viewBox="0 0 24 24" width="24" height="24"><path d="M11.5 5c0-1.934 5.148-3.5 11-3.5V18c-5.852 0-11 1.566-11 3.5 0-1.934-5.149-3.5-11-3.5V1.5c5.851 0 11 1.566 11 3.5zm0 0v16.375M9 7.24C7.39 6.624 5.113 6.177 2.5 6M9 10.24C7.39 9.624 5.113 9.177 2.5 9M9 13.24c-1.61-.616-3.887-1.063-6.5-1.24M9 16.24c-1.61-.616-3.887-1.063-6.5-1.24M14 7.24c1.61-.617 3.887-1.063 6.5-1.24M14 10.24c1.61-.617 3.887-1.063 6.5-1.24M14 13.24c1.61-.617 3.887-1.063 6.5-1.24M14 16.24c1.61-.617 3.887-1.063 6.5-1.24" fill="none" stroke="#000" stroke-linecap="round" stroke-linejoin="round" stroke-miterlimit="10"/><path fill="none" d="M0 0h24v24H0z"/></svg>