<svg xmlns="http://www.w3.org/2000/svg" viewBox="0 0 24 24" width="24" height="24"><defs><style>.a{fill:none;stroke:#000;stroke-linecap:round;stroke-linejoin:round;stroke-width:1.5px}</style></defs><title>book-pin</title><path class="a" d="M13.875 23.25h-10.5A2.25 2.25 0 0 1 1.125 21m18-12.75V1.5a.75.75 0 0 0-.75-.75H4.125a3 3 0 0 0-3 3V21a2.25 2.25 0 0 1 2.25-2.25h7.5m7.5-3.301a.375.375 0 1 0 .375.375.375.375 0 0 0-.375-.375"/><path class="a" d="M18.375 11.324a4.5 4.5 0 0 1 4.5 4.5c0 1.921-2.688 5.576-3.909 7.138a.75.75 0 0 1-1.182 0c-1.221-1.561-3.909-5.217-3.909-7.138a4.5 4.5 0 0 1 4.5-4.5z"/></svg>