<svg xmlns="http://www.w3.org/2000/svg" viewBox="0 0 24 24" width="24" height="24"><defs><style>.a{fill:none;stroke:#000;stroke-linecap:round;stroke-linejoin:round;stroke-width:1.5px}</style></defs><title>book-bookmark</title><path class="a" d="M12 4.057v17.682m3.49-18.555a16.546 16.546 0 0 0-2.947.782 1.61 1.61 0 0 1-1.085 0 13.881 13.881 0 0 0-9.587-.2A1.607 1.607 0 0 0 .75 5.3v14.337A1.607 1.607 0 0 0 2.756 21.2a13.663 13.663 0 0 1 8.7.448 1.6 1.6 0 0 0 1.085 0 13.66 13.66 0 0 1 8.7-.448 1.608 1.608 0 0 0 2.006-1.559V5.3a1.607 1.607 0 0 0-1.118-1.53 16.908 16.908 0 0 0-2.365-.576"/><path class="a" d="M19.875 11.261l-2.25-2.25-2.25 2.25v-7.5a1.5 1.5 0 0 1 1.5-1.5h1.5a1.5 1.5 0 0 1 1.5 1.5z"/></svg>