<svg xmlns="http://www.w3.org/2000/svg" viewBox="0 0 24 24" width="24" height="24"><defs><style>.a{fill:none;stroke:#000;stroke-linecap:round;stroke-linejoin:round;stroke-width:1.5px}</style></defs><title>bookmarks-document</title><path class="a" d="M5.25 2.249h-3a1.5 1.5 0 0 0-1.5 1.5v18a1.5 1.5 0 0 0 1.5 1.5h19.5a1.5 1.5 0 0 0 1.5-1.5v-18a1.5 1.5 0 0 0-1.5-1.5h-10.5"/><path class="a" d="M11.25 11.249L8.25 9l-3 2.25V1.5A.75.75 0 0 1 6 .749h4.5a.75.75 0 0 1 .75.75zm-6 7.5h10.5m-10.5-4.5h13.5m0-4.5h-4.5"/></svg>