<svg xmlns="http://www.w3.org/2000/svg" viewBox="0 0 24 24" width="24" height="24"><defs><style>.a{fill:none;stroke:#000;stroke-linecap:round;stroke-linejoin:round;stroke-width:1.5px}</style></defs><title>book-flip-page</title><path class="a" d="M18 4.144a31.156 31.156 0 0 1 4.732-.394.517.517 0 0 1 .366.144.5.5 0 0 1 .152.356v15.768a.505.505 0 0 1-.5.5C14.457 20.621 12 23.25 12 23.25V6.482S9.545 3.856 1.268 3.75a.517.517 0 0 0-.368.144.5.5 0 0 0-.15.356v15.768a.505.505 0 0 0 .5.5C9.543 20.621 12 23.25 12 23.25"/><path class="a" d="M12 22.757a6.035 6.035 0 0 1 1.636-3.448A8.228 8.228 0 0 1 18 16.846V1.243a.481.481 0 0 0-.228-.4.6.6 0 0 0-.494-.066 7.8 7.8 0 0 0-3.642 2.277A6.035 6.035 0 0 0 12 6.5"/></svg>