<svg xmlns="http://www.w3.org/2000/svg" viewBox="0 0 24 24" width="24" height="24"><g fill="none" stroke="#000" stroke-linejoin="round" stroke-miterlimit="10"><path d="M16.758 1.615a2 2 0 00-2.829 0l-2.121 2.121a5.967 5.967 0 00-1.748 4.475c.068 1.709-.456 3.387-1.666 4.596L2.691 18.51c-.705.705-.877 1.839-.294 2.647a2 2 0 003.046.257l5.779-5.778c1.209-1.21 2.887-1.734 4.596-1.666a5.973 5.973 0 004.475-1.748l2.121-2.121a2 2 0 000-2.829l-5.656-5.657z"/><path d="M16.051 3.736a1 1 0 00-1.415 0L13.222 5.15a3.993 3.993 0 00-.926 4.176l1.633-.64 1.414 1.414-.64 1.633a3.99 3.99 0 004.176-.926l1.414-1.414a.999.999 0 000-1.414l-4.242-4.243z"/></g><path d="M4.029 19.5a.5.5 0 100 .999.5.5 0 000-.999z"/><path fill="none" d="M0 0h24v24H0z"/></svg>