<svg xmlns="http://www.w3.org/2000/svg" viewBox="0 0 24 24" width="24" height="24"><path fill="none" stroke="#000" stroke-linejoin="round" stroke-miterlimit="10" d="M6.76 23.503H3.567c-5.404-5.5-2.404-10.5-.53-13.804.414-.729.136-1.79-.01-2.58-.35-1.905-.863-6.116 2.137-6.116S7.65 5.21 7.299 7.112C7.151 7.91 6.876 8.97 7.29 9.7c1.874 3.303 4.874 8.303-.53 13.803zm-3.836-17h4.477m-4.273 3h4.07"/><path fill="none" stroke="#000" stroke-linecap="round" stroke-linejoin="round" stroke-miterlimit="10" d="M10.137 10.437a7.5 7.5 0 0112.526 5.566 7.5 7.5 0 01-12 6.001"/><circle fill="none" stroke="#000" stroke-linecap="round" stroke-linejoin="round" stroke-miterlimit="10" cx="14.164" cy="12.003" r="1"/><circle fill="none" stroke="#000" stroke-linecap="round" stroke-linejoin="round" stroke-miterlimit="10" cx="18.164" cy="13.003" r="1"/><circle fill="none" stroke="#000" stroke-linecap="round" stroke-linejoin="round" stroke-miterlimit="10" cx="15.164" cy="16.003" r="1"/><path fill="none" d="M0 0h24v24H0z"/></svg>