<svg xmlns="http://www.w3.org/2000/svg" viewBox="0 0 24 24" width="24" height="24"><g fill="none" stroke="#000" stroke-linecap="round" stroke-linejoin="round" stroke-miterlimit="10"><path d="M14.5 13.614c0 .553-.448.887-1 .887h-3c-.553 0-1-.334-1-.887V9.613c0-.551.447-1.112 1-1.112h3c.552 0 1 .562 1 1.112v4.001z"/><path d="M14.389 9.157l7.794-2.604a1 1 0 011.317.949v8.224a1.001 1.001 0 01-1.317.949l-7.794-2.605M9.613 9.15L1.815 6.553a.99.99 0 00-.9.138.994.994 0 00-.415.811v8.224a.997.997 0 001.315.949l7.798-2.6M7.5 11.501h2m7 0h-2"/></g><path fill="none" d="M0 0h24v24H0z"/></svg>