<svg xmlns="http://www.w3.org/2000/svg" viewBox="0 0 24 24" width="24" height="24"><g fill="none" stroke="#000" stroke-linejoin="round" stroke-miterlimit="10"><circle cx="4.5" cy="4.5" r="4"/><path stroke-linecap="round" d="M7.328 7.328L10.5 10.5M3.5 13.5h17v10h-17zm17 0h-17l.831-2.494M10.5 7.5h2.497"/><path d="M12.5 19.5h6v2h-6zm9.897-9.383l1-1.732-1-.577a3.232 3.232 0 000-1.614l.999-.577-1-1.732-.999.576A3.49 3.49 0 0020 3.662V2.5h-2v1.162a3.49 3.49 0 00-1.397.799l-.999-.576-1 1.732.999.577a3.232 3.232 0 000 1.614l-1 .577 1 1.732 1-.578a3.5 3.5 0 001.397.798V11.5h2v-1.162a3.495 3.495 0 001.396-.798l1.001.577z"/><circle cx="19" cy="7" r="1.5"/></g><path fill="none" d="M0 0h24v24H0z"/></svg>