<svg xmlns="http://www.w3.org/2000/svg" viewBox="0 0 24 24" width="24" height="24"><g fill="none" stroke="#000" stroke-linejoin="round" stroke-miterlimit="10"><path d="M14.5 20.5h6v3h-6z"/><path stroke-linecap="round" d="M19.5 20.5v-1.531s3.187-3.155 4-3.969V6.938S21 6.032 21 13l-2.969 2.969.688-3c.344-1.437-.971-2.051-1.688-.937-.66 1.026-1.531 3.961-1.531 3.961V20.5"/><path d="M3.5 20.5h6v3h-6z"/><path stroke-linecap="round" d="M4.5 20.5v-1.531S1.5 15.814.5 15V6.938S3 6.032 3 13l2.969 2.969-.688-3c-.344-1.437.971-2.051 1.688-.937.66 1.026 1.531 3.961 1.531 3.961V20.5"/><path d="M11.5 6.5l-5-3v6l5 3 6-3v-6z"/><path d="M12 .5l-5.5 3 5 3 6-3zm-.5 6v6"/></g><path fill="none" d="M0 0h24v24H0z"/></svg>