<svg xmlns="http://www.w3.org/2000/svg" viewBox="0 0 24 24" width="24" height="24"><g fill="none" stroke="#000" stroke-linejoin="round" stroke-miterlimit="10"><path stroke-linecap="round" d="M7.5 15.5h-7v-11h14v4m0-4H.5l4-4h6zm-7-4v4m15.94 16.944c-1.4 2.256-4.957 2.874-8.236-.292h-.003c-3.083 3.106-6.675 2.637-8.236.219"/><path d="M10.49 23.333L8.499 18.5h14l-2.556 4.833"/><path stroke-linecap="round" d="M9.5 16.5h3v2h-3zm0-2h3v2h-3zm3 2h3v2h-3zm0-2h3v2h-3zm0-2h3v2h-3zm5 0h5v6h-5zm0 2H20m1.5-2V10"/></g><path fill="none" d="M0 0h24v24H0z"/></svg>