<svg id="Regular" xmlns="http://www.w3.org/2000/svg" viewBox="0 0 24 24" width="24" height="24"><defs><style>.cls-1{fill:none;stroke:#000;stroke-linecap:round;stroke-linejoin:round;stroke-width:1.5px}</style></defs><title>boxing-glove</title><path class="cls-1" d="M9.75.75a4.5 4.5 0 0 0-4.5 4.5V9a2.25 2.25 0 0 0-4.5 0v3.75a4.5 4.5 0 0 0 4.5 4.5v4.5a1.5 1.5 0 0 0 1.5 1.5h12a1.5 1.5 0 0 0 1.5-1.5v-4.5c0-2.25 3-3 3-6v-4.5a6 6 0 0 0-6-6z"/><path class="cls-1" d="M17.25 9.75a3 3 0 0 1-3 3H7.5a2.25 2.25 0 0 1-2.25-2.25V9m6 9.75a1.5 1.5 0 0 1-1.5 1.5h-4.5v-3h4.5a1.5 1.5 0 0 1 1.5 1.5z"/></svg>