<svg xmlns="http://www.w3.org/2000/svg" viewBox="0 0 24 24" width="24" height="24"><g fill="none" stroke="#000" stroke-linejoin="round" stroke-miterlimit="10"><path d="M2.5 6.853c0-1.539.885-2.943 2.272-3.609C9.578.94 14.398.908 19.236 3.24A4.003 4.003 0 0121.5 6.846v10.657a6 6 0 01-6 6h-7a6 6 0 01-6-6V6.853z"/><path d="M5.5 9.503h13v1.682a3.975 3.975 0 01-1.377 3.007c-3.58 3.09-.133 4.188.867 4.949a1 1 0 01-.931 1.363H6.958a.997.997 0 01-.933-1.36c1-.77 4.436-1.869.855-4.938a3.949 3.949 0 01-1.38-3V9.503zm2-5h9v3h-9z"/><path stroke-linecap="round" d="M9.5 11.503v2m5-2v2m-4 4h3"/></g><path fill="none" d="M0 0h24v24H0z"/></svg>