<svg id="Regular" xmlns="http://www.w3.org/2000/svg" viewBox="0 0 24 24" width="24" height="24"><defs><style>.cls-1{fill:none;stroke:#000;stroke-linecap:round;stroke-linejoin:round;stroke-width:1.5px}</style></defs><title>brain-network</title><path class="cls-1" d="M8.75 23.25v-3h-1.5a3 3 0 0 1-3-3v-3h-1.9a.75.75 0 0 1-.7-1.02c.672-1.742 1.273-3.43 1.926-4.98m18.486 0a9.362 9.362 0 0 1-2.812 8.735v6.265"/><circle class="cls-1" cx="12.5" cy="10.5" r="2.25"/><circle class="cls-1" cx="17.75" cy="6.75" r="1.5"/><circle class="cls-1" cx="7.25" cy="6.75" r="1.5"/><path class="cls-1" d="M12.5 8.25V.75m-5.25 4.5a3 3 0 0 1 3-3h4.5a3 3 0 0 1 3 3"/></svg>