<svg id="Regular" xmlns="http://www.w3.org/2000/svg" viewBox="0 0 24 24" width="24" height="24"><defs><style>.cls-1{fill:none;stroke:#000;stroke-linecap:round;stroke-linejoin:round;stroke-width:1.5px}</style></defs><title>brain-head</title><path class="cls-1" d="M.75 18.75v3a1.5 1.5 0 0 0 1.5 1.5h3m0-22.5h-3a1.5 1.5 0 0 0-1.5 1.5v3m22.5 0v-3a1.5 1.5 0 0 0-1.5-1.5h-3m0 22.5h3a1.5 1.5 0 0 0 1.5-1.5v-3M9 20.25v-3H7.5a1.5 1.5 0 0 1-1.5-1.5v-1.5H4.817a.75.75 0 0 1-.709-.995C6.005 7.759 6.215 3.75 12 3.75a6.75 6.75 0 0 1 4.5 11.781v4.719"/><path class="cls-1" d="M14.649 11.692a.752.752 0 0 0 1.048-.556 3.752 3.752 0 0 0-6.625-2.981.751.751 0 0 0 .279 1.153z"/></svg>