<svg xmlns="http://www.w3.org/2000/svg" viewBox="0 0 24 24" width="24" height="24"><defs><style>.a{fill:none;stroke:#000;stroke-linecap:round;stroke-linejoin:round;stroke-width:1.5px}</style></defs><title>brain-chip</title><path class="a" d="M23.25 12a3 3 0 0 0-2.183-2.886 2.249 2.249 0 0 0-1.383-3.856 2.29 2.29 0 0 0-.411-.363 3 3 0 0 0-5.461-2.478 2.249 2.249 0 0 0-3.624 0 3 3 0 0 0-5.461 2.478 2.29 2.29 0 0 0-.411.363 2.249 2.249 0 0 0-1.383 3.856 3 3 0 0 0 0 5.773 2.248 2.248 0 0 0 1.383 3.855 2.29 2.29 0 0 0 .411.363 3 3 0 0 0 5.461 2.478 2.249 2.249 0 0 0 3.624 0 3 3 0 0 0 5.461-2.478 2.29 2.29 0 0 0 .411-.363 2.248 2.248 0 0 0 1.383-3.855A3 3 0 0 0 23.25 12z"/><rect class="a" x="7.5" y="7.5" width="9" height="9" rx="1.5" ry="1.5"/><path class="a" d="M9.75 7.5V6m4.5 1.5V6m-4.5 12v-1.5m4.5 1.5v-1.5m2.25-6.75H18m-1.5 4.5H18M6 9.75h1.5M6 14.25h1.5m3-3.75h3v3h-3z"/></svg>