<svg xmlns="http://www.w3.org/2000/svg" viewBox="0 0 24 24" width="24" height="24"><defs><style>.a{fill:none;stroke:#000;stroke-linecap:round;stroke-linejoin:round;stroke-width:1.5px}</style></defs><title>brain-1</title><path class="a" d="M23.25 12a3 3 0 0 0-2.183-2.886 2.249 2.249 0 0 0-1.383-3.856 2.29 2.29 0 0 0-.411-.363 3 3 0 0 0-5.461-2.478 2.249 2.249 0 0 0-3.624 0 3 3 0 0 0-5.461 2.478 2.29 2.29 0 0 0-.411.363 2.249 2.249 0 0 0-1.383 3.856 3 3 0 0 0 0 5.773 2.248 2.248 0 0 0 1.383 3.855 2.29 2.29 0 0 0 .411.363 3 3 0 0 0 5.461 2.478 2.249 2.249 0 0 0 3.624 0 3 3 0 0 0 5.461-2.478 2.29 2.29 0 0 0 .411-.363 2.248 2.248 0 0 0 1.383-3.855A3 3 0 0 0 23.25 12zM12 22.5V8.25"/><circle class="a" cx="12" cy="6.75" r="1.5"/><path class="a" d="M9 18.75v-3l-2.25-1.5V12"/><circle class="a" cx="6.75" cy="10.5" r="1.5"/><path class="a" d="M15 18.75v-3l2.25-1.5V12"/><circle class="a" cx="17.25" cy="10.5" r="1.5"/></svg>