<svg id="Regular" xmlns="http://www.w3.org/2000/svg" viewBox="0 0 24 24" width="24" height="24"><defs><style>.cls-1{fill:none;stroke:#000;stroke-linecap:round;stroke-linejoin:round;stroke-width:1.5px}</style></defs><title>brain-open-skill</title><path class="cls-1" d="M17.25 23.25v-1.691c3.073-2.211 2.671-4.309 3.75-4.309 1.243 0 2.25-1.343 2.25-3a3.77 3.77 0 0 0-.3-1.5H1.052a3.77 3.77 0 0 0-.3 1.5c0 1.657 1.007 3 2.25 3 1.079 0 .653 2.081 3.75 4.309v1.691M21.75 9.75a3.744 3.744 0 0 0-1.567-3.05 3.689 3.689 0 0 0 .067-.7 3.751 3.751 0 0 0-5.082-3.506 3.749 3.749 0 0 0-6.336 0A3.751 3.751 0 0 0 3.75 6a3.689 3.689 0 0 0 .067.7A3.744 3.744 0 0 0 2.25 9.75m4.5-2.25L9 8.25m5.25-1.5l1.5-.75"/></svg>