<svg id="Regular" xmlns="http://www.w3.org/2000/svg" viewBox="0 0 24 24" width="24" height="24"><defs><style>.cls-1{fill:none;stroke:#000;stroke-linecap:round;stroke-linejoin:round;stroke-width:1.5px}</style></defs><title>bread-wheat</title><path class="cls-1" d="M6 23.236V.736m-4.5 17.25a4.769 4.769 0 0 0 4.5 3 4.769 4.769 0 0 0 4.5-3m-9-5.25a4.769 4.769 0 0 0 4.5 3 4.769 4.769 0 0 0 4.5-3m-9-5.25a4.769 4.769 0 0 0 4.5 3 4.769 4.769 0 0 0 4.5-3m-9-5.25a4.769 4.769 0 0 0 4.5 3 4.769 4.769 0 0 0 4.5-3m7.5 21V.736m-4.5 17.25a4.875 4.875 0 0 0 9 0m-9-5.25a4.875 4.875 0 0 0 9 0m-9-5.25a4.875 4.875 0 0 0 9 0m-9-5.25a4.875 4.875 0 0 0 9 0"/></svg>