<svg id="Regular" xmlns="http://www.w3.org/2000/svg" viewBox="0 0 24 24" width="24" height="24"><defs><style>.cls-1{fill:none;stroke:#000;stroke-linecap:round;stroke-linejoin:round;stroke-width:1.5px}</style></defs><title>bread-gluten-free</title><path class="cls-1" d="M18 18.37l-1.591-1.591m-3.076 1.531a1.383 1.383 0 0 0 1.349-1.637 1.385 1.385 0 0 0-1.638-1.349c-1.03.1-2.921.957-2.841 1.782s2.097 1.304 3.13 1.204zm-3.752-3.751a1.383 1.383 0 0 0 1.349-1.637 1.382 1.382 0 0 0-1.637-1.349c-1.031.1-2.922.957-2.842 1.781s2.1 1.304 3.13 1.205zm8.359-.859a1.383 1.383 0 0 1-1.64 1.352 1.385 1.385 0 0 1-1.349-1.638c.1-1.03.957-2.921 1.782-2.842s1.307 2.1 1.207 3.128zm-3.751-3.749a1.383 1.383 0 0 1-1.637 1.349A1.382 1.382 0 0 1 11.2 9.663c.1-1.031.957-2.922 1.781-2.842s1.308 2.099 1.208 3.13zM8.984 7.233a1.382 1.382 0 0 1 0 2.121 1.382 1.382 0 0 1-2.121 0c-.732-.732-1.646-2.6-1.061-3.182s2.45.328 3.182 1.061z"/><circle class="cls-1" cx="12" cy="11.986" r="11.25"/><path class="cls-1" d="M19.955 4.031L17.25 6.736M4.046 19.939l2.704-2.703"/></svg>