<svg id="Regular" xmlns="http://www.w3.org/2000/svg" viewBox="0 0 24 24" width="24" height="24"><defs><style>.cls-1{fill:none;stroke:#000;stroke-linecap:round;stroke-linejoin:round;stroke-width:1.5px}</style></defs><title>breakfast-croissant-2</title><path class="cls-1" d="M13.534 13.618c2.676.687 4.895 3.137 5.985 6.432a1.493 1.493 0 0 0 2.765.176A11.254 11.254 0 0 0 17.605 5.9M6.4 5.914a11.243 11.243 0 0 0-4.725 14.219 1.5 1.5 0 0 0 2.807-.086c1.091-3.293 3.308-5.742 5.984-6.429"/><path class="cls-1" d="M12 14.173c2.926 0 4.939-5.937 5.682-8.545a1.5 1.5 0 0 0-.891-1.807A12.755 12.755 0 0 0 12 2.923a12.755 12.755 0 0 0-4.791.9 1.5 1.5 0 0 0-.891 1.807c.743 2.606 2.756 8.543 5.682 8.543zm-10.585-2.32l5.184 4.32m10.802 0l5.196-4.33"/></svg>