<svg xmlns="http://www.w3.org/2000/svg" viewBox="0 0 24 24" width="24" height="24"><g fill="none" stroke="#000" stroke-linejoin="round" stroke-miterlimit="10"><path d="M.5 18.5h23l-5 5h-13zm11-2a4 4 0 014-4h3a4 4 0 014 4 2 2 0 01-2 2h-7a2 2 0 01-2-2z"/><path stroke-linecap="round" d="M14.667 16.062c.521-1.667-.209-3.229-.209-3.229l-.092-.168m2.301 3.397c.521-1.667-.209-3.229-.209-3.229l-.116-.333m2.325 3.562c.521-1.667-.209-3.229-.209-3.229l-.153-.333"/><path d="M9.792 18.5l1.732-1.692m4.289-4.308l5.812-5.834a2.998 2.998 0 10-4.242-4.242L3.24 16.566a2.984 2.984 0 00-.872 1.932"/><path d="M9.443 10.348c.945 1.207 2.347 1.75 3.041 1.105 1.087-1.01-.74-1.394-1.392-2.745m3.101-3.11c.945 1.207 2.347 1.75 3.041 1.105 1.085-1.008-.735-1.393-1.392-2.74M4.943 14.848c.945 1.207 2.347 1.75 3.041 1.105 1.087-1.01-.74-1.394-1.392-2.745"/></g><path fill="none" d="M0 0h24v24H0z"/></svg>