<svg id="Regular" xmlns="http://www.w3.org/2000/svg" viewBox="0 0 24 24" width="24" height="24"><defs><style>.cls-1{fill:none;stroke:#000;stroke-linecap:round;stroke-linejoin:round;stroke-width:1.5px}</style></defs><title>breakfast-cereal-bowl-spoon</title><path class="cls-1" d="M20.25 8.191c1.862.8 3 1.878 3 3.059 0 2.485-5.037 4.5-11.25 4.5S.75 13.735.75 11.25 5.787 6.75 12 6.75"/><path class="cls-1" d="M.75 11.25v1.5c0 5.8 5.037 10.5 11.25 10.5s11.25-4.7 11.25-10.5v-1.5"/><path class="cls-1" d="M19.5 12.75c0 1.657-3.358 3-7.5 3s-7.5-1.343-7.5-3c0-1.343 2.207-2.48 5.25-2.863m-1.5 2.863h1.5m6.6-4.05L22.5.75"/><path class="cls-1" d="M16.642 12a2.549 2.549 0 0 0-.292-3.3c-.994-.746-2.606-.276-3.6 1.05a3.5 3.5 0 0 0-.741 2.25"/></svg>