<svg id="Regular" xmlns="http://www.w3.org/2000/svg" viewBox="0 0 24 24" width="24" height="24"><defs><style>.cls-1{fill:none;stroke:#000;stroke-linecap:round;stroke-linejoin:round;stroke-width:1.5px}</style></defs><title>bread-baguette</title><path class="cls-1" d="M22.988 19.363a.75.75 0 0 0-.488-1.319h-21a.75.75 0 0 0-.488 1.319l3.5 3a.748.748 0 0 0 .488.181h14a.748.748 0 0 0 .488-.181zm-4.238-7.319h-4.5a4.5 4.5 0 0 0-4.5 4.5 1.5 1.5 0 0 0 1.5 1.5h10.5a1.5 1.5 0 0 0 1.5-1.5 4.5 4.5 0 0 0-4.5-4.5zm-4.5 0v3m4.5-3v3M4.207 12.175l1.209 1.082a2.127 2.127 0 0 0 3-.166.873.873 0 0 0-.068-1.232L6.208 9.94zm5.002-5.588l1.209 1.083a2.128 2.128 0 0 0 3-.166.873.873 0 0 0-.068-1.233l-2.139-1.919z"/><path class="cls-1" d="M3 18.044a3.75 3.75 0 0 1 .207-4.751l9.504-10.617a3.751 3.751 0 0 1 5.3-.293 3.75 3.75 0 0 1 .292 5.3l-3.908 4.365"/></svg>