<svg id="Regular" xmlns="http://www.w3.org/2000/svg" viewBox="0 0 24 24" width="24" height="24"><defs><style>.cls-1{fill:none;stroke:#000;stroke-linecap:round;stroke-linejoin:round;stroke-width:1.5px}</style></defs><title>bread-slice</title><path class="cls-1" d="M19.5 8.236h.192a3.568 3.568 0 0 0 3.558-3.558v-.385A3.567 3.567 0 0 0 19.692.736H4.308A3.567 3.567 0 0 0 .75 4.293v.385a3.568 3.568 0 0 0 3.558 3.558H4.5"/><path class="cls-1" d="M3.75 8.192v13.544a1.5 1.5 0 0 0 1.5 1.5h13.5a1.5 1.5 0 0 0 1.5-1.5V8.192M7.313 12.173L10.5 8.986m-2.062 7.312l6.609-6.609m-2.297 7.547l3.187-3.188"/></svg>