<svg id="Regular" xmlns="http://www.w3.org/2000/svg" viewBox="0 0 24 24" width="24" height="24"><defs><style>.cls-1{fill:none;stroke:#000;stroke-linecap:round;stroke-linejoin:round;stroke-width:1.5px}</style></defs><title>bread-herb-flour</title><path class="cls-1" d="M7.5 18.736l8.753-8.754m-3.024-.757l.3 3.482 3.481.299m-6.963-.599l.3 3.482 3.481.299"/><path class="cls-1" d="M19.269 23.236H4.731a3.122 3.122 0 0 1-3.231-3v-12a3.121 3.121 0 0 1 3.231-3h14.538a3.121 3.121 0 0 1 3.231 3v12a3.122 3.122 0 0 1-3.231 3z"/><path class="cls-1" d="M16.286.736H7.714A1.618 1.618 0 0 0 6 2.236v3h12v-3a1.618 1.618 0 0 0-1.714-1.5zM9 .736v4.5m3-4.5v4.5m3-4.5v4.5"/></svg>