<svg id="Regular" xmlns="http://www.w3.org/2000/svg" viewBox="0 0 24 24" width="24" height="24"><defs><style>.cls-1{fill:none;stroke:#000;stroke-linecap:round;stroke-linejoin:round;stroke-width:1.5px}</style></defs><title>breakfast-bread-toast</title><path class="cls-1" d="M20.25 5.25a2.25 2.25 0 0 0 0-4.5H6.75a2.25 2.25 0 0 0 0 4.5v4.5h13.5zm-13.5 4.5h13.5a3 3 0 0 1 3 3v9a1.5 1.5 0 0 1-1.5 1.5H5.25a1.5 1.5 0 0 1-1.5-1.5v-9a3 3 0 0 1 3-3zm-4.5 7.5h1.5v-4.5h-1.5a1.5 1.5 0 0 0-1.5 1.5v1.5a1.5 1.5 0 0 0 1.5 1.5z"/><circle class="cls-1" cx="17.25" cy="17.25" r="3"/><path class="cls-1" d="M14.25 17.25h-1.5"/></svg>