<svg xmlns="http://www.w3.org/2000/svg" viewBox="0 0 24 24" width="24" height="24"><defs><style>.a{fill:none;stroke:#000;stroke-linecap:round;stroke-linejoin:round;stroke-width:1.5px}</style></defs><title>breakup-heart-skull</title><path class="a" d="M7.379 15L2.3 9.75a5.207 5.207 0 0 1-.991-6.05 5.322 5.322 0 0 1 8.48-1.362l1.461 1.443 1.462-1.447A5.321 5.321 0 0 1 21.191 3.7a5.2 5.2 0 0 1-.272 5.167M15.699 21v2.25m3-2.25v2.25m.375-6a.375.375 0 0 1 .375.375m-.749 0a.375.375 0 0 1 .375-.375m-.001.75a.375.375 0 0 1-.375-.375m.75 0a.375.375 0 0 1-.375.375m-3.75-.75a.375.375 0 0 1 .375.375m-.75 0a.375.375 0 0 1 .375-.375m0 .75a.375.375 0 0 1-.375-.375m.751 0a.375.375 0 0 1-.375.375"/><path class="a" d="M12.7 23.25V21l-.128-.22a5.23 5.23 0 0 1-1.372-3.53 5.225 5.225 0 0 1 5.25-5.2h1.5a5.225 5.225 0 0 1 5.25 5.2 5.229 5.229 0 0 1-1.32 3.472L21.7 21v2.25"/></svg>