<svg id="Regular" xmlns="http://www.w3.org/2000/svg" viewBox="0 0 24 24" width="24" height="24"><defs><style>.cls-1{fill:none;stroke:#000;stroke-linecap:round;stroke-linejoin:round;stroke-width:1.5px}</style></defs><title>breakfast-croissant-1</title><path class="cls-1" d="M17.107 3.615h.869a2.483 2.483 0 0 1 2.608 2.318 2.483 2.483 0 0 1-2.608 2.317h-.869m-2.337 5.413a.864.864 0 0 0-.809-.562H9.97a.866.866 0 0 0-.81.562l-2.136 5.7a.863.863 0 0 0 .376 1.046 8.456 8.456 0 0 0 9.139 0 .865.865 0 0 0 .372-1.049zm-5.67.158l-2.648-1.028a.658.658 0 0 0-.728.175l-3.079 3.448a.609.609 0 0 0-.025.845 7.512 7.512 0 0 0 4.468 1.927"/><path class="cls-1" d="M2.7 16.358a6.175 6.175 0 0 1-1.766-5.887.751.751 0 0 1 .526-.571.67.67 0 0 1 .749.2 6.226 6.226 0 0 0 3.264 3.15m9.427.571l2.649-1.028a.658.658 0 0 1 .728.175l3.079 3.448a.609.609 0 0 1 .025.845 7.512 7.512 0 0 1-4.468 1.927"/><path class="cls-1" d="M21.3 16.358a6.175 6.175 0 0 0 1.763-5.887.751.751 0 0 0-.523-.571.67.67 0 0 0-.749.2 6.226 6.226 0 0 1-3.264 3.15m-1.42-2.75V3.75a1.5 1.5 0 0 0-1.5-1.5h-7.5a1.5 1.5 0 0 0-1.5 1.5v6.671"/></svg>