<svg xmlns="http://www.w3.org/2000/svg" viewBox="0 0 24 24" width="24" height="24"><defs><style>.a{fill:none;stroke:#000;stroke-linecap:round;stroke-linejoin:round;stroke-width:1.5px}</style></defs><title>bridge</title><path class="a" d="M.75 12.5a4.5 4.5 0 0 1 4.5 4.5m18-4.5a4.5 4.5 0 0 0-4.5 4.5M4.104 14h15.792"/><path class="a" d="M1.211 12.523L3.184 6.21A6 6 0 0 1 8.911 2h6.178a6 6 0 0 1 5.727 4.21l1.973 6.313"/><path class="a" d="M3.258 5.988L7.5 14 12 2m8.742 3.988L16.5 14 12 2m11.25 19.5a2.553 2.553 0 0 1-2.475-2.25c0 1.243-1.31 2.25-2.925 2.25s-2.925-1.007-2.925-2.25c0 1.243-1.31 2.25-2.925 2.25s-2.925-1.007-2.925-2.25c0 1.243-1.31 2.25-2.925 2.25s-2.925-1.007-2.925-2.25A2.553 2.553 0 0 1 .75 21.5"/></svg>