<svg xmlns="http://www.w3.org/2000/svg" viewBox="0 0 24 24" width="24" height="24"><defs><style>.a{fill:none;stroke:#000;stroke-linecap:round;stroke-linejoin:round;stroke-width:1.5px}</style></defs><title>bridge-2</title><path class="a" d="M.75.75h22.5M.75 8.25h22.5m-18 10.5V15a2.25 2.25 0 0 1 4.5 0v3.75m3 0V15a2.25 2.25 0 0 1 4.5 0v3.75m3 0V15a2.252 2.252 0 0 1 2.992-2.125m-22.481.007A2.251 2.251 0 0 1 2.25 15v3.75m7.5-10.5h-3v-3a1.5 1.5 0 0 1 3 0zm7.5 0h-3v-3a1.5 1.5 0 0 1 3 0zm4.5 0v-3a1.5 1.5 0 0 1 1.5-1.5m-22.5 0a1.5 1.5 0 0 1 1.5 1.5v3m21 15A2.553 2.553 0 0 1 20.775 21c0 1.243-1.31 2.25-2.925 2.25s-2.925-1.007-2.925-2.25c0 1.243-1.31 2.25-2.925 2.25S9.075 22.243 9.075 21c0 1.243-1.31 2.25-2.925 2.25S3.225 22.243 3.225 21A2.553 2.553 0 0 1 .75 23.25"/></svg>