<svg xmlns="http://www.w3.org/2000/svg" viewBox="0 0 24 24" width="24" height="24"><g fill="none" stroke="#000" stroke-linecap="round" stroke-linejoin="round" stroke-miterlimit="10"><path d="M23.5 23.388c-2.505.521-4.06-1.979-4.06-1.979h-.004s-1.186 2.056-3.621 2.056c-2.334 0-3.615-2.056-3.615-2.056h-.004s-1.185 2.056-3.62 2.056c-2.335 0-3.615-2.056-3.615-2.056h-.004s-2.004 2.542-4.455 2.02M23.5 19.388c-2.505.521-4.06-1.979-4.06-1.979h-.004s-1.186 2.056-3.621 2.056c-2.334 0-3.615-2.056-3.615-2.056h-.004s-1.185 2.056-3.62 2.056c-2.335 0-3.615-2.056-3.615-2.056h-.004s-2.004 2.542-4.455 2.02M6.5.5v18.372M17.5.5v18.601M.5 12.5h23m-12 0c-5-2.5-5-10-5-10s0 7.5-5 10m21 0c-5-2.5-5-10-5-10s0 7.5-5 10m-6-10S4 6 .5 6"/><path d="M23.5 6c-3.5 0-6-3.5-6-3.5s-2 4-5.5 4-5.5-4-5.5-4S4 6 .5 6"/></g><path fill="none" d="M0 0h24v24H0z"/></svg>