<svg xmlns="http://www.w3.org/2000/svg" viewBox="0 0 24 24" width="24" height="24"><defs><style>.a{fill:none;stroke:#000;stroke-linecap:round;stroke-linejoin:round;stroke-width:1.5px}</style></defs><title>bridge-1</title><path class="a" d="M23.215 10.75A18.6 18.6 0 0 1 19.184 7c-1.263-1.5-3.249-5.25-7.219-5.25S6.009 5.5 4.745 7a18.6 18.6 0 0 1-4.03 3.75zm-9-8.56v8.56m3-6.276v6.276m-7.5-8.56v8.56m-3-6.276v6.276m-6 4.5v-4.5M18.9 14.523a8.251 8.251 0 0 0-13.856-.007m18.171-3.766v4.5m.035 6A2.553 2.553 0 0 1 20.775 19c0 1.243-1.31 2.25-2.925 2.25s-2.925-1.007-2.925-2.25c0 1.243-1.31 2.25-2.925 2.25S9.075 20.243 9.075 19c0 1.243-1.31 2.25-2.925 2.25S3.225 20.243 3.225 19A2.553 2.553 0 0 1 .75 21.25"/></svg>