<svg xmlns="http://www.w3.org/2000/svg" viewBox="0 0 24 24" width="24" height="24"><defs><style>.a{fill:none;stroke:#000;stroke-linecap:round;stroke-linejoin:round;stroke-width:1.5px}</style></defs><title>bridge-golden-gate</title><path class="a" d="M23.245 22.5c-2.068 0-3.75-1.007-3.75-2.25 0 1.243-1.682 2.25-3.75 2.25S12 21.493 12 20.25c0 1.243-1.682 2.25-3.75 2.25S4.5 21.493 4.5 20.25c0 1.243-1.682 2.25-3.75 2.25m5.99-21v17.25M.74 15h22.5m.01 0c-5.25 0-6-9.75-6-9.75S16.572 14.2 12 15c-4.582-.8-5.26-9.75-5.26-9.75S5.99 15 .74 15M17.25 1.5v17.25"/><path class="a" d="M23.25 8.25c-3.75 0-6-3.75-6-3.75S15.745 8.25 12 8.25 6.74 4.5 6.74 4.5s-2.25 3.75-6 3.75"/></svg>