<svg xmlns="http://www.w3.org/2000/svg" viewBox="0 0 24 24" width="24" height="24"><path d="M23.5 23.388c-2.505.521-4.06-1.979-4.06-1.979h-.004s-1.186 2.056-3.621 2.056c-2.334 0-3.615-2.056-3.615-2.056h-.004s-1.185 2.056-3.62 2.056c-2.335 0-3.615-2.056-3.615-2.056h-.004s-2.004 2.542-4.455 2.02M7.5 19.5V17a4.5 4.5 0 019 0v2.5m7-6.239c-1.205.807-2 2.18-2 3.739v2.5m-21-6.239c1.205.807 2 2.18 2 3.739v2.5m-2-10h23m-14 0V6a2.5 2.5 0 115 0v3.5m9-5.95a2.5 2.5 0 00-3 2.45v3.5M.5 3.55A2.5 2.5 0 013.5 6v3.5m-3-9h23m-8 19h7m-21 0h7" fill="none" stroke="#000" stroke-linecap="round" stroke-linejoin="round" stroke-miterlimit="10"/><path fill="none" d="M0 0h24v24H0z"/></svg>