<svg xmlns="http://www.w3.org/2000/svg" viewBox="0 0 24 24" width="24" height="24"><g fill="none" stroke="#000" stroke-linejoin="round" stroke-miterlimit="10"><path d="M14.938 16.145c1.886-1.885-5.186-8.956-7.071-7.07-1.414 4.95-4.755 7.532-7.081 9.903a1 1 0 00.007 1.407l2.828 2.828a1 1 0 001.42-.005c2.307-2.343 4.948-5.648 9.897-7.063z"/><path d="M10.696 18.267c.219.522.635 1.343 1.061 1.769a4.501 4.501 0 006.363 0c1.204-1.204 1.361-2.305 1.35-2.86a3.956 3.956 0 001.833-1.03 4 4 0 000-5.656 3.961 3.961 0 00-1.589-.957 4.49 4.49 0 00-5.232-5.232 3.958 3.958 0 00-.957-1.588 4 4 0 00-5.657 0 3.932 3.932 0 00-1.03 1.83c-.556-.012-1.656.146-2.859 1.35a4.499 4.499 0 000 6.364c.425.425 1.245.841 1.768 1.061"/><path stroke-linecap="round" d="M16.265 18.403a2.746 2.746 0 01-1.107-2.206c0-.983.517-1.847 1.294-2.332M5.609 7.759a2.747 2.747 0 004.538-.186m3.981 5.147l-3.078 3.071m.271-5.886l-3.1 3.058"/></g><path fill="none" d="M0 0h24v24H0z"/></svg>