<svg xmlns="http://www.w3.org/2000/svg" viewBox="0 0 24 24" width="24" height="24"><defs><style>.a{fill:none;stroke:#000;stroke-linecap:round;stroke-linejoin:round;stroke-width:1.5px}</style></defs><title>broken-tab-remove</title><path class="a" d="M12.719 16.33a.477.477 0 0 1-.05.455.5.5 0 0 1-.414.215H1.751a.988.988 0 0 1-1-.975v-7.8a.988.988 0 0 1 1-.975h10.505a.507.507 0 0 1 .415.213.477.477 0 0 1 .05.455l-1.654 4.041a.476.476 0 0 0 0 .363zM16.5 17a.488.488 0 0 1-.452-.306l-1.755-4.372a.49.49 0 0 1 0-.363l1.755-4.4a.487.487 0 0 1 .452-.309h5.775a.975.975 0 0 1 .975.975v7.8a.976.976 0 0 1-.975.975zm1.5-6.343l2.935 2.935m0-2.935L18 13.592"/></svg>