<svg xmlns="http://www.w3.org/2000/svg" viewBox="0 0 24 24" width="24" height="24"><defs><style>.a{fill:none;stroke:#000;stroke-linecap:round;stroke-linejoin:round;stroke-width:1.5px}</style></defs><title>browser-idea</title><path class="a" d="M15.75 8.143V9.75m-7.5 6h1.607m13.393 0h-1.607m-12.079-4.9l1.365 1.364m11.007-1.364l-1.365 1.364M19.5 15.75a3.75 3.75 0 1 0-5.25 3.433V21h3v-1.817a3.747 3.747 0 0 0 2.25-3.433zm-5.25 7.5h3m2.25-16.5V1.868A1.128 1.128 0 0 0 18.369.75H1.875A1.122 1.122 0 0 0 .75 1.862v13.519A1.128 1.128 0 0 0 1.881 16.5H5.25m-4.5-12H19.5"/></svg>