<svg xmlns="http://www.w3.org/2000/svg" viewBox="0 0 24 24" width="24" height="24"><g fill="none" stroke="#000" stroke-linecap="round" stroke-linejoin="round" stroke-miterlimit="10"><path d="M18.5 23.5h-14c-2.603 0-2.668-4 0-4h14c2.673 0 2.597 4 0 4zm-1.01-4c0-2.81.311-8-2.5-8H7.238c-.757 0-1.449.428-1.788 1.104L3.5 16.5l2.5 3h11.49z"/><path d="M8.5 19.5l-2.5-3L8.5 14zm0-5.5l6.891-2.46M14 8c0 1.657-1.5 2.5-2.5 2.5S9 9.657 9 8s.844-2.5 2.5-2.5S14 6.343 14 8z"/><path d="M10.439 5.648C10.127 5.419 10 5.125 10 4.75c0-.69.672-1.25 1.5-1.25s1.5.56 1.5 1.25c0 .372-.145.666-.453.895M8.5 16.5l8.568-3.042M8.5 19l8.947-3.149M17 19.5s-7 4-10.5 4m5-22v-1m4.242 2.757l.707-.707M17.5 7.5h1M7.258 3.257l-.707-.707M5.5 7.5h-1"/></g><path fill="none" d="M0 0h24v24H0z"/></svg>