<svg xmlns="http://www.w3.org/2000/svg" viewBox="0 0 24 24" width="24" height="24"><defs><style>.a{fill:none;stroke:#000;stroke-linecap:round;stroke-linejoin:round;stroke-width:1.5px}</style></defs><title>building-nature</title><path class="a" d="M6 23.25v-3a1.5 1.5 0 0 1 3 0v3m3.75-16.5v16.5m-10.5 0V6.75m.335-3.671L.75 6.75h13.5l-1.835-3.671a1.5 1.5 0 0 0-1.342-.829H3.927a1.5 1.5 0 0 0-1.342.829zM9 2.25V.75M.75 23.25h22.5m-3-4.5a1.5 1.5 0 0 1-3 0 14.8 14.8 0 0 1 1.5-5.25 14.8 14.8 0 0 1 1.5 5.25zm-1.5 1.5v3m-13.5-7.5h4.5m-4.5-3h4.5m-4.5-3h4.5"/></svg>