<svg xmlns="http://www.w3.org/2000/svg" viewBox="0 0 24 24" width="24" height="24"><defs><style>.a{fill:none;stroke:#000;stroke-linecap:round;stroke-linejoin:round;stroke-width:1.5px}</style></defs><title>buildings-2</title><path class="a" d="M2.75 5.25h9.5a.5.5 0 0 1 .5.5v17.5H2.25V5.75a.5.5 0 0 1 .5-.5zm3-3h3.5a.5.5 0 0 1 .5.5v2.5h-4.5v-2.5a.5.5 0 0 1 .5-.5zm-.5 6h4.5m-4.5 3h4.5m-4.5 3h4.5m-4.5 3h4.5m-4.5 3h4.5M8.25.75v1.5m7.5 21h6V10.5a.75.75 0 0 0-.75-.75h-4.5a.75.75 0 0 0-.75.75v12.75m4.5-15v1.5M.75 23.25h22.5"/></svg>