<svg xmlns="http://www.w3.org/2000/svg" viewBox="0 0 24 24" width="24" height="24"><defs><style>.a{fill:none;stroke:#000;stroke-linecap:round;stroke-linejoin:round;stroke-width:1.5px}</style></defs><title>building-2</title><path class="a" d="M2.25 6.75h19.5v16.5H2.25z"/><path class="a" d="M12.75 18.75h-1.5a1.5 1.5 0 0 0-1.5 1.5v3h4.5v-3a1.5 1.5 0 0 0-1.5-1.5zm-7.5-9v1.5m4.5-1.5v1.5m4.5-1.5v1.5m4.5-1.5v1.5m-13.5 3v1.5m4.5-1.5v1.5m4.5-1.5v1.5m4.5-1.5v1.5m-18-9h22.5m-4.171-6H4.921a1.5 1.5 0 0 0-1.455 1.136L2.25 6.75h19.5l-1.216-4.864A1.5 1.5 0 0 0 19.079.75zm-13.829 18v1.5m13.5-1.5v1.5"/></svg>