<svg xmlns="http://www.w3.org/2000/svg" viewBox="0 0 24 24" width="24" height="24"><defs><style>.a{fill:none;stroke:#000;stroke-linecap:round;stroke-linejoin:round;stroke-width:1.5px}</style></defs><title>building-daylight</title><path class="a" d="M16.207 23.25h-9v-9.5a1 1 0 0 1 1-1h7a1 1 0 0 1 1 1v9.5z"/><path class="a" d="M4.2 23.25H2.7v-18a1.5 1.5 0 0 1 1.5-1.5h4.5a1.5 1.5 0 0 1 1.5 1.5v4.5H8.7m7.503 13.5h6m-19.5 0h-1.5m9-16.5h-3m9 9h-2.25m-3.753 7.5h3v-3a1.5 1.5 0 0 0-3 0z"/><circle class="a" cx="18.453" cy="6" r="2.25"/><path class="a" d="M18.453.75v.75m-4.546 1.875l.649.375m-.649 4.875l.649-.375m3.897 3v-.75M23 8.625l-.65-.375M23 3.375l-.65.375"/></svg>