<svg xmlns="http://www.w3.org/2000/svg" viewBox="0 0 24 24" width="24" height="24"><defs><style>.a{fill:none;stroke:#000;stroke-linecap:round;stroke-linejoin:round;stroke-width:1.5px}</style></defs><title>building</title><path class="a" d="M1.75.75h20.5a1 1 0 0 1 1 1v21.5H.75V1.75a1 1 0 0 1 1-1zm12.5 0v22.5m0-6h9m-9 3h9"/><path class="a" d="M20.25 17.25h-3v-6a1.5 1.5 0 0 1 3 0zm-1.5-12.375a.375.375 0 0 1 .375.375m-.75 0a.375.375 0 0 1 .375-.375m0 .75a.375.375 0 0 1-.375-.375m.75 0a.375.375 0 0 1-.375.375m-7.5 4.125h-3v-4.5a1.5 1.5 0 0 1 3 0zm0 10.5h-3v-4.5a1.5 1.5 0 0 1 3 0zm-7.5-16.5a1.5 1.5 0 0 1 1.5 1.5v4.5h-1.5m0 4.5a1.5 1.5 0 0 1 1.5 1.5v4.5h-1.5"/></svg>