<svg xmlns="http://www.w3.org/2000/svg" viewBox="0 0 24 24" width="24" height="24"><defs><style>.a{fill:none;stroke:#000;stroke-linecap:round;stroke-linejoin:round;stroke-width:1.5px}</style></defs><title>building-house</title><path class="a" d="M14.25 17.25v6h-6m3-3v3m-3-5.4v5.4h-6v-4.5"/><path class="a" d="M7.5 18.75l3.75-4.5H4.5l-3.75 4.5H7.5zm8.25 0l-4.5-4.5m.717-7.5l5.283-6H10.5l-5.283 6h6.75zm11.283 0l-6-6m-4.5 5.111v5.389m9-6v13.5h-3m-12-7.5v-4.5m9 .75v.75m3-.75v.75m-3 3V12m3-.75V12m0 3v.75"/></svg>