<svg xmlns="http://www.w3.org/2000/svg" viewBox="0 0 24 24" width="24" height="24"><g fill="none" stroke="#000" stroke-linecap="round" stroke-linejoin="round" stroke-miterlimit="10"><path d="M15.5.522h8v23h-8zm-8 12h8v11h-8zm4-4l-4 4h8zm-10 10h6v5h-6zm6-3h-5l-2 3h7z"/><path d="M3.5 21.522h2v2h-2zm6-7h4v2h-4zm0 4h4v2h-4zm8-16v1m2-1v1m2-1v1m-4 3v1m2-1v1m2-1v1m-4 3v1m2-1v1m2-1v1m-4 3v1m2-1v1m2-1v1m-4 3v1m2-1v1m2-1v1m-12.937-13S10.5 6.27 10.5 4.371a2.146 2.146 0 00-2.229-2.146A3.006 3.006 0 005.553.5C3.951.5 2.538 1.752 2.446 3.33A1.614 1.614 0 00.5 4.909c0 1.638 1.721 1.613 1.721 1.613h6.342z"/></g><path fill="none" d="M0 0h24v24H0z"/></svg>