<svg xmlns="http://www.w3.org/2000/svg" viewBox="0 0 24 24" width="24" height="24"><defs><style>.a{fill:none;stroke:#000;stroke-linecap:round;stroke-linejoin:round;stroke-width:1.5px}</style></defs><title>buildings</title><rect class="a" x="14.25" y="8.25" width="9" height="15" rx=".5" ry=".5"/><rect class="a" x=".75" y="11.25" width="10.5" height="12" rx=".5" ry=".5"/><path class="a" d="M2.25 11.25V3A.75.75 0 0 1 3 2.25h6a.75.75 0 0 1 .75.75v8.25m-4.5-9V.75m0 7.5h1.5m-1.5-3h1.5m-3 9h4.5m-4.5 3h4.5m-4.5 3h4.5m9-6h3m-3-3h3m-3 6h3m-3 3h3"/></svg>