<svg xmlns="http://www.w3.org/2000/svg" viewBox="0 0 24 24" width="24" height="24"><g fill="none" stroke="#000" stroke-linejoin="round" stroke-miterlimit="10"><path stroke-linecap="round" d="M5 23.5h13m-6.5-19v-4m-3 19h6m-6-3h6"/><path d="M12.5 12.374V23.5m-2-11.126V23.5"/><path stroke-linecap="round" d="M16.5 7.5h-1.131a3.998 3.998 0 00-3.869-3 3.997 3.997 0 00-3.869 3H6.5v2h1.131a3.998 3.998 0 003.869 3 3.999 3.999 0 003.869-3H16.5v-2zm-8.869 0h7.738m-7.738 2h7.738"/></g><path fill="none" d="M0 0h24v24H0z"/></svg>