<svg xmlns="http://www.w3.org/2000/svg" viewBox="0 0 24 24" width="24" height="24"><defs><style>.a{fill:none;stroke:#000;stroke-linecap:round;stroke-linejoin:round;stroke-width:1.5px}</style></defs><title>building-modern</title><path class="a" d="M3.25 9.75h8.5a1 1 0 0 1 1 1v12.5H2.25v-12.5a1 1 0 0 1 1-1z"/><path class="a" d="M15.75 23.25h6v-21a1.5 1.5 0 0 0-1.5-1.5h-9a1.5 1.5 0 0 0-1.5 1.5v4.5h1.5m-9 16.5H.75m21 0h1.5M9.75 3.75h4.5m-12 9H4.5m3.75 10.5h-3v-3a1.5 1.5 0 0 1 3 0z"/><path class="a" d="M18.75 23.25h-3v-4.5a1.5 1.5 0 0 1 3 0z"/></svg>