<svg xmlns="http://www.w3.org/2000/svg" viewBox="0 0 24 24" width="24" height="24"><defs><style>.a{fill:none;stroke:#000;stroke-linecap:round;stroke-linejoin:round;stroke-width:1.5px}</style></defs><title>building-night</title><path class="a" d="M16.25 23.25h-9v-9.5a1 1 0 0 1 1-1h7a1 1 0 0 1 1 1v9.5z"/><path class="a" d="M4.25 23.25h-1.5v-18a1.5 1.5 0 0 1 1.5-1.5h4.5a1.5 1.5 0 0 1 1.5 1.5v4.5h-1.5m7.5 13.5h6m-19.5 0h-1.5m9-16.5h-3m9 9H14m-3.75 7.5h3v-3a1.5 1.5 0 0 0-3 0zm4.5-19a.25.25 0 0 1 .25.25m-.5 0a.25.25 0 0 1 .25-.25m0 .5a.25.25 0 0 1-.25-.25m.5 0a.25.25 0 0 1-.25.25M20 11a.25.25 0 0 1 .25.25m-.5 0A.25.25 0 0 1 20 11m0 .5a.25.25 0 0 1-.25-.25m.5 0a.25.25 0 0 1-.25.25m-.75-3.25a3.75 3.75 0 0 0 0-7.5z"/></svg>