<svg xmlns="http://www.w3.org/2000/svg" viewBox="0 0 24 24" width="24" height="24"><defs><style>.a{fill:none;stroke:#000;stroke-linecap:round;stroke-linejoin:round;stroke-width:1.5px}</style></defs><title>building-flag</title><path class="a" d="M5.25 6.75h13.5v16.5H5.25zm6-6h4a.5.5 0 0 1 .5.5v2a.5.5 0 0 1-.5.5h-4v-3zm-7.5 6h1.5m15 0h-1.5m-7.5-3v3m-10.5 6h4.5m13.5 0h4.5m-22.5 4.5h22.5m-18 6h-3v-10.5h3m13.5 10.5h3v-10.5h-3m-18 10.5h1.5m19.5 0h1.5M9.75 9.75v.75m0 3v.75m4.5-4.5v.75m0 3v.75m-4.5 5.25v.75m4.5-.75v.75"/></svg>