<svg xmlns="http://www.w3.org/2000/svg" viewBox="0 0 24 24" width="24" height="24"><defs><style>.a{fill:none;stroke:#000;stroke-linecap:round;stroke-linejoin:round;stroke-width:1.5px}</style></defs><title>building-cloudy</title><path class="a" d="M6.75.75a2.249 2.249 0 0 0-2.2 1.767 1.457 1.457 0 0 0-.8-.267 1.5 1.5 0 0 0 0 3h3a2.25 2.25 0 0 0 0-4.5zm7 0h8.5a1 1 0 0 1 1 1v21a.5.5 0 0 1-.5.5h-9.5a.5.5 0 0 1-.5-.5v-21a1 1 0 0 1 1-1zm2 3v.75m4.5-.75v.75m-4.5 3v.75m4.5-.75v.75m-4.5 3V12m4.5-.75V12m-4.5 3v.75m4.5-.75v.75m-4.5 3v.75m4.5-.75v.75M.75 12.75h9v10a.5.5 0 0 1-.5.5h-8a.5.5 0 0 1-.5-.5v-10zm1-3h7a1 1 0 0 1 1 1v2h-9v-2a1 1 0 0 1 1-1zm2 6v.75m3-.75v.75m-3 3v.75m3-.75v.75"/></svg>