<svg xmlns="http://www.w3.org/2000/svg" viewBox="0 0 24 24" width="24" height="24"><defs><style>.a{fill:none;stroke:#000;stroke-linecap:round;stroke-linejoin:round;stroke-width:1.5px}</style></defs><title>buildings-modern</title><path class="a" d="M2.25 23.25V6a.748.748 0 0 1 .394-.66L10.894.9A.75.75 0 0 1 12 1.558V23.25m9.75 0V13.083a.75.75 0 0 0-.29-.592l-5.25-4.083A.749.749 0 0 0 15 9v14.25m8.25 0H.75M12 8.25H7.5m4.5 3H6"/><path class="a" d="M6 23.25h3v-3a1.5 1.5 0 0 0-3 0zM4.5 4.34V.75M15 13.5h2.25m-2.25 3h3.75m1.5-4.95v-3.3"/></svg>