<svg xmlns="http://www.w3.org/2000/svg" viewBox="0 0 24 24" width="24" height="24"><defs><style>.a{fill:none;stroke:#000;stroke-linecap:round;stroke-linejoin:round;stroke-width:1.5px}</style></defs><title>buildings-1</title><path class="a" d="M3 14.25h4.5m-4.5 3h4.5m-4.5 3h4.5M3 8.25h4.5m-4.5 3h4.5m11.25 3h1.5m-1.5 3h1.5m-1.5 3h1.5m-1.5-9h1.5m-19-7.5h8a.5.5 0 0 1 .5.5v19h-8.5a.5.5 0 0 1-.5-.5V4.25a.5.5 0 0 1 .5-.5zm8.5 9h6v10.5h-6zm6.5-6h6.5a.5.5 0 0 1 .5.5v15.5a.5.5 0 0 1-.5.5h-7v-16a.5.5 0 0 1 .5-.5zm-12.5-6v3"/></svg>