<svg xmlns="http://www.w3.org/2000/svg" viewBox="0 0 24 24" width="24" height="24"><defs><style>.a{fill:none;stroke:#000;stroke-linecap:round;stroke-linejoin:round;stroke-width:1.5px}</style></defs><title>bulb-1</title><path class="a" d="M15 17.25v4.5a1.5 1.5 0 0 1-1.5 1.5h-3a1.5 1.5 0 0 1-1.5-1.5v-4.5m0 3h6M12 .75v1.5m-10.5 9H3m.75-7.5l1.1 1.057M22.5 11.25H21m-.75-7.5l-1.1 1.057M13.5 17.25v-6a1.5 1.5 0 1 1 1.5 1.5H9a1.5 1.5 0 1 1 1.5-1.5v6"/><path class="a" d="M8.915 17.25h6.17a6.6 6.6 0 0 0 3.665-6A6.873 6.873 0 0 0 12 4.5a6.873 6.873 0 0 0-6.75 6.754 6.6 6.6 0 0 0 3.665 5.996z"/></svg>