<svg xmlns="http://www.w3.org/2000/svg" viewBox="0 0 24 24" width="24" height="24"><g fill="none" stroke="#000" stroke-linejoin="round" stroke-miterlimit="10"><path d="M23.553 12.086L20.688 23.5H3.5L.635 12.086C5.648 10.295 4.574 6.021 3.5 2.082L7.797.661c.357 3.58 8.235 3.585 8.594.005l4.297 1.413c-1.075 3.939-2.149 8.216 2.865 10.007z"/><path d="M1.24 14.5h7.354a2 2 0 012 2v2a2 2 0 01-2 2H2.746m20.2-6h-7.353a2 2 0 00-2 2v2a2 2 0 002 2h5.847M7.797.661c1.188 9.789 7.406 9.781 8.594.005M9.594 11.5a1 1 0 01-1 1h-2a1 1 0 01-1-1v-1a1 1 0 011-1h2a1 1 0 011 1v1zm8 0a1 1 0 01-1 1h-2a1 1 0 01-1-1v-1a1 1 0 011-1h2a1 1 0 011 1v1z"/><path stroke-linecap="round" d="M1.994 17.5h3.6m16.599 0h-3.599"/><path d="M23.553 12.086L20.688 23.5H3.5L.635 12.086C5.648 10.295 4.574 6.021 3.5 2.082L7.797.661c.357 3.58 8.235 3.585 8.594.005l4.297 1.413c-1.075 3.939-2.149 8.216 2.865 10.007z"/><path d="M1.24 14.5h7.354a2 2 0 012 2v2a2 2 0 01-2 2H2.746m20.2-6h-7.353a2 2 0 00-2 2v2a2 2 0 002 2h5.847M7.797.661c1.188 9.789 7.406 9.781 8.594.005M9.594 11.5a1 1 0 01-1 1h-2a1 1 0 01-1-1v-1a1 1 0 011-1h2a1 1 0 011 1v1zm8 0a1 1 0 01-1 1h-2a1 1 0 01-1-1v-1a1 1 0 011-1h2a1 1 0 011 1v1z"/><path stroke-linecap="round" d="M1.994 17.5h3.6m16.599 0h-3.599"/></g><path fill="none" d="M0 0h24v24H0z"/></svg>