<svg xmlns="http://www.w3.org/2000/svg" viewBox="0 0 24 24" width="24" height="24"><g fill="none" stroke="#000" stroke-linejoin="round" stroke-miterlimit="10"><path d="M23.5 18.5v-8h-14a2 2 0 00-2 2v6h16zm-9-15h9v7h-11z"/><path stroke-linecap="round" d="M15.641 8.504L16.5 5.5H19M1 6l2.5 3v11L1 23"/><path d="M3.5 14.5h4m-4 2h4"/><path stroke-linecap="round" d="M10 12.5h4m-4 2h4"/><path d="M7.5 21a2.5 2.5 0 002.5 2.5h11a2.5 2.5 0 100-5H10A2.5 2.5 0 007.5 21z"/><circle cx="11" cy="21" r="1"/><circle cx="15.5" cy="21" r="1"/><circle cx="20" cy="21" r="1"/></g><path fill="none" d="M0 0h24v24H0z"/></svg>