<svg xmlns="http://www.w3.org/2000/svg" viewBox="0 0 24 24" width="24" height="24"><g fill="none" stroke="#000" stroke-linecap="round" stroke-linejoin="round" stroke-miterlimit="10"><path d="M23.5 19.5H5a2.504 2.504 0 01-2.5-2.505c0-1.286.006-.971 8-9.25a6.219 6.219 0 013.75-1.25h9.25"/><path d="M5 13.5h8c.816 0 1.543-.397 2-1.005l3-3H9M4.5 14.14a3.503 3.503 0 011.902 5.312m7.598.043l2.5-2.5c.418-.313.938-.5 1.5-.5h5.5M.5 21.5h23m-9-2.005a1.5 1.5 0 11-3 0m8 0a1.5 1.5 0 11-3 0"/></g><path fill="none" d="M0 0h24v24H0z"/></svg>