<svg xmlns="http://www.w3.org/2000/svg" viewBox="0 0 24 24" width="24" height="24"><g fill="none" stroke="#000" stroke-linecap="round" stroke-linejoin="round" stroke-miterlimit="10"><path d="M16.5 7.5a3 3 0 003-3h-6a3 3 0 003 3zm-4-3a4 4 0 018 0h-8zm-4 17a2 2 0 01-2 2h-3a2 2 0 010-4h3a2 2 0 012 2zm4-4a2 2 0 01-2 2h-3a2 2 0 010-4h3a2 2 0 012 2zm-6-9h8v2h-8zm0 0h-4v-1m13 13l2-3.5 2.625 5.688a1.078 1.078 0 001.928.067c.146-.264.174-.576.078-.861L20.5 17l-.5-5.5a3 3 0 00-3-3h-2.5"/><path d="M9.5 10.5l.872 1.222a2 2 0 003.256 0L14.5 10.5V16L13 19m2.5 2.5a2 2 0 01-2 2h-3a2 2 0 010-4h3a2 2 0 012 2z"/></g><path fill="none" d="M0 0h24v24H0z"/></svg>