<svg xmlns="http://www.w3.org/2000/svg" viewBox="0 0 24 24" width="24" height="24"><g fill="none" stroke="#000" stroke-linecap="round" stroke-linejoin="round" stroke-miterlimit="10"><path d="M7.5 21.5a2 2 0 01-2 2h-3a2 2 0 010-4h3a2 2 0 012 2zm8 0a2 2 0 01-2 2h-3a2 2 0 010-4h3a2 2 0 012 2zm8 0a2 2 0 01-2 2h-3a2 2 0 010-4h3a2 2 0 012 2zm-13.5-4a2 2 0 01-2 2H5a2 2 0 010-4h3a2 2 0 012 2zm8 0a2 2 0 01-2 2h-3a2 2 0 010-4h3a2 2 0 012 2zm-13.5-6v4"/><path d="M4.5 9.5v-.732A4.268 4.268 0 018.768 4.5H20.5a3 3 0 013 3V22"/><path d="M4.5 11.5h13v-2h-13v2"/></g><path fill="none" d="M0 0h24v24H0z"/></svg>