<svg xmlns="http://www.w3.org/2000/svg" viewBox="0 0 24 24" width="24" height="24"><g fill="none" stroke="#000" stroke-linecap="round" stroke-linejoin="round" stroke-miterlimit="10"><path d="M14.5 10.5a3 3 0 003-3h-6a3 3 0 003 3zm-4-3a4 4 0 018 0h-8zm-1 12a2 2 0 01-2 2h-3a2 2 0 010-4h3a2 2 0 012 2zm4-4a2 2 0 01-2 2h-3a2 2 0 010-4h3a2 2 0 012 2z"/><path d="M16.5 19.5a2 2 0 01-2 2h-3a2 2 0 010-4h3a2 2 0 012 2z"/><path d="M14.5 21.5H21a1.5 1.5 0 100-3h-2.5l-.5-4a3 3 0 00-3-3h-2.5m-8 0h8v2h-8zm0 0h-4v-1"/></g><path fill="none" d="M0 0h24v24H0z"/></svg>