<svg xmlns="http://www.w3.org/2000/svg" viewBox="0 0 24 24" width="24" height="24"><g fill="none" stroke="#000" stroke-linejoin="round" stroke-miterlimit="10"><circle stroke-linecap="round" cx="5.5" cy="18.5" r="2"/><circle stroke-linecap="round" cx="16.5" cy="18.5" r="2"/><path stroke-linecap="round" d="M7.5 18.5h7m-14 0h3m15 0h4a1 1 0 001-1v-12a1 1 0 00-1-1h-15a1 1 0 00-1 1v7h-4a1 1 0 00-1 1v5"/><path stroke-linecap="round" d="M8.5 10.5v-2h1m2 2v-2h1m2 2v-2h1m2 2v-2h1m2 2v-2h1"/><path d="M8 6.5h2m9 0h2"/><path stroke-linecap="round" d="M1.5 14.5h22"/></g><path fill="none" d="M0 0h24v24H0z"/></svg>