<svg xmlns="http://www.w3.org/2000/svg" viewBox="0 0 24 24" width="24" height="24"><defs><style>.a{fill:none;stroke:#000;stroke-linecap:round;stroke-linejoin:round;stroke-width:1.5px}</style></defs><title>bus-school</title><circle class="a" cx="5.25" cy="18.713" r="1.5"/><circle class="a" cx="17.25" cy="18.713" r="1.5"/><path class="a" d="M3.75 18.713h-1.5a1.5 1.5 0 0 1-1.5-1.5v-3a1.5 1.5 0 0 1 1.5-1.5h1.5a1.5 1.5 0 0 0 1.5-1.5v-4.5a1.5 1.5 0 0 1 1.5-1.5h15a1.5 1.5 0 0 1 1.5 1.5v10.5a1.5 1.5 0 0 1-1.5 1.5h-3m-12 0h9m-10.5-7.5h18m-12 0v-6m6 6v-6m6 9h-15"/></svg>