<svg xmlns="http://www.w3.org/2000/svg" viewBox="0 0 24 24" width="24" height="24"><defs><style>.a{fill:none;stroke:#000;stroke-linecap:round;stroke-linejoin:round;stroke-width:1.5px}</style></defs><title>bus-double</title><path class="a" d="M5 20.213v1.5a1.5 1.5 0 0 0 3 0v-1.5m10.5 0v1.5a1.5 1.5 0 0 1-3 0v-1.5m3.75-6a.75.75 0 0 1 .75.75v3.75a1.5 1.5 0 0 1-1.5 1.5H5a1.5 1.5 0 0 1-1.5-1.5v-16.5A1.5 1.5 0 0 1 5 .713h13.5a1.5 1.5 0 0 1 1.5 1.5v5.25a.751.751 0 0 1-.75.75h-.75v6zm-15.75 3h2.25m12 0H20"/><path class="a" d="M8 20.213l1.293-2.585a.748.748 0 0 1 .671-.415h3.572a.748.748 0 0 1 .671.415l1.293 2.585zm-4.5-6h8.25a.75.75 0 0 0 .75-.75v-4.5a.75.75 0 0 0-.75-.75H3.5m3-3H17m-1 3h2.5v6H16a.5.5 0 0 1-.5-.5v-5a.5.5 0 0 1 .5-.5z"/></svg>