<svg xmlns="http://www.w3.org/2000/svg" viewBox="0 0 24 24" width="24" height="24"><defs><style>.a{fill:none;stroke:#000;stroke-linecap:round;stroke-linejoin:round;stroke-width:1.5px}</style></defs><title>bus-1</title><path class="a" d="M3 20.213v1.5a1.5 1.5 0 0 0 3 0v-1.5m15 0v1.5a1.5 1.5 0 0 1-3 0v-1.5m4.5-1.5a1.5 1.5 0 0 1-1.5 1.5H3a1.5 1.5 0 0 1 0-3h18a1.5 1.5 0 0 1 1.5 1.5zM5 11.213h14a2 2 0 0 1 2 2v4H3v-4a2 2 0 0 1 2-2zm1 2.625a.375.375 0 0 1 .375.375m-.75 0A.375.375 0 0 1 6 13.838m0 .75a.375.375 0 0 1-.375-.375m.75 0a.375.375 0 0 1-.375.375m12-.75a.375.375 0 0 1 .375.375m-.75 0a.375.375 0 0 1 .375-.375m0 .75a.375.375 0 0 1-.375-.375m.75 0a.375.375 0 0 1-.375.375m-7.5-.375h3"/><path class="a" d="M19.5 11.276V3.713a3 3 0 0 0-3-3h-9a3 3 0 0 0-3 3v7.563m0-7.563h15m-7.5 0v7.5m-7.5-6H3a1.5 1.5 0 0 0-1.5 1.5v3m18-4.5H21a1.5 1.5 0 0 1 1.5 1.5v3"/></svg>