<svg xmlns="http://www.w3.org/2000/svg" viewBox="0 0 24 24" width="24" height="24"><defs><style>.a{fill:none;stroke:#000;stroke-linecap:round;stroke-linejoin:round;stroke-width:1.5px}</style></defs><title>bus-2</title><path class="a" d="M5.25 20.149v1.564a1.5 1.5 0 0 0 3 0v-1.5m10.5-.064v1.564a1.5 1.5 0 0 1-3 0v-1.5m-12-15h-1.5a1.5 1.5 0 0 0-1.5 1.5v3m19.5-4.5h1.5a1.5 1.5 0 0 1 1.5 1.5v3"/><rect class="a" x="3.75" y=".713" width="16.5" height="19.5" rx="2" ry="2"/><path class="a" d="M20.25 14.213H3.75m10.5 3h3m-10.5 0h3m0-13.5h4.5"/></svg>