<svg xmlns="http://www.w3.org/2000/svg" viewBox="0 0 24 24" width="24" height="24"><path fill="none" stroke="#000" stroke-linecap="round" stroke-linejoin="round" stroke-miterlimit="10" d="M4.5 11.5V4.034C4.5 2.102 6.067.5 8 .5h7c1.933 0 3.5 1.602 3.5 3.534V11.5m-15 10h3v2h-3zm13 0h3v2h-3zm-16-17h2v5h-2zm20 0h2v5h-2zM1.5 20A1.5 1.5 0 003 21.5h17a1.5 1.5 0 000-3H3A1.5 1.5 0 001.5 20zM20.438 4.5H2.5"/><circle fill="none" stroke="#000" stroke-linecap="round" stroke-linejoin="round" stroke-miterlimit="10" cx="17.5" cy="15" r="1"/><circle fill="none" stroke="#000" stroke-linecap="round" stroke-linejoin="round" stroke-miterlimit="10" cx="5.5" cy="15" r="1"/><path fill="none" stroke="#000" stroke-linecap="round" stroke-linejoin="round" stroke-miterlimit="10" d="M11.5 4.5v7m-2 3h4.016m-4.016 2h4.016M2.5 13.5a2 2 0 012-2h14a2 2 0 012 2v5h-18v-5z"/><path d="M15.5 2a.5.5 0 100 1 .5.5 0 000-1zm-8 0a.5.5 0 100 1 .5.5 0 000-1z"/><path fill="none" stroke="#000" stroke-linecap="round" stroke-linejoin="round" stroke-miterlimit="10" d="M20.5 9.5l-2 2m-16-2l2 2"/><path fill="none" d="M0 0h24v24H0z"/></svg>