<svg xmlns="http://www.w3.org/2000/svg" viewBox="0 0 24 24" width="24" height="24"><defs><style>.a{fill:none;stroke:#000;stroke-linecap:round;stroke-linejoin:round;stroke-width:1.5px}</style></defs><title>bus-ticket</title><path class="a" d="M5.25 19.811v1.9a1.5 1.5 0 0 0 3 0v-1.5M3.75 5.213h-1.5a1.5 1.5 0 0 0-1.5 1.5v3m19.5-4.5h1.5a1.5 1.5 0 0 1 1.5 1.5v3"/><path class="a" d="M8.25 20.213h-1.5a3 3 0 0 1-3-3v-13.5a3 3 0 0 1 3-3h10.5a3 3 0 0 1 3 3v7.5m-12 3h-4.5m3 3h1.5m1.5-13.5h4.5"/><rect class="a" x="11.25" y="14.213" width="12" height="9" rx="1.5" ry="1.5"/><path class="a" d="M11.25 17.213h12m-9 3h2.25"/></svg>