<svg xmlns="http://www.w3.org/2000/svg" viewBox="0 0 24 24" width="24" height="24"><defs><style>.a{fill:none;stroke:#000;stroke-linecap:round;stroke-linejoin:round;stroke-width:1.5px}</style></defs><title>bus</title><path class="a" d="M5.25 20.213v1.5a1.5 1.5 0 0 0 3 0v-1.5m10.5 0v1.5a1.5 1.5 0 0 1-3 0v-1.5m4.5-1.5a1.5 1.5 0 0 1-1.5 1.5H5.25a1.5 1.5 0 0 1-1.5-1.5v-13.5a4.5 4.5 0 0 1 4.5-4.5h7.5a4.5 4.5 0 0 1 4.5 4.5zm-10.5-15h4.5"/><path class="a" d="M3.75 6.713h16.5v7.5H3.75zm3 10.5h3m4.5 0h3m-13.5-9h-1.5a1.5 1.5 0 0 0-1.5 1.5v4.5m19.5-6h1.5a1.5 1.5 0 0 1 1.5 1.5v4.5"/></svg>