<svg xmlns="http://www.w3.org/2000/svg" viewBox="0 0 24 24" width="24" height="24"><defs><style>.a{fill:none;stroke:#000;stroke-linecap:round;stroke-linejoin:round;stroke-width:1.5px}</style></defs><title>business-deal-cash-1</title><path class="a" d="M10.507 23.249a28.6 28.6 0 0 0-4.177-1.733c-.7-.259-.585-2.087-.275-2.428A5.167 5.167 0 0 0 7.4 15.083a3.375 3.375 0 0 0-3.277-3.7 3.376 3.376 0 0 0-3.277 3.7 5.163 5.163 0 0 0 1.344 4.005c.31.341.424 2.169-.276 2.428l-1.168.431m22.333-7.692a4.774 4.774 0 0 1 .07.828 5.167 5.167 0 0 1-1.344 4.005c-.31.341-.425 2.169.275 2.428l1.168.431M13.5 23.244a28.652 28.652 0 0 1 4.167-1.728c.7-.259.586-2.087.276-2.428a4.579 4.579 0 0 1-1.262-2.695m.942-14.144H15a1.342 1.342 0 0 0-.5 2.588l2.655.825a1.341 1.341 0 0 1-.5 2.587H13.5m2.248-6v-1.5m0 9v-1.5"/><path class="a" d="M21 .749h.75a1.5 1.5 0 0 1 1.5 1.5V10.5a1.5 1.5 0 0 1-1.5 1.5h-4.5l-4.5 4.5V12h-3a1.5 1.5 0 0 1-1.5-1.5V2.249a1.5 1.5 0 0 1 1.5-1.5h1.5"/></svg>