<svg xmlns="http://www.w3.org/2000/svg" viewBox="0 0 24 24" width="24" height="24"><defs><style>.a{fill:none;stroke:#000;stroke-linecap:round;stroke-linejoin:round;stroke-width:1.5px}</style></defs><title>business-deal-negotiate</title><path class="a" d="M.75 4.994c4.4 1.063 5.48 5.707 7.5 10.756H6v2.785A2.465 2.465 0 0 1 3.535 21H2.25v2.25m21-18.256c-4.4 1.063-5.481 5.707-7.5 10.756H18v2.785A2.465 2.465 0 0 0 20.464 21h1.286v2.25M8.25 7.5h2.25v3l3.75-3h2.25a.75.75 0 0 0 .75-.75V1.5a.75.75 0 0 0-.75-.75H8.25a.75.75 0 0 0-.75.75v5.25a.75.75 0 0 0 .75.75z"/></svg>