<svg xmlns="http://www.w3.org/2000/svg" viewBox="0 0 24 24" width="24" height="24"><defs><style>.a{fill:none;stroke:#000;stroke-linecap:round;stroke-linejoin:round;stroke-width:1.5px}</style></defs><title>business-deal-handshake</title><path class="a" d="M20.29 14.34l-5.16.986m-.714-6.848l-3.468 1.146a1.151 1.151 0 0 1-1.405-.611 1.164 1.164 0 0 1 .529-1.53l3.359-1.689a2.343 2.343 0 0 1 1.861-.108l4.973 1.819"/><path class="a" d="M3.685 14.348H6.13l3.512 3.936A1.342 1.342 0 0 0 12 17.408v-.615l.175.07a1.656 1.656 0 0 0 2.271-1.537h.489a1.468 1.468 0 0 0 1.174-2.348L12.97 8.956m-2.387-1.731l-.358-.295a2.1 2.1 0 0 0-1.245-.409 2.081 2.081 0 0 0-.779.151L3.75 8.452"/><path class="a" d="M.75 6.75h2a.961.961 0 0 1 1 .916v6.417a.962.962 0 0 1-1 .917h-2m22.5 0h-2a.962.962 0 0 1-1-.917V7.666a.961.961 0 0 1 1-.916h2M12 16.793l-.978-.978m3.424-.489l-1.468-1.468"/></svg>