<svg xmlns="http://www.w3.org/2000/svg" viewBox="0 0 24 24" width="24" height="24"><defs><style>.a{fill:none;stroke:#000;stroke-linecap:round;stroke-linejoin:round;stroke-width:1.5px}</style></defs><title>business-money-basket</title><path class="a" d="M6.718 5.731L2.05 7.793a1.5 1.5 0 0 0-.766 1.978l2.644 5.989m8.092 0l10.258-4.531a1.5 1.5 0 0 0 .767-1.978l-3.36-7.607a1.5 1.5 0 0 0-1.978-.766l-5.086 2.246m-8.73 15.283l1.536 4.765m3.601-4.765l.788 4.765m12.048 0l1.362-3.438a1.1 1.1 0 0 0-1.073-1.327H1.847a1.1 1.1 0 0 0-1.073 1.327l1.362 3.438m17.993-4.765l-1.536 4.765m-3.621-4.765l-.768 4.765"/><path class="a" d="M10.715 11.24a2.221 2.221 0 0 0 2.052.094 1.861 1.861 0 0 0 1.308-2.222 1.861 1.861 0 0 0-2.5-.634 1.861 1.861 0 0 1-2.5-.636 1.861 1.861 0 0 1 1.308-2.221 2.224 2.224 0 0 1 2.052.093m.332 5.62l.396.951M9.99 4.67l.396.951"/></svg>