<svg xmlns="http://www.w3.org/2000/svg" viewBox="0 0 24 24" width="24" height="24"><defs><style>.a{fill:none;stroke:#000;stroke-linecap:round;stroke-linejoin:round;stroke-width:1.5px}</style></defs><title>business-big-small-fish</title><path class="a" d="M15.75 8.625C14.363 5.989 12.361 5.25 9.857 5.25A5.98 5.98 0 0 0 3.75 10.5L1.691 8.641a.519.519 0 0 0-.591-.159.562.562 0 0 0-.349.527v5.981a.562.562 0 0 0 .349.527.519.519 0 0 0 .592-.159L3.75 13.5a5.981 5.981 0 0 0 6.107 5.25 6.223 6.223 0 0 0 5.893-3.375L11.464 12z"/><circle class="a" cx="21" cy="12" r="2.25"/><path class="a" d="M18.75 12l-1.5-1.5m0 3l1.5-1.5M9.375 8.25A.375.375 0 1 1 9 8.625a.375.375 0 0 1 .375-.375"/></svg>