<svg xmlns="http://www.w3.org/2000/svg" viewBox="0 0 24 24" width="24" height="24"><g fill="none" stroke="#000" stroke-linejoin="round" stroke-miterlimit="10"><path stroke-linecap="round" d="M9 9.502c0-.553.447-.5 1-.5s1-.053 1 .5m2 0c0-.553.447-.5 1-.5s1-.053 1 .5M9.445 15.5C5.148 16.228.5 16.078.5 20.245V23.5h23v-3.255c0-4.168-4.476-3.991-8.93-4.745m3.415-6.862L18.5 5.5s.508-5-6.492-5-6.5 5-6.5 5L6 8.5"/><path d="M14.413 21.895L12 19l-2.412 2.894"/><path d="M10.5 16.109V17.5a1.5 1.5 0 003 0v-1.391M6 8.5c2 0 3-3.5 3-5 0 3.5 1.666 4 9.166 4"/><path stroke-linecap="round" d="M10 23.5l-1.994-7.783"/><path d="M6 16l-1.5 3.5H7l-2 4"/><path stroke-linecap="round" d="M14 23.5l2-7.783"/><path d="M18 16l1.5 3.5H17l2 4M6.474 8.432c-1.5 0-.966 3.068.534 3.068 0 3 3.5 5 5 5s5-2 5-5c1.307 0 1.849-2.277.976-2.863"/></g><path fill="none" d="M0 0h24v24H0z"/></svg>