<svg xmlns="http://www.w3.org/2000/svg" viewBox="0 0 24 24" width="24" height="24"><g fill="none" stroke="#000" stroke-linejoin="round" stroke-miterlimit="10"><path d="M12 19.5c-1.5 0-2.5 4-2.5 4h5s-1-4-2.5-4zm0-3c-.729 0-2-.557-2.5-1.057v-1l-.62.345c-.742.36-1.548 1.295-1.809 2.077l-1.033 3.078L12 16.5z"/><path d="M16.438 15.943c2.5 1 5.216 1.822 6 3 1 1.5 1.062 4.557 1.062 4.557H.5s.062-3.057 1.062-4.557c.784-1.178 3.5-2 6-3"/><path d="M12 16.5c.729 0 2-.557 2.5-1.057v-1l.62.345c.742.36 1.548 1.295 1.809 2.077l1.033 3.078L12 16.5z"/><path d="M10.5 17.366V18a1.5 1.5 0 103 0v-.634m1-1.923v-3s1.531-1 1.531-3c.5 0 1.016-2 .016-2.5 0-.298 1.347-2.803 1.008-4.5-.5-2.5-7.496-2.5-7.996-.5-3 0-.998 4.594-.998 5-1 .5-.53 2.5-.03 2.5 0 2 1.47 3 1.47 3v3"/></g><path fill="none" d="M0 0h24v24H0z"/></svg>