<svg xmlns="http://www.w3.org/2000/svg" viewBox="0 0 24 24" width="24" height="24"><defs><style>.a{fill:none;stroke:#000;stroke-linecap:round;stroke-linejoin:round;stroke-width:1.5px}</style></defs><title>business-pearl</title><path class="a" d="M2.25 16.6l2.28 1.332a2.449 2.449 0 0 0 2.706-.414 2.448 2.448 0 0 1 3.159-.136 2.621 2.621 0 0 0 3.21 0 2.448 2.448 0 0 1 3.159.136 2.448 2.448 0 0 0 2.705.414L21.75 16.6M2.25 7.4l2.28-1.335a2.448 2.448 0 0 1 2.706.415 2.448 2.448 0 0 0 3.159.135 2.621 2.621 0 0 1 3.21 0 2.448 2.448 0 0 0 3.159-.135 2.446 2.446 0 0 1 2.705-.415L21.75 7.4"/><circle class="a" cx="12" cy="12" r="2.25"/><path class="a" d="M18.276 12c2.124-1.17 3.474-2.919 3.474-4.875C21.75 3.6 17.385.75 12 .75S2.25 3.6 2.25 7.125C2.25 9.081 3.6 10.83 5.724 12 3.6 13.169 2.25 14.918 2.25 16.875c0 3.52 4.365 6.375 9.75 6.375s9.75-2.855 9.75-6.375c0-1.957-1.35-3.706-3.474-4.875z"/></svg>