<svg xmlns="http://www.w3.org/2000/svg" viewBox="0 0 24 24" width="24" height="24"><g fill="none" stroke="#000" stroke-linejoin="round" stroke-miterlimit="10"><path d="M11.5 1l2 2.5-2 2.5m-2-2.5h4M11.5 18l-2 2.5 2 2.5m2-2.5h-4M10.211 13.416a1.289 1.289 0 101.289-1.289 1.289 1.289 0 111.288-1.289M11.5 8.5v1.05m0 5.154v1.044" stroke-linecap="round"/><circle cx="3" cy="8" r="2.5"/><path d="M5.5 21.5h-5V15a2.5 2.5 0 115 0v6.5z"/><circle cx="21" cy="8" r="2.5"/><path d="M23.5 21.5h-5V15a2.5 2.5 0 115 0v6.5z"/></g><path fill="none" d="M0 0h24v24H0z"/></svg>