<svg xmlns="http://www.w3.org/2000/svg" viewBox="0 0 24 24" width="24" height="24"><defs><style>.a{fill:none;stroke:#000;stroke-linecap:round;stroke-linejoin:round;stroke-width:1.5px}</style></defs><title>business-deal-women-cash</title><circle class="a" cx="6" cy="15.749" r="3"/><path class="a" d="M3 15.749S3 19.5.75 19.5M9 15.749s0 3.75 2.25 3.75m-9.494 3.75a4.5 4.5 0 0 1 8.488 0m10.356-9A3 3 0 0 1 16.016 18M21 15.75s0 3.75 2.25 3.75m-9.494 3.749a4.5 4.5 0 0 1 8.488 0m-4.619-21H15a1.342 1.342 0 0 0-.5 2.588l2.655.825a1.342 1.342 0 0 1-.5 2.587H13.5m2.25-6v-1.5m0 9v-1.5"/><path class="a" d="M21 .749h.75a1.5 1.5 0 0 1 1.5 1.5V10.5a1.5 1.5 0 0 1-1.5 1.5h-4.5l-4.5 4.5V12h-3a1.5 1.5 0 0 1-1.5-1.5V2.249a1.5 1.5 0 0 1 1.5-1.5h1.5"/></svg>