<svg xmlns="http://www.w3.org/2000/svg" viewBox="0 0 24 24" width="24" height="24"><defs><style>.a{fill:none;stroke:#000;stroke-linecap:round;stroke-linejoin:round;stroke-width:1.5px}</style></defs><title>business-magic-rabbit</title><path class="a" d="M17.367 22.091a1.03 1.03 0 0 1-1.018 1.159H7.9a1.03 1.03 0 0 1-1.018-1.159L7.765 15h8.72zM3.875 15h16.5M7.343 18.394h9.564M10.25 9.75a.375.375 0 1 0 .375.375.374.374 0 0 0-.375-.375m3.75 0a.375.375 0 1 0 .375.375A.374.374 0 0 0 14 9.75"/><path class="a" d="M17.224 1.162a25.512 25.512 0 0 0-3.358 4.422 4.7 4.7 0 0 0-3.482 0 25.473 25.473 0 0 0-3.358-4.422C4.986-.351 2.437 2.674 3.967 4.187c.7.69 2.809 2.309 4.083 3.271a4.876 4.876 0 1 0 8.149 0c1.274-.962 3.386-2.581 4.084-3.271 1.53-1.513-1.019-4.538-3.059-3.025z"/></svg>