<svg xmlns="http://www.w3.org/2000/svg" viewBox="0 0 24 24" width="24" height="24"><defs><style>.a{fill:none;stroke:#000;stroke-linecap:round;stroke-linejoin:round;stroke-width:1.5px}</style></defs><title>business-boat-success</title><path class="a" d="M23.25 23.25a5.281 5.281 0 0 1-3.913-1.957 3.878 3.878 0 0 1-3.424 1.957A5.541 5.541 0 0 1 12 21.293a4 4 0 0 1-3.424 1.957 5.723 5.723 0 0 1-3.913-1.957A4.238 4.238 0 0 1 .75 23.25m22.5-4.794a5.281 5.281 0 0 1-3.913-1.956 3.878 3.878 0 0 1-3.424 1.956A5.542 5.542 0 0 1 12 16.5a4 4 0 0 1-3.424 1.956A5.723 5.723 0 0 1 4.663 16.5 4.238 4.238 0 0 1 .75 18.456m6.85-7.212l4.023-4.336a.534.534 0 0 1 .758 0l4.019 4.336"/><path class="a" d="M7.326 18.262l-3.76-6.389a.387.387 0 0 1 .017-.422.5.5 0 0 1 .417-.207h16a.507.507 0 0 1 .418.206.389.389 0 0 1 .018.421l-3.708 6.4M20.38 6a2.756 2.756 0 0 0 2.87-2.625A2.756 2.756 0 0 0 20.38.75a2.811 2.811 0 0 0-2.815 2.134 1.914 1.914 0 0 0-.772-.166A1.722 1.722 0 0 0 15 4.359 1.722 1.722 0 0 0 16.793 6z"/></svg>