<svg xmlns="http://www.w3.org/2000/svg" viewBox="0 0 24 24" width="24" height="24"><defs><style>.a{fill:none;stroke:#000;stroke-linecap:round;stroke-linejoin:round;stroke-width:1.5px}</style></defs><title>business-rabbit-hat</title><path class="a" d="M18.72 21.931a.977.977 0 0 1-.245.913 1.326 1.326 0 0 1-.974.406H5a1.326 1.326 0 0 1-.974-.406.977.977 0 0 1-.245-.913l2.16-8.431h10.618zM2.25 13.5h18M4.787 18h12.926m-5.478-4.5l-1.416-9.672C10.574 2.159 9.773.57 8.1.815s-1.982 2-1.738 3.665l1.325 9.02m7.917 0l2.432-6.254m-.969-1.025a3.248 3.248 0 0 0 4.146 1.264c1.066-.662.3-1.945-.2-2.712a5.475 5.475 0 0 0-3.473-2.446l-.046-.008a2.1 2.1 0 0 0-2.326 1.306c-2.88 7.359-3.163 8.094-3.184 8.153"/></svg>