<svg xmlns="http://www.w3.org/2000/svg" viewBox="0 0 24 24" width="24" height="24"><defs><style>.a{fill:none;stroke:#000;stroke-linecap:round;stroke-linejoin:round;stroke-width:1.5px}</style></defs><title>business-deal-cash-exchange</title><circle class="a" cx="5.252" cy="3.375" r="2.625"/><path class="a" d="M7.283 11.25H.752a4.5 4.5 0 0 1 7.833-3.024m9.664 4.574a2.626 2.626 0 1 1-1.59 4.163m-2.407 6.287a4.5 4.5 0 0 1 9 0zm-3.358-8.656a2.221 2.221 0 0 0 1.858.875c1.139 0 2.063-.693 2.063-1.547s-.924-1.546-2.063-1.546-2.062-.693-2.062-1.548.923-1.547 2.062-1.547a2.221 2.221 0 0 1 1.858.875m-1.858 5.313V16.5m0-8.25v1.031M7.502 18l-2.25 2.25 2.25 2.25m-2.25-2.25h5.25m6-18.75l2.25 2.25L16.502 6m2.25-2.25h-5.25"/></svg>