<svg xmlns="http://www.w3.org/2000/svg" viewBox="0 0 24 24" width="24" height="24"><defs><style>.a{fill:none;stroke:#000;stroke-linecap:round;stroke-linejoin:round;stroke-width:1.5px}</style></defs><title>business-deal-cash</title><circle class="a" cx="4.626" cy="17.625" r="2.625"/><path class="a" d="M8.5 23.25a4.464 4.464 0 0 0-7.752 0"/><circle class="a" cx="19.374" cy="17.625" r="2.625"/><path class="a" d="M23.25 23.25a4.464 4.464 0 0 0-7.752 0m-.873-21H12a1.341 1.341 0 0 0-.5 2.587l2.655.825a1.342 1.342 0 0 1-.5 2.588H10.5m2.25-6V.75m0 9v-1.5"/><path class="a" d="M8.25.75h-3a1.5 1.5 0 0 0-1.5 1.5v8.25a1.5 1.5 0 0 0 1.5 1.5h6v4.5l4.5-4.5h4.5a1.5 1.5 0 0 0 1.5-1.5V2.25a1.5 1.5 0 0 0-1.5-1.5H18"/></svg>