<svg xmlns="http://www.w3.org/2000/svg" viewBox="0 0 24 24" width="24" height="24"><defs><style>.a{fill:none;stroke:#000;stroke-linecap:round;stroke-linejoin:round;stroke-width:1.5px}</style></defs><title>business-trip-plane</title><path class="a" d="M6 8.94C3.838 8.629.794 7.159.751 6.321.7 5.373 3.8 2.934 7.108 3h9.783l2.185-1.76a1.733 1.733 0 0 1 1.467-.49H22.5l-3.652 7.076A2.555 2.555 0 0 1 16.63 9h-3.163"/><path class="a" d="M11 10.5H6.5a.5.5 0 0 1-.5-.506V7.972a.5.5 0 0 1 .5-.506H11c1.151 0 1.465.47 2.5 1.517-1.46 1.526-1.8 1.517-2.5 1.517zm7.359-4.501h2.934"/><rect class="a" x="11.25" y="14.999" width="12" height="8.25" rx=".677" ry=".677"/><path class="a" d="M14.413 15l1.011-2.021A1.477 1.477 0 0 1 16.891 12h.978a1.478 1.478 0 0 1 1.468.979L20.348 15m-9.098 3.749h12m-6 0v2.055m-9-15.555H9m3.75 0h.75"/></svg>