<svg xmlns="http://www.w3.org/2000/svg" viewBox="0 0 24 24" width="24" height="24"><defs><style>.a{fill:none;stroke:#000;stroke-linecap:round;stroke-linejoin:round;stroke-width:1.5px}</style></defs><title>business-burn-money</title><path class="a" d="M8.05 13.5a3.887 3.887 0 0 0-.394 4.432 1.385 1.385 0 0 0 1.477-1.182 3.134 3.134 0 0 1 1.625 2.95 3.546 3.546 0 0 1-3.545 3.55 3.6 3.6 0 0 1-3.546-3.55 5.894 5.894 0 0 1 4.383-6.2z"/><path class="a" d="M1.5 13.523L13.834 1.189a1.5 1.5 0 0 1 2.121 0l6.364 6.364a1.5 1.5 0 0 1 0 2.121l-7.974 7.975"/><circle class="a" cx="12.258" cy="11.25" r="2.25"/><path class="a" d="M13.303 5.962l1.591-1.591"/></svg>