<svg xmlns="http://www.w3.org/2000/svg" viewBox="0 0 24 24" width="24" height="24"><defs><style>.a{fill:none;stroke:#000;stroke-linecap:round;stroke-linejoin:round;stroke-width:1.5px}</style></defs><title>business-contract-break</title><path class="a" d="M20.25 21.411v-2.13l2.67-3.906c.879-1.5-.186-3.865-1.052-6.175m-2.018 6.71l-.95-3.441a1.218 1.218 0 1 0-2.35.641l1.05 3.79-.711 1.283a10.462 10.462 0 0 0-.489 3.227m-12.649.001v-2.13l-2.672-3.906C.2 13.873 1.265 11.51 2.131 9.2m2.019 6.71l.95-3.441a1.218 1.218 0 1 1 2.35.641L6.4 16.9l.711 1.283a10.462 10.462 0 0 1 .489 3.228m4.4-3.189l-.004-.003 2.715 1.683"/><path class="a" d="M4.714 13.861L1.233 7.58a.979.979 0 0 1 .321-1.293l5.189-3.458a.49.49 0 0 1 .757.41V6.5h1.761a.489.489 0 0 1 .489.489v3.661l3 4.1v-4.5a.49.49 0 0 1 .052-.219L14.31 6.77a.489.489 0 0 1 .438-.27H16.5V3.239a.49.49 0 0 1 .757-.41l5.189 3.458a.979.979 0 0 1 .321 1.293l-3.481 6.281M12 18.222l.004-.003-2.715 1.683"/></svg>