<svg xmlns="http://www.w3.org/2000/svg" viewBox="0 0 24 24" width="24" height="24"><defs><style>.a{fill:none;stroke:#000;stroke-linecap:round;stroke-linejoin:round;stroke-width:1.5px}</style></defs><title>business-contract-handshake-sign</title><path class="a" d="M17.25.75H3.75a3 3 0 0 0-3 3v18a1.5 1.5 0 0 0 1.5 1.5h1.435M3.75 4.5h6.75m-6.75 3h6.75m-6.75 3h3.359"/><path class="a" d="M15 9.75V3A2.257 2.257 0 0 1 17.25.75 2.256 2.256 0 0 1 19.5 3v1.5H15m6.75 15.11l-4.787.958m.475-5.43l-2.26.954a1.42 1.42 0 0 1-1.122-.015 1.483 1.483 0 0 1-.781-.831 1.525 1.525 0 0 1 .706-1.9l2.259-1.128a1.972 1.972 0 0 1 1.594-.094l4.639 1.828"/><path class="a" d="M8.2 20.606h1.6l3.049 2.326a.83.83 0 0 0 1.15.09l4.26-3.518a.842.842 0 0 0 .129-1.164l-2.347-2.609m-2.305-2.225l-.247-.2a1.79 1.79 0 0 0-1.725-.22L8.194 14.6"/><path class="a" d="M6.75 21.356h.3a1.141 1.141 0 0 0 1.2-1.071v-5.358a1.141 1.141 0 0 0-1.2-1.071h-.3m16.5 7.5h-.3a1.141 1.141 0 0 1-1.2-1.071v-5.358a1.141 1.141 0 0 1 1.2-1.071h.3"/></svg>