<svg xmlns="http://www.w3.org/2000/svg" viewBox="0 0 24 24" width="24" height="24"><defs><style>.a{fill:none;stroke:#000;stroke-linecap:round;stroke-linejoin:round;stroke-width:1.5px}</style></defs><title>business-climb-top</title><path class="a" d="M4.25 23.229l8.5-13.5a1.261 1.261 0 0 1 2 0l8.5 13.5z"/><path class="a" d="M4.25 23.229H.75l3.75-6.75 2.175 2.899M8.7 16.162l2.348 1.973a1 1 0 0 0 1.353-.056l.642-.643a1 1 0 0 1 1.414 0l.642.643a1 1 0 0 0 1.353.056l2.348-1.973m-5.3-6.895V.729m0 0h7.193a.516.516 0 0 1 .466.3.529.529 0 0 1-.063.555l-1.137 1.442a.532.532 0 0 0 0 .656L21.1 5.126a.531.531 0 0 1 .063.556.515.515 0 0 1-.466.3H13.5"/></svg>