<svg xmlns="http://www.w3.org/2000/svg" viewBox="0 0 24 24" width="24" height="24"><defs><style>.a{fill:none;stroke:#000;stroke-linecap:round;stroke-linejoin:round;stroke-width:1.5px}</style></defs><title>business-human-plant</title><path class="a" d="M15.5 23.25v-2.935h1.088a2.935 2.935 0 0 0 2.935-2.935v-2.935h3.314C20.69 8 19.461.75 11.342.75a9.53 9.53 0 0 0-5.625 17.228v5.272"/><path class="a" d="M8.621 14.113a2.242 2.242 0 0 1-2.778-1.445 2.241 2.241 0 0 1 .8-3.028 2.242 2.242 0 0 1 2.778 1.445m7.791-1.335a.375.375 0 1 1-.375.375.375.375 0 0 1 .375-.375M11 3.815l-.75 1.5.75 1.5m-3-3l-.75 1.5.75 1.5m6-3l-.75 1.5.75 1.5m-12.75-1.5H15.5"/></svg>