<svg xmlns="http://www.w3.org/2000/svg" viewBox="0 0 24 24" width="24" height="24"><g fill="none" stroke="#000" stroke-linejoin="round" stroke-miterlimit="10"><path d="M9.5 6a1.5 1.5 0 013 0v11a1.5 1.5 0 01-3 0V6z"/><path stroke-linecap="round" d="M10.061 4.837L6 .792m5.936 4.045L16 .792M11 18.5c0 6.566-7.43 6.259-7.43 1.451 0-1.932 1.565-3.451 3.496-3.451C2.951 14.394.5 13.627.5 10.344c0-1.636.865-3.148 2.274-3.979a4.619 4.619 0 014.582-.056L9.5 7.5m1.5 11c0 6.535 7.43 6.259 7.43 1.451 0-1.932-1.565-3.451-3.496-3.451 4.115-2.106 6.566-2.873 6.566-6.156a4.619 4.619 0 00-2.274-3.979 4.619 4.619 0 00-4.582-.056L12.5 7.5"/><circle stroke-linecap="round" cx="5.5" cy="10.5" r="2"/><circle stroke-linecap="round" cx="16.5" cy="10.5" r="2"/><path stroke-linecap="round" d="M9.5 14.5h3m-3-3h3m-3-3h3"/></g><path fill="none" d="M0 0h24v24H0z"/></svg>