<svg xmlns="http://www.w3.org/2000/svg" viewBox="0 0 24 24" width="24" height="24"><g fill="none" stroke="#000" stroke-linecap="round" stroke-linejoin="round" stroke-miterlimit="10"><path d="M18.425 11.1a5.6 5.6 0 003.075-5A5.6 5.6 0 0015.9.5H6.041C2.951.5.5 3.007.5 6.1c0 3.092 2.11 5.6 5.2 5.6L4.301 23.5h14l-1.455-7.155"/><path d="M22.262 21.771L10.502 2.589l-.187.114c-4.076 2.5 1.341 11.494 5.248 9.1l.438-.242M9 11c-1.5 1.5-.5 4.5 1.5 4.5-2.225 4.894 5.445 4.642 3.996 1.006"/></g><path fill="none" d="M0 0h24v24H0z"/></svg>