<svg xmlns="http://www.w3.org/2000/svg" viewBox="0 0 24 24" width="24" height="24"><path d="M16.5 23.5h-9l-1-6h11zm-8-6v-6H5s-1.5 0-1.5-1.5V7s0-1.5 1.5-1.5S6.5 7 6.5 7v1.5c0 .5.5 1 1 1h1v-3C8.5 6 9 3 12 3s3.5 3 3.5 3.5v6h2c1.5 0 .5-2 2-2 1 0 1 1 1 1.5v1c0 .5-.5 1.5-1.5 1.5h-3.5v3m4-8.5v1.5m2-.5l-1.102 1.102M22 12h-1.5m-3-2l1.109 1.109M11.5.5V3M16 2l-1.5 2M8 2l1.5 2m8 1.5h-2.188M5 4v1.5m2-1L5.879 5.738M2.881 4.5l1.324 1.205M6.5 14.5h2" fill="none" stroke="#000" stroke-linecap="round" stroke-linejoin="round" stroke-miterlimit="10"/><path fill="none" d="M0 0h24v24H0z"/></svg>