<svg id="Regular" xmlns="http://www.w3.org/2000/svg" viewBox="0 0 24 24" width="24" height="24"><defs><style>.cls-1{fill:none;stroke:#000;stroke-linecap:round;stroke-linejoin:round;stroke-width:1.5px}</style></defs><title>cake-birthday</title><path class="cls-1" d="M1.473 23.25h21"/><rect class="cls-1" x="2.973" y="9.75" width="18" height="10.5" rx="1.5" ry="1.5"/><path class="cls-1" d="M11.973 7.5v2.25m1.5-6.75a1.5 1.5 0 0 1-3 0c0-.828 1.5-2.25 1.5-2.25s1.5 1.422 1.5 2.25zm4.5 4.5v2.25m1.5-6.75a1.5 1.5 0 0 1-3 0c0-.828 1.5-2.25 1.5-2.25s1.5 1.422 1.5 2.25zm-13.5 4.5v2.25M7.473 3a1.5 1.5 0 0 1-3 0c0-.828 1.5-2.25 1.5-2.25s1.5 1.422 1.5 2.25zm-4.5 10.125a2.622 2.622 0 0 0 4.5 1.833 2.61 2.61 0 0 0 4.125-.5 2.605 2.605 0 0 0 4.5 0 2.618 2.618 0 0 0 4.875-1.333"/></svg>