<svg id="Regular" xmlns="http://www.w3.org/2000/svg" viewBox="0 0 24 24" width="24" height="24"><defs><style>.cls-1{fill:none;stroke:#000;stroke-linecap:round;stroke-linejoin:round;stroke-width:1.5px}</style></defs><title>cake-sugar-cane</title><path class="cls-1" d="M17.973 23.25a2.25 2.25 0 0 1-2.25-2.25V9a3.75 3.75 0 0 0-7.5 0 2.25 2.25 0 0 1-4.5 0 8.25 8.25 0 0 1 16.5 0v12a2.25 2.25 0 0 1-2.25 2.25zM3.725 8.833l4.699-1.044M6.262 3.052l4.059 2.582M12.14.752l1.044 4.699m4.738-2.162l-2.583 4.058m4.884 1.82l-4.5 1m4.5 3.5l-4.5 1m4.5 3.5l-4.5 1"/></svg>