<svg id="Regular" xmlns="http://www.w3.org/2000/svg" viewBox="0 0 24 24" width="24" height="24"><defs><style>.cls-1{fill:none;stroke:#000;stroke-linecap:round;stroke-linejoin:round;stroke-width:1.5px}</style></defs><title>cake-sifter</title><path class="cls-1" d="M2.197 14.25v2.25m0 3v2.25m9-7.5v2.25m0 3v2.25m-4.5-6V18m0 3v2.25m16.5-18h-10.5m-.911 0a4.014 4.014 0 0 0 .161-1.125 3.373 3.373 0 0 0-6.5-1.257 1.853 1.853 0 0 0-1.375-.618A1.874 1.874 0 0 0 2.2 4.125a2.925 2.925 0 0 0 .221 1.125m10.279 0a6 6 0 0 1-11.942.856.75.75 0 0 1 .742-.856z"/></svg>