<svg xmlns="http://www.w3.org/2000/svg" viewBox="0 0 24 24" width="24" height="24"><g fill="none" stroke="#000" stroke-linejoin="round" stroke-miterlimit="10"><path d="M20.5 21c0 1.375-1.125 2.5-2.5 2.5H5A2.507 2.507 0 012.5 21V3C2.5 1.625 3.625.5 5 .5h13c1.375 0 2.5 1.125 2.5 2.5v18z"/><path d="M18.5 5.606a.896.896 0 01-.895.894H5.395a.896.896 0 01-.895-.894V3.395c0-.493.402-.895.895-.895h12.211c.492 0 .895.402.895.895v2.211zM2.5 15.5h18m-18-7h18m-9 0v15"/><path stroke-linecap="round" d="M5 12.5h3m6.5 0h3m-3 8h3m-3-2h3M6.5 11v3M5 18l3 3m0-3l-3 3"/></g><path fill="none" d="M0 0h24v24H0z"/></svg>