<svg xmlns="http://www.w3.org/2000/svg" viewBox="0 0 24 24" width="24" height="24"><defs><style>.a{fill:none;stroke:#000;stroke-linecap:round;stroke-linejoin:round;stroke-width:1.5px}</style></defs><title>calendar-3</title><rect class="a" x=".75" y="3.75" width="22.5" height="19.5" rx="1.5" ry="1.5"/><path class="a" d="M.75 9.75h22.5M6.75 6V.75M17.25 6V.75M5.625 13.5a.375.375 0 1 0 .375.375.375.375 0 0 0-.375-.375m0 5.25a.375.375 0 1 0 .375.375.375.375 0 0 0-.375-.375M12 13.5a.375.375 0 1 0 .375.375A.375.375 0 0 0 12 13.5m0 5.25a.375.375 0 1 0 .375.375.375.375 0 0 0-.375-.375m6.375-5.25a.375.375 0 1 0 .375.375.375.375 0 0 0-.375-.375m0 5.25a.375.375 0 1 0 .375.375.375.375 0 0 0-.375-.375"/></svg>