<svg xmlns="http://www.w3.org/2000/svg" viewBox="0 0 24 24" width="24" height="24"><defs><style>.a,.b{fill:none;stroke:#000;stroke-linejoin:round;stroke-width:1.5px}.b{stroke-linecap:round}</style></defs><title>calendar-favorite</title><rect class="a" x=".75" y="3.75" width="22.5" height="19.5" rx="1.5" ry="1.5"/><path class="a" d="M.75 9.75h22.5"/><path class="b" d="M6.75 6V.75M17.25 6V.75m-5.686 11.932a.489.489 0 0 1 .872 0l1.012 2.042a.484.484 0 0 0 .365.262l2.273.329a.483.483 0 0 1 .39.324.476.476 0 0 1-.121.49l-1.65 1.6a.476.476 0 0 0-.138.421l.389 2.255a.473.473 0 0 1-.194.467.491.491 0 0 1-.511.035l-2.024-1.059a.492.492 0 0 0-.454 0l-2.024 1.059a.491.491 0 0 1-.511-.035.473.473 0 0 1-.194-.467l.389-2.255a.476.476 0 0 0-.138-.421l-1.65-1.6a.476.476 0 0 1-.121-.49.482.482 0 0 1 .39-.324l2.272-.329a.484.484 0 0 0 .366-.262z"/></svg>