<svg xmlns="http://www.w3.org/2000/svg" viewBox="0 0 24 24" width="24" height="24"><defs><style>.a,.b{fill:none;stroke:#000;stroke-linejoin:round;stroke-width:1.5px}.a{stroke-linecap:round}</style></defs><title>calendar-edit-1</title><path class="a" d="M22.63 14.786L15 22.416l-3.75.75.75-3.75 7.63-7.63a2.116 2.116 0 0 1 2.992 0l.008.008a2.114 2.114 0 0 1 0 2.992zM9 17.25H2.25a1.5 1.5 0 0 1-1.5-1.5V3.765a1.5 1.5 0 0 1 1.5-1.5h13.5a1.5 1.5 0 0 1 1.5 1.5V8.25"/><path class="b" d="M.75 6.75h16.5"/><path class="a" d="M5.243 3.75v-3m7.5 3v-3"/></svg>