<svg xmlns="http://www.w3.org/2000/svg" viewBox="0 0 24 24" width="24" height="24"><defs><style>.a,.b{fill:none;stroke:#000;stroke-linejoin:round;stroke-width:1.5px}.a{stroke-linecap:round}</style></defs><title>calendar-favorite-1</title><path class="a" d="M17.955 11.681L19.494 15h3a.735.735 0 0 1 .518 1.283l-2.6 2.563 1.44 3.313a.784.784 0 0 1-1.117.982l-3.481-1.961-3.482 1.961a.784.784 0 0 1-1.117-.982l1.44-3.313-2.6-2.563a.734.734 0 0 1 .51-1.283H15l1.542-3.322a.8.8 0 0 1 1.413.003zM7.479 17.25H2.25a1.5 1.5 0 0 1-1.5-1.5v-12a1.5 1.5 0 0 1 1.5-1.5h13.5a1.5 1.5 0 0 1 1.5 1.5v4.5"/><path class="b" d="M.75 6.75h16.5"/><path class="a" d="M5.243 3.75v-3m7.5 3v-3"/></svg>