<svg xmlns="http://www.w3.org/2000/svg" viewBox="0 0 24 24" width="24" height="24"><defs><style>.a,.b{fill:none;stroke:#000;stroke-linejoin:round;stroke-width:1.5px}.a{stroke-linecap:round}</style></defs><title>calendar-favorite-heart-1</title><path class="a" d="M17.25 23.25l-5.114-5.334a3.025 3.025 0 0 1-.566-3.493 3.025 3.025 0 0 1 4.845-.786l.835.835.835-.835a3.026 3.026 0 0 1 4.846.786 3.027 3.027 0 0 1-.567 3.493zm-9-6h-6a1.5 1.5 0 0 1-1.5-1.5V3.765a1.5 1.5 0 0 1 1.5-1.5h13.5a1.5 1.5 0 0 1 1.5 1.5V8.25"/><path class="b" d="M.75 6.75h16.5"/><path class="a" d="M5.243 3.75v-3m7.5 3v-3"/></svg>