<svg xmlns="http://www.w3.org/2000/svg" viewBox="0 0 24 24" width="24" height="24"><defs><style>.a,.b{fill:none;stroke:#000;stroke-linejoin:round;stroke-width:1.5px}.a{stroke-linecap:round}</style></defs><title>calendar-lock</title><path class="a" d="M4.5 23.25H3a1.5 1.5 0 0 1-1.5-1.5V5.25A1.5 1.5 0 0 1 3 3.75h18a1.5 1.5 0 0 1 1.5 1.5v16.5a1.5 1.5 0 0 1-1.5 1.5h-1.5"/><path class="b" d="M1.5 9.75h21"/><path class="a" d="M7.5 6V.75m9 5.25V.75M12 19.875a.375.375 0 1 1-.375.375.375.375 0 0 1 .375-.375"/><rect class="a" x="7.5" y="17.25" width="9" height="6" rx=".375" ry=".375"/><path class="a" d="M9 17.25v-1.5a3 3 0 0 1 6 0v1.5"/></svg>