<svg xmlns="http://www.w3.org/2000/svg" viewBox="0 0 24 24" width="24" height="24"><defs><style>.a{fill:none;stroke:#000;stroke-linecap:round;stroke-linejoin:round;stroke-width:1.5px}</style></defs><title>calendar-warning</title><path class="a" d="M8.25 17.25h-6a1.5 1.5 0 0 1-1.5-1.5v-12a1.5 1.5 0 0 1 1.5-1.5h13.5a1.5 1.5 0 0 1 1.5 1.5v4.5M.75 6.75h16.5m-12-3v-3m7.5 3v-3m4.5 18.75a.375.375 0 1 0 .375.375.375.375 0 0 0-.375-.375m0-2.25V15"/><path class="a" d="M23.063 20.683a1.774 1.774 0 0 1-1.587 2.567h-8.452a1.774 1.774 0 0 1-1.587-2.567l4.226-8.452a1.774 1.774 0 0 1 3.174 0z"/></svg>