<svg xmlns="http://www.w3.org/2000/svg" viewBox="0 0 24 24" width="24" height="24"><defs><style>.a,.b{fill:none;stroke:#000;stroke-linejoin:round;stroke-width:1.5px}.a{stroke-linecap:round}</style></defs><title>calendar-cash-1</title><path class="a" d="M18.75 14.25h-2.033a1.342 1.342 0 0 0-.5 2.588l2.064.825a1.342 1.342 0 0 1-.5 2.587H15.75m1.5-6v-.75m0 7.5v-.75"/><circle class="a" cx="17.25" cy="17.25" r="6"/><path class="a" d="M8.25 17.25h-6a1.5 1.5 0 0 1-1.5-1.5V3.765a1.5 1.5 0 0 1 1.5-1.5h13.5a1.5 1.5 0 0 1 1.5 1.5V8.25"/><path class="b" d="M.75 6.75h16.5"/><path class="a" d="M5.243 3.75v-3m7.5 3v-3"/></svg>