<svg xmlns="http://www.w3.org/2000/svg" viewBox="0 0 24 24" width="24" height="24"><defs><style>.a{fill:none;stroke:#000;stroke-linecap:round;stroke-linejoin:round;stroke-width:1.5px}</style></defs><title>calendar-favorite-heart</title><rect class="a" x=".75" y="3.75" width="22.5" height="19.5" rx="1.5" ry="1.5"/><path class="a" d="M.75 9.75h22.5M6.75 6V.75M17.25 6V.75M15.93 13.6a1.9 1.9 0 0 0-2.751 0L12 14.814 10.821 13.6a1.9 1.9 0 0 0-2.751 0 2.059 2.059 0 0 0 0 2.844l3.511 3.631a.579.579 0 0 0 .838 0l3.511-3.635a2.059 2.059 0 0 0 0-2.84z"/></svg>