<svg xmlns="http://www.w3.org/2000/svg" viewBox="0 0 24 24" width="24" height="24"><g fill="none" stroke="#000" stroke-linejoin="round" stroke-miterlimit="10"><path d="M22.5 22a1.5 1.5 0 01-1.5 1.5H3A1.5 1.5 0 011.5 22v-9A1.5 1.5 0 013 11.5h6l2-2h6l2 2h2a1.5 1.5 0 011.5 1.5v9z"/><path d="M3.5 11.5v-1a1 1 0 011-1h1a1 1 0 011 1v1"/><circle cx="5" cy="15" r="1.5"/><circle cx="14.5" cy="17" r="2.5"/><circle cx="14.5" cy="17" r="4.5"/><path d="M8.5.5h11v6h-11z"/><path d="M10.5 2.5h7v2h-7zm-.5 4l1 3m7-3l-1 3"/></g><path fill="none" d="M0 0h24v24H0z"/></svg>