<svg xmlns="http://www.w3.org/2000/svg" viewBox="0 0 24 24" width="24" height="24"><path fill="none" stroke="#000" stroke-linejoin="round" stroke-miterlimit="10" d="M19.5 6.5c-.711-1.422-1.242-3-2.5-3h-5c-1 0-1.474.966-3 3H2.5c-1.5 0-2 .679-2 1.723v10.388c0 1.043.5 1.889 2.056 1.889h18.889c1.556 0 2.056-.846 2.056-1.889V8.223C23.5 7.179 23 6.5 21.444 6.5H19.5z"/><path fill="none" stroke="#000" stroke-linejoin="round" stroke-miterlimit="10" d="M2.5 6.484V5.5a1 1 0 011-1h1a1 1 0 011 1v1"/><path d="M4 8a.499.499 0 10-.002.998A.499.499 0 004 8zm2 0a.499.499 0 10-.002.998A.499.499 0 006 8zm2 0a.499.499 0 10-.002.998A.499.499 0 008 8z"/><circle fill="none" stroke="#000" stroke-linejoin="round" stroke-miterlimit="10" cx="17.5" cy="14.5" r="4"/><path fill="none" stroke="#000" stroke-linejoin="round" stroke-miterlimit="10" d="M11.5 17.5c0 .549-.45 1-1 1h-7c-.55 0-1-.451-1-1v-6c0-.55.45-1 1-1h7c.55 0 1 .45 1 1v6z"/><path fill="none" stroke="#000" stroke-linecap="round" stroke-linejoin="round" stroke-miterlimit="10" d="M17.5 12.5v1m0 2v1m2-2h-1m-2 0h-1"/><path fill="none" d="M0 0h24v24H0z"/></svg>