<svg xmlns="http://www.w3.org/2000/svg" viewBox="0 0 24 24" width="24" height="24"><defs><style>.a{fill:none;stroke:#000;stroke-linecap:round;stroke-linejoin:round;stroke-width:1.5px}</style></defs><title>camera-settings-focus</title><path class="a" d="M6.75 7.125h1.307a1.5 1.5 0 0 0 1.269-.7l.534-.848a1.5 1.5 0 0 1 1.269-.7h1.742a1.5 1.5 0 0 1 1.269.7l.534.848a1.5 1.5 0 0 0 1.269.7h1.307a1.5 1.5 0 0 1 1.5 1.5v6.692a1.562 1.562 0 0 1-1.558 1.558H6.808a1.562 1.562 0 0 1-1.558-1.558V8.625a1.5 1.5 0 0 1 1.5-1.5z"/><circle class="a" cx="12" cy="11.625" r="2.25"/><path class="a" d="M.75 4.81a2.935 2.935 0 0 1 2.935-2.935M.75 19.19a2.935 2.935 0 0 0 2.935 2.935M23.25 4.81a2.935 2.935 0 0 0-2.935-2.935M23.25 19.19a2.935 2.935 0 0 1-2.935 2.935"/></svg>