<svg xmlns="http://www.w3.org/2000/svg" viewBox="0 0 24 24" width="24" height="24"><defs><style>.a{fill:none;stroke:#000;stroke-linecap:round;stroke-linejoin:round;stroke-width:1.5px}</style></defs><title>camera-lens</title><path class="a" d="M17.25 23.25h-9V15a.75.75 0 0 1 .75-.75h7.5a.75.75 0 0 1 .75.75zm-9 0h-4.5a3 3 0 0 1-3-3v-1.5a3 3 0 0 1 3-3h4.5zm12 0h-3v-7.5h3a3 3 0 0 1 3 3v1.5a3 3 0 0 1-3 3zm-4.271-13.5H9.521a1.5 1.5 0 0 1-1.48-1.25l-1-6A1.5 1.5 0 0 1 8.521.75h8.458a1.5 1.5 0 0 1 1.48 1.75l-1 6a1.5 1.5 0 0 1-1.48 1.25z"/><path class="a" d="M9.75 9.75h6v4.5h-6zm1.5-6v3m3-3v3M4.5 19.125a.375.375 0 1 1-.375.375.375.375 0 0 1 .375-.375m6.75-.375h3"/></svg>