<svg xmlns="http://www.w3.org/2000/svg" viewBox="0 0 24 24" width="24" height="24"><defs><style>.a{fill:none;stroke:#000;stroke-linecap:round;stroke-linejoin:round;stroke-width:1.5px}</style></defs><title>camera-holder</title><path class="a" d="M17.25 11.25h-12v-9a1.5 1.5 0 0 1 1.5-1.5h10.5a1.5 1.5 0 0 1 1.5 1.5v7.5a1.5 1.5 0 0 1-1.5 1.5zm-12 0V21a2.25 2.25 0 0 0 4.5 0v-3.75a1.5 1.5 0 0 1 1.5-1.5h1.5a1.5 1.5 0 0 0 1.5-1.5v-3zm-4.5-7.5h4.5v4.5H.75zm19.5.75h-1.5V9h1.5l3 1.5V3l-3 1.5zM12 8.25h3.75"/><path class="a" d="M9 4.125a.375.375 0 1 1-.375.375A.375.375 0 0 1 9 4.125M.75 2.25v7.5"/></svg>