<svg xmlns="http://www.w3.org/2000/svg" viewBox="0 0 24 24" width="24" height="24"><defs><style>.a{fill:none;stroke:#000;stroke-linecap:round;stroke-linejoin:round;stroke-width:1.5px}</style></defs><title>camera-settings-frame</title><path class="a" d="M15 9l-.75-1.5h-4.5L9 9h-.75a1.5 1.5 0 0 0-1.5 1.5V15a1.5 1.5 0 0 0 1.5 1.5h7.5a1.5 1.5 0 0 0 1.5-1.5v-4.5a1.5 1.5 0 0 0-1.5-1.5z"/><circle class="a" cx="12" cy="12.375" r="1.875"/><path class="a" d="M21 5.25l2.25 2.25L21 9.75 23.25 12 21 14.25l2.25 2.25L21 18.75M3 5.25L.75 7.5 3 9.75.75 12 3 14.25.75 16.5 3 18.75"/></svg>