<svg xmlns="http://www.w3.org/2000/svg" viewBox="0 0 24 24" width="24" height="24"><defs><style>.a{fill:none;stroke:#000;stroke-linecap:round;stroke-linejoin:round;stroke-width:1.5px}</style></defs><title>camera-professional</title><rect class="a" x=".75" y="9" width="16.5" height="12" rx="1.5" ry="1.5"/><path class="a" d="M17.25 17.25l4.987 1.87a.75.75 0 0 0 1.013-.7v-6.838a.75.75 0 0 0-1.013-.7L17.25 12.75z"/><circle class="a" cx="5.625" cy="15.375" r="1.875"/><circle class="a" cx="12.375" cy="15.375" r="1.875"/><path class="a" d="M5.625 13.5h6.75M21.75 3H16.5a.75.75 0 0 0-.75.75v1.5a.75.75 0 0 0 .75.75h5.25a1.5 1.5 0 0 0 0-3zm-6 1.5h-1.5a1.5 1.5 0 0 0-1.5 1.5v3M1.5 6h6A1.5 1.5 0 0 1 9 7.5V9"/></svg>