<svg xmlns="http://www.w3.org/2000/svg" viewBox="0 0 24 24" width="24" height="24"><defs><style>.a{fill:none;stroke:#000;stroke-linecap:round;stroke-linejoin:round;stroke-width:1.5px}</style></defs><title>camera-1</title><circle class="a" cx="14.25" cy="12.75" r="5.25"/><path class="a" d="M19.5 6l-1.085-2.171A1.5 1.5 0 0 0 17.073 3h-5.646a1.5 1.5 0 0 0-1.342.829L9 6H2.25a1.5 1.5 0 0 0-1.5 1.5v12a1.5 1.5 0 0 0 1.5 1.5h19.5a1.5 1.5 0 0 0 1.5-1.5v-12a1.5 1.5 0 0 0-1.5-1.5z"/><path class="a" d="M4.125 9a.375.375 0 1 1-.375.375A.375.375 0 0 1 4.125 9M5.25 6V4.5"/></svg>