<svg xmlns="http://www.w3.org/2000/svg" viewBox="0 0 24 24" width="24" height="24"><g fill="none" stroke="#000" stroke-linejoin="round" stroke-miterlimit="10"><path stroke-linecap="round" d="M23.5 19.5c0 .549-.45 1-1 1h-21c-.55 0-1-.451-1-1v-13c0-.55.45-1 1-1h21c.55 0 1 .45 1 1v13z"/><path d="M17.5 5.5v-1c0-.55.45-1 1-1h2c.55 0 1 .45 1 1v1"/><path stroke-linecap="round" d="M2.5 7.5h4v2h-4z"/><circle stroke-linecap="round" cx="12" cy="14" r="4.5"/><circle cx="12" cy="14" r="2"/><path d="M.5 11.5h7.75m-7.75 5h7.781m7.485-5H23.5m0 5h-7.75"/><circle cx="20" cy="9" r=".5"/></g><path fill="none" d="M0 0h24v24H0z"/></svg>