<svg xmlns="http://www.w3.org/2000/svg" viewBox="0 0 24 24" width="24" height="24"><defs><style>.a{fill:none;stroke:#000;stroke-linecap:round;stroke-linejoin:round;stroke-width:1.5px}</style></defs><title>camera-settings-rotate-1</title><path class="a" d="M15.736 3.375l-1.5-1.5h-4.5l-1.5 1.5h-3a1.5 1.5 0 0 0-1.5 1.5v7.5a1.5 1.5 0 0 0 1.5 1.5h13.5a1.5 1.5 0 0 0 1.5-1.5v-7.5a1.5 1.5 0 0 0-1.5-1.5z"/><circle class="a" cx="11.986" cy="8.625" r="2.25"/><path class="a" d="M22.594 13.873a2.267 2.267 0 0 1 .642 1.5c0 2.282-4.246 4.167-9.749 4.46m-6.001-2.958l1.5 3-2.25 2.25"/><path class="a" d="M1.406 13.873a2.267 2.267 0 0 0-.642 1.5c0 2.055 3.436 3.786 8.136 4.327"/></svg>