<svg xmlns="http://www.w3.org/2000/svg" viewBox="0 0 24 24" width="24" height="24"><defs><style>.a{fill:none;stroke:#000;stroke-linecap:round;stroke-linejoin:round;stroke-width:1.5px}</style></defs><title>camera-flash</title><path class="a" d="M18 12.75l-1.085-2.171a1.5 1.5 0 0 0-1.342-.829h-4.146a1.5 1.5 0 0 0-1.342.829L9 12.75H4.5a1.5 1.5 0 0 0-1.5 1.5v7.5a1.5 1.5 0 0 0 1.5 1.5h15a1.5 1.5 0 0 0 1.5-1.5v-7.5a1.5 1.5 0 0 0-1.5-1.5z"/><path class="a" d="M6.375 15.75a.375.375 0 1 1-.375.375.375.375 0 0 1 .375-.375m-.375-3v-1.5"/><circle class="a" cx="13.5" cy="17.25" r="3"/><rect class="a" x="9" y=".75" width="9" height="4.5" rx=".75" ry=".75"/><path class="a" d="M10.5 5.25l.927 4.5h4.146l.927-4.5h-6z"/></svg>