<svg xmlns="http://www.w3.org/2000/svg" viewBox="0 0 24 24" width="24" height="24"><defs><style>.a{fill:none;stroke:#000;stroke-linecap:round;stroke-linejoin:round;stroke-width:1.5px}</style></defs><title>camera-display-1</title><path class="a" d="M4.125 11.625A.375.375 0 1 1 3.75 12a.375.375 0 0 1 .375-.375m0 3.75a.375.375 0 1 1-.375.375.375.375 0 0 1 .375-.375m15.375-5.25l.75-.75m-.75 4.5l.75-.75m-.75 4.5l.75-.75"/><path class="a" d="M16.031 6.375a1.5 1.5 0 0 1-1.393-.943l-.745-1.864a1.5 1.5 0 0 0-1.393-.943H7.766a1.5 1.5 0 0 0-1.393.943l-.746 1.864a1.5 1.5 0 0 1-1.393.943H2.25a1.5 1.5 0 0 0-1.5 1.5v12a1.5 1.5 0 0 0 1.5 1.5h19.5a1.5 1.5 0 0 0 1.5-1.5v-12a1.5 1.5 0 0 0-1.5-1.5z"/><rect class="a" x="7.5" y="9.375" width="9" height="8.25" rx=".5" ry=".5"/><path class="a" d="M19.5 4v2.375"/></svg>