<svg xmlns="http://www.w3.org/2000/svg" viewBox="0 0 24 24" width="24" height="24"><defs><style>.a{fill:none;stroke:#000;stroke-linecap:round;stroke-linejoin:round;stroke-width:1.5px}</style></defs><title>camera-settings-flip-1</title><path class="a" d="M23.25 12A11.251 11.251 0 0 1 3 18.751M15 8.25l-.75-1.5h-4.5L9 8.25H7.5A1.5 1.5 0 0 0 6 9.75v4.5a1.5 1.5 0 0 0 1.5 1.5h9a1.5 1.5 0 0 0 1.5-1.5v-4.5a1.5 1.5 0 0 0-1.5-1.5z"/><circle class="a" cx="12" cy="11.625" r="1.875"/><path class="a" d="M6.75 18.75H3v3.75M.75 12A11.251 11.251 0 0 1 21 5.249"/><path class="a" d="M17.25 5.25H21V1.5"/></svg>