<svg xmlns="http://www.w3.org/2000/svg" viewBox="0 0 24 24" width="24" height="24"><defs><style>.a{fill:none;stroke:#000;stroke-linecap:round;stroke-linejoin:round;stroke-width:1.5px}</style></defs><title>camera-2</title><rect class="a" x=".75" y="6.75" width="4.5" height="13.5" rx="1" ry="1"/><path class="a" d="M11.364 5.971L5.219 7.508M17.157 19.5h4.093a2 2 0 0 0 2-2V9.117a2 2 0 0 0-1.581-1.956l-4.528-1.178M5.217 19.5h6.126"/><circle class="a" cx="14.25" cy="14.25" r="6"/><circle class="a" cx="14.25" cy="14.25" r="3"/><path class="a" d="M10.078 9.938l1.638-5.052a1.5 1.5 0 0 1 1.455-1.136h2.158a1.5 1.5 0 0 1 1.455 1.136l1.656 5.069"/></svg>