<svg xmlns="http://www.w3.org/2000/svg" viewBox="0 0 24 24" width="24" height="24"><defs><style>.a{fill:none;stroke:#000;stroke-linecap:round;stroke-linejoin:round;stroke-width:1.5px}</style></defs><title>camera-tripod-1</title><path class="a" d="M12 14.982v8.268m-2.25-8.268h4.5m1.5 8.268L12 19.5l-3.75 3.75M12 17.982H7.5M8.526 2.25L10.1.75h3.775l1.574 1.5h1.57a1.812 1.812 0 0 1 1.731 1.742v6.437a1.654 1.654 0 0 1-1.731 1.553H6.981a1.654 1.654 0 0 1-1.731-1.553V3.992A1.812 1.812 0 0 1 6.981 2.25h1.545"/><circle class="a" cx="12" cy="6.732" r="2.25"/><path class="a" d="M7.5 17.232v1.5"/></svg>