<svg xmlns="http://www.w3.org/2000/svg" viewBox="0 0 24 24" width="24" height="24"><defs><style>.a{fill:none;stroke:#000;stroke-linecap:round;stroke-linejoin:round;stroke-width:1.5px}</style></defs><title>camera-double</title><path class="a" d="M18.75 20.25a1.5 1.5 0 0 1-1.5 1.5h-15a1.5 1.5 0 0 1-1.5-1.5v-9a1.5 1.5 0 0 1 1.5-1.5h6c.42-.84.676-1.5 1.677-1.5h3.4c1 0 1.257.66 1.677 1.5h2.25a1.5 1.5 0 0 1 1.5 1.5z"/><path class="a" d="M5.25 5.25a1.5 1.5 0 0 1 1.5-1.5h6c.42-.84.676-1.5 1.677-1.5h3.4c1 0 1.257.66 1.677 1.5h2.25a1.5 1.5 0 0 1 1.5 1.5v9a1.5 1.5 0 0 1-1.5 1.5"/><circle class="a" cx="11.25" cy="15.75" r="3"/><path class="a" d="M3 7.5v2.25"/></svg>