<svg xmlns="http://www.w3.org/2000/svg" viewBox="0 0 24 24" width="24" height="24"><defs><style>.a{fill:none;stroke:#000;stroke-linecap:round;stroke-linejoin:round;stroke-width:1.5px}</style></defs><title>camera-small</title><path class="a" d="M8.25.75h-4.5a3 3 0 0 0-3 3v16.5a3 3 0 0 0 3 3H7.5a.75.75 0 0 0 .75-.75v-9.75h2.25a.75.75 0 0 0 .75-.75V3.75a3 3 0 0 0-3-3zm6 9h6a3 3 0 0 0 3-3v-1.5a3 3 0 0 0-3-3h-6z"/><circle class="a" cx="6" cy="6" r="2.25"/><path class="a" d="M5.25 18.75V12m9-5.25h-3"/></svg>