<svg id="Regular" xmlns="http://www.w3.org/2000/svg" viewBox="0 0 24 24" width="24" height="24"><defs><style>.cls-1{fill:none;stroke:#000;stroke-linecap:round;stroke-linejoin:round;stroke-width:1.5px}</style></defs><title>camping-tent-person</title><path class="cls-1" d="M15.75 5v1.5a3 3 0 0 0 6 0V5M15 5h7.5m-.75 0h-6l.75-3.75 2.25.75L21 1.25 21.75 5zM16.5 23v-3h-.75a1.5 1.5 0 0 1-1.5-1.5V14a3 3 0 0 1 3-3h3a3 3 0 0 1 3 3v4.5a1.5 1.5 0 0 1-1.5 1.5H21v3m-9.75-3H1.964a.75.75 0 0 1-.671-1.085L6.75 8l3 6"/><path class="cls-1" d="M4.5 20l2.25-4.5.9 1.8M6.75 8V3.5L9.8 4.515a.751.751 0 0 1 .179 1.336L9 6.5"/></svg>