<svg id="Regular" xmlns="http://www.w3.org/2000/svg" viewBox="0 0 24 24" width="24" height="24"><defs><style>.cls-1{fill:none;stroke:#000;stroke-linecap:round;stroke-linejoin:round;stroke-width:1.5px}</style></defs><title>camping-rv</title><path class="cls-1" d="M3.75 12.75h-1.5a1.5 1.5 0 0 1-1.5-1.5v-9a1.5 1.5 0 0 1 1.5-1.5h18a1.5 1.5 0 0 1 1.5 1.5v10.5h-6m6 0h1.5"/><circle class="cls-1" cx="9.75" cy="12.75" r="3"/><path class="cls-1" d="M3.75 3.75h7.5v3h-7.5zm10.5 0h4.5v3h-4.5zM18 23.25a2.25 2.25 0 0 1 0-4.5h2.25v4.5zm2.25-3.75h3m-3 2.25h3"/><path class="cls-1" d="M15.75 21H6a3 3 0 0 1-3-3v-5.25"/></svg>