<svg xmlns="http://www.w3.org/2000/svg" viewBox="0 0 24 24" width="24" height="24"><path fill="none" stroke="#000" stroke-linejoin="round" stroke-miterlimit="10" d="M10.5 20v-4.5H8l3.5-5.5v3.5H14z"/><path fill="none" stroke="#000" stroke-linecap="round" stroke-linejoin="round" stroke-miterlimit="10" d="M16 23.5H7L5.5 22V8.5l3-3h6l3 3V22zm-9-18h9m-6 0l-2-2"/><path d="M14 1a.5.5 0 10.002 1.002A.5.5 0 0014 1zm-1 2a.5.5 0 10.002 1.002A.5.5 0 0013 3zm-1-3a.5.5 0 10.002 1.002A.5.5 0 0012 0z"/><path fill="none" d="M0 0h24v24H0z"/></svg>