<svg id="Regular" xmlns="http://www.w3.org/2000/svg" viewBox="0 0 24 24" width="24" height="24"><defs><style>.cls-1{fill:none;stroke:#000;stroke-linecap:round;stroke-linejoin:round;stroke-width:1.5px}</style></defs><title>candy-jar</title><rect class="cls-1" x="4.473" y=".75" width="15" height="4.5" rx="1.448" ry="1.448"/><path class="cls-1" d="M5.7 5.23c-7.186 3.69-3.77 14.181-.155 17.645a1.431 1.431 0 0 0 1 .375H17.4a1.429 1.429 0 0 0 1-.375c3.615-3.464 7.03-13.952-.151-17.644"/><path class="cls-1" d="M14.973 12.973V9.568L11.946 8.25 8.973 9.568v3.405l2.973 1.318 3.027-1.318zm-3.027 4.723v-3.405l-2.973-1.318-3 1.318v3.405l2.973 1.318 3-1.318zm0 0v-3.405l3.027-1.318 2.946 1.318v3.405l-2.973 1.318-3-1.318z"/></svg>