<svg xmlns="http://www.w3.org/2000/svg" viewBox="0 0 24 24" width="24" height="24"><path d="M12.5 23.5v-2m2.121-.464c1.562 1.562 3.534 2.121 3.534 2.121s-.559-1.973-2.12-3.535a8.48 8.48 0 00-1.68-1.285c.969.345 2.244.663 3.645.663 3.038 0 5.5-1.5 5.5-1.5S21.038 16 18 16c-1.446 0-2.758.34-3.739.696 1.187-.624 2.793-1.628 4.249-3.085 2.734-2.734 3.89-6.01 3.89-6.01s-3.277 1.154-6.011 3.889c-1.639 1.639-2.706 3.467-3.302 4.673.591-1.51 1.413-4.15 1.413-7.163 0-4.693-2-8.5-2-8.5s-2 3.807-2 8.5c0 3.013.822 5.652 1.411 7.163-.595-1.207-1.661-3.034-3.301-4.673C5.877 8.756 2.6 7.601 2.6 7.601s1.154 3.275 3.889 6.01c1.457 1.457 3.063 2.461 4.25 3.085C9.758 16.341 8.446 16 7 16c-3.038 0-5.5 1.5-5.5 1.5S3.962 19 7 19c1.4 0 2.675-.318 3.647-.663a8.38 8.38 0 00-1.683 1.285c-1.562 1.562-2.122 3.535-2.122 3.535s1.974-.559 3.536-2.121" fill="none" stroke="#000" stroke-linecap="round" stroke-linejoin="round" stroke-miterlimit="10"/><path fill="none" d="M0 0h24v24H0z"/></svg>