<svg id="Regular" xmlns="http://www.w3.org/2000/svg" viewBox="0 0 24 24" width="24" height="24"><defs><style>.cls-1{fill:none;stroke:#000;stroke-linecap:round;stroke-linejoin:round;stroke-width:1.5px}</style></defs><title>canoe-3</title><path class="cls-1" d="M2.25 6.75v16.5m7.818-15.687a1.285 1.285 0 0 0-.318.847v8.09a2.25 2.25 0 0 0 4.5 0V8.41a1.285 1.285 0 0 0-.318-.847l-1-1.138a1.243 1.243 0 0 0-1.872 0z"/><path class="cls-1" d="M7.492 5.9a3 3 0 0 0-.742 1.977V16.5a5.25 5.25 0 0 0 10.5 0V7.877a3 3 0 0 0-.742-1.977l-2.324-2.654a2.9 2.9 0 0 0-4.368 0zm2.258 9.85h4.5m0-3h-4.5m4.5-3h-4.5M1.5.75a.75.75 0 0 0-.75.75v3.75a1.5 1.5 0 0 0 3 0V1.5A.75.75 0 0 0 3 .75zm20.25 16.5V.75m.75 22.5a.75.75 0 0 0 .75-.75v-3.75a1.5 1.5 0 0 0-3 0v3.75a.75.75 0 0 0 .75.75z"/></svg>