<svg id="Regular" xmlns="http://www.w3.org/2000/svg" viewBox="0 0 24 24" width="24" height="24"><defs><style>.cls-1{fill:none;stroke:#000;stroke-linecap:round;stroke-linejoin:round;stroke-width:1.5px}</style></defs><title>canoe-paddles</title><path class="cls-1" d="M10.114 5.871a1.5 1.5 0 0 1 .424 1.273l-.424 2.97-2.97.424a1.5 1.5 0 0 1-1.273-.424L1.629 5.871a3 3 0 0 1 4.242-4.242zm0 4.243l10.575 10.575"/><circle class="cls-1" cx="21.75" cy="21.75" r="1.5"/><path class="cls-1" d="M2.689 6.932l4.243-4.243m6.954 3.182a1.5 1.5 0 0 0-.424 1.273l.424 2.97 2.97.424a1.5 1.5 0 0 0 1.273-.424l4.242-4.243a3 3 0 1 0-4.242-4.242zm0 4.243L3.311 20.689"/><circle class="cls-1" cx="2.25" cy="21.75" r="1.5"/><path class="cls-1" d="M21.311 6.932l-4.243-4.243"/></svg>