<svg id="Regular" xmlns="http://www.w3.org/2000/svg" viewBox="0 0 24 24" width="24" height="24"><defs><style>.cls-1{fill:none;stroke:#000;stroke-linecap:round;stroke-linejoin:round;stroke-width:1.5px}</style></defs><title>canoe-person-1</title><circle class="cls-1" cx="16" cy="3.54" r="2.25"/><path class="cls-1" d="M14.5 17.79l3.874-5.106M4.037 18.036L3.176 16.7a.751.751 0 0 1 .631-1.156H22m-11.268-.004l2.368-3.527a1.5 1.5 0 0 1 1.754-.576l3.277 1.181a1.53 1.53 0 1 0 1.007-2.89l-4.453-1.5a3 3 0 0 0-3.45 1.172L7.12 15.54M1 22.25a4.666 4.666 0 0 0 3.75-1.9 4.649 4.649 0 0 0 7.5 0 4.649 4.649 0 0 0 7.5 0 4.666 4.666 0 0 0 3.75 1.9"/></svg>