<svg id="Regular" xmlns="http://www.w3.org/2000/svg" viewBox="0 0 24 24" width="24" height="24"><defs><style>.cls-1{fill:none;stroke:#000;stroke-linecap:round;stroke-linejoin:round;stroke-width:1.5px}</style></defs><title>canoe-person</title><path class="cls-1" d="M.75 14.5H16.5a3.053 3.053 0 0 0 2.868-2.5.75.75 0 0 1 1.236-.384c1.411 1.291 3.47 3.928 1.685 7.269"/><circle class="cls-1" cx="8.25" cy="3.625" r="2.625"/><path class="cls-1" d="M2.073 14.5l2.585-5.171a1.5 1.5 0 0 1 1.554-.814l2.609.372a4.49 4.49 0 0 0 3.519-1l1.639-1.365A1.5 1.5 0 0 1 15.9 8.83l-1.641 1.37A7.531 7.531 0 0 1 8.4 11.857l-1.538-.219L5.427 14.5m10.061-8.219L17.25 1.75M12.292 14.5l1.548-3.981M.75 22.75a4.666 4.666 0 0 0 3.75-1.9 4.649 4.649 0 0 0 7.5 0 4.649 4.649 0 0 0 7.5 0 4.666 4.666 0 0 0 3.75 1.9"/></svg>