<svg id="Regular" xmlns="http://www.w3.org/2000/svg" viewBox="0 0 24 24" width="24" height="24"><defs><style>.cls-1{fill:none;stroke:#000;stroke-linecap:round;stroke-linejoin:round;stroke-width:1.5px}</style></defs><title>canoe-2</title><path class="cls-1" d="M12.75 13.352h6a4.5 4.5 0 0 0 3.142-7.72.749.749 0 0 0-1.21.234A3.752 3.752 0 0 1 17.25 8.1h-.75M9 8.1H6.75a3.752 3.752 0 0 1-3.432-2.234.749.749 0 0 0-1.21-.234 4.5 4.5 0 0 0 3.142 7.72H6M17.238 1.5L6.842 16.747m.592 3.126a2.25 2.25 0 0 0-3.719-2.535l-1.69 2.479 3.718 2.535z"/></svg>