<svg xmlns="http://www.w3.org/2000/svg" viewBox="0 0 24 24" width="24" height="24"><g fill="none" stroke="#000" stroke-linecap="round" stroke-linejoin="round" stroke-miterlimit="10"><path d="M6.999 12.495H5v-3a4.5 4.5 0 00-2.654 8.135m19.03.187A4.5 4.5 0 0019 9.495v3h-4.501M7.251 20.25a2.65 2.65 0 01-4.504-.004m9.004.004a2.65 2.65 0 01-4.504-.004m9 .004a2.65 2.65 0 01-4.504-.004m9.004.004a2.65 2.65 0 01-4.504-.004M23 21.5a2.65 2.65 0 01-2.253-1.254m-17.992.004A2.648 2.648 0 01.504 21.5"/><path d="M13.5 14.495H21v-4.5m-18 0v4.5h1.999m6.243.379a1.5 1.5 0 10-2.121-2.121L7 14.874l2.121 2.121 2.121-2.121zm.258-2.561l4.5-4.5m-1-1l2 2m-9.749 8.433A2.647 2.647 0 015 18.495a2.648 2.648 0 01-2.253-1.254"/><path d="M11.751 17.246A2.647 2.647 0 019.5 18.495a2.648 2.648 0 01-2.253-1.254"/><path d="M16.247 17.246a2.647 2.647 0 01-2.251 1.249 2.648 2.648 0 01-2.253-1.254"/><path d="M20.747 17.246a2.647 2.647 0 01-2.251 1.249 2.648 2.648 0 01-2.253-1.254M23 18.495a2.648 2.648 0 01-2.253-1.254m-17.992.005a2.647 2.647 0 01-2.251 1.249"/></g><path fill="none" d="M0 0h24v24H0z"/></svg>