<svg xmlns="http://www.w3.org/2000/svg" viewBox="0 0 24 24" width="24" height="24"><g fill="none" stroke="#000" stroke-linejoin="round" stroke-miterlimit="10"><path stroke-linecap="round" d="M21.5 13.5l2-3.5c-2.174-.661-3.721-2.565-5-5L12 2.5 5.5 5c-1.279 2.435-2.826 4.339-5 5l2 3.5M21 15.909c-1.62-.834-5.042-1.409-9-1.409s-7.379.666-9.5 1.5"/><path stroke-linecap="round" d="M21.5 13.5V16S20 20.5 12 20.5 2.5 16 2.5 16v-2.5m13.021-1.794c2.851.341 5.063 1.059 5.979 1.794m-19 0c.803-.796 3.026-1.501 6.002-1.819"/><path d="M12 5.089L13 7.5h2.5l-2 1.779.75 2.721L12 10.235l-2.25 1.744.75-2.696-2-1.783H11z"/></g><path fill="none" d="M0 0h24v24H0z"/></svg>