<svg id="Regular" xmlns="http://www.w3.org/2000/svg" viewBox="0 0 24 24" width="24" height="24"><defs><style>.cls-1{fill:none;stroke:#000;stroke-linecap:round;stroke-linejoin:round;stroke-width:1.5px}</style></defs><title>cap-sunglasses</title><path class="cls-1" d="M20.669 10.9a9.773 9.773 0 1 0-19.324 2.933l.245 1.615a.977.977 0 0 0 1.313.767A42.766 42.766 0 0 1 11.3 14.3a42.819 42.819 0 0 1 8.588-.662.979.979 0 0 0 1.026-1.122z"/><path class="cls-1" d="M8.108 12.807a2.932 2.932 0 1 1 5.8-.88zm-.461-9.619L7.609 3a1.955 1.955 0 1 1 3.865-.586l.027.193M10.017 23.25h-3A2.25 2.25 0 0 1 4.767 21v-1.5a2.25 2.25 0 0 1 2.25-2.25h5.25V21a2.25 2.25 0 0 1-2.25 2.25zm7.5 0h3a2.25 2.25 0 0 0 2.25-2.25v-1.5a2.25 2.25 0 0 0-2.25-2.25h-5.25V21a2.25 2.25 0 0 0 2.25 2.25zm-5.25-6h3"/></svg>