<svg id="Regular" xmlns="http://www.w3.org/2000/svg" viewBox="0 0 24 24" width="24" height="24"><defs><style>.cls-1{fill:none;stroke:#000;stroke-linecap:round;stroke-linejoin:round;stroke-width:1.5px}</style></defs><title>cap</title><path class="cls-1" d="M2.25 15.908v-3.75a9.75 9.75 0 0 1 19.5 0v3.75"/><path class="cls-1" d="M23.193 21.2A1.5 1.5 0 0 1 21.23 23 28.084 28.084 0 0 0 12 21.158 28.078 28.078 0 0 0 2.77 23a1.5 1.5 0 0 1-1.963-1.8l1.443-5.29a42.146 42.146 0 0 1 9.75-1.5 42.146 42.146 0 0 1 9.75 1.5zM12 2.408v-1.5"/><path class="cls-1" d="M8.25 14.687v-4.128a7.5 7.5 0 0 1 1.14-3.975L12 2.408m3.75 12.279v-4.128a7.5 7.5 0 0 0-1.14-3.975L12 2.408"/></svg>