<svg xmlns="http://www.w3.org/2000/svg" viewBox="0 0 24 24" width="24" height="24"><defs><style>.a{fill:none;stroke:#000;stroke-linecap:round;stroke-linejoin:round;stroke-width:1.5px}</style></defs><title>car-wagon-1</title><circle class="a" cx="15.75" cy="17.25" r="1.5"/><circle class="a" cx="5.25" cy="17.25" r="1.5"/><path class="a" d="M17.25 17.25h4.5a1.5 1.5 0 0 0 1.455-1.864l-.75-3A1.5 1.5 0 0 0 21 11.25h-6l-2.171-4.342a3 3 0 0 0-2.683-1.658H6.75a6 6 0 0 0-6 6v4.5a1.5 1.5 0 0 0 1.5 1.5h1.5m10.5 0h-7.5m8.25-6H.75m20.25 0L20.25 9m-15 2.25V5.439"/></svg>