<svg xmlns="http://www.w3.org/2000/svg" viewBox="0 0 24 24" width="24" height="24"><defs><style>.a{fill:none;stroke:#000;stroke-linecap:round;stroke-linejoin:round;stroke-width:1.5px}</style></defs><title>car-truck-luggage</title><circle class="a" cx="17.25" cy="21.75" r="1.5"/><circle class="a" cx="5.25" cy="21.75" r="1.5"/><path class="a" d="M15.75 21.75h-9m-3 0h-1.5a1.5 1.5 0 0 1-1.5-1.5V18a3 3 0 0 1 3-3l1.835-5.171A1.5 1.5 0 0 1 6.927 9h7.9a1.5 1.5 0 0 1 1.342.829L18 15h2.25a3 3 0 0 1 3 3v2.25a1.5 1.5 0 0 1-1.5 1.5h-3M18 15H3.75m7.5-6v6"/><rect class="a" x="5.25" y="4.5" width="10.5" height="4.5" rx="1" ry="1" transform="rotate(-180 10.5 6.75)"/><rect class="a" x="6.75" y=".75" width="7.5" height="3.75" rx="1" ry="1" transform="rotate(-180 10.5 2.625)"/><path class="a" d="M12.75 4.5V9m-4.5-4.5V9"/></svg>