<svg xmlns="http://www.w3.org/2000/svg" viewBox="0 0 24 24" width="24" height="24"><g fill="none" stroke="#000" stroke-linecap="round" stroke-linejoin="round" stroke-miterlimit="10"><circle cx="5.5" cy="18.5" r="2"/><path d="M18.5 18.5h5"/><circle cx="16.5" cy="18.5" r="2"/><path d="M7.5 18.5h7m-14 0h3m9-6l1-2h1"/><path d="M1.791 16.958S2.562 14.5 5.52 14.5c1.938 0 5.169 1.51 7.17 2.552.867-1.16 1.325-2.567 3.809-2.567 3.583 0 6 4.016 6 4.016v-4a6 6 0 00-6-6H12l-2 4H3.347a1 1 0 00-.986.836L1.5 18.5"/></g><path fill="none" d="M0 0h24v24H0z"/></svg>