<svg xmlns="http://www.w3.org/2000/svg" viewBox="0 0 24 24" width="24" height="24"><g fill="none" stroke="#000" stroke-linejoin="round" stroke-miterlimit="10"><g stroke-linecap="round"><path d="M.5 9.001l3 4.5 3.5-4"/><path d="M3.531 13.438C2.78 7.223 7.406 2.7 12.649 2.507c5.243-.192 9.65 3.901 9.843 9.145s-3.901 9.65-9.144 9.843a9.503 9.503 0 01-8.973-5.501"/></g><path d="M10 15.5h6"/><path stroke-linecap="round" d="M18 17.5a2 2 0 010-4m-10 0a2 2 0 010 4m7.5-6v-4l-2 2.5h2m-5.412-1.586a.954.954 0 01.956-.914c.528 0 .956.427.956.953a.956.956 0 01-.184.562l-1.74 2.485h1.913"/></g><path fill="none" d="M0 0h24v24H0z"/></svg>