<svg xmlns="http://www.w3.org/2000/svg" viewBox="0 0 24 24" width="24" height="24"><defs><style>.a{fill:none;stroke:#000;stroke-linecap:round;stroke-linejoin:round;stroke-width:1.5px}</style></defs><title>car-4</title><path class="a" d="M21.75 18.25a1.5 1.5 0 0 0 1.5-1.5v-4.5a1.809 1.809 0 0 0-.53-1.279L20.25 8.5H3.75l-2.47 2.47a1.809 1.809 0 0 0-.53 1.28v4.5a1.5 1.5 0 0 0 1.5 1.5zm-18-9.75l1.723-4.6A2.165 2.165 0 0 1 7.5 2.5h9a2.166 2.166 0 0 1 2.027 1.4l1.723 4.6z"/><path class="a" d="M3.75 8.501l-1.5-1.5H.75m19.5 1.5l1.5-1.5h1.5m-21 11.249v1.5a1.5 1.5 0 0 0 3 0v-1.5zm19.5 0v1.5a1.5 1.5 0 0 1-3 0v-1.5zm1.337-6.75H18.75l-1.813 3.022a1.5 1.5 0 0 1-1.286.728H8.35a1.5 1.5 0 0 1-1.288-.729L5.25 11.5H.913m16.024 3h6.313m-16.187 0H.75m18-3H5.25"/></svg>