<svg xmlns="http://www.w3.org/2000/svg" viewBox="0 0 24 24" width="24" height="24"><defs><style>.a{fill:none;stroke:#000;stroke-linecap:round;stroke-linejoin:round;stroke-width:1.5px}</style></defs><title>car-garage</title><path class="a" d="M.75 8.25L12 .75l11.25 7.5"/><circle class="a" cx="6.75" cy="21.75" r="1.5"/><circle class="a" cx="18.75" cy="21.75" r="1.5"/><path class="a" d="M8.25 21.75h9m3 0h1.5a1.5 1.5 0 0 0 1.5-1.5v-1.5a3 3 0 0 0-3-3l-1.835-3.671a1.5 1.5 0 0 0-1.342-.829h-7.9a1.5 1.5 0 0 0-1.341.829L6 15.75H3.75a3 3 0 0 0-3 3v1.5a1.5 1.5 0 0 0 1.5 1.5h3m.75-6h14.25"/></svg>