<svg xmlns="http://www.w3.org/2000/svg" viewBox="0 0 24 24" width="24" height="24"><defs><style>.a{fill:none;stroke:#000;stroke-linecap:round;stroke-linejoin:round;stroke-width:1.5px}</style></defs><title>car-2</title><path class="a" d="M21.75 18.249a1.5 1.5 0 0 0 1.5-1.5V13a1.811 1.811 0 0 0-.53-1.279L20.25 9.25H3.75l-2.47 2.47A1.811 1.811 0 0 0 .75 13v3.75a1.5 1.5 0 0 0 1.5 1.5z"/><path class="a" d="M3.75 9.25l1.723-4.595A2.166 2.166 0 0 1 7.5 3.25h9a2.166 2.166 0 0 1 2.027 1.405l1.723 4.6zm0 0l-1.5-1.5H.75m19.5 1.5l1.5-1.5h1.5m-21 10.499v1.5a1.5 1.5 0 0 0 3 0v-1.5zm19.5 0v1.5a1.5 1.5 0 0 1-3 0v-1.5zm-11.625-3L8.967 13.4a.751.751 0 0 1 .633-1.151h4.8a.751.751 0 0 1 .636 1.148l-1.158 1.852m9.207-3h-3.121a.751.751 0 0 0-.671 1.086l.128.256a3 3 0 0 0 2.679 1.658h1.15m-22.335-3h3.121a.751.751 0 0 1 .671 1.086l-.128.256A3 3 0 0 1 1.9 15.249H.75"/></svg>