<svg xmlns="http://www.w3.org/2000/svg" viewBox="0 0 24 24" width="24" height="24"><defs><style>.a{fill:none;stroke:#000;stroke-linecap:round;stroke-linejoin:round;stroke-width:1.5px}</style></defs><title>car-repair-rotating-light</title><path class="a" d="M20.25 21h1.5a1.5 1.5 0 0 0 1.5-1.5V18a3 3 0 0 0-3-3h-1.5l-2.585-5.171A1.5 1.5 0 0 0 14.823 9H11.25a1.5 1.5 0 0 0-1.5 1.5V15h-7.5a1.5 1.5 0 0 0-1.5 1.5v3a1.5 1.5 0 0 0 1.5 1.5H4.5m11.25 0H9m.75-6h9"/><path class="a" d="M14.25 9V7.5a1.5 1.5 0 0 0-3 0V9m1.5-8.25V3m-4.773-.273l1.591 1.591M6 7.5h2.25m9.273-4.773l-1.591 1.591M19.5 7.5h-2.25"/><circle class="a" cx="18" cy="21" r="2.25"/><circle class="a" cx="6.75" cy="21" r="2.25"/></svg>