<svg xmlns="http://www.w3.org/2000/svg" viewBox="0 0 24 24" width="24" height="24"><g fill="none" stroke="#000" stroke-linejoin="round" stroke-miterlimit="10"><path d="M7.5 15.5c-8.5-5.5-8.5 6-3.69 6H7.5v-6zm8 0c8.5-5.5 8.5 6 3.69 6H15.5v-6zm-8 0l4-3 4 3v6h-8z"/><circle cx="19" cy="17" r="1"/><circle cx="4" cy="17" r="1"/><path d="M9.5 14v7.5m2-9v9m2-7.5v7.5m-10 0h3v2h-3zm13 0h3v2h-3zm-13-9.404V8.5a4 4 0 014-4h8a4 4 0 014 4v3.596"/><path d="M20.439 14.147c-.211-1.786-1.577-3.017-3.398-3.265a40.68 40.68 0 00-11.082 0c-1.821.248-3.187 1.479-3.398 3.265"/><path stroke-linecap="round" d="M3.5 9.5H2a1.5 1.5 0 100 3h1.174m16.326-3H21a1.5 1.5 0 110 3h-1.174"/></g><path fill="none" d="M0 0h24v24H0z"/></svg>