<svg xmlns="http://www.w3.org/2000/svg" viewBox="0 0 24 24" width="24" height="24"><defs><style>.a{fill:none;stroke:#000;stroke-linecap:round;stroke-linejoin:round;stroke-width:1.5px}</style></defs><title>car-dashboard-window-rear-wipe</title><circle class="a" cx="11.754" cy="20.25" r="1.5"/><path class="a" d="M11.754 12.75v1.5m0-6v1.5m0-6v1.5m-.712 13.679L5.529 8.701M8.754 4a20.069 20.069 0 0 0-5.808 1.929 3.1 3.1 0 0 0-1.378 4.111L4 15.064a1.5 1.5 0 0 0 2.027.686 14.909 14.909 0 0 1 2.729-1.066M14.754 4a20.069 20.069 0 0 1 5.808 1.929 3.1 3.1 0 0 1 1.378 4.111l-2.431 5.024a1.5 1.5 0 0 1-2.026.686 14.936 14.936 0 0 0-2.729-1.066"/></svg>