<svg xmlns="http://www.w3.org/2000/svg" viewBox="0 0 24 24" width="24" height="24"><defs><style>.a{fill:none;stroke:#000;stroke-linecap:round;stroke-linejoin:round;stroke-width:1.5px}</style></defs><title>car-dashboard-warning</title><path class="a" d="M12 7v6m0 3a.375.375 0 0 1 .375.375m-.75 0A.375.375 0 0 1 12 16m0 .75a.375.375 0 0 1-.375-.375m.75 0a.375.375 0 0 1-.375.375"/><circle class="a" cx="12" cy="12.25" r="8.25"/><path class="a" d="M19.648 20.5a11.249 11.249 0 0 0 0-16.5M4.353 4a11.247 11.247 0 0 0 0 16.5"/></svg>