<svg xmlns="http://www.w3.org/2000/svg" viewBox="0 0 24 24" width="24" height="24"><defs><style>.a{fill:none;stroke:#000;stroke-linecap:round;stroke-linejoin:round;stroke-width:1.5px}</style></defs><title>car-3</title><path class="a" d="M21.75 18.5a1.5 1.5 0 0 0 1.5-1.5v-4.5a1.809 1.809 0 0 0-.53-1.279l-2.47-2.47H3.75l-2.47 2.47A1.809 1.809 0 0 0 .75 12.5V17a1.5 1.5 0 0 0 1.5 1.5zm-18-9.749l1.723-4.6a2.165 2.165 0 0 1 2.027-1.4h9a2.166 2.166 0 0 1 2.027 1.4l1.723 4.6zm0 0l-1.5-1.5H.75m19.5 1.5l1.5-1.5h1.5M2.25 18.5V20a1.5 1.5 0 0 0 3 0v-1.5zm19.5 0V20a1.5 1.5 0 0 1-3 0v-1.5z"/><path class="a" d="M8.35 15.5a1.5 1.5 0 0 1-1.288-.729l-1.375-2.293A1.5 1.5 0 0 0 4.4 11.75H.913m22.174 0H19.6a1.5 1.5 0 0 0-1.286.728l-1.376 2.294a1.5 1.5 0 0 1-1.286.728M.75 14.75h3m16.5 0h3"/><circle class="a" cx="12" cy="13.625" r="1.875"/></svg>