<svg xmlns="http://www.w3.org/2000/svg" viewBox="0 0 24 24" width="24" height="24"><g fill="none" stroke="#000" stroke-linejoin="round" stroke-miterlimit="10"><g stroke-linecap="round"><path d="M1.5 15.501h3v2h-3zm16-6h-15l-2 2v4H11"/><path d="M15.5 4.501h-11l-2 5h15zm-15 9H5"/></g><path stroke-linecap="round" d="M13.5 15.5h10v8h-10zm5 5.502v-2"/><path stroke-linecap="round" d="M15.5 15.502v-.999a3 3 0 116 0v.999"/><path d="M19 18.502a.5.5 0 01-.5.5h0a.5.5 0 01-.5-.5h0a.5.5 0 01.5-.5h0a.5.5 0 01.5.5h0z"/></g><path fill="none" d="M0 0h24v24H0z"/></svg>