<svg xmlns="http://www.w3.org/2000/svg" viewBox="0 0 24 24" width="24" height="24"><defs><style>.a{fill:none;stroke:#000;stroke-linecap:round;stroke-linejoin:round;stroke-width:1.5px}</style></defs><title>car-repair-fluid-1</title><path class="a" d="M23.25 18.75a3.75 3.75 0 0 1-7.5 0c0-2.071 3.75-9 3.75-9s3.75 6.929 3.75 9zm-4.5-.75v1.5M2.951 6.858L4.7 2.96A2.249 2.249 0 0 1 6.809 1.5h8.882A2.251 2.251 0 0 1 17.8 2.96l1.75 3.9M1.5 13.3V15a1.5 1.5 0 0 0 3 0v-1.5m-.375-3.75a.375.375 0 0 0-.375.375m.75 0a.375.375 0 0 0-.375-.375m0 .75a.375.375 0 0 0 .375-.375m-.75 0a.375.375 0 0 0 .375.375"/><path class="a" d="M21.348 8.25a3 3 0 0 0-2.6-1.5h-15a3 3 0 0 0-3 3V12a1.5 1.5 0 0 0 1.5 1.5h12"/></svg>