<svg xmlns="http://www.w3.org/2000/svg" viewBox="0 0 24 24" width="24" height="24"><g fill="none" stroke="#000" stroke-linejoin="round" stroke-miterlimit="10"><path d="M9.143 17.938a4 4 0 01-5.656 0l-1.415-1.413a4 4 0 010-5.657l4.95-4.949a4 4 0 015.656 0l1.415 1.414a4 4 0 010 5.656l-4.95 4.949z"/><path d="M10.911 4.856l-6.01 6.011a2 2 0 000 2.828l1.414 1.415c.781.78 2.047.78 2.828 0l6.011-6.01"/><path d="M7.73 10.867l1.413 1.414-1.414 1.414-1.414-1.414zm2.827-2.828l1.414 1.414-1.414 1.414-1.414-1.414z"/><circle cx="15.5" cy="4.5" r="3"/><circle cx="19.5" cy="6.5" r="3"/><path d="M17.5 13.5a2 2 0 012-2h2a2 2 0 012 2v3h-6v-3zm4 3h-2v5l1.042 2 .958-2z"/><path stroke-linecap="round" d="M20.5 13V8"/></g><path fill="none" d="M0 0h24v24H0z"/></svg>