<svg xmlns="http://www.w3.org/2000/svg" viewBox="0 0 24 24" width="24" height="24"><defs><style>.a{fill:none;stroke:#000;stroke-linecap:round;stroke-linejoin:round;stroke-width:1.5px}</style></defs><title>car-repair-engine</title><circle class="a" cx="16.5" cy="21" r="2.25"/><circle class="a" cx="6" cy="21" r="2.25"/><path class="a" d="M14.382 21.75H8.118m-4.237 0H2.25a1.5 1.5 0 0 1-1.5-1.5v-1.5a3 3 0 0 1 3-3l1.835-3.671a1.5 1.5 0 0 1 1.342-.829h4.9a1.5 1.5 0 0 1 1.342.829L15 15.75h5.25a3 3 0 0 1 3 3v1.5a1.5 1.5 0 0 1-1.5 1.5h-3.13m-3.62-6H3.75"/><path class="a" d="M15 15.75l4.5-4.5h3m0-3.75a2.447 2.447 0 0 1-.75-1.841c0-1.227 1.5-1.841 1.5-3.068A2.447 2.447 0 0 0 22.5.75M18 9a2.447 2.447 0 0 1-.75-1.841c0-1.227 1.5-1.841 1.5-3.068A2.447 2.447 0 0 0 18 2.25"/></svg>