<svg xmlns="http://www.w3.org/2000/svg" viewBox="0 0 24 24" width="24" height="24"><defs><style>.a{fill:none;stroke:#000;stroke-linecap:round;stroke-linejoin:round;stroke-width:1.5px}</style></defs><title>car-clouds</title><circle class="a" cx="18.718" cy="21.75" r="1.5"/><circle class="a" cx="5.218" cy="21.75" r="1.5"/><path class="a" d="M20.218 21.75h1.532a1.5 1.5 0 0 0 1.5-1.5 4.527 4.527 0 0 0-4.532-4.5S16.468 9 10.468 9c-4.5 0-9.334 2.682-9.717 11.216a1.47 1.47 0 0 0 1.467 1.534h1.5m13.5 0h-10.5m12-6H1.484m8.266 0V9.025m6-2.275a2.25 2.25 0 1 1 1.614-3.817A3 3 0 1 1 20.25 6.75zM10.5 6a2.25 2.25 0 0 0-3.864-1.567 3 3 0 1 0-4.387 3.415"/></svg>