<svg xmlns="http://www.w3.org/2000/svg" viewBox="0 0 24 24" width="24" height="24"><defs><style>.a{fill:none;stroke:#000;stroke-linecap:round;stroke-linejoin:round;stroke-width:1.5px}</style></defs><title>car-garage-1</title><path class="a" d="M17.579 9.75H6.422a1.5 1.5 0 0 0-1.456 1.136L3.75 14.25h16.5l-1.216-3.364a1.5 1.5 0 0 0-1.455-1.136zM21 20.25H3a.75.75 0 0 1-.75-.75v-3.75a1.5 1.5 0 0 1 1.5-1.5h16.5a1.5 1.5 0 0 1 1.5 1.5v3.75a.75.75 0 0 1-.75.75zm-18.75-3h3m13.5 0h3"/><path class="a" d="M9.75 17.25h4.5v3h-4.5zm7.5 6h1.5a1.5 1.5 0 0 0 1.5-1.5v-1.5h-4.5v1.5a1.5 1.5 0 0 0 1.5 1.5zm-12 0h1.5a1.5 1.5 0 0 0 1.5-1.5v-1.5h-4.5v1.5a1.5 1.5 0 0 0 1.5 1.5zm-4.5-15L12 .75l11.25 7.5"/></svg>