<svg xmlns="http://www.w3.org/2000/svg" viewBox="0 0 24 24" width="24" height="24"><defs><style>.a{fill:none;stroke:#000;stroke-linecap:round;stroke-linejoin:round;stroke-width:1.5px}</style></defs><title>car-actions-search</title><path class="a" d="M23.25 11.25a3.624 3.624 0 0 0-1.061-2.561L20.25 6.75H3.75L1.811 8.689A3.624 3.624 0 0 0 .75 11.25a1.5 1.5 0 0 0 1.5 1.5h6m-7.175-3H5.25m17.675 0h-1.888m-17.287-3l1.7-4.54A2.249 2.249 0 0 1 7.559.75h8.882a2.249 2.249 0 0 1 2.106 1.46l1.7 4.54zm-1.5 6v1.5a1.5 1.5 0 0 0 3 0v-1.5z"/><circle class="a" cx="15.75" cy="15.75" r="5.25"/><path class="a" d="M23.25 23.25l-3.764-3.764"/></svg>