<svg xmlns="http://www.w3.org/2000/svg" viewBox="0 0 24 24" width="24" height="24"><defs><style>.a{fill:none;stroke:#000;stroke-linecap:round;stroke-linejoin:round;stroke-width:1.5px}</style></defs><title>car-dashboard-manual</title><path class="a" d="M.75 6.75v-3m3 3l-2.25-3M23.25 21h-3v-.75a3 3 0 0 1 3-3v6M17.3 1.862a1.5 1.5 0 1 1 1.45 1.888 1.5 1.5 0 1 1-1.445 1.9m-6.055 13.1a1.5 1.5 0 0 1 1.5-1.5 1.5 1.5 0 0 1 1.5 1.5 2.141 2.141 0 0 1-.468 1.336L11.25 23.25h3m-6-22.5H9a.75.75 0 0 1 .75.75v5.25m-1.5 0h3m-9-6H.75v3h1.5a1.5 1.5 0 0 0 0-3zm7.5 12v-3m3 3v1.5m6-1.5v-3m3 4.5a1.5 1.5 0 0 0-1.5-1.5h-15a3 3 0 0 1-3-3"/></svg>