<svg xmlns="http://www.w3.org/2000/svg" viewBox="0 0 24 24" width="24" height="24"><defs><style>.a{fill:none;stroke:#000;stroke-linecap:round;stroke-linejoin:round;stroke-width:1.5px}</style></defs><title>car-tool-keys</title><rect class="a" x="2.032" y="5.567" width="10.398" height="14.854" rx="2" ry="2" transform="rotate(14.767 7.231 12.994)"/><circle class="a" cx="7.799" cy="10.84" r="2.228"/><path class="a" d="M4.68 15.39a.376.376 0 0 1 .267.458m-.726-.191a.376.376 0 0 1 .459-.267m-.192.725a.376.376 0 0 1-.267-.458m.726.191a.375.375 0 0 1-.459.267m3.782.222a.374.374 0 0 1 .267.458m-.725-.195a.375.375 0 0 1 .458-.267m-.191.729a.375.375 0 0 1-.267-.458m.725.196a.375.375 0 0 1-.458.267m9.23-5.957a2.971 2.971 0 1 1 5.941 0v2.228a1.485 1.485 0 0 1-1.485 1.485h-2.971a1.485 1.485 0 0 1-1.485-1.485zm4.456 9.655l-1.486 1.485-1.485-1.485v-5.942h2.971v5.942zM9.124 5.813C10.9 1.109 19.1-.773 20.279 8.139"/></svg>