<svg xmlns="http://www.w3.org/2000/svg" viewBox="0 0 24 24" width="24" height="24"><defs><style>.a{fill:none;stroke:#000;stroke-linecap:round;stroke-linejoin:round;stroke-width:1.5px}</style></defs><title>car-sports</title><circle class="a" cx="18" cy="16.75" r="2.25"/><circle class="a" cx="6" cy="16.75" r="2.25"/><path class="a" d="M15.75 16.75h-7.5m12 0h1.5a1.5 1.5 0 0 0 1.437-1.931l-1.866-4.5a1.5 1.5 0 0 0-1.437-1.069H16.5l-1.813 3.022A1.5 1.5 0 0 1 13.4 13h-2.847a1.5 1.5 0 0 1-1.248-.668L8.25 10.75h-4.5a1.5 1.5 0 0 0-1.5 1.5v4.5m-1.5 0h3m4.5-6V7m8.25 2.25L15 5.5"/></svg>