<svg xmlns="http://www.w3.org/2000/svg" viewBox="0 0 24 24" width="24" height="24"><defs><style>.a{fill:none;stroke:#000;stroke-linecap:round;stroke-linejoin:round;stroke-width:1.5px}</style></defs><title>car-1</title><path class="a" d="M21.75 17a1.5 1.5 0 0 0 1.5-1.5v-2.251a1.811 1.811 0 0 0-.53-1.279L20.25 9.5H3.75l-2.47 2.47a1.811 1.811 0 0 0-.53 1.279V15.5a1.5 1.5 0 0 0 1.5 1.5z"/><path class="a" d="M.912 12.5h3.717a1.5 1.5 0 0 1 1.06.439L6.75 14m16.338-1.5h-3.717a1.5 1.5 0 0 0-1.06.439L17.25 14M3.75 9.5l1.7-4.54A2.249 2.249 0 0 1 7.559 3.5h8.882a2.249 2.249 0 0 1 2.106 1.46l1.7 4.54zm0 0L2.25 8H.75m19.5 1.5l1.5-1.5h1.5m-21 9v1.5a1.5 1.5 0 0 0 3 0V17zm19.5 0v1.5a1.5 1.5 0 0 1-3 0V17z"/></svg>