<svg xmlns="http://www.w3.org/2000/svg" viewBox="0 0 24 24" width="24" height="24"><defs><style>.a{fill:none;stroke:#000;stroke-linecap:round;stroke-linejoin:round;stroke-width:1.5px}</style></defs><title>car-repair-fluid</title><path class="a" d="M23.25 9.75l-3-3H3.75L1.811 8.689A3.624 3.624 0 0 0 .75 11.25a1.5 1.5 0 0 0 1.5 1.5h12m-13.175-3H5.25m-1.5-3l1.7-4.54A2.249 2.249 0 0 1 7.559.75h8.882a2.249 2.249 0 0 1 2.106 1.46l1.7 4.54zm-1.5 6v1.5a1.5 1.5 0 0 0 3 0v-1.5z"/><path class="a" d="M23.25 19.5a3.75 3.75 0 0 1-7.5 0c0-2.071 3.75-9 3.75-9s3.75 6.929 3.75 9zm-4.5-.75v1.5"/></svg>