<svg xmlns="http://www.w3.org/2000/svg" viewBox="0 0 24 24" width="24" height="24"><defs><style>.a{fill:none;stroke:#000;stroke-linecap:round;stroke-linejoin:round;stroke-width:1.5px}</style></defs><title>car-tool-lug-wrench</title><path class="a" d="M15 2.25a3 3 0 0 1-6 0V.75h6zm-6 19.5a3 3 0 0 1 6 0v1.5H9z"/><path class="a" d="M19.152 10.5H15A1.5 1.5 0 0 1 13.5 9V4.844m0 14.308V15a1.5 1.5 0 0 1 1.5-1.5h4.152m-14.304 0H9a1.5 1.5 0 0 1 1.5 1.5v4.152m0-14.308V9A1.5 1.5 0 0 1 9 10.5H4.848"/><path class="a" d="M21.75 15a3 3 0 0 1 0-6h1.5v6zM2.25 9a3 3 0 0 1 0 6H.75V9z"/></svg>