<svg xmlns="http://www.w3.org/2000/svg" viewBox="0 0 24 24" width="24" height="24"><path d="M3.5 21.5h3v2h-3zm14 0h3v2h-3zm4 0v-4l-2-2h-15l-2 2v4zm-4-11h-11l-2 5h15zm-15 9H7m10 0h4.5M5.674 6.629a8.945 8.945 0 0112.652 0m2.531-2.426C15.968-.685 8.04-.693 3.142 4.203m5.062 4.851a5.37 5.37 0 017.593 0m2.53-2.425a8.945 8.945 0 00-12.652 0m10.122 2.425a5.37 5.37 0 00-7.593 0" fill="none" stroke="#000" stroke-linecap="round" stroke-linejoin="round" stroke-miterlimit="10"/><path fill="none" d="M0 0h24v24H0z"/></svg>