<svg xmlns="http://www.w3.org/2000/svg" viewBox="0 0 24 24" width="24" height="24"><defs><style>.a{fill:none;stroke:#000;stroke-linecap:round;stroke-linejoin:round;stroke-width:1.5px}</style></defs><title>car-repair-fire-1</title><path class="a" d="M22.06 9.8a4.48 4.48 0 0 0 1.19-3.05c0-2.051-2.072-5.343-4.5-6 1.032 1.115 2.162 3.891-.1 4.691-2.09.74-2.73-1.788-2.73-1.788A6.006 6.006 0 0 0 14.738 5.1m7.012 15.15a1.5 1.5 0 0 0 1.5-1.5 3.624 3.624 0 0 0-1.061-2.561L20.25 14.25H3.75l-1.939 1.939A3.624 3.624 0 0 0 .75 18.75a1.5 1.5 0 0 0 1.5 1.5zm-20.675-3H5.25m17.675 0H18.75"/><path class="a" d="M3.75 14.25l1.7-4.54a2.249 2.249 0 0 1 2.109-1.46h8.882a2.249 2.249 0 0 1 2.106 1.46l1.7 4.54zm-1.5 6v1.5a1.5 1.5 0 0 0 3 0v-1.5zm19.5 0v1.5a1.5 1.5 0 0 1-3 0v-1.5z"/></svg>