<svg xmlns="http://www.w3.org/2000/svg" viewBox="0 0 24 24" width="24" height="24"><defs><style>.a{fill:none;stroke:#000;stroke-linecap:round;stroke-linejoin:round;stroke-width:1.5px}</style></defs><title>car-dashboard-seat-adjust</title><circle class="a" cx="20.625" cy="3.375" r="2.625"/><path class="a" d="M.751 8.25l2.25 2.25 2.25-2.25m-2.25 2.25v-6m8.25.75L13.501 3 11.251.75M13.501 3h-6M3 23.25a2.25 2.25 0 0 1-1.927-3.407l3.186-5.309a5.228 5.228 0 0 1 6.451-2.174l2.562 1.026a.763.763 0 0 0 .952-.362l1.764-3.53a2.25 2.25 0 1 1 4.025 2.012l-1.765 3.532a5.276 5.276 0 0 1-6.648 2.525l-2.563-1.025a.752.752 0 0 0-.921.31L4.93 22.157A2.249 2.249 0 0 1 3 23.25z"/></svg>