<svg xmlns="http://www.w3.org/2000/svg" viewBox="0 0 24 24" width="24" height="24"><defs><style>.a{fill:none;stroke:#000;stroke-linecap:round;stroke-linejoin:round;stroke-width:1.5px}</style></defs><title>car-actions-shield</title><path class="a" d="M22.189 8.689L20.25 6.75H3.75L1.811 8.689A3.624 3.624 0 0 0 .75 11.25a1.5 1.5 0 0 0 1.5 1.5h6m-7.175-3H5.25m-1.5-3l1.7-4.54A2.249 2.249 0 0 1 7.559.75h8.882a2.249 2.249 0 0 1 2.106 1.46l1.7 4.54zm-1.5 6v1.5a1.5 1.5 0 0 0 3 0v-1.5z"/><path class="a" d="M23.25 15.75a7.669 7.669 0 0 1-6 7.5 7.669 7.669 0 0 1-6-7.5v-3a1.5 1.5 0 0 1 1.5-1.5h9a1.5 1.5 0 0 1 1.5 1.5zm-6-.75v4.5M15 17.25h4.5"/></svg>