<svg xmlns="http://www.w3.org/2000/svg" viewBox="0 0 24 24" width="24" height="24"><defs><style>.a{fill:none;stroke:#000;stroke-linecap:round;stroke-linejoin:round;stroke-width:1.5px}</style></defs><title>car-actions-wifi</title><path class="a" d="M21.75 20.25a1.5 1.5 0 0 0 1.5-1.5 3.624 3.624 0 0 0-1.061-2.561L20.25 14.25H3.75l-1.939 1.939A3.624 3.624 0 0 0 .75 18.75a1.5 1.5 0 0 0 1.5 1.5zm-20.675-3H5.25m17.675 0H18.75m-15-3l1.7-4.54a2.249 2.249 0 0 1 2.109-1.46h8.882a2.249 2.249 0 0 1 2.106 1.46l1.7 4.54zm-1.5 6v1.5a1.5 1.5 0 0 0 3 0v-1.5zm19.5 0v1.5a1.5 1.5 0 0 1-3 0v-1.5zM17.262 5.475A8.52 8.52 0 0 0 12 3.75a8.52 8.52 0 0 0-5.262 1.725m13.155-2.138A12.783 12.783 0 0 0 12 .75a12.783 12.783 0 0 0-7.893 2.587"/></svg>