<svg xmlns="http://www.w3.org/2000/svg" viewBox="0 0 24 24" width="24" height="24"><defs><style>.a{fill:none;stroke:#000;stroke-linecap:round;stroke-linejoin:round;stroke-width:1.5px}</style></defs><title>car-repair-wash-3</title><path class="a" d="M12 .75a.375.375 0 0 1 .375.375m-.75 0A.375.375 0 0 1 12 .75m0 .75a.375.375 0 0 1-.375-.375m.75 0A.375.375 0 0 1 12 1.5m0 2.25a.375.375 0 0 1 .375.375m-.75 0A.375.375 0 0 1 12 3.75m0 .75a.375.375 0 0 1-.375-.375m.75 0A.375.375 0 0 1 12 4.5m-7.5-.75a.375.375 0 0 0-.375.375m.75 0A.375.375 0 0 0 4.5 3.75m0 .75a.375.375 0 0 0 .375-.375m-.75 0A.375.375 0 0 0 4.5 4.5m3.75-2.25a.375.375 0 0 1 .375.375m-.75 0a.375.375 0 0 1 .375-.375m0 .75a.375.375 0 0 1-.375-.375m.75 0A.375.375 0 0 1 8.25 3m11.25.75a.375.375 0 0 1 .375.375m-.75 0a.375.375 0 0 1 .375-.375m0 .75a.375.375 0 0 1-.375-.375m.75 0a.375.375 0 0 1-.375.375m-3.75-2.25a.375.375 0 0 0-.375.375m.75 0a.375.375 0 0 0-.375-.375m0 .75a.375.375 0 0 0 .375-.375m-.75 0A.375.375 0 0 0 15.75 3M1.5 20.217v1.533a1.5 1.5 0 0 0 3 0v-1.5m18-.033v1.533a1.5 1.5 0 0 1-3 0v-1.5m.375-3.75a.375.375 0 0 1 .375.375m-.75 0a.375.375 0 0 1 .375-.375m0 .75a.375.375 0 0 1-.375-.375m.75 0a.375.375 0 0 1-.375.375m-15.75-.75a.375.375 0 0 0-.375.375m.75 0a.375.375 0 0 0-.375-.375m0 .75a.375.375 0 0 0 .375-.375m-.75 0a.375.375 0 0 0 .375.375"/><path class="a" d="M2.75 13.5h18.5a2 2 0 0 1 2 2v3.75a1 1 0 0 1-1 1H1.75a1 1 0 0 1-1-1V15.5a2 2 0 0 1 2-2zm18.25 0l-1.7-3.79a2.249 2.249 0 0 0-2.106-1.46H6.809A2.249 2.249 0 0 0 4.7 9.71L3 13.5"/></svg>