<svg xmlns="http://www.w3.org/2000/svg" viewBox="0 0 24 24" width="24" height="24"><defs><style>.a{fill:none;stroke:#000;stroke-linecap:round;stroke-linejoin:round;stroke-width:1.5px}</style></defs><title>car-key-1</title><circle class="a" cx="6.75" cy="21.75" r="1.5"/><circle class="a" cx="18.75" cy="21.75" r="1.5"/><path class="a" d="M8.25 21.75h9m3 0h1.5a1.5 1.5 0 0 0 1.5-1.5v-1.5a3 3 0 0 0-3-3l-1.835-3.671a1.5 1.5 0 0 0-1.342-.829h-7.9a1.5 1.5 0 0 0-1.342.829L6 15.75H3.75a3 3 0 0 0-3 3v1.5a1.5 1.5 0 0 0 1.5 1.5h3m.75-6h14.25"/><circle class="a" cx="8.25" cy="3.75" r="3"/><path class="a" d="M11.25 3.75h7.5V6m-3-2.25v1.5"/></svg>