<svg xmlns="http://www.w3.org/2000/svg" viewBox="0 0 24 24" width="24" height="24"><defs><style>.a{fill:none;stroke:#000;stroke-linecap:round;stroke-linejoin:round;stroke-width:1.5px}</style></defs><title>car-actions-music-1</title><path class="a" d="M15.75 21a1.5 1.5 0 1 1-1.5-1.5h1.5zm7.5-3a1.5 1.5 0 1 1-1.5-1.5h1.5z"/><path class="a" d="M15.75 19.5v-4.985a1.5 1.5 0 0 1 .943-1.392l5.528-2.212a.751.751 0 0 1 1.029.7V16.5M2.951 6.858L4.7 2.96A2.249 2.249 0 0 1 6.809 1.5h8.882A2.251 2.251 0 0 1 17.8 2.96l1.75 3.9M1.5 13.3V15a1.5 1.5 0 0 0 3 0v-1.5m-.375-3.75a.375.375 0 0 0-.375.375m.75 0a.375.375 0 0 0-.375-.375m0 .75a.375.375 0 0 0 .375-.375m-.75 0a.375.375 0 0 0 .375.375"/><path class="a" d="M21.348 8.25a3 3 0 0 0-2.6-1.5h-15a3 3 0 0 0-3 3V12a1.5 1.5 0 0 0 1.5 1.5h10.5"/></svg>