<svg xmlns="http://www.w3.org/2000/svg" viewBox="0 0 24 24" width="24" height="24"><defs><style>.a{fill:none;stroke:#000;stroke-linecap:round;stroke-linejoin:round;stroke-width:1.5px}</style></defs><title>car-actions-settings-1</title><circle class="a" cx="17.202" cy="15.643" r="1.5"/><path class="a" d="M18.476 9.84l.442 1.452a.994.994 0 0 0 1.174.682l1.472-.342a1.339 1.339 0 0 1 1.274 2.219l-1.03 1.111a1 1 0 0 0 0 1.362l1.03 1.111a1.338 1.338 0 0 1-1.274 2.218l-1.472-.341a.993.993 0 0 0-1.174.681l-.442 1.452a1.33 1.33 0 0 1-2.548 0l-.443-1.452a.992.992 0 0 0-1.173-.681l-1.473.341a1.339 1.339 0 0 1-1.274-2.218l1.03-1.111a1 1 0 0 0 0-1.362l-1.03-1.111a1.339 1.339 0 0 1 1.274-2.219l1.473.342a.993.993 0 0 0 1.173-.682l.443-1.452a1.33 1.33 0 0 1 2.548 0zM2.9 6.751l1.751-3.9a2.25 2.25 0 0 1 2.107-1.46h8.882a2.248 2.248 0 0 1 2.106 1.46L19.5 6.75M1.452 13.192v1.7a1.5 1.5 0 0 0 3 0v-1.5m-.375-3.749a.375.375 0 0 0-.375.375m.75 0a.375.375 0 0 0-.375-.375m0 .75a.375.375 0 0 0 .375-.375m-.752 0a.375.375 0 0 0 .375.375"/><path class="a" d="M21.3 8.142a3 3 0 0 0-2.6-1.5h-15a3 3 0 0 0-3 3v2.25a1.5 1.5 0 0 0 1.5 1.5h6"/></svg>