<svg xmlns="http://www.w3.org/2000/svg" viewBox="0 0 24 24" width="24" height="24"><defs><style>.a{fill:none;stroke:#000;stroke-linecap:round;stroke-linejoin:round;stroke-width:1.5px}</style></defs><title>car-wagon</title><circle class="a" cx="6.75" cy="16.5" r="1.5"/><circle class="a" cx="18.75" cy="16.5" r="1.5"/><path class="a" d="M8.25 16.5h9m3 0h1.5a1.5 1.5 0 0 0 1.5-1.5v-3.592a3 3 0 0 0-.5-1.664l-1.664-2.5A2.8 2.8 0 0 0 18.75 6H11.6a1.5 1.5 0 0 0-1.342.829L7.5 10.5l-4.338 1.018A3 3 0 0 0 .75 14.459V15a1.5 1.5 0 0 0 1.5 1.5h3m2.25-6h15.608M15 6v10.5M18.75 6v4.5"/></svg>