<svg xmlns="http://www.w3.org/2000/svg" viewBox="0 0 24 24" width="24" height="24"><g fill="none" stroke="#000" stroke-linejoin="round" stroke-miterlimit="10"><path stroke-linecap="round" d="M3.5 14.5h3v2h-3zm18-4l-2-2h-15l-2 2v4h8.455m6.545-11h-11l-2 5h15zm-15 9H7"/><path d="M12.5 21.012c0 .75-.671 1.5-1.5 1.5a1.5 1.5 0 01-1.5-1.5A1.51 1.51 0 0111 19.5h1.5v1.512zm6-3.018c0 .75-.671 1.5-1.5 1.5-.828 0-1.5-.672-1.5-1.5S16.171 16.5 17 16.5h1.5v1.494z"/><path d="M12.5 20v-6.703l6-2.779V17"/></g><path fill="none" d="M0 0h24v24H0z"/></svg>