<svg xmlns="http://www.w3.org/2000/svg" viewBox="0 0 24 24" width="24" height="24"><defs><style>.a{fill:none;stroke:#000;stroke-linecap:round;stroke-linejoin:round;stroke-width:1.5px}</style></defs><title>car-smart</title><circle class="a" cx="17.25" cy="16.5" r="1.5"/><circle class="a" cx="5.25" cy="16.5" r="1.5"/><path class="a" d="M15.75 16.5h-9m-3 0h-1.5A1.5 1.5 0 0 1 .75 15v-3.592a3 3 0 0 1 .5-1.664l2.5-4.494h7.456a3 3 0 0 1 2.441 1.256L16.5 10.5h3.459a3 3 0 0 1 2.959 2.507L23.25 15a1.5 1.5 0 0 1-1.5 1.5h-3m-2.25-6H.892M6.75 5.25v5.25m-3-5.25H1.5"/></svg>