<svg xmlns="http://www.w3.org/2000/svg" viewBox="0 0 24 24" width="24" height="24"><defs><style>.a{fill:none;stroke:#000;stroke-linecap:round;stroke-linejoin:round;stroke-width:1.5px}</style></defs><title>car-repair-24h-service</title><path class="a" d="M17.25 9.75h-3V9a3 3 0 0 1 3-3v6m-9-4.5A1.5 1.5 0 0 1 9.75 6a1.5 1.5 0 0 1 1.5 1.5 2.136 2.136 0 0 1-.469 1.336L8.25 12h3m-6.775-1.627l-2.225 1.5-1.5-2.225m1.501 2.226a10.5 10.5 0 1 1 1.385 5.343M10.5 16.5H15M9 15a1.5 1.5 0 0 1 0 3m7.5-3a1.5 1.5 0 0 0 0 3"/></svg>