<svg xmlns="http://www.w3.org/2000/svg" viewBox="0 0 24 24" width="24" height="24"><defs><style>.a{fill:none;stroke:#000;stroke-linecap:round;stroke-linejoin:round;stroke-width:1.5px}</style></defs><title>car-insurance-hands</title><path class="a" d="M3.75 23.25l-2.014-2.381a4.5 4.5 0 0 1-.986-2.811v-5.171a1.5 1.5 0 0 1 1.5-1.5 1.5 1.5 0 0 1 1.5 1.5v3.75"/><path class="a" d="M8.25 23.25v-3a4.5 4.5 0 0 0-.757-2.5l-1.142-1.71a1.4 1.4 0 0 0-1.977-.44 1.4 1.4 0 0 0-.474 1.787l1.352 2.25M20.25 23.25l2.014-2.381a4.5 4.5 0 0 0 .986-2.811v-5.171a1.5 1.5 0 0 0-1.5-1.5 1.5 1.5 0 0 0-1.5 1.5v3.75"/><path class="a" d="M15.75 23.25v-3a4.5 4.5 0 0 1 .757-2.5l1.142-1.712a1.4 1.4 0 0 1 1.977-.444 1.4 1.4 0 0 1 .476 1.791l-1.352 2.25M8.25 8.25h1.5m4.5 0h1.5m-9 3v1.5m10.5-1.5v1.5m1.25-5.628L17.25 5.25l-1.158-3.474A1.5 1.5 0 0 0 14.669.75H9.331a1.5 1.5 0 0 0-1.423 1.026L6.75 5.25 5.5 7.122a1.5 1.5 0 0 0-.252.832v1.8a1.5 1.5 0 0 0 1.5 1.5h10.5a1.5 1.5 0 0 0 1.5-1.5v-1.8a1.5 1.5 0 0 0-.248-.832zM6.75 5.25h10.5"/></svg>