<svg xmlns="http://www.w3.org/2000/svg" viewBox="0 0 24 24" width="24" height="24"><defs><style>.a{fill:none;stroke:#000;stroke-linecap:round;stroke-linejoin:round;stroke-width:1.5px}</style></defs><title>car-voyage-1</title><path class="a" d="M21.75 20.25a1.5 1.5 0 0 0 1.5-1.5 3.624 3.624 0 0 0-1.061-2.561L20.25 14.25H3.75l-1.939 1.939A3.624 3.624 0 0 0 .75 18.75a1.5 1.5 0 0 0 1.5 1.5zm-18-6l1.7-4.54a2.249 2.249 0 0 1 2.109-1.46h8.882a2.249 2.249 0 0 1 2.106 1.46l1.7 4.54zm-1.5 6v1.5a1.5 1.5 0 0 0 3 0v-1.5zm19.5 0v1.5a1.5 1.5 0 0 1-3 0v-1.5z"/><rect class="a" x="6.75" y="4.5" width="10.5" height="3.75" rx="1" ry="1"/><rect class="a" x="8.25" y=".75" width="7.5" height="3.75" rx="1" ry="1"/><path class="a" d="M9.75 4.5v3.75m4.5-3.75v3.75"/></svg>