<svg xmlns="http://www.w3.org/2000/svg" viewBox="0 0 24 24" width="24" height="24"><defs><style>.a{fill:none;stroke:#000;stroke-linecap:round;stroke-linejoin:round;stroke-width:1.5px}</style></defs><title>car-repair-tire</title><circle class="a" cx="16.906" cy="16.12" r="2.25"/><path class="a" d="M3.954 16.321a.743.743 0 0 0 .215-.448 2.251 2.251 0 0 1 4.474 0 .747.747 0 0 0 .214.448l.768.768A.75.75 0 0 1 9.1 18.37H3.717a.751.751 0 0 1-.531-1.281zm10.702-.201l-5.25.75"/><path class="a" d="M3.014 17.359l-.32.047A1.5 1.5 0 0 1 1 16.135l-.219-1.484a3 3 0 0 1 2.541-3.4l1.292-3.9a1.5 1.5 0 0 1 1.209-1.006l4.846-.7a1.5 1.5 0 0 1 1.446.629l2.341 3.371 5.166-.75a3 3 0 0 1 3.4 2.54l.214 1.485a1.5 1.5 0 0 1-1.27 1.7l-3.068.447m-4.442-5.421L3.322 11.253"/></svg>