<svg xmlns="http://www.w3.org/2000/svg" viewBox="0 0 24 24" width="24" height="24"><defs><style>.a{fill:none;stroke:#000;stroke-linecap:round;stroke-linejoin:round;stroke-width:1.5px}</style></defs><title>car-key</title><circle class="a" cx="8.25" cy="3.745" r="3"/><path class="a" d="M11.25 3.745h7.5v2.25m-3-2.25v1.5m1.829 4.5H6.421a1.5 1.5 0 0 0-1.455 1.136L3.75 14.245h16.5l-1.216-3.364a1.5 1.5 0 0 0-1.455-1.136zM21 20.245H3a.75.75 0 0 1-.75-.75v-3.75a1.5 1.5 0 0 1 1.5-1.5h16.5a1.5 1.5 0 0 1 1.5 1.5V19.5a.75.75 0 0 1-.75.745zm-18.75-3h3m13.5 0h3"/><path class="a" d="M9.75 17.245h4.5v3h-4.5zm7.5 6h1.5a1.5 1.5 0 0 0 1.5-1.5v-1.5h-4.5v1.5a1.5 1.5 0 0 0 1.5 1.5zm-12 0h1.5a1.5 1.5 0 0 0 1.5-1.5v-1.5h-4.5v1.5a1.5 1.5 0 0 0 1.5 1.5z"/></svg>