<svg xmlns="http://www.w3.org/2000/svg" viewBox="0 0 24 24" width="24" height="24"><defs><style>.a{fill:none;stroke:#000;stroke-linecap:round;stroke-linejoin:round;stroke-width:1.5px}</style></defs><title>car-truck-woods</title><circle class="a" cx="5.25" cy="21.75" r="1.5"/><circle class="a" cx="17.25" cy="21.75" r="1.5"/><path class="a" d="M3.75 21.75h-1.5a1.5 1.5 0 0 1-1.5-1.5v-1.5a3 3 0 0 1 3-3h1.5l2.585-5.171a1.5 1.5 0 0 1 1.342-.829h3.573a1.5 1.5 0 0 1 1.5 1.5v4.5h7.5a1.5 1.5 0 0 1 1.5 1.5v3a1.5 1.5 0 0 1-1.5 1.5h-3m-12 0h9m-1.5-6h-9m15-15l-1.975 5.431a2.1 2.1 0 1 0 3.95 0zm0 8.25v3m-6.066-5.243L12 .75l-2.182 6M3.75.75L1.775 6.181a2.1 2.1 0 1 0 3.95 0zm0 8.25v3"/></svg>