<svg xmlns="http://www.w3.org/2000/svg" viewBox="0 0 24 24" width="24" height="24"><g fill="none" stroke="#000" stroke-linejoin="round" stroke-miterlimit="10"><path stroke-linecap="round" d="M1.5 2.5h2v4h-2zm18 0h2v4h-2z"/><path d="M19.5 7.5h-16v-5a2 2 0 012-2h12a2 2 0 012 2v5zm-16 0h16l3 4H.5zm-3 4h22v6H.5zm0 6h5v6h-5zm17 0h5v6h-5z"/><path stroke-linecap="round" d="M7.5 13.531V15.5m2-1.969V15.5m2-1.969V15.5m2-1.969V15.5m2-1.969V15.5"/><circle stroke-linecap="round" cx="19" cy="14.5" r="1.5"/><circle stroke-linecap="round" cx="4" cy="14.5" r="1.5"/><path stroke-linecap="round" d="M11.5.5v7m-6 13.438l5-3.407m7 3.407l-5-3.407"/></g><path fill="none" d="M0 0h24v24H0z"/></svg>