<svg xmlns="http://www.w3.org/2000/svg" viewBox="0 0 24 24" width="24" height="24"><defs><style>.a{fill:none;stroke:#000;stroke-linecap:round;stroke-linejoin:round;stroke-width:1.5px}</style></defs><title>car-repair-fire</title><path class="a" d="M21 10.119a4.483 4.483 0 0 0 1.5-3.353c0-2.05-2.072-5.342-4.5-6 1.032 1.115 2.162 3.891-.1 4.691-2.09.741-2.729-1.788-2.729-1.788a4.824 4.824 0 0 0-1.674 3.1 4.487 4.487 0 0 0 .256 1.5"/><circle class="a" cx="6.75" cy="21.75" r="1.5"/><circle class="a" cx="18.75" cy="21.75" r="1.5"/><path class="a" d="M8.25 21.75h9m3 0h1.5a1.5 1.5 0 0 0 1.5-1.5v-1.5a3 3 0 0 0-3-3l-1.835-3.671a1.5 1.5 0 0 0-1.342-.829h-7.9a1.5 1.5 0 0 0-1.342.829L6 15.75H3.75a3 3 0 0 0-3 3v1.5a1.5 1.5 0 0 0 1.5 1.5h3m.75-6h14.25"/></svg>