<svg xmlns="http://www.w3.org/2000/svg" viewBox="0 0 24 24" width="24" height="24"><defs><style>.a{fill:none;stroke:#000;stroke-linecap:round;stroke-linejoin:round;stroke-width:1.5px}</style></defs><title>car-actions-check</title><path class="a" d="M23.164 10.466a3.621 3.621 0 0 0-.975-1.777L20.25 6.75H3.75L1.811 8.689A3.624 3.624 0 0 0 .75 11.25a1.5 1.5 0 0 0 1.5 1.5h7.5m-8.675-3H5.25m-1.5-3l1.7-4.54A2.249 2.249 0 0 1 7.559.75h8.882a2.249 2.249 0 0 1 2.106 1.46l1.7 4.54zm-1.5 6v1.5a1.5 1.5 0 0 0 3 0v-1.5z"/><circle class="a" cx="17.25" cy="17.25" r="6"/><path class="a" d="M19.924 15.506l-2.905 3.873a.752.752 0 0 1-1.131.081l-1.5-1.5"/></svg>