<svg xmlns="http://www.w3.org/2000/svg" viewBox="0 0 24 24" width="24" height="24"><defs><style>.a{fill:none;stroke:#000;stroke-linecap:round;stroke-linejoin:round;stroke-width:1.5px}</style></defs><title>car-insurance</title><path class="a" d="M18 1.5h3.75a1.5 1.5 0 0 1 1.5 1.5v12a7.5 7.5 0 0 1-7.5 7.5h-7.5A7.5 7.5 0 0 1 .75 15V3a1.5 1.5 0 0 1 1.5-1.5H6m2.25 11.25h1.5m4.5 0h1.5m-9 3v1.5m10.5-1.5v1.5"/><path class="a" d="M18.5 11.622L17.25 9.75l-1.158-3.474a1.5 1.5 0 0 0-1.423-1.026H9.331a1.5 1.5 0 0 0-1.423 1.026L6.75 9.75 5.5 11.622a1.5 1.5 0 0 0-.252.832v1.8a1.5 1.5 0 0 0 1.5 1.5h10.5a1.5 1.5 0 0 0 1.5-1.5v-1.8a1.5 1.5 0 0 0-.248-.832zM6.75 9.75h10.5"/></svg>