<svg xmlns="http://www.w3.org/2000/svg" viewBox="0 0 24 24" width="24" height="24"><defs><style>.a{fill:none;stroke:#000;stroke-linecap:round;stroke-linejoin:round;stroke-width:1.5px}</style></defs><title>car-truck</title><circle class="a" cx="18.75" cy="17.25" r="1.5"/><circle class="a" cx="6.75" cy="17.25" r="1.5"/><path class="a" d="M20.25 17.25h1.5a1.5 1.5 0 0 0 1.5-1.5v-1.5a3 3 0 0 0-3-3h-1.5l-2.585-5.171a1.5 1.5 0 0 0-1.342-.829H11.25a1.5 1.5 0 0 0-1.5 1.5v4.5h-7.5a1.5 1.5 0 0 0-1.5 1.5v3a1.5 1.5 0 0 0 1.5 1.5h3m12 0h-9m1.5-6h9"/></svg>