<svg xmlns="http://www.w3.org/2000/svg" viewBox="0 0 24 24" width="24" height="24"><g fill="none" stroke="#000" stroke-linejoin="round" stroke-miterlimit="10"><circle cx="12" cy="12.022" r="11.5"/><circle cx="12" cy="12.022" r="8.5"/><circle cx="12" cy="12.022" r="6.5"/><circle cx="12" cy="12.022" r="3"/><path d="M10.5 9.459V5.696m3 0v3.763m.552.329l3.338-1.484m1.048 2.828l-3.511 1.543m-.021.237l2.469 2.657m-2.094 2.125l-2.561-2.726m-2.773-5.18L6.609 8.304m-1.048 2.828l3.51 1.543m.022.237l-2.468 2.657m2.093 2.125l2.561-2.726"/><circle cx="12" cy="12.022" r="1"/></g><path fill="none" d="M0 0h24v24H0z"/></svg>