<svg xmlns="http://www.w3.org/2000/svg" viewBox="0 0 24 24" width="24" height="24"><defs><style>.a{fill:none;stroke:#000;stroke-linecap:round;stroke-linejoin:round;stroke-width:1.5px}</style></defs><title>car-actions-music</title><path class="a" d="M22.189 8.689L20.25 6.75H3.75L1.811 8.689A3.624 3.624 0 0 0 .75 11.25a1.5 1.5 0 0 0 1.5 1.5H13.5m-12.425-3H5.25m-1.5-3l1.7-4.54A2.249 2.249 0 0 1 7.559.75h8.882a2.249 2.249 0 0 1 2.106 1.46l1.7 4.54zm-1.5 6v1.5a1.5 1.5 0 0 0 3 0v-1.5zm13.5 9a1.5 1.5 0 1 1-1.5-1.5h1.5zm7.5-3a1.5 1.5 0 1 1-1.5-1.5h1.5z"/><path class="a" d="M15.75 20.25v-4.984a1.5 1.5 0 0 1 .943-1.393l5.528-2.212a.751.751 0 0 1 1.029.7v4.889"/></svg>