<svg xmlns="http://www.w3.org/2000/svg" viewBox="0 0 24 24" width="24" height="24"><defs><style>.a{fill:none;stroke:#000;stroke-linecap:round;stroke-linejoin:round;stroke-width:1.5px}</style></defs><title>car-actions-wifi-1</title><path class="a" d="M17.262 5.475A8.527 8.527 0 0 0 12 3.75a8.527 8.527 0 0 0-5.262 1.725m13.155-2.138A12.783 12.783 0 0 0 12 .75a12.783 12.783 0 0 0-7.893 2.587M21 13.5l-1.7-3.79a2.249 2.249 0 0 0-2.106-1.46H6.809A2.249 2.249 0 0 0 4.7 9.71L3 13.5m-1.5 6.719v1.531a1.5 1.5 0 0 0 3 0v-1.5m15.375-3.75a.375.375 0 0 1 .375.375m-.75 0a.375.375 0 0 1 .375-.375m0 .75a.375.375 0 0 1-.375-.375m.75 0a.375.375 0 0 1-.375.375m-15.75-.75a.375.375 0 0 0-.375.375m.75 0a.375.375 0 0 0-.375-.375m0 .75a.375.375 0 0 0 .375-.375m-.75 0a.375.375 0 0 0 .375.375"/><path class="a" d="M2.75 13.5h18.5a2 2 0 0 1 2 2v3.75a1 1 0 0 1-1 1H1.75a1 1 0 0 1-1-1V15.5a2 2 0 0 1 2-2z"/><path class="a" d="M22.5 20.219v1.531a1.5 1.5 0 0 1-3 0v-1.5"/></svg>