<svg xmlns="http://www.w3.org/2000/svg" viewBox="0 0 24 24" width="24" height="24"><defs><style>.a{fill:none;stroke:#000;stroke-linecap:round;stroke-linejoin:round;stroke-width:1.5px}</style></defs><title>car-repair-tow-truck-2</title><circle class="a" cx="18.75" cy="20" r="1.5"/><circle class="a" cx="5.25" cy="20" r="1.5"/><path class="a" d="M20.25 20h1.5a1.5 1.5 0 0 0 1.5-1.5v-3.269a1.5 1.5 0 0 0-.279-.872l-3.022-4.231a1.5 1.5 0 0 0-1.221-.628H15.75a1.5 1.5 0 0 0-1.5 1.5v9m9-4.5h-9m0 0H.75v3a1.5 1.5 0 0 0 1.5 1.5h1.5m13.5 0H6.75m3-4.5h-9v-3.75H3V6.5h3.75l3 5.25v3.75zm13.5-9H3v-3h18.75l1.5 3zm0 2.25V6.5"/></svg>