<svg xmlns="http://www.w3.org/2000/svg" viewBox="0 0 24 24" width="24" height="24"><g fill="none" stroke="#000" stroke-linejoin="round" stroke-miterlimit="10"><path stroke-linecap="round" d="M2.5 15.5h3v2h-3zm18-4l-2-2h-15l-2 2v4h7.455m7.545-11h-11l-2 5h15zm-15 9H6"/><path d="M15.5 13.762a5.062 5.062 0 00-1.402.82l-1.096-.631-1.501 2.598 1.091.631c-.049.266-.079.54-.079.82 0 .281.029.555.078.821l-1.092.63 1.5 2.598 1.099-.63c.415.355.928.634 1.402.82V23.5h3v-1.261a4.598 4.598 0 001.441-.82l1.088.63 1.499-2.598-1.092-.63c.049-.267.078-.54.078-.821 0-.28-.03-.555-.079-.82l1.091-.631-1.5-2.598-1.085.631a4.579 4.579 0 00-1.441-.82V12.5h-3v1.262z"/><circle cx="17.014" cy="18" r="2"/></g><path fill="none" d="M0 0h24v24H0z"/></svg>