<svg xmlns="http://www.w3.org/2000/svg" viewBox="0 0 24 24" width="24" height="24"><g fill="none" stroke="#000" stroke-linejoin="round" stroke-miterlimit="10"><path stroke-linecap="round" d="M6.5 9.5h2v2h-2zm9 0h2v2h-2zm3 0v-3l-2-2h-9l-2 2v3zm-3-9h-7l-1 4h9zm-10 7H8m8 0h2.5m-18 16h4m-3-18h2v18h-2zm18 18h4m-3-18h2v18h-2zm-17 6h17"/><circle cx="12" cy="18" r="1.5"/><path d="M15.429 18c0-.279-.036-.55-.098-.81l.995-.574-1-1.732-.96.575A3.6 3.6 0 0013 14.646V13.5h-2v1.147c-.5.158-1.044.439-1.437.812l-1.015-.575-1.008 1.732.991.574c-.062.26-.1.53-.1.81s.034.549.097.81l-.997.574 1 1.732 1.031-.575c.393.372.938.654 1.438.813V22.5h2v-1.146c.5-.158.974-.44 1.367-.812l.977.575.991-1.732-.999-.574c.061-.261.093-.532.093-.811z"/></g><path fill="none" d="M0 0h24v24H0z"/></svg>