<svg xmlns="http://www.w3.org/2000/svg" viewBox="0 0 24 24" width="24" height="24"><g fill="none" stroke="#000" stroke-linecap="round" stroke-linejoin="round" stroke-miterlimit="10"><path d="M18 14c4.5-1.438 4.5-6.5 4.5-6.5s-2.031.906-4.5 0c0 0-.438-3.927 1.438-6.969C16.5 1 11.5 3.5 12 7.084c-2-.013-4-3.709-4-3.709S5 8.016 8 10.5m-5.5 11h3v2h-3zm14 0h3v2h-3zm4 0v-4l-2-2h-15l-2 2v4z"/><path d="M16.5 10.5h-11l-2 5h15zm-15 9H6m10 0h4.5"/><path d="M10 10.5s-1.5-1-1-3c.969 1.292 4.025 3.774 6.5-2 .5 4 1.365 4.627 4.5 4l-2.5 3"/></g><path fill="none" d="M0 0h24v24H0z"/></svg>