<svg xmlns="http://www.w3.org/2000/svg" viewBox="0 0 24 24" width="24" height="24"><defs><style>.a{fill:none;stroke:#000;stroke-linecap:round;stroke-linejoin:round;stroke-width:1.5px}</style></defs><title>car-repair-wash-2</title><path class="a" d="M21.75 20.25a1.5 1.5 0 0 0 1.5-1.5 3.624 3.624 0 0 0-1.061-2.561L20.25 14.25H3.75l-1.939 1.939A3.624 3.624 0 0 0 .75 18.75a1.5 1.5 0 0 0 1.5 1.5zm-20.675-3H5.25m17.675 0H18.75m-15-3l1.7-4.54a2.249 2.249 0 0 1 2.109-1.46h8.882a2.249 2.249 0 0 1 2.106 1.46l1.7 4.54zm-1.5 6v1.5a1.5 1.5 0 0 0 3 0v-1.5zm19.5 0v1.5a1.5 1.5 0 0 1-3 0v-1.5zM12 1.125a.375.375 0 0 1 .375.375m-.75 0A.375.375 0 0 1 12 1.125m0 .75a.375.375 0 0 1-.375-.375m.75 0a.375.375 0 0 1-.375.375m0 2.25a.375.375 0 0 1 .375.375m-.75 0A.375.375 0 0 1 12 4.125m0 .75a.375.375 0 0 1-.375-.375m.75 0a.375.375 0 0 1-.375.375m-7.5-.75a.375.375 0 0 0-.375.375m.75 0a.375.375 0 0 0-.375-.375m0 .75a.375.375 0 0 0 .375-.375m-.75 0a.375.375 0 0 0 .375.375m3.75-2.25A.375.375 0 0 1 8.625 3m-.75 0a.375.375 0 0 1 .375-.375m0 .75A.375.375 0 0 1 7.875 3m.75 0a.375.375 0 0 1-.375.375m11.25.75a.375.375 0 0 1 .375.375m-.75 0a.375.375 0 0 1 .375-.375m0 .75a.375.375 0 0 1-.375-.375m.75 0a.375.375 0 0 1-.375.375m-3.75-2.25a.375.375 0 0 0-.375.375m.75 0a.375.375 0 0 0-.375-.375m0 .75A.375.375 0 0 0 16.125 3m-.75 0a.375.375 0 0 0 .375.375"/></svg>