<svg xmlns="http://www.w3.org/2000/svg" viewBox="0 0 24 24" width="24" height="24"><defs><style>.a{fill:none;stroke:#000;stroke-linecap:round;stroke-linejoin:round;stroke-width:1.5px}</style></defs><title>car-dashboard-fuel</title><path class="a" d="M14.8 13.934a6 6 0 0 1-4.736 2.316H2.5a1.5 1.5 0 0 1-1.5-1.5V9.5A1.5 1.5 0 0 1 2.5 8h6.224a1.5 1.5 0 0 1 .937.329l2.739 2.187a1.5 1.5 0 0 0 1.349.271L18.25 9.5zM7 5v3M4 5h6m8.25 4.5l2.25.75m2.25 8.344a2.156 2.156 0 1 1-4.312 0c0-1.194 1.437-3.594 2.156-3.594s2.156 2.4 2.156 3.594z"/></svg>