<svg xmlns="http://www.w3.org/2000/svg" viewBox="0 0 24 24" width="24" height="24"><g fill="none" stroke="#000" stroke-linecap="round" stroke-linejoin="round" stroke-miterlimit="10"><path d="M2.5 16.5h3v2h-3zm18-4l-2-2h-15l-2 2v4h8.455m6.545-11h-11l-2 5h15zm-15 9H6"/><path d="M18.495 15.258a2.505 2.505 0 01-1.992-.957h-.006c-.471.6-1.188.957-1.992.957-.704 0-1.342-.285-2.005-.748v5.924s.58 2.109 4 3.066c3.42-.957 4-3.066 4-3.066V14.51c-.664.463-1.301.748-2.005.748zM16.5 20.5v-4m-1.985 2H18.5"/></g><path fill="none" d="M0 0h24v24H0z"/></svg>