<svg xmlns="http://www.w3.org/2000/svg" viewBox="0 0 24 24" width="24" height="24"><defs><style>.a{fill:none;stroke:#000;stroke-linecap:round;stroke-linejoin:round;stroke-width:1.5px}</style></defs><title>car-retro-2</title><circle class="a" cx="17.25" cy="17" r="1.5"/><circle class="a" cx="5.25" cy="17" r="1.5"/><path class="a" d="M15.75 17h-9m-3 0h-1.5a1.5 1.5 0 0 1-1.5-1.5V14a3 3 0 0 1 3-3l1.835-3.671A1.5 1.5 0 0 1 6.927 6.5h7.9a1.5 1.5 0 0 1 1.342.829L18 11h2.25a3 3 0 0 1 3 3v1.5a1.5 1.5 0 0 1-1.5 1.5h-3M18 11H3.75"/></svg>