<svg xmlns="http://www.w3.org/2000/svg" viewBox="0 0 24 24" width="24" height="24"><defs><style>.a{fill:none;stroke:#000;stroke-linecap:round;stroke-linejoin:round;stroke-width:1.5px}</style></defs><title>car-tool-pump</title><path class="a" d="M3.25 6.75h4a1 1 0 0 1 1 1v15.5h-6V7.75a1 1 0 0 1 1-1zm-2.5 16.5h9m-4.5-16.5v-6m4.5 0h-9m7.5 19.5a9 9 0 0 0 9-9v-1.5M21.75 3a1.5 1.5 0 0 0-1.5 1.5v6a1.5 1.5 0 0 0 3 0v-6a1.5 1.5 0 0 0-1.5-1.5zm-5 2.25h3.5v4.5h-3.5a1 1 0 0 1-1-1v-2.5a1 1 0 0 1 1-1z"/></svg>