<svg xmlns="http://www.w3.org/2000/svg" viewBox="0 0 24 24" width="24" height="24"><defs><style>.a{fill:none;stroke:#000;stroke-linecap:round;stroke-linejoin:round;stroke-width:1.5px}</style></defs><title>car-sun</title><circle class="a" cx="18.718" cy="21.75" r="1.5"/><circle class="a" cx="5.218" cy="21.75" r="1.5"/><path class="a" d="M20.218 21.75h1.532a1.5 1.5 0 0 0 1.5-1.5 4.527 4.527 0 0 0-4.532-4.5S16.468 9 10.468 9c-4.5 0-9.334 2.682-9.717 11.216a1.47 1.47 0 0 0 1.467 1.534h1.5m13.5 0h-10.5m12-6H1.484m8.266 0V9.025"/><circle class="a" cx="17.25" cy="6" r="2.25"/><path class="a" d="M12.75 6h-1.5m10.5 0h1.5M15 2.049L14.25.75m5.25 9.201l.75 1.299m-.75-9.201L20.25.75"/></svg>