<svg xmlns="http://www.w3.org/2000/svg" viewBox="0 0 24 24" width="24" height="24"><defs><style>.a{fill:none;stroke:#000;stroke-linecap:round;stroke-linejoin:round;stroke-width:1.5px}</style></defs><title>car-tool-steering-wheel-1</title><circle class="a" cx="12" cy="12" r="11.25"/><circle class="a" cx="12" cy="12" r="6.75"/><path class="a" d="M12 11.625a.375.375 0 0 1 .375.375m-.75 0a.375.375 0 0 1 .375-.375m0 .75a.375.375 0 0 1-.375-.375m.75 0a.375.375 0 0 1-.375.375m3.6-6.084a3.751 3.751 0 0 1-7.206 0m6.688 11.715a3.751 3.751 0 0 1 3.666-6.2m-9.83 6.2a3.751 3.751 0 0 0-3.666-6.2"/></svg>