<svg xmlns="http://www.w3.org/2000/svg" viewBox="0 0 24 24" width="24" height="24"><g fill="none" stroke="#000" stroke-linecap="round" stroke-linejoin="round" stroke-miterlimit="10"><circle cx="4.5" cy="18.5" r="2"/><path d="M20.5 18.5h3"/><circle cx="18.5" cy="18.5" r="2"/><path d="M6.5 18.5h10m6 0l-.777-4.673A8.761 8.761 0 0013.088 6.5a9.233 9.233 0 00-8.486 5.596L4 13.5c-3 0-3.5 2.583-3.5 5h2"/><path d="M13.5 8.5c2.424 0 4.545 2 5.5 4h-5.5m-2.34-3.92c-2.067.39-3.818 2.154-4.66 3.92H11m2.5-4v8"/></g><path fill="none" d="M0 0h24v24H0z"/></svg>