<svg xmlns="http://www.w3.org/2000/svg" viewBox="0 0 24 24" width="24" height="24"><defs><style>.a{fill:none;stroke:#000;stroke-linecap:round;stroke-linejoin:round;stroke-width:1.5px}</style></defs><title>car</title><path class="a" d="M21 9.75l-1.7-3.79a2.249 2.249 0 0 0-2.109-1.46H6.809A2.249 2.249 0 0 0 4.7 5.96L3 9.75m-1.5 6.718V18a1.5 1.5 0 0 0 3 0v-1.5m18-.032V18a1.5 1.5 0 0 1-3 0v-1.5m.375-3.75a.375.375 0 0 1 .375.375m-.75 0a.375.375 0 0 1 .375-.375m0 .75a.375.375 0 0 1-.375-.375m.75 0a.375.375 0 0 1-.375.375m-15.75-.75a.375.375 0 0 0-.375.375m.75 0a.375.375 0 0 0-.375-.375m0 .75a.375.375 0 0 0 .375-.375m-.75 0a.375.375 0 0 0 .375.375"/><path class="a" d="M2.75 9.75h18.5a2 2 0 0 1 2 2v3.75a1 1 0 0 1-1 1H1.75a1 1 0 0 1-1-1v-3.75a2 2 0 0 1 2-2z"/></svg>