<svg id="Regular" xmlns="http://www.w3.org/2000/svg" viewBox="0 0 24 24" width="24" height="24"><defs><style>.cls-1{fill:none;stroke:#000;stroke-linecap:round;stroke-linejoin:round;stroke-width:1.5px}</style></defs><title>card-game-cards-spade-diamond</title><path class="cls-1" d="M12.511 1.96A1.493 1.493 0 0 0 10.76.778l-8.8 1.708A1.5 1.5 0 0 0 .778 4.238l2.563 13.2a1.494 1.494 0 0 0 1.751 1.182l.825-.16"/><path class="cls-1" d="M8.357 6.836l-1.631 3.361.753.68M3.487 4.472a.374.374 0 0 1 .439.3m-.736.139a.374.374 0 0 1 .3-.439m.139.736a.375.375 0 0 1-.439-.3m.736-.14a.375.375 0 0 1-.3.44"/><rect class="cls-1" x="9.966" y="5.972" width="11.953" height="16.435" rx="1" ry="1" transform="rotate(11.48 15.957 14.171)"/><path class="cls-1" d="M15.35 17.118l.296-1.464m1.036-5.126s-2.493 1.021-2.789 2.485a2.241 2.241 0 1 0 4.394.888c.296-1.465-1.605-3.373-1.605-3.373zm-2.851-2.864a.375.375 0 0 1 .293.442m-.735-.149a.375.375 0 0 1 .442-.293m-.149.736a.375.375 0 0 1-.293-.442m.735.148a.375.375 0 0 1-.442.293m4.518 11.58a.375.375 0 0 1 .293.442m-.733-.149a.375.375 0 0 1 .442-.293m-.149.735a.376.376 0 0 1-.293-.442m.74.149a.375.375 0 0 1-.442.293"/></svg>