<svg xmlns="http://www.w3.org/2000/svg" viewBox="0 0 24 24" width="24" height="24"><g fill="none" stroke="#000" stroke-linecap="round" stroke-linejoin="round" stroke-miterlimit="10"><path d="M20.5 21.5c0 1.101-.9 2-2 2h-14c-1.1 0-2-.899-2-2v-19c0-1.1.9-2 2-2h14c1.1 0 2 .9 2 2v19z"/><path d="M18 19.521c0 .828-.672.979-1.5.979s-1.5-.15-1.5-.979 1.5-2.021 1.5-2.021 1.5 1.192 1.5 2.021zm-1.5.979V22M8 4.521c0 .829-.672.979-1.5.979S5 5.35 5 4.521 6.5 2.5 6.5 2.5 8 3.692 8 4.521zM6.5 5.5V7m8 6c0 1.656-1.343 2-3 2s-3-.344-3-2 3-5 3-5 3 3.344 3 5zm-3 4.5V15"/></g><path fill="none" d="M0 0h24v24H0z"/></svg>