<svg id="Regular" xmlns="http://www.w3.org/2000/svg" viewBox="0 0 24 24" width="24" height="24"><defs><style>.cls-1{fill:none;stroke:#000;stroke-linecap:round;stroke-linejoin:round;stroke-width:1.5px}</style></defs><title>card-game-card-spade</title><rect class="cls-1" x="3" y=".75" width="18" height="22.5" rx="1" ry="1"/><path class="cls-1" d="M15 12c0 1.864-1.343 2.25-3 2.25S9 13.864 9 12s3-4.5 3-4.5 3 2.636 3 4.5zm-3 2.25v2.25M6 3.375a.375.375 0 0 1 .375.375m-.75 0A.375.375 0 0 1 6 3.375m0 .75a.375.375 0 0 1-.375-.375m.75 0A.375.375 0 0 1 6 4.125m12 15.75a.375.375 0 0 1 .375.375m-.75 0a.375.375 0 0 1 .375-.375m0 .75a.375.375 0 0 1-.375-.375m.75 0a.375.375 0 0 1-.375.375"/></svg>