<svg xmlns="http://www.w3.org/2000/svg" viewBox="0 0 24 24" width="24" height="24"><g fill="none" stroke="#000" stroke-linejoin="round" stroke-miterlimit="10"><path d="M3.5 19.5h8v4h-8z"/><path stroke-linecap="round" d="M4.972 19.5C.469 10.312 0 14.188 5.5 2.417M10.188 14.5H14.5a1 1 0 001-1v-12a1 1 0 00-1-1h-8c-.552 0-1 .449-1 1v12c0 .392.211.915.632.665l1.962-4.884c.572-1.487 2.86-.456 2.288 1.031a12.77 12.77 0 00-.694 2.801c.287.646.812 2.035.812 4.387v2"/><path stroke-linecap="round" d="M10.454 15.733l6.319 1.502a.998.998 0 001.203-.741l2.775-11.675a.998.998 0 00-.742-1.204L15.572 2.56"/></g><path fill="none" d="M0 0h24v24H0z"/></svg>