<svg id="Regular" xmlns="http://www.w3.org/2000/svg" viewBox="0 0 24 24" width="24" height="24"><defs><style>.cls-1{fill:none;stroke:#000;stroke-linecap:round;stroke-linejoin:round;stroke-width:1.5px}</style></defs><title>card-game-cards-hold</title><path class="cls-1" d="M7 12.75V2.25A1.5 1.5 0 0 1 8.5.75h6a1.5 1.5 0 0 1 1.5 1.5v10.5a1.5 1.5 0 0 1-1.5 1.5h-3.881"/><path class="cls-1" d="M16.037 2.76l4.105 1.114a1.5 1.5 0 0 1 1.058 1.84l-2.752 10.134a1.5 1.5 0 0 1-1.841 1.052l-5.391-1.46M13 23.25v-3H4v3"/><path class="cls-1" d="M7 12.75l1.725-2.874a1.272 1.272 0 0 1 1.494-.553A1.273 1.273 0 0 1 11 11l-1 2.5a5.122 5.122 0 0 1 1.5 3.621v3.129h-6l-2.612-6.162a4.491 4.491 0 0 1-.288-2.77L4.279 4.45A2.783 2.783 0 0 1 7 2.25"/></svg>