<svg xmlns="http://www.w3.org/2000/svg" viewBox="0 0 24 24" width="24" height="24"><path fill="none" stroke="#000" stroke-linejoin="round" stroke-miterlimit="10" d="M11.5 16.302s3.5-2.521 3.5-5.084c0-2.763-2.917-3.009-3.5-.395-.771-2.573-3.5-2.367-3.5.395s3.5 5.084 3.5 5.084z"/><path fill="none" stroke="#000" stroke-linecap="round" stroke-linejoin="round" stroke-miterlimit="10" d="M20.5 21.5c0 1.101-.9 2-2 2h-14c-1.1 0-2-.899-2-2v-19c0-1.1.9-2 2-2h14c1.1 0 2 .9 2 2v19z"/><path fill="none" stroke="#000" stroke-linecap="round" stroke-linejoin="round" stroke-miterlimit="10" d="M5 3.48c0-.829.672-.98 1.5-.98s1.5.151 1.5.98C8 4.308 6.5 5.5 6.5 5.5S5 4.308 5 3.48zm10 16c0-.829.672-.98 1.5-.98s1.5.151 1.5.98c0 .827-1.5 2.02-1.5 2.02S15 20.308 15 19.48z"/><path fill="none" d="M0 0h24v24H0z"/></svg>