<svg id="Regular" xmlns="http://www.w3.org/2000/svg" viewBox="0 0 24 24" width="24" height="24"><defs><style>.cls-1{fill:none;stroke:#000;stroke-linecap:round;stroke-linejoin:round;stroke-width:1.5px}</style></defs><title>card-game-cards</title><path class="cls-1" d="M6.712 6.023L1.926 7.055A1.493 1.493 0 0 0 .784 8.829l2.842 13.119A1.493 1.493 0 0 0 5.4 23.09l6.977-1.512M3.493 9a.374.374 0 0 1 .445.287m-.732.162A.374.374 0 0 1 3.493 9m.158.736a.374.374 0 0 1-.445-.287m.732-.159a.375.375 0 0 1-.287.446"/><rect class="cls-1" x="9.363" y="5.675" width="11.932" height="16.407" rx="1" ry="1" transform="rotate(17.68 15.33 13.879)"/><path class="cls-1" d="M16.235 11.036l-3.037 2.163 1.225 3.522 3.038-2.163-1.226-3.522zm-2.291-3.863a.376.376 0 0 1 .244.471m-.715-.228a.375.375 0 0 1 .471-.243m-.227.714a.374.374 0 0 1-.244-.471m.715.228a.375.375 0 0 1-.471.243m3.225 11.982a.375.375 0 0 1 .243.471m-.714-.227a.376.376 0 0 1 .471-.244m-.228.715a.375.375 0 0 1-.243-.471m.714.227a.375.375 0 0 1-.471.244"/><path class="cls-1" d="M18.648 6.326V2.243a1.552 1.552 0 0 0-1.5-1.492H8.3a1.569 1.569 0 0 0-1.588 1.482v13.424a1.492 1.492 0 0 0 1.313 1.49M9.4 2.994a.374.374 0 0 1 .372.377m-.746-.005a.375.375 0 0 1 .374-.372m0 .75a.377.377 0 0 1-.373-.378m.749.005a.375.375 0 0 1-.377.373"/></svg>