<svg xmlns="http://www.w3.org/2000/svg" viewBox="0 0 24 24" width="24" height="24"><path fill="none" stroke="#000" stroke-linejoin="round" stroke-miterlimit="10" d="M14.4 15.243l-.7-3.537L16.696 9.7l.701 3.537z"/><path fill="none" stroke="#000" stroke-linejoin="round" stroke-miterlimit="10" d="M13.335 3.438l10.163 4.208-5.74 13.86-10.162-4.209z"/><path d="M16.867 18.43l-.652.272.268.652.656-.27-.272-.654zM14.61 5.589l-.652.271.271.654.652-.273-.271-.652zM2.921 8.058l-.27.655.653.269.271-.652-.654-.272z"/><path d="M2.921 8.058l-.27.655.653.269.271-.652-.654-.272z"/><path fill="none" stroke="#000" stroke-linejoin="round" stroke-miterlimit="10" d="M8 17.438H6.5V2.5h11v2.438"/><path fill="none" stroke="#000" stroke-linejoin="round" stroke-miterlimit="10" d="M11.747 19.016L6.24 21.297.5 7.438 6.505 4.95"/><path d="M9 3.971H8v1h1v-1z"/><path fill="none" d="M0 0h24v24H0z"/></svg>