<svg id="Regular" xmlns="http://www.w3.org/2000/svg" viewBox="0 0 24 24" width="24" height="24"><defs><style>.cls-1{fill:none;stroke:#000;stroke-linecap:round;stroke-linejoin:round;stroke-width:1.5px}</style></defs><title>card-game-card-club</title><rect class="cls-1" x="3.75" y=".75" width="16.5" height="22.5" rx="1" ry="1"/><path class="cls-1" d="M14.25 14.25a2.25 2.25 0 0 0 0-4.5c-.049 0-.094.011-.142.014A2.224 2.224 0 0 0 14.25 9a2.25 2.25 0 0 0-4.5 0 2.224 2.224 0 0 0 .142.764c-.048 0-.093-.014-.142-.014a2.25 2.25 0 0 0 0 4.5zm-2.25 0v2.25"/></svg>