<svg id="Regular" xmlns="http://www.w3.org/2000/svg" viewBox="0 0 24 24" width="24" height="24"><defs><style>.cls-1{fill:none;stroke:#000;stroke-linecap:round;stroke-linejoin:round;stroke-width:1.5px}</style></defs><title>card-game-heart</title><path class="cls-1" d="M15.93 9.1a1.9 1.9 0 0 0-2.751 0L12 10.314 10.821 9.1a1.9 1.9 0 0 0-2.751 0 2.06 2.06 0 0 0 0 2.845l3.511 3.631a.579.579 0 0 0 .838 0l3.511-3.636a2.06 2.06 0 0 0 0-2.84z"/><rect class="cls-1" x="3" y=".75" width="18" height="22.5" rx="1" ry="1"/><path class="cls-1" d="M6 3.375a.375.375 0 0 1 .375.375m-.75 0A.375.375 0 0 1 6 3.375m0 .75a.375.375 0 0 1-.375-.375m.75 0A.375.375 0 0 1 6 4.125m12 15.75a.375.375 0 0 1 .375.375m-.75 0a.375.375 0 0 1 .375-.375m0 .75a.375.375 0 0 1-.375-.375m.75 0a.375.375 0 0 1-.375.375"/></svg>