<svg xmlns="http://www.w3.org/2000/svg" viewBox="0 0 24 24" width="24" height="24"><path fill="none" stroke="#000" stroke-linecap="round" stroke-linejoin="round" stroke-miterlimit="10" d="M14.776 17.406l-.869-3.499 2.896-2.147.869 3.499z"/><path fill="none" stroke="#000" stroke-linecap="round" stroke-linejoin="round" stroke-miterlimit="10" d="M13.148 5.666l10.353 3.717L18.433 23.5 8.08 19.783z"/><path d="M14.522 7.752l-.639.303.302.638.639-.3-.302-.641zm2.874 12.719l-.642.302.303.639.639-.302-.3-.639zM2.898 5.381a.503.503 0 00-.488.613.5.5 0 10.488-.613z"/><path fill="none" stroke="#000" stroke-linecap="round" stroke-linejoin="round" stroke-miterlimit="10" d="M9.492 10.006c.225.975-.637 1.688-1.611 1.912-.976.225-2.062-.039-2.287-1.014-.224-.972 1.387-2.885 1.387-2.885s2.287 1.012 2.511 1.987zm-1.611 1.912l.224.975"/><path fill="none" stroke="#000" stroke-linecap="round" stroke-linejoin="round" stroke-miterlimit="10" d="M8.766 17.869l-4.898 1.129L.5 4.381l10.719-2.469L12.5 7.469"/><path fill="none" d="M0 0h24v24H0z"/></svg>