<svg xmlns="http://www.w3.org/2000/svg" viewBox="0 0 24 24" width="24" height="24"><defs><style>.a{fill:none;stroke:#000;stroke-linecap:round;stroke-linejoin:round;stroke-width:1.5px}</style></defs><title>cash-payment-sign-1</title><path class="a" d="M6.242 11.266l-1.061 4.242 4.243-1.06 6.364-6.364-3.182-3.182-6.364 6.364zM19.5 4.371l1.061 1.061a1.5 1.5 0 0 1 0 2.121l-3.311 3.311m-1.462-2.78L19.5 4.371a1.5 1.5 0 0 0 0-2.121l-1.061-1.061a1.5 1.5 0 0 0-2.121 0L12.606 4.9"/><path class="a" d="M3.75 9.75h-1.5a1.5 1.5 0 0 0-1.5 1.5v10.5a1.5 1.5 0 0 0 1.5 1.5h19.5a1.5 1.5 0 0 0 1.5-1.5v-10.5a1.5 1.5 0 0 0-1.5-1.5m-1.5 9.75H10.5m9.75-3.75H13.5"/></svg>