<svg xmlns="http://www.w3.org/2000/svg" viewBox="0 0 24 24" width="24" height="24"><defs><style>.a{fill:none;stroke:#000;stroke-linecap:round;stroke-linejoin:round;stroke-width:1.5px}</style></defs><title>cash-payment-bill-2</title><path class="a" d="M5.25 9.946l-4.5 2.25M.75 21a21.748 21.748 0 0 0 9.83-6.71l.234-.28c.7-.841-.3-2.032-1.383-1.532L3.685 15.13m12.845-.88l-3.3 4.091a1.029 1.029 0 0 1-1.389.209l-.12-.082a1.089 1.089 0 0 1-.413-1.234l.271-.834m6.692-2.15l-.86 4.409a1.048 1.048 0 0 1-.552.735 1 1 0 0 1-.905 0l-.281-.145a1.048 1.048 0 0 1-.564-.935v-2.3M18.75 3h3a1.5 1.5 0 0 1 1.5 1.5v8.25a1.5 1.5 0 0 1-1.5 1.5H13.5m-8.25-3V4.5A1.5 1.5 0 0 1 6.75 3h3.75"/><path class="a" d="M12.579 9.344a2.224 2.224 0 0 0 1.858.875c1.139 0 2.063-.693 2.063-1.547s-.924-1.546-2.063-1.546-2.062-.693-2.062-1.548.924-1.547 2.062-1.547a2.221 2.221 0 0 1 1.858.875m-1.858 5.313v1.031m0-8.25v1.031"/></svg>