<svg xmlns="http://www.w3.org/2000/svg" viewBox="0 0 24 24" width="24" height="24"><defs><style>.a{fill:none;stroke:#000;stroke-linecap:round;stroke-linejoin:round;stroke-width:1.5px}</style></defs><title>cash-payment-bill</title><path class="a" d="M.75 14.25v9m0-1.5h16.5a3 3 0 0 0-3-3H10.5a3 3 0 0 0-3-3H.75m6 3h3.75M7.875 3a.375.375 0 1 1-.375.375A.375.375 0 0 1 7.875 3m12.75 6a.375.375 0 1 1-.375.375.375.375 0 0 1 .375-.375"/><path class="a" d="M6.635.75h15.23a1.4 1.4 0 0 1 1.385 1.406v8.438A1.4 1.4 0 0 1 21.865 12H6.635a1.4 1.4 0 0 1-1.385-1.406V2.156A1.4 1.4 0 0 1 6.635.75z"/><circle class="a" cx="14.25" cy="6" r="2.25"/></svg>