<svg xmlns="http://www.w3.org/2000/svg" viewBox="0 0 24 24" width="24" height="24"><defs><style>.a{fill:none;stroke:#000;stroke-linecap:round;stroke-linejoin:round;stroke-width:1.5px}</style></defs><title>cash-toggle</title><path class="a" d="M10.546 2.437a1.957 1.957 0 0 0 2.908 0l.94-1.041a1.959 1.959 0 0 1 3.411 1.413l-.072 1.4a1.96 1.96 0 0 0 2.057 2.057l1.4-.071a1.959 1.959 0 0 1 1.41 3.41l-1.042.941a1.959 1.959 0 0 0 0 2.908l1.042.94a1.959 1.959 0 0 1-1.413 3.411l-1.4-.072a1.96 1.96 0 0 0-2.057 2.056l.072 1.4a1.959 1.959 0 0 1-3.408 1.411l-.94-1.041a1.959 1.959 0 0 0-2.908 0l-.94 1.041A1.959 1.959 0 0 1 6.2 21.191l.072-1.4a1.958 1.958 0 0 0-2.062-2.058l-1.4.072a1.959 1.959 0 0 1-1.41-3.411l1.042-.94a1.959 1.959 0 0 0 0-2.908L1.4 9.605A1.959 1.959 0 0 1 2.809 6.2l1.4.071A1.958 1.958 0 0 0 6.267 4.21L6.2 2.809A1.959 1.959 0 0 1 9.606 1.4z"/><path class="a" d="M13.875 9H11.25a1.341 1.341 0 0 0-.5 2.587l2.655.825a1.342 1.342 0 0 1-.5 2.588H9.75M12 9V7.5m0 9V15"/></svg>