<svg xmlns="http://www.w3.org/2000/svg" viewBox="0 0 24 24" width="24" height="24"><defs><style>.a{fill:none;stroke:#000;stroke-linecap:round;stroke-linejoin:round;stroke-width:1.5px}</style></defs><title>cash-payment-person</title><rect class="a" x="10.347" y="13.5" width="7.5" height="12" rx="1" ry="1" transform="rotate(-90 14.097 19.5)"/><path class="a" d="M10.877 15.75l.667-2.75a1.5 1.5 0 0 1 1.811-1.106l8.745 2.112a1.5 1.5 0 0 1 1.105 1.811l-1.056 4.373a1.5 1.5 0 0 1-2.049 1.026m-5.85-2.091a.375.375 0 1 1-.375.375.375.375 0 0 1 .375-.375M.75 17.25a6.755 6.755 0 0 1 8.844-6.419m-5.649-8.05a6.848 6.848 0 0 0 4.93 2.094 6.847 6.847 0 0 0 2.712-.558"/><circle class="a" cx="7.5" cy="4.875" r="4.125"/></svg>