<svg xmlns="http://www.w3.org/2000/svg" viewBox="0 0 24 24" width="24" height="24"><defs><style>.a{fill:none;stroke:#000;stroke-linecap:round;stroke-linejoin:round;stroke-width:1.5px}</style></defs><title>cash-pin-map</title><path class="a" d="M4.25 14.25a1.5 1.5 0 0 0-1.423 1.025l-2 6A1.5 1.5 0 0 0 2.25 23.25h19.5a1.5 1.5 0 0 0 1.423-1.975l-2-6a1.5 1.5 0 0 0-1.423-1.025"/><path class="a" d="M18.75 7.5c0 3.25-5.132 10.527-6.446 12.336a.375.375 0 0 1-.607 0C10.383 18.027 5.25 10.75 5.25 7.5a6.75 6.75 0 0 1 13.5 0z"/><path class="a" d="M13.875 5.25H11.25a1.341 1.341 0 0 0-.5 2.587l2.655.825a1.342 1.342 0 0 1-.5 2.588H9.75m2.25-6v-1.5m0 9v-1.5"/></svg>