<svg xmlns="http://www.w3.org/2000/svg" viewBox="0 0 24 24" width="24" height="24"><defs><style>.a{fill:none;stroke:#000;stroke-linecap:round;stroke-linejoin:round;stroke-width:1.5px}</style></defs><title>cash-user-man-message</title><path class="a" d="M12.75 15.75h1.5v4.5l4.5-4.5h3a1.5 1.5 0 0 0 1.5-1.5v-12a1.5 1.5 0 0 0-1.5-1.5h-12a1.5 1.5 0 0 0-1.5 1.5"/><path class="a" d="M17.625 5.091H15a1.342 1.342 0 0 0-.5 2.588l2.655.825a1.342 1.342 0 0 1-.5 2.587H13.5m2.25-6v-1.5m0 9v-1.5"/><circle class="a" cx="5.25" cy="7.5" r="3"/><path class="a" d="M5.25 12v6m2.625 5.25l.375-3.75h1.5v-3a4.5 4.5 0 0 0-9 0v3h1.5l.375 3.75"/></svg>