<svg xmlns="http://www.w3.org/2000/svg" viewBox="0 0 24 24" width="24" height="24"><defs><style>.a,.b{fill:none;stroke:#000;stroke-linecap:round;stroke-linejoin:round;stroke-width:1.5px}.b{stroke-dasharray:2 2}</style></defs><title>cash-map-directions</title><path class="a" d="M14.25 7.5c0 3.25-5.132 10.527-6.446 12.336a.375.375 0 0 1-.607 0C5.883 18.027.75 10.75.75 7.5a6.75 6.75 0 0 1 13.5 0z"/><path class="a" d="M9.321 5.25H6.7a1.342 1.342 0 0 0-.5 2.587l2.655.825a1.342 1.342 0 0 1-.5 2.588H5.2m2.246-6v-1.5m0 9v-1.5m2.304 12h1.5m3 0h1.15a1.111 1.111 0 0 0 1.1-1.125V21"/><path class="b" d="M16.5 18v-1.5"/><path class="a" d="M16.5 13.5v-1.125a1.111 1.111 0 0 1 1.1-1.125h1.15m3 0h1.5"/></svg>