<svg xmlns="http://www.w3.org/2000/svg" viewBox="0 0 24 24" width="24" height="24"><defs><style>.a{fill:none;stroke:#000;stroke-linecap:round;stroke-linejoin:round;stroke-width:1.5px}</style></defs><title>cash-payment-bill-4</title><path class="a" d="M22.125 23.25l-3-4.5V13.5c0-2-3.8-4.139-5.25-5.25m1.93 6.544l-3.648-2.924a1.3 1.3 0 0 0-1.843 1.843l3.534 3.987v2.5c0 1.181 1.687 3.045 1.687 3.045"/><path class="a" d="M13.865 20.424a1.5 1.5 0 0 1-1.49 1.326h-9a1.5 1.5 0 0 1-1.5-1.5v-18a1.5 1.5 0 0 1 1.5-1.5h9a1.5 1.5 0 0 1 1.5 1.5v11m-6 1a3 3 0 1 1 2.24-5"/><path class="a" d="M4.5 3a.375.375 0 1 1-.375.375A.375.375 0 0 1 4.5 3m6.75 15.75a.375.375 0 1 1-.375.375.375.375 0 0 1 .375-.375"/></svg>