<svg xmlns="http://www.w3.org/2000/svg" viewBox="0 0 24 24" width="24" height="24"><defs><style>.a{fill:none;stroke:#000;stroke-linecap:round;stroke-linejoin:round;stroke-width:1.5px}</style></defs><title>cash-payment-bill-1</title><path class="a" d="M3.818 16.125l2.331-1.043a2.044 2.044 0 0 0 .883-1.365l.368-2.194 3.151-2.251a1.022 1.022 0 0 0 .428-.832v-.58a1.022 1.022 0 0 0-1.368-.96L5.41 8.4a9.5 9.5 0 0 0-2.89 1.65L.75 11.523m0 10.227l2.3-1.683a2.871 2.871 0 0 1 1.7-.567h6.5m0 0h3.592a1.021 1.021 0 0 0 .971-.676l1.836-5.324m-4.32-4.156a2.224 2.224 0 0 0 1.858.875c1.139 0 2.063-.693 2.063-1.547s-.924-1.546-2.063-1.546-2.062-.693-2.062-1.548.924-1.547 2.062-1.547a2.221 2.221 0 0 1 1.858.875m-1.858 5.313v1.031m0-8.25v1.031"/><path class="a" d="M13.5 16.5h-2.25a1.5 1.5 0 0 0-1.5 1.5 1.5 1.5 0 0 0 1.5 1.5m6.75-6h-4.5A1.5 1.5 0 0 0 12 15a1.5 1.5 0 0 0 1.5 1.5h3.114M18.75 2.25h3a1.5 1.5 0 0 1 1.5 1.5V12a1.5 1.5 0 0 1-1.5 1.5H10.5M5.25 5.25v-1.5a1.5 1.5 0 0 1 1.5-1.5H12"/></svg>