<svg xmlns="http://www.w3.org/2000/svg" viewBox="0 0 24 24" width="24" height="24"><defs><style>.a{fill:none;stroke:#000;stroke-linecap:round;stroke-linejoin:round;stroke-width:1.5px}</style></defs><title>cash-pin</title><path class="a" d="M12 .75a7.5 7.5 0 0 1 7.5 7.5c0 3.407-5.074 11.357-6.875 14.072a.751.751 0 0 1-1.25 0C9.574 19.606 4.5 11.657 4.5 8.25A7.5 7.5 0 0 1 12 .75z"/><path class="a" d="M13.875 5.407H11.25A1.342 1.342 0 0 0 10.752 8l2.655.825a1.342 1.342 0 0 1-.5 2.587H9.75M12 5.407v-1.5m0 9v-1.5"/></svg>