<svg xmlns="http://www.w3.org/2000/svg" viewBox="0 0 24 24" width="24" height="24"><defs><style>.a{fill:none;stroke:#000;stroke-linecap:round;stroke-linejoin:round;stroke-width:1.5px}</style></defs><title>cash-toggles</title><path class="a" d="M7.281 9.363a1.3 1.3 0 0 0 1.938 0l.627-.694a1.306 1.306 0 0 1 2.274.941l-.048.935a1.307 1.307 0 0 0 1.371 1.371l.934-.048a1.306 1.306 0 0 1 .942 2.274l-.694.626a1.306 1.306 0 0 0 0 1.939l.694.627a1.306 1.306 0 0 1-.942 2.274l-.934-.048a1.307 1.307 0 0 0-1.371 1.371l.048.934a1.306 1.306 0 0 1-2.274.942l-.627-.694a1.3 1.3 0 0 0-1.938 0l-.627.694a1.306 1.306 0 0 1-2.274-.942l.048-.934a1.307 1.307 0 0 0-1.371-1.371l-.934.048a1.306 1.306 0 0 1-.942-2.274l.694-.627a1.306 1.306 0 0 0 0-1.939l-.694-.626a1.306 1.306 0 0 1 .942-2.274l.934.048a1.307 1.307 0 0 0 1.371-1.371L4.38 9.61a1.306 1.306 0 0 1 2.274-.941zm11.357-4.376a.375.375 0 1 0 .375.375.374.374 0 0 0-.375-.375"/><path class="a" d="M21.194 1.835a.75.75 0 0 1 .97.971l-.5 1.286a.752.752 0 0 0 .229.856l1.076.865a.75.75 0 0 1-.355 1.325l-1.364.211a.75.75 0 0 0-.626.627l-.211 1.363a.75.75 0 0 1-1.326.355l-.864-1.075a.751.751 0 0 0-.856-.229l-1.287.5a.75.75 0 0 1-.97-.971l.5-1.286a.752.752 0 0 0-.229-.856l-1.076-.864a.751.751 0 0 1 .355-1.326l1.364-.211a.748.748 0 0 0 .626-.626l.211-1.364a.75.75 0 0 1 1.326-.355l.865 1.075a.749.749 0 0 0 .855.23zM9.443 13.56h-1.75a.955.955 0 0 0-.893 1.006 1.01 1.01 0 0 0 .562.934l1.77.619a1.014 1.014 0 0 1 .562.935.955.955 0 0 1-.894 1.006H6.693m1.5-4.5v-1m0 6.5v-1"/></svg>