<svg xmlns="http://www.w3.org/2000/svg" viewBox="0 0 24 24" width="24" height="24"><defs><style>.a{fill:none;stroke:#000;stroke-linecap:round;stroke-linejoin:round;stroke-width:1.5px}</style></defs><title>cash-bulb</title><path class="a" d="M9 21.75h6m-3 0v1.5M20.25 9A8.25 8.25 0 1 0 9 16.687v2.063h6v-2.063A8.252 8.252 0 0 0 20.25 9z"/><path class="a" d="M10.142 10.844a2.221 2.221 0 0 0 1.858.875c1.139 0 2.062-.693 2.062-1.547S13.139 8.625 12 8.625s-2.063-.693-2.063-1.548S10.861 5.53 12 5.53a2.224 2.224 0 0 1 1.858.875M12 11.719v1.031m0-8.25v1.03"/></svg>