<svg id="Regular" xmlns="http://www.w3.org/2000/svg" viewBox="0 0 24 24" width="24" height="24"><defs><style>.cls-1{fill:none;stroke:#000;stroke-linecap:round;stroke-linejoin:round;stroke-width:1.5px}</style></defs><title>casino-diamond-bag_1</title><path class="cls-1" d="M16.5 23.25l6.53-7.065a.751.751 0 0 0 .094-.947l-2.651-3.654a.75.75 0 0 0-.624-.334h-6.7a.75.75 0 0 0-.624.334l-2.649 3.654a.751.751 0 0 0 .094.947l6.53 7.065m-6.744-7.5h13.488m-6.744-4.5v12"/><path class="cls-1" d="M10.5 21.75H6.682A5.932 5.932 0 0 1 1.98 12.2c3.388-3.928 4.77-5.45 4.77-5.45h6s.308.453 1.137 1.5"/><path class="cls-1" d="M12.75 6.75l1.821-4.59a.75.75 0 0 0-1.006-1.006l-1.9.948a.75.75 0 0 1-.959-.255l-.601-.908a.427.427 0 0 0-.71 0l-.605.907a.75.75 0 0 1-.959.255l-1.9-.948A.75.75 0 0 0 4.929 2.16L6.75 6.75"/></svg>