<svg id="Regular" xmlns="http://www.w3.org/2000/svg" viewBox="0 0 24 24" width="24" height="24"><defs><style>.cls-1{fill:none;stroke:#000;stroke-linecap:round;stroke-linejoin:round;stroke-width:1.5px}</style></defs><title>casino-lucky-horseshoe</title><path class="cls-1" d="M12.546 23.25h-1.092A10.7 10.7 0 0 1 2.161 7.235L3.75 4.453V2.25a1.5 1.5 0 0 1 1.5-1.5h3a1.5 1.5 0 0 1 1.5 1.5v3a2.988 2.988 0 0 1-.4 1.488l-1.98 3.473a4.7 4.7 0 0 0 4.084 7.039h1.092a4.7 4.7 0 0 0 4.084-7.039l-1.984-3.473a2.988 2.988 0 0 1-.4-1.488v-3a1.5 1.5 0 0 1 1.5-1.5h3a1.5 1.5 0 0 1 1.5 1.5v2.2l1.589 2.782a10.7 10.7 0 0 1-9.289 16.018zM12 19.875a.375.375 0 0 1 .375.375m-.75 0a.375.375 0 0 1 .375-.375m0 .75a.375.375 0 0 1-.375-.375m.75 0a.375.375 0 0 1-.375.375m5.813-3.312a.375.375 0 0 1 .529-.024m-.506.554a.376.376 0 0 1-.023-.53m.553.506a.375.375 0 0 1-.53.024m.506-.554a.375.375 0 0 1 .024.53m1.477-6.525a.376.376 0 0 1 .34-.407m.067.747a.375.375 0 0 1-.407-.34m.747-.067a.374.374 0 0 1-.34.407m-.067-.747a.375.375 0 0 1 .407.34M6.187 17.313a.375.375 0 0 0-.529-.024m.506.554a.376.376 0 0 0 .023-.53m-.553.506a.375.375 0 0 0 .53.024m-.506-.554a.375.375 0 0 0-.024.53m-1.477-6.525a.376.376 0 0 0-.34-.407m-.067.747a.375.375 0 0 0 .407-.34m-.747-.067a.374.374 0 0 0 .34.407m.067-.747a.375.375 0 0 0-.407.34M20.25 4.5H18m-12 0H3.75"/></svg>