<svg id="Regular" xmlns="http://www.w3.org/2000/svg" viewBox="0 0 24 24" width="24" height="24"><defs><style>.cls-1{fill:none;stroke:#000;stroke-linecap:round;stroke-linejoin:round;stroke-width:1.5px}</style></defs><title>casino-global-chip</title><path class="cls-1" d="M9.75 23.025A11.251 11.251 0 1 1 23.225 11.25M9.289 22.921C7.767 20.689 6.75 16.633 6.75 12S7.767 3.311 9.289 1.079M.75 11.25H9M2.482 6h19.036M1.686 16.5H7.5m7.211-15.421a17.011 17.011 0 0 1 2.308 7.171"/><circle class="cls-1" cx="16.5" cy="17.25" r="6"/><circle class="cls-1" cx="16.5" cy="17.25" r="2.25"/><path class="cls-1" d="M16.5 15v-3.75m1.949 4.875l3.247-1.875m-7.145 1.875l-3.247-1.875M16.5 19.5v3.75m1.949-4.875l3.247 1.875m-7.145-1.875l-3.247 1.875"/></svg>