<svg id="Regular" xmlns="http://www.w3.org/2000/svg" viewBox="0 0 24 24" width="24" height="24"><defs><style>.cls-1{fill:none;stroke:#000;stroke-linecap:round;stroke-linejoin:round;stroke-width:1.5px}</style></defs><title>casino-gold-bars</title><circle class="cls-1" cx="17.25" cy="17.25" r="6"/><circle class="cls-1" cx="17.25" cy="17.25" r="2.25"/><path class="cls-1" d="M17.25 15v-3.75m1.949 4.875l3.247-1.875m-7.145 1.875l-3.247-1.875m5.196 5.25v3.75m1.949-4.875l3.247 1.875m-7.145-1.875l-3.247 1.875m2.908-15.237A.751.751 0 0 1 14.25 6h-7.5a.751.751 0 0 1-.712-.987l1.291-3.75A.751.751 0 0 1 8.041.75h4.918a.751.751 0 0 1 .712.513zm-5.25 5.25A.751.751 0 0 1 9 11.25H1.5a.751.751 0 0 1-.712-.987l1.291-3.75A.751.751 0 0 1 2.791 6h4.918a.751.751 0 0 1 .712.513zM11.723 9l.856-2.487A.751.751 0 0 1 13.291 6h4.918a.751.751 0 0 1 .712.513L19.777 9"/></svg>