<svg id="Regular" xmlns="http://www.w3.org/2000/svg" viewBox="0 0 24 24" width="24" height="24"><defs><style>.cls-1{fill:none;stroke:#000;stroke-linecap:round;stroke-linejoin:round;stroke-width:1.5px}</style></defs><title>casino-pull-machine-slot</title><path class="cls-1" d="M10.515 6.007l.324-.664a1.5 1.5 0 0 1 1.349-.843h3.1c2.946-.077 2.445 5.174-.351 5.066l-3.162-.632a.652.652 0 0 0-.488.1 1.958 1.958 0 0 0-.771 2.247l.017.05 5.723 2.2a1.956 1.956 0 0 0 1.286.041l5.708-1.784M6.928 4.969l1.248-2.541A3 3 0 0 1 10.869.75h8.381a3 3 0 0 1 1.8.6L23.25 3M8.842 13.184a3 3 0 1 1-.073-5.4"/><path class="cls-1" d="M7.5 13.5v3.75a3 3 0 0 1-3 3m-3.75-3H3a1.5 1.5 0 0 1 1.5 1.5v3a1.5 1.5 0 0 1-1.5 1.5H.75m0 0V9"/></svg>