<svg id="Regular" xmlns="http://www.w3.org/2000/svg" viewBox="0 0 24 24" width="24" height="24"><defs><style>.cls-1{fill:none;stroke:#000;stroke-linecap:round;stroke-linejoin:round;stroke-width:1.5px}</style></defs><title>casino-add-chips</title><circle class="cls-1" cx="12" cy="12" r="11.25"/><circle class="cls-1" cx="12" cy="12" r="7.5"/><circle class="cls-1" cx="12" cy="12" r="3.75"/><path class="cls-1" d="M12 .75V4.5m7.955-.455l-2.652 2.652M23.25 12H19.5m.455 7.955l-2.652-2.652M12 23.25V19.5m-7.955.455l2.652-2.652M.75 12H4.5m-.455-7.955l2.652 2.652m8.149-1.636l-1.423 3.47m5.496.575l-3.459 1.447m3.479 4.293l-3.47-1.423m-.575 5.496l-1.447-3.459m-4.293 3.479l1.423-3.47m-5.496-.575l3.459-1.447M5.061 9.154l3.47 1.423m.575-5.496l1.447 3.459"/></svg>