<svg id="Regular" xmlns="http://www.w3.org/2000/svg" viewBox="0 0 24 24" width="24" height="24"><defs><style>.cls-1{fill:none;stroke:#000;stroke-linecap:round;stroke-linejoin:round;stroke-width:1.5px}</style></defs><title>casino-player-luck</title><path class="cls-1" d="M16.178 23.25V21l1.006.168a3 3 0 0 0 3.494-2.96V15.75l.935-.234a1.5 1.5 0 0 0 .884-2.287L20.678 10.5v-.75c0-3.541-2.868-6.51-6.75-7.3M2.962 13.5a9.024 9.024 0 0 0 4.216 5.536v4.214M6.428 6L3.871 3.385A1.567 1.567 0 0 1 3.588 1.6a1.5 1.5 0 0 1 2.422-.4l.418.426.417-.426a1.5 1.5 0 0 1 2.423.4 1.568 1.568 0 0 1-.283 1.782zm0 0L9.6 4.178a1.568 1.568 0 0 1 1.8.171 1.5 1.5 0 0 1-.222 2.451l-.517.3.308.511a1.5 1.5 0 0 1-.994 2.245 1.566 1.566 0 0 1-1.654-.726zm0 0L3.257 4.178a1.568 1.568 0 0 0-1.8.171A1.5 1.5 0 0 0 1.678 6.8l.517.3-.308.5a1.5 1.5 0 0 0 .994 2.245 1.566 1.566 0 0 0 1.654-.715zm0 0v6.75"/></svg>