<svg xmlns="http://www.w3.org/2000/svg" viewBox="0 0 24 24" width="24" height="24"><g fill="none" stroke="#000" stroke-linejoin="round" stroke-miterlimit="10"><circle cx="12" cy="12" r="11.5"/><circle cx="12" cy="12" r="5.5"/><path d="M16.938 1.657l-2.407 5.655M6.875 1.657l2.406 5.655m13.022 9.667l-5.657-2.406m5.657-7.656l-5.657 2.406M6.979 22.345l2.407-5.657m7.656 5.657l-2.406-5.657M1.615 7.021l5.656 2.407m-5.656 7.656l5.656-2.406"/><circle cx="12" cy="3.626" r=".5"/><circle cx="12" cy="20.5" r=".5"/><circle cx="20.438" cy="12.062" r=".5"/><circle cx="3.562" cy="12.062" r=".5"/><path stroke-linecap="round" d="M13.128 9.5H11V12h1c.96 0 1.5.834 1.5 1.297 0 .464-.54 1.203-1.5 1.203h-1.128"/></g><path fill="none" d="M0 0h24v24H0z"/></svg>