<svg id="Regular" xmlns="http://www.w3.org/2000/svg" viewBox="0 0 24 24" width="24" height="24"><defs><style>.cls-1{fill:none;stroke:#000;stroke-linecap:round;stroke-linejoin:round;stroke-width:1.5px}</style></defs><title>casino-lucky-clover</title><path class="cls-1" d="M8.625.75A3.375 3.375 0 0 0 5.25 4.125V5.25H4.125a3.375 3.375 0 0 0 0 6.75H12V4.125A3.375 3.375 0 0 0 8.625.75zm6.75 0a3.375 3.375 0 0 1 3.375 3.375V5.25h1.125a3.375 3.375 0 0 1 0 6.75H12V4.125A3.375 3.375 0 0 1 15.375.75zm-6.75 22.5a3.375 3.375 0 0 1-3.375-3.375V18.75H4.125a3.375 3.375 0 0 1 0-6.75H12v7.875a3.375 3.375 0 0 1-3.375 3.375zm6.75 0a3.375 3.375 0 0 0 3.375-3.375V18.75h1.125a3.375 3.375 0 0 0 0-6.75H12v7.875a3.375 3.375 0 0 0 3.375 3.375z"/></svg>