<svg id="Regular" xmlns="http://www.w3.org/2000/svg" viewBox="0 0 24 24" width="24" height="24"><defs><style>.cls-1{fill:none;stroke:#000;stroke-linecap:round;stroke-linejoin:round;stroke-width:1.5px}</style></defs><title>casino-player-diamond</title><path class="cls-1" d="M16.678 22.5v-2.25l1.006.168a3 3 0 0 0 3.494-2.96V15l.935-.234A1.5 1.5 0 0 0 23 12.479L21.178 9.75V9c0-3.766-3.243-6.885-7.5-7.427M3.209 11.25a8.993 8.993 0 0 0 4.469 7.036V22.5m-1.5-12l-5.25-6 2.25-3h6l2.25 3-5.25 6zm-5.25-6h10.5m-5.25-3v9"/></svg>