<svg id="Regular" xmlns="http://www.w3.org/2000/svg" viewBox="0 0 24 24" width="24" height="24"><defs><style>.cls-1{fill:none;stroke:#000;stroke-linecap:round;stroke-linejoin:round;stroke-width:1.5px}</style></defs><title>casino-chip-buy</title><circle class="cls-1" cx="17.25" cy="17.25" r="6"/><circle class="cls-1" cx="17.25" cy="17.25" r="2.25"/><path class="cls-1" d="M17.25 15v-3.75m1.949 4.875l3.247-1.875m-7.145 1.875l-3.247-1.875m5.196 5.25v3.75m1.949-4.875l3.247 1.875m-7.145-1.875l-3.247 1.875M23.25 10.5V2.365A1.62 1.62 0 0 0 21.635.75H2.357A1.612 1.612 0 0 0 .75 2.357v16.278a1.62 1.62 0 0 0 1.615 1.615H8.25m-7.5-15h22.5"/></svg>