<svg id="Regular" xmlns="http://www.w3.org/2000/svg" viewBox="0 0 24 24" width="24" height="24"><defs><style>.cls-1{fill:none;stroke:#000;stroke-linecap:round;stroke-linejoin:round;stroke-width:1.5px}</style></defs><title>casino-winner-chip</title><circle class="cls-1" cx="17.25" cy="17.25" r="6"/><circle class="cls-1" cx="17.25" cy="17.25" r="2.25"/><path class="cls-1" d="M17.25 15v-3.75m1.949 4.875l3.247-1.875m-7.145 1.875l-3.247-1.875m5.196 5.25v3.75m1.949-4.875l3.247 1.875m-7.145-1.875l-3.247 1.875m10.591-10.5l.6-4.5a.75.75 0 0 0-1.078-.777l-4.284 3.259a.749.749 0 0 1-1.094-.157L12.564 1.4a.75.75 0 0 0-1.128 0L7.211 7.575a.749.749 0 0 1-1.094.157L1.836 4.473a.75.75 0 0 0-1.078.777l1.32 9.95"/><path class="cls-1" d="M8.25 15H3a2.25 2.25 0 0 0-2.25 2.25A2.25 2.25 0 0 0 3 19.5h5.25"/></svg>