<svg id="Regular" xmlns="http://www.w3.org/2000/svg" viewBox="0 0 24 24" width="24" height="24"><defs><style>.cls-1{fill:none;stroke:#000;stroke-linecap:round;stroke-linejoin:round;stroke-width:1.5px}</style></defs><title>casino-chips-double</title><path class="cls-1" d="M20.25 18.75a1.5 1.5 0 0 1 1.5-1.5 1.5 1.5 0 0 1 1.5 1.5 2.136 2.136 0 0 1-.469 1.336L20.25 23.25h3M12.75 18l4.5 4.5m0-4.5l-4.5 4.5m-3-2.278A9.745 9.745 0 1 1 19.152 15"/><circle class="cls-1" cx="10.5" cy="10.5" r="5.25"/><path class="cls-1" d="M10.5 5.25V.75M6.788 6.788L3.606 3.606M5.25 10.5H.75m13.462-3.712l3.182-3.182M15.75 10.5h4.5M6.788 14.212l-3.182 3.182"/></svg>