<svg id="Regular" xmlns="http://www.w3.org/2000/svg" viewBox="0 0 24 24" width="24" height="24"><defs><style>.cls-1{fill:none;stroke:#000;stroke-linecap:round;stroke-linejoin:round;stroke-width:1.5px}</style></defs><title>casino-winner-diamond</title><path class="cls-1" d="M22.645 9.361l.6-4.5a.75.75 0 0 0-1.078-.777l-4.281 3.26a.75.75 0 0 1-1.094-.158l-4.225-6.18a.75.75 0 0 0-1.128 0l-4.228 6.18a.75.75 0 0 1-1.094.158l-4.281-3.26a.75.75 0 0 0-1.078.777l1.32 9.952"/><path class="cls-1" d="M6.75 14.611H3a2.25 2.25 0 0 0-2.25 2.25A2.25 2.25 0 0 0 3 19.111h6m7.5 3.75l6.53-7.061a.751.751 0 0 0 .094-.947L20.473 11.2a.75.75 0 0 0-.624-.334h-6.7a.75.75 0 0 0-.624.334l-2.649 3.649a.751.751 0 0 0 .094.947l6.53 7.065m-6.744-7.5h13.488m-6.744-4.5v12"/></svg>