<svg id="Regular" xmlns="http://www.w3.org/2000/svg" viewBox="0 0 24 24" width="24" height="24"><defs><style>.cls-1{fill:none;stroke:#000;stroke-linecap:round;stroke-linejoin:round;stroke-width:1.5px}</style></defs><title>casino-777-winner</title><ellipse class="cls-1" cx="17.25" cy="14.25" rx="6" ry="3"/><path class="cls-1" d="M11.25 14.25v6c0 1.657 2.686 3 6 3s6-1.343 6-3v-6"/><path class="cls-1" d="M23.25 17.25c0 1.657-2.686 3-6 3s-6-1.343-6-3m-7.5-13.5h1.918a.75.75 0 0 1 .7 1.013L4.5 9.75m6-6h1.918a.75.75 0 0 1 .7 1.013L11.25 9.75m6-6h1.918a.75.75 0 0 1 .7 1.013L18.562 8.25"/><path class="cls-1" d="M7.5 12.75H2.25a1.5 1.5 0 0 1-1.5-1.5v-9a1.5 1.5 0 0 1 1.5-1.5h19.5a1.5 1.5 0 0 1 1.5 1.5v7.5"/></svg>