<svg id="Regular" xmlns="http://www.w3.org/2000/svg" viewBox="0 0 24 24" width="24" height="24"><defs><style>.cls-1{fill:none;stroke:#000;stroke-linecap:round;stroke-linejoin:round;stroke-width:1.5px}</style></defs><title>casino-chip-5</title><circle class="cls-1" cx="12" cy="12" r="11.25"/><circle class="cls-1" cx="12" cy="12" r="7.232"/><path class="cls-1" d="M10.142 14.219a2.221 2.221 0 0 0 1.858.875c1.139 0 2.063-.693 2.063-1.547S13.139 12 12 12s-2.062-.693-2.062-1.548.923-1.546 2.062-1.546a2.221 2.221 0 0 1 1.858.875M12 15.094v1.031m0-8.25v1.031M9.864.952l.763 3.948m2.666-.017l.718-3.954M1.365 8.326l3.8 1.312m1.318-2.316L3.418 4.723m.082 14.65l3.036-2.633M5.19 14.439l-3.783 1.354m12.729 7.255l-.763-3.948m-2.666.017l-.718 3.954m12.646-7.397l-3.8-1.312m-1.318 2.316l3.065 2.599M20.5 4.627L17.464 7.26m1.346 2.301l3.783-1.354"/></svg>