<svg id="Regular" xmlns="http://www.w3.org/2000/svg" viewBox="0 0 24 24" width="24" height="24"><defs><style>.cls-1{fill:none;stroke:#000;stroke-linecap:round;stroke-linejoin:round;stroke-width:1.5px}</style></defs><title>casino-lucky-7</title><path class="cls-1" d="M11.861 1.8a5.975 5.975 0 0 0-5.083-.23c-.113.048-.216.09-.313.125a1 1 0 0 1-.765-.038A1.5 1.5 0 0 0 4.322.75h-.75a1.5 1.5 0 0 0-1.5 1.5v6a1.5 1.5 0 0 0 1.5 1.5h.75a1.5 1.5 0 0 0 1.5-1.5v-.27a1.5 1.5 0 0 1 1.119-1.45 4.8 4.8 0 0 1 3.461.22c1.36.852 2.994 1.506 4.4.78l1.517-.78c-4.806 4.806-7.649 9.1-8.166 14.864A1.5 1.5 0 0 0 9.65 23.25h5.212a1.505 1.505 0 0 0 1.5-1.463c.138-4.934.437-7.735 5.477-17.8a1.517 1.517 0 0 0-.273-1.747l-.623-.624a1.516 1.516 0 0 0-1.918-.17 7.055 7.055 0 0 1-7.164.354z"/></svg>