<svg xmlns="http://www.w3.org/2000/svg" viewBox="0 0 24 24" width="24" height="24"><g fill="none" stroke="#000" stroke-linecap="round" stroke-linejoin="round" stroke-miterlimit="10"><path d="M5.5 19.21c-3.052-.467-5-1.414-5-2.21V8v.011C.5 6.906 4.253 5.5 9.5 5.5s9 1.396 9 2.5v-.011V17c0 .796-1.948 1.743-5 2.21m-2 .221c-.637.045-1.306.069-2 .069s-1.363-.024-2-.069"/><path d="M5.5 18.5h2v5h-2zm6 0h2v5h-2zm7-3.5c0 .828-3.753 1.5-9 1.5s-9-.672-9-1.5m0-5c0-.828 3.753-1.5 9-1.5s9 .672 9 1.5m-18 2.5h18m-9-8V20m-6-14.5v14m12-14v14m5-7h2m1 4v-1a1 1 0 00-1-1h-4"/></g><path fill="none" d="M0 0h24v24H0z"/></svg>