<svg xmlns="http://www.w3.org/2000/svg" viewBox="0 0 24 24" width="24" height="24"><g fill="none" stroke="#000" stroke-linejoin="round" stroke-miterlimit="10"><path stroke-linecap="round" d="M19.5 23.5l-2-14h-11l-2 14h6v-4a1.5 1.5 0 113 0v4h6zm-9-10h2m-1-1v2m0-14v6m.5-5h-.5v-1h.5l2 .5z"/><path d="M19.5 23.5h4v-10h-3v2h-2.125m-12.75 0H3.5v-2h-3v10h4"/><path stroke-linecap="round" d="M10 5v-.5H8V5c0 .828-.573 1.5-1.281 1.5C6.045 6.5 5.5 5.828 5.5 5v-.5h-2V8A1.5 1.5 0 005 9.5h14A1.5 1.5 0 0020.5 8V4.5h-2V5a1.5 1.5 0 01-3 0v-.5h-2V5c0 .828-.804 1.5-1.797 1.5C10.762 6.5 10 5.828 10 5z"/></g><path fill="none" d="M0 0h24v24H0z"/></svg>