<svg xmlns="http://www.w3.org/2000/svg" viewBox="0 0 24 24" width="24" height="24"><g fill="none" stroke="#000" stroke-linejoin="round" stroke-miterlimit="10"><path d="M14.501 20.767L.5 14.236l.846-1.812 13.162 6.139"/><path d="M14.5 5.5h8V21h-8zm-13 7l13-6.5"/><path stroke-linecap="round" d="M12.5 23.5V21h11"/><path d="M20.5 9.5a2 2 0 00-4 0v2h4v-2zm1-9h2v3a2 2 0 01-2 2h-6a2 2 0 01-2-2v-3h2v1a1 1 0 102 0v-1h2v1a1 1 0 102 0v-1z"/><path stroke-linecap="round" d="M12.5 22.5c-.979 0-1.865-.352-2.501-1H10c-.635.648-1.521 1-2.5 1s-1.864-.352-2.5-1c-.636.648-1.521 1-2.5 1a3.484 3.484 0 01-2-.627"/></g><path fill="none" d="M0 0h24v24H0z"/></svg>