<svg id="Regular" xmlns="http://www.w3.org/2000/svg" viewBox="0 0 24 24" width="24" height="24"><defs><style>.cls-1{fill:none;stroke:#000;stroke-linecap:round;stroke-linejoin:round;stroke-width:1.5px}</style></defs><title>cat-carrier</title><path class="cls-1" d="M.75 14.25h22.5m-1.5 0L20.459 6.5a1.5 1.5 0 0 0-1.48-1.253H5.021A1.5 1.5 0 0 0 3.541 6.5L2.25 14.25m19.5 0L20.459 22a1.5 1.5 0 0 1-1.48 1.253H5.021A1.5 1.5 0 0 1 3.541 22L2.25 14.25"/><path class="cls-1" d="M6 14.25l.586-4.686A1.5 1.5 0 0 1 8.074 8.25h7.852a1.5 1.5 0 0 1 1.488 1.314L18 14.25m-6-6v6m0 3v2.25m4.5-2.25v2.25m-9-2.25v2.25m.75-14.25v-3a1.5 1.5 0 0 1 1.5-1.5h4.5a1.5 1.5 0 0 1 1.5 1.5v3"/></svg>