<svg id="Regular" xmlns="http://www.w3.org/2000/svg" viewBox="0 0 24 24" width="24" height="24"><defs><style>.cls-1{fill:none;stroke:#000;stroke-linecap:round;stroke-linejoin:round;stroke-width:1.5px}</style></defs><title>cat-toy</title><path class="cls-1" d="M1 23.25v-15a1.5 1.5 0 0 1 3 0v15m10.5 0c-.828 0-1.5-1.007-1.5-2.25s1.5-4.5 1.5-4.5S16 19.757 16 21s-.672 2.25-1.5 2.25zm8.072-3.75c-.46.689-1.67.688-2.7 0s-2.909-3.746-2.909-3.746 3.537.557 4.571 1.246 1.498 1.809 1.038 2.5zm-16.144 0c.46.689 1.67.688 2.7 0s2.909-3.746 2.909-3.746S8.5 16.311 7.466 17s-1.498 1.809-1.038 2.5z"/><path class="cls-1" d="M2.5 6.75v-3a3 3 0 0 1 3-3H16a3 3 0 0 1 0 6h-1.4a3 3 0 0 0-2.2 5.035l2.1 2.277"/></svg>