<svg id="Regular" xmlns="http://www.w3.org/2000/svg" viewBox="0 0 24 24" width="24" height="24"><defs><style>.cls-1{fill:none;stroke:#000;stroke-linecap:round;stroke-linejoin:round;stroke-width:1.5px}</style></defs><title>cat-carrier-1</title><path class="cls-1" d="M2.75 6.75h18.5a2 2 0 0 1 2 2v12a1 1 0 0 1-1 1H1.75a1 1 0 0 1-1-1v-12a2 2 0 0 1 2-2z"/><rect class="cls-1" x="3.75" y="9.75" width="16.5" height="7.5" rx="1" ry="1"/><path class="cls-1" d="M9 9.75v7.5m6-7.5v7.5m-11.25-1.5h-3m22.5 0h-3m-3-9v-1.5a3 3 0 0 0-3-3h-4.5a3 3 0 0 0-3 3v1.5"/></svg>