<svg id="Regular" xmlns="http://www.w3.org/2000/svg" viewBox="0 0 24 24" width="24" height="24"><defs><style>.cls-1{fill:none;stroke:#000;stroke-linecap:round;stroke-linejoin:round;stroke-width:1.5px}</style></defs><title>cat-grass</title><path class="cls-1" d="M.75 6.75h13.5m-6 8.25h-3a1.5 1.5 0 0 1-1.488-1.314L2.426 6.75M7.5.75v6M3.926 3l.75 3.75M11.824 3l-.75 3.75m8.747 6.375a3.761 3.761 0 0 0-2.571-.844 3.761 3.761 0 0 0-2.571.844l-2.153-2.119a.751.751 0 0 0-1.276.535v5.8a6 6 0 0 0 12 0v-5.8a.751.751 0 0 0-1.276-.535z"/></svg>