<svg id="Regular" xmlns="http://www.w3.org/2000/svg" viewBox="0 0 24 24" width="24" height="24"><defs><style>.cls-1{fill:none;stroke:#000;stroke-linecap:round;stroke-linejoin:round;stroke-width:1.5px}</style></defs><title>cat-litter</title><path class="cls-1" d="M21.75 15.75l-1.05 5.037a3 3 0 0 1-2.952 2.463H6.254A3 3 0 0 1 3.3 20.787L2.25 15.75"/><path class="cls-1" d="M23.25 15.75H18a1.5 1.5 0 0 0-1.061.439l-1.5 2.122a1.5 1.5 0 0 1-1.06.439H9.621a1.5 1.5 0 0 1-1.06-.439l-1.5-2.122A1.5 1.5 0 0 0 6 15.75H.75m12.042-1.975a.785.785 0 0 1-1.183.084l-3.718-3.718a.785.785 0 0 1 .084-1.183l2.772-2.079c1.488-1.116 2.463-.486 4 .123.585 1.477 1.264 2.48.123 4zm1.956-6.773L21 .75"/></svg>