<svg id="Regular" xmlns="http://www.w3.org/2000/svg" viewBox="0 0 24 24" width="24" height="24"><defs><style>.cls-1{fill:none;stroke:#000;stroke-linecap:round;stroke-linejoin:round;stroke-width:1.5px}</style></defs><title>cat-carrier-2</title><path class="cls-1" d="M1.5 13.5h21m-1.5 0l-1.291-7.747a1.5 1.5 0 0 0-1.48-1.253H5.771a1.5 1.5 0 0 0-1.48 1.253L3 13.5m18 0l-1.291 7.747a1.5 1.5 0 0 1-1.48 1.253H5.771a1.5 1.5 0 0 1-1.48-1.253L3 13.5m4.5-6v3m4.5-3v3m4.5-3v3m-9 6v3m4.5-3v3m4.5-3v3M9 4.5a3 3 0 0 1 6 0"/></svg>