<svg id="Regular" xmlns="http://www.w3.org/2000/svg" viewBox="0 0 24 24" width="24" height="24"><defs><style>.cls-1{fill:none;stroke:#000;stroke-linecap:round;stroke-linejoin:round;stroke-width:1.5px}</style></defs><title>cat-water</title><path class="cls-1" d="M14.24 8.976V2.5a.751.751 0 0 0-1.273-.538l-2.584 2.514a4.929 4.929 0 0 0-5.786 0L2.013 1.963A.751.751 0 0 0 .74 2.5v6.663a6.659 6.659 0 0 0 6.75 6.563m15.596 5.448a3 3 0 0 1-2.846 2.052h-6a3 3 0 0 1-2.846-2.052l-.154-.948h12zm-7.346-.948v-3.75h3v3.75m-1.5-3.75v-1.5a3 3 0 0 1 5.906-.75m.094 3v.75"/><path class="cls-1" d="M17.24 16.476v-1.5a3 3 0 0 0-5.9-.75m-.1 3v.75"/></svg>