<svg id="Regular" xmlns="http://www.w3.org/2000/svg" viewBox="0 0 24 24" width="24" height="24"><defs><style>.cls-1{fill:none;stroke:#000;stroke-linecap:round;stroke-linejoin:round;stroke-width:1.5px}</style></defs><title>cat-bell</title><circle class="cls-1" cx="11.99" cy="15" r="7.5"/><path class="cls-1" d="M2.99 15h18m-9 3.375a.375.375 0 0 1 .375.375m-.75 0a.375.375 0 0 1 .375-.375m0 .75a.375.375 0 0 1-.375-.375m.75 0a.375.375 0 0 1-.375.375m0 0V22.5M22.5 1.563A20.154 20.154 0 0 1 11.99 4.5 20.158 20.158 0 0 1 1.5 1.577M12.004 4.5v3"/></svg>