<svg id="Regular" xmlns="http://www.w3.org/2000/svg" viewBox="0 0 24 24" width="24" height="24"><defs><style>.cls-1{fill:none;stroke:#000;stroke-linecap:round;stroke-linejoin:round;stroke-width:1.5px}</style></defs><title>cat-fish-toy</title><path class="cls-1" d="M14.842 3.542a3 3 0 0 0-1.992 3.926 6 6 0 0 0 5.246 3.9 3 3 0 0 0 2.534-1.122l2.62-3.275-3.75-1.738.038-3.033zm1.779 3.166a.374.374 0 0 0 0 .53m.53-.53a.374.374 0 0 0-.53 0m.53.53a.374.374 0 0 0 0-.53m-.53.53a.374.374 0 0 0 .53 0m-10.81 10.28l7.893-7.893M4.282 19.7a5.945 5.945 0 0 1 1.708 3.533 3.306 3.306 0 0 0 .413-.35 3.75 3.75 0 1 0-5.3-5.3 3.306 3.306 0 0 0-.35.413A5.945 5.945 0 0 1 4.282 19.7zM8.931 8.564l5.834 5.834M5.749 9.625l7.955 7.955m-9.016-4.773l5.834 5.833"/></svg>