<svg id="Regular" xmlns="http://www.w3.org/2000/svg" viewBox="0 0 24 24" width="24" height="24"><defs><style>.cls-1{fill:none;stroke:#000;stroke-linecap:round;stroke-linejoin:round;stroke-width:1.5px}</style></defs><title>cat-sitting</title><path class="cls-1" d="M11 8.588A3.751 3.751 0 0 1 8.96 5.25V.75l3 1.5h1.5l3-1.5v4.5a3.752 3.752 0 0 1-2.268 3.45"/><path class="cls-1" d="M9.921 7.757L7.46 13.5a4.975 4.975 0 0 0-3.75 3.75 8.354 8.354 0 0 0-.01 3.65 2.975 2.975 0 0 0 2.928 2.35H18.71c2.25 0 2.25-3.75 0-3.75M14.96 8.25v12m-3 0v-6"/></svg>