<svg id="Regular" xmlns="http://www.w3.org/2000/svg" viewBox="0 0 24 24" width="24" height="24"><defs><style>.cls-1{fill:none;stroke:#000;stroke-linecap:round;stroke-linejoin:round;stroke-width:1.5px}</style></defs><title>cat-mouse-toy-1</title><path class="cls-1" d="M17.25 18.375a.375.375 0 0 1 .375.375m-.75 0a.375.375 0 0 1 .375-.375m0 .75a.375.375 0 0 1-.375-.375m.75 0a.375.375 0 0 1-.375.375"/><path class="cls-1" d="M14.432 12.75A7.429 7.429 0 0 0 3.75 19.429v.821a1.5 1.5 0 0 0 1.5 1.5h16.031a1.969 1.969 0 0 0 1.119-3.587l-1.4-.971z"/><path class="cls-1" d="M11.276 12a6.348 6.348 0 0 0 1.474-3.75c0-3.314-3.75-6-3.75-6a11.316 11.316 0 0 0-3.166 3.669M9.3 12.24A5.635 5.635 0 0 0 7.762 9.7C5.3 7.482.8 8.469.8 8.469s-.409 3.586 1.2 5.95"/></svg>