<svg id="Regular" xmlns="http://www.w3.org/2000/svg" viewBox="0 0 24 24" width="24" height="24"><defs><style>.cls-1{fill:none;stroke:#000;stroke-linecap:round;stroke-linejoin:round;stroke-width:1.5px}</style></defs><title>cat-head</title><path class="cls-1" d="M3.511 16.04A7.705 7.705 0 0 1 3 13.382C3 9.305 7.029 6 12 6m4.5 15.07A8.115 8.115 0 0 1 12 22.5a8.115 8.115 0 0 1-4.5-1.43m12.989-5.03A7.705 7.705 0 0 0 21 13.382C21 9.305 16.971 6 12 6m2.25 10.125A2.448 2.448 0 0 1 12 18a2.448 2.448 0 0 1-2.25-1.875C9.75 15.5 10.757 15 12 15s2.25.5 2.25 1.125zM9.75 19.5A2.774 2.774 0 0 0 12 18a2.774 2.774 0 0 0 2.25 1.5M7.875 12a.375.375 0 0 1 .375.375m-.75 0A.375.375 0 0 1 7.875 12m0 .75a.375.375 0 0 1-.375-.375m.75 0a.375.375 0 0 1-.375.375m8.25-.75a.375.375 0 0 1 .375.375m-.75 0a.375.375 0 0 1 .375-.375m0 .75a.375.375 0 0 1-.375-.375m.75 0a.375.375 0 0 1-.375.375M12 6v3.75m-3-3V9m6-2.25V9"/><path class="cls-1" d="M3 13.381V3.121A1.5 1.5 0 0 1 5.437 1.95l5.172 4.138M21 13.381V3.121a1.5 1.5 0 0 0-2.437-1.171l-5.172 4.138m5.359 9.662l4.5.75M18 18l3.75 2.25m-16.5-4.5l-4.5.75M6 18l-3.75 2.25"/></svg>