<svg id="Regular" xmlns="http://www.w3.org/2000/svg" viewBox="0 0 24 24" width="24" height="24"><defs><style>.cls-1{fill:none;stroke:#000;stroke-linecap:round;stroke-linejoin:round;stroke-width:1.5px}</style></defs><title>cat-toy-1</title><path class="cls-1" d="M17.5 15.75v-1.5m2.121 2.379l1.061-1.061M20.5 18.75H22m-2.379 2.121l1.061 1.061M17.5 21.75v1.5m-2.121-2.379l-1.061 1.061m.182-3.182H13m-11.25 4.5v-15a1.5 1.5 0 0 1 3 0v15"/><path class="cls-1" d="M3.25 6.75v-3a3 3 0 0 1 3-3h8.25a3 3 0 0 1 0 6h-1.4a3 3 0 0 0-2.2 5.035l4.35 4.715"/></svg>