<svg id="Regular" xmlns="http://www.w3.org/2000/svg" viewBox="0 0 24 24" width="24" height="24"><defs><style>.cls-1{fill:none;stroke:#000;stroke-linecap:round;stroke-linejoin:round;stroke-width:1.5px}</style></defs><title>cat-lost</title><path class="cls-1" d="M21.25 23.25v-7.5m-1.5 0h3m-13.5 0a1.5 1.5 0 0 0-1.5 1.5v4.5a1.5 1.5 0 0 0 3 0v-4.5a1.5 1.5 0 0 0-1.5-1.5zm-7.5 0v6a1.5 1.5 0 0 0 1.5 1.5h1.5m12-7.5h-1.5a1.5 1.5 0 0 0-1.5 1.5c0 2.25 3 2.25 3 4.5a1.5 1.5 0 0 1-1.5 1.5h-1.5M11.5 10.125a.375.375 0 0 1 .375.375m-.75 0a.375.375 0 0 1 .375-.375m0 .75a.375.375 0 0 1-.375-.375m.75 0a.375.375 0 0 1-.375.375M9.25 6.75v1.5m4.5-1.5v1.5"/><path class="cls-1" d="M6.25 12.75v-12l4.506 2.575a1.5 1.5 0 0 0 1.488 0L16.75.75v12"/></svg>