<svg id="Regular" xmlns="http://www.w3.org/2000/svg" viewBox="0 0 24 24" width="24" height="24"><defs><style>.cls-1{fill:none;stroke:#000;stroke-linecap:round;stroke-linejoin:round;stroke-width:1.5px}</style></defs><title>cat</title><path class="cls-1" d="M18.563 5.5a1.5 1.5 0 0 0 1.874 0l1.594-1.28a.75.75 0 0 1 1.219.586v4.44c0 1.656-1.679 3-3.75 3s-3.75-1.344-3.75-3v-4.44a.75.75 0 0 1 1.219-.586z"/><path class="cls-1" d="M16.252 10.746H7.5a2.25 2.25 0 0 0 0 4.5h9a2.261 2.261 0 0 0 2.1-3.088m-2.85 3.088v6m2.18-6.513l.82 6.513m-10.5-6v6m-2.18-6.513l-.82 6.513m-3.568-13.5a3.18 3.18 0 0 1 0-4.5 2.544 2.544 0 0 1 3.6 0 2.037 2.037 0 0 1 0 2.88m.58 5.327l-4.18-3.708"/></svg>