<svg xmlns="http://www.w3.org/2000/svg" viewBox="0 0 24 24" width="24" height="24"><path fill="none" stroke="#000" stroke-linecap="round" stroke-linejoin="round" stroke-miterlimit="10" d="M15.5 17.5v-7m-3 10h-4m-6 0h-2v-3h20v3h-2"/><circle fill="none" stroke="#000" stroke-linecap="round" stroke-linejoin="round" stroke-miterlimit="10" cx="5.5" cy="20.5" r="3"/><circle fill="none" stroke="#000" stroke-linecap="round" stroke-linejoin="round" stroke-miterlimit="10" cx="15.5" cy="20.5" r="3"/><path d="M5.5 20a.5.5 0 100 1 .5.5 0 000-1zm10 0a.5.5 0 100 1 .5.5 0 000-1z"/><path fill="none" stroke="#000" stroke-linecap="round" stroke-linejoin="round" stroke-miterlimit="10" d="M20 17.5L15.5 12M11 17.5l4.5-5.5M3.712 6.046a3 3 0 104.33 4.154l.346-.361-4.33-4.154-.346.361zM13.5 14.5L6.944 8.455"/><circle fill="none" stroke="#000" stroke-linecap="round" stroke-linejoin="round" stroke-miterlimit="10" cx="21.5" cy="2.5" r="1.5"/><path d="M15.69 3.338a31.97 31.97 0 011.967-.394m-5.806 1.552a31.64 31.64 0 011.901-.639M8.188 6.128c.591-.31 1.193-.601 1.806-.874" fill="none" stroke="#000" stroke-linecap="round" stroke-linejoin="round" stroke-miterlimit="10"/><path fill="none" d="M0 0h24v24H0z"/></svg>