<svg xmlns="http://www.w3.org/2000/svg" viewBox="0 0 24 24" width="24" height="24"><g fill="none" stroke="#000" stroke-linejoin="round" stroke-miterlimit="10"><path stroke-linecap="round" d="M8.341 18.934l-6.289-2.666.78-1.841 9.668 4.097"/><path d="M19.177 20.003L14.5 11.5m0-4l7.715 13.502m-7.715-2.27V5.5h-2v13"/><path d="M23.5 21.5l-5.587-1.943a17.999 17.999 0 00-11.826 0L.5 21.5v2h23v-2zM3.5 17l-3 4.5"/><circle cx="12" cy="21" r="1.5"/><path d="M7.5 12.862a3.5 3.5 0 01-4.803 1.198l-.429-.257A3.5 3.5 0 011.071 9L7.5 12.862z"/></g><path fill="none" d="M0 0h24v24H0z"/></svg>