<svg xmlns="http://www.w3.org/2000/svg" viewBox="0 0 24 24" width="24" height="24"><defs><style>.a{fill:none;stroke:#000;stroke-linecap:round;stroke-linejoin:round;stroke-width:1.5px}</style></defs><title>cd-player</title><rect class="a" x=".75" y="14.25" width="22.5" height="7.5" rx="1.5" ry="1.5"/><path class="a" d="M3.75 23.25v-1.5m16.5 1.5v-1.5m-1.125-4.5a.375.375 0 1 1-.375.375.375.375 0 0 1 .375-.375M5.25 18.75h8.25"/><circle class="a" cx="15.75" cy="8.579" r="1.5"/><circle class="a" cx="21.75" cy="7.079" r="1.5"/><path class="a" d="M23.25 7.079V2.25A1.5 1.5 0 0 0 21.386.8l-3 .75A1.5 1.5 0 0 0 17.25 3v5.579M2.6 11.275A7.5 7.5 0 0 1 14.329 3.06m-3.224 7.74a2.25 2.25 0 1 1 .09-3.521"/></svg>