<svg xmlns="http://www.w3.org/2000/svg" viewBox="0 0 24 24" width="24" height="24"><defs><style>.a{fill:none;stroke:#000;stroke-linecap:round;stroke-linejoin:round;stroke-width:1.5px}</style></defs><title>cd-rom</title><path class="a" d="M2.982 17.151A3 3 0 0 1 .75 14.25a3 3 0 0 1 3-3h16.5a3 3 0 0 1 3 3 3 3 0 0 1-2.227 2.9"/><path class="a" d="M16.19 14.25H7.81A4.932 4.932 0 0 0 6 18c0 2.9 2.686 5.25 6 5.25s6-2.35 6-5.25a4.932 4.932 0 0 0-1.81-3.75zm-10.94 0h13.5m4.425-.667l-2.394-10.5A3 3 0 0 0 17.856.75H6.144a3 3 0 0 0-2.925 2.333l-2.394 10.5"/><path class="a" d="M12 17.625a.375.375 0 1 0 .375.375.375.375 0 0 0-.375-.375"/></svg>