<svg id="Regular" xmlns="http://www.w3.org/2000/svg" viewBox="0 0 24 24" width="24" height="24"><defs><style>.cls-1{fill:none;stroke:#000;stroke-linecap:round;stroke-linejoin:round;stroke-width:1.5px}</style></defs><title>ceiling-ball-chandelier-retro-1</title><path class="cls-1" d="M2.25 8.444v4.5a1.5 1.5 0 1 0 3 0v-6zm3-4.5a1.5 1.5 0 0 1-3 0c0-.828 1.5-3 1.5-3s1.5 2.172 1.5 3zm-4.5 7.5h6m12-3v4.5a1.5 1.5 0 1 0 3 0v-6zm3-4.5a1.5 1.5 0 0 1-3 0c0-.828 1.5-3 1.5-3s1.5 2.172 1.5 3zm-4.5 7.5h6m-15-10.5h7.5m-6 0s0 7.5-1.5 7.5m6-7.5s0 7.5 1.5 7.5M12 15.127v4.567m-5.25-3.316v2.566m10.5-2.566v2.566"/><path class="cls-1" d="M4.687 14.115A3.751 3.751 0 0 0 10.9 15.6a1.517 1.517 0 0 1 2.2 0 3.751 3.751 0 0 0 6.215-1.481M12 22.319a.375.375 0 1 1-.375.375.375.375 0 0 1 .375-.375m-5.25-.75a.375.375 0 1 1-.375.375.375.375 0 0 1 .375-.375m10.5 0a.375.375 0 1 1-.375.375.375.375 0 0 1 .375-.375"/></svg>