<svg id="Regular" xmlns="http://www.w3.org/2000/svg" viewBox="0 0 24 24" width="24" height="24"><defs><style>.cls-1{fill:none;stroke:#000;stroke-linecap:round;stroke-linejoin:round;stroke-width:1.5px}</style></defs><title>ceiling-lamp</title><path class="cls-1" d="M15 8.071v-1.16a3.112 3.112 0 0 0-2.5-3.12A3 3 0 0 0 9 6.75v1.321a8.254 8.254 0 0 0-5.213 6.889.744.744 0 0 0 .753.79h14.92a.744.744 0 0 0 .753-.79A8.254 8.254 0 0 0 15 8.071zM12 .75v3m3 12a3 3 0 0 1-6 0m3 7.5v-1.5m5.25-1.5l1.5 2.25m-12-2.25l-1.5 2.25"/></svg>