<svg id="Regular" xmlns="http://www.w3.org/2000/svg" viewBox="0 0 24 24" width="24" height="24"><defs><style>.cls-1{fill:none;stroke:#000;stroke-linecap:round;stroke-linejoin:round;stroke-width:1.5px}</style></defs><title>ceiling-lamp-2</title><path class="cls-1" d="M.75.75h22.5M12 .75v4.5m3.75 3h-7.5v-1.5a1.5 1.5 0 0 1 1.5-1.5h4.5a1.5 1.5 0 0 1 1.5 1.5zm-3.75 12v3m-5.25-3l-1.5 3m12-3l1.5 3m-2.994-15H8.244A9.766 9.766 0 0 0 2.4 15.52a1.5 1.5 0 0 0 1.5 1.73h16.21a1.5 1.5 0 0 0 1.49-1.73 9.766 9.766 0 0 0-5.844-7.27z"/></svg>