<svg xmlns="http://www.w3.org/2000/svg" viewBox="0 0 24 24" width="24" height="24"><defs><style>.a{fill:none;stroke:#000;stroke-linecap:round;stroke-linejoin:round;stroke-width:1.5px}</style></defs><title>cellular-network-wifi-lte</title><path class="a" d="M11.363 23.25v-7.5m-1.5 0h3m-7.5 0v6a1.5 1.5 0 0 0 1.5 1.5h1.5m10.5 0h-1.5a1.5 1.5 0 0 1-1.5-1.5v-4.5a1.5 1.5 0 0 1 1.5-1.5h1.5m-3 4.5h3M7.34 11.727a6.75 6.75 0 0 1 9.546 0M4.158 8.545a11.251 11.251 0 0 1 15.91 0m3.182-3.182a15.752 15.752 0 0 0-22.274 0"/></svg>