<svg xmlns="http://www.w3.org/2000/svg" viewBox="0 0 24 24" width="24" height="24"><defs><style>.a{fill:none;stroke:#000;stroke-linecap:round;stroke-linejoin:round;stroke-width:1.5px}</style></defs><title>cellular-network-wifi-4g</title><path class="a" d="M9.976 23.25v-1.5m0 0v-5.985A8.26 8.26 0 0 0 5.5 21.75h4.476M7.34 11.727a6.75 6.75 0 0 1 9.546 0M4.158 8.545a11.251 11.251 0 0 1 15.91 0m3.182-3.182a15.752 15.752 0 0 0-22.274 0m17.25 10.387h-1.5a2.251 2.251 0 0 0-2.25 2.25v3a2.25 2.25 0 0 0 2.25 2.25 2.25 2.25 0 0 0 2.25-2.25v-.75h-1.5"/></svg>