<svg xmlns="http://www.w3.org/2000/svg" viewBox="0 0 24 24" width="24" height="24"><defs><style>.a{fill:none;stroke:#000;stroke-linecap:round;stroke-linejoin:round;stroke-width:1.5px}</style></defs><title>cell-border-bottom</title><path class="a" d="M20.25.747a1.5 1.5 0 0 1 1.5 1.5m-21 0a1.5 1.5 0 0 1 1.5-1.5m19.5 19.5a1.5 1.5 0 0 1-1.5 1.5h-18a1.5 1.5 0 0 1-1.5-1.5m4.5-19.5h1.5m3 0h3m3 0h1.5m-16.5 4.5v1.5m0 3v3m0 3v1.5m21-12v1.5m0 3v3m0 3v1.5m-21-6h1.5m3 0h1.5m3 0h3m3 0h1.5m3 0h1.5M11.25.747v1.5m0 3v1.5m0 9v1.5m0 3v1.5m0-12v3"/></svg>