<svg xmlns="http://www.w3.org/2000/svg" viewBox="0 0 24 24" width="24" height="24"><defs><style>.a{fill:none;stroke:#000;stroke-linecap:round;stroke-linejoin:round;stroke-width:1.5px}</style></defs><title>cellular-network-3g</title><path class="a" d="M6.863 16.5a1.5 1.5 0 0 1 1.5-1.5l1.135.005a1.873 1.873 0 0 1-.008 3.745 1.873 1.873 0 0 1 .01 3.75H8.365a1.5 1.5 0 0 1-1.5-1.5M5.363 4.5l3-3 3 3m-3-3v9.75m10.5-3l-3 3-3-3m3 3V1.5m2.25 13.5h-1.5a2.251 2.251 0 0 0-2.25 2.25v3a2.25 2.25 0 0 0 2.25 2.25 2.25 2.25 0 0 0 2.25-2.25v-.75h-1.5"/></svg>