<svg xmlns="http://www.w3.org/2000/svg" viewBox="0 0 24 24" width="24" height="24"><g fill="none" stroke="#000" stroke-linejoin="round" stroke-miterlimit="10"><circle stroke-linecap="round" cx="21" cy="22" r="1.5"/><circle stroke-linecap="round" cx="3" cy="22" r="1.5"/><path d="M21 3.5h-2.5v14H.5v3h23V6.499z"/><path d="M17.5 8.5a8 8 0 01-8 8h-1a8 8 0 01-8-8V7l3-5.5h11l3 5.542V8.5zM1 6h0m-.227.5h16.474m-16.495 4h16.495"/><path stroke-linecap="round" d="M23.5 8.5H21m2.5 2H21m2.5 1.999H21"/></g><path fill="none" d="M0 0h24v24H0z"/></svg>