<svg xmlns="http://www.w3.org/2000/svg" viewBox="0 0 24 24" width="24" height="24"><g fill="none" stroke="#000" stroke-linejoin="round" stroke-miterlimit="10"><path stroke-linecap="round" d="M12 16.5H.5V.5h23V9"/><path d="M21.5 17v6.5l-3-2.5-3 2.5V17"/><circle stroke-linecap="round" cx="18.5" cy="14" r="1.5"/><path stroke-linecap="round" d="M22.221 14a1.995 1.995 0 00.177-2.25 1.999 1.999 0 00-2.037-.973A1.998 1.998 0 0018.5 9.5c-.85 0-1.57.531-1.86 1.278A1.994 1.994 0 0014.78 14a1.997 1.997 0 00-.176 2.25 1.996 1.996 0 002.037.973A1.996 1.996 0 0018.5 18.5c.85 0 1.57-.531 1.861-1.278a1.995 1.995 0 002.036-.972 1.995 1.995 0 00-.176-2.25z"/><path stroke-linecap="round" d="M21.5 8V5.5a3 3 0 01-3-3h-13a3 3 0 01-3 3v6a3 3 0 013 3H12"/></g><path fill="none" d="M0 0h24v24H0z"/></svg>