<svg xmlns="http://www.w3.org/2000/svg" viewBox="0 0 24 24" width="24" height="24"><defs><style>.a{fill:none;stroke:#000;stroke-linecap:round;stroke-linejoin:round;stroke-width:1.5px}</style></defs><title>certified-certificate</title><path class="a" d="M6.75 18.75V21a2.25 2.25 0 0 1-2.25 2.25H15A2.25 2.25 0 0 0 17.25 21V3.91c0-.566.438-3.16 3-3.16a3 3 0 0 1 3 3v3h-6m3-6h-9M2.737 8.983l-.805 5.879a.751.751 0 0 0 1.269.666l2.049-2.05 2.05 2.05a.751.751 0 0 0 1.269-.666l-.8-5.879"/><circle class="a" cx="5.25" cy="5.25" r="4.5"/><path class="a" d="M5.25 4.875a.375.375 0 1 0 .375.375.375.375 0 0 0-.375-.375"/></svg>