<svg id="Regular" xmlns="http://www.w3.org/2000/svg" viewBox="0 0 24 24" width="24" height="24"><defs><style>.cls-1{fill:none;stroke:#000;stroke-linecap:round;stroke-linejoin:round;stroke-width:1.5px}</style></defs><title>chair-3</title><path class="cls-1" d="M7.5 17.25l-1.5 6m1.5-9L8.25 6m8.25 11.25l1.5 6m-1.5-9L15.75 6M12 6v8.25M14.25 3a2.25 2.25 0 0 0-4.5 0h-3a1.5 1.5 0 0 0 0 3h10.5a1.5 1.5 0 0 0 0-3zm-9 11.25a.75.75 0 0 0-.6 1.2l1.125 1.5a.75.75 0 0 0 .6.3h11.25a.75.75 0 0 0 .6-.3l1.125-1.5a.75.75 0 0 0-.6-1.2z"/></svg>