<svg xmlns="http://www.w3.org/2000/svg" viewBox="0 0 24 24" width="24" height="24"><g fill="none" stroke="#000" stroke-linejoin="round" stroke-miterlimit="10"><path d="M6.805 10.069a1.499 1.499 0 11-2.858.911L1.212 2.407a1.501 1.501 0 012.858-.912l2.735 8.574z"/><path stroke-linecap="round" d="M5 12l9.114-1.027a4.999 4.999 0 015.448 4.403L20.5 23.5"/><path d="M23.5 17a1.5 1.5 0 01-1.5 1.5H8.5a1.5 1.5 0 110-3H22a1.5 1.5 0 011.5 1.5z"/><path stroke-linecap="round" d="M5 12l2 4.5-5 7"/></g><path fill="none" d="M0 0h24v24H0z"/></svg>