<svg id="Regular" xmlns="http://www.w3.org/2000/svg" viewBox="0 0 24 24" width="24" height="24"><defs><style>.cls-1{fill:none;stroke:#000;stroke-linecap:round;stroke-linejoin:round;stroke-width:1.5px}</style></defs><title>chair-2</title><path class="cls-1" d="M5.25 12.747a.75.75 0 0 0-.6 1.2l1.125 1.5a.75.75 0 0 0 .6.3h11.25a.75.75 0 0 0 .6-.3l1.125-1.5a.75.75 0 0 0-.6-1.2zm12 0l-.75-12h-9l-.75 12m.333-4.5h9.834"/><path class="cls-1" d="M20.25 3.747a1.5 1.5 0 0 0 0-3H3.75a1.5 1.5 0 0 0 0 3m0 19.5c0 .15 3-2.388 3-7.5m13.5 7.5c0 .15-3-2.388-3-7.5"/></svg>