<svg xmlns="http://www.w3.org/2000/svg" viewBox="0 0 24 24" width="24" height="24"><g fill="none" stroke="#000" stroke-linejoin="round" stroke-miterlimit="10"><path stroke-linecap="round" d="M7.5 11a2.5 2.5 0 105 0 2.5 2.5 0 105 0 2.5 2.5 0 003.25 2.386 2.003 2.003 0 00.814-3.323L12.5.5l-9.195 9.61a2.001 2.001 0 00.627 3.151A2.5 2.5 0 007.5 11"/><path d="M12.5 24V.5"/><path stroke-linecap="round" d="M21.5 16.016l-1 4.484h-5v2.984m-12-7.468l1 4.484h5v2.984M7.5 11l5-10.5m5 10.5L12.5.5m-8 20v3m16-3v3"/></g><path fill="none" d="M0 0h24v24H0z"/></svg>