<svg xmlns="http://www.w3.org/2000/svg" viewBox="0 0 24 24" width="24" height="24"><g fill="none" stroke="#000" stroke-linejoin="round" stroke-miterlimit="10"><path stroke-linecap="round" d="M11.5 21v-3.5"/><path d="M17.5 16.5c0 .554-.447 1-1 1h-10a1 1 0 01-1-1V15c0-.551.448-1 1-1 3.444-.666 6.777-.666 10 0a1 1 0 011 1v1.5zm0-1h2l1-6m-2 0h4c0-1.1-.9-2-2-2s-2 .9-2 2zm-13 6h-2l-1-6m2 0h-4c0-1.1.9-2 2-2s2 .9 2 2z"/><path d="M8 13.5s-2.504-7-2.5-8C5.51 3.004 7.822.786 10.453.547a11.659 11.659 0 012.094 0C15.185.787 17.5 2.996 17.5 5.5c0 1-2.5 8-2.5 8"/><circle stroke-linecap="round" cx="11.5" cy="22.5" r="1"/><circle stroke-linecap="round" cx="16.5" cy="22.5" r="1"/><circle stroke-linecap="round" cx="6.5" cy="22.5" r="1"/><path stroke-linecap="round" d="M6.5 21.5s1.5-2 5-2 5 2 5 2"/></g><path fill="none" d="M0 0h24v24H0z"/></svg>