<svg id="Regular" xmlns="http://www.w3.org/2000/svg" viewBox="0 0 24 24" width="24" height="24"><defs><style>.cls-1{fill:none;stroke:#000;stroke-linecap:round;stroke-linejoin:round;stroke-width:1.5px}</style></defs><title>chair-bar-1</title><path class="cls-1" d="M6 5.264a2.25 2.25 0 0 1 0-4.5h12a2.25 2.25 0 0 1 0 4.5z"/><path class="cls-1" d="M6 5.264l2.25 3h7.5l2.25-3m-1.44 17.972a1.4 1.4 0 0 1-1.352-.927 3.393 3.393 0 0 0-6.416 0 1.4 1.4 0 0 1-1.352.927 1.4 1.4 0 0 1-1.372-1.8A6.2 6.2 0 0 1 12 17.264a6.2 6.2 0 0 1 5.932 4.168 1.4 1.4 0 0 1-1.372 1.8zM12 8.264v9m-1.5-5.25l3-1.5m-3 4.5l3-1.5"/></svg>