<svg id="Regular" xmlns="http://www.w3.org/2000/svg" viewBox="0 0 24 24" width="24" height="24"><defs><style>.cls-1{fill:none;stroke:#000;stroke-linecap:round;stroke-linejoin:round;stroke-width:1.5px}</style></defs><title>champagne-bottle-glass</title><path class="cls-1" d="M10.932 6.228a24.879 24.879 0 0 1-.432-4.617V1.5a.75.75 0 0 0-.75-.75h-1.5a.75.75 0 0 0-.75.75v.111A24.921 24.921 0 0 1 6 10.125a24.921 24.921 0 0 0-1.5 8.514v3.111a1.5 1.5 0 0 0 1.5 1.5h5.25"/><path class="cls-1" d="M10.562 12.531A5.646 5.646 0 0 1 9 12.75a5.47 5.47 0 0 1-3.466-1.213"/><circle class="cls-1" cx="9" cy="18" r="1.5"/><path class="cls-1" d="M7.408 3.75h3.184M15 23.25h3m-1.5 0V19.5m1.664-.481a3.12 3.12 0 0 1-3.328 0 2.815 2.815 0 0 1-1.315-2.719l.8-7.595a.523.523 0 0 1 .529-.457h3.3a.523.523 0 0 1 .529.457l.8 7.595a2.815 2.815 0 0 1-1.315 2.719zm-4.273-6.269h5.218"/></svg>