<svg id="Regular" xmlns="http://www.w3.org/2000/svg" viewBox="0 0 24 24" width="24" height="24"><defs><style>.cls-1{fill:none;stroke:#000;stroke-linecap:round;stroke-linejoin:round;stroke-width:1.5px}</style></defs><title>champagne-cheers</title><path class="cls-1" d="M1.475 21.553l5.522 1.684m-2.761-.842l1.688-5.535m2.4.004a4 4 0 0 1-4.315-1.316 4.169 4.169 0 0 1-.559-4.28l4.214-10.1A.726.726 0 0 1 8.543.75l4.275 1.3a.727.727 0 0 1 .494.842l-2.136 10.732a4.173 4.173 0 0 1-2.852 3.24zM5.679 5.926l6.627 2.021"/><path class="cls-1" d="M7.211 9.047a.372.372 0 0 1 .247.467.379.379 0 0 1-.469.252.372.372 0 0 1-.247-.466.379.379 0 0 1 .469-.252m8.25-.001a.372.372 0 0 1 .247.467.379.379 0 0 1-.469.252.372.372 0 0 1-.247-.467.379.379 0 0 1 .469-.252m2.25 2.253a.372.372 0 0 1 .247.467.379.379 0 0 1-.469.252.372.372 0 0 1-.247-.467.379.379 0 0 1 .469-.252m-1.5 2.247a.372.372 0 0 1 .247.467.379.379 0 0 1-.469.252.372.372 0 0 1-.247-.467.379.379 0 0 1 .469-.252m-7.5-2.247a.372.372 0 0 1 .247.467.379.379 0 0 1-.469.252.372.372 0 0 1-.247-.467.379.379 0 0 1 .469-.252m-2.25 2.247a.372.372 0 0 1 .247.467.379.379 0 0 1-.469.252.372.372 0 0 1-.247-.467.379.379 0 0 1 .469-.252m10.534 9.734l5.53-1.657m-2.765.829l-1.661-5.544"/><path class="cls-1" d="M15.062.935l.575-.172a.726.726 0 0 1 .877.427l4.165 10.117a4.171 4.171 0 0 1-.579 4.277 4.006 4.006 0 0 1-4.322 1.3 4.141 4.141 0 0 1-2.313-1.845m2.34-8.285l2.671-.8"/></svg>