<svg id="Regular" xmlns="http://www.w3.org/2000/svg" viewBox="0 0 24 24" width="24" height="24"><defs><style>.cls-1{fill:none;stroke:#000;stroke-linecap:round;stroke-linejoin:round;stroke-width:1.5px}</style></defs><title>champagne-glass</title><path class="cls-1" d="M9 23.25h6m-3 0v-6m2.344-.71a4.223 4.223 0 0 1-4.688 0A4.225 4.225 0 0 1 7.8 12.53L8.931 1.424A.751.751 0 0 1 9.678.75h4.644a.751.751 0 0 1 .747.674L16.2 12.53a4.225 4.225 0 0 1-1.856 4.01zM8.39 6.75h7.22"/><path class="cls-1" d="M10.875 9a.375.375 0 1 1-.375.375.375.375 0 0 1 .375-.375m0 4.5a.375.375 0 1 1-.375.375.375.375 0 0 1 .375-.375m2.25-2.25a.375.375 0 1 1-.375.375.375.375 0 0 1 .375-.375"/></svg>