<svg id="Regular" xmlns="http://www.w3.org/2000/svg" viewBox="0 0 24 24" width="24" height="24"><defs><style>.cls-1{fill:none;stroke:#000;stroke-linecap:round;stroke-linejoin:round;stroke-width:1.5px}</style></defs><title>champagne-bottle</title><path class="cls-1" d="M15 10.125a24.921 24.921 0 0 1-1.5-8.514V1.5a.75.75 0 0 0-.75-.75h-1.5a.75.75 0 0 0-.75.75v.111A24.921 24.921 0 0 1 9 10.125a24.921 24.921 0 0 0-1.5 8.514v3.111a1.5 1.5 0 0 0 1.5 1.5h6a1.5 1.5 0 0 0 1.5-1.5v-3.111a24.921 24.921 0 0 0-1.5-8.514zm.466 1.412a5.558 5.558 0 0 1-6.932 0"/><circle class="cls-1" cx="12" cy="18" r="1.5"/><path class="cls-1" d="M10.408 3.75h3.184"/></svg>