<svg xmlns="http://www.w3.org/2000/svg" viewBox="0 0 24 24" width="24" height="24"><g fill="none" stroke="#000" stroke-linecap="round" stroke-linejoin="round" stroke-miterlimit="10"><path d="M8.055.5c.693 1.191 1.969 2 3.445 2s2.752-.809 3.445-2h-6.89zm3.445 2V16m-10-5.5v1c0 2.762 2.238 5 5 5s5-2.238 5-5V10"/><path d="M5.5 8v1.5a3 3 0 106 0M2.5 8a1 1 0 11-2 0c0-.552 1-2 1-2s1 1.448 1 2zm4-2.5a1 1 0 11-2 0c0-.552 1-2 1-2s1 1.448 1 2zm15 5v1c0 2.762-2.238 5-5 5s-5-2.238-5-5V10"/><path d="M17.5 8v1.5a3 3 0 11-6 0m9-1.5a1 1 0 102 0c0-.552-1-2-1-2s-1 1.448-1 2zm-4-2.5a1 1 0 102 0c0-.552-1-2-1-2s-1 1.448-1 2zm-4 13a1 1 0 10-2 0c0 .553 1 2 1 2s1-1.447 1-2zm5 3a1 1 0 10-2 0c0 .553 1 2 1 2s1-1.447 1-2zm-1-3.5v1m-11 2.5a1 1 0 112 0c0 .553-1 2-1 2s-1-1.447-1-2zm1-3.5v1"/></g><path fill="none" d="M0 0h24v24H0z"/></svg>