<svg xmlns="http://www.w3.org/2000/svg" viewBox="0 0 24 24" width="24" height="24"><path fill="none" stroke="#000" stroke-linejoin="round" stroke-miterlimit="10" d="M17.5 6V1l-4.105 2.562c2.678.251 3.673 1.25 4.105 2.438zm-11 0V1l4.105 2.562C7.928 3.813 6.932 4.812 6.5 6z"/><path fill="none" stroke="#000" stroke-linecap="round" stroke-linejoin="round" stroke-miterlimit="10" d="M13.778 6.482A2 2 0 0115.5 5.5m-5.278.982A2 2 0 008.5 5.5"/><path fill="none" stroke="#000" stroke-linejoin="round" stroke-miterlimit="10" d="M19.189 11.15C17.26 11.991 14.75 12.5 12 12.5s-5.27-.509-7.189-1.35c.219-.45.459-.84.689-1.15.05-.06.09-.13.13-.19C7.26 10.55 9.51 11 12 11s4.74-.45 6.37-1.19c.04.06.08.13.13.19.23.3.47.69.689 1.15z"/><path fill="none" stroke="#000" stroke-linecap="round" stroke-linejoin="round" stroke-miterlimit="10" d="M23.5 7A1.5 1.5 0 0122 8.5h-1.5a1.5 1.5 0 110-3H22A1.5 1.5 0 0123.5 7zm-3.197 7.446a2.728 2.728 0 002.197-2.675V8.5h-3l-.74 1.821M.5 7A1.5 1.5 0 002 8.5h1.5a1.5 1.5 0 100-3H2A1.5 1.5 0 00.5 7zm3.198 7.446A2.727 2.727 0 011.5 11.771V8.5h3l.74 1.821"/><path fill="none" stroke="#000" stroke-linejoin="round" stroke-miterlimit="10" d="M12 23.5h1.535a7 7 0 005.517-2.692c2.676-3.427.927-8.836-.552-10.808C17 8 19.501 3.5 12 3.5 4.5 3.5 7 8 5.5 10c-1.481 1.975-3.236 7.37-.552 10.808a7 7 0 005.517 2.692H12"/><circle fill="none" stroke="#000" stroke-linecap="round" stroke-linejoin="round" stroke-miterlimit="10" cx="12" cy="14.5" r="2"/><path fill="none" stroke="#000" stroke-linecap="round" stroke-linejoin="round" stroke-miterlimit="10" d="M15 7.5l1.5-.5M15 9h1.5M9 7.5L7.5 7M9 9H7.5"/><path d="M12 7a.5.5 0 100 1 .5.5 0 000-1z"/><path fill="none" d="M0 0h24v24H0z"/></svg>