<svg xmlns="http://www.w3.org/2000/svg" viewBox="0 0 24 24" width="24" height="24"><defs><style>.a{fill:none;stroke:#000;stroke-linecap:round;stroke-linejoin:round;stroke-width:1.5px}</style></defs><title>charging-cable</title><path class="a" d="M2.25.75h4.5v4.5h-4.5zm6 4.5H.75v4.5a1.5 1.5 0 0 0 1.5 1.5h4.5a1.5 1.5 0 0 0 1.5-1.5zm10.5-1.5h3v3h-3zm4.5 3h-6v3a1.5 1.5 0 0 0 1.5 1.5h3a1.5 1.5 0 0 0 1.5-1.5zm-3 4.5v4.125a7.875 7.875 0 0 1-15.75 0V11.25"/><circle class="a" cx="12" cy="18" r="5.25"/><path class="a" d="M13.5.75L12 2.25l2.25 1.5-1.5 1.5"/></svg>