<svg xmlns="http://www.w3.org/2000/svg" viewBox="0 0 24 24" width="24" height="24"><defs><style>.a{fill:none;stroke:#000;stroke-linecap:round;stroke-linejoin:round;stroke-width:1.5px}</style></defs><title>charging-battery-eco</title><path class="a" d="M13.5 18H18a1.5 1.5 0 0 0 1.5-1.5V15H21a1.5 1.5 0 0 0 1.5-1.5V12a1.5 1.5 0 0 0-1.5-1.5h-1.5V9A1.5 1.5 0 0 0 18 7.5h-1.5m-11.25 0H3A1.5 1.5 0 0 0 1.5 9v7.5A1.5 1.5 0 0 0 3 18h2.25m3.971-3.2s2.514.629 3.772-1.257S12.75 7.5 14.25 6c-3.772 0-6.65 1.733-7.544 4.4-.628 1.887 0 3.772 2.515 4.4zm.529-3.55A7.194 7.194 0 0 0 8.25 18"/></svg>