<svg xmlns="http://www.w3.org/2000/svg" viewBox="0 0 24 24" width="24" height="24"><defs><style>.a{fill:none;stroke:#000;stroke-linecap:round;stroke-linejoin:round;stroke-width:1.5px}</style></defs><title>charging-flash-wave</title><path class="a" d="M13.535 5.25l-5.911 6.882a.375.375 0 0 0 .286.618h2.625v6l5.91-6.882a.375.375 0 0 0-.285-.618h-2.625zm-8.285-.6a8.253 8.253 0 0 0 0 14.7m1.5-12.094a5.252 5.252 0 0 0 0 9.489m12-12.095a8.252 8.252 0 0 1 0 14.7m-1.5-12.094a5.252 5.252 0 0 1 0 9.489"/></svg>