<svg xmlns="http://www.w3.org/2000/svg" viewBox="0 0 24 24" width="24" height="24"><defs><style>.a{fill:none;stroke:#000;stroke-linecap:round;stroke-linejoin:round;stroke-width:1.5px}</style></defs><title>charging-light-idea</title><path class="a" d="M13.5 6.759l-5.36 5.36a.375.375 0 0 0 .265.64h2.1v4.5l5.36-5.36a.375.375 0 0 0-.265-.64h-2.1z"/><path class="a" d="M12 .759v1.625a1.5 1.5 0 0 0 1.277 1.473A8.247 8.247 0 1 1 9 4.321m-7.875 7.313a.375.375 0 1 0 .375.375.375.375 0 0 0-.375-.375m3.185 7.689a.375.375 0 1 0 .375.375.375.375 0 0 0-.375-.375m0-15.379a.375.375 0 1 0 .375.375.375.375 0 0 0-.375-.375m15.38 0a.375.375 0 1 0 .375.375.375.375 0 0 0-.375-.375M12 22.509a.375.375 0 1 0 .375.375.375.375 0 0 0-.375-.375m10.875-10.875a.375.375 0 1 0 .375.375.375.375 0 0 0-.375-.375m-3.185 7.689a.375.375 0 1 0 .375.375.375.375 0 0 0-.375-.375"/></svg>