<svg xmlns="http://www.w3.org/2000/svg" viewBox="0 0 24 24" width="24" height="24"><defs><style>.a{fill:none;stroke:#000;stroke-linecap:round;stroke-linejoin:round;stroke-width:1.5px}</style></defs><title>charging-battery-cable-1</title><path class="a" d="M17.251 14.251A2.25 2.25 0 0 0 19.5 12v-.75H21a1.5 1.5 0 0 0 1.5-1.5v-1.5a1.5 1.5 0 0 0-1.5-1.5h-1.5V6a2.25 2.25 0 0 0-2.25-2.25H3.751A2.25 2.25 0 0 0 1.5 6v6a2.251 2.251 0 0 0 2.25 2.25"/><path class="a" d="M11.251 17.251h-1.5a3 3 0 0 1-3-3V12a.75.75 0 0 1 .75-.75h6a.75.75 0 0 1 .75.75v2.25a3 3 0 0 1-3 3.001zm-.75 0v3m-2.25-9v-4.5m4.5 4.5v-4.5"/></svg>