<svg xmlns="http://www.w3.org/2000/svg" viewBox="0 0 24 24" width="24" height="24"><defs><style>.a{fill:none;stroke:#000;stroke-linecap:round;stroke-linejoin:round;stroke-width:1.5px}</style></defs><title>charging-wireless-charging</title><path class="a" d="M5.467 12.71l10.444-2.566a1.955 1.955 0 0 1 2.365 1.432l1.167 4.748a1.955 1.955 0 0 1-1.432 2.366L7.568 21.256a1.956 1.956 0 0 1-2.366-1.433l-1.168-4.75a1.955 1.955 0 0 1 1.433-2.362zM12 8.25V.75M.75 8.25a7.5 7.5 0 0 1 7.5-7.5m-4.5 7.5a4.5 4.5 0 0 1 4.5-4.5m15 4.5a7.5 7.5 0 0 0-7.5-7.5m4.5 7.5a4.5 4.5 0 0 0-4.5-4.5m1.299 6.45a7.5 7.5 0 0 0-11.966 2.646m1.878 8.459a7.5 7.5 0 0 0 12.255-3.5M6.961 12.341l2.153 8.532"/></svg>