<svg xmlns="http://www.w3.org/2000/svg" viewBox="0 0 24 24" width="24" height="24"><defs><style>.a{fill:none;stroke:#000;stroke-linecap:round;stroke-linejoin:round;stroke-width:1.5px}</style></defs><title>chat-translate</title><path class="a" d="M4.5 8.25v-3a1.5 1.5 0 0 1 3 0v3m-3-1.5h3m9 3.75V12m-3 0h6M18 12s-1.5 4.5-4.5 4.5m3-1.733a3.932 3.932 0 0 0 3 1.733"/><path class="a" d="M11.25 18.75a1.5 1.5 0 0 1-1.5-1.5v-7.5a1.5 1.5 0 0 1 1.5-1.5h10.5a1.5 1.5 0 0 1 1.5 1.5v7.5a1.5 1.5 0 0 1-1.5 1.5h-1.5v4.5l-4.5-4.5z"/><path class="a" d="M6.75 12.75l-3 3v-4.5h-1.5a1.5 1.5 0 0 1-1.5-1.5v-7.5a1.5 1.5 0 0 1 1.5-1.5h10.5a1.5 1.5 0 0 1 1.5 1.5v3"/></svg>