<svg xmlns="http://www.w3.org/2000/svg" viewBox="0 0 24 24" width="24" height="24"><g fill="none" stroke="#000" stroke-linecap="round" stroke-linejoin="round" stroke-miterlimit="10"><path d="M3.5 6.5h12v17h-12z"/><path d="M3.5 16.5h-3v-13a3 3 0 113 3v-2h2.792"/><path d="M15.5 6.5a3 3 0 100-6h-12m6 10h4m-4 4h4m-4 4h4m-8-8.5l.5.5 2-2M5.5 14l.5.5 2-2M23.5 22a1.5 1.5 0 11-3 0V7.5a1.5 1.5 0 013 0V22zm-3-.5h3m-3-7h3"/><path d="M18.5 16V8.5A1.5 1.5 0 0120 7h.586"/></g><path fill="none" d="M0 0h24v24H0z"/></svg>