<svg xmlns="http://www.w3.org/2000/svg" viewBox="0 0 24 24" width="24" height="24"><path fill="none" stroke="#000" stroke-linejoin="round" stroke-miterlimit="10" d="M21.5 4.5a2 2 0 00-2-2h-16a2 2 0 00-2 2v16a2 2 0 002 2h16a2 2 0 002-2v-16zm-15 18v-20m5 20v-20m5 20v-20m-15 5h20m-20 5h20m-20 5h20"/><path d="M4 19a1 1 0 100 2 1 1 0 000-2zm5-5a1 1 0 100 2 1 1 0 000-2zM4 9a1 1 0 100 2 1 1 0 000-2zm5-5a1 1 0 100 2 1 1 0 000-2zm10 0a1 1 0 100 2 1 1 0 000-2zm-5 5a1 1 0 100 2 1 1 0 000-2zm0 10a1 1 0 100 2 1 1 0 000-2zm5-5a1 1 0 100 2 1 1 0 000-2z"/><path fill="none" d="M0 0h24v24H0z"/></svg>