<svg xmlns="http://www.w3.org/2000/svg" viewBox="0 0 24 24" width="24" height="24"><defs><style>.a{fill:none;stroke:#000;stroke-linecap:round;stroke-linejoin:round;stroke-width:1.5px}</style></defs><title>check-payment-sign</title><path class="a" d="M4.5 20.25l1.23-1.079a1.8 1.8 0 0 1 1.594-.371 1.541 1.541 0 0 1 1.151 1.036l.118.412 1.339-.783a1.811 1.811 0 0 1 2.068.181"/><path class="a" d="M4.5 10.5l-2.244-.009a1.5 1.5 0 0 0-1.506 1.5v9.759a1.5 1.5 0 0 0 1.5 1.5h19.5a1.5 1.5 0 0 0 1.5-1.5v-9.759a1.5 1.5 0 0 0-1.5-1.5l-3 .009"/><rect class="a" x="16.5" y="13.5" width="3.75" height="3" rx=".32" ry=".32"/><path class="a" d="M10.393 14.539L6.151 15.6l1.06-4.242 8.782-8.782a2.251 2.251 0 0 1 3.182 0 2.251 2.251 0 0 1 0 3.182zm2.652-9.016l3.182 3.182m0-6.364L15.166 1.28a1.5 1.5 0 0 0-2.121 0L9.863 4.462m9.312-1.887L21 .75"/></svg>