<svg xmlns="http://www.w3.org/2000/svg" viewBox="0 0 24 24" width="24" height="24"><defs><style>.a{fill:none;stroke:#000;stroke-linecap:round;stroke-linejoin:round;stroke-width:1.5px}</style></defs><title>check-payment-give</title><path class="a" d="M15.75 18v.75A2.25 2.25 0 0 1 13.5 21H3.75a3 3 0 0 1-2.684-1.658M3.75 15h1.5a3 3 0 0 0 3-3h2.25a2.25 2.25 0 0 0 0-4.5H3.75a3 3 0 0 0-3 3"/><path class="a" d="M5.25 7.5v-3A1.5 1.5 0 0 1 6.75 3h15a1.5 1.5 0 0 1 1.5 1.5v9a1.5 1.5 0 0 1-1.5 1.5h-12m9 0a3 3 0 0 1-3 3h-6m6-10.5h7.5m-6 3h3"/></svg>