<svg xmlns="http://www.w3.org/2000/svg" viewBox="0 0 24 24" width="24" height="24"><path d="M7.5 4a.5.5 0 100 1 .5.5 0 000-1zm2-1a.5.5 0 100 1 .5.5 0 000-1zm5 0a.5.5 0 100 1 .5.5 0 000-1zM12 4a.5.5 0 100 1 .5.5 0 000-1zm4.542 0a.5.5 0 100 1 .5.5 0 000-1z"/><path fill="none" stroke="#000" stroke-linecap="round" stroke-linejoin="round" stroke-miterlimit="10" d="M12 16.5l6 3 3-3"/><path fill="none" stroke="#000" stroke-linecap="round" stroke-linejoin="round" stroke-miterlimit="10" d="M23.5 18.5a2 2 0 01-2 2h-19a2 2 0 010-4h19a2 2 0 012 2zm-2-6a2 2 0 110 4h-19a2 2 0 010-4m0 8v1a2 2 0 002 2h15a2 2 0 002-2v-1h-19zm19-11c0-5.247-4.254-9-9.5-9-5.247 0-9.5 3.753-9.5 9h19z"/><path fill="none" stroke="#000" stroke-linecap="round" stroke-linejoin="round" stroke-miterlimit="10" d="M2.5 9.5s-2 .395-2 1.5c0 1.104.896 1.5 2 1.5.533 0 1.142-.161 1.5-.5.511.923 1.368 1.5 2.5 1.5 1.23 0 2.037-.439 2.5-1.5.462 1.061 1.769 1.5 3 1.5 1.23 0 2.537-.439 3-1.5.462 1.061 1.269 1.5 2.5 1.5 1.131 0 1.988-.577 2.5-1.5.358.339.967.5 1.5.5 1.105 0 2-.396 2-1.5 0-1.105-2-1.5-2-1.5"/><path fill="none" d="M0 0h24v24H0z"/></svg>