<svg xmlns="http://www.w3.org/2000/svg" viewBox="0 0 24 24" width="24" height="24"><g fill="none" stroke="#000" stroke-linecap="round" stroke-linejoin="round" stroke-miterlimit="10"><path d="M19.998 21.922a1.5 1.5 0 01-1.499 1.578H5.661a1.499 1.499 0 01-1.498-1.578L5.081 4.5h14l.917 17.422z"/><circle cx="7.581" cy="8" r=".5"/><circle cx="10.581" cy="8" r=".5"/><circle cx="13.581" cy="8" r=".5"/><circle cx="16.581" cy="8" r=".5"/><circle cx="9.081" cy="11" r=".5"/><circle cx="12.081" cy="11" r=".5"/><circle cx="15.081" cy="11" r=".5"/><circle cx="9.081" cy="17" r=".5"/><circle cx="12.081" cy="17" r=".5"/><circle cx="15.081" cy="17" r=".5"/><circle cx="7.581" cy="14" r=".5"/><circle cx="10.581" cy="14" r=".5"/><circle cx="13.581" cy="14" r=".5"/><circle cx="16.581" cy="14" r=".5"/><circle cx="7.581" cy="20" r=".5"/><circle cx="10.581" cy="20" r=".5"/><circle cx="13.581" cy="20" r=".5"/><circle cx="16.581" cy="20" r=".5"/><path d="M19.081 4.5a4 4 0 00-4-4h-6a4 4 0 00-4 4h14z"/></g><path fill="none" d="M0 0h24v24H0z"/></svg>