<svg id="Regular" xmlns="http://www.w3.org/2000/svg" viewBox="0 0 24 24" width="24" height="24"><defs><style>.cls-1{fill:none;stroke:#000;stroke-linecap:round;stroke-linejoin:round;stroke-width:1.5px}</style></defs><title>chef-gear-cookie-bowl</title><path class="cls-1" d="M23.25 12.75c0 5.8-5.037 10.5-11.25 10.5S.75 18.549.75 12.75zM15.149 5.3A7.5 7.5 0 1 0 2.25 12.75"/><path class="cls-1" d="M6 4.125a.375.375 0 1 1-.375.375A.375.375 0 0 1 6 4.125m5.25 5.25a.375.375 0 1 1-.375.375.375.375 0 0 1 .375-.375m-6.75-.75A.375.375 0 1 1 4.125 9a.375.375 0 0 1 .375-.375"/><path class="cls-1" d="M21.75 12.75a7.576 7.576 0 0 0-.15-1.5A5.251 5.251 0 0 1 16.5 6c0-.135 0-.269.015-.4a7.5 7.5 0 0 0-9.765 7.15"/></svg>