<svg id="Regular" xmlns="http://www.w3.org/2000/svg" viewBox="0 0 24 24" width="24" height="24"><defs><style>.cls-1{fill:none;stroke:#000;stroke-linecap:round;stroke-linejoin:round;stroke-width:1.5px}</style></defs><title>chef-gear-taco-plate</title><ellipse class="cls-1" cx="4.5" cy="2.25" rx="3.75" ry="1.5"/><path class="cls-1" d="M8.25 2.25c0 2.9-1.679 4.5-3.75 4.5S.75 5.149.75 2.25m9.75 16.5a.751.751 0 0 1-.741-.874 5.251 5.251 0 0 1 10.355 0 .75.75 0 0 1-.74.874zm1.888-9.27a.537.537 0 0 1-.336-.746 3.75 3.75 0 0 1 7.109 2.041.535.535 0 0 1-.68.454z"/><path class="cls-1" d="M13.744 13.637a5.251 5.251 0 0 0-9.984 1.239.752.752 0 0 0 .741.874h6.128"/><path class="cls-1" d="M22.61 14.25a4.4 4.4 0 0 1 .64 2.25c0 3.728-5.037 6.75-11.25 6.75S.75 20.228.75 16.5"/></svg>