<svg id="Regular" xmlns="http://www.w3.org/2000/svg" viewBox="0 0 24 24" width="24" height="24"><defs><style>.cls-1{fill:none;stroke:#000;stroke-linecap:round;stroke-linejoin:round;stroke-width:1.5px}</style></defs><title>chef-gear-gloves</title><path class="cls-1" d="M15.333 15.916l-8.748 4.17.595 1.25a1.385 1.385 0 0 0 1.846.654l6.249-2.979a1.384 1.384 0 0 0 .654-1.845zM14.051 5.2a1.731 1.731 0 0 0-2.025 1.38L11.7 8.292l-1.61-3.377a5.031 5.031 0 0 0-6.34-2.643 4.846 4.846 0 0 0-2.527 6.565l5.362 11.249 8.748-4.17-.922-1.935a1.391 1.391 0 0 1-.11-.855l1.125-5.9A1.731 1.731 0 0 0 14.051 5.2z"/><path class="cls-1" d="M13.653 19.784l.713 1.5a1.385 1.385 0 0 0 1.846.654l6.249-2.979a1.384 1.384 0 0 0 .654-1.845l-.6-1.25"/><path class="cls-1" d="M19.109 17.49l3.41-1.626-.919-1.935a1.391 1.391 0 0 1-.11-.855l1.125-5.9a1.731 1.731 0 1 0-3.4-.649l-.329 1.715-1.61-3.377a5.1 5.1 0 0 0-5.624-2.872"/></svg>