<svg id="Regular" xmlns="http://www.w3.org/2000/svg" viewBox="0 0 24 24" width="24" height="24"><defs><style>.cls-1{fill:none;stroke:#000;stroke-linecap:round;stroke-linejoin:round;stroke-width:1.5px}</style></defs><title>chef-gear-dumplings</title><path class="cls-1" d="M9.264 5.25a1.5 1.5 0 0 1 .118-2.118l2.236-2a1.5 1.5 0 0 1 2 2.236 1.5 1.5 0 1 1-2.236 2 1.5 1.5 0 0 1-2.118-.118zM4.787 11a1.5 1.5 0 0 1-1.776-1.167L2.4 6.9a1.5 1.5 0 0 1 2.937-.614 1.5 1.5 0 0 1 .614 2.936A1.5 1.5 0 0 1 4.787 11zm2.736 6.744a1.5 1.5 0 0 1-1.894.957l-2.85-.936a1.5 1.5 0 1 1 .937-2.85 1.469 1.469 0 0 1 1.893-.957 1.469 1.469 0 0 1 .957 1.893 1.5 1.5 0 0 1 .957 1.893zm7.213 1.006a1.5 1.5 0 0 1-.118 2.118l-2.236 2a1.5 1.5 0 1 1-2-2.236 1.5 1.5 0 0 1 2.236-2 1.5 1.5 0 0 1 2.118.118zm4.478-5.745a1.5 1.5 0 0 1 1.775 1.162L21.6 17.1a1.5 1.5 0 0 1-2.936.614 1.5 1.5 0 1 1-.614-2.936 1.5 1.5 0 0 1 1.164-1.773zm-2.736-6.749a1.5 1.5 0 0 1 1.893-.956l2.85.936a1.5 1.5 0 1 1-.936 2.85 1.5 1.5 0 1 1-2.85-.936 1.5 1.5 0 0 1-.957-1.894z"/><circle class="cls-1" cx="12" cy="12" r="3"/></svg>