<svg id="Regular" xmlns="http://www.w3.org/2000/svg" viewBox="0 0 24 24" width="24" height="24"><defs><style>.cls-1{fill:none;stroke:#000;stroke-linecap:round;stroke-linejoin:round;stroke-width:1.5px}</style></defs><title>chef-gear-asian-hat</title><path class="cls-1" d="M6.75 22.5l11.176-11.176a.75.75 0 0 1 1.233.267l3.331 8.882a1.5 1.5 0 0 1-1.4 2.027H2.915a1.5 1.5 0 0 1-1.4-2.027l3.377-9a.751.751 0 0 1 1.171-.322L12.75 16.5m7.467-2.089L12.75 22.5m-9.276-7.263L10.5 18.75"/><path class="cls-1" d="M17.805 11.445C17.094 7.028 14.547 1.5 12 1.5c-2.515 0-5.03 5.353-5.778 9.778M12 6.75v9.15"/></svg>