<svg id="Regular" xmlns="http://www.w3.org/2000/svg" viewBox="0 0 24 24" width="24" height="24"><defs><style>.cls-1{fill:none;stroke:#000;stroke-linecap:round;stroke-linejoin:round;stroke-width:1.5px}</style></defs><title>chef-gear-roller-whisk</title><path class="cls-1" d="M15.978 13.5a1.251 1.251 0 0 1-1.006-.506 15.136 15.136 0 0 1-2.222-7.269c0-2.576 1.679-4.664 3.75-4.664s3.75 2.088 3.75 4.664a15.143 15.143 0 0 1-2.221 7.269 1.254 1.254 0 0 1-1.006.506zM16.5 1.061V16.5m1.5 5.25a1.5 1.5 0 0 1-3 0V16.5h3z"/><rect class="cls-1" x="3.75" y="6.75" width="5.25" height="10.5" rx="1" ry="1"/><path class="cls-1" d="M7.5 6.75H5.25l-.563-4.134a1.7 1.7 0 1 1 3.377 0zm0 10.5H5.25l-.563 4.134a1.7 1.7 0 1 0 3.377 0z"/></svg>