<svg id="Regular" xmlns="http://www.w3.org/2000/svg" viewBox="0 0 24 24" width="24" height="24"><defs><style>.cls-1{fill:none;stroke:#000;stroke-linecap:round;stroke-linejoin:round;stroke-width:1.5px}</style></defs><title>chef-gear-pizza</title><circle class="cls-1" cx="12" cy="12" r="11.25"/><circle class="cls-1" cx="12" cy="12" r="8.25"/><path class="cls-1" d="M10.125 7.5A1.874 1.874 0 0 0 8.25 9.375s0 1.125 1.875 1.125S12 9.375 12 9.375A1.874 1.874 0 0 0 10.125 7.5zm3.75 6A1.874 1.874 0 0 0 12 15.375s0 1.125 1.875 1.125 1.875-1.125 1.875-1.125a1.874 1.874 0 0 0-1.875-1.875zm.864-4.448l.689 1.333 1.333-.688M7.06 12.638l.585.469m1.409 2.538l-.538.523"/></svg>