<svg id="Regular" xmlns="http://www.w3.org/2000/svg" viewBox="0 0 24 24" width="24" height="24"><defs><style>.cls-1{fill:none;stroke:#000;stroke-linecap:round;stroke-linejoin:round;stroke-width:1.5px}</style></defs><title>chef-gear-butter</title><path class="cls-1" d="M5.264 11.4C2.524 12.216.75 13.525.75 15c0 2.485 5.037 4.5 11.25 4.5s11.25-2.015 11.25-4.5c0-1.472-1.768-2.779-4.5-3.6"/><rect class="cls-1" x="8.25" y="7.5" width="10.5" height="7.5" rx=".5" ry=".5"/><path class="cls-1" d="M15.75 7.5V5.25A.75.75 0 0 0 15 4.5H6a.75.75 0 0 0-.75.75v6A.75.75 0 0 0 6 12h2.25m7.5-4.5v3m-4.5-3v3"/></svg>