<svg xmlns="http://www.w3.org/2000/svg" viewBox="0 0 24 24" width="24" height="24"><path fill="none" stroke="#000" stroke-linecap="round" stroke-linejoin="round" stroke-miterlimit="10" d="M8.987 17.451L3.096 19C1.535 19.586.5 21.833.5 23.5h23c0-1.667-1.034-3.914-2.596-4.5l-5.891-1.549M11.5 23.5V19"/><path fill="none" stroke="#000" stroke-linecap="round" stroke-linejoin="round" stroke-miterlimit="10" d="M17.5 10.5c1 0 .502 3.5-.883 3.5 0 3-3.232 5-4.617 5s-4.617-2-4.617-5C5.999 14 5.5 10.5 6.5 10.5M6 6.62l.5 3.88s1.5-1 5.5-1 5.5 1 5.5 1l.5-3.88M8.5 4c0-.348.053-.684.146-1.001A2.217 2.217 0 007.25 2.5 2.25 2.25 0 006 6.62m12 0a2.25 2.25 0 00-1.25-4.12c-.531 0-1.014.191-1.397.499.095.317.147.653.147 1.001m-.147-1.001C14.922 1.555 13.585.5 12 .5S9.079 1.555 8.647 2.999m0 0A3.517 3.517 0 008.5 4m7 0c0-.348-.053-.684-.147-1.001"/><path d="M10.5 14c-1 0-1.5 1-1.5 2h3c0-.811-.5-2-1.5-2zm3 0c-1 0-1.5 1.189-1.5 2h3c0-1-.5-2-1.5-2z"/><path fill="none" stroke="#000" stroke-linecap="round" stroke-linejoin="round" stroke-miterlimit="10" d="M9 12c0-.553.447-.5 1-.5s1-.053 1 .5m2 0c0-.553.447-.5 1-.5s1-.053 1 .5"/><path fill="none" d="M0 0h24v24H0z"/></svg>