<svg id="Regular" xmlns="http://www.w3.org/2000/svg" viewBox="0 0 24 24" width="24" height="24"><defs><style>.cls-1{fill:none;stroke:#000;stroke-linecap:round;stroke-linejoin:round;stroke-width:1.5px}</style></defs><title>chef-gear-mug</title><path class="cls-1" d="M12 3.75a3 3 0 0 0-6 0v.094a3 3 0 1 0 2.248 5.5v4.9a1.5 1.5 0 0 0 3 0V9.688A4.6 4.6 0 0 0 12 9.75c2.071 0 3.75-1.343 3.75-3s-1.679-3-3.75-3z"/><path class="cls-1" d="M5.246 9.345C5.159 12.934 3.75 15.82 3.75 18c0 2.25 2.686 5.25 6 5.25s6-3 6-5.25c0-2.22-1.459-5.171-1.5-8.851m1.5-2.399s4.5-1.5 4.5 2.25-4.5 4.5-4.5 9"/></svg>