<svg id="Regular" xmlns="http://www.w3.org/2000/svg" viewBox="0 0 24 24" width="24" height="24"><defs><style>.cls-1{fill:none;stroke:#000;stroke-linecap:round;stroke-linejoin:round;stroke-width:1.5px}</style></defs><title>chef-gear-hat</title><path class="cls-1" d="M5.25 23.25h13.5m1.8-19.35a3.712 3.712 0 0 0-3.49.777 5.224 5.224 0 0 0-10.12 0A3.735 3.735 0 0 0 .871 6.535 3.757 3.757 0 0 0 4.5 11.25a3.637 3.637 0 0 0 .75-.108v7.608a1.5 1.5 0 0 0 1.5 1.5h10.5a1.5 1.5 0 0 0 1.5-1.5v-7.608a3.647 3.647 0 0 0 .75.108 3.751 3.751 0 0 0 1.05-7.35zM9.75 20.25v-4.5m4.5 4.5v-4.5"/></svg>