<svg id="Regular" xmlns="http://www.w3.org/2000/svg" viewBox="0 0 24 24" width="24" height="24"><defs><style>.cls-1{fill:none;stroke:#000;stroke-linecap:round;stroke-linejoin:round;stroke-width:1.5px}</style></defs><title>chef-gear-hat-moustache</title><path class="cls-1" d="M17.25 3a3.7 3.7 0 0 0-1.25.23 4.467 4.467 0 0 0-8 0A3.706 3.706 0 0 0 6.75 3a3.75 3.75 0 0 0 0 7.5v5.25h10.5V10.5a3.75 3.75 0 0 0 0-7.5zM5.936 21.522a3.529 3.529 0 0 0 1.871-1.658A2.251 2.251 0 0 1 12 21c0 1.243-1.5 2.25-3 2.25-3.75 0-3.75-1.5-3.75-1.5zm12.129 0a3.531 3.531 0 0 1-1.872-1.658A2.251 2.251 0 0 0 12 21c0 1.243 1.5 2.25 3 2.25 3.75 0 3.75-1.5 3.75-1.5zM6.75 12.75h10.5m-7.5 0v-1.5m4.5 1.5v-1.5"/></svg>