<svg id="Regular" xmlns="http://www.w3.org/2000/svg" viewBox="0 0 24 24" width="24" height="24"><defs><style>.cls-1{fill:none;stroke:#000;stroke-linecap:round;stroke-linejoin:round;stroke-width:1.5px}</style></defs><title>chess-figures</title><path class="cls-1" d="M15.75 18h5.479a1.5 1.5 0 0 1 1.48 1.253l.521 1.5a1.5 1.5 0 0 1-1.48 1.747H16.5M2.812 18v-1.1A9.159 9.159 0 0 1 6.25 9.75H2.208a1.459 1.459 0 0 1-1.031-2.49l3.7-3.7V1.5l.364.081a7.429 7.429 0 0 1 5.814 7.259v.91c-3.437 3.438.69 8.27.69 8.27m3.347-8.779L14.045 15m6.205 3l-1.592-8.757"/><circle class="cls-1" cx="16.875" cy="6.375" r="3.375"/><path class="cls-1" d="M13.423 20.526l-.5-1.5A1.5 1.5 0 0 0 11.5 18H2.75a1.5 1.5 0 0 0-1.423 1.026l-.5 1.5A1.5 1.5 0 0 0 2.25 22.5H12a1.5 1.5 0 0 0 1.423-1.974z"/></svg>