<svg id="Regular" xmlns="http://www.w3.org/2000/svg" viewBox="0 0 24 24" width="24" height="24"><defs><style>.cls-1{fill:none;stroke:#000;stroke-linecap:round;stroke-linejoin:round;stroke-width:1.5px}</style></defs><title>chess-rook</title><path class="cls-1" d="M19 3V.75m-6.75 16.5h4.5c-1.329-2.659-1.414-6.841-.95-9.75m-3.55 9.75h-4.5c1.33-2.659 1.414-6.843.95-9.753"/><path class="cls-1" d="M5.5 3H19v2.5a2 2 0 0 1-2 2H7.5a2 2 0 0 1-2-2V3zm0 0V.75M12.25 3V.75m8.173 20.783c-.289-.765-1.408-3.344-3.673-4.283h-9c-2.265.939-3.384 3.518-3.673 4.283A1.163 1.163 0 0 0 4 21.95a1.3 1.3 0 0 0 1.3 1.3h13.9a1.3 1.3 0 0 0 1.3-1.3 1.163 1.163 0 0 0-.077-.417z"/></svg>