<svg xmlns="http://www.w3.org/2000/svg" viewBox="0 0 24 24" width="24" height="24"><path d="M12.54 6.619a1.5 1.5 0 00-2.123-2.122l-1.909 1.91V2.529a1.5 1.5 0 10-3 0v3.879L3.629 4.529a1.5 1.5 0 00-2.121 2.122l4 4v3.879a1.5 1.5 0 003 0v-3.88l4.032-4.031zm10.062 9.517a1.503 1.503 0 00.771-1.977 1.503 1.503 0 00-1.977-.77l-2.473 1.088 1.407-3.615a1.5 1.5 0 10-2.796-1.087l-1.406 3.613-1.069-2.432a1.498 1.498 0 00-2.77.059c-.145.37-.137.784.023 1.147l2.276 5.179-1.407 3.614a1.5 1.5 0 102.796 1.088l1.407-3.614 5.218-2.293z" fill="none" stroke="#000" stroke-linejoin="round" stroke-miterlimit="10"/><path fill="none" d="M0 0h24v24H0z"/></svg>