<svg id="Regular" xmlns="http://www.w3.org/2000/svg" viewBox="0 0 24 24" width="24" height="24"><defs><style>.cls-1{fill:none;stroke:#000;stroke-linecap:round;stroke-linejoin:round;stroke-width:1.5px}</style></defs><title>chicken-hatch</title><path class="cls-1" d="M21 14.262a9 9 0 0 1-18 0V13.12a.751.751 0 0 1 1.029-.7l2.262.905a.751.751 0 0 0 .809-.166l1.44-1.441a.751.751 0 0 1 .98-.069l2.03 1.522a.75.75 0 0 0 .9 0l2.03-1.522a.751.751 0 0 1 .98.069l1.376 1.382a.749.749 0 0 0 .916.113l2.112-1.267a.751.751 0 0 1 1.136.641zm-15-4.5v-3a6 6 0 0 1 12 0v3"/><path class="cls-1" d="M20.204 4.512l-2.25 1.5 2.25 1.5m-7.829-2.25a.375.375 0 0 1 .375.375m-.75 0a.375.375 0 0 1 .375-.375m0 .75A.374.374 0 0 1 12 5.637m.75 0a.374.374 0 0 1-.375.375"/></svg>