<svg id="Regular" xmlns="http://www.w3.org/2000/svg" viewBox="0 0 24 24" width="24" height="24"><defs><style>.cls-1{fill:none;stroke:#000;stroke-linecap:round;stroke-linejoin:round;stroke-width:1.5px}</style></defs><title>chick</title><circle class="cls-1" cx="16.125" cy="5.637" r="4.875"/><path class="cls-1" d="M15.594 10.484a7.5 7.5 0 1 1-4.32-5.337M23.25 3.012l-2.363 1.576m.098.665l2.265 1.509m-6.375-2.25a.375.375 0 0 1 .375.375m-.75 0a.375.375 0 0 1 .375-.375m0 .75a.374.374 0 0 1-.375-.375m.75 0a.374.374 0 0 1-.375.375m-4.125 12.75l3 3M5.163 18.85L3 21.012m12.75 2.25v-2.25H18m-17.25 0H3v2.25"/><path class="cls-1" d="M12 12.012a3.75 3.75 0 0 1-7.5 0h3"/></svg>