<svg id="Regular" xmlns="http://www.w3.org/2000/svg" viewBox="0 0 24 24" width="24" height="24"><defs><style>.cls-1,.cls-2{fill:none;stroke:#000;stroke-linecap:round;stroke-linejoin:round;stroke-width:1.5px}.cls-1{fill-rule:evenodd}</style></defs><title>chicken-mother</title><path class="cls-1" d="M7.907 8.024a38.257 38.257 0 0 0 .265-4.262A3 3 0 1 0 4.578 6.7a13.851 13.851 0 0 0-.906 4.559c0 3 2.25 4.5 6 4.5s6.75-2.25 6.75-6a12.4 12.4 0 0 0-8.515-1.735z"/><path class="cls-2" d="M2.256 4.471l-1.584.791M4.8 3.012a.375.375 0 0 1 .375.375m-.753 0a.375.375 0 0 1 .378-.375m0 .75a.374.374 0 0 1-.375-.375m.747 0a.374.374 0 0 1-.375.375"/><path class="cls-1" d="M7.422 11.262s2.25 2.25 4.5.75a3.23 3.23 0 0 0 1.5-3l-.1-.664"/><path class="cls-2" d="M6.132 15.133l-.96 2.879m5.96-2.369l.79 2.369m7.178-.064l4.072.814a2.152 2.152 0 0 1-.75 2.25c-1.5 1.5-3.75 1.5-4.5 0s.75-3 .75-3a1.5 1.5 0 1 0-1.5-1.5h-.75m3 5.585v1.165m2.25-1.656v1.656"/></svg>