<svg id="Regular" xmlns="http://www.w3.org/2000/svg" viewBox="0 0 24 24" width="24" height="24"><defs><style>.cls-1{fill:none;stroke:#000;stroke-linecap:round;stroke-linejoin:round;stroke-width:1.5px}</style></defs><title>chick-1_1</title><path class="cls-1" d="M21 6a5.25 5.25 0 1 0-8.289 4.268A18.55 18.55 0 0 1 9 11.25a16.95 16.95 0 0 1-8.25-.75v3a9.75 9.75 0 0 0 19.5 0 5.462 5.462 0 0 0-1.059-3.564A5.215 5.215 0 0 0 21 6zm2.25-1.5L21 6l2.25 1.5"/><path class="cls-1" d="M8.25 15.75s1.5 3 4.5 2.25a3.957 3.957 0 0 0 3-3.75m.375-9a.375.375 0 0 1 .375.375m-.75 0a.375.375 0 0 1 .375-.375m0 .75a.375.375 0 0 1-.375-.375m.75 0a.375.375 0 0 1-.375.375"/></svg>