<svg id="Regular" xmlns="http://www.w3.org/2000/svg" viewBox="0 0 24 24" width="24" height="24"><defs><style>.cls-1{fill:none;stroke:#000;stroke-linecap:round;stroke-linejoin:round;stroke-width:1.5px}</style></defs><title>chick-1</title><path class="cls-1" d="M13.661.791A6.173 6.173 0 0 0 8.25 7.02v.492a6 6 0 0 1-6 6H.75a9.75 9.75 0 0 0 10.05 9.746A10.021 10.021 0 0 0 20.25 13.1V6.762A6 6 0 0 0 13.661.791z"/><path class="cls-1" d="M15 15.762a3.75 3.75 0 0 1-7.5 0h3m9.75-9a2.938 2.938 0 0 1 3 3h-3m-5.625-3.75a.375.375 0 0 1 .375.375m-.75 0a.375.375 0 0 1 .375-.375m0 .75a.374.374 0 0 1-.375-.375m.75 0a.374.374 0 0 1-.375.375"/></svg>