<svg xmlns="http://www.w3.org/2000/svg" viewBox="0 0 24 24" width="24" height="24"><g fill="none" stroke="#000" stroke-linejoin="round" stroke-miterlimit="10"><path d="M18.369 11.393c-.379-2.724-2.16-3.484-4.751-3.117-2.861.407-5.214 8.02-7.063 10.396-2.021 2.6-4.693 1.798-5.74 1.905a.352.352 0 00-.244.562c.597.794 2.53 2.367 5.686 2.367 4.945 0 12.589-8.682 12.112-12.113z"/><path d="M13.618 8.275s2.952-4.213 5.437-2.619c2.484 1.595-.686 5.736-.686 5.736"/><path stroke-linecap="round" d="M6.555 18.672l2 1m-3 0l.5 1.5M19.129 5.706l3.426-4.503"/></g><path fill="none" d="M0 0h24v24H0z"/></svg>