<svg id="Regular" xmlns="http://www.w3.org/2000/svg" viewBox="0 0 24 24" width="24" height="24"><defs><style>.cls-1{fill:none;stroke:#000;stroke-linecap:round;stroke-linejoin:round;stroke-width:1.5px}</style></defs><title>christmas-tree-top-star</title><path class="cls-1" d="M12.618 7.126l1.346 3.124h2.621a.643.643 0 0 1 .452 1.123L14.763 13.4l1.26 2.9a.686.686 0 0 1-.977.859L12 15.442l-3.045 1.715a.686.686 0 0 1-.977-.859l1.26-2.9-2.275-2.025a.643.643 0 0 1 .45-1.123h2.621l1.349-3.124a.7.7 0 0 1 1.235 0z"/><path class="cls-1" d="M10.242 16.432l-1.231 5.5a.487.487 0 0 0 .234.526 5.192 5.192 0 0 0 5.51 0 .487.487 0 0 0 .234-.526l-1.231-5.5M12 3.685V.75M6.75 6l-1.5-1.5m-1.5 5.25H1.5M17.25 6l1.5-1.5m1.5 5.25h2.25"/></svg>