<svg id="Regular" xmlns="http://www.w3.org/2000/svg" viewBox="0 0 24 24" width="24" height="24"><defs><style>.cls-1{fill:none;stroke:#000;stroke-linecap:round;stroke-linejoin:round;stroke-width:1.5px}</style></defs><title>christmas-star</title><path class="cls-1" d="M7.718 1.517l1.542 4.07h3a.735.735 0 0 1 .518 1.283l-2.6 1.816L11.617 12a.786.786 0 0 1-1.119.982L7.011 11.02l-3.486 1.961A.786.786 0 0 1 2.4 12l1.448-3.314L1.244 6.87a.734.734 0 0 1 .516-1.283h3l1.54-4.07a.8.8 0 0 1 1.418 0zM14.421 11l8.079 3.852a.375.375 0 0 1-.088.706l-6.394 1.279v5.538a.375.375 0 0 1-.684.212l-4.8-7.015"/></svg>