<svg id="Regular" xmlns="http://www.w3.org/2000/svg" viewBox="0 0 24 24" width="24" height="24"><defs><style>.cls-1{fill:none;stroke:#000;stroke-linecap:round;stroke-linejoin:round;stroke-width:1.5px}</style></defs><title>christmas-tree-ornaments-gift</title><path class="cls-1" d="M14.251 16.615l-2.143-3.184a.51.51 0 0 1 .428-.818h1.142a.511.511 0 0 0 .446-.795L10.5 6.75h2.25L8.7.978a.549.549 0 0 0-.891 0L3.751 6.75H6l-4.5 6h3"/><path class="cls-1" d="M4.5 12.75L.858 18.682a.51.51 0 0 0 .429.818H13.5m-5.249 0v3.75M4.91 8.205l6.143-.683m-7.484 6.746l8.539-.837M6.376 10.5a.375.375 0 0 1 .375.375m-.751 0a.375.375 0 0 1 .375-.375m.001.75A.375.375 0 0 1 6 10.875m.751 0a.375.375 0 0 1-.375.375m3.75-1.125a.375.375 0 0 1 .375.375m-.75 0a.375.375 0 0 1 .375-.375m0 .75a.375.375 0 0 1-.375-.375m.749 0a.375.375 0 0 1-.375.375M6.376 16.5a.375.375 0 0 1 .375.375m-.751 0a.375.375 0 0 1 .375-.375m.001.75A.375.375 0 0 1 6 16.875m.751 0a.375.375 0 0 1-.375.375m3.75-.75a.375.375 0 0 1 .375.375m-.75 0a.375.375 0 0 1 .375-.375m0 .75a.375.375 0 0 1-.375-.375m.749 0a.375.375 0 0 1-.375.375"/><rect class="cls-1" x="16.501" y="17.25" width="6" height="6" rx=".5" ry=".5"/><path class="cls-1" d="M19.501 17.25v6m-3-3h6m-3-3l-1.5-2.25m3 0l-1.5 2.25M12 .75c3.717 1.289 8.179 1.98 11.249 1.5m-1.498.153V5.25"/><circle class="cls-1" cx="21.75" cy="6.75" r="1.5"/><path class="cls-1" d="M16.501 1.94v1.81"/><circle class="cls-1" cx="16.501" cy="5.25" r="1.5"/></svg>