<svg id="Regular" xmlns="http://www.w3.org/2000/svg" viewBox="0 0 24 24" width="24" height="24"><defs><style>.cls-1{fill:none;stroke:#000;stroke-linecap:round;stroke-linejoin:round;stroke-width:1.5px}</style></defs><title>christmas-snow-globe</title><path class="cls-1" d="M4.655 18.754a10.5 10.5 0 1 1 14.7-.007m.145.003h-15l-1.445 2.168A1.5 1.5 0 0 0 4.3 23.25h15.4a1.5 1.5 0 0 0 1.248-2.332z"/><path class="cls-1" d="M7.5 14.25l4.5-4.5 4.5 4.5M8.25 5.625A.375.375 0 0 1 8.625 6m-.75 0a.375.375 0 0 1 .375-.375m0 .75A.375.375 0 0 1 7.875 6m.75 0a.375.375 0 0 1-.375.375m-3 4.5a.375.375 0 0 1 .375.375m-.75 0a.375.375 0 0 1 .375-.375m0 .75a.375.375 0 0 1-.375-.375m.75 0a.375.375 0 0 1-.375.375m10.5-4.5a.375.375 0 0 1 .375.375m-.75 0a.375.375 0 0 1 .375-.375m0 .75a.375.375 0 0 1-.375-.375m.75 0a.375.375 0 0 1-.375.375m-3-3.75a.375.375 0 0 1 .375.375m-.75 0a.375.375 0 0 1 .375-.375m0 .75a.375.375 0 0 1-.375-.375m.75 0a.375.375 0 0 1-.375.375m6.75 5.25a.375.375 0 0 1 .375.375m-.75 0a.375.375 0 0 1 .375-.375m0 .75a.375.375 0 0 1-.375-.375m.75 0a.375.375 0 0 1-.375.375M9 12.75v6m6-6v6"/></svg>