<svg id="Regular" xmlns="http://www.w3.org/2000/svg" viewBox="0 0 24 24" width="24" height="24"><defs><style>.cls-1{fill:none;stroke:#000;stroke-linecap:round;stroke-linejoin:round;stroke-width:1.5px}</style></defs><title>christmas-bells</title><path class="cls-1" d="M8.618 8.87a4.568 4.568 0 0 0-3.913 2.652l-1.211 2.74a2.693 2.693 0 0 1-1.729 1.576 1.349 1.349 0 0 0-.9.752 1.43 1.43 0 0 0 .785 1.854l8.943 3.956a1.429 1.429 0 0 0 1.9-.668 1.343 1.343 0 0 0-.053-1.175 2.7 2.7 0 0 1 0-2.339l.724-1.637m-5.788 4.396a1.974 1.974 0 1 1-3.054-1.35m11.351 1.162l6.64-2.57a1.466 1.466 0 0 0-.054-2.755 2.951 2.951 0 0 1-1.7-1.784l-1.068-2.759A5.3 5.3 0 0 0 17.17 8.23m2.578 10.982a1.962 1.962 0 1 1-3.419 1.323M11.184 3.182L9.215 1.446A2.929 2.929 0 0 0 7.279.75a2.579 2.579 0 0 0-2.71 2.426v2.68a2.587 2.587 0 0 0 2.745 2.4 2.933 2.933 0 0 0 1.928-.716l1.031-.921"/><circle class="cls-1" cx="12.067" cy="5.252" r="2.25"/><path class="cls-1" d="M9.946 4.5H7.565m6.623 0h2.377m-1.147 3.405l1.511 5.133a.285.285 0 0 1-.385.343l-1.321-.557a.287.287 0 0 0-.349.1l-.686 1.031a.286.286 0 0 1-.509-.068l-1.256-3.767a.286.286 0 0 0-.542 0l-1.257 3.771a.283.283 0 0 1-.232.192.287.287 0 0 1-.276-.124l-.687-1.031a.286.286 0 0 0-.348-.1l-1.321.557a.285.285 0 0 1-.385-.343l1.572-5.275"/><path class="cls-1" d="M12.95 3.182l1.97-1.736a2.925 2.925 0 0 1 1.935-.7 2.578 2.578 0 0 1 2.71 2.426l-.005 2.68a2.587 2.587 0 0 1-2.745 2.4 2.928 2.928 0 0 1-1.927-.716l-1.032-.921"/></svg>