<svg id="Regular" xmlns="http://www.w3.org/2000/svg" viewBox="0 0 24 24" width="24" height="24"><defs><style>.cls-1{fill:none;stroke:#000;stroke-linecap:round;stroke-linejoin:round;stroke-width:1.5px}</style></defs><title>christmas-bells-1</title><path class="cls-1" d="M8.762 8.873a4.582 4.582 0 0 0-4.057 2.661l-1.211 2.739a2.7 2.7 0 0 1-1.729 1.577 1.345 1.345 0 0 0-.9.751 1.43 1.43 0 0 0 .785 1.854l8.948 3.955a1.429 1.429 0 0 0 1.9-.667 1.343 1.343 0 0 0-.053-1.175 2.7 2.7 0 0 1 0-2.34l1.124-2.542A4.85 4.85 0 0 0 11.6 9.6M7.376 20.988a1.974 1.974 0 1 1-3.054-1.349M15.673 20.8l6.64-2.569a1.466 1.466 0 0 0-.054-2.755 2.955 2.955 0 0 1-1.7-1.785l-1.068-2.759a5.3 5.3 0 0 0-2.414-2.761m2.671 11.052a1.962 1.962 0 1 1-3.419 1.323"/><circle class="cls-1" cx="14.25" cy="8.25" r="2.25"/><path class="cls-1" d="M12.241 9.262a2.573 2.573 0 0 1-1.384.484 2.526 2.526 0 0 1-2.272-1.114 2.147 2.147 0 0 1 .888-3.076 2.618 2.618 0 0 1 3.166.546c.039.045.231.3.266.345"/><path class="cls-1" d="M8.585 8.632L4.5 7.5V5.25L3 3.79V.75h3.853l1.397 1.5 2.4.009.727 3.075m-2.438.605L7.5 4.5m8.999 3.83L19.5 7.5V5.25L21 3.79V.75h-3.853l-1.397 1.5-2.4.009-.87 3.677m3.115.51L17.25 4.5"/></svg>