<svg id="Regular" xmlns="http://www.w3.org/2000/svg" viewBox="0 0 24 24" width="24" height="24"><defs><style>.cls-1{fill:none;stroke:#000;stroke-linecap:round;stroke-linejoin:round;stroke-width:1.5px}</style></defs><title>christmas-snow</title><path class="cls-1" d="M.75 22.55a13.973 13.973 0 0 1 9.278-.821l4.163 1.079a13.769 13.769 0 0 0 9.059-.748m0-6.31a10.926 10.926 0 0 0-9.453.669c-1.934 1.091-2.079 1.185-2.616 1.43M4.5 9.75l-3 4.5h1.75L.75 18h7.5l-2.5-3.75H7.5l-3-4.5zm0 8.25v3.453M18 3.75l-3 4.5h1.75L14.25 12h7.5l-2.5-3.75H21l-3-4.5zM18 12v3.049M1.125.75a.375.375 0 0 1 .375.375m-.75 0A.375.375 0 0 1 1.125.75m0 .75a.375.375 0 0 1-.375-.375m.75 0a.375.375 0 0 1-.375.375m5.25 3a.375.375 0 0 1 .375.375m-.75 0a.375.375 0 0 1 .375-.375m0 .75A.375.375 0 0 1 6 4.875m.75 0a.375.375 0 0 1-.375.375m6-4.5a.375.375 0 0 1 .375.375m-.75 0a.375.375 0 0 1 .375-.375m0 .75A.375.375 0 0 1 12 1.125m.75 0a.375.375 0 0 1-.375.375M1.125 8.25a.375.375 0 0 1 .375.375m-.75 0a.375.375 0 0 1 .375-.375m0 .75a.375.375 0 0 1-.375-.375m.75 0A.375.375 0 0 1 1.125 9m9.75 0a.375.375 0 0 1 .375.375m-.75 0A.375.375 0 0 1 10.875 9m0 .75a.375.375 0 0 1-.375-.375m.75 0a.375.375 0 0 1-.375.375m11.25-9a.375.375 0 0 1 .375.375m-.75 0a.375.375 0 0 1 .375-.375m0 .75a.375.375 0 0 1-.375-.375m.75 0a.375.375 0 0 1-.375.375"/></svg>