<svg id="Regular" xmlns="http://www.w3.org/2000/svg" viewBox="0 0 24 24" width="24" height="24"><defs><style>.cls-1{fill:none;stroke:#000;stroke-linecap:round;stroke-linejoin:round;stroke-width:1.5px}</style></defs><title>christmas-tree-top</title><path class="cls-1" d="M6.898 17.381l7.526-3.763M5.66 23.25l11.121-5.56M11.314 1.018a.489.489 0 0 1 .872 0L13.2 3.06a.485.485 0 0 0 .365.263l2.272.328a.483.483 0 0 1 .391.325.474.474 0 0 1-.121.489l-1.65 1.6a.476.476 0 0 0-.138.421l.389 2.255a.475.475 0 0 1-.194.468.49.49 0 0 1-.514.034l-2.023-1.058a.486.486 0 0 0-.454 0L9.5 9.243a.49.49 0 0 1-.511-.034.475.475 0 0 1-.194-.468l.389-2.255a.476.476 0 0 0-.138-.421L7.4 4.465a.474.474 0 0 1-.121-.489.483.483 0 0 1 .39-.325l2.272-.328a.485.485 0 0 0 .359-.263zM10.013 12L3.5 23.25H20L13.487 12"/></svg>