<svg id="Regular" xmlns="http://www.w3.org/2000/svg" viewBox="0 0 24 24" width="24" height="24"><defs><style>.cls-1{fill:none;stroke:#000;stroke-linecap:round;stroke-linejoin:round;stroke-width:1.5px}</style></defs><title>christmas-mistletoe</title><path class="cls-1" d="M6 15.508l-2.434-.615A.75.75 0 0 1 3 14.166V12.1a.752.752 0 0 0-.266-.574l-1.718-1.449A.752.752 0 0 1 .75 9.5v-3a.75.75 0 0 1 .75-.75h3.349a.75.75 0 0 1 .624.334l1.116 1.675a.75.75 0 0 0 .442.311l2.263.566a.751.751 0 0 1 .552.574l.715 3.144m-3.07.554l-1.829-2.233m9.347 3.667l4.7-1.274a.75.75 0 0 0 .539-.716l.014-2.933a.75.75 0 0 1 .35-.632L22.9 7.353a.75.75 0 0 0 .351-.635V3.5a.75.75 0 0 0-.75-.75h-4.064a.749.749 0 0 0-.632.346l-1.34 2.093a.751.751 0 0 1-.556.341l-2.972.3a.751.751 0 0 0-.661.6l-.585 2.928m4.401.883l1.919-2.78m-6.746 10.007a3 3 0 1 1 .722-1.687m-1.152-2.655a3 3 0 1 1 .83 1"/><circle class="cls-1" cx="14.25" cy="17.75" r="3"/></svg>