<svg id="Regular" xmlns="http://www.w3.org/2000/svg" viewBox="0 0 24 24" width="24" height="24"><defs><style>.cls-1{fill:none;stroke:#000;stroke-linecap:round;stroke-linejoin:round;stroke-width:1.5px}</style></defs><title>christmas-tree-ornaments-1</title><circle class="cls-1" cx="18.75" cy="14.25" r="3.75"/><path class="cls-1" d="M18.75 10.5V3.895M7.5 12.75v-6.6m7.5 8.1h7.5"/><circle class="cls-1" cx="7.5" cy="18" r="5.25"/><path class="cls-1" d="M2.3 18.748c1.174-.017 1.128-1.5 2.315-1.5s1.195 1.5 2.389 1.5 1.2-1.5 2.389-1.5 1.2 1.5 2.393 1.5a1.23 1.23 0 0 0 .961-.467M.75 7.5L23.25 3M2 7.25l2.5 2.5m0-3L6.75 3m1.615 2.977l3.278 3.54m-.476-4.1L12.75 2.25m1.125 2.625L16.5 7.5m-.75-3L18 .75m2.293 2.837L21.75 1.5m-1.457 2.087L22.5 5.25"/></svg>