<svg id="Regular" xmlns="http://www.w3.org/2000/svg" viewBox="0 0 24 24" width="24" height="24"><defs><style>.cls-1{fill:none;stroke:#000;stroke-linecap:round;stroke-linejoin:round;stroke-width:1.5px}</style></defs><title>christmas-sock</title><path class="cls-1" d="M7.992 6.7A.978.978 0 0 0 7.415 8l2.064 4.923a1.467 1.467 0 0 1-.86 1.888l-2.291.857a3.913 3.913 0 0 0-2.294 5.036A3.913 3.913 0 0 0 9.07 23l8.7-3.256a3.423 3.423 0 0 0 2.007-4.406l-1.708-3.578-2.411-6.731a.979.979 0 0 0-1.247-.592z"/><path class="cls-1" d="M8.553 23.155a4.523 4.523 0 0 0 .979-4.505 4.346 4.346 0 0 0-3.482-2.862m12.856-2.279a5.177 5.177 0 0 0-1.813.225 4.4 4.4 0 0 0-2.581 5.666 4.344 4.344 0 0 0 .766 1.28m-.243-16.249V.75"/></svg>