<svg id="Regular" xmlns="http://www.w3.org/2000/svg" viewBox="0 0 24 24" width="24" height="24"><defs><style>.cls-1{fill:none;stroke:#000;stroke-linecap:round;stroke-linejoin:round;stroke-width:1.5px}</style></defs><title>christmas-gift</title><path class="cls-1" d="M.75 15.337a3.913 3.913 0 0 0 3.913 3.913H23.25"/><path class="cls-1" d="M15.75 12.5h-9a1.5 1.5 0 0 0-1.5 1.5v5.25h10.5zm6-2.25h-4.5a1.5 1.5 0 0 0-1.5 1.5v7.5h7.5v-7.5a1.5 1.5 0 0 0-1.5-1.5zm-2.25 0v9m-3.75-4.5h7.5m-7.5-2.25V5.75a1.5 1.5 0 0 0-1.5-1.5h-4.5a1.5 1.5 0 0 0-1.5 1.5v6.75m-3 3.75h10.5M9 12.5v6.75m14.25 3H.75m7.848-3l-1 3m9.804-3l-1 3M12 4.25L9.75 2m4.5 0L12 4.25m7.5 6L18 8m3 0l-1.5 2.25"/></svg>