<svg id="Regular" xmlns="http://www.w3.org/2000/svg" viewBox="0 0 24 24" width="24" height="24"><defs><style>.cls-1{fill:none;stroke:#000;stroke-linecap:round;stroke-linejoin:round;stroke-width:1.5px}</style></defs><title>christmas-lights</title><path class="cls-1" d="M.75 2.326a33.318 33.318 0 0 0 22.5 0M5.694 9.589L2.782 9.22l.185-1.456a1.467 1.467 0 0 1 1.64-1.271 1.467 1.467 0 0 1 1.271 1.64z"/><path class="cls-1" d="M4.465 18.137c-.5.485-.792.892-1.436.811s-.817-.542-1.189-1.148a7.043 7.043 0 0 1 .829-8.6l3.138.4a7.044 7.044 0 0 1-1.342 8.537zm8.513-7.007h-2.935V9.663A1.467 1.467 0 0 1 11.511 8.2a1.467 1.467 0 0 1 1.467 1.467zm-.144 8.635c-.44.545-.674.985-1.323.985s-.878-.434-1.323-.985a7.042 7.042 0 0 1-.258-8.635h3.162a7.044 7.044 0 0 1-.258 8.635zm4.558-10.176L20.3 9.22l-.184-1.456a1.467 1.467 0 0 0-1.64-1.271 1.468 1.468 0 0 0-1.272 1.64z"/><path class="cls-1" d="M18.62 18.137c.506.485.793.892 1.437.811s.816-.542 1.188-1.144a7.043 7.043 0 0 0-.829-8.6l-3.137.4a7.044 7.044 0 0 0 1.341 8.533zm-7.109-9.941V4.283m-6.904 2.21l.395-2.967m13.477 2.967l-.435-2.775"/></svg>