<svg id="Regular" xmlns="http://www.w3.org/2000/svg" viewBox="0 0 24 24" width="24" height="24"><defs><style>.cls-1{fill:none;stroke:#000;stroke-linecap:round;stroke-linejoin:round;stroke-width:1.5px}</style></defs><title>christmas-tree</title><path class="cls-1" d="M21 18.75l-4.5-6h2.25l-4.5-6h3L12 .75l-5.25 6h3l-4.5 6H7.5l-4.5 6h18zm-9 0v4.5m1.125-13.5a.375.375 0 0 1 .375.375m-.75 0a.375.375 0 0 1 .375-.375m0 .75a.375.375 0 0 1-.375-.375m.75 0a.375.375 0 0 1-.375.375M12 4.5a.375.375 0 0 1 .375.375m-.75 0A.375.375 0 0 1 12 4.5m0 .75a.375.375 0 0 1-.375-.375m.75 0A.375.375 0 0 1 12 5.25"/><circle class="cls-1" cx="11.25" cy="14.25" r="1.5"/></svg>