<svg id="Regular" xmlns="http://www.w3.org/2000/svg" viewBox="0 0 24 24" width="24" height="24"><defs><style>.cls-1{fill:none;stroke:#000;stroke-linecap:round;stroke-linejoin:round;stroke-width:1.5px}</style></defs><title>christmas-door-wreath-1</title><path class="cls-1" d="M19.992 19.917a11.249 11.249 0 1 0-16.736-.838M16.055 10a4.155 4.155 0 0 0-8.11 0"/><path class="cls-1" d="M11.1 12.351L9.145 10.61a2.929 2.929 0 0 0-1.935-.7 2.578 2.578 0 0 0-2.71 2.43v2.68a2.586 2.586 0 0 0 2.744 2.4 2.926 2.926 0 0 0 1.933-.72l1.032-.92"/><circle class="cls-1" cx="11.998" cy="14.416" r="2.25"/><path class="cls-1" d="M9.942 13.5H7.5m6.553 0H16.5m-1.144 3.573l1.5 5.129a.285.285 0 0 1-.384.343l-1.322-.557a.285.285 0 0 0-.348.105l-.687 1.03a.283.283 0 0 1-.275.124.286.286 0 0 1-.233-.192l-1.257-3.771a.285.285 0 0 0-.541 0l-1.257 3.771a.286.286 0 0 1-.508.068l-.687-1.03a.285.285 0 0 0-.348-.105l-1.322.557a.285.285 0 0 1-.384-.343l1.537-5.235"/><path class="cls-1" d="M12.866 12.34l1.984-1.73a2.929 2.929 0 0 1 1.936-.7 2.578 2.578 0 0 1 2.714 2.43l-.005 2.68a2.586 2.586 0 0 1-2.744 2.4 2.928 2.928 0 0 1-1.928-.716l-1.031-.92M5.625 6.75A.375.375 0 0 1 6 7.125m-.75 0a.375.375 0 0 1 .375-.375m0 .75a.375.375 0 0 1-.375-.375m.75 0a.375.375 0 0 1-.375.375M12 3.75a.375.375 0 0 1 .375.375m-.75 0A.375.375 0 0 1 12 3.75m0 .75a.375.375 0 0 1-.375-.375m.75 0A.375.375 0 0 1 12 4.5m6.375 2.25a.375.375 0 0 1 .375.375m-.75 0a.375.375 0 0 1 .375-.375m0 .75A.375.375 0 0 1 18 7.125m.75 0a.375.375 0 0 1-.375.375"/></svg>