<svg xmlns="http://www.w3.org/2000/svg" viewBox="0 0 24 24" width="24" height="24"><defs><style>.a{fill:none;stroke:#000;stroke-linecap:round;stroke-linejoin:round;stroke-width:1.5px}</style></defs><title>church</title><path class="a" d="M16.5 22.5h-9V12a4.5 4.5 0 0 1 9 0z"/><path class="a" d="M12 12.375a.375.375 0 1 1 .375-.375.375.375 0 0 1-.375.375M13.5 22.5h-3v-5.25a1.5 1.5 0 0 1 3 0zM12 1.5v6M10.5 3h3M4.125 18.75a.375.375 0 1 0-.375-.375.375.375 0 0 0 .375.375"/><path class="a" d="M.75 21a1.5 1.5 0 0 0 1.5 1.5H7.5v-9l-5.575 1.239A1.5 1.5 0 0 0 .75 16.2zm19.125-2.25a.375.375 0 1 1 .375-.375.375.375 0 0 1-.375.375"/><path class="a" d="M23.25 21a1.5 1.5 0 0 1-1.5 1.5H16.5v-9l5.575 1.239A1.5 1.5 0 0 1 23.25 16.2z"/></svg>