<svg id="Regular" xmlns="http://www.w3.org/2000/svg" viewBox="0 0 24 24" width="24" height="24"><defs><style>.cls-1{fill:none;stroke:#000;stroke-linecap:round;stroke-linejoin:round;stroke-width:1.5px}</style></defs><title>circus-tent</title><path class="cls-1" d="M12 6l4.111-2.141a.751.751 0 0 0 0-1.3L13.122.849A.75.75 0 0 0 12 1.5V6m-8.25 6.75a.75.75 0 0 1-.45-1.35L12 6l8.7 5.4a.75.75 0 0 1-.45 1.35zm14.25 0H6c0 3.342-1.8 6.049-4.339 9.287a.75.75 0 0 0 .589 1.213h19.5a.75.75 0 0 0 .59-1.213C19.8 18.8 18 16.092 18 12.75z"/><path class="cls-1" d="M12.615 16.82a.75.75 0 0 0-1.229 0L6.75 23.25h10.5zM12 16.5v6.75"/></svg>