<svg id="Regular" xmlns="http://www.w3.org/2000/svg" viewBox="0 0 24 24" width="24" height="24"><defs><style>.cls-1{fill:none;stroke:#000;stroke-linecap:round;stroke-linejoin:round;stroke-width:1.5px}</style></defs><title>circus-tent-1</title><path class="cls-1" d="M12.706.779a.749.749 0 0 0-.956.721v3l4.589-1.419a.75.75 0 0 0-.089-1.411zm6.544 9.346a2.564 2.564 0 0 1-2.5 2.625 2.5 2.5 0 0 1-2.289-1.576 3.12 3.12 0 0 1-5.422 0A2.5 2.5 0 0 1 6.75 12.75a2.564 2.564 0 0 1-2.5-2.625.73.73 0 0 1 .293-.59L11.75 4.5l7.2 5.049a.692.692 0 0 1 .3.576zm-8.5 7.125h2a2 2 0 0 1 2 2v4h-6v-4a2 2 0 0 1 2-2z"/><path class="cls-1" d="M4.323 10.758A32.733 32.733 0 0 1 2.8 21.351a1.5 1.5 0 0 0 1.447 1.9h15a1.5 1.5 0 0 0 1.447-1.9 32.733 32.733 0 0 1-1.519-10.593M11.75 4.5l-2.711 6.674M11.75 4.5l2.711 6.674"/></svg>