<svg id="Regular" xmlns="http://www.w3.org/2000/svg" viewBox="0 0 24 24" width="24" height="24"><defs><style>.cls-1{fill:none;stroke:#000;stroke-linecap:round;stroke-linejoin:round;stroke-width:1.5px}</style></defs><title>circus-elephant</title><path class="cls-1" d="M8.453 9.871l-4.378.973A1.5 1.5 0 0 1 2.249 9.38V6c-.037-.086-.758-1.729-1.376-3.154A1.5 1.5 0 0 1 2.25.75H6a3.628 3.628 0 0 1 2.545 1.325 5.164 5.164 0 0 1 6.908 0A3.63 3.63 0 0 1 18 .75h3.75a1.5 1.5 0 0 1 1.377 2.1c-.618 1.421-1.341 3.064-1.378 3.15v3.38a1.5 1.5 0 0 1-1.825 1.464l-4.379-.973M10.5 11.034a5.266 5.266 0 0 1-3.25-2.787m9.494.004a5.26 5.26 0 0 1-3.244 2.781"/><path class="cls-1" d="M10.499 9.75v6l1.5-.75 1.5.75v-6m4.366.638a8.528 8.528 0 0 1 .884 3.862 9.921 9.921 0 0 1-3.1 6.847M6.133 10.388a8.541 8.541 0 0 0-.884 3.862 9.922 9.922 0 0 0 3.1 6.847M5.635 23.25a8.251 8.251 0 0 1 12.726 0M11.999 18v2.25m-2.625-15a.375.375 0 0 1 .375.375m-.749 0a.375.375 0 0 1 .375-.375M9.374 6A.375.375 0 0 1 9 5.625m.749 0A.375.375 0 0 1 9.374 6m5.25-.75a.375.375 0 0 1 .376.375m-.751 0a.375.375 0 0 1 .375-.375m0 .75a.375.375 0 0 1-.375-.375m.751 0a.375.375 0 0 1-.376.375"/></svg>