<svg id="Regular" xmlns="http://www.w3.org/2000/svg" viewBox="0 0 24 24" width="24" height="24"><defs><style>.cls-1{fill:none;stroke:#000;stroke-linecap:round;stroke-linejoin:round;stroke-width:1.5px}</style></defs><title>circus-clown-1</title><circle class="cls-1" cx="12" cy="12.75" r="10.5"/><path class="cls-1" d="M19.35 14.25a7.5 7.5 0 0 1-14.7-.011"/><circle class="cls-1" cx="12" cy="13.5" r="2.25"/><path class="cls-1" d="M8.25 6.75v3m-1.5-1.5h3m6-1.5v3m-1.5-1.5h3M8.924 2.708A2.792 2.792 0 0 0 6.375.75a2.6 2.6 0 0 0-1.759.689 2.247 2.247 0 1 0-3.177 3.177 2.613 2.613 0 0 0 .844 4.147M15.1 2.716A2.769 2.769 0 0 1 17.625.75a2.6 2.6 0 0 1 1.759.689 2.247 2.247 0 1 1 3.177 3.177 2.613 2.613 0 0 1-.844 4.147"/></svg>