<svg id="Regular" xmlns="http://www.w3.org/2000/svg" viewBox="0 0 24 24" width="24" height="24"><defs><style>.cls-1{fill:none;stroke:#000;stroke-linecap:round;stroke-linejoin:round;stroke-width:1.5px}</style></defs><title>circus-clown</title><circle class="cls-1" cx="12" cy="14.25" r="8.25"/><circle class="cls-1" cx="12" cy="16.5" r="2.25"/><path class="cls-1" d="M9 9.75v3m-1.5-1.5h3m4.5-1.5v3m-1.5-1.5h3M4.5 6h15m-12 0V3A1.5 1.5 0 0 1 9 1.5h6A1.5 1.5 0 0 1 16.5 3v3m3.373 5.776l1.105-.663A1.5 1.5 0 0 1 23.25 12.4v4.452a1.5 1.5 0 0 1-2.272 1.286l-1.327-.8M4.127 11.776l-1.1-.663A1.5 1.5 0 0 0 .75 12.4v4.452a1.5 1.5 0 0 0 2.272 1.286l1.327-.8"/></svg>