<svg xmlns="http://www.w3.org/2000/svg" viewBox="0 0 24 24" width="24" height="24"><g fill="none" stroke="#000" stroke-linejoin="round" stroke-miterlimit="10"><circle cx="12" cy="12" r="11.5"/><circle cx="12" cy="12" r="9.5"/><path d="M16.026 10.442a2.025 2.025 0 10-2.414-2.648l-.905 3.498 3.319-.85zm-2.455 5.578a2.028 2.028 0 003.397.912c.488-.492.69-1.2.537-1.877a2.024 2.024 0 00-1.296-1.459l-3.499-.893.861 3.317zm-5.586-2.434a2.027 2.027 0 00-.9 3.399 2.025 2.025 0 003.332-.771l.88-3.504-3.312.876zm2.414-5.595a2.026 2.026 0 10-2.619 2.442l3.506.867-.887-3.309z"/></g><path fill="none" d="M0 0h24v24H0z"/></svg>