<svg xmlns="http://www.w3.org/2000/svg" viewBox="0 0 24 24" width="24" height="24"><defs><style>.a{fill:none;stroke:#000;stroke-linecap:round;stroke-linejoin:round;stroke-width:1.5px}</style></defs><title>clamp-expand-1</title><path class="a" d="M.75 23.25h22.5m0-18H.75v-3a1.5 1.5 0 0 1 1.5-1.5h19.5a1.5 1.5 0 0 1 1.5 1.5zM12 20.553l4.046 2.7h4.2A1.5 1.5 0 0 0 19.582 22L14.7 18.75M12 16.947l-4.046-2.7L19.582 6.5a1.5 1.5 0 0 0 .668-1.25h-4.2L4.418 13a1.5 1.5 0 0 0 0 2.5L9.3 18.75"/><path class="a" d="M12 7.947L7.954 5.25H3.75a1.5 1.5 0 0 0 .668 1.25L9.3 9.75m2.7 1.803l4.046 2.7L4.418 22a1.5 1.5 0 0 0-.668 1.25h4.2l11.632-7.75a1.5 1.5 0 0 0 0-2.5L14.7 9.75"/></svg>