<svg id="Regular" xmlns="http://www.w3.org/2000/svg" viewBox="0 0 24 24" width="24" height="24"><defs><style>.cls-1{fill:none;stroke:#000;stroke-linecap:round;stroke-linejoin:round;stroke-width:1.5px}</style></defs><title>clean-car-cable</title><path class="cls-1" d="M18.75 15.75v-1.629a1.5 1.5 0 0 0-.439-1.06L17.25 11.25H6.75l-1.061 1.811a1.5 1.5 0 0 0-.439 1.06v1.629a1.5 1.5 0 0 0 1.5 1.5h10.5a1.5 1.5 0 0 0 1.5-1.5zm-4.081-9a1.528 1.528 0 0 1 1.423.769l1.158 3.731H6.75l1.158-3.731a1.528 1.528 0 0 1 1.423-.769zm-6.419 7.5h1.5m4.5 0h1.5M12 .75a11.313 11.313 0 1 1-9.926 6m4.676 10.5v1.5m10.5-1.5v1.5"/><path class="cls-1" d="M5.341 6.841a2.25 2.25 0 0 1-3.182-3.182L3.75 2.068 6.932 5.25zM4.28 2.598l1.061-1.06M6.402 4.72l1.06-1.061"/></svg>