<svg id="Regular" xmlns="http://www.w3.org/2000/svg" viewBox="0 0 24 24" width="24" height="24"><defs><style>.cls-1{fill:none;stroke:#000;stroke-linecap:round;stroke-linejoin:round;stroke-width:1.5px}</style></defs><title>clean-car-leaf-1</title><circle class="cls-1" cx="6.75" cy="13.501" r="1.5"/><path class="cls-1" d="M8.25 13.501h2.249M23.155 9.75A3 3 0 0 0 20.25 7.5l-1.835-3.67A1.5 1.5 0 0 0 17.073 3h-7.9a1.5 1.5 0 0 0-1.342.829L6 7.5H3.75a3 3 0 0 0-3 3V12a1.5 1.5 0 0 0 1.5 1.5h3M6 7.501h14.25M14.579 18.5s1.221 2.5 3.27 2.312c4.158-.38 3.88-5.907 5.4-7.859a9.106 9.106 0 0 0-8.265.075c-2.154 1.217-2.307 3.272-.405 5.472zm2.941-2.531S14.822 16.3 12.9 21"/></svg>