<svg xmlns="http://www.w3.org/2000/svg" viewBox="0 0 24 24" width="24" height="24"><g fill="none" stroke="#000" stroke-linejoin="round" stroke-miterlimit="10"><path stroke-linecap="round" d="M9.5 13.501l13.336 4.763c.398.143.664.52.664.942v2.295H.5v-7a1 1 0 011-1h1c0 .829 1.756 1.5 3.5 1.5 2.209 0 3.5-.671 3.5-1.5z"/><path d="M.5 19.501h23"/><path stroke-linecap="round" d="M12.076 14.42L11 15.501m2.92-.421l-.92.921m-9.5 3.5c0-1.656-1.344-3-3-3m1 6v-1m3 1v-1m18 1v-1m-3 1v-1m-3 1v-1m-3 1v-1m1-10L1.164 6.738A1.003 1.003 0 01.5 5.796V3.501h23v7c0 .552-.445 1-1 1h-1c0-.829-1.756-1.5-3.5-1.5-2.209 0-3.5.671-3.5 1.5z"/><path d="M23.5 5.501H.5"/><path stroke-linecap="round" d="M11.926 10.582L13 9.501m-2.92.421l.92-.921m9.5-3.5c0 1.656 1.346 3 3 3m-1-6v1m-3-1v1m-18-1v1m3-1v1m3-1v1m3-1v1"/></g><path fill="none" d="M0 0h24v24H0z"/></svg>