<svg id="Regular" xmlns="http://www.w3.org/2000/svg" viewBox="0 0 24 24" width="24" height="24"><defs><style>.cls-1{fill:none;stroke:#000;stroke-linecap:round;stroke-linejoin:round;stroke-width:1.5px}</style></defs><title>clean-car-cable-charge-1</title><circle class="cls-1" cx="6.75" cy="21.25" r="1.5"/><circle class="cls-1" cx="18.75" cy="21.25" r="1.5"/><path class="cls-1" d="M8.25 21.25h9m-7.5-10.5h-.573a1.5 1.5 0 0 0-1.342.829L6 15.25H3.75a3 3 0 0 0-3 3v1.5a1.5 1.5 0 0 0 1.5 1.5h3m15 0h1.5a1.5 1.5 0 0 0 1.5-1.5v-1.5a3 3 0 0 0-3-3l-1.835-3.671a1.5 1.5 0 0 0-1.342-.829H15.75M6 15.25h14.25M15.75 4a3 3 0 0 1-6 0zm-4.5 0V1m3 3V1m-1.5 11.25V7"/></svg>