<svg id="Regular" xmlns="http://www.w3.org/2000/svg" viewBox="0 0 24 24" width="24" height="24"><defs><style>.cls-1{fill:none;stroke:#000;stroke-linecap:round;stroke-linejoin:round;stroke-width:1.5px}</style></defs><title>clean-car-gas</title><path class="cls-1" d="M14.505 20.771s1.22 2.494 3.271 2.307c4.158-.38 3.879-5.907 5.4-7.859a9.105 9.105 0 0 0-8.265.075c-2.155 1.217-2.311 3.271-.406 5.477zm2.942-2.535s-2.7.334-4.624 5.03M6.073 9.767h12v-7.5a1.5 1.5 0 0 0-1.5-1.5h-9a1.5 1.5 0 0 0-1.5 1.5z"/><path class="cls-1" d="M9.073 3.767h6v3h-6zm9 7.5v-1.5h-12v9a1.5 1.5 0 0 0 1.5 1.5h3m-4.5-5.25c-1.5 0-3-.75-3-3.75V4.488a1.5 1.5 0 0 0-.563-1.172L.823 2.267"/></svg>