<svg xmlns="http://www.w3.org/2000/svg" viewBox="0 0 24 24" width="24" height="24"><defs><style>.a{fill:none;stroke:#000;stroke-linecap:round;stroke-linejoin:round;stroke-width:1.5px}</style></defs><title>cleaning-cat</title><path class="a" d="M12 3.75l3.75-3v6c0 1.657-1.679 3-3.75 3s-3.75-1.343-3.75-3v-6zm6.75 19.5a3 3 0 0 0 0-6H5.25a3 3 0 0 0 0 6z"/><circle class="a" cx="12" cy="20.25" r="1.5"/><path class="a" d="M9.532 9.008L7.477 13.8a2.473 2.473 0 0 0 2.273 3.45h4.5a2.473 2.473 0 0 0 2.273-3.45L14.468 9m8.782 0a2.25 2.25 0 0 0-4.5 0v3.75m-18-9h3m-3 4.5h4.5m-4.5 4.5h3"/></svg>