<svg id="Regular" xmlns="http://www.w3.org/2000/svg" viewBox="0 0 24 24" width="24" height="24"><defs><style>.cls-1{fill:none;stroke:#000;stroke-linecap:round;stroke-linejoin:round;stroke-width:1.5px}</style></defs><title>clean-car-charging-cable</title><path class="cls-1" d="M5.359 16.9s3 1.383 4.753-.333c3.549-3.48-.867-8.368-.933-11.314a10.839 10.839 0 0 0-7.567 6.29c-1.072 2.741.333 4.75 3.747 5.357zM22.741 6.75a3.751 3.751 0 0 1-4.141 3.731 3.9 3.9 0 0 1-3.363-3.945V5.25a.75.75 0 0 1 .75-.75h6a.75.75 0 0 1 .75.75zm-6-2.25v-3m4.5 3v-3"/><path class="cls-1" d="M18.991 10.5v5.25a6.75 6.75 0 0 1-13.5 0 9.1 9.1 0 0 1 .75-3.75"/></svg>