<svg id="Regular" xmlns="http://www.w3.org/2000/svg" viewBox="0 0 24 24" width="24" height="24"><defs><style>.cls-1{fill:none;stroke:#000;stroke-linecap:round;stroke-linejoin:round;stroke-width:1.5px}</style></defs><title>clean-car-leaf</title><path class="cls-1" d="M14.579 20.771s1.219 2.494 3.27 2.307c4.158-.38 3.88-5.907 5.4-7.859a9.105 9.105 0 0 0-8.265.075c-2.154 1.217-2.307 3.271-.405 5.477zm2.941-2.535s-2.7.334-4.623 5.03m7.353-11.999V9.638a1.5 1.5 0 0 0-.439-1.061L18 6.767H3l-1.811 1.81A1.5 1.5 0 0 0 .75 9.638v3.129a1.5 1.5 0 0 0 1.5 1.5h9m6.75-7.5H3l1.158-4.975A1.5 1.5 0 0 1 5.581.767h9.838a1.5 1.5 0 0 1 1.423 1.025zm-14.25 3h1.5m10.5 0h1.5m-12 6a1.5 1.5 0 0 1-3 0v-1.5h3z"/></svg>