<svg xmlns="http://www.w3.org/2000/svg" viewBox="0 0 24 24" width="24" height="24"><defs><style>.a{fill:none;stroke:#000;stroke-linecap:round;stroke-linejoin:round;stroke-width:1.5px}</style></defs><title>cleaning-woman</title><circle class="a" cx="7.5" cy="3.563" r="2.625"/><path class="a" d="M5.25 20.813a2.25 2.25 0 0 0 4.5 0v-3.75h3l-1.5-4.5v-1.5a3 3 0 0 0-3-3h-1.5a3 3 0 0 0-3 3v1.5l-1.5 4.5h3zm16.5 2.25h-6l.5-4.029a2.249 2.249 0 0 1 2.232-1.971h.528a2.249 2.249 0 0 1 2.232 1.971zm-3-6v-12"/></svg>