<svg id="Regular" xmlns="http://www.w3.org/2000/svg" viewBox="0 0 24 24" width="24" height="24"><defs><style>.cls-1{fill:none;stroke:#000;stroke-linecap:round;stroke-linejoin:round;stroke-width:1.5px}</style></defs><title>clean-car-cable-charge</title><path class="cls-1" d="M22.5 18.75v-3.129a1.5 1.5 0 0 0-.439-1.06L20.25 12.75H3.75l-1.811 1.811a1.5 1.5 0 0 0-.439 1.06v3.129a1.5 1.5 0 0 0 1.5 1.5h18a1.5 1.5 0 0 0 1.5-1.5zm-4.831-12a1.5 1.5 0 0 1 1.423 1.026l1.158 4.974H3.75l1.158-4.974A1.5 1.5 0 0 1 6.331 6.75m-1.831 9H6m12 0h1.5m-13.5 6a1.5 1.5 0 0 1-3 0v-1.5h3zm15 0a1.5 1.5 0 0 1-3 0v-1.5h3z"/><path class="cls-1" d="M15 3.75a3 3 0 0 1-6 0zm-4.5 0v-3m3 3v-3m-1.5 9v-3"/></svg>