<svg id="Regular" xmlns="http://www.w3.org/2000/svg" viewBox="0 0 24 24" width="24" height="24"><defs><style>.cls-1{fill:none;stroke:#000;stroke-linecap:round;stroke-linejoin:round;stroke-width:1.5px}</style></defs><title>clean-bicycle</title><path class="cls-1" d="M18 6.75h-3.75l4.5 12"/><circle class="cls-1" cx="18.75" cy="18.75" r="4.5"/><path class="cls-1" d="M16.195 11.936l-5.695.814-5.25 6h6"/><path class="cls-1" d="M9.75 18.75a4.5 4.5 0 1 1-4.5-4.5 4.477 4.477 0 0 1 4.5 4.5zm-1.5-9h3m-1.5 0l.75 3m0 0L12.75 15M6.75.75L1.39 6.11a.375.375 0 0 0 .265.64H3.75v4.5l5.36-5.36a.375.375 0 0 0-.265-.64H6.75z"/></svg>