<svg xmlns="http://www.w3.org/2000/svg" viewBox="0 0 24 24" width="24" height="24"><defs><style>.a{fill:none;stroke:#000;stroke-linecap:round;stroke-linejoin:round;stroke-width:1.5px}</style></defs><title>cleaning-broom</title><path class="a" d="M5.25.917L21 16.667m-2.121 2.121l-3.022-3.022c-2.051-2.05-2.763-4.662-1.591-5.834s3.783-.459 5.833 1.591l3.022 3.022m-.621 7.747a.375.375 0 1 1-.375.375.375.375 0 0 1 .375-.375m-21 0a.375.375 0 1 1-.375.375.375.375 0 0 1 .375-.375m11.25 0a.375.375 0 1 1-.375.375.375.375 0 0 1 .375-.375M3 15.542a.375.375 0 1 1-.375.375.375.375 0 0 1 .375-.375m4.5 3.75a.375.375 0 1 1-.375.375.375.375 0 0 1 .375-.375m3-4.5a.375.375 0 1 1-.375.375.375.375 0 0 1 .375-.375"/></svg>