<svg id="Regular" xmlns="http://www.w3.org/2000/svg" viewBox="0 0 24 24" width="24" height="24"><defs><style>.cls-1{fill:none;stroke:#000;stroke-linecap:round;stroke-linejoin:round;stroke-width:1.5px}</style></defs><title>climbing-mountain</title><circle class="cls-1" cx="11.843" cy="3" r="2.25"/><path class="cls-1" d="M18.593 9h-3.042a1.5 1.5 0 0 1-.67-.158l-3.867-1.934a1.5 1.5 0 0 0-2.093.867l-2.25 6.75a1.5 1.5 0 0 0 .081 1.146l1.038 2.076a1.51 1.51 0 0 1 .131.968l-.548 2.741a1.5 1.5 0 1 0 2.941.588l.548-2.739a4.512 4.512 0 0 0-.2-2.423l.911.131a1.5 1.5 0 0 1 1.13.814l.8 1.594a1.5 1.5 0 1 0 2.683-1.342l-.8-1.595A4.509 4.509 0 0 0 12 14.042l-1.915-.273 1.134-3.4 2.321 1.16a4.515 4.515 0 0 0 2.011.471h3.042a1.5 1.5 0 0 0 0-3z"/><rect class="cls-1" x="-.749" y="7.352" width="8.158" height="3" rx=".5" ry=".5" transform="rotate(-71.565 3.33 8.852)"/><path class="cls-1" d="M20.843 6l1.5-1.5.75-3.75M18.593 15v1.5m4.5 6.75h-19.5m9.75 0l1.502-3"/></svg>