<svg xmlns="http://www.w3.org/2000/svg" viewBox="0 0 24 24" width="24" height="24"><g fill="none" stroke="#000" stroke-linecap="round" stroke-linejoin="round" stroke-miterlimit="10"><path d="M19.5 2.5h2v21h-18v-21h2"/><path d="M14.5 2.5a2 2 0 00-4 0h-3v3h10v-3h-3z"/><path d="M7.5 4.5h-2v17h10v-4h4v-13h-2m2 13l-4 4"/><path d="M8.5 11l.793-.792a.999.999 0 011.414 0l.086.085a1 1 0 001.414 0l.086-.085a.999.999 0 011.414 0l.086.085a1 1 0 001.414 0L16 9.5M8.5 15l.793-.792a.999.999 0 011.414 0l.086.085a1 1 0 001.414 0l.086-.085a.999.999 0 011.414 0l.086.085a1 1 0 001.414 0L16 13.5"/></g><path fill="none" d="M0 0h24v24H0z"/></svg>