<svg id="Regular" xmlns="http://www.w3.org/2000/svg" viewBox="0 0 24 24" width="24" height="24"><defs><style>.cls-1{fill:none;stroke:#000;stroke-linecap:round;stroke-linejoin:round;stroke-width:1.5px}</style></defs><title>clothes-design-thread-boots</title><path class="cls-1" d="M9.5 23.25H3a2.255 2.255 0 0 1-2.228-2.568A7.555 7.555 0 0 1 7.385 14.3a5.879 5.879 0 0 0 5.365-5.764V5.25h9v6"/><path class="cls-1" d="M6.4 14.479a3 3 0 0 1 1.85 2.771v3m-7.403 0H11"/><rect class="cls-1" x="11.25" y=".75" width="12" height="4.5" rx=".5" ry=".5"/><path class="cls-1" d="M14.25 14.25h6v9h-6zm-1.5 0h9m-9 9h9m-7.5-6h6"/><path class="cls-1" d="M14.25 20.25h6a3 3 0 0 0 3-3"/></svg>