<svg id="Regular" xmlns="http://www.w3.org/2000/svg" viewBox="0 0 24 24" width="24" height="24"><defs><style>.cls-1{fill:none;stroke:#000;stroke-linecap:round;stroke-linejoin:round;stroke-width:1.5px}</style></defs><title>clothes-design-needle</title><path class="cls-1" d="M3.115 21.461a.375.375 0 0 1-.526-.526l13.95-18.052a3.3 3.3 0 1 1 4.628 4.629zM19.362 4.688l-1.061 1.061"/><path class="cls-1" d="M16.142 3.4l-.278-.22a4.694 4.694 0 0 0-6.005.147 4.693 4.693 0 0 1-6.145.032L1.55 1.5M18.8 5.25l1.109 1.109a4.523 4.523 0 0 1-.193 6.577 4.524 4.524 0 0 0-.566 6.157L21.8 22.5"/></svg>