<svg id="Regular" xmlns="http://www.w3.org/2000/svg" viewBox="0 0 24 24" width="24" height="24"><defs><style>.cls-1{fill:none;stroke:#000;stroke-linecap:round;stroke-linejoin:round;stroke-width:1.5px}</style></defs><title>clothes-design-sewing-machine</title><path class="cls-1" d="M3.75.75a1.5 1.5 0 0 0-1.5 1.5v6a1.5 1.5 0 0 0 1.5 1.5H9l2.25-1.5h1.5a3 3 0 0 1 3 3v4.5a3 3 0 0 1-3 3H3a2.25 2.25 0 0 0 0 4.5h17.25a3 3 0 0 0 3-3V3.75a3 3 0 0 0-3-3zm3 9v6m0-1.5H9"/><circle class="cls-1" cx="18.75" cy="5.25" r="1.5"/><path class="cls-1" d="M6.75.75v6"/></svg>