<svg xmlns="http://www.w3.org/2000/svg" viewBox="0 0 24 24" width="24" height="24"><defs><style>.a{fill:none;stroke:#000;stroke-linecap:round;stroke-linejoin:round;stroke-width:1.5px}</style></defs><title>cloud-server</title><path class="a" d="M6.75 13.875a.375.375 0 1 0 .375.375.375.375 0 0 0-.375-.375m5.25.375h1.5m3 0H18M6.75 19.875a.375.375 0 1 0 .375.375.375.375 0 0 0-.375-.375m5.25.375h1.5m3 0H18"/><path class="a" d="M21 14.25a3 3 0 0 1-3 3H6a3 3 0 0 1 0-6h12a3 3 0 0 1 3 3zm0 6a3 3 0 0 1-3 3H6a3 3 0 0 1 0-6h12a3 3 0 0 1 3 3z"/><path class="a" d="M23.12 12a4.881 4.881 0 0 0-4.745-6 4.844 4.844 0 0 0-2.764.865 7.5 7.5 0 1 0-14.236 4.386"/></svg>