<svg xmlns="http://www.w3.org/2000/svg" viewBox="0 0 24 24" width="24" height="24"><defs><style>.a{fill:none;stroke:#000;stroke-linecap:round;stroke-linejoin:round;stroke-width:1.5px}</style></defs><title>cloud-smartphone-upload</title><path class="a" d="M19.5 19.875a.375.375 0 1 0 .375.375.375.375 0 0 0-.375-.375M3.75 15.75l3-3 3 3"/><path class="a" d="M6.75 12.75v6a1.5 1.5 0 0 0 1.5 1.5h4.5M12 3.75a2.982 2.982 0 0 0-2.292 1.086A4.489 4.489 0 1 0 5.25 9.75H12a3 3 0 0 0 0-6z"/><rect class="a" x="15.75" y="11.25" width="7.5" height="12" rx="1.5" ry="1.5"/></svg>