<svg xmlns="http://www.w3.org/2000/svg" viewBox="0 0 24 24" width="24" height="24"><defs><style>.a{fill:none;stroke:#000;stroke-linecap:round;stroke-linejoin:round;stroke-width:1.5px}</style></defs><title>cloud-star</title><path class="a" d="M22.916 12.651a4.872 4.872 0 0 0-7.306-5.786 7.5 7.5 0 1 0-7.361 8.886"/><path class="a" d="M17.954 11.678l1.539 4.073h2.994A.735.735 0 0 1 23 17.034l-2.6 1.812 1.44 3.314a.785.785 0 0 1-1.117.982l-3.479-1.961-3.48 1.961a.785.785 0 0 1-1.117-.982l1.44-3.314-2.6-1.812a.734.734 0 0 1 .514-1.283H15l1.542-4.073a.793.793 0 0 1 1.412 0z"/><path class="a" d="M23.1 9.659a4.87 4.87 0 0 0-7.49-2.794 7.5 7.5 0 1 0-7.361 8.886"/></svg>