<svg xmlns="http://www.w3.org/2000/svg" viewBox="0 0 24 24" width="24" height="24"><g fill="none" stroke="#000" stroke-linecap="round" stroke-linejoin="round" stroke-miterlimit="10"><path d="M18.728 16.17c.917-2.109-.8-4.457-3.123-4.169A5.496 5.496 0 005 13.5a5 5 0 00.477 9.976h11a4 4 0 002.251-7.306z"/><path d="M22.001 14.577a3.997 3.997 0 00-.272-6.408c.917-2.109-.8-4.457-3.123-4.169A5.497 5.497 0 0013.477.475a5.498 5.498 0 00-5.476 5.024 4.999 4.999 0 00-4.524 4.976"/></g><path fill="none" d="M0 0h24v24H0z"/></svg>