<svg xmlns="http://www.w3.org/2000/svg" viewBox="0 0 24 24" width="24" height="24"><path d="M18.751 16.229c.917-2.109-.8-4.457-3.122-4.169A5.5 5.5 0 0010.5 8.534a5.5 5.5 0 00-5.477 5.024A4.983 4.983 0 00.5 18.518a4.984 4.984 0 005 4.982h11c2.209 0 4-1.772 4-3.982a3.963 3.963 0 00-1.749-3.289zm-7.319-9.301A15.483 15.483 0 0123.5.508m-7.998 7.744a11.474 11.474 0 018.014-3.742m-4.819 6.187a7.47 7.47 0 014.818-2.182" fill="none" stroke="#000" stroke-linecap="round" stroke-linejoin="round" stroke-miterlimit="10"/><path fill="none" d="M0 0h24v24H0z"/></svg>