<svg xmlns="http://www.w3.org/2000/svg" viewBox="0 0 24 24" width="24" height="24"><defs><style>.a{fill:none;stroke:#000;stroke-linecap:round;stroke-linejoin:round;stroke-width:1.5px}</style></defs><title>cloud-monitor-exchange</title><rect class="a" x="11.251" y="12.751" width="12" height="7.5" rx="1.5" ry="1.5"/><path class="a" d="M17.251 20.251v3m-2.25 0h4.5m-18.75-8.25l2.25-2.25 2.25 2.25m1.5 3l2.25 2.25-2.25 2.25M12 3.751a2.979 2.979 0 0 0-2.291 1.085 4.489 4.489 0 1 0-4.458 4.915H12a3 3 0 1 0 0-6z"/><path class="a" d="M3 12.751v4.5a3 3 0 0 0 3 3h3"/></svg>