<svg xmlns="http://www.w3.org/2000/svg" viewBox="0 0 24 24" width="24" height="24"><defs><style>.a{fill:none;stroke:#000;stroke-linecap:round;stroke-linejoin:round;stroke-width:1.5px}</style></defs><title>cloud-warning</title><path class="a" d="M17.25 20.25a.375.375 0 1 0 .375.375.375.375 0 0 0-.375-.375m0-2.25v-3"/><path class="a" d="M23.063 20.683a1.774 1.774 0 0 1-1.587 2.567h-8.452a1.773 1.773 0 0 1-1.586-2.567l4.225-8.452a1.774 1.774 0 0 1 3.174 0z"/><path class="a" d="M22.829 12.86a4.871 4.871 0 0 0-7.218-5.995A7.5 7.5 0 1 0 8.25 15.75h2.25"/></svg>