<svg xmlns="http://www.w3.org/2000/svg" viewBox="0 0 24 24" width="24" height="24"><g fill="none" stroke="#000" stroke-linecap="round" stroke-linejoin="round" stroke-miterlimit="10"><path d="M21.156 11.5A2.997 2.997 0 0022.5 9c0-1.657-2-3-4-3-1 0-2.75 1.375-4.25 2.75C15.625 7.25 17 5.5 17 4.5c0-2-1.344-4-3-4a2.996 2.996 0 00-2.5 1.343A2.999 2.999 0 009 .5c-1.657 0-3 2-3 4 0 1 1.375 2.75 2.75 4.25C7.25 7.375 5.5 6 4.5 6c-2 0-4 1.343-4 3 0 1.043.534 1.962 1.343 2.5A2.996 2.996 0 00.5 14c0 1.656 2 3 4 3s7-2.5 7-2.5 5 2.5 7 2.5 4-1.344 4-3a2.997 2.997 0 00-1.344-2.5z"/><path d="M11.5 14.5v7c0 1.1.675 2 1.5 2h1.5"/></g><path fill="none" d="M0 0h24v24H0z"/></svg>