<svg xmlns="http://www.w3.org/2000/svg" viewBox="0 0 24 24" width="24" height="24"><g fill="none" stroke="#000" stroke-linejoin="round" stroke-miterlimit="10"><circle cx="12" cy="12" r="7.5"/><path stroke-linecap="round" d="M17.5 12a5.5 5.5 0 11-11 0"/><path d="M7.286 17.834L2 21.5h6l4 2.021 4-2.021h6l-5.219-3.666"/><path stroke-linecap="round" d="M5 4.5h14"/><path d="M15.5 2.5a2 2 0 00-2-2h-3a2 2 0 00-2 2v2h7v-2z"/><circle cx="11.979" cy="13.5" r="2"/><path d="M8 8.5h3M9.5 7v3M13 8.5h3M14.5 7v3m4.398-.946l3.56-1.07L22 10l1.458 1.516L22 13l.458 2-3.245-.938M5.111 9.031L1.542 7.984 2 10 .542 11.516 2 13l-.458 2 3.245-.938"/></g><path fill="none" d="M0 0h24v24H0z"/></svg>