<svg xmlns="http://www.w3.org/2000/svg" viewBox="0 0 24 24" width="24" height="24"><g fill="none" stroke="#000" stroke-linejoin="round" stroke-miterlimit="10"><path stroke-linecap="round" d="M14.5 12a4.979 4.979 0 01-3.5-1.435A4.979 4.979 0 017.5 12a4.968 4.968 0 01-3.439-1.385A8.434 8.434 0 002.5 15.5c0 3.693 3.209 6.827 6.5 8h4c3.291-1.173 6.5-4.307 6.5-8a8.434 8.434 0 00-1.561-4.885A4.968 4.968 0 0114.5 12zM9 7.5L6.57 3.334a2 2 0 00-2.837-.656L1 4.5"/><path stroke-linecap="round" d="M12.883 7.5H6l-1.939 3.115"/><path d="M20.287 4.237c-.471-.775-1.564-.972-2.444-.439-.11.068-.212.143-.305.225.054-.184.09-.377.09-.582 0-1.028-.735-1.862-1.642-1.862s-1.642.834-1.642 1.862c0 .195.033.379.083.558a2.018 2.018 0 00-.271-.2c-.88-.533-1.974-.336-2.444.439-.47.776-.137 1.836.742 2.37.308.186.64.277.963.293a2.221 2.221 0 00-.221.184c-.726.727-.796 1.836-.155 2.477.642.641 1.751.572 2.479-.157.227-.227.382-.495.48-.771.098.276.253.544.48.771.728.729 1.837.797 2.479.157.641-.641.571-1.75-.156-2.479a2.245 2.245 0 00-.221-.184c.323-.016.655-.107.962-.293.88-.533 1.213-1.593.743-2.369z"/><circle cx="16" cy="6.021" r="1.488"/></g><path fill="none" d="M0 0h24v24H0z"/></svg>