<svg xmlns="http://www.w3.org/2000/svg" viewBox="0 0 24 24" width="24" height="24"><defs><style>.a{fill:none;stroke:#000;stroke-linecap:round;stroke-linejoin:round;stroke-width:1.5px}</style></defs><title>code-write</title><path class="a" d="M22.631 14.87L15 22.5l-3.75.75.75-3.75 7.631-7.63a2.113 2.113 0 0 1 2.991 0l.009.008a2.116 2.116 0 0 1 0 2.992zM8.25 20.25h-6a1.5 1.5 0 0 1-1.5-1.5V2.25a1.5 1.5 0 0 1 1.5-1.5h8.379a1.5 1.5 0 0 1 1.06.439l3.622 3.622a1.5 1.5 0 0 1 .439 1.06v5.372m-12-5.993h3m-3 4.5h3m-3 4.5h3m3-9v9m3-4.5h-3"/></svg>