<svg id="Regular" xmlns="http://www.w3.org/2000/svg" viewBox="0 0 24 24" width="24" height="24"><defs><style>.cls-1{fill:none;stroke:#000;stroke-linecap:round;stroke-linejoin:round;stroke-width:1.5px}</style></defs><title>coffee-machine-1</title><path class="cls-1" d="M2.25 23.25a1.5 1.5 0 0 1-1.5-1.5V2.25a1.5 1.5 0 0 1 1.5-1.5h19.5a1.5 1.5 0 0 1 1.5 1.5v3a1.5 1.5 0 0 1-1.5 1.5H8.25v16.5z"/><path class="cls-1" d="M20.25 15v6.75a1.5 1.5 0 0 1-1.5 1.5h-4.5a1.5 1.5 0 0 1-1.5-1.5v-2.688a4.506 4.506 0 0 0-.475-2.012L11.25 15h2.25"/><path class="cls-1" d="M19.5 15h2.25a1.5 1.5 0 0 1 1.5 1.5V18m-15 5.25h15M9.75.75v1.5a1.5 1.5 0 0 0 1.5 1.5h12M.75 5.25h3m-3 3h3m-3 3h3M18 12a1.5 1.5 0 0 1-3 0c0-.828 1.5-3 1.5-3s1.5 2.172 1.5 3z"/></svg>