<svg id="Regular" xmlns="http://www.w3.org/2000/svg" viewBox="0 0 24 24" width="24" height="24"><defs><style>.cls-1{fill:none;stroke:#000;stroke-linecap:round;stroke-linejoin:round;stroke-width:1.5px}</style></defs><title>coffee-cold-press-1</title><path class="cls-1" d="M2.25 8.25a.75.75 0 0 0-.53 1.28L4 11.552a1.5 1.5 0 0 1 .5 1.122v9.076a1.5 1.5 0 0 0 1.5 1.5h9a1.5 1.5 0 0 0 1.5-1.5V8.25zm6 7.5h4.5m-2.25-7.5v7.5m6-7.5c-.376-2.861-2.924-4.5-6-4.5s-5.624 1.639-6 4.5z"/><circle class="cls-1" cx="10.5" cy="2.25" r="1.5"/><path class="cls-1" d="M16.5 9.75H18a4.513 4.513 0 0 1 4.5 4.5 4.513 4.513 0 0 1-4.5 4.5h-1.5m-12 1.5h12"/></svg>