<svg id="Regular" xmlns="http://www.w3.org/2000/svg" viewBox="0 0 24 24" width="24" height="24"><defs><style>.cls-1{fill:none;stroke:#000;stroke-linecap:round;stroke-linejoin:round;stroke-width:1.5px}</style></defs><title>coffee-machine</title><path class="cls-1" d="M22.5 21.75a1.5 1.5 0 0 0-1.5-1.5H3a1.5 1.5 0 0 0 0 3h18a1.5 1.5 0 0 0 1.5-1.5zm-1.5-1.5H3V6.75h18v13.5zM10.5 9.75v1.5m3-1.5v1.5"/><path class="cls-1" d="M15.75 14.25c0 2.071 0 5.25-3.75 5.25-3 0-3.216-2.695-3.632-4.313a.751.751 0 0 1 .732-.937zm0 0A2.25 2.25 0 0 1 18 16.5"/><rect class="cls-1" x="1.5" y=".75" width="21" height="6" rx="1" ry="1"/><path class="cls-1" d="M9 6.75h6v3H9zM19.125 3a.375.375 0 1 1-.375.375.375.375 0 0 1 .375-.375m-3.75 0a.375.375 0 1 1-.375.375.375.375 0 0 1 .375-.375"/></svg>