<svg id="Regular" xmlns="http://www.w3.org/2000/svg" viewBox="0 0 24 24" width="24" height="24"><defs><style>.cls-1{fill:none;stroke:#000;stroke-linecap:round;stroke-linejoin:round;stroke-width:1.5px}</style></defs><title>coffee-delivery</title><circle class="cls-1" cx="13.875" cy="3.75" r="3"/><path class="cls-1" d="M10.125 18.561L8.783 20.9a1.564 1.564 0 1 0 2.705 1.569l2.5-4.307 1.648 4.021A1.563 1.563 0 1 0 18.526 21l-2.372-5.786c-.007-.017-.022-.028-.029-.044v-1.935l2.852 1.8a1.563 1.563 0 0 0 1.669-2.644l-5.289-3.338a1.8 1.8 0 0 0-1.107-.242 1.869 1.869 0 0 0-1.376.6 4.285 4.285 0 0 1-2.782 1.453l-.717.057-1.8-.038a1.564 1.564 0 1 0-.025 3.127c2.635 0 4.079.049 4.079.049a11.755 11.755 0 0 1-1.504 4.502z"/><path class="cls-1" d="M6.256 13.311H3.375l-.75-4.5h4.5l-.514 2.395m-.986-2.395l.75-2.25h1.5"/></svg>