<svg id="Regular" xmlns="http://www.w3.org/2000/svg" viewBox="0 0 24 24" width="24" height="24"><defs><style>.cls-1{fill:none;stroke:#000;stroke-linecap:round;stroke-linejoin:round;stroke-width:1.5px}</style></defs><title>coffee-turkish</title><path class="cls-1" d="M20.25 15.75H21a2.25 2.25 0 0 1 0 4.5h-1.009"/><path class="cls-1" d="M11.25 18.75a4.5 4.5 0 0 0 9 0v-4.5h-9zM9 5.25a3.285 3.285 0 0 0-.75 2.25c0 1.5 1.5 1.5 1.5 3.75s-3 3-4.5 3-4.5-.75-4.5-3S2.25 9 2.25 7.5a3.285 3.285 0 0 0-.75-2.25zM3.75.75v1.5m3-1.5v1.5m2.046 6.591L20.25 3.75"/></svg>