<svg id="Regular" xmlns="http://www.w3.org/2000/svg" viewBox="0 0 24 24" width="24" height="24"><defs><style>.cls-1{fill:none;stroke:#000;stroke-linecap:round;stroke-linejoin:round;stroke-width:1.5px}</style></defs><title>coffee-espresso-machine</title><path class="cls-1" d="M.75 23.25h22.5m0-21a1.5 1.5 0 0 0-1.5-1.5H4.5A1.5 1.5 0 0 0 3 2.25v6a1.5 1.5 0 0 0 1.5 1.5H12a1.5 1.5 0 0 1 1.5 1.5v12h9.75v-21z"/><path class="cls-1" d="M18.75 23.25h4.5v-10.5h-3a1.5 1.5 0 0 0-1.5 1.5zm-12-13.5v3"/><circle class="cls-1" cx="7.5" cy="5.25" r="1.5"/><path class="cls-1" d="M23.25 5.25h-4.5m4.5 3h-4.5M3.094 18c0 2.071 0 5.25 3.75 5.25 3 0 3.216-2.695 3.632-4.313A.75.75 0 0 0 9.749 18zm0 0a2.25 2.25 0 0 0-2.25 2.25"/></svg>