<svg xmlns="http://www.w3.org/2000/svg" viewBox="0 0 24 24" width="24" height="24"><defs><style>.a{fill:none;stroke:#000;stroke-linecap:round;stroke-linejoin:round;stroke-width:1.5px}</style></defs><title>cog-approved</title><path class="a" d="M21.684 9.39a1.826 1.826 0 0 1-.539.876l-.972.878a1.828 1.828 0 0 0 0 2.714l.972.878a1.828 1.828 0 0 1-1.319 3.183l-1.308-.067a1.828 1.828 0 0 0-1.918 1.919l.067 1.308a1.828 1.828 0 0 1-3.184 1.321l-.878-.972a1.828 1.828 0 0 0-2.714 0l-.878.972a1.828 1.828 0 0 1-3.183-1.321l.07-1.308a1.828 1.828 0 0 0-1.919-1.919l-1.308.067a1.828 1.828 0 0 1-1.319-3.183l.972-.878a1.828 1.828 0 0 0 0-2.714l-.972-.878A1.828 1.828 0 0 1 2.67 7.083l1.308.067A1.828 1.828 0 0 0 5.9 5.231l-.07-1.308A1.828 1.828 0 0 1 9.013 2.6l.878.972a1.826 1.826 0 0 0 2.714 0l.878-.972a1.829 1.829 0 0 1 2.057-.46"/><path class="a" d="M7.6 10.641l2.513 3.351a1.5 1.5 0 0 0 2.347.066L23.248 1.251"/></svg>