<svg xmlns="http://www.w3.org/2000/svg" viewBox="0 0 24 24" width="24" height="24"><defs><style>.a{fill:none;stroke:#000;stroke-linecap:round;stroke-linejoin:round;stroke-width:1.5px}</style></defs><title>cog-desktop</title><path class="a" d="M13.5 18.751a8.934 8.934 0 0 0 1.5 4.5H9a8.934 8.934 0 0 0 1.5-4.5m-3.75 4.5h10.5m-16.5-7.5h22.5"/><path class="a" d="M16.5.751h5.25a1.5 1.5 0 0 1 1.5 1.5v15a1.5 1.5 0 0 1-1.5 1.5H2.25a1.5 1.5 0 0 1-1.5-1.5v-15a1.5 1.5 0 0 1 1.5-1.5H7.5"/><circle class="a" cx="12" cy="7.201" r="3.75"/><path class="a" d="M12 3.451v-1.8m0 11.1v-1.8m3.75-3.75h1.8m-11.1 0h1.8m.209-3.959l1.107 1.106m5.975-1.106l-1.107 1.106M8.459 11.16l1.107-1.107m5.975 1.107l-1.107-1.107M12 6.451a.75.75 0 1 1-.75.75.75.75 0 0 1 .75-.75"/></svg>