<svg xmlns="http://www.w3.org/2000/svg" viewBox="0 0 24 24" width="24" height="24"><defs><style>.a{fill:none;stroke:#000;stroke-linecap:round;stroke-linejoin:round;stroke-width:1.5px}</style></defs><title>cog-browser</title><path class="a" d="M15.75 21.751H21a1.5 1.5 0 0 0 1.5-1.5v-16.5a1.5 1.5 0 0 0-1.5-1.5H3a1.5 1.5 0 0 0-1.5 1.5v16.5a1.5 1.5 0 0 0 1.5 1.5h5.25M1.5 6.001h21"/><circle class="a" cx="12" cy="14.701" r="3.75"/><path class="a" d="M12 10.951v-1.8m0 11.1v-1.8m3.75-3.75h1.8m-11.1 0h1.8m.209-3.959l1.107 1.106m5.975-1.106l-1.107 1.106M8.459 18.66l1.107-1.107m5.975 1.107l-1.107-1.107M12 13.951a.75.75 0 1 1-.75.75.75.75 0 0 1 .75-.75"/></svg>