<svg xmlns="http://www.w3.org/2000/svg" viewBox="0 0 24 24" width="24" height="24"><defs><style>.a{fill:none;stroke:#000;stroke-linecap:round;stroke-linejoin:round;stroke-width:1.5px}</style></defs><title>cog-3</title><path class="a" d="M10.544 2.439a1.959 1.959 0 0 0 2.908 0l.94-1.042A1.959 1.959 0 0 1 17.8 2.81l-.072 1.4a1.958 1.958 0 0 0 2.057 2.057l1.4-.072A1.959 1.959 0 0 1 22.6 9.607l-1.042.94a1.959 1.959 0 0 0 0 2.908l1.042.94a1.959 1.959 0 0 1-1.413 3.411l-1.4-.072a1.96 1.96 0 0 0-2.057 2.057l.072 1.4a1.959 1.959 0 0 1-3.411 1.413l-.94-1.042a1.959 1.959 0 0 0-2.908 0L9.6 22.605a1.959 1.959 0 0 1-3.411-1.413l.072-1.4a1.961 1.961 0 0 0-2.057-2.057l-1.4.072a1.959 1.959 0 0 1-1.41-3.407l1.042-.94a1.959 1.959 0 0 0 0-2.908l-1.042-.94A1.959 1.959 0 0 1 2.807 6.2l1.4.072a1.96 1.96 0 0 0 2.058-2.061l-.072-1.4A1.959 1.959 0 0 1 9.6 1.4z"/><circle class="a" cx="11.998" cy="12.001" r="6"/><path class="a" d="M11.998 6.001v6m0 0l-4.6 3.85m4.6-3.85l4.868 3.478"/></svg>