<svg xmlns="http://www.w3.org/2000/svg" viewBox="0 0 24 24" width="24" height="24"><defs><style>.a{fill:none;stroke:#000;stroke-linecap:round;stroke-linejoin:round;stroke-width:1.5px}</style></defs><title>cog-hand-give-1</title><path class="a" d="M.75 14.25v9m0-1.5h16.5a3 3 0 0 0-3-3H10.5a3 3 0 0 0-3-3H.75m6 3h3.75m5.974-17.099a1.046 1.046 0 0 0 1.551 0l.5-.556a1.045 1.045 0 0 1 1.819.754l-.038.747a1.044 1.044 0 0 0 1.1 1.1l.747-.039a1.046 1.046 0 0 1 .753 1.82l-.555.5a1.044 1.044 0 0 0 0 1.551l.555.5a1.045 1.045 0 0 1-.753 1.819l-.747-.038a1.044 1.044 0 0 0-1.1 1.1l.038.747a1.045 1.045 0 0 1-1.819.754l-.5-.556a1.046 1.046 0 0 0-1.551 0l-.5.556a1.045 1.045 0 0 1-1.819-.754l.038-.747a1.044 1.044 0 0 0-1.1-1.1l-.747.038a1.045 1.045 0 0 1-.746-1.82l.555-.5a1.044 1.044 0 0 0 0-1.551l-.555-.5a1.046 1.046 0 0 1 .753-1.82l.747.039a1.044 1.044 0 0 0 1.1-1.1l-.038-.747a1.045 1.045 0 0 1 1.811-.748z"/><circle class="a" cx="17.25" cy="6.75" r="1.5"/></svg>