<svg xmlns="http://www.w3.org/2000/svg" viewBox="0 0 24 24" width="24" height="24"><g fill="none" stroke="#000" stroke-linecap="round" stroke-linejoin="round" stroke-miterlimit="10"><ellipse cx="8" cy="2.5" rx="7.5" ry="2"/><path d="M15.5 2.5v3c0 1.105-3.357 2-7.5 2-4.142 0-7.5-.895-7.5-2v-3"/><path d="M15.5 5.5v3c0 1.105-3.357 2-7.5 2-4.142 0-7.5-.895-7.5-2v-3"/><ellipse cx="16" cy="15.5" rx="7.5" ry="2"/><path d="M23.5 15.5v3c0 1.105-3.357 2-7.5 2-4.142 0-7.5-.895-7.5-2v-3"/><path d="M23.5 18.5v3c0 1.105-3.357 2-7.5 2-4.142 0-7.5-.895-7.5-2v-3m7-10v3c0 1.105-3.357 2-7.5 2-4.142 0-7.5-.895-7.5-2v-3"/><path d="M.5 11.5v3c0 1.105 3.358 2 7.5 2h.5"/><path d="M.5 14.5v3c0 1.105 3.358 2 7.5 2h.5m7-8v2"/></g><path fill="none" d="M0 0h24v24H0z"/></svg>