<svg xmlns="http://www.w3.org/2000/svg" viewBox="0 0 24 24" width="24" height="24"><g fill="none" stroke="#000" stroke-linecap="round" stroke-linejoin="round" stroke-miterlimit="10"><ellipse cx="9.5" cy="12.5" rx="5" ry="1"/><path d="M4.5 12.5v2c0 .553 2.238 1 5 1s5-.447 5-1v-2"/><path d="M14.5 14.5v2c0 .553-2.238 1-5 1s-5-.447-5-1v-2"/><path d="M14.5 16.5v2c0 .553-2.238 1-5 1s-5-.447-5-1v-2"/><path d="M14.5 18.5v2c0 .553-2.238 1-5 1s-5-.447-5-1v-2"/><path d="M14.5 20.5v2c0 .553-2.238 1-5 1s-5-.447-5-1v-2m0-6h-4V.5h23v14h-9"/><circle cx="12" cy="7.5" r="3"/><circle cx="5" cy="5" r=".5"/><circle cx="19" cy="10" r=".5"/><path d="M4.5 12.5a2 2 0 01-2-2v-6a2 2 0 012-2h15a2 2 0 012 2v6a2 2 0 01-2 2h-5"/></g><path fill="none" d="M0 0h24v24H0z"/></svg>