<svg xmlns="http://www.w3.org/2000/svg" viewBox="0 0 24 24" width="24" height="24"><defs><style>.a{fill:none;stroke:#000;stroke-linecap:round;stroke-linejoin:round;stroke-width:1.5px}</style></defs><title>color-brush-paint</title><path class="a" d="M10.621 17.879c1.589-1.9.1-4.338 1.513-5.981a2.759 2.759 0 1 1 4.179 3.6 6.5 6.5 0 0 1-5.692 2.381z"/><path class="a" d="M16.6 12.291l6.231-8.253A2.038 2.038 0 1 0 19.377 1.9l-4.53 9.116m-7.29 6.054c-5.3-1.343-3.222-4.116-5.557-4.116-3.036 0-.088 6.968 4.892 9.555a7.459 7.459 0 0 0 8.389-1.435l.081-.082"/></svg>