<svg xmlns="http://www.w3.org/2000/svg" viewBox="0 0 24 24" width="24" height="24"><defs><style>.a{fill:none;stroke:#000;stroke-linecap:round;stroke-linejoin:round;stroke-width:1.5px}</style></defs><title>color-picker-3</title><path class="a" d="M20.729 6.7A3.484 3.484 0 0 0 15.8 1.771L8.411 9.162a4.179 4.179 0 0 0-1.183 2.365l-.3 2.07-1.474 1.478a.7.7 0 0 0 0 .985l.986.986a.7.7 0 0 0 .985 0L8.9 15.568l2.07-.3a4.179 4.179 0 0 0 2.365-1.183zM11.86 1.771l8.869 8.869m-10.84 1.971l4.435-4.435M3.75 18.4l-1.342 2.679a1.5 1.5 0 0 0 .281 1.732 1.5 1.5 0 0 0 2.122 0 1.5 1.5 0 0 0 .281-1.732z"/></svg>