<svg xmlns="http://www.w3.org/2000/svg" viewBox="0 0 24 24" width="24" height="24"><defs><style>.a{fill:none;stroke:#000;stroke-linecap:round;stroke-linejoin:round;stroke-width:1.5px}</style></defs><title>color-brush</title><path class="a" d="M21.75 23.25H2.25a14.213 14.213 0 0 0 1.5-6.35v-1.15h16.5v1.15a14.213 14.213 0 0 0 1.5 6.35z"/><path class="a" d="M14.559 8.208A22.775 22.775 0 0 0 15 3.75a3 3 0 0 0-3-3 3 3 0 0 0-3 3 22.775 22.775 0 0 0 .441 4.458A1.289 1.289 0 0 1 8.177 9.75H5.25a3 3 0 0 0-3 3V15a.75.75 0 0 0 .75.75h18a.75.75 0 0 0 .75-.75v-2.25a3 3 0 0 0-3-3h-2.927a1.289 1.289 0 0 1-1.264-1.542zM17.25 23.25V19.5m-3 3.75v-3"/></svg>