<svg xmlns="http://www.w3.org/2000/svg" viewBox="0 0 24 24" width="24" height="24"><g fill="none" stroke="#000" stroke-linecap="round" stroke-linejoin="round" stroke-miterlimit="10"><path d="M12.5 23.5H.5v-18h8l4 11zm-2.182-13H.5m12 6H.5"/><path d="M5.5 21a1.5 1.5 0 10-3 0v2.5h3V21zm5 0a1.5 1.5 0 10-3 0v2.5h3V21zm-5-7a1.5 1.5 0 10-3 0v2.5h3V14zM9 12.5A1.5 1.5 0 007.5 14v2.5m7 0h2V14a1.5 1.5 0 10-3 0m8 0a1.5 1.5 0 10-3 0v2.5h3V14zm-5 9.5V21a1.5 1.5 0 00-1.5-1.5m6.5 1.5a1.5 1.5 0 10-3 0v2.5h3V21z"/><path d="M12.5 10.5h11v13h-9m-12-16V8m2-.5V8m2-.5V8"/></g><path fill="none" d="M0 0h24v24H0z"/></svg>