<svg xmlns="http://www.w3.org/2000/svg" viewBox="0 0 24 24" width="24" height="24"><defs><style>.a{fill:none;stroke:#000;stroke-linecap:round;stroke-linejoin:round;stroke-width:1.5px}</style></defs><title>color-tube-painting</title><path class="a" d="M10.055 10.857c.033-.008-2.711-1.632-5.228-3.115A2.7 2.7 0 0 0 .75 10.069v.176a2.446 2.446 0 0 0 1.163 2.081 39.541 39.541 0 0 1 4.418 3.084c1.017.941.107 3.094-1.964 2.04S.2 19.246 2.833 20.892a16.186 16.186 0 0 0 6.329 2.358M19.584.864l2.751 1.145a1.5 1.5 0 0 1 .8 1.957L17.947 16.43a1.5 1.5 0 0 1-1.947.812L13.244 16.1a1.5 1.5 0 0 1-.8-1.958l5.188-12.465a1.5 1.5 0 0 1 1.952-.813z"/><path class="a" d="M13.022 12.755l4.034-9.694 5.502 2.29-4.035 9.694zM16 17.242L13.244 16.1a1.482 1.482 0 0 1-.477-.32l-.564 4.76 1.376.573 2.979-3.755a1.475 1.475 0 0 1-.558-.116z"/></svg>