<svg xmlns="http://www.w3.org/2000/svg" viewBox="0 0 24 24" width="24" height="24"><defs><style>.a{fill:none;stroke:#000;stroke-linecap:round;stroke-linejoin:round;stroke-width:1.5px}</style></defs><title>color-spray</title><path class="a" d="M14.25 21.75a1.5 1.5 0 0 1-1.5 1.5h-7.5a1.5 1.5 0 0 1-1.5-1.5v-10.5h10.5zm0-10.5H3.75l1.085-2.171a1.5 1.5 0 0 1 1.342-.829h5.646a1.5 1.5 0 0 1 1.342.829zm-3-6h-4.5V3a.75.75 0 0 1 .75-.75h3a.75.75 0 0 1 .75.75zM9 5.25v3m7.5 0l3.75 1.5m-3.75-7.5l3.75-1.5m-3.75 4.5h3.75"/></svg>