<svg xmlns="http://www.w3.org/2000/svg" viewBox="0 0 24 24" width="24" height="24"><defs><style>.a{fill:none;stroke:#000;stroke-linecap:round;stroke-linejoin:round;stroke-width:1.5px}</style></defs><title>color-triangle</title><circle class="a" cx="12" cy="12" r="11.25"/><circle class="a" cx="12.019" cy="12.019" r="7.5"/><path class="a" d="M12.522 8.549a.605.605 0 0 0-1.044 0l-3.157 5.614a.546.546 0 0 0 .013.56.6.6 0 0 0 .509.277h6.314a.6.6 0 0 0 .509-.277.546.546 0 0 0 .013-.56zm5.387-1.173l2.998-2.249M6.552 2.155l1.944 3.241m5.659 13.814l.905 3.619"/></svg>