<svg xmlns="http://www.w3.org/2000/svg" viewBox="0 0 24 24" width="24" height="24"><defs><style>.a{fill:none;stroke:#000;stroke-linecap:round;stroke-linejoin:round;stroke-width:1.5px}</style></defs><title>color-bucket-brush</title><path class="a" d="M.75 8.25h10.5m-3-7.5v3m-4.5-3v3m6.75-3h-9a.75.75 0 0 0-.75.75V9a5.216 5.216 0 0 0 3 4.715V18a2.25 2.25 0 0 0 4.5 0v-4.285a5.216 5.216 0 0 0 3-4.715V1.5a.75.75 0 0 0-.75-.75zm3 7.734a18.521 18.521 0 0 1 3-.234c3.728 0 6.75 1.007 6.75 2.25s-3.022 2.25-6.75 2.25a18.509 18.509 0 0 1-3-.234m-3 9.516a12.308 12.308 0 0 0 6 1.218c3.728 0 6.75-1.007 6.75-2.25V10.5"/></svg>