<svg xmlns="http://www.w3.org/2000/svg" viewBox="0 0 24 24" width="24" height="24"><defs><style>.a{fill:none;stroke:#000;stroke-linecap:round;stroke-linejoin:round;stroke-width:1.5px}</style></defs><title>color-rolling-brush</title><rect class="a" x="4.125" y=".75" width="16.5" height="7.5" rx="1.5" ry="1.5"/><path class="a" d="M4.125 4.5h-1.5a1.5 1.5 0 0 0-1.5 1.5v3.75a1.5 1.5 0 0 0 1.5 1.5h8.25a1.5 1.5 0 0 1 1.5 1.5v1.5m.75 9h-1.5a1.5 1.5 0 0 1-1.5-1.5V16.5a2.25 2.25 0 0 1 2.25-2.25 2.25 2.25 0 0 1 2.25 2.25v5.25a1.5 1.5 0 0 1-1.5 1.5zm7.5-18.75h2.25"/></svg>