<svg xmlns="http://www.w3.org/2000/svg" viewBox="0 0 24 24" width="24" height="24"><defs><style>.a{fill:none;stroke:#000;stroke-linecap:round;stroke-linejoin:round;stroke-width:1.5px}</style></defs><title>color-picker</title><path class="a" d="M3.32 18.75l-1.243 2.488a1.39 1.39 0 0 0 .26 1.605 1.391 1.391 0 0 0 1.967 0 1.39 1.39 0 0 0 .26-1.605zM20.752 2.068a4.5 4.5 0 0 0-6.364 0L8.024 8.432a4.486 4.486 0 0 0-.865 5.108l-1.786 1.786a.75.75 0 0 0 0 1.061l1.06 1.061a.752.752 0 0 0 1.061 0l1.786-1.786a4.486 4.486 0 0 0 5.108-.866l6.364-6.364a4.5 4.5 0 0 0 0-6.364zM10.82 3l9 9m-9.674-5.689l2.651 2.651m-4.773-.53l2.652 2.652"/></svg>