<svg xmlns="http://www.w3.org/2000/svg" viewBox="0 0 24 24" width="24" height="24"><g fill="none" stroke="#000" stroke-linejoin="round" stroke-miterlimit="10"><circle cx="18" cy="18" r="5.5"/><path d="M19.881 12.831L11.636 1.029l-.413 6.07L3.18 3.828l3.889 7.424-6.04.385 11.801 8.245"/><path stroke-linecap="round" d="M14.662 10.662L13 8m-2.4 6.6L8 13m4.6-.4L10 10"/><path d="M21.889 14.111a5.47 5.47 0 00-1.673-1.132 2.916 2.916 0 003.266 4.828 5.474 5.474 0 00-1.593-3.696zM17 20a2 2 0 00-2 2c0 .237.049.462.125.674.984.605 2.11.863 3.227.793A1.995 1.995 0 0017 20z"/></g><path fill="none" d="M0 0h24v24H0z"/></svg>