<svg xmlns="http://www.w3.org/2000/svg" viewBox="0 0 24 24" width="24" height="24"><defs><style>.a{fill:none;stroke:#000;stroke-linecap:round;stroke-linejoin:round;stroke-width:1.5px}</style></defs><title>common-file-award</title><path class="a" d="M14.96 17.22l-.633 5.241a.666.666 0 0 0 1.127.591l1.823-1.822 1.823 1.822a.667.667 0 0 0 1.128-.591l-.641-5.277"/><circle class="a" cx="17.25" cy="14.25" r="3.75"/><path class="a" d="M10.5 20.25h-6a1.5 1.5 0 0 1-1.5-1.5V2.25A1.5 1.5 0 0 1 4.5.75h10.629a1.5 1.5 0 0 1 1.06.439l2.872 2.872a1.5 1.5 0 0 1 .439 1.06V8.25"/></svg>