<svg xmlns="http://www.w3.org/2000/svg" viewBox="0 0 24 24" width="24" height="24"><defs><style>.a{fill:none;stroke:#000;stroke-linecap:round;stroke-linejoin:round;stroke-width:1.5px}</style></defs><title>common-file-give-hand-1</title><path class="a" d="M11.25 12.75V2.083A1.333 1.333 0 0 1 12.583.75h6.781a1.33 1.33 0 0 1 .943.391l2.552 2.552a1.33 1.33 0 0 1 .391.943v9.781a1.333 1.333 0 0 1-1.333 1.333H16.5M.75 14.25h3a1.5 1.5 0 0 1 1.5 1.5v6a1.5 1.5 0 0 1-1.5 1.5h-3"/><path class="a" d="M20.25 21.75a3 3 0 0 0-3-3H13.5a3 3 0 0 0-3-3H5.25v6zm-9.75-3h3m-10.875.75a.375.375 0 1 1-.375.375.375.375 0 0 1 .375-.375"/></svg>