<svg xmlns="http://www.w3.org/2000/svg" viewBox="0 0 24 24" width="24" height="24"><defs><style>.a{fill:none;stroke:#000;stroke-linecap:round;stroke-linejoin:round;stroke-width:1.5px}</style></defs><title>common-file-give-hand-3</title><path class="a" d="M6.75 12V2.25a1.5 1.5 0 0 1 1.5-1.5h10.629a1.5 1.5 0 0 1 1.06.439l2.872 2.872a1.5 1.5 0 0 1 .439 1.06V18.75m-22.5-4.5h3a1.5 1.5 0 0 1 1.5 1.5v6a1.5 1.5 0 0 1-1.5 1.5h-3"/><path class="a" d="M20.25 21.75a3 3 0 0 0-3-3H13.5a3 3 0 0 0-3-3H5.25v6zm-9.75-3h3m-10.875.75a.375.375 0 1 1-.375.375.375.375 0 0 1 .375-.375"/></svg>