<svg xmlns="http://www.w3.org/2000/svg" viewBox="0 0 24 24" width="24" height="24"><defs><style>.a{fill:none;stroke:#000;stroke-linecap:round;stroke-linejoin:round;stroke-width:1.5px}</style></defs><title>common-file-give-hand</title><path class="a" d="M.75 14.25v9m0-1.5h15a3 3 0 0 0-3-3H9a3 3 0 0 0-3-3H.75m5.25 3h3m14.25-4.333a1.333 1.333 0 0 1-1.333 1.333h-9.334a1.333 1.333 0 0 1-1.333-1.333V2.083A1.333 1.333 0 0 1 12.583.75h6.781a1.33 1.33 0 0 1 .943.391l2.552 2.552a1.33 1.33 0 0 1 .391.943z"/></svg>