<svg xmlns="http://www.w3.org/2000/svg" viewBox="0 0 24 24" width="24" height="24"><defs><style>.a{fill:none;stroke:#000;stroke-linecap:round;stroke-linejoin:round;stroke-width:1.5px}</style></defs><title>common-file-quill</title><path class="a" d="M11 23.25l5.834-5.834m6.344-6.364a10.471 10.471 0 0 0-2.24 0l-2 3.18-1.229-2.289c-4.459 2.189-6.2 7.478-4.551 9.13 2.212 2.216 10.97-1.665 10.02-10.021zM8.25 20.25h-6a1.5 1.5 0 0 1-1.5-1.5V2.25a1.5 1.5 0 0 1 1.5-1.5h10.629a1.5 1.5 0 0 1 1.06.439l2.872 2.872a1.5 1.5 0 0 1 .439 1.06V8.25"/></svg>