<svg xmlns="http://www.w3.org/2000/svg" viewBox="0 0 24 24" width="24" height="24"><defs><style>.a{fill:none;stroke:#000;stroke-linecap:round;stroke-linejoin:round;stroke-width:1.5px}</style></defs><title>common-file-heart-1</title><path class="a" d="M22.477 21.75a1.5 1.5 0 0 1-1.5 1.5H3.023a1.5 1.5 0 0 1-1.5-1.5V2.25a1.5 1.5 0 0 1 1.5-1.5h15a1.5 1.5 0 0 1 1.047.426l2.955 2.883a1.5 1.5 0 0 1 .452 1.074z"/><path class="a" d="M12.023 18.75l-5.114-5.335a3.025 3.025 0 0 1-.567-3.492 3.026 3.026 0 0 1 4.846-.786l.835.835.835-.835a3.025 3.025 0 0 1 4.845.786 3.025 3.025 0 0 1-.567 3.492z"/></svg>