<svg xmlns="http://www.w3.org/2000/svg" viewBox="0 0 24 24" width="24" height="24"><defs><style>.a{fill:none;stroke:#000;stroke-linecap:round;stroke-linejoin:round;stroke-width:1.5px}</style></defs><title>common-file-text-shield</title><path class="a" d="M23.25 15.75a7.669 7.669 0 0 1-6 7.5 7.669 7.669 0 0 1-6-7.5v-3a1.5 1.5 0 0 1 1.5-1.5h9a1.5 1.5 0 0 1 1.5 1.5zm-6-.75v4.5M15 17.25h4.5M3.75 6.75h10.5m-10.5 4.5H7.5m-3.75 4.5H7.5"/><path class="a" d="M7.5 20.25H2.25a1.5 1.5 0 0 1-1.5-1.5V2.25a1.5 1.5 0 0 1 1.5-1.5h10.629a1.5 1.5 0 0 1 1.06.439l2.872 2.872a1.5 1.5 0 0 1 .439 1.06V7.5"/></svg>