<svg xmlns="http://www.w3.org/2000/svg" viewBox="0 0 24 24" width="24" height="24"><g fill="none" stroke="#000" stroke-linecap="round" stroke-linejoin="round" stroke-miterlimit="10"><path d="M19.5 18.5c0 .549-.45 1-1 1h-13c-.55 0-1-.451-1-1v-13c0-.551.45-1 1-1h13c.55 0 1 .449 1 1v13zm-8-18v4m-4-4v4m9-4v4m-16 8h4m-4 4h4m-4-9h4m8 16v-4m4 4v-4m-9 4v-4m16-8h-4m4-4h-4m4 9h-4"/><path d="M17.5 15.5c0 1.1-.9 2-2 2h-7c-1.1 0-2-.9-2-2v-7c0-1.1.9-2 2-2h7c1.1 0 2 .9 2 2v7z"/><path d="M12.5 15V9l-3 4.5H14"/></g><path fill="none" d="M0 0h24v24H0z"/></svg>