<svg xmlns="http://www.w3.org/2000/svg" viewBox="0 0 24 24" width="24" height="24"><g fill="none" stroke="#000" stroke-linejoin="round" stroke-miterlimit="10"><path d="M13.5 16.5c0 .55-.449 1-1 1h-11c-.55 0-1-.45-1-1v-8c0-.55.45-1 1-1h11c.551 0 1 .45 1 1v8z"/><path d="M2.5 9.5h9v6h-9z"/><path stroke-linecap="round" d="M4 20.5h6"/><path d="M5.5 17.5v3m3-3v3m15-15l-1.497-2h-5.064l-1.439 2v15h8z"/><path d="M17.5 5.5h4v2h-4z"/><circle cx="19.5" cy="13" r="1"/><path d="M17 16.5h5m-5 2h5"/></g><path fill="none" d="M0 0h24v24H0z"/></svg>