<svg xmlns="http://www.w3.org/2000/svg" viewBox="0 0 24 24" width="24" height="24"><defs><style>.a{fill:none;stroke:#000;stroke-linecap:round;stroke-linejoin:round;stroke-width:1.5px}</style></defs><title>composition-woman</title><path class="a" d="M18.763 22.5a6.77 6.77 0 0 0-6.75-6.75 6.77 6.77 0 0 0-6.75 6.75zM7.783 10.233v.995a5.905 5.905 0 0 1-.859 3.272m9.099-4.267v.995a5.9 5.9 0 0 0 .859 3.269m-9.088-4.046a5.479 5.479 0 0 0 4.109-1.9 5.479 5.479 0 0 0 4.108 1.9"/><circle class="a" cx="11.903" cy="10.122" r="4.122"/><path class="a" d="M.75 5.249V3a1.5 1.5 0 0 1 1.5-1.5H4.5m0 13.5H2.25a1.5 1.5 0 0 1-1.5-1.5v-2.25m22.5 0v2.25a1.5 1.5 0 0 1-1.5 1.5H19.5m0-13.5h2.245A1.5 1.5 0 0 1 23.25 3v2.25"/></svg>