<svg xmlns="http://www.w3.org/2000/svg" viewBox="0 0 24 24" width="24" height="24"><defs><style>.a{fill:none;stroke:#000;stroke-linecap:round;stroke-linejoin:round;stroke-width:1.5px}</style></defs><title>composition-16-to-9</title><rect class="a" x=".75" y="5.25" width="22.5" height="13.5" rx="3" ry="3"/><path class="a" d="M14.25 8.625a.375.375 0 1 1-.375.375.375.375 0 0 1 .375-.375m0 4.5a.375.375 0 1 1-.375.375.375.375 0 0 1 .375-.375M10.5 8.25a2.25 2.25 0 0 0-2.25 2.25v2.25"/><circle class="a" cx="9.75" cy="12.75" r="1.5"/><path class="a" d="M3.75 8.25h.75a.75.75 0 0 1 .75.75v5.25m-1.5 0h3m13.5-4.5V12A2.25 2.25 0 0 1 18 14.25"/><circle class="a" cx="18.75" cy="9.75" r="1.5"/></svg>