<svg xmlns="http://www.w3.org/2000/svg" viewBox="0 0 24 24" width="24" height="24"><path fill="none" stroke="#000" stroke-linecap="round" stroke-linejoin="round" stroke-miterlimit="10" d="M23.5 15.499c0 .55-.443 1.077-.984 1.171l-9.53 1.658a6.844 6.844 0 01-1.97 0l-9.53-1.658C.943 16.576.5 16.049.5 15.499V3.5c0-.55.45-1 1-1h21c.551 0 1 .45 1 1v11.999z"/><path fill="none" stroke="#000" stroke-linejoin="round" stroke-miterlimit="10" d="M2.5 4.5h19v10h-19z"/><path d="M12 15.999a.5.5 0 100 1 .5.5 0 000-1z"/><path fill="none" stroke="#000" stroke-linecap="round" stroke-linejoin="round" stroke-miterlimit="10" d="M10.5 18.5V21m3-2.5V21m5.909 1.499c-1.741-.913-4.41-1.5-7.409-1.5-2.998 0-5.668.587-7.409 1.5"/><path fill="none" d="M0 0h24v24H0z"/></svg>