<svg xmlns="http://www.w3.org/2000/svg" viewBox="0 0 24 24" width="24" height="24"><g fill="none" stroke="#000" stroke-linejoin="round" stroke-miterlimit="10"><path d="M16.783 14.5H7.127c-.76 1-1.217 2.127-1.217 3.319 0 2.922 2.707 5.362 6.045 5.362S18 20.704 18 17.783c0-1.192-.457-2.283-1.217-3.283zm-4.828 4.522c-.668 0-1.209-.473-1.209-1.058 0-.584.541-1.058 1.209-1.058s1.209.474 1.209 1.058c0 .586-.541 1.058-1.209 1.058z"/><path stroke-linecap="round" d="M4.516 14.5H19.5m2.982-1.26L20.006 2.436C19.727 1.371 18.6.5 17.5.5h-11c-1.1 0-2.227.871-2.504 1.936L1.518 13.24"/><path stroke-linecap="round" d="M3.5 18.5c-1.1 0-2-.9-2-2v-3c0-1.1.9-2 2-2h17c1.1 0 2 .9 2 2v3c0 1.1-.9 2-2 2"/><path d="M16 9.5h4"/></g><path fill="none" d="M0 0h24v24H0z"/></svg>