<svg xmlns="http://www.w3.org/2000/svg" viewBox="0 0 24 24" width="24" height="24"><defs><style>.a{fill:none;stroke:#000;stroke-linecap:round;stroke-linejoin:round;stroke-width:1.5px}</style></defs><title>composition-horizontal</title><path class="a" d="M.75 4.909v14.179a.743.743 0 0 0 1.009.7A28.929 28.929 0 0 1 12 17.97a28.929 28.929 0 0 1 10.241 1.82.743.743 0 0 0 1.009-.7V4.909a.748.748 0 0 0-1.042-.69A26.726 26.726 0 0 1 12 5.97 26.726 26.726 0 0 1 1.792 4.219a.748.748 0 0 0-1.042.69z"/></svg>