<svg xmlns="http://www.w3.org/2000/svg" viewBox="0 0 24 24" width="24" height="24"><defs><style>.a{fill:none;stroke:#000;stroke-linecap:round;stroke-linejoin:round;stroke-width:1.5px}</style></defs><title>computer-ram</title><path class="a" d="M22.78 8.028L8.028 22.78a1.6 1.6 0 0 1-2.269 0L1.22 18.241a1.6 1.6 0 0 1 0-2.269L7.461 9.73l.477.1a1.605 1.605 0 0 0 1.888-1.892l-.1-.477 6.246-6.241a1.6 1.6 0 0 1 2.269 0l4.539 4.539a1.6 1.6 0 0 1 0 2.269z"/><path class="a" d="M5.759 18.241l1.135 1.135 2.269-2.27-1.135-1.134m7.944-7.944l1.134 1.135 2.27-2.269-1.135-1.135m-7.943 7.943l1.135 1.135 3.404-3.404-1.135-1.135M2.355 14.837l1.134 1.135m1.135-3.405l1.135 1.135m6.808-9.078l1.135 1.135m1.135-3.404l1.135 1.134"/></svg>