<svg xmlns="http://www.w3.org/2000/svg" viewBox="0 0 24 24" width="24" height="24"><path fill="none" stroke="#000" stroke-linejoin="round" stroke-miterlimit="10" d="M.5 8.5h23v15H.5zm3.285-7h16.43l3.285 7H.5z"/><circle fill="none" stroke="#000" stroke-linejoin="round" stroke-miterlimit="10" cx="7.5" cy="16" r="5"/><path fill="none" stroke="#000" stroke-linejoin="round" stroke-miterlimit="10" d="M15.5 10.5h6v4h-6zm0 7h6v4h-6zm-8-6.5v10m3.535-8.535l-7.07 7.07M12.5 16h-10m8.535 3.535l-7.07-7.07"/><path d="M17.5 12a.5.5 0 100 1 .5.5 0 000-1zm2 0a.5.5 0 100 1 .5.5 0 000-1zm-2 7a.5.5 0 100 1 .5.5 0 000-1zm2 0a.5.5 0 100 1 .5.5 0 000-1z"/><path fill="none" d="M0 0h24v24H0z"/></svg>