<svg xmlns="http://www.w3.org/2000/svg" viewBox="0 0 24 24" width="24" height="24"><g fill="none" stroke="#000" stroke-linecap="round" stroke-linejoin="round" stroke-miterlimit="10"><path d="M19.5 18.5c0 .55-.45 1-1 1h-13c-.55 0-1-.45-1-1v-13c0-.55.45-1 1-1h13c.55 0 1 .45 1 1v13zm-8-18v4m-4-4v4m9-4v4m-16 8h4m-4 4h4m-4-9h4m8 16v-4m4 4v-4m-9 4v-4m16-8h-4m4-4h-4m4 9h-4"/><path d="M17.5 15.5c0 1.101-.9 2-2 2h-7c-1.1 0-2-.899-2-2v-7c0-1.1.9-2 2-2h7c1.1 0 2 .9 2 2v7z"/><path d="M12.809 10.912a.935.935 0 01.936-.895.934.934 0 01.756 1.483l-1.704 2.434h1.873M9.193 10.937c.017-.367.183-.937.936-.937.798 0 .936.642.936.999s-.138 1-.936 1m-.936 1.064c.017.366.183.937.936.937.798 0 .936-.644.936-1 0-.358-.138-1.001-.936-1.001"/></g><path fill="none" d="M0 0h24v24H0z"/></svg>