<svg xmlns="http://www.w3.org/2000/svg" viewBox="0 0 24 24" width="24" height="24"><defs><style>.a{fill:none;stroke:#000;stroke-linecap:round;stroke-linejoin:round;stroke-width:1.5px}</style></defs><title>composition-man</title><path class="a" d="M5.25 22.5a6.75 6.75 0 0 1 13.5 0zM8.458 8.043a6.857 6.857 0 0 0 7.612 1.532"/><circle class="a" cx="12" cy="10.125" r="4.125"/><path class="a" d="M.75 5.249V3a1.5 1.5 0 0 1 1.5-1.5H4.5m0 13.5H2.25a1.5 1.5 0 0 1-1.5-1.5v-2.25m22.5 0v2.25a1.5 1.5 0 0 1-1.5 1.5H19.5m0-13.5h2.25a1.5 1.5 0 0 1 1.5 1.5v2.25"/></svg>