<svg xmlns="http://www.w3.org/2000/svg" viewBox="0 0 24 24" width="24" height="24"><defs><style>.a{fill:none;stroke:#000;stroke-linecap:round;stroke-linejoin:round;stroke-width:1.5px}</style></defs><title>computer-bug-1</title><circle class="a" cx="12" cy="14.298" r="8.25"/><path class="a" d="M4.658 10.548h14.684m-7.342 0v12M4.292 11.351a5.225 5.225 0 0 0-2.792-.8m0 10.497a5.239 5.239 0 0 0 3.926-1.765M1.5 15.048h2.285m15.923-3.697a5.225 5.225 0 0 1 2.792-.8m0 10.497a5.239 5.239 0 0 1-3.926-1.765m3.926-4.235h-2.285M5.96 1.5c0 2.937.228 4.027 2.687 5.258M17.96 1.5c0 2.937-.228 4.027-2.687 5.258"/></svg>