<svg xmlns="http://www.w3.org/2000/svg" viewBox="0 0 24 24" width="24" height="24"><defs><style>.a{fill:none;stroke:#000;stroke-linecap:round;stroke-linejoin:round;stroke-width:1.5px}</style></defs><title>computer-chip-4</title><path class="a" d="M8.25 7.5v-3m3 3v-3m-6 6h-3m3 6h-3m3-3h-3m9 9v-3m9-3h-3m-9 6v-3m6 3v-3m3-6V18a1.5 1.5 0 0 1-1.5 1.5h-9a1.5 1.5 0 0 1-1.5-1.5V9a1.5 1.5 0 0 1 1.5-1.5h6"/><rect class="a" x="8.25" y="10.5" width="6" height="6" rx=".75" ry=".75"/><path class="a" d="M21.731 8.985v-1.5m0 0V1.5a8.258 8.258 0 0 0-4.481 5.985h4.481"/></svg>