<svg xmlns="http://www.w3.org/2000/svg" viewBox="0 0 24 24" width="24" height="24"><path fill="none" stroke="#000" stroke-linecap="round" stroke-linejoin="round" stroke-miterlimit="10" d="M23.5 19.5c0 1.1-.899 2-2 2h-19c-1.1 0-2-.9-2-2v-4c0-1.1.9-2 2-2h19c1.101 0 2 .9 2 2v4zm-20-1h17"/><path d="M20.5 16a.5.5 0 10.002 1.002A.5.5 0 0020.5 16zm-2 0a.5.5 0 10.002 1.002A.5.5 0 0018.5 16z"/><path fill="none" stroke="#000" stroke-linecap="round" stroke-linejoin="round" stroke-miterlimit="10" d="M23.5 15l-2.495-9.564C20.728 4.371 19.601 3.5 18.5 3.5h-13c-1.1 0-2.227.871-2.504 1.936L.5 15"/><path fill="none" d="M0 0h24v24H0z"/></svg>