<svg xmlns="http://www.w3.org/2000/svg" viewBox="0 0 24 24" width="24" height="24"><defs><style>.a{fill:none;stroke:#000;stroke-linecap:round;stroke-linejoin:round;stroke-width:1.5px}</style></defs><title>computer-shield</title><path class="a" d="M6.4 15.3a9.112 9.112 0 0 0 3.973 3l.8.308a2.306 2.306 0 0 0 1.656 0l.8-.308a9.117 9.117 0 0 0 3.973-3m1.803-4.307A9.138 9.138 0 0 0 19.5 9.75V4.691a1.145 1.145 0 0 0-.667-1.048A16.713 16.713 0 0 0 12 2.25a16.713 16.713 0 0 0-6.833 1.393A1.145 1.145 0 0 0 4.5 4.691V9.75a9.138 9.138 0 0 0 .1 1.243m-.045 2.349S3.75 16.5.75 16.5L3 18 .75 21.75a8.111 8.111 0 0 0 6-2.986m12.695-5.422s.8 3.158 3.805 3.158L21 18l2.25 3.75a8.111 8.111 0 0 1-6-2.986"/><path class="a" d="M12 12.75a8.1 8.1 0 0 1 6 3L20.25 12S18 8.25 12 8.25 3.75 12 3.75 12L6 15.75a8.1 8.1 0 0 1 6-3z"/></svg>