<svg xmlns="http://www.w3.org/2000/svg" viewBox="0 0 24 24" width="24" height="24"><g fill="none" stroke="#000" stroke-miterlimit="10"><g stroke-linecap="round" stroke-linejoin="round"><path d="M13.5 17.5h-12c-.55 0-1-.45-1-1v-12c0-.55.45-1 1-1h18c.55 0 1 .45 1 1V6"/><path d="M13.5 15.5h-11v-10h16m-10 12v3m4-3v3m-5.5 0h6.5"/></g><path stroke-linecap="round" stroke-linejoin="round" d="M23.5 20.5H22l-1-1h-3l-1 1h-1.5v-13H17l1 1h3l1-1h1.5zm-6-10h4m-4 2h4"/><path d="M17 17h1v1h-1z"/></g><path fill="none" d="M0 0h24v24H0z"/></svg>