<svg xmlns="http://www.w3.org/2000/svg" viewBox="0 0 24 24" width="24" height="24"><defs><style>.a{fill:none;stroke:#000;stroke-linecap:round;stroke-linejoin:round;stroke-width:1.5px}</style></defs><title>computer-bug-search</title><path class="a" d="M10.5 2.283a8.9 8.9 0 0 1 3.824.507A9 9 0 1 1 3.347 15.56m13.879 2.419l6.024 5.271M3 6.75h6m-6 0L.75 5.7M3 9H.75m2.517 1.983L1.5 12.75m7.5-6l2.25-1.05M9 9h2.25m-2.517 1.983L10.5 12.75M5.095 3.14L3.9.75m3.005 2.391L8.1.75"/><rect class="a" x="3" y="3" width="6" height="9.75" rx="3" ry="3"/></svg>