<svg xmlns="http://www.w3.org/2000/svg" viewBox="0 0 24 24" width="24" height="24"><defs><style>.a{fill:none;stroke:#000;stroke-linecap:round;stroke-linejoin:round;stroke-width:1.5px}</style></defs><title>computer-chip-32</title><path class="a" d="M7.117 7.5v-3m3 3v-3m-6 6h-3m3 6h-3m3-3h-3m9 9v-3m9-3h-3m-9 6v-3m6 3v-3m3-6V18a1.5 1.5 0 0 1-1.5 1.5h-9a1.5 1.5 0 0 1-1.5-1.5V9a1.5 1.5 0 0 1 1.5-1.5h6"/><rect class="a" x="7.117" y="10.5" width="6" height="6" rx=".75" ry=".75"/><path class="a" d="M14.667 2.612a1.5 1.5 0 1 1 1.45 1.888 1.5 1.5 0 1 1-1.446 1.9M19.867 3a1.5 1.5 0 0 1 1.5-1.5 1.5 1.5 0 0 1 1.5 1.5 2.14 2.14 0 0 1-.467 1.336L19.867 7.5h3"/></svg>