<svg xmlns="http://www.w3.org/2000/svg" viewBox="0 0 24 24" width="24" height="24"><defs><style>.a{fill:none;stroke:#000;stroke-linecap:round;stroke-linejoin:round;stroke-width:1.5px}</style></defs><title>computer-chip-shield</title><path class="a" d="M18 11.25a8.663 8.663 0 0 1-5.25-7.962V2.25a1.5 1.5 0 0 1 1.5-1.5h7.5a1.5 1.5 0 0 1 1.5 1.5v1.038A8.663 8.663 0 0 1 18 11.25zm4.844-10.025l-8.62 6.896M6.75 8.25v-3m3 3v-3m-6 6h-3m3 6h-3m3-3h-3m9 9v-3m9-3h-3m-9 6v-3m6 3v-3m3-6v4.5a1.5 1.5 0 0 1-1.5 1.5h-9a1.5 1.5 0 0 1-1.5-1.5v-9a1.5 1.5 0 0 1 1.5-1.5h6"/><rect class="a" x="6.75" y="11.25" width="6" height="6" rx=".75" ry=".75"/></svg>