<svg xmlns="http://www.w3.org/2000/svg" viewBox="0 0 24 24" width="24" height="24"><defs><style>.a{fill:none;stroke:#000;stroke-linecap:round;stroke-linejoin:round;stroke-width:1.5px}</style></defs><title>computer-chip-8</title><path class="a" d="M7.5 7.5v-3m3 3v-3m-6 6h-3m3 6h-3m3-3h-3m9 9v-3m9-3h-3m-9 6v-3m6 3v-3m3-6V18a1.5 1.5 0 0 1-1.5 1.5H6A1.5 1.5 0 0 1 4.5 18V9A1.5 1.5 0 0 1 6 7.5h6"/><rect class="a" x="7.5" y="10.5" width="6" height="6" rx=".75" ry=".75"/><circle class="a" cx="20.25" cy="6.75" r="2.25"/><circle class="a" cx="20.25" cy="3" r="1.5"/></svg>