<svg xmlns="http://www.w3.org/2000/svg" viewBox="0 0 24 24" width="24" height="24"><path fill="none" stroke="#000" stroke-linecap="round" stroke-linejoin="round" stroke-miterlimit="10" d="M20.5 20.5c0 1.1-.899 2-2 2h-13c-1.1 0-2-.9-2-2v-17c0-1.1.9-2 2-2h13c1.101 0 2 .9 2 2v17z"/><circle fill="none" stroke="#000" stroke-linecap="round" stroke-linejoin="round" stroke-miterlimit="10" cx="12" cy="10" r="6.5"/><path fill="none" stroke="#000" stroke-linecap="round" stroke-linejoin="round" stroke-miterlimit="10" d="M9 13l-3.5 3.5m6 4h-6v-4l6 3z"/><path d="M17.5 19a.5.5 0 100 1 .5.5 0 000-1z"/><path fill="none" stroke="#000" stroke-linejoin="round" stroke-miterlimit="10" d="M12.5 10a.5.5 0 01-.5.5h0a.5.5 0 01-.5-.5h0a.5.5 0 01.5-.5h0a.5.5 0 01.5.5h0z"/><path fill="none" d="M0 0h24v24H0z"/></svg>