<svg xmlns="http://www.w3.org/2000/svg" viewBox="0 0 24 24" width="24" height="24"><defs><style>.a{fill:none;stroke:#000;stroke-linecap:round;stroke-linejoin:round;stroke-width:1.5px}</style></defs><title>computer-chip-fire</title><path class="a" d="M6.75 8.25v-3m3 3v-3m-6 6h-3m3 6h-3m3-3h-3m9 9v-3m9-3h-3m-9 6v-3m6 3v-3m3-6v4.5a1.5 1.5 0 0 1-1.5 1.5h-9a1.5 1.5 0 0 1-1.5-1.5v-9a1.5 1.5 0 0 1 1.5-1.5H12"/><rect class="a" x="6.75" y="11.25" width="6" height="6" rx=".75" ry=".75"/><path class="a" d="M18.312.75a4.375 4.375 0 0 1 .444 4.986 1.558 1.558 0 0 1-1.662-1.329 3.527 3.527 0 0 0-1.829 3.324 3.989 3.989 0 0 0 3.989 3.989 4.044 4.044 0 0 0 3.989-3.989A6.631 6.631 0 0 0 18.312.75z"/></svg>