<svg xmlns="http://www.w3.org/2000/svg" viewBox="0 0 24 24" width="24" height="24"><g fill="none" stroke="#000" stroke-miterlimit="10"><g stroke-linecap="round" stroke-linejoin="round"><path d="M14.5 17.5h-13c-.55 0-1-.45-1-1v-12c0-.55.45-1 1-1h18c.55 0 1 .45 1 1v.999"/><path d="M14.5 15.5h-12v-10l16-.001M8.5 17.5v3m4-3v3m-5.5 0h7"/></g><path stroke-linecap="round" stroke-linejoin="round" d="M16.5 7.5h7v13h-7zm0 4h7m-7 2h7m-7 3h7"/><path d="M21 18h1v1h-1z"/><path stroke-linecap="round" stroke-linejoin="round" d="M19.5 9.5H22"/></g><path fill="none" d="M0 0h24v24H0z"/></svg>