<svg id="Regular" xmlns="http://www.w3.org/2000/svg" viewBox="0 0 24 24" width="24" height="24"><defs><style>.cls-1{fill:none;stroke:#000;stroke-linecap:round;stroke-linejoin:round;stroke-width:1.5px}</style></defs><title>concert-rock</title><path class="cls-1" d="M15.061 10.5V3.75a1.5 1.5 0 0 1 1.5-1.5 1.5 1.5 0 0 1 1.5 1.5V15l2.439-1.951a1.539 1.539 0 0 1 2.242.348 1.541 1.541 0 0 1 0 1.707l-3.65 5.474c-.1.146-.2.287-.309.422a6 6 0 0 1-4.683 2.25h-2.918a5.118 5.118 0 0 1-3.621-1.5 5.113 5.113 0 0 1-1.5-3.621V6.75a1.5 1.5 0 0 1 1.5-1.5 1.5 1.5 0 0 1 1.5 1.5v3.75"/><path class="cls-1" d="M12.061 10.5a1.5 1.5 0 0 1 1.5-1.5 1.5 1.5 0 0 1 1.5 1.5v3a1.5 1.5 0 0 1-3 0zm-3 0a1.5 1.5 0 0 1 1.5-1.5 1.5 1.5 0 0 1 1.5 1.5v3a1.5 1.5 0 0 1-3 0zM1.561.75l2.25 3h-3l2.25 3"/></svg>