<svg id="Regular" xmlns="http://www.w3.org/2000/svg" viewBox="0 0 24 24" width="24" height="24"><defs><style>.cls-1{fill:none;stroke:#000;stroke-linecap:round;stroke-linejoin:round;stroke-width:1.5px}</style></defs><title>concert-couple-duet</title><path class="cls-1" d="M4.5 3.75A3 3 0 1 0 6.484 9M.75 17.25V15a3.75 3.75 0 0 1 7.5 0v2.25h-1.5l-.75 6H3l-.75-6zm16.5 6l-.75-4.5h-2.25l1.134-4.134c.673-2.019 1.507-3.366 3.366-3.366s2.693 1.347 3.366 3.366l1.134 4.134H21l-.75 4.5z"/><circle class="cls-1" cx="18.75" cy="6.75" r="3"/><circle class="cls-1" cx="9" cy="5.25" r="1.5"/><path class="cls-1" d="M10.5 5.25V.75"/><circle class="cls-1" cx="12" cy="12" r="1.5"/><path class="cls-1" d="M13.5 12V7.5"/></svg>