<svg id="Regular" xmlns="http://www.w3.org/2000/svg" viewBox="0 0 24 24" width="24" height="24"><defs><style>.cls-1{fill:none;stroke:#000;stroke-linecap:round;stroke-linejoin:round;stroke-width:1.5px}</style></defs><title>concert-speakers</title><path class="cls-1" d="M2.25 5.25v6m19.5-6v6"/><rect class="cls-1" x=".75" y="14.25" width="6.75" height="9" rx=".5" ry=".5"/><rect class="cls-1" x="16.5" y="14.25" width="6.75" height="9" rx=".5" ry=".5"/><path class="cls-1" d="M19.875 18.75a.375.375 0 0 1 .375.375m-.75 0a.375.375 0 0 1 .375-.375m0 .75a.375.375 0 0 1-.375-.375m.75 0a.375.375 0 0 1-.375.375m-15.75-.75a.375.375 0 0 1 .375.375m-.75 0a.375.375 0 0 1 .375-.375m0 .75a.375.375 0 0 1-.375-.375m.75 0a.375.375 0 0 1-.375.375"/><rect class="cls-1" x=".75" y=".75" width="22.5" height="4.5" rx="1" ry="1"/><path class="cls-1" d="M2.25.75l4.5 4.5L12 .75l5.25 4.5 4.5-4.5"/></svg>