<svg xmlns="http://www.w3.org/2000/svg" viewBox="0 0 24 24" width="24" height="24"><g fill="none" stroke="#000" stroke-linecap="round" stroke-linejoin="round" stroke-miterlimit="10"><path d="M.5 15.5l7.778 7.778m13.4-18.346c-.185-.69.013-1.43.518-1.935l.578-.578a1 1 0 10-1.414-1.415l-.578.579a2 2 0 01-1.934.517 3.977 3.977 0 00-3.852 1.026L1.561 16.561l5.656 5.657L20.652 8.783a3.977 3.977 0 001.026-3.851z"/><path d="M18.782 4.22a3.956 3.956 0 00-3.069 1.153l-2.43 2.43"/></g><path fill="none" d="M0 0h24v24H0z"/></svg>