<svg xmlns="http://www.w3.org/2000/svg" viewBox="0 0 24 24" width="24" height="24"><defs><style>.a{fill:none;stroke:#000;stroke-linecap:round;stroke-linejoin:round;stroke-width:1.5px}</style></defs><title>connect-device-cancel</title><path class="a" d="M9.75 18a2.25 2.25 0 0 1-2.25 2.25H3A2.25 2.25 0 0 1 .75 18V6A2.25 2.25 0 0 1 3 3.75h4.5A2.25 2.25 0 0 1 9.75 6m4.5 0a2.25 2.25 0 0 1 2.25-2.25H21A2.25 2.25 0 0 1 23.25 6v12A2.25 2.25 0 0 1 21 20.25h-4.5A2.25 2.25 0 0 1 14.25 18m-6-9.75l7.5 7.5m0-7.5l-7.5 7.5m-7.5 1.5h4.5m13.5 0h4.5"/></svg>