<svg xmlns="http://www.w3.org/2000/svg" viewBox="0 0 24 24" width="24" height="24"><defs><style>.a{fill:none;stroke:#000;stroke-linecap:round;stroke-linejoin:round;stroke-width:1.5px}</style></defs><title>connector-1</title><path class="a" d="M20.25 12h3M.75 12h3M12 .75v3m0 16.5v3M18.75 9H15V5.25a1.5 1.5 0 0 0-1.5-1.5h-3A1.5 1.5 0 0 0 9 5.25V9H5.25a1.5 1.5 0 0 0-1.5 1.5v3a1.5 1.5 0 0 0 1.5 1.5H9v3.75a1.5 1.5 0 0 0 1.5 1.5h3a1.5 1.5 0 0 0 1.5-1.5V15h3.75a1.5 1.5 0 0 0 1.5-1.5v-3a1.5 1.5 0 0 0-1.5-1.5z"/></svg>