<svg xmlns="http://www.w3.org/2000/svg" viewBox="0 0 24 24" width="24" height="24"><defs><style>.a{fill:none;stroke:#000;stroke-linecap:round;stroke-linejoin:round;stroke-width:1.5px}</style></defs><title>construction-mortar-machine</title><circle class="a" cx="3.75" cy="21.75" r="1.5"/><circle class="a" cx="20.25" cy="21.75" r="1.5"/><path class="a" d="M21.437 4.478a1.5 1.5 0 0 0-1.286-.728h-1.4a1.5 1.5 0 0 0-1.5 1.5v10.5a1.5 1.5 0 0 1-1.5 1.5H2.25a1.5 1.5 0 0 0 0 3h19.5a1.5 1.5 0 0 0 1.5-1.5V7.915a1.5 1.5 0 0 0-.214-.771z"/><path class="a" d="M13.2 1.418A1.5 1.5 0 0 0 11.947.75H4.553a1.5 1.5 0 0 0-1.248.668L1 4.872a1.5 1.5 0 0 0-.25.828v2.55a7.5 7.5 0 0 0 15 0V5.7a1.5 1.5 0 0 0-.252-.832zm7.05 8.332h3m-22.348 0h14.696M.825 5.25h14.854m4.571 7.5h3"/></svg>