<svg xmlns="http://www.w3.org/2000/svg" viewBox="0 0 24 24" width="24" height="24"><g fill="none" stroke="#000" stroke-linejoin="round" stroke-miterlimit="10"><path d="M10 13.5H.5V19"/><path d="M.5 14V8.5H13M.5 3.5h11v5H.5zm4 0v5m4 0v5m-4 0v5m12 .5v4.5"/><g stroke-linecap="round"><path d="M17.003 6.645a1.498 1.498 0 002.117.133l3.859-3.506a1.496 1.496 0 00.133-2.116 1.499 1.499 0 00-2.116-.133l-3.86 3.505a1.505 1.505 0 00-.133 2.117z"/><path d="M17.015 6.656l3.203 3.692-3.75 3.308"/><path d="M14.031 10.37c.295-1.115 1.683-1.316 2.5-.5l3.5 3.5c.824.825.624 2.217-.5 2.5l-9 3.5 3.5-9z"/></g><path d="M18.515 18.5H23.5v5H.5v-5h8v5"/></g><path fill="none" d="M0 0h24v24H0z"/></svg>