<svg xmlns="http://www.w3.org/2000/svg" viewBox="0 0 24 24" width="24" height="24"><defs><style>.a{fill:none;stroke:#000;stroke-linecap:round;stroke-linejoin:round;stroke-width:1.5px}</style></defs><title>construction-house</title><path class="a" d="M11.25 20.105h-6a1.5 1.5 0 0 1-1.5-1.5V9.75m-3-1.5l9.531-7.145a1.5 1.5 0 0 1 1.938 0L21.75 8.25"/><path class="a" d="M8.25 20.105v-4.052a1.5 1.5 0 0 1 1.5-1.5h1.5"/><circle class="a" cx="11.25" cy="7.5" r="2.25"/><path class="a" d="M18 15.75v7.5m2.25-7.5H16.5a2.244 2.244 0 0 0-1.572 1.1.376.376 0 0 1-.678-.222V15a3 3 0 0 1 3-3h3zm.5-4.5h2.5v5.25h-2.5a.5.5 0 0 1-.5-.5v-4.25a.5.5 0 0 1 .5-.5z"/></svg>