<svg xmlns="http://www.w3.org/2000/svg" viewBox="0 0 24 24" width="24" height="24"><defs><style>.a{fill:none;stroke:#000;stroke-linecap:round;stroke-linejoin:round;stroke-width:1.5px}</style></defs><title>construction-paper-home</title><path class="a" d="M14.379.75H3a1.5 1.5 0 0 0-1.5 1.5v19.5a1.5 1.5 0 0 0 1.5 1.5h18a1.5 1.5 0 0 0 1.5-1.5V8.871a1.5 1.5 0 0 0-.439-1.06l-6.622-6.622a1.5 1.5 0 0 0-1.06-.439z"/><path class="a" d="M15 .885V6.75a1.5 1.5 0 0 0 1.5 1.5h5.865m-7.365 5v5.5H9v-5.5"/><path class="a" d="M7.5 14.25l4.5-3 4.5 3"/></svg>