<svg xmlns="http://www.w3.org/2000/svg" viewBox="0 0 24 24" width="24" height="24"><defs><style>.a{fill:none;stroke:#000;stroke-linecap:round;stroke-linejoin:round;stroke-width:1.5px}</style></defs><title>construction-fence</title><path class="a" d="M2.25 2.25a1.5 1.5 0 0 0-1.5 1.5v18a1.5 1.5 0 0 0 1.5 1.5h19.5a1.5 1.5 0 0 0 1.5-1.5v-3a1.5 1.5 0 0 0-1.5-1.5h-6.879a1.5 1.5 0 0 1-1.06-.439l-3.622-3.622a1.5 1.5 0 0 1-.439-1.06V9.75a1.5 1.5 0 0 0-1.5-1.5h-1.5a1.5 1.5 0 0 1-1.5-1.5v-3a1.5 1.5 0 0 0-1.5-1.5zm3 1.5h18m-10.5 4.5h10.5m-9.75 4.5h9.75M9.75.75v4.5m4.5-4.5v12m4.5-12v16.5"/></svg>