<svg xmlns="http://www.w3.org/2000/svg" viewBox="0 0 24 24" width="24" height="24"><defs><style>.a{fill:none;stroke:#000;stroke-linecap:round;stroke-linejoin:round;stroke-width:1.5px}</style></defs><title>construction-drill</title><path class="a" d="M10.5.75h3a3 3 0 0 1 3 3v8a1 1 0 0 1-1 1h-7a1 1 0 0 1-1-1v-8a3 3 0 0 1 3-3zm1.5 18v4.5m2.25-6a1.5 1.5 0 0 1-1.5 1.5h-1.5a1.5 1.5 0 0 1-1.5-1.5L9 12.75h6zm-3.75-12h3m-3 3h3M3 3.75h4.756m8.488 0H21M1.5 20.25l.774 2.45A1 1 0 0 0 4 22.805L5 20.7a1 1 0 0 1 1.726.108L7.5 23.25m15-3l-.774 2.45a1 1 0 0 1-1.726.105L19 20.7a1 1 0 0 0-1.726.108L16.5 23.25"/></svg>