<svg xmlns="http://www.w3.org/2000/svg" viewBox="0 0 24 24" width="24" height="24"><defs><style>.a{fill:none;stroke:#000;stroke-linecap:round;stroke-linejoin:round;stroke-width:1.5px}</style></defs><title>construction-house-1</title><path class="a" d="M23.25 9.75H.75l6.75-9 6.75 9m-.75-9l6.75 9m-3.75 7.5h5.25a1.5 1.5 0 0 1 1.5 1.5v3a1.5 1.5 0 0 1-1.5 1.5H6m8.25-13.5v4.5M.75 9.75v1.5M7.5.75h11.25m-7.875 4.5H21m-.75 4.5v7.5"/><rect class="a" x=".75" y="20.25" width="11.25" height="3" rx=".5" ry=".5"/><rect class="a" x="3" y="17.25" width="11.25" height="3" rx=".5" ry=".5"/><rect class="a" x=".75" y="14.25" width="11.25" height="3" rx=".5" ry=".5"/></svg>