<svg xmlns="http://www.w3.org/2000/svg" viewBox="0 0 24 24" width="24" height="24"><defs><style>.a{fill:none;stroke:#000;stroke-linecap:round;stroke-linejoin:round;stroke-width:1.5px}</style></defs><title>construction-shovel</title><path class="a" d="M9.633 18.876a11.173 11.173 0 0 0-1.884-1.525 4.4 4.4 0 0 0-6.473 2.172A11.044 11.044 0 0 0 .75 23.25h22.5c0-3.75-.764-7.569-4.384-8.784a6.007 6.007 0 0 0-5.117.617 20.238 20.238 0 0 0-5.6 5.776M.75 5.262L5.262.75M3.006 3.006l6.769 6.769m.298 4.81l-1.426-1.426a1.6 1.6 0 0 1 0-2.256L10.9 8.647a1.6 1.6 0 0 1 2.256 0l1.426 1.426a1.6 1.6 0 0 1 .386.623l.468 1.406"/></svg>