<svg xmlns="http://www.w3.org/2000/svg" viewBox="0 0 24 24" width="24" height="24"><defs><style>.a{fill:none;stroke:#000;stroke-linecap:round;stroke-linejoin:round;stroke-width:1.5px}</style></defs><title>construction-paint</title><path class="a" d="M9.75 15.656V13.5a1.506 1.506 0 0 0-1.5-1.5H3.375a2.625 2.625 0 0 1 0-5.25h.375m6 16.5a1.5 1.5 0 0 1-1.5-1.5v-4.5a1.5 1.5 0 0 1 3 0v4.5a1.5 1.5 0 0 1-1.5 1.5z"/><rect class="a" x="3.75" y="4.5" width="12" height="4.5" rx="1" ry="1"/><path class="a" d="M.75.75h21a1.5 1.5 0 0 1 1.5 1.5v19.5a1.5 1.5 0 0 1-1.5 1.5h-7.5m-9 0H1.5"/><path class="a" d="M18.75.75v15a3 3 0 0 1-3 3h-1.5m-9 0A2.25 2.25 0 0 1 3 16.5V15"/></svg>