<svg id="Regular" xmlns="http://www.w3.org/2000/svg" viewBox="0 0 24 24" width="24" height="24"><defs><style>.cls-1{fill:none;stroke:#000;stroke-linecap:round;stroke-linejoin:round;stroke-width:1.5px}</style></defs><title>console-lamp</title><rect class="cls-1" x=".75" y="11.25" width="22.5" height="9" rx="1" ry="1"/><path class="cls-1" d="M.75 15.75h12m0-4.5v9m4.5-6h1.5m-15 6l-3 3m19.5-3l3 3m-10.5-16.5h10.5l-1.5-6h-7.5l-1.5 6zm2.25 0a3.75 3.75 0 0 0 0 4.5h6a3.75 3.75 0 0 0 0-4.5zm-11.25 0h3v4.5h-3zm0-6s1.5 1.5 1.5 6"/></svg>