<svg xmlns="http://www.w3.org/2000/svg" viewBox="0 0 24 24" width="24" height="24"><path fill="none" stroke="#000" stroke-linejoin="round" stroke-miterlimit="10" d="M23.5 23.479V3.656L16.53.5 7.578 3.636.5.5l.02 19.823 7.042 3.135 8.968-3.135z"/><path fill="none" stroke="#000" stroke-linejoin="round" stroke-miterlimit="10" d="M2.5 3.927v15.057l5.062 2.005 8.968-3.005 4.97 1.958V5.396l-4.97-2.417-8.952 3z"/><path fill="none" stroke="#000" stroke-linecap="round" stroke-linejoin="round" stroke-miterlimit="10" d="M14.5 8.958V3.66m-12 10.668l5.156 1.888 3.844-1.32v4.774m3-1.005v-4.707l1.917-.916L21.5 15m-19-7.074l5 2.001 3.968-1m-6.968-.2V6.958m4 2.717V7.958m-2 1.568V7.958"/><path fill="none" d="M0 0h24v24H0z"/></svg>