<svg xmlns="http://www.w3.org/2000/svg" viewBox="0 0 24 24" width="24" height="24"><defs><style>.a{fill:none;stroke:#000;stroke-linecap:round;stroke-linejoin:round;stroke-width:1.5px}</style></defs><title>content-quill-pen</title><path class="a" d="M23.254 23.251l-6.375-6.375M3.64 11.267A18.262 18.262 0 0 1 .759.825c.121 0 6.678-.808 11.178 2.9m7.976 12.033c.238 1.541.039 2.793-.66 3.492-1.06 1.06-3.247 1.056-5.757.137M4.867 14.9a1.5 1.5 0 0 0 0 2.121l2.121 2.122a1.5 1.5 0 0 0 2.121 0L22.368 5.879a3 3 0 0 0-4.243-4.242zm17.501-9.021a3 3 0 0 1 0 4.243L19.186 13.3"/><path class="a" d="M5.914 18.064a2.314 2.314 0 0 0-3.247.065c-.9.9-1.921 5.122-1.921 5.122s4.2-1.035 5.1-1.94a2.313 2.313 0 0 0 .068-3.247zm11.134-6.865l-4.243-4.242"/></svg>