<svg xmlns="http://www.w3.org/2000/svg" viewBox="0 0 24 24" width="24" height="24"><defs><style>.a{fill:none;stroke:#000;stroke-linecap:round;stroke-linejoin:round;stroke-width:1.5px}</style></defs><title>controls-movie-forward</title><path class="a" d="M16.45 18.15l-4-3a.75.75 0 0 0-1.2.6v6a.75.75 0 0 0 1.2.6l4-3a.75.75 0 0 0 0-1.2z"/><path class="a" d="M16.5 23.25l5.2-3.9a.75.75 0 0 0 0-1.2l-5.2-3.9m6.75-7.5H.75v-4.5a1.5 1.5 0 0 1 1.5-1.5h19.5a1.5 1.5 0 0 1 1.5 1.5zm-22.5 3v10.5a1.5 1.5 0 0 0 1.5 1.5H7.5m15.75-9v-3m-15-9l-1.5 6m10.5-6l-1.5 6"/></svg>