<svg xmlns="http://www.w3.org/2000/svg" viewBox="0 0 24 24" width="24" height="24"><g fill="none" stroke="#000" stroke-linejoin="round" stroke-miterlimit="10"><path d="M21.5 19.5a4 4 0 01-4 4h-12a4 4 0 01-4-4v-5a4 4 0 014-4h12a4 4 0 014 4v5z"/><circle cx="16.531" cy="17.5" r="3"/><circle cx="6.531" cy="17.5" r="3"/><path d="M12.5 14.5h-2l-2-2h6zm-2.5 7h3"/><path stroke-linecap="round" d="M16.531 17.5l2.188-4.469M6.5 17.5v-5m3-4h4v2h-4zm2 0v-5M20.086.504a11.5 11.5 0 01.427 3.114c0 1.017-.132 2.002-.38 2.94m-3.077-5.524c.296.805.457 1.676.457 2.584a7.5 7.5 0 01-.391 2.395m-3.173-4.299c.357.548.563 1.201.563 1.904 0 .668-.187 1.293-.513 1.824M2.914.504c-.279.99-.427 2.034-.427 3.114 0 1.017.132 2.002.379 2.94m3.077-5.524a7.528 7.528 0 00-.066 4.979m3.172-4.299a3.48 3.48 0 00-.562 1.904c0 .668.187 1.293.513 1.824"/></g><path fill="none" d="M0 0h24v24H0z"/></svg>