<svg xmlns="http://www.w3.org/2000/svg" viewBox="0 0 24 24" width="24" height="24"><defs><style>.a{fill:none;stroke:#000;stroke-linecap:round;stroke-linejoin:round;stroke-width:1.5px}</style></defs><title>contactless-payment</title><path class="a" d="M23.25 10.826L19.355 7.8a3.565 3.565 0 0 0-4.712.293l-.305.306M.75 6.152a5.4 5.4 0 0 1 5.4-5.4M3.509 6.241A3.241 3.241 0 0 1 6.75 3M4.221 9.33l-.733.733a1.079 1.079 0 0 0 0 1.527l9.275 9.276a1.08 1.08 0 0 0 1.528 0l1.119-1.135"/><path class="a" d="M18.2 17l1.589-1.629a1.079 1.079 0 0 0 0-1.527L10.51 4.568a1.08 1.08 0 0 0-1.528 0l-.472.473m7.06 10.224l2.817-2.817m-7.02 7.021l1.951-1.952m9.932 5.733l-5.143-1.714a5.978 5.978 0 0 1-2.336-1.444l-2.137-2.137a1.679 1.679 0 0 1 2.119-2.584l3.716 2.477M9.83 13.382a2.222 2.222 0 0 0 1.95-.643 1.861 1.861 0 0 0 .432-2.542 1.86 1.86 0 0 0-2.56.3 1.863 1.863 0 0 1-2.562.3 1.863 1.863 0 0 1 .432-2.542 2.222 2.222 0 0 1 1.95-.655m2.308 5.139l.709.747M6.813 7.5l.709.748"/></svg>