<svg xmlns="http://www.w3.org/2000/svg" viewBox="0 0 24 24" width="24" height="24"><defs><style>.a{fill:none;stroke:#000;stroke-linecap:round;stroke-linejoin:round;stroke-width:1.5px}</style></defs><title>content-typing-machine</title><path class="a" d="M18.929 15.75h1.317a1.5 1.5 0 0 0 1.5-1.5v-3a1.5 1.5 0 0 0-1.5-1.5h-16.5a1.5 1.5 0 0 0-1.5 1.5v3a1.5 1.5 0 0 0 1.5 1.5h1.318M5.246 1.5A.75.75 0 0 1 6 .75h12a.75.75 0 0 1 .75.75v8.25H5.246zm16.5 11.25h1.5m-22.5 0h1.5m5.67 6.75a.375.375 0 1 0 .375.375.375.375 0 0 0-.375-.375m4.084 0a.375.375 0 1 0 .375.375A.375.375 0 0 0 12 19.5m4.076 0a.375.375 0 1 0 .375.375.375.375 0 0 0-.375-.375"/><path class="a" d="M17.377 14.25h-3.131a2.25 2.25 0 0 1-4.5 0h-3.13c-1.177 0-1.123.274-3.613 6.978a1.5 1.5 0 0 0 1.406 2.022h15.175a1.5 1.5 0 0 0 1.406-2.022c-2.49-6.699-2.436-6.978-3.613-6.978zm-8.381-7.5h6m-6-3h3.75"/></svg>