<svg xmlns="http://www.w3.org/2000/svg" viewBox="0 0 24 24" width="24" height="24"><defs><style>.a{fill:none;stroke:#000;stroke-linecap:round;stroke-linejoin:round;stroke-width:1.5px}</style></defs><title>content-pen-double</title><path class="a" d="M17.735 10.5l4.636-4.629a3 3 0 1 0-4.242-4.242L13.5 6.25m-8 8l-.637.637a1.5 1.5 0 0 0 0 2.121l2.125 2.122a1.5 1.5 0 0 0 2.121 0l.38-.38"/><path class="a" d="M22.371 5.871a3 3 0 0 1 0 4.243l-1.364 1.364M5.914 18.056a2.314 2.314 0 0 0-3.247.065C1.762 19.026.75 23.25.75 23.25s4.194-1.042 5.1-1.947a2.313 2.313 0 0 0 .064-3.247zM5.875 1.629l14.319 14.319-4.243 4.242L1.746 5.985a3.112 3.112 0 0 1-.441-3.971 3 3 0 0 1 4.57-.385z"/><path class="a" d="M1.632 5.871a3 3 0 0 0 0 4.243L3 11.485m3.952-.294l4.243-4.242M23.25 23.25l-3.056-7.302-4.243 4.242 7.299 3.06z"/></svg>