<svg xmlns="http://www.w3.org/2000/svg" viewBox="0 0 24 24" width="24" height="24"><defs><style>.a{fill:none;stroke:#000;stroke-linecap:round;stroke-linejoin:round;stroke-width:1.5px}</style></defs><title>content-pen-4</title><path class="a" d="M21.482 6.758L8.169 20.07a1.5 1.5 0 0 1-2.121 0l-2.122-2.121a1.5 1.5 0 0 1 0-2.121L17.239 2.515zm-4.243-4.243a3 3 0 0 0-4.243 0L9.76 5.751m2.121 2.122l4.243 4.242"/><path class="a" d="M1.805 20.07l2.121-2.121 2.121 2.12-2.12 2.122zm1.061 1.061L.921 23.076M23.072.924l-1.591 1.591m-3.712.531l1.061-1.061a1.5 1.5 0 0 1 2.121 0l1.061 1.061a1.5 1.5 0 0 1 0 2.121l-1.061 1.061"/></svg>