<svg xmlns="http://www.w3.org/2000/svg" viewBox="0 0 24 24" width="24" height="24"><defs><style>.a{fill:none;stroke:#000;stroke-linecap:round;stroke-linejoin:round;stroke-width:1.5px}</style></defs><title>content-ink-pen-write</title><path class="a" d="M23.247 6.053a1.5 1.5 0 0 1-2.122 0l-3.182-3.182a1.5 1.5 0 0 1 0-2.121m-.269 10.876c-1.405 1.405-6.47 1.166-6.47 1.166s-.239-5.064 1.167-6.47a3.677 3.677 0 0 1 5.2.106 3.678 3.678 0 0 1 .103 5.198z"/><path class="a" d="M14.944 8.732a.375.375 0 1 0 .375.375.375.375 0 0 0-.375-.375M.747 23.25H21a2.25 2.25 0 0 0 0-4.5H6a2.25 2.25 0 0 1 0-4.5h2.25"/></svg>