<svg xmlns="http://www.w3.org/2000/svg" viewBox="0 0 24 24" width="24" height="24"><defs><style>.a{fill:none;stroke:#000;stroke-linecap:round;stroke-linejoin:round;stroke-width:1.5px}</style></defs><title>controls-camera-play</title><path class="a" d="M9 13.187H2.25a1.5 1.5 0 0 1-1.5-1.5v-9a1.5 1.5 0 0 1 1.5-1.5h12a1.5 1.5 0 0 1 1.5 1.5v6.75m3.829 1.163l2.586 1.293a.75.75 0 0 0 1.085-.671V3.15a.75.75 0 0 0-1.085-.671l-2.586 1.293a1.5 1.5 0 0 0-.829 1.342V9.26a1.5 1.5 0 0 0 .829 1.34zm.349 7.194l-6.042-3.626a.75.75 0 0 0-1.136.643v7.251a.75.75 0 0 0 1.136.643l6.042-3.625a.749.749 0 0 0 0-1.286z"/></svg>