<svg xmlns="http://www.w3.org/2000/svg" viewBox="0 0 24 24" width="24" height="24"><defs><style>.a{fill:none;stroke:#000;stroke-linecap:round;stroke-linejoin:round;stroke-width:1.5px}</style></defs><title>content-typing-machine-1</title><path class="a" d="M21.746 15.75h-19.5L1.2 21.479a1.5 1.5 0 0 0 1.471 1.771h18.651a1.5 1.5 0 0 0 1.478-1.771zM5.246 1.5A.75.75 0 0 1 6 .75h9l3.75 3.75v6.75H5.246zm16.5 11.25h1.5m-22.5 0h1.5m14.625 6.375"/><path class="a" d="M16.871 19.125a.375.375 0 1 0 .375.375.375.375 0 0 0-.375-.375m-4.871 0a.375.375 0 1 0 .375.375.375.375 0 0 0-.375-.375m-4.879 0a.375.375 0 1 0 .379.375.375.375 0 0 0-.375-.375M2.246 15.75v-3a1.5 1.5 0 0 1 1.5-1.5h16.5a1.5 1.5 0 0 1 1.5 1.5v3m-13.5-7.5h6.75M8.246 4.5h3.75"/></svg>