<svg xmlns="http://www.w3.org/2000/svg" viewBox="0 0 24 24" width="24" height="24"><defs><style>.a{fill:none;stroke:#000;stroke-linecap:round;stroke-linejoin:round;stroke-width:1.5px}</style></defs><title>content-write</title><path class="a" d="M13.684 23.25H1.824a1.077 1.077 0 0 1-1.078-1.076V1.826A1.077 1.077 0 0 1 1.824.75h15.094A1.077 1.077 0 0 1 18 1.826v5.381M7.203 6.375h6.456"/><path class="a" d="M3.805 6a.375.375 0 1 1-.375.375A.375.375 0 0 1 3.805 6m0 3.861a.375.375 0 1 1-.375.375.375.375 0 0 1 .375-.375m12.124 1.491a3.864 3.864 0 0 0-.511-.307l-1.182-.591a2.071 2.071 0 0 0-2.129.167l-1.845 1.318A2.609 2.609 0 0 0 9.2 13.691l-.279 1.958M23.246 22.5l-5.355-8.564"/><path class="a" d="M13.707 16.5l5.571-3.413a1.614 1.614 0 1 0-1.687-2.753L7.5 16.519l-1.911 3.063 3.6-.311L11.246 18"/><path class="a" d="M16.5 16.5h-3.75a1.5 1.5 0 0 0-1.5 1.5 1.5 1.5 0 0 0 1.5 1.5h2.742l1.758 3.75"/></svg>