<svg xmlns="http://www.w3.org/2000/svg" viewBox="0 0 24 24" width="24" height="24"><defs><style>.a{fill:none;stroke:#000;stroke-linecap:round;stroke-linejoin:round;stroke-width:1.5px}</style></defs><title>controller-360</title><rect class="a" x=".75" y="10.5" width="22.5" height="10.5" rx="1.5" ry="1.5"/><path class="a" d="M23.13 11.411L20.25 3h-3c0 1.657-2.35 3-5.25 3S6.75 4.657 6.75 3h-3L.87 11.411M3 18H.75v-4.5H3a.75.75 0 0 1 .75.75v3A.75.75 0 0 1 3 18zm18 0h2.25v-4.5H21a.75.75 0 0 0-.75.75v3A.75.75 0 0 0 21 18zM8.25 15h7.5"/></svg>