<svg xmlns="http://www.w3.org/2000/svg" viewBox="0 0 24 24" width="24" height="24"><defs><style>.a{fill:none;stroke:#000;stroke-linecap:round;stroke-linejoin:round;stroke-width:1.5px}</style></defs><title>controls-movie-previous</title><path class="a" d="M23.25 6.75H.75v-4.5a1.5 1.5 0 0 1 1.5-1.5h19.5a1.5 1.5 0 0 1 1.5 1.5zm-22.5 3v10.5a1.5 1.5 0 0 0 1.5 1.5h4.5m16.5-11.19v-.81m-15-9l-1.5 6m10.5-6l-1.5 6m2.3 12.6l4 3a.75.75 0 0 0 1.2-.6v-6a.75.75 0 0 0-1.2-.6l-4 3a.75.75 0 0 0 0 1.2z"/><rect class="a" x="11.75" y="14.25" width="3.001" height="9" rx=".75" ry=".75"/></svg>