<svg xmlns="http://www.w3.org/2000/svg" viewBox="0 0 24 24" width="24" height="24"><defs><style>.a{fill:none;stroke:#000;stroke-linecap:round;stroke-linejoin:round;stroke-width:1.5px}</style></defs><title>controls-camera-next</title><path class="a" d="M6.75 12.75h-4.5a1.5 1.5 0 0 1-1.5-1.5v-9a1.5 1.5 0 0 1 1.5-1.5h12a1.5 1.5 0 0 1 1.5 1.5V9m3.829 1.165l2.586 1.292a.75.75 0 0 0 1.085-.671V2.713a.749.749 0 0 0-1.085-.67l-2.586 1.292a1.5 1.5 0 0 0-.829 1.342v4.146a1.5 1.5 0 0 0 .829 1.342zM14.95 19.35a.75.75 0 0 0 0-1.2l-4-3a.75.75 0 0 0-1.2.6v6a.75.75 0 0 0 1.2.6z"/><rect class="a" x="18" y="14.25" width="3.001" height="9" rx=".75" ry=".75"/></svg>