<svg xmlns="http://www.w3.org/2000/svg" viewBox="0 0 24 24" width="24" height="24"><defs><style>.a{fill:none;stroke:#000;stroke-linecap:round;stroke-linejoin:round;stroke-width:1.5px}</style></defs><title>content-notebook-pencil</title><path class="a" d="M15.746 2.271a1.5 1.5 0 0 0-1.5-1.5h-12a1.5 1.5 0 0 0-1.5 1.5v19.5a1.5 1.5 0 0 0 1.5 1.5h12a1.5 1.5 0 0 0 1.5-1.5m5.254 1.5a2.25 2.25 0 0 1-2.25-2.25v-15L21 .771l2.25 5.25v15a2.25 2.25 0 0 1-2.25 2.25zm-2.254-4.5h4.5m-4.5-12.75h4.5M3.746.771v22.5"/><path class="a" d="M6.746 5.271h6v4.5h-6z"/></svg>