<svg xmlns="http://www.w3.org/2000/svg" viewBox="0 0 24 24" width="24" height="24"><defs><style>.a{fill:none;stroke:#000;stroke-linecap:round;stroke-linejoin:round;stroke-width:1.5px}</style></defs><title>controls-movie-play</title><path class="a" d="M23.25 6.873H.75v-4.5a1.5 1.5 0 0 1 1.5-1.5h19.5a1.5 1.5 0 0 1 1.5 1.5zm-22.5 3v10.5a1.5 1.5 0 0 0 1.5 1.5H12m11.25-9.75v-2.25m-15-9l-1.5 6m10.5-6l-1.5 6m7.136 11.234l-6.042-3.625a.75.75 0 0 0-1.136.643v7.25a.75.75 0 0 0 1.136.643l6.042-3.625a.75.75 0 0 0 0-1.286z"/></svg>