<svg xmlns="http://www.w3.org/2000/svg" viewBox="0 0 24 24" width="24" height="24"><defs><style>.a{fill:none;stroke:#000;stroke-linecap:round;stroke-linejoin:round;stroke-width:1.5px}</style></defs><title>controls-camera-off</title><path class="a" d="M.75.75l22.5 22.5m-7.5-12v-3a1.5 1.5 0 0 0-1.5-1.5H10.5m3 12H2.25a1.5 1.5 0 0 1-1.5-1.5v-9a1.5 1.5 0 0 1 1.5-1.5m17.329 9.415l2.586 1.292a.75.75 0 0 0 1.085-.671V8.714a.75.75 0 0 0-1.085-.671l-2.586 1.292a1.5 1.5 0 0 0-.829 1.342v4.146a1.5 1.5 0 0 0 .829 1.342z"/></svg>