<svg xmlns="http://www.w3.org/2000/svg" viewBox="0 0 24 24" width="24" height="24"><defs><style>.a{fill:none;stroke:#000;stroke-linecap:round;stroke-linejoin:round;stroke-width:1.5px}</style></defs><title>content-browser-edit</title><path class="a" d="M18.746 2.25h-16.5a1.5 1.5 0 0 0-1.5 1.5v16.5a1.5 1.5 0 0 0 1.5 1.5h18a1.5 1.5 0 0 0 1.5-1.5v-9m-21-4.5h12.75"/><path class="a" d="M22.782 6.465l-5.723 5.723-2.813.562.563-2.812 5.723-5.723a1.585 1.585 0 0 1 2.243 0l.007.006a1.588 1.588 0 0 1 0 2.244zM5.246 12.75h4.5m-4.5 4.5h9.75"/></svg>