<svg xmlns="http://www.w3.org/2000/svg" viewBox="0 0 24 24" width="24" height="24"><defs><style>.a{fill:none;stroke:#000;stroke-linecap:round;stroke-linejoin:round;stroke-width:1.5px}</style></defs><title>content-brush-pen</title><path class="a" d="M9.131 7.5a3.775 3.775 0 0 0-3.75-3.75c-2.25 0-2.677-1.258-3-3-3 3.75-1.781 10.5 3 10.5"/><path class="a" d="M5.381 11.25l3.75-3.75 11.638 13.47a1.382 1.382 0 0 1-1.953 1.944zm3.912 7.7L7.96 20.282a1.5 1.5 0 0 1-2.121 0l-2.121-2.121a1.5 1.5 0 0 1 0-2.121l1.262-1.263m7.711-7.711l5.4-5.4a3 3 0 0 1 4.243 4.243l-5.646 5.646M21.945 6.3a3.23 3.23 0 0 1 .494 4.716L19.2 14.25m-4.756-8.937l4.243 4.243"/><path class="a" d="M1.596 20.282l2.122-2.122 2.12 2.122-2.12 2.12zm1.061 1.061L.75 23.25"/></svg>