<svg xmlns="http://www.w3.org/2000/svg" viewBox="0 0 24 24" width="24" height="24"><g fill="none" stroke="#000" stroke-linejoin="round" stroke-miterlimit="10"><path stroke-linecap="round" d="M14.471 5.711a2.02 2.02 0 00-2.571 1.25l-.446 1.291-.94-2.06C9.131 3.165 6.399 1.445 3.371 2.827.344 4.21-.148 7.399 1.234 10.427L6.047 20.97l9.277-4.234-1.04-2.28 1.523-6.525a2.02 2.02 0 00-1.336-2.22z"/><path stroke-linecap="round" d="M16.48 19.266L7.203 23.5l-1.155-2.53 9.277-4.235z"/><path d="M21.954 16.735l1.155 2.531-9.278 4.234-1.155-2.53"/><path stroke-linecap="round" d="M18.231 18.435l3.723-1.699-1.041-2.28 1.524-6.525a2.02 2.02 0 00-3.908-.969l-.447 1.291-.94-2.06c-1.382-3.027-4.113-4.747-7.141-3.365-.503.229-.933.51-1.299.831"/></g><path fill="none" d="M0 0h24v24H0z"/></svg>