<svg xmlns="http://www.w3.org/2000/svg" viewBox="0 0 24 24" width="24" height="24"><path fill="none" stroke="#000" stroke-linejoin="round" stroke-miterlimit="10" d="M7.5.5h9v6h-9zm0 6h9l7 6H.5zm-7 6h23v4H.5z"/><path fill="none" stroke="#000" stroke-linecap="round" stroke-linejoin="round" stroke-miterlimit="10" d="M3.547 14.5H7.5m2.047 0H13.5"/><path d="M20.5 14a.5.5 0 100 1 .5.5 0 000-1zm-3 0a.5.5 0 100 1 .5.5 0 000-1z"/><path d="M7.497 19.458c-1.742 1.743 1.73 2.336.024 4.042m4.476-4.042c-1.742 1.743 1.73 2.336.024 4.042m4.476-4.042c-1.742 1.743 1.73 2.336.024 4.042" fill="none" stroke="#000" stroke-linecap="round" stroke-linejoin="round" stroke-miterlimit="10"/><path fill="none" d="M0 0h24v24H0z"/></svg>