<svg xmlns="http://www.w3.org/2000/svg" viewBox="0 0 24 24" width="24" height="24"><g fill="none" stroke="#000" stroke-linecap="round" stroke-linejoin="round" stroke-miterlimit="10"><path d="M21.92 12c0 4.5-3 11.5-3 11.5h-15s-3-7-3-11.5c0-15.336 21-15.33 21 0z"/><circle cx="11.42" cy="11" r="4.5"/><path d="M11.5 3.5v1M6.116 5.697l.707.708M4 11h1m1.116 5.304l.707-.707M11.5 18.5v-1m5.223-1.196l-.707-.707M19 11h-1m-1.277-5.303l-.707.708M7 21.5h9M11.5 9V6.5"/></g><path fill="none" d="M0 0h24v24H0z"/></svg>