<svg xmlns="http://www.w3.org/2000/svg" viewBox="0 0 24 24" width="24" height="24"><g fill="none" stroke="#000" stroke-linecap="round" stroke-linejoin="round" stroke-miterlimit="10"><path d="M2.499 4.127A5.24 5.24 0 00.5 8.25a5.23 5.23 0 001.538 3.711S8.116 15 8.5 15c.367 0 .71-.1 1.005-.271L15 11.923a5.229 5.229 0 001.5-3.673 5.24 5.24 0 00-1.999-4.123"/><path d="M7.5 3.5a2.5 2.5 0 10-5 0V5A1.5 1.5 0 004 6.5h2A1.5 1.5 0 007.5 5V3.5zm7 0a2.5 2.5 0 10-5 0V5A1.5 1.5 0 0011 6.5h2A1.5 1.5 0 0014.5 5V3.5zm-10 5a1 1 0 00-.503 1.864L8.5 12.5l4.501-2.135A1 1 0 0012.5 8.5h-8zm0-5.5v1m8 0v1m.916 11.5A5 5 0 1016 13.916L15.5 17l-2.084-.5z"/><circle cx="20" cy="18" r="1"/><circle cx="16.5" cy="20" r="1"/><path d="M7.5 4h2"/></g><path fill="none" d="M0 0h24v24H0z"/></svg>