<svg xmlns="http://www.w3.org/2000/svg" viewBox="0 0 24 24" width="24" height="24"><defs><style>.a{fill:none;stroke:#000;stroke-linecap:round;stroke-linejoin:round;stroke-width:1.5px}</style></defs><title>copy-paste</title><path class="a" d="M20.25 8.249v-3a1.5 1.5 0 0 0-1.5-1.5h-4m-8.5 0h-4a1.5 1.5 0 0 0-1.5 1.5v16.5a1.5 1.5 0 0 0 1.5 1.5h6"/><path class="a" d="M14.421 4.736a.751.751 0 0 1-.712.513H7.291a.751.751 0 0 1-.712-.513l-1-3a.749.749 0 0 1 .712-.987h8.418a.749.749 0 0 1 .712.987z"/><rect class="a" x="11.25" y="11.249" width="12" height="12" rx="1.5" ry="1.5"/><path class="a" d="M14.25 14.249h6m-6 3h6m-6 3h2.25"/></svg>