<svg xmlns="http://www.w3.org/2000/svg" viewBox="0 0 24 24" width="24" height="24"><g fill="none" stroke="#000" stroke-linecap="round" stroke-linejoin="round" stroke-miterlimit="10"><path d="M7.5 13.969l.768-9.977a3.74 3.74 0 017.464 0l.768 9.977M8.333 4.5h7.334M8 8.5h8m-8.312 4h8.624M10.5 17.834V.814M13.5 17V.814m0 22.686H12c-1.65 0-3.702-1.152-4.56-2.562L2 12 .5 10.5l4.02.805c.539.107 1.26.549 1.6.98L13 21l.5 2.5z"/><path d="M11.5 19l6.5-6.5 1.5-3 .341 3.754c.088.961-.241 2.428-.73 3.26l-3.35 5.694c-.419.711-1.436 1.292-2.261 1.292"/></g><path fill="none" d="M0 0h24v24H0z"/></svg>