<svg xmlns="http://www.w3.org/2000/svg" viewBox="0 0 24 24" width="24" height="24"><defs><style>.a{fill:none;stroke:#000;stroke-linecap:round;stroke-linejoin:round;stroke-width:1.5px}</style></defs><title>couple-frame</title><path class="a" d="M15.93 4.339a1.9 1.9 0 0 0-2.751 0L12 5.558l-1.179-1.219a1.9 1.9 0 0 0-2.751 0 2.06 2.06 0 0 0 0 2.845l3.511 3.631a.579.579 0 0 0 .838 0l3.511-3.631a2.06 2.06 0 0 0 0-2.845z"/><circle class="a" cx="16.354" cy="15" r="2.25"/><path class="a" d="M20.25 20.25a4.5 4.5 0 0 0-7.793 0"/><circle class="a" cx="7.646" cy="15" r="2.25"/><path class="a" d="M11.543 20.25a4.5 4.5 0 0 0-7.793 0"/><rect class="a" x=".75" y=".75" width="22.5" height="22.5" rx="1.5" ry="1.5"/></svg>