<svg xmlns="http://www.w3.org/2000/svg" viewBox="0 0 24 24" width="24" height="24"><defs><style>.a{fill:none;stroke:#000;stroke-linecap:round;stroke-linejoin:round;stroke-width:1.5px}</style></defs><title>couple-hold</title><path class="a" d="M3.75 23.25l-2.014-2.381a4.5 4.5 0 0 1-.986-2.811v-5.172a1.5 1.5 0 0 1 1.5-1.5 1.5 1.5 0 0 1 1.5 1.5v3.75"/><path class="a" d="M8.25 23.25v-3a4.5 4.5 0 0 0-.757-2.5l-1.142-1.71a1.4 1.4 0 0 0-1.977-.44 1.4 1.4 0 0 0-.474 1.786l1.352 2.25M20.25 23.25l2.014-2.381a4.5 4.5 0 0 0 .986-2.811v-5.172a1.5 1.5 0 0 0-1.5-1.5 1.5 1.5 0 0 0-1.5 1.5v3.75"/><path class="a" d="M15.75 23.25v-3a4.5 4.5 0 0 1 .757-2.5l1.142-1.712a1.4 1.4 0 0 1 1.977-.445 1.4 1.4 0 0 1 .476 1.791l-1.352 2.25"/><circle class="a" cx="15.75" cy="2.25" r="1.5"/><path class="a" d="M15.75 12.75h1.125l.375-3h1.5v-1.5a3 3 0 0 0-3-3"/><circle class="a" cx="8.25" cy="2.25" r="1.5"/><path class="a" d="M8.25 5.25a3 3 0 0 0-3 3v1.5h1.5l.375 3H8.25m6.311-5.057a1.5 1.5 0 0 0-2.122 0L12 8.132l-.439-.439a1.5 1.5 0 1 0-2.122 2.121L12 12.375l2.561-2.561a1.5 1.5 0 0 0 0-2.121z"/></svg>