<svg xmlns="http://www.w3.org/2000/svg" viewBox="0 0 24 24" width="24" height="24"><defs><style>.a{fill:none;stroke:#000;stroke-linecap:round;stroke-linejoin:round;stroke-width:1.5px}</style></defs><title>couple-woman-woman</title><path class="a" d="M22.5 23.25a4.5 4.5 0 0 0-9 0"/><circle class="a" cx="18" cy="14.25" r="3"/><path class="a" d="M15 14.25S15 18 12.75 18M21 14.25S21 18 23.25 18M10.5 23.25a4.5 4.5 0 0 0-9 0"/><circle class="a" cx="6" cy="14.25" r="3"/><path class="a" d="M3 14.25S3 18 .75 18M9 14.25S9 18 11.25 18m5.022-16.5a2.429 2.429 0 0 0-3.516 0L11.25 3.06 9.744 1.5a2.429 2.429 0 0 0-3.516 0 2.632 2.632 0 0 0 0 3.635l4.487 4.639a.74.74 0 0 0 1.07 0l4.487-4.639a2.632 2.632 0 0 0 0-3.635z"/></svg>