<svg xmlns="http://www.w3.org/2000/svg" viewBox="0 0 24 24" width="24" height="24"><g fill="none" stroke="#000" stroke-linejoin="round" stroke-miterlimit="10"><path d="M13.471 3.121s2.792.898 3.853 2.82c-1.211.195-3.058-.013-3.058-.013 1.381 2.868 6.822 4.371 7.984 1.298 1.131-2.992-5.256-7.678-8.779-4.105zM13.056 22.5h-2.102C6.46 20.487 5.628 16.677 4 13.298c4.604-3.039 11.346-3.055 16 0-1.622 3.441-2.449 7.25-6.944 9.202z"/><path stroke-linecap="round" d="M23.375 19.006S21.512 16 18.828 16m3.266 5.256s-1.667-3.006-4.351-3.006m3.069 5.256S18.828 20.5 16.144 20.5M.625 19.006S2.508 16 5.192 16m-3.286 5.256s1.666-3.006 4.351-3.006m-3.069 5.256S5.216 20.5 7.9 20.5m10.319-8.358s3.516-1.328 4.062-5.031"/><path d="M10.529 3.121s-2.792.898-3.853 2.82c1.211.195 3.058-.013 3.058-.013C8.354 8.797 2.912 10.3 1.75 7.227.619 4.234 7.006-.452 10.529 3.121z"/><path stroke-linecap="round" d="M5.688 12.204S2.266 10.813 1.719 7.11M12 13.298v2m3.161-1.482l-.853 1.809m-5.5-1.809l.853 1.809"/></g><path fill="none" d="M0 0h24v24H0z"/></svg>