<svg id="Regular" xmlns="http://www.w3.org/2000/svg" viewBox="0 0 24 24" width="24" height="24"><defs><style>.cls-1{fill:none;stroke:#000;stroke-linecap:round;stroke-linejoin:round;stroke-width:1.5px}</style></defs><title>crafts-pottery</title><path class="cls-1" d="M3.865 23.25l-2.129-2.517a4.5 4.5 0 0 1-.986-2.812V12.75a1.5 1.5 0 0 1 1.5-1.5 1.5 1.5 0 0 1 1.5 1.5v3.75"/><path class="cls-1" d="M8.25 23.25v-3.136a4.493 4.493 0 0 0-.757-2.5L6.351 15.9a1.4 1.4 0 0 0-1.977-.445A1.4 1.4 0 0 0 3.9 17.25l1.35 2.25m14.885 3.75l2.129-2.517a4.5 4.5 0 0 0 .986-2.812V12.75a1.5 1.5 0 0 0-1.5-1.5 1.5 1.5 0 0 0-1.5 1.5v3.75"/><path class="cls-1" d="M15.75 23.25v-3.136a4.493 4.493 0 0 1 .757-2.5l1.142-1.714a1.4 1.4 0 0 1 1.977-.445 1.4 1.4 0 0 1 .474 1.795l-1.35 2.25"/><ellipse class="cls-1" cx="12" cy="2.531" rx="5.077" ry="1.781"/><path class="cls-1" d="M6.923 2.531A4.7 4.7 0 0 0 7.26 4.28a1.73 1.73 0 0 1-.2 1.653A5.615 5.615 0 0 0 6 9.211 5.9 5.9 0 0 0 12 15a5.9 5.9 0 0 0 6-5.789 5.615 5.615 0 0 0-1.056-3.278 1.733 1.733 0 0 1-.2-1.653 4.7 4.7 0 0 0 .337-1.749"/></svg>