<svg id="Regular" xmlns="http://www.w3.org/2000/svg" viewBox="0 0 24 24" width="24" height="24"><defs><style>.cls-1{fill:none;stroke:#000;stroke-linecap:round;stroke-linejoin:round;stroke-width:1.5px}</style></defs><title>crafts-carving</title><path class="cls-1" d="M23.25 8.133l-6.764 8.99a1.5 1.5 0 0 1-2.1.3l-1.2-.9a1.5 1.5 0 0 1-.3-2.1L21.409 3m-6.715 9.02l3.596 2.705"/><path class="cls-1" d="M12.588 16.067L7.4 20.86a.75.75 0 0 0 .3 1.27l3.6 1.059a1.5 1.5 0 0 0 1.805-.855l1.887-4.464m-3.804-6.5a6.175 6.175 0 0 1-8.706.685 4.94 4.94 0 0 1-.548-6.965 4.387 4.387 0 0 1 5.928-.358 3.391 3.391 0 0 1 .547 4.625 2.529 2.529 0 0 1-3.566.28 2.023 2.023 0 0 1-.224-2.852"/></svg>