<svg id="Regular" xmlns="http://www.w3.org/2000/svg" viewBox="0 0 24 24" width="24" height="24"><defs><style>.cls-1{fill:none;stroke:#000;stroke-linecap:round;stroke-linejoin:round;stroke-width:1.5px}</style></defs><title>crafts-necklace</title><path class="cls-1" d="M3.865 23.25l-2.129-2.518a4.5 4.5 0 0 1-.986-2.811V12.75a1.5 1.5 0 0 1 1.5-1.5 1.5 1.5 0 0 1 1.5 1.5v3.75"/><path class="cls-1" d="M8.25 23.25v-3.137a4.492 4.492 0 0 0-.757-2.5L6.351 15.9a1.4 1.4 0 0 0-1.977-.444A1.4 1.4 0 0 0 3.9 17.25l1.35 2.25m14.885 3.75l2.129-2.518a4.5 4.5 0 0 0 .986-2.811V12.75a1.5 1.5 0 0 0-1.5-1.5 1.5 1.5 0 0 0-1.5 1.5v3.75"/><path class="cls-1" d="M15.75 23.25v-3.137a4.492 4.492 0 0 1 .757-2.5l1.142-1.713a1.4 1.4 0 0 1 1.977-.444 1.4 1.4 0 0 1 .474 1.794l-1.35 2.25M12.732 6.994a.879.879 0 0 0-1.464 0l-2.463 3.694a.88.88 0 0 0 0 .976l2.463 3.694a.879.879 0 0 0 1.464 0l2.468-3.694a.88.88 0 0 0 0-.976zm-1.703.463A10.883 10.883 0 0 1 1.935.751M22.065.75a10.884 10.884 0 0 1-9.094 6.707"/></svg>