<svg id="Regular" xmlns="http://www.w3.org/2000/svg" viewBox="0 0 24 24" width="24" height="24"><defs><style>.cls-1{fill:none;stroke:#000;stroke-linecap:round;stroke-linejoin:round;stroke-width:1.5px}</style></defs><title>crafts-origami-1</title><path class="cls-1" d="M10.385 6.908l2.335-5.1A.749.749 0 0 0 12.039.75H4.444a.375.375 0 0 0-.249.655zM4.722 19.264l5.663-12.356m1.322 5.842l7.325-3.995a.75.75 0 0 1 1.1.535l.576 3.46"/><path class="cls-1" d="M16.147 23.176L7.7 12.75h14.55a.75.75 0 0 1 .61 1.186l-6.428 9a.751.751 0 0 1-.611.314h-6.8a.747.747 0 0 1-.53-.22l-6.912-6.909a.748.748 0 0 1-.149-.847l5.385-11.54"/></svg>