<svg id="Regular" xmlns="http://www.w3.org/2000/svg" viewBox="0 0 24 24" width="24" height="24"><defs><style>.cls-1{fill:none;stroke:#000;stroke-linecap:round;stroke-linejoin:round;stroke-width:1.5px}</style></defs><title>crafts-sewing</title><path class="cls-1" d="M15.118 5.163a4.936 4.936 0 0 1 8.132 3.761 5.287 5.287 0 0 1-7.835 4.633L7.8 9.37a4.758 4.758 0 0 0-7.05 4.169 4.543 4.543 0 0 0 7.269 3.635l7.616-5.712a4.038 4.038 0 0 1 6.465 3.231 4.4 4.4 0 0 1-5.926 4.132l-8.734-4.1a3.853 3.853 0 0 0-5.19 3.617 3.659 3.659 0 0 0 5.541 3.137l.477-.287"/></svg>