<svg xmlns="http://www.w3.org/2000/svg" viewBox="0 0 24 24" width="24" height="24"><g fill="none" stroke="#000" stroke-linecap="round" stroke-linejoin="round" stroke-miterlimit="10"><path d="M13 21.5H5.5a5 5 0 01-5-5v-3.334C.5 7.5 4.5 6.5 6.5 6.5h3c.972 0 2 .5 2 1.5v.5c0 1-1 1.5-2 1.5h-2s-1 3.5-3 3.5"/><path d="M10.5 15.5H17a1.5 1.5 0 010 3h-4m-2.5 0H13a1.5 1.5 0 010 3h-1.5m12-14H11.396"/><path d="M5.5 6.578V5A1.5 1.5 0 017 3.5h15A1.5 1.5 0 0123.5 5v9a1.5 1.5 0 01-1.5 1.5H7A1.5 1.5 0 015.5 14v-.812m16-3.688h-3"/></g><path fill="none" d="M0 0h24v24H0z"/></svg>