<svg xmlns="http://www.w3.org/2000/svg" viewBox="0 0 24 24" width="24" height="24"><defs><style>.a{fill:none;stroke:#000;stroke-linecap:round;stroke-linejoin:round;stroke-width:1.5px}</style></defs><title>credit-card-monitor-payment</title><rect class="a" x="11.25" y="14.25" width="12" height="9" rx="1.5" ry="1.5"/><path class="a" d="M11.25 17.25h12m-15-3H2.4a1.669 1.669 0 0 1-1.65-1.687V2.438A1.669 1.669 0 0 1 2.4.75h14.7a1.669 1.669 0 0 1 1.65 1.688V10.5m-10.5 3.75v3m-2.25 0h2.25"/><path class="a" d="M8.079 9.344a2.225 2.225 0 0 0 1.859.875c1.138 0 2.062-.693 2.062-1.547s-.924-1.546-2.062-1.546-2.063-.693-2.063-1.548.925-1.547 2.063-1.547a2.224 2.224 0 0 1 1.858.875m-1.858 5.313v1.031m0-8.25v1.031M20.25 20.25h-1.5"/></svg>