<svg xmlns="http://www.w3.org/2000/svg" viewBox="0 0 24 24" width="24" height="24"><defs><style>.a{fill:none;stroke:#000;stroke-linecap:round;stroke-linejoin:round;stroke-width:1.5px}</style></defs><title>credit-card-online-payment</title><path class="a" d="M21.75 10.875v-8.25a1.5 1.5 0 0 0-1.5-1.5h-18a1.5 1.5 0 0 0-1.5 1.5v15.75a1.5 1.5 0 0 0 1.5 1.5h6M.75 5.625h21"/><path class="a" d="M4.329 14.969a2.225 2.225 0 0 0 1.859.875c1.138 0 2.062-.693 2.062-1.547s-.924-1.546-2.062-1.546-2.063-.693-2.063-1.551.924-1.547 2.063-1.547a2.224 2.224 0 0 1 1.858.875m-1.858 5.316v1.031m0-8.25v1.031"/><rect class="a" x="11.25" y="13.875" width="12" height="9" rx="1.5" ry="1.5"/><path class="a" d="M11.25 16.875h12m-3 3h-1.5"/></svg>