<svg xmlns="http://www.w3.org/2000/svg" viewBox="0 0 24 24" width="24" height="24"><path fill="none" stroke="#000" stroke-linecap="round" stroke-linejoin="round" stroke-miterlimit="10" d="M23.5 18.5c0 1.1-.899 2-2 2h-19c-1.1 0-2-.9-2-2v-13c0-1.1.9-2 2-2h19c1.101 0 2 .9 2 2v13z"/><path d="M7 9H6v1h1V9zm4 0h-1v1h1V9zm0 2h-1v1h1v-1zm0 2h-1v1h1v-1zm0 2h-1v1h1v-1zm-4-4H6v1h1v-1zm0 2H6v1h1v-1zm0 2H6v1h1v-1zm2-5H8v1h1v-1zm0-2H8v1h1V8zm0 4H8v1h1v-1zm4 0h-1v1h1v-1zm-4 2H8v1h1v-1zm0 2H8v1h1v-1zm-4-4H4v1h1v-1z"/><circle fill="none" stroke="#000" stroke-linecap="round" stroke-linejoin="round" stroke-miterlimit="10" cx="8.5" cy="12.5" r="5"/><circle fill="none" stroke="#000" stroke-linecap="round" stroke-linejoin="round" stroke-miterlimit="10" cx="8.5" cy="12.5" r="5"/><path fill="none" stroke="#000" stroke-linejoin="round" stroke-miterlimit="10" d="M12.25 15.776c.916 1.048 2.248 1.724 3.75 1.724 2.762 0 5-2.238 5-5s-2.238-5-5-5c-1.502 0-2.834.676-3.75 1.725"/><path d="M7 16.5H6v.305c.313.183.647.328 1 .44V16.5zm4 0h-1v.745a4.977 4.977 0 001-.44V16.5zm2-2.5h-1v1h.805c.068-.118.136-.236.195-.36V14zm-.195-4H12v1h1v-.64a5.65 5.65 0 00-.195-.36zM5 14H4v.64c.06.124.127.242.195.36H5v-1zm0-4h-.805a5.65 5.65 0 00-.195.36V11h1v-1z"/><path fill="none" d="M0 0h24v24H0z"/></svg>