<svg xmlns="http://www.w3.org/2000/svg" viewBox="0 0 24 24" width="24" height="24"><path d="M11 12.5H2.5c-1.104 0-2-.897-2-2v-8a2 2 0 012-2h13a2 2 0 012 2V9M.5 3.5h17m-9 2h-5m12 0h-2m-7 2h-3" fill="none" stroke="#000" stroke-linecap="round" stroke-linejoin="round" stroke-miterlimit="10"/><g fill="none" stroke="#000" stroke-linecap="round" stroke-linejoin="round" stroke-miterlimit="10"><path d="M23.5 13v2.5H21"/><path d="M14.5 15.5c.617-1.747 2.541-3 4.5-3s3.883 1.253 4.5 3M14.5 21v-2.5H17"/><path d="M23.5 18.5c-.617 1.748-2.541 3-4.5 3s-3.883-1.252-4.5-3"/></g><path fill="none" d="M0 0h24v24H0z"/></svg>