<svg xmlns="http://www.w3.org/2000/svg" viewBox="0 0 24 24" width="24" height="24"><defs><style>.a{fill:none;stroke:#000;stroke-linecap:round;stroke-linejoin:round;stroke-width:1.5px}</style></defs><title>credit-card-visa</title><rect class="a" x=".75" y="3.75" width="22.5" height="16.5" rx="1.5" ry="1.5"/><path class="a" d="M9.75 15V9m-6 0v2.037A7.488 7.488 0 0 0 5.25 15a7.488 7.488 0 0 0 1.5-3.963V9m7.65 0h-1.2a1.2 1.2 0 0 0-1.2 1.2c0 1.8 2.4 1.8 2.4 3.6a1.2 1.2 0 0 1-1.2 1.2H12m5.25-2.25h3m0 2.25v-4.5a1.5 1.5 0 0 0-3 0V15"/></svg>