<svg xmlns="http://www.w3.org/2000/svg" viewBox="0 0 24 24" width="24" height="24"><defs><style>.a{fill:none;stroke:#000;stroke-linecap:round;stroke-linejoin:round;stroke-width:1.5px}</style></defs><title>credit-card-payment</title><path class="a" d="M1.5 4.663a.887.887 0 0 0-.75.978v15.652a1.775 1.775 0 0 0 1.5 1.957h10.5a1.775 1.775 0 0 0 1.5-1.957V15.75m-13.5-4.5h10.5m-7.5 6h.75m-.75 3h.75m2.25-3h.75m-3.75-3H7.5m3.375 0h.75m-4.875 6h.75m3.75-3v2.953"/><path class="a" d="M3.75 7.5V1.453a.5.5 0 0 1 .229-.422.468.468 0 0 1 .469-.022l1.231.633L6.858.833a.47.47 0 0 1 .534 0l1.179.809L9.8 1.009a.468.468 0 0 1 .469.022.5.5 0 0 1 .229.422V7.5M6 4.5h2.248m9.002 14.25L19.5 21l2.25-2.25M19.5 21v-5.25"/><rect class="a" x="14.25" y=".75" width="9" height="12" rx="1.5" ry="1.5"/><path class="a" d="M17.25 12.75v-12m3 3v1.5M.75 7.5h10.5"/></svg>