<svg xmlns="http://www.w3.org/2000/svg" viewBox="0 0 24 24" width="24" height="24"><defs><style>.a{fill:none;stroke:#000;stroke-linecap:round;stroke-linejoin:round;stroke-width:1.5px}</style></defs><title>credit-card-give</title><path class="a" d="M.75 18.75c3.75 0 2.25.75 12 .75 3 0 6-.75 6.75-3.75M.75 11.143h2.382a.964.964 0 0 0 .747-.354L7.929 6.8l3.829.766c.546.109.905.545.667 1.5a.963.963 0 0 1-.8.721l-1.875.273a.842.842 0 0 0-.75.955v2.557a1.4 1.4 0 0 1-.44.753l-2.078 1.639"/><path class="a" d="M12 15.75h9.75a1.5 1.5 0 0 0 1.5-1.5V6a1.5 1.5 0 0 0-1.5-1.5H10.5A1.5 1.5 0 0 0 9 6v1.018m3.492 1.232H23.25m-3 3h-1.5"/></svg>