<svg xmlns="http://www.w3.org/2000/svg" viewBox="0 0 24 24" width="24" height="24"><defs><style>.a{fill:none;stroke:#000;stroke-linecap:round;stroke-linejoin:round;stroke-width:1.5px}</style></defs><title>credit-card-scan</title><path class="a" d="M13.5 15h8.25a1.5 1.5 0 0 0 1.5-1.5V2.25a1.5 1.5 0 0 0-1.5-1.5H5.25a1.5 1.5 0 0 0-1.5 1.5V12m0-6.75h19.5m-16.5 4.5H9"/><path class="a" d="M16.875 9a1.875 1.875 0 1 0 0 2.25 1.875 1.875 0 1 0 0-2.25zM.75 14.25v9m0-1.5h16.5a3 3 0 0 0-3-3H10.5a3 3 0 0 0-3-3H.75m6 3h3.75"/></svg>