<svg xmlns="http://www.w3.org/2000/svg" viewBox="0 0 24 24" width="24" height="24"><defs><style>.a{fill:none;stroke:#000;stroke-linecap:round;stroke-linejoin:round;stroke-width:1.5px}</style></defs><title>credit-card-phone-call</title><path class="a" d="M20.25 7.5V2.25a1.5 1.5 0 0 0-1.5-1.5H2.25a1.5 1.5 0 0 0-1.5 1.5v12a1.5 1.5 0 0 0 1.5 1.5h7.5m-9-10.5h19.5M3.75 9h6m-6 3h3m13.05 6.579L18.579 19.8a21.5 21.5 0 0 1-3.663 2.938h-.007a3.227 3.227 0 0 1-4.014-.44l-.452-.452a1.076 1.076 0 0 1 0-1.521l1.9-1.9a1.076 1.076 0 0 1 1.521 0 1.077 1.077 0 0 0 1.522 0l3.042-3.042a1.075 1.075 0 0 0 0-1.522 1.076 1.076 0 0 1 0-1.521l1.9-1.9a1.076 1.076 0 0 1 1.521 0l.452.452a3.226 3.226 0 0 1 .44 4.014v.008a21.537 21.537 0 0 1-2.941 3.665z"/></svg>