<svg xmlns="http://www.w3.org/2000/svg" viewBox="0 0 24 24" width="24" height="24"><defs><style>.a{fill:none;stroke:#000;stroke-linecap:round;stroke-linejoin:round;stroke-width:1.5px}</style></defs><title>police-woman-spy-2</title><circle class="a" cx="12" cy="6" r="5.25"/><path class="a" d="M12 5.25H6.8a5.153 5.153 0 0 0-.05.75 5.228 5.228 0 0 0 .594 2.427C8.953 8.944 11.5 8.783 12 5.25zm5.2 0H12c.505 3.533 3.047 3.694 4.656 3.177A5.228 5.228 0 0 0 17.25 6a5.153 5.153 0 0 0-.05-.75zM6 5.25h12m-14.043 12h16.086m-17.853 3h19.62m.663 3a10.5 10.5 0 0 0-20.946 0M6.8 6.75S6.75 10.5 3.75 12M17.2 6.75s.05 3.75 3.05 5.25"/></svg>