<svg xmlns="http://www.w3.org/2000/svg" viewBox="0 0 24 24" width="24" height="24"><defs><style>.a{fill:none;stroke:#000;stroke-linecap:round;stroke-linejoin:round;stroke-width:1.5px}</style></defs><title>crime-seal-forfeit</title><path class="a" d="M21.75 18.75l1.5 4.5H.75l1.5-4.5"/><path class="a" d="M15 18.75c0 .828-1.343 1.5-3 1.5s-3-.672-3-1.5m9.75-3H5.25a1.5 1.5 0 0 1-1.5-1.5v-1.5h16.5v1.5a1.5 1.5 0 0 1-1.5 1.5zm0-7.5h-3.4a4.5 4.5 0 1 0-6.706 0H5.25a3 3 0 0 0-3 3 1.5 1.5 0 0 0 1.5 1.5h16.5a1.5 1.5 0 0 0 1.5-1.5 3 3 0 0 0-3-3z"/></svg>