<svg xmlns="http://www.w3.org/2000/svg" viewBox="0 0 24 24" width="24" height="24"><defs><style>.a{fill:none;stroke:#000;stroke-linecap:round;stroke-linejoin:round;stroke-width:1.5px}</style></defs><title>crime-man-thief-3</title><circle class="a" cx="12" cy="6" r="5.25"/><path class="a" d="M2.25 23.25a9.75 9.75 0 0 1 19.5 0M12 5.25H6.8a5.153 5.153 0 0 0-.05.75 5.231 5.231 0 0 0 .594 2.427C8.953 8.944 11.5 8.782 12 5.25zm5.2 0H12c.505 3.532 3.047 3.694 4.656 3.177A5.231 5.231 0 0 0 17.25 6a5.153 5.153 0 0 0-.05-.75zM6 5.25h12m-13.681 12h15.363m-16.96 3h18.557"/></svg>