<svg xmlns="http://www.w3.org/2000/svg" viewBox="0 0 24 24" width="24" height="24"><defs><style>.a{fill:none;stroke:#000;stroke-linecap:round;stroke-linejoin:round;stroke-width:1.5px}</style></defs><title>crime-man-riot-1</title><path class="a" d="M7.476 3.334A8.711 8.711 0 0 0 13.75 6a8.709 8.709 0 0 0 3.45-.711"/><path class="a" d="M8.348 9.907l-.684-.947a5.25 5.25 0 1 1 8.672 0l-.684.947M21.75 23.25a9.73 9.73 0 0 0-3.659-7.614m-12.182 0A9.73 9.73 0 0 0 2.25 23.25"/><path class="a" d="M12 19.5c.75 0 4.5-4.5 4.5-9 0 0-3-2.25-4.5-2.25S7.5 10.5 7.5 10.5c0 4.5 3.75 9 4.5 9z"/></svg>