<svg xmlns="http://www.w3.org/2000/svg" viewBox="0 0 24 24" width="24" height="24"><defs><style>.a{fill:none;stroke:#000;stroke-linecap:round;stroke-linejoin:round;stroke-width:1.5px}</style></defs><title>crime-wanted</title><rect class="a" x=".75" y=".75" width="22.5" height="22.5" rx="2" ry="2"/><circle class="a" cx="12" cy="6.375" r="2.625"/><path class="a" d="M16.243 12.75a4.5 4.5 0 0 0-8.486 0m-4.007 0h16.5m-16.5 3h.75a.75.75 0 0 1 .75.75v3.75m-1.5 0h3m6-1.5a1.5 1.5 0 0 1-3 0v-1.5a1.5 1.5 0 0 1 3 0zm6 0a1.5 1.5 0 0 1-3 0v-1.5a1.5 1.5 0 0 1 3 0z"/></svg>