<svg xmlns="http://www.w3.org/2000/svg" viewBox="0 0 24 24" width="24" height="24"><defs><style>.a{fill:none;stroke:#000;stroke-linecap:round;stroke-linejoin:round;stroke-width:1.5px}</style></defs><title>crime-robber</title><circle class="a" cx="12.273" cy="3.391" r="2.641"/><path class="a" d="M12.4 12.342l2.09-1.393 1.742 2.906-1.811 2.245a1.321 1.321 0 0 0 0 1.868l2.641 2.641a1.321 1.321 0 1 0 1.868-1.867l-1.446-1.517 1.823-2.263 2.935 2.454a1.321 1.321 0 0 0 .732.221 1.281 1.281 0 0 0 .276-.029m0-11.526l-3.343-1.671a1.32 1.32 0 0 0-1.323.083L11.25 9.306m12 4.944l-5.135-5.751 1.495-1.075 3.64 1.745M7.05 15.9H5.627a.939.939 0 0 0-.349 1.811l1.444.578a.939.939 0 0 1-.349 1.811H4.95M6 15.9v-.525m0 5.25V20.1"/><path class="a" d="M7.313 13.187l1.375-2.407a.437.437 0 0 0-.379-.655H3.691a.437.437 0 0 0-.379.655l1.376 2.407C4 13.639.75 14.861.75 18.437a4.976 4.976 0 0 0 5.177 4.813c2.779 0 5.323-2.034 5.323-4.813 0-3.437-3.183-4.665-3.937-5.25z"/></svg>