<svg xmlns="http://www.w3.org/2000/svg" viewBox="0 0 24 24" width="24" height="24"><g fill="none" stroke="#000" stroke-linejoin="round" stroke-miterlimit="10"><path d="M18.026 14.209c2.34-.636 2.369-3.271 3.569-3.271 1.199 0 1.24 4.652-1.523 7.416"/><path d="M14.729 14.836l2.717-.74c.3-.081.615.059.757.335l1.774 3.463a.659.659 0 01-.231.854c-.687.437-1.995 1.148-3.347 1.241m-10.426-5.78c-2.339-.636-2.368-3.271-3.568-3.271-1.199 0-1.24 4.652 1.523 7.416"/><path d="M9.271 14.836l-2.718-.74a.658.658 0 00-.757.335l-1.774 3.463a.659.659 0 00.231.854c.687.437 1.995 1.148 3.347 1.241"/><path d="M14.718 14.959a.657.657 0 00-.626-.459H9.8a.657.657 0 00-.626.459l-1.643 4.763a.656.656 0 00.396.812c2.678 1.003 5.357 1.003 8.036 0a.656.656 0 00.396-.812l-1.641-4.763z"/><path stroke-linecap="round" d="M6.5 14V4.5h10v9.854m0-8.854H18a2.5 2.5 0 110 5h-1.5"/></g><path fill="none" d="M0 0h24v24H0z"/></svg>