<svg xmlns="http://www.w3.org/2000/svg" viewBox="0 0 24 24" width="24" height="24"><g fill="none" stroke="#000" stroke-linejoin="round" stroke-miterlimit="10"><path stroke-linecap="round" d="M21 22.5H3c-1.984 0-1.986-3 0-3h18c1.984 0 1.986 3 0 3zm-3.354-5.97a6 6 0 10-11.308-.039"/><circle cx="12" cy="3.5" r="3"/><path stroke-linecap="round" d="M9 3.5h6m-3 3v2"/><path d="M9.248 9.166A6 6 0 00.5 14.5a5.993 5.993 0 002.686 5h17.629a5.996 5.996 0 002.686-5 6 6 0 00-8.75-5.333"/></g><path fill="none" d="M0 0h24v24H0z"/></svg>