<svg xmlns="http://www.w3.org/2000/svg" viewBox="0 0 24 24" width="24" height="24"><defs><style>.a{fill:none;stroke:#000;stroke-linecap:round;stroke-linejoin:round;stroke-width:1.5px}</style></defs><title>crypto-currency-bitcoin-monitor-mining</title><path class="a" d="M6 6.75H1.5A.75.75 0 0 1 .75 6V1.5A.75.75 0 0 1 1.5.75h6a.75.75 0 0 1 .75.75v3m0 15v3a.75.75 0 0 1-.75.75h-6a.75.75 0 0 1-.75-.75V18a.75.75 0 0 1 .75-.75H6M15.75 4.5v-3a.75.75 0 0 1 .75-.75h6a.75.75 0 0 1 .75.75V6a.75.75 0 0 1-.75.75H18m0 10.5h4.5a.75.75 0 0 1 .75.75v4.5a.75.75 0 0 1-.75.75h-6a.75.75 0 0 1-.75-.75v-3M11.25 3h1.5m-1.5 18.75h1.5m-9-12v.75m0 3v.75m16.5-4.5v.75m0 3v.75m-7.5 2.25a2.25 2.25 0 0 0 0-4.5 2.25 2.25 0 0 0 0-4.5h-3v9zm-3-4.5h3.187M12 7.5V6m0 12v-1.5"/></svg>