<svg xmlns="http://www.w3.org/2000/svg" viewBox="0 0 24 24" width="24" height="24"><defs><style>.a{fill:none;stroke:#000;stroke-linecap:round;stroke-linejoin:round;stroke-width:1.5px}</style></defs><title>crypto-currency-bitcoin-browser</title><path class="a" d="M18.75 19.5h3a1.5 1.5 0 0 0 1.5-1.5V3a1.5 1.5 0 0 0-1.5-1.5H2.25A1.5 1.5 0 0 0 .75 3v15a1.5 1.5 0 0 0 1.5 1.5H6M.75 6h22.5M9 15.75h4.5m0-4.5V9m0 11.25v2.25m-3-11.25V9m0 11.25v2.25"/><path class="a" d="M13.5 11.25a2.25 2.25 0 0 1 0 4.5 2.25 2.25 0 0 1 0 4.5H9v-9z"/></svg>