<svg xmlns="http://www.w3.org/2000/svg" viewBox="0 0 24 24" width="24" height="24"><defs><style>.a{fill:none;stroke:#000;stroke-linecap:round;stroke-linejoin:round;stroke-width:1.5px}</style></defs><title>crypto-currency-bitcoin-cloud-sync</title><path class="a" d="M.75 15.75l3-3 3 3"/><path class="a" d="M3.75 12.75v6a1.5 1.5 0 0 0 1.5 1.5h3M12 3.75a2.982 2.982 0 0 0-2.292 1.085A4.489 4.489 0 1 0 5.25 9.75H12a3 3 0 0 0 0-6z"/><circle class="a" cx="17.25" cy="17.25" r="6"/><path class="a" d="M15.75 20.25v-6H18a1.5 1.5 0 0 1 0 3 1.5 1.5 0 0 1 0 3zm0-3H18m-.75-3v-.75m0 6.75V21"/></svg>