<svg xmlns="http://www.w3.org/2000/svg" viewBox="0 0 24 24" width="24" height="24"><defs><style>.a{fill:none;stroke:#000;stroke-linecap:round;stroke-linejoin:round;stroke-width:1.5px}</style></defs><title>crypto-currency-bitcoin-mining</title><circle class="a" cx="17.25" cy="17.25" r="6"/><path class="a" d="M15.75 20.25v-6H18a1.5 1.5 0 0 1 0 3 1.5 1.5 0 0 1 0 3zm0-3H18m-.75-3v-.75m0 6.75V21M11.628 7.487l-7.677 8.821a1.874 1.874 0 0 1-2.652 0 1.875 1.875 0 0 1 0-2.651l8.819-7.679"/><path class="a" d="M15.548 8.25a9.851 9.851 0 0 0-2.4-3.788C10.578 1.9 8.083 1.662 4.13.75a76.939 76.939 0 0 1 9.111 8.48"/></svg>