<svg xmlns="http://www.w3.org/2000/svg" viewBox="0 0 24 24" width="24" height="24"><defs><style>.a{fill:none;stroke:#000;stroke-linecap:round;stroke-linejoin:round;stroke-width:1.5px}</style></defs><title>crypto-currency-bitcoin-stack-coins</title><circle class="a" cx="17.25" cy="15" r="6"/><path class="a" d="M15.75 18v-6H18a1.5 1.5 0 0 1 0 3 1.5 1.5 0 0 1 0 3zm0-3H18m-.75-3v-.75m0 6.75v.75m-9-2.25H3a.75.75 0 0 0-.75.75v3A.75.75 0 0 0 3 21h7.5M9 12H4.5a.75.75 0 0 0-.75.75v3a.75.75 0 0 0 .75.75h3.75m3-9H1.5a.75.75 0 0 0-.75.75v3a.75.75 0 0 0 .75.75H9m5.25-5.25v-3A.75.75 0 0 0 13.5 3H3a.75.75 0 0 0-.75.75v3A.75.75 0 0 0 3 7.5"/></svg>