<svg xmlns="http://www.w3.org/2000/svg" viewBox="0 0 24 24" width="24" height="24"><defs><style>.a{fill:none;stroke:#000;stroke-linecap:round;stroke-linejoin:round;stroke-width:1.5px}</style></defs><title>crypto-currency-bitcoin-decrease</title><path class="a" d="M22.5 18.75v4.5H18"/><path class="a" d="M22.5 23.25l-5.05-5.05a2.252 2.252 0 0 0-2.237-.565L9.5 19.161a2.249 2.249 0 0 1-2.172-.582L1.5 12.746m1.648-3.007A7.5 7.5 0 1 1 15 14.253"/><path class="a" d="M9 11.25v-6h2.25a1.5 1.5 0 0 1 0 3 1.5 1.5 0 0 1 0 3zm0-3h2.25m-.75-3v-1.5m0 7.5v1.5"/></svg>