<svg xmlns="http://www.w3.org/2000/svg" viewBox="0 0 24 24" width="24" height="24"><defs><style>.a{fill:none;stroke:#000;stroke-linecap:round;stroke-linejoin:round;stroke-width:1.5px}</style></defs><title>crypto-currency-bitcoin-chip</title><path class="a" d="M10.5 15V9h2.25a1.5 1.5 0 0 1 0 3 1.5 1.5 0 0 1 0 3zm0-3h2.25M12 9V7.5m0 7.5v1.5m-4.5-12v-3m4.5 3v-3m4.5 3v-3m-9 21v-3m4.5 3v-3m4.5 3v-3m3-12h3m-3 4.5h3m-3 4.5h3m-21-9h3m-3 4.5h3m-3 4.5h3"/><rect class="a" x="4.5" y="4.5" width="15" height="15" rx="3" ry="3"/></svg>