<svg xmlns="http://www.w3.org/2000/svg" viewBox="0 0 24 24" width="24" height="24"><defs><style>.a{fill:none;stroke:#000;stroke-linecap:round;stroke-linejoin:round;stroke-width:1.5px}</style></defs><title>crypto-currency-bitcoin-network</title><path class="a" d="M12 23.25a11.25 11.25 0 0 1 0-22.5M1.398 8.25h9.852m-9.848 7.5h9.848"/><path class="a" d="M12 23.25c-2.9 0-5.25-5.037-5.25-11.25S9.1.75 12 .75m11.25 7.875A3.375 3.375 0 0 1 19.875 12H14.25V5.25h5.625a3.375 3.375 0 0 1 3.375 3.375zm0 6.75a3.375 3.375 0 0 1-3.375 3.375H14.25V12h5.625a3.375 3.375 0 0 1 3.375 3.375zM16.5 5.25V3m3 2.25V3m-3 18v-2.25m3 2.25v-2.25"/></svg>