<svg xmlns="http://www.w3.org/2000/svg" viewBox="0 0 24 24" width="24" height="24"><defs><style>.a{fill:none;stroke:#000;stroke-linecap:round;stroke-linejoin:round;stroke-width:1.5px}</style></defs><title>crypto-currency-bitcoin-dollar-exchange</title><path class="a" d="M18.75 3.75h-2.033a1.342 1.342 0 0 0-.5 2.587l2.064.826a1.342 1.342 0 0 1-.5 2.587h-.531m0-6V3m.78 9.7a6 6 0 1 0-6.73-6.742m4.45 9.792a7.5 7.5 0 0 0-7.5-7.5m-6 3a7.5 7.5 0 1 0 12.5 8.25"/><path class="a" d="M6.75 18.75v-6H9a1.5 1.5 0 0 1 0 3 1.5 1.5 0 0 1 0 3zm0-3H9m-.75-3v-1.5m0 7.5v1.5M.75 4.5L3 8.25 6.75 6M8.189.9a6.752 6.752 0 0 0-4.417 6.886M23.25 19.5L21 15.75 17.25 18m-1.439 5.1a6.752 6.752 0 0 0 4.417-6.884"/></svg>