<svg xmlns="http://www.w3.org/2000/svg" viewBox="0 0 24 24" width="24" height="24"><defs><style>.a{fill:none;stroke:#000;stroke-linecap:round;stroke-linejoin:round;stroke-width:1.5px}</style></defs><title>crypto-currency-bitcoin-imac</title><path class="a" d="M8.25 23.25h7.5M18 .75h2.25a3 3 0 0 1 3 3v12a3 3 0 0 1-3 3H3.75a3 3 0 0 1-3-3v-12a3 3 0 0 1 3-3H6m3 7.5h4.5m0-4.5V1.5m0 11.25V15m-3-11.25V1.5m0 11.25V15"/><path class="a" d="M13.5 3.75a2.25 2.25 0 0 1 0 4.5 2.25 2.25 0 0 1 0 4.5H9v-9zm-1.5 15v4.5"/></svg>