<svg xmlns="http://www.w3.org/2000/svg" viewBox="0 0 24 24" width="24" height="24"><defs><style>.a{fill:none;stroke:#000;stroke-linecap:round;stroke-linejoin:round;stroke-width:1.5px}</style></defs><title>crypto-currency-bitcoin-world</title><path class="a" d="M10.5 23.151A11.251 11.251 0 1 1 23.151 10.5M9.289 22.921C7.767 20.689 6.75 16.633 6.75 12S7.767 3.311 9.289 1.079M.75 11.25h9m-6.751-6H21m-18.952 12H8.25m6.461-16.171a17.011 17.011 0 0 1 2.308 7.171"/><circle class="a" cx="17.25" cy="17.25" r="6"/><path class="a" d="M15.75 20.25v-6H18a1.5 1.5 0 0 1 0 3 1.5 1.5 0 0 1 0 3zm0-3H18m-.75-3v-.75m0 6.75V21"/></svg>