<svg xmlns="http://www.w3.org/2000/svg" viewBox="0 0 24 24" width="24" height="24"><defs><style>.a{fill:none;stroke:#000;stroke-linecap:round;stroke-linejoin:round;stroke-width:1.5px}</style></defs><title>crypto-currency-bitcoin-monitor-shield</title><path class="a" d="M21.75 5.25a1.5 1.5 0 0 1 1.5 1.5V18a1.5 1.5 0 0 1-1.5 1.5H2.25A1.5 1.5 0 0 1 .75 18V6.75a1.5 1.5 0 0 1 1.5-1.5"/><path class="a" d="M18.75 9A7.854 7.854 0 0 1 12 16.5 7.854 7.854 0 0 1 5.25 9V2.25a1.5 1.5 0 0 1 1.5-1.5h10.5a1.5 1.5 0 0 1 1.5 1.5zM8.25 23.25h7.5M12 19.5v3.75"/><path class="a" d="M10.5 10.5v-6h2.25a1.5 1.5 0 0 1 0 3 1.5 1.5 0 0 1 0 3zm0-3h2.25m-.75-3v-.75m0 6.75v.75"/></svg>