<svg xmlns="http://www.w3.org/2000/svg" viewBox="0 0 24 24" width="24" height="24"><defs><style>.a{fill:none;stroke:#000;stroke-linecap:round;stroke-linejoin:round;stroke-width:1.5px}</style></defs><title>crypto-currency-bitcoin-dollar-unequal-1</title><path class="a" d="M.75 6.75h4.5m-1.5-4.5V.75m0 10.5v1.5m1.5-10.5a2.25 2.25 0 0 1 0 4.5 2.25 2.25 0 0 1 0 4.5H.75v-9zM12 18l-4.5 5.25h9L12 18zm11.25 3L.75 15M22.5 6h-3.919a2.081 2.081 0 0 0-.452 4.112l3.492.776A2.081 2.081 0 0 1 21.169 15H17.25m2.25-9V4.5m0 12V15"/></svg>