<svg xmlns="http://www.w3.org/2000/svg" viewBox="0 0 24 24" width="24" height="24"><defs><style>.a{fill:none;stroke:#000;stroke-linecap:round;stroke-linejoin:round;stroke-width:1.5px}</style></defs><title>crypto-currency-bitcoin-laptop</title><path class="a" d="M6.75 5.25h-3a1.5 1.5 0 0 0-1.5 1.5v10.5h19.5V6.75a1.5 1.5 0 0 0-1.5-1.5H18m5.205 16.136a1.5 1.5 0 0 1-1.455 1.864H2.25A1.5 1.5 0 0 1 .8 21.386l1.45-4.136h19.5zM11.25 20.25h2.25"/><path class="a" d="M12.75 11.25a2.25 2.25 0 0 0 0-4.5 2.25 2.25 0 0 0 0-4.5h-3v9zm-3-4.5h3.187M12 2.25V.75m0 12v-1.5"/></svg>