<svg xmlns="http://www.w3.org/2000/svg" viewBox="0 0 24 24" width="24" height="24"><defs><style>.a{fill:none;stroke:#000;stroke-linecap:round;stroke-linejoin:round;stroke-width:1.5px}</style></defs><title>crypto-currency-bitcoin-monitor</title><path class="a" d="M7.5 23.25h9M.75 15.75h22.5M18 2.25h3.75a1.5 1.5 0 0 1 1.5 1.5V18a1.5 1.5 0 0 1-1.5 1.5H2.25A1.5 1.5 0 0 1 .75 18V3.75a1.5 1.5 0 0 1 1.5-1.5H6"/><path class="a" d="M12.75 11.25a2.25 2.25 0 0 0 0-4.5 2.25 2.25 0 0 0 0-4.5h-3v9zm-3-4.5h3.187M12 2.25V.75m0 12v-1.5m0 8.25v3.75"/></svg>