<svg xmlns="http://www.w3.org/2000/svg" viewBox="0 0 24 24" width="24" height="24"><defs><style>.a{fill:none;stroke:#000;stroke-linecap:round;stroke-linejoin:round;stroke-width:1.5px}</style></defs><title>crypto-currency-ripple</title><circle class="a" cx="12" cy="12" r="11.247"/><path class="a" d="M12.624 6.9a2.529 2.529 0 0 0 .423 2.3l-.5.809a2.044 2.044 0 0 1-1.736.965h-.561a2.561 2.561 0 0 0-3.093-1.422 2.51 2.51 0 0 0-1.708 1.741 2.557 2.557 0 0 0 4.8 1.729h.351a2.044 2.044 0 0 1 1.834 1.142l.371.754a2.466 2.466 0 0 0-.141 2.034 2.552 2.552 0 0 0 4.956-.831 2.427 2.427 0 0 0-.8-1.741 2.287 2.287 0 0 0-2.372-.762l-.267-.541a2.044 2.044 0 0 1 .1-1.984l.563-.9c.075.007.147.023.224.023A2.559 2.559 0 1 0 12.624 6.9z"/></svg>