<svg xmlns="http://www.w3.org/2000/svg" viewBox="0 0 24 24" width="24" height="24"><defs><style>.a{fill:none;stroke:#000;stroke-linecap:round;stroke-linejoin:round;stroke-width:1.5px}</style></defs><title>crypto-currency-bitcoin-dollar-unequal</title><path class="a" d="M.75 10.5h4.5M3.75 6V4.5m0 10.5v1.5M5.25 6a2.25 2.25 0 0 1 0 4.5 2.25 2.25 0 0 1 0 4.5H.75V6zM12 18l-4.5 5.25h9L12 18zM.75 20.25L23.25 15M22.5 2.25h-3.919a2.081 2.081 0 0 0-.452 4.112l3.492.776a2.081 2.081 0 0 1-.452 4.112H17.25m2.25-9V.75m0 12v-1.5"/></svg>