<svg xmlns="http://www.w3.org/2000/svg" viewBox="0 0 24 24" width="24" height="24"><defs><style>.a{fill:none;stroke:#000;stroke-linecap:round;stroke-linejoin:round;stroke-width:1.5px}</style></defs><title>crypto-currency-bitcoin-code</title><path class="a" d="M1.5.75h.75A.75.75 0 0 1 3 1.5v5.25m-1.5 0h3m6-1.5a1.5 1.5 0 0 1-3 0v-3a1.5 1.5 0 0 1 3 0zm3-4.5h.75a.75.75 0 0 1 .75.75v5.25m-1.5 0h3m6-1.5a1.5 1.5 0 0 1-3 0v-3a1.5 1.5 0 0 1 3 0zM15 9a1.5 1.5 0 0 1 1.5 1.5V12m3-3h.75a.75.75 0 0 1 .75.75V15m-1.5 0h3m0 6.75a1.5 1.5 0 0 1-3 0v-3a1.5 1.5 0 0 1 3 0zm-15.75-6h2.5m-1-3V12m0 6.75v.75m1-6.75a1.393 1.393 0 0 1 1.25 1.5 1.393 1.393 0 0 1-1.25 1.5 1.393 1.393 0 0 1 1.25 1.5 1.393 1.393 0 0 1-1.25 1.5h-2.5v-6z"/><circle class="a" cx="8.25" cy="15.75" r="6.75"/><path class="a" d="M15 21.75v1.5m-1.5 0h3"/></svg>