<svg xmlns="http://www.w3.org/2000/svg" viewBox="0 0 24 24" width="24" height="24"><defs><style>.a{fill:none;stroke:#000;stroke-linecap:round;stroke-linejoin:round;stroke-width:1.5px}</style></defs><title>crypto-currency-bitcoin-dollar-equal</title><path class="a" d="M.75 7.5h4.5M3.75 3V1.5m0 10.5v1.5M5.25 3a2.25 2.25 0 0 1 0 4.5 2.25 2.25 0 0 1 0 4.5H.75V3zM12 17.25L7.5 22.5h9L12 17.25zM.75 16.5h22.5M22.5 3h-3.919a2.081 2.081 0 0 0-.452 4.112l3.492.776A2.081 2.081 0 0 1 21.169 12H17.25m2.25-9V1.5m0 12V12"/></svg>