<svg xmlns="http://www.w3.org/2000/svg" viewBox="0 0 24 24" width="24" height="24"><g fill="none" stroke="#000" stroke-linejoin="round" stroke-miterlimit="10"><path d="M8.5 8.5L5 5.5l-2.5 4 4 14h6z"/><path stroke-linecap="round" d="M7.5 13.27L6.438 9.285l-.93-.796"/><path d="M16.987 7.947L16.5 3.5 14 .5l-3.5 4-.5 9.626"/><path stroke-linecap="round" d="M14.947 7.942l-.232-3.124-.752-.902"/><path d="M12.5 23.5h6l5-15-1.5-5-4.5 3-5.425 15.302"/><path stroke-linecap="round" d="M19.526 13.958l1.897-5.69-.569-1.897"/><path d="M20.209 18.372L23.5 15.5l-1 8h-4zM6.5 23.5h-4l-2-9 5.477 7.042"/></g><path fill="none" d="M0 0h24v24H0z"/></svg>