<svg xmlns="http://www.w3.org/2000/svg" viewBox="0 0 24 24" width="24" height="24"><path fill="none" stroke="#000" stroke-linecap="round" stroke-linejoin="round" stroke-miterlimit="10" d="M1.5 7.5h21v14h-21zm0 14v2m21-2v2m-22-19h23v3H.5z"/><path fill="none" stroke="#000" stroke-linecap="round" stroke-linejoin="round" stroke-miterlimit="10" d="M3.5 15.5h17v4h-17zm10-6h7v4h-7zm-10 0h7v4h-7z"/><path d="M12 17a.5.5 0 100 1 .5.5 0 000-1zm-5-6a.5.5 0 100 1 .5.5 0 000-1zm10 0a.5.5 0 100 1 .5.5 0 000-1z"/><path fill="none" d="M0 0h24v24H0z"/></svg>