<svg xmlns="http://www.w3.org/2000/svg" viewBox="0 0 24 24" width="24" height="24"><path fill="none" stroke="#000" stroke-linecap="round" stroke-linejoin="round" stroke-miterlimit="10" d="M3.5.5h17v21h-17zM2 .5h20m-15.5 23v-2m11 2v-2"/><path fill="none" stroke="#000" stroke-linecap="round" stroke-linejoin="round" stroke-miterlimit="10" d="M5.5 14.5h5v5h-5zm8 0h5v5h-5zm-8-12h13v4h-13zm0 6h13v4h-13z"/><path d="M16 16.5a.5.5 0 100 1 .5.5 0 000-1zm-8 0a.5.5 0 100 1 .5.5 0 000-1z"/><path fill="none" d="M0 0h24v24H0z"/></svg>