<svg xmlns="http://www.w3.org/2000/svg" viewBox="0 0 24 24" width="24" height="24"><path fill="none" stroke="#000" stroke-linejoin="round" stroke-miterlimit="10" d="M2.5 2.5h19v19h-19zm-2-2h23v2H.5z"/><path fill="none" stroke="#000" stroke-linecap="round" stroke-linejoin="round" stroke-miterlimit="10" d="M2.5 21.5v2.016m19-2.016v2.016"/><path fill="none" stroke="#000" stroke-linejoin="round" stroke-miterlimit="10" d="M2.5 16.5h19m-17-12h6v10h-6zm9 0h6v10h-6z"/><path d="M12 18a1 1 0 100 2 1 1 0 000-2zm4-10a1 1 0 100 2 1 1 0 000-2zM8 8a1 1 0 100 2 1 1 0 000-2z"/><path fill="none" d="M0 0h24v24H0z"/></svg>