<svg id="Regular" xmlns="http://www.w3.org/2000/svg" viewBox="0 0 24 24" width="24" height="24"><defs><style>.cls-1{fill:none;stroke:#000;stroke-linecap:round;stroke-linejoin:round;stroke-width:1.5px}</style></defs><title>cupcake</title><path class="cls-1" d="M19.244 16.858l-1.144 5.17a1.561 1.561 0 0 1-1.523 1.222h-9.2a1.559 1.559 0 0 1-1.523-1.222L4.7 16.856"/><path class="cls-1" d="M9 7.169C5.442 7.893 2.223 9.95 2.223 13.5a3.5 3.5 0 0 0 6.63 1.577 3.484 3.484 0 0 0 6.24 0 3.5 3.5 0 0 0 6.63-1.577c0-3.548-3.219-5.606-6.779-6.331"/><circle class="cls-1" cx="11.973" cy="6.75" r="3"/><path class="cls-1" d="M11.973 3.75a2.652 2.652 0 0 1 3-3m-6.43 14.83l1.18 7.67m5.68-7.67l-1.18 7.67"/></svg>