<svg xmlns="http://www.w3.org/2000/svg" viewBox="0 0 24 24" width="24" height="24"><g fill="none" stroke="#000" stroke-linejoin="round" stroke-miterlimit="10"><path d="M8.042 23.484c0-.525.402-.964.926-1.007 5.482-.457 9.074-4.981 9.074-10.477 0-5.543-3.655-10.082-9.219-10.473a.84.84 0 01-.781-.836V.5h-2v1.252a1.84 1.84 0 001.653 1.83c6.171.635 7.847 4.865 7.847 8.438 0 3.375-1.693 7.72-7.809 8.392a1.896 1.896 0 00-1.691 1.889V23.5h2v-.016z"/><path stroke-linecap="round" d="M.542 11.5h22.406m-3.386-3.457l3.474 3.484L19.558 15"/><path d="M6.698 3.25L.5 11.5l6.042 9.468"/></g><path fill="none" d="M0 0h24v24H0z"/></svg>