<svg xmlns="http://www.w3.org/2000/svg" viewBox="0 0 24 24" width="24" height="24"><defs><style>.a{fill:none;stroke:#000;stroke-linecap:round;stroke-linejoin:round;stroke-width:1.5px}</style></defs><title>currency-euro-dollar-exchange</title><path class="a" d="M18.75 3.75h-2.033a1.342 1.342 0 0 0-.5 2.587l2.064.826a1.342 1.342 0 0 1-.5 2.587H15.75m1.5-6V3m0 7.5v-.75"/><circle class="a" cx="17.25" cy="6.75" r="6"/><circle class="a" cx="6.75" cy="17.25" r="6"/><path class="a" d="M8.25 20.25a3 3 0 0 1 0-6m-3.75 3h3.75M.75 4.5L3 8.25 6.75 6M8.189.9a6.752 6.752 0 0 0-4.417 6.886M23.25 19.5L21 15.75 17.25 18m-1.439 5.1a6.752 6.752 0 0 0 4.417-6.884"/></svg>