<svg xmlns="http://www.w3.org/2000/svg" viewBox="0 0 24 24" width="24" height="24"><defs><style>.a{fill:none;stroke:#000;stroke-linecap:round;stroke-linejoin:round;stroke-width:1.5px}</style></defs><title>currency-dollar-diamond</title><circle class="a" cx="17.25" cy="6.75" r="6"/><path class="a" d="M15.75 9.75v-6H18a1.5 1.5 0 0 1 0 3 1.5 1.5 0 0 1 0 3zm0-3H18m-.75-3V3m0 6.75v.75m-9 3.75H6.217a1.342 1.342 0 0 0-.5 2.587l2.064.826a1.342 1.342 0 0 1-.5 2.587H5.25m1.5-6v-.75m0 7.5v-.75"/><circle class="a" cx="6.75" cy="17.25" r="6"/><path class="a" d="M.75 4.5L3 8.25 6.75 6M8.189.9a6.752 6.752 0 0 0-4.417 6.886M23.25 19.5L21 15.75 17.25 18m-1.439 5.1a6.752 6.752 0 0 0 4.417-6.884"/></svg>