<svg xmlns="http://www.w3.org/2000/svg" viewBox="0 0 24 24" width="24" height="24"><defs><style>.a{fill:none;stroke:#000;stroke-linecap:round;stroke-linejoin:round;stroke-width:1.5px}</style></defs><title>currency-user-exchange</title><circle class="a" cx="12" cy="3.375" r="2.625"/><path class="a" d="M7.5 11.25a4.5 4.5 0 0 1 9 0m4.5 1.5a1.5 1.5 0 0 0-1.5-1.5h-15a1.5 1.5 0 0 0-1.5 1.5m0 4.5v-1.5m0 7.5v-1.5m1.5-4.5H2.25a.745.745 0 0 0-.75.75c0 1.5 3 1.5 3 3a.75.75 0 0 1-.75.75H1.5m9-6v1.5a1.5 1.5 0 0 0 3 0v-1.5m-1.5 3v4.5m-1.5-3h3m9-3a1.5 1.5 0 0 0-3 0v4.5a1.5 1.5 0 0 1-1.5 1.5h4.5m-4.5-3h4.5"/></svg>