<svg xmlns="http://www.w3.org/2000/svg" viewBox="0 0 24 24" width="24" height="24"><defs><style>.a{fill:none;stroke:#000;stroke-linecap:round;stroke-linejoin:round;stroke-width:1.5px}</style></defs><title>currency-dollar-decrease</title><path class="a" d="M22.5 18.75v4.5H18"/><path class="a" d="M22.5 23.25l-5.05-5.05a2.252 2.252 0 0 0-2.237-.565L9.5 19.161a2.249 2.249 0 0 1-2.172-.582L1.5 12.746m1.648-3.007A7.5 7.5 0 1 1 15 14.253"/><path class="a" d="M12 5.254H9.967a1.342 1.342 0 0 0-.5 2.587l2.064.825a1.342 1.342 0 0 1-.5 2.588H9m1.5-6v-.75m0 7.5v-.75"/></svg>