<svg xmlns="http://www.w3.org/2000/svg" viewBox="0 0 24 24" width="24" height="24"><defs><style>.a{fill:none;stroke:#000;stroke-linecap:round;stroke-linejoin:round;stroke-width:1.5px}</style></defs><title>currency-dollar-bill</title><path class="a" d="M13.5 9h-2.033a1.342 1.342 0 0 0-.5 2.587l2.064.826a1.342 1.342 0 0 1-.5 2.587H10.5M12 9v-.75m0 7.5V15"/><path class="a" d="M22.5 12a4.5 4.5 0 0 0-3-4.243V6A1.5 1.5 0 0 0 18 4.5H6A1.5 1.5 0 0 0 4.5 6v1.757a4.5 4.5 0 0 0 0 8.486V18A1.5 1.5 0 0 0 6 19.5h12a1.5 1.5 0 0 0 1.5-1.5v-1.757a4.5 4.5 0 0 0 3-4.243z"/></svg>