<svg xmlns="http://www.w3.org/2000/svg" viewBox="0 0 24 24" width="24" height="24"><defs><style>.a{fill:none;stroke:#000;stroke-linecap:round;stroke-linejoin:round;stroke-width:1.5px}</style></defs><title>currency-dollar-increase</title><path class="a" d="M22.5 17.248v-4.5H18"/><path class="a" d="M22.5 12.748L17.45 17.8a2.252 2.252 0 0 1-2.237.565L9.5 16.837a2.251 2.251 0 0 0-2.172.583L1.5 23.252m10.5-18H9.967a1.342 1.342 0 0 0-.5 2.587l2.064.825a1.342 1.342 0 0 1-.5 2.588H9m1.5-6v-.75m0 7.5v-.75m7.352-1.515A7.5 7.5 0 1 0 6 14.251"/></svg>