<svg xmlns="http://www.w3.org/2000/svg" viewBox="0 0 24 24" width="24" height="24"><g fill="none" stroke="#000" stroke-linecap="round" stroke-linejoin="round" stroke-miterlimit="10"><path d="M3.5 13.5v-1h16v1m-8-3v3M2 21a1.5 1.5 0 101.5-1.5A1.5 1.5 0 115 18m-1.5 4.5v1m0-8v1m8 2.5v4.5m2-7.5l-2 3-2-3m1 3.5h2m-2 2h2m8.292-3.834a1.15 1.15 0 00-1.146-1.166c-.645 0-1.146.522-1.146 1.166v4.07c0 .645-.855 1.764-1.5 1.764h4m-4.5-3H21m-5-10a4.5 4.5 0 00-9 0h9z"/><circle cx="11.5" cy="3.25" r="2.75"/></g><path fill="none" d="M0 0h24v24H0z"/></svg>