<svg xmlns="http://www.w3.org/2000/svg" viewBox="0 0 24 24" width="24" height="24"><path d="M22.498 18.388c-2.169.521-3.516-1.979-3.516-1.979s-1.03 2.056-3.139 2.056c-2.021 0-3.131-2.056-3.131-2.056S11.609 18.5 9.5 18.5m13 3.923c-2.169.521-3.519-1.979-3.519-1.979S17.954 22.5 15.845 22.5c-2.021 0-3.134-2.056-3.134-2.056s-.452.86-1.333 1.477m11.12-8.033c-2.169.521-3.516-1.979-3.516-1.979s-1.03 2.056-3.139 2.056c-2.021 0-3.131-2.056-3.131-2.056S11.609 14 9.5 14m1.002 9.5s-5.5-4-5.5-16h-4.5v16h10z" fill="none" stroke="#000" stroke-linecap="round" stroke-linejoin="round" stroke-miterlimit="10"/><path fill="none" d="M0 0h24v24H0z"/></svg>