<svg id="Regular" xmlns="http://www.w3.org/2000/svg" viewBox="0 0 24 24" width="24" height="24"><defs><style>.cls-1{fill:none;stroke:#000;stroke-linecap:round;stroke-linejoin:round;stroke-width:1.5px}</style></defs><title>dancing-ballet-dress</title><path class="cls-1" d="M7.64 12.75c-4.455 3.719-5.968 7-5.582 8.16a1.5 1.5 0 0 0 1.037.976l1.315.351a29.992 29.992 0 0 0 15.46 0l1.315-.351a1.5 1.5 0 0 0 1.037-.976c.4-1.2-1.132-4.444-5.582-8.16zm0 0a7.446 7.446 0 0 0-2.43-5.088 3.746 3.746 0 0 1-.57-1.987V4.5a3.75 3.75 0 0 1 7.5 0 3.75 3.75 0 0 1 7.5 0v1.175a3.755 3.755 0 0 1-.57 1.987 7.446 7.446 0 0 0-2.43 5.088m-4.5 6.75v3.75m4.5-3.75l1.298 3.184M7.64 19.5l-1.298 3.184"/></svg>