<svg xmlns="http://www.w3.org/2000/svg" viewBox="0 0 24 24" width="24" height="24"><defs><style>.a{fill:none;stroke:#000;stroke-linecap:round;stroke-linejoin:round;stroke-width:1.5px}</style></defs><title>data-file-bars-share</title><circle class="a" cx="13.5" cy="18" r="2.25"/><circle class="a" cx="21" cy="21" r="2.25"/><circle class="a" cx="21" cy="13.5" r="2.25"/><path class="a" d="M15.425 16.845l3.65-2.19m-3.487 4.18l3.324 1.33M3.75 14.25h4.5m0 0v-7.5m3 5.25V8.25m-6 6v-4.5m2.25 10.5H2.25a1.5 1.5 0 0 1-1.5-1.5V2.25a1.5 1.5 0 0 1 1.5-1.5h10.629a1.5 1.5 0 0 1 1.06.439l2.872 2.872a1.5 1.5 0 0 1 .439 1.06V7.5"/></svg>