<svg xmlns="http://www.w3.org/2000/svg" viewBox="0 0 24 24" width="24" height="24"><defs><style>.a{fill:none;stroke:#000;stroke-linecap:round;stroke-linejoin:round;stroke-width:1.5px}</style></defs><title>database-warning</title><path class="a" d="M13.534 9.71C6.637 10.074.75 7.938.75 5.251c0-2.486 5.037-4.5 11.25-4.5s11.25 2.014 11.25 4.5c0 1.324-1.431 2.515-3.708 3.339m3.708 2.661v-6"/><path class="a" d="M.75 5.251v6c0 2.281 4.245 4.166 9.748 4.46"/><path class="a" d="M.75 11.251v6c0 1.96 3.135 3.628 7.509 4.245m8.991-1.245a.375.375 0 1 0 .375.375.375.375 0 0 0-.375-.375m0-2.25v-3"/><path class="a" d="M23.063 20.683a1.775 1.775 0 0 1-1.587 2.568h-8.452a1.775 1.775 0 0 1-1.587-2.568l4.226-8.452a1.775 1.775 0 0 1 3.174 0z"/></svg>