<svg xmlns="http://www.w3.org/2000/svg" viewBox="0 0 24 24" width="24" height="24"><defs><style>.a{fill:none;stroke:#000;stroke-linecap:round;stroke-linejoin:round;stroke-width:1.5px}</style></defs><title>database-question</title><path class="a" d="M12 9.751C5.787 9.751.75 7.736.75 5.251S5.787.751 12 .751s11.25 2.014 11.25 4.5c0 1.33-1.443 2.526-3.738 3.349m3.738-.319v-3.03"/><path class="a" d="M.75 5.251v6c0 1.953 3.112 3.616 7.461 4.238"/><path class="a" d="M.75 11.251v6c0 2.176 3.863 3.992 9 4.409"/><circle class="a" cx="17.249" cy="17.251" r="6"/><path class="a" d="M15.374 16.126A1.875 1.875 0 1 1 17.249 18m0 2.251a.375.375 0 1 0 .375.375.374.374 0 0 0-.375-.375"/></svg>