<svg xmlns="http://www.w3.org/2000/svg" viewBox="0 0 24 24" width="24" height="24"><defs><style>.a{fill:none;stroke:#000;stroke-linecap:round;stroke-linejoin:round;stroke-width:1.5px}</style></defs><title>data-file-graph</title><path class="a" d="M22.455 21.75a1.5 1.5 0 0 1-1.5 1.5h-18a1.5 1.5 0 0 1-1.5-1.5V2.25a1.5 1.5 0 0 1 1.5-1.5h15A1.5 1.5 0 0 1 19 1.176l3 2.883a1.5 1.5 0 0 1 .453 1.073z"/><path class="a" d="M5.955 7.5v11.25h12"/><path class="a" d="M5.955 15.75l3.362-3.138a1.971 1.971 0 0 1 2.651 0l.726.678a1.958 1.958 0 0 0 1.555.5 1.889 1.889 0 0 0 1.379-.836L17.2 10.5"/></svg>