<svg xmlns="http://www.w3.org/2000/svg" viewBox="0 0 24 24" width="24" height="24"><defs><style>.a{fill:none;stroke:#000;stroke-linecap:round;stroke-linejoin:round;stroke-width:1.5px}</style></defs><title>data-file-bars-shield</title><path class="a" d="M23.25 15.75a7.669 7.669 0 0 1-6 7.5 7.669 7.669 0 0 1-6-7.5v-3.541a1.5 1.5 0 0 1 .915-1.382 12.543 12.543 0 0 1 10.17 0 1.5 1.5 0 0 1 .915 1.382zm-6-3v6m-3-3h6m-16.5-1.5h4.5m0 0v-7.5m-3 7.5v-4.5"/><path class="a" d="M7.5 20.25H2.25a1.5 1.5 0 0 1-1.5-1.5V2.25a1.5 1.5 0 0 1 1.5-1.5h10.629a1.5 1.5 0 0 1 1.06.439l2.872 2.872a1.5 1.5 0 0 1 .439 1.06V6"/></svg>