<svg xmlns="http://www.w3.org/2000/svg" viewBox="0 0 24 24" width="24" height="24"><defs><style>.a{fill:none;stroke:#000;stroke-linecap:round;stroke-linejoin:round;stroke-width:1.5px}</style></defs><title>data-file-bars-star</title><path class="a" d="M17.947 11.68l1.541 4.07h3a.735.735 0 0 1 .518 1.283l-2.6 1.816 1.442 3.313a.786.786 0 0 1-1.119.982l-3.489-1.961-3.487 1.961a.786.786 0 0 1-1.119-.982l1.443-3.313-2.6-1.816a.734.734 0 0 1 .515-1.283h3l1.544-4.07a.8.8 0 0 1 1.411 0zM3.75 14.25h4.5m0 0v-7.5m3 5.25V8.25m-6 6v-4.5m2.25 10.5H2.25a1.5 1.5 0 0 1-1.5-1.5V2.25a1.5 1.5 0 0 1 1.5-1.5h10.629a1.5 1.5 0 0 1 1.06.439l2.872 2.872a1.5 1.5 0 0 1 .439 1.06V7.5"/></svg>