<svg xmlns="http://www.w3.org/2000/svg" viewBox="0 0 24 24" width="24" height="24"><defs><style>.a{fill:none;stroke:#000;stroke-linecap:round;stroke-linejoin:round;stroke-width:1.5px}</style></defs><title>database-1</title><path class="a" d="M12 15.751v7.5m-7.5 0h15m3.375-.751a.375.375 0 1 0 .375.375.374.374 0 0 0-.375-.375m-21.75 0a.375.375 0 1 0 .375.375.374.374 0 0 0-.375-.375"/><ellipse class="a" cx="12" cy="3.751" rx="6.75" ry="3"/><path class="a" d="M5.25 3.751v4.5c0 1.657 3.022 3 6.75 3s6.75-1.343 6.75-3v-4.5"/><path class="a" d="M5.25 8.251v4.5c0 1.657 3.022 3 6.75 3s6.75-1.343 6.75-3v-4.5"/></svg>