<svg xmlns="http://www.w3.org/2000/svg" viewBox="0 0 24 24" width="24" height="24"><defs><style>.a{fill:none;stroke:#000;stroke-linecap:round;stroke-linejoin:round;stroke-width:1.5px}</style></defs><title>database-clock</title><circle class="a" cx="17.25" cy="17.251" r="6"/><path class="a" d="M19.902 17.251H17.25v-2.652m2.361-6.035c2.237-.822 3.639-2 3.639-3.313 0-2.486-5.037-4.5-11.25-4.5S.75 2.765.75 5.251s5.037 4.5 11.25 4.5m-11.25 1.5c0 1.984 3.211 3.668 7.667 4.266"/><path class="a" d="M.75 5.251v12c0 2.125 3.683 3.906 8.635 4.377M23.25 10.543V5.251m-3.639 3.313c2.237-.822 3.639-2 3.639-3.313 0-2.486-5.037-4.5-11.25-4.5S.75 2.765.75 5.251s5.037 4.5 11.25 4.5m-11.25 1.5c0 1.984 3.211 3.668 7.667 4.266"/><path class="a" d="M.75 5.251v12c0 2.125 3.683 3.906 8.635 4.377M23.25 10.543V5.251"/></svg>