<svg xmlns="http://www.w3.org/2000/svg" viewBox="0 0 24 24" width="24" height="24"><defs><style>.a{fill:none;stroke:#000;stroke-linecap:round;stroke-linejoin:round;stroke-width:1.5px}</style></defs><title>data-file-bars-sync</title><path class="a" d="M15 18.742h-3.75v3.75m11.417-3.017a5.572 5.572 0 0 1-10.74-.733m7.573-3h3.75v-3.75m-11.417 3.016a5.573 5.573 0 0 1 10.74.734M3.75 14.258h4.5m0 0v-7.5m3 3V8.242m-6 6.016v-4.5"/><path class="a" d="M7.5 20.258H2.25a1.5 1.5 0 0 1-1.5-1.5v-16.5a1.5 1.5 0 0 1 1.5-1.5h10.629a1.5 1.5 0 0 1 1.06.44l2.872 2.871a1.5 1.5 0 0 1 .439 1.061v2.378"/></svg>