<svg xmlns="http://www.w3.org/2000/svg" viewBox="0 0 24 24" width="24" height="24"><defs><style>.a{fill:none;stroke:#000;stroke-linecap:round;stroke-linejoin:round;stroke-width:1.5px}</style></defs><title>database-flash</title><path class="a" d="M16.49 9.378a26.308 26.308 0 0 1-4.49.373C5.787 9.751.75 7.736.75 5.251S5.787.751 12 .751s11.26 2.014 11.26 4.5A2.915 2.915 0 0 1 21.743 7.5m1.517 3.751v-6"/><path class="a" d="M.75 5.251v6c0 2.374 4.6 4.318 10.424 4.488"/><path class="a" d="M.75 11.251v6c0 2.78 6.3 4.971 13.5 4.412m6.011-11.912l-5.911 6.882a.375.375 0 0 0 .286.618h2.625v6l5.91-6.883a.374.374 0 0 0-.285-.617h-2.625z"/></svg>