<svg xmlns="http://www.w3.org/2000/svg" viewBox="0 0 24 24" width="24" height="24"><defs><style>.a{fill:none;stroke:#000;stroke-linecap:round;stroke-linejoin:round;stroke-width:1.5px}</style></defs><title>database-bug</title><path class="a" d="M12 9.751C5.787 9.751.75 7.736.75 5.251S5.787.751 12 .751s11.25 2.014 11.25 4.5c0 1.33-1.443 2.526-3.738 3.349m3.738-.319v-3.03"/><path class="a" d="M.75 5.251v6c0 1.953 3.112 3.616 7.461 4.238"/><path class="a" d="M.75 11.251v6c0 2.176 3.863 3.992 9 4.409M21 19.967a3.151 3.151 0 0 1-3 3.284 3.151 3.151 0 0 1-3-3.284v-3.433a3.15 3.15 0 0 1 3-3.283 3.15 3.15 0 0 1 3 3.283zm-.366-5.005l2.616-1.961m-2.51 8.305l2.51 1.945M21 18.501h2.25m-7.884-3.539l-2.616-1.961m2.51 8.305l-2.51 1.945m2.25-4.75h-2.25m2.25-1.5h6"/></svg>