<svg xmlns="http://www.w3.org/2000/svg" viewBox="0 0 24 24" width="24" height="24"><defs><style>.a{fill:none;stroke:#000;stroke-linecap:round;stroke-linejoin:round;stroke-width:1.5px}</style></defs><title>database-connect</title><ellipse class="a" cx="4.5" cy="3.001" rx="3.75" ry="2.25"/><path class="a" d="M.75 3v4.5c0 1.242 1.679 2.25 3.75 2.25S8.25 8.743 8.25 7.5V3"/><ellipse class="a" cx="4.5" cy="16.501" rx="3.75" ry="2.25"/><path class="a" d="M.75 16.5V21c0 1.242 1.679 2.25 3.75 2.25S8.25 22.243 8.25 21v-4.5"/><ellipse class="a" cx="19.5" cy="3.001" rx="3.75" ry="2.25"/><path class="a" d="M15.75 3v4.5c0 1.242 1.679 2.25 3.75 2.25s3.75-1.008 3.75-2.25V3"/><ellipse class="a" cx="19.5" cy="16.501" rx="3.75" ry="2.25"/><path class="a" d="M15.75 16.5V21c0 1.242 1.679 2.25 3.75 2.25s3.75-1.008 3.75-2.25v-4.5M8.041 8.244l7.79 7.79M8.25 16.5l7.941-7.94"/></svg>