<svg xmlns="http://www.w3.org/2000/svg" viewBox="0 0 24 24" width="24" height="24"><defs><style>.a{fill:none;stroke:#000;stroke-linecap:round;stroke-linejoin:round;stroke-width:1.5px}</style></defs><title>database-monitor-sync</title><rect class="a" x=".75" y="12.751" width="12" height="7.5" rx="1.5" ry="1.5"/><path class="a" d="M6.75 20.251v3m-3 0h6"/><ellipse class="a" cx="18.75" cy="2.251" rx="4.5" ry="1.5"/><path class="a" d="M23.25 2.251v4.5c0 .828-2.015 1.5-4.5 1.5s-4.5-.672-4.5-1.5v-4.5"/><path class="a" d="M23.25 6.751v4.5c0 .828-2.015 1.5-4.5 1.5s-4.5-.672-4.5-1.5v-4.5m-8.25 0L3.75 9V6.751a3 3 0 0 1 3-3h4.5m-9.75 3l2.25 2.25"/><path class="a" d="M9 1.501l2.25 2.25L9 6.001"/></svg>