<svg xmlns="http://www.w3.org/2000/svg" viewBox="0 0 24 24" width="24" height="24"><defs><style>.a{fill:none;stroke:#000;stroke-linecap:round;stroke-linejoin:round;stroke-width:1.5px}</style></defs><title>database</title><ellipse class="a" cx="12" cy="5.251" rx="11.25" ry="4.5"/><path class="a" d="M.75 5.251v4.5c0 2.485 5.037 4.5 11.25 4.5s11.25-2.015 11.25-4.5v-4.5"/><path class="a" d="M.75 9.751v4.5c0 2.485 5.037 4.5 11.25 4.5s11.25-2.015 11.25-4.5v-4.5m-11.25 9v4.5m-6 0h12m3.375-.751a.375.375 0 1 0 .375.375.375.375 0 0 0-.375-.375m-18.75 0a.375.375 0 1 0 .375.376.375.375 0 0 0-.375-.375"/></svg>