<svg xmlns="http://www.w3.org/2000/svg" viewBox="0 0 24 24" width="24" height="24"><defs><style>.a{fill:none;stroke:#000;stroke-linecap:round;stroke-linejoin:round;stroke-width:1.5px}</style></defs><title>database-cash</title><path class="a" d="M12 9.751C5.787 9.751.75 7.736.75 5.251S5.787.751 12 .751s11.25 2.014 11.25 4.5c0 1.182-1.14 2.258-3 3.061m3 1.439v-4.5"/><path class="a" d="M.75 5.251v6c0 1.96 3.132 3.627 7.5 4.244"/><path class="a" d="M.75 11.251v6c0 2.065 3.479 3.806 8.221 4.335m9.779-7.335h-2.033a1.342 1.342 0 0 0-.5 2.587l2.064.825a1.342 1.342 0 0 1-.5 2.588H15.75m1.5-6v-.75m0 7.5v-.75"/><circle class="a" cx="17.25" cy="17.251" r="6"/></svg>