<svg xmlns="http://www.w3.org/2000/svg" viewBox="0 0 24 24" width="24" height="24"><defs><style>.a{fill:none;stroke:#000;stroke-linecap:round;stroke-linejoin:round;stroke-width:1.5px}</style></defs><title>database-key</title><path class="a" d="M15.916 19.126a.375.375 0 1 0 .375.375.375.375 0 0 0-.375-.375"/><path class="a" d="M19.405 18.134l3.406-3.406a1.5 1.5 0 0 0-2.122-2.122l-3.406 3.406a3.75 3.75 0 1 0 2.122 2.122z"/><ellipse class="a" cx="12" cy="5.251" rx="11.25" ry="4.5"/><path class="a" d="M23.25 9.751v-4.5m-22.5 0v6c0 2.283 4.251 4.169 9.759 4.46"/><path class="a" d="M.75 11.251v6c0 2.18 3.876 4 9.022 4.411"/></svg>