<svg xmlns="http://www.w3.org/2000/svg" viewBox="0 0 24 24" width="24" height="24"><defs><style>.a{fill:none;stroke:#000;stroke-linecap:round;stroke-linejoin:round;stroke-width:1.5px}</style></defs><title>database-share</title><ellipse class="a" cx="12" cy="3.001" rx="5.25" ry="2.25"/><path class="a" d="M6.75 3v3c0 1.242 2.351 2.25 5.25 2.25S17.25 7.243 17.25 6V3"/><path class="a" d="M6.75 6v3c0 1.242 2.351 2.25 5.25 2.25s5.25-1.007 5.25-2.25V6"/><rect class="a" x=".75" y="14.251" width="9" height="6" rx="1.5" ry="1.5"/><path class="a" d="M5.25 20.251v3m-2.25 0h4.5"/><rect class="a" x="14.25" y="14.251" width="9" height="6" rx="1.5" ry="1.5"/><path class="a" d="M18.75 20.251v3m-2.25 0H21m-18.749-12v-1.5a1.5 1.5 0 0 1 1.5-1.5m18 3v-1.5a1.5 1.5 0 0 0-1.5-1.5"/></svg>