<svg xmlns="http://www.w3.org/2000/svg" viewBox="0 0 24 24" width="24" height="24"><defs><style>.a{fill:none;stroke:#000;stroke-linecap:round;stroke-linejoin:round;stroke-width:1.5px}</style></defs><title>database-lock</title><path class="a" d="M15.016 9.594C7.5 10.375.75 8.128.75 5.251c0-2.486 5.037-4.5 11.25-4.5s11.25 2.014 11.25 4.5c0 1.184-1.144 2.262-3.015 3.065m3.015 2.185v-5.25"/><path class="a" d="M.75 5.251v6c0 2.373 4.594 4.318 10.42 4.488"/><path class="a" d="M.75 11.251v6c0 2.373 4.6 4.318 10.42 4.488"/><rect class="a" x="14.25" y="15.751" width="9" height="7.5" rx="1.5" ry="1.5"/><path class="a" d="M18.75 11.251a3 3 0 0 0-3 3v1.5h6v-1.5a3 3 0 0 0-3-3zm0 7.904a.375.375 0 1 0 .375.375.375.375 0 0 0-.375-.375"/></svg>