<svg xmlns="http://www.w3.org/2000/svg" viewBox="0 0 24 24" width="24" height="24"><defs><style>.a{fill:none;stroke:#000;stroke-linecap:round;stroke-linejoin:round;stroke-width:1.5px}</style></defs><title>database-sync</title><path class="a" d="M12 9.751C5.787 9.751.75 7.736.75 5.251S5.787.751 12 .751s11.25 2.014 11.25 4.5c0 1.323-1.428 2.513-3.7 3.337m3.7.428V5.251"/><path class="a" d="M.75 5.251v6c0 2.067 3.486 3.809 8.235 4.336"/><path class="a" d="M.75 11.251v6c0 1.96 3.134 3.628 7.508 4.245M15 18.751h-3.75v3.75m11.417-3.017a5.572 5.572 0 0 1-10.74-.733m7.573-3h3.75v-3.75m-11.417 3.016a5.573 5.573 0 0 1 10.74.734"/></svg>