<svg xmlns="http://www.w3.org/2000/svg" viewBox="0 0 24 24" width="24" height="24"><defs><style>.a{fill:none;stroke:#000;stroke-linecap:round;stroke-linejoin:round;stroke-width:1.5px}</style></defs><title>dating-target-1</title><path class="a" d="M15.93 9.1a1.9 1.9 0 0 0-2.751 0L12 10.314 10.821 9.1a1.9 1.9 0 0 0-2.751 0 2.06 2.06 0 0 0 0 2.845l3.511 3.631a.579.579 0 0 0 .838 0l3.511-3.636a2.06 2.06 0 0 0 0-2.84z"/><circle class="a" cx="12" cy="12" r="9"/><path class="a" d="M12 1.5v3.75m0 13.5v3.75M22.5 12h-3.75m-13.5 0H1.5"/></svg>