<svg xmlns="http://www.w3.org/2000/svg" viewBox="0 0 24 24" width="24" height="24"><defs><style>.a{fill:none;stroke:#000;stroke-linecap:round;stroke-linejoin:round;stroke-width:1.5px}</style></defs><title>dating-cup</title><path class="a" d="M13.68 2.839a1.9 1.9 0 0 0-2.751 0L9.75 4.058 8.571 2.839a1.9 1.9 0 0 0-2.751 0 2.06 2.06 0 0 0 0 2.845l3.511 3.631a.579.579 0 0 0 .838 0l3.511-3.631a2.06 2.06 0 0 0 0-2.845zm.571 6.911h1.5a1.5 1.5 0 0 1 1.5 1.5v4.5a7.5 7.5 0 0 1-7.5 7.5 7.5 7.5 0 0 1-7.5-7.5v-4.5a1.5 1.5 0 0 1 1.5-1.5h1.5M.75 23.25h22.5"/><path class="a" d="M17.25 11.25H18A3.761 3.761 0 0 1 21.75 15 3.76 3.76 0 0 1 18 18.75h-1.374"/></svg>