<svg xmlns="http://www.w3.org/2000/svg" viewBox="0 0 24 24" width="24" height="24"><defs><style>.a{fill:none;stroke:#000;stroke-linecap:round;stroke-linejoin:round;stroke-width:1.5px}</style></defs><title>dating-flowers-vase</title><path class="a" d="M18.692 22.494a4.678 4.678 0 0 0-2.162-6.6L14.51 15l.677-1.693A1.5 1.5 0 0 0 13.8 11.25H7.726a1.5 1.5 0 0 0-1.393 2.057L7.01 15l-2.02.9a4.679 4.679 0 0 0-2.162 6.6 1.5 1.5 0 0 0 1.3.756H17.39a1.5 1.5 0 0 0 1.302-.762zM10.54 4.319A1.788 1.788 0 0 0 8.3 2.6a1.779 1.779 0 1 0-3.556 0 1.777 1.777 0 0 0-1.222 3.32 1.777 1.777 0 0 0 3 1.8 1.777 1.777 0 0 0 3-1.8 1.779 1.779 0 0 0 1.018-1.601zm11.25.75a1.788 1.788 0 0 0-2.237-1.72 1.779 1.779 0 1 0-3.556 0 1.777 1.777 0 0 0-1.225 3.321 1.777 1.777 0 0 0 3 1.8 1.777 1.777 0 0 0 3-1.8 1.779 1.779 0 0 0 1.018-1.601zM9.309 7.609a6.157 6.157 0 0 1 .7 3.641m4.763-4.58a10.49 10.49 0 0 0-2.512 4.58m-9.827 7.5h16.654m-1.502-13.5a.374.374 0 0 1 .375.375m-.75 0a.375.375 0 0 1 .375-.375m0 .75a.375.375 0 0 1-.375-.375m.75 0a.374.374 0 0 1-.375.375M6.335 4.583a.374.374 0 0 1 .375.375m-.75 0a.375.375 0 0 1 .375-.375m0 .75a.375.375 0 0 1-.375-.375m.75 0a.374.374 0 0 1-.375.375"/></svg>