<svg xmlns="http://www.w3.org/2000/svg" viewBox="0 0 24 24" width="24" height="24"><defs><style>.a{fill:none;stroke:#000;stroke-linecap:round;stroke-linejoin:round;stroke-width:1.5px}</style></defs><title>dating-makeup</title><path class="a" d="M.75 3.75a5.625 5.625 0 0 0 9 0m4.5 0a5.625 5.625 0 0 0 9 0M19.5 16.5c-2.25.75-3 3.75-7.5 3.75s-5.25-3-7.5-3.75c2.25-.75 3.75-3.75 5.25-3.75a3.285 3.285 0 0 1 2.25.75 3.285 3.285 0 0 1 2.25-.75c1.5 0 3 3 5.25 3.75zm-15 0h15M5.25 6v1.5M18.75 6v1.5m2.956-2.338L22.5 6.75m-6.706-1.589L15 6.75M8.206 5.162L9 6.75M2.294 5.161L1.5 6.75"/></svg>