<svg xmlns="http://www.w3.org/2000/svg" viewBox="0 0 24 24" width="24" height="24"><defs><style>.a{fill:none;stroke:#000;stroke-linecap:round;stroke-linejoin:round;stroke-width:1.5px}</style></defs><title>dating-rose-vase</title><path class="a" d="M16.547 16.792a3.055 3.055 0 0 1-1.566-2.542h-7.5a3.052 3.052 0 0 1-1.566 2.542c-1.349.844-2.184 1.423-2.184 2.708 0 2.577 3.358 3.75 7.5 3.75s7.5-1.173 7.5-3.75c0-1.285-.831-1.864-2.184-2.708zM14.074 1.267l-1.739 2.7a3.594 3.594 0 1 0 6.04 3.9l1.74-2.7m-8.884 9.083c0-3.577 1.563-5.091 2-5.442"/><path class="a" d="M20.115 5.163c-.539.834-2.327.638-3.995-.438S13.536 2.1 14.074 1.267s2.326-.638 3.994.438 2.584 2.624 2.047 3.458zm-8.618 6.717L8.981 10.5"/></svg>