<svg xmlns="http://www.w3.org/2000/svg" viewBox="0 0 24 24" width="24" height="24"><defs><style>.a{fill:none;stroke:#000;stroke-linecap:round;stroke-linejoin:round;stroke-width:1.5px}</style></defs><title>dating-rose-1</title><path class="a" d="M9.968 23.25v-7.5m6.941 5.325a5.222 5.222 0 0 1-2.609 1.308.933.933 0 0 1-1.183-1.183 5.216 5.216 0 0 1 1.309-2.608 5.212 5.212 0 0 1 2.608-1.309.933.933 0 0 1 1.184 1.184 5.219 5.219 0 0 1-1.309 2.608zM5 3.382C6.2 6.056 9.178 7.55 12.968 6.75v3a4.513 4.513 0 0 1-4.5 4.5H6"/><path class="a" d="M8.541 6.576a2.257 2.257 0 0 1 2.177-2.826A2.256 2.256 0 0 1 12.968 6v.75"/><path class="a" d="M15.968 9.75a6 6 0 0 1-12 0v-3a6 6 0 0 1 12 0z"/></svg>