<svg xmlns="http://www.w3.org/2000/svg" viewBox="0 0 24 24" width="24" height="24"><defs><style>.a{fill:none;stroke:#000;stroke-linecap:round;stroke-linejoin:round;stroke-width:1.5px}</style></defs><title>dating-chat-man</title><path class="a" d="M22.49 1.577a2.534 2.534 0 0 0-3.668 0L17.25 3.2l-1.572-1.623a2.534 2.534 0 0 0-3.668 0 2.747 2.747 0 0 0 0 3.793l4.682 4.841a.77.77 0 0 0 1.116 0L22.49 5.37a2.747 2.747 0 0 0 0-3.793zM14.625 17.95a.375.375 0 0 1 .375.375m-.75 0a.375.375 0 0 1 .375-.375m0 .75a.375.375 0 0 1-.375-.375m.75 0a.375.375 0 0 1-.375.375"/><circle class="a" cx="17.25" cy="14.2" r="1.5"/><path class="a" d="M.75 23.2a6.753 6.753 0 0 1 12.732 0M3.561 10.981a6.857 6.857 0 0 0 7.639 1.536"/><circle class="a" cx="7.116" cy="13.075" r="4.125"/></svg>