<svg xmlns="http://www.w3.org/2000/svg" viewBox="0 0 24 24" width="24" height="24"><defs><style>.a{fill:none;stroke:#000;stroke-linecap:round;stroke-linejoin:round;stroke-width:1.5px}</style></defs><title>dating-lipstick</title><path class="a" d="M8.778 22.811l-3.986-3.987a1.5 1.5 0 0 1 0-2.121l3.623-3.623a.751.751 0 0 1 1.06 0l5.047 5.047a.75.75 0 0 1 0 1.061L10.9 22.811a1.5 1.5 0 0 1-2.122 0z"/><path class="a" d="M14.307 17.912L9.691 13.3l2.766-2.766a.75.75 0 0 1 1.061 0l3.555 3.555a.75.75 0 0 1 0 1.061zm-.573-7.166l5.99-5.991a.528.528 0 0 1 .9.373l-.606 5.143a1.059 1.059 0 0 1-.309.746l-2.853 2.852M8.448 1.278a1.9 1.9 0 0 0-2.52 1.106l-.589 1.59-1.569-.642a1.9 1.9 0 0 0-2.52 1.106 2.062 2.062 0 0 0 1.144 2.605l4.675 1.913a.578.578 0 0 0 .766-.337l1.756-4.736a2.06 2.06 0 0 0-1.143-2.605zM14.625.75v3m1.5-1.5h-3m8.25 17.25v3m1.5-1.5h-3"/></svg>