<svg xmlns="http://www.w3.org/2000/svg" viewBox="0 0 24 24" width="24" height="24"><g fill="none" stroke="#000" stroke-linecap="round" stroke-linejoin="round" stroke-miterlimit="10"><circle cx="16" cy="23" r=".5"/><path d="M16.354 22.647l4.146-4.145"/><circle cx="12" cy="22" r=".5"/><path d="M12.354 21.647l3.146-3.145"/><circle cx="6" cy="23" r=".5"/><path d="M6.354 22.647l4.146-4.145M2.224 2.223L3 3m9.776-.777L12 3m9.988 16.633a3.998 3.998 0 00-.236-6.439c.916-2.109-.801-4.457-3.123-4.169A5.5 5.5 0 0013.5 5.5a5.5 5.5 0 00-5.477 5.024 5 5 0 00-2.072 9.28M4.174 9.723a4 4 0 015.857-5.32M.5 6.5h1m6-6v1"/></g><path fill="none" d="M0 0h24v24H0z"/></svg>