<svg xmlns="http://www.w3.org/2000/svg" viewBox="0 0 24 24" width="24" height="24"><path d="M9.5.5v1m-7 1l1 1m13-1l-1 1m-15 6h1m20.251 6.665c.917-2.109-.8-4.457-3.123-4.169a5.496 5.496 0 00-10.605 1.499c-2.538.239-4.523 2.39-4.523 4.99 0 2.762 2.238 5.015 5 5.015h11c2.209 0 4-1.805 4-4.015a4.022 4.022 0 00-1.749-3.32zM13.986 5.523A5.98 5.98 0 009.5 3.5c-3.313 0-6 2.688-6 6 0 .688.118 1.345.334 1.959" fill="none" stroke="#000" stroke-linecap="round" stroke-linejoin="round" stroke-miterlimit="10"/><path fill="none" d="M0 0h24v24H0z"/></svg>