<svg id="Regular" xmlns="http://www.w3.org/2000/svg" viewBox="0 0 24 24" width="24" height="24"><defs><style>.cls-1{fill:none;stroke:#000;stroke-linecap:round;stroke-linejoin:round;stroke-width:1.5px}</style></defs><title>day-morning</title><path class="cls-1" d="M.75 21.957h22.5m-11.25-3v-2.25m0-9.75v2.25m0-7.5v2.25"/><circle class="cls-1" cx="18.75" cy="10.707" r="2.7"/><path class="cls-1" d="M18.75 8.007v-1.8m0 9v-1.8m2.7-2.7h1.8m-2.591-1.91l1.691-1.69m-1.691 5.509l1.691 1.691m-6.3-3.6h-1.8m2.591-1.91l-1.691-1.69m1.691 5.509l-1.691 1.691m5.897 4.006a9.742 9.742 0 0 1 .7 3.644m-19.497 0a9.75 9.75 0 0 1 9.75-9.75"/></svg>