<svg xmlns="http://www.w3.org/2000/svg" viewBox="0 0 24 24" width="24" height="24"><path d="M14.5 18a.5.5 0 100 1 .5.5 0 000-1zm6 1.5a.5.5 0 10.002 1.002.5.5 0 00-.002-1.002zm0 3a.5.5 0 10.002 1.002.5.5 0 00-.002-1.002zm-6-1.5a.5.5 0 100 1 .5.5 0 000-1zm4 0a.5.5 0 10.002 1.002A.5.5 0 0018.5 21zm-2 1.5a.5.5 0 10.002 1.002.5.5 0 00-.002-1.002zm2-4.5a.5.5 0 10.002 1.002A.5.5 0 0018.5 18zm-2 1.5a.5.5 0 10.002 1.002.5.5 0 00-.002-1.002zm-4 0a.5.5 0 100 1 .5.5 0 000-1zm0 3a.5.5 0 100 1 .5.5 0 000-1zm-2-1.5a.5.5 0 100 1 .5.5 0 000-1zm-2 1.5a.5.5 0 100 1 .5.5 0 000-1zm2-4.5a.5.5 0 100 1 .5.5 0 000-1zm-2 1.5a.5.5 0 100 1 .5.5 0 000-1z"/><path fill="none" stroke="#000" stroke-linecap="round" stroke-linejoin="round" stroke-miterlimit="10" d="M2.224 2.223L3 3m9.776-.777L12 3m9.988 16.633a3.998 3.998 0 00-.236-6.439c.916-2.109-.801-4.457-3.123-4.169A5.5 5.5 0 0013.5 5.5a5.5 5.5 0 00-5.477 5.024 5 5 0 00-2.071 9.28M4.174 9.723a4 4 0 015.858-5.32M.5 6.5h1m6-6v1"/><path fill="none" d="M0 0h24v24H0z"/></svg>