<svg xmlns="http://www.w3.org/2000/svg" viewBox="0 0 24 24" width="24" height="24"><defs><style>.a{fill:none;stroke:#000;stroke-linecap:round;stroke-linejoin:round;stroke-width:1.5px}</style></defs><title>death-coffin</title><path class="a" d="M15.419 23.25H8.761a1.5 1.5 0 0 1-1.455-1.136L3.974 8.788a1.5 1.5 0 0 1 .114-1.034l3.087-6.175A1.5 1.5 0 0 1 8.517.75h7.146A1.5 1.5 0 0 1 17 1.579l3.088 6.175a1.5 1.5 0 0 1 .112 1.034l-3.326 13.326a1.5 1.5 0 0 1-1.455 1.136zm-3.329-18V16.5m-3-8.25h6"/></svg>