<svg xmlns="http://www.w3.org/2000/svg" viewBox="0 0 24 24" width="24" height="24"><defs><style>.a{fill:none;stroke:#000;stroke-linecap:round;stroke-linejoin:round;stroke-width:1.5px}</style></defs><title>death-grave</title><path class="a" d="M18.106 9.5l-.085-1.017a5.705 5.705 0 0 0-5.686-5.233 5.707 5.707 0 0 0-5.686 5.232L6.565 9.5a3 3 0 0 1-2.99 2.751H2.75a.75.75 0 0 0-.735.9l1.079 5.4a1.5 1.5 0 0 0 1.471 1.199h15.541a1.5 1.5 0 0 0 1.471-1.206l1.079-5.4a.75.75 0 0 0-.735-.9H21.1A3 3 0 0 1 18.106 9.5zM2.735 16.75h19.2M10.46 7.375l3.75 3.75m0-3.75l-3.75 3.75"/></svg>