<svg id="Regular" xmlns="http://www.w3.org/2000/svg" viewBox="0 0 24 24" width="24" height="24"><defs><style>.cls-1{fill:none;stroke:#000;stroke-linecap:round;stroke-linejoin:round;stroke-width:1.5px}</style></defs><title>decoration-flower-pot</title><path class="cls-1" d="M17.25 23.25H6.75a4.5 4.5 0 0 1-4.5-4.5v-6h19.5v6a4.5 4.5 0 0 1-4.5 4.5zm-15-7.5h3m13.5 0h3m-13.5 0h1.5m-7.5 3h3m13.5 0h3m-13.5 0h1.5m4.5-3h1.5m-1.5 3h1.5m6.841-14.159c-.879.879-3.712 1.591-4.243 1.061s.182-3.364 1.061-4.243a2.25 2.25 0 0 1 3.182 3.182zM14.25 12.75s0-4.5 3-6m-3-2.625a.375.375 0 1 1-.375.375.375.375 0 0 1 .375-.375m6.75 4.5a.375.375 0 1 1-.375.375.375.375 0 0 1 .375-.375M1.409 4.591c.879.879 3.712 1.591 4.243 1.061S5.47 2.288 4.591 1.409a2.25 2.25 0 0 0-3.182 3.182zM9.75 12.75s0-4.5-3-6m3-2.625a.375.375 0 1 0 .375.375.375.375 0 0 0-.375-.375M3 8.625A.375.375 0 1 0 3.375 9 .375.375 0 0 0 3 8.625M.75 12.75h22.5"/></svg>