<svg id="Regular" xmlns="http://www.w3.org/2000/svg" viewBox="0 0 24 24" width="24" height="24"><defs><style>.cls-1{fill:none;stroke:#000;stroke-linecap:round;stroke-linejoin:round;stroke-width:1.5px}</style></defs><title>decoration-bottle</title><path class="cls-1" d="M8.25.75h7.5m-3.75 12a5.25 5.25 0 0 0-5.25 5.275 2.315 2.315 0 0 0 2.356 2.225h5.788A2.313 2.313 0 0 0 17.25 18 5.25 5.25 0 0 0 12 12.75z"/><path class="cls-1" d="M14.25 4.315V.75h-4.5v3.565a1.467 1.467 0 0 1-1.014 1.416 11.257 11.257 0 0 0-6.7 15.987 2.95 2.95 0 0 0 2.62 1.532h14.688a2.95 2.95 0 0 0 2.625-1.532 11.257 11.257 0 0 0-6.705-15.987 1.467 1.467 0 0 1-1.014-1.416z"/></svg>