<svg id="Regular" xmlns="http://www.w3.org/2000/svg" viewBox="0 0 24 24" width="24" height="24"><defs><style>.cls-1{fill:none;stroke:#000;stroke-linecap:round;stroke-linejoin:round;stroke-width:1.5px}</style></defs><title>decoration-hanging-flowers</title><path class="cls-1" d="M9.928 11.25a4.5 4.5 0 1 1-4.5-4.5m0 0v-6m11.25 19.5s5.25-.75 5.25 3"/><path class="cls-1" d="M6.928 10.5a3.75 3.75 0 0 1 7.5 0V18a2.25 2.25 0 0 0 4.5 0v-2.25m3.75 1.875A.375.375 0 1 1 22.3 18a.375.375 0 0 1 .375-.375m-1.497-4.5a.375.375 0 1 1-.375.375.375.375 0 0 1 .375-.375m-9 7.5A.375.375 0 1 1 11.8 21a.375.375 0 0 1 .375-.375"/></svg>