<svg id="Regular" xmlns="http://www.w3.org/2000/svg" viewBox="0 0 24 24" width="24" height="24"><defs><style>.cls-1{fill:none;stroke:#000;stroke-linecap:round;stroke-linejoin:round;stroke-width:1.5px}</style></defs><title>deer-target</title><circle class="cls-1" cx="12" cy="11.992" r="9.75"/><path class="cls-1" d="M12 .742v3m11.25 8.25h-3M12 23.242v-3M.75 11.992h3m3-4.5l.75 2.25 2.606 2.606"/><path class="cls-1" d="M13.256 11.992h-2.512a.751.751 0 0 0-.721.956l1.021 3.573a.994.994 0 0 0 1.912 0l1.021-3.573a.751.751 0 0 0-.721-.956zM7.5 9.742l2.25-1.5"/><path class="cls-1" d="M17.25 7.492l-.75 2.25-2.606 2.606M16.5 9.742l-2.25-1.5"/></svg>