<svg id="Regular" xmlns="http://www.w3.org/2000/svg" viewBox="0 0 24 24" width="24" height="24"><defs><style>.cls-1{fill:none;stroke:#000;stroke-linecap:round;stroke-linejoin:round;stroke-width:1.5px}</style></defs><title>deer-body</title><path class="cls-1" d="M2.75 23.242v-7.5a3.75 3.75 0 0 1 3.75-3.75h6c2.25 0 3-3 3-3h-2.25c-1.5 0-2.25-2.25-2.25-2.25s3-2.25 5.25-2.25h2.25v9a5.958 5.958 0 0 1-3 5.25v4.5"/><path class="cls-1" d="M12.5 23.242v-4.5H6.103m1.147-2.25s0 3.388-4.5 2.963M23 .742c0 2.25-2.25 3.75-5.25 3.75h-4.5A4.018 4.018 0 0 1 9.5.742m9.75 1.5v2.116m-6-2.116v2.25m-9.75 9a2.664 2.664 0 0 1-2.25-1.5"/></svg>