<svg id="Regular" xmlns="http://www.w3.org/2000/svg" viewBox="0 0 24 24" width="24" height="24"><defs><style>.cls-1{fill:none;stroke:#000;stroke-linecap:round;stroke-linejoin:round;stroke-width:1.5px}</style></defs><title>deer-1</title><path class="cls-1" d="M7.563 14.992c0-2.485 2.014-3.75 4.5-3.75s4.5 1.265 4.5 3.75v2.25c0 2.485-2.015 6-4.5 6s-4.5-3.515-4.5-6zm2.625 0a.375.375 0 0 1 .375.375m-.75 0a.374.374 0 0 1 .375-.375m0 .75a.374.374 0 0 1-.375-.375m.75 0a.375.375 0 0 1-.375.375m3.75-.75a.375.375 0 0 1 .375.375m-.75 0a.374.374 0 0 1 .375-.375m0 .75a.374.374 0 0 1-.375-.375m.75 0a.375.375 0 0 1-.375.375m-5.377-3.279C6.441 8.642 6.358 3.674 8.313.742M1.75 1.68c0 2 2.143 4.009 5.284 2.576"/><path class="cls-1" d="M7.048 7.937l-.61.305a4.525 4.525 0 0 1-3.75 0m12.876 4.221c2.12-3.821 2.2-8.789.249-11.721m6.562.938c0 2-2.143 4.009-5.284 2.576"/><path class="cls-1" d="M17.077 7.937l.611.305a4.525 4.525 0 0 0 3.75 0m-10.125 10.5h1.5"/></svg>