<svg id="Regular" xmlns="http://www.w3.org/2000/svg" viewBox="0 0 24 24" width="24" height="24"><defs><style>.cls-1{fill:none;stroke:#000;stroke-linecap:round;stroke-linejoin:round;stroke-width:1.5px}</style></defs><title>deer-footprint</title><path class="cls-1" d="M15.975 12.742S12.3 15.367 12.3 18.517s.84 4.725 2.52 4.725 1.68-3.15 1.68-5.775a21.663 21.663 0 0 0-.525-4.725zm3.6 0s3.675 2.625 3.675 5.775-.84 4.725-2.52 4.725-1.68-3.15-1.68-5.775a21.663 21.663 0 0 1 .525-4.725zM9.75 4.268v-.526a1.469 1.469 0 0 1 1.5-1.5c3 0 3-.75 3-1.5m-3 0v1.5m-6 2.027v-.527a1.469 1.469 0 0 0-1.5-1.5c-3 0-3-.75-3-1.5m3 0v1.5"/><path class="cls-1" d="M11.077 5.345A4.512 4.512 0 0 0 7.5 3.742a4.512 4.512 0 0 0-3.577 1.6A3.986 3.986 0 0 0 .75 5.43a2.326 2.326 0 0 0 2.637 2.621 3.921 3.921 0 0 0 .938 1.961 3.529 3.529 0 0 1 .92 1.586l.248.991a1.687 1.687 0 0 0 1.637 1.278h.74a1.687 1.687 0 0 0 1.637-1.278l.248-.991a3.529 3.529 0 0 1 .92-1.586 3.921 3.921 0 0 0 .938-1.961A2.326 2.326 0 0 0 14.25 5.43a3.986 3.986 0 0 0-3.173-.085z"/></svg>