<svg id="Regular" xmlns="http://www.w3.org/2000/svg" viewBox="0 0 24 24" width="24" height="24"><defs><style>.cls-1{fill:none;stroke:#000;stroke-linecap:round;stroke-linejoin:round;stroke-width:1.5px}</style></defs><title>deer-2</title><path class="cls-1" d="M12 23.242s0-.75 1.5-3.75 4.5-3 6.75-3 3-.75 3-1.5c0-1.5-.75-3-3-4.5a9.641 9.641 0 0 0-6-2.25h-.75a10.578 10.578 0 0 0-3.75-4.5 5.771 5.771 0 0 0-.75 4.5 3.348 3.348 0 0 0 2.25 2.25A5.693 5.693 0 0 1 9 14.242c-3 2.25-8.25 2.25-8.25 2.25"/><path class="cls-1" d="M15.751 8.362c-.054-2.317 1.472-3.87 3-3.87H21c1.5 0 2.25-.75 2.25-3.75m-4.5 3.75a3.25 3.25 0 0 0 1.5-3"/><path class="cls-1" d="M16.961 5.242H16.5a2.2 2.2 0 0 1-2.25-2.25m1.875 8.25a.375.375 0 0 1 .375.375m-.75 0a.375.375 0 0 1 .375-.375m0 .75a.375.375 0 0 1-.375-.375m.75 0a.375.375 0 0 1-.375.375"/></svg>