<svg id="Regular" xmlns="http://www.w3.org/2000/svg" viewBox="0 0 24 24" width="24" height="24"><defs><style>.cls-1{fill:none;stroke:#000;stroke-linecap:round;stroke-linejoin:round;stroke-width:1.5px}</style></defs><title>deer</title><path class="cls-1" d="M14.2 6.205c.029-.3.046-.624.046-.963v-1.5a1.613 1.613 0 0 1 1.5-1.5 1.613 1.613 0 0 1 1.5 1.5v2.25c0 1.5 3 1.5 3 0v-3.75a1.613 1.613 0 0 1 1.5-1.5 1.613 1.613 0 0 1 1.5 1.5v6q0 2.25-4.5 2.25H16.1M9.854 6.268a5.147 5.147 0 0 1-.1-1.026v-1.5a1.613 1.613 0 0 0-1.5-1.5 1.613 1.613 0 0 0-1.5 1.5v2.25c0 1.5-3 1.5-3 0v-3.75a1.613 1.613 0 0 0-1.5-1.5 1.613 1.613 0 0 0-1.5 1.5v6q0 2.25 4.5 2.25H7.9"/><path class="cls-1" d="M10.5 8.992a3 3 0 0 0-3 3v7.5c0 1.657 2.015 3.75 4.5 3.75s4.5-2.093 4.5-3.75v-7.5a3 3 0 0 0-3-3zm.75 11.25h1.5m-2.625-6.75a.375.375 0 0 1 .375.375m-.75 0a.375.375 0 0 1 .375-.375m0 .75a.375.375 0 0 1-.375-.375m.75 0a.375.375 0 0 1-.375.375m3.75-.75a.375.375 0 0 1 .375.375m-.75 0a.375.375 0 0 1 .375-.375m0 .75a.375.375 0 0 1-.375-.375m.75 0a.375.375 0 0 1-.375.375"/></svg>