<svg id="Regular" xmlns="http://www.w3.org/2000/svg" viewBox="0 0 24 24" width="24" height="24"><defs><style>.cls-1{fill:none;stroke:#000;stroke-linecap:round;stroke-linejoin:round;stroke-width:1.5px}</style></defs><title>deer-sleep</title><path class="cls-1" d="M5.25 14.242a4.5 4.5 0 0 0 0 9h9a9 9 0 0 0 9-9c0-6.75-3.279-9.75-8.25-9.75-3 0-3.75 1.5-6 2.25 0 .75 0 3 3 3h2.25a2.25 2.25 0 0 1 0 4.5zm10.776-9.705c2.211.031 7.224-.287 7.224-3.795m-4.011 3.541c.438-.338 1.011-1.223 1.011-3.541M16.5 4.538s.75-.046.75-2.3m-3 4.504a.375.375 0 0 1 .375.375m-.75 0a.375.375 0 0 1 .375-.375m0 .75a.375.375 0 0 1-.375-.375m.75 0a.375.375 0 0 1-.375.375"/></svg>