<svg id="Regular" xmlns="http://www.w3.org/2000/svg" viewBox="0 0 24 24" width="24" height="24"><defs><style>.cls-1{fill:none;stroke:#000;stroke-linecap:round;stroke-linejoin:round;stroke-width:1.5px}</style></defs><title>deforestation-axe-forbidden</title><path class="cls-1" d="M10.046 9.752L8.584 8.289m7.908 3.669L21.3 16.77a1.5 1.5 0 1 1-2.12 2.119l-4.943-4.943M10.415 5.88l1.618 1.619m-.247-3.844a.7.7 0 0 1-.059 1.045c-3.4 2.717-3.975 5.345-4.05 6.477a.749.749 0 0 1-.672.7 5.684 5.684 0 0 1-6.042-6.27.749.749 0 0 1 .711-.672c1.112-.051 3.637-.575 6.311-3.9A.75.75 0 0 1 9.1.969zM.743 23.25l22.5-22.5"/></svg>