<svg id="Regular" xmlns="http://www.w3.org/2000/svg" viewBox="0 0 24 24" width="24" height="24"><defs><style>.cls-1{fill:none;stroke:#000;stroke-linecap:round;stroke-linejoin:round;stroke-width:1.5px}</style></defs><title>deforestation-cut-tree</title><path class="cls-1" d="M19.861 1.453a.75.75 0 0 0-1.08-.626l-6.572 3.6 1.946 1.133-4.581 2.114a.751.751 0 0 0 0 1.3l7.784 4.517a.75.75 0 0 0 1.126-.644l-.437-5.026 1.946 1.129zm-6.395 9.777l-2.259 3.893M10.7 18v5.25M3.95 16.5H6.2m-.273-4.773l1.591 1.591M17.45 16.5H15.2m.273 4.773l-1.591-1.591m-7.955 1.591l1.591-1.591"/></svg>