<svg xmlns="http://www.w3.org/2000/svg" viewBox="0 0 24 24" width="24" height="24"><defs><style>.a{fill:none;stroke:#000;stroke-linecap:round;stroke-linejoin:round;stroke-width:1.5px}</style></defs><title>delivery-truck-5</title><path class="a" d="M9 18V7.5H3.5a2.97 2.97 0 0 0-2.75 3.15v6.3A.99.99 0 0 0 1.667 18H3.75"/><circle class="a" cx="5.25" cy="18" r="1.5"/><circle class="a" cx="17.25" cy="18" r="1.5"/><path class="a" d="M.75 12h4.375A.862.862 0 0 0 6 11.152V7.5M6.75 18h9m-15-3h1.957m20.543-1.5H9V6a1.5 1.5 0 0 1 1.5-1.5h11.25a1.5 1.5 0 0 1 1.5 1.5zm-4.5 4.5h3a1.5 1.5 0 0 0 1.5-1.5v-3"/></svg>