<svg xmlns="http://www.w3.org/2000/svg" viewBox="0 0 24 24" width="24" height="24"><defs><style>.a{fill:none;stroke:#000;stroke-linecap:round;stroke-linejoin:round;stroke-width:1.5px}</style></defs><title>delivery-man</title><path class="a" d="M6.75 6.75V3.9a1.519 1.519 0 0 1 .909-1.4l3.75-1.627a1.481 1.481 0 0 1 1.182 0l3.75 1.627a1.519 1.519 0 0 1 .909 1.4v2.85"/><path class="a" d="M12 3.375a.375.375 0 1 0 .375.375.375.375 0 0 0-.375-.375M5.25 6.75h13.5m2.885 16.5A9.751 9.751 0 0 0 12 15a9.751 9.751 0 0 0-9.635 8.25"/><path class="a" d="M8.25 15.75l3.75 6 3.75-6M16.438 9a4.5 4.5 0 0 1-8.876 0m.236 6.949L6.115 21l3.75 2.25m6.612-7.164L18.115 21l-3.75 2.25"/></svg>