<svg xmlns="http://www.w3.org/2000/svg" viewBox="0 0 24 24" width="24" height="24"><defs><style>.a{fill:none;stroke:#000;stroke-linecap:round;stroke-linejoin:round;stroke-width:1.5px}</style></defs><title>delivery-truck-packages</title><path class="a" d="M17 5.25h3.5a.5.5 0 0 1 .5.5v5.5h-4.5v-5.5a.5.5 0 0 1 .5-.5zm4.75 11.25h-6v-4.725c0-.29.168-.525.375-.525h5.25c.207 0 .375.235.375.525zm-19.5 0v-1.257c0-2.365 1.565-3.243 4.174-4.71L10.337.75m-2.005 0H23.25"/><path class="a" d="M12.75.75v17.772a.978.978 0 0 0 .978.978h9.522m-21 0H.75v-2.3a.716.716 0 0 1 .734-.7H3m3.424-6h6.326m0 6h10.5m-4.5-5.25v1.957"/><circle class="a" cx="7.5" cy="20.25" r="3"/></svg>