<svg xmlns="http://www.w3.org/2000/svg" viewBox="0 0 24 24" width="24" height="24"><defs><style>.a{fill:none;stroke:#000;stroke-linecap:round;stroke-linejoin:round;stroke-width:1.5px}</style></defs><title>delivery-truck-boxes</title><path class="a" d="M3.75 19.5V21a1.5 1.5 0 0 0 3 0v-1.5m13.5 0V21a1.5 1.5 0 0 1-3 0v-1.5M5.461 1.5h13.078a.961.961 0 0 1 .961.961V19.5h-15V2.461a.961.961 0 0 1 .961-.961zm-.961 3h15m-15 3h15"/><path class="a" d="M12 15H8.25a.75.75 0 0 0-.75.75v3a.75.75 0 0 0 .75.75H12z"/><rect class="a" x="9.75" y="10.5" width="4.5" height="4.5" rx=".75" ry=".75"/><path class="a" d="M12 15h3.75a.75.75 0 0 1 .75.75v3a.75.75 0 0 1-.75.75H12zm-9.75 4.5h19.5M2.25 9.75H1.5A.75.75 0 0 1 .75 9V6.75A.75.75 0 0 1 1.5 6h3m17.25 3.75h.75a.75.75 0 0 0 .75-.75V6.75A.75.75 0 0 0 22.5 6h-3"/></svg>