<svg xmlns="http://www.w3.org/2000/svg" viewBox="0 0 24 24" width="24" height="24"><g fill="none" stroke="#000" stroke-linecap="round" stroke-linejoin="round" stroke-miterlimit="10"><circle cx="12.5" cy="2.995" r="2.5"/><path d="M16 2.495h-4l-1.175 2.356M19.5 17.495c1.656 0 3 1.344 3 3h-11v-1.5a2.5 2.5 0 00-2.5-2.5H5.25a2.75 2.75 0 00-2.75 2.75v1.25"/><path d="M18 11.995h1.5v8.5"/><circle cx="6.5" cy="20.995" r="2"/><path d="M21.5 20.995a2 2 0 01-4 0m-8.5-4.5h4m-12.5-9h7v7h-7z"/><path d="M2.5 12.495v-1l2-2h1m14 3.5l2-1v3.5l-2-1m-12-13H5m-2 0H2m5.5 3h-4m-2 0h-1M16.5 18a1 1 0 11-2 0s0-2.005-.457-2.777c-.294-.496-.922-.728-1.543-.728H11a1.5 1.5 0 01-1.5-1.5v-3.5a2 2 0 012-2c.509 0 1.069.111 1.516.266L18 9.995a.5.5 0 01-.318.886L13.5 9.495v2.5h.25c1.242 0 2.75 1.008 2.75 2.25V18z"/></g><path fill="none" d="M0 0h24v24H0z"/></svg>