<svg xmlns="http://www.w3.org/2000/svg" viewBox="0 0 24 24" width="24" height="24"><defs><style>.a{fill:none;stroke:#000;stroke-linecap:round;stroke-linejoin:round;stroke-width:1.5px}</style></defs><title>delivery-truck-clock</title><circle class="a" cx="6.75" cy="7.5" r="6"/><path class="a" d="M4.098 7.5H6.75V4.848M14.25 12h1.5a1.5 1.5 0 0 1 1.5 1.5v5.288M7.5 21h-.75a1.5 1.5 0 0 1-1.5-1.5v-3m12-3h3a3 3 0 0 1 3 3v3a1.5 1.5 0 0 1-1.5 1.5h-2.288"/><circle class="a" cx="17.625" cy="20.625" r="1.875"/><circle class="a" cx="9.375" cy="20.625" r="1.875"/><path class="a" d="M15.788 21H11.25m12-4.5h-3"/></svg>