<svg xmlns="http://www.w3.org/2000/svg" viewBox="0 0 24 24" width="24" height="24"><defs><style>.a{fill:none;stroke:#000;stroke-linecap:round;stroke-linejoin:round;stroke-width:1.5px}</style></defs><title>delivery-truck-2</title><path class="a" d="M23.25 13.5V6a1.5 1.5 0 0 0-1.5-1.5h-12A1.5 1.5 0 0 0 8.25 6v6m0 0V6h-3a4.5 4.5 0 0 0-4.5 4.5v6a1.5 1.5 0 0 0 1.5 1.5H3"/><path class="a" d="M.75 12h3a1.5 1.5 0 0 0 1.5-1.5V6"/><circle class="a" cx="7.5" cy="17.25" r="2.25"/><circle class="a" cx="19.5" cy="17.25" r="2.25"/><path class="a" d="M12 18h3"/></svg>