<svg xmlns="http://www.w3.org/2000/svg" viewBox="0 0 24 24" width="24" height="24"><defs><style>.a{fill:none;stroke:#000;stroke-linecap:round;stroke-linejoin:round;stroke-width:1.5px}</style></defs><title>delivery-parachute</title><path class="a" d="M6.75 21.75l6-6m-2.25 7.5l6.75-7.5m0 6.333a1.113 1.113 0 0 1-1.05 1.167H7.8a1.113 1.113 0 0 1-1.05-1.167v-8.166A1.113 1.113 0 0 1 7.8 12.75h8.4a1.113 1.113 0 0 1 1.05 1.167zM6.75 15.75h10.5M9 8.105l2.25 4.645M3 8.105l5.469 4.645M15 8.105l-2.25 4.645M21 8.105l-5.469 4.645m6.335-4.645a.717.717 0 0 0 .5-.188.394.394 0 0 0 .111-.417C21.257 3.964 17.029.75 12 .75S2.743 3.963 1.521 7.5a.394.394 0 0 0 .111.417.716.716 0 0 0 .5.188z"/></svg>