<svg xmlns="http://www.w3.org/2000/svg" viewBox="0 0 24 24" width="24" height="24"><defs><style>.a{fill:none;stroke:#000;stroke-linecap:round;stroke-linejoin:round;stroke-width:1.5px}</style></defs><title>delivery-truck</title><path class="a" d="M17.25 21.75v-7.5a1.5 1.5 0 0 0-1.5-1.5h-7.5a1.5 1.5 0 0 0-1.5 1.5v6a1.5 1.5 0 0 0 1.5 1.5h1.5m7.5-7.5h3a3 3 0 0 1 3 3v4.5h-3"/><circle class="a" cx="11.25" cy="21.75" r="1.5"/><circle class="a" cx="18.75" cy="21.75" r="1.5"/><path class="a" d="M12.75 21.75h4.5m-13.5-3h-1.5a1.5 1.5 0 0 1-1.5-1.5V6.75a1.5 1.5 0 0 1 1.5-1.5h15a1.5 1.5 0 0 1 1.5 1.5v3"/><path class="a" d="M18.266 5.647l-2.821-4.229A1.5 1.5 0 0 0 14.2.75H5.3a1.5 1.5 0 0 0-1.248.668L1.234 5.647M9.75.75v4.5"/></svg>