<svg xmlns="http://www.w3.org/2000/svg" viewBox="0 0 24 24" width="24" height="24"><defs><style>.a{fill:none;stroke:#000;stroke-linecap:round;stroke-linejoin:round;stroke-width:1.5px}</style></defs><title>delivery-truck-cargo</title><circle class="a" cx="18.75" cy="18.75" r="1.5"/><circle class="a" cx="5.25" cy="18.75" r="1.5"/><path class="a" d="M20.25 18.75h1.5a1.5 1.5 0 0 0 1.5-1.5v-6a3 3 0 0 0-3-3H16.5m0 10.5V5.25a1.5 1.5 0 0 0-1.5-1.5H2.25a1.5 1.5 0 0 0-1.5 1.5v12a1.5 1.5 0 0 0 1.5 1.5h1.5m13.5 0H6.75"/><path class="a" d="M23.25 12.75H21a1.5 1.5 0 0 1-1.5-1.5v-3m-18.75 3h12V15m-7.5-8.25h6v4.5h-6zm-1.5 4.5v2.25m4.5-6.75V9m1.5 2.25v2.25m-3-2.25V15"/></svg>