<svg xmlns="http://www.w3.org/2000/svg" viewBox="0 0 24 24" width="24" height="24"><defs><style>.a{fill:none;stroke:#000;stroke-linecap:round;stroke-linejoin:round;stroke-width:1.5px}</style></defs><title>delivery-man-give</title><path class="a" d="M7.484 20.11c0 .5-.562.9-1.251.894-1.377-.007-2.49-.817-2.486-1.81v-.9c0-.993 1.125-1.793 2.5-1.787.688 0 1.245.409 1.242.9zm9.026 0c0 .5.563.9 1.253.894 1.38-.007 2.494-.817 2.49-1.81v-.9c0-.993-1.127-1.793-2.507-1.787-.69 0-1.247.409-1.245.9z"/><path class="a" d="M18 21v.75a1.5 1.5 0 0 1-1.5 1.5H7.49a1.5 1.5 0 0 1-1.5-1.5V21m0-4.5v-2.25a1.5 1.5 0 0 1 1.5-1.5h9.01a1.5 1.5 0 0 1 1.5 1.5v2.25"/><path class="a" d="M10.498 12.75h3v4.5h-3zm-3.751-6V3.9a1.522 1.522 0 0 1 .909-1.4l3.75-1.627a1.481 1.481 0 0 1 1.182 0l3.75 1.627a1.52 1.52 0 0 1 .909 1.4v2.85"/><path class="a" d="M12 3.374a.375.375 0 1 0 .375.375.375.375 0 0 0-.375-.375M5.247 6.75h13.5m-9.655 3.437A4.493 4.493 0 0 1 7.5 6.75m9 0a4.49 4.49 0 0 1-1.6 3.437"/></svg>