<svg xmlns="http://www.w3.org/2000/svg" viewBox="0 0 24 24" width="24" height="24"><defs><style>.a{fill:none;stroke:#000;stroke-linecap:round;stroke-linejoin:round;stroke-width:1.5px}</style></defs><title>delivery-drone</title><rect class="a" x="7.5" y="14.25" width="9" height="9" rx=".5" ry=".5"/><path class="a" d="M5.25.75v3.931a1.967 1.967 0 0 0 1.415 1.887l1.663.485m.855 2.863l-3.132.7a1.965 1.965 0 0 0-1.464 2.458L5 14.508"/><circle class="a" cx="12.051" cy="7.5" r="1.5"/><circle class="a" cx="12.051" cy="7.5" r="3.75"/><path class="a" d="M13.5 14.25v4.5h-3v-4.5m-9-13.242L5.25 2.25m0 0L9 1.008M18.75.75v3.931a1.967 1.967 0 0 1-1.415 1.887l-1.564.456m-.896 2.942l3.074.65a1.965 1.965 0 0 1 1.464 2.458L19 14.508m3.5-13.5L18.75 2.25m0 0L15 1.008"/></svg>