<svg xmlns="http://www.w3.org/2000/svg" viewBox="0 0 24 24" width="24" height="24"><defs><style>.a{fill:none;stroke:#000;stroke-linecap:round;stroke-linejoin:round;stroke-width:1.5px}</style></defs><title>delivery-truck-1</title><path class="a" d="M7.5 16.5v-12H5.26a.968.968 0 0 0-.895.653L.819 14.7a1.1 1.1 0 0 0-.069.386v1.876A1 1 0 0 0 1.714 18H6M16.5 4.826v9.424"/><circle class="a" cx="7.5" cy="18" r="1.5"/><circle class="a" cx="17.25" cy="18" r="1.5"/><path class="a" d="M2.379 10.5H7.5M.75 15H3m18-9h2.25"/><rect class="a" x="10.5" y="7.5" width="3" height="3" rx=".408" ry=".408"/><path class="a" d="M18.75 18h2.625a1.872 1.872 0 0 0 .7-3.609l-1.138-8.862A1.147 1.147 0 0 0 19.826 4.5H7.5M9 18h6.75M7.5 14.25h14.557"/></svg>