<svg xmlns="http://www.w3.org/2000/svg" viewBox="0 0 24 24" width="24" height="24"><defs><style>.a{fill:none;stroke:#000;stroke-linecap:round;stroke-linejoin:round;stroke-width:1.5px}</style></defs><title>delivery-truck-3</title><circle class="a" cx="6" cy="19.5" r="1.5"/><circle class="a" cx="18.75" cy="19.5" r="1.5"/><path class="a" d="M10.5 15h12.75v3a1.5 1.5 0 0 1-1.5 1.5h-1.5m-9.75 0h6.75m-16.5-3h1.957m1.793 3H2.25A1.5 1.5 0 0 1 .75 18v-4.235a1.5 1.5 0 0 1 .943-1.392L4.5 11.25 5.25 6h5.25v13.5h-3m-3-8.25h6m0-8.25h11.75a1 1 0 0 1 1 1v11H10.5V3zM4.75 3h5.75v3H3.75V4a1 1 0 0 1 1-1z"/></svg>