<svg xmlns="http://www.w3.org/2000/svg" viewBox="0 0 24 24" width="24" height="24"><g fill="none" stroke="#000" stroke-linejoin="round" stroke-miterlimit="10"><circle cx="12.046" cy="8.542" r="3.979"/><path d="M9.42 11.53H8.255a2 2 0 00-1.911 2.588l2.893 9.402 5.622-.004 2.892-9.398a1.998 1.998 0 00-1.911-2.588h-1.167"/><path stroke-linecap="round" d="M9 1.521c-1.1 1.1-1.205 2.993-.233 4.208L9 6.021m6.094-4.5c1.1 1.1 1.205 2.993.233 4.208l-.233.292"/><path d="M21.5 13.021v4c0 1.934-1.566 3.5-3.5 3.5h-2.22"/><path stroke-linecap="round" d="M4.5 7.5v5h-4v-5m2-2v18m16.719-8.761l2.281-1.718 1.953 1.734"/></g><path fill="none" d="M0 0h24v24H0z"/></svg>