<svg id="Regular" xmlns="http://www.w3.org/2000/svg" viewBox="0 0 24 24" width="24" height="24"><defs><style>.cls-1{fill:none;stroke:#000;stroke-linecap:round;stroke-linejoin:round;stroke-width:1.5px}</style></defs><title>dentistry-tooth-jaws</title><path class="cls-1" d="M.75 6.75v-3.5A1.5 1.5 0 0 1 1.8 1.819C3.188 1.376 6.185.75 12 .75s8.812.626 10.2 1.069a1.5 1.5 0 0 1 1.045 1.43v3.5"/><path class="cls-1" d="M5.25 6.75a2.25 2.25 0 0 0-4.5 0v1.5a1.5 1.5 0 0 0 1.5 1.5h1.5a1.5 1.5 0 0 0 1.5-1.5zm4.5 0a2.25 2.25 0 0 0-4.5 0v1.5a1.5 1.5 0 0 0 1.5 1.5h1.5a1.5 1.5 0 0 0 1.5-1.5zm4.5 0a2.25 2.25 0 0 0-4.5 0v1.5a1.5 1.5 0 0 0 1.5 1.5h1.5a1.5 1.5 0 0 0 1.5-1.5zm4.5 0a2.25 2.25 0 0 0-4.5 0v1.5a1.5 1.5 0 0 0 1.5 1.5h1.5a1.5 1.5 0 0 0 1.5-1.5zm4.5 0a2.25 2.25 0 0 0-4.5 0v1.5a1.5 1.5 0 0 0 1.5 1.5h1.5a1.5 1.5 0 0 0 1.5-1.5zM.75 17.25v3.5a1.5 1.5 0 0 0 1.05 1.431c1.388.443 4.385 1.069 10.2 1.069s8.812-.626 10.2-1.069a1.5 1.5 0 0 0 1.045-1.43v-3.5"/><path class="cls-1" d="M5.25 17.25a2.25 2.25 0 0 1-4.5 0v-1.5a1.5 1.5 0 0 1 1.5-1.5h1.5a1.5 1.5 0 0 1 1.5 1.5zm4.5 0a2.25 2.25 0 0 1-4.5 0v-1.5a1.5 1.5 0 0 1 1.5-1.5h1.5a1.5 1.5 0 0 1 1.5 1.5zm4.5 0a2.25 2.25 0 0 1-4.5 0v-1.5a1.5 1.5 0 0 1 1.5-1.5h1.5a1.5 1.5 0 0 1 1.5 1.5zm4.5 0a2.25 2.25 0 0 1-4.5 0v-1.5a1.5 1.5 0 0 1 1.5-1.5h1.5a1.5 1.5 0 0 1 1.5 1.5zm4.5 0a2.25 2.25 0 0 1-4.5 0v-1.5a1.5 1.5 0 0 1 1.5-1.5h1.5a1.5 1.5 0 0 1 1.5 1.5z"/></svg>