<svg id="Regular" xmlns="http://www.w3.org/2000/svg" viewBox="0 0 24 24" width="24" height="24"><defs><style>.cls-1{fill:none;stroke:#000;stroke-linecap:round;stroke-linejoin:round;stroke-width:1.5px}</style></defs><title>dentistry-tooth-remove</title><circle class="cls-1" cx="17.25" cy="9.75" r="6"/><path class="cls-1" d="M19.5 7.5L15 12m0-4.5l4.5 4.5M15.692.75A6.048 6.048 0 0 0 11.25 2.7 6.052 6.052 0 0 0 .75 6.75a11.913 11.913 0 0 0 2.45 6.412 1.44 1.44 0 0 1 .181 1.478A12.005 12.005 0 0 0 2.25 19.5v1.875a2.058 2.058 0 0 0 2.135 1.875A1.951 1.951 0 0 0 6.4 21.375a4.293 4.293 0 0 1 4.442-4.125h.808a4.293 4.293 0 0 1 4.45 4.125 1.951 1.951 0 0 0 2.019 1.875 2.058 2.058 0 0 0 2.135-1.875V19.5"/></svg>