<svg xmlns="http://www.w3.org/2000/svg" viewBox="0 0 24 24" width="24" height="24"><g fill="none" stroke="#000" stroke-linejoin="round" stroke-miterlimit="10"><path d="M20.5 6.854c0-3.187-2.062-5.699-4.604-5.699A4.597 4.597 0 0012 3.312a4.598 4.598 0 00-3.896-2.157C5.562 1.154 3.5 3.667 3.5 6.854c0 3.448 1.105 5.648 2.52 7.058-.697 1.646-1.104 3.598-1.104 5.692 0 1.098.111 2.158.318 3.156a.93.93 0 00.91.741.97.97 0 00.964-.863c.385-3.531 2.429-6.22 4.892-6.22 2.469 0 4.517 2.705 4.895 6.248.05.476.451.836.929.836a.97.97 0 00.949-.776c.202-.987.311-2.036.311-3.121 0-2.094-.405-4.046-1.103-5.692 1.413-1.411 2.519-3.612 2.519-7.059z"/><path d="M10.5 11.5v2h3v-2h2v-3h-2v-2h-3v2h-2v3z"/></g><path fill="none" d="M0 0h24v24H0z"/></svg>