<svg id="Regular" xmlns="http://www.w3.org/2000/svg" viewBox="0 0 24 24" width="24" height="24"><defs><style>.cls-1{fill:none;stroke:#000;stroke-linecap:round;stroke-linejoin:round;stroke-width:1.5px}</style></defs><title>dentistry-tooth-chipped-1</title><path class="cls-1" d="M20.269 13.162a12.948 12.948 0 0 0 1.331-2.207 1.5 1.5 0 0 0-.994-2.105 5.383 5.383 0 0 1-3.889-5.1 5.284 5.284 0 0 1 .1-1.021A1.5 1.5 0 0 0 14.9 1.008 6.275 6.275 0 0 0 12.219 2.7a6.052 6.052 0 0 0-10.5 4.05 11.913 11.913 0 0 0 2.45 6.412 1.44 1.44 0 0 1 .181 1.478 12.018 12.018 0 0 0-1.131 4.86v1.875a2.059 2.059 0 0 0 2.135 1.875 1.951 1.951 0 0 0 2.019-1.875 4.293 4.293 0 0 1 4.442-4.125h.808a4.293 4.293 0 0 1 4.442 4.125 1.951 1.951 0 0 0 2.02 1.875 2.058 2.058 0 0 0 2.134-1.875V19.5a12.017 12.017 0 0 0-1.13-4.86 1.438 1.438 0 0 1 .18-1.478z"/></svg>