<svg id="Regular" xmlns="http://www.w3.org/2000/svg" viewBox="0 0 24 24" width="24" height="24"><defs><style>.cls-1{fill:none;stroke:#000;stroke-linecap:round;stroke-linejoin:round;stroke-width:1.5px}</style></defs><title>dentistry-tooth</title><path class="cls-1" d="M20.05 13.162A11.913 11.913 0 0 0 22.5 6.75 6.052 6.052 0 0 0 12 2.7 6.052 6.052 0 0 0 1.5 6.75a11.913 11.913 0 0 0 2.45 6.412 1.438 1.438 0 0 1 .18 1.478c-.475 1.069-2.089 8.61 1 8.61 2.95 0 .258-6 6.461-6h.809c6.222 0 3.493 6 6.461 6 3.092 0 1.482-7.537 1.005-8.61a1.438 1.438 0 0 1 .184-1.478z"/><path class="cls-1" d="M16.5 9a.75.75 0 0 0-.75-.75H13.5V6a.75.75 0 0 0-.75-.75h-1.5a.75.75 0 0 0-.75.75v2.25H8.25A.75.75 0 0 0 7.5 9v1.5a.75.75 0 0 0 .75.75h2.25v2.25a.75.75 0 0 0 .75.75h1.5a.75.75 0 0 0 .75-.75v-2.25h2.25a.75.75 0 0 0 .75-.75z"/></svg>