<svg xmlns="http://www.w3.org/2000/svg" viewBox="0 0 24 24" width="24" height="24"><g fill="none" stroke="#000" stroke-linejoin="round" stroke-miterlimit="10"><path d="M16.5 8.76c0-1.875-1.213-3.354-2.708-3.354-.967 0-1.812.508-2.292 1.27a2.703 2.703 0 00-2.291-1.27C7.713 5.406 6.5 6.885 6.5 8.76c0 2.028.651 3.322 1.482 4.151-.41.968-.648 2.116-.648 3.349 0 .646.064 1.269.187 1.855a.547.547 0 00.535.436.568.568 0 00.567-.508c.227-2.076 1.429-3.658 2.877-3.658 1.452 0 2.657 1.591 2.879 3.675a.55.55 0 00.547.491.57.57 0 00.559-.455 9.16 9.16 0 00.183-1.836c0-1.232-.239-2.381-.649-3.349.831-.829 1.481-2.123 1.481-4.151z"/><path stroke-linecap="round" d="M11.508.479h-.017C9 2.977 1.5 5 1.5 5c0 7.961.5 14.961 10 18.479C21 19.961 21.5 12.961 21.5 5c0 0-7.5-2.023-9.992-4.521z"/></g><path fill="none" d="M0 0h24v24H0z"/></svg>