<svg xmlns="http://www.w3.org/2000/svg" viewBox="0 0 24 24" width="24" height="24"><defs><style>.a{fill:none;stroke:#000;stroke-linecap:round;stroke-linejoin:round;stroke-width:1.5px}</style></defs><title>design-tool-paper-glue</title><path class="a" d="M9.255 20.067l-5.3-5.3a.749.749 0 0 1 0-1.06l9.714-9.714 6.364 6.364-9.714 9.714a.752.752 0 0 1-1.064-.004z"/><path class="a" d="M9.145 19.957l-5.083-5.084-2.769 2.768C-.94 19.875 4.272 25.427 6.8 22.3zm10.885-9.604l-6.364-6.364 2.781-2.781a1.5 1.5 0 0 1 2.121 0l4.243 4.242a1.5 1.5 0 0 1 0 2.122zm.75-6.933l-3.842 3.841m-3.201 3.201l-2.561 2.562"/></svg>