<svg xmlns="http://www.w3.org/2000/svg" viewBox="0 0 24 24" width="24" height="24"><defs><style>.a{fill:none;stroke:#000;stroke-linecap:round;stroke-linejoin:round;stroke-width:1.5px}</style></defs><title>design-tool-pencil-ruler</title><path class="a" d="M5.25 23.25a3 3 0 0 1-3-3V7.458a2.986 2.986 0 0 1 .317-1.341l2.012-4.025a.75.75 0 0 1 1.342 0l2.012 4.025a2.986 2.986 0 0 1 .317 1.341V20.25a3 3 0 0 1-3 3zM2.335 6.75h5.83M2.25 19.5h6"/><rect class="a" x="12.75" y=".75" width="9" height="22.5" rx="1.5" ry="1.5"/><path class="a" d="M12.75 5.25h3m-3 4.5h3m-3 4.5h3m-3 4.5h3"/></svg>