<svg xmlns="http://www.w3.org/2000/svg" viewBox="0 0 24 24" width="24" height="24"><defs><style>.a{fill:none;stroke:#000;stroke-linecap:round;stroke-linejoin:round;stroke-width:1.5px}</style></defs><title>design-tool-ink</title><rect class="a" x="3" y=".75" width="18" height="6" rx=".75" ry=".75"/><path class="a" d="M19.872 10.248A4.205 4.205 0 0 1 18 6.75H6a4.205 4.205 0 0 1-1.872 3.5l-.624.416a4.5 4.5 0 0 0-2 3.744v5.84a3 3 0 0 0 3 3h15a3 3 0 0 0 3-3v-5.842a4.5 4.5 0 0 0-2-3.744zM7.5.75v6m9-6v6m-4.5-6v6"/><path class="a" d="M14.25 16.5A2.025 2.025 0 0 1 12 18.75a2.025 2.025 0 0 1-2.25-2.25c0-1.657 2.25-3.75 2.25-3.75s2.25 2.093 2.25 3.75z"/></svg>