<svg xmlns="http://www.w3.org/2000/svg" viewBox="0 0 24 24" width="24" height="24"><defs><style>.a{fill:none;stroke:#000;stroke-linecap:round;stroke-linejoin:round;stroke-width:1.5px}</style></defs><title>design-tool-compass</title><path class="a" d="M14.625 6.75h-4.5V3a2.25 2.25 0 0 1 2.25-2.25A2.25 2.25 0 0 1 14.625 3zm-10.5 12V21l-1.5 2.25-1.5-2.25V9.75a1.5 1.5 0 0 1 1.5-1.5 1.5 1.5 0 0 1 1.5 1.5v4.5"/><path class="a" d="M1.125 18.75h4.5l9-12 7.222 10.505a1.891 1.891 0 0 1-.424 2.584 1.89 1.89 0 0 1-2.673-.414l-6.644-9.316M10.125 6.75l-6 7.5m17.298 5.589l1.452 1.911m-21.75-7.5h3"/></svg>