<svg xmlns="http://www.w3.org/2000/svg" viewBox="0 0 24 24" width="24" height="24"><defs><style>.a{fill:none;stroke:#000;stroke-linecap:round;stroke-linejoin:round;stroke-width:1.5px}</style></defs><title>design-document-3ds</title><path class="a" d="M.75 3.75h22.5M.75 20.25h22.5m-3-12h-1.5a1.5 1.5 0 0 0-1.5 1.5c0 2.25 3 2.25 3 4.5a1.5 1.5 0 0 1-1.5 1.5h-1.5m-6 0a3 3 0 0 0 3-3v-1.5a3 3 0 0 0-3-3zm-7.5-6a1.5 1.5 0 0 1 1.5-1.5l1.135.005A1.873 1.873 0 0 1 6.377 12a1.873 1.873 0 0 1 .008 3.745l-1.135.005a1.5 1.5 0 0 1-1.5-1.5"/></svg>