<svg xmlns="http://www.w3.org/2000/svg" viewBox="0 0 24 24" width="24" height="24"><defs><style>.a{fill:none;stroke:#000;stroke-linecap:round;stroke-linejoin:round;stroke-width:1.5px}</style></defs><title>design-tool-pen-station</title><path class="a" d="M2.161.76c2.6 2.331 1.975 1.39 3.324 2.259a2.164 2.164 0 0 1 .783.929 2.25 2.25 0 1 1-4.107 1.839 5.686 5.686 0 0 1 0-5.027zm2.067 6.357l.931 2.643m6.752 13.5h-4.5a4.5 4.5 0 0 1-4.5-4.5v-9h13.5v9a4.5 4.5 0 0 1-4.5 4.5zm6-4.5h-1.5v-9h1.5a4.5 4.5 0 0 1 4.5 4.5 4.5 4.5 0 0 1-4.5 4.5zM6.24 5.848L8.668 9.76m.976 0l2.023-5.731L15.074.74l.587 4.698-1.525 4.322m1.29-3.66a3.528 3.528 0 0 1-3.994-1.41"/></svg>