<svg xmlns="http://www.w3.org/2000/svg" viewBox="0 0 24 24" width="24" height="24"><defs><style>.a{fill:none;stroke:#000;stroke-linecap:round;stroke-linejoin:round;stroke-width:1.5px}</style></defs><title>design-drawing-board</title><path class="a" d="M9 6H4.5A1.5 1.5 0 0 0 3 7.5V18h18V7.5A1.5 1.5 0 0 0 19.5 6H15M1.5 18h21M12 18v5.25M8.25 18L6 23.25M15.75 18L18 23.25"/><path class="a" d="M13.5 7.5h-3A1.5 1.5 0 0 1 9 6v-.75a.75.75 0 0 1 .75-.75h4.5a.75.75 0 0 1 .75.75V6a1.5 1.5 0 0 1-1.5 1.5zM12 2.25V4.5"/></svg>