<svg xmlns="http://www.w3.org/2000/svg" viewBox="0 0 24 24" width="24" height="24"><defs><style>.a{fill:none;stroke:#000;stroke-linecap:round;stroke-linejoin:round;stroke-width:1.5px}</style></defs><title>design-file-dwg-1</title><path class="a" d="M2.249 23.25a1.5 1.5 0 0 1-1.5-1.5V2.25a1.5 1.5 0 0 1 1.5-1.5h10.629a1.5 1.5 0 0 1 1.061.439l5.871 5.872a1.5 1.5 0 0 1 .439 1.06v4.629"/><path class="a" d="M20.249 8.25h-6a1.5 1.5 0 0 1-1.5-1.5v-6m-1.5 15v2.017a9 9 0 0 0 .644 3.342l.856 2.141 1.5-5.25 1.5 5.25.857-2.141a9 9 0 0 0 .643-3.342V15.75m5.251 4.5h.75v1.5a1.5 1.5 0 0 1-3 0v-4.5a1.5 1.5 0 0 1 1.5-1.5h1.5m-18.001 7.5a3 3 0 0 0 3-3v-1.5a3 3 0 0 0-3-3z"/></svg>