<svg xmlns="http://www.w3.org/2000/svg" viewBox="0 0 24 24" width="24" height="24"><defs><style>.a{fill:none;stroke:#000;stroke-linecap:round;stroke-linejoin:round;stroke-width:1.5px}</style></defs><title>design-file-text-image</title><rect class="a" x="14.25" y="14.25" width="9" height="9" rx="1" ry="1"/><path class="a" d="M17.344 16.781a.375.375 0 1 1-.375.375.375.375 0 0 1 .375-.375m5.791 5.546l-2.212-3.317a.749.749 0 0 0-1.275.044l-2.4 4.2m-5.998-.004h-9a1.5 1.5 0 0 1-1.5-1.5V2.25a1.5 1.5 0 0 1 1.5-1.5h15a1.5 1.5 0 0 1 1.047.426l3 2.883a1.5 1.5 0 0 1 .453 1.074v6.117m-16.5-3h12m-12 4.5h6m-6 4.5h6"/></svg>