<svg xmlns="http://www.w3.org/2000/svg" viewBox="0 0 24 24" width="24" height="24"><defs><style>.a{fill:none;stroke:#000;stroke-linecap:round;stroke-linejoin:round;stroke-width:1.5px}</style></defs><title>design-document-indd-1</title><path class="a" d="M23.25 21v.75a1.5 1.5 0 0 1-1.5 1.5H2.25a1.5 1.5 0 0 1-1.5-1.5V21m0-13.5V2.25a1.5 1.5 0 0 1 1.5-1.5h19.5a1.5 1.5 0 0 1 1.5 1.5V7.5M3.001 18v-7.5m3 7.5v-7.5l3 7.5v-7.5M18 18a3 3 0 0 0 3-3v-1.5a3 3 0 0 0-3-3zm-6 0a3 3 0 0 0 3-3v-1.5a3 3 0 0 0-3-3z"/></svg>