<svg xmlns="http://www.w3.org/2000/svg" viewBox="0 0 24 24" width="24" height="24"><defs><style>.a{fill:none;stroke:#000;stroke-linecap:round;stroke-linejoin:round;stroke-width:1.5px}</style></defs><title>design-file-max-1</title><path class="a" d="M3.75 23.25h-1.5a1.5 1.5 0 0 1-1.5-1.5V2.25a1.5 1.5 0 0 1 1.5-1.5h10.628a1.5 1.5 0 0 1 1.061.439l5.871 5.872a1.5 1.5 0 0 1 .44 1.06v4.629"/><path class="a" d="M20.25 8.25h-6a1.5 1.5 0 0 1-1.5-1.5v-6m1.5 22.5v-6a1.5 1.5 0 0 1 3 0v6m-3-3h3m-6 3v-7.5L9 19.5l-2.25-3.75v7.5m13.5-7.5l3 7.5m0-7.5l-3 7.5"/></svg>