<svg xmlns="http://www.w3.org/2000/svg" viewBox="0 0 24 24" width="24" height="24"><defs><style>.a{fill:none;stroke:#000;stroke-linecap:round;stroke-linejoin:round;stroke-width:1.5px}</style></defs><title>design-file-select</title><path class="a" d="M22.5 21.75a1.5 1.5 0 0 1-1.5 1.5H3a1.5 1.5 0 0 1-1.5-1.5V2.25A1.5 1.5 0 0 1 3 .75h15a1.5 1.5 0 0 1 1.047.426l3 2.883a1.5 1.5 0 0 1 .453 1.074z"/><circle class="a" cx="7.5" cy="17.25" r="1.5"/><circle class="a" cx="16.5" cy="17.25" r="1.5"/><path class="a" d="M9 17.25h6"/><circle class="a" cx="7.5" cy="9.75" r="1.5"/><circle class="a" cx="16.5" cy="9.75" r="1.5"/><path class="a" d="M9 9.75h6m-7.5 1.5v4.5m9-4.5v4.5"/></svg>