<svg xmlns="http://www.w3.org/2000/svg" viewBox="0 0 24 24" width="24" height="24"><defs><style>.a{fill:none;stroke:#000;stroke-linecap:round;stroke-linejoin:round;stroke-width:1.5px}</style></defs><title>design-draw</title><path class="a" d="M17.25 4.4V2.476a.979.979 0 0 0-.976-.976H3.226a.979.979 0 0 0-.976.976v19.048a.979.979 0 0 0 .976.976h13.048a.979.979 0 0 0 .976-.976M.75 6h2.44M.75 12h2.44M.75 18h2.44"/><path class="a" d="M18.23 8.319a5.368 5.368 0 0 0-8.29 4.5v.488a1.464 1.464 0 0 0 2.928 0v-.488a2.442 2.442 0 0 1 3.183-2.319m1.634 2.505c2.063.472 1.551 2.734.074 2.745H15a1.5 1.5 0 0 0 0 3h2.82c1.539 1.772 3.547 1.294 5.381.334m-2.709-8.886l2.758 2.758"/><path class="a" d="M16.051 10.5l4.793-4.8a.977.977 0 0 1 1.381 0l.69.691a.976.976 0 0 1 0 1.38l-7.976 7.977m-1.378 1.926l-4.796 2.18 1.726-3.796 1.348-1.348m7.576-7.576l2.071 2.071m-3.797-.346l2.071 2.071"/></svg>