<svg xmlns="http://www.w3.org/2000/svg" viewBox="0 0 24 24" width="24" height="24"><defs><style>.a{fill:none;stroke:#000;stroke-linecap:round;stroke-linejoin:round;stroke-width:1.5px}</style></defs><title>design-tool-pen</title><path class="a" d="M11.25 18.4A5.064 5.064 0 0 1 6 23.25 5.064 5.064 0 0 1 .75 18.4V8.691a2.025 2.025 0 0 1 2.1-1.941h6.3a2.025 2.025 0 0 1 2.1 1.941zM.75 12h10.5M21 .75L18.75 4.5v10.75a2.136 2.136 0 0 0 2.25 2 2.136 2.136 0 0 0 2.25-2V4.5z"/><path class="a" d="M6 12V5.25a4.5 4.5 0 0 1 4.5-4.5 4.5 4.5 0 0 1 4.5 4.5V19.5a3 3 0 0 0 3 3 3 3 0 0 0 3-3v-2.25m-2.25-3h4.5M18.75 6h4.5"/></svg>