<svg xmlns="http://www.w3.org/2000/svg" viewBox="0 0 24 24" width="24" height="24"><defs><style>.a{fill:none;stroke:#000;stroke-linecap:round;stroke-linejoin:round;stroke-width:1.5px}</style></defs><title>design-file-indd-1</title><path class="a" d="M5.247 23.25v-7.5m3 7.5v-7.5l3 7.5v-7.5m9 7.5a3 3 0 0 0 3-3v-1.5a3 3 0 0 0-3-3zm-6 0a3 3 0 0 0 3-3v-1.5a3 3 0 0 0-3-3z"/><path class="a" d="M2.247 23.25a1.5 1.5 0 0 1-1.5-1.5V2.25a1.5 1.5 0 0 1 1.5-1.5h10.629a1.5 1.5 0 0 1 1.061.439l5.871 5.872a1.5 1.5 0 0 1 .439 1.06v4.629"/><path class="a" d="M20.247 8.25h-6a1.5 1.5 0 0 1-1.5-1.5v-6"/></svg>