<svg xmlns="http://www.w3.org/2000/svg" viewBox="0 0 24 24" width="24" height="24"><defs><style>.a{fill:none;stroke:#000;stroke-linecap:round;stroke-linejoin:round;stroke-width:1.5px}</style></defs><title>design-file-dxf-1</title><path class="a" d="M20.25 23.25v-6a1.5 1.5 0 0 1 1.5-1.5h1.5m-3 4.5h2.25m-8.25-4.5l3 7.5m0-7.5l-3 7.5m-6 0a3 3 0 0 0 3-3v-1.5a3 3 0 0 0-3-3z"/><path class="a" d="M5.25 23.25h-3a1.5 1.5 0 0 1-1.5-1.5V2.25a1.5 1.5 0 0 1 1.5-1.5h10.629a1.5 1.5 0 0 1 1.06.439l5.872 5.872a1.5 1.5 0 0 1 .439 1.06v4.629"/><path class="a" d="M20.25 8.25h-6a1.5 1.5 0 0 1-1.5-1.5v-6"/></svg>