<svg xmlns="http://www.w3.org/2000/svg" viewBox="0 0 24 24" width="24" height="24"><defs><style>.a{fill:none;stroke:#000;stroke-linecap:round;stroke-linejoin:round;stroke-width:1.5px}</style></defs><title>design-document-dwg</title><path class="a" d="M1.5 3.75h21m-21 16.5h21M9 8.25v2.017a8.982 8.982 0 0 0 .644 3.342l.856 2.141L12 10.5l1.5 5.25.856-2.141A8.982 8.982 0 0 0 15 10.267V8.25m5.25 4.5H21v1.5a1.5 1.5 0 0 1-3 0v-4.5a1.5 1.5 0 0 1 1.5-1.5H21m-18 7.5a3 3 0 0 0 3-3v-1.5a3 3 0 0 0-3-3z"/></svg>