<svg xmlns="http://www.w3.org/2000/svg" viewBox="0 0 24 24" width="24" height="24"><defs><style>.a{fill:none;stroke:#000;stroke-linecap:round;stroke-linejoin:round;stroke-width:1.5px}</style></defs><title>design-tool-sharpener</title><path class="a" d="M7.5.75V13.5a4.5 4.5 0 0 0 9 0V.75m-6 0v16.902"/><path class="a" d="M13.5 8.625a.375.375 0 1 1-.375.375.375.375 0 0 1 .375-.375"/><path class="a" d="M19.5 12A6.965 6.965 0 0 1 21 7.557V1.728a.978.978 0 0 0-.978-.978H3.978A.978.978 0 0 0 3 1.728v5.829A6.965 6.965 0 0 1 4.5 12 6.965 6.965 0 0 1 3 16.443v5.829a.978.978 0 0 0 .978.978h16.044a.978.978 0 0 0 .978-.978v-5.829A6.965 6.965 0 0 1 19.5 12z"/></svg>