<svg xmlns="http://www.w3.org/2000/svg" viewBox="0 0 24 24" width="24" height="24"><defs><style>.a{fill:none;stroke:#000;stroke-linecap:round;stroke-linejoin:round;stroke-width:1.5px}</style></defs><title>design-tool-magnet</title><path class="a" d="M19.03 9.919l-6.805 6.805a3.5 3.5 0 0 1-4.949 0 3.5 3.5 0 0 1 0-4.949l6.805-6.805a.874.874 0 0 0 0-1.237l-2.474-2.475a.877.877 0 0 0-1.238 0l-6.8 6.805a8.747 8.747 0 0 0 0 12.372 8.747 8.747 0 0 0 12.372 0l6.805-6.8a.877.877 0 0 0 0-1.238l-2.479-2.478a.874.874 0 0 0-1.237 0zM7.276 4.351l3.712 3.712m4.949 4.949l3.712 3.712"/></svg>