<svg xmlns="http://www.w3.org/2000/svg" viewBox="0 0 24 24" width="24" height="24"><defs><style>.a{fill:none;stroke:#000;stroke-linecap:round;stroke-linejoin:round;stroke-width:1.5px}</style></defs><title>design-document-dwg-1</title><path class="a" d="M23.25 21v.75a1.5 1.5 0 0 1-1.5 1.5H2.25a1.5 1.5 0 0 1-1.5-1.5V21m0-13.5V2.25a1.5 1.5 0 0 1 1.5-1.5h19.5a1.5 1.5 0 0 1 1.5 1.5V7.5M9 10.5v2.017a8.982 8.982 0 0 0 .644 3.342L10.5 18l1.5-5.25L13.5 18l.856-2.141A8.982 8.982 0 0 0 15 12.517V10.5m5.251 4.5H21v1.5a1.5 1.5 0 0 1-3 0V12a1.5 1.5 0 0 1 1.5-1.5H21M3 18a3 3 0 0 0 3-3v-1.5a3 3 0 0 0-3-3z"/></svg>