<svg xmlns="http://www.w3.org/2000/svg" viewBox="0 0 24 24" width="24" height="24"><defs><style>.a{fill:none;stroke:#000;stroke-linecap:round;stroke-linejoin:round;stroke-width:1.5px}</style></defs><title>design-drawing-board-education</title><path class="a" d="M18.75 12.1V6a1.5 1.5 0 0 0-1.5-1.5h-4.5m-6 0h-4.5A1.5 1.5 0 0 0 .75 6v9a1.5 1.5 0 0 0 1.5 1.5h4.5m-.75 0l-2.25 5.25m6-21V3m6.75 11.308l-6.75 2.779 6.75 2.471 6.75-2.471-6.75-2.779zm-6.75 2.758v3.771"/><path class="a" d="M12.75 18.185V21.3a.749.749 0 0 0 .472.7l3 1.2a.745.745 0 0 0 .557 0l3-1.2a.748.748 0 0 0 .471-.7v-3.115M11.25 6h-3a1.5 1.5 0 0 1-1.5-1.5v-.75A.75.75 0 0 1 7.5 3H12a.75.75 0 0 1 .75.75v.75a1.5 1.5 0 0 1-1.5 1.5z"/></svg>