<svg xmlns="http://www.w3.org/2000/svg" viewBox="0 0 24 24" width="24" height="24"><defs><style>.a{fill:none;stroke:#000;stroke-linecap:round;stroke-linejoin:round;stroke-width:1.5px}</style></defs><title>design-file-vector</title><path class="a" d="M13.189 7.811L7.811 13.19"/><circle class="a" cx="14.25" cy="6.75" r="1.5"/><path class="a" d="M7.811 15.312a1.5 1.5 0 1 1 0-2.122 1.5 1.5 0 0 1 0 2.122zM16.5 12h-2.008A2.492 2.492 0 0 0 12 14.492V16.5"/><rect class="a" x="16.5" y="10.5" width="3" height="3" rx=".75" ry=".75"/><rect class="a" x="10.5" y="16.5" width="3" height="3" rx=".75" ry=".75"/><path class="a" d="M22.5 21.75a1.5 1.5 0 0 1-1.5 1.5H3a1.5 1.5 0 0 1-1.5-1.5V2.25A1.5 1.5 0 0 1 3 .75h15a1.5 1.5 0 0 1 1.047.426l3 2.883a1.5 1.5 0 0 1 .453 1.074z"/></svg>