<svg xmlns="http://www.w3.org/2000/svg" viewBox="0 0 24 24" width="24" height="24"><defs><style>.a{fill:none;stroke:#000;stroke-linecap:round;stroke-linejoin:round;stroke-width:1.5px}</style></defs><title>desktop-monitor-lock-1</title><rect class="a" x="14.25" y="5.25" width="9" height="7.5" rx="1.5" ry="1.5"/><path class="a" d="M18.75.75a3 3 0 0 0-3 3v1.5h6v-1.5a3 3 0 0 0-3-3zm0 7.904a.375.375 0 1 0 .375.375.375.375 0 0 0-.375-.375m-3 14.596h-7.5l.75-3h6l.75 3zm-9.75 0h12m-17.25-6h22.5m0-1.5v1.5a3 3 0 0 1-3 3H3.75a3 3 0 0 1-3-3V6.75a3 3 0 0 1 3-3h7.5"/></svg>