<svg xmlns="http://www.w3.org/2000/svg" viewBox="0 0 24 24" width="24" height="24"><defs><style>.a{fill:none;stroke:#000;stroke-linecap:round;stroke-linejoin:round;stroke-width:1.5px}</style></defs><title>desktop-computer-2</title><path class="a" d="M17.432 20.25h-10.5v-18a1.5 1.5 0 0 1 1.5-1.5h7.5a1.5 1.5 0 0 1 1.5 1.5zm-6-19.5v19.5m6-15h-6m6 4.5h-6"/><path class="a" d="M14.432 15.375a.375.375 0 1 0 .375.375.375.375 0 0 0-.375-.375m5.668 5.704a1.5 1.5 0 0 0-1.341-.829H5.609a1.5 1.5 0 1 0 0 3h13.146a1.5 1.5 0 0 0 1.345-2.171z"/></svg>