<svg xmlns="http://www.w3.org/2000/svg" viewBox="0 0 24 24" width="24" height="24"><defs><style>.a{fill:none;stroke:#000;stroke-linecap:round;stroke-linejoin:round;stroke-width:1.5px}</style></defs><title>desktop-monitor-back</title><path class="a" d="M15.759 21.75h-7.5L9.55 14a1.5 1.5 0 0 1 1.48-1.253h1.958A1.5 1.5 0 0 1 14.468 14zm-7.5 0h10.5"/><path class="a" d="M15.009 17.25h6.42a1.5 1.5 0 0 0 1.471-1.794l-2.4-12a1.5 1.5 0 0 0-1.471-1.206H2.589a1.5 1.5 0 0 0-1.471 1.794l2.4 12a1.5 1.5 0 0 0 1.471 1.206h4.02m9.75-3h-1.5"/></svg>