<svg xmlns="http://www.w3.org/2000/svg" viewBox="0 0 24 24" width="24" height="24"><defs><style>.a{fill:none;stroke:#000;stroke-linecap:round;stroke-linejoin:round;stroke-width:1.5px}</style></defs><title>desktop-monitor-lock-2</title><path class="a" d="M18 2.25h3.75a1.5 1.5 0 0 1 1.5 1.5v12a1.5 1.5 0 0 1-1.5 1.5H2.25a1.5 1.5 0 0 1-1.5-1.5v-12a1.5 1.5 0 0 1 1.5-1.5H6m9.75 19.5h-7.5l.75-4.5h6l.75 4.5zm-9.75 0h12"/><path class="a" d="M12 9.375a.375.375 0 1 0 .375.375.375.375 0 0 0-.375-.375"/><rect class="a" x="7.5" y="6.75" width="9" height="6" rx=".375" ry=".375"/><path class="a" d="M9 6.75v-1.5a3 3 0 0 1 6 0v1.5"/></svg>