<svg xmlns="http://www.w3.org/2000/svg" viewBox="0 0 24 24" width="24" height="24"><defs><style>.a{fill:none;stroke:#000;stroke-linecap:round;stroke-linejoin:round;stroke-width:1.5px}</style></defs><title>desktop-monitor-warning</title><circle class="a" cx="17.25" cy="10.125" r=".375"/><path class="a" d="M17.25 7.5v-3m5.813 5.682a1.774 1.774 0 0 1-1.587 2.568h-8.452a1.774 1.774 0 0 1-1.587-2.568l4.226-8.451a1.774 1.774 0 0 1 3.174 0zM15.75 23.25h-7.5l.75-3h6l.75 3zm-9.75 0h12m-17.25-6h22.5"/><path class="a" d="M23.25 15.75v1.5a3 3 0 0 1-3 3H3.75a3 3 0 0 1-3-3V6.75a3 3 0 0 1 3-3h6.75"/></svg>