<svg xmlns="http://www.w3.org/2000/svg" viewBox="0 0 24 24" width="24" height="24"><defs><style>.a{fill:none;stroke:#000;stroke-linecap:round;stroke-linejoin:round;stroke-width:1.5px}</style></defs><title>desktop-computer-3</title><rect class="a" x="6.728" y=".75" width="10.5" height="19.5" rx="1.5" ry="1.5"/><path class="a" d="M11.228.75v19.5m6-15h-6m6 4.5h-6m3 5.625a.375.375 0 1 0 .375.375.375.375 0 0 0-.375-.375"/><path class="a" d="M17.228 14.25h1.919a1.5 1.5 0 0 1 1.423 1.026l2 6a1.5 1.5 0 0 1-1.423 1.974H2.809a1.5 1.5 0 0 1-1.423-1.974l2-6a1.5 1.5 0 0 1 1.423-1.026h1.919"/></svg>