<svg xmlns="http://www.w3.org/2000/svg" viewBox="0 0 24 24" width="24" height="24"><g fill="none" stroke="#000" stroke-linejoin="round" stroke-miterlimit="10"><path d="M18 8.636V10c1 .5.5 3-1 3 0 3-3.5 5-5 5s-5-2-5-5c-1.5 0-2-2.5-1-3V8.636"/><path stroke-linecap="round" d="M11.5 15.5h1M12 9C6.5 9 2 8 2 8l4.5-2.5L9 .5l3 2M12 9c5.5 0 10-1 10-1l-4.5-2.5-2.5-5-3 2M11 10a1 1 0 01-1 1H9a1 1 0 01-1-1V9h3v1zm5 0a1 1 0 01-1 1h-1a1 1 0 01-1-1V9h3v1zM4.5 23.5l1.5-3-3 .5s.5-5 .5-7.5H5c0 5.5 9.388 10 11 10H4.5z"/><path d="M3.403 16.598c-1 .5-2.902 1.305-2.902 3.647V23.5H12m8.633-6.902c1 .5 2.867 1.305 2.867 3.647V23.5H12"/><path d="M19.5 23.5l-1.5-3 3 .5s-.5-5-.5-7.5H19c-.5 4-5.05 8.579-6.662 8.579M6.5 5.5s2.5 1 5.5 1 5.5-1 5.5-1"/></g><path fill="none" d="M0 0h24v24H0z"/></svg>