<svg id="Regular" xmlns="http://www.w3.org/2000/svg" viewBox="0 0 24 24" width="24" height="24"><defs><style>.cls-1{fill:none;stroke:#000;stroke-linecap:round;stroke-linejoin:round;stroke-width:1.5px}</style></defs><title>diagram-dash-wave-down</title><path class="cls-1" d="M.75.75l3.1.009m2.57 1.632a6.065 6.065 0 0 1 .33 2.836m0 3.181V11.3m0 3.181v2.892m.012 3.181a2.949 2.949 0 0 0 1.506 2.332m3.106.234a3.035 3.035 0 0 0 1.992-1.944m.134-3.167v-2.892m0-3.181V9.044m0-3.181V4.417a5.582 5.582 0 0 1 .093-1.438M15.752.85a5.533 5.533 0 0 1 1.437-.1 2.971 2.971 0 0 1 1.4.3m1.655 2.528l.006 2.892m0 3.181v5.35m-3-3.75l3 3.75 3-3.75"/></svg>