<svg id="Regular" xmlns="http://www.w3.org/2000/svg" viewBox="0 0 24 24" width="24" height="24"><defs><style>.cls-1{fill:none;stroke:#000;stroke-linecap:round;stroke-linejoin:round;stroke-width:1.5px}</style></defs><title>diagram-dash-circle</title><path class="cls-1" d="M.758 14.008l3-3 3 3m9.077-11.423a9.637 9.637 0 0 1 2.808 1.237M21.135 6.1a9.547 9.547 0 0 1 1.492 2.681m.623 3.311a10.544 10.544 0 0 1-.419 3.042m-1.512 3.015a9.39 9.39 0 0 1-2.17 2.17m-3.015 1.512a10.544 10.544 0 0 1-3.042.419m-3.315-.623A9.561 9.561 0 0 1 7.1 20.135m-2.278-2.492a9.61 9.61 0 0 1-1.237-2.808"/></svg>