<svg id="Regular" xmlns="http://www.w3.org/2000/svg" viewBox="0 0 24 24" width="24" height="24"><defs><style>.cls-1{fill:none;stroke:#000;stroke-linecap:round;stroke-linejoin:round;stroke-width:1.5px}</style></defs><title>diagram-wave-both-direction</title><path class="cls-1" d="M20.25 7.5l3-3-3-3m-16.5 15l-3 3 3 3m19.5-18h-5.535m-3.291 0h-2.991M8.3 5.221a3.749 3.749 0 0 0-1.5 2.492m.919 3.046a3.74 3.74 0 0 0 2.636 1.234m3.29.014a3.74 3.74 0 0 1 2.636 1.234m.926 3.046a3.749 3.749 0 0 1-1.5 2.492m-3.14.721H9.576m-3.291 0H.75"/></svg>