<svg id="Regular" xmlns="http://www.w3.org/2000/svg" viewBox="0 0 24 24" width="24" height="24"><defs><style>.cls-1{fill:none;stroke:#000;stroke-linecap:round;stroke-linejoin:round;stroke-width:1.5px}</style></defs><title>diagram-curve-rise-dash</title><path class="cls-1" d="M23.25 13.257l-3-3-3 3m-16.5-.75l.008-2.25a3.607 3.607 0 0 1 .128-.844M2.8 6.978a5.234 5.234 0 0 1 2.817-.471m3.07.601a3.9 3.9 0 0 1 1.673 2.279m.14 3.172v2.895m.812 3.004a3.988 3.988 0 0 0 2.412 1.48m3.176.033a3.777 3.777 0 0 0 2.471-1.371m.879-2.987v-5.356"/></svg>