<svg xmlns="http://www.w3.org/2000/svg" viewBox="0 0 24 24" width="24" height="24"><defs><style>.a{fill:none;stroke:#000;stroke-linecap:round;stroke-linejoin:round;stroke-width:1.5px}</style></defs><title>diamond</title><path class="a" d="M19.237 3.225a1.5 1.5 0 0 0-1.2-.6h-12a1.5 1.5 0 0 0-1.2.6L1.5 7.676a1.5 1.5 0 0 0 .048 1.86l9.338 11.3a1.5 1.5 0 0 0 2.3 0l9.338-11.3a1.5 1.5 0 0 0 .048-1.86zM5.349 2.792l6.688 18.583m6.687-18.583l-6.687 18.583M1.198 8.625h21.673"/><path class="a" d="M7.537 8.625l4.5-6 4.5 6"/></svg>