<svg xmlns="http://www.w3.org/2000/svg" viewBox="0 0 24 24" width="24" height="24"><defs><style>.a{fill:none;stroke:#000;stroke-linecap:round;stroke-linejoin:round;stroke-width:1.5px}</style></defs><title>diamond-hold</title><path class="a" d="M16.279 9.327a4.723 4.723 0 0 1 2.258 3.8 2.8 2.8 0 0 1-.7 1.97l-.994 1.136a1.884 1.884 0 0 1-2.75.091l-1.935-1.935a1.412 1.412 0 0 0-2 2l3.51 3.981a3.766 3.766 0 0 1 1.1 2.663v.208m8.482.001v-9.179a10.409 10.409 0 0 0-.414-2.555 7.688 7.688 0 0 0-4.459-4.957M.879 5.492h14.742M3.47.75a.935.935 0 0 0-.831.5L.84 4.705a.771.771 0 0 0 .129.9l6.648 6.988a.886.886 0 0 0 1.266 0l6.648-6.988a.771.771 0 0 0 .129-.9l-1.947-3.476A.937.937 0 0 0 12.9.75zM.75 14.992h3m-1.5-1.5v3m18-14.25h3m-1.5-1.5v3M4.459.75l3.749 12.108M12.041.75L8.292 12.858"/></svg>