<svg xmlns="http://www.w3.org/2000/svg" viewBox="0 0 24 24" width="24" height="24"><g fill="none" stroke="#000" stroke-linejoin="round" stroke-miterlimit="10"><path d="M14.5 9V6l-8-3v5.5"/><path stroke-linecap="round" d="M9.5 13l-8-3v10l8 3.5zm0 0l8-3v10l-8 3.5z"/><path stroke-linecap="round" d="M17.5 10.002L9.5 7.5l-8 2.502"/><path d="M14.5 6l8-3v10l-5 2"/><path stroke-linecap="round" d="M22.5 3.002L14.5.5l-8 2.502"/><path d="M15 3a.5.5 0 01-.5.5h0A.5.5 0 0114 3h0a.5.5 0 01.5-.5h0a.5.5 0 01.5.5h0zm5.5 3.5a.5.5 0 01-.5.5h0a.5.5 0 01-.5-.5h0A.5.5 0 0120 6h0a.5.5 0 01.5.5h0zm0 5a.5.5 0 01-.5.5h0a.5.5 0 01-.5-.5h0a.5.5 0 01.5-.5h0a.5.5 0 01.5.5h0zM10 10a.5.5 0 01-.5.5h0A.5.5 0 019 10h0a.5.5 0 01.5-.5h0a.5.5 0 01.5.5h0zm-5.5 4.5a.5.5 0 01-.5.5h0a.5.5 0 01-.5-.5h0A.5.5 0 014 14h0a.5.5 0 01.5.5h0zm3 5a.5.5 0 01-.5.5h0a.5.5 0 01-.5-.5h0A.5.5 0 017 19h0a.5.5 0 01.5.5h0zm5 0a.5.5 0 01-.5.5h0a.5.5 0 01-.5-.5h0a.5.5 0 01.5-.5h0a.5.5 0 01.5.5h0zM14 17a.5.5 0 01-.5.5h0a.5.5 0 01-.5-.5h0a.5.5 0 01.5-.5h0a.5.5 0 01.5.5h0zm1.5-2.5a.5.5 0 01-.5.5h0a.5.5 0 01-.5-.5h0a.5.5 0 01.5-.5h0a.5.5 0 01.5.5h0z"/></g><path fill="none" d="M0 0h24v24H0z"/></svg>