<svg xmlns="http://www.w3.org/2000/svg" viewBox="0 0 24 24" width="24" height="24"><g fill="none" stroke="#000" stroke-linejoin="round" stroke-miterlimit="10"><path stroke-linecap="round" d="M14.5 9.5c0-.55-.45-1-1-1h-12c-.55 0-1 .45-1 1v12c0 .55.45 1 1 1h12c.55 0 1-.45 1-1v-12z"/><path stroke-linecap="round" d="M14.5 15.5h8c.55 0 1-.45 1-1v-12c0-.55-.45-1-1-1h-12c-.55 0-1 .45-1 1v6"/><path d="M14.5 5a.5.5 0 01-.5.5h0a.5.5 0 01-.5-.5h0a.5.5 0 01.5-.5h0a.5.5 0 01.5.5h0zm5 0a.5.5 0 01-.5.5h0a.5.5 0 01-.5-.5h0a.5.5 0 01.5-.5h0a.5.5 0 01.5.5h0zm0 7a.5.5 0 01-.5.5h0a.5.5 0 01-.5-.5h0a.5.5 0 01.5-.5h0a.5.5 0 01.5.5h0zm-8 1a.5.5 0 01-.5.5h0a.5.5 0 01-.5-.5h0a.5.5 0 01.5-.5h0a.5.5 0 01.5.5h0zm0 5a.5.5 0 01-.5.5h0a.5.5 0 01-.5-.5h0a.5.5 0 01.5-.5h0a.5.5 0 01.5.5h0zM8 18a.5.5 0 01-.5.5h0A.5.5 0 017 18h0a.5.5 0 01.5-.5h0a.5.5 0 01.5.5h0zm0-5a.5.5 0 01-.5.5h0A.5.5 0 017 13h0a.5.5 0 01.5-.5h0a.5.5 0 01.5.5h0zm-3.5 0a.5.5 0 01-.5.5h0a.5.5 0 01-.5-.5h0a.5.5 0 01.5-.5h0a.5.5 0 01.5.5h0zm0 5a.5.5 0 01-.5.5h0a.5.5 0 01-.5-.5h0a.5.5 0 01.5-.5h0a.5.5 0 01.5.5h0z"/></g><path fill="none" d="M0 0h24v24H0z"/></svg>