<svg id="Regular" xmlns="http://www.w3.org/2000/svg" viewBox="0 0 24 24" width="24" height="24"><defs><style>.cls-1{fill:none;stroke:#000;stroke-linecap:round;stroke-linejoin:round;stroke-width:1.5px}</style></defs><title>diet-waist</title><path class="cls-1" d="M5.25.75s1.5 1.5 1.5 6c0 5.25-4.5 6-4.5 12a6.57 6.57 0 0 0 1.5 4.5m15-22.5s-1.5 1.5-1.5 6c0 5.25 4.5 6 4.5 12a6.57 6.57 0 0 1-1.5 4.5M.75 3.75l2.47 2.47a.749.749 0 0 1 0 1.06L.75 9.75m22.5-6l-2.47 2.47a.749.749 0 0 0 0 1.06l2.47 2.47M12 23.25v-3M9.75 18L12 20.25 14.25 18"/></svg>