<svg id="Regular" xmlns="http://www.w3.org/2000/svg" viewBox="0 0 24 24" width="24" height="24"><defs><style>.cls-1{fill:none;stroke:#000;stroke-linecap:round;stroke-linejoin:round;stroke-width:1.5px}</style></defs><title>diet-scale</title><rect class="cls-1" x=".75" y=".75" width="22.5" height="22.5" rx="3" ry="3"/><path class="cls-1" d="M7.293 7.835a.748.748 0 0 0 .671.415h8.072a.748.748 0 0 0 .671-.415l.96-1.918a.751.751 0 0 0-.362-1.017A12.831 12.831 0 0 0 6.7 4.9a.751.751 0 0 0-.362 1.019zm3.207 5.29c0-1.036-1.175-1.875-2.625-1.875s-2.625.839-2.625 1.875v5.25a1.875 1.875 0 0 0 3.75 0v-.336a7.416 7.416 0 0 1 1.29-4.179 1.423 1.423 0 0 0 .21-.735zm3 0c0-1.036 1.175-1.875 2.625-1.875s2.625.839 2.625 1.875v5.25a1.875 1.875 0 0 1-3.75 0v-.336a7.416 7.416 0 0 0-1.29-4.179 1.423 1.423 0 0 1-.21-.735zM9.75 3.954V5.25m4.5-1.296V5.25"/></svg>