<svg id="Regular" xmlns="http://www.w3.org/2000/svg" viewBox="0 0 24 24" width="24" height="24"><defs><style>.cls-1{fill:none;stroke:#000;stroke-linecap:round;stroke-linejoin:round;stroke-width:1.5px}</style></defs><title>diet-waist-1</title><path class="cls-1" d="M5.25.75s1.5 1.5 1.5 6c0 5.25-4.5 6-4.5 12a6.57 6.57 0 0 0 1.5 4.5m15-22.5s-1.5 1.5-1.5 6c0 5.25 4.5 6 4.5 12a6.57 6.57 0 0 1-1.5 4.5M.75 3.75l2.47 2.47a.749.749 0 0 1 0 1.06L.75 9.75m22.5-6l-2.47 2.47a.749.749 0 0 0 0 1.06l2.47 2.47M12 23.25v-3"/><path class="cls-1" d="M21.094 15.194C17.279 16.144 12 20.25 12 20.25s-5.279-4.106-9.094-5.056zM12 10.125a.375.375 0 0 1 .375.375m-.75 0a.375.375 0 0 1 .375-.375m0 .75a.375.375 0 0 1-.375-.375m.75 0a.375.375 0 0 1-.375.375"/></svg>