<svg id="Regular" xmlns="http://www.w3.org/2000/svg" viewBox="0 0 24 24" width="24" height="24"><defs><style>.cls-1{fill:none;stroke:#000;stroke-linecap:round;stroke-linejoin:round;stroke-width:1.5px}</style></defs><title>diet-health</title><path class="cls-1" d="M17.25 15a.75.75 0 0 0-.75-.75h-2.25V12a.75.75 0 0 0-.75-.75h-3a.75.75 0 0 0-.75.75v2.25H7.5a.75.75 0 0 0-.75.75v3a.75.75 0 0 0 .75.75h2.25V21a.75.75 0 0 0 .75.75h3a.75.75 0 0 0 .75-.75v-2.25h2.25a.75.75 0 0 0 .75-.75zm3-14.25v22.5m3-22.5V7.5a3.009 3.009 0 0 1-3 3 3.009 3.009 0 0 1-3-3V.75M3.75 10.5v12.75m0-12.75a3.009 3.009 0 0 1-3-3V3.75a3.009 3.009 0 0 1 3-3 3.009 3.009 0 0 1 3 3V7.5a3.009 3.009 0 0 1-3 3z"/></svg>