<svg xmlns="http://www.w3.org/2000/svg" viewBox="0 0 24 24" width="24" height="24"><g fill="none" stroke="#000" stroke-linejoin="round" stroke-miterlimit="10"><path d="M22.111 19.171a2 2 0 01-1.973 2.329H3.86a2.002 2.002 0 01-1.973-2.329L2.5 15.5h19l.611 3.671zM5.5 3.5h13l4 9c-.486 1.46-.735 3-2.441 3H3.941c-1.709 0-1.96-1.555-2.441-3l4-9zm-4 9h21"/><path d="M4.5 17.5h6v2h-6z"/><circle cx="15.458" cy="18.5" r=".5"/><circle cx="18.458" cy="18.5" r=".5"/></g><path fill="none" d="M0 0h24v24H0z"/></svg>