<svg xmlns="http://www.w3.org/2000/svg" viewBox="0 0 24 24" width="24" height="24"><defs><style>.a{fill:none;stroke:#000;stroke-linecap:round;stroke-linejoin:round;stroke-width:1.5px}</style></defs><title>direction-button-3</title><path class="a" d="M13.5 23.248h-3a1.5 1.5 0 0 1-1.5-1.5v-4.19a.752.752 0 0 1 .219-.53l2.25-2.25a.75.75 0 0 1 1.061 0l2.25 2.25a.749.749 0 0 1 .22.53v4.19a1.5 1.5 0 0 1-1.5 1.5zm-3-22.5h3a1.5 1.5 0 0 1 1.5 1.5v4.189a.747.747 0 0 1-.22.53l-2.25 2.25a.75.75 0 0 1-1.061 0l-2.25-2.25A.75.75 0 0 1 9 6.437V2.248a1.5 1.5 0 0 1 1.5-1.5zM23.25 10.5v3a1.5 1.5 0 0 1-1.5 1.5h-4.189a.751.751 0 0 1-.531-.22l-2.25-2.25a.75.75 0 0 1 0-1.061l2.25-2.25A.754.754 0 0 1 17.561 9h4.189a1.5 1.5 0 0 1 1.5 1.5zM.75 14.248v-4.5A.75.75 0 0 1 1.5 9h4.939a.75.75 0 0 1 .53.219l2.25 2.25a.75.75 0 0 1 0 1.061l-2.25 2.25a.747.747 0 0 1-.53.22H1.5a.75.75 0 0 1-.75-.752z"/></svg>