<svg xmlns="http://www.w3.org/2000/svg" viewBox="0 0 24 24" width="24" height="24"><defs><style>.a{fill:none;stroke:#000;stroke-linecap:round;stroke-linejoin:round;stroke-width:1.5px}</style></defs><title>direction-button-2</title><circle class="a" cx="12" cy="11.998" r="3"/><path class="a" d="M1.026 11.369a.854.854 0 0 0 0 1.257l3.118 2.858A.66.66 0 0 0 5.25 15V9a.66.66 0 0 0-1.106-.486zm21.947 1.257a.852.852 0 0 0 0-1.257l-3.117-2.858A.66.66 0 0 0 18.75 9v6a.659.659 0 0 0 1.105.486zM11.372 22.971a.85.85 0 0 0 1.256 0l2.858-3.118A.659.659 0 0 0 15 18.748H9a.66.66 0 0 0-.487 1.105zm1.256-21.947a.852.852 0 0 0-1.256 0L8.514 4.142A.66.66 0 0 0 9 5.248h6a.66.66 0 0 0 .486-1.106z"/></svg>