<svg xmlns="http://www.w3.org/2000/svg" viewBox="0 0 24 24" width="24" height="24"><defs><style>.a{fill:none;stroke:#000;stroke-linecap:round;stroke-linejoin:round;stroke-width:1.5px}</style></defs><title>direction-button-1</title><path class="a" d="M21.75 6.748h-3a1.5 1.5 0 0 1-1.5-1.5v-3a1.5 1.5 0 0 0-1.5-1.5h-7.5a1.5 1.5 0 0 0-1.5 1.5v3a1.5 1.5 0 0 1-1.5 1.5h-3a1.5 1.5 0 0 0-1.5 1.5v7.5a1.5 1.5 0 0 0 1.5 1.5h3a1.5 1.5 0 0 1 1.5 1.5v3a1.5 1.5 0 0 0 1.5 1.5h7.5a1.5 1.5 0 0 0 1.5-1.5v-3a1.5 1.5 0 0 1 1.5-1.5h3a1.5 1.5 0 0 0 1.5-1.5v-7.5a1.5 1.5 0 0 0-1.5-1.5z"/><path class="a" d="M9.75 5.998L12 3.748l2.25 2.25m0 12L12 20.248l-2.25-2.25M6 14.248l-2.25-2.25L6 9.748m12 0l2.25 2.25-2.25 2.25"/></svg>