<svg xmlns="http://www.w3.org/2000/svg" viewBox="0 0 24 24" width="24" height="24"><defs><style>.a{fill:none;stroke:#000;stroke-linecap:round;stroke-linejoin:round;stroke-width:1.5px}</style></defs><title>disability-blind-read-paper</title><path class="a" d="M5.25 6.375a.375.375 0 1 1 .375.375.375.375 0 0 1-.375-.375m5.25 0a.375.375 0 1 1 .375.375.375.375 0 0 1-.375-.375m-5.25 4.5a.375.375 0 1 1 .375.375.375.375 0 0 1-.375-.375m0 4.5a.375.375 0 1 1 .375.375.375.375 0 0 1-.375-.375m5.25 0a.375.375 0 1 1 .375.375.375.375 0 0 1-.375-.375m0-4.5a.375.375 0 1 1 .375.375.375.375 0 0 1-.375-.375"/><path class="a" d="M9.75 20.25h-7.5a1.5 1.5 0 0 1-1.5-1.5V2.25a1.5 1.5 0 0 1 1.5-1.5h10.629a1.5 1.5 0 0 1 1.06.44l2.872 2.871a1.5 1.5 0 0 1 .439 1.061v7.628m-4.406 7.435a.559.559 0 0 1 0-.62A6.522 6.522 0 0 1 18 16.5a6.522 6.522 0 0 1 5.156 3.065.559.559 0 0 1 0 .62A6.522 6.522 0 0 1 18 23.25a6.522 6.522 0 0 1-5.156-3.065zm7.632-3.074l-4.952 5.528"/></svg>