<svg xmlns="http://www.w3.org/2000/svg" viewBox="0 0 24 24" width="24" height="24"><defs><style>.a{fill:none;stroke:#000;stroke-linecap:round;stroke-linejoin:round;stroke-width:1.5px}</style></defs><title>disability-heart-plus</title><circle class="a" cx="4.409" cy="4.46" r="2.625"/><path class="a" d="M10.428 21.574L9.9 18.335H7.081a3 3 0 0 1-2.911-2.273L2.954 11.2a1.5 1.5 0 1 1 2.91-.726l1.215 4.863H9.9a2.988 2.988 0 0 1 2.962 2.523l.528 3.24a1.5 1.5 0 0 1-2.962.478zm-9.019-.239h6M21.712 2.039a3 3 0 0 0-4.242 0L16.409 3.1l-1.061-1.061a3 3 0 0 0-4.242 4.243l4.773 4.773a.75.75 0 0 0 1.06 0l4.773-4.773a3 3 0 0 0 0-4.243zm-5.303 2.796v3m-1.5-1.5h3"/></svg>