<svg xmlns="http://www.w3.org/2000/svg" viewBox="0 0 24 24" width="24" height="24"><defs><style>.a{fill:none;stroke:#000;stroke-linecap:round;stroke-linejoin:round;stroke-width:1.5px}</style></defs><title>disability-lift</title><path class="a" d="M5.25 3L7.5.75 9.75 3M7.5.75v4.5M14.25 3l2.25 2.25L18.75 3M16.5 5.25V.75"/><rect class="a" x="4.5" y="8.25" width="15" height="15" rx="1" ry="1"/><circle class="a" cx="10.5" cy="12.75" r="1.5"/><path class="a" d="M12 18.75a2.25 2.25 0 1 1-1.5-2.128m0-2.372v3a1.5 1.5 0 0 0 1.5 1.5h1.5a.75.75 0 0 1 .75.75v.75h1.5m-5.25-4.5h3"/></svg>