<svg xmlns="http://www.w3.org/2000/svg" viewBox="0 0 24 24" width="24" height="24"><defs><style>.a{fill:none;stroke:#000;stroke-linecap:round;stroke-linejoin:round;stroke-width:1.5px}</style></defs><title>disability-walk-blind</title><circle class="a" cx="9" cy="3.375" r="2.625"/><path class="a" d="M18.026 12.749c-.2-.236-3.895-4.5-9.026-4.5a18.03 18.03 0 0 0-5 .659A4.519 4.519 0 0 0 .75 13.23V15a1.5 1.5 0 1 0 3 0v-1.77a1.5 1.5 0 0 1 1.084-1.439c.375-.109.764-.2 1.166-.277V16.5l-2.771 4.455a1.5 1.5 0 1 0 2.542 1.591L9 17.38l3.229 5.166a1.5 1.5 0 1 0 2.542-1.591L12 16.5v-4.4a10.9 10.9 0 0 1 3.75 2.6 1.5 1.5 0 0 0 2.276-1.953zm-.161 2.113l5.385 8.388"/></svg>