<svg xmlns="http://www.w3.org/2000/svg" viewBox="0 0 24 24" width="24" height="24"><defs><style>.a{fill:none;stroke:#000;stroke-linecap:round;stroke-linejoin:round;stroke-width:1.5px}</style></defs><title>disability-braille</title><path class="a" d="M12 23.25v-5.625M4.125 23.25v-5.625m0 0h.844a1.407 1.407 0 0 1 0 2.813h-.844m2.25 2.812l-1.687-2.812M.75 23.25v-5.625m0 0h1.125A1.125 1.125 0 0 1 3 18.75v.563a1.125 1.125 0 0 1-1.125 1.125H.75m0 0h1.125A1.125 1.125 0 0 1 3 21.563v.562a1.125 1.125 0 0 1-1.125 1.125H.75m13.5-5.625v4.5a1.125 1.125 0 0 0 1.125 1.125H16.5m1.125-5.625v4.5a1.125 1.125 0 0 0 1.125 1.125h1.125m-12.375 0v-4.5a1.125 1.125 0 0 1 2.25 0v4.5M7.5 21h2.25m13.5 2.25h-1.125A1.125 1.125 0 0 1 21 22.125V18.75a1.125 1.125 0 0 1 1.125-1.125h1.125M21 21h2.25"/><circle class="a" cx="2.25" cy="2.25" r="1.5"/><circle class="a" cx="8.25" cy="2.25" r="1.5"/><circle class="a" cx="8.25" cy="7.5" r="1.5"/><circle class="a" cx="21.75" cy="2.25" r="1.5"/><circle class="a" cx="21.75" cy="7.5" r="1.5"/><circle class="a" cx="15.75" cy="2.25" r="1.5"/><circle class="a" cx="15.75" cy="7.5" r="1.5"/><circle class="a" cx="15.75" cy="12.75" r="1.5"/><circle class="a" cx="2.25" cy="12.75" r="1.5"/></svg>