<svg xmlns="http://www.w3.org/2000/svg" viewBox="0 0 24 24" width="24" height="24"><defs><style>.a{fill:none;stroke:#000;stroke-linecap:round;stroke-linejoin:round;stroke-width:1.5px}</style></defs><title>disability-sit-cane</title><circle class="a" cx="6" cy="4.123" r="2.625"/><path class="a" d="M3 20.998h6M8.67 15h2.83a2.987 2.987 0 0 1 2.962 2.522l.523 3.239a1.5 1.5 0 0 1-2.962.478L11.5 18H8.672a3 3 0 0 1-2.911-2.274l-1.216-4.865a1.5 1.5 0 0 1 1.091-1.818A1.528 1.528 0 0 1 6 9h7.5a1.5 1.5 0 0 1 0 3H7.92zM18 11.248a1.5 1.5 0 1 1 3 0V22.5"/></svg>