<svg xmlns="http://www.w3.org/2000/svg" viewBox="0 0 24 24" width="24" height="24"><defs><style>.a{fill:none;stroke:#000;stroke-linecap:round;stroke-linejoin:round;stroke-width:1.5px}</style></defs><title>disability-hearing-t</title><path class="a" d="M7.092 21.4a4.2 4.2 0 0 0 7.683-2.349 4.251 4.251 0 0 1 1.492-3.234A6 6 0 1 0 7.178 8.25M18.375.75a4.5 4.5 0 0 1 4.5 4.5m-5.25-1.5A2.25 2.25 0 0 1 19.875 6M9.829 9.6a3 3 0 0 1 4.8 2.4m-5.254 6l-3-3m-2.25 8.25l-3-3m3.75-1.5l.75.75m4.125-5.625l.75.75m10.875 8.625v-4.5m-1.5 0h3"/></svg>