<svg xmlns="http://www.w3.org/2000/svg" viewBox="0 0 24 24" width="24" height="24"><defs><style>.a{fill:none;stroke:#000;stroke-linecap:round;stroke-linejoin:round;stroke-width:1.5px}</style></defs><title>disability-blind-read</title><path class="a" d="M3.75 15.387a.375.375 0 1 1 .375.375.375.375 0 0 1-.375-.375m0-4.5a.375.375 0 1 1 .375.375.375.375 0 0 1-.375-.375m0-4.5a.375.375 0 1 1 .375.375.375.375 0 0 1-.375-.375m4.5 3a.375.375 0 1 1 .375.375.375.375 0 0 1-.375-.375m0 3.75a.375.375 0 1 1 .375.375.375.375 0 0 1-.375-.375m6.75 2.25a.375.375 0 1 1 .375.375.375.375 0 0 1-.375-.375m0-3.75a.375.375 0 1 1 .375.375.375.375 0 0 1-.375-.375m3.75 3a.375.375 0 1 1 .375.375.375.375 0 0 1-.375-.375"/><path class="a" d="M12 23.238c-.528-1.662-3.943-3.574-9.843-3.842A1.5 1.5 0 0 1 .75 17.889V4.538a1.5 1.5 0 0 1 1.607-1.5 18.125 18.125 0 0 1 7.285 1.681M12 23.238c.528-1.662 3.943-3.574 9.843-3.842a1.5 1.5 0 0 0 1.407-1.507V9.013M12 9.012v14.226m.844-18.791a.559.559 0 0 1 0-.62A6.522 6.522 0 0 1 18 .762a6.522 6.522 0 0 1 5.156 3.065.559.559 0 0 1 0 .62A6.522 6.522 0 0 1 18 7.512a6.522 6.522 0 0 1-5.156-3.065zm7.632-3.074l-4.952 5.528"/></svg>