<svg xmlns="http://www.w3.org/2000/svg" viewBox="0 0 24 24" width="24" height="24"><defs><style>.a{fill:none;stroke:#000;stroke-linecap:round;stroke-linejoin:round;stroke-width:1.5px}</style></defs><title>disability-sit-pregnancy</title><circle class="a" cx="9" cy="4.123" r="2.625"/><path class="a" d="M4.5 11.248l1.713 7.424A3 3 0 0 0 9.137 21h3.613"/><path class="a" d="M19.5 18a7.537 7.537 0 0 0-7.5-6.75h-1.267l-.278-1.113a1.5 1.5 0 1 0-2.91.726l1.216 4.863A3 3 0 0 0 11.672 18H14.5l.523 3.239a1.519 1.519 0 0 0 1.72 1.242 1.5 1.5 0 0 0 1.242-1.72L17.535 18z"/></svg>