<svg xmlns="http://www.w3.org/2000/svg" viewBox="0 0 24 24" width="24" height="24"><defs><style>.a{fill:none;stroke:#000;stroke-linecap:round;stroke-linejoin:round;stroke-width:1.5px}</style></defs><title>disability-sit-walking-aid</title><circle class="a" cx="5.25" cy="4.123" r="2.625"/><path class="a" d="M2.25 20.998h6M7.92 15h2.826a2.987 2.987 0 0 1 2.962 2.522l.523 3.239a1.5 1.5 0 0 1-2.962.478L10.746 18H7.922a3 3 0 0 1-2.911-2.274L3.8 10.861a1.5 1.5 0 0 1 1.086-1.818A1.528 1.528 0 0 1 5.25 9h7.5a1.5 1.5 0 0 1 0 3H7.17zm7.83-7.502h6m-1.5.002V15a1.5 1.5 0 0 1-3 0V7.5m1.5 8.998v6m-.75 0h1.5"/></svg>