<svg xmlns="http://www.w3.org/2000/svg" viewBox="0 0 24 24" width="24" height="24"><defs><style>.a{fill:none;stroke:#000;stroke-linecap:round;stroke-linejoin:round;stroke-width:1.5px}</style></defs><title>disability-blind-read-book</title><path class="a" d="M5.25 6.375A.375.375 0 1 1 4.875 6a.375.375 0 0 1 .375.375m4.5 0A.375.375 0 1 1 9.375 6a.375.375 0 0 1 .375.375m-4.559 3.952a.375.375 0 1 1-.114-.517.374.374 0 0 1 .114.517m0 3.75a.375.375 0 1 1-.114-.517.374.374 0 0 1 .114.517m4.5 0a.375.375 0 1 1-.114-.518.374.374 0 0 1 .114.518m4.386-.518a.375.375 0 1 1-.518.114.374.374 0 0 1 .518-.114m-4.386-3.232a.375.375 0 1 1-.114-.517.374.374 0 0 1 .114.517"/><path class="a" d="M9.75.75H2.707A1.957 1.957 0 0 0 .75 2.707V21m18-2.25V10.5"/><path class="a" d="M18.75 18.75H3A2.25 2.25 0 0 0 .75 21 2.25 2.25 0 0 0 3 23.25h14.25v-4.5M12.844 4.435a.559.559 0 0 1 0-.62A6.522 6.522 0 0 1 18 .75a6.522 6.522 0 0 1 5.156 3.065.559.559 0 0 1 0 .62A6.522 6.522 0 0 1 18 7.5a6.522 6.522 0 0 1-5.156-3.065zm7.632-3.074l-4.952 5.528"/></svg>