<svg xmlns="http://www.w3.org/2000/svg" viewBox="0 0 24 24" width="24" height="24"><defs><style>.a{fill:none;stroke:#000;stroke-linecap:round;stroke-linejoin:round;stroke-width:1.5px}</style></defs><title>disability-partially-blind</title><path class="a" d="M.949 12.841a1.057 1.057 0 0 1 0-1.234C2.145 9.94 5.918 5.474 12 5.474s9.855 4.466 11.051 6.133a1.057 1.057 0 0 1 0 1.234c-1.2 1.667-4.969 6.133-11.051 6.133S2.145 14.508.949 12.841z"/><path class="a" d="M10.462 9.1a3.348 3.348 0 0 1 1.821-.538 3.541 3.541 0 0 1 3.467 3.612 3.625 3.625 0 0 1-1.943 3.244M7.514 3.527l8.972 16.947M6.024 7.042L12 18.974M3.075 9.2l4.551 8.957"/></svg>