<svg xmlns="http://www.w3.org/2000/svg" viewBox="0 0 24 24" width="24" height="24"><defs><style>.a{fill:none;stroke:#000;stroke-linecap:round;stroke-linejoin:round;stroke-width:1.5px}</style></defs><title>disability-blind</title><path class="a" d="M.949 12.617a1.057 1.057 0 0 1 0-1.234C2.145 9.717 5.918 5.25 12 5.25s9.855 4.467 11.051 6.133a1.057 1.057 0 0 1 0 1.234C21.855 14.284 18.082 18.75 12 18.75S2.145 14.284.949 12.617zm16.358-6.145L6.693 17.528M15.75 12A3.75 3.75 0 0 1 12 15.75M8.25 12A3.75 3.75 0 0 1 12 8.25"/></svg>