<svg xmlns="http://www.w3.org/2000/svg" viewBox="0 0 24 24" width="24" height="24"><defs><style>.a{fill:none;stroke:#000;stroke-linecap:round;stroke-linejoin:round;stroke-width:1.5px}</style></defs><title>disability-information</title><circle class="a" cx="18" cy="6" r="5.25"/><path class="a" d="M18 8.625V6m0-2.619a.375.375 0 1 0 .375.375.375.375 0 0 0-.375-.375"/><circle class="a" cx="7.125" cy="3.375" r="2.625"/><path class="a" d="M11.359 21.092a6 6 0 0 1-9.218-7.683M16.1 21.211l-2.85-3.42a1.493 1.493 0 0 0-1.15-.541H6.75a1.5 1.5 0 0 1-1.5-1.5v-6a1.5 1.5 0 0 1 1.5-1.5h3.809a1.5 1.5 0 0 1 0 3H8.25v3h3.85a4.489 4.489 0 0 1 3.457 1.62l2.843 3.419a1.5 1.5 0 0 1-2.3 1.922z"/></svg>