<svg xmlns="http://www.w3.org/2000/svg" viewBox="0 0 24 24" width="24" height="24"><defs><style>.a{fill:none;stroke:#000;stroke-linecap:round;stroke-linejoin:round;stroke-width:1.5px}</style></defs><title>disability-walking-aid</title><circle class="a" cx="14.25" cy="3.375" r="2.625"/><path class="a" d="M14.25 16.5v5.25m3-6.75v-3m-8.939-.74A4.5 4.5 0 0 1 12.75 7.5h3a4.5 4.5 0 0 1 4.5 4.5v3a1.5 1.5 0 0 1-3 0v6.75a1.5 1.5 0 0 1-3 0 1.5 1.5 0 0 1-3 0v-4.5m-7.5-3h6m-1.5 0V18a1.5 1.5 0 0 1-3 0v-3.75m1.5 5.25v3.75m-.75 0h1.5"/></svg>