<svg xmlns="http://www.w3.org/2000/svg" viewBox="0 0 24 24" width="24" height="24"><defs><style>.a{fill:none;stroke:#000;stroke-linecap:round;stroke-linejoin:round;stroke-width:1.5px}</style></defs><title>disability-blind-read-finger</title><path class="a" d="M8.817 18.418a19.96 19.96 0 0 0-6.66-1.307A1.5 1.5 0 0 1 .75 15.6V2.253a1.5 1.5 0 0 1 1.607-1.5c6.3.329 9.624 2.574 9.643 4.3M23.25 16.5V2.253a1.5 1.5 0 0 0-1.607-1.5c-6.3.329-9.624 2.574-9.643 4.3m0-.002v3.902"/><path class="a" d="M3.75 13.1a.375.375 0 1 1 .375.375.375.375 0 0 1-.375-.375m0-4.5a.375.375 0 1 1 .375.375.375.375 0 0 1-.375-.375m0-4.5a.375.375 0 1 1 .375.375.375.375 0 0 1-.375-.375m4.5 3a.375.375 0 1 1 .375.375.375.375 0 0 1-.375-.375m0 4.525a.375.375 0 1 1 .375.375.375.375 0 0 1-.375-.375m11.25-.75a.375.375 0 1 1 .375.375.375.375 0 0 1-.375-.375M15 7.125a.375.375 0 1 1 .375.375.375.375 0 0 1-.375-.375m4.5-.75a.375.375 0 1 1 .375.375.375.375 0 0 1-.375-.375m3.636 16.875l.1-1.122a3 3 0 0 0-2.337-3.2l-3.651-.811v-5.742a1.875 1.875 0 0 0-3.75 0v9.2l-1.477-1.108a1.533 1.533 0 0 0-2.146 2.146l.474.632"/></svg>