<svg xmlns="http://www.w3.org/2000/svg" viewBox="0 0 24 24" width="24" height="24"><defs><style>.a{fill:none;stroke:#000;stroke-linecap:round;stroke-linejoin:round;stroke-width:1.5px}</style></defs><title>discount-70-alternate</title><path class="a" d="M7.832 5.25H9.75a.75.75 0 0 1 .7 1.013L8.582 11.25m7.918-1.5a1.5 1.5 0 0 1-3 0v-3a1.5 1.5 0 0 1 3 0zm-6.375 4.5a.375.375 0 1 1-.375.375.375.375 0 0 1 .375-.375m3.75 3.75a.375.375 0 1 1-.375.375.375.375 0 0 1 .375-.375m-4.125.75l4.5-4.5"/><rect class="a" x=".75" y=".75" width="22.5" height="22.5" rx="1" ry="1"/></svg>