<svg xmlns="http://www.w3.org/2000/svg" viewBox="0 0 24 24" width="24" height="24"><defs><style>.a{fill:none;stroke:#000;stroke-linecap:round;stroke-linejoin:round;stroke-width:1.5px}</style></defs><title>discount-50</title><path class="a" d="M23.25 12a3.751 3.751 0 0 0-2.618-3.576 3.751 3.751 0 0 0-5.057-5.057 3.751 3.751 0 0 0-7.151 0 3.751 3.751 0 0 0-5.057 5.057 3.751 3.751 0 0 0 0 7.151 3.751 3.751 0 0 0 5.057 5.057 3.751 3.751 0 0 0 7.151 0 3.751 3.751 0 0 0 5.057-5.057A3.751 3.751 0 0 0 23.25 12z"/><path class="a" d="M10.5 6h-3v2.25a.75.75 0 0 0 .75.75H9a1.5 1.5 0 0 1 0 3H7.5m9-1.5a1.5 1.5 0 0 1-3 0v-3a1.5 1.5 0 0 1 3 0zm-6.375 3.75a.375.375 0 1 1-.375.375.375.375 0 0 1 .375-.375m3.75 3.75a.375.375 0 1 1-.375.375.375.375 0 0 1 .375-.375m-4.125.75l4.5-4.5"/></svg>