<svg xmlns="http://www.w3.org/2000/svg" viewBox="0 0 24 24" width="24" height="24"><defs><style>.a{fill:none;stroke:#000;stroke-linecap:round;stroke-linejoin:round;stroke-width:1.5px}</style></defs><title>discount-70</title><path class="a" d="M23.25 12a3.751 3.751 0 0 0-2.618-3.576 3.751 3.751 0 0 0-5.057-5.057 3.751 3.751 0 0 0-7.151 0 3.751 3.751 0 0 0-5.057 5.057 3.752 3.752 0 0 0 0 7.152 3.751 3.751 0 0 0 5.057 5.056 3.751 3.751 0 0 0 7.151 0 3.751 3.751 0 0 0 5.057-5.056A3.753 3.753 0 0 0 23.25 12z"/><path class="a" d="M7.832 6H9.75a.75.75 0 0 1 .7 1.013L8.582 12m7.918-1.5a1.5 1.5 0 0 1-3 0v-3a1.5 1.5 0 0 1 3 0zm-6.375 3.75a.375.375 0 1 1-.375.375.375.375 0 0 1 .375-.375m3.75 3.75a.375.375 0 1 1-.375.375.375.375 0 0 1 .375-.375m-4.125.75l4.5-4.5"/></svg>