<svg xmlns="http://www.w3.org/2000/svg" viewBox="0 0 24 24" width="24" height="24"><g fill="none" stroke="#000" stroke-linejoin="round" stroke-miterlimit="10"><circle cx="11.5" cy="12.491" r="7.5"/><path stroke-linecap="round" d="M18.759 13.702c-1.271 1.533-4.044 2.596-7.259 2.596-3.21 0-5.979-1.061-7.253-2.59m-.076-2.367C5.408 9.762 8.224 8.657 11.5 8.657c3.209 0 5.978 1.061 7.252 2.59"/><path stroke-linecap="round" d="M10.298 19.704c-1.533-1.271-2.597-4.043-2.597-7.258 0-3.211 1.061-5.979 2.59-7.254m2.478.056c1.495 1.297 2.525 4.032 2.525 7.198 0 3.209-1.06 5.977-2.588 7.252"/><path d="M11.5 5V0"/><path stroke-linecap="round" d="M17.705 2.958l-1.137 1.646m5.795 6.336l-1.991.194M18.61 21.272l-1.311-1.509M4.235 21.239l1.31-1.511m-5.018-8.84l1.992.191m3.009-8.342l1.083 1.682"/><path d="M11.5 20V5M4 12.5h15"/></g><path fill="none" d="M0 0h24v24H0z"/></svg>