<svg xmlns="http://www.w3.org/2000/svg" viewBox="0 0 24 24" width="24" height="24"><defs><style>.a{fill:none;stroke:#000;stroke-linecap:round;stroke-linejoin:round;stroke-width:1.5px}</style></defs><title>discount-square</title><path class="a" d="M6.75 17.25l10.5-10.5"/><circle class="a" cx="8.25" cy="8.25" r="1.5"/><circle class="a" cx="15.75" cy="15.75" r="1.5"/><path class="a" d="M.75 3.75v-1.5a1.5 1.5 0 0 1 1.5-1.5h1.5m0 22.5h-1.5a1.5 1.5 0 0 1-1.5-1.5v-1.5m0-12.75v3m0 3v3m22.5-9v3M7.5.75h3m12.75 19.5v1.5a1.5 1.5 0 0 1-1.5 1.5h-1.5m3-6.75v-3m-6.75 9.75h-3m0-22.5h3m3.75 0h1.5a1.5 1.5 0 0 1 1.5 1.5v1.5M10.5 23.25h-3"/></svg>