<svg xmlns="http://www.w3.org/2000/svg" viewBox="0 0 24 24" width="24" height="24"><defs><style>.a{fill:none;stroke:#000;stroke-linecap:round;stroke-linejoin:round;stroke-width:1.5px}</style></defs><title>discount-star-premium</title><circle class="a" cx="12" cy="12" r="11.25"/><path class="a" d="M12.718 6.43l1.542 3.323h3a.735.735 0 0 1 .518 1.283l-2.6 2.562 1.443 3.314a.786.786 0 0 1-1.119.982l-3.487-1.961-3.491 1.961a.786.786 0 0 1-1.119-.982L8.848 13.6l-2.6-2.562a.734.734 0 0 1 .512-1.285h3L11.3 6.43a.8.8 0 0 1 1.418 0z"/></svg>