<svg xmlns="http://www.w3.org/2000/svg" viewBox="0 0 24 24" width="24" height="24"><defs><style>.a{fill:none;stroke:#000;stroke-linecap:round;stroke-linejoin:round;stroke-width:1.5px}</style></defs><title>discount-coupon</title><path class="a" d="M23.25 15v3a1.5 1.5 0 0 1-1.5 1.5H2.25A1.5 1.5 0 0 1 .75 18v-3a3 3 0 0 0 0-6V6a1.5 1.5 0 0 1 1.5-1.5h19.5a1.5 1.5 0 0 1 1.5 1.5v3a3 3 0 0 0 0 6z"/><circle class="a" cx="8.25" cy="9" r="1.5"/><circle class="a" cx="16.5" cy="15" r="1.5"/><path class="a" d="M15.75 8.25l-7.5 7.5"/></svg>