<svg xmlns="http://www.w3.org/2000/svg" viewBox="0 0 24 24" width="24" height="24"><circle fill="none" stroke="#000" stroke-linecap="round" stroke-linejoin="round" stroke-miterlimit="10" cx="11.74" cy="16" r="7.5"/><circle fill="none" stroke="#000" stroke-linecap="round" stroke-linejoin="round" stroke-miterlimit="10" cx="11.74" cy="16" r="1.974"/><path fill="none" stroke="#000" stroke-linejoin="round" stroke-miterlimit="10" d="M11.74 15.5a.5.5 0 100 1 .5.5 0 000-1h0z"/><path fill="none" stroke="#000" stroke-linecap="round" stroke-linejoin="round" stroke-miterlimit="10" d="M11.74 11.658A4.342 4.342 0 0116.082 16m-4.342 4.342A4.341 4.341 0 017.398 16"/><path fill="none" stroke="#000" stroke-linecap="round" stroke-linejoin="round" stroke-miterlimit="10" d="M18.427 12.479c3.313-2.479.313-7.473.313-7.473S16.74 7 15.727 7c.013-4-2.987-2-1.988-6.467-4.197.701-5.964 2.58-4.999 6.479C6.74 7 4.74 5 4.74 5s-3 4 .333 7.354"/><path fill="none" d="M0 0h24v24H0z"/></svg>