<svg xmlns="http://www.w3.org/2000/svg" viewBox="0 0 24 24" width="24" height="24"><path fill="none" stroke="#000" stroke-linecap="round" stroke-linejoin="round" stroke-miterlimit="10" d="M.5.5h23v23H.5z"/><circle fill="none" stroke="#000" stroke-linecap="round" stroke-linejoin="round" stroke-miterlimit="10" cx="12" cy="12" r="9.5"/><circle fill="none" stroke="#000" stroke-linecap="round" stroke-linejoin="round" stroke-miterlimit="10" cx="12" cy="12" r="2.5"/><path fill="none" stroke="#000" stroke-linejoin="round" stroke-miterlimit="10" d="M12.5 12a.5.5 0 01-.5.5h0a.5.5 0 01-.5-.5h0a.5.5 0 01.5-.5h0a.5.5 0 01.5.5h0z"/><path fill="none" stroke="#000" stroke-linecap="round" stroke-linejoin="round" stroke-miterlimit="10" d="M12 6.5a5.5 5.5 0 015.5 5.5m-5.054 4.475a5.5 5.5 0 01-5.5-5.5M12 4.5a7.5 7.5 0 017.5 7.5m-7.054 6.475a7.499 7.499 0 01-7.5-7.5"/><path fill="none" d="M0 0h24v24H0z"/></svg>