<svg id="Regular" xmlns="http://www.w3.org/2000/svg" viewBox="0 0 24 24" width="24" height="24"><defs><style>.cls-1{fill:none;stroke:#000;stroke-linecap:round;stroke-linejoin:round;stroke-width:1.5px}</style></defs><title>diving-mask-fish</title><path class="cls-1" d="M3.75 6.75h-1.5a1.5 1.5 0 0 1-1.5-1.5v-1.5a3 3 0 0 1 3-3h3v3a3 3 0 0 1-3 3zm7.5 0h-1.5a3 3 0 0 1-3-3v-3h3a3 3 0 0 1 3 3v1.5a1.5 1.5 0 0 1-1.5 1.5z"/><circle class="cls-1" cx="6.75" cy="12" r="2.25"/><path class="cls-1" d="M9 12h3.75a3 3 0 0 0 3-3V6m0-5.25V3m7.5 20.25s-6.652-6.582-9.4-6.582a6.638 6.638 0 0 0-5.6 2.821 6.638 6.638 0 0 0 5.6 2.821c2.751 0 9.4-6.583 9.4-6.583zM4.5 12H3"/></svg>