<svg id="Regular" xmlns="http://www.w3.org/2000/svg" viewBox="0 0 24 24" width="24" height="24"><defs><style>.cls-1{fill:none;stroke:#000;stroke-linecap:round;stroke-linejoin:round;stroke-width:1.5px}</style></defs><title>diving-mask</title><path class="cls-1" d="M7.5 15H6a3 3 0 0 1-3-3 4.5 4.5 0 0 1 4.5-4.5h3V12a3 3 0 0 1-3 3zm7.5 0h-1.5a3 3 0 0 1-3-3V7.5h3A4.5 4.5 0 0 1 18 12a3 3 0 0 1-3 3z"/><circle class="cls-1" cx="10.5" cy="20.25" r="3"/><path class="cls-1" d="M13.5 20.25H18a4.5 4.5 0 0 0 4.5-4.5V5.25m0-4.5v1.5M18 12h1.5M3 12H1.5"/></svg>