<svg id="Regular" xmlns="http://www.w3.org/2000/svg" viewBox="0 0 24 24" width="24" height="24"><defs><style>.cls-1{fill:none;stroke:#000;stroke-linecap:round;stroke-linejoin:round;stroke-width:1.5px}</style></defs><title>diving-oxygen</title><path class="cls-1" d="M3.75 6.75h-1.5a1.5 1.5 0 0 1-1.5-1.5v-1.5a3 3 0 0 1 3-3h3v3a3 3 0 0 1-3 3zm7.5 0h-1.5a3 3 0 0 1-3-3v-3h3a3 3 0 0 1 3 3v1.5a1.5 1.5 0 0 1-1.5 1.5z"/><circle class="cls-1" cx="6.75" cy="10.5" r="2.25"/><path class="cls-1" d="M15.75 12.75h7.5v7.5h-7.5zm-9 0v7.5a3 3 0 0 0 3 3h3m4.5-15.75v-3a.75.75 0 0 1 .75-.75h3a.75.75 0 0 1 .75.75v3"/><path class="cls-1" d="M15.75 10.5a3.75 3.75 0 0 1 7.5 0v11.25a1.5 1.5 0 0 1-1.5 1.5h-4.5a1.5 1.5 0 0 1-1.5-1.5z"/></svg>