<svg id="Regular" xmlns="http://www.w3.org/2000/svg" viewBox="0 0 24 24" width="24" height="24"><defs><style>.cls-1{fill:none;stroke:#000;stroke-linecap:round;stroke-linejoin:round;stroke-width:1.5px}</style></defs><title>diving-boat</title><path class="cls-1" d="M3.75.75h16.5m-16.5 3h12m-2.99 13.101L9.648 8.406m-1.777 3.852l5.63-2.074m7.068 8.566a13.909 13.909 0 0 0 .665-3.913.756.756 0 0 0-1.017-.733L7.606 18.75M.75 23.25a4.666 4.666 0 0 0 3.75-1.9 4.649 4.649 0 0 0 7.5 0 4.649 4.649 0 0 0 7.5 0 4.666 4.666 0 0 0 3.75 1.9"/></svg>