<svg id="Regular" xmlns="http://www.w3.org/2000/svg" viewBox="0 0 24 24" width="24" height="24"><defs><style>.cls-1{fill:none;stroke:#000;stroke-linecap:round;stroke-linejoin:round;stroke-width:1.5px}</style></defs><title>diving-oxygen-tank</title><path class="cls-1" d="M7.5 13.125a3.376 3.376 0 0 0-3.723-3.358 3.508 3.508 0 0 0-3.027 3.55V22.5a.75.75 0 0 0 .75.75h5.25a.75.75 0 0 0 .75-.75zm9.75 0a3.376 3.376 0 0 0-3.723-3.358 3.508 3.508 0 0 0-3.027 3.55V22.5a.75.75 0 0 0 .75.75h5.25a.75.75 0 0 0 .75-.75zM.75 14.25H7.5M.75 19.5H7.5m3-5.25h6.75M10.5 19.5h6.75"/><circle class="cls-1" cx="9" cy="3.75" r="3"/><path class="cls-1" d="M12 3.75h5.25a4.5 4.5 0 0 1 4.5 4.5V15"/><circle class="cls-1" cx="21.75" cy="16.5" r="1.5"/><path class="cls-1" d="M21.75 18v2.25"/></svg>