<svg id="Regular" xmlns="http://www.w3.org/2000/svg" viewBox="0 0 24 24" width="24" height="24"><defs><style>.cls-1{fill:none;stroke:#000;stroke-linecap:round;stroke-linejoin:round;stroke-width:1.5px}</style></defs><title>diving-fins</title><path class="cls-1" d="M9.688 4.5a3.75 3.75 0 0 0-7.5 0L.752 22.44a.751.751 0 0 0 .748.81h8.875a.75.75 0 0 0 .748-.81zm-5.25 15.75V15m3 5.25V15m6.874 4.5a3.75 3.75 0 1 0 7.5 0l1.436-17.94A.75.75 0 0 0 22.5.75h-8.875a.75.75 0 0 0-.748.81zm5.25-15.75V9m-3-5.25V9"/><path class="cls-1" d="M1.967 7.262l.158.238s1.5 2.25 3.75 2.25 3.75-2.25 3.75-2.25l.275-.4m12.12 9.805l-.27-.405s-1.5-2.25-3.75-2.25-3.75 2.25-3.75 2.25l-.159.238"/></svg>