<svg id="Regular" xmlns="http://www.w3.org/2000/svg" viewBox="0 0 24 24" width="24" height="24"><defs><style>.cls-1{fill:none;stroke:#000;stroke-linecap:round;stroke-linejoin:round;stroke-width:1.5px}</style></defs><title>diving-gun</title><path class="cls-1" d="M2.631 16.306h1.716a1 1 0 0 1 1 1v4.2H2.631a1 1 0 0 1-1-1v-3.2a1 1 0 0 1 1-1z" transform="rotate(-45 3.49 18.907)"/><path class="cls-1" d="M11.169 14.905l-4.527 4.527-2.628-2.627L12.422 8.4a5.911 5.911 0 0 1-1.253 6.505z"/><path class="cls-1" d="M12.889 10.367L23.246.75H19.53M22.2 1.8L22 5.158c-.188 3.187-3.557 5.5-6.741 5.713l-2.364.153M9.4 20.609a1.486 1.486 0 0 1-.315 1.637l-.363.363a1.487 1.487 0 0 1-2.422-.465l-.711-1.661 2.627-2.627zm.706-4.641l1.25 1.875"/></svg>