<svg xmlns="http://www.w3.org/2000/svg" viewBox="0 0 24 24" width="24" height="24"><g fill="none" stroke="#000" stroke-linejoin="round" stroke-miterlimit="10"><circle cx="12" cy="7" r="2.5"/><path d="M2.5 16.5h19l2 7H.5z"/><ellipse cx="7.01" cy="20" rx="2.5" ry="1.5"/><ellipse cx="17" cy="20" rx="2.5" ry="1.5"/><path d="M7.5 4.521c0-2.021 1.738-4 4.5-4 2.761 0 4.5 1.979 4.5 4m0-.021h1a2 2 0 010 4h-1v-4zm-9 0H6.459c-1.082 0-1.959.896-1.959 2s.877 2 1.959 2H7.5v-4zm0 10.5a3.5 3.5 0 013.5-3.5h2a3.5 3.5 0 013.5 3.5v1.5h-9V15z"/></g><path fill="none" d="M0 0h24v24H0z"/></svg>