<svg xmlns="http://www.w3.org/2000/svg" viewBox="0 0 24 24" width="24" height="24"><defs><style>.a{fill:none;stroke:#000;stroke-linecap:round;stroke-linejoin:round;stroke-width:1.5px}</style></defs><title>dna</title><path class="a" d="M7.5 8.25H3L.75 4.5 3 .75h4.5L9.75 4.5 7.5 8.25zm13.5 0h-4.5L14.25 4.5 16.5.75H21l2.25 3.75L21 8.25z"/><path class="a" d="M14.25 12h-4.5L7.5 8.25 9.75 4.5h4.5l2.25 3.75L14.25 12z"/><path class="a" d="M7.5 15.75H3L.75 12 3 8.25h4.5L9.75 12 7.5 15.75zm13.5 0h-4.5L14.25 12l2.25-3.75H21L23.25 12 21 15.75z"/><path class="a" d="M14.25 19.5h-4.5L7.5 15.75 9.75 12h4.5l2.25 3.75-2.25 3.75z"/><path class="a" d="M7.5 23.25H3L.75 19.5 3 15.75h4.5l2.25 3.75-2.25 3.75zm13.5 0h-4.5l-2.25-3.75 2.25-3.75H21l2.25 3.75L21 23.25z"/></svg>