<svg xmlns="http://www.w3.org/2000/svg" viewBox="0 0 24 24" width="24" height="24"><path fill="none" stroke="#000" stroke-linecap="round" stroke-linejoin="round" stroke-miterlimit="10" d="M9 9.502c0-.553.448-.5 1-.5s1-.053 1 .5m2 0c0-.553.448-.5 1-.5s1-.053 1 .5M9.445 15.5C5.148 16.228.5 16.078.5 20.245V23.5h23v-3.255c0-4.168-4.476-3.991-8.93-4.745"/><path fill="none" stroke="#000" stroke-linecap="round" stroke-linejoin="round" stroke-miterlimit="10" d="M12 16.5c1.5 0 5-2 5-5 1.5 0 1.5-3 0-3L16.504 6c-4 0-3.998-1.5-4.498-2-.5.5-.503 2-4.503 2L7 8.5c-1.5 0-1.5 3 0 3 0 3 3.5 5 5 5z"/><path fill="none" stroke="#000" stroke-linecap="round" stroke-linejoin="round" stroke-miterlimit="10" d="M17.997 9.251l.511-3.751s.5-5-6.5-5-6.5 5-6.5 5l.512 3.751m5.488 7.249l-.008 7m-5-5.5v3M5 19.5h3"/><path d="M14.5 19a.5.5 0 10.002 1.002A.5.5 0 0014.5 19zm0 2a.5.5 0 10.002 1.002A.5.5 0 0014.5 21z"/><path fill="none" d="M0 0h24v24H0z"/></svg>