<svg xmlns="http://www.w3.org/2000/svg" viewBox="0 0 24 24" width="24" height="24"><g fill="none" stroke="#000" stroke-linecap="round" stroke-linejoin="round" stroke-miterlimit="10"><path d="M9 9.502c0-.553.447-.5 1-.5s1-.053 1 .5m2 0c0-.553.447-.5 1-.5s1-.053 1 .5M9.385 15.5C5.088 16.228.5 16.078.5 20.245V23.5h23v-3.255c0-4.168-4.476-3.991-8.93-4.745"/><path d="M12 16.5c1.5 0 5-2 5-5 1.5 0 1.5-3 0-3L16.504 6c-4 0-3.998-1.5-4.498-2-.5.5-.503 2-4.503 2L7 8.5c-1.5 0-1.5 3 0 3 0 3 3.5 5 5 5z"/><path d="M18 9.262l.508-3.762s.5-5-6.5-5-6.5 5-6.5 5L6 9.251"/><circle cx="7.5" cy="20" r="1.5"/><path d="M7.5 15.779V18.5m9.515-2.645L17 17.5m-1.5 4c-.5 0-1-.5-1-.93v-1.6c0-.984.5-1.471 2.5-1.471m1.5 4.001c.5 0 1-.5 1-.93v-1.6c0-.984-.5-1.471-2.5-1.471m-5.5-.999v7"/></g><path fill="none" d="M0 0h24v24H0z"/></svg>