<svg xmlns="http://www.w3.org/2000/svg" viewBox="0 0 24 24" width="24" height="24"><g fill="none" stroke="#000" stroke-linecap="round" stroke-linejoin="round" stroke-miterlimit="10"><path d="M4.5 23.5v-1m14 1v-1m-16-12h18v12h-18zm4-10h10v8h-10z"/><path d="M16.5 5.5h2a2 2 0 012 2v3h-18v-3a2 2 0 012-2h2m2 12.25c1.273-.955 1-7.25 1-7.25m8-2h-12m.5 8c1.664-1.109 1.5-3.443 1.5-6m9.5 6c-1.666-1.11-1.5-3.448-1.5-6m-1 7.25c-1.175-.881-1-5.739-1-7.25m-2 7.5v-7.5"/></g><path fill="none" d="M0 0h24v24H0z"/></svg>