<svg id="Regular" xmlns="http://www.w3.org/2000/svg" viewBox="0 0 24 24" width="24" height="24"><defs><style>.cls-1{fill:none;stroke:#000;stroke-linecap:round;stroke-linejoin:round;stroke-width:1.5px}</style></defs><title>dog-small</title><path class="cls-1" d="M18.75 20.25c-2.625 0-2.955 1.215-3.541 2.551a.751.751 0 0 1-.687.449H12.5a.75.75 0 0 1-.68-.435C11.518 22.161 10.828 21 9.75 21H6c-1.16 0-2.319 1.345-2.786 1.955a.751.751 0 0 1-.6.3H1.5a.75.75 0 0 1-.75-.75V14.25c0-2.25 1.5-4.5 3.75-4.5h5.25a1.5 1.5 0 0 0 1.5-1.5V.75l3 1.5h6l3-1.5v15a19.1 19.1 0 0 1-1.3 7.033.751.751 0 0 1-.694.467h-2.2a.751.751 0 0 1-.531-.22m1.35-17.78a.375.375 0 0 0-.375.375m.75 0a.375.375 0 0 0-.375-.375m0 .75a.375.375 0 0 0 .375-.375m-.75 0a.375.375 0 0 0 .375.375m-5.25-.75a.375.375 0 0 0-.375.375m.75 0a.375.375 0 0 0-.375-.375m0 .75A.375.375 0 0 0 15 5.625m-.75 0a.375.375 0 0 0 .375.375M18 9h-1.5"/></svg>