<svg id="Regular" xmlns="http://www.w3.org/2000/svg" viewBox="0 0 24 24" width="24" height="24"><defs><style>.cls-1{fill:none;stroke:#000;stroke-linecap:round;stroke-linejoin:round;stroke-width:1.5px}</style></defs><title>dog-pitbull</title><path class="cls-1" d="M8.431 2.632A16.244 16.244 0 0 1 12 2.25a16.244 16.244 0 0 1 3.569.382M4.5 20.126A12.725 12.725 0 0 1 .75 11.25m14.455 11.211a6.906 6.906 0 0 1-6.411 0M23.25 11.25a12.725 12.725 0 0 1-3.75 8.876m-9-4.852a1.754 1.754 0 0 1-.752-1.4A2.088 2.088 0 0 1 12 12a2.088 2.088 0 0 1 2.25 1.875 1.752 1.752 0 0 1-.75 1.4"/><path class="cls-1" d="M14.208 14.238l.042.012s5.25 1.5 5.25 6c0 3-3.338 3.412-5.25 1.5A10.971 10.971 0 0 1 12 18a10.971 10.971 0 0 1-2.25 3.75c-1.912 1.912-5.25 1.5-5.25-1.5 0-4.5 5.25-6 5.25-6l.042-.012M7.921 4.462A2.25 2.25 0 0 0 6.212.75H3.75c-2.25 0-3 3-3 5.25s1.5 3 3.75 1.5a17.5 17.5 0 0 0 3.421-3.038zm8.158 0A2.25 2.25 0 0 1 17.788.75h2.462c2.25 0 3 3 3 5.25s-1.5 3-3.75 1.5a17.5 17.5 0 0 1-3.421-3.038zM5.625 11.25a.375.375 0 0 1 .375.375m-.75 0a.375.375 0 0 1 .375-.375m0 .75a.375.375 0 0 1-.375-.375m.75 0a.375.375 0 0 1-.375.375m12.75-.75a.375.375 0 0 1 .375.375m-.75 0a.375.375 0 0 1 .375-.375m0 .75a.375.375 0 0 1-.375-.375m.75 0a.375.375 0 0 1-.375.375M9.75 6.75L10.5 9m3.75-2.25L13.5 9"/></svg>