<svg id="Regular" xmlns="http://www.w3.org/2000/svg" viewBox="0 0 24 24" width="24" height="24"><defs><style>.cls-1{fill:none;stroke:#000;stroke-linecap:round;stroke-linejoin:round;stroke-width:1.5px}</style></defs><title>dog-poop-clean</title><circle class="cls-1" cx="10.25" cy="3.625" r="2.625"/><path class="cls-1" d="M5 15.625H3.5a1.5 1.5 0 0 1 0-3H5a1.5 1.5 0 0 0 1.5-1.5 3 3 0 0 1 3-3H11a3 3 0 0 1 3 3v4.5a1.5 1.5 0 0 1-1.5 1.5v3.75a2.25 2.25 0 0 1-4.5 0v-6"/><path class="cls-1" d="M5.75 19.375a2.25 2.25 0 0 1-4.5 0c0-1.243 2.25-3.75 2.25-3.75s2.25 2.507 2.25 3.75zm9.75 3.75v-3.464a1.036 1.036 0 0 1 1.036-1.036h2.714l1.5-2.25 1.866 2.488a1.036 1.036 0 0 1-1.293 1.548l-.573-.286m-2.25 1.5v1.5m0-4.5l-4.5-4.5"/></svg>