<svg id="Regular" xmlns="http://www.w3.org/2000/svg" viewBox="0 0 24 24" width="24" height="24"><defs><style>.cls-1{fill:none;stroke:#000;stroke-linecap:round;stroke-linejoin:round;stroke-width:1.5px}</style></defs><title>dog-leash</title><path class="cls-1" d="M14.25 18.75h-9a3 3 0 0 1-3-3v-1.5a3 3 0 0 1 3-3h7.65a3.006 3.006 0 0 0 2.555-1.425 6.006 6.006 0 0 0 .457-.916A2.25 2.25 0 0 1 18 7.5c1.5 0 2.25 1.757 2.25 3a.75.75 0 0 0 .75.75h.75a1.5 1.5 0 0 1 0 3H19.5l-2.136 2.988a3 3 0 0 1-2.605 1.512h-.509M.75 9s0 3.246 2.533 2.985M14.25 18.75v4.5m3 0l-.728-5.073m-12.772.172v4.901m3-4.5v4.5"/><path class="cls-1" d="M18.488 15.666l-4.383-4.67L8.25.75"/></svg>