<svg id="Regular" xmlns="http://www.w3.org/2000/svg" viewBox="0 0 24 24" width="24" height="24"><defs><style>.cls-1{fill:none;stroke:#000;stroke-linecap:round;stroke-linejoin:round;stroke-width:1.5px}</style></defs><title>dog-mouth-protection</title><path class="cls-1" d="M14.737 10.4A9.247 9.247 0 0 0 6.75 6m0 2.25V1.5A.75.75 0 0 0 5.543.906 10.323 10.323 0 0 0 1.5 9.1v.65m13.237.65l-4.4 9.1 8.315 1.37c2.686 0 3.607-3.134 3.844-6.246a1.961 1.961 0 0 0-1.711-2.1zm-4.402 9.1c-2.152 0-3.277 1.03-5.172 2.051L2.25 23.12m20.025-6.729L12.512 15m6.41-3.127l-3.519 8.462m-5.278-9.721a.375.375 0 0 0-.375.375m.75 0a.375.375 0 0 0-.375-.375m0 .75a.375.375 0 0 0 .375-.375m-.75 0a.375.375 0 0 0 .375.375"/></svg>