<svg id="Regular" xmlns="http://www.w3.org/2000/svg" viewBox="0 0 24 24" width="24" height="24"><defs><style>.cls-1{fill:none;stroke:#000;stroke-linecap:round;stroke-linejoin:round;stroke-width:1.5px}</style></defs><title>dog-sit</title><path class="cls-1" d="M12.02 23.25H9.77c-4.5 0-5.25-6.75-1.5-9 2.876-1.726 5.25-3.75 5.25-6.75s0-5.25 1.5-6.75l1.5 1.5a3.742 3.742 0 0 1 3.75 2.25l2.418 1.209a.75.75 0 0 1 .376.908l-.385 1.155a.751.751 0 0 1-.634.509A7.518 7.518 0 0 0 19.52 9c-1.5.75-1.5 1.5-1.5 6s3 3 4.5.75m-7.5-.75v8.25m-4.5-6a5.548 5.548 0 0 1-.431 6"/><path class="cls-1" d="M6.294 16.6C5 16.387 1.724 11.722 4.52 9-.539 10.012-.912 21.229 5.9 19.361"/></svg>