<svg id="Regular" xmlns="http://www.w3.org/2000/svg" viewBox="0 0 24 24" width="24" height="24"><defs><style>.cls-1{fill:none;stroke:#000;stroke-linecap:round;stroke-linejoin:round;stroke-width:1.5px}</style></defs><title>dog-house</title><circle class="cls-1" cx="12" cy="13.3" r="1.5"/><circle class="cls-1" cx="6.75" cy="16.3" r="1.5"/><circle class="cls-1" cx="17.25" cy="16.3" r="1.5"/><path class="cls-1" d="M9 23.05a.748.748 0 0 1-.6-1.2l3-4a.75.75 0 0 1 1.2 0l3 4a.75.75 0 0 1-.6 1.2z"/><path class="cls-1" d="M19.5 23.05h2.25a1.5 1.5 0 0 0 1.5-1.5V7.45a1.5 1.5 0 0 0-.794-1.324l-9.75-5.2a1.5 1.5 0 0 0-1.412 0l-9.75 5.2A1.5 1.5 0 0 0 .75 7.45v14.1a1.5 1.5 0 0 0 1.5 1.5H4.5M9.75 8.8V1.75m4.5 7.05V1.75m-9 7.05V4.15m13.5 4.65V4.15m4.5 4.65H.75"/></svg>