<svg id="Regular" xmlns="http://www.w3.org/2000/svg" viewBox="0 0 24 24" width="24" height="24"><defs><style>.cls-1{fill:none;stroke:#000;stroke-linecap:round;stroke-linejoin:round;stroke-width:1.5px}</style></defs><title>dog-carrier</title><path class="cls-1" d="M.75 12.75H7.5M19.625 9l-.666-4a1.5 1.5 0 0 0-1.48-1.253H5.021A1.5 1.5 0 0 0 3.541 5L2.25 12.75m5.25 9H5.021a1.5 1.5 0 0 1-1.48-1.25L2.25 12.75m4.5-6v3m4.5-3v3m4.5-3v1.5m-7.5-4.5a3 3 0 0 1 6 0"/><circle class="cls-1" cx="16.5" cy="13.5" r="1.5"/><circle class="cls-1" cx="11.25" cy="16.5" r="1.5"/><circle class="cls-1" cx="21.75" cy="16.5" r="1.5"/><path class="cls-1" d="M13.5 23.25a.748.748 0 0 1-.6-1.2l3-4a.75.75 0 0 1 1.2 0l3 4a.75.75 0 0 1-.6 1.2z"/></svg>