<svg id="Regular" xmlns="http://www.w3.org/2000/svg" viewBox="0 0 24 24" width="24" height="24"><defs><style>.cls-1{fill:none;stroke:#000;stroke-linecap:round;stroke-linejoin:round;stroke-width:1.5px}</style></defs><title>dog-poodle</title><ellipse class="cls-1" cx="17.375" cy="3.375" rx="2.625" ry="1.875"/><path class="cls-1" d="M19.686 4.265L23 6.75a5.626 5.626 0 0 1-4.755 2.245"/><path class="cls-1" d="M14.984 4.149l-.234.351a11.541 11.541 0 0 0-1.5 6c0 3.75 5.25 3 5.25.75a9.1 9.1 0 0 0-.75-3.75"/><path class="cls-1" d="M13.263 10.812a4.186 4.186 0 0 0-3.013 3.813c0 2.278 2.183 4.125 4.875 4.125S20 16.9 20 14.625a3.837 3.837 0 0 0-1.5-2.976"/><path class="cls-1" d="M12.321 11.25H5.75c-1.5 0-2.25 1.5-2.25 3V18a1.35 1.35 0 0 1-.709 1.291A1.505 1.505 0 0 0 2 20.613V22.5m15.75-4.398V22.5m-4.5-4.066V22.5m-2.468-6H6.5m1.451 0c.211 1.726-.3 2.459-.774 2.77a1.5 1.5 0 0 0-.677 1.254V22.5"/><path class="cls-1" d="M3.737 12.841L3.5 12.75a4.116 4.116 0 0 1-2.25-2.25C.5 8.25 2 7.5 2 7.5l.342-.171"/><circle class="cls-1" cx="3.125" cy="5.625" r="1.875"/></svg>