<svg id="Regular" xmlns="http://www.w3.org/2000/svg" viewBox="0 0 24 24" width="24" height="24"><defs><style>.cls-1{fill:none;stroke:#000;stroke-linecap:round;stroke-linejoin:round;stroke-width:1.5px}</style></defs><title>dog-mouth-protection-1</title><path class="cls-1" d="M15.487 7.9A9.247 9.247 0 0 0 7.5 3.5 9.346 9.346 0 0 0 .75 6.369"/><path class="cls-1" d="M7.5 3.5V11A1.5 1.5 0 0 1 6 12.5H3.75a1.5 1.5 0 0 1-1.5-1.5V9.5m13.237-1.6l-4.4 9.1 8.313 1.37c2.686 0 3.607-3.134 3.844-6.246.08-1.044-.726-1.678-1.711-2.1zM11.085 17a18.974 18.974 0 0 0-7.422 2.051L.75 20.62m22.104-5.919L13.262 12.5m6.386-3.135l-2.99 8.553m-5.783-9.804a.375.375 0 0 0-.375.375m.75 0a.375.375 0 0 0-.375-.375m0 .75a.375.375 0 0 0 .375-.375m-.75 0a.375.375 0 0 0 .375.375"/></svg>