<svg id="Regular" xmlns="http://www.w3.org/2000/svg" viewBox="0 0 24 24" width="24" height="24"><defs><style>.cls-1{fill:none;stroke:#000;stroke-linecap:round;stroke-linejoin:round;stroke-width:1.5px}</style></defs><title>dog</title><path class="cls-1" d="M6.966 21.537H4.031a71.008 71.008 0 0 1-1.467-8.8 3.669 3.669 0 0 1 3.668-3.672h6.6a1.853 1.853 0 0 0 1.752-.913"/><path class="cls-1" d="M17.237 5.764c0 1.418.367 2.568-1.468 2.568S13.568 7.6 14.3 5.4c.447-1.34.87-2.934 3.668-2.934a3.272 3.272 0 0 1 2.935 2.2l2.2.733s.825 4.081-2.935 3.668c-.733 2.935 0 5.136-2.2 6.6v5.869h1.468m-8.802-8.069s0 2.935-3.668 2.935l-.856 5.135"/><path class="cls-1" d="M17.97 21.537h-2.934l-.734-5.869h-1.467M3.3 10.533S-.371 9.8 1.1 5.4"/></svg>