<svg xmlns="http://www.w3.org/2000/svg" viewBox="0 0 24 24" width="24" height="24"><g fill="none" stroke="#000" stroke-linejoin="round" stroke-miterlimit="10"><path stroke-linecap="round" d="M14.874 15.595a3.627 3.627 0 103.626-3.626 3.627 3.627 0 113.626-3.626M18.5 2.542v18.853"/><path d="M12 23.5C5.648 23.5.5 18.352.5 12S5.648.5 12 .5h.5v23H12zm-10.102-6h10.601M1.898 6.5H12.5m-11.989 5H12.5"/><path d="M11.558 23.491C9.456 21.235 7 17.437 7 12 7 6.562 9.457 2.764 11.559.509"/></g><path fill="none" d="M0 0h24v24H0z"/></svg>