<svg xmlns="http://www.w3.org/2000/svg" viewBox="0 0 24 24" width="24" height="24"><g fill="none" stroke="#000" stroke-linejoin="round" stroke-miterlimit="10"><path stroke-linecap="round" d="M5.289 14.462A2.212 2.212 0 107.5 12.25a2.212 2.212 0 112.212-2.212M7.5 6.5V18"/><path d="M17.855 2.531L15.912 7.5h3.427l-7.187 7.761L14.459 9.5h-2.736l3.35-8.396A10.981 10.981 0 0011.5.5C5.426.5.5 5.425.5 11.5s4.926 11 11 11c6.075 0 11-4.925 11-11 0-3.706-1.838-6.976-4.645-8.969z"/></g><path fill="none" d="M0 0h24v24H0z"/></svg>