<svg xmlns="http://www.w3.org/2000/svg" viewBox="0 0 24 24" width="24" height="24"><path fill="none" stroke="#000" stroke-linejoin="round" stroke-miterlimit="10" d="M23.5 23.5v-3c-.5.5-1.972 2.365-4.5-1 0 0-1.169 2-3.5 2-2.429 0-3.5-2-3.5-2s-1.071 2-3.5 2c-2.331 0-3.5-2-3.5-2-2.528 3.365-4 1.5-4.5 1v3h23z"/><path d="M6.5 6a.5.5 0 100 1 .5.5 0 000-1z"/><path fill="none" stroke="#000" stroke-linejoin="round" stroke-miterlimit="10" d="M20.712 13.619c0-6.147-3.552-9.452-6.826-10.684.121-.761.463-1.776 1.034-2.348-5.146 0-6.575.858-7.338 2.065-3.916.968-5.836 3.95-4.969 6.262L.916 11.142c-.502.705.591 1.359 1.309.856a19.78 19.78 0 013.34-1.895c.286.508 1.713 2.791 4.288 2.791-.901-1.199-1.054-3.143-1.081-3.772 3.577-.591 7.086.614 9.768 4.859-1.002.802-1.671 1.936-2.007 3.401a.363.363 0 00.575.367l2.518-1.958 3.021 1.812a.363.363 0 00.544-.365c-.367-2.412-2.479-3.619-2.479-3.619z"/><path fill="none" d="M0 0h24v24H0z"/></svg>