<svg xmlns="http://www.w3.org/2000/svg" viewBox="0 0 24 24" width="24" height="24"><path fill="none" stroke="#000" stroke-linejoin="round" stroke-miterlimit="10" d="M9.416 22.926a1.964 1.964 0 01-2.779 0l-5.561-5.561a1.964 1.964 0 010-2.779l12.51-12.51a1.964 1.964 0 012.779 0l5.559 5.559a1.966 1.966 0 010 2.781L9.416 22.926zM7.258 8.258l8.486 8.486"/><path d="M6.904 11.854a.999.999 0 10.707 1.707.999.999 0 00-.707-1.707zm4.95-4.95a.999.999 0 10.707 1.707.999.999 0 00-.707-1.707zm7.072 1.414a.999.999 0 10.707 1.707.999.999 0 00-.707-1.707zm-7.78 7.778a.999.999 0 10.707 1.707.999.999 0 00-.707-1.707zm-7.07-1.414a.995.995 0 00-.707.295.996.996 0 000 1.412.997.997 0 001.414 0 .996.996 0 000-1.412.991.991 0 00-.707-.295zm4.242 4.244a1 1 0 10.707 1.707 1.001 1.001 0 00-.707-1.707z"/><path fill="none" d="M0 0h24v24H0z"/></svg>