<svg xmlns="http://www.w3.org/2000/svg" viewBox="0 0 24 24" width="24" height="24"><defs><style>.a{fill:none;stroke:#000;stroke-linecap:round;stroke-linejoin:round;stroke-width:1.5px}</style></defs><title>door-password-lock</title><path class="a" d="M14.25 18.75a4.5 4.5 0 0 1-4.5 4.5h-4.5a4.5 4.5 0 0 1-4.5-4.5V5.25a4.5 4.5 0 0 1 4.5-4.5h4.5a4.5 4.5 0 0 1 4.5 4.5v9m-13.5-9h13.5m-13.5 6h13.5"/><path class="a" d="M4.5 7.875a.375.375 0 1 1-.375.375.374.374 0 0 1 .375-.375m6 0a.375.375 0 1 1-.375.375.374.374 0 0 1 .375-.375m-3 10.875a2.25 2.25 0 0 1 0-4.5h8.646a14.954 14.954 0 0 1 6.69 1.579.75.75 0 0 1 0 1.341 14.955 14.955 0 0 1-6.69 1.58z"/></svg>