<svg xmlns="http://www.w3.org/2000/svg" viewBox="0 0 24 24" width="24" height="24"><defs><style>.a{fill:none;stroke:#000;stroke-linecap:round;stroke-linejoin:round;stroke-width:1.5px}</style></defs><title>door-lock</title><rect class="a" x=".75" y="9.75" width="10.5" height="9" rx="1.5" ry="1.5"/><path class="a" d="M6 13.875a.375.375 0 1 0 .375.375.374.374 0 0 0-.375-.375M2.25 9.75V7.5a3.75 3.75 0 0 1 7.5 0v2.25m0 12a1.5 1.5 0 0 0 1.5 1.5h10.5a1.5 1.5 0 0 0 1.5-1.5V2.25a1.5 1.5 0 0 0-1.5-1.5h-10.5a1.5 1.5 0 0 0-1.5 1.5"/></svg>