<svg xmlns="http://www.w3.org/2000/svg" viewBox="0 0 24 24" width="24" height="24"><defs><style>.a{fill:none;stroke:#000;stroke-linecap:round;stroke-linejoin:round;stroke-width:1.5px}</style></defs><title>drawer-envelope</title><path class="a" d="M7.695 12.606l7.705.501 4.496-6.277"/><path class="a" d="M15.75 18.75l6.642-3.144a1.5 1.5 0 0 0 .714-2L19.9 6.83a1.5 1.5 0 0 0-2-.714l-9.49 4.492a1.5 1.5 0 0 0-.714 2L10.6 18.75M2.25 2.25a3 3 0 0 0 3 3h9a3 3 0 0 0 3-3"/><path class="a" d="M2.25 18.75V2.25a1.5 1.5 0 0 1 1.5-1.5h12a1.5 1.5 0 0 1 1.5 1.5v4.173M9.75 5.25v4.723m12 13.277H2.25a1.5 1.5 0 0 1-1.5-1.5v-3h22.5v3a1.5 1.5 0 0 1-1.5 1.5z"/></svg>