<svg xmlns="http://www.w3.org/2000/svg" viewBox="0 0 24 24" width="24" height="24"><defs><style>.a{fill:none;stroke:#000;stroke-linecap:round;stroke-linejoin:round;stroke-width:1.5px}</style></defs><title>drawer-music</title><path class="a" d="M17.168 15.75a5.951 5.951 0 0 1-10.336 0H3a1.5 1.5 0 0 0-1.5 1.5v4.5a1.5 1.5 0 0 0 1.5 1.5h18a1.5 1.5 0 0 0 1.5-1.5v-4.5a1.5 1.5 0 0 0-1.5-1.5zm2.332-3V2.25A1.5 1.5 0 0 0 18 .75H6a1.5 1.5 0 0 0-1.5 1.5v10.5"/><circle class="a" cx="9" cy="11.579" r="1.5"/><circle class="a" cx="15" cy="10.079" r="1.5"/><path class="a" d="M16.5 10.079V5.25a1.5 1.5 0 0 0-1.864-1.45l-3 .75A1.5 1.5 0 0 0 10.5 6v5.579"/></svg>