<svg xmlns="http://www.w3.org/2000/svg" viewBox="0 0 24 24" width="24" height="24"><defs><style>.a{fill:none;stroke:#000;stroke-linecap:round;stroke-linejoin:round;stroke-width:1.5px}</style></defs><title>drawer-skull</title><path class="a" d="M17.168 15.75a5.951 5.951 0 0 1-10.336 0H3a1.5 1.5 0 0 0-1.5 1.5v4.5a1.5 1.5 0 0 0 1.5 1.5h18a1.5 1.5 0 0 0 1.5-1.5v-4.5a1.5 1.5 0 0 0-1.5-1.5zm2.332-3V2.25A1.5 1.5 0 0 0 18 .75H6a1.5 1.5 0 0 0-1.5 1.5v10.5"/><path class="a" d="M9 12.75V10.5l-.158-.079A2.426 2.426 0 0 1 7.5 8.25a4.5 4.5 0 0 1 9 0 2.426 2.426 0 0 1-1.342 2.171L15 10.5v2.25m-3-1.5v1.5"/><path class="a" d="M10.125 7.5a.375.375 0 1 0 .375.375.375.375 0 0 0-.375-.375m3.75 0a.375.375 0 1 0 .375.375.375.375 0 0 0-.375-.375"/></svg>