<svg id="Regular" xmlns="http://www.w3.org/2000/svg" viewBox="0 0 24 24" width="24" height="24"><defs><style>.cls-1{fill:none;stroke:#000;stroke-linecap:round;stroke-linejoin:round;stroke-width:1.5px}</style></defs><title>dressing-hanging-rack-2</title><path class="cls-1" d="M13.5 9.75h5.25a1.5 1.5 0 0 0 1.5-1.5V7.5m-9.75 5.25h-3a1.5 1.5 0 0 1-1.5-1.5v-.75m7.5-6.75h3a1.5 1.5 0 0 0 1.5-1.5V1.5m-7.5 3.75H5.25a1.5 1.5 0 0 1-1.5-1.5V3"/><path class="cls-1" d="M15 23.25a3 3 0 0 0-1.5-2.6V2.25a1.5 1.5 0 0 0-3 0v18.4a3 3 0 0 0-1.5 2.6z"/></svg>