<svg id="Regular" xmlns="http://www.w3.org/2000/svg" viewBox="0 0 24 24" width="24" height="24"><defs><style>.cls-1{fill:none;stroke:#000;stroke-linecap:round;stroke-linejoin:round;stroke-width:1.5px}</style></defs><title>dressing-mirror</title><path class="cls-1" d="M21 21.75a1.5 1.5 0 0 1-1.5 1.5h-15a1.5 1.5 0 0 1-1.5-1.5v-7.5h18zm-9 1.5v-9"/><path class="cls-1" d="M9 18.375a.375.375 0 1 1-.375.375.375.375 0 0 1 .375-.375m6 0a.375.375 0 1 1-.375.375.375.375 0 0 1 .375-.375M1.5 14.25h21m-18 0v-6a7.5 7.5 0 0 1 15 0v6"/></svg>