<svg id="Regular" xmlns="http://www.w3.org/2000/svg" viewBox="0 0 24 24" width="24" height="24"><defs><style>.cls-1{fill:none;stroke:#000;stroke-linecap:round;stroke-linejoin:round;stroke-width:1.5px}</style></defs><title>dress-1</title><path class="cls-1" d="M20.066 20.447l-2.8-8.395a7.5 7.5 0 0 1-.041-4.617l1.353-4.311a.751.751 0 0 0-.261-.838l-1.663-1.247a.75.75 0 0 0-1.178.418L15 3.75H9.75l-1.1-2.585A.75.75 0 0 0 7.531.9L5.682 2.286a.751.751 0 0 0-.261.838l1.353 4.311a7.507 7.507 0 0 1-.041 4.617l-2.8 8.4a.741.741 0 0 0 .325.88A15.417 15.417 0 0 0 12 23.25a15.417 15.417 0 0 0 7.741-1.923.741.741 0 0 0 .325-.88z"/><path class="cls-1" d="M6.971 11.172A16.593 16.593 0 0 0 12 12a16.593 16.593 0 0 0 5.029-.828M9.75 17.25l-1.014 5.688m5.514-5.688l1.014 5.688"/></svg>