<svg id="Regular" xmlns="http://www.w3.org/2000/svg" viewBox="0 0 24 24" width="24" height="24"><defs><style>.cls-1{fill:none;stroke:#000;stroke-linecap:round;stroke-linejoin:round;stroke-width:1.5px}</style></defs><title>dressing-mirror-1</title><path class="cls-1" d="M17.25 20.25H6.75a1.5 1.5 0 0 1-1.5-1.5v-3h13.5v3a1.5 1.5 0 0 1-1.5 1.5zm-10.5 0v3m10.5-3v3"/><rect class="cls-1" x="3.75" y="12.75" width="16.5" height="3" rx=".75" ry=".75"/><path class="cls-1" d="M16.8 12.75a8.745 8.745 0 0 0 1.2-4.5c0-4.142-2.686-7.5-6-7.5s-6 3.358-6 7.5a8.745 8.745 0 0 0 1.2 4.5z"/></svg>