<svg id="Regular" xmlns="http://www.w3.org/2000/svg" viewBox="0 0 24 24" width="24" height="24"><defs><style>.cls-1{fill:none;stroke:#000;stroke-linecap:round;stroke-linejoin:round;stroke-width:1.5px}</style></defs><title>dressing-hanger</title><path class="cls-1" d="M.75 23.25v-21a1.5 1.5 0 0 1 1.5-1.5h19.5a1.5 1.5 0 0 1 1.5 1.5v21M.75 6.75h22.5"/><path class="cls-1" d="M12.75 6.75a1.5 1.5 0 0 0 0-3h-7.5a1.5 1.5 0 0 0 0 3zm-6 0v16.5m-6-12h6m-6 4.5h6m-6 4.5h6m6-4.5c0-1.656 1.679-3 3.75-3s3.75 1.344 3.75 3zm3.75-6a1.5 1.5 0 0 1 0 3m-9.75-3h7.5m9 0h-3"/></svg>