<svg id="Regular" xmlns="http://www.w3.org/2000/svg" viewBox="0 0 24 24" width="24" height="24"><defs><style>.cls-1{fill:none;stroke:#000;stroke-linecap:round;stroke-linejoin:round;stroke-width:1.5px}</style></defs><title>dresser-double-door</title><path class="cls-1" d="M3 .75h18v20a1 1 0 0 1-1 1H4a1 1 0 0 1-1-1v-20zm1.5 21v1.5m15-1.5v1.5M1.5.75h21m-12 18h3m-10.5-3h18m-9-15v15"/><path class="cls-1" d="M9 7.125a.375.375 0 1 1-.375.375A.375.375 0 0 1 9 7.125m6 0a.375.375 0 1 1-.375.375.375.375 0 0 1 .375-.375"/></svg>