<svg xmlns="http://www.w3.org/2000/svg" viewBox="0 0 24 24" width="24" height="24"><defs><style>.a{fill:none;stroke:#000;stroke-linecap:round;stroke-linejoin:round;stroke-width:1.5px}</style></defs><title>drone-restaurant</title><path class="a" d="M21.75 5.25a1.5 1.5 0 0 0-1.5-1.5h-1.488a4.363 4.363 0 0 1-3.34-1.421 4.5 4.5 0 0 0-6.844 0 4.362 4.362 0 0 1-3.34 1.421H3.75a1.5 1.5 0 0 0 0 3h1.488a4.362 4.362 0 0 1 3.34 1.421 4.5 4.5 0 0 0 6.844 0 4.363 4.363 0 0 1 3.34-1.421h1.488a1.5 1.5 0 0 0 1.5-1.5zM2.25.75h3m13.5 0h3m-5.18 6.517a8.73 8.73 0 0 1 3.48 5.124M7.43 7.267a8.735 8.735 0 0 0-3.48 5.124"/><rect class="a" x="6.75" y="12.75" width="10.5" height="10.5" rx="1.5" ry="1.5"/><path class="a" d="M12.75 20.25v-4.5l1.5 3h-1.5m-3-3v4.5"/></svg>