<svg xmlns="http://www.w3.org/2000/svg" viewBox="0 0 24 24" width="24" height="24"><defs><style>.a{fill:none;stroke:#000;stroke-linecap:round;stroke-linejoin:round;stroke-width:1.5px}</style></defs><title>drone-picture</title><path class="a" d="M7.078 11.329a4.362 4.362 0 0 1-3.34 1.421H2.25a1.5 1.5 0 0 0 0 3h1.488a4.362 4.362 0 0 1 3.34 1.421 4.5 4.5 0 0 0 6.844 0 4.363 4.363 0 0 1 3.34-1.421h1.488a1.5 1.5 0 0 0 1.5-1.5M.75 9.75h3"/><path class="a" d="M5.93 16.267a8.735 8.735 0 0 0-3.48 5.124 1.515 1.515 0 0 0 1.464 1.859H5.25m9.82-6.983a8.73 8.73 0 0 1 3.48 5.124 1.515 1.515 0 0 1-1.464 1.859H15.75"/><circle class="a" cx="10.5" cy="21" r="2.25"/><path class="a" d="M21.75 2.25h-1.5l-1.5-1.5h-4.5l-1.5 1.5h-1.5a1.5 1.5 0 0 0-1.5 1.5v6a1.5 1.5 0 0 0 1.5 1.5h10.5a1.5 1.5 0 0 0 1.5-1.5v-6a1.5 1.5 0 0 0-1.5-1.5z"/><circle class="a" cx="16.5" cy="6.75" r="2.25"/></svg>