<svg xmlns="http://www.w3.org/2000/svg" viewBox="0 0 24 24" width="24" height="24"><defs><style>.a{fill:none;stroke:#000;stroke-linecap:round;stroke-linejoin:round;stroke-width:1.5px}</style></defs><title>drone-controller</title><rect class="a" x=".75" y="10.25" width="22.5" height="12.75" rx="4.5" ry="4.5"/><circle class="a" cx="6.75" cy="17.75" r="2.25"/><circle class="a" cx="17.25" cy="17.75" r="2.25"/><path class="a" d="M10.5 13.25h3m5.34 2.91l1.41-1.41m-13.5.75V14M12 10.25v-6m3.4 1.43a2.982 2.982 0 0 0 0-2.86m-6.8 0a2.982 2.982 0 0 0 0 2.86m10.079 1.788a6.713 6.713 0 0 0 0-6.435m-13.358 0a6.713 6.713 0 0 0 0 6.435"/></svg>