<svg xmlns="http://www.w3.org/2000/svg" viewBox="0 0 24 24" width="24" height="24"><defs><style>.a{fill:none;stroke:#000;stroke-linecap:round;stroke-linejoin:round;stroke-width:1.5px}</style></defs><title>drone</title><path class="a" d="M17.25 5.5h6m-3-1.5v1.5m-6 8.25v3a1.5 1.5 0 0 1-1.5 1.5h-1.5a1.5 1.5 0 0 1-1.5-1.5v-3m4.5 3a3 3 0 0 1 3 3m-7.5-3a3 3 0 0 0-3 3"/><circle class="a" cx="12" cy="9.25" r="2.25"/><path class="a" d="M18 11.5h.75a1.5 1.5 0 0 0 1.5-1.5V8.5m-13.5-3h-6m3-1.5v1.5m2.25 6h-.75a1.5 1.5 0 0 1-1.5-1.5V8.5"/><path class="a" d="M9.75 9.25h-1.5a2.25 2.25 0 0 0 0 4.5h7.5a2.25 2.25 0 0 0 0-4.5h-1.5"/></svg>