<svg xmlns="http://www.w3.org/2000/svg" viewBox="0 0 24 24" width="24" height="24"><defs><style>.a{fill:none;stroke:#000;stroke-linecap:round;stroke-linejoin:round;stroke-width:1.5px}</style></defs><title>drone-remote</title><path class="a" d="M23.25 5.25a1.5 1.5 0 0 0-1.5-1.5h-1.488a4.363 4.363 0 0 1-3.34-1.421 4.5 4.5 0 0 0-6.844 0 4.362 4.362 0 0 1-3.34 1.421H5.25a1.5 1.5 0 0 0 0 3h1.488a4.362 4.362 0 0 1 3.34 1.421 4.5 4.5 0 0 0 6.844 0 4.363 4.363 0 0 1 3.34-1.421h1.488a1.5 1.5 0 0 0 1.5-1.5zM3.75.75h3m13.5 0h3M8.93 7.267a9.121 9.121 0 0 0-2.8 3.233"/><path class="a" d="M18.07 7.267a8.73 8.73 0 0 1 3.48 5.124 1.515 1.515 0 0 1-1.464 1.859H18.75"/><circle class="a" cx="13.5" cy="12" r="2.25"/><rect class="a" x=".75" y="14.25" width="6" height="9" rx="1.5" ry="1.5"/><path class="a" d="M3.75 19.875a.375.375 0 1 0 .375.375.375.375 0 0 0-.375-.375"/></svg>