<svg xmlns="http://www.w3.org/2000/svg" viewBox="0 0 24 24" width="24" height="24"><defs><style>.a{fill:none;stroke:#000;stroke-linecap:round;stroke-linejoin:round;stroke-width:1.5px}</style></defs><title>drone-camera</title><path class="a" d="M21.75 6.565h-2.988a4.363 4.363 0 0 1-3.34-1.421 4.5 4.5 0 0 0-6.844 0 4.362 4.362 0 0 1-3.34 1.421H2.25a1.5 1.5 0 0 0 0 3h2.988a4.362 4.362 0 0 1 3.34 1.421 4.5 4.5 0 0 0 6.844 0 4.363 4.363 0 0 1 3.34-1.421h2.988a1.5 1.5 0 1 0 0-3zm-21-4.5h1.5m3 0h1.5m-3 1.5v3m13.5-4.5h1.5m3 0h1.5m-3 1.5v3m-13.5 6a8.88 8.88 0 0 0-4.3 5.641 1.515 1.515 0 0 0 1.464 1.859H5.25m12-7.5a8.88 8.88 0 0 1 4.3 5.641 1.515 1.515 0 0 1-1.464 1.859H18.75"/><circle class="a" cx="12" cy="18.565" r="3.375"/><path class="a" d="M12 18.19a.375.375 0 1 0 .375.375.375.375 0 0 0-.375-.375"/></svg>