<svg xmlns="http://www.w3.org/2000/svg" viewBox="0 0 24 24" width="24" height="24"><g fill="none" stroke="#000" stroke-linejoin="round" stroke-miterlimit="10"><path d="M.5 14.5h23v9H.5z"/><path d="M2.938 14.5L8 18.5s-3.959 5.001-3.833 5m9.583-9l1.708 4.5-3.667 2.542L8 18.5l1.5-4m5.958 4.5l4.042-1.799 4 6.299M.5 20l5.125-3.376"/><path d="M17.5 23.5l2-6.299 2.562-2.701"/><circle stroke-linecap="round" cx="6" cy="5" r="4.5"/><path stroke-linecap="round" d="M18.5 14.5V1m0 6l2-1 1-4m-1 4l3-2m-5 6l-2-1-1-4m1 4l-3-2"/></g><path fill="none" d="M0 0h24v24H0z"/></svg>