<svg id="Regular" xmlns="http://www.w3.org/2000/svg" viewBox="0 0 24 24" width="24" height="24"><defs><style>.cls-1{fill:none;stroke:#000;stroke-linecap:round;stroke-linejoin:round;stroke-width:1.5px}</style></defs><title>drugs-syrup</title><path class="cls-1" d="M15.791 9a.75.75 0 0 0-.75-.75h-1.5v-1.5a.75.75 0 0 0-.75-.75h-1.5a.75.75 0 0 0-.75.75v1.5h-1.5a.75.75 0 0 0-.75.75v1.5a.75.75 0 0 0 .75.75h1.5v1.5a.75.75 0 0 0 .75.75h1.5a.75.75 0 0 0 .75-.75v-1.5h1.5a.75.75 0 0 0 .75-.75z"/><path class="cls-1" d="M17.291 18.75h-10.5L4.373 4.243A3 3 0 0 1 7.333.75h9.417a3 3 0 0 1 2.959 3.493zm0 3a1.5 1.5 0 0 1-1.5 1.5h-7.5a1.5 1.5 0 0 1-1.5-1.5v-3h10.5z"/></svg>