<svg id="Regular" xmlns="http://www.w3.org/2000/svg" viewBox="0 0 24 24" width="24" height="24"><defs><style>.cls-1{fill:none;stroke:#000;stroke-linecap:round;stroke-linejoin:round;stroke-width:1.5px}</style></defs><title>drugs-sheet</title><rect class="cls-1" x="2.243" y="5.031" width="19.514" height="13.939" rx="1.394" ry="1.394" transform="rotate(-45 12 12)"/><path class="cls-1" d="M12.986 5.1a1.394 1.394 0 0 1 1.971 1.971l-1.971 1.972a1.394 1.394 0 0 1-1.972-1.971zm3.942 3.943a1.394 1.394 0 0 1 1.972 1.971l-1.971 1.972a1.394 1.394 0 0 1-1.971-1.972zm-9.856 1.971a1.394 1.394 0 0 1 1.971 1.972l-1.971 1.971A1.394 1.394 0 0 1 5.1 12.986zm3.942 3.943a1.394 1.394 0 0 1 1.972 1.971L11.014 18.9a1.394 1.394 0 0 1-1.971-1.971z"/></svg>