<svg id="Regular" xmlns="http://www.w3.org/2000/svg" viewBox="0 0 24 24" width="24" height="24"><defs><style>.cls-1{fill:none;stroke:#000;stroke-linecap:round;stroke-linejoin:round;stroke-width:1.5px}</style></defs><title>drugs-powder</title><path class="cls-1" d="M15 23.25l-3.252-4.878a4.2 4.2 0 0 0-7 0L1.5 23.25m6-10.875a.375.375 0 0 1 .375.375m-.75 0a.375.375 0 0 1 .375-.375m0 .75a.375.375 0 0 1-.375-.375m.75 0a.375.375 0 0 1-.375.375m4.5 0a.375.375 0 0 1 .375.375m-.75 0a.375.375 0 0 1 .375-.375m0 .75a.375.375 0 0 1-.375-.375m.75 0a.375.375 0 0 1-.375.375m-2.25-4.5a.375.375 0 0 1 .375.375m-.75 0a.375.375 0 0 1 .375-.375m0 .75a.375.375 0 0 1-.375-.375m.75 0a.375.375 0 0 1-.375.375M21.4 7.152a3.75 3.75 0 1 0-5.3-5.3l-4.244 4.239a.75.75 0 0 0 0 1.061l4.244 4.242a.75.75 0 0 0 1.061 0z"/></svg>