<svg id="Regular" xmlns="http://www.w3.org/2000/svg" viewBox="0 0 24 24" width="24" height="24"><defs><style>.cls-1{fill:none;stroke:#000;stroke-linecap:round;stroke-linejoin:round;stroke-width:1.5px}</style></defs><title>drugs-pills-box</title><path class="cls-1" d="M9.5 21.75a1.5 1.5 0 0 0 1.5 1.5h9a1.5 1.5 0 0 0 1.5-1.5V5.25h-12v6m12.75-6H8.75A.75.75 0 0 1 8 4.5V2.25A1.5 1.5 0 0 1 9.5.75h12a1.5 1.5 0 0 1 1.5 1.5V4.5a.75.75 0 0 1-.75.75z"/><path class="cls-1" d="M5.155 22.58a2.287 2.287 0 0 1-3.235-3.235L7.1 14.17a2.287 2.287 0 0 1 3.235 3.235zm-.647-5.822l3.234 3.234M14 11.25h7.5v7.5H14z"/></svg>