<svg xmlns="http://www.w3.org/2000/svg" viewBox="0 0 24 24" width="24" height="24"><g fill="none" stroke="#000" stroke-linejoin="round" stroke-miterlimit="10"><path d="M22.5 4c0 1.934-5.17 3.5-10.969 3.5S.5 5.934.5 4 5.732.5 11.531.5 22.5 2.066 22.5 4z"/><path d="M.5 4v3c0 5.799 5.201 10.5 11 10.5s11-4.701 11-10.5V4"/><path stroke-linecap="round" d="M11.5 23.5v-6m7.961 6.033l-2.264-7.534M3.622 23.533l2.264-7.534M10.5 7.5h2v4a1 1 0 11-2 0v-4zM.786 9.322c.162.112.482.178.693.178.552 0 1.021-.447 1.021-1V5.975m19.714 3.347c-.162.112-.482.178-.693.178-.552 0-1.021-.447-1.021-1V5.975"/></g><path fill="none" d="M0 0h24v24H0z"/></svg>