<svg xmlns="http://www.w3.org/2000/svg" viewBox="0 0 24 24" width="24" height="24"><g fill="none" stroke="#000" stroke-linecap="round" stroke-linejoin="round" stroke-miterlimit="10"><circle cx="12" cy="18" r="5.5"/><path d="M16 22l1 1.5M8 22l-1 1.5M3.5 11c-.681 1.177-1 2.543-1 4v6.5M17.297 8.402C19.891 9.781 21.5 12.54 21.5 15.5v6m-2 2l2-2 2 2"/><path d="M14.5 10.5l6-4.5S18 5 16 6.5s-1.5 4-1.5 4zm-14 13l2-2 2 2m2-10.5l-6-4S3 7.5 5 8.5 6.5 13 6.5 13z"/></g><path fill="none" d="M0 0h24v24H0z"/></svg>