<svg id="Regular" xmlns="http://www.w3.org/2000/svg" viewBox="0 0 24 24" width="24" height="24"><defs><style>.cls-1{fill:none;stroke:#000;stroke-linecap:round;stroke-linejoin:round;stroke-width:1.5px}</style></defs><title>duck</title><path class="cls-1" d="M2.711 14.15a9.75 9.75 0 1 1 18.02.187m-2.971 1.425a3.7 3.7 0 0 1 .435-1.8.738.738 0 0 0-.125-.887l-1.28-1.281a.762.762 0 0 0-1.011-.044c-.66.5-2 1.029-4.019-.486-2.02 1.515-3.36.99-4.02.486a.76.76 0 0 0-1.01.044l-1.28 1.279a.737.737 0 0 0-.125.887 3.7 3.7 0 0 1 .435 1.8c0 1.5-1.5 2.25-1.5 3.75 0 2.072 3.358 3.75 7.5 3.75s7.5-1.678 7.5-3.75c0-1.498-1.5-2.248-1.5-3.748zm-10.125-9a.375.375 0 0 1 .375.375m-.75 0a.375.375 0 0 1 .375-.375m0 .75a.374.374 0 0 1-.375-.375m.75 0a.374.374 0 0 1-.375.375m8.25-.75a.375.375 0 0 1 .375.375m-.75 0a.375.375 0 0 1 .375-.375m0 .75a.374.374 0 0 1-.375-.375m.75 0a.374.374 0 0 1-.375.375m-1.875 7.5l-.75 1.5m-3.75-1.5l.75 1.5"/></svg>