<svg id="Regular" xmlns="http://www.w3.org/2000/svg" viewBox="0 0 24 24" width="24" height="24"><defs><style>.cls-1{fill:none;stroke:#000;stroke-linecap:round;stroke-linejoin:round;stroke-width:1.5px}</style></defs><title>duck-2</title><path class="cls-1" d="M14.129 23.262c-3-3.75-6.75-11.25-5.25-12.75s5.519 3.336 8.25 6.75c3 3.75 4.5 4.5 5.25 3 1.007-2.012-4.638-6.75-3.888-12"/><path class="cls-1" d="M13.269 12.762h.11s1.5 0 3.75-2.25c3.825-3.824 0-9.75-6-9.75-5.25 0-9.75 3-9.75 9s5.25 13.5 5.25 13.5M14.5 6.012a.374.374 0 0 1 .375.375m-.746 0a.375.375 0 0 1 .375-.375m-.004.75a.374.374 0 0 1-.375-.375m.754 0a.374.374 0 0 1-.375.375m-9.709 13.5h7.258"/></svg>