<svg xmlns="http://www.w3.org/2000/svg" viewBox="0 0 24 24" width="24" height="24"><g fill="none" stroke="#000" stroke-linejoin="round" stroke-miterlimit="10"><path d="M13.667 8.215l-5.656 5.657m7.777-3.536l-5.656 5.657m-8.486 0a1.5 1.5 0 012.121-2.121l6.364 6.363a1.5 1.5 0 11-2.12 2.121l-6.365-6.363z"/><path d="M2.353 12.458a1.501 1.501 0 012.122-2.122l9.192 9.192c.587.586.587 1.535.001 2.121s-1.536.586-2.123.001l-9.192-9.192zm7.778-7.778a1.501 1.501 0 012.122-2.122l9.191 9.193a1.5 1.5 0 11-2.121 2.121L10.131 4.68zM.939 19.528a1.5 1.5 0 112.121-2.121l3.537 3.535a1.501 1.501 0 01-2.122 2.122L.939 19.528z"/><path d="M13.668 3.972a1.5 1.5 0 112.121-2.121l6.362 6.364a1.5 1.5 0 01-2.121 2.122l-6.362-6.365z"/><path d="M17.204 3.265a1.5 1.5 0 112.12-2.121L22.86 4.68a1.501 1.501 0 01-2.122 2.121l-3.534-3.536z"/></g><path fill="none" d="M0 0h24v24H0z"/></svg>