<svg xmlns="http://www.w3.org/2000/svg" viewBox="0 0 24 24" width="24" height="24"><g fill="none" stroke="#000" stroke-linejoin="round" stroke-miterlimit="10"><path d="M12 4c.85 3.406 11.5 6.795 11.5 12.5 0 5.706-5.794 7-11.5 7S.5 22.206.5 16.5C.5 10.795 11.15 7.406 12 4z"/><path stroke-linecap="round" d="M10 9.874a13.068 13.068 0 01-2.559 2.12M14 9.874a13.068 13.068 0 002.559 2.12M12 9.5s-.5 1.5.5 3M6 .958C4.258 2.701 7.73 3.294 6.024 5M17.996.958c1.742 1.743-1.73 2.336-.024 4.042"/></g><path fill="none" d="M0 0h24v24H0z"/></svg>