<svg xmlns="http://www.w3.org/2000/svg" viewBox="0 0 24 24" width="24" height="24"><defs><style>.a{fill:none;stroke:#000;stroke-linecap:round;stroke-linejoin:round;stroke-width:1.5px}</style></defs><title>e-commerce-cart-monitor</title><path class="a" d="M16.875.75l-2.25 7.5h-6l-1.5-4.5h8.85M9 10.5a.375.375 0 1 1-.375.375A.375.375 0 0 1 9 10.5m5.25 0a.375.375 0 1 1-.375.375.375.375 0 0 1 .375-.375M7.5 23.25h9M.75 15h22.5"/><path class="a" d="M19.5 3.75h2.25a1.5 1.5 0 0 1 1.5 1.5v12a1.5 1.5 0 0 1-1.5 1.5H2.25a1.5 1.5 0 0 1-1.5-1.5v-12a1.5 1.5 0 0 1 1.5-1.5h1.5M12 23.25v-4.5"/></svg>