<svg xmlns="http://www.w3.org/2000/svg" viewBox="0 0 24 24" width="24" height="24"><defs><style>.a{fill:none;stroke:#000;stroke-linecap:round;stroke-linejoin:round;stroke-width:1.5px}</style></defs><title>e-commerce-shopping-bag-laptop</title><path class="a" d="M21.53 12.757h-7.052a.748.748 0 0 0-.717.707l-1 8.164a.766.766 0 0 0 .718.872h9.048a.766.766 0 0 0 .718-.872l-1-8.164a.748.748 0 0 0-.715-.707z"/><path class="a" d="M19.844 15.728A1.879 1.879 0 0 1 18 17.25a1.879 1.879 0 0 1-1.839-1.513m-5.649-3.73L5.25 12a1.5 1.5 0 0 1-1.5-1.5V3a1.5 1.5 0 0 1 1.5-1.5h3.012m9 0h2.25a1.5 1.5 0 0 1 1.5 1.5v6.75"/><path class="a" d="M9.762 19.5h-7.51A1.5 1.5 0 0 1 .91 17.329l1.836-3.671A3 3 0 0 1 5.429 12l5.083.007M9 16.5h1.5m3.762-14.25h-2.033a1.342 1.342 0 0 0-.5 2.587l2.064.825a1.342 1.342 0 0 1-.5 2.588h-2.031m1.5-6V1.5m0 7.5v-.75"/></svg>