<svg xmlns="http://www.w3.org/2000/svg" viewBox="0 0 24 24" width="24" height="24"><defs><style>.a{fill:none;stroke:#000;stroke-linecap:round;stroke-linejoin:round;stroke-width:1.5px}</style></defs><title>e-commerce-shopping-bag</title><path class="a" d="M18.552 8.022a1.308 1.308 0 0 0-1.216-1.272H6.663a1.307 1.307 0 0 0-1.215 1.272L3.757 18.68a1.357 1.357 0 0 0 1.215 1.57h14.055a1.357 1.357 0 0 0 1.216-1.57zM8.25 6.75c0-.707-.537-5.278 3.748-5.278 4.271 0 3.752 4.667 3.752 5.278"/><path class="a" d="M13.65 10.5h-2.033a1.342 1.342 0 0 0-.5 2.587l2.064.825a1.342 1.342 0 0 1-.5 2.588H10.65m1.5-6v-.75m0 7.5v-.75M.75 3.75v-1.5a1.5 1.5 0 0 1 1.5-1.5h1.5m19.5 3v-1.5a1.5 1.5 0 0 0-1.5-1.5h-1.5M.75 20.25v1.5a1.5 1.5 0 0 0 1.5 1.5h1.5m19.5-3v1.5a1.5 1.5 0 0 1-1.5 1.5h-1.5"/></svg>