<svg xmlns="http://www.w3.org/2000/svg" viewBox="0 0 24 24" width="24" height="24"><defs><style>.a{fill:none;stroke:#000;stroke-linecap:round;stroke-linejoin:round;stroke-width:1.5px}</style></defs><title>e-commerce-basket-laptop</title><path class="a" d="M18.75 3a1.5 1.5 0 0 1 1.5 1.5v9a1.5 1.5 0 0 1-1.5 1.5H5.25a1.5 1.5 0 0 1-1.5-1.5v-9A1.5 1.5 0 0 1 5.25 3m16.498 18.75H2.252A1.5 1.5 0 0 1 .91 19.579l1.836-2.921A3 3 0 0 1 5.429 15h13.142a3 3 0 0 1 2.683 1.658l1.836 2.921a1.5 1.5 0 0 1-1.342 2.171zm-11.248-3h3"/><path class="a" d="M15.922 6H8.251a1.5 1.5 0 0 0-1.4 2.026l1.307 3.487a.75.75 0 0 0 .7.487h6.461a.749.749 0 0 0 .7-.487l1.308-3.487A1.5 1.5 0 0 0 15.922 6zM8.337 6l1.5-3.75m6 3.75l-1.5-3.75M10.5 9.75v-1.5m3 1.5v-1.5"/></svg>