<svg xmlns="http://www.w3.org/2000/svg" viewBox="0 0 24 24" width="24" height="24"><defs><style>.a{fill:none;stroke:#000;stroke-linecap:round;stroke-linejoin:round;stroke-width:1.5px}</style></defs><title>e-commerce-cart-cloud</title><path class="a" d="M17.625 12.75l-2.25 7.5h-6l-1.5-4.5h8.85M9.75 22.5a.375.375 0 1 1-.375.375.375.375 0 0 1 .375-.375m5.25 0a.375.375 0 1 1-.375.375A.375.375 0 0 1 15 22.5m-4.875-12l2.25 2.25V7.5m2.25 3l-2.25 2.25"/><path class="a" d="M7.3 9.246a4.5 4.5 0 1 1 6.529-4.411 2.994 2.994 0 1 1 3.356 4.721"/></svg>