<svg xmlns="http://www.w3.org/2000/svg" viewBox="0 0 24 24" width="24" height="24"><defs><style>.a{fill:none;stroke:#000;stroke-linecap:round;stroke-linejoin:round;stroke-width:1.5px}</style></defs><title>e-commerce-apparel-laptop</title><path class="a" d="M20.25 11.25v3a1.5 1.5 0 0 1-1.5 1.5H5.25a1.5 1.5 0 0 1-1.5-1.5v-7.5a1.5 1.5 0 0 1 1.5-1.5m16.498 18H2.252A1.5 1.5 0 0 1 .91 21.079l1.836-3.671a3 3 0 0 1 2.683-1.658h13.142a3 3 0 0 1 2.683 1.658l1.836 3.671a1.5 1.5 0 0 1-1.342 2.171zm-11.248-3h3"/><path class="a" d="M10.875 6.337H8.842a1.342 1.342 0 0 0-.5 2.587l2.063.826a1.341 1.341 0 0 1-.5 2.587h-2.03m1.5-6v-.75m0 7.5v-.75M23.25 4.5l-.774-3.04a.952.952 0 0 0-.926-.71h-2.118a1.432 1.432 0 0 1-2.864 0H14.45a.952.952 0 0 0-.926.71L12.75 4.5H15v3.75h6V4.5z"/></svg>