<svg xmlns="http://www.w3.org/2000/svg" viewBox="0 0 24 24" width="24" height="24"><defs><style>.a{fill:none;stroke:#000;stroke-linecap:round;stroke-linejoin:round;stroke-width:1.5px}</style></defs><title>e-commerce-apparel-browse</title><path class="a" d="M17.25 12l-.774-3.04a.952.952 0 0 0-.926-.71h-2.118a1.432 1.432 0 0 1-2.864 0H8.45a.952.952 0 0 0-.926.71L6.75 12H9v3.75h6V12zm-12 5.25l-1.5 1.5 1.5 1.5m-1.5-1.5H7.5m11.25-1.5l1.5 1.5-1.5 1.5m1.5-1.5H16.5"/><path class="a" d="M21.643.75H2.357A1.611 1.611 0 0 0 .75 2.365v19.269a1.611 1.611 0 0 0 1.607 1.616h19.286a1.612 1.612 0 0 0 1.607-1.616V2.365A1.611 1.611 0 0 0 21.643.75zM.75 5.25h22.5"/></svg>