<svg xmlns="http://www.w3.org/2000/svg" viewBox="0 0 24 24" width="24" height="24"><defs><style>.a{fill:none;stroke:#000;stroke-linecap:round;stroke-linejoin:round;stroke-width:1.5px}</style></defs><title>e-commerce-cart-laptop</title><path class="a" d="M17.25 1.5L15 9H9L7.5 4.5h8.85m-6.975 6.75a.375.375 0 1 1-.375.375.375.375 0 0 1 .375-.375m5.25 0a.375.375 0 1 1-.375.375.375.375 0 0 1 .375-.375"/><path class="a" d="M19.811 3.439A1.5 1.5 0 0 1 20.25 4.5v9a1.5 1.5 0 0 1-1.5 1.5H5.25a1.5 1.5 0 0 1-1.5-1.5v-9A1.5 1.5 0 0 1 5.25 3m16.498 19.5H2.252A1.5 1.5 0 0 1 .91 20.329l1.836-3.671A3 3 0 0 1 5.429 15h13.142a3 3 0 0 1 2.683 1.658l1.836 3.671a1.5 1.5 0 0 1-1.342 2.171zm-11.248-3h3"/></svg>