<svg xmlns="http://www.w3.org/2000/svg" viewBox="0 0 24 24" width="24" height="24"><defs><style>.a{fill:none;stroke:#000;stroke-linecap:round;stroke-linejoin:round;stroke-width:1.5px}</style></defs><title>e-commerce-add-basket-cloud</title><path class="a" d="M10.125 10.5l2.25 2.25V7.5m2.25 3l-2.25 2.25"/><path class="a" d="M7.3 9.246a4.5 4.5 0 1 1 6.529-4.411 2.994 2.994 0 1 1 3.356 4.721M16.3 17.25H8.626a1.5 1.5 0 0 0-1.4 2.026l1.307 3.487a.75.75 0 0 0 .7.487h6.461a.749.749 0 0 0 .7-.487l1.306-3.487a1.5 1.5 0 0 0-1.4-2.026zm-6.925 0l-1.5-3.75m7.5 3.75l1.5-3.75m-6 7.5v-1.5m3 1.5v-1.5"/></svg>