<svg xmlns="http://www.w3.org/2000/svg" viewBox="0 0 24 24" width="24" height="24"><defs><style>.a{fill:none;stroke:#000;stroke-linecap:round;stroke-linejoin:round;stroke-width:1.5px}</style></defs><title>e-commerce-cart-monitor-keyboard</title><path class="a" d="M19.5.75h.75a1.5 1.5 0 0 1 1.5 1.5v10.5a1.5 1.5 0 0 1-1.5 1.5H3.75a1.5 1.5 0 0 1-1.5-1.5V2.25a1.5 1.5 0 0 1 1.5-1.5H6m14.767 21.568a.751.751 0 0 1-.728.932H3.96a.75.75 0 0 1-.727-.932l1.125-4.5a.749.749 0 0 1 .727-.568h13.829a.751.751 0 0 1 .728.568zM6.75 20.25h1.5m7.5 0h1.5m-6 0h1.5"/><path class="a" d="M16.5.75l-2.25 7.5h-6l-1.5-4.5h8.85M8.625 10.5a.375.375 0 1 1-.375.375.375.375 0 0 1 .375-.375m5.25 0a.375.375 0 1 1-.375.375.375.375 0 0 1 .375-.375"/></svg>