<svg xmlns="http://www.w3.org/2000/svg" viewBox="0 0 24 24" width="24" height="24"><defs><style>.a{fill:none;stroke:#000;stroke-linecap:round;stroke-linejoin:round;stroke-width:1.5px}</style></defs><title>e-commerce-buy-apparel</title><path class="a" d="M15.75 16.355l2.651 6.895 1.591-2.652 2.652-1.591-6.894-2.652zm6.894 6.895l-2.652-2.652"/><path class="a" d="M17.25 13.5h3l-1.161-4.185A1.427 1.427 0 0 0 17.7 8.25h-3.177a2.148 2.148 0 0 1-4.3 0H7.05a1.427 1.427 0 0 0-1.389 1.065L4.5 13.5h3v6h5.25"/><path class="a" d="M23.25 15V2.365A1.611 1.611 0 0 0 21.643.75H2.357A1.611 1.611 0 0 0 .75 2.365v19.269a1.611 1.611 0 0 0 1.607 1.616H14.25m-13.5-18h22.5"/></svg>