<svg xmlns="http://www.w3.org/2000/svg" viewBox="0 0 24 24" width="24" height="24"><defs><style>.a{fill:none;stroke:#000;stroke-linecap:round;stroke-linejoin:round;stroke-width:1.5px}</style></defs><title>e-commerce-cart-browser</title><path class="a" d="M18 21.75h3.75a1.5 1.5 0 0 0 1.5-1.5V3.865a1.62 1.62 0 0 0-1.616-1.615H2.357A1.612 1.612 0 0 0 .75 3.857v16.277a1.62 1.62 0 0 0 1.615 1.616H6m-5.25-15h22.5"/><path class="a" d="M17.25 10.5L15 18H9l-1.5-4.5h8.85m-6.975 6.75a.375.375 0 1 1-.375.375.375.375 0 0 1 .375-.375m5.25 0a.375.375 0 1 1-.375.375.375.375 0 0 1 .375-.375"/></svg>