<svg xmlns="http://www.w3.org/2000/svg" viewBox="0 0 24 24" width="24" height="24"><defs><style>.a{fill:none;stroke:#000;stroke-linecap:round;stroke-linejoin:round;stroke-width:1.5px}</style></defs><title>e-commerce-shopping-bag-1</title><path class="a" d="M7.501 18.75h3m4.5-8.25h5.25m-19.5 0h4.5M10.5 15H2.251a1.5 1.5 0 0 1-1.5-1.5V2.25a1.5 1.5 0 0 1 1.5-1.5h16.5a1.5 1.5 0 0 1 1.5 1.5v8.25m-10.5 8.25V15m11.777-1.493h-7.051a.749.749 0 0 0-.718.707l-1 8.164a.767.767 0 0 0 .718.872h9.049a.766.766 0 0 0 .717-.872l-1-8.164a.75.75 0 0 0-.715-.707z"/><path class="a" d="M19.843 16.478A1.88 1.88 0 0 1 18 18a1.879 1.879 0 0 1-1.839-1.513M11.626 4.5H9.593a1.341 1.341 0 0 0-.5 2.587l2.063.825a1.342 1.342 0 0 1-.5 2.588h-2.03m1.5-6v-.75m0 7.5v-.75"/></svg>