<svg xmlns="http://www.w3.org/2000/svg" viewBox="0 0 24 24" width="24" height="24"><defs><style>.a{fill:none;stroke:#000;stroke-linecap:round;stroke-linejoin:round;stroke-width:1.5px}</style></defs><title>e-commerce-cart</title><path class="a" d="M15.75 5.25l-2.25 7.5h-6L6 8.25h8.85M7.875 15a.375.375 0 1 1-.375.375.375.375 0 0 1 .375-.375m5.25 0a.375.375 0 1 1-.375.375.375.375 0 0 1 .375-.375m.73 4.657a9.74 9.74 0 1 1 5.92-6.143"/><path class="a" d="M16.356 16.355l2.651 6.895 1.591-2.652 2.652-1.591-6.894-2.652zm6.894 6.895l-2.652-2.652"/></svg>