<svg xmlns="http://www.w3.org/2000/svg" viewBox="0 0 24 24" width="24" height="24"><defs><style>.a{fill:none;stroke:#000;stroke-linecap:round;stroke-linejoin:round;stroke-width:1.5px}</style></defs><title>e-commerce-gift</title><path class="a" d="M5.25 15.75a1.5 1.5 0 0 1-1.5-1.5v-7.5a1.5 1.5 0 0 1 1.5-1.5h6m10.498 18H2.252A1.5 1.5 0 0 1 .91 21.079l1.836-3.671a3 3 0 0 1 2.683-1.658h13.142a3 3 0 0 1 2.683 1.658l1.836 3.671a1.5 1.5 0 0 1-1.342 2.171zm-11.248-3h3"/><rect class="a" x="14.25" y="3.75" width="9" height="9" rx="1.5" ry="1.5"/><path class="a" d="M18.75 3.75v9m-4.5-4.5h9M16.5.75l2.25 3m2.25-3l-2.25 3"/></svg>