<svg xmlns="http://www.w3.org/2000/svg" viewBox="0 0 24 24" width="24" height="24"><defs><style>.a{fill:none;stroke:#000;stroke-linecap:round;stroke-linejoin:round;stroke-width:1.5px}</style></defs><title>e-commerce-shopping-bag-browser</title><path class="a" d="M21.53 13.507h-7.052a.748.748 0 0 0-.717.707l-1 8.164a.766.766 0 0 0 .718.872h9.048a.766.766 0 0 0 .718-.872l-1-8.164a.748.748 0 0 0-.715-.707z"/><path class="a" d="M19.844 16.478A1.879 1.879 0 0 1 18 18a1.879 1.879 0 0 1-1.839-1.513M23.25 10.5V2.365A1.611 1.611 0 0 0 21.643.75H2.357A1.611 1.611 0 0 0 .75 2.365v16.269a1.611 1.611 0 0 0 1.607 1.616H9m-8.25-15h22.5"/><path class="a" d="M8.625 9.75H6.592a1.342 1.342 0 0 0-.5 2.587l2.064.825a1.342 1.342 0 0 1-.5 2.588H5.625m1.5-6V9m0 7.5v-.75"/></svg>