<svg xmlns="http://www.w3.org/2000/svg" viewBox="0 0 24 24" width="24" height="24"><defs><style>.a{fill:none;stroke:#000;stroke-linecap:round;stroke-linejoin:round;stroke-width:1.5px}</style></defs><title>e-commerce-monitor-keyboard-basket</title><path class="a" d="M15.749 5.25H8.078a1.5 1.5 0 0 0-1.4 2.026l1.308 3.487a.748.748 0 0 0 .7.487h6.46a.751.751 0 0 0 .7-.487l1.307-3.487a1.5 1.5 0 0 0-1.404-2.026zm-7.586 0l1.5-3.75m6 3.75l-1.5-3.75"/><path class="a" d="M18 .75h2.25a1.5 1.5 0 0 1 1.5 1.5v10.5a1.5 1.5 0 0 1-1.5 1.5H3.75a1.5 1.5 0 0 1-1.5-1.5V2.25a1.5 1.5 0 0 1 1.5-1.5H6m14.767 21.568a.751.751 0 0 1-.728.932H3.96a.75.75 0 0 1-.727-.932l1.125-4.5a.749.749 0 0 1 .727-.568h13.829a.751.751 0 0 1 .728.568zM6.75 20.25h1.5m7.5 0h1.5m-6 0h1.5M10.5 9V7.5m3 1.5V7.5"/></svg>