<svg xmlns="http://www.w3.org/2000/svg" viewBox="0 0 24 24" width="24" height="24"><defs><style>.a{fill:none;stroke:#000;stroke-linecap:round;stroke-linejoin:round;stroke-width:1.5px}</style></defs><title>e-commerce-basket-monitor</title><path class="a" d="M15.835 5.25H8.164a1.5 1.5 0 0 0-1.4 2.026l1.307 3.487a.751.751 0 0 0 .7.487h6.46a.748.748 0 0 0 .7-.487l1.309-3.487a1.5 1.5 0 0 0-1.405-2.026zm-7.585 0l1.5-3.75m6 3.75l-1.5-3.75M7.5 23.25h9M.75 15h22.5"/><path class="a" d="M18.75.75h3a1.5 1.5 0 0 1 1.5 1.5v15a1.5 1.5 0 0 1-1.5 1.5H2.25a1.5 1.5 0 0 1-1.5-1.5v-15a1.5 1.5 0 0 1 1.5-1.5h3M12 23.25v-4.5M10.5 9V7.5m3 1.5V7.5"/></svg>