<svg xmlns="http://www.w3.org/2000/svg" viewBox="0 0 24 24" width="24" height="24"><defs><style>.a{fill:none;stroke:#000;stroke-linecap:round;stroke-linejoin:round;stroke-width:1.5px}</style></defs><title>e-commerce-cart-vr</title><path class="a" d="M3 4.5v.75m0-4.5v.75M1.5 3H.75m4.5 0H4.5m8.25 10.5a5.654 5.654 0 0 0-10.65 0"/><path class="a" d="M14.25 14.473v3.087a1.955 1.955 0 0 1-.565 1.377l-.464.469a1.917 1.917 0 0 1-2.08.431l-1.252-.506a6.382 6.382 0 0 0-4.779 0l-1.251.506a1.917 1.917 0 0 1-2.08-.431l-.464-.469A1.955 1.955 0 0 1 .75 17.56v-3.087a.969.969 0 0 1 .964-.973h11.572a.969.969 0 0 1 .964.973zm-12.026 5.27a5.87 5.87 0 0 0 10.823-.182M6 15.75h3m14.25-15L21 8.25h-6l-1.5-4.5h8.85m-6.975 6.75a.375.375 0 1 1-.375.375.375.375 0 0 1 .375-.375m5.25 0a.375.375 0 1 1-.375.375.375.375 0 0 1 .375-.375"/></svg>