<svg xmlns="http://www.w3.org/2000/svg" viewBox="0 0 24 24" width="24" height="24"><defs><style>.a{fill:none;stroke:#000;stroke-linecap:round;stroke-linejoin:round;stroke-width:1.5px}</style></defs><title>e-commerce-touch-buy</title><path class="a" d="M23.022 23.25l.1-1.122a3 3 0 0 0-2.337-3.2L16.613 18v-6a1.5 1.5 0 0 0-3 0v9.75l-1.7-1.278a1.532 1.532 0 0 0-2.145 2.145l.474.633m.371-9h-8.25a1.5 1.5 0 0 1-1.5-1.5V2.25a1.5 1.5 0 0 1 1.5-1.5h2.25m12 0h2.25a1.5 1.5 0 0 1 1.5 1.5v10.5a1.5 1.5 0 0 1-1.5 1.5m-9 0v3m-2.25 0h3"/><path class="a" d="M15.391 7.528l.375-1a1.5 1.5 0 0 0-1.4-2.026H6.691a1.5 1.5 0 0 0-1.405 2.024l1.308 3.487a.749.749 0 0 0 .7.487h3.317m-3.835-6l1.5-3.75m6 3.75l-1.5-3.75"/></svg>