<svg xmlns="http://www.w3.org/2000/svg" viewBox="0 0 24 24" width="24" height="24"><defs><style>.a{fill:none;stroke:#000;stroke-linecap:round;stroke-linejoin:round;stroke-width:1.5px}</style></defs><title>e-learning-smartphone</title><path class="a" d="M12.75 13.5v6.268a2.732 2.732 0 0 1-2.733 2.732H3.483A2.732 2.732 0 0 1 .75 19.769V4.234A2.733 2.733 0 0 1 3.483 1.5H9M.75 16.501h12M7.125 19.5a.375.375 0 0 0-.375-.375m0 .751a.374.374 0 0 0 .375-.375m-.75-.001a.374.374 0 0 0 .375.375m0-.749a.375.375 0 0 0-.375.375M20.25 5.585V9.77l-3.75 1.083-3.75-1.083V5.585"/><path class="a" d="M23.25 4.651L16.5 2.27 9.75 4.651l6.75 2.1 6.75-2.1zm-13.5 0v3.35"/></svg>