<svg xmlns="http://www.w3.org/2000/svg" viewBox="0 0 24 24" width="24" height="24"><defs><style>.a{fill:none;stroke:#000;stroke-linecap:round;stroke-linejoin:round;stroke-width:1.5px}</style></defs><title>e-learning-book-laptop</title><path class="a" d="M20.25 5.251v9a1.5 1.5 0 0 1-1.5 1.5H5.25a1.5 1.5 0 0 1-1.5-1.5v-9m17.998 18H2.252a1.5 1.5 0 0 1-1.342-2.17l1.836-3.671a3 3 0 0 1 2.683-1.659h13.142a3 3 0 0 1 2.683 1.659l1.836 3.671a1.5 1.5 0 0 1-1.342 2.17zm-11.248-3h3"/><path class="a" d="M12 2.412s.477-1.5 4.561-1.66a.635.635 0 0 1 .689.585v6.174a.634.634 0 0 1-.656.58C12.484 8.238 12 9.751 12 9.751V2.412S11.523.907 7.439.752a.635.635 0 0 0-.689.585v6.174a.634.634 0 0 0 .656.58c4.11.147 4.594 1.66 4.594 1.66"/></svg>