<svg xmlns="http://www.w3.org/2000/svg" viewBox="0 0 24 24" width="24" height="24"><defs><style>.a{fill:none;stroke:#000;stroke-linecap:round;stroke-linejoin:round;stroke-width:1.5px}</style></defs><title>e-learning-laptop</title><circle class="a" cx="12" cy="8.001" r="2.25"/><path class="a" d="M7.974 11.635l2.251-2.251"/><circle class="a" cx="6.75" cy="12.501" r="1.5"/><path class="a" d="M16.026 11.635l-2.251-2.251"/><circle class="a" cx="17.25" cy="12.501" r="1.5"/><path class="a" d="M2.25 17V4.251a1.5 1.5 0 0 1 1.5-1.5h16.5a1.5 1.5 0 0 1 1.5 1.5V17m-7.166 0a2.976 2.976 0 0 1-5.168 0H.75v1.5a3 3 0 0 0 3 3h16.5a3 3 0 0 0 3-3V17z"/></svg>