<svg xmlns="http://www.w3.org/2000/svg" viewBox="0 0 24 24" width="24" height="24"><defs><style>.a{fill:none;stroke:#000;stroke-linecap:round;stroke-linejoin:round;stroke-width:1.5px}</style></defs><title>e-learning-laptop-math</title><path class="a" d="M2.25 15.751v-10.5a1.5 1.5 0 0 1 1.5-1.5h16.5a1.5 1.5 0 0 1 1.5 1.5v10.5"/><path class="a" d="M14.584 15.751a2.976 2.976 0 0 1-5.168 0H.75v1.5a3 3 0 0 0 3 3h16.5a3 3 0 0 0 3-3v-1.5zM6 8.251a1.5 1.5 0 0 1 1.5-1.5 1.5 1.5 0 0 1 1.5 1.5 2.139 2.139 0 0 1-.468 1.336L6 12.751h3m6.75-6h.75a.75.75 0 0 1 .75.75v5.25m-1.5 0h3m-7.5-3h3m-1.5-1.5v3"/></svg>