<svg xmlns="http://www.w3.org/2000/svg" viewBox="0 0 24 24" width="24" height="24"><defs><style>.a{fill:none;stroke:#000;stroke-linecap:round;stroke-linejoin:round;stroke-width:1.5px}</style></defs><title>earpods-charging</title><path class="a" d="M6.75 10.745V9m-3-3.375A.375.375 0 1 0 4.125 6a.375.375 0 0 0-.375-.375"/><path class="a" d="M9.75 6v16.5a.75.75 0 0 1-.75.75H7.5a.75.75 0 0 1-.75-.75V10.745a5.255 5.255 0 0 1-6-1.071V2.326A5.25 5.25 0 0 1 9.75 6zm6 4.745V9m3-3.375a.375.375 0 1 0 .375.375.375.375 0 0 0-.375-.375"/><path class="a" d="M15.75 12.75v-2.005a5.255 5.255 0 0 0 6-1.071V2.326a5.25 5.25 0 0 0-9 3.674v16.5a.75.75 0 0 0 .75.75"/><path class="a" d="M21.75 15.75H21v-1.5h-3v1.5h-.75a1.5 1.5 0 0 0-1.5 1.5v4.5a1.5 1.5 0 0 0 1.5 1.5h4.5a1.5 1.5 0 0 0 1.5-1.5v-4.5a1.5 1.5 0 0 0-1.5-1.5zm-6 4.5h7.5"/></svg>