<svg xmlns="http://www.w3.org/2000/svg" viewBox="0 0 24 24" width="24" height="24"><defs><style>.a{fill:none;stroke:#000;stroke-linecap:round;stroke-linejoin:round;stroke-width:1.5px}</style></defs><title>earpods-left</title><path class="a" d="M20.25 10.745V9m-3-3.375a.375.375 0 1 0 .375.375.375.375 0 0 0-.375-.375"/><path class="a" d="M23.25 6v16.5a.75.75 0 0 1-.75.75H21a.75.75 0 0 1-.75-.75V10.745a5.255 5.255 0 0 1-6-1.071V2.326a5.25 5.25 0 0 1 9 3.674z"/><circle class="a" cx="7.5" cy="16.5" r="6.75"/><path class="a" d="M6.75 13.5v3.75h3"/></svg>