<svg xmlns="http://www.w3.org/2000/svg" viewBox="0 0 24 24" width="24" height="24"><defs><style>.a{fill:none;stroke:#000;stroke-linecap:round;stroke-linejoin:round;stroke-width:1.5px}</style></defs><title>earpods-double-tap-1</title><path class="a" d="M9 10.745V9M6 5.625A.375.375 0 1 0 6.375 6 .375.375 0 0 0 6 5.625"/><path class="a" d="M12 13.5v9a.75.75 0 0 1-.75.75h-1.5A.75.75 0 0 1 9 22.5V10.745a5.255 5.255 0 0 1-6-1.071V2.326a5.254 5.254 0 0 1 6-1.069"/><circle class="a" cx="15.75" cy="6.001" r="5.25"/><circle class="a" cx="15.75" cy="6.001" r="2.25"/></svg>