<svg xmlns="http://www.w3.org/2000/svg" viewBox="0 0 24 24" width="24" height="24"><defs><style>.a{fill:none;stroke:#000;stroke-linecap:round;stroke-linejoin:round;stroke-width:1.5px}</style></defs><title>earpods-bluetooth</title><path class="a" d="M6.749 5.25l.015 4.32a5.292 5.292 0 0 1-1.825 3.713 3.331 3.331 0 0 0 .953 5.664M4.505 5.25l2.547-.009a1.5 1.5 0 1 0-.011-3l-2.547.009z"/><path class="a" d="M4.509 5.473A.5.5 0 0 1 4.042 6H3.1A2.5 2.5 0 0 1 .751 3.387 2.5 2.5 0 0 1 3.085.753h.938a.5.5 0 0 1 .471.523zm3.74 8.044l6.764 6.825-3.762 2.908V11.256l3.762 3-6.75 6.75M17.251 5.25l-.015 4.32a5.292 5.292 0 0 0 1.825 3.713 3.331 3.331 0 0 1-.953 5.664M19.5 5.25l-2.547-.009a1.5 1.5 0 1 1 .011-3l2.547.009z"/><path class="a" d="M19.491 5.473a.5.5 0 0 0 .467.527h.942a2.5 2.5 0 0 0 2.353-2.616A2.5 2.5 0 0 0 20.915.753h-.938a.5.5 0 0 0-.471.523z"/></svg>