<svg xmlns="http://www.w3.org/2000/svg" viewBox="0 0 24 24" width="24" height="24"><defs><style>.a{fill:none;stroke:#000;stroke-linecap:round;stroke-linejoin:round;stroke-width:1.5px}</style></defs><title>earpods-right</title><path class="a" d="M3.75 10.745V9m3-3.375A.375.375 0 1 0 7.125 6a.375.375 0 0 0-.375-.375"/><path class="a" d="M.75 6v16.5a.75.75 0 0 0 .75.75H3a.75.75 0 0 0 .75-.75V10.745a5.255 5.255 0 0 0 6-1.071V2.326A5.25 5.25 0 0 0 .75 6z"/><circle class="a" cx="16.5" cy="16.5" r="6.75"/><path class="a" d="M15 20.25v-7.5m0 0h1.125a1.875 1.875 0 0 1 0 3.75H15m3 3.75l-2.25-3.75"/></svg>