<svg xmlns="http://www.w3.org/2000/svg" viewBox="0 0 24 24" width="24" height="24"><defs><style>.a{fill:none;stroke:#000;stroke-linecap:round;stroke-linejoin:round;stroke-width:1.5px}</style></defs><title>earpods-bluetooth-1</title><path class="a" d="M4.5 5.253h2.973a1.5 1.5 0 1 0-.011-3H4.496z"/><path class="a" d="M4.508 5.473A.5.5 0 0 1 4.041 6H3.1A2.5 2.5 0 0 1 .75 3.387 2.5 2.5 0 0 1 3.085.753h.937a.5.5 0 0 1 .478.523zm9.291 8.846l6.074 4.359-3.384 1.872.009-8.1 3.376 1.868-6.076 4.362"/><circle class="a" cx="16.5" cy="16.5" r="6.75"/><path class="a" d="M6 5.253V23.25M16.5 5.253h-2.977a1.5 1.5 0 1 1 .011-3H16.5z"/><path class="a" d="M16.492 5.473a.5.5 0 0 0 .467.527h.941a2.5 2.5 0 0 0 2.35-2.613A2.5 2.5 0 0 0 17.915.753h-.937a.5.5 0 0 0-.478.523zM15 5.253v1.5"/></svg>