<svg xmlns="http://www.w3.org/2000/svg" viewBox="0 0 24 24" width="24" height="24"><defs><style>.a{fill:none;stroke:#000;stroke-linecap:round;stroke-linejoin:round;stroke-width:1.5px}</style></defs><title>earpods-check</title><path class="a" d="M6.75 10.745V9m-3-3.375A.375.375 0 1 0 4.125 6a.375.375 0 0 0-.375-.375"/><path class="a" d="M9.75 12.75V6a5.25 5.25 0 0 0-9-3.674v7.348a5.255 5.255 0 0 0 6 1.071V22.5a.75.75 0 0 0 .75.75H9a.75.75 0 0 0 .75-.75V21m9-15.375a.375.375 0 1 0 .375.375.375.375 0 0 0-.375-.375"/><path class="a" d="M21.75 9.674V2.326a5.25 5.25 0 0 0-9 3.674v3.75m10.5 7.5a6 6 0 1 1-6-6"/><path class="a" d="M23.25 12.75l-5.47 5.469a.749.749 0 0 1-1.06 0L15 16.5"/></svg>