<svg xmlns="http://www.w3.org/2000/svg" viewBox="0 0 24 24" width="24" height="24"><defs><style>.a{fill:none;stroke:#000;stroke-linecap:round;stroke-linejoin:round;stroke-width:1.5px}</style></defs><title>earpods-charge</title><path class="a" d="M6.75 10.744V9m-3-3.375A.375.375 0 1 0 4.125 6a.375.375 0 0 0-.375-.375"/><path class="a" d="M9.75 6.289v7.961h-3v-3.506a5.252 5.252 0 0 1-6-1.07V2.326A5.231 5.231 0 0 1 4.2.758a5.447 5.447 0 0 1 5.55 5.531zm7.5 4.455V9m3-3.375a.375.375 0 1 0 .375.375.375.375 0 0 0-.375-.375"/><path class="a" d="M14.25 6.289v7.961h3v-3.506a5.252 5.252 0 0 0 6-1.07V2.326A5.231 5.231 0 0 0 19.8.758a5.447 5.447 0 0 0-5.55 5.531zm3 16.961H6.75a4.5 4.5 0 0 1-4.5-4.5v-4.5h19.5v4.5a4.5 4.5 0 0 1-4.5 4.5z"/><path class="a" d="M12 16.5L10.5 18l2.25 1.5-1.5 1.5"/></svg>