<svg xmlns="http://www.w3.org/2000/svg" viewBox="0 0 24 24" width="24" height="24"><defs><style>.a{fill:none;stroke:#000;stroke-linecap:round;stroke-linejoin:round;stroke-width:1.5px}</style></defs><title>earpods-tap</title><path class="a" d="M6.75 11.944v-1.745m-3-3.375a.375.375 0 1 0 .375.375.375.375 0 0 0-.375-.375"/><path class="a" d="M9.75 7.2v15a.75.75 0 0 1-.75.75H7.5a.75.75 0 0 1-.75-.75V11.944a5.255 5.255 0 0 1-6-1.071V3.525a5.25 5.25 0 0 1 9 3.674zm13.5 1.5l-5.773-4.89a1.5 1.5 0 1 0-1.953 2.277l3.759 3.862a1.963 1.963 0 0 1 .345 2.244 1.963 1.963 0 0 1-2.634.878l-.5-.341a1.582 1.582 0 0 0-2.312.6 1.582 1.582 0 0 0 .665 2.1l8.4 4.522M13.5 8.3a4.5 4.5 0 0 1 .751-7.252"/></svg>