<svg xmlns="http://www.w3.org/2000/svg" viewBox="0 0 24 24" width="24" height="24"><g fill="none" stroke="#000" stroke-linecap="round" stroke-linejoin="round" stroke-miterlimit="10"><path d="M16.615 1.463c.313.139.62.289.918.453M12.692.52A11.52 11.52 0 0114.7.819M8.753.964a11.507 11.507 0 011.966-.395M5.172 2.745a11.475 11.475 0 011.752-1.067M2.456 5.582a11.49 11.49 0 011.231-1.529M.841 9.206c.161-.646.377-1.271.643-1.87M.56 13.188a11.68 11.68 0 01-.033-1.987m1.121 5.815a11.416 11.416 0 01-.708-1.85m3.039 5.076a11.628 11.628 0 01-1.318-1.529m4.609 3.773a11.443 11.443 0 01-1.737-.975m5.592 1.956c-.68-.051-1.343-.16-1.985-.324m5.971-.069c-.641.18-1.304.305-1.985.371m5.579-2.1c-.545.392-1.126.737-1.737 1.03m4.513-3.865a11.44 11.44 0 01-1.277 1.549M23.13 14.9a11.522 11.522 0 01-.667 1.877m.986-5.859a11.704 11.704 0 01.01 2.059m-.669-4.963c.113.307.214.619.301.938"/><circle cx="12" cy="12" r="7.5"/><path d="M17.5 7s-2.683.836-2.41 1c2.5 1.5-.409 3.565-.409 3.818 0 .318.886 1.704.409 2.182-1.694 1.693-.636 3-3 3-.318 0-1.5-.682-1.5-1 0-1.63 2.014-5-1.5-5C8.135 11 8 9.772 8 9.772c0-2.817 3.182-3.228 3.182-2.228.635.638 1.908-1.044 1.908-1.044l-1-2"/><circle cx="20.5" cy="4.5" r="2"/></g><path fill="none" d="M0 0h24v24H0z"/></svg>