<svg xmlns="http://www.w3.org/2000/svg" viewBox="0 0 24 24" width="24" height="24"><defs><style>.a{fill:none;stroke:#000;stroke-linecap:round;stroke-linejoin:round;stroke-width:1.5px}</style></defs><title>earth-upload</title><path class="a" d="M9.651 23a11.251 11.251 0 1 1 13.494-12.541M7.079 15.75a1.5 1.5 0 0 0 1.455-1.864l-.75-3A1.5 1.5 0 0 0 6.329 9.75H.976a11.246 11.246 0 0 0 4.016 11.042L6 15.75z"/><path class="a" d="M20.985 5.25h-4.064a1.5 1.5 0 0 0-1.455 1.136l-.458 1.831"/><circle class="a" cx="17.25" cy="17.25" r="6"/><path class="a" d="M17.25 20.25v-6m0 0L15 16.5m2.25-2.25l2.25 2.25"/></svg>