<svg xmlns="http://www.w3.org/2000/svg" viewBox="0 0 24 24" width="24" height="24"><defs><style>.a{fill:none;stroke:#000;stroke-linecap:round;stroke-linejoin:round;stroke-width:1.5px}</style></defs><title>earth-heart</title><path class="a" d="M12.711 23.228A11.25 11.25 0 1 1 23.15 10.49M7.079 15.75a1.5 1.5 0 0 0 1.455-1.864l-.75-3A1.5 1.5 0 0 0 6.329 9.75H.976a11.246 11.246 0 0 0 4.016 11.042L6 15.75z"/><path class="a" d="M20.985 5.25h-4.064a1.5 1.5 0 0 0-1.455 1.136l-.75 3m7.604 4.193a3 3 0 0 0-4.241.1l-.829.869-.829-.869a3 3 0 0 0-4.342 4.14l5.171 5.43 5.171-5.43a3 3 0 0 0-.101-4.24z"/></svg>