<svg xmlns="http://www.w3.org/2000/svg" viewBox="0 0 24 24" width="24" height="24"><defs><style>.a{fill:none;stroke:#000;stroke-linecap:round;stroke-linejoin:round;stroke-width:1.5px}</style></defs><title>earth-check</title><path class="a" d="M10.447 23.144A11.251 11.251 0 1 1 23.037 9.81M7.079 15.75a1.5 1.5 0 0 0 1.455-1.864l-.75-3A1.5 1.5 0 0 0 6.329 9.75H.976a11.246 11.246 0 0 0 4.016 11.042L6 15.75z"/><path class="a" d="M20.985 5.25h-4.064a1.5 1.5 0 0 0-1.455 1.136l-.494 1.974"/><circle class="a" cx="17.25" cy="17.25" r="6"/><path class="a" d="M19.924 15.505l-2.905 3.874a.751.751 0 0 1-1.131.08l-1.5-1.5"/></svg>