<svg xmlns="http://www.w3.org/2000/svg" viewBox="0 0 24 24" width="24" height="24"><defs><style>.a{fill:none;stroke:#000;stroke-linecap:round;stroke-linejoin:round;stroke-width:1.5px}</style></defs><title>earth-refresh</title><path class="a" d="M8.253 22.611A11.252 11.252 0 1 1 22.846 9M7.079 15.75a1.5 1.5 0 0 0 1.455-1.864l-.75-3A1.5 1.5 0 0 0 6.329 9.75H.976a11.246 11.246 0 0 0 4.016 11.042L6 15.75z"/><path class="a" d="M20.985 5.25h-4.064a1.5 1.5 0 0 0-1.455 1.136L14.812 9M15 18.75h-3.75v3.75m11.417-3.017a5.572 5.572 0 0 1-10.74-.733m7.573-3h3.75V12m-11.417 3.017a5.572 5.572 0 0 1 10.74.733"/></svg>