<svg xmlns="http://www.w3.org/2000/svg" viewBox="0 0 24 24" width="24" height="24"><defs><style>.a{fill:none;stroke:#000;stroke-linecap:round;stroke-linejoin:round;stroke-width:1.5px}</style></defs><title>earth-lock</title><path class="a" d="M11.219 23.223a11.25 11.25 0 1 1 11.935-12.7M7.079 15.75a1.5 1.5 0 0 0 1.455-1.864l-.75-3A1.5 1.5 0 0 0 6.329 9.75H.976a11.246 11.246 0 0 0 4.016 11.042L6 15.75z"/><path class="a" d="M20.985 5.25h-4.064a1.5 1.5 0 0 0-1.455 1.136l-.75 3"/><rect class="a" x="14.25" y="15.75" width="9" height="7.5" rx="1" ry="1"/><path class="a" d="M18.75 11.25a3 3 0 0 0-3 3v1.5h6v-1.5a3 3 0 0 0-3-3zm0 7.904a.375.375 0 0 1 .375.375m-.75 0a.375.375 0 0 1 .375-.375m0 .746a.375.375 0 0 1-.375-.375m.75.004a.375.375 0 0 1-.375.375"/></svg>