<svg xmlns="http://www.w3.org/2000/svg" viewBox="0 0 24 24" width="24" height="24"><defs><style>.a{fill:none;stroke:#000;stroke-linecap:round;stroke-linejoin:round;stroke-width:1.5px}</style></defs><title>earth-remove</title><circle class="a" cx="17.25" cy="17.25" r="6"/><path class="a" d="M19.5 15L15 19.5m0-4.5l4.5 4.5m-9.053 3.644A11.251 11.251 0 1 1 23.037 9.81"/><path class="a" d="M7.079 15.75a1.5 1.5 0 0 0 1.455-1.864l-.75-3A1.5 1.5 0 0 0 6.329 9.75H.976a11.246 11.246 0 0 0 4.016 11.042L6 15.75zm13.906-10.5h-4.064a1.5 1.5 0 0 0-1.455 1.136l-.494 1.974"/></svg>