<svg xmlns="http://www.w3.org/2000/svg" viewBox="0 0 24 24" width="24" height="24"><defs><style>.a{fill:none;stroke:#000;stroke-linecap:round;stroke-linejoin:round;stroke-width:1.5px}</style></defs><title>earth-question</title><path class="a" d="M9.639 23.007a11.251 11.251 0 1 1 13.494-12.546M7.067 15.753a1.5 1.5 0 0 0 1.455-1.864l-.75-3a1.5 1.5 0 0 0-1.455-1.136H.964A11.244 11.244 0 0 0 4.98 20.794l1.008-5.041z"/><path class="a" d="M20.973 5.253h-4.064a1.5 1.5 0 0 0-1.455 1.136l-.472 1.887"/><circle class="a" cx="17.25" cy="17.25" r="6"/><path class="a" d="M15.375 16.125A1.875 1.875 0 1 1 17.25 18m0 2.25a.375.375 0 0 1 .375.375m-.75 0a.375.375 0 0 1 .375-.375m0 .75a.375.375 0 0 1-.375-.375m.75 0a.375.375 0 0 1-.375.375"/></svg>