<svg xmlns="http://www.w3.org/2000/svg" viewBox="0 0 24 24" width="24" height="24"><defs><style>.a{fill:none;stroke:#000;stroke-linecap:round;stroke-linejoin:round;stroke-width:1.5px}</style></defs><title>earth-1</title><circle class="a" cx="12" cy="12" r="11.25"/><path class="a" d="M7.079 15.75a1.5 1.5 0 0 0 1.455-1.864l-.75-3A1.5 1.5 0 0 0 6.329 9.75H.976a11.246 11.246 0 0 0 4.016 11.042L6 15.75zm13.906-10.5h-4.064a1.5 1.5 0 0 0-1.455 1.136l-.75 3a1.5 1.5 0 0 0 1.455 1.864h1.579l.791 4.75a1.5 1.5 0 0 0 1.48 1.253h1.925a11.2 11.2 0 0 0-.961-12z"/></svg>