<svg xmlns="http://www.w3.org/2000/svg" viewBox="0 0 24 24" width="24" height="24"><defs><style>.a{fill:none;stroke:#000;stroke-linecap:round;stroke-linejoin:round;stroke-width:1.5px}</style></defs><title>earth-model-2</title><circle class="a" cx="11" cy="9.485" r="7.5"/><path class="a" d="M18.425 2.061A10.5 10.5 0 0 1 3.575 16.91M19.485 1l-1.06 1.061M3.575 16.91l-1.06 1.061M11 19.985v3m-6 0h12"/><path class="a" d="M4.124 6.485H5.75a1.5 1.5 0 0 1 1.5 1.5v1.629a1.5 1.5 0 0 0 .439 1.061l1.155 1.155a1.5 1.5 0 0 1 .363 1.535l-.309.926a1.5 1.5 0 0 1-.523.725l-1.216.912M13.4 2.379c-.407.325-.841.662-1.226.959a1.5 1.5 0 0 0-.285 2.088l.911 1.209a1.5 1.5 0 0 0 1.2.6h.879a1.5 1.5 0 0 1 1.06.44l1.155 1.155a1.5 1.5 0 0 0 1.4.4"/></svg>