<svg xmlns="http://www.w3.org/2000/svg" viewBox="0 0 24 24" width="24" height="24"><defs><style>.a{fill:none;stroke:#000;stroke-linecap:round;stroke-linejoin:round;stroke-width:1.5px}</style></defs><title>earth-move</title><circle class="a" cx="12" cy="12" r="6.75"/><path class="a" d="M10.5 21.75l1.5 1.5 1.5-1.5M2.25 10.5L.75 12l1.5 1.5M13.5 2.25L12 .75l-1.5 1.5M21.75 13.5l1.5-1.5-1.5-1.5M5.634 14.25h12.732M5.634 9.75h12.732m-7.822-4.343a21.866 21.866 0 0 0 .51 13.277m2.402-13.277a21.747 21.747 0 0 1 .794 5.843 21.7 21.7 0 0 1-1.3 7.434"/></svg>