<svg xmlns="http://www.w3.org/2000/svg" viewBox="0 0 24 24" width="24" height="24"><defs><style>.a{fill:none;stroke:#000;stroke-linecap:round;stroke-linejoin:round;stroke-width:1.5px}</style></defs><title>earth-star</title><path class="a" d="M17.959 11.677L19.5 15.75h3a.735.735 0 0 1 .518 1.283l-2.6 1.813 1.442 3.313a.785.785 0 0 1-1.119.982l-3.489-1.961-3.487 1.961a.785.785 0 0 1-1.119-.982l1.442-3.313-2.6-1.813A.734.734 0 0 1 12 15.75h3l1.544-4.073a.8.8 0 0 1 1.415 0zM9.651 23a11.251 11.251 0 1 1 13.6-11"/><path class="a" d="M7.079 15.75a1.5 1.5 0 0 0 1.455-1.864l-.75-3A1.5 1.5 0 0 0 6.329 9.75H.976a11.246 11.246 0 0 0 4.016 11.042L6 15.75zm13.906-10.5h-4.064a1.5 1.5 0 0 0-1.455 1.136l-.75 3"/></svg>