<svg xmlns="http://www.w3.org/2000/svg" viewBox="0 0 24 24" width="24" height="24"><defs><style>.a{fill:none;stroke:#000;stroke-linecap:round;stroke-linejoin:round;stroke-width:1.5px}</style></defs><title>earth-edit</title><path class="a" d="M8.315 22.633a11.252 11.252 0 1 1 14.3-14.371M7.079 15.75a1.5 1.5 0 0 0 1.455-1.864l-.75-3A1.5 1.5 0 0 0 6.329 9.75H.976a11.246 11.246 0 0 0 4.016 11.042L6 15.75z"/><path class="a" d="M20.985 5.25h-4.064a1.5 1.5 0 0 0-1.455 1.136L13.7 13.462m8.931 1.408L15 22.5l-3.75.75.75-3.75 7.631-7.63a2.113 2.113 0 0 1 2.991 0l.009.008a2.116 2.116 0 0 1 0 2.992z"/></svg>