<svg xmlns="http://www.w3.org/2000/svg" viewBox="0 0 24 24" width="24" height="24"><defs><style>.a{fill:none;stroke:#000;stroke-linecap:round;stroke-linejoin:round;stroke-width:1.5px}</style></defs><title>earth-pin-1</title><path class="a" d="M20.75 9.75a9 9 0 0 0-9.128-9 9.114 9.114 0 0 0-8.856 8.46 9 9 0 0 0 7.184 9.359l1.8 4.681 1.8-4.681a9 9 0 0 0 7.2-8.819z"/><circle class="a" cx="11.75" cy="9.75" r="6"/><path class="a" d="M6.552 6.751H8a1.5 1.5 0 0 1 1.5 1.5v.7a1.5 1.5 0 0 0 .668 1.248l.958.639a1.4 1.4 0 0 1 0 2.332L8.6 14.854m8.348-8.103h-.7a1.5 1.5 0 0 0-1.342 2.171c.427.854.525.895.79 1.054l1.9 1.138"/></svg>