<svg id="Regular" xmlns="http://www.w3.org/2000/svg" viewBox="0 0 24 24" width="24" height="24"><defs><style>.cls-1{fill:none;stroke:#000;stroke-linecap:round;stroke-linejoin:round;stroke-width:1.5px}</style></defs><title>easter-egg-bunny</title><path class="cls-1" d="M19.518 15.817c0 5.007-3.022 7.433-6.75 7.433s-6.75-2.426-6.75-7.433S9.04 6.75 12.768 6.75s6.75 4.059 6.75 9.067zm-1.992-6.431A14.483 14.483 0 0 0 18.6 6.673c.841-2.938.653-5.569-.421-5.876s-2.623 1.825-3.464 4.763c-.136.473-.225 1.011-.308 1.459M8.3 9.025c-.207-.4-1.014-2.288-1.014-2.288"/><path class="cls-1" d="M8.829 4.855C8.068 6.306 6.913 7.4 5.707 7.035 4.639 6.71 4.183 5.1 4.688 3.438c.8-2.619 4.758-4.183 7.051 3.417m-5.506 6.683a52.651 52.651 0 0 0 11.812-3.376M7.109 20.269c.242-.043.881-.17 1.122-.215a52.112 52.112 0 0 0 10.44-3.036q.411-.171.817-.35m-9.345-.918a.375.375 0 0 1 .375.375m-.75 0a.375.375 0 0 1 .375-.375m0 .75a.375.375 0 0 1-.375-.375m.75 0a.375.375 0 0 1-.375.375m5.25-2.25a.375.375 0 0 1 .375.375m-.75 0a.375.375 0 0 1 .375-.375m0 .75a.375.375 0 0 1-.375-.375m.75 0a.375.375 0 0 1-.375.375"/></svg>