<svg id="Regular" xmlns="http://www.w3.org/2000/svg" viewBox="0 0 24 24" width="24" height="24"><defs><style>.cls-1{fill:none;stroke:#000;stroke-linecap:round;stroke-linejoin:round;stroke-width:1.5px}</style></defs><title>easter-egg-ribbon</title><path class="cls-1" d="M.75 12.489l7.553-3.332m-7.146 7.282l9.227-4.071m-4.498 5.86a.375.375 0 0 1 .375.375m-.75-.003a.375.375 0 0 1 .375-.375m0 .753a.375.375 0 0 1-.375-.375m.75-.003a.375.375 0 0 1-.375.375M4.875 6.75a.375.375 0 0 1 .375.375m-.75 0a.375.375 0 0 1 .375-.375m0 .75a.375.375 0 0 1-.375-.375m.75 0a.375.375 0 0 1-.375.375m5.25 8.25a.375.375 0 0 1 .375.375m-.75 0a.375.375 0 0 1 .375-.375m0 .75a.375.375 0 0 1-.375-.375m.75 0a.375.375 0 0 1-.375.375m.75 3a.375.375 0 0 1 .375.375m-.75 0a.375.375 0 0 1 .375-.375m0 .75a.375.375 0 0 1-.375-.375m.75 0a.375.375 0 0 1-.375.375"/><path class="cls-1" d="M20.188 15.991a7.8 7.8 0 0 1-1.72 3.932 9.75 9.75 0 0 1-7.788 3.327C5.2 23.25.75 19.942.75 13.114S5.2.75 10.68.75a8.891 8.891 0 0 1 6.59 3.114"/><path class="cls-1" d="M14.358 6.382L11.973 5.3a2.928 2.928 0 0 0-2.055-.1 2.579 2.579 0 0 0-1.875 3.118l.794 2.559a2.586 2.586 0 0 0 3.328 1.483 2.93 2.93 0 0 0 1.635-1.252l.714-1.183"/><circle class="cls-1" cx="15.819" cy="8.094" r="2.25"/><path class="cls-1" d="M13.571 8l-2.276.701m6.33-1.95l2.271-.7m-.096 3.59l2.958 4.459a.286.286 0 0 1-.266.441l-1.427-.141a.284.284 0 0 0-.3.2l-.354 1.186a.284.284 0 0 1-.5.085L17.6 12.638a.286.286 0 0 0-.518.159l-.091 3.974a.285.285 0 0 1-.465.214l-.96-.782a.285.285 0 0 0-.364 0l-1.1.922a.285.285 0 0 1-.468-.215l-.07-5.476"/><path class="cls-1" d="M16.04 5.854l1.385-2.237a2.929 2.929 0 0 1 1.645-1.235 2.578 2.578 0 0 1 3.3 1.521l.784 2.562a2.587 2.587 0 0 1-1.917 3.1 2.921 2.921 0 0 1-2.053-.117l-1.257-.576"/></svg>