<svg id="Regular" xmlns="http://www.w3.org/2000/svg" viewBox="0 0 24 24" width="24" height="24"><defs><style>.cls-1{fill:none;stroke:#000;stroke-linecap:round;stroke-linejoin:round;stroke-width:1.5px}</style></defs><title>easter-egg-decoration</title><path class="cls-1" d="M2.366 5.823a1.842 1.842 0 0 1 2.066.52c1.156 1.286 2.258 1.19 3.207.135a1.842 1.842 0 0 1 2.8 0l.007.008a1.879 1.879 0 0 0 1.382.646 1.949 1.949 0 0 0 1.672-.969m-3 13.712a3.2 3.2 0 1 1-2.922-5.69"/><path class="cls-1" d="M18.672 14.241c-.617 5.581-4.374 9.009-8.917 9.009C4.782 23.25.75 19.142.75 12.6S4.782.75 9.755.75a7.627 7.627 0 0 1 5.262 2.232"/><path class="cls-1" d="M10.056 17.28s.892-1.2.645-3.951a2.809 2.809 0 0 1 .535-2.105 2.759 2.759 0 0 1 4.373 3.366 6.5 6.5 0 0 1-5.553 2.69z"/><path class="cls-1" d="M22.455 1.173a2.038 2.038 0 0 0-2.952.5l-5.382 8.559a2.762 2.762 0 0 1 1.723 1.348l6.879-7.429a2.038 2.038 0 0 0-.268-2.978z"/></svg>