<svg id="Regular" xmlns="http://www.w3.org/2000/svg" viewBox="0 0 24 24" width="24" height="24"><defs><style>.cls-1{fill:none;stroke:#000;stroke-linecap:round;stroke-linejoin:round;stroke-width:1.5px}</style></defs><title>easter-egg</title><path class="cls-1" d="M7.6 20.645c-3.172-.664-5.38-3.338-4.8-7.917.618-4.859 3.943-8.439 7.427-8a5.717 5.717 0 0 1 4.264 3.4"/><path class="cls-1" d="M10.488 9.179c-.27-.019-.542-.045-.816-.08a12.474 12.474 0 0 1-4.843-1.622m2.09 4.74a10.67 10.67 0 0 1-3.568-1.884m10.235 12.353c-4.211-1.4-5.435-4.531-4.429-7.55s3.863-4.786 8.074-3.383 6.809 4.99 5.8 8.009-5.231 4.328-9.445 2.924zM.75 5.641l1.467.979m16.142.978l2.934-1.957M4.174 1.565l.978 1.468M10.5.75v1.957m5.413 1.956l1.467-2.446m2.935 8.316h2.935m-8.625 8.217a.375.375 0 0 1 .375.375m-.75 0a.375.375 0 0 1 .375-.375m0 .75a.375.375 0 0 1-.375-.375m.75 0a.375.375 0 0 1-.375.375m2.25-4.5a.375.375 0 0 1 .375.375m-.75 0a.375.375 0 0 1 .375-.375m0 .75a.375.375 0 0 1-.375-.375m.75 0a.375.375 0 0 1-.375.375m3 3a.375.375 0 0 1 .375.375m-.75 0a.375.375 0 0 1 .375-.375m0 .75a.375.375 0 0 1-.375-.375m.75 0a.375.375 0 0 1-.375.375m-7.5-3.75a.375.375 0 0 1 .375.375m-.75 0a.375.375 0 0 1 .375-.375m0 .75a.375.375 0 0 1-.375-.375m.75 0a.375.375 0 0 1-.375.375"/></svg>