<svg id="Regular" xmlns="http://www.w3.org/2000/svg" viewBox="0 0 24 24" width="24" height="24"><defs><style>.cls-1{fill:none;stroke:#000;stroke-linecap:round;stroke-linejoin:round;stroke-width:1.5px}</style></defs><title>eat-vending-machine</title><circle class="cls-1" cx="4.5" cy="3.75" r="2.625"/><path class="cls-1" d="M9.75 15.75H12a1.5 1.5 0 0 0 0-3H9.75a1.5 1.5 0 0 1-1.5-1.5 3 3 0 0 0-3-3h-1.5a3 3 0 0 0-3 3v4.5a1.5 1.5 0 0 0 1.5 1.5V21a2.25 2.25 0 0 0 4.5 0v-6"/><path class="cls-1" d="M11.25 18.75v3a1.5 1.5 0 0 0 1.5 1.5h9a1.5 1.5 0 0 0 1.5-1.5V2.25a1.5 1.5 0 0 0-1.5-1.5h-9a1.5 1.5 0 0 0-1.5 1.5v6"/><path class="cls-1" d="M14.25 17.25h6v3h-6zm.375-12.75a.375.375 0 1 1 .375.375.375.375 0 0 1-.375-.375m4.5 0a.375.375 0 1 1 .375.375.375.375 0 0 1-.375-.375m-4.5 4.5a.375.375 0 1 1 .375.375.375.375 0 0 1-.375-.375m4.5 0a.375.375 0 1 1 .375.375.375.375 0 0 1-.375-.375m0 4.5a.375.375 0 1 1 .375.375.375.375 0 0 1-.375-.375"/></svg>