<svg xmlns="http://www.w3.org/2000/svg" viewBox="0 0 24 24" width="24" height="24"><circle fill="none" stroke="#000" stroke-linejoin="round" stroke-miterlimit="10" cx="9.5" cy="13.5" r="6"/><path fill="none" stroke="#000" stroke-linecap="round" stroke-linejoin="round" stroke-miterlimit="10" d="M9.5 7.5V4.532m2.248 3.405l1.111-2.751m2.169 5.982l2.735-1.152m-4.021-.758l2.099-2.099m-8.59.778L6.139 5.186m-2.168 5.982l-2.735-1.152m10.512 9.048l1.111 2.752m2.169-5.984l2.735 1.154M7.251 19.064l-1.112 2.752m-2.168-5.984l-2.735 1.154m4.021-7.728L3.158 7.159M15.5 13.5h2.968m-4.726 4.244l2.099 2.099M9.5 19.5v2.969m-4.243-4.725l-2.099 2.099M3.5 13.5H.531"/><circle fill="none" stroke="#000" stroke-linecap="round" stroke-linejoin="round" stroke-miterlimit="10" cx="8" cy="15" r="1.5"/><circle fill="none" stroke="#000" stroke-linecap="round" stroke-linejoin="round" stroke-miterlimit="10" cx="11" cy="11" r=".5"/><path d="M12.5 14a.5.5 0 10.002 1.002A.5.5 0 0012.5 14z"/><circle fill="none" stroke="#000" stroke-linecap="round" stroke-linejoin="round" stroke-miterlimit="10" cx="20.5" cy="3.5" r="2"/><path fill="none" stroke="#000" stroke-linecap="round" stroke-linejoin="round" stroke-miterlimit="10" d="M20.5 1.5v-1m1.414 1.586l.707-.707M22.5 3.5h1m-1.586 1.415l.707.707M20.5 5.5v1m-1.415-1.585l-.707.707M18.5 3.5h-1m1.585-1.414l-.707-.707"/><path fill="none" d="M0 0h24v24H0z"/></svg>