<svg xmlns="http://www.w3.org/2000/svg" viewBox="0 0 24 24" width="24" height="24"><g fill="none" stroke="#000" stroke-linecap="round" stroke-linejoin="round" stroke-miterlimit="10"><path d="M3.121 13.619c-.465 1.945.158 3.637 3.424 2.876 2.568 2.157 3.842 1.136 4.355-1.013.516-2.148-1.033-6.418-3.232-7.973-1.184 2.803-3.965 3.679-4.547 6.11z"/><path d="M7.599 11.332c-.799 1.27-1.062 3.213-1.082 5.125C6.48 19.898 9.052 22.5 12 22.5c3.5 0 5.5-2 5.5-5V11"/><path d="M12.5 6.5a4.501 4.501 0 009 0v-2h-9v2zm2-2v-3m5 3v-3"/></g><path fill="none" d="M0 0h24v24H0z"/></svg>