<svg id="Regular" xmlns="http://www.w3.org/2000/svg" viewBox="0 0 24 24" width="24" height="24"><defs><style>.cls-1{fill:none;stroke:#000;stroke-linecap:round;stroke-linejoin:round;stroke-width:1.5px}</style></defs><title>eco-house</title><path class="cls-1" d="M14.444 20.254s1.219 2.495 3.27 2.307c4.158-.38 3.88-5.907 5.4-7.859a9.1 9.1 0 0 0-8.265.076c-2.149 1.216-2.307 3.27-.405 5.476zm2.941-2.535s-2.7.334-4.623 5.03M9.135 19.75h-3.75a1.5 1.5 0 0 1-1.5-1.5v-7.5m-3-1.5L10.635 1l9.75 8.25m-4.5-7.5h1.5a1.5 1.5 0 0 1 1.5 1.5v1.5"/></svg>