<svg xmlns="http://www.w3.org/2000/svg" viewBox="0 0 24 24" width="24" height="24"><g fill="none" stroke="#000" stroke-linecap="round" stroke-linejoin="round" stroke-miterlimit="10"><path d="M7.546 9.619c-.465 1.946.158 3.638 3.425 2.877 2.568 2.157 3.842 1.135 4.355-1.014.515-2.148-1.034-6.417-3.232-7.972-1.184 2.802-3.965 3.678-4.548 6.109zM9 20.5h5m-5 2h5m-2.5 0v1m0-5s-1.555-7.863.526-11.168"/><path d="M20.5 9c0-4.693-4.03-8.5-9-8.5-4.971 0-9 3.807-9 8.5 0 3.874 2.747 7.137 6.5 8.161V18.5h5v-1.339c3.752-1.024 6.5-4.287 6.5-8.161z"/></g><path fill="none" d="M0 0h24v24H0z"/></svg>