<svg id="Regular" xmlns="http://www.w3.org/2000/svg" viewBox="0 0 24 24" width="24" height="24"><defs><style>.cls-1{fill:none;stroke:#000;stroke-linecap:round;stroke-linejoin:round;stroke-width:1.5px}</style></defs><title>eco-house-sun</title><path class="cls-1" d="M6.334 18.274s1.472 1.5 2.9.881c2.9-1.264 1.384-5.173 2.014-6.94a6.9 6.9 0 0 0-5.928 2.023c-1.259 1.388-.879 2.902 1.014 4.036zm1.512-2.524s-1.79.849-2.11 4.5m14.514-12h3m-7.5-4.5v-3m3.182 10.682l2.121 2.121m-2.121-8.485l2.121-2.121M13.266 4.5A4.5 4.5 0 1 1 18 12.147"/><path class="cls-1" d="M14.25 23.25a1.5 1.5 0 0 0 1.5-1.5v-8.379a1.5 1.5 0 0 0-.439-1.06l-6-6a1.5 1.5 0 0 0-2.122 0l-6 6a1.5 1.5 0 0 0-.439 1.06v8.379a1.5 1.5 0 0 0 1.5 1.5z"/></svg>