<svg id="Regular" xmlns="http://www.w3.org/2000/svg" viewBox="0 0 24 24" width="24" height="24"><defs><style>.cls-1{fill:none;stroke:#000;stroke-linecap:round;stroke-linejoin:round;stroke-width:1.5px}</style></defs><title>ecology-leaf-movie</title><path class="cls-1" d="M14.579 20.756s1.219 2.5 3.27 2.308c4.158-.38 3.88-5.907 5.4-7.859a9.106 9.106 0 0 0-8.265.075c-2.154 1.22-2.307 3.271-.405 5.476zm2.941-2.535s-2.7.335-4.623 5.031"/><path class="cls-1" d="M9.75 18.752h-7.5a1.5 1.5 0 0 1-1.5-1.5v-15A1.5 1.5 0 0 1 2.25.75h19.5a1.5 1.5 0 0 1 1.5 1.5V12M.75 5.25h22.5M.75 14.252h10.5M6 .752v4.5m6-4.5v4.5m6-4.5v4.5m-12 9v4.5"/></svg>