<svg id="Regular" xmlns="http://www.w3.org/2000/svg" viewBox="0 0 24 24" width="24" height="24"><defs><style>.cls-1{fill:none;stroke:#000;stroke-linecap:round;stroke-linejoin:round;stroke-width:1.5px}</style></defs><title>ecology-globe-house</title><path class="cls-1" d="M22.473 12a.751.751 0 0 1 .749.8 11.251 11.251 0 0 1-22.444 0 .751.751 0 0 1 .748-.8z"/><path class="cls-1" d="M4.992 20.792L6 15.75h1.079a1.5 1.5 0 0 0 1.455-1.864L8.061 12m9.814 0l.666 4a1.5 1.5 0 0 0 1.48 1.253h1.925M17.25 12V4.957m-10.5 0V12M19.5 6.982L13 1.135a1.5 1.5 0 0 0-2.007 0L4.5 6.982M18 5.632V1.5M9.75 12V9.75a2.25 2.25 0 0 1 4.5 0V12"/></svg>