<svg id="Regular" xmlns="http://www.w3.org/2000/svg" viewBox="0 0 24 24" width="24" height="24"><defs><style>.cls-1{fill:none;stroke:#000;stroke-linecap:round;stroke-linejoin:round;stroke-width:1.5px}</style></defs><title>ecology-plant-deal</title><path class="cls-1" d="M19.333 19.453l-5.281 1.056m.615-5.926L12.2 15.6a1.6 1.6 0 0 1-1.31-2.916l2.471-1.2a2.213 2.213 0 0 1 1.744-.1l4.51 1.726"/><path class="cls-1" d="M4.667 20.583h1.864l3.107 2.362a.911.911 0 0 0 1.258.1l4.661-3.745a.911.911 0 0 0 .14-1.266l-2.562-2.823m-8.468-1.294L8.46 12.3a1.957 1.957 0 0 1 1.887.241l.325.267m-9.339 9.109h2a1.334 1.334 0 0 0 1.334-1.334v-6.666a1.334 1.334 0 0 0-1.334-1.334h-2m21.334 9.334h-2a1.334 1.334 0 0 1-1.334-1.334v-6.666a1.334 1.334 0 0 1 1.334-1.334h2M9.89 6.658S8.682 8.726 6.93 8.434c-3.551-.592-2.96-5.328-4.143-7.1a7.85 7.85 0 0 1 7.1.592c1.779 1.18 1.779 2.956.003 4.732zm5.26.442s.839 1.436 2.056 1.233c2.466-.411 2.055-3.7 2.877-4.933a5.453 5.453 0 0 0-4.933.411c-1.233.825-1.233 2.059 0 3.289z"/><path class="cls-1" d="M7.522 3.75s3.648 2.587 4.24 8.506a15.858 15.858 0 0 1 3.255-5.291"/></svg>