<svg id="Regular" xmlns="http://www.w3.org/2000/svg" viewBox="0 0 24 24" width="24" height="24"><defs><style>.cls-1{fill:none;stroke:#000;stroke-linecap:round;stroke-linejoin:round;stroke-width:1.5px}</style></defs><title>ecology-globe-hand</title><path class="cls-1" d="M.75 14.25v9m15-1.5a3 3 0 0 0-3-3H9a3 3 0 0 0-3-3H.75v6zm-9.75-3h3"/><circle class="cls-1" cx="15.75" cy="8.25" r="7.5"/><path class="cls-1" d="M11.644 1.974l4.188 2.831a1.5 1.5 0 0 1 .668 1.248V7.77a1.5 1.5 0 0 1-1.206 1.471l-2.544.509.544 2.176a1.5 1.5 0 0 1-.4 1.425l-1.255 1.176m11.573-5.514l-3.206 1.068a1.5 1.5 0 0 0-1 1.717l.592 2.888"/></svg>