<svg id="Regular" xmlns="http://www.w3.org/2000/svg" viewBox="0 0 24 24" width="24" height="24"><defs><style>.cls-1{fill:none;stroke:#000;stroke-linecap:round;stroke-linejoin:round;stroke-width:1.5px}</style></defs><title>ecology-human-mind</title><path class="cls-1" d="M9.452 12.285s1.471 1.5 2.9.881c2.9-1.264 1.384-5.174 2.014-6.94A6.9 6.9 0 0 0 8.44 8.248c-1.261 1.389-.882 2.903 1.012 4.037zm1.512-2.525s-1.79.85-2.111 4.5"/><path class="cls-1" d="M15.464 23.25v-3.74l1.007.168a3 3 0 0 0 3.493-2.959V14.26l.935-.233a1.5 1.5 0 0 0 .884-2.288L19.964 9.01v-.75c0-4.425-4.479-7.96-9.818-7.46a8.993 8.993 0 0 0-3.682 16.75v5.7"/></svg>