<svg id="Regular" xmlns="http://www.w3.org/2000/svg" viewBox="0 0 24 24" width="24" height="24"><defs><style>.cls-1{fill:none;stroke:#000;stroke-linecap:round;stroke-linejoin:round;stroke-width:1.5px}</style></defs><title>ecology-globe-nature</title><path class="cls-1" d="M19.526.75l-2.954 7.244A.749.749 0 0 0 17.276 9h4.5a.749.749 0 0 0 .705-1.006zm0 8.25v3m-15-3l3.943-4.631a.751.751 0 0 1 1.115 0L13.526 9m8.947 3a.751.751 0 0 1 .749.8 11.251 11.251 0 0 1-22.444 0 .751.751 0 0 1 .748-.8z"/><path class="cls-1" d="M4.992 20.792L6 15.75h1.079a1.5 1.5 0 0 0 1.455-1.864L8.061 12m9.814 0l.666 4a1.5 1.5 0 0 0 1.48 1.253h1.925"/></svg>