<svg id="Regular" xmlns="http://www.w3.org/2000/svg" viewBox="0 0 24 24" width="24" height="24"><defs><style>.cls-1{fill:none;stroke:#000;stroke-linecap:round;stroke-linejoin:round;stroke-width:1.5px}</style></defs><title>ecology-plant-hand</title><path class="cls-1" d="M.789 13.493v9m15-1.5a3 3 0 0 0-3-3h-3.75a3 3 0 0 0-3-3H.789v6zm-9.75-3h3m3-9s-1.531 2.62-3.75 2.25c-4.5-.75-3.75-6.75-5.25-9a9.947 9.947 0 0 1 9 .75c2.25 1.5 2.25 3.75 0 6zm4.922 2.198s1.063 1.819 2.6 1.563c3.125-.521 2.6-4.688 3.646-6.251a6.908 6.908 0 0 0-6.25.521c-1.557 1.042-1.557 2.604.004 4.167z"/><path class="cls-1" d="M9.039 5.993s3.75.75 5.25 8.25a12.491 12.491 0 0 1 3.75-4.5"/></svg>