<svg id="Regular" xmlns="http://www.w3.org/2000/svg" viewBox="0 0 24 24" width="24" height="24"><defs><style>.cls-1{fill:none;stroke:#000;stroke-linecap:round;stroke-linejoin:round;stroke-width:1.5px}</style></defs><title>ecology-leaf-shield</title><path class="cls-1" d="M8.25 19.415a8.42 8.42 0 0 1-4.806-1.859c-1.569-1.569-3.328-7.132 0-10.456C7.244 3.3 19.135-.032 20.086.919c.479.479-.128 3.736-1.336 7.335M7.875 13.125L.75 20.25"/><path class="cls-1" d="M23.25 15.75a7.669 7.669 0 0 1-6 7.5 7.669 7.669 0 0 1-6-7.5V13.5a1.5 1.5 0 0 1 1.5-1.5h9a1.5 1.5 0 0 1 1.5 1.5zm-6-.75v4.5M15 17.25h4.5"/></svg>