<svg id="Regular" xmlns="http://www.w3.org/2000/svg" viewBox="0 0 24 24" width="24" height="24"><defs><style>.cls-1{fill:none;stroke:#000;stroke-linecap:round;stroke-linejoin:round;stroke-width:1.5px}</style></defs><title>ecology-leaf-book</title><path class="cls-1" d="M9.182 11.754s1.22 2.5 3.27 2.308c4.158-.38 3.88-5.907 5.4-7.859a9.106 9.106 0 0 0-8.265.075c-2.154 1.222-2.306 3.27-.405 5.476zm2.941-2.535s-2.7.335-4.623 5.031m13.5 9H5.25A2.25 2.25 0 0 1 3 21"/><path class="cls-1" d="M6 .75a3 3 0 0 0-3 3V21a2.25 2.25 0 0 1 2.25-2.25H21v-18zm13.5 22.5v-4.5"/></svg>