<svg xmlns="http://www.w3.org/2000/svg" viewBox="0 0 24 24" width="24" height="24"><defs><style>.a{fill:none;stroke:#000;stroke-linecap:round;stroke-linejoin:round;stroke-width:1.5px}</style></defs><title>educative-toys-music</title><path class="a" d="M4.125 19.5a.375.375 0 0 1 .375.375m-.75 0a.375.375 0 0 1 .375-.375m0 .75a.375.375 0 0 1-.375-.375m.75 0a.375.375 0 0 1-.375.375m11.25-.75a.375.375 0 0 1 .375.375m-.75 0a.375.375 0 0 1 .375-.375m0 .75a.375.375 0 0 1-.375-.375m.75 0a.375.375 0 0 1-.375.375m-11.25-7.5a.375.375 0 0 1 .375.375m-.75 0a.375.375 0 0 1 .375-.375m0 .75a.375.375 0 0 1-.375-.375m.75 0a.375.375 0 0 1-.375.375m11.25-.75a.375.375 0 0 1 .375.375m-.75 0a.375.375 0 0 1 .375-.375m0 .75a.375.375 0 0 1-.375-.375m.75 0a.375.375 0 0 1-.375.375M4.125 6a.375.375 0 0 1 .375.375m-.75 0A.375.375 0 0 1 4.125 6m0 .75a.375.375 0 0 1-.375-.375m.75 0a.375.375 0 0 1-.375.375"/><path class="a" d="M17.25 16.5a1.5 1.5 0 0 1 1.5 1.5v3.75a1.5 1.5 0 0 1-1.5 1.5h-15a1.5 1.5 0 0 1-1.5-1.5V18a1.5 1.5 0 0 1 1.5-1.5h15m-15 0A1.5 1.5 0 0 1 .75 15v-3.75a1.5 1.5 0 0 1 1.5-1.5h13.5m0 0H2.25a1.5 1.5 0 0 1-1.5-1.5V4.5A1.5 1.5 0 0 1 2.25 3h9m12 20.25L18.142 6.774"/><circle class="a" cx="17.254" cy="3.908" r="3"/></svg>