<svg xmlns="http://www.w3.org/2000/svg" viewBox="0 0 24 24" width="24" height="24"><defs><style>.a{fill:none;stroke:#000;stroke-linecap:round;stroke-linejoin:round;stroke-width:1.5px}</style></defs><title>educative-toys-house</title><path class="a" d="M3.75 16.5v-3.75a1.5 1.5 0 0 1 1.5-1.5h13.5a1.5 1.5 0 0 1 1.5 1.5v3.75"/><path class="a" d="M9 23.25V19.5a3 3 0 0 1 6 0v3.75M9 19.5H1.5a.75.75 0 0 0-.75.75v2.25a.75.75 0 0 0 .75.75H9m6-3.75h7.5a.75.75 0 0 1 .75.75v2.25a.75.75 0 0 1-.75.75H15M8.25 6.75v4.5m7.5-4.5v4.5M7 5.439a.75.75 0 0 0 .5 1.311h9a.75.75 0 0 0 .5-1.311L12 .75z"/></svg>