<svg xmlns="http://www.w3.org/2000/svg" viewBox="0 0 24 24" width="24" height="24"><g fill="none" stroke="#000" stroke-linecap="round" stroke-linejoin="round" stroke-miterlimit="10"><path d="M6.451 16.5C3.678 20.958.5 23.5.5 23.5h4c1.5-2 3-4 7.5-4s6 2 7.5 4h4s-3.18-2.543-5.953-7.003M12 2V.5m-3.5 8h7v2h-7z"/><path d="M5.5 14.5h13v2h-13zm5.191.001c.492-1.418.809-2.072.809-4.001m5 10c-1.5-1.5-2.307-3.979-2.307-3.979M7.5 20.5C9 19 9.809 16.521 9.809 16.521m3.5-2.02c-.493-1.418-.809-2.072-.809-4.001m-3.217.006a26.46 26.46 0 01-1.699 4.005m6.582-5.997S12.5 6 12.5 2h-1c0 4-1.664 6.506-1.664 6.506m6.572 5.993a26.256 26.256 0 01-1.693-4.003"/></g><path fill="none" d="M0 0h24v24H0z"/></svg>