<svg xmlns="http://www.w3.org/2000/svg" viewBox="0 0 24 24" width="24" height="24"><g fill="none" stroke="#000" stroke-linejoin="round" stroke-miterlimit="10"><circle cx="11.505" cy="9.5" r="8"/><circle cx="11.5" cy="9.5" r="2"/><path d="M9.5 17.246V20.5h4v-3.251M3.5 22A1.5 1.5 0 005 23.5h13a1.5 1.5 0 100-3H5A1.5 1.5 0 003.5 22zM9.523 9.707l-5.866 1.352m3.302 5.025l3.571-4.843m2.958-1.534l5.866 1.351m-3.278 5.008l-3.595-4.825m-1.888-3.522L8.348 2.147m6.253-.026l-2.188 5.6"/><path stroke-linecap="round" d="M15.5 20.5v1m2-1v1"/></g><path fill="none" d="M0 0h24v24H0z"/></svg>