<svg xmlns="http://www.w3.org/2000/svg" viewBox="0 0 24 24" width="24" height="24"><g fill="none" stroke="#000" stroke-linejoin="round" stroke-miterlimit="10"><path d="M5.5 20.5a2 2 0 002 2h14a2 2 0 002-2v-17a2 2 0 00-2-2h-14a2 2 0 00-2 2v17z"/><path stroke-linecap="round" d="M17.5 6.547V7.5m2-.953V7.5"/><circle stroke-linecap="round" cx="18.5" cy="7" r="3"/><path stroke-linecap="round" d="M9.5 6.547V7.5m2-.953V7.5"/><circle stroke-linecap="round" cx="10.5" cy="7" r="3"/><path stroke-linecap="round" d="M17.5 16.547v.953m2-.953v.953"/><circle stroke-linecap="round" cx="18.5" cy="17" r="3"/><path stroke-linecap="round" d="M9.5 16.547v.953m2-.953v.953"/><circle stroke-linecap="round" cx="10.5" cy="17" r="3"/><path stroke-linecap="round" d="M5.438 19.5H4.5a2 2 0 01-2-2v-8c0-1.104-.708-2-1.812-2"/></g><path fill="none" d="M0 0h24v24H0z"/></svg>