<svg xmlns="http://www.w3.org/2000/svg" viewBox="0 0 24 24" width="24" height="24"><defs><style>.a{fill:none;stroke:#000;stroke-linecap:round;stroke-linejoin:round;stroke-width:1.5px}</style></defs><title>electronics-vacuum-tube</title><path class="a" d="M15 3.75a1.486 1.486 0 0 1-1.5-1.481 1.5 1.5 0 1 0-3 0A1.486 1.486 0 0 1 9 3.75 2.25 2.25 0 0 0 6.75 6v10.5A2.25 2.25 0 0 0 9 18.75h6a2.25 2.25 0 0 0 2.25-2.25V6A2.25 2.25 0 0 0 15 3.75zm-6 15v4.5m6-4.5v4.5m-3-4.5v4.5m-5.25-9h10.5m-10.5-7.5h10.5m-3 7.5v-7.5"/><path class="a" d="M9.75 9.75h4.5v4.5h-4.5z"/></svg>