<svg xmlns="http://www.w3.org/2000/svg" viewBox="0 0 24 24" width="24" height="24"><defs><style>.a{fill:none;stroke:#000;stroke-linecap:round;stroke-linejoin:round;stroke-width:1.5px}</style></defs><title>electronics-switch</title><rect class="a" x="2.25" y="14.25" width="19.5" height="6" rx="1.5" ry="1.5"/><path class="a" d="M17.25 9.75H6.75a1.5 1.5 0 0 0-1.5 1.5v3h13.5v-3a1.5 1.5 0 0 0-1.5-1.5zm-4.5 0c-.45-.96-3.124-6.695-3.978-7.982a2.214 2.214 0 0 0-3.12-.629 2.213 2.213 0 0 0-.629 3.119c.633.953 3.128 3.775 4.669 5.492zm-7.5 10.5v3m6.75-3v3m6.75-3v3"/></svg>