<svg xmlns="http://www.w3.org/2000/svg" viewBox="0 0 24 24" width="24" height="24"><defs><style>.a{fill:none;stroke:#000;stroke-linecap:round;stroke-linejoin:round;stroke-width:1.5px}</style></defs><title>electronics-rocker-switch</title><rect class="a" x=".75" y=".75" width="22.5" height="22.5" rx="1.5" ry="1.5"/><path class="a" d="M15.714 20.25H8.25a1.5 1.5 0 0 1-1.5-1.5V5.25a1.5 1.5 0 0 1 1.5-1.5H18a1.5 1.5 0 0 1 1.392 2.057l-2.178 5.443v7.5a1.5 1.5 0 0 1-1.5 1.5z"/><path class="a" d="M11.25 20.25v-9l3-7.5m-3 7.5h5.964M3.75 3.375a.375.375 0 1 0 .375.375.375.375 0 0 0-.375-.375m0 16.5a.375.375 0 1 0 .375.375.375.375 0 0 0-.375-.375m16.5 0a.375.375 0 1 0 .375.375.375.375 0 0 0-.375-.375"/></svg>