<svg xmlns="http://www.w3.org/2000/svg" viewBox="0 0 24 24" width="24" height="24"><defs><style>.a{fill:none;stroke:#000;stroke-linecap:round;stroke-linejoin:round;stroke-width:1.5px}</style></defs><title>electricity-tower-1</title><path class="a" d="M.75 23.25h22.5m-13.5-21h4.5v21h-4.5zm0 4.5h4.5m-4.5 4.5h4.5m-4.5 4.5h4.5m-9-13.5h4.5m-4.5 4.5h4.5"/><path class="a" d="M9.75 11.25h-.879a1.5 1.5 0 0 0-1.06.439L4.39 15.11a.375.375 0 0 0 .265.64h5.1m8.995-13.5h-4.5m4.5 4.5h-4.5m0 4.5h.879a1.5 1.5 0 0 1 1.06.439l3.421 3.421a.375.375 0 0 1-.265.64H14.25"/></svg>