<svg id="Regular" xmlns="http://www.w3.org/2000/svg" viewBox="0 0 24 24" width="24" height="24"><defs><style>.cls-1{fill:none;stroke:#000;stroke-linecap:round;stroke-linejoin:round;stroke-width:1.5px}</style></defs><title>elephant</title><path class="cls-1" d="M4.25 17.75a1.611 1.611 0 0 1-3-.75V8c0-.2-.779-5.25 9.75-5.25 3.185 0 3.14 5.953-1.5 7.5"/><path class="cls-1" d="M4.25 12.5s3.75.75 3.75 3V20a.75.75 0 0 0 .75.75h1.5A.75.75 0 0 0 11 20v-3a1.5 1.5 0 0 1 1.5-1.5h5.708"/><path class="cls-1" d="M16.25 13.25a5.167 5.167 0 0 0 3.75 3V20a.75.75 0 0 0 .75.75h1.5A.75.75 0 0 0 23 20v-9.75a4.5 4.5 0 0 0-4.5-4.5h-2.187"/><circle class="cls-1" cx="4.625" cy="8.375" r=".375"/></svg>