<svg id="Regular" xmlns="http://www.w3.org/2000/svg" viewBox="0 0 24 24" width="24" height="24"><defs><style>.cls-1{fill:none;stroke:#000;stroke-linecap:round;stroke-linejoin:round;stroke-width:1.5px}</style></defs><title>elephant-draw</title><path class="cls-1" d="M5.887 9.75c-1.137 2.454-1.152 5.485.863 7.5 1.5-2.25 3.75-4.5 6-4.5a16.222 16.222 0 0 1 4.373.71M8.3 23.25s-8.25-.75-7.5-9A11.531 11.531 0 0 1 2.366 9"/><path class="cls-1" d="M15 15s3.75-3 5.25-3 3 2.25 3 4.5-2.25 6-4.5 6-3-.75-3-.75M5.773 5.615l4.025 5.635M4.816 2.581c.91.5 2.492 1.831.471 3.506a1.874 1.874 0 0 1-2.64-.247A3.951 3.951 0 0 1 2.324.75c.957 1.155.718.866 2.492 1.831zM12 9.75v-7.5a1.5 1.5 0 0 1 1.5-1.5h8.25a1.5 1.5 0 0 1 1.5 1.5v7.5"/><path class="cls-1" d="M15 8.25l1.4-1.995a1.5 1.5 0 0 1 2.458 0l1.4 2z"/><circle class="cls-1" cx="19.875" cy="3.375" r=".375"/><circle class="cls-1" cx="11.673" cy="17.625" r=".375"/></svg>