<svg xmlns="http://www.w3.org/2000/svg" viewBox="0 0 24 24" width="24" height="24"><defs><style>.a{fill:none;stroke:#000;stroke-linecap:round;stroke-linejoin:round;stroke-width:1.5px}</style></defs><title>email-action-cash</title><path class="a" d="M19.5 12.88V2.25A1.5 1.5 0 0 0 18 .75H6a1.5 1.5 0 0 0-1.5 1.5v10.63"/><path class="a" d="M21.284 11.465a.75.75 0 0 1 1.216.587v9.7a1.5 1.5 0 0 1-1.5 1.5H3a1.5 1.5 0 0 1-1.5-1.5v-9.7a.75.75 0 0 1 1.216-.587l7.431 5.894a3 3 0 0 0 3.706 0z"/><path class="a" d="M10.142 10.844a2.221 2.221 0 0 0 1.858.875c1.139 0 2.062-.693 2.062-1.547S13.139 8.626 12 8.626s-2.063-.693-2.063-1.548.924-1.547 2.063-1.547a2.221 2.221 0 0 1 1.858.875M12 11.719v1.031m0-8.25v1.031"/></svg>