<svg xmlns="http://www.w3.org/2000/svg" viewBox="0 0 24 24" width="24" height="24"><defs><style>.a{fill:none;stroke:#000;stroke-linecap:round;stroke-linejoin:round;stroke-width:1.5px}</style></defs><title>email-action-sync</title><path class="a" d="M14.25 5.25H18V1.5m-.75 3.75a5.313 5.313 0 0 0-10.5 0m3.75 3H6.75V12m.75-3.75a5.312 5.312 0 0 0 10.5 0"/><path class="a" d="M20.625 9.75h1.125a1.5 1.5 0 0 1 1.5 1.5v10.5a1.5 1.5 0 0 1-1.5 1.5H2.25a1.5 1.5 0 0 1-1.5-1.5v-10.5a1.5 1.5 0 0 1 1.5-1.5h1.5"/><path class="a" d="M23.25 12l-9.85 5.628a2.824 2.824 0 0 1-2.8 0L.75 12"/></svg>