<svg xmlns="http://www.w3.org/2000/svg" viewBox="0 0 24 24" width="24" height="24"><defs><style>.a{fill:none;stroke:#000;stroke-linecap:round;stroke-linejoin:round;stroke-width:1.5px}</style></defs><title>email-action-edit</title><path class="a" d="M22.63 14.87L15 22.5l-3.75.75.75-3.75 7.63-7.63a2.114 2.114 0 0 1 2.992 0l.008.008a2.114 2.114 0 0 1 0 2.992zm-11.38.88h-9a1.5 1.5 0 0 1-1.5-1.5v-12a1.5 1.5 0 0 1 1.5-1.5h18a1.5 1.5 0 0 1 1.5 1.5v6"/><path class="a" d="M21.411 1.3l-8.144 6.264a3.308 3.308 0 0 1-4.034 0L1.089 1.3"/></svg>