<svg xmlns="http://www.w3.org/2000/svg" viewBox="0 0 24 24" width="24" height="24"><defs><style>.a{fill:none;stroke:#000;stroke-linecap:round;stroke-linejoin:round;stroke-width:1.5px}</style></defs><title>email-action-reply-all</title><path class="a" d="M12.75 6.837a1.5 1.5 0 0 0-2.6-1.018l-5.461 5.914a1.5 1.5 0 0 0 0 2.034l5.459 5.914a1.5 1.5 0 0 0 2.6-1.018V15.75h3a7.5 7.5 0 0 1 7.5 7.5v-6a7.5 7.5 0 0 0-7.5-7.5h-3z"/><path class="a" d="M6.606 5.819l-5.458 5.914a1.5 1.5 0 0 0 0 2.034l5.458 5.914"/></svg>