<svg xmlns="http://www.w3.org/2000/svg" viewBox="0 0 24 24" width="24" height="24"><g fill="none" stroke="#000" stroke-linejoin="round" stroke-miterlimit="10"><path d="M2.5 10.5h7v3c0 1.1-.9 2-2 2v4h-3v-4c-1.102 0-2-.9-2-2v-3z"/><circle cx="6" cy="6.999" r="2.5"/><path d="M.5 20.5a1 1 0 001 1h9a1 1 0 001-1v-17a1 1 0 00-1-1h-9a1 1 0 00-1 1v17zm1 1h2v2h-2zm7 0h2v2h-2zm-7-21h2v2h-2zm7 0h2v2h-2z"/><path stroke-linecap="round" d="M22.5 6.5h-3v-3h-3v3h-3v3h3v3h3v-3h3z"/></g><path fill="none" d="M0 0h24v24H0z"/></svg>