<svg xmlns="http://www.w3.org/2000/svg" viewBox="0 0 24 24" width="24" height="24"><defs><style>.a{fill:none;stroke:#000;stroke-linecap:round;stroke-linejoin:round;stroke-width:1.5px}</style></defs><title>envelope-ups</title><path class="a" d="M.75 23.25v-21a1.5 1.5 0 0 1 1.5-1.5h19.5a1.5 1.5 0 0 1 1.5 1.5v21M10.5 23v-7.5"/><path class="a" d="M10.5 15.5h.75a2.25 2.25 0 0 1 0 4.5h-.75m-6-4.5v6a1.5 1.5 0 0 0 3 0v-6m12 0H18a1.5 1.5 0 0 0-1.5 1.5c0 2.25 3 2.25 3 4.5A1.5 1.5 0 0 1 18 23h-1.5M12 6h7.5M12 9h5.25M4.5 5.25H9v4.5H4.5z"/></svg>