<svg xmlns="http://www.w3.org/2000/svg" viewBox="0 0 24 24" width="24" height="24"><defs><style>.a{fill:none;stroke:#000;stroke-linecap:round;stroke-linejoin:round;stroke-width:1.5px}</style></defs><title>equalizer-stereo</title><rect class="a" x="6.75" y="6.75" width="10.5" height="16.5" rx="1.5" ry="1.5"/><circle class="a" cx="12" cy="18" r="2.25"/><circle class="a" cx="12" cy="11.25" r="1.5"/><path class="a" d="M.75 14.25h6m1.5 9h-6a1.5 1.5 0 0 1-1.5-1.5V2.25a1.5 1.5 0 0 1 1.5-1.5h3a1.5 1.5 0 0 1 1.5 1.5v1.5m16.5 10.5h-6m-1.5 9h6a1.5 1.5 0 0 0 1.5-1.5V2.25a1.5 1.5 0 0 0-1.5-1.5h-3a1.5 1.5 0 0 0-1.5 1.5v1.5"/></svg>