<svg xmlns="http://www.w3.org/2000/svg" viewBox="0 0 24 24" width="24" height="24"><defs><style>.a{fill:none;stroke:#000;stroke-linecap:round;stroke-linejoin:round;stroke-width:1.5px}</style></defs><title>equalizer-stereo-play</title><rect class="a" x="6.75" y="9.75" width="10.5" height="13.5" rx="1.5" ry="1.5"/><circle class="a" cx="12" cy="18" r="2.25"/><path class="a" d="M9.75 12.75h.75m3 0h.75m-13.5 1.5h6m1.5 9h-6a1.5 1.5 0 0 1-1.5-1.5V2.25a1.5 1.5 0 0 1 1.5-1.5h3a1.5 1.5 0 0 1 1.5 1.5v4.5m16.5 7.5h-6m-1.5 9h6a1.5 1.5 0 0 0 1.5-1.5V2.25a1.5 1.5 0 0 0-1.5-1.5h-3a1.5 1.5 0 0 0-1.5 1.5v4.5"/></svg>