<svg xmlns="http://www.w3.org/2000/svg" viewBox="0 0 24 24" width="24" height="24"><defs><style>.a{fill:none;stroke:#000;stroke-linecap:round;stroke-linejoin:round;stroke-width:1.5px}</style></defs><title>equipment-pressure-measure</title><rect class="a" x="3.75" y=".75" width="16.5" height="22.5" rx="1" ry="1"/><path class="a" d="M3.75 3.75h16.5v9H3.75z"/><path class="a" d="M9 12.75a3 3 0 0 1 6 0zm4.664-2.496L16.5 6"/><circle class="a" cx="9.75" cy="18" r="2.25"/><path class="a" d="M16.125 16.5a.375.375 0 1 1 .375.375.375.375 0 0 1-.375-.375m0 3a.375.375 0 1 1 .375.375.375.375 0 0 1-.375-.375"/></svg>