<svg xmlns="http://www.w3.org/2000/svg" viewBox="0 0 24 24" width="24" height="24"><defs><style>.a{fill:none;stroke:#000;stroke-linecap:round;stroke-linejoin:round;stroke-width:1.5px}</style></defs><title>equipment-cement-cart</title><circle class="a" cx="6.75" cy="18" r="3"/><path class="a" d="M4.518 16L.954 11.256A1.5 1.5 0 0 1 2.25 9H18a1.5 1.5 0 0 1 1.248 2.332l-6.056 6.215a1.5 1.5 0 0 1-1.075.453H9.75"/><path class="a" d="M18.75 11.843V18a1.5 1.5 0 0 1-2.561 1.061l-2.6-1.927m5.778-7.251L23.25 6m-6.417 3a2.517 2.517 0 0 0 .089-.665 2.63 2.63 0 0 0-3.11-2.623 4.649 4.649 0 0 0-8.452 0 2.63 2.63 0 0 0-3.11 2.623A2.909 2.909 0 0 0 2.327 9"/></svg>