<svg xmlns="http://www.w3.org/2000/svg" viewBox="0 0 24 24" width="24" height="24"><defs><style>.a{fill:none;stroke:#000;stroke-linecap:round;stroke-linejoin:round;stroke-width:1.5px}</style></defs><title>escalator-descend-person</title><path class="a" d="M7.5 22.688H3a2.25 2.25 0 0 1 0-4.5h3.568l8.341-8.341a2.251 2.251 0 0 1 1.591-.659H21a2.25 2.25 0 0 1 0 4.5h-3.568l-8.341 8.341a2.255 2.255 0 0 1-1.591.659zm14.25 0h-4.5v-4.5m0 4.5l6-6"/><circle class="a" cx="9" cy="3.563" r="2.25"/><path class="a" d="M6.75 13.688v-4.5a2.25 2.25 0 1 1 4.5 0"/></svg>