<svg xmlns="http://www.w3.org/2000/svg" viewBox="0 0 24 24" width="24" height="24"><defs><style>.a{fill:none;stroke:#000;stroke-linecap:round;stroke-linejoin:round;stroke-width:1.5px}</style></defs><title>escalator-ascend-person</title><path class="a" d="M7.5 22.313H3a2.25 2.25 0 0 1 0-4.5h3.568l8.341-8.341a2.251 2.251 0 0 1 1.591-.659H21a2.25 2.25 0 0 1 0 4.5h-3.568l-8.341 8.341a2.255 2.255 0 0 1-1.591.659zm11.25-6h4.5v4.5m0-4.5l-6 6"/><circle class="a" cx="9" cy="3.938" r="2.25"/><path class="a" d="M6.75 13.313v-3.75a2.25 2.25 0 1 1 4.5 0"/></svg>