<svg xmlns="http://www.w3.org/2000/svg" viewBox="0 0 24 24" width="24" height="24"><defs><style>.a{fill:none;stroke:#000;stroke-linecap:round;stroke-linejoin:round;stroke-width:1.5px}</style></defs><title>escalator-people</title><path class="a" d="M8.25 23.25h-4.5a3 3 0 0 1 0-6h3.258l7.371-7.371A3 3 0 0 1 16.5 9h3.75a3 3 0 0 1 0 6h-2.508l-7.371 7.371a3 3 0 0 1-2.121.879zm-1.5-9.75a2.25 2.25 0 0 0-4.5 0v.75"/><circle class="a" cx="4.5" cy="7.5" r="2.25"/><circle class="a" cx="12" cy="3" r="2.25"/><path class="a" d="M9.75 11.25V9A2.25 2.25 0 0 1 12 6.75"/><circle class="a" cx="19.5" cy="3" r="2.25"/></svg>