<svg xmlns="http://www.w3.org/2000/svg" viewBox="0 0 24 24" width="24" height="24"><g fill="none" stroke="#000" stroke-linejoin="round" stroke-miterlimit="10"><path stroke-linecap="round" d="M22.5 12.993c0 5.799-4.701 10.5-10.5 10.5s-10.5-4.701-10.5-10.5v-2C1.5 5.194 6.201.493 12 .493s10.5 4.701 10.5 10.5v2z"/><path stroke-linecap="round" d="M17.5 13.993a5.5 5.5 0 01-11 0v-3.5a5.5 5.5 0 0111 0v3.5zm-6-5a1 1 0 110-2m0-2a2 2 0 010 4m-2 1.5v2m5-2v2"/><path stroke-linecap="round" d="M14.501 15.442a3.493 3.493 0 01-2.5 1.051A3.488 3.488 0 019.5 15.441m2.502-10.448L12 .493"/><path d="M15.5 6.493l3.5-3.5m-1.5 8.5h5m-6.5 6.5l3 3m-7-1.5v4m-4-5.5l-3 3m1.5-9.5h-5m7-5L5 2.993"/></g><path fill="none" d="M0 0h24v24H0z"/></svg>