<svg xmlns="http://www.w3.org/2000/svg" viewBox="0 0 24 24" width="24" height="24"><g fill="none"><g stroke="#000" stroke-linejoin="round" stroke-miterlimit="10"><path d="M11.5.5h-8v10h7v10H.5v3h23V2c0-.828-.673-1.5-1.5-1.5H11.5z"/><path d="M18.5 23.5v-11h5"/><path stroke-linecap="round" d="M17.5 5.5h6m-6 2h6m-6 2h6"/><path d="M4.5 13.5h4v2h-4z"/><path stroke-linecap="round" d="M4.5 14.5h-4"/><path d="M7.5 13.5v-3m-2 3v-3"/><circle stroke-linecap="round" cx="7" cy="4" r="1.5"/><path stroke-linecap="round" d="M6.5 15.5v1"/></g><path d="M0 0h24v24H0z"/></g><path fill="none" d="M0 0h24v24H0z"/></svg>