<svg xmlns="http://www.w3.org/2000/svg" viewBox="0 0 24 24" width="24" height="24"><path fill="none" stroke="#000" stroke-linejoin="round" stroke-miterlimit="10" d="M20.5 12.5v7h-18v-13m18 0v4"/><circle fill="none" stroke="#000" stroke-linejoin="round" stroke-miterlimit="10" cx="11.5" cy="5.5" r="1.5"/><circle fill="none" stroke="#000" stroke-linejoin="round" stroke-miterlimit="10" cx="4.5" cy="3.5" r="1"/><path fill="none" stroke="#000" stroke-linejoin="round" stroke-miterlimit="10" d="M22.5 1.5a1 1 0 00-1-1h-20a1 1 0 00-1 1v4a1 1 0 001 1h4.059a2 2 0 011.897 1.367l.089.266A1.998 1.998 0 009.441 9.5h4.117a2 2 0 001.897-1.367l.088-.265A2.002 2.002 0 0117.441 6.5H21.5a1 1 0 001-1v-4z"/><path d="M17 3a.5.5 0 100 1 .5.5 0 000-1zm2 0a.5.5 0 100 1 .5.5 0 000-1z"/><path fill="none" stroke="#000" stroke-linejoin="round" stroke-miterlimit="10" d="M22.5 22.5a1 1 0 01-1 1h-20a1 1 0 01-1-1v-2a1 1 0 011-1h20a1 1 0 011 1v2z"/><path fill="none" stroke="#000" stroke-linejoin="round" stroke-miterlimit="10" d="M15 16a3.5 3.5 0 11-7 0v-.5h7v.5zM9.5 9.5h4v3h-4z"/><path fill="none" stroke="#000" stroke-linecap="round" stroke-linejoin="round" stroke-miterlimit="10" d="M11.5 12.5v1m2-2H18m0-1h4.5v2H18z"/><path fill="none" stroke="#000" stroke-linejoin="round" stroke-miterlimit="10" d="M15 15.5h1.25a1.25 1.25 0 010 2.5H16"/><path fill="none" d="M0 0h24v24H0z"/></svg>