<svg xmlns="http://www.w3.org/2000/svg" viewBox="0 0 24 24" width="24" height="24"><defs><style>.a{fill:none;stroke:#000;stroke-linecap:round;stroke-linejoin:round;stroke-width:1.5px}</style></defs><title>ethernet-port</title><rect class="a" x=".75" y=".75" width="22.5" height="22.5" rx="3" ry="3"/><path class="a" d="M18 6H6a1.5 1.5 0 0 0-1.5 1.5v6A1.5 1.5 0 0 0 6 15h3v1.5a1.5 1.5 0 0 0 1.5 1.5h3a1.5 1.5 0 0 0 1.5-1.5V15h3a1.5 1.5 0 0 0 1.5-1.5v-6A1.5 1.5 0 0 0 18 6zm-6 0v3.75M8.25 6v3.75M15.75 6v3.75"/></svg>