<svg xmlns="http://www.w3.org/2000/svg" viewBox="0 0 24 24" width="24" height="24"><g fill="none" stroke="#000" stroke-linejoin="round" stroke-miterlimit="10"><path stroke-linecap="round" d="M6.5 11.521V13.5m2-1.979V13.5m-2 6.021V21.5m2-1.979V21.5m2-6.5A1.5 1.5 0 019 16.5H5.5v-3H9c.828 0 1.5.673 1.5 1.5zm0 3A1.5 1.5 0 019 19.5H5.5v-3H9c.828 0 1.5.673 1.5 1.5z"/><circle cx="18.5" cy="5.5" r="5"/><circle cx="7.5" cy="16.5" r="7"/><path stroke-linecap="round" d="M17.341 6.659A1.158 1.158 0 1018.5 5.5a1.16 1.16 0 111.159-1.159M18.5 7.818v.773m0-6.182v.774M9 1c-2.762.009-5.009 2.238-5 5v1m12 14c2.762-.009 5.009-2.237 5-5v-1"/><path stroke-linecap="round" d="M2 5l2 2 2-2m13 12l2-2 2 2"/></g><path fill="none" d="M0 0h24v24H0z"/></svg>