<svg xmlns="http://www.w3.org/2000/svg" viewBox="0 0 24 24" width="24" height="24"><g fill="none" stroke="#000" stroke-linecap="round" stroke-linejoin="round" stroke-miterlimit="10"><circle cx="16" cy="8" r="7.5"/><path d="M16 11v1m0-8v1m-1.5 4.5A1.5 1.5 0 1016 8a1.5 1.5 0 111.5-1.5M8.526 8.526A7.487 7.487 0 00.5 16 7.5 7.5 0 008 23.5a7.486 7.486 0 007.475-8.026M8 20a3.5 3.5 0 110-7m-4.5 2.5h4m-4 2h4M.981 5.035l2.006 1.993 1.994-2.006"/><path d="M7.969 1.013a5 5 0 00-4.985 5.015v1m20.035 11.937l-2.006-1.993-1.994 2.006"/><path d="M16.031 22.987a4.999 4.999 0 004.984-5.016l-.003-1"/></g><path fill="none" d="M0 0h24v24H0z"/></svg>