<svg xmlns="http://www.w3.org/2000/svg" viewBox="0 0 24 24" width="24" height="24"><g fill="none" stroke="#000" stroke-linejoin="round" stroke-miterlimit="10"><circle cx="16" cy="8" r="7.5"/><path d="M12.657 1.254l1.597 3.713m-5.027-.214l3.705 1.559m6.411-5.058l-1.597 3.713m5.027-.214l-3.705 1.559m-6.411 8.434l1.597-3.712m-5.027.213l3.705-1.559m6.411 5.058l-1.597-3.712m5.027.213l-3.705-1.559"/><circle cx="16" cy="8" r="3.5"/><path stroke-linecap="round" d="M7.5 19.584v1.082M7.5 12v1.084m-1.625 4.874c0 .896.728 1.626 1.625 1.626a1.626 1.626 0 000-3.251 1.624 1.624 0 111.625-1.625M1 5l2 2 2-2"/><path stroke-linecap="round" d="M8 1c-2.762.009-5.009 2.238-5 5v1m20 12l-2-2-2 2"/><path stroke-linecap="round" d="M16 23c2.762-.009 5.009-2.237 5-5v-1M8.677 9.606C4.322 8.87.5 12.229.5 16.5a7 7 0 007 7c4.266 0 7.637-3.824 6.894-8.177"/></g><path fill="none" d="M0 0h24v24H0z"/></svg>