<svg xmlns="http://www.w3.org/2000/svg" viewBox="0 0 24 24" width="24" height="24"><defs><style>.a{fill:none;stroke:#000;stroke-linecap:round;stroke-linejoin:round;stroke-width:1.5px}</style></defs><title>exe-1</title><rect class="a" x=".749" y=".754" width="22.5" height="22.5" rx="1.5" ry="1.5"/><path class="a" d="M7.5 18H6a1.5 1.5 0 0 1-1.5-1.5V12A1.5 1.5 0 0 1 6 10.5h1.5m-3.001 4.504h3M19.5 18H18a1.5 1.5 0 0 1-1.5-1.5V12a1.5 1.5 0 0 1 1.5-1.5h1.5m-3.001 4.504h3m-9-4.5l3 7.5m0-7.5l-3 7.5"/></svg>