<svg id="Regular" xmlns="http://www.w3.org/2000/svg" viewBox="0 0 24 24" width="24" height="24"><defs><style>.cls-1{fill:none;stroke:#000;stroke-linecap:round;stroke-linejoin:round;stroke-width:1.5px}</style></defs><title>exotic-food-samosa-dip</title><path class="cls-1" d="M9.081 9.738a1.5 1.5 0 0 0 1.3-2.244L6.969 1.517a1.5 1.5 0 0 0-2.605 0L.949 7.494a1.5 1.5 0 0 0 1.3 2.244zm-5.665 0s4.36-2.848 4.36-6.807m10.616 7.153a1.5 1.5 0 0 0 2.483-.751l1.586-6.7a1.5 1.5 0 0 0-1.9-1.779l-6.579 2.037A1.5 1.5 0 0 0 13.4 5.42zm-4.14-3.868s5.131.9 7.834-2m1.165 12.272c0 1.242-2.351 2.25-5.25 2.25s-5.25-1.008-5.25-2.25 2.35-2.25 5.25-2.25"/><path class="cls-1" d="M12.751 16.488v1.5a5.25 5.25 0 0 0 10.5 0v-1.5M21 13.863a.375.375 0 1 1-.375.375.375.375 0 0 1 .375-.375"/></svg>