<svg id="Regular" xmlns="http://www.w3.org/2000/svg" viewBox="0 0 24 24" width="24" height="24"><defs><style>.cls-1{fill:none;stroke:#000;stroke-linecap:round;stroke-linejoin:round;stroke-width:1.5px}</style></defs><title>exotic-food-samosa</title><ellipse class="cls-1" cx="5.25" cy="3" rx="4.5" ry="2.25"/><path class="cls-1" d="M.75 3v2.25a4.5 4.5 0 0 0 9 0V3m10.5 14.25l3 1.5-10.5 4.5-10.5-4.5 3-1.5"/><path class="cls-1" d="M16.165 18.75a1.5 1.5 0 0 0 1.3-2.244l-3.416-5.977a1.5 1.5 0 0 0-2.6 0l-3.417 5.977a1.5 1.5 0 0 0 1.3 2.244zm-5.665 0s4.36-2.848 4.36-6.807"/></svg>