<svg id="Regular" xmlns="http://www.w3.org/2000/svg" viewBox="0 0 24 24" width="24" height="24"><defs><style>.cls-1{fill:none;stroke:#000;stroke-linecap:round;stroke-linejoin:round;stroke-width:1.5px}</style></defs><title>exotic-food-kebab</title><path class="cls-1" d="M6.75 23.25h10.5m-5.25-3v3m1.5-21a1.5 1.5 0 1 0-1.5 1.5v1.5m3.588 12.058a3.659 3.659 0 0 1-7.176 0l-1.335-6.676a4.5 4.5 0 0 1 4.412-5.382h1.022a4.5 4.5 0 0 1 4.412 5.382zM11.25 9.75H6.99m4.26 6h4.65m3.739-15c-1.436 2.873 2.9 3.881.75 6.75M4.361.75c1.436 2.873-2.9 3.881-.75 6.75"/></svg>