<svg xmlns="http://www.w3.org/2000/svg" viewBox="0 0 24 24" width="24" height="24"><defs><style>.a{fill:none;stroke:#000;stroke-linecap:round;stroke-linejoin:round;stroke-width:1.5px}</style></defs><title>eye-idea</title><path class="a" d="M6.5 9.193a5.988 5.988 0 1 1 11.462-2.428M6.143 11.3A20.816 20.816 0 0 1 1.05 7.659.958.958 0 0 1 1.02 6.3C2.554 4.676 6.763.778 11.764.778c4.2 0 9.192 3.9 11.088 5.517a.977.977 0 0 1 .348.715m-7.5 1.133V9.75m-7.5 6h1.607m13.393 0h-1.607m-12.079-4.9l1.365 1.364m11.007-1.364l-1.365 1.364M19.45 15.75a3.75 3.75 0 1 0-5.25 3.433V21h3v-1.817a3.746 3.746 0 0 0 2.25-3.433zm-5.25 7.5h3"/></svg>