<svg xmlns="http://www.w3.org/2000/svg" viewBox="0 0 24 24" width="24" height="24"><defs><style>.a{fill:none;stroke:#000;stroke-linecap:round;stroke-linejoin:round;stroke-width:1.5px}</style></defs><title>face-id-2</title><path class="a" d="M23.25 18.75v3a1.5 1.5 0 0 1-1.5 1.5h-3m0-22.5h3a1.5 1.5 0 0 1 1.5 1.5v3m-22.5 0v-3a1.5 1.5 0 0 1 1.5-1.5h3m0 22.5h-3a1.5 1.5 0 0 1-1.5-1.5v-3m6-6v.75a5.25 5.25 0 0 0 10.5 0v-.75"/><path class="a" d="M12.749 5.3a5.25 5.25 0 0 0-6 5.2v2.25A6 6 0 0 0 12 9.656a6 6 0 0 0 5.25 3.094V10.5a5.251 5.251 0 0 0-4.501-5.2zM11.25 15.75h1.5"/></svg>