<svg xmlns="http://www.w3.org/2000/svg" viewBox="0 0 24 24" width="24" height="24"><defs><style>.a{fill:none;stroke:#000;stroke-linecap:round;stroke-linejoin:round;stroke-width:1.5px}</style></defs><title>face-id-7</title><path class="a" d="M23.25 18.75v3a1.5 1.5 0 0 1-1.5 1.5h-3m0-22.5h3a1.5 1.5 0 0 1 1.5 1.5v3m-22.5 0v-3a1.5 1.5 0 0 1 1.5-1.5h3m0 22.5h-3a1.5 1.5 0 0 1-1.5-1.5v-3m14.15 1.5v-3.374l.7.118a2.1 2.1 0 0 0 2.444-2.071V13.2l.654-.164a1.049 1.049 0 0 0 .619-1.6L18.05 9.53v-.525c0-3.1-3.134-5.567-6.869-5.223A6.293 6.293 0 0 0 8.6 15.5v4.75"/></svg>