<svg xmlns="http://www.w3.org/2000/svg" viewBox="0 0 24 24" width="24" height="24"><defs><style>.a{fill:none;stroke:#000;stroke-linecap:round;stroke-linejoin:round;stroke-width:1.5px}</style></defs><title>face-id-3</title><path class="a" d="M23.25 18.75v3a1.5 1.5 0 0 1-1.5 1.5h-3m0-22.5h3a1.5 1.5 0 0 1 1.5 1.5v3m-22.5 0v-3a1.5 1.5 0 0 1 1.5-1.5h3m0 22.5h-3a1.5 1.5 0 0 1-1.5-1.5v-3M9 20.25H7.081a3 3 0 0 1-3-3l.008-7.083A7.911 7.911 0 0 1 12 2.25a7.911 7.911 0 0 1 7.911 7.912l.008 7.083a3 3 0 0 1-3 3H15"/><path class="a" d="M11.987 17.527a4.628 4.628 0 0 0 4.628-4.627v-2.516C13.221 9.746 12 6.277 12 6.277s-1.245 3.469-4.643 4.107V12.9a4.628 4.628 0 0 0 4.628 4.629zm-.737-3h1.5"/></svg>