<svg xmlns="http://www.w3.org/2000/svg" viewBox="0 0 24 24" width="24" height="24"><defs><style>.a{fill:none;stroke:#000;stroke-linecap:round;stroke-linejoin:round;stroke-width:1.5px}</style></defs><title>face-id-approved</title><path class="a" d="M19.5 9h1.917a1.833 1.833 0 0 1 1.833 1.833v10.584a1.833 1.833 0 0 1-1.833 1.833h-4.584A1.833 1.833 0 0 1 15 21.417V18m-4.007-.739v-2.277l.764.128a2.276 2.276 0 0 0 2.65-2.246V11l.71-.177a1.139 1.139 0 0 0 .671-1.736l-1.381-2.07v-.568c0-3.358-3.4-6.038-7.449-5.664a6.824 6.824 0 0 0-2.794 12.709v3.767"/><path class="a" d="M21 15.375L18.375 18l-1.125-1.5"/></svg>