<svg xmlns="http://www.w3.org/2000/svg" viewBox="0 0 24 24" width="24" height="24"><defs><style>.a{fill:none;stroke:#000;stroke-linecap:round;stroke-linejoin:round;stroke-width:1.5px}</style></defs><title>face-id-scan-1</title><path class="a" d="M10.993 17.261v-2.277l.764.128a2.276 2.276 0 0 0 2.65-2.246V11l.71-.177a1.139 1.139 0 0 0 .671-1.736l-1.381-2.07v-.568c0-3.358-3.4-6.038-7.449-5.664a6.824 6.824 0 0 0-2.794 12.709v3.767m16.102 5.063a1.5 1.5 0 0 1-2.772-1.148l2.87-6.929a1.5 1.5 0 1 1 2.772 1.153zm-8.328-.311a.125.125 0 1 1-.147-.1.124.124 0 0 1 .147.1M9 22.6a.125.125 0 1 1-.147-.1.124.124 0 0 1 .147.1m5.88-1.175a.125.125 0 0 1-.1.147.125.125 0 1 1-.049-.245.126.126 0 0 1 .147.1M19.27 7.72a.125.125 0 1 1-.079.158.125.125 0 0 1 .079-.158m.941 2.848a.125.125 0 1 1-.08.158.126.126 0 0 1 .08-.158m-1.882-5.697a.125.125 0 1 1-.079.158.125.125 0 0 1 .079-.158"/></svg>