<svg xmlns="http://www.w3.org/2000/svg" viewBox="0 0 24 24" width="24" height="24"><defs><style>.a{fill:none;stroke:#000;stroke-linecap:round;stroke-linejoin:round;stroke-width:1.5px}</style></defs><title>family-outdoors-tree-house</title><path class="a" d="M11.689 6.311a1.5 1.5 0 0 0-.439 1.06V13.5a1.5 1.5 0 0 0 1.5 1.5h9a1.5 1.5 0 0 0 1.5-1.5V7.371a1.5 1.5 0 0 0-.439-1.06L17.25.75zM14.25 15v8.25m6-8.25v8.25m-6-5.25h6m-6 3h6m-12-8.439A6 6 0 1 1 11.434 3M6.75 7.5v15.75m0-5.25H6a3 3 0 0 1-3-3"/><path class="a" d="M15 15v-3a2.25 2.25 0 0 1 4.5 0v3"/></svg>