<svg xmlns="http://www.w3.org/2000/svg" viewBox="0 0 24 24" width="24" height="24"><defs><style>.a{fill:none;stroke:#000;stroke-linecap:round;stroke-linejoin:round;stroke-width:1.5px}</style></defs><title>family-walk-park</title><path class="a" d="M18.332.75l-2.25 6h4.5l-2.25-6zm0 8.25V6.75"/><circle class="a" cx="8.582" cy="5.625" r="2.625"/><circle class="a" cx="19.832" cy="13.875" r="1.875"/><path class="a" d="M13.819 11.993A7.429 7.429 0 0 0 7.832 9a7.518 7.518 0 0 0-6.457 3.7 1.5 1.5 0 0 0 2.587 1.52 4.489 4.489 0 0 1 2.953-2.1L6.4 15.208l-3.59 5.747a1.5 1.5 0 1 0 2.543 1.591l2.885-4.616.5.371a1.5 1.5 0 0 1 .6 1.2v2.25a1.5 1.5 0 0 0 3 0V19.5a4.52 4.52 0 0 0-1.8-3.6l-1.072-.8.432-2.591a4.472 4.472 0 0 1 1.524 1.291 1.5 1.5 0 0 0 2.4-1.8zm1.513 4.507a5.625 5.625 0 0 0 4.5 2.25 7.474 7.474 0 0 0 3-.75m-4.261.611l-1.739 4.639m1.05-2.8l1.287.858a3 3 0 0 1 1.019 1.155l.394.787"/></svg>