<svg xmlns="http://www.w3.org/2000/svg" viewBox="0 0 24 24" width="24" height="24"><defs><style>.a{fill:none;stroke:#000;stroke-linecap:round;stroke-linejoin:round;stroke-width:1.5px}</style></defs><title>family-child-play-car</title><path class="a" d="M3.75 20.813a.375.375 0 1 1-.375.375.375.375 0 0 1 .375-.375m7.5 0a.375.375 0 1 1-.375.375.375.375 0 0 1 .375-.375m-4.5.375h1.5m-7.5-.75v-1.5a1.5 1.5 0 0 1 1.5-1.5H4.5l.466-1.864a1.5 1.5 0 0 1 1.455-1.136H9a.75.75 0 0 1 .75.75v2.25h3.75a.75.75 0 0 1 .75.75v2.25"/><circle class="a" cx="11.25" cy="4.313" r="2.625"/><path class="a" d="M21.75 18.938H18a1.5 1.5 0 0 1-1.4-2.028l1.833-4.885-2.393-1.592-2.887 3.467a1.5 1.5 0 0 1-2.306-1.922l3.75-4.5a1.5 1.5 0 0 1 1.985-.287l4.5 3a1.5 1.5 0 0 1 .573 1.775l-1.49 3.973h1.585a1.5 1.5 0 1 1 0 3z"/></svg>