<svg xmlns="http://www.w3.org/2000/svg" viewBox="0 0 24 24" width="24" height="24"><defs><style>.a{fill:none;stroke:#000;stroke-linecap:round;stroke-linejoin:round;stroke-width:1.5px}</style></defs><title>family-child-jumping-rope</title><path class="a" d="M9.375 6.372A2.625 2.625 0 1 1 12 9a2.625 2.625 0 0 1-2.625-2.628m11.936 3.814a1.5 1.5 0 0 0-2.122 0l-.72.721a1.493 1.493 0 0 1-1.732.281l-1.066-.533A1.5 1.5 0 0 0 15 10.5H9a1.5 1.5 0 0 0-.671.158l-1.066.533a1.5 1.5 0 0 1-1.732-.281l-.72-.721a1.5 1.5 0 0 0-2.122 2.121l.721.721a4.493 4.493 0 0 0 5.194.844l.379-.19a2.981 2.981 0 0 1-.3 1.2L7.5 17.247H9v1.342a1.488 1.488 0 0 1-.252.832l-1 1.494a1.5 1.5 0 1 0 2.5 1.664l1-1.494a4.483 4.483 0 0 0 .756-2.5 4.483 4.483 0 0 0 .756 2.5l1 1.494a1.5 1.5 0 0 0 2.5-1.664l-1-1.494a1.488 1.488 0 0 1-.26-.832v-1.342h1.5l-1.183-2.367a2.981 2.981 0 0 1-.3-1.2l.379.19a4.493 4.493 0 0 0 5.194-.844l.721-.721a1.5 1.5 0 0 0 0-2.119zm-1.193-2.665a8.251 8.251 0 0 0-16.236 0"/></svg>