<svg xmlns="http://www.w3.org/2000/svg" viewBox="0 0 24 24" width="24" height="24"><defs><style>.a{fill:none;stroke:#000;stroke-linecap:round;stroke-linejoin:round;stroke-width:1.5px}</style></defs><title>family-hold</title><path class="a" d="M.759 14.25v9m0-1.5h15a3 3 0 0 0-3-3h-3.75a3 3 0 0 0-3-3H.759m5.25 3h3"/><circle class="a" cx="19.509" cy="3.75" r="3"/><path class="a" d="M23.259 12a3.75 3.75 0 0 0-6-3"/><circle class="a" cx="6.009" cy="3.75" r="3"/><path class="a" d="M2.259 12a3.751 3.751 0 0 1 6-3"/><circle class="a" cx="12.759" cy="7.5" r="2.25"/><path class="a" d="M12.759 11.25a3.749 3.749 0 0 0-3.437 2.25m3.437-2.25a3.75 3.75 0 0 1 3.75 3.75"/></svg>