<svg xmlns="http://www.w3.org/2000/svg" viewBox="0 0 24 24" width="24" height="24"><defs><style>.a{fill:none;stroke:#000;stroke-linecap:round;stroke-linejoin:round;stroke-width:1.5px}</style></defs><title>family-outdoors-teeter</title><path class="a" d="M.75 19.408a18.758 18.758 0 0 1 22.5 0M10.5 15.719V8.91a1.5 1.5 0 0 1 3 0v6.809m-3-4.953l-7.516 2.041A1.5 1.5 0 0 1 2.2 9.912l1.448-.393a1.5 1.5 0 0 1 1.841 1.055l.393 1.447"/><path class="a" d="M18.183 8.681l-.393-1.448a1.5 1.5 0 0 1 1.055-1.841l2.171-.592a1.5 1.5 0 1 1 .784 2.9l-8.3 2.252"/></svg>