<svg xmlns="http://www.w3.org/2000/svg" viewBox="0 0 24 24" width="24" height="24"><defs><style>.a{fill:none;stroke:#000;stroke-linecap:round;stroke-linejoin:round;stroke-width:1.5px}</style></defs><title>family-child-hold-hand</title><circle class="a" cx="17.25" cy="8.625" r="2.625"/><path class="a" d="M20.25 18.75V16.5m-1.5 6a1.5 1.5 0 0 0 1.5-1.5v-2.25a1.5 1.5 0 0 0 3 0v-1.5a4.5 4.5 0 0 0-4.5-4.5h-4.072L11.9 10.533a1.5 1.5 0 0 0-1.952 2.276l4.305 3.523V21a1.5 1.5 0 0 0 3 0 1.5 1.5 0 0 0 1.497 1.5zm-15-21L8.25 15h-4.5v6a1.5 1.5 0 0 1-3 0v-6m16.5 6v-2.25"/></svg>