<svg xmlns="http://www.w3.org/2000/svg" viewBox="0 0 24 24" width="24" height="24"><defs><style>.a{fill:none;stroke:#000;stroke-linecap:round;stroke-linejoin:round;stroke-width:1.5px}</style></defs><title>family-child-play-ball</title><path class="a" d="M22.682 11.687l-2.121-2.121a4.473 4.473 0 0 0-3.182-1.319h-5.8a1.508 1.508 0 0 1-1.287-.728L8.915 5.225a1.5 1.5 0 0 0-2.572 1.544l1.375 2.3a4.53 4.53 0 0 0 3.86 2.182h1.863l-.477 3h-2.335a4.48 4.48 0 0 0-4.179 2.825l-.75 1.865a1.5 1.5 0 0 0 2.79 1.113l.746-1.863a1.493 1.493 0 0 1 1.393-.944h1.857l-.129.809a4.488 4.488 0 0 0 .689 3.272l.835 1.251a1.5 1.5 0 0 0 2.5-1.664l-.834-1.249a1.518 1.518 0 0 1-.227-1.115l1.163-7.3h.9a1.507 1.507 0 0 1 1.06.44l2.122 2.121a1.5 1.5 0 0 0 2.121-2.121z"/><circle class="a" cx="15.504" cy="3.372" r="2.625"/><circle class="a" cx="3.129" cy="13.497" r="2.25"/></svg>