<svg id="Regular" xmlns="http://www.w3.org/2000/svg" viewBox="0 0 24 24" width="24" height="24"><defs><style>.cls-1{fill:none;stroke:#000;stroke-linecap:round;stroke-linejoin:round;stroke-width:1.5px}</style></defs><title>famous-character-flapjack</title><path class="cls-1" d="M4 7.994V15c0 3.75 4.909 8.25 9 8.25s9-4.5 9-8.25V9c0-3 0-6-1.5-6 0-1.5-.75-2.25-3-2.25h-12A4.018 4.018 0 0 0 1.75 4.5 3.543 3.543 0 0 0 5.5 8.25h6.563a1.51 1.51 0 1 1 0 3"/><path class="cls-1" d="M22 12a3.443 3.443 0 0 1-3.582-2.727 1.5 1.5 0 0 0-1.447-1.11h-.221m-.375 4.587a.375.375 0 0 1 .375.375m-.75 0a.375.375 0 0 1 .375-.375m0 .75a.375.375 0 0 1-.375-.375m.75 0a.375.375 0 0 1-.375.375m-7.5-.75a.375.375 0 0 1 .375.375m-.75 0a.375.375 0 0 1 .375-.375m0 .75a.375.375 0 0 1-.375-.375m.75 0a.375.375 0 0 1-.375.375M10.75 18a3.285 3.285 0 0 0 2.25.75 3.285 3.285 0 0 0 2.25-.75"/></svg>