<svg id="Regular" xmlns="http://www.w3.org/2000/svg" viewBox="0 0 24 24" width="24" height="24"><defs><style>.cls-1{fill:none;stroke:#000;stroke-linecap:round;stroke-linejoin:round;stroke-width:1.5px}</style></defs><title>famous-character-1</title><path class="cls-1" d="M10.5 20.25h3l2.25 1.685L17.25 15l3-2.25v-4.5c0-4.142-4.108-7.5-8.25-7.5s-8.25 3.358-8.25 7.5v4.5l3 2.25 1.5 6.935 2.25-1.685h3"/><path class="cls-1" d="M8.014 1.777L10.5 6.75h3l2.486-4.973M13.5 9.75V12l3.75-.75V9l-3.75.75h-3L6.75 9v2.25l3.75.75V9.75m-6.75 3v4.569a1.5 1.5 0 0 0 .512 1.129l5.064 4.431a1.5 1.5 0 0 0 .988.371h3.372a1.5 1.5 0 0 0 .988-.371l5.064-4.431a1.5 1.5 0 0 0 .512-1.129V12.75m-9.75 4.5h3"/></svg>