<svg id="Regular" xmlns="http://www.w3.org/2000/svg" viewBox="0 0 24 24" width="24" height="24"><defs><style>.cls-1{fill:none;stroke:#000;stroke-linecap:round;stroke-linejoin:round;stroke-width:1.5px}</style></defs><title>famous-character-star-wars-1</title><path class="cls-1" d="M9.032 13.75H6.75a1.5 1.5 0 0 0-1.5 1.5v5.25h13.5v-5.25a1.5 1.5 0 0 0-1.5-1.5h-2.282"/><path class="cls-1" d="M15 14L13.487 2.338a1.5 1.5 0 0 0-2.974 0L9 14v6.5h6z"/><path class="cls-1" d="M9 14.5s1.5-2.25 3-2.25S15 14 15 14m-9.75 6.5l-3.474-1.158A1.5 1.5 0 0 1 .75 17.919V16h4.5zM.75 16V7.75M.75 4V2.5m18 18l3.474-1.158a1.5 1.5 0 0 0 1.026-1.423V16h-4.5zm4.5-4.5V7.75m0-3.75V2.5M7.5 20.5v2.25m9-2.25v2.25"/></svg>