<svg id="Regular" xmlns="http://www.w3.org/2000/svg" viewBox="0 0 24 24" width="24" height="24"><defs><style>.cls-1{fill:none;stroke:#000;stroke-linecap:round;stroke-linejoin:round;stroke-width:1.5px}</style></defs><title>famous-character-mr-potato-head</title><path class="cls-1" d="M18.111 6.744A22 22 0 0 1 20.25 15a8.25 8.25 0 0 1-16.5 0 21.981 21.981 0 0 1 2.136-8.25M3 6.75h18"/><path class="cls-1" d="M4.722 9.75H3a1.5 1.5 0 0 0 0 3h.972m15.306-3H21a1.5 1.5 0 0 1 0 3h-.972M6 6.75a6 6 0 0 1 12 0"/><circle class="cls-1" cx="7.5" cy="12" r="3"/><circle class="cls-1" cx="16.5" cy="12" r="3"/><path class="cls-1" d="M7.5 11.625a.375.375 0 0 1 .375.375m-.75 0a.375.375 0 0 1 .375-.375m0 .75A.375.375 0 0 1 7.125 12m.75 0a.375.375 0 0 1-.375.375m9-.75a.375.375 0 0 1 .375.375m-.75 0a.375.375 0 0 1 .375-.375m0 .75a.375.375 0 0 1-.375-.375m.75 0a.375.375 0 0 1-.375.375M8.25 19.5a3.75 3.75 0 0 1 7.5 0h-7.5z"/></svg>