<svg id="Regular" xmlns="http://www.w3.org/2000/svg" viewBox="0 0 24 24" width="24" height="24"><defs><style>.cls-1,.cls-2{fill:none;stroke:#000;stroke-linecap:round;stroke-linejoin:round}.cls-1{stroke-width:1.5px}</style></defs><title>famous-character-cat</title><ellipse class="cls-1" cx="14.756" cy="11.137" rx="3.006" ry="4.038"/><ellipse class="cls-1" cx="8.744" cy="11.137" rx="3.006" ry="4.038"/><ellipse class="cls-2" cx="11.75" cy="17.193" rx="1.25" ry=".839"/><path class="cls-1" d="M16.411 18.391a6.978 6.978 0 0 1-9.38.039m1.713-7.798v1.756m6.012-1.756v1.756"/><path class="cls-1" d="M16.822 14.071a2.541 2.541 0 0 1 3.947 2.113c0 .38-2.345 7.066-9.019 7.066s-9.019-6.642-9.019-7.066a2.541 2.541 0 0 1 3.947-2.113m-5.428.645a2.949 2.949 0 0 1 1.481 1.468m19.519-1.468a2.949 2.949 0 0 0-1.481 1.468m1.481-4.572c-3.162-1.653-3.694-3.092-4.032-4.238l-.381-6.15a.5.5 0 0 0-.871-.308L13.208 5.08a8.058 8.058 0 0 0-2.916 0L6.534.916a.5.5 0 0 0-.871.308l-.381 6.15c-.338 1.146-.87 2.585-4.032 4.238"/></svg>