<svg id="Regular" xmlns="http://www.w3.org/2000/svg" viewBox="0 0 24 24" width="24" height="24"><defs><style>.cls-1{fill:none;stroke:#000;stroke-linecap:round;stroke-linejoin:round;stroke-width:1.5px}</style></defs><title>famous-character-power-ranger-2</title><path class="cls-1" d="M5.091 6.445A7.052 7.052 0 0 1 12 1.5a7.038 7.038 0 0 1 6.908 4.946M4.5 13.011v2.739c0 3.728 4.167 6.75 7.5 6.75s7.5-3.022 7.5-6.75v-2.739"/><path class="cls-1" d="M12 16.5s.75-5.25 2.25-6.75 9-6 9-6A21.079 21.079 0 0 1 22.5 9a9.06 9.06 0 0 1-5.25 5.25A49.941 49.941 0 0 0 12 16.5zm0 0s-.75-5.25-2.25-6.75-9-6-9-6A21.079 21.079 0 0 0 1.5 9a9.06 9.06 0 0 0 5.25 5.25A49.941 49.941 0 0 1 12 16.5zm3.75-4.5l1.5-1.5m-9 1.5l-1.5-1.5m3.75 9a1.875 1.875 0 0 1 3 0m3-4.983v6.395m-9-6.395v6.395"/></svg>