<svg id="Regular" xmlns="http://www.w3.org/2000/svg" viewBox="0 0 24 24" width="24" height="24"><defs><style>.cls-1{fill:none;stroke:#000;stroke-linecap:round;stroke-linejoin:round;stroke-width:1.5px}</style></defs><title>famous-character-black-lightning</title><path class="cls-1" d="M3.75 8.25c0-4.142 3.694-7.5 8.25-7.5s8.25 3.358 8.25 7.5m0 6.75c0 3.75-4.5 8.25-8.25 8.25S3.75 18.75 3.75 15m16.5-2.25L21 10.5l1.5 1.5.75-3.75m-19.5 4.5L3 10.5 1.5 12 .75 8.25M13.5 12s2.25-1.5 3-1.5a2.619 2.619 0 0 1 1.5.75s0 2.25-1.5 2.25c-3 0-3-1.5-3-1.5zm-3 0s-2.25-1.5-3-1.5a2.619 2.619 0 0 0-1.5.75s0 2.25 1.5 2.25c3 0 3-1.5 3-1.5zm3.75-5.25l1.696-5.088M9.75 6.75L8.054 1.662"/><path class="cls-1" d="M5.9 19.915l.658-2.629a.75.75 0 0 1 .964-.53L9 17.25l2.329-1.165a1.5 1.5 0 0 1 1.342 0L15 17.25l1.482-.494a.75.75 0 0 1 .964.53l.658 2.629"/><path class="cls-1" d="M9.75 20.25A3.285 3.285 0 0 1 12 19.5a3.285 3.285 0 0 1 2.25.75"/></svg>