<svg id="Regular" xmlns="http://www.w3.org/2000/svg" viewBox="0 0 24 24" width="24" height="24"><defs><style>.cls-1{fill:none;stroke:#000;stroke-linecap:round;stroke-linejoin:round;stroke-width:1.5px}</style></defs><title>famous-character-power-ranger</title><path class="cls-1" d="M4.5 12.75v3.75c0 4.5 4.5 6.75 7.5 6.75s7.5-2.25 7.5-6.75v-3.75m-15-6c0-3.314 3.358-6 7.5-6s7.5 2.686 7.5 6m0 0h-15c-1.243 0-2.25 1.343-2.25 3s1.007 3 2.25 3h15c1.243 0 2.25-1.343 2.25-3s-1.007-3-2.25-3zM6 9.75h12m-12.497-6h12.994M10.5 16.5a1.875 1.875 0 0 1 3 0"/><path class="cls-1" d="M7.5 12.75v4.5A2.774 2.774 0 0 0 9 19.5s.75-.75 3-.75 3 .75 3 .75 1.5 0 1.5-2.25v-4.5"/></svg>