<svg id="Regular" xmlns="http://www.w3.org/2000/svg" viewBox="0 0 24 24" width="24" height="24"><defs><style>.cls-1{fill:none;stroke:#000;stroke-linecap:round;stroke-linejoin:round;stroke-width:1.5px}</style></defs><title>famous-character-wall-e</title><path class="cls-1" d="M12 .75v10.5m-5 0h10a1 1 0 0 1 1 1v8H6v-8a1 1 0 0 1 1-1zm-5.75 3H6v8.5a.5.5 0 0 1-.5.5H1.25a.5.5 0 0 1-.5-.5v-8a.5.5 0 0 1 .5-.5zm16.75 0h4.75a.5.5 0 0 1 .5.5v8a.5.5 0 0 1-.5.5H18.5a.5.5 0 0 1-.5-.5v-8.5zm-12 0h12M12 .75s-.75 6-6 6a3 3 0 0 1 0-6zM6.75 3.375a.375.375 0 0 1 .375.375m-.75 0a.375.375 0 0 1 .375-.375m0 .75a.375.375 0 0 1-.375-.375m.75 0a.375.375 0 0 1-.375.375M12 .75s.75 6 6 6a3 3 0 0 0 0-6zm5.25 2.625a.375.375 0 0 0-.375.375m.75 0a.375.375 0 0 0-.375-.375m0 .75a.375.375 0 0 0 .375-.375m-.75 0a.375.375 0 0 0 .375.375"/></svg>