<svg id="Regular" xmlns="http://www.w3.org/2000/svg" viewBox="0 0 24 24" width="24" height="24"><defs><style>.cls-1{fill:none;stroke:#000;stroke-linecap:round;stroke-linejoin:round;stroke-width:1.5px}</style></defs><title>famous-character-uzumaki-naruto</title><path class="cls-1" d="M3.711 7.424h16.5v3.75h-16.5z"/><path class="cls-1" d="M9.711 7.424h4.5v3.75h-4.5zm10.5 0l1.739-1.3a.75.75 0 0 0-.268-1.328l-1.471-.368V2.532a.75.75 0 0 0-1.029-.7l-2.721 1.092-1.061-1.59a.75.75 0 0 0-1.074-.184l-2.365 1.774L9.6 1.15a.75.75 0 0 0-1.074.184l-1.06 1.59-2.727-1.088a.749.749 0 0 0-1.028.7v1.888l-1.472.368a.75.75 0 0 0-.268 1.328l1.74 1.3m15.75 4.504v-.75h-15v.75c-.829 0-1.5 1.008-1.5 2.25s.671 2.25 1.5 2.25c.025 0 .049-.009.074-.011a7.458 7.458 0 0 0 14.851 0c.025 0 .049.011.075.011.828 0 1.5-1.007 1.5-2.25s-.672-2.25-1.5-2.25zm-5.25 3l2.25-.75m-6.75.75l-2.25-.75m-2.228 4.743l2.978-.993m-1.298 3.274l2.048-1.024m9.727-1.257l-2.977-.993m1.298 3.274l-2.048-1.024"/></svg>