<svg id="Regular" xmlns="http://www.w3.org/2000/svg" viewBox="0 0 24 24" width="24" height="24"><defs><style>.cls-1{fill:none;stroke:#000;stroke-linecap:round;stroke-linejoin:round;stroke-width:1.5px}</style></defs><title>famous-character-yoda</title><path class="cls-1" d="M6 6.75a6 6 0 0 1 12 0v3a6 6 0 0 1-12 0z"/><path class="cls-1" d="M8.25 6a2.619 2.619 0 0 1 1.5-.75c1.5 0 1.5.75 2.25.75s.75-.75 2.25-.75a2.619 2.619 0 0 1 1.5.75M9.375 8.25a.375.375 0 0 1 .375.375m-.75 0a.375.375 0 0 1 .375-.375m0 .75A.375.375 0 0 1 9 8.625m.75 0A.375.375 0 0 1 9.375 9m5.25-.75a.375.375 0 0 1 .375.375m-.75 0a.375.375 0 0 1 .375-.375m0 .75a.375.375 0 0 1-.375-.375m.75 0a.375.375 0 0 1-.375.375M9.75 12a7.555 7.555 0 0 0 2.25.75 7.555 7.555 0 0 0 2.25-.75m-8.204-1.5a3.925 3.925 0 0 1-3.8-2.25A9.282 9.282 0 0 0 .75 6h1.5A15.258 15.258 0 0 1 6 6.75m11.954 3.75a3.925 3.925 0 0 0 3.8-2.25A9.282 9.282 0 0 1 23.25 6h-1.5a15.258 15.258 0 0 0-3.75.75M3 23.25s0-3 3.75-4.5c1.5 2.25 9 4.5 9 4.5"/><path class="cls-1" d="M11.735 21.812a12.632 12.632 0 0 0 5.515-3.062c3.75 1.5 3.75 4.5 3.75 4.5m-14.25-4.5a24.781 24.781 0 0 1 10.5 0"/></svg>