<svg id="Regular" xmlns="http://www.w3.org/2000/svg" viewBox="0 0 24 24" width="24" height="24"><defs><style>.cls-1{fill:none;stroke:#000;stroke-linecap:round;stroke-linejoin:round;stroke-width:1.5px}</style></defs><title>famous-character-kermit</title><path class="cls-1" d="M9.75 6a.75.75 0 0 1-.75.75H4.5A.75.75 0 0 1 3.75 6V3.75a3 3 0 0 1 6 0zm6 0a.75.75 0 0 1-.75.75h-4.5A.75.75 0 0 1 9.75 6V3.75a3 3 0 0 1 6 0zm4.5 12l3 .75a4.5 4.5 0 1 1-1.481-3.337zM6.75 3.375a.375.375 0 0 1 .375.375m-.75 0a.375.375 0 0 1 .375-.375m0 .75a.375.375 0 0 1-.375-.375m.75 0a.375.375 0 0 1-.375.375m6-.75a.375.375 0 0 1 .375.375m-.75 0a.375.375 0 0 1 .375-.375m0 .75a.375.375 0 0 1-.375-.375m.75 0a.375.375 0 0 1-.375.375"/><path class="cls-1" d="M11.25 15.677C6.31 16.255.75 13.906.75 8.665a3.416 3.416 0 0 1 3-3.39m12 0a3.416 3.416 0 0 1 3 3.39 6.461 6.461 0 0 1-.514 2.585"/><path class="cls-1" d="M5.25 9.75H15s-3 3-5.25 3-4.5-3-4.5-3z"/></svg>