<svg id="Regular" xmlns="http://www.w3.org/2000/svg" viewBox="0 0 24 24" width="24" height="24"><defs><style>.cls-1{fill:none;stroke:#000;stroke-linecap:round;stroke-linejoin:round;stroke-width:1.5px}</style></defs><title>famous-character-spiderman</title><path class="cls-1" d="M20.25 15c0 3.75-4.5 8.25-8.25 8.25S3.75 18.75 3.75 15V9a8.25 8.25 0 0 1 16.5 0z"/><path class="cls-1" d="M13.5 13.5s0-3.281 1.44-3.937l2.88-1.313s.72 3.938-.72 4.594a10.475 10.475 0 0 1-3.6.656zm-3 0s0-3.281-1.44-3.937L6.18 8.25s-.72 3.938.72 4.594a10.475 10.475 0 0 0 3.6.656zM12 .75V7.5m4.841-5.181L15 6M7.159 2.319L9 6m3 17.25v-7.5m6.221 4.027L15 15.75m-6 0l-3.221 4.027m10.555-2.359A5.688 5.688 0 0 1 12 19.5a5.688 5.688 0 0 1-4.334-2.082M8.25 4.5A9.1 9.1 0 0 1 12 3.75a9.1 9.1 0 0 1 3.75.75"/></svg>