<svg id="Regular" xmlns="http://www.w3.org/2000/svg" viewBox="0 0 24 24" width="24" height="24"><defs><style>.cls-1{fill:none;stroke:#000;stroke-linecap:round;stroke-linejoin:round;stroke-width:1.5px}</style></defs><title>famous-character-darth-vader</title><path class="cls-1" d="M5.312 22.564L6 15v-3.75c0-1.5.75-1.5 3-1.5a5.237 5.237 0 0 1 3 1.5 5.237 5.237 0 0 1 3-1.5c2.25 0 3 0 3 1.5V15l.688 7.568a.749.749 0 0 0 .747.682h.815a3 3 0 0 0 3-3l-3-10.5c0-5.052-2.779-8.716-7.668-8.984A8.611 8.611 0 0 0 3.75 9.5l-3 10.745a3 3 0 0 0 3 3h.815a.749.749 0 0 0 .747-.681z"/><path class="cls-1" d="M8.25 21.746l2.478-3.964a1.5 1.5 0 0 1 2.544 0l2.478 3.964zm9.75-7.5h-2.25c-1.5 0-3.75 0-3.75-3 0 3-2.25 3-3.75 3H6"/><path class="cls-1" d="M5.827 16.9l2.423 4.846h7.5l2.423-4.846M14.318 1.019L13.5 6.746h-3l-.802-5.612"/></svg>