<svg id="Regular" xmlns="http://www.w3.org/2000/svg" viewBox="0 0 24 24" width="24" height="24"><defs><style>.cls-1{fill:none;stroke:#000;stroke-linecap:round;stroke-linejoin:round;stroke-width:1.5px}</style></defs><title>famous-character-vegeta</title><path class="cls-1" d="M17.25 20.5A7.572 7.572 0 0 1 12 22.75a7.566 7.566 0 0 1-5.25-2.25M5.913 3.891a7.854 7.854 0 0 1 12.174 0"/><path class="cls-1" d="M12 11.5l7.664-9.58A.75.75 0 0 1 21 2.388V4.75l1.263-.421a.75.75 0 0 1 .987.712v7.209c0 3.75-6 8.25-6 8.25V16a3.25 3.25 0 0 0 1.5-3V9.654a.749.749 0 0 0-1.05-.685zm0 0L4.336 1.92A.75.75 0 0 0 3 2.388V4.75l-1.263-.421a.75.75 0 0 0-.987.712v7.209c0 3.75 6 8.25 6 8.25V16a3.25 3.25 0 0 1-1.5-3V9.654a.749.749 0 0 1 1.055-.685z"/><path class="cls-1" d="M9 7.75a5.237 5.237 0 0 1 3-1.5 5.237 5.237 0 0 1 3 1.5m-3.75-4.5h1.5m.75 11.25l2.25-1.5m-5.25 1.5L8.25 13m1.5 6.75A3.285 3.285 0 0 1 12 19a3.285 3.285 0 0 1 2.25.75"/></svg>