<svg id="Regular" xmlns="http://www.w3.org/2000/svg" viewBox="0 0 24 24" width="24" height="24"><defs><style>.cls-1{fill:none;stroke:#000;stroke-linecap:round;stroke-linejoin:round;stroke-width:1.5px}</style></defs><title>famous-character-poseidon</title><path class="cls-1" d="M5.149 11.818A5.23 5.23 0 0 1 3.75 8.25V4.5A2.4 2.4 0 0 1 6 2.25h6a2.4 2.4 0 0 1 2.25 2.25v3.75a5.233 5.233 0 0 1-1.386 3.55"/><path class="cls-1" d="M12.75 10.9A3.589 3.589 0 0 0 9 7.5a3.589 3.589 0 0 0-3.75 3.4c0 2.723-2.25 2.723-2.25 2.723a2.759 2.759 0 0 0 2.25 1.361c-.75 2.041-.75 4.082 1.5 5.443a6.313 6.313 0 0 0 5.25 0c-.75-.681-.474-1.861 0-2.722a3.012 3.012 0 0 0 0-2.721s2.25.68 3-1.361c-1.5 0-2.25-1.361-2.25-2.723zm-4.5-.4h1.5m.75-5.25L12 4.5m-4.5.75L6 4.5m.75-2.25a1.469 1.469 0 0 1-1.5-1.5m6 1.5a1.469 1.469 0 0 0 1.5-1.5M9 2.25V.75M20.25 3v20.25m-3-18.75v3.75a3 3 0 0 0 6 0V4.5M.75 18.75c0-1.645 1.3-3.112 3.325-4.075m9.88.177c2.012.963 3.3 2.424 3.3 4.061"/></svg>