<svg id="Regular" xmlns="http://www.w3.org/2000/svg" viewBox="0 0 24 24" width="24" height="24"><defs><style>.cls-1{fill:none;stroke:#000;stroke-linecap:round;stroke-linejoin:round;stroke-width:1.5px}</style></defs><title>farming-grow-crops</title><path class="cls-1" d="M15 12.326c.168.014.3.014.375.014a4.638 4.638 0 0 0 3.375-1.5 5.511 5.511 0 0 0 4.5 1.5m-22.5 0a5.511 5.511 0 0 0 4.5-1.5 4.638 4.638 0 0 0 3.375 1.5c.079 0 .207 0 .375-.014m3.612-4.682s1.323 2 3.055 1.606c3.513-.792 2.654-5.487 3.736-7.327a7.855 7.855 0 0 0-7.059.993c-1.706 1.284-1.605 3.055.268 4.728zM15 4.84s-3.75 3.75-3 11.25m1.5 2.25l4.111 3.6a3 3 0 0 0 3.849.085l1.79-1.432-1.79-1.432a3 3 0 0 0-3.849.085L13.5 22.84M.75 16.09l4.111 3.6a3 3 0 0 0 3.849.085l1.79-1.435-1.79-1.432a3 3 0 0 0-3.849.085L.75 20.59"/></svg>