<svg id="Regular" xmlns="http://www.w3.org/2000/svg" viewBox="0 0 24 24" width="24" height="24"><defs><style>.cls-1{fill:none;stroke:#000;stroke-linecap:round;stroke-linejoin:round;stroke-width:1.5px}</style></defs><title>farming-farmer</title><path class="cls-1" d="M15.75.75v3a3 3 0 0 0 6 0v-3m-3 0v22.5"/><circle class="cls-1" cx="7.5" cy="3.75" r="3"/><path class="cls-1" d="M5.25 21a2.25 2.25 0 0 0 4.5 0v-3.75a1.5 1.5 0 0 0 1.5-1.5v-4.5a3 3 0 0 0-3-3h-1.5a3 3 0 0 0-3 3v4.5a1.5 1.5 0 0 0 1.5 1.5zm-3-17.25h10.5"/></svg>