<svg id="Regular" xmlns="http://www.w3.org/2000/svg" viewBox="0 0 24 24" width="24" height="24"><defs><style>.cls-1{fill:none;stroke:#000;stroke-linecap:round;stroke-linejoin:round;stroke-width:1.5px}</style></defs><title>farming-sell-vegetable</title><path class="cls-1" d="M18.75 14.25h-2.033a1.342 1.342 0 0 0-.5 2.587l2.064.826a1.342 1.342 0 0 1-.5 2.587H15.75m1.5-6v-.75m0 7.5v-.75"/><circle class="cls-1" cx="17.25" cy="17.25" r="6"/><path class="cls-1" d="M11.185 6.664A4.95 4.95 0 0 0 9.8 4.669a4.95 4.95 0 0 0-2-1.39 1.657 1.657 0 0 0-2.035.853S2.173 9.8.839 12.515a.829.829 0 0 0 1.11 1.11C4.663 12.291 10.332 8.7 10.332 8.7a1.656 1.656 0 0 0 .853-2.036zm-1.39-1.995l2.318-2.318m-1.531 3.184l3.132-.995m-4.785-.658L9.924.75M9 21.28a9.779 9.779 0 0 1-5.652-4.78M16.491 3.344a9.778 9.778 0 0 1 4.791 5.663"/></svg>