<svg id="Regular" xmlns="http://www.w3.org/2000/svg" viewBox="0 0 24 24" width="24" height="24"><defs><style>.cls-1{fill:none;stroke:#000;stroke-linecap:round;stroke-linejoin:round;stroke-width:1.5px}</style></defs><title>farming-barn</title><path class="cls-1" d="M20.25 10.55v12.7H3.75v-12.7"/><path class="cls-1" d="M11.113 1.4L1.056 8.775a.753.753 0 0 0-.306.605v1.89a.751.751 0 0 0 1.194.605L12 4.5l10.056 7.375a.751.751 0 0 0 1.194-.605V9.38a.753.753 0 0 0-.306-.605L12.887 1.4a1.5 1.5 0 0 0-1.774 0zM.75 23.25h22.5m-16.5-9h10.5v9H6.75zm0 0l10.5 9m0-9l-10.5 9M12 9.375a.375.375 0 0 1 .375.375m-.75 0A.375.375 0 0 1 12 9.375m0 .75a.375.375 0 0 1-.375-.375m.75 0a.375.375 0 0 1-.375.375"/></svg>