<svg id="Regular" xmlns="http://www.w3.org/2000/svg" viewBox="0 0 24 24" width="24" height="24"><defs><style>.cls-1{fill:none;stroke:#000;stroke-linecap:round;stroke-linejoin:round;stroke-width:1.5px}</style></defs><title>farming-farmer-crops</title><circle class="cls-1" cx="13.125" cy="3.75" r="3"/><path class="cls-1" d="M20.625.75a1.5 1.5 0 0 1 0 3v.95M4.145 14s-3.02-1.25-3.02-4.25M4.6 12.309A20.489 20.489 0 0 1 3.375 6.75m4.5-3h10.5"/><path class="cls-1" d="M22.313 4.829a1.5 1.5 0 0 0-2.11.234 8.444 8.444 0 0 1-6.63 3.187h-3.448C8.389 8.25 4.9 9.453 4.146 14a1.5 1.5 0 0 0 1.233 1.73 1.379 1.379 0 0 0 .247.02A1.5 1.5 0 0 0 7.1 14.5c.5-2.975 2.558-3.227 3.021-3.245V16.5l-1.367 4.64a1.5 1.5 0 1 0 2.746 1.219l1.629-3.609 1.629 3.609A1.5 1.5 0 1 0 17.5 21.14l-1.375-4.64v-5.533a11.434 11.434 0 0 0 6.422-4.029 1.5 1.5 0 0 0-.234-2.109z"/></svg>