<svg id="Regular" xmlns="http://www.w3.org/2000/svg" viewBox="0 0 24 24" width="24" height="24"><defs><style>.cls-1{fill:none;stroke:#000;stroke-linecap:round;stroke-linejoin:round;stroke-width:1.5px}</style></defs><title>farming-barn-silo</title><path class="cls-1" d="M10.719 5.2A5.251 5.251 0 0 0 .75 7.5v15.75h3m-3-10.5h3m-3-4.5H9"/><path class="cls-1" d="M21.75 15v8.25h-15V15"/><path class="cls-1" d="M5.25 16.5l7.939-7.939a1.5 1.5 0 0 1 2.122 0L23.25 16.5m-9-4.125a.375.375 0 0 1 .375.375m-.75 0a.375.375 0 0 1 .375-.375m0 .75a.375.375 0 0 1-.375-.375m.75 0a.375.375 0 0 1-.375.375m3 4.125h-6a1.5 1.5 0 0 0-1.5 1.5v4.5h9v-4.5a1.5 1.5 0 0 0-1.5-1.5z"/></svg>