<svg id="Regular" xmlns="http://www.w3.org/2000/svg" viewBox="0 0 24 24" width="24" height="24"><defs><style>.cls-1{fill:none;stroke:#000;stroke-linecap:round;stroke-linejoin:round;stroke-width:1.5px}</style></defs><title>farming-wheat</title><path class="cls-1" d="M9.734 7.141c0 2.278 2.25 4.125 2.25 4.125s2.25-1.847 2.25-4.125-2.25-4.125-2.25-4.125-2.25 1.846-2.25 4.125zm.648 2.739c1.856 1.856 1.6 5.12 1.6 5.12s-3.263.254-5.12-1.6-1.6-5.12-1.6-5.12 3.263-.256 5.12 1.6z"/><path class="cls-1" d="M13.587 9.88c-1.856 1.856-1.6 5.12-1.6 5.12s3.264.254 5.12-1.6 1.6-5.12 1.6-5.12-3.263-.256-5.12 1.6zm-3.205 6.75c1.856 1.856 1.6 5.12 1.6 5.12s-3.263.254-5.12-1.6-1.6-5.12-1.6-5.12 3.263-.256 5.12 1.6z"/><path class="cls-1" d="M13.587 16.63c-1.856 1.856-1.6 5.12-1.6 5.12s3.264.254 5.12-1.6 1.6-5.12 1.6-5.12-3.263-.256-5.12 1.6zm-1.603 5.12v1.5M5.262 8.277v-3m13.445 3v-3m-6.723-2.261V.766"/></svg>