<svg id="Regular" xmlns="http://www.w3.org/2000/svg" viewBox="0 0 24 24" width="24" height="24"><defs><style>.cls-1{fill:none;stroke:#000;stroke-linecap:round;stroke-linejoin:round;stroke-width:1.5px}</style></defs><title>farming-scarecrow</title><path class="cls-1" d="M13.5 5.25a3 3 0 0 1-6 0v-1.5h6zm0-1.5h-6l.466-1.864A1.5 1.5 0 0 1 9.421.75h2.158a1.5 1.5 0 0 1 1.455 1.136zm-8.25 0h10.5m-2.25 6h-6a1.5 1.5 0 0 0-1.5 1.5v3h1.5v4.5h6v-4.5H15v-3a1.5 1.5 0 0 0-1.5-1.5zM6 11.25H2.25m12.75 0h3.75m-8.25 7.5v4.5"/></svg>