<svg xmlns="http://www.w3.org/2000/svg" viewBox="0 0 24 24" width="24" height="24"><g fill="none" stroke="#000" stroke-linejoin="round" stroke-miterlimit="10"><path stroke-linecap="round" d="M9.437 15.5l-6.341 1.754A4 4 0 00.5 21v2.5h23V21a4 4 0 00-2.596-3.746L14.583 15.5M9 9.502c0-.553.448-.5 1-.5.553 0 1-.053 1 .5m2 0c0-.553.448-.5 1-.5.553 0 1-.053 1 .5"/><path stroke-linecap="round" d="M17 6.373V8.5c1.5 0 1.5 3 0 3 0 3-3.5 5.027-5 5.027S7 14.5 7 11.5c-1.5 0-1.5-3 0-3V6.373"/><path stroke-linecap="round" d="M5.911 10.393C3.896 9.934 2.5 9.256 2.5 8.5 2.5 7.119 6.753 6 12 6s9.5 1.119 9.5 2.5c0 .756-1.393 1.435-3.411 1.893"/><path stroke-linecap="round" d="M20 7.151c-2.102-1.456-3.485-3.38-4.153-5.308A2 2 0 0013.958.5h-3.915c-.852 0-1.61.539-1.889 1.344C7.485 3.771 6.102 5.695 4 7.151M5 23.5l1-3h12l1 3"/><path d="M5.511 16.586L6 20.5h2.5l-.512-4.599m10.501.685L18 20.5h-2.5l.512-4.599"/></g><path fill="none" d="M0 0h24v24H0z"/></svg>