<svg id="Regular" xmlns="http://www.w3.org/2000/svg" viewBox="0 0 24 24" width="24" height="24"><defs><style>.cls-1{fill:none;stroke:#000;stroke-linecap:round;stroke-linejoin:round;stroke-width:1.5px}</style></defs><title>fast-food-double-burger</title><path class="cls-1" d="M2.25 20.121v1.63a1.526 1.526 0 0 0 1.55 1.5h16.4a1.526 1.526 0 0 0 1.55-1.5v-1.63M2.25 8.388A2.245 2.245 0 1 0 5.158 11.1a5.113 5.113 0 0 0 6.842.617 5.113 5.113 0 0 0 6.842-.613 2.245 2.245 0 1 0 2.908-2.716"/><path class="cls-1" d="M14.25.751h-4.5a7.5 7.5 0 0 0-7.5 7.5v.137h19.5v-.137a7.5 7.5 0 0 0-7.5-7.5zm-1.5 19.5H3A2.25 2.25 0 0 1 .75 18 2.25 2.25 0 0 1 3 15.751h18A2.25 2.25 0 0 1 23.25 18 2.25 2.25 0 0 1 21 20.251h-.75M22.677 12a2.242 2.242 0 0 1 .573 1.5A2.25 2.25 0 0 1 21 15.751H3A2.25 2.25 0 0 1 .75 13.5a2.242 2.242 0 0 1 .573-1.5"/><path class="cls-1" d="M9.75 15.751l7.5 4.5 3-4.5M7.125 4.5a.375.375 0 1 1-.375.375.374.374 0 0 1 .375-.375m4.5-.749a.375.375 0 1 1-.375.375.374.374 0 0 1 .375-.375m4.5.749a.375.375 0 1 1-.375.375.374.374 0 0 1 .375-.375"/></svg>