<svg id="Regular" xmlns="http://www.w3.org/2000/svg" viewBox="0 0 24 24" width="24" height="24"><defs><style>.cls-1{fill:none;stroke:#000;stroke-linecap:round;stroke-linejoin:round;stroke-width:1.5px}</style></defs><title>fast-food-burger-drink</title><path class="cls-1" d="M6.75 23.251H3L.75 6.751H13.5l-.366 2.683"/><path class="cls-1" d="M6 17.251L8.25.751l4.5.75m-1.5 18.75h10.5v1.5a1.5 1.5 0 0 1-1.5 1.5h-7.5a1.5 1.5 0 0 1-1.5-1.5zm3-7.5h4.5a3 3 0 0 1 3 3v1.5h-10.5v-1.5a3 3 0 0 1 3-3z"/><rect class="cls-1" x="9.75" y="17.251" width="13.5" height="3" rx="1.5" ry="1.5"/></svg>