<svg id="Regular" xmlns="http://www.w3.org/2000/svg" viewBox="0 0 24 24" width="24" height="24"><defs><style>.cls-1{fill:none;stroke:#000;stroke-linecap:round;stroke-linejoin:round;stroke-width:1.5px}</style></defs><title>fast-food-tacos</title><path class="cls-1" d="M22.269 9.613a1.408 1.408 0 0 0 0-2.057l-.807-.771c-3.7-3.534-9.124-3.418-12.971.257a9.011 9.011 0 0 0-.269 13.109l1.883 1.8z"/><path class="cls-1" d="M18.064 4.688a2.808 2.808 0 0 0-.625-3.149 3.238 3.238 0 0 0-4.425.12 3.138 3.138 0 0 0-.848 1.407 3.251 3.251 0 0 0-4.173.314 3.088 3.088 0 0 0-.943 1.894 3.336 3.336 0 0 0-3 .854 2.9 2.9 0 0 0-.319 3.987 3.355 3.355 0 0 0-1.47.814 2.9 2.9 0 0 0-.115 4.227c.025.024.056.04.082.063A2.837 2.837 0 0 0 2.6 18.84a2.986 2.986 0 0 0 1.933.8 2.78 2.78 0 0 0 .732 2.825 3.368 3.368 0 0 0 3.459.581 1.694 1.694 0 0 0 .629-.379l.754-.716"/><path class="cls-1" d="M10.66 15.029a.375.375 0 1 1-.375.375.375.375 0 0 1 .375-.375m3-3a.375.375 0 1 1-.375.375.375.375 0 0 1 .375-.375m-3.75-.75a.375.375 0 1 1-.375.375.375.375 0 0 1 .375-.375m3-3a.375.375 0 1 1-.375.375.375.375 0 0 1 .375-.375m3.75.75a.375.375 0 1 1-.375.375.375.375 0 0 1 .375-.375"/></svg>