<svg xmlns="http://www.w3.org/2000/svg" viewBox="0 0 24 24" width="24" height="24"><path fill="none" stroke="#000" stroke-linecap="round" stroke-linejoin="round" stroke-miterlimit="10" d="M12.246 9.53L12.5 7.5H.5l2 16H7"/><path d="M22.5 17.5h-14v-1a4 4 0 014-4h6a4 4 0 014 4v1zm1 1.5a1.5 1.5 0 01-1.5 1.5H9A1.5 1.5 0 017.5 19h0A1.5 1.5 0 019 17.5h13a1.5 1.5 0 011.5 1.5h0zm-1 2.5a2 2 0 01-2 2h-10a2 2 0 01-2-2v-1h14v1z" fill="none" stroke="#000" stroke-linejoin="round" stroke-miterlimit="10"/><path fill="none" stroke="#000" stroke-linecap="round" stroke-linejoin="round" stroke-miterlimit="10" d="M4.945 18.961L6.971 1.614A1 1 0 018.197.527L12.5 1.553"/><path d="M17.5 14a.5.5 0 100 1 .5.5 0 000-1zm-4 0a.5.5 0 100 1 .5.5 0 000-1zm2 1a.5.5 0 100 1 .5.5 0 000-1z"/><path fill="none" d="M0 0h24v24H0z"/></svg>