<svg xmlns="http://www.w3.org/2000/svg" viewBox="0 0 24 24" width="24" height="24"><g fill="none" stroke="#000" stroke-linejoin="round" stroke-miterlimit="10"><path stroke-linecap="round" d="M14.693 16.355c4.5 2 8.807 3.145 8.807 6.645v.5H.5V23c0-3.5 4.307-4.645 8.807-6.645M6.826 4.038C2.715 7.156 3.319 14.01 2 15c0 0 4.228.945 5.728-.555m9.446-10.407C21.285 7.156 20.681 14.01 22 15c0 0-4.228.945-5.728-.555M9 7.5c0 1-1.5 3.5-3.5 3.5"/><path stroke-linecap="round" d="M17 10.525c0 6-3.5 6.475-5 6.975-1.5-.5-5-.975-5-6.975M15 7.5c0 1 1.5 3.5 3.5 3.5"/><path stroke-linecap="round" d="M9 11.002c0-.553.448-.5 1-.5.553 0 1-.053 1 .5m2 0c0-.553.448-.5 1-.5.553 0 1-.053 1 .5"/><path d="M12 3L8.5.5v5L12 3l3.5 2.5v-5zM7.5 17.129v.371c0 1.656 2.015 3 4.5 3s4.5-1.344 4.5-3v-.371M5.5 18l1 5.5m12-5.5l-1 5.5"/></g><path fill="none" d="M0 0h24v24H0z"/></svg>