<svg xmlns="http://www.w3.org/2000/svg" viewBox="0 0 24 24" width="24" height="24"><g fill="none" stroke="#000" stroke-linejoin="round" stroke-miterlimit="10"><circle cx="12" cy="10.979" r="2"/><path d="M14.5 2.5a2 2 0 00-2-2h-1a2 2 0 00-2 2v3h5v-3zm8 4a2 2 0 00-2-2h-1a2 2 0 00-2 2v3h5v-3zm-16 0a2 2 0 00-2-2h-1a2 2 0 00-2 2v3h5v-3zm16 8a2 2 0 00-2-2h-1a2 2 0 00-2 2v3h5v-3zm-16 0a2 2 0 00-2-2h-1a2 2 0 00-2 2v3h5v-3z"/><path stroke-linecap="round" d="M12 12.979L7 23.5h10l-5-10.521m6.106-7.914c-.989-1.021-2.211-1.843-3.606-2.268m5.876 9.703c.094-.506.124-.988.124-1.521 0-.497-.042-.983-.124-1.457M3.63 9.493a8.581 8.581 0 00.005 3.005m5.838-9.637a8.51 8.51 0 00-3.576 2.201"/><path d="M7.996 18.521a8.49 8.49 0 01-1.65-1.153m11.187.105a8.622 8.622 0 01-1.387.971"/></g><path fill="none" d="M0 0h24v24H0z"/></svg>