<svg xmlns="http://www.w3.org/2000/svg" viewBox="0 0 24 24" width="24" height="24"><defs><style>.a{fill:none;stroke:#000;stroke-linecap:round;stroke-linejoin:round;stroke-width:1.5px}</style></defs><title>file-java</title><path class="a" d="M.749 19.5V2.253a1.5 1.5 0 0 1 1.5-1.5h10.629a1.5 1.5 0 0 1 1.061.44l5.871 5.871a1.5 1.5 0 0 1 .439 1.061v4.628"/><path class="a" d="M20.249 8.253h-6a1.5 1.5 0 0 1-1.5-1.5v-6m-7.5 15v6a1.5 1.5 0 0 1-1.5 1.5h-1.5m6 0v-6a1.5 1.5 0 0 1 3 0v6m-3-3h3m9 3v-6a1.5 1.5 0 0 1 3 0v6m-3-3h3m-9-4.5V18.3a8.932 8.932 0 0 0 1.5 4.954 8.932 8.932 0 0 0 1.5-4.954v-2.547"/></svg>