<svg xmlns="http://www.w3.org/2000/svg" viewBox="0 0 24 24" width="24" height="24"><defs><style>.a{fill:none;stroke:#000;stroke-linecap:round;stroke-linejoin:round;stroke-width:1.5px}</style></defs><title>file-ym</title><path class="a" d="M9.744 23.254h-7.5a1.5 1.5 0 0 1-1.5-1.5v-19.5a1.5 1.5 0 0 1 1.5-1.5h10.628a1.5 1.5 0 0 1 1.061.439L19.8 7.064a1.5 1.5 0 0 1 .44 1.061v4.629"/><path class="a" d="M20.244 8.254h-6a1.5 1.5 0 0 1-1.5-1.5v-6m0 15V18a1.5 1.5 0 1 0 3 0v-2.25m-1.5 3.754v3.75m9 0v-7.5l-2.25 3.75-2.25-3.75v7.5"/></svg>