<svg xmlns="http://www.w3.org/2000/svg" viewBox="0 0 24 24" width="24" height="24"><defs><style>.a{fill:none;stroke:#000;stroke-linecap:round;stroke-linejoin:round;stroke-width:1.5px}</style></defs><title>file-code-information-1</title><circle class="a" cx="17.25" cy="17.254" r="6"/><path class="a" d="M17.25 20.254v-3m0-2.94a.375.375 0 1 0 .375.375.375.375 0 0 0-.375-.375m-9 5.94h-6a1.5 1.5 0 0 1-1.5-1.5v-16.5a1.5 1.5 0 0 1 1.5-1.5h10.629a1.5 1.5 0 0 1 1.061.439l2.871 2.871a1.5 1.5 0 0 1 .439 1.061v3.129"/><path class="a" d="M9 6.004l2.25 2.25L9 10.504m-3-4.5l-2.25 2.25L6 10.504"/></svg>