<svg xmlns="http://www.w3.org/2000/svg" viewBox="0 0 24 24" width="24" height="24"><defs><style>.a{fill:none;stroke:#000;stroke-linecap:round;stroke-linejoin:round;stroke-width:1.5px}</style></defs><title>file-code-home</title><path class="a" d="M12.75 15.951v5.8a1.5 1.5 0 0 0 1.5 1.5h6a1.5 1.5 0 0 0 1.5-1.5v-5.8"/><path class="a" d="M11.25 17.264l4.519-3.954a2.25 2.25 0 0 1 2.963 0l4.518 3.954m-4.5 5.99h-3v-3a1.5 1.5 0 0 1 3 0zm-10.5-3h-6a1.5 1.5 0 0 1-1.5-1.5v-16.5a1.5 1.5 0 0 1 1.5-1.5h10.629a1.5 1.5 0 0 1 1.061.439l2.871 2.871a1.5 1.5 0 0 1 .439 1.061v4.629"/><rect class="a" x="6.75" y="5.254" width="3" height="4.5" rx=".75" ry=".75"/><path class="a" d="M3.75 5.254v4.5m9-4.5v4.5"/><rect class="a" x="3.75" y="12.754" width="3" height="4.5" rx=".75" ry=".75"/></svg>