<svg xmlns="http://www.w3.org/2000/svg" viewBox="0 0 24 24" width="24" height="24"><defs><style>.a{fill:none;stroke:#000;stroke-linecap:round;stroke-linejoin:round;stroke-width:1.5px}</style></defs><title>file-code-heart-1</title><path class="a" d="M17.238 23.254l-5.114-5.335a3.027 3.027 0 0 1-.567-3.493 3.026 3.026 0 0 1 4.843-.786l.835.835.835-.835a3.025 3.025 0 0 1 4.845.786 3.027 3.027 0 0 1-.567 3.493z"/><path class="a" d="M8.238 20.254h-6a1.5 1.5 0 0 1-1.5-1.5v-16.5a1.5 1.5 0 0 1 1.5-1.5h10.628a1.5 1.5 0 0 1 1.061.439L16.8 4.064a1.5 1.5 0 0 1 .44 1.061V9"/><path class="a" d="M8.988 6.004l2.25 2.25-2.25 2.25m-3-4.5l-2.25 2.25 2.25 2.25"/></svg>