<svg xmlns="http://www.w3.org/2000/svg" viewBox="0 0 24 24" width="24" height="24"><defs><style>.a{fill:none;stroke:#000;stroke-linecap:round;stroke-linejoin:round;stroke-width:1.5px}</style></defs><title>file-code-cash-1</title><path class="a" d="M18.738 14.254H16.7a1.342 1.342 0 0 0-.5 2.587l2.063.825a1.342 1.342 0 0 1-.5 2.588h-2.025m1.5-6v-.75m0 7.5v-.75"/><circle class="a" cx="17.238" cy="17.254" r="6"/><path class="a" d="M8.238 20.254h-6a1.5 1.5 0 0 1-1.5-1.5v-16.5a1.5 1.5 0 0 1 1.5-1.5h10.628a1.5 1.5 0 0 1 1.061.439L16.8 4.064a1.5 1.5 0 0 1 .44 1.061v3.129"/><path class="a" d="M8.988 6.004l2.25 2.25-2.25 2.25m-3-4.5l-2.25 2.25 2.25 2.25"/></svg>