<svg xmlns="http://www.w3.org/2000/svg" viewBox="0 0 24 24" width="24" height="24"><defs><style>.a{fill:none;stroke:#000;stroke-linecap:round;stroke-linejoin:round;stroke-width:1.5px}</style></defs><title>file-code-clock</title><path class="a" d="M23.164 16.305a6 6 0 1 1-4.979-4.979 6.007 6.007 0 0 1 4.979 4.979z"/><path class="a" d="M19.888 17.254h-2.651v-2.652m-9 5.652h-6a1.5 1.5 0 0 1-1.5-1.5v-16.5a1.5 1.5 0 0 1 1.5-1.5h10.628a1.5 1.5 0 0 1 1.061.439L16.8 4.064a1.5 1.5 0 0 1 .44 1.061v3.129"/><rect class="a" x="6.737" y="5.254" width="3" height="4.5" rx=".75" ry=".75"/><path class="a" d="M3.737 5.254v4.5m9-4.5v4.5"/><rect class="a" x="3.737" y="12.754" width="3" height="4.5" rx=".75" ry=".75"/></svg>