<svg xmlns="http://www.w3.org/2000/svg" viewBox="0 0 24 24" width="24" height="24"><defs><style>.a{fill:none;stroke:#000;stroke-linecap:round;stroke-linejoin:round;stroke-width:1.5px}</style></defs><title>file-code-edit</title><path class="a" d="M22.618 14.123l-7.631 7.631-3.75.75.75-3.75 7.631-7.631a2.115 2.115 0 0 1 2.991 0l.009.009a2.115 2.115 0 0 1 0 2.991zm-14.38 6.131h-6a1.5 1.5 0 0 1-1.5-1.5v-16.5a1.5 1.5 0 0 1 1.5-1.5h10.628a1.5 1.5 0 0 1 1.061.439L16.8 4.064a1.5 1.5 0 0 1 .44 1.061v3.129"/><rect class="a" x="6.738" y="5.254" width="3" height="4.5" rx=".75" ry=".75"/><path class="a" d="M3.738 5.254v4.5m9-4.5v4.5"/><rect class="a" x="3.738" y="12.754" width="3" height="4.5" rx=".75" ry=".75"/><path class="a" d="M9.738 12.894v4.5"/></svg>