<svg xmlns="http://www.w3.org/2000/svg" viewBox="0 0 24 24" width="24" height="24"><defs><style>.a{fill:none;stroke:#000;stroke-linecap:round;stroke-linejoin:round;stroke-width:1.5px}</style></defs><title>file-html</title><path class="a" d="M.75 12.753v-10.5a1.5 1.5 0 0 1 1.5-1.5h10.629a1.5 1.5 0 0 1 1.06.44l5.872 5.871a1.5 1.5 0 0 1 .439 1.061v4.628"/><path class="a" d="M20.25 8.253h-6a1.5 1.5 0 0 1-1.5-1.5v-6m-12 22.5v-7.5m3 7.5v-7.5m-3 4.5h3m4.5 3v-7.5m-1.5 0h3m7.5 7.5v-7.5L15 19.503l-2.25-3.75v7.5m7.5-7.5v6a1.5 1.5 0 0 0 1.5 1.5h1.5"/></svg>