<svg xmlns="http://www.w3.org/2000/svg" viewBox="0 0 24 24" width="24" height="24"><defs><style>.a{fill:none;stroke:#000;stroke-linecap:round;stroke-linejoin:round;stroke-width:1.5px}</style></defs><title>file-code-shield-1</title><path class="a" d="M11.252.954v4.3a1.4 1.4 0 0 0 1.371 1.5h4.428"/><path class="a" d="M17.087 6.717l-5.524-5.524A1.5 1.5 0 0 0 10.5.753H2.252a1.5 1.5 0 0 0-1.5 1.5v16.5a1.5 1.5 0 0 0 1.5 1.5h6"/><path class="a" d="M6.002 8.253l-2.25 2.25 2.25 2.25m17.25 3a7.669 7.669 0 0 1-6 7.5 7.669 7.669 0 0 1-6-7.5v-3.541a1.5 1.5 0 0 1 .915-1.381 12.535 12.535 0 0 1 10.17 0 1.5 1.5 0 0 1 .915 1.381zm-6-3v6m-3-3h6"/></svg>