<svg xmlns="http://www.w3.org/2000/svg" viewBox="0 0 24 24" width="24" height="24"><defs><style>.a{fill:none;stroke:#000;stroke-linecap:round;stroke-linejoin:round;stroke-width:1.5px}</style></defs><title>file-py</title><path class="a" d="M11.244 23.254h-9a1.5 1.5 0 0 1-1.5-1.5v-19.5a1.5 1.5 0 0 1 1.5-1.5h10.628a1.5 1.5 0 0 1 1.061.439L19.8 7.064a1.5 1.5 0 0 1 .44 1.061v4.629"/><path class="a" d="M20.244 8.254h-6a1.5 1.5 0 0 1-1.5-1.5v-6m7.5 15V18a1.5 1.5 0 1 0 3 0v-2.25m-1.5 3.754v3.75m-7.5 0v-7.5m0 0h.75a2.25 2.25 0 0 1 0 4.5h-.75"/></svg>