<svg xmlns="http://www.w3.org/2000/svg" viewBox="0 0 24 24" width="24" height="24"><defs><style>.a{fill:none;stroke:#000;stroke-linecap:round;stroke-linejoin:round;stroke-width:1.5px}</style></defs><title>file-code-refresh-1</title><path class="a" d="M19.5 15.754h3.75v-4.5m-.189 4.5A6 6 0 1 0 21.94 21"/><path class="a" d="M8.25 20.254h-6a1.5 1.5 0 0 1-1.5-1.5v-16.5a1.5 1.5 0 0 1 1.5-1.5h10.629a1.5 1.5 0 0 1 1.061.439l2.871 2.871a1.5 1.5 0 0 1 .439 1.061v3.129"/><path class="a" d="M9 6.004l2.25 2.25L9 10.504m-3-4.5l-2.25 2.25L6 10.504"/></svg>