<svg xmlns="http://www.w3.org/2000/svg" viewBox="0 0 24 24" width="24" height="24"><defs><style>.a{fill:none;stroke:#000;stroke-linecap:round;stroke-linejoin:round;stroke-width:1.5px}</style></defs><title>file-bin</title><path class="a" d="M8.241 23.253h-6a1.5 1.5 0 0 1-1.5-1.5v-19.5a1.5 1.5 0 0 1 1.5-1.5h10.628a1.5 1.5 0 0 1 1.061.44l5.87 5.871a1.5 1.5 0 0 1 .44 1.061v4.628"/><path class="a" d="M20.241 8.253h-6a1.5 1.5 0 0 1-1.5-1.5v-6m-1.5 22.5v-7.5m0 0h1.5a1.5 1.5 0 0 1 1.5 1.5V18a1.5 1.5 0 0 1-1.5 1.5h-1.5m0 0h1.5a1.5 1.5 0 0 1 1.5 1.5v.75a1.5 1.5 0 0 1-1.5 1.5h-1.5m6 .004v-7.5m3 7.5v-7.5l3 7.5v-7.5"/></svg>