<svg xmlns="http://www.w3.org/2000/svg" viewBox="0 0 24 24" width="24" height="24"><defs><style>.a{fill:none;stroke:#000;stroke-linecap:round;stroke-linejoin:round;stroke-width:1.5px}</style></defs><title>file-exe</title><path class="a" d="M5.244 23.254h-3a1.5 1.5 0 0 1-1.5-1.5v-19.5a1.5 1.5 0 0 1 1.5-1.5h10.628a1.5 1.5 0 0 1 1.061.439L19.8 7.064a1.5 1.5 0 0 1 .44 1.061v4.629"/><path class="a" d="M20.244 8.254h-6a1.5 1.5 0 0 1-1.5-1.5v-6m-1.5 22.5h-1.5a1.5 1.5 0 0 1-1.5-1.5v-4.5a1.5 1.5 0 0 1 1.5-1.5h1.5m-3 4.5h3m12 3h-1.5a1.5 1.5 0 0 1-1.5-1.5v-4.5a1.5 1.5 0 0 1 1.5-1.5h1.5m-3 4.5h3m-9-4.5l3 7.5m0-7.5l-3 7.5"/></svg>