<svg xmlns="http://www.w3.org/2000/svg" viewBox="0 0 24 24" width="24" height="24"><defs><style>.a{fill:none;stroke:#000;stroke-linecap:round;stroke-linejoin:round;stroke-width:1.5px}</style></defs><title>file-php</title><path class="a" d="M4.5 23.254H2.25a1.5 1.5 0 0 1-1.5-1.5v-19.5a1.5 1.5 0 0 1 1.5-1.5h10.629a1.5 1.5 0 0 1 1.06.439l5.872 5.871a1.5 1.5 0 0 1 .439 1.061v4.629"/><path class="a" d="M20.25 8.254h-6a1.5 1.5 0 0 1-1.5-1.5v-6m-5.25 22.5v-7.5m0 0h.75a2.25 2.25 0 0 1 0 4.5H7.5m12 3v-7.5m0 0h.75a2.25 2.25 0 0 1 0 4.5h-.75m-6 3v-7.5m3 7.5v-7.5m-3 4.5h3"/></svg>