<svg xmlns="http://www.w3.org/2000/svg" viewBox="0 0 24 24" width="24" height="24"><defs><style>.a{fill:none;stroke:#000;stroke-linecap:round;stroke-linejoin:round;stroke-width:1.5px}</style></defs><title>file-code-share-1</title><circle class="a" cx="13.488" cy="18.004" r="2.25"/><circle class="a" cx="20.988" cy="21.004" r="2.25"/><circle class="a" cx="20.988" cy="13.504" r="2.25"/><path class="a" d="M15.412 16.849l3.65-2.19m-3.486 4.18l3.324 1.33m-10.662.085h-6a1.5 1.5 0 0 1-1.5-1.5v-16.5a1.5 1.5 0 0 1 1.5-1.5h10.628a1.5 1.5 0 0 1 1.061.439L16.8 4.064a1.5 1.5 0 0 1 .44 1.061v3.129"/><path class="a" d="M8.988 6.004l2.25 2.25-2.25 2.25m-3-4.5l-2.25 2.25 2.25 2.25"/></svg>