<svg xmlns="http://www.w3.org/2000/svg" viewBox="0 0 24 24" width="24" height="24"><defs><style>.a{fill:none;stroke:#000;stroke-linecap:round;stroke-linejoin:round;stroke-width:1.5px}</style></defs><title>file-code-share</title><circle class="a" cx="13.499" cy="18.003" r="2.25"/><circle class="a" cx="20.999" cy="21.003" r="2.25"/><circle class="a" cx="20.999" cy="13.503" r="2.25"/><path class="a" d="M15.423 16.849l3.65-2.19m-3.486 4.18l3.324 1.329m-10.662.085h-6a1.5 1.5 0 0 1-1.5-1.5v-16.5a1.5 1.5 0 0 1 1.5-1.5h10.628a1.5 1.5 0 0 1 1.061.44l2.871 2.871a1.5 1.5 0 0 1 .44 1.061v3.128"/><rect class="a" x="6.749" y="5.253" width="3" height="4.5" rx=".75" ry=".75"/><path class="a" d="M3.749 5.253v4.5m9-4.5v4.5"/><rect class="a" x="3.749" y="12.753" width="3" height="4.5" rx=".75" ry=".75"/></svg>