<svg xmlns="http://www.w3.org/2000/svg" viewBox="0 0 24 24" width="24" height="24"><defs><style>.a{fill:none;stroke:#000;stroke-linecap:round;stroke-linejoin:round;stroke-width:1.5px}</style></defs><title>file-code-warning</title><path class="a" d="M17.237 20.254a.375.375 0 1 1-.375.375.374.374 0 0 1 .375-.375m0-2.25v-3"/><path class="a" d="M23.049 20.686a1.774 1.774 0 0 1-1.586 2.568h-8.452a1.775 1.775 0 0 1-1.587-2.568l4.226-8.452a1.774 1.774 0 0 1 3.173 0zm-14.812-.432h-6a1.5 1.5 0 0 1-1.5-1.5v-16.5a1.5 1.5 0 0 1 1.5-1.5h10.628a1.5 1.5 0 0 1 1.061.439L16.8 4.064a1.5 1.5 0 0 1 .44 1.061v3.129"/><rect class="a" x="6.737" y="5.254" width="3" height="4.5" rx=".75" ry=".75"/><path class="a" d="M3.737 5.254v4.5m9-4.5v4.5"/><rect class="a" x="3.737" y="12.754" width="3" height="4.5" rx=".75" ry=".75"/></svg>