<svg xmlns="http://www.w3.org/2000/svg" viewBox="0 0 24 24" width="24" height="24"><defs><style>.a{fill:none;stroke:#000;stroke-linecap:round;stroke-linejoin:round;stroke-width:1.5px}</style></defs><title>file-copyright-tm</title><path class="a" d="M6.75 18.75v-4.5m-1.5 0h3m7.5 4.5v-4.5L13.5 16.5l-2.25-2.25v4.5"/><path class="a" d="M3.75 6.75v-4.5a1.5 1.5 0 0 1 1.5-1.5h10.629a1.5 1.5 0 0 1 1.06.439l5.872 5.872a1.5 1.5 0 0 1 .439 1.06V21.75a1.5 1.5 0 0 1-1.5 1.5h-4.5"/><path class="a" d="M23.25 8.25h-6a1.5 1.5 0 0 1-1.5-1.5v-6M12 22.246a7.5 7.5 0 1 1 .746-12.5"/></svg>