<svg xmlns="http://www.w3.org/2000/svg" viewBox="0 0 24 24" width="24" height="24"><defs><style>.a{fill:none;stroke:#000;stroke-linecap:round;stroke-linejoin:round;stroke-width:1.5px}</style></defs><title>file-code-disable</title><circle class="a" cx="17.252" cy="17.253" r="6"/><path class="a" d="M13.01 21.495l8.484-8.484M8.252 20.253h-6a1.5 1.5 0 0 1-1.5-1.5v-16.5a1.5 1.5 0 0 1 1.5-1.5h10.629a1.5 1.5 0 0 1 1.06.44l2.872 2.871a1.5 1.5 0 0 1 .439 1.061v3.128"/><rect class="a" x="6.752" y="5.253" width="3" height="4.5" rx=".75" ry=".75"/><path class="a" d="M3.752 5.253v4.5m9-4.5v4.5"/><rect class="a" x="3.752" y="12.753" width="3" height="4.5" rx=".75" ry=".75"/></svg>