<svg xmlns="http://www.w3.org/2000/svg" viewBox="0 0 24 24" width="24" height="24"><defs><style>.a{fill:none;stroke:#000;stroke-linecap:round;stroke-linejoin:round;stroke-width:1.5px}</style></defs><title>file-hqx</title><path class="a" d="M5.252 23.253h-3a1.5 1.5 0 0 1-1.5-1.5v-19.5a1.5 1.5 0 0 1 1.5-1.5H12.88a1.5 1.5 0 0 1 1.061.44l5.871 5.871a1.5 1.5 0 0 1 .44 1.061v3.128"/><path class="a" d="M20.252 8.253h-6a1.5 1.5 0 0 1-1.5-1.5v-6m-4.5 21v-7.5m3 7.5v-7.5m-3 4.5h3m6 1.5a1.5 1.5 0 1 1-3 0v-4.5a1.5 1.5 0 1 1 3 0zm-1.5 1.5l1.5 1.5m3-9l3 7.5m0-7.5l-3 7.5"/></svg>