<svg xmlns="http://www.w3.org/2000/svg" viewBox="0 0 24 24" width="24" height="24"><defs><style>.a{fill:none;stroke:#000;stroke-linecap:round;stroke-linejoin:round;stroke-width:1.5px}</style></defs><title>file-css</title><path class="a" d="M5.25 23.253h-3a1.5 1.5 0 0 1-1.5-1.5v-19.5a1.5 1.5 0 0 1 1.5-1.5h10.629a1.5 1.5 0 0 1 1.06.44l5.872 5.871a1.5 1.5 0 0 1 .439 1.061v4.628"/><path class="a" d="M20.25 8.253h-6a1.5 1.5 0 0 1-1.5-1.5v-6m-1.5 15a3 3 0 0 0-3 3v1.5a3 3 0 0 0 3 3m6-7.5h-1.5a1.5 1.5 0 0 0-1.5 1.5c0 2.25 3 2.25 3 4.5a1.5 1.5 0 0 1-1.5 1.5h-1.5m9-7.5h-1.5a1.5 1.5 0 0 0-1.5 1.5c0 2.25 3 2.25 3 4.5a1.5 1.5 0 0 1-1.5 1.5h-1.5"/></svg>