<svg xmlns="http://www.w3.org/2000/svg" viewBox="0 0 24 24" width="24" height="24"><defs><style>.a{fill:none;stroke:#000;stroke-linecap:round;stroke-linejoin:round;stroke-width:1.5px}</style></defs><title>file-rb</title><path class="a" d="M11.244 23.253h-9a1.5 1.5 0 0 1-1.5-1.5v-19.5a1.5 1.5 0 0 1 1.5-1.5h10.628a1.5 1.5 0 0 1 1.061.44L19.8 7.064a1.5 1.5 0 0 1 .44 1.061v4.628"/><path class="a" d="M20.244 8.253h-6a1.5 1.5 0 0 1-1.5-1.5v-6m1.5 22.5v-7.5m0 0h1.125a1.875 1.875 0 0 1 0 3.75h-1.125m3 3.75l-2.25-3.75m5.25 3.75v-7.5m0 0h1.5a1.5 1.5 0 0 1 1.5 1.5V18a1.5 1.5 0 0 1-1.5 1.5h-1.5m0 0h1.5a1.5 1.5 0 0 1 1.5 1.5v.75a1.5 1.5 0 0 1-1.5 1.5h-1.5"/></svg>