<svg xmlns="http://www.w3.org/2000/svg" viewBox="0 0 24 24" width="24" height="24"><defs><style>.a{fill:none;stroke:#000;stroke-linecap:round;stroke-linejoin:round;stroke-width:1.5px}</style></defs><title>file-app</title><path class="a" d="M5.241 23.254h-3a1.5 1.5 0 0 1-1.5-1.5v-19.5a1.5 1.5 0 0 1 1.5-1.5H12.87a1.5 1.5 0 0 1 1.061.439L19.8 7.064a1.5 1.5 0 0 1 .439 1.061v4.629"/><path class="a" d="M20.241 8.254h-6a1.5 1.5 0 0 1-1.5-1.5v-6m-4.5 22.5v-6a1.5 1.5 0 0 1 3 0v6m-3-3h3m9 3v-7.5m0 0h.75a2.25 2.25 0 0 1 0 4.5h-.75m-6 3v-7.5m0 0h.75a2.25 2.25 0 0 1 0 4.5h-.75"/></svg>