<svg xmlns="http://www.w3.org/2000/svg" viewBox="0 0 24 24" width="24" height="24"><defs><style>.a{fill:none;stroke:#000;stroke-linecap:round;stroke-linejoin:round;stroke-width:1.5px}</style></defs><title>file-code-shield</title><path class="a" d="M23.249 15.753a7.671 7.671 0 0 1-6 7.5 7.671 7.671 0 0 1-6-7.5v-3.54a1.5 1.5 0 0 1 .915-1.382 12.535 12.535 0 0 1 10.17 0 1.5 1.5 0 0 1 .915 1.382zm-6-2.999v6m-3-3h6"/><path class="a" d="M8.249 20.254h-6a1.5 1.5 0 0 1-1.5-1.5v-16.5a1.5 1.5 0 0 1 1.5-1.5h10.629a1.5 1.5 0 0 1 1.06.439l2.872 2.871a1.5 1.5 0 0 1 .439 1.061v1.629"/><rect class="a" x="6.749" y="5.254" width="3" height="4.5" rx=".75" ry=".75"/><path class="a" d="M3.749 5.254v4.5m9-4.5v2.25"/><rect class="a" x="3.749" y="12.754" width="3" height="4.5" rx=".75" ry=".75"/></svg>