<svg xmlns="http://www.w3.org/2000/svg" viewBox="0 0 24 24" width="24" height="24"><defs><style>.a{fill:none;stroke:#000;stroke-linecap:round;stroke-linejoin:round;stroke-width:1.5px}</style></defs><title>file-dmg</title><path class="a" d="M3.74 23.254h-1.5a1.5 1.5 0 0 1-1.5-1.5v-19.5a1.5 1.5 0 0 1 1.5-1.5h10.629a1.5 1.5 0 0 1 1.061.439l5.87 5.871a1.5 1.5 0 0 1 .439 1.061v4.629"/><path class="a" d="M20.24 8.254h-6a1.5 1.5 0 0 1-1.5-1.5v-6m9.75 19.5h.75v1.5a1.5 1.5 0 0 1-3 0v-4.5a1.5 1.5 0 0 1 1.5-1.5h1.5m-6 7.5v-7.5l-2.25 3.75-2.25-3.75v7.5m-6 0a3 3 0 0 0 3-3v-1.5a3 3 0 0 0-3-3z"/></svg>