<svg xmlns="http://www.w3.org/2000/svg" viewBox="0 0 24 24" width="24" height="24"><defs><style>.a{fill:none;stroke:#000;stroke-linecap:round;stroke-linejoin:round;stroke-width:1.5px}</style></defs><title>file-code-home-1</title><path class="a" d="M11.252.954v4.3a1.4 1.4 0 0 0 1.371 1.5h4.428"/><path class="a" d="M17.252 9.753V7.5a1.5 1.5 0 0 0-.439-1.06l-5.25-5.25A1.5 1.5 0 0 0 10.5.753H2.252a1.5 1.5 0 0 0-1.5 1.5v16.5a1.5 1.5 0 0 0 1.5 1.5h6"/><path class="a" d="M9.002 8.253l2.25 2.25-2.25 2.25m-3-4.5l-2.25 2.25 2.25 2.25m6.75 3.198v5.8a1.5 1.5 0 0 0 1.5 1.5h6a1.5 1.5 0 0 0 1.5-1.5v-5.8"/><path class="a" d="M11.252 17.264l4.518-3.954a2.252 2.252 0 0 1 2.964 0l4.518 3.954m-4.5 5.989h-3v-3a1.5 1.5 0 0 1 3 0z"/></svg>