<svg xmlns="http://www.w3.org/2000/svg" viewBox="0 0 24 24" width="24" height="24"><defs><style>.a{fill:none;stroke:#000;stroke-linecap:round;stroke-linejoin:round;stroke-width:1.5px}</style></defs><title>file-code-lock-1</title><rect class="a" x="14.252" y="15.753" width="9" height="7.5" rx="1.5" ry="1.5"/><path class="a" d="M18.752 11.253a3 3 0 0 0-3 3v1.5h6v-1.5a3 3 0 0 0-3-3zm0 7.905a.375.375 0 1 1-.375.375.375.375 0 0 1 .375-.375m-8.13 1.095h-8.37a1.5 1.5 0 0 1-1.5-1.5v-16.5a1.5 1.5 0 0 1 1.5-1.5h10.629a1.5 1.5 0 0 1 1.06.44l2.872 2.871a1.5 1.5 0 0 1 .439 1.061v3.128"/><path class="a" d="M9.002 6.003l2.25 2.25-2.25 2.25m-3-4.5l-2.25 2.25 2.25 2.25"/></svg>