<svg xmlns="http://www.w3.org/2000/svg" viewBox="0 0 24 24" width="24" height="24"><defs><style>.a{fill:none;stroke:#000;stroke-linecap:round;stroke-linejoin:round;stroke-width:1.5px}</style></defs><title>file-code-settings-1</title><circle class="a" cx="17.252" cy="16.503" r="1.5"/><path class="a" d="M18.526 10.7l.443 1.452a.992.992 0 0 0 1.173.681l1.472-.341a1.339 1.339 0 0 1 1.275 2.218l-1.031 1.111a1 1 0 0 0 0 1.363l1.031 1.116a1.339 1.339 0 0 1-1.275 2.218l-1.472-.341a.992.992 0 0 0-1.173.681l-.443 1.452a1.33 1.33 0 0 1-2.548 0l-.442-1.452a.993.993 0 0 0-1.174-.681l-1.472.341a1.339 1.339 0 0 1-1.275-2.218l1.031-1.111a1 1 0 0 0 0-1.363l-1.031-1.111a1.339 1.339 0 0 1 1.275-2.218l1.472.341a.993.993 0 0 0 1.174-.681l.442-1.452a1.33 1.33 0 0 1 2.548-.005z"/><path class="a" d="M8.252 20.253h-6a1.5 1.5 0 0 1-1.5-1.5v-16.5a1.5 1.5 0 0 1 1.5-1.5h10.629a1.5 1.5 0 0 1 1.06.44l2.872 2.871a1.5 1.5 0 0 1 .439 1.061v1.628"/><path class="a" d="M9.002 6.003l2.25 2.25-2.25 2.25m-3-4.5l-2.25 2.25 2.25 2.25"/></svg>