<svg xmlns="http://www.w3.org/2000/svg" viewBox="0 0 24 24" width="24" height="24"><defs><style>.a{fill:none;stroke:#000;stroke-linecap:round;stroke-linejoin:round;stroke-width:1.5px}</style></defs><title>file-zip-1</title><path class="a" d="M6 12h1.889a.75.75 0 0 1 .7 1.029L6.408 18.47A.749.749 0 0 0 7.1 19.5H9m2.996-.002v-7.5m3 7.5v-7.5M15 12h.75a2.25 2.25 0 0 1 0 4.5H15"/><path class="a" d="M22.807 5.559a1.5 1.5 0 0 1 .439 1.06V21A2.25 2.25 0 0 1 21 23.248H3A2.25 2.25 0 0 1 .746 21V3A2.25 2.25 0 0 1 3 .748h14.375a1.5 1.5 0 0 1 1.061.439z"/><path class="a" d="M17.246.748v4.5a1.5 1.5 0 0 0 1.5 1.5h4.5"/></svg>