<svg xmlns="http://www.w3.org/2000/svg" viewBox="0 0 24 24" width="24" height="24"><defs><style>.a{fill:none;stroke:#000;stroke-linecap:round;stroke-linejoin:round;stroke-width:1.5px}</style></defs><title>file-rar-1</title><path class="a" d="M4.496 19.498v-7.5M4.5 12h1.121a1.875 1.875 0 0 1 0 3.75H4.5m2.996 3.748l-2.25-3.75m11.25 3.75v-7.5M16.5 12h1.125a1.875 1.875 0 0 1 0 3.75H16.5m2.996 3.748l-2.25-3.75M10.5 19.5v-6a1.5 1.5 0 0 1 3 0v6m-3.004-3.002h3"/><path class="a" d="M22.807 5.559a1.5 1.5 0 0 1 .439 1.06V21A2.25 2.25 0 0 1 21 23.248H3A2.25 2.25 0 0 1 .746 21V3A2.25 2.25 0 0 1 3 .748h14.375a1.5 1.5 0 0 1 1.061.439z"/><path class="a" d="M17.246.748v4.5a1.5 1.5 0 0 0 1.5 1.5h4.5"/></svg>