<svg xmlns="http://www.w3.org/2000/svg" viewBox="0 0 24 24" width="24" height="24"><defs><style>.a{fill:none;stroke:#000;stroke-linecap:round;stroke-linejoin:round;stroke-width:1.5px}</style></defs><title>file-code-warning-1</title><path class="a" d="M16.991 20.254a.375.375 0 1 1-.375.375.374.374 0 0 1 .375-.375m0-2.25v-3"/><path class="a" d="M22.8 20.686a1.774 1.774 0 0 1-1.586 2.568h-8.449a1.775 1.775 0 0 1-1.587-2.568l4.222-8.452a1.774 1.774 0 0 1 3.173 0zm-14.809-.432h-6a1.5 1.5 0 0 1-1.5-1.5v-16.5a1.5 1.5 0 0 1 1.5-1.5h10.628a1.5 1.5 0 0 1 1.061.439l2.871 2.871a1.5 1.5 0 0 1 .44 1.061v3.129"/><path class="a" d="M8.741 6.004l2.25 2.25-2.25 2.25m-3-4.5l-2.25 2.25 2.25 2.25"/></svg>