<svg xmlns="http://www.w3.org/2000/svg" viewBox="0 0 24 24" width="24" height="24"><defs><style>.a{fill:none;stroke:#000;stroke-linecap:round;stroke-linejoin:round;stroke-width:1.5px}</style></defs><title>file-xml</title><path class="a" d="M3.751 23.254h-1.5a1.5 1.5 0 0 1-1.5-1.5v-19.5a1.5 1.5 0 0 1 1.5-1.5H12.88a1.5 1.5 0 0 1 1.061.439l5.871 5.871a1.5 1.5 0 0 1 .439 1.061v4.629"/><path class="a" d="M20.251 8.254h-6a1.5 1.5 0 0 1-1.5-1.5v-6m-6 15l3 7.5m0-7.5l-3 7.5m13.5-7.5v6a1.5 1.5 0 0 0 1.5 1.5h1.5m-6 0v-7.5l-2.25 3.75-2.25-3.75v7.5"/></svg>