<svg xmlns="http://www.w3.org/2000/svg" viewBox="0 0 24 24" width="24" height="24"><defs><style>.a{fill:none;stroke:#000;stroke-linecap:round;stroke-linejoin:round;stroke-width:1.5px}</style></defs><title>file-apk</title><path class="a" d="M5.252 23.253h-3a1.5 1.5 0 0 1-1.5-1.5v-19.5a1.5 1.5 0 0 1 1.5-1.5h10.629a1.5 1.5 0 0 1 1.06.44l5.872 5.871a1.5 1.5 0 0 1 .439 1.061v4.628"/><path class="a" d="M20.252 8.253h-6a1.5 1.5 0 0 1-1.5-1.5v-6m-4.5 22.5v-6a1.5 1.5 0 0 1 3 0v6m-3-3h3m3 3v-7.5m0 0H15a2.25 2.25 0 0 1 0 4.5h-.75m6.002 3v-7.5m3 7.5l-3-3.75 3-3.75"/></svg>