<svg xmlns="http://www.w3.org/2000/svg" viewBox="0 0 24 24" width="24" height="24"><defs><style>.a{fill:none;stroke:#000;stroke-linecap:round;stroke-linejoin:round;stroke-width:1.5px}</style></defs><title>file-sql</title><path class="a" d="M5.249 23.254h-3a1.5 1.5 0 0 1-1.5-1.5v-19.5a1.5 1.5 0 0 1 1.5-1.5h10.628a1.5 1.5 0 0 1 1.061.439l5.871 5.871a1.5 1.5 0 0 1 .44 1.061v3.129"/><path class="a" d="M20.249 8.254h-6a1.5 1.5 0 0 1-1.5-1.5v-6m7.5 13.5v6a1.5 1.5 0 0 0 1.5 1.5h1.5m-12-7.5h-1.5a1.5 1.5 0 0 0-1.5 1.5c0 2.25 3 2.25 3 4.5a1.5 1.5 0 0 1-1.5 1.5h-1.5m9-1.5a1.5 1.5 0 1 1-3 0v-4.5a1.5 1.5 0 1 1 3 0zm-1.5 1.5l1.5 1.5"/></svg>