<svg xmlns="http://www.w3.org/2000/svg" viewBox="0 0 24 24" width="24" height="24"><defs><style>.a{fill:none;stroke:#000;stroke-linecap:round;stroke-linejoin:round;stroke-width:1.5px}</style></defs><title>file-iso</title><path class="a" d="M8.241 23.254h-6a1.5 1.5 0 0 1-1.5-1.5v-19.5a1.5 1.5 0 0 1 1.5-1.5H12.87a1.5 1.5 0 0 1 1.06.439l5.87 5.871a1.5 1.5 0 0 1 .439 1.061v4.629"/><path class="a" d="M20.241 8.254h-6a1.5 1.5 0 0 1-1.5-1.5v-6m-1.5 22.5v-7.5m6 0h-1.5a1.5 1.5 0 0 0-1.5 1.5c0 2.25 3 2.25 3 4.5a1.5 1.5 0 0 1-1.5 1.5h-1.5m7.5-7.5a1.5 1.5 0 0 0-1.5 1.5v4.5a1.5 1.5 0 1 0 3 0v-4.5a1.5 1.5 0 0 0-1.5-1.5z"/></svg>