<svg xmlns="http://www.w3.org/2000/svg" viewBox="0 0 24 24" width="24" height="24"><defs><style>.a{fill:none;stroke:#000;stroke-linecap:round;stroke-linejoin:round;stroke-width:1.5px}</style></defs><title>file-code-star</title><path class="a" d="M17.965 11.684l1.535 4.069h3a.736.736 0 0 1 .518 1.284l-2.6 1.815 1.44 3.313a.785.785 0 0 1-1.117.983l-3.481-1.961-3.48 1.961a.785.785 0 0 1-1.117-.983l1.44-3.313-2.6-1.815a.735.735 0 0 1 .514-1.284h3l1.541-4.069a.794.794 0 0 1 1.407 0z"/><path class="a" d="M8.247 20.256h-6a1.5 1.5 0 0 1-1.5-1.5v-16.5a1.5 1.5 0 0 1 1.5-1.5h10.629a1.5 1.5 0 0 1 1.06.44l2.872 2.871a1.5 1.5 0 0 1 .439 1.061v3.128"/><rect class="a" x="6.747" y="5.256" width="3" height="4.5" rx=".75" ry=".75"/><path class="a" d="M3.747 5.256v4.5m9-4.5v4.5"/><rect class="a" x="3.747" y="12.756" width="3" height="4.5" rx=".75" ry=".75"/></svg>