<svg xmlns="http://www.w3.org/2000/svg" viewBox="0 0 24 24" width="24" height="24"><g fill="none" stroke="#000" stroke-linecap="round" stroke-linejoin="round" stroke-miterlimit="10"><circle cx="10.5" cy="10.5" r="10"/><path d="M17.572 17.574L23.5 23.5m-12-13.25h1.073c.914 0 1.073.498 1.073 1.118 0 .621-.159 1.132-1.073 1.132H11.5V8h1.073c.914 0 1.073.502 1.073 1.124 0 .62-.159 1.126-1.073 1.126H11.5zm-8.146 1.177S3.272 12.5 4.427 12.5c1.133 0 1.073-1.036 1.073-1.036V8m4.269 2.25c0 1.267-.189 2.25-1.269 2.25-1.08 0-1.27-.983-1.27-2.25C7.23 8.984 7.42 8 8.5 8c1.079 0 1.269.984 1.269 2.25zm5.83 1.175c.035.602.502 1.075 1.072 1.075.594 0 1.075-.514 1.075-1.147 0-.935-.885-1.052-1.072-1.107-.188-.055-1.075-.162-1.075-1.097 0-.635.481-1.149 1.075-1.149.57 0 1.037.476 1.072 1.075"/></g><path fill="none" d="M0 0h24v24H0z"/></svg>