<svg xmlns="http://www.w3.org/2000/svg" viewBox="0 0 24 24" width="24" height="24"><g fill="none" stroke="#000" stroke-linejoin="round" stroke-miterlimit="10"><path d="M10.688 11.375c1.587 1.168 1.498 3.432.875 4.375-.428-.352-.81-.734-.875-1.313C9.227 15.016 8.5 16.16 8.5 17.5a3.5 3.5 0 107 0c0-2.825-2.033-5.485-4.812-6.125z"/><path d="M4.5 9.5h15l-2 12h-11zm5-5h5l5 3h-15zm-5 17h15v2h-15zm-2-14h19v2h-19zm7.496-3.004S9.5 3.56 9.5 3a2.5 2.5 0 115 0c0 .563-.5 1.5-.5 1.5"/></g><path fill="none" d="M0 0h24v24H0z"/></svg>