<svg id="Regular" xmlns="http://www.w3.org/2000/svg" viewBox="0 0 24 24" width="24" height="24"><defs><style>.cls-1{fill:none;stroke:#000;stroke-linecap:round;stroke-linejoin:round;stroke-width:1.5px}</style></defs><title>fireworks-rocket</title><path class="cls-1" d="M21.034 2.183a.717.717 0 0 0-.717-.717L13.941.75a.716.716 0 0 0-.506 1.223l7.092 7.092a.716.716 0 0 0 1.223-.506z"/><path class="cls-1" d="M9.6 3.945h7.164v9.747a1 1 0 0 1-1 1H10.6a1 1 0 0 1-1-1V3.945z" transform="rotate(45 13.181 9.319)"/><path class="cls-1" d="M9.382 13.118l-7.801 7.801m9.319-6.281a3.582 3.582 0 0 0 0 5.066m7.828-1.52l-1.52 1.52m-2.026 2.026l-1.52 1.52m5.066 0l-1.52-1.52m-2.026-2.026l-1.52-1.52"/></svg>