<svg xmlns="http://www.w3.org/2000/svg" viewBox="0 0 24 24" width="24" height="24"><defs><style>.a{fill:none;stroke:#000;stroke-linecap:round;stroke-linejoin:round;stroke-width:1.5px}</style></defs><title>firewall</title><path class="a" d="M.75 14.25h22.5v9H.75zm0 4.5h22.5m-7.5-4.5v4.5m-7.5-4.5v4.5m-3 0v4.5m7.5-4.5v4.5m7.5-4.5v4.5m-8.85-9c-2.7 0-5.4-2.015-5.4-4.5 0-2.7 1.35-4.5 3.6-4.5-.3 1.5-.45 2.7 1.35 2.7 2.7 0 1.967-3.925-.9-7.2 3.728 0 7.65 3.75 7.65 6.75 0 3.728-.9 6.75-6.3 6.75z"/></svg>