<svg xmlns="http://www.w3.org/2000/svg" viewBox="0 0 24 24" width="24" height="24"><g fill="none" stroke="#000" stroke-linecap="round" stroke-linejoin="round" stroke-miterlimit="10"><path d="M4.122 20.933C-2.812 13.999 13.314.427 20.942.983c-3.889 2.476-8.485 7.778-8.485 9.9 0 0 3.889-2.475 8.485-5.657-1.768 3.183-6.364 9.192-6.364 9.192s2.828 0 5.303-2.475c1.616 4.846-8.825 15.923-15.759 8.99z"/><path d="M4.325 14.771a4.5 4.5 0 000 6.364c5.209 5.209 11.217-4.511 7.778-7.778 0 0-1.061 3.889-4.243 3.535l.354-3.182c-1.414-.706-3.014.186-3.889 1.061z"/></g><path fill="none" d="M0 0h24v24H0z"/></svg>