<svg xmlns="http://www.w3.org/2000/svg" viewBox="0 0 24 24" width="24" height="24"><g fill="none" stroke="#000" stroke-linejoin="round" stroke-miterlimit="10"><path stroke-linecap="round" d="M5 23.5h16M6.5 8.5h13v15h-13zM5 8.5h16"/><path d="M6.5 11.5h13m-13 3h13m-13 3h13m-13 3h13"/><path stroke-linecap="round" d="M5.734 2.015a3.389 3.389 0 014.786 3.09M10.355.624a4.374 4.374 0 011.597 3.385c0 .562-.105 1.1-.299 1.594m.015-.067a.597.597 0 01-1.149-.233"/><path stroke-linecap="round" d="M7 8.5l.728-1.202a4.166 4.166 0 00.404-1.795c0-1.396-.83-2.632-1.996-3.393M10.52.519A5.98 5.98 0 0116.5 6.5l1.993-2.393V8.5M2.5 1v3M1 2.5h3m17.5.5v3M20 4.5h3"/></g><path fill="none" d="M0 0h24v24H0z"/></svg>