<svg id="Regular" xmlns="http://www.w3.org/2000/svg" viewBox="0 0 24 24" width="24" height="24"><defs><style>.cls-1{fill:none;stroke:#000;stroke-linecap:round;stroke-linejoin:round;stroke-width:1.5px}</style></defs><title>fireworks-people-watch</title><circle class="cls-1" cx="3.375" cy="16.875" r="2.625"/><circle class="cls-1" cx="20.625" cy="16.875" r="2.625"/><circle class="cls-1" cx="12" cy="16.875" r="2.625"/><path class="cls-1" d="M7.688 23.25A4.585 4.585 0 0 0 .75 21.083m15.563 2.167a4.584 4.584 0 0 1 6.937-2.167m-6.937 2.167a4.6 4.6 0 0 0-8.626 0m6.563-12S15 7.5 18 6.75M20.25 6h3m-1.5-1.5v3m-12 3.75S9 7.5 6 6.75M3.75 6h-3m1.5-1.5v3m8.25-5.25h3M12 .75v3m0 7.5v-4.5"/></svg>