<svg xmlns="http://www.w3.org/2000/svg" viewBox="0 0 24 24" width="24" height="24"><g fill="none" stroke="#000" stroke-linejoin="round" stroke-miterlimit="10"><path d="M14.656.998c1.566 1.152 1.479 3.387.864 4.318-.423-.346-.799-.725-.864-1.295-1.44.571-2.158 1.699-2.158 3.023a3.454 3.454 0 006.908 0c0-2.788-2.007-5.415-4.75-6.046zM21.5 21.5a2 2 0 01-2 2h-9a2 2 0 01-2-2v-8h13v8z"/><path stroke-linecap="round" d="M2.5 4.5a4 4 0 014-4h2v13h-2a4 4 0 01-4-4v-5zm10 6h7v3h-7z"/></g><path fill="none" d="M0 0h24v24H0z"/></svg>