<svg id="Regular" xmlns="http://www.w3.org/2000/svg" viewBox="0 0 24 24" width="24" height="24"><defs><style>.cls-1{fill:none;stroke:#000;stroke-linecap:round;stroke-linejoin:round;stroke-width:1.5px}</style></defs><title>fireplace-1</title><path class="cls-1" d="M2.25 7.5h19.5v12H2.25z"/><path class="cls-1" d="M8.25 19.5v-2.25a3.75 3.75 0 0 1 7.5 0v2.25m-13.5-9h19.5m-19.5 3h4.5m-1.5-6v3m1.5 0v3m3-6v3m4.5-3v3m1.5 0V12m3-4.5v3m-18-6h22.5v3H.75zm16.5 9h4.5m-19.5 3h3m13.5 0h3m-16.5 0v-3m13.5 3v-3"/></svg>