<svg xmlns="http://www.w3.org/2000/svg" viewBox="0 0 24 24" width="24" height="24"><g fill="none" stroke="#000" stroke-linejoin="round" stroke-miterlimit="10"><path d="M10.688 10.375c1.587 1.167 1.498 3.433.875 4.375-.428-.351-.81-.734-.875-1.312-1.46.578-2.188 1.721-2.188 3.062a3.5 3.5 0 107 0c0-2.823-2.033-5.485-4.812-6.125z"/><path stroke-linecap="round" d="M7 .5h10"/><path d="M3.5 23.5h17a3 3 0 00-3-3h-11a3 3 0 00-3 3zm10.917-19H9.583C7.659 5.31 2 17 7.93 20.5h8.141c5.929-3.5.015-15.297-1.654-16zM8.5.5h7v4h-7z"/><path d="M15.5 3.5h2.901c.935 0 1.745.648 1.95 1.56l2.732 14.097a2.002 2.002 0 01-1.402 2.364l-1.598.456M8.5 3.5H5.599c-.935 0-1.745.648-1.95 1.56L.916 19.156a2.002 2.002 0 001.402 2.364l1.601.458"/></g><path fill="none" d="M0 0h24v24H0z"/></svg>