<svg xmlns="http://www.w3.org/2000/svg" viewBox="0 0 24 24" width="24" height="24"><g fill="none" stroke="#000" stroke-linecap="round" stroke-linejoin="round" stroke-miterlimit="10"><path d="M5.5.5h12v2h-12zm5.346 13c.387 1.259 1.136 3.565 0 5.385-.244-.269-1.153-1.538-1.153-1.538s-1.154 1.622-1.154 2.692a3.463 3.463 0 003.462 3.461 3.46 3.46 0 003.461-3.461c-.001-2.79-1.944-5.645-4.616-6.539zM11.5 5v2m0 2v2m2.586-5.341l.498 1.936m-.293 3.059l.498 1.937m2.023-3.687l.499 1.938M6.25 8.904l-.498 1.938m3.167-5.187l-.478 1.943m.326 3.055l-.478 1.942"/><path d="M5.5.5h12v2h-12zm5.346 13c.387 1.259 1.136 3.565 0 5.385-.244-.269-1.153-1.538-1.153-1.538s-1.154 1.622-1.154 2.692a3.463 3.463 0 003.462 3.461 3.46 3.46 0 003.461-3.461c-.001-2.79-1.944-5.645-4.616-6.539zM11.5 5v2m0 2v2m2.586-5.341l.498 1.936m-.293 3.059l.498 1.937m2.023-3.687l.499 1.938M6.25 8.904l-.498 1.938m3.167-5.187l-.478 1.943m.326 3.055l-.478 1.942"/></g><path fill="none" d="M0 0h24v24H0z"/></svg>