<svg id="Regular" xmlns="http://www.w3.org/2000/svg" viewBox="0 0 24 24" width="24" height="24"><defs><style>.cls-1{fill:none;stroke:#000;stroke-linecap:round;stroke-linejoin:round;stroke-width:1.5px}</style></defs><title>fireworks</title><path class="cls-1" d="M18.375 2.25a.375.375 0 0 1 .375.375m-.75 0a.375.375 0 0 1 .375-.375m0 .75A.375.375 0 0 1 18 2.625m.75 0a.375.375 0 0 1-.375.375m-16.5 19.5a.375.375 0 0 1 .375.375m-.75 0a.375.375 0 0 1 .375-.375m0 .75a.375.375 0 0 1-.375-.375m.75 0a.375.375 0 0 1-.375.375m20.25-6a.375.375 0 0 1 .375.375m-.75 0a.375.375 0 0 1 .375-.375m0 .75a.375.375 0 0 1-.375-.375m.75 0a.375.375 0 0 1-.375.375M12 2.25V13.5m0-.03s2.02-5.891 7.183-7.37M12 13.47a13.059 13.059 0 0 0-7.469-7.7M.75 12.752A15.234 15.234 0 0 1 12 13.47m-7.088 5.567S7.5 13.183 12 13.47m11.25-.718A15.234 15.234 0 0 0 12 13.47m7.088 5.567S16.5 13.183 12 13.47M3 .75v3m1.5-1.5h-3M12 19.5v3m1.5-1.5h-3"/></svg>