<svg id="Regular" xmlns="http://www.w3.org/2000/svg" viewBox="0 0 24 24" width="24" height="24"><defs><style>.cls-1{fill:none;stroke:#000;stroke-linecap:round;stroke-linejoin:round;stroke-width:1.5px}</style></defs><title>fireworks-stick</title><path class="cls-1" d="M4.125 3.75a.375.375 0 0 1 .375.375m-.75 0a.375.375 0 0 1 .375-.375m0 .75a.375.375 0 0 1-.375-.375m.75 0a.375.375 0 0 1-.375.375m18 4.5a.375.375 0 0 1 .375.375m-.75 0A.375.375 0 0 1 22.125 9m0 .75a.375.375 0 0 1-.375-.375m.75 0a.375.375 0 0 1-.375.375m-11.25 9.75a.375.375 0 0 1 .375.375m-.75 0a.375.375 0 0 1 .375-.375m0 .75a.375.375 0 0 1-.375-.375m.75 0a.375.375 0 0 1-.375.375"/><circle class="cls-1" cx="9" cy="15" r="1.5"/><path class="cls-1" d="M15 .75v3m1.5-1.5h-3m7.5 18v3m1.5-1.5h-3M7.939 16.061L.75 23.25m13.499-10.5a5.959 5.959 0 0 1 6 .75M11.25 9.751a5.959 5.959 0 0 0-.75-6m5.25 4.499a4.36 4.36 0 0 1 4.5-3m-7.5 10.5s2.25 3 2.25 6m-7.5-10.5S4.5 9 1.5 9"/></svg>