<svg xmlns="http://www.w3.org/2000/svg" viewBox="0 0 24 24" width="24" height="24"><g fill="none" stroke="#000" stroke-linejoin="round" stroke-miterlimit="10"><circle cx="12" cy="16" r="7.5"/><path stroke-linecap="round" d="M10.961 11.5c.348 1.133 1.022 3.209 0 4.847-.22-.242-1.038-1.385-1.038-1.385s-1.038 1.459-1.038 2.423a3.115 3.115 0 006.23 0c0-2.511-1.749-5.081-4.154-5.885zM3.5 9c0-3.037 2.46-5.5 5.5-5.5M.5 9A8.5 8.5 0 019 .5M20.5 9c0-3.037-2.465-5.5-5.5-5.5M23.5 9c0-4.694-3.807-8.5-8.5-8.5"/></g><path fill="none" d="M0 0h24v24H0z"/></svg>