<svg xmlns="http://www.w3.org/2000/svg" viewBox="0 0 24 24" width="24" height="24"><path fill="none" stroke="#000" stroke-linecap="round" stroke-linejoin="round" stroke-miterlimit="10" d="M9.89 2.11a5.501 5.501 0 00-7.778 7.779l12 12a5.5 5.5 0 007.778-7.778L9.89 2.11z"/><path fill="none" stroke="#000" stroke-linecap="round" stroke-linejoin="round" stroke-miterlimit="10" d="M5.637 13.414l7.777-7.777 4.95 4.95-7.777 7.778z"/><path d="M4.223 7.965a.502.502 0 10.003 1 .502.502 0 00-.003-1zm2.121-2.122a.502.502 0 000 1.001.5.5 0 00.353-.855.498.498 0 00-.353-.146zm-2.475-.354a.502.502 0 10.354.855.5.5 0 00-.354-.855zm2.121-2.12a.5.5 0 100 .999.5.5 0 000-.999zm.707 4.948a.5.5 0 10.002 1 .5.5 0 00-.002-1zm2.121-2.121a.5.5 0 00-.354.853.496.496 0 00.708 0 .497.497 0 000-.706.503.503 0 00-.354-.147zm-.353-2.475a.502.502 0 10.354.854.502.502 0 00-.354-.854zm7.071 15.558a.502.502 0 00-.354.854.501.501 0 00.708-.708.498.498 0 00-.354-.146zm2.121-2.123a.5.5 0 10-.003 1.002.5.5 0 00.003-1.002zm.354 2.475a.502.502 0 10.003 1 .502.502 0 00-.003-1zm2.122-2.12a.5.5 0 100 .999.5.5 0 000-.999zm-4.95-.708a.502.502 0 10.354.855.502.502 0 00-.354-.855zm2.121-2.121a.502.502 0 10.003 1 .502.502 0 00-.003-1zm2.475.353a.5.5 0 100 .998.5.5 0 000-.998z"/><path fill="none" d="M0 0h24v24H0z"/></svg>