<svg xmlns="http://www.w3.org/2000/svg" viewBox="0 0 24 24" width="24" height="24"><g fill="none" stroke="#000" stroke-linejoin="round" stroke-miterlimit="10"><path d="M3.5 15.531V17.5a4 4 0 004 4h9a4 4 0 004-4v-1.969"/><path d="M12 12.5c3.847 0 7.316 1.609 9.775 4.192a1.001 1.001 0 001.725-.687C23.52 9.786 18.47 4.5 12 4.5 5.529 4.5.48 9.787.5 16.006a1.002 1.002 0 001.725.687A13.45 13.45 0 0112 12.5zm-7.75 2.531L9.062 4.812m2.339 7.774l3.661-7.774m1.918 8.667l2.807-5.959"/></g><path fill="none" d="M0 0h24v24H0z"/></svg>