<svg xmlns="http://www.w3.org/2000/svg" viewBox="0 0 24 24" width="24" height="24"><defs><style>.a{fill:none;stroke:#000;stroke-linecap:round;stroke-linejoin:round;stroke-width:1.5px}</style></defs><title>fishing</title><path class="a" d="M5.25 15.75h18M9.75 18v-2.25m-3 3v-3m12 0v3m3-.75v-2.25m-3-11.25v2.25M18 1.524A1.5 1.5 0 0 1 19.313.75a4.454 4.454 0 0 1 1.5.75A1.992 1.992 0 0 0 23.09.75M2.25 2.417V18.75m6-3L1.5.75l12 15m9.75-4.5a4.5 4.5 0 0 0-9 0v4.5h9zm0 12A2.553 2.553 0 0 1 20.775 21c0 1.243-1.31 2.25-2.925 2.25s-2.925-1.007-2.925-2.25c0 1.243-1.31 2.25-2.925 2.25S9.075 22.243 9.075 21c0 1.243-1.31 2.25-2.925 2.25S3.225 22.243 3.225 21A2.553 2.553 0 0 1 .75 23.25"/></svg>