<svg id="Regular" xmlns="http://www.w3.org/2000/svg" viewBox="0 0 24 24" width="24" height="24"><defs><style>.cls-1{fill:none;stroke:#000;stroke-linecap:round;stroke-linejoin:round;stroke-width:1.5px}</style></defs><title>fishing-fail</title><path class="cls-1" d="M17.7 18.245c-3.726 2.615-7.451 3.876-10.9 2.964L4.554 23.25l-1.5-4.012a14.44 14.44 0 0 1-2.044-2.092 1.216 1.216 0 0 1 0-1.513c4.832-5.992 10.759-5.26 16.687-1.1l4.735-1.821a.617.617 0 0 1 .747.863L21.4 16.39l1.783 2.81a.618.618 0 0 1-.747.863zM5.99 14.8a.375.375 0 0 0 0 .53m.531-.53a.377.377 0 0 0-.531 0m.531.528a.375.375 0 0 0 0-.53m-.531.53a.375.375 0 0 0 .531 0m1.184-3.944L9.789 8.25m2.477 3.516l2.01-2.016m8.974-9l-6 6m6 0l-6-6"/></svg>