<svg xmlns="http://www.w3.org/2000/svg" viewBox="0 0 24 24" width="24" height="24"><g fill="none" stroke="#000" stroke-linejoin="round" stroke-miterlimit="10"><path d="M21.713 2.292c.817.818 1.381 7.127-2.817 11.325s-9.91 4.231-9.91 4.231L6.157 15.02s.089-5.746 4.243-9.899C14.554.967 20.896 1.475 21.713 2.292zM8.985 17.849l-2.829 5.657-1.631-3.731L.5 17.849l5.656-2.828z"/><path d="M20.025 12.275s-.015 3.188-4.678 7.85l-2.834-2.859M6.51 12.545L3.682 9.717s.897-4.32 6.344-4.441"/><circle cx="16.026" cy="5.798" r="1"/></g><path fill="none" d="M0 0h24v24H0z"/></svg>