<svg id="Regular" xmlns="http://www.w3.org/2000/svg" viewBox="0 0 24 24" width="24" height="24"><defs><style>.cls-1{fill:none;stroke:#000;stroke-linecap:round;stroke-linejoin:round;stroke-width:1.5px}</style></defs><title>fishing-catch</title><path class="cls-1" d="M5.25.75h16.5m-16.5 3h12M6.3 18.245c3.726 2.615 7.451 3.876 10.9 2.964l2.243 2.041 1.5-4.012a14.44 14.44 0 0 0 2.044-2.092 1.216 1.216 0 0 0 0-1.513c-4.832-5.992-10.759-5.26-16.687-1.1l-4.736-1.82a.617.617 0 0 0-.747.863L2.6 16.39.817 19.2a.618.618 0 0 0 .747.863zM18.01 14.8a.375.375 0 0 1 0 .53m-.531-.53a.377.377 0 0 1 .531 0m-.531.528a.375.375 0 0 1 0-.53m.531.53a.375.375 0 0 1-.531 0m-1.184-3.944L14.211 8.25m-2.477 3.516L9.724 9.75"/></svg>