<svg id="Regular" xmlns="http://www.w3.org/2000/svg" viewBox="0 0 24 24" width="24" height="24"><defs><style>.cls-1{fill:none;stroke:#000;stroke-linecap:round;stroke-linejoin:round;stroke-width:1.5px}</style></defs><title>fishing-hook-fish</title><path class="cls-1" d="M18.75 4.5C16.394 6.357 15 8.245 15 11.25c0 3.188 4.646 8.349 6.965 10.726a.75.75 0 0 1-.537 1.274h-5.356a.75.75 0 0 1-.537-1.274C17.854 19.6 22.5 14.438 22.5 11.25c0-3.005-1.394-4.893-3.75-6.75zM3 12v2.625a3.375 3.375 0 0 0 6.75 0V11.25l-2.25 1.5m-3-3l-3-2.25m3-1.5l-3-2.25m1.5-3v4.125"/></svg>