<svg id="Regular" xmlns="http://www.w3.org/2000/svg" viewBox="0 0 24 24" width="24" height="24"><defs><style>.cls-1{fill:none;stroke:#000;stroke-linecap:round;stroke-linejoin:round;stroke-width:1.5px}</style></defs><title>fishing-fish</title><path class="cls-1" d="M21.75 12.75V1.5"/><circle class="cls-1" cx="21.75" cy="14.25" r="1.5"/><path class="cls-1" d="M21.75 15.75v4.5a2.25 2.25 0 0 1-4.5 0v-.75M12 7.5c-3.219 0-6 2.25-7.5 3.75C6 12.75 8.781 15 12 15c2.071 0 4.5-1.679 4.5-3.75S14.071 7.5 12 7.5zM2.03 8.78a.75.75 0 0 0-1.28.531v3.878a.75.75 0 0 0 1.28.531l2.47-2.47zm10.72 2.095a.375.375 0 0 1 .375.375m-.75 0a.375.375 0 0 1 .375-.375m0 .75a.375.375 0 0 1-.375-.375m.75 0a.375.375 0 0 1-.375.375"/></svg>