<svg xmlns="http://www.w3.org/2000/svg" viewBox="0 0 24 24" width="24" height="24"><g fill="none" stroke="#000" stroke-linejoin="round" stroke-miterlimit="10"><path d="M10.5 11.5a5.001 5.001 0 00-5.491-4.977C2.409 6.771.5 9.104.5 11.715V13.5a4 4 0 004 4h2a4 4 0 004-4v-2z"/><path d="M5.5 6.5c7 0 10.699 1.869 14 5-1.37 3.65-4.739 5.864-11 6h-3m14-6v-1a4 4 0 014-4v1a4 4 0 01-4 4zm0 0v1a4 4 0 004 4v-1a4 4 0 00-4-4z"/><path d="M8.5 11.5a3 3 0 00-6 0v1a3 3 0 106 0v-1z"/><path d="M6.5 11.5a1 1 0 10-2 0v1a1 1 0 102 0v-1z"/></g><path fill="none" d="M0 0h24v24H0z"/></svg>