<svg id="Regular" xmlns="http://www.w3.org/2000/svg" viewBox="0 0 24 24" width="24" height="24"><defs><style>.cls-1{fill:none;stroke:#000;stroke-linecap:round;stroke-linejoin:round;stroke-width:1.5px}</style></defs><title>fishing-bait-fish</title><path class="cls-1" d="M3.191 17L.75 19.092c4.7 4.876 11.546 4.15 17.25.157l4.409 2.966a.638.638 0 0 0 .772-.89L21.75 17l1.431-4.326a.638.638 0 0 0-.772-.89L18 14.749c-5.7-3.993-12.55-4.719-17.25.158zm3.559-2.375a.375.375 0 0 1 .375.375m-.75 0a.375.375 0 0 1 .375-.375m0 .75A.375.375 0 0 1 6.375 15m.75 0a.375.375 0 0 1-.375.375M23.25 5.25a.75.75 0 0 1-.75.75H5.25a4.5 4.5 0 0 1-4.5-4.5H22.5a.75.75 0 0 1 .75.75zm-9-3.75V6"/></svg>