<svg xmlns="http://www.w3.org/2000/svg" viewBox="0 0 24 24" width="24" height="24"><g fill="none" stroke="#000" stroke-linecap="round" stroke-linejoin="round" stroke-miterlimit="10"><path d="M21.925 2.059c.816.818 1.381 7.127-2.818 11.326-4.197 4.197-9.91 4.23-9.91 4.23l-2.828-2.828s.088-5.746 4.242-9.898c4.154-4.155 10.496-3.647 11.314-2.83z"/><path d="M9.197 17.615l-2.828 5.658-1.631-3.73-4.026-1.928 5.657-2.828zm11.041-5.572s-.016 3.188-4.678 7.85l-2.834-2.859m-6.004-4.722L3.894 9.484s1.119-4.32 6.566-4.441M16 4l2.5 2.5m0-2.5L16 6.5"/></g><path fill="none" d="M0 0h24v24H0z"/></svg>