<svg id="Regular" xmlns="http://www.w3.org/2000/svg" viewBox="0 0 24 24" width="24" height="24"><defs><style>.cls-1{fill:none;stroke:#000;stroke-linecap:round;stroke-linejoin:round;stroke-width:1.5px}</style></defs><title>fitness-weightlift</title><circle class="cls-1" cx="12" cy="9.375" r="2.625"/><path class="cls-1" d="M3.765 9a10.648 10.648 0 0 0 2.475 6.416A7.582 7.582 0 0 0 9 17.32v5.93m9.079-17.092a1.5 1.5 0 0 0-.823 1.467c0 .036.243 3.644-1.7 5.759a4.538 4.538 0 0 1-1.13.866H9.575a4.6 4.6 0 0 1-1.118-.85C6.5 11.278 6.74 7.689 6.746 7.62a1.5 1.5 0 0 0-.825-1.462M15 23.25v-5.93a7.582 7.582 0 0 0 2.76-1.9A10.648 10.648 0 0 0 20.235 9m.016-5.245a45.482 45.482 0 0 0-16.5 0"/><path class="cls-1" d="M23.25 5.25a1.5 1.5 0 0 1-3 0v-3a1.5 1.5 0 0 1 3 0zm-19.5 0a1.5 1.5 0 0 1-3 0v-3a1.5 1.5 0 0 1 3 0z"/></svg>