<svg id="Regular" xmlns="http://www.w3.org/2000/svg" viewBox="0 0 24 24" width="24" height="24"><defs><style>.cls-1{fill:none;stroke:#000;stroke-linecap:round;stroke-linejoin:round;stroke-width:1.5px}</style></defs><title>fitness-shaker</title><path class="cls-1" d="M18 6.75a3 3 0 0 0-3-3H9a3 3 0 0 0-3 3V9a5.237 5.237 0 0 0 1.5 3A5.237 5.237 0 0 0 6 15v5.25a3 3 0 0 0 3 3h6a3 3 0 0 0 3-3V15a5.237 5.237 0 0 0-1.5-3A5.237 5.237 0 0 0 18 9zm-6-3v-3m-6 6h12"/><path class="cls-1" d="M13.5 12l-3.75 3.75h4.5L10.5 19.5"/></svg>