<svg id="Regular" xmlns="http://www.w3.org/2000/svg" viewBox="0 0 24 24" width="24" height="24"><defs><style>.cls-1{fill:none;stroke:#000;stroke-linecap:round;stroke-linejoin:round;stroke-width:1.5px}</style></defs><title>fitness-jumping-rope</title><path class="cls-1" d="M21 13.5V8.114C21 4.047 17.978.75 14.25.75S7.5 4.047 7.5 8.114a4.718 4.718 0 0 0 4.5 4.909 4.718 4.718 0 0 0 4.5-4.909C16.5 4.047 13.478.75 9.75.75S3 4.047 3 8.114V13.5M.75 21a2.25 2.25 0 0 0 4.5 0v-6.75a.75.75 0 0 0-.75-.75h-3a.75.75 0 0 0-.75.75zm18 0a2.25 2.25 0 0 0 4.5 0v-6.75a.75.75 0 0 0-.75-.75h-3a.75.75 0 0 0-.75.75zm-18-4.5h4.5m13.5 0h4.5"/></svg>