<svg id="Regular" xmlns="http://www.w3.org/2000/svg" viewBox="0 0 24 24" width="24" height="24"><defs><style>.cls-1{fill:none;stroke:#000;stroke-linecap:round;stroke-linejoin:round;stroke-width:1.5px}</style></defs><title>fitness-jumping-rope-2</title><path class="cls-1" d="M6 12.75a1.5 1.5 0 0 0-1.5 1.5V21A2.25 2.25 0 0 0 9 21v-6.75a1.5 1.5 0 0 0-1.5-1.5z"/><circle class="cls-1" cx="12" cy="3" r="2.25"/><path class="cls-1" d="M6.75 12.75A7.357 7.357 0 0 1 12 5.25m6 7.5a1.5 1.5 0 0 1 1.5 1.5V21a2.25 2.25 0 0 1-4.5 0v-6.75a1.5 1.5 0 0 1 1.5-1.5zm-.75 0A7.357 7.357 0 0 0 12 5.25"/></svg>