<svg id="Regular" xmlns="http://www.w3.org/2000/svg" viewBox="0 0 24 24" width="24" height="24"><defs><style>.cls-1{fill:none;stroke:#000;stroke-linecap:round;stroke-linejoin:round;stroke-width:1.5px}</style></defs><title>fitness-dumbbell</title><path class="cls-1" d="M16.318 1.189a1.5 1.5 0 0 0 0 2.121l4.371 4.371a1.5 1.5 0 0 0 2.122-2.121l-4.372-4.371a1.5 1.5 0 0 0-2.121 0z"/><path class="cls-1" d="M12.075 1.188a1.5 1.5 0 0 0 0 2.122l8.615 8.615A1.5 1.5 0 1 0 22.811 9.8L14.2 1.188a1.5 1.5 0 0 0-2.125 0zM1.189 16.318a1.5 1.5 0 0 1 2.122 0l4.371 4.371a1.5 1.5 0 0 1-2.121 2.121l-4.372-4.371a1.5 1.5 0 0 1 0-2.121z"/><path class="cls-1" d="M1.189 12.074a1.5 1.5 0 0 1 2.121 0l8.615 8.615A1.5 1.5 0 0 1 9.8 22.811L1.189 14.2a1.5 1.5 0 0 1 0-2.126z"/><path class="cls-1" transform="rotate(-45 12 12)" d="M5.802 10.499h12.395v3H5.802z"/></svg>