<svg id="Regular" xmlns="http://www.w3.org/2000/svg" viewBox="0 0 24 24" width="24" height="24"><defs><style>.cls-1{fill:none;stroke:#000;stroke-linecap:round;stroke-linejoin:round;stroke-width:1.5px}</style></defs><title>fitness-weights</title><path class="cls-1" d="M8.25 11.5h7.5m-9 6a1.5 1.5 0 0 1-1.5-1.5V7a1.5 1.5 0 0 1 3 0v9a1.5 1.5 0 0 1-1.5 1.5zm-4.5-6H.75m3-3a1.5 1.5 0 0 0-1.5 1.5v3a1.5 1.5 0 0 0 3 0v-3a1.5 1.5 0 0 0-1.5-1.5zm13.5 9a1.5 1.5 0 0 0 1.5-1.5V7a1.5 1.5 0 0 0-3 0v9a1.5 1.5 0 0 0 1.5 1.5zm4.5-6h1.5m-3-3a1.5 1.5 0 0 1 1.5 1.5v3a1.5 1.5 0 0 1-3 0v-3a1.5 1.5 0 0 1 1.5-1.5z"/></svg>