<svg id="Regular" xmlns="http://www.w3.org/2000/svg" viewBox="0 0 24 24" width="24" height="24"><defs><style>.cls-1{fill:none;stroke:#000;stroke-linecap:round;stroke-linejoin:round;stroke-width:1.5px}</style></defs><title>fitness-bicycle-1</title><path class="cls-1" d="M11.4 13.2A3 3 0 0 0 9 12H6a5.25 5.25 0 0 0 0 10.5h15a2.25 2.25 0 0 0 0-4.5h-4.5a3 3 0 0 1-2.4-1.2zm-4.65 3.3l2.25 3"/><path class="cls-1" d="M13.433 15.911l1.922-6.964A1.964 1.964 0 0 1 17.25 7.5h3a3 3 0 0 0 0-6h-6m-12 6h6m-3.75 0l3 4.5"/></svg>