<svg xmlns="http://www.w3.org/2000/svg" viewBox="0 0 24 24" width="24" height="24"><g fill="none" stroke="#000" stroke-linejoin="round" stroke-miterlimit="10"><path d="M23.5 22a1.5 1.5 0 01-1.5 1.5H2a1.5 1.5 0 110-3h20a1.5 1.5 0 011.5 1.5z"/><path d="M1.5 16.115c0-2.858 2.692-4.943 5.448-4.253l12.425 3.105a2.808 2.808 0 01-.681 5.533H5.885A4.385 4.385 0 011.5 16.115z"/><path stroke-linecap="round" d="M14.5.5h3a2 2 0 012 2l-1.79 12.053M8.5 12.25V8.5m-.979 10H11.5m-2 0l-2.969-3.969M4.5 6.746a1.754 1.754 0 012.179-1.701l4.97 1.242c1.277.319 1.045 2.213-.272 2.213H6.254A1.754 1.754 0 014.5 6.746z"/></g><path fill="none" d="M0 0h24v24H0z"/></svg>