<svg id="Regular" xmlns="http://www.w3.org/2000/svg" viewBox="0 0 24 24" width="24" height="24"><defs><style>.cls-1{fill:none;stroke:#000;stroke-linecap:round;stroke-linejoin:round;stroke-width:1.5px}</style></defs><title>fitness-six-pack</title><path class="cls-1" d="M14.045 14.33A2.046 2.046 0 0 1 12 12.284a2.046 2.046 0 0 1-2.045 2.046m4.09 5.113A2.045 2.045 0 0 1 12 17.4a2.045 2.045 0 0 1-2.045 2.045M6.886 22V11.773a2.046 2.046 0 0 1 2.046-2.046M17.114 22V11.773a2.046 2.046 0 0 0-2.046-2.046M23.25 7v.466a4.089 4.089 0 0 1-.687 2.269l-2.381 3.572V22M3.818 22v-8.693L1.437 9.735A4.089 4.089 0 0 1 .75 7.466V7m9.75-5.25a4.7 4.7 0 0 1-4.875 4.5A4.7 4.7 0 0 1 .75 1.75m12.75 0a4.7 4.7 0 0 0 4.875 4.5 4.7 4.7 0 0 0 4.875-4.5"/></svg>