<svg id="Regular" xmlns="http://www.w3.org/2000/svg" viewBox="0 0 24 24" width="24" height="24"><defs><style>.cls-1{fill:none;stroke:#000;stroke-linecap:round;stroke-linejoin:round;stroke-width:1.5px}</style></defs><title>fitness-machine</title><path class="cls-1" d="M4.5 6.75a6 6 0 0 1 6-6h3a6 6 0 0 1 6 6"/><path class="cls-1" d="M6 8.25a1.5 1.5 0 0 0-3 0v3a1.5 1.5 0 0 0 3 0zm-1.5 4.5V15M3 11.25H.75m17.25-3a1.5 1.5 0 0 1 3 0v3a1.5 1.5 0 0 1-3 0zm1.5 4.5V15m1.5-3.75h2.25m-8.25 6H9V12a3 3 0 0 1 6 0zm2.25 1.5a1.5 1.5 0 0 0-1.5-1.5h-7.5a1.5 1.5 0 0 0 0 3h7.5a1.5 1.5 0 0 0 1.5-1.5zM12 20.25v3m0-22.5V6"/></svg>