<svg id="Regular" xmlns="http://www.w3.org/2000/svg" viewBox="0 0 24 24" width="24" height="24"><defs><style>.cls-1{fill:none;stroke:#000;stroke-linecap:round;stroke-linejoin:round;stroke-width:1.5px}</style></defs><title>fitness-jumping-rope-3</title><path class="cls-1" d="M5.25 21a2.25 2.25 0 0 1-4.5 0v-7.5a.75.75 0 0 1 .75-.75h3a.75.75 0 0 1 .75.75zm13.5-18a2.25 2.25 0 0 1 4.5 0v7.5a.75.75 0 0 1-.75.75h-3a.75.75 0 0 1-.75-.75z"/><path class="cls-1" d="M3 12.75v-7.5a4.5 4.5 0 0 1 9 0v13.5a4.5 4.5 0 0 0 9 0v-7.5M.75 15.75h4.5m13.5-7.5h4.5"/></svg>