<svg id="Regular" xmlns="http://www.w3.org/2000/svg" viewBox="0 0 24 24" width="24" height="24"><defs><style>.cls-1{fill:none;stroke:#000;stroke-linecap:round;stroke-linejoin:round;stroke-width:1.5px}</style></defs><title>fitness-dumbbell-lift</title><path class="cls-1" d="M4 6.5h4.5v3H4z"/><path class="cls-1" d="M8.5 21.5l1.244-4.974a1.5 1.5 0 0 0-.624-1.612 3.8 3.8 0 0 1-1.641-2.539L7 9.5h1.5v-3A1.5 1.5 0 0 1 10 5h6a1.5 1.5 0 0 1 1.5 1.5v5.25a9.349 9.349 0 0 1-.544 2.926 3.4 3.4 0 0 0 0 1.648L18.25 21.5M2.5 2.75A1.5 1.5 0 0 0 1 4.25v8.25a1.5 1.5 0 0 0 3 0V4.25a1.5 1.5 0 0 0-1.5-1.5zm19.5 0a1.5 1.5 0 0 0-1.5 1.5v8.25a1.5 1.5 0 0 0 3 0V4.25a1.5 1.5 0 0 0-1.5-1.5z"/><path class="cls-1" d="M17.5 6.5h3v3h-3zm-6 1.5V5m3 3V5"/></svg>