<svg xmlns="http://www.w3.org/2000/svg" viewBox="0 0 24 24" width="24" height="24"><path d="M12 1l1 2.5h2.5l-2 1.69.75 2.721L12 6.146 9.75 7.89l.75-2.696-2-1.694H11zM4 7l1 2.5h2.5l-2 1.69.75 2.721L4 12.146 1.75 13.89l.75-2.696L.5 9.5H3zm16 0l1 2.5h2.5l-2 1.69.75 2.721L20 12.146l-2.25 1.744.75-2.696-2-1.694H19zm-3 9l1 2.5h2.5l-2 1.69.75 2.721L17 21.146l-2.25 1.744.75-2.696-2-1.694H16zM7 16l1 2.5h2.5l-2 1.69.75 2.721L7 21.146 4.75 22.89l.75-2.696-2-1.694H6z" fill="none" stroke="#000" stroke-linejoin="round" stroke-miterlimit="10"/><path fill="none" d="M0 0h24v24H0z"/></svg>