<svg xmlns="http://www.w3.org/2000/svg" viewBox="0 0 24 24" width="24" height="24"><defs><style>.a{fill:none;stroke:#000;stroke-linecap:round;stroke-linejoin:round;stroke-width:1.5px}</style></defs><title>flag-skull</title><path class="a" d="M.75 23.25V.75m0 19.543l3.154-.97a9.61 9.61 0 0 1 7.864 1 9.615 9.615 0 0 0 7.679 1.056l2.987-.853a1.126 1.126 0 0 0 .816-1.082V3.637a1.126 1.126 0 0 0-1.434-1.082l-2.369.677a9.615 9.615 0 0 1-7.679-1.056 9.61 9.61 0 0 0-7.864-1L.75 2.145m10.5 8.353"/><path class="a" d="M11.25 10.5a.375.375 0 1 0 .375.375.375.375 0 0 0-.375-.375m3 0a.375.375 0 1 0 .375.375.375.375 0 0 0-.375-.375m-1.5 5.248v-1.5"/><path class="a" d="M17.25 11.248a4.5 4.5 0 0 0-9 0 3.566 3.566 0 0 0 1.5 2.582V15a.75.75 0 0 0 .75.75H15a.75.75 0 0 0 .75-.75v-1.17a4.232 4.232 0 0 0 1.5-2.582z"/></svg>