<svg xmlns="http://www.w3.org/2000/svg" viewBox="0 0 24 24" width="24" height="24"><defs><style>.a{fill:none;stroke:#000;stroke-linecap:round;stroke-linejoin:round;stroke-width:1.5px}</style></defs><title>flag-cash</title><path class="a" d="M.75 23.25V.75m0 19.543l3.154-.97a9.61 9.61 0 0 1 7.864 1 9.615 9.615 0 0 0 7.679 1.056l2.987-.853a1.126 1.126 0 0 0 .816-1.082V3.637a1.126 1.126 0 0 0-1.434-1.082l-2.369.677a9.615 9.615 0 0 1-7.679-1.056 9.61 9.61 0 0 0-7.864-1L.75 2.145"/><path class="a" d="M10.7 13.094a2.225 2.225 0 0 0 1.859.875c1.138 0 2.062-.693 2.062-1.547s-.924-1.546-2.062-1.546-2.059-.693-2.059-1.548.924-1.547 2.063-1.547a2.221 2.221 0 0 1 1.857.875m-1.857 5.313V15m0-8.25v1.031"/></svg>