<svg xmlns="http://www.w3.org/2000/svg" viewBox="0 0 24 24" width="24" height="24"><defs><style>.a{fill:none;stroke:#000;stroke-linecap:round;stroke-linejoin:round;stroke-width:1.5px}</style></defs><title>flags</title><path class="a" d="M16.32 3.027L9.035 20.973m6.721-16.556l7.26 2.948a.375.375 0 0 1 .042.675L20.6 9.418a1.5 1.5 0 0 0-.705 1.737l.8 2.705a.375.375 0 0 1-.5.454l-7.26-2.947M7.68 3.027l7.285 17.946M8.244 4.417L.984 7.365a.375.375 0 0 0-.042.675L3.4 9.418a1.5 1.5 0 0 1 .705 1.737l-.8 2.705a.375.375 0 0 0 .5.454l7.261-2.947"/></svg>