<svg xmlns="http://www.w3.org/2000/svg" viewBox="0 0 24 24" width="24" height="24"><defs><style>.a{fill:none;stroke:#000;stroke-linecap:round;stroke-linejoin:round;stroke-width:1.5px}</style></defs><title>flag-star</title><path class="a" d="M.75 23.25V.75m0 19.543l3.154-.97a9.61 9.61 0 0 1 7.864 1 9.615 9.615 0 0 0 7.679 1.056l2.987-.853a1.126 1.126 0 0 0 .816-1.082V3.637a1.126 1.126 0 0 0-1.434-1.082l-2.369.677a9.615 9.615 0 0 1-7.679-1.056 9.61 9.61 0 0 0-7.864-1L.75 2.145"/><path class="a" d="M12.53 7.071l1.249 2.673h2.127a.582.582 0 0 1 .419 1l-1.953 1.707 1.082 2.485a.589.589 0 0 1-.839.737L12 14.2l-2.615 1.469a.589.589 0 0 1-.839-.737l1.082-2.485-1.953-1.707a.582.582 0 0 1 .419-1h2.127l1.248-2.673a.6.6 0 0 1 1.061.004z"/></svg>