<svg xmlns="http://www.w3.org/2000/svg" viewBox="0 0 24 24" width="24" height="24"><g fill="none" stroke="#000" stroke-linejoin="round" stroke-miterlimit="10"><path d="M21.5 14c0 5.25-4.25 9.5-9.5 9.5-5.04 0-9.222-3.949-9.49-8.989-.01-.171-.01-.341-.01-.511 0-2.93 1.32-5.54 3.4-7.28a9.332 9.332 0 001.88 3.45A9.466 9.466 0 009 5.5c0-.17 0-.34-.01-.509A9.597 9.597 0 007.68.65c3.07.49 5.771 2.111 7.631 4.44A12.181 12.181 0 0118 12.75c0 .09 0 .17-.01.261a9.155 9.155 0 003.109-1.73c.261.859.401 1.769.401 2.719z"/><path stroke-linecap="round" d="M13.656 12.188c-1.864 1.373-1.762 4.033-1.027 5.142.503-.413.95-.863 1.027-1.54C15.373 16.466 16 17.924 16 19.5c0 2.272-1.728 4-4 4-2.271 0-4-1.841-4-4.113 0-3.321 2.39-6.448 5.656-7.199z"/></g><path fill="none" d="M0 0h24v24H0z"/></svg>