<svg xmlns="http://www.w3.org/2000/svg" viewBox="0 0 24 24" width="24" height="24"><g fill="none" stroke="#000" stroke-linejoin="round" stroke-miterlimit="10"><path d="M20 10.5A8 8 0 006.983 4.269L2.967 8"/><path stroke-linecap="round" d="M10 18c1 .5 1.31.5 2 .5a7.998 7.998 0 006.931-3.999"/><path stroke-linecap="round" d="M7.5 18.5a5 5 0 001-9.9l-8-1.1V8A3.5 3.5 0 004 11.5l2.556.003M4 15a3.5 3.5 0 003.5 3.5"/><path stroke-linecap="round" d="M8 15H5a3 3 0 01-3-3v-1"/><path d="M17.501 5.103A2.752 2.752 0 0015.5 7.75V11"/><path stroke-linecap="round" d="M17 10.5a2 2 0 000 4h4.5a2 2 0 000-4H17zm-2 2h8.5m-6-5v1"/></g><path fill="none" d="M0 0h24v24H0z"/></svg>