<svg xmlns="http://www.w3.org/2000/svg" viewBox="0 0 24 24" width="24" height="24"><defs><style>.a{fill:none;stroke:#000;stroke-linecap:round;stroke-linejoin:round;stroke-width:1.5px}</style></defs><title>flash-drive-lock</title><rect class="a" x="14.25" y="15.75" width="9" height="7.5" rx="1.5" ry="1.5"/><path class="a" d="M15.75 15.75V13.5a3 3 0 0 1 3-3 3 3 0 0 1 3 3v2.25m-10.5-7.5h-9V1.5A.75.75 0 0 1 3 .75h7.5a.75.75 0 0 1 .75.75zm-6-4.5v1.5m3-1.5v1.5m2.789 12.532a4.484 4.484 0 0 1-2.789.968h-3a4.5 4.5 0 0 1-4.5-4.5v-4.5a1.5 1.5 0 0 1 1.5-1.5h9a1.5 1.5 0 0 1 1.5 1.5v3m-6 6v4.5m12-4.125a.375.375 0 1 0 .375.375.375.375 0 0 0-.375-.375"/></svg>