<svg xmlns="http://www.w3.org/2000/svg" viewBox="0 0 24 24" width="24" height="24"><defs><style>.a{fill:none;stroke:#000;stroke-linecap:round;stroke-linejoin:round;stroke-width:1.5px}</style></defs><title>flip-right</title><path class="a" d="M17.249 9.143l.527 4.404-4.446.665M9.75.75h-7.5a1.5 1.5 0 0 0-1.5 1.5v19.5a1.5 1.5 0 0 0 1.5 1.5h7.5m3-22.5v4.5m0 12v6m4.5-22.5h-1.5m1.5 22.5h-1.5m7.5-18v1.5m0 4.5v1.5m0 4.5v1.5m0-16.5a1.5 1.5 0 0 0-1.5-1.5m0 22.5a1.5 1.5 0 0 0 1.5-1.5M5.635 15a6.751 6.751 0 0 1 12.022-1.433"/></svg>