<svg xmlns="http://www.w3.org/2000/svg" viewBox="0 0 24 24" width="24" height="24"><defs><style>.a{fill:none;stroke:#000;stroke-linecap:round;stroke-linejoin:round;stroke-width:1.5px}</style></defs><title>flip-left</title><path class="a" d="M6.751 9.143l-.527 4.404 4.446.665M14.25.75h7.5a1.5 1.5 0 0 1 1.5 1.5v19.5a1.5 1.5 0 0 1-1.5 1.5h-7.5m-3-22.5v4.5m0 12v6M6.75.75h1.5m-1.5 22.5h1.5m-7.5-18v1.5m0 4.5v1.5m0 4.5v1.5m0-16.5a1.5 1.5 0 0 1 1.5-1.5m0 22.5a1.5 1.5 0 0 1-1.5-1.5M18.365 15a6.751 6.751 0 0 0-12.022-1.433"/></svg>