<svg xmlns="http://www.w3.org/2000/svg" viewBox="0 0 24 24" width="24" height="24"><g fill="none" stroke="#000" stroke-linecap="round" stroke-linejoin="round" stroke-miterlimit="10"><path d="M3.5 23.561l1-12m5 12l-1-12m3 11.939h-10L3.239 3.52A3.26 3.26 0 016.5.546a3.252 3.252 0 013.259 2.966L11.5 23.5z"/><path d="M7.997 4.061a1.5 1.5 0 00-3 0v2a1.5 1.5 0 103 0v-2zM14.5.561l1 12m5-12l-1 12M22.5.5h-10l1.739 20.041a3.286 3.286 0 003.261 3.005c1.696 0 3.111-1.321 3.259-3.012L22.5.5z"/><path d="M18.997 20.061a1.5 1.5 0 01-3 0v-2a1.5 1.5 0 113 0v2z"/></g><path fill="none" d="M0 0h24v24H0z"/></svg>