<svg xmlns="http://www.w3.org/2000/svg" viewBox="0 0 24 24" width="24" height="24"><defs><style>.a{fill:none;stroke:#000;stroke-linecap:round;stroke-linejoin:round;stroke-width:1.5px}</style></defs><title>flip-vertical-up</title><path class="a" d="M9.143 6.749l4.404-.527.665 4.447M.75 14.248v7.5a1.5 1.5 0 0 0 1.5 1.5h19.5a1.5 1.5 0 0 0 1.5-1.5v-7.5m-22.5-3h4.5m12 0h6m-22.5-4.5v1.5m22.5-1.5v1.5m-18-7.5h1.5m4.5 0h1.5m4.5 0h1.5m-16.5 0a1.5 1.5 0 0 0-1.5 1.5m22.5 0a1.5 1.5 0 0 0-1.5-1.5"/><path class="a" d="M15 18.364A6.753 6.753 0 0 1 10.5 12a7.2 7.2 0 0 1 3.047-5.776"/></svg>