<svg xmlns="http://www.w3.org/2000/svg" viewBox="0 0 24 24" width="24" height="24"><g fill="none" stroke="#000" stroke-linejoin="round" stroke-miterlimit="10"><path d="M23.5 23.5l.005-3.021C21 21 19.445 18.5 19.445 18.5h-.004c-1.487 2.58-5.445 2.875-7.236 0h-.004c-1.489 2.586-5.449 2.87-7.235 0h-.004S2.958 21.042.507 20.521L.5 23.5h23z"/><path d="M23.5 20.5l.005-4.021C21 17 19.445 14.5 19.445 14.5h-.004c-1.487 2.58-5.445 2.875-7.236 0h-.004c-1.489 2.586-5.449 2.87-7.235 0h-.004S2.958 17.042.507 16.521L.5 20.5"/><path stroke-linecap="round" d="M20.5 15.625V11.5m-17 0v4.311M.5 11L12 .5 23.5 11M16 1.5h3.5V5"/><path stroke-linecap="round" d="M10.5 5.5h3v3h-3z"/></g><path fill="none" d="M0 0h24v24H0z"/></svg>