<svg xmlns="http://www.w3.org/2000/svg" viewBox="0 0 24 24" width="24" height="24"><defs><style>.a{fill:none;stroke:#000;stroke-linecap:round;stroke-linejoin:round;stroke-width:1.5px}</style></defs><title>floppy-disk-1</title><path class="a" d="M21.75 23.25H2.25a1.5 1.5 0 0 1-1.5-1.5V7.243a3 3 0 0 1 .879-2.121l3.492-3.493A3 3 0 0 1 7.243.75H21.75a1.5 1.5 0 0 1 1.5 1.5v19.5a1.5 1.5 0 0 1-1.5 1.5z"/><circle class="a" cx="12.75" cy="12.75" r="3"/><path class="a" d="M12.75 20.25h6.75M8.25.75v3a1.5 1.5 0 0 0 1.5 1.5h7.5a1.5 1.5 0 0 0 1.5-1.5v-3"/></svg>