<svg xmlns="http://www.w3.org/2000/svg" viewBox="0 0 24 24" width="24" height="24"><defs><style>.a{fill:none;stroke:#000;stroke-linecap:round;stroke-linejoin:round;stroke-width:1.5px}</style></defs><title>floppy-disk</title><path class="a" d="M21.75 23.25H2.25a1.5 1.5 0 0 1-1.5-1.5V7.243a3 3 0 0 1 .879-2.121l3.492-3.493A3 3 0 0 1 7.243.75H21.75a1.5 1.5 0 0 1 1.5 1.5v19.5a1.5 1.5 0 0 1-1.5 1.5z"/><path class="a" d="M8.25.75v6a1.5 1.5 0 0 0 1.5 1.5h7.5a1.5 1.5 0 0 0 1.5-1.5v-6m-3 3v1.5m1.5 7.5H6.75a1.5 1.5 0 0 0-1.5 1.5v9h13.5v-9a1.5 1.5 0 0 0-1.5-1.5zm-9 3h4.5m-4.5 3h7.5"/></svg>