<svg xmlns="http://www.w3.org/2000/svg" viewBox="0 0 24 24" width="24" height="24"><g fill="none" stroke="#000" stroke-linecap="round" stroke-linejoin="round" stroke-miterlimit="10"><path d="M3.5 5v3c0 4.694 3.306 8.5 8 8.5s8-3.806 8-8.5V5"/><path d="M15 .5a4.5 4.5 0 010 9H8a4.5 4.5 0 010-9h7zM8.176 15.789C9.094 12.125 11.688 10.156 15 9.5"/><path d="M10.25 9.5c-1.934 0-3.5-1.566-3.5-3.5s1.566-3.5 3.5-3.5h3.25"/><path d="M13 .5c1.934 0 3.5 1.566 3.5 3.5S14.934 7.5 13 7.5h-3m1.5 9v7m0-4H14m-2.5 3H9M12.5 5A2.5 2.5 0 0010 7.5"/></g><path fill="none" d="M0 0h24v24H0z"/></svg>