<svg id="Regular" xmlns="http://www.w3.org/2000/svg" viewBox="0 0 24 24" width="24" height="24"><defs><style>.cls-1{fill:none;stroke:#000;stroke-linecap:round;stroke-linejoin:round;stroke-width:1.5px}</style></defs><title>flower</title><path class="cls-1" d="M6.111 6.625A6 6 0 0 0 12.7 12.6a6.175 6.175 0 0 0 5.411-6.23V2.125a.75.75 0 0 0-1.2-.6l-1.8 1.35-2.1-1.575a1.5 1.5 0 0 0-1.8 0l-2.1 1.575-1.8-1.35a.75.75 0 0 0-1.2.6zm6 6v10.5"/><ellipse class="cls-1" cx="5.806" cy="17.45" rx="1.782" ry="3.367" transform="rotate(-79.066 5.806 17.45)"/><ellipse class="cls-1" cx="18.417" cy="17.55" rx="3.367" ry="1.782" transform="rotate(-10.934 18.417 17.553)"/></svg>