<svg xmlns="http://www.w3.org/2000/svg" viewBox="0 0 24 24" width="24" height="24"><path d="M17.5 1c-1.381 0-3 1.119-3 2.5H14a2.5 2.5 0 10-5 0h-.5c0-1.381-1.619-2.5-3-2.5v7c0 3.037 2.963 5.5 6 5.5s6-2.463 6-5.5V1zm-6 12.5v10m6.5-2c-1.632 1.226-4 .068-4-2s2.369-3.227 4.002-1.999L21 19.5l-3 2zm-4-2h3m-12 0c1.632 1.226 4 .068 4-2s-2.369-3.227-4.002-1.999L2 17.5l3 2zm4-2H6" fill="none" stroke="#000" stroke-linecap="round" stroke-linejoin="round" stroke-miterlimit="10"/><path fill="none" d="M0 0h24v24H0z"/></svg>