<svg xmlns="http://www.w3.org/2000/svg" viewBox="0 0 24 24" width="24" height="24"><g fill="none" stroke="#000" stroke-linejoin="round" stroke-miterlimit="10"><path d="M17 6.5c.885-.521 1.5-1.398 1.5-2.5a3 3 0 00-6 0 3 3 0 00-6 0c0 1.078.646 1.971 1.5 2.5h0c-1.982-.969-4.317.474-4.317 2.696C3.683 11.882 6.741 12.717 8 12h0a3 3 0 001.517 5.589 2.985 2.985 0 002.983-3c0 1.657 1.359 3 3.017 3s3-1.343 3-3c0-1.14-.581-2.081-1.517-2.589h0c1 .562 4.683.305 4.683-2.804 0-2.462-2.747-3.698-4.683-2.696h0z"/><circle cx="12.5" cy="9.5" r="3.5"/><circle cx="12.5" cy="9.5" r="2"/><path stroke-linecap="round" d="M12.5 14.589V23.5m4.5-5a2.5 2.5 0 00-2 1l-2.5 4H17a2.5 2.5 0 002-1l2-4h-4zm-9 0a2.5 2.5 0 012 1l2.5 4H8a2.5 2.5 0 01-2-1l-2-4h4z"/></g><path fill="none" d="M0 0h24v24H0z"/></svg>