<svg id="Regular" xmlns="http://www.w3.org/2000/svg" viewBox="0 0 24 24" width="24" height="24"><defs><style>.cls-1{fill:none;stroke:#000;stroke-linecap:round;stroke-linejoin:round;stroke-width:1.5px}</style></defs><title>flower-roses</title><path class="cls-1" d="M21.418 20.743a3 3 0 0 1-2.959 2.507H5.541a3 3 0 0 1-2.959-2.507L1.5 14.25h21zM15.75 14.25S18 11.175 18 8.175m-9.75.075a5.958 5.958 0 0 0 .75 6m3 3v3m-5.25-3l.75 3m9.75-3l-.75 3"/><path class="cls-1" d="M12 4.5a3.75 3.75 0 0 1-7.5 0V.75l3.75 1.5L12 .75zm10.5 0a3.75 3.75 0 0 1-7.5 0V.75l3.75 1.5L22.5.75z"/></svg>