<svg id="Regular" xmlns="http://www.w3.org/2000/svg" viewBox="0 0 24 24" width="24" height="24"><defs><style>.cls-1{fill:none;stroke:#000;stroke-linecap:round;stroke-linejoin:round;stroke-width:1.5px}</style></defs><title>flying-insect-bee-1</title><path class="cls-1" d="M6.055 9.61c0-2.873 2.662-5.2 5.945-5.2s5.945 2.329 5.945 5.2v6.69c0 2.873-2.662 5.2-5.945 5.2s-5.945-2.329-5.945-5.2zm0 0h11.89m-11.89 3.715h11.89m-11.83 3.716h11.77M15.014 5.125c-.391-3.442 2.073-5.291 3.674-3.69m-9.702 3.69c.391-3.442-2.073-5.291-3.674-3.69m.743 8.918a5.188 5.188 0 0 0-2.973-1.486c-2.972 0-2.972 4.458-.743 4.458M6.055 16.3a5.188 5.188 0 0 1-2.973 1.486c-2.972 0-2.972-4.459-.743-4.459m15.606-2.974a5.188 5.188 0 0 1 2.973-1.486c2.972 0 2.972 4.458.743 4.458M17.945 16.3a5.188 5.188 0 0 0 2.973 1.486c2.972 0 2.972-4.459.743-4.459M12 21.5v1.486"/></svg>