<svg id="Regular" xmlns="http://www.w3.org/2000/svg" viewBox="0 0 24 24" width="24" height="24"><defs><style>.cls-1{fill:none;stroke:#000;stroke-linecap:round;stroke-linejoin:round;stroke-width:1.5px}</style></defs><title>flying-insect-butterfly-1</title><path class="cls-1" d="M13.522 19.25a1.5 1.5 0 0 1-3 0V8a1.5 1.5 0 1 1 3 0z"/><path class="cls-1" d="M13.356 7.314l4.106-1.579A4.275 4.275 0 1 1 19 14h-2.319a4.34 4.34 0 0 1 4.341 4.341v.159a3.75 3.75 0 0 1-7.5 0M10.688 7.314L6.582 5.735A4.275 4.275 0 1 0 5.047 14h2.316a4.34 4.34 0 0 0-4.341 4.341v.159a3.75 3.75 0 0 0 7.5 0m4.5-16.5a3 3 0 0 0-3 3v1.5m-3-4.5a3 3 0 0 1 3 3v1.5"/></svg>