<svg id="Regular" xmlns="http://www.w3.org/2000/svg" viewBox="0 0 24 24" width="24" height="24"><defs><style>.cls-1{fill:none;stroke:#000;stroke-linecap:round;stroke-linejoin:round;stroke-width:1.5px}</style></defs><title>flying-insect-bee-4</title><path class="cls-1" d="M7.526 13.98l-1.635 1.635a2.961 2.961 0 0 1-4.23 0 2.961 2.961 0 0 1 0-4.23L7.526 5.52m9 0l5.865 5.865a2.991 2.991 0 1 1-4.23 4.23l-1.635-1.635"/><path class="cls-1" d="M16.526 5.52v10.23a4.5 4.5 0 0 1-9 0V5.52l2.385-2.385a2.961 2.961 0 0 1 4.23 0zm0 .699a6 6 0 0 1-9 0m4.5 14.031v3m4.5-7.5h-9m9-3h-9m2.101-9.332L6.776.75m7.648 2.668L17.276.75"/></svg>