<svg id="Regular" xmlns="http://www.w3.org/2000/svg" viewBox="0 0 24 24" width="24" height="24"><defs><style>.cls-1{fill:none;stroke:#000;stroke-linecap:round;stroke-linejoin:round;stroke-width:1.5px}</style></defs><title>flying-insect-fly</title><path class="cls-1" d="M9.022 6.75c0 2.071 1.343 3.75 3 3.75s3-1.679 3-3.75m-5.622-3a.375.375 0 0 1 .375.375m-.753 0A.375.375 0 0 1 9.4 3.75m0 .75a.375.375 0 0 1-.375-.375m.747 0A.375.375 0 0 1 9.4 4.5m5.247-.75a.375.375 0 0 1 .375.375m-.75 0a.375.375 0 0 1 .375-.375m0 .75a.375.375 0 0 1-.375-.375m.75 0a.375.375 0 0 1-.375.375M10.522.75l1.5 1.5 1.5-1.5m0 9.279v2.721c0 4.5 4.5 7.5 6.75 7.5 2.4 0-.064-9.241-5.461-12.117"/><path class="cls-1" d="M10.522 10v2.75c0 4.5-4.5 7.5-6.75 7.5-2.4 0 .064-9.241 5.461-12.116"/><path class="cls-1" d="M8.261 17.924c.649 4.541 2.835 5.326 3.761 5.326s3.112-.784 3.761-5.326m-7.389.826h7.246m-5.289-4.5h3.341m2.701-5.035L18 6.536a2.649 2.649 0 0 1 2.272-1.286M18.8 11.98l1.773-1.33a4.5 4.5 0 0 1 2.7-.9M7.651 9.215L6.044 6.536A2.649 2.649 0 0 0 3.772 5.25m1.473 6.73l-1.773-1.33a4.5 4.5 0 0 0-2.7-.9"/></svg>