<svg id="Regular" xmlns="http://www.w3.org/2000/svg" viewBox="0 0 24 24" width="24" height="24"><defs><style>.cls-1{fill:none;stroke:#000;stroke-linecap:round;stroke-linejoin:round;stroke-width:1.5px}</style></defs><title>flying-insect-butterfly</title><path class="cls-1" d="M12.022 11.25v12m0-5.25a3.75 3.75 0 0 0 7.5 0 3.712 3.712 0 0 0-.492-1.824 5.241 5.241 0 1 0-7.008-4.926"/><path class="cls-1" d="M12.022 11.25a5.25 5.25 0 1 0-7.008 4.926A3.712 3.712 0 0 0 4.522 18a3.75 3.75 0 0 0 7.5 0"/><circle class="cls-1" cx="17.272" cy="11.25" r="1.5"/><circle class="cls-1" cx="6.772" cy="11.25" r="1.5"/><path class="cls-1" d="M15.772 17.625a.375.375 0 0 1 .375.375m-.747 0a.375.375 0 0 1 .375-.375m-.003.75A.375.375 0 0 1 15.4 18m.747 0a.375.375 0 0 1-.375.375m-7.5-.75a.375.375 0 0 1 .375.375M7.9 18a.375.375 0 0 1 .375-.375m-.003.75A.375.375 0 0 1 7.9 18m.747 0a.375.375 0 0 1-.375.375M13.522 4.5l4.5-3.75m-7.5 3.75L6.022.75"/></svg>