<svg id="Regular" xmlns="http://www.w3.org/2000/svg" viewBox="0 0 24 24" width="24" height="24"><defs><style>.cls-1{fill:none;stroke:#000;stroke-linecap:round;stroke-linejoin:round;stroke-width:1.5px}</style></defs><title>flying-insect-moth-1</title><path class="cls-1" d="M15.022 5.5c0 1.657-1.343 4.5-3 4.5s-3-2.843-3-4.5a3 3 0 1 1 6 0zM9.46 3.938a1.5 1.5 0 1 1 1-1m3.124 0a1.5 1.5 0 1 1 1 1"/><path class="cls-1" d="M9.219 6.768c-3.868 4.47-6.236 12.219-3.947 12.982 2.25.75 6-2.25 6.75-5.25.75 3 4.5 6 6.75 5.25 2.289-.763-.08-8.512-3.947-12.982M12.022 10v4.5"/><path class="cls-1" d="M8.965 18.716c.7 3.515 2.335 4.034 3.057 4.034s2.353-.515 3.057-4.034M18.772 7a3.957 3.957 0 0 0 3.75-3m-2.25 6.75a2.664 2.664 0 0 0 2.25-1.5M5.272 7a3.957 3.957 0 0 1-3.75-3m2.25 6.75a2.664 2.664 0 0 1-2.25-1.5"/></svg>