<svg id="Regular" xmlns="http://www.w3.org/2000/svg" viewBox="0 0 24 24" width="24" height="24"><defs><style>.cls-1{fill:none;stroke:#000;stroke-linecap:round;stroke-linejoin:round;stroke-width:1.5px}</style></defs><title>flying-insect-ladybug</title><circle class="cls-1" cx="12.022" cy="14.25" r="9"/><path class="cls-1" d="M7.534 6.447C7.341 2.9 9.425 1.5 12.022 1.5S16.7 2.9 16.51 6.447M9.074 2.354L8.272.75m6.698 1.604L15.772.75m-3.75 4.5v18"/><circle class="cls-1" cx="12.022" cy="14.25" r="3"/><path class="cls-1" d="M20.143 10.371A3 3 0 1 1 15.9 6.129m0 16.242a3 3 0 1 1 4.242-4.242m-11.999-12A3 3 0 0 1 3.9 10.371m0 7.758a3 3 0 0 1 4.242 4.242m10.321-1.835L19.44 22a2.8 2.8 0 0 0 2.332 1.248M18.754 8.277l.686-1.029A2.8 2.8 0 0 1 21.772 6m-1.012 6.087l2.512-.837m-2.71 5.847l2.71.903M5.581 20.536L4.6 22a2.8 2.8 0 0 1-2.328 1.25M5.29 8.277L4.6 7.248A2.8 2.8 0 0 0 2.272 6m1.012 6.087L.772 11.25m2.709 5.847L.772 18"/></svg>