<svg id="Regular" xmlns="http://www.w3.org/2000/svg" viewBox="0 0 24 24" width="24" height="24"><defs><style>.cls-1{fill:none;stroke:#000;stroke-linecap:round;stroke-linejoin:round;stroke-width:1.5px}</style></defs><title>flying-insect-bees</title><ellipse class="cls-1" cx="12.589" cy="16.5" rx="6" ry="2.25"/><path class="cls-1" d="M6.589 16.5s-1.5 6.75 6 6.75 6-6.75 6-6.75M7.369 6.363a.374.374 0 0 1 .263.46m-.724-.197a.376.376 0 0 1 .461-.263m-.197.723a.375.375 0 0 1-.264-.46m.724.197a.374.374 0 0 1-.46.263M7.6 4.093S7.137.081 10.031.869s-.459 4.539-.459 4.539m-4.523-.517s-3.224-2.432-4.012.462 4.144 1.906 4.144 1.906m11.691 3.712a.374.374 0 0 1-.208.488m-.279-.696a.374.374 0 0 1 .487.208m-.695.28a.375.375 0 0 1 .208-.488m.279.696a.374.374 0 0 1-.487-.208m2.643-1.467s2.92-2.791 4.039-.007-3.9 2.374-3.9 2.374m-2.314-3.917s-.007-4.039-2.791-2.92.983 4.455.983 4.455"/></svg>