<svg xmlns="http://www.w3.org/2000/svg" viewBox="0 0 24 24" width="24" height="24"><defs><style>.a{fill:none;stroke:#000;stroke-linecap:round;stroke-linejoin:round;stroke-width:1.5px}</style></defs><title>focus-frame-target</title><circle class="a" cx="12" cy="12" r="4.5"/><path class="a" d="M12 7.5V5.25m0 11.25v2.25M16.5 12h2.25M7.5 12H5.25m6.75-.375a.375.375 0 1 1-.375.375.375.375 0 0 1 .375-.375M.75 4.5V2.25a1.5 1.5 0 0 1 1.5-1.5H4.5M23.25 4.5V2.25a1.5 1.5 0 0 0-1.5-1.5H19.5M.75 19.5v2.25a1.5 1.5 0 0 0 1.5 1.5H4.5m18.75-3.75v2.25a1.5 1.5 0 0 1-1.5 1.5H19.5"/></svg>