<svg xmlns="http://www.w3.org/2000/svg" viewBox="0 0 24 24" width="24" height="24"><defs><style>.a{fill:none;stroke:#000;stroke-linecap:round;stroke-linejoin:round;stroke-width:1.5px}</style></defs><title>focus-auto</title><path class="a" d="M20.25 15.418l2.357-2.357a1.5 1.5 0 0 0 0-2.121L20.25 8.583V5.25a1.5 1.5 0 0 0-1.5-1.5h-3.333l-2.356-2.357a1.5 1.5 0 0 0-2.122 0L8.583 3.75H5.25a1.5 1.5 0 0 0-1.5 1.5v3.333L1.393 10.94a1.5 1.5 0 0 0 0 2.121l2.357 2.357v3.332a1.5 1.5 0 0 0 1.5 1.5h3.333l2.356 2.357a1.5 1.5 0 0 0 2.122 0l2.356-2.357h3.333a1.5 1.5 0 0 0 1.5-1.5z"/><path class="a" d="M9.75 17.25v-9a2.25 2.25 0 0 1 4.5 0v9m-4.5-4.5h4.5"/></svg>