<svg xmlns="http://www.w3.org/2000/svg" viewBox="0 0 24 24" width="24" height="24"><defs><style>.a{fill:none;stroke:#000;stroke-linecap:round;stroke-linejoin:round;stroke-width:1.5px}</style></defs><title>focus-close</title><circle class="a" cx="9" cy="13.5" r="6"/><path class="a" d="M20.769 9.68a4.992 4.992 0 0 1-.876 2.256m-2.3 1.749a7.188 7.188 0 0 1-2.613.3m-3.886-6.109a7.409 7.409 0 0 1 1-1.825M13.992 4.6a4.856 4.856 0 0 1 2.39-.372m2.667 1.116a5.008 5.008 0 0 1 1.416 1.964M.75 3.685V1.728A.981.981 0 0 1 1.728.75h1.957M23.25 3.685V1.728a.981.981 0 0 0-.978-.978h-1.957M.75 20.25v2a.992.992 0 0 0 .978 1h1.957m19.565-3v2a.992.992 0 0 1-.978 1h-1.957"/></svg>