<svg xmlns="http://www.w3.org/2000/svg" viewBox="0 0 24 24" width="24" height="24"><defs><style>.a{fill:none;stroke:#000;stroke-linecap:round;stroke-linejoin:round;stroke-width:1.5px}</style></defs><title>focus-flower</title><path class="a" d="M12 13.494v9.75m-7.5-7.5a7.5 7.5 0 0 1 7.5 7.5 7.5 7.5 0 0 1-7.5-7.5zm15 0a7.5 7.5 0 0 0-7.5 7.5 7.5 7.5 0 0 0 7.5-7.5zm-15-9.75V2.335A.75.75 0 0 1 5.86 1.9L9 5.244l2.349-4.11a.75.75 0 0 1 1.3 0L15 5.244 18.14 1.9a.75.75 0 0 1 1.36.436v3.658a7.5 7.5 0 0 1-15 0z"/></svg>