<svg xmlns="http://www.w3.org/2000/svg" viewBox="0 0 24 24" width="24" height="24"><defs><style>.a{fill:none;stroke:#000;stroke-linecap:round;stroke-linejoin:round;stroke-width:1.5px}</style></defs><title>folder-cash-1</title><path class="a" d="M21.75 9V6a1.5 1.5 0 0 0-1.5-1.5h-12V3a1.5 1.5 0 0 0-1.5-1.5h-4.5A1.5 1.5 0 0 0 .75 3v17.8a1.7 1.7 0 0 0 3.336.438l2.352-11.154A1.5 1.5 0 0 1 7.879 9H21.75a1.5 1.5 0 0 1 1.45 1.886l-2.2 10.5a1.5 1.5 0 0 1-1.45 1.114H2.447"/><path class="a" d="M11.666 18.344a2.221 2.221 0 0 0 1.858.875c1.138 0 2.062-.693 2.062-1.547s-.924-1.546-2.062-1.546-2.063-.693-2.063-1.548.924-1.547 2.063-1.547a2.223 2.223 0 0 1 1.858.875m-1.858 5.313v1.031m0-8.25v1.031"/></svg>