<svg xmlns="http://www.w3.org/2000/svg" viewBox="0 0 24 24" width="24" height="24"><defs><style>.a{fill:none;stroke:#000;stroke-linecap:round;stroke-linejoin:round;stroke-width:1.5px}</style></defs><title>folder-lock-1</title><path class="a" d="M6 22.5H2.447M21.75 9V6a1.5 1.5 0 0 0-1.5-1.5h-12V3a1.5 1.5 0 0 0-1.5-1.5h-4.5A1.5 1.5 0 0 0 .75 3v17.8a1.7 1.7 0 0 0 3.336.438l2.352-11.154A1.5 1.5 0 0 1 7.879 9H21.75a1.5 1.5 0 0 1 1.45 1.886l-2.2 10.5"/><path class="a" d="M13.5 19.125a.375.375 0 1 1-.375.375.375.375 0 0 1 .375-.375"/><rect class="a" x="9.75" y="16.5" width="7.5" height="6" rx=".25" ry=".25"/><path class="a" d="M10.5 16.5V15a3 3 0 0 1 6 0v1.5"/></svg>