<svg xmlns="http://www.w3.org/2000/svg" viewBox="0 0 24 24" width="24" height="24"><defs><style>.a{fill:none;stroke:#000;stroke-linecap:round;stroke-linejoin:round;stroke-width:1.5px}</style></defs><title>folder-exchange</title><path class="a" d="M8.188 11.25H1.712M12 5.25V3.1a.85.85 0 0 0-.85-.85h-5.9V1.6A.85.85 0 0 0 4.4.75H1.6a.851.851 0 0 0-.85.85v8.689a.962.962 0 0 0 1.891.247l1.332-4.671a.851.851 0 0 1 .817-.615h7.86a.851.851 0 0 1 .822 1.069l-.944 3.256m9.222 7.675V15.1a.85.85 0 0 0-.85-.85h-5.15v-.65a.85.85 0 0 0-.85-.85h-2.8a.851.851 0 0 0-.85.85v8.689a.962.962 0 0 0 1.891.247l1.332-4.671a.851.851 0 0 1 .817-.615h7.11a.851.851 0 0 1 .822 1.069l-1.247 4.3a.85.85 0 0 1-.821.631h-8.942M18.75 1.5l-2.847 1.561L17.25 6m6 2.25a6.749 6.749 0 0 0-6.989-4.408M5.25 23.25l2.848-1.56-1.348-2.94m-6-2.25a6.753 6.753 0 0 0 6.99 4.408"/></svg>