<svg xmlns="http://www.w3.org/2000/svg" viewBox="0 0 24 24" width="24" height="24"><defs><style>.a{fill:none;stroke:#000;stroke-linecap:round;stroke-linejoin:round;stroke-width:1.5px}</style></defs><title>folder-connect</title><path class="a" d="M1.5 18.75a1.5 1.5 0 0 0 1.5 1.5h1.5m3.75-13.5H12m-10.5 0h3m-3-2.25v3.75m0 3.75v3M12 20.25H8.25m13.5-18h-4.5L15.97.97a.749.749 0 0 0-.53-.22h-2.69a.75.75 0 0 0-.75.75V9a.75.75 0 0 0 .75.75h9A.75.75 0 0 0 22.5 9V3a.75.75 0 0 0-.75-.75zm0 13.5h-4.5l-1.28-1.28a.749.749 0 0 0-.53-.22h-2.69A.75.75 0 0 0 12 15v7.5a.75.75 0 0 0 .75.75h9a.75.75 0 0 0 .75-.75v-6a.75.75 0 0 0-.75-.75z"/></svg>