<svg xmlns="http://www.w3.org/2000/svg" viewBox="0 0 24 24" width="24" height="24"><defs><style>.a{fill:none;stroke:#000;stroke-linecap:round;stroke-linejoin:round;stroke-width:1.5px}</style></defs><title>folder-subtract</title><path class="a" d="M8.25 18.75H2.447M20.25 8.25v-3a1.5 1.5 0 0 0-1.5-1.5H8.25v-1.5a1.5 1.5 0 0 0-1.5-1.5h-4.5a1.5 1.5 0 0 0-1.5 1.5v14.8a1.7 1.7 0 0 0 3.336.438l2.351-8.154A1.5 1.5 0 0 1 7.879 8.25H21.75a1.5 1.5 0 0 1 1.45 1.886"/><circle class="a" cx="17.25" cy="17.25" r="6"/><path class="a" d="M14.25 17.25h6"/></svg>