<svg xmlns="http://www.w3.org/2000/svg" viewBox="0 0 24 24" width="24" height="24"><defs><style>.a{fill:none;stroke:#000;stroke-linecap:round;stroke-linejoin:round;stroke-width:1.5px}</style></defs><title>folder-text</title><path class="a" d="M18.75 6.75v-1.5a1.5 1.5 0 0 0-1.5-1.5h-9v-1.5a1.5 1.5 0 0 0-1.5-1.5h-4.5a1.5 1.5 0 0 0-1.5 1.5v16.3"/><path class="a" d="M3.75 20.25v-12a1.5 1.5 0 0 1 1.5-1.5h15a1.5 1.5 0 0 1 1.5 1.5v1.5"/><rect class="a" x="6.75" y="9.75" width="16.5" height="13.5" rx="1.5" ry="1.5"/><path class="a" d="M18.75 20.25v-3m-1.5 0h3m-10.5-3h10.5m-10.5 3h4.5m-4.5 3h4.5"/></svg>