<svg xmlns="http://www.w3.org/2000/svg" viewBox="0 0 24 24" width="24" height="24"><defs><style>.a{fill:none;stroke:#000;stroke-linecap:round;stroke-linejoin:round;stroke-width:1.5px}</style></defs><title>folder-dash</title><path class="a" d="M.75 20.25v.109a1.39 1.39 0 0 0 2.634.622l.366-.731M.75 4.5V3.375A1.125 1.125 0 0 1 1.875 2.25H3m17.25 4.5V4.875a1.125 1.125 0 0 0-1.125-1.125H18M22.963 12l.248-.852a1 1 0 0 0-.238-.965 1.4 1.4 0 0 0-1.032-.433H21m-2.25 12h1.1a.964.964 0 0 0 .873-.852L21 19.5M8.25 9.75H6.4a.964.964 0 0 0-.873.852L5.25 12m-.575 2.873l-.465 2.325m17.904-2.444l-.435 2.176M.75 8.25v2.25m12-.75h-1.5m6.75 0h-1.5m-2.25-6H12m-3 18H6.75m8.25 0h-2.25m-12-7.5v2.25"/></svg>