<svg xmlns="http://www.w3.org/2000/svg" viewBox="0 0 24 24" width="24" height="24"><defs><style>.a{fill:none;stroke:#000;stroke-linecap:round;stroke-linejoin:round;stroke-width:1.5px}</style></defs><title>folder-bookmark-1</title><path class="a" d="M14.25 5.25H10.5l-1.8-2.4a1.5 1.5 0 0 0-1.2-.6H2.25a1.5 1.5 0 0 0-1.5 1.5v16.5a1.5 1.5 0 0 0 1.5 1.5h19.5a1.5 1.5 0 0 0 1.5-1.5V6.75a1.5 1.5 0 0 0-1.5-1.5h-1.5"/><path class="a" d="M20.25 13.5l-3-2.25-3 2.25v-9a.75.75 0 0 1 .75-.75h4.5a.75.75 0 0 1 .75.75z"/></svg>