<svg xmlns="http://www.w3.org/2000/svg" viewBox="0 0 24 24" width="24" height="24"><defs><style>.a{fill:none;stroke:#000;stroke-linecap:round;stroke-linejoin:round;stroke-width:1.5px}</style></defs><title>folder-home-1</title><path class="a" d="M21.75 9V6a1.5 1.5 0 0 0-1.5-1.5h-12V3a1.5 1.5 0 0 0-1.5-1.5h-4.5A1.5 1.5 0 0 0 .75 3v17.8a1.7 1.7 0 0 0 3.336.438l2.351-11.154A1.5 1.5 0 0 1 7.879 9H21.75a1.5 1.5 0 0 1 1.45 1.886l-2.2 10.5a1.5 1.5 0 0 1-1.45 1.114H2.447"/><path class="a" d="M17.25 14v5.5h-6V14"/><path class="a" d="M9.75 15l4.5-3 4.5 3"/></svg>