<svg xmlns="http://www.w3.org/2000/svg" viewBox="0 0 24 24" width="24" height="24"><defs><style>.a{fill:none;stroke:#000;stroke-linecap:round;stroke-linejoin:round;stroke-width:1.5px}</style></defs><title>folder-fiile-edit</title><path class="a" d="M18.279 7.744l-2.529.506.506-2.529 4.552-4.552a1.43 1.43 0 0 1 2.023 0 1.43 1.43 0 0 1 0 2.023zM17.25 23.25a1.5 1.5 0 0 0 1.5-1.5v-6a1.5 1.5 0 0 0-1.5-1.5h-9v-1.5a1.5 1.5 0 0 0-1.5-1.5h-4.5a1.5 1.5 0 0 0-1.5 1.5v9a1.5 1.5 0 0 0 1.5 1.5zm6-15v10.5a1.5 1.5 0 0 1-1.5 1.5h-3m-12-9v-9a1.5 1.5 0 0 1 1.5-1.5h7.5"/></svg>