<svg xmlns="http://www.w3.org/2000/svg" viewBox="0 0 24 24" width="24" height="24"><defs><style>.a{fill:none;stroke:#000;stroke-linecap:round;stroke-linejoin:round;stroke-width:1.5px}</style></defs><title>folder-bookmark</title><path class="a" d="M21.75 9a1.5 1.5 0 0 1 1.45 1.886l-2.2 10.5a1.5 1.5 0 0 1-1.45 1.114H2.447"/><path class="a" d="M11.25 4.5h-3V3a1.5 1.5 0 0 0-1.5-1.5h-4.5A1.5 1.5 0 0 0 .75 3v17.8a1.7 1.7 0 0 0 3.336.438l2.352-11.154A1.5 1.5 0 0 1 7.879 9H9.75m12 0V6a1.5 1.5 0 0 0-1.5-1.5m-1.5 0h1.5M18.75 9h3m-9-7.5a1.5 1.5 0 0 0-1.5 1.5v1.5h1.5v8.25l3-2.25 3 2.25V3a1.5 1.5 0 0 0-1.5-1.5z"/></svg>