<svg xmlns="http://www.w3.org/2000/svg" viewBox="0 0 24 24" width="24" height="24"><defs><style>.a{fill:none;stroke:#000;stroke-linecap:round;stroke-linejoin:round;stroke-width:1.5px}</style></defs><title>folder-edit</title><path class="a" d="M8.25 18.75H2.447M20.25 8.25v-3a1.5 1.5 0 0 0-1.5-1.5H8.25v-1.5a1.5 1.5 0 0 0-1.5-1.5h-4.5a1.5 1.5 0 0 0-1.5 1.5v14.8a1.7 1.7 0 0 0 3.336.438l2.351-8.154A1.5 1.5 0 0 1 7.879 8.25H21.75m.88 6.62L15 22.5l-3.75.75.75-3.75 7.63-7.63a2.114 2.114 0 0 1 2.992 0l.008.008a2.114 2.114 0 0 1 0 2.992z"/></svg>