<svg xmlns="http://www.w3.org/2000/svg" viewBox="0 0 24 24" width="24" height="24"><path fill="none" stroke="#000" stroke-linejoin="round" stroke-miterlimit="10" d="M.5 17.5h4v6h-4z"/><path fill="none" stroke="#000" stroke-linecap="round" stroke-linejoin="round" stroke-miterlimit="10" d="M4.5 22.5h15c0-1.5-3.5-2-7.5-2H7"/><path fill="none" stroke="#000" stroke-linejoin="round" stroke-miterlimit="10" d="M4.5 18.5H7c2.353 0 3.5 1.5 4 2"/><path d="M2.5 21a.5.5 0 100 1 .5.5 0 000-1z"/><path fill="none" stroke="#000" stroke-linecap="round" stroke-linejoin="round" stroke-miterlimit="10" d="M22.5 13.5h-21l2 2h17zm-22 0h23"/><circle fill="none" stroke="#000" stroke-linecap="round" stroke-linejoin="round" stroke-miterlimit="10" cx="12" cy="3" r="1.5"/><path fill="none" stroke="#000" stroke-linecap="round" stroke-linejoin="round" stroke-miterlimit="10" d="M3 13.5a9 9 0 019-9 9 9 0 019 9M6.522 10A6.492 6.492 0 0112 7"/><path fill="none" d="M0 0h24v24H0z"/></svg>