<svg xmlns="http://www.w3.org/2000/svg" viewBox="0 0 24 24" width="24" height="24"><path fill="none" stroke="#000" stroke-linejoin="round" stroke-miterlimit="10" d="M6.417 19.535S7.14 15.322 5.081 13a.325.325 0 01.008-.438c.71-.777 2.513.021 4.325 3.346.474.867 1.462.822 2.32.332 1.632-.932 3.801-3.359 5.297-3.739 1.969-.5 2.648.7 2.27 1.079l-8.589 8.588-4.295-2.633z"/><path fill="none" stroke="#000" stroke-linecap="round" stroke-linejoin="round" stroke-miterlimit="10" d="M9.38 23.5l1.332-1.333-4.295-2.632L2.814 23.5zm14.12-12H.583m20.892 0c.009-.167.025-.331.025-.5 0-5.247-4.253-9.5-9.5-9.5S2.5 5.753 2.5 11c0 .169.017.333.025.5h18.95zM12 4a7.128 7.128 0 00-6.789 4.955M11.5 1.5v-1"/><path fill="none" d="M0 0h24v24H0z"/></svg>