<svg id="Regular" xmlns="http://www.w3.org/2000/svg" viewBox="0 0 24 24" width="24" height="24"><defs><style>.cls-1{fill:none;stroke:#000;stroke-linecap:round;stroke-linejoin:round;stroke-width:1.5px}</style></defs><title>footwear-flip-flops</title><path class="cls-1" d="M9.265 19.271a4.262 4.262 0 0 1-8.515-.283V5.325A4.575 4.575 0 0 1 5.325.75h.285a4.574 4.574 0 0 1 4.565 4.879z"/><path class="cls-1" d="M.75 10.5l4.5-5.25 4.6 5.25m4.885 8.771a4.262 4.262 0 0 0 8.515-.283V5.325A4.575 4.575 0 0 0 18.675.75h-.285a4.574 4.574 0 0 0-4.565 4.879z"/><path class="cls-1" d="M23.25 10.5l-4.5-5.25-4.6 5.25"/></svg>