<svg xmlns="http://www.w3.org/2000/svg" viewBox="0 0 24 24" width="24" height="24"><g fill="none" stroke="#000" stroke-linejoin="round" stroke-miterlimit="10"><path d="M15.74 11.094c-3.284 4.438-.832 5.682-.832 9.612 0 2.029-1.597 2.794-2.595 2.794s-3.127-.299-3.127-2.895c0-5.322-2.147-6.616-.666-10.511 1.963-5.154 10.111-2.906 7.22 1z"/><ellipse transform="rotate(.81 11.042 3.041)" cx="11.08" cy="3.049" rx="1.419" ry="2.199"/><ellipse transform="rotate(.81 15.359 3.046)" cx="15.412" cy="3.049" rx="1.419" ry="2.199"/><ellipse transform="rotate(-15.138 7.482 5.47)" cx="7.481" cy="5.468" rx="1.128" ry="1.748"/><ellipse transform="rotate(-33.444 5.632 9.168)" cx="5.632" cy="9.168" rx=".948" ry="1.469"/><path d="M15.74 11.094c-3.284 4.438-.832 5.682-.832 9.612 0 2.029-1.597 2.794-2.595 2.794s-3.127-.299-3.127-2.895c0-5.322-2.147-6.616-.666-10.511 1.963-5.154 10.111-2.906 7.22 1z"/><ellipse transform="rotate(.81 11.042 3.041)" cx="11.08" cy="3.049" rx="1.419" ry="2.199"/><ellipse transform="rotate(.81 15.359 3.046)" cx="15.412" cy="3.049" rx="1.419" ry="2.199"/><ellipse transform="rotate(-15.138 7.482 5.47)" cx="7.481" cy="5.468" rx="1.128" ry="1.748"/><ellipse transform="rotate(-33.444 5.632 9.168)" cx="5.632" cy="9.168" rx=".948" ry="1.469"/></g><path fill="none" d="M0 0h24v24H0z"/></svg>