<svg id="Regular" xmlns="http://www.w3.org/2000/svg" viewBox="0 0 24 24" width="24" height="24"><defs><style>.cls-1{fill:none;stroke:#000;stroke-linecap:round;stroke-linejoin:round;stroke-width:1.5px}</style></defs><title>footwear-boots</title><path class="cls-1" d="M23.25 21.75a7.5 7.5 0 0 0-7.5-7.5 4.5 4.5 0 0 1-4.5-4.5v-7.5a1.5 1.5 0 0 0-1.5-1.5h-7.5a1.5 1.5 0 0 0-1.5 1.5v19.5a1.5 1.5 0 0 0 1.5 1.5h19.5a1.5 1.5 0 0 0 1.5-1.5z"/><path class="cls-1" d="M17.6 14.479a3 3 0 0 0-1.85 2.771v3m7.35 0H.75m10.5-15h-3m3 4.5h-3m4.318 3.182l-2.121 2.121"/></svg>