<svg id="Regular" xmlns="http://www.w3.org/2000/svg" viewBox="0 0 24 24" width="24" height="24"><defs><style>.cls-1{fill:none;stroke:#000;stroke-linecap:round;stroke-linejoin:round;stroke-width:1.5px}</style></defs><title>footwear-heels-ankle</title><path class="cls-1" d="M.778 12c0-7.5 2.25-9 2.25-9L5.5 5.468a3.679 3.679 0 0 0 4.5.554 1.5 1.5 0 0 1 2.058.514l.267.445a21.6 21.6 0 0 0 9.575 8.553 2.249 2.249 0 0 1 1.081 3.054A4.363 4.363 0 0 1 19.082 21h-6.2a3 3 0 0 1-2.5-1.336L5.278 12z"/><path class="cls-1" d="M.778 12L2.1 19.934a1.275 1.275 0 0 0 2.528-.1L5.278 12m0 0c6 0 7.5 6 11.25 6A5.386 5.386 0 0 0 21 15.1"/></svg>