<svg id="Regular" xmlns="http://www.w3.org/2000/svg" viewBox="0 0 24 24" width="24" height="24"><defs><style>.cls-1{fill:none;stroke:#000;stroke-linecap:round;stroke-linejoin:round;stroke-width:1.5px}</style></defs><title>footwear-heels</title><path class="cls-1" d="M16.742 15a2.008 2.008 0 0 1-1.6-.788L6 2.25a5.25 5.25 0 0 0-3.75 8.924v9.076a1.5 1.5 0 0 0 3 0V12.7a5.3 5.3 0 0 0 .75.05 6.75 6.75 0 0 1 6.75 6.75v.75a1.5 1.5 0 0 0 1.5 1.5h7.5a1.5 1.5 0 0 0 1.5-1.5v-3c0-3.927-2.953-4.93-3.984-4.266C18.458 13.5 17.851 15 16.742 15z"/></svg>