<svg xmlns="http://www.w3.org/2000/svg" viewBox="0 0 24 24" width="24" height="24"><defs><style>.a{fill:none;stroke:#000;stroke-linecap:round;stroke-linejoin:round;stroke-width:1.5px}</style></defs><title>force-touch-tap</title><path class="a" d="M12 2.25l-6.389 8.024a1.5 1.5 0 1 0 2.277 1.952l5.362-6.009a1.966 1.966 0 0 1 2.244-.345 1.964 1.964 0 0 1 .878 2.635l-.341.5a1.582 1.582 0 0 0 .6 2.312 1.583 1.583 0 0 0 2.1-.665l4.522-8.4M21.75 17.25H2.25a1.5 1.5 0 0 0-1.5 1.5 3 3 0 0 0 3 3h16.5a3 3 0 0 0 3-3 1.5 1.5 0 0 0-1.5-1.5zm-6 0v4.5m-15-7.5H3m0-3.75L1.5 9m11.25 5.25H10.5"/></svg>