<svg xmlns="http://www.w3.org/2000/svg" viewBox="0 0 24 24" width="24" height="24"><defs><style>.a{fill:none;stroke:#000;stroke-linecap:round;stroke-linejoin:round;stroke-width:1.5px}</style></defs><title>force-touch-press</title><path class="a" d="M12 .75L5.611 8.774a1.5 1.5 0 1 0 2.277 1.952l5.362-6.009a1.966 1.966 0 0 1 2.244-.345 1.964 1.964 0 0 1 .878 2.635l-.341.5a1.582 1.582 0 0 0 .6 2.312 1.583 1.583 0 0 0 2.1-.665L23.25.75m-9.001 19.5h6a3 3 0 0 0 3-3 1.5 1.5 0 0 0-1.5-1.5H2.25a1.5 1.5 0 0 0-1.5 1.5 3 3 0 0 0 3 3m12-4.5v4.5m-15-7.5H3M3 9L1.5 7.5m11.25 5.25H10.5M6.75 21L9 23.25 11.25 21M9 23.25v-4.5"/></svg>