<svg xmlns="http://www.w3.org/2000/svg" viewBox="0 0 24 24" width="24" height="24"><path d="M8.583 18.5H19l-4.5-6h3l-4-6h2l-4-6-4 6h2l-4 6h3l-1.57 2.094M11.5 18.5v5m9.521-5H23.5l-4-6h3l-4-6h2l-4-6-1.343 2.015M16.5 18.5v5m-13.924-9c.348 1.133 1.022 3.209 0 4.847-.22-.242-1.038-1.385-1.038-1.385S.5 19.421.5 20.385a3.115 3.115 0 006.23 0c0-2.511-1.749-5.081-4.154-5.885zM1.01 1.5C2.752 3.243-.72 3.836.986 5.542m3.01-.084c1.742 1.743-1.73 2.336-.024 4.042m19.024-9c1.742 1.743-1.73 2.336-.024 4.042" fill="none" stroke="#000" stroke-linecap="round" stroke-linejoin="round" stroke-miterlimit="10"/><path fill="none" d="M0 0h24v24H0z"/></svg>