<svg xmlns="http://www.w3.org/2000/svg" viewBox="0 0 24 24" width="24" height="24"><path d="M13.909 11.785c.931.91 2.267-.589 1.249-1.408L12 6.888l-3.153 3.5c-1.012.818.333 2.322 1.263 1.397l-2.66 3.207c-.888.891.471 2.225 1.348 1.315l-2.019 2.581c-.59.584-.184 1.609.664 1.609l9.116.002c.852 0 1.251-1.035.663-1.612l-2.056-2.563c.884.884 2.223-.463 1.325-1.34l-2.582-3.199zM13.5 20.5v3m-3-3v3M5.787 3.748c.616.6 1.495-.391.825-.932L4.5.514 2.368 2.819c-.668.544.22 1.534.833.923L1.522 5.865c-.589.584.314 1.471.889.868L1.078 8.438a.622.622 0 00.44 1.062h5.965c.56 0 .828-.677.438-1.064L6.617 6.744c.58.582 1.467-.306.875-.885L5.787 3.748zM4.5 9.5v1.514m16.287-7.266c.616.6 1.495-.391.825-.932L19.5.514 17.368 2.82c-.668.544.22 1.533.833.923l-1.679 2.123c-.589.584.313 1.471.889.868l-1.333 1.704a.622.622 0 00.44 1.062h5.965c.56 0 .828-.677.438-1.064l-1.303-1.691c.58.582 1.467-.306.875-.885l-1.706-2.112zM19.5 9.5v1.514" fill="none" stroke="#000" stroke-linecap="round" stroke-linejoin="round" stroke-miterlimit="10"/><path fill="none" d="M0 0h24v24H0z"/></svg>