<svg xmlns="http://www.w3.org/2000/svg" viewBox="0 0 24 24" width="24" height="24"><g fill="none" stroke="#000" stroke-linecap="round" stroke-linejoin="round" stroke-miterlimit="10"><path d="M10.5 17A1.5 1.5 0 019 18.5H2A1.5 1.5 0 01.5 17L5.5.5l5 16.5zm-5 0a3.5 3.5 0 013.945-3.472m-7.893.001A3.5 3.5 0 015.5 17m0-4.5a2.501 2.501 0 012.876-2.472m-5.764.001A2.502 2.502 0 015.5 12.5"/><circle cx="16.5" cy="10.5" r="6.5"/><path d="M16.5 15.5c0-1.571 1.075-3.057 2.5-3.5m-5-1.5a2.5 2.5 0 012.5 2.5m0 10.5v-15m-11 15v-16"/></g><path fill="none" d="M0 0h24v24H0z"/></svg>