<svg xmlns="http://www.w3.org/2000/svg" viewBox="0 0 24 24" width="24" height="24"><g fill="none" stroke="#000" stroke-linecap="round" stroke-linejoin="round" stroke-miterlimit="10"><circle cx="20.5" cy="21.5" r="2"/><path d="M4.5 23.5v-17a1 1 0 012 0v17h-2z"/><circle cx="13.5" cy="20.5" r="3"/><path d="M19 11l-1.109 4.5M12.5 13l1 1m-.5-.5L8.5 18m13-2.5H16l-2.5 2m-7 6h-6m4-5h-3"/><path d="M22.5 21.5h1v-5l-2-1v-6a2 2 0 00-2-2h-2a9 9 0 00-9 9v5h2.171m5.658 0H18.5"/></g><path fill="none" d="M0 0h24v24H0z"/></svg>