<svg id="Regular" xmlns="http://www.w3.org/2000/svg" viewBox="0 0 24 24" width="24" height="24"><defs><style>.cls-1{fill:none;stroke:#000;stroke-linecap:round;stroke-linejoin:round;stroke-width:1.5px}</style></defs><title>fossil-energy-gas-latern</title><path class="cls-1" d="M11.083 9.75a2.991 2.991 0 0 1 .3 3.409 1.065 1.065 0 0 1-1.136-.909A2.413 2.413 0 0 0 9 14.523a2.727 2.727 0 0 0 2.727 2.727 2.766 2.766 0 0 0 2.728-2.727 4.534 4.534 0 0 0-3.372-4.773z"/><rect class="cls-1" x="4.5" y="6.75" width="15" height="13.5" rx="3" ry="3"/><path class="cls-1" d="M19.5 23.25h-15a3.684 3.684 0 0 1 3.493-3h8.014a3.684 3.684 0 0 1 3.493 3zM7.5.75h9v6h-9zM6 .75h12m-6 6v-3"/></svg>