<svg id="Regular" xmlns="http://www.w3.org/2000/svg" viewBox="0 0 24 24" width="24" height="24"><defs><style>.cls-1{fill:none;stroke:#000;stroke-linecap:round;stroke-linejoin:round;stroke-width:1.5px;fill-rule:evenodd}</style></defs><title>fox-tail</title><path class="cls-1" d="M6.751 18A2.774 2.774 0 0 1 9 16.5a9.7 9.7 0 0 0 7.5-3c3-3 3.75-8.25 3.75-8.25s3 1.5 3 8.25c0 7.5-6 9.75-10.5 9.75h-9c-1.5 0-3-1.5-3-3.75v-5.25a15.515 15.515 0 0 1 1.5-6v-4.5a3.344 3.344 0 0 1 2.25-3L5.251 3s2.25 0 3 1.5h3s0 3.75-2.25 3.75c-1.677 0-1.5 2.25-1.5 2.25 0 1.586 2.514 1.495 3.113 5.931M5.626 5.25A.375.375 0 0 1 6 5.625m-.749 0a.375.375 0 0 1 .375-.375m0 .75a.375.375 0 0 1-.375-.375m.749 0A.375.375 0 0 1 5.626 6"/></svg>