<svg id="Regular" xmlns="http://www.w3.org/2000/svg" viewBox="0 0 24 24" width="24" height="24"><defs><style>.cls-1{fill:none;stroke:#000;stroke-linecap:round;stroke-linejoin:round;stroke-width:1.5px}</style></defs><title>fox-body</title><path class="cls-1" d="M3 22.72v-7.479A3.533 3.533 0 0 1 6.734 11.5h2.244c2.244 0 4.488-1.5 4.488-2.992V6.265c0-3.74 2.992-3.74 2.992-3.74l.748 2.244s2.244 0 2.992 1.5 2.992 1.5 2.992 1.5.748 2.992-2.992 3.74c-2.32.464-2.992 2.992-2.992 4.488v6.723M3 19.729s3.739.748 4.487-2.992"/><path class="cls-1" d="M6.9 18.233h5.817a4.642 4.642 0 0 0 4.52-2.833M3.4 13.4L3 13A8.26 8.26 0 0 1 .751 7.761 6.551 6.551 0 0 1 5.986 1.03c1.5.747 1.5 2.991 0 5.983a7.343 7.343 0 0 0-.748 4.487l.053.237M2.247 3.273s0 3.178 4.093 2.984M18.328 7.76a.375.375 0 0 1 .375.375m-.75 0a.375.375 0 0 1 .375-.375m0 .75a.375.375 0 0 1-.375-.375m.747 0a.375.375 0 0 1-.375.375"/></svg>