<svg id="Regular" xmlns="http://www.w3.org/2000/svg" viewBox="0 0 24 24" width="24" height="24"><defs><style>.cls-1{fill:none;stroke:#000;stroke-linecap:round;stroke-linejoin:round;stroke-width:1.5px}</style></defs><title>fox</title><path class="cls-1" d="M14.324 21a3.1 3.1 0 0 1-2.25 2.25A3.1 3.1 0 0 1 9.824 21c0-1.894 4.5-1.916 4.5 0zm1.236-3a12.672 12.672 0 0 1 3.264-3.75 3.856 3.856 0 0 1 2.54-.65 1.5 1.5 0 0 0 1.589-1.87A9.06 9.06 0 0 0 19.7 6.61c.433-.538 1.808-2.645-.121-5.86-2.347 0-4.23 2.748-4.94 3.947a16.726 16.726 0 0 0-5.119 0C8.805 3.5 6.922.75 4.574.75c-1.928 3.215-.553 5.322-.12 5.86A9.06 9.06 0 0 0 1.2 11.73a1.5 1.5 0 0 0 1.585 1.87 3.852 3.852 0 0 1 2.539.65A12.661 12.661 0 0 1 8.589 18m-.64-7.875a.374.374 0 0 1 .375.375m-.75 0a.375.375 0 0 1 .375-.375m0 .75a.375.375 0 0 1-.375-.375m.75 0a.374.374 0 0 1-.375.375m7.5-.75a.374.374 0 0 1 .375.375m-.75 0a.375.375 0 0 1 .375-.375m0 .75a.375.375 0 0 1-.375-.375m.75 0a.374.374 0 0 1-.375.375"/></svg>