<svg id="Regular" xmlns="http://www.w3.org/2000/svg" viewBox="0 0 24 24" width="24" height="24"><defs><style>.cls-1{fill:none;stroke:#000;stroke-linecap:round;stroke-linejoin:round;stroke-width:1.5px}</style></defs><title>fruit-strawberry-1</title><path class="cls-1" d="M12 4.5a6.945 6.945 0 0 0-8.864-3.2.493.493 0 0 0-.276.3.488.488 0 0 0 .051.406 6.942 6.942 0 0 0 5.6 3.267M12 4.5a6.944 6.944 0 0 1 8.864-3.2.491.491 0 0 1 .225.709 6.942 6.942 0 0 1-5.6 3.267M7.875 9.75a.375.375 0 1 1-.375.375.375.375 0 0 1 .375-.375m8.25 0a.375.375 0 1 0 .375.375.375.375 0 0 0-.375-.375M12 9.75a.375.375 0 1 1-.375.375A.375.375 0 0 1 12 9.75m-2.25 4.5a.375.375 0 0 1 .375.375m-.75 0a.375.375 0 0 1 .375-.375m.375.375a.375.375 0 0 1-.75 0M12 18a.375.375 0 1 1-.375.375A.375.375 0 0 1 12 18m2.25-3.75a.375.375 0 0 0-.375.375m.75 0a.375.375 0 0 0-.375-.375m-.375.375a.375.375 0 0 0 .75 0"/><path class="cls-1" d="M20.25 12.75c0 4.556-4.5 10.5-8.25 10.5s-8.25-5.944-8.25-10.5a8.25 8.25 0 0 1 16.5 0z"/></svg>