<svg id="Regular" xmlns="http://www.w3.org/2000/svg" viewBox="0 0 24 24" width="24" height="24"><defs><style>.cls-1{fill:none;stroke:#000;stroke-linecap:round;stroke-linejoin:round;stroke-width:1.5px}</style></defs><title>fruit-banana</title><path class="cls-1" d="M22.5 10.954a12.3 12.3 0 0 1-12.3 12.3c-4.479 0-5.8-1.833-8.227-2.812a.751.751 0 0 1-.418-.967c.142-.366.325-.84.518-1.351a.75.75 0 0 1 .946-.444c7.224 2.491 17.621-5.713 12.36-15.2a.751.751 0 0 1 .432-1.08c.606-.2 1.389-.442 1.954-.616a.749.749 0 0 1 .93.47c1.296 3.732 3.805 3.959 3.805 9.7z"/></svg>