<svg id="Regular" xmlns="http://www.w3.org/2000/svg" viewBox="0 0 24 24" width="24" height="24"><defs><style>.cls-1{fill:none;stroke:#000;stroke-linecap:round;stroke-linejoin:round;stroke-width:1.5px}</style></defs><title>fruit-acorn</title><path class="cls-1" d="M6.451 4.273L4.862 5.862C-1.213 11.938 1 19.2 1.837 21.3a1.517 1.517 0 0 0 .859.858c2.104.842 9.366 3.055 15.442-3.021l1.588-1.588"/><path class="cls-1" d="M18.873 17.107a1.556 1.556 0 0 0 2.351-.15 10.293 10.293 0 0 0-.874-13.308 10.292 10.292 0 0 0-13.307-.873 1.556 1.556 0 0 0-.15 2.351zM20.35 3.649L23.25.75M11.76.86l-.571 8.563m5.12-8.215l-.833 12.502M20.35 3.649l-.556 13.91m3.345-5.319l-7.599.507m7.252-5.057l-12.502.834m10.06-4.875l-13.909.557"/></svg>