<svg id="Regular" xmlns="http://www.w3.org/2000/svg" viewBox="0 0 24 24" width="24" height="24"><defs><style>.cls-1{fill:none;stroke:#000;stroke-linecap:round;stroke-linejoin:round;stroke-width:1.5px}</style></defs><title>fruit-scale</title><path class="cls-1" d="M19.979 12H4.021a1.636 1.636 0 0 0-1.462.9L.925 15.635A1.634 1.634 0 0 0 2.387 18h19.226a1.634 1.634 0 0 0 1.462-2.365L21.441 12.9a1.636 1.636 0 0 0-1.462-.9zM5.25 15h4.5"/><path class="cls-1" d="M14.625 14.25a.375.375 0 1 1-.375.375.375.375 0 0 1 .375-.375m3.75 0a.375.375 0 1 1-.375.375.375.375 0 0 1 .375-.375M6.75 9v3m10.5-3.001v3M22.643 6H1.357a.376.376 0 0 0-.336.543l.814 1.628A1.5 1.5 0 0 0 3.177 9h17.646a1.5 1.5 0 0 0 1.342-.829l.814-1.628A.376.376 0 0 0 22.643 6z"/></svg>