<svg id="Regular" xmlns="http://www.w3.org/2000/svg" viewBox="0 0 24 24" width="24" height="24"><defs><style>.cls-1{fill:none;stroke:#000;stroke-linecap:round;stroke-linejoin:round;stroke-width:1.5px}</style></defs><title>fruit-pear</title><path class="cls-1" d="M12 5.215a3.2 3.2 0 0 0-3.372 2.641l-.013.091a9.267 9.267 0 0 1-2.643 5.082 7.5 7.5 0 0 0-2.222 4.978c0 3.944 4.275 5.328 8.25 5.231 3.974.1 8.25-1.287 8.25-5.231a7.5 7.5 0 0 0-2.222-4.978A9.527 9.527 0 0 1 15.505 8.6m2.569-4.018a5.222 5.222 0 0 1-2.608 1.308.933.933 0 0 1-1.184-1.184A5.222 5.222 0 0 1 15.59 2.1 5.219 5.219 0 0 1 18.2.789a.933.933 0 0 1 1.184 1.184 5.219 5.219 0 0 1-1.31 2.609z"/><path class="cls-1" d="M8.25.757A3.75 3.75 0 0 1 12 4.507v3"/></svg>