<svg id="Regular" xmlns="http://www.w3.org/2000/svg" viewBox="0 0 24 24" width="24" height="24"><defs><style>.cls-1{fill:none;stroke:#000;stroke-linecap:round;stroke-linejoin:round;stroke-width:1.5px}</style></defs><title>fruit-orange</title><path class="cls-1" d="M13.217 6.008a8.625 8.625 0 1 1-9 8.617M9.467.75h7.5m-3.75 0v10.5m-2.25-.681a4.057 4.057 0 0 0 4.5 0m-7.385-.934a8.213 8.213 0 0 1-3.9 2.037 1.286 1.286 0 0 1-1.6-1.6 8.222 8.222 0 0 1 2.037-3.9 8.222 8.222 0 0 1 3.9-2.037 1.286 1.286 0 0 1 1.6 1.6 8.213 8.213 0 0 1-2.037 3.9z"/></svg>