<svg xmlns="http://www.w3.org/2000/svg" viewBox="0 0 24 24" width="24" height="24"><g fill="none" stroke="#000" stroke-linejoin="round" stroke-miterlimit="10"><path d="M17.844 9.662C19.746 8.977 21 5.363 21 3.188c-3.712.248-5.526 1.633-5.883 2.703M4.546 9.594C2.644 8.908 1.5 5.363 1.5 3.188c3.712.248 5.496 1.552 5.853 2.621"/><path d="M16.312 20.553c1.275-.949 2.431-2.877 2.431-6.039 0-6.068-3.641-10.014-7.586-10.014-3.944 0-7.585 3.945-7.585 10.014 0 3.334 1.144 5.145 2.522 6.059m2.837.868c.811.066 1.685.051 2.226.051.583 0 1.53.037 2.413-.051"/><path d="M3.75 23.5a3 3 0 016 0h-6zm9 0a3 3 0 016 0h-6zm1-8c0 1-1.119 2.5-2.5 2.5s-2.5-1.5-2.5-2.5h5zm-5.5 0c0-1 1.344-3 3-3s3 2 3 3h-6z"/><circle cx="8.25" cy="10" r="1.5"/><circle cx="14.25" cy="10" r="1.5"/></g><path fill="none" d="M0 0h24v24H0z"/></svg>