<svg xmlns="http://www.w3.org/2000/svg" viewBox="0 0 24 24" width="24" height="24"><g fill="none" stroke="#000" stroke-linecap="round" stroke-linejoin="round" stroke-miterlimit="10"><path d="M18.915 22.086c-.778.777-2.314 1.414-3.415 1.414h-10c-1.101 0-2-.9-2-2v-19c0-1.1.899-2 2-2h13c1.101 0 2 .9 2 2v16c0 1.1-.636 2.637-1.414 3.414l-.171.172z"/><path d="M17.5 10.5c0 .551-.449 1-1 1h-9c-.55 0-1-.449-1-1v-6c0-.549.45-1 1-1h9c.551 0 1 .451 1 1v6z"/><circle cx="18" cy="15" r=".5"/><circle cx="15" cy="16.5" r=".5"/><path d="M9.5 16.5h-4m2-2v4m5 2.5l1-.5m-4 .5l1-.5"/></g><path fill="none" d="M0 0h24v24H0z"/></svg>