<svg xmlns="http://www.w3.org/2000/svg" viewBox="0 0 24 24" width="24" height="24"><g fill="none" stroke="#000" stroke-linejoin="round" stroke-miterlimit="10"><path d="M23.5 18.5c0 2.723-23 2.723-23 0v-11a2 2 0 012-2h3.463c.676 0 1.307-.342 1.676-.908l.77-1.182c.369-.568 1-.91 1.676-.91h3.841c.671 0 1.298.338 1.668.896l.798 1.207c.37.561.996.897 1.668.897h3.44a2 2 0 012 2v11z"/><path d="M8.5 8.5h9v8h-9z"/><path stroke-linecap="round" d="M19.906 10.531l1.469-1.469m-1.469 4.469l1.469-1.469m-1.469 4.469l1.469-1.469M2.5 11.5h4m-2-2v3.984M3.516 16.5h1.968"/></g><path fill="none" d="M0 0h24v24H0z"/></svg>