<svg xmlns="http://www.w3.org/2000/svg" viewBox="0 0 24 24" width="24" height="24"><g fill="none" stroke="#000" stroke-linecap="round" stroke-linejoin="round" stroke-miterlimit="10"><path d="M23.5 11.5a4 4 0 00-4-4h-15a4 4 0 00-4 4v10a2 2 0 002 2c1.486 0 .853-.088 5-7h9c4.082 6.805 3.459 7 5 7a2 2 0 002-2v-10z"/><circle cx="18.5" cy="10.5" r=".5"/><circle cx="20.5" cy="12.5" r=".5"/><circle cx="16.5" cy="12.5" r=".5"/><circle cx="18.5" cy="14.5" r=".5"/><path d="M5.5 10.5v4m2-2h-4m6.5 2h1m2 0h1m-4.5-9h4v2h-4zm2 0V3C11.5 1.625 10.375.5 9 .5H4.5"/></g><path fill="none" d="M0 0h24v24H0z"/></svg>