<svg xmlns="http://www.w3.org/2000/svg" viewBox="0 0 24 24" width="24" height="24"><defs><style>.a{fill:none;stroke:#000;stroke-linecap:round;stroke-linejoin:round;stroke-width:1.5px}</style></defs><title>gaming-100</title><path class="a" d="M23.25 12a3.751 3.751 0 0 0-2.618-3.576 3.75 3.75 0 0 0-5.056-5.056 3.751 3.751 0 0 0-7.152 0 3.75 3.75 0 0 0-5.056 5.055 3.751 3.751 0 0 0 0 7.152 3.75 3.75 0 0 0 5.056 5.056 3.751 3.751 0 0 0 7.152 0 3.75 3.75 0 0 0 5.056-5.056A3.753 3.753 0 0 0 23.25 12z"/><path class="a" d="M18.75 12.749a1.5 1.5 0 1 1-3 0v-1.5a1.5 1.5 0 0 1 3 0zm-5.25 0a1.5 1.5 0 1 1-3 0v-1.5a1.5 1.5 0 0 1 3 0zm-8.25-3H6a.75.75 0 0 1 .75.75v3.75m-1.5 0h3"/></svg>