<svg xmlns="http://www.w3.org/2000/svg" viewBox="0 0 24 24" width="24" height="24"><defs><style>.a{fill:none;stroke:#000;stroke-linecap:round;stroke-linejoin:round;stroke-width:1.5px}</style></defs><title>gaming-ribbon-100</title><path class="a" d="M23.25 9.75a1.5 1.5 0 0 1-3 0v-1.5a1.5 1.5 0 0 1 3 0zm-6 0a1.5 1.5 0 0 1-3 0v-1.5a1.5 1.5 0 0 1 3 0zM9 6.75h.75a.75.75 0 0 1 .75.75v3.75m-1.5 0h3m-7.193 1.792L.75 18l3.75.75 1.5 4.5 3.944-6.258m10.899-1.934L23.25 18l-3.75.75-1.5 4.5-3.944-6.258m4.308-13.244a8.25 8.25 0 1 0 0 10.5"/></svg>