<svg xmlns="http://www.w3.org/2000/svg" viewBox="0 0 24 24" width="24" height="24"><g fill="none" stroke="#000" stroke-linecap="round" stroke-linejoin="round" stroke-miterlimit="10"><path d="M23.5 6.531l-2.044 4.471a.751.751 0 01-.706.498H3.25a.752.752 0 01-.708-.501L.5 6.5v-6h23v6.031zM15.5.5v11m4-11v11m0-5l4 .031M.5 6.5H15"/><path d="M3.5.5v3a1 1 0 001 1H15m-10.5 5H6m2 0h1.5m0 8V16c0-1 .81-1.5 1.5-1.5h2.5c1.657 0 3-.843 3-2.5v-.5m-14 6h14v6h-14z"/><circle cx="9.5" cy="20.5" r="1"/><circle cx="13.5" cy="20.5" r="1"/><path d="M5.5 19.5v2m-1-1h2"/></g><path fill="none" d="M0 0h24v24H0z"/></svg>