<svg xmlns="http://www.w3.org/2000/svg" viewBox="0 0 24 24" width="24" height="24"><g fill="none" stroke="#000" stroke-linecap="round" stroke-linejoin="round" stroke-miterlimit="10"><path d="M9.5 3.5L9 .5 6.937 3.744a.502.502 0 01-.885-.021L4 .5l-.484 3.016L.5 4l3.238 2.059a.501.501 0 01.051.848L.5 9l2.984.469.531 2.938L6.12 9.173a.503.503 0 01.716-.044l2.18 3.277.484-2.765m11 0l-.484 2.766-2.18-3.277a.502.502 0 00-.715.042l-2.105 3.234-.531-2.938L11.5 9l3.289-2.093a.5.5 0 00-.051-.848L11.5 4l3.016-.484L15 .5l2.052 3.223a.501.501 0 00.885.021L20 .5l.5 3 3 .5-3.238 2.059a.501.501 0 00-.051.848L23.5 9l-3 .641zM5.5 5.5l2 2m0-2l-2 2m11-2l2 2m0-2l-2 2M6.5 9S8 15 8 23.5M17.5 9S16 15 16 23.5"/><path d="M4.03 21.144c.433.239.932.245 1.352.059l2.232-1.528L5.5 18.5a1.516 1.516 0 00-1.352-.06L2.18 20.115l1.85 1.029zm7.088-4.441a1.519 1.519 0 01-1.352.059l-2.232-1.528 2.114-1.175A1.506 1.506 0 0111 14l1.969 1.674-1.851 1.029zm9.031.631c-.433.24-.932.246-1.352.059l-2.232-1.527 2.114-1.176c.434-.24.932-.245 1.352-.059L22 16.305l-1.851 1.029zm-7.733 4c.433.24.932.246 1.352.059L16 19.865l-2.114-1.176a1.516 1.516 0 00-1.352-.059l-1.969 1.674 1.851 1.03z"/></g><path fill="none" d="M0 0h24v24H0z"/></svg>