<svg xmlns="http://www.w3.org/2000/svg" viewBox="0 0 24 24" width="24" height="24"><defs><style>.a{fill:none;stroke:#000;stroke-linecap:round;stroke-linejoin:round;stroke-width:1.5px}</style></defs><title>garbage-bin-throw-1</title><circle class="a" cx="17.25" cy="3.372" r="2.625"/><path class="a" d="M17.25 16.497v5.25m-6.135-7.056a5.962 5.962 0 0 0 3.135-2.442v9.5a1.5 1.5 0 0 0 3 0 1.5 1.5 0 0 0 3 0V15a1.5 1.5 0 0 0 3 0v-3a4.5 4.5 0 0 0-4.5-4.5H16.1a4.5 4.5 0 0 0-4.025 2.487l-.177.354a3 3 0 0 1-1.744 1.508 1.5 1.5 0 0 0 .957 2.845zm9.135.306v-3"/><circle class="a" cx="5.25" cy="11.247" r="1.5"/><path class="a" d="M2.25 23.247a1.5 1.5 0 0 1-1.5-1.5v-6h7.5l-1.259 6.294a1.5 1.5 0 0 1-1.471 1.206zm-1.5-7.5v-6.75"/></svg>