<svg id="Regular" xmlns="http://www.w3.org/2000/svg" viewBox="0 0 24 24" width="24" height="24"><defs><style>.cls-1{fill:none;stroke:#000;stroke-linecap:round;stroke-linejoin:round;stroke-width:1.5px}</style></defs><title>gardening-seed-bag</title><path class="cls-1" d="M23.146 11.479a1.5 1.5 0 0 1-.849 1.944l-9.776 3.832-1.1-2.793-2.788 1.094-1.095-2.793-2.793 1.1-2.189-5.591a1.5 1.5 0 0 1 .849-1.944L17.37.854a1.5 1.5 0 0 1 1.944.849zM1.976 22.056a.375.375 0 0 1 .375.375m-.751 0a.375.375 0 0 1 .375-.375m.001.75a.374.374 0 0 1-.375-.375m.75 0a.374.374 0 0 1-.375.375m3.75-.75a.375.375 0 0 1 .375.375m-.75 0a.375.375 0 0 1 .375-.375m0 .75a.374.374 0 0 1-.375-.375m.749 0a.374.374 0 0 1-.375.375m3.751-.75a.375.375 0 0 1 .375.375m-.751 0a.375.375 0 0 1 .375-.375m.001.75a.374.374 0 0 1-.375-.375m.75 0a.374.374 0 0 1-.375.375m-1.5-4.5a.375.375 0 0 1 .375.375m-.751 0a.375.375 0 0 1 .375-.375m.001.75a.374.374 0 0 1-.375-.375m.75 0a.374.374 0 0 1-.375.375m-3.75-.75a.375.375 0 0 1 .375.375m-.75 0a.375.375 0 0 1 .375-.375m0 .75a.374.374 0 0 1-.375-.375m.749 0a.374.374 0 0 1-.375.375"/></svg>