<svg id="Regular" xmlns="http://www.w3.org/2000/svg" viewBox="0 0 24 24" width="24" height="24"><defs><style>.cls-1{fill:none;stroke:#000;stroke-linecap:round;stroke-linejoin:round;stroke-width:1.5px}</style></defs><title>gardening-hand-sprinkler</title><path class="cls-1" d="M15.75 11.25h2c.828 0 1-.672 1-1.5v-7.5c0-.828-.172-1.5-1-1.5h-2zm-3.999-1.5H3.75V4.5l7.561-1.68"/><path class="cls-1" d="M15.75 11.25c-2.9 0-5.25-1.5-5.25-5.25S12.851.75 15.75.75m-12 3.75V15c0 2.25-3 3-3 3V8.25a4 4 0 0 1 3-3.75zm18-2.25l1.5-.75m-1.5 3.75h1.5m-1.5 3l1.5.75M9.75 20.25v3"/><path class="cls-1" d="M6.75 9.75v7.5a3 3 0 0 0 6 0v-6.709"/></svg>