<svg id="Regular" xmlns="http://www.w3.org/2000/svg" viewBox="0 0 24 24" width="24" height="24"><defs><style>.cls-1{fill:none;stroke:#000;stroke-linecap:round;stroke-linejoin:round;stroke-width:1.5px}</style></defs><title>gardening-glove</title><path class="cls-1" d="M17.554 3.333l1.656-1.655a1.463 1.463 0 0 1 2.07 2.069L19.624 5.4"/><path class="cls-1" d="M15.162 9.865L19.624 5.4a1.463 1.463 0 0 1 2.07 2.069L19.21 9.956"/><path class="cls-1" d="M16.4 12.763l2.81-2.807a1.463 1.463 0 0 1 2.07 2.069l-6.118 6.119L11.758 23a.585.585 0 0 1-.889.091l-8.69-8.695a.585.585 0 0 1 .073-.9l4.534-3.72a51.445 51.445 0 0 1 .181-5.653 1.451 1.451 0 0 1 1.674-1.162 1.573 1.573 0 0 1 1.3 1.672l-.06.778a.585.585 0 0 0 1 .459l4.607-4.606a1.463 1.463 0 1 1 2.069 2.069L13.092 7.8"/></svg>