<svg id="Regular" xmlns="http://www.w3.org/2000/svg" viewBox="0 0 24 24" width="24" height="24"><defs><style>.cls-1{fill:none;stroke:#000;stroke-linecap:round;stroke-linejoin:round;stroke-width:1.5px}</style></defs><title>gardening-tools-1</title><path class="cls-1" d="M6 12v8.25m4.443-7.607a1.5 1.5 0 0 1-1.5 1.607h-5.89a1.5 1.5 0 0 1-1.5-1.608A22.816 22.816 0 0 1 4.714 2.614a1.5 1.5 0 0 1 2.572 0 22.831 22.831 0 0 1 3.157 10.029zM16.5 23.25v-12m3 12v-12m3 12v-10.5a1.5 1.5 0 0 0-1.5-1.5h-6a1.5 1.5 0 0 0-1.5 1.5v10.5"/><circle class="cls-1" cx="6" cy="21.75" r="1.5"/><circle class="cls-1" cx="18" cy="2.25" r="1.5"/><path class="cls-1" d="M18 11.25v-7.5"/></svg>