<svg id="Regular" xmlns="http://www.w3.org/2000/svg" viewBox="0 0 24 24" width="24" height="24"><defs><style>.cls-1{fill:none;stroke:#000;stroke-linecap:round;stroke-linejoin:round;stroke-width:1.5px}</style></defs><title>gardening-seed-hand</title><path class="cls-1" d="M20.25 7.3l-7.5 3s-1.186-1.814 0-3A10.789 10.789 0 0 1 15 5.8l-1.611-1.071a1.486 1.486 0 0 0-1.332-.166A18.946 18.946 0 0 1 6.75 5.8C4.5 5.8 4.5 4.3 4.5 4.3l6.929-3.15a4.5 4.5 0 0 1 2.744-.313l6.077 1.216m-15 8.447l1.5 1.5m9.75 2.25H15m-11.25 9L6 21.75M3.75 16.5l1.5.75m9.75 3l-1.5 1.5m-3-4.5v-1.5"/></svg>