<svg id="Regular" xmlns="http://www.w3.org/2000/svg" viewBox="0 0 24 24" width="24" height="24"><defs><style>.cls-1{fill:none;stroke:#000;stroke-linecap:round;stroke-linejoin:round;stroke-width:1.5px}</style></defs><title>gardening-tools</title><path class="cls-1" d="M3.75 15.75a1.5 1.5 0 0 1 3 0v6a1.5 1.5 0 0 1-3 0zm13.5 0a1.5 1.5 0 0 1 3 0v6a1.5 1.5 0 0 1-3 0zm-12-1.5V.75m-4.5 0v6a3 3 0 0 0 3 3h3a3 3 0 0 0 3-3v-6m11.928 10.5h-5.856a1.508 1.508 0 0 1-1.5-1.633C14.718 4.964 16.734.75 18.75.75s4.032 4.214 4.429 8.867a1.508 1.508 0 0 1-1.501 1.633zm-2.928 3V7.5"/></svg>