<svg id="Regular" xmlns="http://www.w3.org/2000/svg" viewBox="0 0 24 24" width="24" height="24"><defs><style>.cls-1{fill:none;stroke:#000;stroke-linecap:round;stroke-linejoin:round;stroke-width:1.5px}</style></defs><title>gardening-cultivator</title><path class="cls-1" d="M7.62 7.553l6.895 6.895"/><path class="cls-1" d="M10.575 14.008h10a1 1 0 0 1 1 1v2h-12v-2a1 1 0 0 1 1-1z" transform="rotate(-45 15.576 15.508)"/><path class="cls-1" d="M12.393 20.812l2.122 2.121m.53-4.773l2.121 2.121m1.061-5.303l2.121 2.121m.531-4.773L23 14.448M8.151 5.962a.75.75 0 0 1 0 1.061L7.09 8.084a.751.751 0 0 1-1.061 0L1.256 3.311a1.5 1.5 0 0 1 2.122-2.122z"/></svg>