<svg id="Regular" xmlns="http://www.w3.org/2000/svg" viewBox="0 0 24 24" width="24" height="24"><defs><style>.cls-1{fill:none;stroke:#000;stroke-linecap:round;stroke-linejoin:round;stroke-width:1.5px}.cls-2{fill:#231f20}</style></defs><title>gardening-sprinkle-bottle</title><path class="cls-1" d="M11.769 3.75h4.5l2.25 6V21a1.5 1.5 0 0 1-1.5 1.5h-6a1.5 1.5 0 0 1-1.5-1.5V9.75zm4.5 0h.75a6 6 0 0 1 6 6V12m-15-6.75h3.187m2.812-1.5v-3"/><path class="cls-1" d="M9.519 18h4.5v-4.5h-4.5M5.019 3l-3.75-1.5m3.75 6L1.269 9m2.25-3.75H.75"/><path class="cls-2" d="M3.519 5.25H.75"/></svg>