<svg id="Regular" xmlns="http://www.w3.org/2000/svg" viewBox="0 0 24 24" width="24" height="24"><defs><style>.cls-1{fill:none;stroke:#000;stroke-linecap:round;stroke-linejoin:round;stroke-width:1.5px}</style></defs><title>gardening-sprinkle-bottle-1</title><path class="cls-1" d="M11.5 11.25V7.5h-3v-3h6.052a8.823 8.823 0 0 1 8.513 6.471 1.5 1.5 0 0 1-1.059 1.836l-.032.009a1.389 1.389 0 0 1-1.7-.975A6 6 0 0 0 14.5 7.5v3.75"/><path class="cls-1" d="M9.75 11.25h6.5a2 2 0 0 1 2 2v9a1 1 0 0 1-1 1h-8.5a1 1 0 0 1-1-1v-9a2 2 0 0 1 2-2zM13 4.5V.75m-3.75 0h7.5M1.375 1.5a.375.375 0 0 1 .375.375m-.75 0a.375.375 0 0 1 .375-.375m0 .75A.375.375 0 0 1 1 1.875m.75 0a.375.375 0 0 1-.375.375m0 3a.375.375 0 0 1 .375.375m-.75 0a.375.375 0 0 1 .375-.375m0 .75A.375.375 0 0 1 1 5.625m.75 0A.375.375 0 0 1 1.375 6m3.75-3a.375.375 0 0 1 .375.375m-.75 0A.375.375 0 0 1 5.125 3m0 .75a.375.375 0 0 1-.375-.375m.75 0a.375.375 0 0 1-.375.375m0 3.75a.375.375 0 0 1 .375.375m-.75 0a.375.375 0 0 1 .375-.375m0 .75a.375.375 0 0 1-.375-.375m.75 0a.375.375 0 0 1-.375.375M1.375 9a.375.375 0 0 1 .375.375m-.75 0A.375.375 0 0 1 1.375 9m0 .75A.375.375 0 0 1 1 9.375m.75 0a.375.375 0 0 1-.375.375"/></svg>