<svg id="Regular" xmlns="http://www.w3.org/2000/svg" viewBox="0 0 24 24" width="24" height="24"><defs><style>.cls-1{fill:none;stroke:#000;stroke-linecap:round;stroke-linejoin:round;stroke-width:1.5px}</style></defs><title>gardening-pots</title><path class="cls-1" d="M20.25 11.5a1.5 1.5 0 0 1-1.5 1.5H5.25a1.5 1.5 0 0 1 0-3h13.5a1.5 1.5 0 0 1 1.5 1.5zm-1.5 1.5l-1.3 8.478a1.5 1.5 0 0 1-1.483 1.272h-7.93a1.5 1.5 0 0 1-1.483-1.272L5.25 13m15-9.75a1.5 1.5 0 0 1-1.5 1.5H5.25a1.5 1.5 0 0 1 0-3h13.5a1.5 1.5 0 0 1 1.5 1.5zM6.058 10L5.25 4.75m13.5 0L17.942 10"/></svg>