<svg xmlns="http://www.w3.org/2000/svg" viewBox="0 0 24 24" width="24" height="24"><defs><style>.a{fill:none;stroke:#000;stroke-linecap:round;stroke-linejoin:round;stroke-width:1.5px}</style></defs><title>gas-e</title><rect class="a" x=".75" y=".75" width="15" height="22.5" rx="1" ry="1"/><path class="a" d="M12.75 5.25a1.5 1.5 0 0 0-1.5-1.5h-6a1.5 1.5 0 0 0 0 3h6a1.5 1.5 0 0 0 1.5-1.5zm-12 4.5h15m0-4.5h1.5a1.5 1.5 0 0 1 1.5 1.5v15a1.5 1.5 0 0 0 3 0v-9a4.959 4.959 0 0 1 .832-2.75l.668-1m-1.5 3.75h1.5m-13.5 7.5h-1.5a1.5 1.5 0 0 1-1.5-1.5v-4.5a1.5 1.5 0 0 1 1.5-1.5h1.5m-3 4.5h3"/></svg>