<svg xmlns="http://www.w3.org/2000/svg" viewBox="0 0 24 24" width="24" height="24"><defs><style>.a{fill:none;stroke:#000;stroke-linecap:round;stroke-linejoin:round;stroke-width:1.5px}</style></defs><title>gas-can</title><path class="a" d="M15.75.75a3 3 0 0 0-3 3v3h-9a3 3 0 0 0-3 3v10.5a3 3 0 0 0 3 3h16.5a3 3 0 0 0 3-3V3.75a3 3 0 0 0-3-3z"/><path class="a" d="M20.25 5.25a1.5 1.5 0 0 0-1.5-1.5h-1.5a1.5 1.5 0 0 0 0 3h1.5a1.5 1.5 0 0 0 1.5-1.5zm-15.5-1.5h4a1 1 0 0 1 1 1v2h-6v-2a1 1 0 0 1 1-1zm2 6l10.5 10.5m-10.5 0l10.5-10.5"/></svg>