<svg xmlns="http://www.w3.org/2000/svg" viewBox="0 0 24 24" width="24" height="24"><g fill="none" stroke="#000" stroke-linejoin="round" stroke-miterlimit="10"><path d="M.5 11.5h23v12H.5z"/><path d="M5.5 16.5h13v7h-13zM15.92.583c1.306.961 1.232 2.823.721 3.599-.353-.288-.666-.604-.721-1.079-1.201.476-1.799 1.416-1.799 2.519a2.879 2.879 0 005.758-.001c0-2.322-1.673-4.512-3.959-5.038zM13.5 9.5h7v2h-7zM5.92.583c1.306.961 1.232 2.823.721 3.599-.353-.288-.666-.604-.721-1.079-1.201.475-1.799 1.416-1.799 2.518a2.879 2.879 0 005.758 0c0-2.322-1.673-4.512-3.959-5.038zM3.5 9.5h7v2h-7z"/><path stroke-linecap="round" d="M9 18.5h6"/><circle cx="7" cy="14" r="1"/><circle cx="17" cy="14" r="1"/></g><path fill="none" d="M0 0h24v24H0z"/></svg>