<svg xmlns="http://www.w3.org/2000/svg" viewBox="0 0 24 24" width="24" height="24"><g fill="none" stroke="#000" stroke-linecap="round" stroke-linejoin="round" stroke-miterlimit="10"><path d="M18.5 10.5a4 4 0 00-4-4h-6a4 4 0 00-4 4v6a4 4 0 004 4h6a4 4 0 004-4v-6zm-11-3.873V.5m8 6.127V.5"/><path d="M10.272 9c1.483 1.091 1.401 3.208.817 4.091-.4-.328-.756-.686-.817-1.226-1.366.54-2.046 1.609-2.046 2.863a3.274 3.274 0 006.546 0c0-2.642-1.901-5.13-4.5-5.728zM3.5 23.5h16a3 3 0 00-3-3h-10a3 3 0 00-3 3zM5 .5h13m-6.5 6v-3m-1.5 0h3"/></g><path fill="none" d="M0 0h24v24H0z"/></svg>