<svg xmlns="http://www.w3.org/2000/svg" viewBox="0 0 24 24" width="24" height="24"><g fill="none" stroke="#000" stroke-linejoin="round" stroke-miterlimit="10"><path d="M6.593 18.19l-2.925-4.066C3.025 13.23 2.5 11.602 2.5 10.5V10a9.5 9.5 0 0119 0v.5c0 1.102-.518 2.736-1.15 3.636l-2.821 4.013"/><circle cx="12" cy="18" r="5.5"/><circle cx="12" cy="15" r=".5"/><circle cx="15" cy="18" r=".5"/><circle cx="12" cy="21" r=".5"/><circle cx="9" cy="18" r=".5"/><circle cx="12" cy="18" r=".5"/><circle cx="8" cy="8" r="2.5"/><circle cx="16" cy="8" r="2.5"/><path d="M6.593 18.19l-2.925-4.066C3.025 13.23 2.5 11.602 2.5 10.5V10a9.5 9.5 0 0119 0v.5c0 1.102-.518 2.736-1.15 3.636l-2.821 4.013"/><circle cx="12" cy="18" r="5.5"/><circle cx="12" cy="15" r=".5"/><circle cx="15" cy="18" r=".5"/><circle cx="12" cy="21" r=".5"/><circle cx="9" cy="18" r=".5"/><circle cx="12" cy="18" r=".5"/><circle cx="8" cy="8" r="2.5"/><circle cx="16" cy="8" r="2.5"/></g><path fill="none" d="M0 0h24v24H0z"/></svg>