<svg xmlns="http://www.w3.org/2000/svg" viewBox="0 0 24 24" width="24" height="24"><defs><style>.a{fill:none;stroke:#000;stroke-linecap:round;stroke-linejoin:round;stroke-width:1.5px}</style></defs><title>gauge-dashboard</title><path class="a" d="M12 4.5A11.336 11.336 0 0 0 .75 15.923V18a1.5 1.5 0 0 0 1.5 1.5h19.5a1.5 1.5 0 0 0 1.5-1.5v-2.08A11.336 11.336 0 0 0 12 4.5z"/><path class="a" d="M9 19.5v-.75a3 3 0 0 1 6 0v.75m-.75-10.497L12 15.753M4.875 15a.375.375 0 1 0 .375.375.375.375 0 0 0-.375-.375m1.5-3.747a.375.375 0 1 0 .375.375.375.375 0 0 0-.375-.375M19.125 15a.375.375 0 1 0 .375.375.375.375 0 0 0-.375-.375m-1.5-3.747a.375.375 0 1 0 .375.375.375.375 0 0 0-.375-.375m-8.25-3a.375.375 0 1 0 .375.375.375.375 0 0 0-.375-.375"/></svg>