<svg xmlns="http://www.w3.org/2000/svg" viewBox="0 0 24 24" width="24" height="24"><defs><style>.a{fill:none;stroke:#000;stroke-linecap:round;stroke-linejoin:round;stroke-width:1.5px}</style></defs><title>gauge-dashboard-1</title><path class="a" d="M9 15.292v-.285a3 3 0 0 1 6 0v.285m-.748-10.035l-2.25 6.75m-5.625-4.5a.375.375 0 1 0 .375.375.375.375 0 0 0-.375-.375m12.75 3.75a.375.375 0 1 0 .375.375.375.375 0 0 0-.375-.375m-1.5-3.75a.375.375 0 1 0 .373.375.375.375 0 0 0-.375-.375m-8.248-3a.375.375 0 1 0 .375.375.375.375 0 0 0-.375-.375m12.054 13.635a15.753 15.753 0 0 0-18.862 0"/><circle class="a" cx="12" cy="12.007" r="11.25"/><path class="a" d="M4.877 11.257a.375.375 0 1 0 .375.375.375.375 0 0 0-.375-.375"/></svg>