<svg xmlns="http://www.w3.org/2000/svg" viewBox="0 0 24 24" width="24" height="24"><g fill="none" stroke="#000" stroke-linecap="round" stroke-linejoin="round" stroke-miterlimit="10"><circle cx="12" cy="16" r="1.5"/><path d="M13.061 14.939l4.95-4.949M2.5 16.5h2m17 0h-2m1.276-4.135l-1.847.765m-3.294-5.907l-.765 1.848M12 6.5v2M8.365 7.223l.765 1.848m-3.847.211l1.412 1.415m-3.471 1.668l1.846.765M12 4.5C5.648 4.5.5 9.649.5 16v4.5h23V16c0-6.351-5.148-11.5-11.5-11.5z"/></g><path fill="none" d="M0 0h24v24H0z"/></svg>