<svg xmlns="http://www.w3.org/2000/svg" viewBox="0 0 24 24" width="24" height="24"><g fill="none" stroke="#000" stroke-linecap="round" stroke-linejoin="round" stroke-miterlimit="10"><path d="M2.5 8.5v-.016a4 4 0 004 4l14 .016m-12 4v-8m6 8v-8m6 8v-8m-19-3.852V.5h.992c.844 0 .991.464.991 1.037s-.147.963-.991.963H1.5m.992.074l.991 2.074M8.5 4.5v-4l-1 .5m7 22.5v-4.148l-2 2.637H15M20.582 21.05c.922 0 1.082.788 1.082 1.225 0 .438-.16 1.226-1.082 1.226-.921 0-1.082-.788-1.082-1.226 0-.437.161-1.225 1.082-1.225z"/><path d="M21.098 19.307c-1.361 0-1.598 1.165-1.598 1.811v1.157M21.303.5H19.5v2h.901c.768 0 .901.631.901 1 0 .37-.134 1-.901 1H19.5M7.707 20.377a.99.99 0 01.991-.948.99.99 0 01.992.989c0 .283-.114.467-.19.582l-1.806 2.5h1.984"/><g><path d="M13.519 1.492c.017-.387.193-.992.989-.992.845 0 .992.681.992 1.059s-.147 1.061-.992 1.061"/><path d="M13.519 3.746c.018.387.193.991.989.991.845 0 .992-.681.992-1.059 0-.379-.147-1.06-.992-1.06"/></g></g><path fill="none" d="M0 0h24v24H0z"/></svg>