<svg id="Regular" xmlns="http://www.w3.org/2000/svg" viewBox="0 0 24 24" width="24" height="24"><defs><style>.cls-1{fill:none;stroke:#000;stroke-linecap:round;stroke-linejoin:round;stroke-width:1.5px}</style></defs><title>gender-bisexual</title><path class="cls-1" d="M12.75 23.25H15l.75-4.5h3L16.5 12c-.75-2.25-1.679-3.75-3.75-3.75m0-7.5a3 3 0 0 1 0 6m-3 0a3 3 0 0 1 0-6m0 7.5a4.5 4.5 0 0 0-4.5 4.5v3h1.5l.75 7.5h2.25m-6-22.5h-1.5a1.5 1.5 0 0 0-1.5 1.5v19.5a1.5 1.5 0 0 0 1.5 1.5h1.5M20.25.75h1.5a1.5 1.5 0 0 1 1.5 1.5v19.5a1.5 1.5 0 0 1-1.5 1.5h-1.5"/></svg>