<svg xmlns="http://www.w3.org/2000/svg" viewBox="0 0 24 24" width="24" height="24"><g fill="none" stroke="#000" stroke-linejoin="round" stroke-miterlimit="10"><path d="M8 6.5V8c-1 0-.5 2 0 2 0 2 1.5 3 1.5 3v3c-4 1.5-7.596 2.383-8 4-1 2-1 3.5-1 3.5h23s0-1.5-1-3.5c-.404-1.617-4-2.5-8-4v-3s1.5-1 1.5-3c.5 0 1-2 0-2V6.5"/><path stroke-linecap="round" d="M5.5 6.5h13m-11 0l2-5.5 1.214.728c.707.425 1.865.425 2.572 0L14.5 1l2 5.5"/><path d="M12 17l-1.591 1.389L12 20l1.604-1.599zm0 3l-1.5 3.5h3zm-2.5 3.5l-2.083-6.779M14.5 23.5l2.083-6.779M12 17l-2.5-1m2.5 1l2.5-1m3.5 5.5h2.5M12 17l-3.552 3.078M12 17l3.552 3.078"/></g><path fill="none" d="M0 0h24v24H0z"/></svg>