<svg xmlns="http://www.w3.org/2000/svg" viewBox="0 0 24 24" width="24" height="24"><defs><style>.a{fill:none;stroke:#000;stroke-linecap:round;stroke-linejoin:round;stroke-width:1.5px}</style></defs><title>gesture-tap-swipe-right-1</title><path class="a" d="M6.108 22l-3.789-3.095a1.639 1.639 0 0 1-.566-1.676 1.638 1.638 0 0 1 2.321-1.068l1.174.587V10a1.5 1.5 0 0 1 1.5-1.5 1.5 1.5 0 0 1 1.5 1.5v4.5l1.993.333a3 3 0 0 1 2.507 2.959V22m10.5-15.002h-7.5m3.75-3.75l3.75 3.75-3.75 3.75m-8.507 1.243a6 6 0 1 0-8.485 0"/></svg>