<svg xmlns="http://www.w3.org/2000/svg" viewBox="0 0 24 24" width="24" height="24"><defs><style>.a{fill:none;stroke:#000;stroke-linecap:round;stroke-linejoin:round;stroke-width:1.5px}</style></defs><title>gesture-flip-right</title><path class="a" d="M3.939 11.964l1.461-.341m3.7 2.634l-.95-4.046a3.75 3.75 0 1 0-7.3 1.705L2.618 19.5m17.439-7.536l-1.461-.341m2.782 7.877l1.771-7.582a3.75 3.75 0 0 0-7.3-1.7l-.949 4.026m-1.209 3.028l2.723 3.254-3.254 2.722m3.24-2.741A26.959 26.959 0 0 1 7.227 19.1m4.16-12.352L7.981 4.219 10.51.813M8 4.234a26.944 26.944 0 0 1 9.248-.766"/></svg>