<svg xmlns="http://www.w3.org/2000/svg" viewBox="0 0 24 24" width="24" height="24"><defs><style>.a{fill:none;stroke:#000;stroke-linecap:round;stroke-linejoin:round;stroke-width:1.5px}</style></defs><title>gesture-swipe-vertical-3</title><path class="a" d="M3.25 10.608l3.094-3.789a1.637 1.637 0 0 1 1.675-.566 1.637 1.637 0 0 1 1.068 2.321L8.5 9.748h6.75a1.5 1.5 0 0 1 1.5 1.5 1.5 1.5 0 0 1-1.5 1.5h-4.5l-.332 1.994a3 3 0 0 1-2.959 2.506H3.25m13.5-16.5v5.25m3.75-1.5L16.75.748 13 4.498m3.75 11.25v7.5m3.75-3.75l-3.75 3.75-3.75-3.75"/></svg>