<svg xmlns="http://www.w3.org/2000/svg" viewBox="0 0 24 24" width="24" height="24"><defs><style>.a{fill:none;stroke:#000;stroke-linecap:round;stroke-linejoin:round;stroke-width:1.5px}</style></defs><title>gesture-two-fingers-scroll</title><path class="a" d="M.75 17.248l2.856.816a3 3 0 0 0 3.507-1.543l.387-.773h3.75a1.5 1.5 0 0 0 0-3h1.5a1.5 1.5 0 0 0 0-3H6l.587-1.174a1.637 1.637 0 0 0-2.743-1.755L.75 10.608m10.5 2.14h-4.5m15.75-8.25L18.75.748 15 4.498m3.75-3.75v22.5m3.75-3.75l-3.75 3.75-3.75-3.75"/></svg>