<svg xmlns="http://www.w3.org/2000/svg" viewBox="0 0 24 24" width="24" height="24"><defs><style>.a{fill:none;stroke:#000;stroke-linecap:round;stroke-linejoin:round;stroke-width:1.5px}</style></defs><title>gesture-swipe-horizontal-2</title><path class="a" d="M12.11 23.248l-3.789-3.093a1.639 1.639 0 0 1-.566-1.676 1.638 1.638 0 0 1 2.321-1.068L11.25 18v-6.75a1.5 1.5 0 0 1 1.5-1.5 1.5 1.5 0 0 1 1.5 1.5v4.5l1.993.333a3 3 0 0 1 2.507 2.957v4.208m-15-22.5l-3 3 3 3m4.5-6l-3 3 3 3m12-6l3 3-3 3m-4.5-6l3 3-3 3m-10.5-3h13.5"/></svg>