<svg xmlns="http://www.w3.org/2000/svg" viewBox="0 0 24 24" width="24" height="24"><defs><style>.a{fill:none;stroke:#000;stroke-linecap:round;stroke-linejoin:round;stroke-width:1.5px}</style></defs><title>gesture-swipe-horizontal-left-3</title><path class="a" d="M.748 3.748v6h6m-3-9v6h6m-6-1.568a20.279 20.279 0 0 1 19.5-.827M12.109 23.248l-3.79-3.093a1.636 1.636 0 0 1-.565-1.676 1.638 1.638 0 0 1 2.321-1.068l1.174.589v-6.75a1.5 1.5 0 0 1 1.5-1.5 1.5 1.5 0 0 1 1.5 1.5v4.5l1.993.333a3 3 0 0 1 2.507 2.959v4.208"/></svg>