<svg xmlns="http://www.w3.org/2000/svg" viewBox="0 0 24 24" width="24" height="24"><defs><style>.a{fill:none;stroke:#000;stroke-linecap:round;stroke-linejoin:round;stroke-width:1.5px}</style></defs><title>gesture-swipe-vertical-down-2</title><path class="a" d="M2.25 10.609L5.344 6.82a1.633 1.633 0 0 1 1.675-.566 1.637 1.637 0 0 1 1.068 2.321L7.5 9.749h6.75a1.5 1.5 0 0 1 1.5 1.5 1.5 1.5 0 0 1-1.5 1.5h-4.5l-.332 1.993a3 3 0 0 1-2.959 2.507H2.25m19.5 5.999h-6v-6m2.621-16.5a18 18 0 0 1-1.206 22.5"/></svg>