<svg xmlns="http://www.w3.org/2000/svg" viewBox="0 0 24 24" width="24" height="24"><defs><style>.a{fill:none;stroke:#000;stroke-linecap:round;stroke-linejoin:round;stroke-width:1.5px}</style></defs><title>gesture-expand-1</title><path class="a" d="M10.608 17.248l-3.789-3.093a1.639 1.639 0 0 1-.566-1.676 1.638 1.638 0 0 1 2.321-1.068L9.748 12V6.748a1.5 1.5 0 0 1 1.5-1.5 1.5 1.5 0 0 1 1.5 1.5v3l1.993.333a3 3 0 0 1 2.507 2.959v4.208m-3-14.25l-2.25-2.25-2.25 2.25m4.5 18l-2.25 2.25-2.25-2.25m-6.75-11.25l-2.25 2.25 2.25 2.25m18-4.5l2.25 2.25-2.25 2.25"/></svg>