<svg xmlns="http://www.w3.org/2000/svg" viewBox="0 0 24 24" width="24" height="24"><defs><style>.a{fill:none;stroke:#000;stroke-linecap:round;stroke-linejoin:round;stroke-width:1.5px}</style></defs><title>gesture-tap-swipe-left-1</title><path class="a" d="M16.608 22.248l-3.789-3.093a1.639 1.639 0 0 1-.566-1.676 1.638 1.638 0 0 1 2.321-1.068l1.174.589v-6.75a1.5 1.5 0 0 1 1.5-1.5 1.5 1.5 0 0 1 1.5 1.5v4.5l1.993.333a3 3 0 0 1 2.507 2.959v4.208M.748 7.248h7.5m-3.75-3.75l-3.75 3.75 3.75 3.75m8.507 1.243a6 6 0 1 1 8.486 0"/></svg>