<svg xmlns="http://www.w3.org/2000/svg" viewBox="0 0 24 24" width="24" height="24"><defs><style>.a{fill:none;stroke:#000;stroke-linecap:round;stroke-linejoin:round;stroke-width:1.5px}</style></defs><title>gesture-swipe-vertical-2</title><path class="a" d="M.75 12.109L3.843 8.32a1.639 1.639 0 0 1 1.676-.566 1.638 1.638 0 0 1 1.068 2.321L6 11.249h6.75a1.5 1.5 0 0 1 1.5 1.5 1.5 1.5 0 0 1-1.5 1.5h-4.5l-.332 1.993a3 3 0 0 1-2.96 2.507H.75M23.249 3.748l-3-3-3 3m6 4.5l-3-3-3 3m6 12l-3 3-3-3m6-4.5l-3 3-3-3m3-10.5v13.5"/></svg>