<svg xmlns="http://www.w3.org/2000/svg" viewBox="0 0 24 24" width="24" height="24"><defs><style>.a{fill:none;stroke:#000;stroke-linecap:round;stroke-linejoin:round;stroke-width:1.5px}</style></defs><title>gesture-swipe-horizontal-3</title><path class="a" d="M10.608 20.748l-3.789-3.093a1.639 1.639 0 0 1-.566-1.676 1.638 1.638 0 0 1 2.321-1.068l1.174.587v-6.75a1.5 1.5 0 0 1 1.5-1.5 1.5 1.5 0 0 1 1.5 1.5v4.5l1.993.333a3 3 0 0 1 2.507 2.959v4.208m-16.5-13.5h5.25m-1.5-3.75l-3.75 3.75 3.75 3.75m11.25-3.75h7.5m-3.75-3.75l3.75 3.75-3.75 3.75"/></svg>