<svg xmlns="http://www.w3.org/2000/svg" viewBox="0 0 24 24" width="24" height="24"><defs><style>.a{fill:none;stroke:#000;stroke-linecap:round;stroke-linejoin:round;stroke-width:1.5px}</style></defs><title>gesture-tap-clock-1</title><path class="a" d="M9.11 23.248l-3.789-3.093a1.639 1.639 0 0 1-.566-1.676 1.638 1.638 0 0 1 2.321-1.068L8.25 18v-6.75a1.5 1.5 0 0 1 1.5-1.5 1.5 1.5 0 0 1 1.5 1.5v4.5l1.993.333a3 3 0 0 1 2.507 2.957v4.208m1.629-8.762a9.258 9.258 0 0 0 .844-1.736"/><circle class="a" cx="18.75" cy="5.248" r="4.5"/><path class="a" d="M18.75 5.248v-1.5M12 1.065A8.9 8.9 0 0 0 9.75.748 8.979 8.979 0 0 0 2.44 14.97"/></svg>