<svg xmlns="http://www.w3.org/2000/svg" viewBox="0 0 24 24" width="24" height="24"><defs><style>.a{fill:none;stroke:#000;stroke-linecap:round;stroke-linejoin:round;stroke-width:1.5px}</style></defs><title>gesture-swipe-vertical-up-3</title><path class="a" d="M.749 12.109L3.842 8.32a1.639 1.639 0 0 1 1.676-.566 1.638 1.638 0 0 1 1.068 2.321L6 11.249h6.75a1.5 1.5 0 0 1 1.5 1.5 1.5 1.5 0 0 1-1.5 1.5h-4.5l-.333 1.993a3 3 0 0 1-2.959 2.507H.749M20.249.748h-6v6"/><path class="a" d="M23.249 3.748h-6v6"/><path class="a" d="M18.817 3.748a20.15 20.15 0 0 1 2.932 10.5 20.17 20.17 0 0 1-2.105 9"/></svg>