<svg xmlns="http://www.w3.org/2000/svg" viewBox="0 0 24 24" width="24" height="24"><defs><style>.a{fill:none;stroke:#000;stroke-linecap:round;stroke-linejoin:round;stroke-width:1.5px}</style></defs><title>gesture-expand-two-fingers</title><path class="a" d="M14.25 2.998L12 .748l-2.25 2.25m4.5 18L12 23.248l-2.25-2.25M3 9.748l-2.25 2.25L3 14.248m18-4.5l2.25 2.25-2.25 2.25m-11.251-1.5a.375.375 0 1 1-.375.375.375.375 0 0 1 .375-.375m4.876-1.5a.375.375 0 1 1-.375.375.375.375 0 0 1 .375-.375"/><path class="a" d="M6.75 15.748v-3a3 3 0 0 1 6 0v3"/><path class="a" d="M17.25 15.748v-4.875a2.625 2.625 0 0 0-5.248-.1"/></svg>