<svg xmlns="http://www.w3.org/2000/svg" viewBox="0 0 24 24" width="24" height="24"><defs><style>.a{fill:none;stroke:#000;stroke-linecap:round;stroke-linejoin:round;stroke-width:1.5px}</style></defs><title>gesture-tap-vertical-expand</title><path class="a" d="M12.109 22.5l-3.79-3.093a1.639 1.639 0 0 1-.566-1.676 1.639 1.639 0 0 1 2.321-1.068l1.175.587V10.5a1.5 1.5 0 0 1 1.5-1.5 1.5 1.5 0 0 1 1.5 1.5V15l1.993.333a3 3 0 0 1 2.507 2.959V22.5M3.748 3.748l-3 3 3 3m16.5-6l3.001 3-3.001 3M16.724 9a5.243 5.243 0 1 0-8.476 1.417"/></svg>