<svg xmlns="http://www.w3.org/2000/svg" viewBox="0 0 24 24" width="24" height="24"><defs><style>.a{fill:none;stroke:#000;stroke-linecap:round;stroke-linejoin:round;stroke-width:1.5px}</style></defs><title>gesture-tap-all-direction-1</title><path class="a" d="M14.249 2.998l-2.25-2.25-2.25 2.25m4.5 18l-2.25 2.25-2.25-2.25m-6.75-11.25l-2.25 2.25 2.25 2.25m18-4.5l2.25 2.25-2.25 2.25m-15-4.5l-1.5 2.25 1.5 2.25m12-4.5l1.5 2.25-1.5 2.25m-3.75-8.25l-2.25-1.5-2.25 1.5m4.5 12l-2.25 1.5-2.25-1.5m1.5-5.25h1.5m3 2.252v-3a3.75 3.75 0 0 0-7.5 0v3"/></svg>