<svg xmlns="http://www.w3.org/2000/svg" viewBox="0 0 24 24" width="24" height="24"><defs><style>.a{fill:none;stroke:#000;stroke-linecap:round;stroke-linejoin:round;stroke-width:1.5px}</style></defs><title>gesture-two-fingers-expand-all</title><path class="a" d="M17.248 17.248V13.04a3 3 0 0 0-1.5-2.6V8.248a1.5 1.5 0 0 0-3 0v-1.5a1.5 1.5 0 1 0-3 0V12l-1.174-.587a1.638 1.638 0 0 0-1.755 2.744l3.789 3.093m2.14-9.002v3m1.5-8.25l-2.25-2.25-2.25 2.25m4.5 18l-2.25 2.25-2.25-2.25m-6.75-11.25l-2.25 2.25 2.25 2.25m18-4.5l2.25 2.25-2.25 2.25"/></svg>