<svg xmlns="http://www.w3.org/2000/svg" viewBox="0 0 24 24" width="24" height="24"><defs><style>.a{fill:none;stroke:#000;stroke-linecap:round;stroke-linejoin:round;stroke-width:1.5px}</style></defs><title>gesture-zoom-in</title><path class="a" d="M3.94 15.715l1.46-.342m4.92 7.875l-2.169-9.287a3.75 3.75 0 0 0-7.3 1.705l1.77 7.582m17.436-7.533l-1.46-.342m2.782 7.875l1.77-7.582a3.75 3.75 0 1 0-7.3-1.7l-2.169 9.287M6.561 6.748l2.645-3.317L5.888.786m3.318 2.658A35.959 35.959 0 0 0 .749 5.133m16.687 1.615l-2.645-3.317L18.109.786m-3.318 2.658a35.977 35.977 0 0 1 8.458 1.689"/></svg>