<svg xmlns="http://www.w3.org/2000/svg" viewBox="0 0 24 24" width="24" height="24"><defs><style>.a{fill:none;stroke:#000;stroke-linecap:round;stroke-linejoin:round;stroke-width:1.5px}</style></defs><title>gesture-tap-expand-all-directions-1</title><path class="a" d="M14.25 2.998L12 .748l-2.25 2.25m4.5 18L12 23.248l-2.25-2.25M3 9.748l-2.25 2.25L3 14.248m18-4.5l2.25 2.25-2.25 2.25m-10.39 3l-3.79-3.093a1.636 1.636 0 0 1-.565-1.676 1.638 1.638 0 0 1 2.321-1.068L9.75 12V6.748a1.5 1.5 0 0 1 1.5-1.5 1.5 1.5 0 0 1 1.5 1.5v3l1.993.333a3 3 0 0 1 2.507 2.959v4.208"/></svg>