<svg xmlns="http://www.w3.org/2000/svg" viewBox="0 0 24 24" width="24" height="24"><defs><style>.a{fill:none;stroke:#000;stroke-linecap:round;stroke-linejoin:round;stroke-width:1.5px}</style></defs><title>gesture-two-finger-tap-clock</title><path class="a" d="M17.378 14.486a9.2 9.2 0 0 0 .845-1.736"/><circle class="a" cx="18.75" cy="5.248" r="4.5"/><path class="a" d="M18.75 5.248v-1.5M12 1.065A8.9 8.9 0 0 0 9.75.748 8.979 8.979 0 0 0 2.44 14.97m11.809 8.278l.816-2.856a3 3 0 0 0-1.543-3.507l-.773-.387v-3.75a1.5 1.5 0 0 0-3 0v-1.5a1.5 1.5 0 0 0-3 0V18l-1.174-.587a1.638 1.638 0 0 0-1.755 2.742l3.789 3.093m2.14-10.5v4.5"/></svg>