<svg xmlns="http://www.w3.org/2000/svg" viewBox="0 0 24 24" width="24" height="24"><defs><style>.a{fill:none;stroke:#000;stroke-linecap:round;stroke-linejoin:round;stroke-width:1.5px}</style></defs><title>gesture-two-finger-flip-right</title><path class="a" d="M16.936 18.704l-.313 4.231 4.231.313m-4.229-.338a26.95 26.95 0 0 0 6.625-6.5M7.424 6.081L8.715 2.04 4.674.748m4.033 1.315A26.985 26.985 0 0 0 .75 6.835m18.701 8.158a5.567 5.567 0 0 0-.7-1.5l2.178-3.937A1.5 1.5 0 1 0 18.3 8.109l-2.692 4.866-1.361-.227v-6a1.5 1.5 0 1 0-3 0V15l-1.174-.587a1.638 1.638 0 0 0-1.755 2.744l3.789 3.093"/></svg>