<svg xmlns="http://www.w3.org/2000/svg" viewBox="0 0 24 24" width="24" height="24"><defs><style>.a{fill:none;stroke:#000;stroke-linecap:round;stroke-linejoin:round;stroke-width:1.5px}</style></defs><title>gesture-two-finger-flip-left</title><path class="a" d="M7.064 18.704l.313 4.231-4.231.313m4.234-.334a26.951 26.951 0 0 1-6.63-6.5M16.576 6.081L15.285 2.04 19.326.748m-4.039 1.313a26.944 26.944 0 0 1 7.963 4.774m-9.957.698l-2.181 3.942-1.361-.227v-6a1.5 1.5 0 0 0-3 0V13.5l-1.174-.587a1.638 1.638 0 0 0-1.755 2.744m10.429 3.091l.645-1.934A5.534 5.534 0 0 0 14.251 12L15.7 9.376"/></svg>