<svg xmlns="http://www.w3.org/2000/svg" viewBox="0 0 24 24" width="24" height="24"><defs><style>.a{fill:none;stroke:#000;stroke-linecap:round;stroke-linejoin:round;stroke-width:1.5px}</style></defs><title>gesture-tap-expand-all-direction</title><path class="a" d="M14.999 3.748l-3-3-3 3m6 16.5l-3 3-3-3m-5.25-11.25l-3 3 3 3m16.5-6l3 3-3 3m-10.5.75a2.25 2.25 0 0 1 0-4.5v-3a1.5 1.5 0 0 1 1.5-1.5 1.5 1.5 0 0 1 1.5 1.5V10.5l.727.182a3 3 0 0 1 2.272 2.911v2.157m1.501 3.55a9.085 9.085 0 0 0 2.041-2.05m0-10.502A9.106 9.106 0 0 0 17.249 4.7M4.709 17.248a9.06 9.06 0 0 0 2.04 2.05m0-14.598a9.081 9.081 0 0 0-2.04 2.05"/></svg>