<svg xmlns="http://www.w3.org/2000/svg" viewBox="0 0 24 24" width="24" height="24"><defs><style>.a{fill:none;stroke:#000;stroke-linecap:round;stroke-linejoin:round;stroke-width:1.5px}</style></defs><title>gesture-two-fingers-horizontal-zoom-in</title><path class="a" d="M17.247 23l.816-2.856a3 3 0 0 0-1.542-3.507l-.774-.387V12.5a1.5 1.5 0 1 0-3 0V11a1.5 1.5 0 1 0-3 0v6.75l-1.174-.587a1.638 1.638 0 0 0-1.755 2.744L10.607 23m2.14-10.502v4.5M4.498 1.248l-3.75 3.75 3.75 3.75m-3.75-3.75h22.5m-3.75-3.75l3.75 3.75-3.75 3.75"/></svg>