<svg xmlns="http://www.w3.org/2000/svg" viewBox="0 0 24 24" width="24" height="24"><defs><style>.a{fill:none;stroke:#000;stroke-linecap:round;stroke-linejoin:round;stroke-width:1.5px}</style></defs><title>gesture-tap-swipe-up-1</title><path class="a" d="M1.5 16.608l3.093-3.789a1.639 1.639 0 0 1 1.676-.566 1.638 1.638 0 0 1 1.068 2.321l-.587 1.174h6.75a1.5 1.5 0 0 1 1.5 1.5 1.5 1.5 0 0 1-1.5 1.5H9l-.332 1.994a3 3 0 0 1-2.96 2.506H1.5M16.498.748v7.5m3.75-3.75l-3.75-3.75-3.75 3.75m-.493 8.508a6 6 0 1 1 0 8.485"/></svg>