<svg xmlns="http://www.w3.org/2000/svg" viewBox="0 0 24 24" width="24" height="24"><defs><style>.a{fill:none;stroke:#000;stroke-linecap:round;stroke-linejoin:round;stroke-width:1.5px}</style></defs><title>gesture-two-finger-zoom-out</title><path class="a" d="M15.75 23.248l.645-1.934a5.534 5.534 0 0 0-.645-4.814l2.178-3.937a1.5 1.5 0 0 0-2.628-1.455l-2.692 4.867-1.361-.227v-6a1.5 1.5 0 1 0-3 0V18l-1.174-.587a1.638 1.638 0 0 0-1.755 2.744l3.792 3.091M19.459 6.612l3.79-1.907-1.906-3.79m1.882 3.8a26.985 26.985 0 0 0-8.976-2.342m-9.71 4.239L.749 4.705 2.655.915M.771 4.716a26.967 26.967 0 0 1 8.978-2.343"/></svg>