<svg xmlns="http://www.w3.org/2000/svg" viewBox="0 0 24 24" width="24" height="24"><defs><style>.a{fill:none;stroke:#000;stroke-linecap:round;stroke-linejoin:round;stroke-width:1.5px}</style></defs><title>gesture-two-finger-zoom-in</title><path class="a" d="M15.75 23.248l.645-1.934a5.534 5.534 0 0 0-.645-4.814l2.178-3.937a1.5 1.5 0 0 0-2.628-1.455l-2.692 4.867-1.361-.227v-6a1.5 1.5 0 1 0-3 0V18l-1.174-.587a1.638 1.638 0 0 0-1.755 2.744l3.792 3.091M6.562 6.711l2.644-3.318L5.889.748M9.2 3.407A35.977 35.977 0 0 0 .749 5.1m16.688 1.611l-2.645-3.318L18.11.748M14.8 3.407A35.978 35.978 0 0 1 23.249 5.1"/></svg>