<svg xmlns="http://www.w3.org/2000/svg" viewBox="0 0 24 24" width="24" height="24"><defs><style>.a{fill:none;stroke:#000;stroke-linecap:round;stroke-linejoin:round;stroke-width:1.5px}</style></defs><title>gesture-tap-two-fingers-clock</title><path class="a" d="M8.249 20.248h-1.5m-3 3V19.5a3.75 3.75 0 0 1 7.5 0v3.75m4.5-6.002h-1.5"/><path class="a" d="M11.249 23.248V16.5a3.75 3.75 0 1 1 7.5 0v6.75M7.5 11.248A6.75 6.75 0 0 0 .749 18m10.5-11.839a8.344 8.344 0 0 0-2.583 2.087"/><circle class="a" cx="18.749" cy="5.248" r="4.5"/><path class="a" d="M18.749 5.248v-1.5m3 14.444a7.891 7.891 0 0 0 1.151-6.944"/></svg>