<svg xmlns="http://www.w3.org/2000/svg" viewBox="0 0 24 24" width="24" height="24"><defs><style>.a{fill:none;stroke:#000;stroke-linecap:round;stroke-linejoin:round;stroke-width:1.5px}</style></defs><title>gesture-tap-horizontal-expand</title><path class="a" d="M1.5 12.109L4.594 8.32a1.633 1.633 0 0 1 1.675-.566 1.637 1.637 0 0 1 1.068 2.321l-.587 1.174h6.75a1.5 1.5 0 0 1 1.5 1.5 1.5 1.5 0 0 1-1.5 1.5H9l-.332 1.993a3 3 0 0 1-2.959 2.507H1.5M20.25 3.748l-3-3-3 3m6 16.501l-3 3-3-3.001"/><path class="a" d="M15 16.724a5.193 5.193 0 0 0 2.25.524 5.25 5.25 0 1 0-3.667-9"/></svg>