<svg xmlns="http://www.w3.org/2000/svg" viewBox="0 0 24 24" width="24" height="24"><defs><style>.a{fill:none;stroke:#000;stroke-linecap:round;stroke-linejoin:round;stroke-width:1.5px}</style></defs><title>gesture-tap-swipe-down-1</title><path class="a" d="M.75 6.108l3.094-3.789a1.637 1.637 0 0 1 1.675-.566 1.637 1.637 0 0 1 1.068 2.321L6 5.248h6.75a1.5 1.5 0 0 1 1.5 1.5 1.5 1.5 0 0 1-1.5 1.5h-4.5l-.332 1.994a3 3 0 0 1-2.959 2.506H.75m15 10.5v-7.5m3.75 3.75l-3.75 3.75-3.75-3.75m-.493-8.507a6 6 0 1 0 0-8.485"/></svg>