<svg xmlns="http://www.w3.org/2000/svg" viewBox="0 0 24 24" width="24" height="24"><g fill="none" stroke="#000" stroke-linecap="round" stroke-linejoin="round" stroke-miterlimit="10"><path d="M6.5 14.5v5a2 2 0 004 0v-5m-5 0h6m-3 0v4"/><path d="M10.5 19.5l2 .5c2 .5 2.249.499 2.968.499A4.501 4.501 0 0019.5 18l3.5-7-4.358 3.626a1.25 1.25 0 01-1.894-1.624l2.588-3.632a.5.5 0 00-.606-.791l-2.23.92V8.5a6.5 6.5 0 10-13 0v.999L1.284 8.59a.5.5 0 00-.684.709L3.5 13a6.494 6.494 0 003.002 5.479M10 9.5l3-2m-5 2l-3-2m6.5 1v2m-5-2v2"/></g><path fill="none" d="M0 0h24v24H0z"/></svg>