<svg xmlns="http://www.w3.org/2000/svg" viewBox="0 0 24 24" width="24" height="24"><defs><style>.a{fill:none;stroke:#000;stroke-linecap:round;stroke-linejoin:round;stroke-width:1.5px}</style></defs><title>gift-box</title><path class="a" d="M21.75 11.25H2.25v10.5a1.5 1.5 0 0 0 1.5 1.5h16.5a1.5 1.5 0 0 0 1.5-1.5zm0-4.5H2.25a1.5 1.5 0 0 0-1.5 1.5v2.25a.75.75 0 0 0 .75.75h21a.75.75 0 0 0 .75-.75V8.25a1.5 1.5 0 0 0-1.5-1.5zm-10.5 0c-3.314 0-6.75-2.686-6.75-6m0 0c3.314 0 6.75 2.686 6.75 6m1.5 0c3.314 0 6.75-2.686 6.75-6m0 0c-3.314 0-6.75 2.686-6.75 6"/><path class="a" d="M9.75 6.75h4.5v16.5h-4.5z"/></svg>