<svg xmlns="http://www.w3.org/2000/svg" viewBox="0 0 24 24" width="24" height="24"><g fill="none" stroke="#000" stroke-linejoin="round" stroke-miterlimit="10"><path d="M.5 14.5h4v8h-4z"/><path stroke-linecap="round" d="M4.5 21c10.729 3.577 6.771 3.613 19-2.5-1.062-1.062-1.902-1.313-3-1l-4.434 1.471"/><path stroke-linecap="round" d="M4.5 15.5h3c2.353 0 4 1.5 4.5 2h3c1.594 0 1.594 2 0 2H9.5m4-12h-3v6h10v-6h-4m-7-3h12v3h-12zm6 9v-9m2.844-1.414c-.879.879-2.828 1.414-2.828 1.414s.535-1.949 1.414-2.828 1.377-.744 1.768-.354.525.889-.354 1.768zm-5.688 0c.879.879 2.828 1.414 2.828 1.414s-.535-1.949-1.414-2.828-1.377-.744-1.768-.354-.525.889.354 1.768z"/></g><path fill="none" d="M0 0h24v24H0z"/></svg>