<svg id="Regular" xmlns="http://www.w3.org/2000/svg" viewBox="0 0 24 24" width="24" height="24"><defs><style>.cls-1{fill:none;stroke:#000;stroke-linecap:round;stroke-linejoin:round;stroke-width:1.5px}</style></defs><title>gingerbread-man</title><path class="cls-1" d="M20.973 9.768H15.64a5.251 5.251 0 1 0-7.333 0H2.973a2.25 2.25 0 1 0 0 4.5h4.276l-1.72 5.794a2.458 2.458 0 0 0 1.018 2.822 2.4 2.4 0 0 0 3.546-1.366l1.178-3.133a.75.75 0 0 1 1.4 0l1.178 3.133a2.4 2.4 0 0 0 3.551 1.366 2.46 2.46 0 0 0 1.018-2.822L16.7 14.268h4.275a2.25 2.25 0 0 0 0-4.5zm-17.25 0v4.5m16.5-4.5v4.5M5.654 19.641l4.646 1.327m7.993-1.327l-4.647 1.327"/><path class="cls-1" d="M11.973 13.893a.375.375 0 1 1-.375.375.375.375 0 0 1 .375-.375m0-3.786a.375.375 0 1 1-.375.375.375.375 0 0 1 .375-.375"/></svg>