<svg id="Regular" xmlns="http://www.w3.org/2000/svg" viewBox="0 0 24 24" width="24" height="24"><defs><style>.cls-1{fill:none;stroke:#000;stroke-linecap:round;stroke-linejoin:round;stroke-width:1.5px}</style></defs><title>giraffe</title><path class="cls-1" d="M19.054 7.035a2.922 2.922 0 0 0-1.8-1.531V2.25a1.5 1.5 0 0 0-3 0v1.5a1.5 1.5 0 0 1-1.5 1.5h-1.5a1.5 1.5 0 0 1-1.5-1.5v-1.5a1.5 1.5 0 0 0-3 0V5.5a2.925 2.925 0 0 0-1.8 1.531"/><path class="cls-1" d="M18.768 6.562A2.668 2.668 0 0 1 20.253 4.5a3.492 3.492 0 0 1 2.95 0s.8 5.25-3.7 5.25c-.105 4.5-2.282 4.635-3.746 10.038-.4 1.484-1.5 3.462-3.75 3.462s-3.348-1.978-3.75-3.462C6.79 14.385 4.612 14.253 4.507 9.75 0 9.753.8 4.5.8 4.5a3.492 3.492 0 0 1 2.95 0 2.668 2.668 0 0 1 1.488 2.062m3.39 3.188a.375.375 0 0 1 .372.375m-.747 0a.375.375 0 0 1 .375-.375m0 .75a.375.375 0 0 1-.375-.375m.747 0a.375.375 0 0 1-.375.375m6.753-.75a.375.375 0 0 1 .375.375m-.753 0a.375.375 0 0 1 .375-.375m.003.75a.375.375 0 0 1-.378-.375m.753 0a.375.375 0 0 1-.375.375m-1.875 9v-.75m-3 .75v-.75"/></svg>