<svg id="Regular" xmlns="http://www.w3.org/2000/svg" viewBox="0 0 24 24" width="24" height="24"><defs><style>.cls-1{fill:none;stroke:#000;stroke-linecap:round;stroke-linejoin:round;stroke-width:1.5px}</style></defs><title>giraffe-body</title><path class="cls-1" d="M2.8 23.25V21c0-3.728 2.346-7.238 6.75-9 3.75-1.5 5.949-3.75 6.7-6.75-2.25 0-2.25-3-2.25-3h5.25a3.637 3.637 0 0 1 3.4 2.25c.75 1.5 1.1 3.75-1.15 3.75h-2.25S16.3 12.75 16.3 21v2.25"/><path class="cls-1" d="M5.8 23.25V22a3.75 3.75 0 0 1 7.5 0v1.25M19.625 4.5a.375.375 0 0 1 .375.375m-.75 0a.375.375 0 0 1 .375-.375m0 .75a.375.375 0 0 1-.375-.375m.75 0a.375.375 0 0 1-.375.375m-6.324 8.25l.75 1.5m-3 0l-1.5.75m-4.443-.713L5.051 15a3.853 3.853 0 0 0-4.3 0M18.5 2.25V.75"/></svg>