<svg id="Regular" xmlns="http://www.w3.org/2000/svg" viewBox="0 0 24 24" width="24" height="24"><defs><style>.cls-1{fill:none;stroke:#000;stroke-linecap:round;stroke-linejoin:round;stroke-width:1.5px}</style></defs><title>giraffe-1</title><path class="cls-1" d="M1.5 23.25c3-8.25 6-18 9.75-18.75S22.5 9 22.5 12s-3 3-6.75 2.25l-2.421-.484A1.5 1.5 0 0 0 11.6 14.8L9 23.25m5.25-13.875a.375.375 0 0 1 .375.375m-.75 0a.375.375 0 0 1 .375-.375m0 .75a.375.375 0 0 1-.375-.375m.75 0a.375.375 0 0 1-.375.375"/><path class="cls-1" d="M6.713 9.738l.037.012a3.344 3.344 0 0 1 2.25 3C9 15 5.25 15 5.25 15h-.765m6.122 3.027L10.5 18s-3-.75-3.75 1.5 2.25 3 2.25 3l.214.054M9.509 5.5L4.5 3S2.9 7.794 7.952 7.486m5.526-2.878L14.25.75m1.413 4.616L18 2.25"/></svg>