<svg xmlns="http://www.w3.org/2000/svg" viewBox="0 0 24 24" width="24" height="24"><path fill="none" stroke="#000" stroke-linecap="round" stroke-linejoin="round" stroke-miterlimit="10" d="M17.5 23.5h-9l-2-17h13z"/><path fill="none" stroke="#000" stroke-linecap="round" stroke-linejoin="round" stroke-miterlimit="10" d="M10 21.5L8.25 3.113A2.89 2.89 0 005.375.5H3.5m3.5 10h12"/><path d="M12 3a.5.5 0 100 1 .5.5 0 000-1zm3 1a.5.5 0 100 1 .5.5 0 000-1zm1 9a.5.5 0 100 1 .5.5 0 000-1zm-3 2a.5.5 0 100 1 .5.5 0 000-1zm2 3a.5.5 0 100 1 .5.5 0 000-1zm-3 2a.5.5 0 100 1 .5.5 0 000-1zm-1-8a.5.5 0 100 1 .5.5 0 000-1zm6-10a.5.5 0 100 1 .5.5 0 000-1z"/><path fill="none" d="M0 0h24v24H0z"/></svg>