<svg id="Regular" xmlns="http://www.w3.org/2000/svg" viewBox="0 0 24 24" width="24" height="24"><defs><style>.cls-1{fill:none;stroke:#000;stroke-linecap:round;stroke-linejoin:round;stroke-width:1.5px}</style></defs><title>glasses-ski</title><path class="cls-1" d="M23.25 11.25a6 6 0 0 1-6 6h-1.782a1.9 1.9 0 0 1-1.652-.974L12.7 12.487a.749.749 0 0 0-1.4 0l-1.115 3.789a1.9 1.9 0 0 1-1.651.974H6.75a6 6 0 0 1-6-6v-1.5a3 3 0 0 1 3-3h16.5a3 3 0 0 1 3 3zM.75 9.75h22.5m-22.31 3h10.28m11.84 0H12.78"/></svg>