<svg xmlns="http://www.w3.org/2000/svg" viewBox="0 0 24 24" width="24" height="24"><g fill="none" stroke="#000" stroke-linejoin="round" stroke-miterlimit="10"><path d="M10.5 12.001c0 2.484-2.016 4.5-4.5 4.5-2.486 0-4-2.016-4-4.5 0-1.381 1.118-2.5 2.5-2.5H9c.827 0 1.5.672 1.5 1.5v1zm3 0a4.5 4.5 0 004.5 4.5c2.484 0 4-2.016 4-4.5a2.5 2.5 0 00-2.5-2.5H15a1.5 1.5 0 00-1.5 1.5v1z"/><path stroke-linecap="round" d="M.5 10.501a1 1 0 011-1m22 1c0-.551-.448-1-1-1"/><path d="M10.5 11.001v-1a1.5 1.5 0 013 0v1"/></g><path fill="none" d="M0 0h24v24H0z"/></svg>