<svg id="Regular" xmlns="http://www.w3.org/2000/svg" viewBox="0 0 24 24" width="24" height="24"><defs><style>.cls-1{fill:none;stroke:#000;stroke-linecap:round;stroke-linejoin:round;stroke-width:1.5px}</style></defs><title>glasses-sun-1</title><path class="cls-1" d="M10.5 11.625c0 2.485-1.265 3.75-3.75 3.75a4.5 4.5 0 0 1-4.5-4.5c0-2.485 2.015-3.75 4.5-3.75h3a.75.75 0 0 1 .75.75zm3 0c0 2.485 1.266 3.75 3.751 3.75a4.5 4.5 0 0 0 4.5-4.5c0-2.485-2.015-3.75-4.5-3.75h-3a.75.75 0 0 0-.75.75zm-3.75-4.5h4.5m-12 3.75H.75m22.5 0h-1.5m-11.25.75h3m-11.25 5.25l2.159-2.159m17.341 2.159l-2.159-2.159"/></svg>