<svg xmlns="http://www.w3.org/2000/svg" viewBox="0 0 24 24" width="24" height="24"><path fill="none" stroke="#000" stroke-linejoin="round" stroke-miterlimit="10" d="M1.407 9.884s.169 5.521 1.604 6.238c1.604.803 5.206.803 5.206.803 1.596 0 1.419-4.041 3.783-4.041s2.188 4.041 3.783 4.041c0 0 3.416 0 5.021-.803 1.435-.717 1.604-6.238 1.604-6.238-2.001-3.178-19.001-3.178-21.001 0z"/><path fill="none" stroke="#000" stroke-linecap="round" stroke-linejoin="round" stroke-miterlimit="10" d="M5.929 9.88c-1.013.229-1.77.559-2.043.992 0 0 .028.93.186 1.85M17.886 9.88c1.013.229 1.77.559 2.043.992 0 0-.029.93-.186 1.85"/><path fill="none" d="M0 0h24v24H0z"/></svg>