<svg xmlns="http://www.w3.org/2000/svg" viewBox="0 0 24 24" width="24" height="24"><path fill="none" stroke="#000" stroke-linejoin="round" stroke-miterlimit="10" d="M1.5 11.001s.169 5.52 1.604 6.237c1.604.802 5.206.802 5.206.802 1.596 0 1.419-4.039 3.783-4.039s2.188 4.039 3.783 4.039c0 0 3.416 0 5.021-.802 1.435-.718 1.604-6.237 1.604-6.237C20.5 7.823 3.5 7.823 1.5 11.001z"/><path fill="none" stroke="#000" stroke-linecap="round" stroke-linejoin="round" stroke-miterlimit="10" d="M2 10.501h20m-20.398 2h20.796m-9.068 2h8.796m-20.252 0h8.983m3.624 2h7.043m-19.049 0H9.7"/><path fill="none" d="M0 0h24v24H0z"/></svg>