<svg xmlns="http://www.w3.org/2000/svg" viewBox="0 0 24 24" width="24" height="24"><g fill="none" stroke="#000" stroke-linecap="round" stroke-linejoin="round" stroke-miterlimit="10"><circle cx="12" cy="12" r="11.5"/><path d="M20.5 4.255S20 7 18 8c-2-.5-4 1-3.5 1s1 2 1 2c.5.5 1.5 0 1.5 0 1.25 1.25-2 3.5-2 4s1.25.75.5 1.5-1.5 1-1.5 1c0 2.5-2.5 2.5-3 2.5s-1.5-2-1.5-2.5.5-1 .5-1.5-1-1.5-1-1.5c0-2-1.5-1.5-3-1.5s-1.5-2-1.5-2 0-3.5 2.5-4 2.5.5 2.5.5c1 1 3 0 4 0 0 0 .5-3.5-.5-3s-1.896.114-2-1C10.854 1.938 15.363 1 15.363 1"/></g><path fill="none" d="M0 0h24v24H0z"/></svg>