<svg id="Regular" xmlns="http://www.w3.org/2000/svg" viewBox="0 0 24 24" width="24" height="24"><defs><style>.cls-1{fill:none;stroke:#000;stroke-linecap:round;stroke-linejoin:round;stroke-width:1.5px}</style></defs><title>global-warming-globe-fire</title><path class="cls-1" d="M18.228 10.956a.375.375 0 0 0-.492.51 5.289 5.289 0 0 1-.156 4.834 1.811 1.811 0 0 1-1.932-1.545 4.1 4.1 0 0 0-2.125 3.864 4.637 4.637 0 0 0 4.636 4.636 4.7 4.7 0 0 0 4.641-4.641 7.56 7.56 0 0 0-4.572-7.658zM10.25 18.75a9 9 0 1 1 8.874-10.51"/><path class="cls-1" d="M10.25 18.75c-2.071 0-3.75-4.029-3.75-9s1.679-9 3.75-9S14 4.779 14 9.75a20.728 20.728 0 0 1-.213 3m-12.024-6h16.975m-16.975 6H14.75"/></svg>