<svg id="Regular" xmlns="http://www.w3.org/2000/svg" viewBox="0 0 24 24" width="24" height="24"><defs><style>.cls-1{fill:none;stroke:#000;stroke-linecap:round;stroke-linejoin:round;stroke-width:1.5px}</style></defs><title>global-warming-globe-fire-1</title><path class="cls-1" d="M18.174 10.956a.375.375 0 0 0-.492.51 5.286 5.286 0 0 1-.156 4.829 1.811 1.811 0 0 1-1.932-1.545 4.1 4.1 0 0 0-2.125 3.864 4.637 4.637 0 0 0 4.637 4.636 4.7 4.7 0 0 0 4.636-4.636 7.559 7.559 0 0 0-4.568-7.658zM4.534 2.754L9.923 4.8a1.5 1.5 0 0 1 .944 1.7l-.313 1.568A1.5 1.5 0 0 1 9.446 9.23l-2.079.52-1.154 2.885a3 3 0 0 1-1.121 1.382L3.113 15.3M16.605 3.431l-.977 1.314a3 3 0 0 0-.437 2.738l.255.767M10.2 18.75a9 9 0 1 1 8.87-10.51"/></svg>