<svg xmlns="http://www.w3.org/2000/svg" viewBox="0 0 24 24" width="24" height="24"><g fill="none" stroke="#000" stroke-linejoin="round" stroke-miterlimit="10"><path stroke-linecap="round" d="M20.6 15.048l3-3-3-3M9.05 20.599l3 3 3-3M3.5 9.048l-3 3 3 3M15.05 3.5l-3-3-3 3"/><path d="M18.497 11.976c0 3.604-2.918 6.524-6.518 6.524s-6.482-3.038-6.482-6.642c0-3.509 2.753-6.212 6.221-6.352a6.462 6.462 0 016.779 6.47zm-6.779-6.47c-3.392 3.673-3.392 8.467 0 12.989m.564-12.989c3.393 3.673 3.393 8.465 0 12.987M6.45 8.5h11.042m-11.985 3h12.972m-11.908 4h10.894"/></g><path fill="none" d="M0 0h24v24H0z"/></svg>