<svg xmlns="http://www.w3.org/2000/svg" viewBox="0 0 24 24" width="24" height="24"><g fill="none" stroke="#000" stroke-linejoin="round" stroke-miterlimit="10"><path d="M15.5 20.221V23.5h-10v-3.279M4.5 5L8 3.5 10.5 5 13 3.5 16.5 5"/><path stroke-linecap="round" d="M4.5 9L8 7.5 10.5 9 13 7.5 16.5 9"/><path d="M4.5 13L8 11.5l2.5 1.5 2.5-1.5 3.5 1.5 2.5-1.5 1 .5M4.5 17L8 15.5l2.5 1.5 2.5-1.5 3.5 1.5"/><path stroke-linecap="round" d="M4.5 18.459c0 1.104.896 2.041 2 2.041h8c1.098 0 1.99-.925 2-2.022l.008-2.081 4.08-5.315a2.026 2.026 0 00-.713-2.877c-.816-.464-1.857-.241-2.503.44L16.5 9.5V6c0-3.037-2.963-5.5-6-5.5s-6 2.463-6 5v12.959z"/></g><path fill="none" d="M0 0h24v24H0z"/></svg>