<svg id="Regular" xmlns="http://www.w3.org/2000/svg" viewBox="0 0 24 24" width="24" height="24"><defs><style>.cls-1{fill:none;stroke:#000;stroke-linecap:round;stroke-linejoin:round;stroke-width:1.5px}</style></defs><title>gmo-food-corn-dna</title><path class="cls-1" d="M11.315 15a11.891 11.891 0 0 0-2.09 6h.182a7.037 7.037 0 0 0 1.468-.153"/><path class="cls-1" d="M9.225 21a6.019 6.019 0 0 1-6-5.559l-.076-.99a7.252 7.252 0 0 0-1.566-3.969l-.374-.468a.374.374 0 0 1 .439-.577 14.064 14.064 0 0 1 8.111 8.727"/><path class="cls-1" d="M5.56 11.848l.673-7.736A3.68 3.68 0 0 1 9.9.75a3.681 3.681 0 0 1 3.667 3.362l.36 4.139m-.052 2.999v2.25a3.75 3.75 0 0 0 3.75 3.75h1.5a3.75 3.75 0 0 0 3.75-3.75v-2.25m0 12V21a3.75 3.75 0 0 0-3.75-3.75h-1.5a3.75 3.75 0 0 0-3.75 3.75v2.25m0-2.25h9m-9-7.5h9m-12-8.25h2.791m-7.793 3h3.502"/></svg>