<svg id="Regular" xmlns="http://www.w3.org/2000/svg" viewBox="0 0 24 24" width="24" height="24"><defs><style>.cls-1{fill:none;stroke:#000;stroke-linecap:round;stroke-linejoin:round;stroke-width:1.5px}</style></defs><title>gmo-food-apple</title><path class="cls-1" d="M14.821 17.146c-.763 2.8-2.467 5.013-4.217 5.242a1.007 1.007 0 0 1-.573-.115l-1.394-.7a1.074 1.074 0 0 0-.96 0l-1.395.7a1 1 0 0 1-.572.115c-1.989-.26-4.326-3.076-4.883-6.415-.471-2.826 1.195-7.441 5.389-5.573l2.111.75m6.438 2.662a2.25 2.25 0 1 1-3.182-3.182l4.773-4.773 3.182 3.182zm-3.182 0l-2.122 2.121m8.486-13.788l5.303 5.303m-3.712-3.712l-2.652 2.651m4.773-.53l-2.652 2.651M7.9 4.042a5.776 5.776 0 0 1 1.071 4.1 5.777 5.777 0 0 1-3.992-1.435 5.771 5.771 0 0 1-1.07-4.1A5.772 5.772 0 0 1 7.9 4.042z"/></svg>