<svg id="Regular" xmlns="http://www.w3.org/2000/svg" viewBox="0 0 24 24" width="24" height="24"><defs><style>.cls-1{fill:none;stroke:#000;stroke-linecap:round;stroke-linejoin:round;stroke-width:1.5px}</style></defs><title>gmo-food-chicken-leg</title><path class="cls-1" d="M11.25 16.5c0 3.728-2.35 6.75-5.25 6.75S.75 20.228.75 16.5 3.1 9.75 6 9.75"/><path class="cls-1" d="M8.25 16.5c0 2.071-1.007 3.75-2.25 3.75s-2.25-1.679-2.25-3.75S4.757 12.75 6 12.75m1.5-3.031A10.113 10.113 0 0 0 6 9.75m8.765 2.667a2.25 2.25 0 1 1-3.182-3.182l4.773-4.773 3.182 3.182zm-3.182 0l-2.121 2.122M17.947.75l5.303 5.303m-3.712-3.712l-2.652 2.652m4.773-.531l-2.651 2.652M6 23.25c4.123 0 8.741-1.043 11.6-3.577a3.352 3.352 0 0 0 .421-4.652L18 15m.336 3.75h4.914m-4.765-3h4.765"/></svg>