<svg id="Regular" xmlns="http://www.w3.org/2000/svg" viewBox="0 0 24 24" width="24" height="24"><defs><style>.cls-1{fill:none;stroke:#000;stroke-linecap:round;stroke-linejoin:round;stroke-width:1.5px}</style></defs><title>gmo-food-pear</title><path class="cls-1" d="M18.028 13.037a9.275 9.275 0 0 1-2.644-5.083l-.013-.091A3.2 3.2 0 0 0 12 5.222a3.2 3.2 0 0 0-3.37 2.641l-.013.091a9.275 9.275 0 0 1-2.644 5.083 7.493 7.493 0 0 0-2.223 4.977c0 3.944 4.275 5.328 8.25 5.231 3.975.1 8.25-1.287 8.25-5.231a7.493 7.493 0 0 0-2.222-4.977z"/><path class="cls-1" d="M8.25.764A3.75 3.75 0 0 1 12 4.514v.708m-3.292 9.042l5.834 5.834m-2.652-5.834l-3.182 3.182m5.834-.53l-3.182 3.182"/></svg>