<svg id="Regular" xmlns="http://www.w3.org/2000/svg" viewBox="0 0 24 24" width="24" height="24"><defs><style>.cls-1{fill:none;stroke:#000;stroke-linecap:round;stroke-linejoin:round;stroke-width:1.5px}</style></defs><title>gmo-food-apple-dna</title><path class="cls-1" d="M14.25.75V3A3.75 3.75 0 0 0 18 6.75h1.5A3.75 3.75 0 0 0 23.25 3V.75m0 12V10.5a3.75 3.75 0 0 0-3.75-3.75H18a3.75 3.75 0 0 0-3.75 3.75v2.25m0-2.25h9m-9-7.5h9m-12.115 7.949a5.422 5.422 0 0 0-.851.3L8.25 12l-2.034-.75C2.022 9.388.356 14 .827 16.829c.557 3.338 2.894 6.154 4.883 6.415a1.011 1.011 0 0 0 .572-.116l1.395-.7a1.074 1.074 0 0 1 .96 0l1.394.7a1.016 1.016 0 0 0 .573.116c2.05-.269 4.036-3.253 4.521-6.727M7.9 4.9A5.773 5.773 0 0 1 8.967 9a5.774 5.774 0 0 1-3.988-1.437 5.771 5.771 0 0 1-1.07-4.1A5.772 5.772 0 0 1 7.9 4.9z"/></svg>