<svg id="Regular" xmlns="http://www.w3.org/2000/svg" viewBox="0 0 24 24" width="24" height="24"><defs><style>.cls-1{fill:none;stroke:#000;stroke-linecap:round;stroke-linejoin:round;stroke-width:1.5px}</style></defs><title>gmo-food-leaf-dna</title><path class="cls-1" d="M11.25 19.133a8.926 8.926 0 0 1-7.806-1.577c-1.569-1.569-3.328-7.133 0-10.456C7.244 3.3 19.135-.032 20.086.919c.512.512-.218 4.2-1.595 8.086m-4.586-1.91L.75 20.25"/><path class="cls-1" d="M14.25 11.25v2.25A3.75 3.75 0 0 0 18 17.25h1.5a3.75 3.75 0 0 0 3.75-3.75v-2.25m0 12V21a3.75 3.75 0 0 0-3.75-3.75H18A3.75 3.75 0 0 0 14.25 21v2.25m0-2.25h9m-9-7.5h9"/></svg>