<svg id="Regular" xmlns="http://www.w3.org/2000/svg" viewBox="0 0 24 24" width="24" height="24"><defs><style>.cls-1{fill:none;stroke:#000;stroke-linecap:round;stroke-linejoin:round;stroke-width:1.5px}</style></defs><title>gmo-food-lab-bag</title><path class="cls-1" d="M20.25 3.75v16.5l.592.829A1.5 1.5 0 0 1 19.5 23.25h-15a1.5 1.5 0 0 1-1.342-2.171l.592-.829V3.75l-.592-.829A1.5 1.5 0 0 1 4.5.75h15a1.5 1.5 0 0 1 1.342 2.171zM15.75 9h-7.5"/><path class="cls-1" d="M14.25 9v9a2.25 2.25 0 0 1-4.5 0V9m3.375-3a.375.375 0 0 1 .375.375m-.75 0A.375.375 0 0 1 13.125 6m0 .75a.375.375 0 0 1-.375-.375m.75 0a.375.375 0 0 1-.375.375m-3.75-3a.375.375 0 0 1 .375.375m-.75 0a.375.375 0 0 1 .375-.375m0 .75A.375.375 0 0 1 9 4.125m.75 0a.375.375 0 0 1-.375.375m.375 8.25h4.5"/></svg>