<svg xmlns="http://www.w3.org/2000/svg" viewBox="0 0 24 24" width="24" height="24"><defs><style>.a{fill:none;stroke:#000;stroke-linecap:round;stroke-linejoin:round;stroke-width:1.5px}</style></defs><title>go-pro</title><rect class="a" x=".75" y=".75" width="22.5" height="15.75" rx="2" ry="2"/><rect class="a" x="3.75" y="3.75" width="4.5" height="3.75" rx=".5" ry=".5"/><path class="a" d="M11.25.75h10a2 2 0 0 1 2 2v10h-10a2 2 0 0 1-2-2v-10z"/><circle class="a" cx="17.25" cy="6.75" r="3"/><path class="a" d="M13.467 23.25H10.5l.033-6.75h2.934v6.75zm-5.217 0h7.5"/><circle class="a" cx="6" cy="12" r="1.5"/><path class="a" d="M10.514 20.25H5.25m0 2.25h-3A1.5 1.5 0 0 1 .75 21a1.5 1.5 0 0 1 1.5-1.5h3z"/></svg>