<svg xmlns="http://www.w3.org/2000/svg" viewBox="0 0 24 24" width="24" height="24"><defs><style>.a{fill:none;stroke:#000;stroke-linecap:round;stroke-linejoin:round;stroke-width:1.5px}</style></defs><title>gold-bars</title><path class="a" d="M8.945 13.5H3.481a1.533 1.533 0 0 0-1.516 1.217l-1.187 6A1.513 1.513 0 0 0 2.294 22.5h7.838a1.512 1.512 0 0 0 1.515-1.783l-1.187-6A1.532 1.532 0 0 0 8.945 13.5zm11.574 0h-5.464a1.532 1.532 0 0 0-1.515 1.217l-1.187 6a1.512 1.512 0 0 0 1.515 1.783h7.838a1.513 1.513 0 0 0 1.516-1.783l-1.187-6a1.533 1.533 0 0 0-1.516-1.217z"/><path class="a" d="M14.945 4.5H9.481a1.533 1.533 0 0 0-1.516 1.217l-1.187 6A1.513 1.513 0 0 0 8.294 13.5h7.838a1.512 1.512 0 0 0 1.515-1.783l-1.187-6A1.532 1.532 0 0 0 14.945 4.5zM20.25 3h3m-1.5-1.5v3m-21 2.25h3m-1.5-1.5v3"/></svg>