<svg xmlns="http://www.w3.org/2000/svg" viewBox="0 0 24 24" width="24" height="24"><g fill="none" stroke="#000" stroke-linecap="round" stroke-linejoin="round" stroke-miterlimit="10"><path d="M9.5 12.819a2 2 0 102-2 2 2 0 112-2m-2-3.319l.001 11"/><path d="M.939 14.916C3.154 17.067 7.051 18.5 11.5 18.5s8.346-1.433 10.561-3.584"/><path d="M17.522 17.543C20.615 12.326 15.525.5 11.5.5 7.479.5 2.384 12.325 5.478 17.543"/><path d="M4.55 12.449C2.079 13.271.5 14.625.5 16.5c0 4.5 4.925 7 11 7s11-2.5 11-7c0-1.875-1.579-3.229-4.05-4.051"/></g><path fill="none" d="M0 0h24v24H0z"/></svg>