<svg id="Regular" xmlns="http://www.w3.org/2000/svg" viewBox="0 0 24 24" width="24" height="24"><defs><style>.cls-1{fill:none;stroke:#000;stroke-linecap:round;stroke-linejoin:round;stroke-width:1.5px}</style></defs><title>golf-equipment</title><path class="cls-1" d="M6 9.75h12v11.5a2 2 0 0 1-2 2H8a2 2 0 0 1-2-2V9.75zm3.75-4.5v4.5m0-4.5h-3a1.5 1.5 0 0 1 0-3h3zm4.057-1l.974 5.5m-.974-5.5l2.954-.523a1.5 1.5 0 1 0-.523-2.954l-2.954.527zM6 12.75h12"/><path class="cls-1" d="M9.75 16.5h4.5v3h-4.5z"/></svg>