<svg id="Regular" xmlns="http://www.w3.org/2000/svg" viewBox="0 0 24 24" width="24" height="24"><defs><style>.cls-1{fill:none;stroke:#000;stroke-linecap:round;stroke-linejoin:round;stroke-width:1.5px}</style></defs><title>golf-cart</title><circle class="cls-1" cx="5.75" cy="18.75" r="2.25"/><circle class="cls-1" cx="18.5" cy="18.75" r="2.25"/><path class="cls-1" d="M8 18.75h8.25m2.25-7.5L14.75 6m.75 12.75v-4.5l3-3H20a3 3 0 0 1 3 3v3a1.5 1.5 0 0 1-1.5 1.5h-.75m-17.25 0h-.75a1.5 1.5 0 0 1-1.5-1.5v-3a3 3 0 0 1 3-3h3l1.5 3h1.5a1.5 1.5 0 0 1 1.5 1.5v3m-8.25-7.5V6M1.25 6h18V4.5a1.5 1.5 0 0 0-1.5-1.5h-15a1.5 1.5 0 0 0-1.5 1.5z"/></svg>