<svg xmlns="http://www.w3.org/2000/svg" viewBox="0 0 24 24" width="24" height="24"><g fill="none" stroke="#000" stroke-linejoin="round" stroke-miterlimit="10"><circle stroke-linecap="round" cx="12" cy="12" r="6.5"/><path stroke-linecap="round" d="M12 10.75a2.25 2.25 0 00-4.5 0v2.5a2.25 2.25 0 004.5 0m0 0a2.25 2.25 0 004.5 0v-2.5a2.25 2.25 0 00-4.5 0M9.5 11v1.5m4-1.5v1.5"/><circle stroke-linecap="round" cx="12" cy="12" r="8"/><path d="M9.5 4.5l2.5-4 2.5 4m-5 15l2.5 4 2.5-4m-10-10L.5 12l4 2.5m15-5l4 2.5-4 2.5M5 8L3.5 3.5 8 5m8 0l4.5-1.5L19 8M5 16l-1.5 4.5L8 19m8 0l4.5 1.5L19 16"/></g><path fill="none" d="M0 0h24v24H0z"/></svg>