<svg id="Regular" xmlns="http://www.w3.org/2000/svg" viewBox="0 0 24 24" width="24" height="24"><defs><style>.cls-1{fill:none;stroke:#000;stroke-linecap:round;stroke-linejoin:round;stroke-width:1.5px}</style></defs><title>gorilla</title><path class="cls-1" d="M18.6 8.668a3.691 3.691 0 0 0-2.516-2.515 3.743 3.743 0 0 0-3.227.53 1.475 1.475 0 0 1-1.712 0 3.743 3.743 0 0 0-3.227-.53A3.691 3.691 0 0 0 5.4 8.668a3.759 3.759 0 0 0 1.173 3.937 1.36 1.36 0 0 1 .2 1.722A6 6 0 1 0 18 17.25a5.881 5.881 0 0 0-.74-2.858 1.476 1.476 0 0 1 .228-1.84A3.763 3.763 0 0 0 18.6 8.668zM6.191 18.75h11.62"/><path class="cls-1" d="M11.25 15l.75.75.75-.75M9.375 9.75a.375.375 0 0 1 .375.375m-.75 0a.375.375 0 0 1 .375-.375m0 .75A.375.375 0 0 1 9 10.125m.75 0a.375.375 0 0 1-.375.375m5.25-.75a.375.375 0 0 1 .375.375m-.75 0a.375.375 0 0 1 .375-.375m0 .75a.375.375 0 0 1-.375-.375m.75 0a.375.375 0 0 1-.375.375"/><path class="cls-1" d="M20.022 23.25A12.463 12.463 0 0 0 23.25 15c0-7.5-6-14.25-11.25-14.25S.75 7.5.75 15a12.463 12.463 0 0 0 3.228 8.25"/></svg>