<svg xmlns="http://www.w3.org/2000/svg" viewBox="0 0 24 24" width="24" height="24"><g fill="none" stroke="#000" stroke-linecap="round" stroke-linejoin="round" stroke-miterlimit="10"><path d="M9.437 15.5l-6.34 1.755A4 4 0 00.5 21v2.5h23V21a3.999 3.999 0 00-2.596-3.745L14.547 15.5M9 9.502c0-.553.448-.5 1-.5s1-.053 1 .5m2 0c0-.553.448-.5 1-.5s1-.053 1 .5"/><path d="M7 6v2.5c-1.5 0-1.5 3 0 3 0 3 3.5 5 5 5M17 6v2.5c1.5 0 1.5 3 0 3 0 3-3.5 5-5 5m0-12l11.5-2L12 .5.5 2.5z"/><path d="M7 3.631V6s1.5 1.5 5 1.5S17 6 17 6V3.631M3 2.935V6.5m0 0l-1.5 7h3L3 6.5m3.75 9.75L12 21.5l5.259-5.259"/></g><path fill="none" d="M0 0h24v24H0z"/></svg>