<svg xmlns="http://www.w3.org/2000/svg" viewBox="0 0 24 24" width="24" height="24"><defs><style>.a{fill:none;stroke:#000;stroke-linecap:round;stroke-linejoin:round;stroke-width:1.5px}</style></defs><title>graphic-tablet-pen</title><path class="a" d="M23.25 9.75v12a1.5 1.5 0 0 1-1.5 1.5H2.25a1.5 1.5 0 0 1-1.5-1.5V7.5A1.5 1.5 0 0 1 2.25 6h9"/><path class="a" d="M20.25 12v7.5a.75.75 0 0 1-.75.75h-15a.75.75 0 0 1-.75-.75V9.75A.75.75 0 0 1 4.5 9h5.25"/><path class="a" d="M22.47 4.149l-6.51 8.561-3.612 1.258.228-3.817 6.51-8.562a2.116 2.116 0 0 1 2.963-.411l.01.008a2.116 2.116 0 0 1 .411 2.963zM7.5 16.5H3.75m3.75-3.75H3.75m3.75 7.5V9"/></svg>