<svg xmlns="http://www.w3.org/2000/svg" viewBox="0 0 24 24" width="24" height="24"><defs><style>.a{fill:none;stroke:#000;stroke-linecap:round;stroke-linejoin:round;stroke-width:1.5px}</style></defs><title>grid-dot</title><rect class="a" x="1.5" y="1.5" width="21" height="21" rx="1" ry="1"/><path class="a" d="M6 11.625a.375.375 0 1 1-.375.375.375.375 0 0 1 .375-.375m6 0a.375.375 0 1 1-.375.375.375.375 0 0 1 .375-.375m6 0a.375.375 0 1 1-.375.375.375.375 0 0 1 .375-.375m-9 3a.375.375 0 1 1-.375.375.375.375 0 0 1 .375-.375m6 0a.375.375 0 1 1-.375.375.375.375 0 0 1 .375-.375m-9 3a.375.375 0 1 1-.375.375.375.375 0 0 1 .375-.375m6 0a.375.375 0 1 1-.375.375.375.375 0 0 1 .375-.375m6 0a.375.375 0 1 1-.375.375.375.375 0 0 1 .375-.375"/></svg>