<svg xmlns="http://www.w3.org/2000/svg" viewBox="0 0 24 24" width="24" height="24"><defs><style>.a{fill:none;stroke:#000;stroke-linecap:round;stroke-linejoin:round;stroke-width:1.5px}</style></defs><title>grid-ruler-1</title><rect class="a" x="-.562" y="10.312" width="22.5" height="6" rx="1.5" ry="1.5" transform="rotate(-45 10.689 13.312)"/><path class="a" d="M15.9 3.994L8.486 1.279a.749.749 0 0 0-.788.174L6.445 2.705a.752.752 0 0 0 0 1.061l4.773 4.773m8.79-.439l2.713 7.412a.749.749 0 0 1-.174.788L21.3 17.555a.752.752 0 0 1-1.061 0l-4.773-4.773m-5.608 5.602l-1.746-1.746m5.496-2.004l-1.746-1.746m5.496-2.004l-1.746-1.746"/></svg>