<svg xmlns="http://www.w3.org/2000/svg" viewBox="0 0 24 24" width="24" height="24"><defs><style>.a{fill:none;stroke:#000;stroke-linecap:round;stroke-linejoin:round;stroke-width:1.5px}</style></defs><title>grid-ruler</title><path class="a" d="M15.879 23.25H2.25a1.5 1.5 0 0 1-1.5-1.5V2.25a1.5 1.5 0 0 1 1.5-1.5h19.5a1.5 1.5 0 0 1 1.5 1.5v13.629a1.5 1.5 0 0 1-.439 1.06l-5.872 5.872a1.5 1.5 0 0 1-1.06.439zM.75 6.75h22.5m-16.5-6v22.5"/><path class="a" d="M15.75 23.25v-6a1.5 1.5 0 0 1 1.5-1.5h6m-12-9V4.5m6 2.25V4.5M6.75 17.25H4.5m2.25-6H4.5"/></svg>