<svg xmlns="http://www.w3.org/2000/svg" viewBox="0 0 24 24" width="24" height="24"><g fill="none" stroke="#000" stroke-linecap="round" stroke-linejoin="round" stroke-miterlimit="10"><circle cx="10.417" cy="13.222" r="2"/><path d="M3.346 17.465l2.828 2.828M20.639.5l-4 4 .5.5-4 4c-2.832-1.971-6.16-.551-6.5 2.5-6.162-1.322-8.04 5.46-4 9.5 4.061 4.062 10.815 2.13 9.5-4 3.038-.339 4.482-3.651 2.5-6.5l4-4 .5.5 4-4-2.5-2.5zm-2 0l1 1m-2.5.5l1 1m5 2l-1-1m-.5 2.5l-1-1"/></g><path fill="none" d="M0 0h24v24H0z"/></svg>