<svg xmlns="http://www.w3.org/2000/svg" viewBox="0 0 24 24" width="24" height="24"><defs><style>.a{fill:none;stroke:#000;stroke-linecap:round;stroke-linejoin:round;stroke-width:1.5px}</style></defs><title>gun-silent</title><path class="a" d="M11.951 6.161l-8.98 5.412a2.994 2.994 0 0 0-1.02 4.111l1.933 3.208a2.831 2.831 0 0 1 3.226 1.659l1.144 2.7 3.848-2.319-1.961-4.257a1.5 1.5 0 0 1 .587-1.91l4.7-2.83z"/><path class="a" d="M10.851 18.2l1.916-1.167a1.5 1.5 0 0 0 .659-1.722l-.562-1.834m1.66-8.859L20.942.753l2.318 3.851-6.418 3.864zm-2.187 2.185l2.566-1.546 1.546 2.566-2.566 1.546zm1.546 2.565L2.337 16.326m.071-4.317l-1.493-.946"/></svg>