<svg xmlns="http://www.w3.org/2000/svg" viewBox="0 0 24 24" width="24" height="24"><g fill="none" stroke="#000" stroke-linecap="round" stroke-linejoin="round" stroke-miterlimit="10"><path d="M11.808 9.692l-8.486 8.486M2.615 13.229l1.414-1.415 1.414 1.414-1.414 1.415z"/><path d="M3.322 15.349a2 2 0 000 2.829l1.414 1.415s2.218-1.869 3.183-.354l2.121 4.243 2.828-2.828-2.475-5.304 3.535-3.536-3.535-3.535-7.071 7.07z"/><path d="M12.515 13.228l1.414 2.829-1.768 1.767M11.808 6.864L18.173.5l2.828 2.828-6.365 6.364zM11.1 8.986l1.414-1.415 1.415 1.414-1.414 1.415z"/></g><path fill="none" d="M0 0h24v24H0z"/></svg>