<svg id="Regular" xmlns="http://www.w3.org/2000/svg" viewBox="0 0 24 24" width="24" height="24"><defs><style>.cls-1{fill:none;stroke:#000;stroke-linecap:round;stroke-linejoin:round;stroke-width:1.5px}</style></defs><title>gymnastics-jump</title><path class="cls-1" d="M22.25 11.25H1.75m21 6H1.25m9.25-3h3m-3-6h3m-3 12h3m9.745 1.376a1.5 1.5 0 0 1-1.5 1.624H2.25a1.5 1.5 0 0 1-1.495-1.624l1.38-15A1.5 1.5 0 0 1 3.63 5.25h16.74a1.5 1.5 0 0 1 1.495 1.376z"/><path class="cls-1" d="M3 5.387C2.853 2.839 6.939.75 12 .75s9.147 2.089 9 4.637"/></svg>