<svg id="Regular" xmlns="http://www.w3.org/2000/svg" viewBox="0 0 24 24" width="24" height="24"><defs><style>.cls-1{fill:none;stroke:#000;stroke-linecap:round;stroke-linejoin:round;stroke-width:1.5px}</style></defs><title>gymnastics-ribbon-person-2</title><circle class="cls-1" cx="17.625" cy="3.375" r="2.625"/><path class="cls-1" d="M2.25 4.5A1.5 1.5 0 0 1 3.75 6v3a1.5 1.5 0 0 0 1.5 1.5h1.819l5.636-3.521a1.5 1.5 0 0 1 2.081.5l1.376 2.293a1.509 1.509 0 0 0 1.287.729h2.8a1.5 1.5 0 0 1 0 3h-2.8a4.527 4.527 0 0 1-3.86-2.184L13 10.332l-4 2.5V21a1.5 1.5 0 0 1-3 0v-7.5h-.75A4.505 4.505 0 0 1 .75 9V6a1.5 1.5 0 0 1 1.5-1.5zm9.789 9.772a6 6 0 1 0 11.033 1.522"/></svg>