<svg id="Regular" xmlns="http://www.w3.org/2000/svg" viewBox="0 0 24 24" width="24" height="24"><defs><style>.cls-1{fill:none;stroke:#000;stroke-linecap:round;stroke-linejoin:round;stroke-width:1.5px}</style></defs><title>gymnastics-weightlifting</title><circle class="cls-1" cx="12" cy="3.375" r="2.625"/><path class="cls-1" d="M12 18.75v3m0 0a1.5 1.5 0 0 1-3 0v-4.5M9 12v1.5a1.5 1.5 0 0 1-3 0V12a4.5 4.5 0 0 1 4.5-4.5h3A4.5 4.5 0 0 1 18 12v1.5a1.5 1.5 0 0 1-3 0V12m-3 9.75a1.5 1.5 0 0 0 3 0v-4.5m-14.25 6V12m22.5 11.25V12M.75 14.25h5.451m2.598 0h6.402m2.598 0h5.451"/></svg>