<svg id="Regular" xmlns="http://www.w3.org/2000/svg" viewBox="0 0 24 24" width="24" height="24"><defs><style>.cls-1{fill:none;stroke:#000;stroke-linecap:round;stroke-linejoin:round;stroke-width:1.5px}</style></defs><title>hair-dress-cut</title><path class="cls-1" d="M23.25 21.75a1.5 1.5 0 0 1-3 0v-21a3 3 0 0 1 3 3zM15 .75h5.25m-5.25 15h5.25M15 3.75h2.25m-2.25 3h2.25m-2.25 3h2.25m-2.25 3h2.25"/><circle class="cls-1" cx="3" cy="19.5" r="2.25"/><circle class="cls-1" cx="10.5" cy="19.5" r="2.25"/><path class="cls-1" d="M12.75 23.25a2.251 2.251 0 0 1-2.123-1.5M5.25 19.5v-8.25L6.75.75l1.5 10.5v8.25m-3-5.25l3-1.5"/></svg>