<svg id="Regular" xmlns="http://www.w3.org/2000/svg" viewBox="0 0 24 24" width="24" height="24"><defs><style>.cls-1{fill:none;stroke:#000;stroke-linecap:round;stroke-linejoin:round;stroke-width:1.5px}</style></defs><title>hair-skin-1</title><path class="cls-1" d="M1.525 21.358a.374.374 0 0 1 .375.375m-.75 0a.374.374 0 0 1 .375-.375m0 .75a.375.375 0 0 1-.375-.375m.75 0a.375.375 0 0 1-.375.375m3-4.5a.374.374 0 0 1 .375.375m-.75 0a.374.374 0 0 1 .375-.375m0 .75a.375.375 0 0 1-.375-.375m.75 0a.375.375 0 0 1-.375.375m3.75 3a.374.374 0 0 1 .375.375m-.75 0a.374.374 0 0 1 .375-.375m0 .75a.375.375 0 0 1-.375-.375m.75 0a.375.375 0 0 1-.375.375m14.25-.75a.374.374 0 0 0-.375.375m.75 0a.374.374 0 0 0-.375-.375m0 .75a.375.375 0 0 0 .375-.375m-.75 0a.375.375 0 0 0 .375.375m-3-4.5a.374.374 0 0 0-.375.375m.75 0a.374.374 0 0 0-.375-.375m0 .75a.375.375 0 0 0 .375-.375m-.75 0a.375.375 0 0 0 .375.375m-3.75 3a.374.374 0 0 0-.375.375m.75 0a.374.374 0 0 0-.375-.375m0 .75a.375.375 0 0 0 .375-.375m-.75 0a.375.375 0 0 0 .375.375m7.45-11.625h-1.45a3.75 3.75 0 0 1-7.5 0h-4.5a3.75 3.75 0 0 1-7.5 0h-1.5m11.25 7.125a.374.374 0 0 1 .375.375m-.75 0a.374.374 0 0 1 .375-.375m0 .75a.375.375 0 0 1-.375-.375m.75 0a.375.375 0 0 1-.375.375m-6-7.125s-.75-6.75 1.5-9.75m10.5 9.75s-.75-6.75 1.5-9.75"/></svg>