<svg id="Regular" xmlns="http://www.w3.org/2000/svg" viewBox="0 0 24 24" width="24" height="24"><defs><style>.cls-1{fill:none;stroke:#000;stroke-linecap:round;stroke-linejoin:round;stroke-width:1.5px}</style></defs><title>hair-dress-comb-1</title><path class="cls-1" d="M18.069 11.251a1.906 1.906 0 0 1 .184-2.851l3.7-2.851a2.678 2.678 0 0 0 .592-3.883 2.594 2.594 0 0 0-4.084.175l-2.946 3.814a1.905 1.905 0 0 1-2.857.185 3.061 3.061 0 0 0-4.33 0L5.621 8.546l9.743 9.743 2.707-2.706a3.063 3.063 0 0 0 0-4.33zM5.621 8.546L.75 13.418m8.119-1.624l-4.871 4.871m8.119-1.624l-4.872 4.872m8.119-1.624l-4.871 4.871"/></svg>