<svg id="Regular" xmlns="http://www.w3.org/2000/svg" viewBox="0 0 24 24" width="24" height="24"><defs><style>.cls-1{fill:none;stroke:#000;stroke-linecap:round;stroke-linejoin:round;stroke-width:1.5px}</style></defs><title>hair-dress-chair-1</title><path class="cls-1" d="M4.5 23.25H2.25a1.5 1.5 0 0 1-1.5-1.5V2.25a1.5 1.5 0 0 1 1.5-1.5h19.5a1.5 1.5 0 0 1 1.5 1.5v19.5a1.5 1.5 0 0 1-1.5 1.5H19.5"/><path class="cls-1" d="M11 8.25h2a2 2 0 0 1 2 2v7H9v-7a2 2 0 0 1 2-2zm-4.25 9h10.5v2.5a.5.5 0 0 1-.5.5h-9.5a.5.5 0 0 1-.5-.5v-2.5zm5.25 3v3m5.25-6a1.5 1.5 0 0 0 1.5-1.5v-1.5m-12 3a1.5 1.5 0 0 1-1.5-1.5v-1.5m4.5 9h4.5"/></svg>