<svg id="Regular" xmlns="http://www.w3.org/2000/svg" viewBox="0 0 24 24" width="24" height="24"><defs><style>.cls-1{fill:none;stroke:#000;stroke-linecap:round;stroke-linejoin:round;stroke-width:1.5px}</style></defs><title>halloween-figure</title><path class="cls-1" d="M21.293 3.172A2.439 2.439 0 0 0 18.837.75H5.163a2.439 2.439 0 0 0-2.456 2.422 2.391 2.391 0 0 0 .775 4.233 2.457 2.457 0 0 0 2.648-.882 2.448 2.448 0 0 0 3.913 0 2.449 2.449 0 0 0 3.914 0 2.448 2.448 0 0 0 3.913 0 2.457 2.457 0 0 0 2.648.882 2.391 2.391 0 0 0 .775-4.233z"/><path class="cls-1" d="M20.25 7.464v8.179a3.766 3.766 0 0 1-3.667 3.857H7.417a3.766 3.766 0 0 1-3.667-3.857V7.464M7.5 23.25V19.5h9v3.75m-9-1.5H3.75"/><circle class="cls-1" cx="9" cy="11.25" r="1.5"/><circle class="cls-1" cx="15" cy="11.25" r="1.5"/><path class="cls-1" d="M10.5 16.5l.986-.6a.952.952 0 0 1 1.028 0l.986.6m6.75-4.5h3m0-1.5v3M3.75 12h-3m0-1.5v3m3 7.5v1.5m12.75-.75h3.75m0-.75v1.5"/></svg>