<svg id="Regular" xmlns="http://www.w3.org/2000/svg" viewBox="0 0 24 24" width="24" height="24"><defs><style>.cls-1{fill:none;stroke:#000;stroke-linecap:round;stroke-linejoin:round;stroke-width:1.5px}</style></defs><title>halloween-calendar-tree</title><path class="cls-1" d="M3.75 23.25H3a1.5 1.5 0 0 1-1.5-1.5V5.25A1.5 1.5 0 0 1 3 3.75h18a1.5 1.5 0 0 1 1.5 1.5v16.5a1.5 1.5 0 0 1-1.5 1.5h-.75M1.5 9.75h21M7.5 6V.75m9 5.25V.75"/><path class="cls-1" d="M12 12l-3.75 4.5h2.25l-3 3.75h9l-3-3.75h2.25L12 12zm0 8.25v3"/></svg>