<svg id="Regular" xmlns="http://www.w3.org/2000/svg" viewBox="0 0 24 24" width="24" height="24"><defs><style>.cls-1{fill:none;stroke:#000;stroke-linecap:round;stroke-linejoin:round;stroke-width:1.5px}</style></defs><title>halloween-voodoo-doll</title><path class="cls-1" d="M21.471 15.788l-3.823-3.823a4.891 4.891 0 1 0-4.113-4.113L9.712 4.029A1.467 1.467 0 0 0 7.637 6.1l2.075 2.079a1.467 1.467 0 0 1 0 2.075l-5.534 5.534a1.467 1.467 0 0 0 2.075 2.075l2.421-2.421a.979.979 0 0 1 1.384 1.384l-2.421 2.421a1.467 1.467 0 1 0 2.075 2.075l5.534-5.534a1.467 1.467 0 0 1 2.075 0l2.079 2.075a1.467 1.467 0 0 0 2.075-2.075z"/><circle class="cls-1" cx="3" cy="7.599" r="2.25"/><path class="cls-1" d="M12 12.458L4.839 8.895m12.036-3.546a.375.375 0 0 1 .375.375m-.75 0a.375.375 0 0 1 .375-.375m0 .751a.375.375 0 0 1-.375-.375m.75-.001a.375.375 0 0 1-.375.375m3 1.501a.375.375 0 0 1 .375.375m-.75-.001a.375.375 0 0 1 .375-.375m0 .75a.375.375 0 0 1-.375-.375m.75 0a.375.375 0 0 1-.375.375"/></svg>