<svg id="Regular" xmlns="http://www.w3.org/2000/svg" viewBox="0 0 24 24" width="24" height="24"><defs><style>.cls-1{fill:none;stroke:#000;stroke-linecap:round;stroke-linejoin:round;stroke-width:1.5px}</style></defs><title>halloween-pumpkin</title><path class="cls-1" d="M14.9 5.888c.247.018.607.047.856.086a8.745 8.745 0 0 1 7.461 9.347 8.836 8.836 0 0 1-8.888 7.929H9.673a8.836 8.836 0 0 1-8.888-7.929A8.749 8.749 0 0 1 8.4 5.951c.2-.027.507-.048.7-.063"/><path class="cls-1" d="M17.25 17.25l-1.513 1.4a.587.587 0 0 1-.8-.025l-.868-.932a.585.585 0 0 0-.823 0l-.836.9a.585.585 0 0 1-.824 0l-.836-.9a.585.585 0 0 0-.823 0l-.868.932a.587.587 0 0 1-.8.025l-1.509-1.4M4.5 13.534a2.154 2.154 0 0 1 2.25-2.045A2.154 2.154 0 0 1 9 13.534m10.5 0a2.154 2.154 0 0 0-2.25-2.045A2.155 2.155 0 0 0 15 13.534m-3-8.693V.75m4.614 7.5A5.1 5.1 0 0 0 12 4.841 5.1 5.1 0 0 0 7.386 8.25"/></svg>