<svg id="Regular" xmlns="http://www.w3.org/2000/svg" viewBox="0 0 24 24" width="24" height="24"><defs><style>.cls-1{fill:none;stroke:#000;stroke-linecap:round;stroke-linejoin:round;stroke-width:1.5px}</style></defs><title>halloween-figure-1</title><path class="cls-1" d="M22.2 1.125a1.073 1.073 0 0 0-.8-.375H2.605a1.073 1.073 0 0 0-.807.375 1.235 1.235 0 0 0-.3.887l1.076 15.174a1 1 0 0 0 .4.72l1.912 1.468a.994.994 0 0 1 .4.761l.059 2.118a1.068 1.068 0 0 0 1.1 1h11.109a1.068 1.068 0 0 0 1.105-1l.059-2.118a.994.994 0 0 1 .4-.761l2.282-1.749 1.1-15.613a1.235 1.235 0 0 0-.3-.887z"/><circle class="cls-1" cx="8.25" cy="14.286" r="1.5"/><circle class="cls-1" cx="15" cy="14.25" r="1.5"/><path class="cls-1" d="M8.25 18.75H15M1.5 2.25l2.649 2.761a1.211 1.211 0 0 0 1.441 0l1.932-1.467a1.211 1.211 0 0 1 1.441 0L10.9 5.011a1.211 1.211 0 0 0 1.44 0l1.935-1.469a1.211 1.211 0 0 1 1.439 0l1.941 1.47a1.211 1.211 0 0 0 1.439 0l3.356-3.441M1.996 9h20.013M6 8.25v1.5m6-1.5v1.5m6-1.5v1.5M5.285 20.25H1.5m0-1.098v2.049m17.215-.951H22.5m0-1.098v2.049"/></svg>