<svg id="Regular" xmlns="http://www.w3.org/2000/svg" viewBox="0 0 24 24" width="24" height="24"><defs><style>.cls-1{fill:none;stroke:#000;stroke-linecap:round;stroke-linejoin:round;stroke-width:1.5px}</style></defs><title>halloween-grim-reaper</title><path class="cls-1" d="M18.375 15.75l3 7.5M12.772.75l4.557 12M13.466 2.579A6.931 6.931 0 0 1 20.509 1.3l.189.072a.49.49 0 0 1-.047.93c-3.422.922-3.72 1.41-5.795 3.931m5.019 8.017a1.5 1.5 0 0 0-1.5-1.5h-5.25V9.917a4.608 4.608 0 0 0-3.609-4.581A4.5 4.5 0 0 0 4.125 9.75v6a16.062 16.062 0 0 1-.618 4.413l-.853 1.768a.749.749 0 0 0 1 .9l2.355-.785a.748.748 0 0 1 .694.072l1.506 1a.75.75 0 0 0 .832 0l1.506-1a.748.748 0 0 1 .694-.072l2.355.785a.749.749 0 0 0 1-.9l-.853-1.768a16.062 16.062 0 0 1-.618-4.413h5.25a1.5 1.5 0 0 0 1.5-1.5z"/><circle class="cls-1" cx="8.625" cy="10.5" r="2.25"/></svg>