<svg id="Regular" xmlns="http://www.w3.org/2000/svg" viewBox="0 0 24 24" width="24" height="24"><defs><style>.cls-1{fill:none;stroke:#000;stroke-linecap:round;stroke-linejoin:round;stroke-width:1.5px}</style></defs><title>halloween-spider</title><path class="cls-1" d="M7.757 18.249a5.823 5.823 0 0 1-2.507-4.7C5.25 10.207 8.272 7.5 12 7.5s6.75 2.707 6.75 6.046a5.819 5.819 0 0 1-2.507 4.7"/><ellipse class="cls-1" cx="12" cy="19.5" rx="4.5" ry="3.75"/><path class="cls-1" d="M12 7.5V.75m-5.981 15.6l-.517.131a2.751 2.751 0 0 0-1.7 1.612l-.119.256m1.577-5.128l-.3-.087a2 2 0 0 0-2.112.8l-.694.842m4.171-4.505l-.866-.75a1.876 1.876 0 0 0-2.674.08L1.5 10.819m16.482 5.531l.516.131a2.751 2.751 0 0 1 1.7 1.612l.119.256m-1.576-5.129l.3-.086a2 2 0 0 1 2.112.8l.694.842m-4.172-4.505l.866-.75a1.876 1.876 0 0 1 2.674.08l1.285 1.218M10.164 18.75a.369.369 0 0 1 .362.375m-.726 0a.369.369 0 0 1 .362-.375m.002.75a.369.369 0 0 1-.362-.375m.724 0a.369.369 0 0 1-.362.375m3.672-.75a.37.37 0 0 1 .363.375m-.725 0a.369.369 0 0 1 .362-.375m0 .75a.369.369 0 0 1-.362-.375m.726 0a.37.37 0 0 1-.363.375"/></svg>