<svg id="Regular" xmlns="http://www.w3.org/2000/svg" viewBox="0 0 24 24" width="24" height="24"><defs><style>.cls-1{fill:none;stroke:#000;stroke-linecap:round;stroke-linejoin:round;stroke-width:1.5px}</style></defs><title>halloween-calendar-ghost</title><path class="cls-1" d="M10.125 16.485a.375.375 0 0 1 .375.375m-.75 0a.375.375 0 0 1 .375-.375m0 .75a.375.375 0 0 1-.375-.375m.75 0a.375.375 0 0 1-.375.375m3.75-.75a.375.375 0 0 1 .375.375m-.75 0a.375.375 0 0 1 .375-.375m0 .75a.375.375 0 0 1-.375-.375m.75 0a.375.375 0 0 1-.375.375"/><path class="cls-1" d="M3.75 23.25H3a1.5 1.5 0 0 1-1.5-1.5V5.25A1.5 1.5 0 0 1 3 3.75h18a1.5 1.5 0 0 1 1.5 1.5v16.5a1.5 1.5 0 0 1-1.5 1.5h-.75M1.5 9.75h21M7.5 6V.75m9 5.25V.75"/><path class="cls-1" d="M16.5 21.864a.75.75 0 0 1-1.28.53l-.44-.439a.749.749 0 0 0-1.06 0l-1.19.969a.749.749 0 0 1-1.06 0l-1.19-.969a.749.749 0 0 0-1.06 0l-.44.439a.75.75 0 0 1-1.28-.53v-4.629a4.5 4.5 0 0 1 4.5-4.5 4.5 4.5 0 0 1 4.5 4.5z"/></svg>