<svg id="Regular" xmlns="http://www.w3.org/2000/svg" viewBox="0 0 24 24" width="24" height="24"><defs><style>.cls-1{fill:none;stroke:#000;stroke-linecap:round;stroke-linejoin:round;stroke-width:1.5px}</style></defs><title>halloween-calendar-skull</title><path class="cls-1" d="M6 23.25H3a1.5 1.5 0 0 1-1.5-1.5V5.25A1.5 1.5 0 0 1 3 3.75h18a1.5 1.5 0 0 1 1.5 1.5v16.5a1.5 1.5 0 0 1-1.5 1.5h-3M1.5 9.75h21M7.5 6V.75m9 5.25V.75m-2.625 16.5a.375.375 0 0 1 .375.375m-.75 0a.375.375 0 0 1 .375-.375m0 .75a.375.375 0 0 1-.375-.375m.75 0a.375.375 0 0 1-.375.375m-3.75-.75a.375.375 0 0 1 .375.375m-.75 0a.375.375 0 0 1 .375-.375m0 .75a.375.375 0 0 1-.375-.375m.75 0a.375.375 0 0 1-.375.375M12 21.75v1.5"/><path class="cls-1" d="M15 23.25v-2.129a4.483 4.483 0 0 0-2.25-8.371h-1.5A4.483 4.483 0 0 0 9 21.121v2.129"/></svg>