<svg id="Regular" xmlns="http://www.w3.org/2000/svg" viewBox="0 0 24 24" width="24" height="24"><defs><style>.cls-1{fill:none;stroke:#000;stroke-linecap:round;stroke-linejoin:round;stroke-width:1.5px}</style></defs><title>halloween-broom</title><path class="cls-1" d="M22.806 15.755a1.153 1.153 0 0 1 .268 1.495l-1.929 3.906-3.906 1.929a1.153 1.153 0 0 1-1.5-.268L12.7 18.146a3.869 3.869 0 0 1 .286-5.153 3.869 3.869 0 0 1 5.152-.285zM10.489 10.5L.761.75"/><path class="cls-1" d="M12.04 14.529L10.489 13a1.768 1.768 0 0 1 0-2.5 1.768 1.768 0 0 1 2.5 0l1.562 1.54m5.088 9.86l-3.15-3.15m5.684.325L18.739 16.5m-2.978-9.75h4.5m-2.25-2.25V9m-9-6.75h3m-1.5-1.5v3M.761 12h3m-1.5-1.5v3m5.25 8.25h3m-1.5-1.5v3m-1.669-6.978a.375.375 0 0 1 .375.375m-.75 0a.375.375 0 0 1 .375-.375m0 .75a.375.375 0 0 1-.375-.375m.75 0a.375.375 0 0 1-.375.375M2.94 20.185a.375.375 0 0 1 .375.375m-.75 0a.375.375 0 0 1 .375-.375m0 .75a.375.375 0 0 1-.375-.375m.75 0a.375.375 0 0 1-.375.375M21.038 1.5a.375.375 0 0 1 .375.375m-.75 0a.375.375 0 0 1 .375-.375m0 .75a.375.375 0 0 1-.375-.375m.75 0a.375.375 0 0 1-.375.375"/></svg>