<svg xmlns="http://www.w3.org/2000/svg" viewBox="0 0 24 24" width="24" height="24"><path fill="none" stroke="#000" stroke-linejoin="round" stroke-miterlimit="10" d="M22.5 12.5h-21V11A6.5 6.5 0 018 4.5h8a6.5 6.5 0 016.5 6.5v1.5zm1 2.5a1.5 1.5 0 01-1.5 1.5H2A1.5 1.5 0 01.5 15v-1A1.5 1.5 0 012 12.5h20a1.5 1.5 0 011.5 1.5v1zm-1 2.5a2 2 0 01-2 2h-17a2 2 0 01-2-2v-1h21v1z"/><path d="M7.5 7a.5.5 0 100 1 .5.5 0 000-1zm2-1a.5.5 0 100 1 .5.5 0 000-1zm5 0a.5.5 0 100 1 .5.5 0 000-1zM12 7a.5.5 0 100 1 .5.5 0 000-1zm4.542 0a.5.5 0 100 1 .5.5 0 000-1z"/><path fill="none" d="M0 0h24v24H0z"/></svg>