<svg xmlns="http://www.w3.org/2000/svg" viewBox="0 0 24 24" width="24" height="24"><defs><style>.a{fill:none;stroke:#000;stroke-linecap:round;stroke-linejoin:round;stroke-width:1.5px}</style></defs><title>hammer-1</title><path class="a" d="M1.409 21.592a2.249 2.249 0 0 1 0-3.182l4.7-4.7a.752.752 0 0 1 1.061 0l2.121 2.122a.75.75 0 0 1 0 1.061l-4.7 4.7a2.251 2.251 0 0 1-3.182-.001zM14.325 2.333l5.834 5.834-4.243 4.243-5.833-5.834a1.5 1.5 0 0 1 0-2.121L12.2 2.333a1.5 1.5 0 0 1 2.125 0z"/><rect class="a" x="14.864" y="9.739" width="9" height="3.75" rx="1.5" ry="1.5" transform="rotate(-44.992 19.364 11.615)"/><path class="a" d="M13.265 9.758l-5.131 4.909"/></svg>