<svg xmlns="http://www.w3.org/2000/svg" viewBox="0 0 24 24" width="24" height="24"><defs><style>.a{fill:none;stroke:#000;stroke-linecap:round;stroke-linejoin:round;stroke-width:1.5px}</style></defs><title>hammer-wench</title><path class="a" d="M8.307 10.422L7.259 9.378A4.543 4.543 0 0 1 1.193 3.33l1.425 1.421a1.514 1.514 0 1 0 2.144-2.138l-1.424-1.42A4.542 4.542 0 0 1 9.4 7.24l.97.967m4.949 4.929l1.422 1.418a4.543 4.543 0 0 1 6.066 6.046l-1.425-1.42a1.514 1.514 0 0 0-2.144 2.138l1.424 1.42a4.542 4.542 0 0 1-6.062-6.046l-1.422-1.418M1.445 22.6a2.233 2.233 0 0 1 0-3.167l4.695-4.686a.75.75 0 0 1 1.059 0l2.118 2.111a.746.746 0 0 1 0 1.056L4.621 22.6a2.251 2.251 0 0 1-3.176 0zM16.586 1.188l6.221 6.2a1.489 1.489 0 0 1 0 2.111l-2.117 2.113a1.5 1.5 0 0 1-2.118 0l-6.221-6.2a1.489 1.489 0 0 1 0-2.111l2.117-2.111a1.5 1.5 0 0 1 2.118-.002zm-1.059 7.389l-7.369 7.126"/></svg>