<svg xmlns="http://www.w3.org/2000/svg" viewBox="0 0 24 24" width="24" height="24"><path fill="none" stroke="#000" stroke-linecap="round" stroke-linejoin="round" stroke-miterlimit="10" d="M7.5 17.5h-5a2 2 0 01-2-2v-13a2 2 0 012-2h19a2 2 0 012 2v9"/><path fill="none" stroke="#000" stroke-linecap="round" stroke-linejoin="round" stroke-miterlimit="10" d="M7.5 15.5h-3v-13h16v9"/><path d="M22 8.5a.5.5 0 10.002 1.002A.5.5 0 0022 8.5z"/><path fill="none" stroke="#000" stroke-linejoin="round" stroke-miterlimit="10" d="M17.5 13.309V7.97c0-.535-.218-.97-.75-.97h-1.448c-.532 0-.802.435-.802.97v9.221l-1.72-2.058c-.183-.233-.501-.368-.797-.368l-.999.019a.975.975 0 00-.861 1.437l3.736 6.775c.17.312.49.505.844.505h6.386a.966.966 0 00.892-.6l1.52-6.681c0-.426-.185-.845-.59-.97L17.5 13.309zM3 9a.5.5 0 01-.5.5h0A.5.5 0 012 9h0a.5.5 0 01.5-.5h0A.5.5 0 013 9h0z"/><path fill="none" d="M0 0h24v24H0z"/></svg>