<svg xmlns="http://www.w3.org/2000/svg" viewBox="0 0 24 24" width="24" height="24"><path fill="none" stroke="#000" stroke-linejoin="round" stroke-miterlimit="10" d="M7.926 11.366a.686.686 0 01.444.864l-3.151 9.82a1.375 1.375 0 01-1.729.889l-1.964-.63a1.375 1.375 0 01-.889-1.729l3.151-9.819a.686.686 0 01.864-.444l3.274 1.049zm7.147 0a.686.686 0 00-.444.864l3.151 9.819a1.375 1.375 0 001.729.889l1.964-.63a1.375 1.375 0 00.889-1.729L19.21 10.76a.686.686 0 00-.864-.444l-3.273 1.05z"/><circle fill="none" stroke="#000" stroke-linejoin="round" stroke-miterlimit="10" cx="11.5" cy="5.003" r="2"/><path fill="none" stroke="#000" stroke-linejoin="round" stroke-miterlimit="10" d="M17.673 10.532L16 5.003a4.5 4.5 0 00-4.5-4.5h0a4.5 4.5 0 00-4.5 4.5l-1.673 5.529"/><path fill="none" stroke="#000" stroke-linejoin="round" stroke-miterlimit="10" d="M7.375 11.188l1.02-2.928a4.501 4.501 0 006.209 0l1.021 2.93"/><path fill="none" d="M0 0h24v24H0z"/></svg>