<svg xmlns="http://www.w3.org/2000/svg" viewBox="0 0 24 24" width="24" height="24"><path fill="none" stroke="#000" stroke-linecap="round" stroke-linejoin="round" stroke-miterlimit="10" d="M22 23.482l-2.5-3.5v-4.559c0-1.694-2.081-2.539-4-4.176m1.5 6.235l-2.75-2.75a1.061 1.061 0 00-1.5 1.5l2.75 3.25v1.539c0 .961 1.5 2.479 1.5 2.479"/><path fill="none" stroke="#000" stroke-linecap="round" stroke-linejoin="round" stroke-miterlimit="10" d="M12.5 21.482H7c-.824 0-1.5-.675-1.5-1.5v-11c0-.825.676-1.5 1.5-1.5h7c.825 0 1.5.675 1.5 1.5v4.998"/><path d="M8.5 9.982a.5.5 0 10.002 1.002.5.5 0 00-.002-1.002zm2 0a.5.5 0 10.002 1.002.5.5 0 00-.002-1.002zm2 0a.5.5 0 10.002 1.002.5.5 0 00-.002-1.002zm-4 2a.5.5 0 10.002 1.002.5.5 0 00-.002-1.002zm0 2a.5.5 0 10.002 1.002.5.5 0 00-.002-1.002zm0 2a.5.5 0 10.002 1.002.5.5 0 00-.002-1.002zm0 2a.5.5 0 10.002 1.002.5.5 0 00-.002-1.002zm2-6a.5.5 0 10.002 1.002.5.5 0 00-.002-1.002zm0 2a.5.5 0 10.002 1.002.5.5 0 00-.002-1.002zm0 2a.5.5 0 10.002 1.002.5.5 0 00-.002-1.002zm0 2a.5.5 0 10.002 1.002.5.5 0 00-.002-1.002zm2-6a.5.5 0 10.002 1.002.5.5 0 00-.002-1.002z"/><path fill="none" stroke="#000" stroke-linecap="round" stroke-linejoin="round" stroke-miterlimit="10" d="M15.276 1.91A8.463 8.463 0 0010.562.481 8.456 8.456 0 005.847 1.91m8.32 1.664c-1.031-.689-2.271-1.093-3.604-1.093s-2.574.404-3.606 1.093m6.102 1.664a4.475 4.475 0 00-2.496-.757 4.47 4.47 0 00-2.496.757"/><path fill="none" d="M0 0h24v24H0z"/></svg>