<svg xmlns="http://www.w3.org/2000/svg" viewBox="0 0 24 24" width="24" height="24"><g fill="none" stroke="#000" stroke-linejoin="round" stroke-miterlimit="10"><path d="M7.5 10.5h-4l-.992 3.994A5 5 0 1010.5 18.5c0-1.75-.82-3.04-2-3.955l-1-4.045z"/><circle cx="5.5" cy="18.5" r="2.5"/><path d="M20.5 10.5h-4l-.992 3.994A5 5 0 1023.5 18.5c0-1.75-.82-3.04-2-3.955l-1-4.045z"/><circle cx="18.5" cy="18.5" r="2.5"/><path d="M5.5 10.5V8a6.501 6.501 0 0113 0v2.5M7.5 10.5h-4l-.992 3.994A5 5 0 1010.5 18.5c0-1.75-.82-3.04-2-3.955l-1-4.045z"/><circle cx="5.5" cy="18.5" r="2.5"/><path d="M20.5 10.5h-4l-.992 3.994A5 5 0 1023.5 18.5c0-1.75-.82-3.04-2-3.955l-1-4.045z"/><circle cx="18.5" cy="18.5" r="2.5"/><path d="M5.5 10.5V8a6.501 6.501 0 0113 0v2.5"/></g><path fill="none" d="M0 0h24v24H0z"/></svg>