<svg xmlns="http://www.w3.org/2000/svg" viewBox="0 0 24 24" width="24" height="24"><defs><style>.a{fill:none;stroke:#000;stroke-linecap:round;stroke-linejoin:round;stroke-width:1.5px}</style></defs><title>hand-give-lock</title><rect class="a" x="14.25" y="5.25" width="9" height="7.5" rx="1.5" ry="1.5"/><path class="a" d="M18.75.75a3 3 0 0 0-3 3v1.5h6v-1.5a3 3 0 0 0-3-3zm0 7.904a.375.375 0 1 1-.375.375.375.375 0 0 1 .375-.375m-18 5.596v9m0-1.5h16.5a3 3 0 0 0-3-3H10.5a3 3 0 0 0-3-3H.75m6 3h3.75"/></svg>