<svg xmlns="http://www.w3.org/2000/svg" viewBox="0 0 24 24" width="24" height="24"><g fill="none" stroke="#000" stroke-linecap="round" stroke-linejoin="round" stroke-miterlimit="10"><path d="M19.5 11.021v6.5c0 2.763-2.238 5-5 5h-3.335A5.007 5.007 0 016.942 20.2c-1.722-2.71-3.859-7.179-3.859-7.179a1.2 1.2 0 011.761-1.602L7.5 14.521v-10a1.5 1.5 0 013 0v6"/><path d="M10.5 8.521v-6a1.5 1.5 0 013 0v6m0 2v-6a1.5 1.5 0 013 0v6m0 1.5v-4.5a1.5 1.5 0 013 0v6"/><circle cx="13" cy="16.521" r="1"/><path d="M18 16.521s-1.5 3-5 3-5-3-5-3 1.5-3 5-3 5 3 5 3z"/></g><path fill="none" d="M0 0h24v24H0z"/></svg>