<svg xmlns="http://www.w3.org/2000/svg" viewBox="0 0 24 24" width="24" height="24"><path fill="none" stroke="#000" stroke-linejoin="round" stroke-miterlimit="10" d="M17 21.487H2a1.512 1.512 0 01-1.5-1.505v-18c0-.825.676-1.5 1.5-1.5h13c.825 0 1.5.675 1.5 1.5v13.521"/><path fill="none" stroke="#000" stroke-linecap="round" stroke-linejoin="round" stroke-miterlimit="10" d="M14.938 17.482H2.5v-15h12V13.92m9 9.562l-3-4v-4.559c0-1.694-2.081-3.305-4-4.941"/><path fill="none" stroke="#000" stroke-linecap="round" stroke-linejoin="round" stroke-miterlimit="10" d="M17.5 16.482l-2.25-2.25c-.414-.414-1.086-.414-1.5 0s-.25 1.25 0 1.5l2.75 3.25v1c0 1 2 3.5 2 3.5"/><path fill="none" stroke="#000" stroke-linejoin="round" stroke-miterlimit="10" d="M6.031 19.482h3.938"/><path d="M4.5 18.982a.5.5 0 10.002 1.002.5.5 0 00-.002-1.002zm7 0a.5.5 0 10.002 1.002.5.5 0 00-.002-1.002z"/><path fill="none" stroke="#000" stroke-linejoin="round" stroke-miterlimit="10" d="M5 13.482h7m-7-2h7m-7-2h7m-7-2h7m-7-2h4"/><path fill="none" d="M0 0h24v24H0z"/></svg>