<svg xmlns="http://www.w3.org/2000/svg" viewBox="0 0 24 24" width="24" height="24"><g fill="none" stroke="#000" stroke-linejoin="round" stroke-miterlimit="10"><path stroke-linecap="round" d="M11.5 3V.5m-3.15 14c.562 1.179 1.757 2 3.15 2s2.588-.821 3.15-2h-6.3z"/><path d="M14.5 7.087V6a3 3 0 00-6 0v1.087a7.999 7.999 0 00-5 7.413h16a7.998 7.998 0 00-5-7.413z"/><path stroke-linecap="round" d="M11.5 20v1.5m3.5-2.438l.75 1.299m1.812-3.861l1.299.75M8 19.062l-.75 1.299M5.438 16.5l-1.299.75"/></g><path fill="none" d="M0 0h24v24H0z"/></svg>