<svg xmlns="http://www.w3.org/2000/svg" viewBox="0 0 24 24" width="24" height="24"><g fill="none" stroke="#000" stroke-linejoin="round" stroke-miterlimit="10"><path d="M17.03 19c0 6.062-11 6.124-11 0 0-3.589 5.5-7.5 5.5-7.5s5.5 3.911 5.5 7.5zM11.5 4V0"/><path stroke-linecap="round" d="M13.893 8.396c.332.44.246 1.066-.194 1.402l-3.188 2.413a1.002 1.002 0 01-1.402-.193 1.002 1.002 0 01.193-1.401l3.19-2.414a.999.999 0 011.401.193zm0-2.51a1.003 1.003 0 01-.194 1.402L10.51 9.702a1.002 1.002 0 01-1.209-1.595l3.19-2.413a1 1 0 011.402.192z"/><path stroke-linecap="round" d="M13.893 3.396c.332.44.246 1.066-.194 1.402L10.51 7.211a1 1 0 11-1.209-1.594l3.19-2.414a1 1 0 011.402.193z"/></g><path fill="none" d="M0 0h24v24H0z"/></svg>