<svg xmlns="http://www.w3.org/2000/svg" viewBox="0 0 24 24" width="24" height="24"><defs><style>.a{fill:none;stroke:#000;stroke-linecap:round;stroke-linejoin:round;stroke-width:1.5px}</style></defs><title>hard-drive</title><path class="a" d="M18.375 17.625a.375.375 0 1 0 .375.375.375.375 0 0 0-.375-.375m-3.375 0a.375.375 0 1 0 .375.375.375.375 0 0 0-.375-.375"/><path class="a" d="M23.25 18a4.5 4.5 0 0 1-4.5 4.5H5.25a4.5 4.5 0 0 1 0-9h13.5a4.5 4.5 0 0 1 4.5 4.5z"/><path class="a" d="M23.131 16.973L20.043 3.815a3 3 0 0 0-2.92-2.315H6.878a3 3 0 0 0-2.921 2.315L.869 16.973M5.25 18H9"/></svg>