<svg xmlns="http://www.w3.org/2000/svg" viewBox="0 0 24 24" width="24" height="24"><defs><style>.a{fill:none;stroke:#000;stroke-linecap:round;stroke-linejoin:round;stroke-width:1.5px}</style></defs><title>hardware-nuts-1</title><path class="a" d="M11.645 14.25H5.75a1.5 1.5 0 0 1-1.25-.668L1 8.332a1.5 1.5 0 0 1 0-1.664l3.5-5.25A1.5 1.5 0 0 1 5.75.75h5.9a1.5 1.5 0 0 1 1.248.668l3.5 5.25a1.5 1.5 0 0 1 0 1.664l-3.5 5.25a1.5 1.5 0 0 1-1.253.668z"/><circle class="a" cx="8.697" cy="7.5" r="2.25"/><path class="a" d="M7.228 17.771A8.251 8.251 0 1 0 19.5 8.083m-7.223 9.494a3.749 3.749 0 0 0 5.862-4.628"/></svg>