<svg xmlns="http://www.w3.org/2000/svg" viewBox="0 0 24 24" width="24" height="24"><defs><style>.a{fill:none;stroke:#000;stroke-linecap:round;stroke-linejoin:round;stroke-width:1.5px}</style></defs><title>hard-drive-1</title><path class="a" d="M23.25 11.25H.75v6a1.5 1.5 0 0 0 1.5 1.5h19.5a1.5 1.5 0 0 0 1.5-1.5zm-21 7.5v1.5m19.5-1.5v1.5M18 3.75H6l-5.25 7.5h22.5L18 3.75zM3.75 15h3m8.25-.375"/><path class="a" d="M15 14.625a.375.375 0 1 0 .375.375.375.375 0 0 0-.375-.375m4.5 0a.375.375 0 1 0 .375.375.375.375 0 0 0-.375-.375"/></svg>