<svg xmlns="http://www.w3.org/2000/svg" viewBox="0 0 24 24" width="24" height="24"><defs><style>.a{fill:none;stroke:#000;stroke-linecap:round;stroke-linejoin:round;stroke-width:1.5px}</style></defs><title>hardware-drill-carbide</title><path class="a" d="M7.5 23.25H3a.75.75 0 0 1-.75-.75v-18l3-3.75 3 3.75v18a.75.75 0 0 1-.75.75zm7.5 0h-3a.75.75 0 0 1-.75-.75V6.75l2.25-3 2.25 3V22.5a.75.75 0 0 1-.75.75zm6 0h-1.5a.75.75 0 0 1-.75-.75V9l1.5-2.25L21.75 9v13.5a.75.75 0 0 1-.75.75zM8.25 6l-6 6m6-.75l-6 6m13.5-9l-4.5 4.5m4.5.75l-4.5 4.5m10.5-7.5l-3 3m3 2.25l-3 3"/></svg>