<svg xmlns="http://www.w3.org/2000/svg" viewBox="0 0 24 24" width="24" height="24"><defs><style>.a{fill:none;stroke:#000;stroke-linecap:round;stroke-linejoin:round;stroke-width:1.5px}</style></defs><title>hardware-hammer-nail-hit</title><path class="a" d="M1.5 9.75H12m0-3H1.5m16.277-4.596L19.5 6.75v6a1.5 1.5 0 0 1-1.5 1.5h-4.5a1.5 1.5 0 0 1-1.5-1.5v-6l1.723-4.6A2.166 2.166 0 0 1 15.75.75a2.166 2.166 0 0 1 2.027 1.404zM13.5 18.75H18m-2.25 0v4.5m5.25-6l1.5-1.5m-1.5 4.5l1.5 1.5m-12-4.5L9 15.75m1.5 4.5L9 21.75"/></svg>