<svg xmlns="http://www.w3.org/2000/svg" viewBox="0 0 24 24" width="24" height="24"><defs><style>.a{fill:none;stroke:#000;stroke-linecap:round;stroke-linejoin:round;stroke-width:1.5px}</style></defs><title>hardware-wench-screw</title><path class="a" d="M.75 19.371l2.95-2.952a6 6 0 0 0 8.613-2.919H7.5a2.25 2.25 0 0 1 0-4.5h4.813a6 6 0 1 0-10.732 5.3l-.831.831M17.25.75a1.5 1.5 0 0 0 0 3h4.5a1.5 1.5 0 0 0 0-3zm3.75 9h-3a.75.75 0 0 1-.75-.75V3.75h4.5V9a.75.75 0 0 1-.75.75zm-5.25-3h7.5m-4.744 6.709a1.5 1.5 0 0 0-1.428 2.641l3.958 2.141a1.5 1.5 0 0 0 1.428-2.641z"/><path class="a" d="M17.521 23.16l-2.638-1.428a.75.75 0 0 1-.3-1.017l2.5-4.617 3.958 2.141-2.5 4.618a.751.751 0 0 1-1.02.303zm-3.19-5.138l6.597 3.57"/></svg>