<svg xmlns="http://www.w3.org/2000/svg" viewBox="0 0 24 24" width="24" height="24"><defs><style>.a{fill:none;stroke:#000;stroke-linecap:round;stroke-linejoin:round;stroke-width:1.5px}</style></defs><title>harddrive-upload-2</title><path class="a" d="M14.999 3.751l-3-3-3 3m3-3v9.75m-3 8.25h-3.75m13.5 4.5h-13.5a4.5 4.5 0 0 1-4.5-4.5 4.5 4.5 0 0 1 4.5-4.5h13.5a4.5 4.5 0 0 1 4.5 4.5 4.5 4.5 0 0 1-4.5 4.5z"/><path class="a" d="M15.374 18.376a.375.375 0 1 0 .375.375.375.375 0 0 0-.375-.375m3.75 0a.375.375 0 1 0 .375.375.375.375 0 0 0-.375-.375"/></svg>