<svg xmlns="http://www.w3.org/2000/svg" viewBox="0 0 24 24" width="24" height="24"><defs><style>.a{fill:none;stroke:#000;stroke-linecap:round;stroke-linejoin:round;stroke-width:1.5px}</style></defs><title>harddrive-upload</title><path class="a" d="M20.25 17.25a3 3 0 0 1 0 6H3.75a3 3 0 0 1 0-6z"/><path class="a" d="M7.5 6.751H6.144a3 3 0 0 0-2.925 2.333L.825 19.583m22.35 0l-2.394-10.5a3 3 0 0 0-2.925-2.333H16.5m2.625 13.125a.375.375 0 1 0 .375.375.375.375 0 0 0-.375-.375m-9.375.375H4.5M15 3.75l-3-3-3 3m3-3v12"/></svg>