<svg id="Regular" xmlns="http://www.w3.org/2000/svg" viewBox="0 0 24 24" width="24" height="24"><defs><style>.cls-1{fill:none;stroke:#000;stroke-linecap:round;stroke-linejoin:round;stroke-width:1.5px}</style></defs><title>hat-lady-1</title><path class="cls-1" d="M21.751 15.125a3.462 3.462 0 0 1 1.5 2.62c0 2.9-5.037 5.25-11.25 5.25S.75 20.645.75 17.745a3.462 3.462 0 0 1 1.5-2.62m16.5-1.88v4.5"/><path class="cls-1" d="M5.25 17.745v-7.5A6.751 6.751 0 0 1 9 4.2m13.65 1.545c0 .82-1.9 1.138-2.281 1.8-.395.683.265 2.482-.418 2.877-.662.383-1.881-1.077-2.7-1.077s-2.039 1.46-2.7 1.077c-.683-.4-.023-2.194-.418-2.877-.383-.662-2.281-.98-2.281-1.8s1.9-1.137 2.281-1.8c.395-.683-.265-2.482.418-2.877.662-.383 1.881 1.076 2.7 1.076s2.039-1.459 2.7-1.076c.683.4.023 2.194.418 2.877.383.663 2.281.981 2.281 1.8z"/><path class="cls-1" d="M18.75 14c0 1.657-3.022 3-6.75 3s-6.75-1.343-6.75-3"/></svg>