<svg id="Regular" xmlns="http://www.w3.org/2000/svg" viewBox="0 0 24 24" width="24" height="24"><defs><style>.cls-1{fill:none;stroke:#000;stroke-linecap:round;stroke-linejoin:round;stroke-width:1.5px}</style></defs><title>hat-architect</title><path class="cls-1" d="M18.752 12.3c2.732.958 4.5 2.483 4.5 4.2 0 2.9-5.037 5.25-11.25 5.25S.75 19.4.75 16.5c0-1.717 1.767-3.242 4.5-4.2m9 4.058V5.634m-4.5 0v10.724"/><path class="cls-1" d="M18.75 12a6.75 6.75 0 0 0-13.5 0v3S7.5 16.5 12 16.5s6.75-1.5 6.75-1.5zm-2.89 9.433A12.449 12.449 0 0 1 19 17.677a12.621 12.621 0 0 1 4.012-2.253"/><path class="cls-1" d="M9.75 5.634V4.5a2.25 2.25 0 0 1 4.5 0v1.134"/></svg>