<svg xmlns="http://www.w3.org/2000/svg" viewBox="0 0 24 24" width="24" height="24"><g fill="none" stroke="#000" stroke-linejoin="round" stroke-miterlimit="10"><path d="M12.5 11.501h-10v-3a8 8 0 018-8h4a4 4 0 014 4v1.167"/><path d="M12.5 10.001a4.5 4.5 0 019 0v1.5a2 2 0 01-2 2h-7v-3.5zm-10 1.5v3.5c0 .828.672 1.5 1.5 1.5s1.5.672 1.5 1.5v2a3.5 3.5 0 107 0v-8.5h-10zm11.496 10.503c.318.08.655.122 1.004.122 1.934 0 3.5-1.692 3.5-3.625v-5"/><path d="M6.5 11.501h4v2a2 2 0 01-4 0v-2z"/></g><path fill="none" d="M0 0h24v24H0z"/></svg>