<svg id="Regular" xmlns="http://www.w3.org/2000/svg" viewBox="0 0 24 24" width="24" height="24"><defs><style>.cls-1{fill:none;stroke:#000;stroke-linecap:round;stroke-linejoin:round;stroke-width:1.5px}</style></defs><title>hat-lady</title><path class="cls-1" d="M19.741 7.611a.821.821 0 0 0-1.131.311L16.725 11.3a1.642 1.642 0 0 1 1.444 2.243l3.855-.316a.821.821 0 0 0 .751-.9 6.174 6.174 0 0 0-3.034-4.715zM10.5 13.556a.823.823 0 0 1 .751-.9l3.855-.316a1.644 1.644 0 0 0 1.444 2.244l-1.885 3.378a.821.821 0 0 1-1.13.31 6.171 6.171 0 0 1-3.035-4.716z"/><path class="cls-1" d="M18.022 12.051a1.644 1.644 0 1 1-2.272-.492 1.645 1.645 0 0 1 2.272.492zM3.073 14.839A29.611 29.611 0 0 0 11.6 16.5"/><path class="cls-1" d="M19.352 7.5A8.251 8.251 0 0 0 3.75 11.25v1.691a3 3 0 0 1-.959 2.2l-1.458 1.352a2.031 2.031 0 0 1-.069.062 1.5 1.5 0 0 0 .417 2.517A26.235 26.235 0 0 0 12 21a26.251 26.251 0 0 0 10.321-1.928 1.5 1.5 0 0 0 .416-2.517 2.031 2.031 0 0 1-.069-.062L21.21 15.14a3 3 0 0 1-.929-1.77M3.75 11.313a29.66 29.66 0 0 0 7.239 1.41"/></svg>