<svg xmlns="http://www.w3.org/2000/svg" viewBox="0 0 24 24" width="24" height="24"><g fill="none" stroke="#000" stroke-linejoin="round" stroke-miterlimit="10"><path d="M2.277 20.979c7.071 2.828 11.667.354 16.264-4.242L6.52 4.716C1.924 9.312-.551 13.908 2.277 20.979zm16.971-3.536a9 9 0 000-12.728l-.707-.708a9 9 0 00-12.729 0l13.436 13.436z"/><path d="M20.663.472l2.12 2.122-2.828 2.828-2.12-2.121zM11.311 9.506h10.435m-1.795-4H7.311m14.242 8h-6.242m3.189-9.5v12.73m-4-15.06v11.019m-4-11.166v7.166"/></g><path fill="none" d="M0 0h24v24H0z"/></svg>