<svg xmlns="http://www.w3.org/2000/svg" viewBox="0 0 24 24" width="24" height="24"><defs><style>.a{fill:none;stroke:#000;stroke-linecap:round;stroke-linejoin:round;stroke-width:1.5px}</style></defs><title>headphones-plug</title><rect class="a" x="7.122" y="7.346" width="8.263" height="7.5" rx="1.5" ry="1.5" transform="rotate(-45 11.253 11.096)"/><path class="a" d="M12.584 6.583l3.182-3.182 3.182 3.182-3.182 3.182zM21.599.75l-2.121 2.121m.759 1.563a.75.75 0 0 0-.112-.916l-1.294-1.293a.749.749 0 0 0-.916-.113L15.766 3.4l3.182 3.182zM7.6 17.928a1.5 1.5 0 0 1-2.121 0l-1.058-1.061a1.5 1.5 0 0 1 0-2.121l2.32-2.32 3.182 3.182zM4.952 17.4l-1.965 2.157a1.5 1.5 0 0 0-.147 2.251l.912 1a1.5 1.5 0 0 0 2.122 0l1.06-1.152a1.5 1.5 0 0 1 2.122 0l1.591 1.591"/></svg>