<svg xmlns="http://www.w3.org/2000/svg" viewBox="0 0 24 24" width="24" height="24"><defs><style>.a{fill:none;stroke:#000;stroke-linecap:round;stroke-linejoin:round;stroke-width:1.5px}</style></defs><title>headphones-woman</title><path class="a" d="M7.769 10.983v.995a5.906 5.906 0 0 1-.858 3.269m9.098-4.264v.995a5.905 5.905 0 0 0 .859 3.269M7.781 11.2a5.477 5.477 0 0 0 4.108-1.9A5.479 5.479 0 0 0 16 11.2"/><circle class="a" cx="11.889" cy="10.872" r="4.122"/><rect class="a" x="19.5" y="9.75" width="3" height="6" rx="1.5" ry="1.5"/><rect class="a" x="1.5" y="9.75" width="3" height="6" rx="1.5" ry="1.5"/><path class="a" d="M19.5 12V8.25A7.522 7.522 0 0 0 12 .75a7.522 7.522 0 0 0-7.5 7.5V12m14.926 11.25a7.877 7.877 0 0 0-14.852 0"/></svg>