<svg xmlns="http://www.w3.org/2000/svg" viewBox="0 0 24 24" width="24" height="24"><defs><style>.a{fill:none;stroke:#000;stroke-linecap:round;stroke-linejoin:round;stroke-width:1.5px}</style></defs><title>headphones</title><path class="a" d="M18.75 21.375a4.5 4.5 0 0 0 4.5-4.5 4.5 4.5 0 0 0-4.5-4.5 1.5 1.5 0 0 0-1.5 1.5v6a1.5 1.5 0 0 0 1.5 1.5zm-13.5 0a4.5 4.5 0 0 1-4.5-4.5 4.5 4.5 0 0 1 4.5-4.5 1.5 1.5 0 0 1 1.5 1.5v6a1.5 1.5 0 0 1-1.5 1.5z"/><path class="a" d="M3.75 12.631v-1.756A8.274 8.274 0 0 1 12 2.625a8.274 8.274 0 0 1 8.25 8.25v1.756"/></svg>