<svg xmlns="http://www.w3.org/2000/svg" viewBox="0 0 24 24" width="24" height="24"><defs><style>.a{fill:none;stroke:#000;stroke-linecap:round;stroke-linejoin:round;stroke-width:1.5px}</style></defs><title>headphones-bluetooth</title><path class="a" d="M19.5 16.521v-.771a7.522 7.522 0 0 0-7.5-7.5 7.522 7.522 0 0 0-7.5 7.5v.771M15.332 5.25a4.451 4.451 0 0 0-6.664 0m9.665-1.5a8.184 8.184 0 0 0-12.666 0"/><path class="a" d="M6 22.125a1.125 1.125 0 0 1-1.125 1.125A3.375 3.375 0 0 1 1.5 19.875 3.375 3.375 0 0 1 4.875 16.5 1.125 1.125 0 0 1 6 17.625zm12 0a1.125 1.125 0 0 0 1.125 1.125 3.375 3.375 0 0 0 3.375-3.375 3.375 3.375 0 0 0-3.375-3.375A1.125 1.125 0 0 0 18 17.625z"/></svg>