<svg xmlns="http://www.w3.org/2000/svg" viewBox="0 0 24 24" width="24" height="24"><defs><style>.a{fill:none;stroke:#000;stroke-linecap:round;stroke-linejoin:round;stroke-width:1.5px}</style></defs><title>headphones-human-music</title><path class="a" d="M20.33 12.035c.455 1.2.913 2.448 1.42 3.715h-3V18a3 3 0 0 1-3 3h-1.5v2.25M13.07 2.656a7.552 7.552 0 0 1 1.971.923M3.75 23.25v-4.765A9.363 9.363 0 0 1 5.1 3.712"/><circle class="a" cx="15.679" cy="8.899" r="1.601"/><path class="a" d="M23.25 7.173a1.6 1.6 0 1 1-1.6-1.6 1.6 1.6 0 0 1 1.6 1.6z"/><path class="a" d="M17.28 8.9v-6a1.282 1.282 0 0 1 .876-1.216l3.408-.868a1.281 1.281 0 0 1 1.686 1.215v5.142M7.5 2.25v6.416a3 3 0 1 0 3 0V2.25A1.5 1.5 0 0 0 9 .75a1.5 1.5 0 0 0-1.5 1.5z"/></svg>