<svg xmlns="http://www.w3.org/2000/svg" viewBox="0 0 24 24" width="24" height="24"><g fill="none" stroke="#000" stroke-linejoin="round" stroke-miterlimit="10"><path stroke-linecap="round" d="M17.35 17.5H20c1.841 0 3-1.66 3-3.5 0-1.842-1.159-3.5-3-3.5h-2.5m-17 13h23"/><path d="M10 6.801s3.5-2.521 3.5-4.387c0-2.154-2.863-2.836-3.5-.215C9.364-.422 6.5.26 6.5 2.414 6.5 4.28 10 6.801 10 6.801z"/><path stroke-linecap="round" d="M17.5 16c0 4.143-3.357 7.5-7.5 7.5S2.5 20.143 2.5 16V9.5h15V16z"/></g><path fill="none" d="M0 0h24v24H0z"/></svg>