<svg xmlns="http://www.w3.org/2000/svg" viewBox="0 0 24 24" width="24" height="24"><path fill="none" stroke="#000" stroke-linejoin="round" stroke-miterlimit="10" d="M11.5 22.945S22 14.818 22 7.127c0-7.693-9.316-8.285-10.5-.592C10.316-1.158 1-.566 1 7.718s10.5 15.227 10.5 15.227z"/><path fill="none" stroke="#000" stroke-linecap="round" stroke-linejoin="round" stroke-miterlimit="10" d="M14.5 17.5h-6v-2h-1l-1-5a2 2 0 012-2h6a2 2 0 012 2l-1 5h-1v2zm-4 0V15m2 2.5V15"/><circle fill="none" stroke="#000" stroke-linecap="round" stroke-linejoin="round" stroke-miterlimit="10" cx="10" cy="12" r=".5"/><circle fill="none" stroke="#000" stroke-linecap="round" stroke-linejoin="round" stroke-miterlimit="10" cx="13" cy="12" r=".5"/><path fill="none" d="M0 0h24v24H0z"/></svg>