<svg xmlns="http://www.w3.org/2000/svg" viewBox="0 0 24 24" width="24" height="24"><g fill="none" stroke="#000" stroke-linejoin="round" stroke-miterlimit="10"><path d="M7.435 13.961s6.935-5.045 6.935-8.779c0-4.311-5.674-5.676-6.935-.432C6.174-.494.5.871.5 5.182c0 3.734 6.935 8.779 6.935 8.779z"/><path stroke-linecap="round" d="M3.852 3.494c-.755.378-1.333 1.203-1.333 2.326 0 .162.02.325.056.494"/><path d="M12.662 9.086c.78 2.392 2.212 4.693 2.212 4.693s6.631-1.646 7.75-4.404c1.291-3.184-2.49-5.889-4.991-2.395.458-3.047-1.775-4.266-3.553-3.537"/><path stroke-linecap="round" d="M7.32 13.918c-.281 8.062 3.344 6.609 5.51 9.582m2.044-9.721s-3.022 1.357-3.022 4.857.978 4.864.978 4.864"/></g><path fill="none" d="M0 0h24v24H0z"/></svg>