<svg xmlns="http://www.w3.org/2000/svg" viewBox="0 0 24 24" width="24" height="24"><g fill="none" stroke="#000" stroke-linecap="round" stroke-linejoin="round" stroke-miterlimit="10"><path d="M20 10.537c1.615.248 2.5 1.703 2.5 3.463v7c0 1.104-.396 2-1.5 2s-1.5-.896-1.5-2v-4.5 2a1.5 1.5 0 11-3 0v-1M4 10.537C2.385 10.785 1.5 12.24 1.5 14v7c0 1.104.396 2 1.5 2s1.5-.896 1.5-2v-4.5 2a1.5 1.5 0 103 0v-1M12 19s6.011-3.973 6.011-8.196c0-4.225-5.333-4.771-6.011-.547-.678-4.224-6.012-4.002-6.012.547C5.988 15.352 12 19 12 19z"/><ellipse cx="12" cy="3" rx="5.5" ry="1.5"/><path d="M12 19s6.011-3.973 6.011-8.196c0-4.225-5.333-4.771-6.011-.547-.678-4.224-6.012-4.002-6.012.547C5.988 15.352 12 19 12 19z"/></g><path fill="none" d="M0 0h24v24H0z"/></svg>