<svg xmlns="http://www.w3.org/2000/svg" viewBox="0 0 24 24" width="24" height="24"><g fill="none" stroke="#000" stroke-linecap="round" stroke-linejoin="round" stroke-miterlimit="10"><path d="M22.5 14v2.5H20"/><path d="M13.5 16.5c.617-1.747 2.541-3 4.5-3s3.883 1.253 4.5 3M13.5 22v-2.5H16"/><path d="M22.5 19.5c-.617 1.747-2.541 3-4.5 3s-3.883-1.253-4.5-3"/></g><path fill="none" stroke="#000" stroke-linecap="round" stroke-linejoin="round" stroke-miterlimit="10" d="M20.992 9.436c.31-.916.488-1.84.488-2.755 0-7.016-9.41-8.385-10.49-1.369C9.911-1.705.5-.876.5 6.68c0 6.096 6.826 11.854 9.465 13.853"/><path fill="none" d="M0 0h24v24H0z"/></svg>