<svg xmlns="http://www.w3.org/2000/svg" viewBox="0 0 24 24" width="24" height="24"><defs><style>.a{fill:none;stroke:#000;stroke-linecap:round;stroke-linejoin:round;stroke-width:1.5px}</style></defs><title>heater</title><path class="a" d="M9.88.75a3 3 0 0 0 0 4.243 3 3 0 0 1 0 4.242M13.887.75a3 3 0 0 0 0 4.243 3 3 0 0 1 0 4.242M17.894.75a3 3 0 0 0 0 4.243 3 3 0 0 1 0 4.242m.856 9.515v-6m-6 6v-6m3 6v-6m-6 6v-6M4.875 9a.375.375 0 1 1-.375-.375.375.375 0 0 1 .375.375m0 4.5a.375.375 0 1 1-.375-.375.375.375 0 0 1 .375.375M3.75 21.75v1.5m16.5-1.5v1.5"/><path class="a" d="M5.25 5.25h-3a1.5 1.5 0 0 0-1.5 1.5v13.5a1.5 1.5 0 0 0 1.5 1.5h19.5a1.5 1.5 0 0 0 1.5-1.5V6.75a1.5 1.5 0 0 0-1.5-1.5"/></svg>