<svg xmlns="http://www.w3.org/2000/svg" viewBox="0 0 24 24" width="24" height="24"><defs><style>.a{fill:none;stroke:#000;stroke-linecap:round;stroke-linejoin:round;stroke-width:1.5px}</style></defs><title>heater-1</title><path class="a" d="M17.25.75H6.75a3 3 0 0 0-3 3v4.357A19.737 19.737 0 0 0 12 9.75a19.737 19.737 0 0 0 8.25-1.643V3.75a3 3 0 0 0-3-3z"/><path class="a" d="M5.75.75h12.5a2 2 0 0 1 2 2v18a1 1 0 0 1-1 1H4.75a1 1 0 0 1-1-1v-18a2 2 0 0 1 2-2zm1.75 3h9m-8.25 3h7.5m-10.5 15v1.5m13.5-1.5v1.5m-12-14.103V21.75m10.5-12.603V21.75"/></svg>