<svg xmlns="http://www.w3.org/2000/svg" viewBox="0 0 24 24" width="24" height="24"><defs><style>.a{fill:none;stroke:#000;stroke-linecap:round;stroke-linejoin:round;stroke-width:1.5px}</style></defs><title>heavy-equipment-lift-2</title><rect class="a" x="8.25" y="17.25" width="15" height="6" rx="2" ry="2"/><path class="a" d="M12 19.875a.375.375 0 0 1 .375.375m-.75 0a.375.375 0 0 1 .375-.375m0 .75a.375.375 0 0 1-.375-.375m.75 0a.375.375 0 0 1-.375.375m3.75-.75a.375.375 0 0 1 .375.375m-.75 0a.375.375 0 0 1 .375-.375m0 .75a.375.375 0 0 1-.375-.375m.75 0a.375.375 0 0 1-.375.375m3.75-.75a.375.375 0 0 1 .375.375m-.75 0a.375.375 0 0 1 .375-.375m0 .75a.375.375 0 0 1-.375-.375m.75 0a.375.375 0 0 1-.375.375M21.75 17v-4.25a1.5 1.5 0 0 0-1.5-1.5h-1.5a1.5 1.5 0 0 1-1.5-1.5v-1.5a1.5 1.5 0 0 0-1.5-1.5h-4.5a1.5 1.5 0 0 0-1.5 1.5V17"/><path class="a" d="M7.1 11.081L1.359 4.708a2.371 2.371 0 0 1 .086-3.263 2.371 2.371 0 0 1 3.263-.086l6.073 5.466M6 15.75a.75.75 0 0 1 .75.75 3.009 3.009 0 0 1-3 3 3.009 3.009 0 0 1-3-3v-.75zM.75 3.194V15.75m3.755-7.547L3.75 15.75m6-3h3.879a1.5 1.5 0 0 0 1.06-.439L17.25 9.75"/></svg>