<svg xmlns="http://www.w3.org/2000/svg" viewBox="0 0 24 24" width="24" height="24"><defs><style>.a{fill:none;stroke:#000;stroke-linecap:round;stroke-linejoin:round;stroke-width:1.5px}</style></defs><title>heavy-equipment-excavator-1</title><path class="a" d="M3 5.155V23.25M.75 10.5l4.5 2.25m-4.5 1.5l4.5 2.25M.75 18l4.5 2.25m3.636-9.942L1.274 3.643a1.675 1.675 0 0 1-.185-2.227 1.675 1.675 0 0 1 2.194-.43l10.475 6.573m.471 12.691h2.292M9.75 16.5v-3a1.5 1.5 0 0 1 1.5-1.5h10.5a1.5 1.5 0 0 1 1.5 1.5v6.375"/><path class="a" d="M12.75 12l1.259-5.544A1.5 1.5 0 0 1 15.48 5.25h3.27a1.5 1.5 0 0 1 1.5 1.5V12"/><circle class="a" cx="10.875" cy="19.875" r="3.375"/><path class="a" d="M10.875 20.25a.375.375 0 0 1-.375-.375m.75 0a.375.375 0 0 1-.375.375m0-.75a.375.375 0 0 1 .375.375m-.75 0a.375.375 0 0 1 .375-.375"/><circle class="a" cx="19.875" cy="19.875" r="3.375"/><path class="a" d="M19.875 20.25a.375.375 0 0 1-.375-.375m.75 0a.375.375 0 0 1-.375.375m0-.75a.375.375 0 0 1 .375.375m-.75 0a.375.375 0 0 1 .375-.375"/></svg>