<svg xmlns="http://www.w3.org/2000/svg" viewBox="0 0 24 24" width="24" height="24"><defs><style>.a{fill:none;stroke:#000;stroke-linecap:round;stroke-linejoin:round;stroke-width:1.5px}</style></defs><title>heavy-equipment-cleaner-1</title><rect class="a" x="8.25" y="17.25" width="15" height="6" rx="2" ry="2"/><path class="a" d="M12 19.875a.375.375 0 0 1 .375.375m-.75 0a.375.375 0 0 1 .375-.375m0 .75a.375.375 0 0 1-.375-.375m.75 0a.375.375 0 0 1-.375.375m3.75-.75a.375.375 0 0 1 .375.375m-.75 0a.375.375 0 0 1 .375-.375m0 .75a.375.375 0 0 1-.375-.375m.75 0a.375.375 0 0 1-.375.375m3.75-.75a.375.375 0 0 1 .375.375m-.75 0a.375.375 0 0 1 .375-.375m0 .75a.375.375 0 0 1-.375-.375m.75 0a.375.375 0 0 1-.375.375M6.75 15.75a1.5 1.5 0 0 0 1.5 1.5h13.5a1.5 1.5 0 0 0 1.5-1.5V2.25a1.5 1.5 0 0 0-1.5-1.5h-5.634a1.5 1.5 0 0 0-1.437 1.069l-1.608 5.362a1.5 1.5 0 0 1-1.437 1.069H9.75a1.5 1.5 0 0 0-1.5 1.5zm3-4.5h4.5m-12 0H7.5m-5.25 3h4.5m3 0h4.5M.828 5.527l.822.524a1.5 1.5 0 0 1 .6 1.2V18.5a1.5 1.5 0 0 1-.6 1.2l-.863.549M11.634 8.25H22.5"/></svg>