<svg xmlns="http://www.w3.org/2000/svg" viewBox="0 0 24 24" width="24" height="24"><defs><style>.a,.b{fill:none;stroke:#000;stroke-linecap:round;stroke-linejoin:round;stroke-width:1.5px}.b{fill-rule:evenodd}</style></defs><title>heavy-equipment-tractor</title><circle class="a" cx="18" cy="18" r="5.25"/><circle class="a" cx="18" cy="18" r="2.25"/><circle class="a" cx="4.125" cy="19.875" r="3.375"/><path class="a" d="M4.125 20.25a.375.375 0 0 1-.375-.375m.75 0a.375.375 0 0 1-.375.375m0-.75a.375.375 0 0 1 .375.375m-.75 0a.375.375 0 0 1 .375-.375m3.354.75h5.776"/><path class="b" d="M23.25 18V5.25a1.5 1.5 0 0 0-1.5-1.5H15.5a1.5 1.5 0 0 0-1.476 1.232l-.643 3.536a1.5 1.5 0 0 1-1.474 1.232H5.25a3 3 0 0 0-3 3v4.32M3.75.75h1.5a1.5 1.5 0 0 1 1.5 1.5v1.5"/><path class="a" d="M16.5 8.25h3.75m-14.5-4.5h2a.5.5 0 0 1 .5.5v5.5h-3v-5.5a.5.5 0 0 1 .5-.5z"/></svg>