<svg xmlns="http://www.w3.org/2000/svg" viewBox="0 0 24 24" width="24" height="24"><path fill="none" stroke="#000" stroke-linecap="round" stroke-linejoin="round" stroke-miterlimit="10" d="M10.5 6.5h8v6h-8zm8 0h1a4 4 0 014 4v2h-2v-2a2 2 0 00-2-2h-1m-8-1H.5m10 2H.5m10 2H.5m7-5v6m-5-6v6m11-8h3v2h-3zm-1 5.5V9m2 1V9m.64 5.998L23.5 21.5v1m-12-5.667l-6 4.667v1"/><path fill="none" stroke="#000" stroke-linejoin="round" stroke-miterlimit="10" d="M16 22.5h-3c0-1.062-.354-1.558-.727-2.614-.38-1.073-.773-2.184-.773-3.386 0-1.712.963-2.874 1.6-3.644a2.2 2.2 0 01.4-.356h3c0 .955-.579 1.654-1.09 2.271-.55.664-.91 1.143-.91 1.729 0 .687.279 1.474.602 2.385.42 1.19.898 2.038.898 3.615zm-4-8h3.5m-4 2H15m-3 2h3m-2.5 2h3"/><path fill="none" d="M0 0h24v24H0z"/></svg>