<svg xmlns="http://www.w3.org/2000/svg" viewBox="0 0 24 24" width="24" height="24"><defs><style>.a{fill:none;stroke:#000;stroke-linecap:round;stroke-linejoin:round;stroke-width:1.5px}</style></defs><title>heavy-equipment-wood</title><path class="a" d="M8.25 15.628V7.25a.75.75 0 0 0-.75-.75H5.25A4.5 4.5 0 0 0 .75 11v6a1.5 1.5 0 0 0 1.5 1.5H3"/><path class="a" d="M.75 12.5h3a1.5 1.5 0 0 0 1.5-1.5V6.5"/><circle class="a" cx="7.5" cy="17.75" r="2.25"/><circle class="a" cx="19.5" cy="17.75" r="2.25"/><path class="a" d="M12 18.5h3m-3.75-12h12m-12 3h12m-15 3H21m-6-9v9"/></svg>