<svg xmlns="http://www.w3.org/2000/svg" viewBox="0 0 24 24" width="24" height="24"><defs><style>.a,.b{fill:none;stroke:#000;stroke-linecap:round;stroke-linejoin:round;stroke-width:1.5px}.b{fill-rule:evenodd}</style></defs><title>heavy-equipment-flattener</title><circle class="a" cx="7.5" cy="17.25" r="5.25"/><circle class="a" cx="19.875" cy="19.125" r="3.375"/><path class="a" d="M19.875 19.5a.375.375 0 0 1-.375-.375m.75 0a.375.375 0 0 1-.375.375m0-.75a.375.375 0 0 1 .375.375m-.75 0a.375.375 0 0 1 .375-.375"/><path class="b" d="M21 9.75V3a1.5 1.5 0 0 0-1.5-1.5h-6.227a1.5 1.5 0 0 0-1.414 1l-3.406 9.587"/><path class="b" d="M9.283 9.75H21.75a1.5 1.5 0 0 1 1.5 1.5v7.875"/><path class="a" d="M15.75 1.5v8.25m-15 7.5h13.5"/></svg>