<svg xmlns="http://www.w3.org/2000/svg" viewBox="0 0 24 24" width="24" height="24"><defs><style>.a{fill:none;stroke:#000;stroke-linecap:round;stroke-linejoin:round;stroke-width:1.5px}</style></defs><title>heavy-equipment-lift-hook-box</title><path class="a" d="M20.25 23.25h-9a3.009 3.009 0 0 1-3-3 3.009 3.009 0 0 1 3-3h9a3.009 3.009 0 0 1 3 3 3.009 3.009 0 0 1-3 3zM12 19.875a.375.375 0 0 1 .375.375m-.75 0a.375.375 0 0 1 .375-.375m0 .75a.375.375 0 0 1-.375-.375m.75 0a.375.375 0 0 1-.375.375m3.75-.75a.375.375 0 0 1 .375.375m-.75 0a.375.375 0 0 1 .375-.375m0 .75a.375.375 0 0 1-.375-.375m.75 0a.375.375 0 0 1-.375.375m3.75-.75a.375.375 0 0 1 .375.375m-.75 0a.375.375 0 0 1 .375-.375m0 .75a.375.375 0 0 1-.375-.375m.75 0a.375.375 0 0 1-.375.375"/><path class="a" d="M21.75 17.655V12.75a1.5 1.5 0 0 0-1.5-1.5h-1.5a1.5 1.5 0 0 1-1.5-1.5v-1.5a1.5 1.5 0 0 0-1.5-1.5h-4.5a1.5 1.5 0 0 0-1.5 1.5v9.405m3-7.905h1.5M3.75 5.945V12"/><path class="a" d="M9.75 11.523l-8.476-7.88a1.675 1.675 0 0 1-.185-2.227 1.675 1.675 0 0 1 2.194-.43l9.9 5.745"/><rect class="a" x=".75" y="12" width="6" height="6" rx="1" ry="1"/></svg>