<svg xmlns="http://www.w3.org/2000/svg" viewBox="0 0 24 24" width="24" height="24"><defs><style>.a{fill:none;stroke:#000;stroke-linecap:round;stroke-linejoin:round;stroke-width:1.5px}</style></defs><title>heavy-equipment-truck</title><path class="a" d="M23.25 18v-.75a1.5 1.5 0 0 0-1.5-1.5H8.25V10.5a.75.75 0 0 0-.75-.75H5.25a4.5 4.5 0 0 0-4.5 4.5v6a1.5 1.5 0 0 0 1.5 1.5H3"/><circle class="a" cx="7.5" cy="21" r="2.25"/><circle class="a" cx="19.5" cy="21" r="2.25"/><path class="a" d="M12 21.75h3M12.187 3.492l9.441 2.437a1.5 1.5 0 0 1 1.077 1.827l-1.312 5.083-9.441-2.439a1.5 1.5 0 0 1-1.077-1.828l1.875-7.259L10.571.75m4.631 5.936l-.404 1.564m4.248-.439l-.404 1.564m-1.308 2.416L15.75 15.75m5.643-2.911l.357 2.911m-13.5-1.5H.75"/></svg>