<svg xmlns="http://www.w3.org/2000/svg" viewBox="0 0 24 24" width="24" height="24"><defs><style>.a{fill:none;stroke:#000;stroke-linecap:round;stroke-linejoin:round;stroke-width:1.5px}</style></defs><title>heavy-equipment-mortar-truck-1</title><circle class="a" cx="5.25" cy="18.75" r="2.25"/><circle class="a" cx="18.75" cy="18.75" r="2.25"/><path class="a" d="M7.372 19.5h9.257m-13.501 0H2.25A1.5 1.5 0 0 1 .75 18v-3a1.5 1.5 0 0 1 .6-1.2l2.025-1.519a1.5 1.5 0 0 0 .523-.726l1.01-3.029A1.5 1.5 0 0 1 6.331 7.5H8.25A1.5 1.5 0 0 1 9.75 9v7.5h-9m9 0h13.5M15.119 4.336l6.795 6.795m1.195-4.65a1.307 1.307 0 0 0-.381-.993l-1.966-1.966a1.3 1.3 0 0 0-.993-.381c-3.468.188-6.452 1.572-8.051 4.608a4.435 4.435 0 0 0 .9 5.154l.732.732a4.435 4.435 0 0 0 5.154.9c3.033-1.602 4.417-4.586 4.605-8.054z"/></svg>