<svg id="Regular" xmlns="http://www.w3.org/2000/svg" viewBox="0 0 24 24" width="24" height="24"><defs><style>.cls-1{fill:none;stroke:#000;stroke-linecap:round;stroke-linejoin:round;stroke-width:1.5px}</style></defs><title>hedgehog</title><path class="cls-1" d="M14.251 14.25c1.5 2.25 6.75 2.25 9-.75 0-5.25-12-9-12-9"/><path class="cls-1" d="M19.509 15.748L16.5 16.5a26.612 26.612 0 0 1-5.25.75A26.612 26.612 0 0 1 6 16.5l-.75 3m14.251-3.784V19.5m-10.5-2.429V19.5m3.75-11.25l-8.25-3m3.75 4.5L1.501 9m3.75 3l-4.5.75m3 2.25l-2.25 1.5m16.875-5.25a.375.375 0 0 0-.375.375m.75 0a.375.375 0 0 0-.375-.375m0 .75a.375.375 0 0 0 .375-.375m-.751 0a.375.375 0 0 0 .375.375m-1.874 7.5v-3"/></svg>