<svg xmlns="http://www.w3.org/2000/svg" viewBox="0 0 24 24" width="24" height="24"><g fill="none" stroke="#000" stroke-linecap="round" stroke-linejoin="round" stroke-miterlimit="10"><path d="M21 10.5h2.5m-2.5 0l-1.25-2.166M21 10.5l-1.25 2.165M18 9.5H8c-3.589 0-6.5 3-6.5 5.5 0 1.748.5 3.5 1.816 3.5h6.69c2.994-.999 3.494-6 3.494-6l4.5-1m-7.5 1h1m-3-5h2v2h-2zm1 0v-3m-9 1h18m-15 13l-.5 2m7.006-2l.494 2M.5 20a.5.5 0 00.5.5h11.5"/><path d="M6.5 14.5h-3a3 3 0 013-3v3z"/></g><path fill="none" d="M0 0h24v24H0z"/></svg>