<svg xmlns="http://www.w3.org/2000/svg" viewBox="0 0 24 24" width="24" height="24"><g fill="none" stroke="#000" stroke-linecap="round" stroke-linejoin="round" stroke-miterlimit="10"><path d="M17.5 7.5h-9a8 8 0 00-8 8 2 2 0 002 2h7c4.5 0 .637-5.812 6.115-6.496"/><path d="M6.976 10.524A7.217 7.217 0 003 14.5h3.477m7.023 6a1 1 0 01-1 1h-11a1 1 0 01-1-1m8-17h-5m13.979 0H12.52M10.5 7V2m10 6.469V6.5m0 5.969V10.5m1.062-1h1.958m-5.978 0h1.937M3 21.5l1.625-4m6.375 4l-1.625-4"/></g><path fill="none" d="M0 0h24v24H0z"/></svg>