<svg xmlns="http://www.w3.org/2000/svg" viewBox="0 0 24 24" width="24" height="24"><g fill="none" stroke="#000" stroke-linejoin="round" stroke-miterlimit="10"><path stroke-linecap="round" d="M23.5 16.5H1.502a1.002 1.002 0 01-1.002-1v-1a1 1 0 011.002-1H11.5"/><path stroke-linecap="round" d="M1.502 13.5a8.5 8.5 0 018.5-8.5 8.499 8.499 0 017.501 4.498"/><path d="M20.5 16.5v-3c0-5.324-3.961-9.721-9.096-10.408a3.005 3.005 0 00-2.317.669l-2.15 1.815"/><path stroke-linecap="round" d="M2.5 16.5V20a1.501 1.501 0 003.002 0 1.5 1.5 0 011.5-1.5h10.5a2 2 0 001.999-2"/></g><path fill="none" d="M0 0h24v24H0z"/></svg>