<svg xmlns="http://www.w3.org/2000/svg" viewBox="0 0 24 24" width="24" height="24"><g fill="none" stroke="#000" stroke-linejoin="round" stroke-miterlimit="10"><path stroke-linecap="round" d="M9.054 22.23C4.156 21.118.5 16.738.5 11.503c0-6.076 4.924-11 11-11 6.074 0 11 4.924 11 11h-7a4 4 0 00-4 4m12 5h-12m9-3v4a2 2 0 01-2 2h-1"/><circle cx="8.5" cy="17.503" r="1.5"/><path stroke-linecap="round" d="M8.5 16.003v-1.5a6 6 0 016-6h9"/><path d="M10 17.503h13.5v4a2 2 0 01-2 2h-4.513a6.001 6.001 0 01-4.246-1.76l-3.195-3.194"/><path stroke-linecap="round" d="M16.5 17.503v4a2 2 0 01-1.099 1.785"/></g><path fill="none" d="M0 0h24v24H0z"/></svg>