<svg xmlns="http://www.w3.org/2000/svg" viewBox="0 0 24 24" width="24" height="24"><g fill="none" stroke="#000" stroke-linecap="round" stroke-linejoin="round" stroke-miterlimit="10"><path d="M3 10.503c0 1 .5 4.012 1 4l4-4H3zm.5-6.002a3 3 0 000 6.002H22c.828 0 1.5-.672 1.5-1.502 0-1.65-4.323-8.498-12-8.498-2.5 0-5.955.564-8.5 2-.342.192-.535.61-.5 1l.025 1.16"/><path d="M6.913 4.62a11.45 11.45 0 016.476-1.996c3.426 0 6.787 1.439 8.895 3.818M12.5 10.503v2.5"/><circle cx="12.5" cy="14.503" r="1.5"/><path d="M12.5 16.003v4.5m-8.5-6h7m.5 6h2v3h-2z"/></g><path fill="none" d="M0 0h24v24H0z"/></svg>