<svg xmlns="http://www.w3.org/2000/svg" viewBox="0 0 24 24" width="24" height="24"><defs><style>.a{fill:none;stroke:#000;stroke-linecap:round;stroke-linejoin:round;stroke-width:1.5px}</style></defs><title>help-question-network</title><circle class="a" cx="3" cy="21" r="2.25"/><path class="a" d="M4.679 19.502L6.749 18"/><circle class="a" cx="3" cy="3" r="2.25"/><path class="a" d="M4.679 4.499L6.749 6"/><circle class="a" cx="21" cy="21" r="2.25"/><path class="a" d="M19.322 19.502L17.252 18"/><circle class="a" cx="21" cy="3" r="2.25"/><path class="a" d="M19.322 4.499L17.252 6M12 17.25a.375.375 0 1 1-.375.375.375.375 0 0 1 .375-.375m-3-7.5a3 3 0 1 1 4 2.829 1.5 1.5 0 0 0-1 1.415v.631"/></svg>