<svg xmlns="http://www.w3.org/2000/svg" viewBox="0 0 24 24" width="24" height="24"><defs><style>.a{fill:none;stroke:#000;stroke-linecap:round;stroke-linejoin:round;stroke-width:1.5px}</style></defs><title>hierarchy-files</title><path class="a" d="M16.5 23.248H21a.75.75 0 0 0 .75-.75v-4.939a.75.75 0 0 0-.219-.53l-1.06-1.061a.749.749 0 0 0-.53-.22H16.5a.75.75 0 0 0-.75.75v6a.75.75 0 0 0 .75.75zm0-13.5H21A.75.75 0 0 0 21.75 9V4.059a.75.75 0 0 0-.219-.53l-1.06-1.061a.749.749 0 0 0-.53-.22H16.5a.75.75 0 0 0-.75.75V9a.75.75 0 0 0 .75.748zm-14.25-9v1.5m0 3v3m0 3v3m0 3v1.5a1.5 1.5 0 0 0 1.5 1.5h1.5m3 0h3m3 0h1.5m-13.5-13.5h3m3 0h3m3 0h1.5"/></svg>