<svg id="Regular" xmlns="http://www.w3.org/2000/svg" viewBox="0 0 24 24" width="24" height="24"><defs><style>.cls-1{fill:none;stroke:#000;stroke-linecap:round;stroke-linejoin:round;stroke-width:1.5px}</style></defs><title>hippo-body</title><path class="cls-1" d="M23.25 21.25v-6s.141-5.578-2.4-6.8a7.606 7.606 0 0 0-5.75.05s.75-3-1.5-3.75a3.768 3.768 0 0 0-3.75.75 4.36 4.36 0 0 0-4.5-3 4.36 4.36 0 0 0-4.5 3l6 3c1.5.75 2.25 4.5-.75 4.5H.854a3.035 3.035 0 0 0 3.083 3c3 0 4.5.75 4.5 3v2.25M12.479 7a.375.375 0 0 1 .375.375m-.754 0A.374.374 0 0 1 12.479 7m0 .75a.374.374 0 0 1-.375-.375m.75 0a.375.375 0 0 1-.375.375M2.354 13v-1.5m0-5.25l-.75 1.5m3.75-3h.75"/><path class="cls-1" d="M11.437 21.25V17.5a16.349 16.349 0 0 0 4.5.75 16.349 16.349 0 0 0 4.5-.75v3.75"/></svg>