<svg id="Regular" xmlns="http://www.w3.org/2000/svg" viewBox="0 0 24 24" width="24" height="24"><defs><style>.cls-1{fill:none;stroke:#000;stroke-linecap:round;stroke-linejoin:round;stroke-width:1.5px}</style></defs><title>hippo</title><path class="cls-1" d="M6.5 19.42v2.5c0 .75 3 .75 3 0v-2.5m4.5-.003v2.5c0 .75 3 .75 3 0v-2.5"/><path class="cls-1" d="M14.609 3.733l.141-.563s.75-3 3-1.5 0 3 0 3l-.878.586.012.019A5.6 5.6 0 0 1 18.5 9.17a5.4 5.4 0 0 1-.5 2.258 4.5 4.5 0 0 1-1.568 8.149 4.559 4.559 0 0 1-2.294-.119 7.916 7.916 0 0 0-4.768 0 4.559 4.559 0 0 1-2.294.119A4.5 4.5 0 0 1 5.5 11.428 5.4 5.4 0 0 1 5 9.17a5.664 5.664 0 0 1 1.931-4.2v-.007L6.5 4.67s-2.25-1.5 0-3 3 1.5 3 1.5l.079.317a7.563 7.563 0 0 1 5.03.246z"/><circle class="cls-1" cx="15.125" cy="9.545" r=".375"/><circle class="cls-1" cx="8.375" cy="9.545" r=".375"/><path class="cls-1" d="M13.25 15.17l.75-.75m-3.75.75l-.75-.75"/></svg>