<svg xmlns="http://www.w3.org/2000/svg" viewBox="0 0 24 24" width="24" height="24"><defs><style>.a{fill:none;stroke:#000;stroke-linecap:round;stroke-linejoin:round;stroke-width:1.5px}</style></defs><title>history-piggy</title><path class="a" d="M16.125 10.5a.375.375 0 0 1 .375.375m-.75 0a.375.375 0 0 1 .375-.375m0 .75a.375.375 0 0 1-.375-.375m.75 0a.375.375 0 0 1-.375.375m-8.25-.75a.375.375 0 0 1 .375.375m-.75 0a.375.375 0 0 1 .375-.375m0 .75a.375.375 0 0 1-.375-.375m.75 0a.375.375 0 0 1-.375.375"/><path class="a" d="M21.252 10.416a9.763 9.763 0 0 1-4.009 11.306L15 21l-3 2.25L9 21l-2.243.722a9.763 9.763 0 0 1-4.009-11.306m8.502 8.334h1.5M.75 7.5h22.5m-4.5 0l-1.189-5.662A1.5 1.5 0 0 0 16.119.75H7.881a1.5 1.5 0 0 0-1.442 1.088L5.25 7.5"/><path class="a" d="M14.25 15h-4.5v-.75a2.25 2.25 0 0 1 4.5 0zM10.5 3l3 2.25m0-2.25l-3 2.25"/></svg>