<svg xmlns="http://www.w3.org/2000/svg" viewBox="0 0 24 24" width="24" height="24"><defs><style>.a{fill:none;stroke:#000;stroke-linecap:round;stroke-linejoin:round;stroke-width:1.5px}</style></defs><title>history-chinese-urn</title><path class="a" d="M15.592 1.125c-1.955 0-2.092 4.5.955 5.25 3.379.832 5.2 3.128 5.2 6.321 0 4.438-3.959 10.179-8.211 10.179h-3.075c-4.252 0-8.211-5.741-8.211-10.179 0-3.193 1.824-5.489 5.2-6.321 3.047-.75 2.91-5.25.955-5.25"/><circle class="a" cx="12" cy="10.5" r="1.875"/><path class="a" d="M12 12.375v3.75m-2.25 2.25l2.25-2.25 2.25 2.25M9 14.625l3-.75m0 0l3 .75m-9-13.5h12m-1.453 5.25l2.035-2.584a2.417 2.417 0 0 1 4.283 1.893l-1.115 6.691m-14.297-6L5.418 3.791a2.417 2.417 0 0 0-4.283 1.893l1.115 6.691"/></svg>