<svg xmlns="http://www.w3.org/2000/svg" viewBox="0 0 24 24" width="24" height="24"><defs><style>.a{fill:none;stroke:#000;stroke-linecap:round;stroke-linejoin:round;stroke-width:1.5px}</style></defs><title>history-spartan-helmet</title><path class="a" d="M4.542 15a7.5 7.5 0 0 1 15 0v4.35a1.5 1.5 0 0 1-1.205 1.471l-12 2.4a1.5 1.5 0 0 1-1.795-1.471v-3l5.043-1.261A1.263 1.263 0 0 0 9.279 15zm5.829-7.313L6.145 1.994m8.375 5.925l1.182-6.272m2.931 9.771l3.627-1.934"/><path class="a" d="M19.542 15v.75a1.5 1.5 0 1 0 3 0V12A11.251 11.251 0 0 0 1.681 6.15 1.5 1.5 0 0 0 2.2 8.222L6.042 10.5"/></svg>