<svg xmlns="http://www.w3.org/2000/svg" viewBox="0 0 24 24" width="24" height="24"><defs><style>.a{fill:none;stroke:#000;stroke-linecap:round;stroke-linejoin:round;stroke-width:1.5px}</style></defs><title>history-alice-mad-hat</title><path class="a" d="M5.249 23.238L3.857 10.6A1.5 1.5 0 0 1 5.353 9H7.5m7.411 8.251l-.66 5.987"/><path class="a" d="M.75 20.25a5.427 5.427 0 0 0 4.854 3H13.9a5.427 5.427 0 0 0 4.854-3M4.837 19.5h9.826M15 6l-.773-1.8a2.473 2.473 0 1 1 4.546 0L18 6m0 0l1.8-.773a2.473 2.473 0 1 1 0 4.546L18 9m0 0l.773 1.8a2.473 2.473 0 1 1-4.546 0L15 9m0 0l-1.8.773a2.473 2.473 0 1 1 0-4.546L15 6m8.249 10.966a9.009 9.009 0 0 1-5.023-3.415"/></svg>