<svg xmlns="http://www.w3.org/2000/svg" viewBox="0 0 24 24" width="24" height="24"><defs><style>.a{fill:none;stroke:#000;stroke-linecap:round;stroke-linejoin:round;stroke-width:1.5px}</style></defs><title>history-babushka-1</title><path class="a" d="M17.958 21.3a2.961 2.961 0 0 1-2.783 1.95H8.817a2.951 2.951 0 0 1-2.774-1.943A15.607 15.607 0 0 1 6.75 9V6a5.25 5.25 0 0 1 10.5 0v3a15.6 15.6 0 0 1 .708 12.3z"/><circle class="a" cx="12" cy="6" r="2.25"/><path class="a" d="M12 15.75a.375.375 0 0 1 .375.375m-.75 0A.375.375 0 0 1 12 15.75m0 .75a.375.375 0 0 1-.375-.375m.75 0A.375.375 0 0 1 12 16.5m0 3a.375.375 0 0 1 .375.375m-.75 0A.375.375 0 0 1 12 19.5m0 .75a.375.375 0 0 1-.375-.375m.75 0a.375.375 0 0 1-.375.375m0-12a4.5 4.5 0 0 1-6.461 4.05M12 8.25a4.5 4.5 0 0 0 6.459 4.05"/></svg>