<svg xmlns="http://www.w3.org/2000/svg" viewBox="0 0 24 24" width="24" height="24"><defs><style>.a{fill:none;stroke:#000;stroke-linecap:round;stroke-linejoin:round;stroke-width:1.5px}</style></defs><title>history-man-napoleon</title><path class="a" d="M8.25 18.34v.751a3.75 3.75 0 0 0 7.5 0v-.751M6.8 10.841a5.25 5.25 0 0 0 10.392 0m-8.942 7.5v4.909m7.5-4.909v4.909m1.159-19.227C16.01 3.008 15.273.75 12 .75S7.99 3.008 7.091 4.023C4.567 4.227 3 6.356 3 8.932h18c0-2.576-1.567-4.705-4.091-4.909z"/><path class="a" d="M8.715 14.186a2.25 2.25 0 0 1-4.044-1.956h-.165a1.1 1.1 0 0 1-.874-.432m11.695 2.388a2.25 2.25 0 0 0 4.044-1.956h.165a1.1 1.1 0 0 0 .874-.432m.443 11.452a9.754 9.754 0 0 0-17.706 0"/></svg>