<svg xmlns="http://www.w3.org/2000/svg" viewBox="0 0 24 24" width="24" height="24"><defs><style>.a{fill:none;stroke:#000;stroke-linecap:round;stroke-linejoin:round;stroke-width:1.5px}</style></defs><title>history-man-philosopher</title><path class="a" d="M18.865 6.75v4.5a5.25 5.25 0 0 1-10.5 0v-4.5zm4.385 16.5a9.763 9.763 0 0 0-6.55-7.75m-6.17 0a9.763 9.763 0 0 0-6.55 7.75m16.385-21a1.5 1.5 0 0 0-1.5-1.5h-10.5a1.5 1.5 0 0 0-1.5 1.5V6a.75.75 0 0 0 .75.75h12a.75.75 0 0 0 .75-.75zm-7.5 1.5h1.5m-3.75 19.5l8.07-6.829m-3.57 6.829l5.826-4.93"/><path class="a" d="M8.365 7.5a6.453 6.453 0 0 0 2.315 4.415c.917.5 1.586-1.389 2.935-1.389m0 0c1.348 0 2.018 1.891 2.934 1.389A6.454 6.454 0 0 0 18.865 7.5M6.882 6.158l-.034-.029c-.925-.762-3.035.269-4.712 2.3A7.668 7.668 0 0 0 .774 13.5a7.673 7.673 0 0 0 4.712-2.3c1.407-1.712 2.063-3.582 1.692-4.591a.754.754 0 0 1-.296-.451z"/></svg>