<svg xmlns="http://www.w3.org/2000/svg" viewBox="0 0 24 24" width="24" height="24"><defs><style>.a{fill:none;stroke:#000;stroke-linecap:round;stroke-linejoin:round;stroke-width:1.5px}</style></defs><title>historical-building-castle-1</title><path class="a" d="M18.75 6h4.5v15.5a1 1 0 0 1-1 1h-3.5V6zm-3 7.5h3m-3 9h3m0-16.5l1.55-4.127a.749.749 0 0 1 1.4 0L23.25 6M13.5 9.75a.75.75 0 0 0-.75.75v.75A.75.75 0 0 1 12 12h-1.5a.75.75 0 0 1-.75-.75v-.75A.75.75 0 0 0 9 9.75H7.5a.75.75 0 0 0-.75.75v.75A.75.75 0 0 1 6 12H4.5a.75.75 0 0 1-.75-.75v-.75A.75.75 0 0 0 3 9.75H1.5a.75.75 0 0 0-.75.75V21a1.5 1.5 0 0 0 1.5 1.5h13.5v-12a.75.75 0 0 0-.75-.75z"/><path class="a" d="M6 22.5V18a2.25 2.25 0 0 1 4.5 0v4.5M2.25 9.75v-7.5h4.5A.75.75 0 0 1 7.5 3v2.25a.75.75 0 0 1-.75.75h-4.5"/></svg>