<svg xmlns="http://www.w3.org/2000/svg" viewBox="0 0 24 24" width="24" height="24"><defs><style>.a{fill:none;stroke:#000;stroke-linecap:round;stroke-linejoin:round;stroke-width:1.5px}</style></defs><title>history-lamp-genie</title><path class="a" d="M11.25 23.25h12m-7.5-19.5l-.75-3h4.5l-.75 3m-16.5-3V15a2.25 2.25 0 0 0 4.5 0V7.82a1.5 1.5 0 0 1 2.491-1.126l2.266 2M.75 3h3"/><path class="a" d="M18.75 12.212V3.75h-3v7.061l-2.121-2.122a1.5 1.5 0 0 0-2.122 2.122l2.307 2.306A5.941 5.941 0 0 0 14.4 23.25h5.7a5.962 5.962 0 0 0-1.35-11.038z"/></svg>