<svg xmlns="http://www.w3.org/2000/svg" viewBox="0 0 24 24" width="24" height="24"><defs><style>.a{fill:none;stroke:#000;stroke-linecap:round;stroke-linejoin:round;stroke-width:1.5px}</style></defs><title>history-chinese-dragon</title><path class="a" d="M8.625 12.75a.375.375 0 0 1 .375.375m-.75 0a.375.375 0 0 1 .375-.375m0 .75a.375.375 0 0 1-.375-.375m.75 0a.375.375 0 0 1-.375.375m6.75-.75a.375.375 0 0 1 .375.375m-.75 0a.375.375 0 0 1 .375-.375m0 .75a.375.375 0 0 1-.375-.375m.75 0a.375.375 0 0 1-.375.375M12 16.785a5.177 5.177 0 0 1-2.049 1.783l-.522.3A8.58 8.58 0 0 1 4.568 20.1a4.538 4.538 0 0 1-3.312-1.494 2.246 2.246 0 0 1-.506-1.449 2.178 2.178 0 0 1 2.13-2.222H5.5M.75 7.523A37.6 37.6 0 0 1 12 11.894m0 11.356c-3.836 0-7.1-1.363-8.3-3.264M12 14.21a3.751 3.751 0 1 1-6.63-3.457M12 16.785a5.177 5.177 0 0 0 2.049 1.783l.522.3a8.58 8.58 0 0 0 4.861 1.232 4.538 4.538 0 0 0 3.312-1.494 2.246 2.246 0 0 0 .506-1.451 2.178 2.178 0 0 0-2.13-2.222H18.5m4.75-7.41A37.6 37.6 0 0 0 12 11.894m9.2-6.644c.024-.3.049-.558.073-.742a.489.489 0 0 0-.7-.467 34.579 34.579 0 0 1-5.638 2.089c0-.954-.234-1.007-1.969-4.85a1.145 1.145 0 0 0-1.932 0C9.2 5.352 9.065 5.175 9.065 6.13a34.579 34.579 0 0 1-5.633-2.089.489.489 0 0 0-.7.467c.024.184.049.444.073.742m9.195 18c3.836 0 7.1-1.363 8.305-3.264M12 14.21a3.751 3.751 0 1 0 6.89-2.968m-6.89.652v4.891m8.7-8.626a6.761 6.761 0 0 1 1.357 7m-18.757-7a6.761 6.761 0 0 0-1.357 7"/></svg>