<svg xmlns="http://www.w3.org/2000/svg" viewBox="0 0 24 24" width="24" height="24"><defs><style>.a{fill:none;stroke:#000;stroke-linecap:round;stroke-linejoin:round;stroke-width:1.5px}</style></defs><title>history-sphinx-1</title><path class="a" d="M14.247 5.594L18.75.75l.675 2.363a6 6 0 0 1-.991 5.278l-.178.235M9.753 5.594L5.25.75l-.675 2.363a6 6 0 0 0 .991 5.278l.178.235M10.5 20.25H2.239m11.261 0h8.261"/><path class="a" d="M14.25 16.3a1 1 0 0 1 1-1H17a2.5 2.5 0 0 0 2.5-2.51 7.5 7.5 0 1 0-15 0A2.5 2.5 0 0 0 7 15.293h1.75a1 1 0 0 1 1 1V18a2.25 2.25 0 0 0 4.5 0zm-5.918-5.409a.375.375 0 0 1 .375.375m-.75 0a.374.374 0 0 1 .375-.375m0 .75a.374.374 0 0 1-.375-.375m.75 0a.375.375 0 0 1-.375.375m7.336-.75a.375.375 0 0 0-.375.375m.75 0a.374.374 0 0 0-.375-.375m0 .75a.374.374 0 0 0 .375-.375m-.75 0a.375.375 0 0 0 .375.375"/><path class="a" d="M19.446 13.305l2.761 8.283a1.262 1.262 0 0 1-1.2 1.662h-6.529a.978.978 0 0 1-.978-.978v-2.595m-8.946-6.372l-2.761 8.283a1.262 1.262 0 0 0 1.2 1.662h6.529a.978.978 0 0 0 .978-.978v-2.595"/></svg>