<svg xmlns="http://www.w3.org/2000/svg" viewBox="0 0 24 24" width="24" height="24"><defs><style>.a{fill:none;stroke:#000;stroke-linecap:round;stroke-linejoin:round;stroke-width:1.5px}</style></defs><title>history-chinese-lantern-1</title><rect class="a" x=".75" y="7.125" width="10.5" height="13.5" rx="2" ry="2"/><path class="a" d="M11.25 10.875H.75m10.5 6H.75M3 20.625v2.25m3-2.25v2.25m3-2.25v2.25M3.75 7.125v-2.25a.75.75 0 0 1 .75-.75h3a.75.75 0 0 1 .75.75v2.25m-2.25-6v3"/><rect class="a" x="14.25" y="3.375" width="9" height="11.25" rx="1.5" ry="1.5"/><path class="a" d="M18.75 3.375v-2.25m-3 13.5v2.25m3-2.25v2.25m3-2.25v2.25m-7.5-9.75h9m-9 3.75h9"/></svg>