<svg xmlns="http://www.w3.org/2000/svg" viewBox="0 0 24 24" width="24" height="24"><defs><style>.a{fill:none;stroke:#000;stroke-linecap:round;stroke-linejoin:round;stroke-width:1.5px}</style></defs><title>history-spartan-mask</title><path class="a" d="M20.25 8.25A.75.75 0 0 1 21 9v7.777a6 6 0 0 1-2.82 5.088l-2.032 1.271A.751.751 0 0 1 15 22.5V15h1.5a1.5 1.5 0 0 0 0-3h-9a1.5 1.5 0 0 0 0 3H9v7.5a.751.751 0 0 1-1.148.636L5.82 21.865A6 6 0 0 1 3 16.777V9a.75.75 0 0 1 .75-.75zm-16.997.188a9.754 9.754 0 0 1 17.494 0M12 .75v4.5"/></svg>