<svg xmlns="http://www.w3.org/2000/svg" viewBox="0 0 24 24" width="24" height="24"><defs><style>.a{fill:none;stroke:#000;stroke-linecap:round;stroke-linejoin:round;stroke-width:1.5px}</style></defs><title>history-fan</title><path class="a" d="M12 3.223a11.35 11.35 0 0 1 11.226 7.947.493.493 0 0 1-.29.612L12 16.061 1.064 11.782a.494.494 0 0 1-.29-.612A11.35 11.35 0 0 1 12 3.223zm3.75 16.054L12 16.061l-3.75 3.216a5.438 5.438 0 0 0 7.5 0zm-2.452-8.036l2.05-7.616m.012 8.484l4.883-5.747M8.64 12.109L3.757 6.362m6.945 4.879l-2.05-7.616"/><path class="a" d="M16.95 14.124a4.942 4.942 0 0 0-4.95-3 4.942 4.942 0 0 0-4.95 3"/></svg>