<svg xmlns="http://www.w3.org/2000/svg" viewBox="0 0 24 24" width="24" height="24"><defs><style>.a{fill:none;stroke:#000;stroke-linecap:round;stroke-linejoin:round;stroke-width:1.5px}</style></defs><title>history-noah&amp;apos;s-ark</title><path class="a" d="M23.25 13.5a1.5 1.5 0 0 0-1.5 1.5v.75a6 6 0 0 1-6 6h-6a6 6 0 0 1-6-6l.5-4.024a1.758 1.758 0 1 0-3.5-.218V12"/><path class="a" d="M17.25 17.25h.084a6.007 6.007 0 0 0 2.683-.633l1.733-.867m-10.5 1.5h3.001M3.75 15.75l1.733.867a6.007 6.007 0 0 0 2.683.633h.084m6-16.5v16.5m-3.001-3.873a6 6 0 0 1 0-11.127"/><circle class="a" cx="9.75" cy="17.25" r="1.5"/><circle class="a" cx="15.75" cy="17.25" r="1.5"/><path class="a" d="M12.75 23.25l-1.877-5.005m7.877 5.005l-1.877-5.005"/></svg>