<svg xmlns="http://www.w3.org/2000/svg" viewBox="0 0 24 24" width="24" height="24"><defs><style>.a{fill:none;stroke:#000;stroke-linecap:round;stroke-linejoin:round;stroke-width:1.5px}</style></defs><title>history-man-caveman</title><path class="a" d="M7.477 6.335A8.714 8.714 0 0 0 13.751 9a8.725 8.725 0 0 0 3.449-.71"/><path class="a" d="M17.25 9v5.25a5.25 5.25 0 0 1-10.5 0V9a5.25 5.25 0 1 1 10.5 0zm3.4 14.25a9.781 9.781 0 0 0-5.565-4.75m-6.17 0a9.781 9.781 0 0 0-5.565 4.75"/><path class="a" d="M9.75.75l2.251 3 2.249-3m-.75 12.661c2.171-.282 3.754-1.282 3.754-3.661m-10.503 0c0 2.379 1.582 3.378 3.752 3.661"/><path class="a" d="M10.5 12v2.25a1.5 1.5 0 0 0 3 0V12"/></svg>