<svg xmlns="http://www.w3.org/2000/svg" viewBox="0 0 24 24" width="24" height="24"><defs><style>.a{fill:none;stroke:#000;stroke-linecap:round;stroke-linejoin:round;stroke-width:1.5px}</style></defs><title>history-witch-cauldron</title><path class="a" d="M3.75 14.25v.375c0 3.935 3.694 7.125 8.25 7.125s8.25-3.19 8.25-7.125v-.375M6.47 19.913A2.25 2.25 0 0 1 4.5 23.25m13.03-3.337a2.25 2.25 0 0 0 1.97 3.337m-7.5-9V6m3 8.25V9m-6 5.25V7.5m6.75-.75a1.5 1.5 0 0 1 1.5-1.5 1.5 1.5 0 0 0 1.5-1.5M9 4.5A1.5 1.5 0 0 1 10.5 3m2.25.75a1.5 1.5 0 0 1 1.5-1.5 1.5 1.5 0 0 0 1.5-1.5M1.5 14.25h21"/></svg>