<svg xmlns="http://www.w3.org/2000/svg" viewBox="0 0 24 24" width="24" height="24"><defs><style>.a{fill:none;stroke:#000;stroke-linecap:round;stroke-linejoin:round;stroke-width:1.5px}</style></defs><title>history-sphinx</title><path class="a" d="M6.384 2.25A11.244 11.244 0 0 0 .75 12v2.75a3 3 0 0 0 .6 1.8l1.05 1.4a3 3 0 0 1 .6 1.8v.5a3 3 0 0 0 3 3h1.5v-6m9 0v6H18a3 3 0 0 0 3-3v-.5a3 3 0 0 1 .6-1.8l1.05-1.4a3 3 0 0 0 .6-1.8V12a11.244 11.244 0 0 0-5.634-9.75"/><path class="a" d="M6 6.75a7.5 7.5 0 1 0 12 0z"/><path class="a" d="M10.5 6.75l-1-2.5a2.549 2.549 0 0 1 2.364-3.5h.272a2.549 2.549 0 0 1 2.366 3.5l-1 2.505m-3.028 11.84l.776 4.655h1.5l.776-4.655M10.5 10.5A1.631 1.631 0 0 0 9 9.75a1.631 1.631 0 0 0-1.5.75h-.75m6.75 0a1.631 1.631 0 0 1 1.5-.75 1.631 1.631 0 0 1 1.5.75h.75M6 6.75L4.453 3.657M18 6.75l1.547-3.093"/></svg>