<svg xmlns="http://www.w3.org/2000/svg" viewBox="0 0 24 24" width="24" height="24"><defs><style>.a{fill:none;stroke:#000;stroke-linecap:round;stroke-linejoin:round;stroke-width:1.5px}</style></defs><title>history-africa</title><path class="a" d="M12 9c3.75 3 8.25-.75 8.25 4.8a1.954 1.954 0 0 1-1.95 1.95c-1.8 0-1.046-2.25-6.3-2.25s-4.5 2.25-6.3 2.25a1.954 1.954 0 0 1-1.95-1.95C3.75 8.25 8.25 12 12 9z"/><path class="a" d="M19.5 11.142v-1.108A3 3 0 0 0 17.123 7.1C15.1 6.672 12.453 5.86 12 4.5c-.453 1.36-3.1 2.172-5.123 2.6A3 3 0 0 0 4.5 10.034v1.107m11.25 11.106a7.511 7.511 0 0 1-7.5 0"/><path class="a" d="M10.169 6.086a4.581 4.581 0 0 1-.419-1.961C9.75 2.261 12 .75 12 .75s2.25 1.511 2.25 3.375a4.585 4.585 0 0 1-.419 1.961m1.182.459a4.711 4.711 0 0 1 .191-1.7c.531-1.787 3.117-2.6 3.117-2.6s1.728 2.088 1.2 3.876a4.62 4.62 0 0 1-.943 1.743M8.987 6.545a4.711 4.711 0 0 0-.191-1.7c-.531-1.787-3.117-2.6-3.117-2.6s-1.728 2.088-1.2 3.876a4.612 4.612 0 0 0 .946 1.749M19.5 15.335v4.915"/><circle class="a" cx="19.5" cy="21.75" r="1.5"/><path class="a" d="M4.5 15.335v4.915"/><circle class="a" cx="4.5" cy="21.75" r="1.5"/></svg>