<svg xmlns="http://www.w3.org/2000/svg" viewBox="0 0 24 24" width="24" height="24"><defs><style>.a{fill:none;stroke:#000;stroke-linecap:round;stroke-linejoin:round;stroke-width:1.5px}</style></defs><title>history-fish</title><path class="a" d="M8.148 6.027a2.765 2.765 0 0 0-4.178.441 9.735 9.735 0 0 0-.184 10.774c-.946 1.363-1.129 4.077.714 5.305L6.75 20.3h3C9.2 16.982 7.325 16.518 6 16.5c-.019-.249-.041-.5-.041-.752a9.5 9.5 0 0 1 2.359-5.92 2.735 2.735 0 0 0-.17-3.801zm-.369 4.476l1.25 2.232M3.002 8.238l-2.255.756m15.105 8.979a2.765 2.765 0 0 0 4.178-.441 9.735 9.735 0 0 0 .184-10.774c.946-1.363 1.129-4.077-.714-5.3L17.25 3.7h-3c.55 3.318 2.425 3.782 3.75 3.8.019.249.041.5.041.752a9.5 9.5 0 0 1-2.359 5.922 2.735 2.735 0 0 0 .17 3.799zm.369-4.476l-1.25-2.232m6.027 4.497l2.255-.756"/></svg>