<svg xmlns="http://www.w3.org/2000/svg" viewBox="0 0 24 24" width="24" height="24"><defs><style>.a{fill:none;stroke:#000;stroke-linecap:round;stroke-linejoin:round;stroke-width:1.5px}</style></defs><title>history-indian-feather</title><path class="a" d="M18.16 16.3l2.845-3A11.252 11.252 0 0 0 3 13.29l2.85 3.01m1.6 1.12a5.252 5.252 0 0 1 9.093-.012M5.1 15.513a8.252 8.252 0 0 1 13.8.005"/><path class="a" d="M13.841 8.941a7.251 7.251 0 0 0 .409-2.4v-2.25c0-.827-1-2.214-1.663-3.05a.751.751 0 0 0-1.173 0c-.667.835-1.664 2.223-1.664 3.05v2.25a7.251 7.251 0 0 0 .409 2.4m7.604 1.438a5.551 5.551 0 0 0 .54-.995l.661-1.584a4.824 4.824 0 0 0-.214-2.413.75.75 0 0 0-1.1-.457 4.847 4.847 0 0 0-1.86 1.544l-.661 1.587a5.584 5.584 0 0 0-.329 1.082m6.021 3.915a5.252 5.252 0 0 0 .593-.525l1.1-1.137a4.237 4.237 0 0 0 .638-1.988.75.75 0 0 0-.869-.843 4.234 4.234 0 0 0-1.968.7l-1.1 1.136a5.23 5.23 0 0 0-.507.609m-12.471-.631a5.551 5.551 0 0 1-.54-.995L5.036 7.8a4.824 4.824 0 0 1 .214-2.416.751.751 0 0 1 1.1-.457 4.839 4.839 0 0 1 1.86 1.547l.661 1.587A5.584 5.584 0 0 1 9.2 9.143m-6.021 3.915a5.252 5.252 0 0 1-.593-.525L1.484 11.4a4.237 4.237 0 0 1-.638-1.992.75.75 0 0 1 .869-.843 4.234 4.234 0 0 1 1.968.7l1.1 1.136a5.23 5.23 0 0 1 .507.609"/><circle class="a" cx="6" cy="17.791" r="1.5"/><path class="a" d="M6 23.041v-3.75"/><circle class="a" cx="18" cy="17.791" r="1.5"/><path class="a" d="M18 23.041v-3.75"/></svg>