<svg xmlns="http://www.w3.org/2000/svg" viewBox="0 0 24 24" width="24" height="24"><defs><style>.a{fill:none;stroke:#000;stroke-linecap:round;stroke-linejoin:round;stroke-width:1.5px}</style></defs><title>historical-building-pillar</title><path class="a" d="M14.258 8.25h-4.5m0-3h4.5m2.992 6v12m-10.5 0v-12m3 0v12m4.5-12v12M3.774 4.359a1.876 1.876 0 0 1 1.338-.444 2.351 2.351 0 0 1 2.2 2.5 2.937 2.937 0 0 1-3.123 2.74 3.671 3.671 0 0 1-3.431-3.9V5.25a4.5 4.5 0 0 1 4.5-4.5h13.484a4.5 4.5 0 0 1 4.5 4.5v.006a3.671 3.671 0 0 1-3.431 3.9 2.937 2.937 0 0 1-3.119-2.746 2.351 2.351 0 0 1 2.2-2.495 1.874 1.874 0 0 1 1.362.465"/></svg>