<svg xmlns="http://www.w3.org/2000/svg" viewBox="0 0 24 24" width="24" height="24"><defs><style>.a{fill:none;stroke:#000;stroke-linecap:round;stroke-linejoin:round;stroke-width:1.5px}</style></defs><title>history-urn</title><path class="a" d="M15.847.75c-3.913 5.38 4.339 8.12 4.4 13.011a13.466 13.466 0 0 1-3.431 8.991 1.5 1.5 0 0 1-1.117.5H8.3a1.5 1.5 0 0 1-1.117-.5 13.466 13.466 0 0 1-3.431-8.991C3.814 8.87 12.066 6.13 8.153.75M4.126 12h15.747M5.044 19.5H18.97"/><path class="a" d="M19.986 16.5h-3a.489.489 0 0 1-.489-.489v-.522a.489.489 0 0 0-.491-.489h-2.024a.489.489 0 0 0-.489.489v.522A.489.489 0 0 1 13 16.5h-2.009a.489.489 0 0 1-.489-.489v-.522a.489.489 0 0 0-.489-.489H7.987a.489.489 0 0 0-.489.489v.522a.489.489 0 0 1-.489.489H4.014M6 .75h12"/></svg>