<svg xmlns="http://www.w3.org/2000/svg" viewBox="0 0 24 24" width="24" height="24"><defs><style>.a{fill:none;stroke:#000;stroke-linecap:round;stroke-linejoin:round;stroke-width:1.5px}</style></defs><title>historical-building-castle</title><path class="a" d="M4.5 23.25l2.25-15h10.5l2.25 15M12 12v3m-1.5-1.5h3M5.25 2.25v4.5a1.5 1.5 0 0 0 1.5 1.5h10.5a1.5 1.5 0 0 0 1.5-1.5v-4.5zm-.75 21H.75v-9h5.1"/><path class="a" d="M19.5 23.25h3.75v-9h-5.1m-3.9 9v-3a2.25 2.25 0 0 0-4.5 0v3m-4.5-21V.75m13.5 0v1.5m-18 12v-1.5m22.5 1.5v-1.5"/></svg>