<svg xmlns="http://www.w3.org/2000/svg" viewBox="0 0 24 24" width="24" height="24"><defs><style>.a{fill:none;stroke:#000;stroke-linecap:round;stroke-linejoin:round;stroke-width:1.5px}</style></defs><title>history-indian-eagle</title><path class="a" d="M23.25 8.183C23.236 20.158.736 20.21.75 8.183z"/><path class="a" d="M8.25 20.933a3.75 3.75 0 0 1 7.5 0zm0 0v2.25m3.75-2.25v2.25m3.75-2.25v2.25m-6-15v8.843m4.5-8.843v8.834m0-11.834v-1.5c0-5.82-7.5-1.454-7.5 1.5h3m12.66 6.681l-3.339-1.181m-.435 4.92L17 13.774M1.577 11.868l3.352-1.185m.421 4.936L7 13.774"/></svg>