<svg xmlns="http://www.w3.org/2000/svg" viewBox="0 0 24 24" width="24" height="24"><defs><style>.a{fill:none;stroke:#000;stroke-linecap:round;stroke-linejoin:round;stroke-width:1.5px}</style></defs><title>history-empire</title><path class="a" d="M3 22.875h3.75a.75.75 0 0 0 .75-.75v-1.5a.75.75 0 0 0-.75-.75h-1.5a.75.75 0 0 1-.75-.75v-1.5a.75.75 0 0 1 .75-.75h4.5a.75.75 0 0 1 .75.75v4.5a.75.75 0 0 0 .75.75h4.5a.75.75 0 0 0 .75-.75v-1.5a.75.75 0 0 0-.75-.75h-1.5a.75.75 0 0 1-.75-.75v-1.5a.75.75 0 0 1 .75-.75h4.5a.75.75 0 0 1 .75.75v5.25M3.75 5.625h16.5v3H3.75zm.75 0l7-4.414a1.487 1.487 0 0 1 1 0l7 4.414M.75 13.875h22.5M4.5 8.625v5.25m5.25-5.25v5.25m4.5-5.25v5.25m5.25-5.25v5.25"/></svg>