<svg xmlns="http://www.w3.org/2000/svg" viewBox="0 0 24 24" width="24" height="24"><defs><style>.a{fill:none;stroke:#000;stroke-linecap:round;stroke-linejoin:round;stroke-width:1.5px}</style></defs><title>historical-building-tower</title><path class="a" d="M19.5.75a.75.75 0 0 1 .75.75v6a.75.75 0 0 1-.75.75h-15a.75.75 0 0 1-.75-.75v-6A.75.75 0 0 1 4.5.75h2.25a.75.75 0 0 1 .75.75v.75a1.5 1.5 0 0 0 3 0V1.5a.75.75 0 0 1 .75-.75h1.5a.75.75 0 0 1 .75.75v.75a1.5 1.5 0 0 0 3 0V1.5a.75.75 0 0 1 .75-.75zM5.25 8.25l-1.5 15h16.5l-1.5-15H5.25z"/><path class="a" d="M14.25 23.25h-4.5V18a2.25 2.25 0 0 1 4.5 0zm-13.5 0h22.5"/></svg>