<svg xmlns="http://www.w3.org/2000/svg" viewBox="0 0 24 24" width="24" height="24"><defs><style>.a{fill:none;stroke:#000;stroke-linecap:round;stroke-linejoin:round;stroke-width:1.5px}</style></defs><title>history-geisha</title><path class="a" d="M12 19.5a.375.375 0 0 1 .375.375m-.75 0A.375.375 0 0 1 12 19.5m0 .75a.375.375 0 0 1-.375-.375m.75 0a.375.375 0 0 1-.375.375M14.905 3h4.921M2.707 3h6.388m.165 1.97C4.371 6.087.75 10.125.75 14.935a9.416 9.416 0 0 0 .244 2.134.981.981 0 0 0 1.227.718l2.53-.738m14.498 0l2.53.738a.98.98 0 0 0 1.227-.718 9.416 9.416 0 0 0 .244-2.134c0-4.81-3.621-8.848-8.51-9.965"/><path class="a" d="M18.1 11.829a2.581 2.581 0 0 0-2.9-1.029 6.123 6.123 0 0 0-2.555 1.533.918.918 0 0 1-1.3 0A6.123 6.123 0 0 0 8.8 10.8a2.581 2.581 0 0 0-2.9 1.029 7.337 7.337 0 1 0 12.192 0zM7.6 14.372a2.558 2.558 0 0 1 2.445.489m6.355-.489a2.558 2.558 0 0 0-2.445.489"/><circle class="a" cx="12" cy="3.75" r="3"/></svg>