<svg xmlns="http://www.w3.org/2000/svg" viewBox="0 0 24 24" width="24" height="24"><defs><style>.a{fill:none;stroke:#000;stroke-linecap:round;stroke-linejoin:round;stroke-width:1.5px}</style></defs><title>history-man-viking</title><path class="a" d="M17.25 6v5.25a5.25 5.25 0 0 1-10.5 0V6a5.25 5.25 0 1 1 10.5 0zm4.385 17.25a9.763 9.763 0 0 0-6.55-7.752m-6.17.002a9.763 9.763 0 0 0-6.55 7.752m4.5-16.502H17.25"/><path class="a" d="M6.968 4.5H6.75A3.75 3.75 0 0 1 3 .75c.071 3.72-.011 5.859 3.75 7.45m10.324-3.7h.218a3.75 3.75 0 0 0 3.75-3.75c-.073 3.841.142 5.8-3.792 7.47M5.123 17.842a9 9 0 0 0 12.948-.721M9.75 20.125v3.125m-3-14.915a6.453 6.453 0 0 0 2.315 4.415c.917.5 1.586-1.39 2.935-1.39m0 0c1.349 0 2.018 1.892 2.935 1.39a6.453 6.453 0 0 0 2.315-4.415"/></svg>