<svg xmlns="http://www.w3.org/2000/svg" viewBox="0 0 24 24" width="24" height="24"><defs><style>.a{fill:none;stroke:#000;stroke-linecap:round;stroke-linejoin:round;stroke-width:1.5px}</style></defs><title>history-chinese-lantern</title><path class="a" d="M5.25 20.175v1.575a1.5 1.5 0 0 0 1.5 1.5h4.5a1.5 1.5 0 0 0 1.5-1.5v-1.575m0-7.35V11.25a1.5 1.5 0 0 0-1.5-1.5h-4.5a1.5 1.5 0 0 0-1.5 1.5v1.575M9 9.75V2.823"/><path class="a" d="M15.75 16.5A3.75 3.75 0 0 1 12 20.25H6a3.75 3.75 0 0 1 0-7.5h6a3.75 3.75 0 0 1 3.75 3.75zM.75.75s8.25 3 22.5 3.75M1.5.999V4.5m3.75-2.479V5.25m7.5-1.793V6.75m3.75-2.803V7.5m3.75-3.196V8.25"/><ellipse class="a" cx="9" cy="16.5" rx="2.25" ry="3.75"/></svg>