<svg xmlns="http://www.w3.org/2000/svg" viewBox="0 0 24 24" width="24" height="24"><defs><style>.a{fill:none;stroke:#000;stroke-linecap:round;stroke-linejoin:round;stroke-width:1.5px}</style></defs><title>history-vase</title><path class="a" d="M1.775 10.5h20.45M2.317 18h19.366m.785-3h-5.49a.489.489 0 0 1-.489-.489v-.522A.489.489 0 0 0 16 13.5h-2.024a.489.489 0 0 0-.489.489v.522A.489.489 0 0 1 13 15h-2.015a.489.489 0 0 1-.489-.489v-.522a.489.489 0 0 0-.489-.489H7.981a.489.489 0 0 0-.489.489v.522A.489.489 0 0 1 7 15H1.531"/><path class="a" d="M14.25.75V2.1a3 3 0 0 0 1.389 2.531l4.082 2.6a6 6 0 0 1 2.779 5.063v1.956a9 9 0 0 1-9 9h-3a9 9 0 0 1-9-9v-1.956a6 6 0 0 1 2.779-5.062l4.082-2.6A3 3 0 0 0 9.75 2.1V.75M7.5.75h9"/></svg>