<svg xmlns="http://www.w3.org/2000/svg" viewBox="0 0 24 24" width="24" height="24"><defs><style>.a{fill:none;stroke:#000;stroke-linecap:round;stroke-linejoin:round;stroke-width:1.5px}</style></defs><title>history-geisha-1</title><path class="a" d="M14.625 15.75a.375.375 0 0 1 .375.375m-.75 0a.375.375 0 0 1 .375-.375m0 .75a.375.375 0 0 1-.375-.375m.75 0a.375.375 0 0 1-.375.375m-5.25-.75a.375.375 0 0 1 .375.375m-.75 0a.375.375 0 0 1 .375-.375m0 .75A.375.375 0 0 1 9 16.125m.75 0a.375.375 0 0 1-.375.375"/><path class="a" d="M15.715 10.891a.751.751 0 0 0-1.075.272 2.989 2.989 0 0 1-5.28 0 .752.752 0 0 0-1.075-.272 6.75 6.75 0 1 0 7.43 0z"/><path class="a" d="M15.658 4.405a9.039 9.039 0 0 1 6.092 8.345 8.788 8.788 0 0 1-3.981 7.256"/><path class="a" d="M15.75 3.75A2.25 2.25 0 0 1 13.5 6h-3a2.25 2.25 0 0 1 0-4.5h3a2.25 2.25 0 0 1 2.25 2.25z"/><path class="a" d="M6.231 20.006A8.788 8.788 0 0 1 2.25 12.75 9.039 9.039 0 0 1 8.347 4.4M18.75.75l-3 3h3.75M5.25.75l3 3H4.5"/></svg>