<svg id="Regular" xmlns="http://www.w3.org/2000/svg" viewBox="0 0 24 24" width="24" height="24"><defs><style>.cls-1{fill:none;stroke:#000;stroke-linecap:round;stroke-linejoin:round;stroke-width:1.5px}</style></defs><title>hockey-puck-stick</title><circle class="cls-1" cx="3" cy="13.5" r="2.25"/><path class="cls-1" d="M22.211.822a1.5 1.5 0 0 0-1.888.967L15.187 17.71a1.5 1.5 0 0 1-1.428 1.04H7.5a2.25 2.25 0 0 0 0 4.5h6.867a3 3 0 0 0 2.855-2.079l5.955-18.46a1.5 1.5 0 0 0-.966-1.889zM9 18.75l4.5 4.5m2.668-8.582l2.383 2.383m-.005-9.755l2.383 2.383"/></svg>