<svg xmlns="http://www.w3.org/2000/svg" viewBox="0 0 24 24" width="24" height="24"><g fill="none" stroke="#000" stroke-linejoin="round" stroke-miterlimit="10"><path d="M2.5 15.5v8h19v-8m-13 0h-8l3-7h6.152m4.696 0H20.5l3 7h-8m-11-11h2v4h-2z"/><path stroke-linecap="round" d="M3.516 4.5H7.5"/><path d="M17.5 4.5h2v4h-2z"/><path stroke-linecap="round" d="M16.516 4.5H20.5m-12 8h7v11h-7zM12 5.521l5.5 6.979h-11z"/><path d="M17.5 17.5h2v2h-2zm-13 0h2v2h-2zm6 0h3v6h-3z"/></g><path fill="none" d="M0 0h24v24H0z"/></svg>