<svg xmlns="http://www.w3.org/2000/svg" viewBox="0 0 24 24" width="24" height="24"><g fill="none" stroke="#000" stroke-linejoin="round" stroke-miterlimit="10"><path d="M3.863 9.89C1.083 16 6.853 22.5 8.923 22.5h6.139c1.544 0 7.979-6.5 4.961-12.738"/><path stroke-linecap="round" d="M17.5 3.5a1 1 0 00-1-1h-9a1 1 0 00-1 1v2h11v-2z"/><path stroke-linecap="round" d="M6.755 5.5a.5.5 0 00-.373.167L3.329 9.082a.5.5 0 00.533.808C6.013 9.16 6.407 8.519 7.5 8.531c2.018.022 2.508 1.96 4.5 1.953 2.031-.007 2.388-1.983 4.453-1.953 1 .015 1.486.624 3.756 1.376a.502.502 0 00.529-.809l-3.089-3.432a.499.499 0 00-.372-.166H6.755z"/><circle stroke-linecap="round" cx="9" cy="17" r="1"/><circle stroke-linecap="round" cx="12" cy="19" r="1"/><circle stroke-linecap="round" cx="13" cy="16" r="1"/></g><path fill="none" d="M0 0h24v24H0z"/></svg>