<svg xmlns="http://www.w3.org/2000/svg" viewBox="0 0 24 24" width="24" height="24"><g fill="none" stroke="#000" stroke-linejoin="round" stroke-miterlimit="10"><path stroke-linecap="round" d="M12.857 6.17l8.757-4.207"/><path d="M10.582 3.975a1.001 1.001 0 011.35.423l1.853 3.545a1.001 1.001 0 01-1.773.927l-1.853-3.545a1 1 0 01.423-1.35z"/><path stroke-linecap="round" d="M8.002 9.847l-1.388-2.67a1.001 1.001 0 011.773-.927l1.618 3.097"/><path d="M10.005 9.347L7.923 5.364a1.001 1.001 0 011.773-.927l2.316 4.432"/><circle cx="22.5" cy="1.5" r="1"/><path d="M16.5 17.5a1 1 0 01-1 1h-14a1 1 0 01-1-1v-1a1 1 0 011-1h14a1 1 0 011 1v1zm-2 1h-12v.05a4.95 4.95 0 004.95 4.95h2.1a4.95 4.95 0 004.95-4.95v-.05z"/><path stroke-linecap="round" d="M12.502 11v.846a1 1 0 01-1 1c-.552 0-1-.793-1-1.346a2 2 0 01-4 0V11"/></g><path fill="none" d="M0 0h24v24H0z"/></svg>