<svg xmlns="http://www.w3.org/2000/svg" viewBox="0 0 24 24" width="24" height="24"><g fill="none" stroke="#000" stroke-linejoin="round" stroke-miterlimit="10"><path d="M4.5 5.5h15a1 1 0 001-1v-2a1 1 0 00-1-1h-15a1 1 0 00-1 1v2a1 1 0 001 1zm15.005 0s3 1.752 3 5c0 3.826-2.503 12-6 12H7.5c-3.498 0-6-8.174-6-12 0-3.248 3-5 3-5"/><path d="M13.502 8.5l1.5 2.5-1.5 2.5h-3l-1.5-2.5 1.5-2.5zm0 5l1.5 2.5-1.5 2.5h-3l-1.5-2.5 1.5-2.5z"/><path d="M18.002 11l1.5 2.5-1.5 2.5h-3l-1.5-2.5 1.5-2.5zm-9 0l1.5 2.5-1.5 2.5h-3l-1.5-2.5 1.5-2.5z"/></g><path fill="none" d="M0 0h24v24H0z"/></svg>