<svg id="Regular" xmlns="http://www.w3.org/2000/svg" viewBox="0 0 24 24" width="24" height="24"><defs><style>.cls-1{fill:none;stroke:#000;stroke-linecap:round;stroke-linejoin:round;stroke-width:1.5px}</style></defs><title>hospital-sign-square</title><rect class="cls-1" x=".75" y=".75" width="22.5" height="22.5" rx="3" ry="3"/><path class="cls-1" d="M14.25 6v3.75h-4.5V6A.75.75 0 0 0 9 5.25H6a.75.75 0 0 0-.75.75v12a.75.75 0 0 0 .75.75h3a.75.75 0 0 0 .75-.75v-3.75h4.5V18a.75.75 0 0 0 .75.75h3a.75.75 0 0 0 .75-.75V6a.75.75 0 0 0-.75-.75h-3a.75.75 0 0 0-.75.75z"/></svg>