<svg xmlns="http://www.w3.org/2000/svg" viewBox="0 0 24 24" width="24" height="24"><g fill="none" stroke="#000" stroke-linecap="round" stroke-linejoin="round" stroke-miterlimit="10"><path d="M17.5 10.453V23.5m-11 0V10.438m11 13.062v-11h6v11m-23 0v-11h6v11m-6 0h23"/><circle cx="12" cy="7" r="6.5"/><path d="M15.5 5.5h-2l.001-2h-3l-.001 2h-2v3h2v2h3v-2h2zm-13 9h2m-2 2h2m-2 2h2m-2 2h2m15-6h2m-2 2h2m-2 2h2m-2 2h2m-13-5h1m-1 2h1m-1 2h1m2-4h1m-1 2h1m-1 2h1m2-4h1m-1 2h1m-1 2h1m-5 2h3v2h-3z"/></g><path fill="none" d="M0 0h24v24H0z"/></svg>