<svg xmlns="http://www.w3.org/2000/svg" viewBox="0 0 24 24" width="24" height="24"><g fill="none" stroke="#000" stroke-linecap="round" stroke-linejoin="round" stroke-miterlimit="10"><circle cx="7.5" cy="4.5" r="4"/><path d="M14.5 15.5v-4c0-.55-.449-1-1-1h-12c-.55 0-1 .45-1 1v12"/><path d="M23.5 23.5v-7c0-.55-.449-1-1-1h-12c-.55 0-1 .45-1 1v7m-6-10h8m-8 3h6m-6 3h6m-2-17v4m2-2h-4m2 4v2m-7 13h23"/><path d="M15.5 21.5h2v2h-2zm-4-2h1m0-2h-1m3 2h1m0-2h-1m3 2h1m0-2h-1m3 2h1m0-2h-1"/></g><path fill="none" d="M0 0h24v24H0z"/></svg>