<svg id="Regular" xmlns="http://www.w3.org/2000/svg" viewBox="0 0 24 24" width="24" height="24"><defs><style>.cls-1{fill:none;stroke:#000;stroke-linecap:round;stroke-linejoin:round;stroke-width:1.5px}</style></defs><title>hospital-shield</title><path class="cls-1" d="M17.25 9a.75.75 0 0 0-.75-.75h-2.25V6a.75.75 0 0 0-.75-.75h-3a.75.75 0 0 0-.75.75v2.25H7.5a.75.75 0 0 0-.75.75v3a.75.75 0 0 0 .75.75h2.25V15a.75.75 0 0 0 .75.75h3a.75.75 0 0 0 .75-.75v-2.25h2.25a.75.75 0 0 0 .75-.75z"/><path class="cls-1" d="M2.25 3.923v7.614A11.907 11.907 0 0 0 9.882 22.65l1.041.4a3 3 0 0 0 2.154 0l1.041-.4a11.907 11.907 0 0 0 7.632-11.113V3.923a1.486 1.486 0 0 0-.868-1.362A21.7 21.7 0 0 0 12 .75a21.7 21.7 0 0 0-8.882 1.811 1.486 1.486 0 0 0-.868 1.362z"/></svg>