<svg id="Regular" xmlns="http://www.w3.org/2000/svg" viewBox="0 0 24 24" width="24" height="24"><defs><style>.cls-1{fill:none;stroke:#000;stroke-linecap:round;stroke-linejoin:round;stroke-width:1.5px}</style></defs><title>hospital-bedroom-graph</title><circle class="cls-1" cx="7.5" cy="16.5" r="2.25"/><path class="cls-1" d="M12 14.25h8.5a2 2 0 0 1 2 2v2.5H12v-4.5zm-10.5 4.5h21v3h-21zm0 4.5v-9m21 9v-1.5"/><rect class="cls-1" x="4.5" y=".75" width="15" height="9" rx="1" ry="1"/><path class="cls-1" d="M4.5 5.25h3.349a.75.75 0 0 0 .624-.334l.77-1.155a.75.75 0 0 1 1.157-.114l3.32 3.323a.749.749 0 0 0 1.06 0l1.5-1.5a.751.751 0 0 1 .531-.22H19.5"/></svg>