<svg id="Regular" xmlns="http://www.w3.org/2000/svg" viewBox="0 0 24 24" width="24" height="24"><defs><style>.cls-1{fill:none;stroke:#000;stroke-linecap:round;stroke-linejoin:round;stroke-width:1.5px}</style></defs><title>hospital-house</title><path class="cls-1" d="M3.75 12.75v9a1.5 1.5 0 0 0 1.5 1.5h13.5a1.5 1.5 0 0 0 1.5-1.5v-9m3-1.5L12 .75.75 11.25"/><path class="cls-1" d="M16.5 13.5a.75.75 0 0 0-.75-.75H13.5V10.5a.75.75 0 0 0-.75-.75h-1.5a.75.75 0 0 0-.75.75v2.25H8.25a.75.75 0 0 0-.75.75V15a.75.75 0 0 0 .75.75h2.25V18a.75.75 0 0 0 .75.75h1.5a.75.75 0 0 0 .75-.75v-2.25h2.25a.75.75 0 0 0 .75-.75z"/></svg>