<svg id="Regular" xmlns="http://www.w3.org/2000/svg" viewBox="0 0 24 24" width="24" height="24"><defs><style>.cls-1{fill:none;stroke:#000;stroke-linecap:round;stroke-linejoin:round;stroke-width:1.5px}</style></defs><title>hospital-sign</title><path class="cls-1" d="M1.5.75v22.5M6 6.75H1.5M6 17.25H1.5m17.25-7.5H16.5V7.5a.75.75 0 0 0-.75-.75h-3a.75.75 0 0 0-.75.75v2.25H9.75a.75.75 0 0 0-.75.75v3a.75.75 0 0 0 .75.75H12v2.25a.75.75 0 0 0 .75.75h3a.75.75 0 0 0 .75-.75v-2.25h2.25a.75.75 0 0 0 .75-.75v-3a.75.75 0 0 0-.75-.75z"/><rect class="cls-1" x="6" y="3.75" width="16.5" height="16.5" rx="1" ry="1"/></svg>