<svg id="Regular" xmlns="http://www.w3.org/2000/svg" viewBox="0 0 24 24" width="24" height="24"><defs><style>.cls-1{fill:none;stroke:#000;stroke-linecap:round;stroke-linejoin:round;stroke-width:1.5px}</style></defs><title>hospital-bedroom</title><circle class="cls-1" cx="7.5" cy="16.5" r="2.25"/><path class="cls-1" d="M12 14.25h8.5a2 2 0 0 1 2 2v2.5H12v-4.5zm-10.5 4.5h21v3h-21zm0 4.5v-9m21 9v-1.5m-5.25-18H15V1.5a.75.75 0 0 0-.75-.75h-3a.75.75 0 0 0-.75.75v2.25H8.25a.75.75 0 0 0-.75.75v3a.75.75 0 0 0 .75.75h2.25v2.25a.75.75 0 0 0 .75.75h3a.75.75 0 0 0 .75-.75V8.25h2.25A.75.75 0 0 0 18 7.5v-3a.75.75 0 0 0-.75-.75z"/></svg>