<svg xmlns="http://www.w3.org/2000/svg" viewBox="0 0 24 24" width="24" height="24"><g fill="none" stroke="#000" stroke-linejoin="round" stroke-miterlimit="10"><path d="M9 12.5c-1.813 1.334-1.712 3.922-1 5 .489-.401.925-.839 1-1.5 1.669.661 2.5 1.969 2.5 3.5a4 4 0 11-8 0c0-3.227 2.324-6.27 5.5-7z"/><path d="M8.1 19.105c-.303.914.999 1.795.999 2.797a1.599 1.599 0 01-3.198 0c0-1.29.929-2.506 2.199-2.797z"/><path stroke-linecap="round" d="M3.953 13.974l-.999-.999L14.975.955l7.071 7.071-9.245 9.245"/><circle stroke-linecap="round" cx="12.5" cy="10.5" r="2"/><path stroke-linecap="round" d="M13.561 5.196l1.414-1.413"/></g><path fill="none" d="M0 0h24v24H0z"/></svg>