<svg xmlns="http://www.w3.org/2000/svg" viewBox="0 0 24 24" width="24" height="24"><g fill="none" stroke="#000" stroke-linejoin="round" stroke-miterlimit="10"><path stroke-linecap="round" d="M19.701 4.308a1.001 1.001 0 00-1.415 1.414.999.999 0 11-1.413 1.414.999.999 0 10-1.414 1.413 1 1 0 11-1.415 1.415.999.999 0 10-1.414 1.414.999.999 0 11-1.414 1.414 1 1 0 10-1.414 1.415.998.998 0 010 1.413.997.997 0 01-1.414 0 1 1 0 00-1.414 1.414c.39.392.39 1.023 0 1.415-.391.39-1.024.39-1.415 0a.997.997 0 00-1.414 0 .999.999 0 000 1.414"/><path stroke-linecap="round" d="M2.73 17.034a3 3 0 004.242 4.244L21.115 7.136a3.001 3.001 0 00-4.243-4.243L2.73 17.034z"/><path d="M21.893 5.782c2.073 2.15 1.706 4.527.283 5.95L11.57 22.339c-1.438 1.438-3.921 1.783-5.937-.286"/><path stroke-linecap="round" d="M1.953 18.386C-.124 16.262.25 13.858 1.67 12.44L12.277 1.832c1.408-1.41 3.576-1.809 5.974.275"/></g><path fill="none" d="M0 0h24v24H0z"/></svg>