<svg xmlns="http://www.w3.org/2000/svg" viewBox="0 0 24 24" width="24" height="24"><path fill="none" stroke="#000" stroke-linecap="round" stroke-linejoin="round" stroke-miterlimit="10" d="M21 23.5H3m5.5-10h7v10h-7zm3.5-5l2.5 5h-5z"/><path fill="none" stroke="#000" stroke-linejoin="round" stroke-miterlimit="10" d="M12 .5l1 2h2l-1.618 1.235L14 6l-2-1.5L10 6l.794-2.265L9 2.5h2zm7.5 4l1 2h2l-1.618 1.235L21.5 10l-2-1.5-2 1.5.794-2.265L16.5 6.5h2zm1 8l1 2h2l-1.618 1.235L22.5 18l-2-1.5-2 1.5.794-2.265L17.5 14.5h2zm-17 0l1 2h2l-1.618 1.235L5.5 18l-2-1.5-2 1.5.794-2.265L.5 14.5h2zm1-8l1 2h2L5.882 7.735 6.5 10l-2-1.5-2 1.5.794-2.265L1.5 6.5h2z"/><path fill="none" stroke="#000" stroke-linecap="round" stroke-linejoin="round" stroke-miterlimit="10" d="M10.5 23.5v-3h3v3m-3-8v.5m3-.5v.5m-3 2v.5m3-.5v.5"/><path fill="none" d="M0 0h24v24H0z"/></svg>