<svg xmlns="http://www.w3.org/2000/svg" viewBox="0 0 24 24" width="24" height="24"><defs><style>.a{fill:none;stroke:#000;stroke-linecap:round;stroke-linejoin:round;stroke-width:1.5px}</style></defs><title>hotel-double-bed-1</title><path class="a" d="M3 11.25V9a1.5 1.5 0 0 1 1.5-1.5h6A1.5 1.5 0 0 1 12 9v2.25m0 0V9a1.5 1.5 0 0 1 1.5-1.5h6A1.5 1.5 0 0 1 21 9v2.25m-18.25 0h18.5a2 2 0 0 1 2 2V18H.75v-4.75a2 2 0 0 1 2-2zM.75 18v3m22.5-3v3"/><path class="a" d="M21 11.25V4.5A1.5 1.5 0 0 0 19.5 3h-15A1.5 1.5 0 0 0 3 4.5v6.75"/></svg>