<svg xmlns="http://www.w3.org/2000/svg" viewBox="0 0 24 24" width="24" height="24"><defs><style>.a{fill:none;stroke:#000;stroke-linecap:round;stroke-linejoin:round;stroke-width:1.5px}</style></defs><title>hourglass</title><path class="a" d="M6 .75a1.5 1.5 0 0 0-1.5 1.5v2.367a7.5 7.5 0 0 0 15 0V2.25A1.5 1.5 0 0 0 18 .75z"/><path class="a" d="M6 23.25a1.5 1.5 0 0 1-1.5-1.5v-2.367a7.5 7.5 0 0 1 15 0v2.367a1.5 1.5 0 0 1-1.5 1.5zm-.523-15h13.046"/><path class="a" d="M18.548 23.147C17.264 20.451 14.813 18 12 18s-5.264 2.451-6.548 5.147"/></svg>