<svg xmlns="http://www.w3.org/2000/svg" viewBox="0 0 24 24" width="24" height="24"><g fill="none" stroke="#000" stroke-linecap="round" stroke-linejoin="round" stroke-miterlimit="10"><path d="M3.5 12.5v11h17M.5 12L12 1.5 23.5 12M16 2.5h3.5V6"/><path d="M10.5 6.5h3v3h-3z"/></g><path d="M20.201 18.5H18.5v-4h1.701m-1.701 2h1.238m-6.196 2l-1.106-4-1.107 4m.253-.979h1.708M17 18.5h-1.5v-4m-7.468 3.062c.031.525.438.938.936.938.518 0 .937-.448.937-1 0-.816-.771-.953-.936-1-.163-.049-.938-.186-.938-1 0-.553.421-1 .938-1 .498 0 .904.412.936.936" fill="none" stroke="#000" stroke-linecap="round" stroke-linejoin="round" stroke-miterlimit="10"/><path fill="none" d="M0 0h24v24H0z"/></svg>