<svg xmlns="http://www.w3.org/2000/svg" viewBox="0 0 24 24" width="24" height="24"><g fill="none" stroke="#000" stroke-linejoin="round" stroke-miterlimit="10"><path d="M21.897 22.117l1-1.732-1-.577a3.232 3.232 0 000-1.614l.999-.577-1-1.732-.999.576a3.496 3.496 0 00-1.397-.799V14.5h-2v1.162a3.49 3.49 0 00-1.397.799l-.999-.576-1 1.732.999.577a3.232 3.232 0 000 1.614l-1 .577 1 1.732 1-.578c.392.369.869.64 1.397.799V23.5h2v-1.162a3.485 3.485 0 001.396-.799l1.001.578z"/><circle cx="18.5" cy="19" r="1.5"/><g stroke-linecap="round"><path d="M3.5 12.5v11h8M.5 12L12 1.5 23.5 12M16 2.5h3.5V6"/><path d="M10.5 6.5h3v3h-3z"/></g></g><path fill="none" d="M0 0h24v24H0z"/></svg>