<svg xmlns="http://www.w3.org/2000/svg" viewBox="0 0 24 24" width="24" height="24"><g fill="none" stroke="#000" stroke-linecap="round" stroke-linejoin="round" stroke-miterlimit="10"><path d="M3.5 12.5v11h17M.5 12L12 1.5 23.5 12M16 2.5h3.5V6"/><path d="M10.5 6.5h3v3h-3z"/></g><path d="M13.201 19.415H11.5V15.5h1.701M11.5 17.457h1.238M15.5 19.415V15.5l2 3.915V15.5M7.5 19.415V15.5h.937c.797 0 .936.438.936.979 0 .542-.139.979-.936.979H7.5m.936-.001l.936 1.958M19.472 19.415V15.5m-.936 0h1.872" fill="none" stroke="#000" stroke-linecap="round" stroke-linejoin="round" stroke-miterlimit="10"/><path fill="none" d="M0 0h24v24H0z"/></svg>