<svg xmlns="http://www.w3.org/2000/svg" viewBox="0 0 24 24" width="24" height="24"><g fill="none" stroke="#000" stroke-linejoin="round" stroke-miterlimit="10"><path d="M20 20a.5.5 0 01-.5.5h0a.5.5 0 01-.5-.5h0a.5.5 0 01.5-.5h0a.5.5 0 01.5.5h0z"/><path stroke-linecap="round" d="M15.5 17.5h8v6h-8zm4 4v-1m-3-3v-1a3 3 0 016 0v1"/></g><g fill="none" stroke="#000" stroke-linecap="round" stroke-linejoin="round" stroke-miterlimit="10"><path d="M3.5 12.5v11h10M.5 12L12 1.5 23.5 12M16 2.5h3.5V6"/><path d="M10.5 6.5h3v3h-3z"/></g><path fill="none" d="M0 0h24v24H0z"/></svg>