<svg xmlns="http://www.w3.org/2000/svg" viewBox="0 0 24 24" width="24" height="24"><g fill="none" stroke="#000" stroke-linejoin="round" stroke-miterlimit="10"><path stroke-linecap="round" d="M8.5 8.5v5h9v-5M5.5 7L13 .5 20.5 7M16 .5h2.5V3"/><path d="M.5 14.5h4v8h-4z"/><path stroke-linecap="round" d="M4.5 21.062c10.5 3.5 7 3.5 19-2.5-1.062-1.062-1.902-1.313-3-1l-4.316 1.367"/><path stroke-linecap="round" d="M4.5 15.5h3c2.353 0 4 2 4.5 2h3.5c1 0 1 2 0 2H10m1.5-10h3v4h-3z"/></g><path fill="none" d="M0 0h24v24H0z"/></svg>