<svg xmlns="http://www.w3.org/2000/svg" viewBox="0 0 24 24" width="24" height="24"><g fill="none" stroke="#000" stroke-linecap="round" stroke-linejoin="round" stroke-miterlimit="10"><path d="M3.5 12.5v11h17M.5 12L12 1.5 23.5 12M16 2.5h3.5V6"/><path d="M10.5 6.5h3v3h-3zm8.958 13.457v-3.914h.706c.87 0 1.335.877 1.335 1.957s-.465 1.957-1.335 1.957h-.706zM18 19.914h-1.5V16m-1.523 2c0 1.104-.164 1.998-1.105 1.998-.943 0-1.106-.894-1.106-1.998 0-1.105.163-2 1.106-2 .941 0 1.105.895 1.105 2zM9 19.063c.03.523.436.937.934.937.517 0 .938-.448.938-1.001 0-.815-.771-.952-.937-.999-.163-.048-.935-.186-.935-1 0-.553.419-1 .936-1 .498 0 .905.413.937.936"/></g><path fill="none" d="M0 0h24v24H0z"/></svg>