<svg xmlns="http://www.w3.org/2000/svg" viewBox="0 0 24 24" width="24" height="24"><g fill="none" stroke="#000" stroke-linejoin="round" stroke-miterlimit="10"><path stroke-linecap="round" d="M9.5 16.5v6h11v-6m-14-.5L15 7.5l8.5 8.5M19 8.5h3.5V12"/><path stroke-linecap="round" d="M13.5 12.5h3v3h-3z"/><path d="M.5 4.5h4v18h-4zm4-4h18v4h-18zm-4 0h4v4h-4z"/><path stroke-linecap="round" d="M7.5 4.5v-2m4 2v-2m4 2v-2m4 2v-2m-15 17h-2m2-4h-2m2-4h-2m2-4h-2"/></g><path fill="none" d="M0 0h24v24H0z"/></svg>