<svg xmlns="http://www.w3.org/2000/svg" viewBox="0 0 24 24" width="24" height="24"><defs><style>.a{fill:none;stroke:#000;stroke-linecap:round;stroke-linejoin:round;stroke-width:1.5px}</style></defs><title>house-4</title><path class="a" d="M1.5 9.744l10.5-9 10.5 9"/><path class="a" d="M12 5.244L3.377 12.61a1.186 1.186 0 0 0-.377.8v8.855a.981.981 0 0 0 .978.978H9.75v-7.01a.491.491 0 0 1 .489-.49h3.522a.491.491 0 0 1 .489.49v7.01h5.772a.981.981 0 0 0 .978-.977v-8.855a1.186 1.186 0 0 0-.377-.8z"/></svg>