<svg xmlns="http://www.w3.org/2000/svg" viewBox="0 0 24 24" width="24" height="24"><defs><style>.a{fill:none;stroke:#000;stroke-linecap:round;stroke-linejoin:round;stroke-width:1.5px}</style></defs><title>house-retro</title><path class="a" d="M21.75 12v10.5h-4.5M2.25 12v10.5h4.5m-3-21h3v3h-3zM3 1.5h4.5m9.75 0h3v3h-3zm-.75 0H21"/><path class="a" d="M20.25 12h3l-1.259-6.294A1.5 1.5 0 0 0 20.52 4.5h-5.707M3.75 12h-3l1.259-6.294A1.5 1.5 0 0 1 3.48 4.5h5.707"/><path class="a" d="M17.25 7.75V22.5H6.75V7.75"/><path class="a" d="M18.75 9.75l-5.55-7.4a1.5 1.5 0 0 0-2.4 0l-5.55 7.4m9 12.75h-4.5v-6a1.5 1.5 0 0 1 1.5-1.5h1.5a1.5 1.5 0 0 1 1.5 1.5zm-13.5 0h22.5M12 9.375a.375.375 0 0 1 .375.375m-.75 0A.375.375 0 0 1 12 9.375m0 .75a.375.375 0 0 1-.375-.375m.75 0a.375.375 0 0 1-.375.375"/></svg>