<svg xmlns="http://www.w3.org/2000/svg" viewBox="0 0 24 24" width="24" height="24"><g fill="none" stroke="#000" stroke-linecap="round" stroke-linejoin="round" stroke-miterlimit="10"><path d="M19.001 23.5c1.671-1.214 4.499-3.779 4.499-5.697 0-1.555-1.133-2.484-2.228-2.484-1.218 0-1.671.84-2.272 1.833-.602-.993-1.055-1.833-2.272-1.833-1.095 0-2.228.929-2.228 2.484 0 1.918 2.828 4.483 4.501 5.697h0zM3.5 12.5v11h11M.5 12L12 1.5 23.5 12M16 2.5h3.5V6"/><path d="M10.5 6.5h3v3h-3z"/></g><path fill="none" d="M0 0h24v24H0z"/></svg>