<svg xmlns="http://www.w3.org/2000/svg" viewBox="0 0 24 24" width="24" height="24"><defs><style>.a{fill:none;stroke:#000;stroke-linecap:round;stroke-linejoin:round;stroke-width:1.5px}</style></defs><title>house-garage</title><path class="a" d="M.75 22.825h22.5m-21-13.5h19.5v13.5H2.25z"/><path class="a" d="M23.25 7.525a.752.752 0 0 0-.4-.662l-10.5-5.6a.754.754 0 0 0-.706 0l-10.5 5.6a.752.752 0 0 0-.4.662v1.05a.75.75 0 0 0 .75.75h21a.75.75 0 0 0 .75-.75zm-18 4.8h13.5v10.5H5.25zm3 4.5h7.5m-7.5 3h7.5"/></svg>