<svg xmlns="http://www.w3.org/2000/svg" viewBox="0 0 24 24" width="24" height="24"><defs><style>.a{fill:none;stroke:#000;stroke-linecap:round;stroke-linejoin:round;stroke-width:1.5px}</style></defs><title>house-heart</title><path class="a" d="M3.75 14v7.5a1.5 1.5 0 0 0 1.5 1.5h13.5a1.5 1.5 0 0 0 1.5-1.5V14M.75 12.629l10.189-10.19a1.5 1.5 0 0 1 2.122 0l10.189 10.19"/><path class="a" d="M16.5 5.879V3.5h3.75v6.129m-4.32 2.216a1.9 1.9 0 0 0-2.751 0L12 13.064l-1.179-1.219a1.9 1.9 0 0 0-2.751 0 2.06 2.06 0 0 0 0 2.845l3.511 3.631a.579.579 0 0 0 .838 0l3.511-3.631a2.06 2.06 0 0 0 0-2.845z"/></svg>