<svg xmlns="http://www.w3.org/2000/svg" viewBox="0 0 24 24" width="24" height="24"><defs><style>.a{fill:none;stroke:#000;stroke-linecap:round;stroke-linejoin:round;stroke-width:1.5px}</style></defs><title>house-apartment</title><path class="a" d="M23.25 10.5v12.75H.75V10.5m22.5 0H16.5a4.5 4.5 0 0 0-9 0H.75l2.674-8.691A1.5 1.5 0 0 1 4.858.75h14.284a1.5 1.5 0 0 1 1.434 1.059z"/><path class="a" d="M13.5 13.5h-3v-3.375C10.5 9.5 11.172 9 12 9s1.5.5 1.5 1.125zm0 9.75h-3V18a1.5 1.5 0 0 1 3 0zM3.75 13.5h3m10.5 0h3m-16.5 3h3v3h-3zm13.5 0h3v3h-3z"/></svg>