<svg xmlns="http://www.w3.org/2000/svg" viewBox="0 0 24 24" width="24" height="24"><defs><style>.a{fill:none;stroke:#000;stroke-linecap:round;stroke-linejoin:round;stroke-width:1.5px}</style></defs><title>house-modern</title><path class="a" d="M.788 20.571H23.25m-13.477 0H2.286v-9.733l7.487-1.497v11.23zm11.98 0H9.773V4.101l11.98 5.24v11.23zM12.768 8.967a.374.374 0 0 1 .374.374m-.749 0a.375.375 0 0 1 .375-.374m0 .749a.375.375 0 0 1-.375-.375m.749 0a.374.374 0 0 1-.374.375"/><path class="a" d="M18.758 20.571h-5.99v-4.492a1.5 1.5 0 0 1 1.5-1.5h3a1.5 1.5 0 0 1 1.5 1.5zM.75 11.146l9.023-1.805M8.238 3.429l15.008 6.565m-4.488-1.972V4.101h2.995v5.24"/></svg>