<svg xmlns="http://www.w3.org/2000/svg" viewBox="0 0 24 24" width="24" height="24"><defs><style>.a{fill:none;stroke:#000;stroke-linecap:round;stroke-linejoin:round;stroke-width:1.5px}</style></defs><title>html-1</title><path class="a" d="M23.238 21v.75a1.5 1.5 0 0 1-1.5 1.5h-19.5a1.5 1.5 0 0 1-1.5-1.5V21m0-13.5V2.254a1.5 1.5 0 0 1 1.5-1.5h19.5a1.5 1.5 0 0 1 1.5 1.5V7.5M.738 18.004v-7.5m3 7.5v-7.5m-3 4.5h3m4.5 3v-7.5m-1.5 0h3m7.5 7.5v-7.5l-2.25 3.75-2.25-3.75v7.5m7.5-7.504v6a1.5 1.5 0 0 0 1.5 1.5h1.5"/></svg>