<svg xmlns="http://www.w3.org/2000/svg" viewBox="0 0 24 24" width="24" height="24"><defs><style>.a{fill:none;stroke:#000;stroke-linecap:round;stroke-linejoin:round;stroke-width:1.5px}</style></defs><title>human-resources-team-settings</title><circle class="a" cx="4.504" cy="17.625" r="2.625"/><path class="a" d="M8.254 23.25a4.25 4.25 0 0 0-7.5 0"/><circle class="a" cx="19.504" cy="17.625" r="2.625"/><path class="a" d="M23.254 23.25a4.25 4.25 0 0 0-7.5 0"/><circle class="a" cx="12.004" cy="3.375" r="2.625"/><path class="a" d="M15.253 8.25a4.269 4.269 0 0 0-6.5 0m.302 11.457A8.28 8.28 0 0 0 15 19.689M6.353 6a8.216 8.216 0 0 0-2.6 6c0 .253.015.5.038.75m16.425 0c.023-.248.038-.5.038-.75a8.216 8.216 0 0 0-2.6-6"/><circle class="a" cx="12.004" cy="13.5" r="2.25"/><path class="a" d="M14.254 13.5h1.5m-7.5 0h1.5m2.25 2.25v1.5m0-7.5v1.5m1.591 3.841l1.061 1.06m-5.304-5.303l1.061 1.061m0 3.182l-1.061 1.06m5.304-5.303l-1.061 1.061"/></svg>