<svg xmlns="http://www.w3.org/2000/svg" viewBox="0 0 24 24" width="24" height="24"><defs><style>.a{fill:none;stroke:#000;stroke-linecap:round;stroke-linejoin:round;stroke-width:1.5px}</style></defs><title>human-resources-employee-star</title><path class="a" d="M22.5 23.25v-.927a2.023 2.023 0 0 0-.788-1.615C20.347 19.666 17.823 18 11.962 18s-8.385 1.666-9.75 2.708a2.022 2.022 0 0 0-.787 1.615v.927"/><path class="a" d="M14.008 23.25L11.962 18l-2.045 5.25m9.545 0h-2.25M12.858 1.288l1.926 5.09h3.75a.919.919 0 0 1 .648 1.6l-3.255 2.266 1.8 4.141a.982.982 0 0 1-1.4 1.228l-4.358-2.451-4.354 2.455a.982.982 0 0 1-1.4-1.228l1.8-4.141-3.25-2.266a.918.918 0 0 1 .644-1.6h3.75l1.931-5.09a1 1 0 0 1 1.768-.004z"/></svg>