<svg xmlns="http://www.w3.org/2000/svg" viewBox="0 0 24 24" width="24" height="24"><defs><style>.a{fill:none;stroke:#000;stroke-linecap:round;stroke-linejoin:round;stroke-width:1.5px}</style></defs><title>human-resources-network</title><path class="a" d="M23.25 23.25a6.73 6.73 0 0 0-6.337-4.5h-.006a6.729 6.729 0 0 0-6.336 4.5m2.782-12.219A6.857 6.857 0 0 0 21 12.567"/><circle class="a" cx="16.907" cy="13.125" r="4.125"/><path class="a" d="M16.778 18.75v4.5M5.737 21.347A11.251 11.251 0 1 1 22.756 8.693q.073.24.137.483"/><path class="a" d="M7.981 19.4a26.115 26.115 0 0 1-.905-11.835 16.281 16.281 0 0 1 2.213-6.487M.775 11.25H9.75M2.482 6h19.036M1.686 16.5H9.75m4.961-15.422A14.453 14.453 0 0 1 16.634 6"/></svg>