<svg xmlns="http://www.w3.org/2000/svg" viewBox="0 0 24 24" width="24" height="24"><defs><style>.a{fill:none;stroke:#000;stroke-linecap:round;stroke-linejoin:round;stroke-width:1.5px}</style></defs><title>human-resources-employee-stress</title><path class="a" d="M15.296 18.458L11.25 23.25m9.009.006C19.331 19.849 16.054 18 12.018 18s-7.3 1.852-8.225 5.261M3 1.866L1.5.75M3 7.5l-1.5.75M2.808 4.5H.75M21 1.866L22.5.75M21 7.5l1.5.75M21.192 4.5h2.058M6 8.25V.75L9 3l3-2.25L15 3l3-2.25v7.5a24.375 24.375 0 0 1-12 0z"/><path class="a" d="M18 8.25v1.5a6 6 0 0 1-6 6 6 6 0 0 1-6-6v-1.5"/></svg>