<svg xmlns="http://www.w3.org/2000/svg" viewBox="0 0 24 24" width="24" height="24"><defs><style>.a{fill:none;stroke:#000;stroke-linecap:round;stroke-linejoin:round;stroke-width:1.5px}</style></defs><title>human-resources-search-women</title><circle class="a" cx="15.365" cy="6" r="5.25"/><path class="a" d="M22.865 13.5l-3.788-3.788M6.8 7.635C4.775 8.4 3 10.261 2.76 13.769c-.22 3.255-.8 3.782-1.636 4.62a8.059 8.059 0 0 0 5.581 1.472m4.931.009a8.123 8.123 0 0 0 5.581-1.481c-.839-.838-1.416-1.365-1.637-4.62"/><path class="a" d="M16.144 23.158c-1.114-.461-2.432-.932-3.864-1.462a.986.986 0 0 1-.644-.925v-1.8a.985.985 0 0 1 .32-.727 3.552 3.552 0 0 0 1.159-2.644v-2.47A6.405 6.405 0 0 1 9.17 10.9a6.4 6.4 0 0 1-3.944 2.23v2.47a3.55 3.55 0 0 0 1.159 2.648.987.987 0 0 1 .32.728v1.8a.986.986 0 0 1-.644.925c-1.432.53-2.75 1-3.864 1.461m17.529-3.338a7.259 7.259 0 0 0 3.482-1.4 4.071 4.071 0 0 1-1.391-2.564m.434 7.385c-1.138-.476-2.5-.961-3.98-1.51"/></svg>