<svg xmlns="http://www.w3.org/2000/svg" viewBox="0 0 24 24" width="24" height="24"><defs><style>.a{fill:none;stroke:#000;stroke-linecap:round;stroke-linejoin:round;stroke-width:1.5px}</style></defs><title>human-resources-rating-woman</title><path class="a" d="M11.566 1.017a.486.486 0 0 1 .868 0l1.009 2.034a.483.483 0 0 0 .363.262l2.264.327a.481.481 0 0 1 .389.323.47.47 0 0 1-.121.487L14.7 6.044a.473.473 0 0 0-.138.419l.388 2.247a.474.474 0 0 1-.194.465.487.487 0 0 1-.509.035l-2.021-1.054a.482.482 0 0 0-.452 0L9.758 9.21a.487.487 0 0 1-.509-.035.474.474 0 0 1-.194-.465l.388-2.247a.473.473 0 0 0-.138-.419L7.662 4.45a.47.47 0 0 1-.121-.487.481.481 0 0 1 .389-.323l2.264-.327a.483.483 0 0 0 .363-.262zM6.322 10.1l-.863-.45a.49.49 0 0 0-.453 0L2.991 10.7a.491.491 0 0 1-.51-.034.474.474 0 0 1-.193-.466l.387-2.246a.471.471 0 0 0-.137-.419L.894 5.944a.472.472 0 0 1-.12-.487.481.481 0 0 1 .389-.323l2.263-.327a.483.483 0 0 0 .364-.262L4.8 2.511a.484.484 0 0 1 .434-.267M17.678 10.1l.863-.451a.49.49 0 0 1 .453 0l2.015 1.051a.491.491 0 0 0 .51-.034.474.474 0 0 0 .193-.466l-.387-2.246a.471.471 0 0 1 .137-.419l1.644-1.595a.472.472 0 0 0 .12-.487.481.481 0 0 0-.389-.323l-2.263-.327a.483.483 0 0 1-.364-.262l-1.01-2.03a.484.484 0 0 0-.434-.267M7.877 15.447v1a5.905 5.905 0 0 1-.86 3.272m9.107-4.272v1a5.906 5.906 0 0 0 .859 3.272m-9.095-4.054A5.483 5.483 0 0 0 12 13.766a5.483 5.483 0 0 0 4.112 1.9"/><circle class="a" cx="12" cy="15.336" r="4.125"/><path class="a" d="M17.047 23.25a6.77 6.77 0 0 0-2.54-1.8L12 23.211l-2.507-1.757a6.774 6.774 0 0 0-2.53 1.784"/></svg>