<svg xmlns="http://www.w3.org/2000/svg" viewBox="0 0 24 24" width="24" height="24"><defs><style>.a{fill:none;stroke:#000;stroke-linecap:round;stroke-linejoin:round;stroke-width:1.5px}</style></defs><title>human-resources-hierarchy-1</title><path class="a" d="M14.249 20.25h-1a.51.51 0 0 1-.5-.519V3.518a.509.509 0 0 1 .5-.518h1m-3.75 9h2.25"/><circle class="a" cx="19.499" cy="3" r="2.25"/><path class="a" d="M23.249 9A4.047 4.047 0 0 0 19.5 6a4.047 4.047 0 0 0-3.75 3z"/><circle class="a" cx="19.499" cy="17.25" r="2.25"/><path class="a" d="M23.249 23.25a4.047 4.047 0 0 0-3.75-3 4.047 4.047 0 0 0-3.75 3z"/><circle class="a" cx="5.249" cy="9" r="3"/><path class="a" d="M.749 18a4.5 4.5 0 0 1 9 0z"/></svg>