<svg xmlns="http://www.w3.org/2000/svg" viewBox="0 0 24 24" width="24" height="24"><defs><style>.a{fill:none;stroke:#000;stroke-linecap:round;stroke-linejoin:round;stroke-width:1.5px}</style></defs><title>hyperlink-2</title><path class="a" d="M6.75 17.249l10.5-10.5m-9.515 5.272a4.472 4.472 0 0 0-3.417 1.3l-2.25 2.25a4.5 4.5 0 0 0 6.364 6.364l2.25-2.25a4.472 4.472 0 0 0 1.3-3.417m4.283-4.292a4.473 4.473 0 0 0 3.417-1.3l2.25-2.25a4.5 4.5 0 0 0-6.364-6.364l-2.25 2.25a4.475 4.475 0 0 0-1.295 3.417"/></svg>