<svg id="Regular" xmlns="http://www.w3.org/2000/svg" viewBox="0 0 24 24" width="24" height="24"><defs><style>.cls-1{fill:none;stroke:#000;stroke-linecap:round;stroke-linejoin:round;stroke-width:1.5px}</style></defs><title>ice-cream-bowl</title><path class="cls-1" d="M20.918 11.25a1.407 1.407 0 0 1 1.482 1.584 8.837 8.837 0 0 1-8.83 6.666 8.837 8.837 0 0 1-8.834-6.666 1.407 1.407 0 0 1 1.486-1.584zM13.57 19.5v3.75m-3 0h6"/><path class="cls-1" d="M6.143 11.252a3.751 3.751 0 1 1 7.427-.752v.75m7.43.002a3.751 3.751 0 1 0-7.43-.752v.75m3.75-4.5a3.75 3.75 0 0 0-7.5 0M7.125 7.892L1.57.75"/></svg>