<svg id="Regular" xmlns="http://www.w3.org/2000/svg" viewBox="0 0 24 24" width="24" height="24"><defs><style>.cls-1{fill:none;stroke:#000;stroke-linecap:round;stroke-linejoin:round;stroke-width:1.5px}</style></defs><title>ice-cream-stand</title><circle class="cls-1" cx="12.724" cy="20.25" r="3"/><path class="cls-1" d="M3.724 20.25v3m4.5-15v4.5m10.5 0l1.5-3h3m-18.384-3a4.084 4.084 0 0 1 3.14 1.5h.469a4.055 4.055 0 0 1 6.3 0 .906.906 0 0 0 .9-1.03 7.5 7.5 0 0 0-14.86 0 .906.906 0 0 0 .9 1.03 4.1 4.1 0 0 1 3.151-1.5zm4.884 13.5H3.8a1.573 1.573 0 0 1-1.573-1.573V12.75h16.5v5.927a1.573 1.573 0 0 1-1.573 1.573h-1.43"/></svg>