<svg id="Regular" xmlns="http://www.w3.org/2000/svg" viewBox="0 0 24 24" width="24" height="24"><defs><style>.cls-1{fill:none;stroke:#000;stroke-linecap:round;stroke-linejoin:round;stroke-width:1.5px}</style></defs><title>ice-road</title><path class="cls-1" d="M15 2.25l2.25 1.5 2.25-1.5m-2.25 10.5v-12M15 11.25l2.25-1.5 2.25 1.5m2.25-6.75l-1.5 2.25L21.75 9m-10.5-2.25h12M12.75 4.5l1.5 2.25L12.75 9"/><circle class="cls-1" cx="3" cy="21" r="2.25"/><circle class="cls-1" cx="13.5" cy="21" r="2.25"/><path class="cls-1" d="M15.622 21.75h.878a1.5 1.5 0 0 0 1.5-1.5v-1.5a3 3 0 0 0-3-3h-1.5l-2.585-5.171a1.5 1.5 0 0 0-1.342-.829H6a1.5 1.5 0 0 0-1.5 1.5v4.5H.75m10.628 6H5.122m-.622-6h9M18 19.5h3.013m2.237-4.354A4.09 4.09 0 0 0 21 19.125a4.09 4.09 0 0 0 2.25 3.975"/></svg>