<svg id="Regular" xmlns="http://www.w3.org/2000/svg" viewBox="0 0 24 24" width="24" height="24"><defs><style>.cls-1{fill:none;stroke:#000;stroke-linecap:round;stroke-linejoin:round;stroke-width:1.5px}</style></defs><title>ice-cream-cone</title><path class="cls-1" d="M7.5 11.25v-1.5A1.5 1.5 0 0 1 9 8.25a1.5 1.5 0 0 1 1.5 1.5v1.5m3 0a1.5 1.5 0 0 1-1.5 1.5 1.5 1.5 0 0 1-1.5-1.5m3 0v-1.5a1.5 1.5 0 0 1 1.5-1.5 1.5 1.5 0 0 1 1.5 1.5v1.5"/><path class="cls-1" d="M7.5 11.25a1.5 1.5 0 0 1-1.5 1.5 1.5 1.5 0 0 1-1.5-1.5v-3A7.522 7.522 0 0 1 12 .75a7.522 7.522 0 0 1 7.5 7.5v3a1.5 1.5 0 0 1-1.5 1.5 1.5 1.5 0 0 1-1.5-1.5"/><path class="cls-1" d="M16.928 12.3l-3.546 10.032a1.5 1.5 0 0 1-2.764 0L7.072 12.3"/></svg>