<svg xmlns="http://www.w3.org/2000/svg" viewBox="0 0 24 24" width="24" height="24"><g fill="none" stroke="#000" stroke-linejoin="round" stroke-miterlimit="10"><path d="M11.5 20v3.5"/><path stroke-linecap="round" d="M8.5 23.5h6M5 12a3 3 0 016 0m1 0a3 3 0 016 0M8.5 9a3 3 0 016 0m-3 11c4.418 0 8-3.644 8-7.5h-16c0 3.856 3.581 7.5 8 7.5zM6.607 9.344L4.5.5"/><circle stroke-linecap="round" cx="11.5" cy="5" r="1"/><path stroke-linecap="round" d="M11.5 4l1-1.5"/></g><path fill="none" d="M0 0h24v24H0z"/></svg>