<svg id="Regular" xmlns="http://www.w3.org/2000/svg" viewBox="0 0 24 24" width="24" height="24"><defs><style>.cls-1{fill:none;stroke:#000;stroke-linecap:round;stroke-linejoin:round;stroke-width:1.5px}</style></defs><title>ice-water</title><path class="cls-1" d="M.75 19.322l1.458 1.246A2.008 2.008 0 0 0 3.5 21a2.012 2.012 0 0 0 1.293-.432l1.622-1.386a2.012 2.012 0 0 1 1.293-.432A2.008 2.008 0 0 1 9 19.182l1.623 1.386a2.151 2.151 0 0 0 2.586 0l1.622-1.386a2.151 2.151 0 0 1 2.586 0l1.623 1.386a2.151 2.151 0 0 0 2.586 0l1.622-1.386m-5.209-4.721l1 .857a2.151 2.151 0 0 0 2.586 0l1.622-1.386m-22.497.14l1.458 1.246a2.008 2.008 0 0 0 1.292.432 2.012 2.012 0 0 0 1.293-.432l.976-.834M9.668 4.5l2.25 1.5 2.25-1.5M11.918 15V3m-2.25 10.5l2.25-1.5 2.25 1.5m2.25-6.75L14.918 9l1.5 2.25M5.918 9h12m-10.5-2.25L8.918 9l-1.5 2.25"/></svg>