<svg id="Regular" xmlns="http://www.w3.org/2000/svg" viewBox="0 0 24 24" width="24" height="24"><defs><style>.cls-1{fill:none;stroke:#000;stroke-linecap:round;stroke-linejoin:round;stroke-width:1.5px}</style></defs><title>ice-cream-truck</title><path class="cls-1" d="M6.75 20.25h6"/><circle class="cls-1" cx="3.75" cy="20.25" r="3"/><circle class="cls-1" cx="17.25" cy="20.25" r="3"/><path class="cls-1" d="M20.25 20.25h1.5a1.5 1.5 0 0 0 1.5-1.5v-4.5m-9 6h-1.5v-4.5a1.5 1.5 0 0 0-1.5-1.5m0-3a1.5 1.5 0 0 0 0 3h12v-1.5a1.5 1.5 0 0 0-1.5-1.5zm-1.5 9a6 6 0 0 0-9-5.2m12 2.2H8.947m-5.197-3v-3m-3 0h6m7.5 0v-6m8.282-1.082a1.5 1.5 0 0 1-.361 2.244A2.215 2.215 0 0 1 21 6.75a2.774 2.774 0 0 1-2.25-1.5 2.774 2.774 0 0 1-2.25 1.5 2.774 2.774 0 0 1-2.25-1.5A2.774 2.774 0 0 1 12 6.75a2.774 2.774 0 0 1-2.25-1.5 2.774 2.774 0 0 1-2.25 1.5 2.215 2.215 0 0 1-1.171-.338 1.5 1.5 0 0 1-.361-2.244C7.882 1.889 11.636.75 14.25.75s6.368 1.139 8.282 3.418zM9.75 5.25a4.323 4.323 0 0 1 4.5-4.5m4.5 4.5a4.323 4.323 0 0 0-4.5-4.5"/></svg>