<svg xmlns="http://www.w3.org/2000/svg" viewBox="0 0 24 24" width="24" height="24"><g fill="none" stroke="#000" stroke-linejoin="round" stroke-miterlimit="10"><circle stroke-linecap="round" cx="17" cy="22.006" r="1.5"/><path stroke-linecap="round" d="M17.5 20.506h-11v-4a2 2 0 012-2h9v6zm0-6l3.366-2.708M7.5 20.506v3"/><path d="M20.116 9.5c.218-4.912-3.712-9-8.615-9-4.9 0-8.832 4.084-8.614 9 0 0-.011-1.5 1.864-1.5s2.25 1.5 2.25 1.5S7.376 8 9.251 8s2.25 1.5 2.25 1.5.75-1.5 2.25-1.5 2.25 1.5 2.25 1.5.75-1.5 2.25-1.5 1.865 1.5 1.865 1.5z"/><path stroke-linecap="round" d="M11.502 14.506L11.501 9.5"/></g><path fill="none" d="M0 0h24v24H0z"/></svg>