<svg id="Regular" xmlns="http://www.w3.org/2000/svg" viewBox="0 0 24 24" width="24" height="24"><defs><style>.cls-1{fill:none;stroke:#000;stroke-linecap:round;stroke-linejoin:round;stroke-width:1.5px}</style></defs><title>ice-clean</title><path class="cls-1" d="M21 12.75V18m-2.25-3.897l4.5 2.598m-4.5 0l4.5-2.598"/><circle class="cls-1" cx="9.75" cy="17.992" r="3"/><path class="cls-1" d="M6.847 18.75H5.56a1.015 1.015 0 0 1-1.06-.962V10.5H12a1.5 1.5 0 0 1 1.423 1.026l.066.2A1.613 1.613 0 0 0 15 12.75h.943M7.75 7.492h2.5a1 1 0 0 1 1 1V10.5h-4.5V8.492a1 1 0 0 1 1-1zM4.5 10.5L2.25 3H.75m11.846 15.994h3.526M20.25 21a5.25 5.25 0 0 1 0-10.5"/></svg>