<svg id="Regular" xmlns="http://www.w3.org/2000/svg" viewBox="0 0 24 24" width="24" height="24"><defs><style>.cls-1{fill:none;stroke:#000;stroke-linecap:round;stroke-linejoin:round;stroke-width:1.5px}</style></defs><title>ice-cream</title><path class="cls-1" d="M16.5 17.25h-9a1.5 1.5 0 0 1-1.5-1.5v-9a6 6 0 0 1 6-6 6 6 0 0 1 6 6v9a1.5 1.5 0 0 1-1.5 1.5zm-4.5 6v-6"/><path class="cls-1" d="M12 7.5v.75a1.5 1.5 0 0 1-1.5 1.5A1.5 1.5 0 0 1 9 8.25v-3m3 2.25A1.5 1.5 0 0 1 13.5 6 1.5 1.5 0 0 1 15 7.5V12"/></svg>