<svg xmlns="http://www.w3.org/2000/svg" viewBox="0 0 24 24" width="24" height="24"><g fill="none" stroke="#000" stroke-linecap="round" stroke-linejoin="round" stroke-miterlimit="10"><circle cx="3.496" cy="20.5" r="3"/><circle cx="18.496" cy="20.5" r="3"/><path d="M6.496 20.5h9m-15-4a5 5 0 018 4m-4.5-7.5v2.5m3.5 2h6.5m-13-7c0 1.105.896 2.5 2 2.5.364 0 .706-.098 1-.269l3.5-2.231h-6.5zm13 10.001V17.25a2.75 2.75 0 00-2.75-2.75h-.75a1 1 0 110-2h13v8h-2m-7-13.995A2.65 2.65 0 019.992 6.5m9.004.005a2.65 2.65 0 01-4.504-.005"/><path d="M10 6.505A2.65 2.65 0 015.496 6.5l.055-.5c1.849-3 5.164-5 8.945-5 3.783 0 7.099 2.001 8.947 5.001l.057.504a2.65 2.65 0 01-4.504-.005m-9.002-.091A5.5 5.5 0 0114.496 1m4.5 5.409A5.5 5.5 0 0014.494 1m.002 0v11.495m-3.25 2.005h12.25"/></g><path fill="none" d="M0 0h24v24H0z"/></svg>