<svg xmlns="http://www.w3.org/2000/svg" viewBox="0 0 24 24" width="24" height="24"><defs><style>.a{fill:none;stroke:#000;stroke-linecap:round;stroke-linejoin:round;stroke-width:1.5px}</style></defs><title>idea-settings</title><path class="a" d="M4.73 16.6l-1.308.066A1.828 1.828 0 0 1 2.1 13.484l.972-.877a1.83 1.83 0 0 0 0-2.715L2.1 9.015a1.828 1.828 0 0 1 1.322-3.183L4.73 5.9a1.828 1.828 0 0 0 1.919-1.921l-.067-1.308a1.828 1.828 0 0 1 3.183-1.318l.878.972a1.828 1.828 0 0 0 2.714 0l.878-.972a1.828 1.828 0 0 1 3.183 1.318l-.067 1.308A1.828 1.828 0 0 0 19.27 5.9l1.308-.066A1.828 1.828 0 0 1 21.9 9.015l-.972.877a1.83 1.83 0 0 0 0 2.715l.972.877a1.828 1.828 0 0 1-1.319 3.183L19.27 16.6m-8.77 5.9h3"/><path class="a" d="M17.25 12a5.25 5.25 0 1 0-6.75 5.006V19.5h3v-2.494A5.234 5.234 0 0 0 17.25 12z"/></svg>