<svg xmlns="http://www.w3.org/2000/svg" viewBox="0 0 24 24" width="24" height="24"><defs><style>.a{fill:none;stroke:#000;stroke-linecap:round;stroke-linejoin:round;stroke-width:1.5px}</style></defs><title>idea-strategy</title><circle class="a" cx="3.414" cy="20.637" r="2.613"/><path class="a" d="M9.511 18.17h4.977v4.977H9.511zm13.688 4.977h-5.973l2.986-5.475 2.987 5.475zM15.733 4.585A3.733 3.733 0 1 0 10.507 8v1.811h2.986V8a3.73 3.73 0 0 0 2.24-3.415zM3.539 15.432v-2.488h16.922v2.488m-.686-10.203h1.493m-1.802 3.424l1.055 1.056m-1.055-7.903L20.521.75M4.225 5.229H2.732m1.802 3.424L3.478 9.709m1.056-7.903L3.478.75M12 9.811v5.124"/></svg>