<svg xmlns="http://www.w3.org/2000/svg" viewBox="0 0 24 24" width="24" height="24"><defs><style>.a{fill:none;stroke:#000;stroke-linecap:round;stroke-linejoin:round;stroke-width:1.5px}</style></defs><title>image-document-bmp-1</title><path class="a" d="M3.75 18v-7.5m0 0h1.5a1.5 1.5 0 0 1 1.5 1.5v.75a1.5 1.5 0 0 1-1.5 1.5h-1.5m0 0h1.5a1.5 1.5 0 0 1 1.5 1.5v.75a1.5 1.5 0 0 1-1.5 1.5h-1.5m13.5 0v-7.5m0 0H18a2.25 2.25 0 0 1 0 4.5h-.75m-3 3v-7.5L12 14.25 9.75 10.5V18"/><rect class="a" x=".75" y=".75" width="22.5" height="22.5" rx="1" ry="1"/></svg>