<svg xmlns="http://www.w3.org/2000/svg" viewBox="0 0 24 24" width="24" height="24"><defs><style>.a{fill:none;stroke:#000;stroke-linecap:round;stroke-linejoin:round;stroke-width:1.5px}</style></defs><title>image-file-shutter</title><path class="a" d="M22.5 21.75a1.5 1.5 0 0 1-1.5 1.5H3a1.5 1.5 0 0 1-1.5-1.5V2.25A1.5 1.5 0 0 1 3 .75h15a1.5 1.5 0 0 1 1.047.426l3 2.883a1.5 1.5 0 0 1 .453 1.074z"/><circle class="a" cx="12" cy="12.75" r="6"/><circle class="a" cx="12" cy="12.75" r="1.5"/><path class="a" d="M13.06 11.69l3.183-3.183M10.94 13.81l-3.183 3.183m5.303-3.183l3.183 3.183M10.94 11.69L7.757 8.507"/></svg>