<svg xmlns="http://www.w3.org/2000/svg" viewBox="0 0 24 24" width="24" height="24"><defs><style>.a{fill:none;stroke:#000;stroke-linecap:round;stroke-linejoin:round;stroke-width:1.5px}</style></defs><title>image-document-tiff-1</title><path class="a" d="M23.25 21v.75a1.5 1.5 0 0 1-1.5 1.5H2.25a1.5 1.5 0 0 1-1.5-1.5V21m0-13.5V2.25a1.5 1.5 0 0 1 1.5-1.5h19.5a1.5 1.5 0 0 1 1.5 1.5V7.5M12 18v-6a1.5 1.5 0 0 1 1.5-1.5H15M12 15h2.25M18 18v-6a1.5 1.5 0 0 1 1.5-1.5H21M18 15h2.25M9 18v-7.5M4.5 18v-7.5m-1.5 0h3"/></svg>