<svg xmlns="http://www.w3.org/2000/svg" viewBox="0 0 24 24" width="24" height="24"><defs><style>.a{fill:none;stroke:#000;stroke-linecap:round;stroke-linejoin:round;stroke-width:1.5px}</style></defs><title>image-file-eps</title><path class="a" d="M4.875 23.25h-2.25a1.5 1.5 0 0 1-1.5-1.5V2.25a1.5 1.5 0 0 1 1.5-1.5h10.629a1.5 1.5 0 0 1 1.06.439l5.872 5.872a1.5 1.5 0 0 1 .439 1.06v4.629"/><path class="a" d="M20.625 8.25h-6a1.5 1.5 0 0 1-1.5-1.5v-6m-2.25 22.5h-1.5a1.5 1.5 0 0 1-1.5-1.5v-4.5a1.5 1.5 0 0 1 1.5-1.5h1.5m-3 4.5h3m3 3v-7.5m0 0h.75a2.25 2.25 0 0 1 0 4.5h-.75m9-4.5h-1.5a1.5 1.5 0 0 0-1.5 1.5c0 2.25 3 2.25 3 4.5a1.5 1.5 0 0 1-1.5 1.5h-1.5"/></svg>