<svg xmlns="http://www.w3.org/2000/svg" viewBox="0 0 24 24" width="24" height="24"><defs><style>.a{fill:none;stroke:#000;stroke-linecap:round;stroke-linejoin:round;stroke-width:1.5px}</style></defs><title>image-document-eps-1</title><rect class="a" x=".75" y=".75" width="22.5" height="22.5" rx="1" ry="1"/><path class="a" d="M10.5 18v-7.5m0 0h.75a2.25 2.25 0 0 1 0 4.5h-.75m9-4.5H18a1.5 1.5 0 0 0-1.5 1.5c0 2.25 3 2.25 3 4.5A1.5 1.5 0 0 1 18 18h-1.5m-9 0H6a1.5 1.5 0 0 1-1.5-1.5V12A1.5 1.5 0 0 1 6 10.5h1.5m-3 4.5h3"/></svg>