<svg xmlns="http://www.w3.org/2000/svg" viewBox="0 0 24 24" width="24" height="24"><defs><style>.a{fill:none;stroke:#000;stroke-linecap:round;stroke-linejoin:round;stroke-width:1.5px}</style></defs><title>information-desk-hi</title><circle class="a" cx="6.75" cy="11.25" r="3"/><path class="a" d="M3.75 23.25v-3m6 3v-4.079l1.765 1.412a3 3 0 0 0 3.995-.221l2.8-2.8a1.5 1.5 0 1 0-2.122-2.121l-2.8 2.8-1.879-1.5A4.5 4.5 0 0 0 8.7 15.75H5.25a4.5 4.5 0 0 0-4.5 4.5v3m13.5-19.5v3m3-3v3m-3-1.5h3m3-1.5v3m1.5-6h-9a1.5 1.5 0 0 0-1.5 1.5v6a1.5 1.5 0 0 0 1.5 1.5h1.5v3l3.75-3h3.75a1.5 1.5 0 0 0 1.5-1.5v-6a1.5 1.5 0 0 0-1.5-1.5z"/></svg>