<svg id="Regular" xmlns="http://www.w3.org/2000/svg" viewBox="0 0 24 24" width="24" height="24"><defs><style>.cls-1{fill:none;stroke:#000;stroke-linecap:round;stroke-linejoin:round;stroke-width:1.5px}</style></defs><title>insect-1</title><path class="cls-1" d="M15.75 12.5a7.5 7.5 0 0 0-8.237-7.465A7.718 7.718 0 0 0 .75 12.822V14a1.5 1.5 0 0 0 1.5 1.5m5.25 0h5.25"/><path class="cls-1" d="M14.075 7.775l.175-.525s1.5-4.5 6-3.75M18 15.5h2.25c3 0 3-6 3-6s-4.5.75-4.5-2.25m-13.5 6l-1.5 6h-1.5M15 14.75l1.5 4.5H18m-7.5-3.75l-.75 3.75h-1.5m10.125-7.5a.375.375 0 0 0-.375.375m.75 0a.375.375 0 0 0-.375-.375m0 .75a.375.375 0 0 0 .375-.375m-.75 0a.375.375 0 0 0 .375.375"/></svg>