<svg id="Regular" xmlns="http://www.w3.org/2000/svg" viewBox="0 0 24 24" width="24" height="24"><defs><style>.cls-1{fill:none;stroke:#000;stroke-linecap:round;stroke-linejoin:round;stroke-width:1.5px}</style></defs><title>insect-centipede-1</title><path class="cls-1" d="M7.819 3.825a4.037 4.037 0 1 0 0 8.074 4.443 4.443 0 0 1 4.191 4.352V18.5a4.407 4.407 0 0 0 4.434 4.5 4.553 4.553 0 0 0 4.566-4.54v-1.514A13.156 13.156 0 0 0 7.819 3.825z"/><circle class="cls-1" cx="16.51" cy="17.751" r="1.5"/><path class="cls-1" d="M20.234 20.993a4.9 4.9 0 0 0 3.026-1.571m-2.304-3.671a5.766 5.766 0 0 0 2.3-3.25m-3.464-1.069c.828-.978 1.844-2.55 1.536-4.122m-4.028.515a5.366 5.366 0 0 0 1.46-3.574m-4.568 1.204A10.268 10.268 0 0 0 14.64 2m-3.8 2.171A4.452 4.452 0 0 0 9.76 1M7.743 3.826c-.074-.413-.459-1.576-2.483-2.4m.02 3.287a3.688 3.688 0 0 0-3.02-.632m11.407 17.961a4.847 4.847 0 0 1-4.907-.063m3.252-3.655a4.286 4.286 0 0 1-4.46-.628m2.597-4.996a3.679 3.679 0 0 1-4.139 1.06m-.783-2.791a3.933 3.933 0 0 1-3.467.271m2.001-3.29a2.913 2.913 0 0 1-3-.7"/></svg>