<svg id="Regular" xmlns="http://www.w3.org/2000/svg" viewBox="0 0 24 24" width="24" height="24"><defs><style>.cls-1{fill:none;stroke:#000;stroke-linecap:round;stroke-linejoin:round;stroke-width:1.5px}</style></defs><title>insect-4</title><path class="cls-1" d="M16.76 13.838v4.912c0 2.485-2.351 4.5-5.25 4.5s-5.25-2.015-5.25-4.5v-4.912m3.681-5.784a6.107 6.107 0 0 1 3.138 0"/><path class="cls-1" d="M13.01 7.849s1.95 6 3.9 6c1.3 0 1.3-3.75 0-5.25a3.266 3.266 0 0 0-3.9-.75zm-3 0s-1.95 6-3.9 6c-1.3 0-1.3-3.75 0-5.25a3.266 3.266 0 0 1 3.9-.75zM13.76 4.5s1.5-3 6-3.75M10.01 4.5s-1.5-3-6-3.75"/></svg>