<svg id="Regular" xmlns="http://www.w3.org/2000/svg" viewBox="0 0 24 24" width="24" height="24"><defs><style>.cls-1{fill:none;stroke:#000;stroke-linecap:round;stroke-linejoin:round;stroke-width:1.5px}</style></defs><title>insect-3</title><path class="cls-1" d="M6.03 11.283C6.258 7.184 8.463 4.5 12.01 4.5s5.752 2.684 5.98 6.783m-.09 3.699C17.324 18.646 14.667 21 12.01 21s-5.31-2.354-5.887-6.018m7.932-10.141L16.51.75l6.75 6.75"/><circle class="cls-1" cx="17.635" cy="13.125" r="1.875"/><circle class="cls-1" cx="6.385" cy="13.125" r="1.875"/><path class="cls-1" d="M14.778 20.134c1.234.617 1.41 1.832.982 3.116M9.965 4.841L7.51.75.76 7.5m8.48 12.635c-1.23.615-1.408 1.83-.98 3.115"/></svg>