<svg id="Regular" xmlns="http://www.w3.org/2000/svg" viewBox="0 0 24 24" width="24" height="24"><defs><style>.cls-1{fill:none;stroke:#000;stroke-linecap:round;stroke-linejoin:round;stroke-width:1.5px}</style></defs><title>insect-cricket-body</title><path class="cls-1" d="M12.016 10.5l-9-3C.764 6.75.764 3 3.764 3m-.75 4.5s-3.75 4.5 6 7.5 14.25-.75 14.25-.75l-8.255-2.75"/><path class="cls-1" d="M21.764 19.5h-2.25l-3-14.25-4.5 5.25c-.75 1.5 0 2.25 0 2.25m-6.734.707L3.014 19.5h-1.5m8.35-4.252l-.85 4.252h-1.5m-1.125-9a.375.375 0 0 1 .375.375m-.75 0a.375.375 0 0 1 .375-.375m0 .75a.375.375 0 0 1-.375-.375m.75 0a.375.375 0 0 1-.375.375"/></svg>