<svg id="Regular" xmlns="http://www.w3.org/2000/svg" viewBox="0 0 24 24" width="24" height="24"><defs><style>.cls-1{fill:none;stroke:#000;stroke-linecap:round;stroke-linejoin:round;stroke-width:1.5px}</style></defs><title>insect</title><path class="cls-1" d="M5.25 16c-2.485 0-4.5-1.265-4.5-3.75 0-3 3-5.25 6-5.25h6v9zm7.5-9s1.5-3.75 5.25-3.75c3 0 3.75 1.5 3.75 1.5"/><path class="cls-1" d="M12.75 16h6c4.5 0 4.5-5.25 4.5-5.25s-3.908 1.183-5.25-1.5A7.345 7.345 0 0 1 17.25 4l.242-.727M2.25 20.5a4.5 4.5 0 0 1 4.5-4.5m1.5 4.5a4.5 4.5 0 0 1 4.5-4.5m1.5 0a4.5 4.5 0 0 1 4.5 4.5m-2.625-8.25a.375.375 0 0 1 .375.375m-.75 0a.375.375 0 0 1 .375-.375m0 .75a.375.375 0 0 1-.375-.375m.75 0a.375.375 0 0 1-.375.375"/></svg>