<svg id="Regular" xmlns="http://www.w3.org/2000/svg" viewBox="0 0 24 24" width="24" height="24"><defs><style>.cls-1{fill:none;stroke:#000;stroke-linecap:round;stroke-linejoin:round;stroke-width:1.5px}</style></defs><title>insect-ant</title><ellipse class="cls-1" cx="12.01" cy="7.5" rx="2.25" ry="3"/><circle class="cls-1" cx="12.01" cy="12" r="1.5"/><path class="cls-1" d="M15.01 18c0 3-2.25 5.25-3 5.25s-3-2.25-3-5.25c0-2.486 1.343-4.5 3-4.5s3 2.014 3 4.5zM13.322 5.063l.938-2.813 3-1.5m-6.562 4.313L9.76 2.25l-3-1.5m6.562 9.187l3.387-.677a3 3 0 0 0 1.984-1.4l1.567-2.61M13.51 12l3.33.555a3 3 0 0 0 2.16-.463l1.263-.842M14.41 15.3l2.683 2.012a3 3 0 0 1 1.142 1.812l.525 2.626M10.7 9.937L7.311 9.26a3 3 0 0 1-1.984-1.4L3.76 5.25M10.51 12l-3.33.555a3 3 0 0 1-2.157-.463L3.76 11.25"/><path class="cls-1" d="M9.61 15.3l-2.683 2.012a3 3 0 0 0-1.142 1.812L5.26 21.75"/></svg>