<svg id="Regular" xmlns="http://www.w3.org/2000/svg" viewBox="0 0 24 24" width="24" height="24"><defs><style>.cls-1{fill:none;stroke:#000;stroke-linecap:round;stroke-linejoin:round;stroke-width:1.5px}</style></defs><title>insect-catch-1</title><path class="cls-1" d="M18.01 13.674a.576.576 0 0 1-.576.576H10.51l1.5-3h2.89a3 3 0 0 1 2.5 1.336l.512.769a.573.573 0 0 1 .098.319zm-6-2.424l-1.1-.827a4.523 4.523 0 0 0-4.15-.673m4.5 4.5v1.5m3-1.5v1.5m1.5-1.5l1.5 1.5M6.76 13.5a7.105 7.105 0 0 0 3.177.75h.573"/><path class="cls-1" d="M2.76 5.25h18.5a2 2 0 0 1 2 2v15a1 1 0 0 1-1 1H1.76a1 1 0 0 1-1-1v-15a2 2 0 0 1 2-2zm14.5 0v-1.5a3 3 0 0 0-3-3h-4.5a3 3 0 0 0-3 3v1.5m-6 13.5h22.5"/></svg>