<svg id="Regular" xmlns="http://www.w3.org/2000/svg" viewBox="0 0 24 24" width="24" height="24"><defs><style>.cls-1{fill:none;stroke:#000;stroke-linecap:round;stroke-linejoin:round;stroke-width:1.5px}</style></defs><title>insect-2</title><path class="cls-1" d="M16.885 10.125a1.281 1.281 0 0 1-.375-.906V8.25a1.5 1.5 0 0 0-1.5-1.5h-6a1.5 1.5 0 0 0-1.5 1.5v.969a1.281 1.281 0 0 1-.375.906 1.279 1.279 0 0 0-.375.9V19.5c0 1.656 1.5 3.75 5.25 3.75s5.25-2.094 5.25-3.75v-8.47a1.279 1.279 0 0 0-.375-.905z"/><path class="cls-1" d="M8.344 6.905A12.352 12.352 0 0 1 6.76 2.25c0-1.715 1.5-1.5 2.25-1.5m6.666 6.155A12.352 12.352 0 0 0 17.26 2.25c0-1.715-1.5-1.5-2.25-1.5m-7.995 3H8.26m8.745 0H15.76M3.01 14.25a3.049 3.049 0 0 0 3.75 0m-3.75 3.833a3.049 3.049 0 0 0 3.75 0m14.25-3.833a3.049 3.049 0 0 1-3.75 0m3.75 3.833a3.049 3.049 0 0 1-3.75 0M7.502 9.364L12.01 15l4.508-5.636M12.01 15v8.25"/></svg>