<svg id="Regular" xmlns="http://www.w3.org/2000/svg" viewBox="0 0 24 24" width="24" height="24"><defs><style>.cls-1{fill:none;stroke:#000;stroke-linecap:round;stroke-linejoin:round;stroke-width:1.5px}</style></defs><title>insect-scorpion</title><path class="cls-1" d="M11.01 6.75V15a3 3 0 0 0 6 0V6.75zm0 0s-1.25 3-2.5 3S7.26 6 7.26 6m2.25-3c0 1.657-1.007 3-2.25 3S5.01 4.657 5.01 3V.75l2.25 1.5L9.51.75zm7.5 3.75s1.25 3 2.5 3S20.76 6 20.76 6m-2.25-3c0 1.657 1.007 3 2.25 3s2.25-1.343 2.25-3V.75l-2.25 1.5-2.25-1.5z"/><path class="cls-1" d="M14.01 18s0 5.25-5.25 5.25-5.25-6-5.25-6"/><path class="cls-1" d="M5.7 14.5a5.5 5.5 0 0 0-2.19-3.25l-.75 2.25-1.5 1.5a2.25 2.25 0 0 0 4.5 0 2.22 2.22 0 0 0-.06-.5zm11.31-1.75a2.078 2.078 0 0 0 3 0m-3.076 2.924a2.04 2.04 0 0 0 3.076.076m-9-3.001a2.078 2.078 0 0 1-3 0m3.076 2.924a2.039 2.039 0 0 1-3.076.076m4.5-8.999v-1.5m3 1.5v-1.5m-1.5 5.25v2.25"/></svg>