<svg id="Regular" xmlns="http://www.w3.org/2000/svg" viewBox="0 0 24 24" width="24" height="24"><defs><style>.cls-1{fill:none;stroke:#000;stroke-linecap:round;stroke-linejoin:round;stroke-width:1.5px}</style></defs><title>insect-centipede</title><path class="cls-1" d="M6.01 7.5a2.25 2.25 0 0 1 0-4.5h8.25a9 9 0 1 1 0 18H9.01a2.25 2.25 0 1 1 0-4.5h5.25a4.5 4.5 0 1 0 0-9zM4.17 3.955A3.64 3.64 0 0 0 .76 3.75m3.41 2.795a3.646 3.646 0 0 1-3.41.205"/><path class="cls-1" d="M7.193 17.423L3.76 16.05s0-1.2 2.25-1.8m1.183 5.827L3.76 21.45s0 1.2 2.25 1.8m6.75-6.75a4.781 4.781 0 0 0 0 4.5m-3-13.5a4.781 4.781 0 0 0 0-4.5m4.686 4.5a4.78 4.78 0 0 0 0-4.5m3.687 6.707a4.8 4.8 0 0 0 3.129-3.362m-3.198 8.06a4.8 4.8 0 0 0 3.325 3.089M8.26 3s.75-1.5 0-2.25m0 6.75s.75 1.5 0 2.25m6-6.75s.75-1.5 0-2.25m5.859 4.418l.311-.186s1.44-.859 1.213-1.895M14.26 7.5s.75 1.5 0 2.25M12.01 21s-.75 1.5 0 2.25m0-6.75s-.75-1.5 0-2.25m8.463 4.261c.146.385.635 1.473 1.508 1.493m-4.531-4.83l-.135-.048s-1.578-.566-1.555-1.626"/></svg>