<svg id="Regular" xmlns="http://www.w3.org/2000/svg" viewBox="0 0 24 24" width="24" height="24"><defs><style>.cls-1{fill:none;stroke:#000;stroke-linecap:round;stroke-linejoin:round;stroke-width:1.5px}</style></defs><title>insect-cricket</title><path class="cls-1" d="M12.01 15c-2.485 0-4.5 1.007-4.5 2.25v3c0 1.242 2.015 3 4.5 3s4.5-1.758 4.5-3v-3c0-1.243-2.01-2.25-4.5-2.25z"/><ellipse class="cls-1" cx="17.26" cy="12.375" rx="2.25" ry="4.125"/><ellipse class="cls-1" cx="6.76" cy="12.375" rx="2.25" ry="4.125"/><path class="cls-1" d="M7.361 8.4a6.462 6.462 0 0 1 4.649-1.65 6.462 6.462 0 0 1 4.649 1.65"/><path class="cls-1" d="M15.01 7.327V6.75s0-6 2.25-6M9.01 7.327V6.75s0-6-2.25-6M12.01 18v5.25m-1.5-3.75h3m-6-2.197v-1.039m9 .986v-.986"/></svg>