<svg xmlns="http://www.w3.org/2000/svg" viewBox="0 0 24 24" width="24" height="24"><defs><style>.a{fill:none;stroke:#000;stroke-linecap:round;stroke-linejoin:round;stroke-width:1.5px}</style></defs><title>instrument-contrabass</title><path class="a" d="M12.947 16.257a3.091 3.091 0 0 1 2.888-.854c.117-.1.243-.181.353-.292a5.389 5.389 0 0 0 .147-7.573 5.285 5.285 0 0 0-7.512.148c-.11.111-.191.238-.29.356a3.15 3.15 0 0 1-.847 2.911 3.018 3.018 0 0 1-4.234.133 7.16 7.16 0 0 0-.606.5 6.929 6.929 0 0 0-.189 9.737 6.8 6.8 0 0 0 9.659-.191 7.208 7.208 0 0 0 .5-.611 3.077 3.077 0 0 1 .131-4.264zM4.5 19.501L.75 23.249M23.25.751l-12 12m9-12l3 3M18 3.001l3 3M6.866 14.963l-1.579.53m3.683 1.591l-.526 1.591"/></svg>