<svg xmlns="http://www.w3.org/2000/svg" viewBox="0 0 24 24" width="24" height="24"><defs><style>.a{fill:none;stroke:#000;stroke-linecap:round;stroke-linejoin:round;stroke-width:1.5px}</style></defs><title>instrument-pan-flute</title><path class="a" d="M7.5 14.25v-3A1.5 1.5 0 0 0 6 9.75H4.5a1.5 1.5 0 0 0-1.5 1.5v3m0 4.5v3a1.5 1.5 0 0 0 1.5 1.5H6a1.5 1.5 0 0 0 1.5-1.5v-3m4.5-4.5v-6a1.5 1.5 0 0 0-1.5-1.5H9a1.5 1.5 0 0 0-1.5 1.5v6"/><path class="a" d="M7.5 18.749v3A1.5 1.5 0 0 0 9 23.25h1.5a1.5 1.5 0 0 0 1.5-1.5v-3m4.5-4.5v-9a1.5 1.5 0 0 0-1.5-1.5h-1.5a1.5 1.5 0 0 0-1.5 1.5v9m0 4.5v3a1.5 1.5 0 0 0 1.5 1.5H15a1.5 1.5 0 0 0 1.5-1.5v-3m4.5-4.5v-12a1.5 1.5 0 0 0-1.5-1.5H18a1.5 1.5 0 0 0-1.5 1.5v12m0 4.5v3a1.5 1.5 0 0 0 1.5 1.5h1.5a1.5 1.5 0 0 0 1.5-1.5v-3"/><rect class="a" x=".75" y="14.25" width="22.5" height="4.5" rx="1" ry="1"/></svg>