<svg xmlns="http://www.w3.org/2000/svg" viewBox="0 0 24 24" width="24" height="24"><defs><style>.a{fill:none;stroke:#000;stroke-linecap:round;stroke-linejoin:round;stroke-width:1.5px}</style></defs><title>instrument-french-horn</title><path class="a" d="M22.5 11.229C20.821 7.542 16.367 6.15 9.75 6c6.616-.2 11.1-1.555 12.75-5.253zM9.766 23.233a14.309 14.309 0 0 1-3.016-8.809 14.319 14.319 0 0 1-3 8.826zm-8.137-8.23H17.37m-5.37-3l.02 8.92"/><path class="a" d="M8.4 21.17a7.968 7.968 0 0 0 1.319.106 7.838 7.838 0 0 0 7.81-7.866 4.9 4.9 0 0 0-4.919-4.881h-.979a4.9 4.9 0 0 0-4.881 4.92v.979"/><path class="a" d="M9.75 6c-4.329.015-8.265 3.43-8.25 7.646a7.6 7.6 0 0 0 4.029 6.644m5.721-8.287h1.5"/></svg>