<svg xmlns="http://www.w3.org/2000/svg" viewBox="0 0 24 24" width="24" height="24"><defs><style>.a{fill:none;stroke:#000;stroke-linecap:round;stroke-linejoin:round;stroke-width:1.5px}</style></defs><title>instrument-piano</title><path class="a" d="M18.75 8.25h4.5m-22.5 0h4.5m-3 0v7.25a.988.988 0 0 0 .975 1h17.55a.988.988 0 0 0 .975-1V8.25M2.25 13.5h19.5M3 16.472v6.778m18-6.777v6.777m-9-3.75v3.75m-1.5 0h3m3-22.5l4.5 7.5"/><path class="a" d="M8.75 4.5h6.5a.5.5 0 0 1 .5.5v8.5h-7.5V5a.5.5 0 0 1 .5-.5zm2.5 3h1.5m-1.5 3h1.5m-3 9h4.5"/></svg>