<svg xmlns="http://www.w3.org/2000/svg" viewBox="0 0 24 24" width="24" height="24"><defs><style>.a{fill:none;stroke:#000;stroke-linecap:round;stroke-linejoin:round;stroke-width:1.5px}</style></defs><title>instrument-harp</title><path class="a" d="M1.536.75h3v22.5h-3z"/><path class="a" d="M4.536 1.5a26.756 26.756 0 0 0 16.069.527 1.5 1.5 0 0 1 1.855 1.567c-.645 8.8-5.427 15.648-14.347 19.419a3.02 3.02 0 0 1-1.167.237h-2.41"/><path class="a" d="M4.536 5.25a16.681 16.681 0 0 0 11.671.832A1.5 1.5 0 0 1 18 8.034a19.956 19.956 0 0 1-9.772 11.1A3 3 0 0 1 6.8 19.5H4.536m3-13.19v13.098m3-12.674v10.99m3-11.119v8.607"/></svg>