<svg xmlns="http://www.w3.org/2000/svg" viewBox="0 0 24 24" width="24" height="24"><defs><style>.a{fill:none;stroke:#000;stroke-linecap:round;stroke-linejoin:round;stroke-width:1.5px}</style></defs><title>instrument-saxophone-play</title><path class="a" d="M19.777 1.481A2.548 2.548 0 0 0 18.4 4.81l4.542 10.99c1.076 2.6-.8 5.845-3.547 6.982s-6.366.164-7.442-2.437L10.817 17.6a1.275 1.275 0 0 0-.979-.772.488.488 0 0 1-.374-.67l2.688-6.482a.489.489 0 0 1 .9 0l2.8 6.76a1.274 1.274 0 0 0 2.355-.974l-2.76-6.672c-1.076-2.6 1.73-6.231 4.331-7.307l1.176-.489"/><circle class="a" cx="5.25" cy="12.75" r="1.5"/><path class="a" d="M6.75 12.75v-4.5"/><circle class="a" cx="2.25" cy="5.25" r="1.5"/><path class="a" d="M3.75 5.25V.75"/></svg>