<svg xmlns="http://www.w3.org/2000/svg" viewBox="0 0 24 24" width="24" height="24"><defs><style>.a{fill:none;stroke:#000;stroke-linecap:round;stroke-linejoin:round;stroke-width:1.5px}</style></defs><title>instrument-piano-keys</title><path class="a" d="M4.5 4.5H3A1.5 1.5 0 0 0 1.5 6v13.5A1.5 1.5 0 0 0 3 21h18a1.5 1.5 0 0 0 1.5-1.5V6A1.5 1.5 0 0 0 21 4.5h-1.5"/><rect class="a" x="4.5" y="3" width="3" height="9.75" rx="1.5" ry="1.5"/><rect class="a" x="10.5" y="3" width="3" height="9.75" rx="1.5" ry="1.5"/><rect class="a" x="16.5" y="3" width="3" height="9.75" rx="1.5" ry="1.5"/><path class="a" d="M6 12.75V21m6-8.25V21m6-8.25V21M10.5 4.5h-3 3zm6 0h-3 3z"/></svg>