<svg xmlns="http://www.w3.org/2000/svg" viewBox="0 0 24 24" width="24" height="24"><defs><style>.a{fill:none;stroke:#000;stroke-linecap:round;stroke-linejoin:round;stroke-width:1.5px}</style></defs><title>instrument-guitar</title><path class="a" d="M12.623 17.9a1.5 1.5 0 0 1 1.24-1.651 3.008 3.008 0 0 0 1.658-.83c1.465-1.464 1.1-4.2-.819-6.123s-4.659-2.284-6.123-.819a3.008 3.008 0 0 0-.83 1.658A1.5 1.5 0 0 1 6.1 11.377a4.741 4.741 0 0 0-3.98 1.248c-2.05 2.05-1.64 5.785.916 8.341s6.291 2.966 8.341.916a4.738 4.738 0 0 0 1.246-3.982z"/><rect class="a" x="17.645" y="2.23" width="5.25" height="3" rx="1.5" ry="1.5" transform="rotate(-45 20.27 3.73)"/><path class="a" d="M18.414 5.586l-3.712 3.712M18.944.813l1.061 1.061m2.121 2.121l1.061 1.061m-2.652.53l1.061 1.061m-4.243-4.243l1.061 1.061"/><circle class="a" cx="10.989" cy="13.011" r="1.5"/><path class="a" d="M5.156 16.723l2.121 2.121"/></svg>