<svg xmlns="http://www.w3.org/2000/svg" viewBox="0 0 24 24" width="24" height="24"><defs><style>.a{fill:none;stroke:#000;stroke-linecap:round;stroke-linejoin:round;stroke-width:1.5px}</style></defs><title>instrument-maracas-1</title><circle class="a" cx="5.571" cy="7.876" r="4.821"/><path class="a" d="M1.342 10.194l2.6.372a.8.8 0 0 0 .909-.909L4.587 7.8a.8.8 0 0 1 .909-.91l1.856.266a.8.8 0 0 0 .909-.91l-.371-2.6m1.091 7.64l9.659 9.659"/><circle class="a" cx="18.429" cy="7.876" r="4.821"/><path class="a" d="M22.658 10.194l-2.6.372a.8.8 0 0 1-.909-.909l.264-1.857a.8.8 0 0 0-.909-.91l-1.856.266a.8.8 0 0 1-.909-.91l.371-2.6m-1.091 7.64L5.36 20.945"/></svg>