<svg xmlns="http://www.w3.org/2000/svg" viewBox="0 0 24 24" width="24" height="24"><defs><style>.a{fill:none;stroke:#000;stroke-linecap:round;stroke-linejoin:round;stroke-width:1.5px}</style></defs><title>instrument-accordian</title><path class="a" d="M9.346 17.1a.978.978 0 0 1-.682 1.2l-2.829.782a1.957 1.957 0 0 1-2.407-1.365L.821 8.3a1.957 1.957 0 0 1 1.365-2.411l2.828-.782a.978.978 0 0 1 1.2.682zM4.171 9.4L7 8.618m-1.786 4.553l2.828-.782m-2.153 3.223l2.828-.782m5.761 2.145a.979.979 0 0 0 .659 1.217l2.813.835a1.956 1.956 0 0 0 2.433-1.318l2.785-9.377A1.956 1.956 0 0 0 21.85 5.9l-2.813-.835a.978.978 0 0 0-1.216.659z"/><path class="a" d="M19.946 9.448a.375.375 0 1 1-.467.252.375.375 0 0 1 .467-.252m-1.607 4.858a.375.375 0 1 1-.466.253.376.376 0 0 1 .466-.253M12 13.155V4.84m-1.957 7.337l-.978-6.848m4.891 6.848l.978-6.848"/></svg>