<svg xmlns="http://www.w3.org/2000/svg" viewBox="0 0 24 24" width="24" height="24"><defs><style>.a{fill:none;stroke:#000;stroke-linecap:round;stroke-linejoin:round;stroke-width:1.5px}</style></defs><title>instrument-classical-piano</title><path class="a" d="M2.25 20.183h19.5a1.5 1.5 0 0 0 1.5-1.5v-4.5a1.5 1.5 0 0 0-1.5-1.5h-15a1.5 1.5 0 0 0-1.5 1.5 1.5 1.5 0 0 1-1.5 1.5h-1.5a1.5 1.5 0 0 0-1.5 1.5v1.5a1.5 1.5 0 0 0 1.5 1.5z"/><path class="a" d="M6.75 12.683l3.8-10.892a1.5 1.5 0 0 1 2.3-.673l.546.409A3 3 0 0 1 14.508 3.2l.292 1.168a1.5 1.5 0 0 0 .981 1.059l1.427.476c.028.009.056.019.083.03 2.3.921 3.958 3.744 4.366 6.19l.093.56m-7.5 0L12 8.933m-6.75 11.25v3m15-3v3"/></svg>