<svg id="Regular" xmlns="http://www.w3.org/2000/svg" viewBox="0 0 24 24" width="24" height="24"><defs><style>.cls-1{fill:none;stroke:#000;stroke-linecap:round;stroke-linejoin:round;stroke-width:1.5px}</style></defs><title>insurance-cheap</title><path class="cls-1" d="M23.25 4.5a.75.75 0 0 0-.75-.75h-2.25V1.5a.75.75 0 0 0-.75-.75H18a.75.75 0 0 0-.75.75v2.25H15a.75.75 0 0 0-.75.75V6a.75.75 0 0 0 .75.75h2.25V9a.75.75 0 0 0 .75.75h1.5a.75.75 0 0 0 .75-.75V6.75h2.25a.75.75 0 0 0 .75-.75zM.75 21.75L23.25 15M12 18.375l3.433 4.875h-7.5M1.5 13.5a2.25 2.25 0 1 0 2.25-2.25A2.25 2.25 0 1 1 6 9M3.75 5.25v1.5m0 9v1.5"/></svg>