<svg id="Regular" xmlns="http://www.w3.org/2000/svg" viewBox="0 0 24 24" width="24" height="24"><defs><style>.cls-1{fill:none;stroke:#000;stroke-linecap:round;stroke-linejoin:round;stroke-width:1.5px}</style></defs><title>insurance-expensive</title><path class="cls-1" d="M23.25 12a.75.75 0 0 0-.75-.75h-2.25V9a.75.75 0 0 0-.75-.75H18a.75.75 0 0 0-.75.75v2.25H15a.75.75 0 0 0-.75.75v1.5a.75.75 0 0 0 .75.75h2.25v2.25a.75.75 0 0 0 .75.75h1.5a.75.75 0 0 0 .75-.75v-2.25h2.25a.75.75 0 0 0 .75-.75zm0 9.75L.75 15M12 18.375L7.933 23.25h7.5M1.5 9a2.25 2.25 0 1 0 2.25-2.25A2.25 2.25 0 1 1 6 4.5M3.75.75v1.5m0 9v1.5"/></svg>