<svg id="Regular" xmlns="http://www.w3.org/2000/svg" viewBox="0 0 24 24" width="24" height="24"><defs><style>.cls-1{fill:none;stroke:#000;stroke-linecap:round;stroke-linejoin:round;stroke-width:1.5px}</style></defs><title>insurance-hand</title><path class="cls-1" d="M.75 14.251v9m0-1.5h15a3 3 0 0 0-3-3H9a3 3 0 0 0-3-3H.75m5.25 3h3M23.25 6a.75.75 0 0 0-.75-.75h-3.75V1.5A.75.75 0 0 0 18 .75h-3a.75.75 0 0 0-.75.75v3.75H10.5a.75.75 0 0 0-.75.75v3a.75.75 0 0 0 .75.75h3.75v3.75a.75.75 0 0 0 .75.75h3a.75.75 0 0 0 .75-.75V9.75h3.75a.75.75 0 0 0 .75-.75z"/></svg>