<svg id="Regular" xmlns="http://www.w3.org/2000/svg" viewBox="0 0 24 24" width="24" height="24"><defs><style>.cls-1{fill:none;stroke:#000;stroke-linecap:round;stroke-linejoin:round;stroke-width:1.5px}</style></defs><title>insurance-umbrella-heart</title><path class="cls-1" d="M23.25 13.5a11.25 11.25 0 0 0-22.5 0l.811-.676a4.707 4.707 0 0 1 6.689.676 5.3 5.3 0 0 1 7.5 0 4.707 4.707 0 0 1 6.689-.676z"/><path class="cls-1" d="M12 11.947v9.8a1.5 1.5 0 0 1-3 0M12 2.25V.75M22.68 16.6a1.9 1.9 0 0 0-2.751 0l-1.179 1.214-1.179-1.214a1.9 1.9 0 0 0-2.751 0 2.06 2.06 0 0 0 0 2.845l3.511 3.631a.579.579 0 0 0 .838 0l3.511-3.636a2.06 2.06 0 0 0 0-2.84z"/></svg>