<svg xmlns="http://www.w3.org/2000/svg" viewBox="0 0 24 24" width="24" height="24"><defs><style>.a{fill:none;stroke:#000;stroke-linecap:round;stroke-linejoin:round;stroke-width:1.5px}</style></defs><title>iris-scan-search</title><path class="a" d="M21.75 9.7a19.96 19.96 0 0 0 1.073-1.093 1.662 1.662 0 0 0 0-2.226C20.2 3.5 16.031.684 12 .751 7.969.684 3.8 3.5 1.179 6.385a1.663 1.663 0 0 0 0 2.226 18.849 18.849 0 0 0 7.082 4.955M9.745 10.5a3.75 3.75 0 1 1 6.005-3"/><circle class="a" cx="15.75" cy="15.75" r="5.25"/><path class="a" d="M23.25 23.25l-3.764-3.764"/></svg>