<svg xmlns="http://www.w3.org/2000/svg" viewBox="0 0 24 24" width="24" height="24"><defs><style>.a{fill:none;stroke:#000;stroke-linecap:round;stroke-linejoin:round;stroke-width:1.5px}</style></defs><title>iris-scan-1</title><path class="a" d="M4.5 12s3-4.5 7.5-4.5 7.5 4.5 7.5 4.5-3 4.5-7.5 4.5S4.5 12 4.5 12z"/><rect class="a" x="10.125" y="10.125" width="3.75" height="3.75" rx="1.875" ry="1.875"/><path class="a" d="M.75 4.5V2.25a1.5 1.5 0 0 1 1.5-1.5H4.5M23.25 4.5V2.25a1.5 1.5 0 0 0-1.5-1.5H19.5M.75 19.5v2.25a1.5 1.5 0 0 0 1.5 1.5H4.5m18.75-3.75v2.25a1.5 1.5 0 0 1-1.5 1.5H19.5"/></svg>