<svg xmlns="http://www.w3.org/2000/svg" viewBox="0 0 24 24" width="24" height="24"><defs><style>.a{fill:none;stroke:#000;stroke-linecap:round;stroke-linejoin:round;stroke-width:1.5px}</style></defs><title>iris-scan-approved-1</title><path class="a" d="M21.75 9.7a19.96 19.96 0 0 0 1.073-1.093 1.662 1.662 0 0 0 0-2.226C20.2 3.5 16.031.684 12 .751 7.969.684 3.8 3.5 1.179 6.385a1.663 1.663 0 0 0 0 2.226 18.849 18.849 0 0 0 7.082 4.955m2.239-2.629A3.749 3.749 0 1 1 15.438 9"/><circle class="a" cx="17.25" cy="17.25" r="6"/><path class="a" d="M19.924 15.505l-2.905 3.874a.751.751 0 0 1-1.131.08l-1.5-1.5"/></svg>