<svg xmlns="http://www.w3.org/2000/svg" viewBox="0 0 24 24" width="24" height="24"><g fill="none" stroke="#000" stroke-linejoin="round" stroke-miterlimit="10"><path d="M18.41 23.5c0-3.5-5.229-4.5-8.955-4.5C5.74 19 .5 20 .5 23.5h17.91z"/><path d="M6.078 19.276L12 8.5l-.482 10.601M12 8.5C8.5 11 5 11 .955 10.784 3 6 9.5 6.5 12 7.5v1z"/><path d="M4.5 4.5c3.602-2.4 7.5.5 7.5 3l-7.5-3zm7.5 4c2.5 3 7 2.5 11.045 2.284C21 6 14.5 6.5 12 7.5v1z"/><path d="M19.5 4.5c-3.602-2.4-7.5.5-7.5 3l7.5-3z"/><path stroke-linecap="round" d="M10 17h1.596M10.5 15h1.19"/></g><path fill="none" d="M0 0h24v24H0z"/></svg>