<svg xmlns="http://www.w3.org/2000/svg" viewBox="0 0 24 24" width="24" height="24"><g fill="none" stroke="#000" stroke-linejoin="round" stroke-miterlimit="10"><path d="M18.5 9.5v12a2 2 0 01-2 2h-9a2 2 0 01-2-2v-12"/><path d="M19.5 6.5l.5 2c-.456.607-1.182 1-2 1a2.476 2.476 0 01-1.5-.512c-.419.317-.935.512-1.5.512s-1.081-.195-1.5-.512c-.419.317-.935.512-1.5.512s-1.081-.195-1.5-.512c-.419.317-.935.512-1.5.512s-1.081-.195-1.5-.512A2.476 2.476 0 016 9.5a2.498 2.498 0 01-2.003-1.004L4.5 6.5a1 1 0 01-1-1v-1a1 1 0 011-1h15a1 1 0 011 1v1a1 1 0 01-1 1zm-15 0h15m-10.998 8h7v5h-7z"/></g><path fill="none" d="M0 0h24v24H0z"/></svg>