<svg xmlns="http://www.w3.org/2000/svg" viewBox="0 0 24 24" width="24" height="24"><defs><style>.a{fill:none;stroke:#000;stroke-linecap:round;stroke-linejoin:round;stroke-width:1.5px}</style></defs><title>java-1</title><path class="a" d="M23.238 21v.75a1.5 1.5 0 0 1-1.5 1.5h-19.5a1.5 1.5 0 0 1-1.5-1.5V21m0-13.5V2.254a1.5 1.5 0 0 1 1.5-1.5h19.5a1.5 1.5 0 0 1 1.5 1.5V7.5m-18.75 3v6a1.5 1.5 0 0 1-1.5 1.5h-1.5m6 0v-6a1.5 1.5 0 1 1 3 0v6m-3-2.996h3m9 2.996v-6a1.5 1.5 0 1 1 3 0v6m-3-2.996h3m-9-4.504v2.55a8.924 8.924 0 0 0 1.5 4.95 8.932 8.932 0 0 0 1.5-4.954V10.5"/></svg>