<svg id="Regular" xmlns="http://www.w3.org/2000/svg" viewBox="0 0 24 24" width="24" height="24"><defs><style>.cls-1{fill:none;stroke:#000;stroke-linecap:round;stroke-linejoin:round;stroke-width:1.5px}</style></defs><title>jellyfish</title><path class="cls-1" d="M7.5 12.749c0 3.158 1.5 3.79 1.5 6.951a9.614 9.614 0 0 1-.652 3.553M16.5 12.749c0 3.158 1.5 3.79 1.5 6.947a8.752 8.752 0 0 1-.731 3.552M12 12.749c0 3.158 1.5 3.79 1.5 6.947a9.379 9.379 0 0 1-.684 3.554M21 9.75a9 9 0 0 0-18 0 .8.8 0 0 0 1.249.667l1-.667a4.054 4.054 0 0 1 4.5 0 4.057 4.057 0 0 0 4.5 0 4.054 4.054 0 0 1 4.5 0l1 .667A.8.8 0 0 0 21 9.75zM7.316 6a6.024 6.024 0 0 1 2.433-1.814"/></svg>