<svg id="Regular" xmlns="http://www.w3.org/2000/svg" viewBox="0 0 24 24" width="24" height="24"><defs><style>.cls-1{fill:none;stroke:#000;stroke-linecap:round;stroke-linejoin:round;stroke-width:1.5px}</style></defs><title>jellyfish-box</title><path class="cls-1" d="M19.259 6.063A7.021 7.021 0 0 0 12 .75a7.021 7.021 0 0 0-7.259 5.313A2.246 2.246 0 1 0 6.75 9.916a2.235 2.235 0 0 0 3.375-.425 2.247 2.247 0 0 0 3.75 0 2.235 2.235 0 0 0 3.375.425 2.245 2.245 0 1 0 2.009-3.853zM12 13.5v9.75M9.988 4.155a5.2 5.2 0 0 1 4.024 0M3.75 13.333c0 2.125 1.5 2.834 1.5 4.25s-.75 2.125-.75 3.542a3.01 3.01 0 0 0 .75 2.125m2.25-9.917c0 2.125 1.5 2.834 1.5 4.25s-.75 2.125-.75 3.542A3.01 3.01 0 0 0 9 23.25m11.25-9.917c0 2.125-1.5 2.834-1.5 4.25s.75 2.125.75 3.542a3.01 3.01 0 0 1-.75 2.125m-2.25-9.917c0 2.125-1.5 2.834-1.5 4.25s.75 2.125.75 3.542A3.01 3.01 0 0 1 15 23.25"/></svg>