<svg id="Regular" xmlns="http://www.w3.org/2000/svg" viewBox="0 0 24 24" width="24" height="24"><defs><style>.cls-1{fill:none;stroke:#000;stroke-linecap:round;stroke-linejoin:round;stroke-width:1.5px}</style></defs><title>jellyfish-1</title><path class="cls-1" d="M20.686 2.231a6.9 6.9 0 0 0-9.193.646L8.538 5.833a1.488 1.488 0 0 0 0 2.106l7.371 7.371a1.488 1.488 0 0 0 2.106 0l3.159-3.159a6.7 6.7 0 0 0-.488-9.92zM9.064 8.466C6.847 10.682 7.457 12.179 5.24 14.4A8.423 8.423 0 0 1 .8 16.89m14.582-2.106c-2.217 2.216-1.607 3.716-3.824 5.93a7.977 7.977 0 0 1-4.6 2.393m5.265-11.482c-2.217 2.217-1.607 3.713-3.824 5.93a8.572 8.572 0 0 1-4.6 2.494M13.8 4.837a3.723 3.723 0 0 1 5.265 0"/></svg>