<svg id="Regular" xmlns="http://www.w3.org/2000/svg" viewBox="0 0 24 24" width="24" height="24"><defs><style>.cls-1{fill:none;stroke:#000;stroke-linecap:round;stroke-linejoin:round;stroke-width:1.5px}</style></defs><title>jellyfish-group</title><path class="cls-1" d="M12.177 20.528a4.816 4.816 0 0 1 1.816-3.553l-1.162-.593a3.377 3.377 0 0 1 .291-2.091c1-1.963 3.8-2.539 6.257-1.286s3.629 3.859 2.627 5.822a3.378 3.378 0 0 1-1.523 1.462l-1.16-.592a4.821 4.821 0 0 1-1.815 3.553m-.851-4.914l-1.361 2.665M2.427 8.936a4.814 4.814 0 0 1 1.816-3.553L3.081 4.79a3.38 3.38 0 0 1 .291-2.09c1-1.962 3.8-2.538 6.257-1.285s3.629 3.859 2.627 5.821A3.38 3.38 0 0 1 10.733 8.7l-1.16-.6a4.823 4.823 0 0 1-1.815 3.554m-.851-4.911L5.546 9.408"/></svg>