<svg xmlns="http://www.w3.org/2000/svg" viewBox="0 0 24 24" width="24" height="24"><g fill="none" stroke="#000" stroke-linecap="round" stroke-linejoin="round" stroke-miterlimit="10"><path d="M18 23.5H6l1-4h10zm-5-19l1-2a2 2 0 00-4 0l1 2m3.5 4v11h-5v-11H5.236C4.025 8.5 3.81 7.87 2 5.5c6.5 0 6.5-1 10-1s3.5 1 10 1c-1.807 2.365-2.022 3-3.236 3H14.5zm-5 5s2.5 2.5 5 2.5m-5-6s1.338 1.116 2.973 1.856m-5.264-6.69S10 7.5 12.5 7.5m8.75-1H23m-20.25 0H1"/><path d="M12.5 4.5V13h2V4.721"/></g><path fill="none" d="M0 0h24v24H0z"/></svg>