<svg xmlns="http://www.w3.org/2000/svg" viewBox="0 0 24 24" width="24" height="24"><g fill="none" stroke="#000" stroke-linejoin="round" stroke-miterlimit="10"><path stroke-linecap="round" d="M4.5 20.495H2.236c-.967 0-1.75-1.033-1.75-2 0-.483.196-.921.514-1.237l8.002-8.052.498-5.461c.5-2 2.5-3 2.5-3s2 1 2.5 3l.498 5.461 7.996 8.06c.312.315.506.75.506 1.229 0 .967-.783 2-1.75 2H19.5"/><path stroke-linecap="round" d="M13 4.745a1 1 0 10-2 0v4a1 1 0 102 0v-4z"/><path d="M10 2.5h4"/><path stroke-linecap="round" d="M4.5 17.495h4v3.999h-4zm11 0h4v4h-4zm-3.5 4.75a1.75 1.75 0 00-1.75-1.75H8.5m3.5 1.75c0-.966.783-1.75 1.75-1.75h1.75m-9-3v1.5m11-1.5v1.5m-9-6v2.5m7-2.5v2.5m-9 6v2m11-2v2m-13-2v1m4-1v1m7-1v1m4-1.25v1.25"/></g><path fill="none" d="M0 0h24v24H0z"/></svg>