<svg xmlns="http://www.w3.org/2000/svg" viewBox="0 0 24 24" width="24" height="24"><g fill="none" stroke="#000" stroke-linejoin="round" stroke-miterlimit="10"><path d="M23.5 23.5v-2c-2.451.521-4.496-2-4.496-2H19s-1.165 2-3.5 2c-2.436 0-3.5-2-3.5-2s-1.064 2-3.5 2c-2.335 0-3.5-2-3.5-2h-.004S2.951 22.021.5 21.5v2h23z"/><path d="M3.815 20.591L1.5 17.503h21l-2.314 3.088m2.314-3.088h-21c0-5.458 3.521-8.916 5-8.916l4 4.916H19c2.5 0 3.5 1.542 3.5 4z"/><path stroke-linecap="round" d="M14 9.503h-2.625l-2.292 2.259m-7.21 2.741H5m7.187-1l4.047 4"/></g><path fill="none" d="M0 0h24v24H0z"/></svg>