<svg xmlns="http://www.w3.org/2000/svg" viewBox="0 0 24 24" width="24" height="24"><defs><style>.a{fill:none;stroke:#000;stroke-linecap:round;stroke-linejoin:round;stroke-width:1.5px}</style></defs><title>job-seach-profile</title><path class="a" d="M23.136 23.25l.1-1.122a3 3 0 0 0-2.337-3.2l-3.651-.811v-5.742A1.877 1.877 0 0 0 15.3 10.5a1.793 1.793 0 0 0-1.8 1.876v9.2l-1.477-1.108a1.533 1.533 0 0 0-2.146 2.145l.475.633"/><path class="a" d="M6.75 19.32h-4.5a1.5 1.5 0 0 1-1.5-1.5V2.25a1.5 1.5 0 0 1 1.5-1.5h13.5a1.5 1.5 0 0 1 1.5 1.5V7.5"/><circle class="a" cx="9" cy="6.375" r="2.625"/><path class="a" d="M11.017 10.218A4.546 4.546 0 0 0 9 9.75a4.485 4.485 0 0 0-4.224 3 4.534 4.534 0 0 0-.264 1.5m-.012 0h6"/></svg>