<svg xmlns="http://www.w3.org/2000/svg" viewBox="0 0 24 24" width="24" height="24"><defs><style>.a{fill:none;stroke:#000;stroke-linecap:round;stroke-linejoin:round;stroke-width:1.5px}</style></defs><title>job-seach-team-man</title><path class="a" d="M.611 23.25a6.75 6.75 0 0 1 13.5 0M3.806 8.781a6.848 6.848 0 0 0 4.93 2.094"/><path class="a" d="M10.591 13.44a4.125 4.125 0 1 1-3.23-6.69 4.237 4.237 0 0 1 .6.043m12.607 8.347a3.375 3.375 0 0 1-5.984-1.2m2.527 9.31h6a5.25 5.25 0 0 0-5.25-5.25 5.135 5.135 0 0 0-2.12.455"/><circle class="a" cx="15.625" cy="6.014" r="5.25"/><path class="a" d="M23.125 13.514L19.361 9.75m-12 6.75v3"/></svg>