<svg xmlns="http://www.w3.org/2000/svg" viewBox="0 0 24 24" width="24" height="24"><defs><style>.a{fill:none;stroke:#000;stroke-linecap:round;stroke-linejoin:round;stroke-width:1.5px}</style></defs><title>job-search</title><path class="a" d="M.817 8.25A9.071 9.071 0 0 1 13.356 1.5m3.626 13.768a9.063 9.063 0 0 1-13.932.652m13.104.3l7.029 7.03"/><path class="a" d="M5.183 5.25v6a1.5 1.5 0 0 1-1.5 1.5h-1.5m7.5-7.5a1.5 1.5 0 0 0-1.5 1.5v4.5a1.5 1.5 0 0 0 3 0v-4.5a1.5 1.5 0 0 0-1.5-1.5zm4.5 7.5v-7.5m0 0h1.5a1.5 1.5 0 0 1 1.5 1.5v.75a1.5 1.5 0 0 1-1.5 1.5h-1.5m0 0h1.5a1.5 1.5 0 0 1 1.5 1.5v.75a1.5 1.5 0 0 1-1.5 1.5h-1.5m9-7.5h-1.5a1.5 1.5 0 0 0-1.5 1.5c0 2.25 3 2.25 3 4.5a1.5 1.5 0 0 1-1.5 1.5h-1.5"/></svg>