<svg id="Regular" xmlns="http://www.w3.org/2000/svg" viewBox="0 0 24 24" width="24" height="24"><defs><style>.cls-1{fill:none;stroke:#000;stroke-linecap:round;stroke-linejoin:round;stroke-width:1.5px}</style></defs><title>kangaroo</title><path class="cls-1" d="M8.25 12.75a5.677 5.677 0 0 0-1.206 3A4.307 4.307 0 0 0 7.5 18a4.25 4.25 0 0 0 7.5 0c1.061-2.121 0-5.25-2.25-6s-4.5-2.25-4.5-5.25-1.5-4.5-3-4.5A26.52 26.52 0 0 0 .75 3v1.5s1.5 2.25 3.75 2.25c-.75 3-.75 6 0 7.5"/><path class="cls-1" d="M7.39 14.25H2.25A5.108 5.108 0 0 0 3.75 18a4.6 4.6 0 0 0 4.5 1.5l.375-.125M6.55 2.649L7.5.75m7.629 13.772c.627 1.268 3.5 6.568 8.121 7.228M12 20.187v1.563a1.5 1.5 0 0 1-1.5 1.5H3.75m.286-13.92l-.286-.142a2.646 2.646 0 0 0-3 .75"/></svg>