<svg xmlns="http://www.w3.org/2000/svg" viewBox="0 0 24 24" width="24" height="24"><g fill="none" stroke="#000" stroke-linecap="round" stroke-linejoin="round" stroke-miterlimit="10"><path d="M12 23.5a2.5 2.5 0 002.5-2.5v-1.5a1 1 0 011-1c0 1.557 1.078 3 3.5 3a4.5 4.5 0 004.5-4.5 5 5 0 01-5-5V7a6.5 6.5 0 10-13 0v5a5 5 0 01-5 5A4.5 4.5 0 005 21.5c2.422 0 3.5-1.443 3.5-3a1 1 0 011 1V21a2.5 2.5 0 002.5 2.5"/><path d="M16.5 9c0 3.59-2.015 6.5-4.5 6.5S7.5 12.59 7.5 9s1-6.5 4.5-6.5 4.5 2.91 4.5 6.5zM8.384 4.5h7.232m-8.056 3h8.873m-8.8 3h8.746m-7.626 3h6.494"/></g><path fill="none" d="M0 0h24v24H0z"/></svg>