<svg xmlns="http://www.w3.org/2000/svg" viewBox="0 0 24 24" width="24" height="24"><path fill="none" stroke="#000" stroke-linecap="round" stroke-linejoin="round" stroke-miterlimit="10" d="M23.5 15.5c0-1.1-.899-2-2-2h-19c-1.1 0-2 .9-2 2v6c0 1.1.9 2 2 2h19c1.101 0 2-.9 2-2v-6z"/><path d="M11 15h-1v1h1v-1zm3 0h-1v1h1v-1zm3 0h-1v1h1v-1zm3 0h-1v1h1v-1zM8 15H7v1h1v-1zm-3 0H4v1h1v-1zm6 2h-1v1h1v-1zm3 0h-1v1h1v-1zm3 0h-1v1h1v-1zm3 0h-1v1h1v-1zM8 17H7v1h1v-1zm-3 0H4v1h1v-1zm6 2h-1v1h1v-1zm3 0h-1v1h1v-1zm3 0h-1v1h1v-1zm3 0h-1v1h1v-1zM8 19H7v1h1v-1zm-3 0H4v1h1v-1z"/><path fill="none" stroke="#000" stroke-linecap="round" stroke-linejoin="round" stroke-miterlimit="10" d="M3.5 13.5v-1a3 3 0 013-3H20a3.5 3.5 0 100-7h-6.5A1.5 1.5 0 0112 1V.5"/><path fill="none" stroke="#000" stroke-linejoin="round" stroke-miterlimit="10" d="M5 21.5h14"/><path fill="none" d="M0 0h24v24H0z"/></svg>