<svg xmlns="http://www.w3.org/2000/svg" viewBox="0 0 24 24" width="24" height="24"><defs><style>.a{fill:none;stroke:#000;stroke-linecap:round;stroke-linejoin:round;stroke-width:1.5px}</style></defs><title>keyboard-delete</title><rect class="a" x="1.5" y="1.497" width="21" height="21" rx="3" ry="3"/><path class="a" d="M16.5 9.747l-4.5 4.5m0-4.5l4.5 4.5M11.121 6H18a1.5 1.5 0 0 1 1.5 1.5v9A1.5 1.5 0 0 1 18 18h-6.879a1.5 1.5 0 0 1-1.06-.439L4.72 12.527a.749.749 0 0 1 0-1.06l5.341-5.031A1.5 1.5 0 0 1 11.121 6z"/></svg>