<svg xmlns="http://www.w3.org/2000/svg" viewBox="0 0 24 24" width="24" height="24"><defs><style>.a{fill:none;stroke:#000;stroke-linecap:round;stroke-linejoin:round;stroke-width:1.5px}</style></defs><title>keyboard-gaming</title><path class="a" d="M23.25 18.75a3 3 0 0 1-3 3H18l-2.25 1.5h-7.5L6 21.75H3.75a3 3 0 0 1-3-3v-4.5a3 3 0 0 1 3-3H6l2.25-1.5h7.5l2.25 1.5h2.25a3 3 0 0 1 3 3zm-16.5-4.5h1.5m7.5 0h1.5m-6 0h1.5m-8.25 3H6m3 0h1.5m3 0H15m3 0h1.5m-10.5 3h6"/><path class="a" d="M5.25 11.25v-1.5a4.5 4.5 0 0 1 4.5-4.5h3.75A4.5 4.5 0 0 0 18 .75"/></svg>