<svg xmlns="http://www.w3.org/2000/svg" viewBox="0 0 24 24" width="24" height="24"><defs><style>.a{fill:none;stroke:#000;stroke-linecap:round;stroke-linejoin:round;stroke-width:1.5px}</style></defs><title>kindle-hold</title><path class="a" d="M16.5 14.25L14.824 13a1.569 1.569 0 0 0-2.247.385 1.569 1.569 0 0 0 0 1.74c7.4 6.731 6.17 4.217 6.17 7.38M15.747 9c5.247 3 7.5 3 7.5 13.5"/><path class="a" d="M12.747 21h-10.5a1.5 1.5 0 0 1-1.5-1.5V3a1.5 1.5 0 0 1 1.5-1.5h12a1.5 1.5 0 0 1 1.5 1.5v7.5m-15 6.75h9M4.497 6h7.5m-7.5 3h6.75m-6.75 3h2.25"/></svg>