<svg xmlns="http://www.w3.org/2000/svg" viewBox="0 0 24 24" width="24" height="24"><g fill="none" stroke="#000" stroke-linejoin="round" stroke-miterlimit="10"><path stroke-linecap="round" d="M6 9v1c-1 .5-.5 3 1 3 0 3 3.5 5 5 5m6-9v1c1 .5.5 3-1 3 0 3-3.5 5-5 5"/><path d="M18 9s-2-1-6-1-6 1-6 1"/><path stroke-linecap="round" d="M5.5 7L6 9m-.5-2V1.5l3.5 2 3-3 3 3 3.5-2V7L18 9m-8.938 7.741L3.096 18.5C1.534 19.086.5 21.333.5 23v.5h23V23c0-1.667-1.034-3.914-2.596-4.5l-5.983-1.779M9 10.5c0-.553.447-.5 1-.5s1-.053 1 .5m2 0c0-.553.447-.5 1-.5s1-.053 1 .5"/><circle stroke-linecap="round" cx="12" cy="21" r="1.5"/><path stroke-linecap="round" d="M10.55 20.622l-3.718-3.231m6.618 3.231l3.718-3.231"/></g><path fill="none" d="M0 0h24v24H0z"/></svg>