<svg xmlns="http://www.w3.org/2000/svg" viewBox="0 0 24 24" width="24" height="24"><g fill="none" stroke="#000" stroke-linecap="round" stroke-linejoin="round" stroke-miterlimit="10"><path d="M2.526 8.035A4.003 4.003 0 016.5 4.5c1.065 0 2.033.417 2.75 1.097m0-.001C9.967 4.917 10.935 4.5 12 4.5s2.033.417 2.75 1.097m0 0A3.983 3.983 0 0117.5 4.5a4.004 4.004 0 013.972 3.519M2.498 14.964A4.001 4.001 0 012.5 8.035m6.75 9.868A4 4 0 012.5 15m12.25 2.903C14.033 18.583 13.065 19 12 19s-2.033-.417-2.75-1.097M21.5 15a4 4 0 01-6.75 2.903m6.72-9.884a3.998 3.998 0 01.03 6.945"/><circle cx="7.5" cy="11.5" r="3"/><path d="M6.5 11v1m2 6.5L6 23l-2.144-5m5.644.5L12 23l2.5-4.5m1 0L18 23l2.142-5M3.378 6L6 .5 8.5 5m1 0L12 .5 14.5 5m1 0L18 .5l2.142 5"/></g><path fill="none" d="M0 0h24v24H0z"/></svg>