<svg xmlns="http://www.w3.org/2000/svg" viewBox="0 0 24 24" width="24" height="24"><g fill="none" stroke="#000" stroke-linejoin="round" stroke-miterlimit="10"><path stroke-linecap="round" d="M7.5 4.998l-7-2.5 3.69 7.455A7.965 7.965 0 0012 19.498a7.965 7.965 0 007.966-7.966 8.06 8.06 0 00-.161-1.605L23.5 2.498l-7 2.5"/><path stroke-linecap="round" d="M5.833 6.489A7.95 7.95 0 0112 3.566c2.5 0 4.732 1.151 6.193 2.953"/><path d="M6 16.706a2.502 2.502 0 00-1.449 1.788l-.525 2.503a1.25 1.25 0 001.619 1.438l2.386-1.158a2.502 2.502 0 001.47-2.278m8.391-2.367c.828.283 1.462.99 1.64 1.862l.525 2.503a1.25 1.25 0 01-1.62 1.438l-2.386-1.158a2.502 2.502 0 01-1.47-2.278"/><path stroke-linecap="round" d="M9.5 9.498v1.5m5-1.5v1.5m2 1.5l1 1m-10-1l-1 1m8 1a2.5 2.5 0 11-5 0h5z"/></g><path fill="none" d="M0 0h24v24H0z"/></svg>