<svg xmlns="http://www.w3.org/2000/svg" viewBox="0 0 24 24" width="24" height="24"><g fill="none" stroke="#000" stroke-linecap="round" stroke-linejoin="round" stroke-miterlimit="10"><path d="M20.25 11.5A3.25 3.25 0 0022 5.51L14.294.999C13.596.678 12.818.5 12 .5s-1.596.178-2.294.5L2 5.51a3.25 3.25 0 001.75 5.99h16.5zM14.693 1.232a3.25 3.25 0 105.258 3.079M4.048 4.31A3.25 3.25 0 109.31 1.236M6 11.25A2.75 2.75 0 00.903 9.815m22.195.001A2.75 2.75 0 0018 11.25"/><path d="M7.505 11.5l-1.005 8c-.381 2.673-2.11 4-4 4h19c-1.856 0-3.529-1.216-4-4l-1-8m-3 7.5a1.5 1.5 0 01-3 0m0-4.5v1m3-1v1"/></g><path fill="none" d="M0 0h24v24H0z"/></svg>