<svg xmlns="http://www.w3.org/2000/svg" viewBox="0 0 24 24" width="24" height="24"><g fill="none" stroke="#000" stroke-linecap="round" stroke-linejoin="round" stroke-miterlimit="10"><path d="M2.75 8.604a2.75 2.75 0 002.5 3.896c.834 0 1.746-.413 2.25-1h8c.504.605 1.4 1 2.25 1a2.75 2.75 0 002.449-4.003M2.75 8.5a2.25 2.25 0 01-.351-4.474m18.165-.004A2.25 2.25 0 0120.25 8.5M2.5 4a3.5 3.5 0 016.823-1.103m4.342.038A3.5 3.5 0 0120.5 4M9.295 2.821a2.499 2.499 0 014.41 0"/><path d="M8.5 11.5h7v12h-7zm2 5h-5m5-3v1m2-1v1"/><ellipse cx="12" cy="19.75" rx="1.5" ry="1.25"/></g><path fill="none" d="M0 0h24v24H0z"/></svg>