<svg xmlns="http://www.w3.org/2000/svg" viewBox="0 0 24 24" width="24" height="24"><g fill="none" stroke="#000" stroke-linecap="round" stroke-linejoin="round" stroke-miterlimit="10"><path d="M.5 3.5v.25A3.75 3.75 0 004.25 7.5H5M4.5 5A4.5 4.5 0 009 9.5h2.5m12-4a4 4 0 01-4 4h-1m-7 10.5V5.5m7 14.5V5.5m-4 7h-6M13 3.75a2 2 0 004 0"/><path d="M13 3.5a2 2 0 01-2 2h-.5m6.5-2a2 2 0 002 2h.5m-15-5V2m4 1v1.5m6-4V2m7-1v1.5m-8.5 5v2m2.5-2v2m.5 5a1.5 1.5 0 11-3 0h3zM11.5 20A3.5 3.5 0 018 23.5H5.5m13-3.5a3.5 3.5 0 003.5 3.5h1.5"/></g><path fill="none" d="M0 0h24v24H0z"/></svg>