<svg xmlns="http://www.w3.org/2000/svg" viewBox="0 0 24 24" width="24" height="24"><g fill="none" stroke="#000" stroke-linecap="round" stroke-linejoin="round" stroke-miterlimit="10"><path d="M17.609 10.646a6.753 6.753 0 00-11.741 1.9m4.129 8.569a6.75 6.75 0 008.957-7.159M8.073 17.103a2.499 2.499 0 10-3.872 3.132l2.654 2.572a1.75 1.75 0 002.807-2.091l-1.589-3.613z"/><path d="M15 21l1.213 1.949a1.252 1.252 0 002.287-.699L18 19M4.991 16.241a4.502 4.502 0 01-1.492-7.594L6.5 11m9.5.5l6.5-3a6.003 6.003 0 01-3.5 5.455M5.5 3c0 .5-2 5.5-2 5.5s-2-5-2-5.5S3 .5 3.5.5s2 2 2 2.5zm-4 5h4m5-2.916A17.93 17.93 0 0122.5.5l-4 8M5.326 10.094a7.254 7.254 0 0113.8-.148M11.5 17a2.5 2.5 0 002.5-2.5h-3.5m2-3v1m-3-1v1"/></g><path fill="none" d="M0 0h24v24H0z"/></svg>