<svg xmlns="http://www.w3.org/2000/svg" viewBox="0 0 24 24" width="24" height="24"><g fill="none" stroke="#000" stroke-linecap="round" stroke-linejoin="round" stroke-miterlimit="10"><path d="M12.25 20.5l6.927-2a9.489 9.489 0 002.24-3.998L10.25 14.5l-.751-1.004"/><path d="M.5 21a4.25 4.25 0 004.25-4.25l-.5-6.25a6 6 0 015.003-5.917l7.238-1.086a9.54 9.54 0 014.122 3.993M15.5 19.678l2.736 1.949a1 1 0 01-.486 1.873h-7"/><path d="M9.522 11.971a1.25 1.25 0 001.795 1.724l2.933-2.694a2.491 2.491 0 011.5-.501h6a1.5 1.5 0 100-3h-7c-.818 0-1.545.394-2.001 1l-3.227 3.471zM20.25 10.5l-1 4m-2.5-11l1.5-3-7.5.5a9 9 0 00-9 9c0 1.052.18 2.062.512 2.999L4.25 18m6.5 2.163a2.25 2.25 0 10-4-1.413l.492 4.75 3.508-3.337z"/></g><path fill="none" d="M0 0h24v24H0z"/></svg>