<svg id="Regular" xmlns="http://www.w3.org/2000/svg" viewBox="0 0 24 24" width="24" height="24"><defs><style>.cls-1{fill:none;stroke:#000;stroke-linecap:round;stroke-linejoin:round;stroke-width:1.5px}</style></defs><title>kitchenware-strainer</title><circle class="cls-1" cx="15.391" cy="8.609" r="7.561"/><path class="cls-1" d="M11.221 14.917l-7.592 7.592a1.511 1.511 0 0 1-2.138 0 1.511 1.511 0 0 1 0-2.138l7.592-7.592m5.994-8.625a.375.375 0 1 1 0 .53.375.375 0 0 1 0-.53M17.2 6.273a.375.375 0 1 1 0 .53.375.375 0 0 1 0-.53m2.116 2.119a.375.375 0 1 1 0 .531.375.375 0 0 1 0-.531m-6.358-2.119a.375.375 0 1 1 0 .53.375.375 0 0 1 0-.53m2.119 2.119a.375.375 0 1 1 0 .531.377.377 0 0 1 0-.531m2.123 2.12a.375.375 0 1 1 0 .53.374.374 0 0 1 0-.53m-6.361-2.12a.375.375 0 1 1 0 .531.375.375 0 0 1 0-.531m2.119 2.12a.375.375 0 1 1 0 .53.374.374 0 0 1 0-.53m2.119 2.119a.375.375 0 1 1 0 .53.375.375 0 0 1 0-.53M4.416 17.446l2.138 2.138"/></svg>