<svg id="Regular" xmlns="http://www.w3.org/2000/svg" viewBox="0 0 24 24" width="24" height="24"><defs><style>.cls-1{fill:none;stroke:#000;stroke-linecap:round;stroke-linejoin:round;stroke-width:1.5px}</style></defs><title>kitchenware-honey</title><path class="cls-1" d="M16.713.923c.586-.586 2.485.364 4.243 2.121s2.707 3.656 2.121 4.243M13 2.514c.586-.586 2.96.839 5.3 3.182s3.768 4.717 3.182 5.3m-11.133-5.83c.586-.586 2.96.838 5.3 3.182s3.768 4.717 3.182 5.3m-5.3-3.179C12.067 9 10.4 8.292 9.819 8.878c-.347.347-.238 1.072.212 1.909l-8.622 8.622a2.25 2.25 0 0 0 3.182 3.182l8.622-8.622c.837.45 1.562.559 1.909.212.586-.581-.122-2.248-1.591-3.712z"/></svg>