<svg id="Regular" xmlns="http://www.w3.org/2000/svg" viewBox="0 0 24 24" width="24" height="24"><defs><style>.cls-1{fill:none;stroke:#000;stroke-linecap:round;stroke-linejoin:round;stroke-width:1.5px}</style></defs><title>kitchen-window</title><path class="cls-1" d="M.75.5h22.5m-21 0h19.5v18H2.25z"/><path class="cls-1" d="M2.25.5V5h1.629a2.25 2.25 0 0 1 4.242 0h1.758a2.25 2.25 0 0 1 4.242 0h1.758a2.25 2.25 0 0 1 4.242 0h1.629V.5zm0 18V23h1.629a2.25 2.25 0 0 1 4.242 0h1.758a2.25 2.25 0 0 1 4.242 0h1.758a2.25 2.25 0 0 1 4.242 0h1.629v-4.5zm0-7.5h19.5m-19.5 3h3v4.5h-3zm13.5 0h3v4.5h-3zm3 0h3v4.5h-3z"/></svg>