<svg id="Regular" xmlns="http://www.w3.org/2000/svg" viewBox="0 0 24 24" width="24" height="24"><defs><style>.cls-1{fill:none;stroke:#000;stroke-linecap:round;stroke-linejoin:round;stroke-width:1.5px}</style></defs><title>kitchen-knife-set</title><path class="cls-1" d="M5.521 9.851l2.873-7.443a1.139 1.139 0 0 1 1.474-.653 1.14 1.14 0 0 1 .653 1.474l-2.877 7.442"/><path class="cls-1" d="M10.753 13.249a1.138 1.138 0 0 0-.593-1.607L5.521 9.851l-1.311 3.4m-1.737 4.498L1.025 21.5a.6.6 0 0 0 .628.817c2.05-.277 4.136-1.895 6.192-4.568m8.692-7.898l2.873-7.443a1.139 1.139 0 0 1 1.474-.653 1.14 1.14 0 0 1 .653 1.474l-2.877 7.442m-5.171 7.078L12.041 21.5a.6.6 0 0 0 .628.817c2.051-.277 4.136-1.895 6.192-4.568"/><path class="cls-1" d="M21.769 13.249a1.138 1.138 0 0 0-.593-1.607l-4.639-1.791-1.311 3.4"/><rect class="cls-1" x=".75" y="13.249" width="22.5" height="4.5" rx=".75" ry=".75"/></svg>