<svg id="Regular" xmlns="http://www.w3.org/2000/svg" viewBox="0 0 24 24" width="24" height="24"><defs><style>.cls-1{fill:none;stroke:#000;stroke-linecap:round;stroke-linejoin:round;stroke-width:1.5px}</style></defs><title>kitchenware-grater</title><path class="cls-1" d="M20.622 21.65a1.506 1.506 0 0 1-1.5 1.6H4.875a1.5 1.5 0 0 1-1.5-1.6l1.21-18.1A3 3 0 0 1 7.578.75h8.844a3 3 0 0 1 2.993 2.8zM4.472 5.25h15.056"/><path class="cls-1" d="M8.25 7.5a.375.375 0 1 1-.375.375.375.375 0 0 1 .375-.375m3.75 0a.375.375 0 1 1-.375.375A.375.375 0 0 1 12 7.5m-2.25 3a.375.375 0 1 1-.375.375.375.375 0 0 1 .375-.375m4.5 0a.375.375 0 1 1-.375.375.375.375 0 0 1 .375-.375m1.5-3a.375.375 0 1 1-.375.375.375.375 0 0 1 .375-.375m-7.5 6a.375.375 0 1 1-.375.375.375.375 0 0 1 .375-.375m3.75 0a.375.375 0 1 1-.375.375A.375.375 0 0 1 12 13.5m-2.25 3a.375.375 0 1 1-.375.375.375.375 0 0 1 .375-.375m4.5 0a.375.375 0 1 1-.375.375.375.375 0 0 1 .375-.375m1.5-3a.375.375 0 1 1-.375.375.375.375 0 0 1 .375-.375m-7.5 6a.375.375 0 1 1-.375.375.375.375 0 0 1 .375-.375m3.75 0a.375.375 0 1 1-.375.375A.375.375 0 0 1 12 19.5m3.75 0a.375.375 0 1 1-.375.375.375.375 0 0 1 .375-.375"/></svg>