<svg id="Regular" xmlns="http://www.w3.org/2000/svg" viewBox="0 0 24 24" width="24" height="24"><defs><style>.cls-1{fill:none;stroke:#000;stroke-linecap:round;stroke-linejoin:round;stroke-width:1.5px}</style></defs><title>kitchenware-hammer-meat</title><path class="cls-1" d="M11.25.75h-3v3h-3v3m18 6v3h-3v3h-3M12.853 3.647a.75.75 0 0 1 1.154.114l1.328 1.992a10.512 10.512 0 0 0 2.912 2.912l1.992 1.328a.75.75 0 0 1 .114 1.154l-4.706 4.706a.75.75 0 0 1-1.154-.114l-1.328-1.992a10.512 10.512 0 0 0-2.912-2.912L8.261 9.507a.75.75 0 0 1-.114-1.154zM.75 23.25l11.102-11.102"/></svg>