<svg id="Regular" xmlns="http://www.w3.org/2000/svg" viewBox="0 0 24 24" width="24" height="24"><defs><style>.cls-1{fill:none;stroke:#000;stroke-linecap:round;stroke-linejoin:round;stroke-width:1.5px}</style></defs><title>kitchenware-masher</title><path class="cls-1" d="M1.391 13.4l3.766-3.762a6.478 6.478 0 0 1 7.168-1.349.978.978 0 0 0 1.08-.206l6.814-6.813a1.776 1.776 0 0 1 2.511 2.511L15.917 10.6a.978.978 0 0 0-.206 1.08 6.478 6.478 0 0 1-1.349 7.168L10.6 22.609"/><path class="cls-1" d="M3.483 20.517C.941 17.975.005 14.79 1.391 13.4s4.571-.446 7.109 2.1 3.479 5.726 2.092 7.113-4.567.446-7.109-2.096z"/><path class="cls-1" d="M4.125 15.75a.375.375 0 1 1-.375.375.375.375 0 0 1 .375-.375m3.75 3.75a.375.375 0 1 0 .375.375.375.375 0 0 0-.375-.375"/></svg>