<svg id="Regular" xmlns="http://www.w3.org/2000/svg" viewBox="0 0 24 24" width="24" height="24"><defs><style>.cls-1{fill:none;stroke:#000;stroke-linecap:round;stroke-linejoin:round;stroke-width:1.5px}</style></defs><title>kitchenware-spatula-2</title><path class="cls-1" d="M13.838 12.265L3.771 22.351a1.5 1.5 0 0 1-2.122 0 1.5 1.5 0 0 1 0-2.122l10.09-10.062m-6.903 6.885l2.114 2.114m9.483-5.866a1.5 1.5 0 0 1-1.8-.242l-3.688-3.686a1.5 1.5 0 0 1-.242-1.8l3.417-5.984a.749.749 0 0 1 .784-.366A8.969 8.969 0 0 1 22.778 9.1a.751.751 0 0 1-.366.784zm-2.056-4.738l1.061 1.061"/></svg>