<svg id="Regular" xmlns="http://www.w3.org/2000/svg" viewBox="0 0 24 24" width="24" height="24"><defs><style>.cls-1{fill:none;stroke:#000;stroke-linecap:round;stroke-linejoin:round;stroke-width:1.5px}</style></defs><title>kitchenware-molds</title><circle class="cls-1" cx="18.75" cy="5.25" r="4.5"/><path class="cls-1" d="M8.879 18.75a2.571 2.571 0 1 0-3.629-3.629 2.571 2.571 0 1 0-3.628 3.629 2.571 2.571 0 1 0 3.628 3.628 2.571 2.571 0 1 0 3.629-3.628zm13.706-3.52a2.218 2.218 0 0 0-3.21 0L18 16.652l-1.375-1.422a2.218 2.218 0 0 0-3.21 0 2.4 2.4 0 0 0 0 3.319l4.1 4.236a.674.674 0 0 0 .976 0l4.1-4.236a2.4 2.4 0 0 0-.006-3.319zM5.385 1.056a.557.557 0 0 1 .994 0l1.155 2.328a.551.551 0 0 0 .417.3l2.591.375a.544.544 0 0 1 .307.928L8.968 6.812a.541.541 0 0 0-.158.48l.444 2.572a.552.552 0 0 1-.8.572L6.142 9.229a.56.56 0 0 0-.519 0l-2.308 1.207a.551.551 0 0 1-.8-.572l.443-2.572a.538.538 0 0 0-.157-.48L.915 4.987a.544.544 0 0 1 .308-.928l2.591-.375a.554.554 0 0 0 .417-.3z"/></svg>