<svg id="Regular" xmlns="http://www.w3.org/2000/svg" viewBox="0 0 24 24" width="24" height="24"><defs><style>.cls-1{fill:none;stroke:#000;stroke-linecap:round;stroke-linejoin:round;stroke-width:1.5px}</style></defs><title>kitchenware-spatula-1</title><path class="cls-1" d="M10.9 15.225l-7.385 7.382a1.5 1.5 0 0 1-2.122 0 1.5 1.5 0 0 1 0-2.122L8.775 13.1"/><path class="cls-1" d="M22.607 7.757l-3.182-3.182-3.182-3.182a1.5 1.5 0 0 0-2.122 0l-3.244 3.244a8.8 8.8 0 0 0-2.144 8.424l1.1 1.1 1.1 1.1a8.8 8.8 0 0 0 8.424-2.144l3.244-3.244a1.5 1.5 0 0 0 .006-2.116zM4.575 17.303l2.122 2.122m8.485-14.85L11.47 8.288m5.833-1.591l-3.712 3.712m5.834-1.591l-3.713 3.712"/></svg>