<svg xmlns="http://www.w3.org/2000/svg" viewBox="0 0 24 24" width="24" height="24"><path fill="none" stroke="#000" stroke-linejoin="round" stroke-miterlimit="10" d="M.5 13.5h23v2H.5zm0 2a8 8 0 008 8h7a8 8 0 008-8H.5zm16-12.989a10.5 10.5 0 016 9.489v1.5m-21 0V12c0-4.188 2.452-7.805 6-9.489"/><path fill="none" stroke="#000" stroke-linejoin="round" stroke-miterlimit="10" d="M16.071 3.414a9.566 9.566 0 00-8.143 0l-.857-1.807a11.574 11.574 0 019.857 0l-.857 1.807zM3 15.5l8 8m-2.5-8l8 8m-2.5-8l6.5 6.5m1.5-6.5l-8 8m2.5-8l-8 8m2.5-8L4.5 22"/><path fill="none" d="M0 0h24v24H0z"/></svg>