<svg id="Regular" xmlns="http://www.w3.org/2000/svg" viewBox="0 0 24 24" width="24" height="24"><defs><style>.cls-1{fill:none;stroke:#000;stroke-linecap:round;stroke-linejoin:round;stroke-width:1.5px}</style></defs><title>knife-1</title><path class="cls-1" d="M11.59 3.052h6.8a.972.972 0 0 1 .972.972v14.092a.972.972 0 0 1-.972.972h-7.772V4.024a.972.972 0 0 1 .972-.972z" transform="rotate(45 14.991 11.07)"/><path class="cls-1" d="M21.692 6.431L10.353 17.77M16.82 6.135a.375.375 0 1 1 0 .53.374.374 0 0 1 0-.53M1.076 20.862a1.458 1.458 0 0 1 0-2.061l5.154-5.154 2.062 2.061-5.154 5.154a1.459 1.459 0 0 1-2.062 0z"/></svg>