<svg xmlns="http://www.w3.org/2000/svg" viewBox="0 0 24 24" width="24" height="24"><g fill="none" stroke="#000" stroke-linejoin="round" stroke-miterlimit="10"><path stroke-linecap="round" d="M12.5 11.715a54.025 54.025 0 002.172-1.937l-3.536-3.536L8.409 9"/><path stroke-linecap="round" d="M18.562 3.062A1.502 1.502 0 0018.561.94a1.5 1.5 0 00-2.121 0l-5.303 5.304 2.121 2.121 5.304-5.303zM16.5 17.784a51.628 51.628 0 002.672-2.347L15.636 11.9 14 13.537"/><path stroke-linecap="round" d="M23.062 8.72a1.5 1.5 0 10-2.122-2.121l-5.303 5.304 2.121 2.121 5.304-5.304z"/><path d="M.5 23.5h17c0-8.836-7.163-16-16-16h-1v16z"/><path stroke-linecap="round" d="M4 16l4-4m.5 8.5l4-4"/></g><path fill="none" d="M0 0h24v24H0z"/></svg>