<svg id="Regular" xmlns="http://www.w3.org/2000/svg" viewBox="0 0 24 24" width="24" height="24"><defs><style>.cls-1{fill:none;stroke:#000;stroke-linecap:round;stroke-linejoin:round;stroke-width:1.5px}</style></defs><title>knives-set</title><path class="cls-1" d="M2.548 21.077a1.5 1.5 0 0 0 1.5 1.5H15.21A1.5 1.5 0 0 0 16.7 20.9 14.256 14.256 0 0 0 4.224 8.425a1.5 1.5 0 0 0-1.676 1.49zm3-4.5l3-3m0 6l3-3"/><path class="cls-1" d="M13.366 1h.75a.75.75 0 0 1 .75.75v6h-2.25v-6a.75.75 0 0 1 .75-.75z" transform="rotate(41.842 13.741 4.378)"/><path class="cls-1" d="M7.8 9.327l2.851-3.185L13.5 8.7a.887.887 0 0 1 .146 1.137c-.017.027-.782.887-1.761 1.983"/><path class="cls-1" d="M18.3 6.254h.75A.75.75 0 0 1 19.8 7v6h-2.25V7a.75.75 0 0 1 .75-.746z" transform="rotate(41.841 18.672 9.628)"/><path class="cls-1" d="M13.611 13.594l1.971-2.2 2.851 2.553a.888.888 0 0 1 .147 1.137c-.021.033-1.226 1.385-2.551 2.866"/></svg>