<svg id="Regular" xmlns="http://www.w3.org/2000/svg" viewBox="0 0 24 24" width="24" height="24"><defs><style>.cls-1{fill:none;stroke:#000;stroke-linecap:round;stroke-linejoin:round;stroke-width:1.5px}</style></defs><title>koala-head</title><path class="cls-1" d="M4.5 7.5C5.25 7.5 6 9 6 9a9.331 9.331 0 0 0-1.5 4.266c0 4.265 1.364 6.234 7.5 6.234s7.5-1.969 7.5-6.234A9.331 9.331 0 0 0 18 9s.75-1.5 1.5-1.5"/><path class="cls-1" d="M4.724 15.705l-.224.045s-3.75.75-3.75-4.5C.75 6.75 3 4.5 5.25 4.5a3.25 3.25 0 0 1 3 1.5A9.1 9.1 0 0 1 12 5.25a9.1 9.1 0 0 1 3.75.75 3.25 3.25 0 0 1 3-1.5c2.25 0 4.5 2.25 4.5 6.75 0 5.25-3.75 4.5-3.75 4.5l-.224-.045"/><ellipse class="cls-1" cx="12" cy="13.5" rx="1.5" ry="2.25"/><path class="cls-1" d="M10.5 17.25l1.5-.75 1.5.75m-5.625-6a.375.375 0 0 1 .375.375m-.75 0a.375.375 0 0 1 .375-.375m0 .75a.375.375 0 0 1-.375-.375m.75 0a.375.375 0 0 1-.375.375m8.25-.75a.375.375 0 0 1 .375.375m-.75 0a.375.375 0 0 1 .375-.375m0 .75a.375.375 0 0 1-.375-.375m.75 0a.375.375 0 0 1-.375.375M12 16.5v-.75"/></svg>