<svg xmlns="http://www.w3.org/2000/svg" viewBox="0 0 24 24" width="24" height="24"><defs><style>.a{fill:none;stroke:#000;stroke-linecap:round;stroke-linejoin:round;stroke-width:1.5px}</style></defs><title>lab-whisk-cup</title><circle class="a" cx="14.5" cy="18.75" r="1.5"/><path class="a" d="M15.206 17.426L19 2.25m-6.75 12h7.5M14.569.757a.373.373 0 0 1 .3.437m-.737-.138a.373.373 0 0 1 .437-.3m-.138.738a.375.375 0 0 1-.3-.438m.737.138a.375.375 0 0 1-.437.3M8.944 3.382a.375.375 0 0 1 .3.438m-.737-.139a.375.375 0 0 1 .437-.3m-.138.738a.374.374 0 0 1-.3-.438m.738.139a.376.376 0 0 1-.438.3m3.256 6.43a.375.375 0 0 1 .138.512m-.65-.375a.376.376 0 0 1 .512-.137m-.375.65a.375.375 0 0 1-.137-.512m.65.374a.375.375 0 0 1-.513.137M5.5 10.5h2.25M5.5 18h2.25M5.5 14.25h2.25"/><path class="a" d="M13.75 6.75h-9a.75.75 0 0 0-.624 1.166l1.248.895.126.245V21.75a1.5 1.5 0 0 0 1.5 1.5h11.25a1.5 1.5 0 0 0 1.5-1.5v-10.5"/></svg>