<svg xmlns="http://www.w3.org/2000/svg" viewBox="0 0 24 24" width="24" height="24"><defs><style>.a{fill:none;stroke:#000;stroke-linecap:round;stroke-linejoin:round;stroke-width:1.5px}</style></defs><title>lab-tube-experiment</title><path class="a" d="M15 19.5a3.75 3.75 0 0 1-7.5 0V.75H15zM17.25.75h-12m7.125 7.5a.375.375 0 0 1 .375.375m-.75 0a.375.375 0 0 1 .375-.375m0 .75A.375.375 0 0 1 12 8.625m.75 0a.375.375 0 0 1-.375.375m-2.25 3.75a.375.375 0 0 1 .375.375m-.75 0a.375.375 0 0 1 .375-.375m0 .75a.375.375 0 0 1-.375-.375m.75 0a.375.375 0 0 1-.375.375m1.5 3.75a.375.375 0 0 1 .375.375m-.75 0a.375.375 0 0 1 .375-.375m0 .75a.375.375 0 0 1-.375-.375m.75 0a.375.375 0 0 1-.375.375M15 5.25H7.5m-6 7.5h3M3 11.25v3"/><circle class="a" cx="21" cy="5.25" r="1.5"/></svg>