<svg xmlns="http://www.w3.org/2000/svg" viewBox="0 0 24 24" width="24" height="24"><defs><style>.a{fill:none;stroke:#000;stroke-linecap:round;stroke-linejoin:round;stroke-width:1.5px}</style></defs><title>lab-protection-glasses</title><path class="a" d="M23.25 14.25v3.95a1.941 1.941 0 0 1-.811 1.593C14.37 25.462 13.927 17 12 17c-1.574 0-2.667 8.253-10.439 2.8a1.941 1.941 0 0 1-.811-1.6v-3.95m10.973-9.621l-3.195-2.1a1.957 1.957 0 0 0-2.5.4L4.839 4.321"/><path class="a" d="M14.789 6.414l7.99 4.086a.98.98 0 0 1 .471.837v2.913H.75v-2.913a.98.98 0 0 1 .471-.837l14.251-7.967a1.957 1.957 0 0 1 2.5.4l1.189 1.388M.754 11.25h22.492"/></svg>