<svg id="Regular" xmlns="http://www.w3.org/2000/svg" viewBox="0 0 24 24" width="24" height="24"><defs><style>.cls-1{fill:none;stroke:#000;stroke-linecap:round;stroke-linejoin:round;stroke-width:1.5px}</style></defs><title>laboratory-sample</title><path class="cls-1" d="M19.531 9.772l-5.515 5.516a3 3 0 0 1-4.243 0l-1.061-1.061a3 3 0 0 1 0-4.243l5.516-5.515m-7.49 12.793l2.505-2.505m3.394-11.879l8.485 8.485m.531-6.894L17.94 8.181M15.819 6.06l3.712-3.713M17.94.756l5.304 5.304m-9.016 4.773l2.121 2.121"/><path class="cls-1" d="M22.432 15a3.7 3.7 0 0 1 .818 2.25c0 3.314-5.037 6-11.25 6S.75 20.564.75 17.25c0-1.575 1.138-3.009 3-4.079m6.75 5.954a.375.375 0 0 1 .375.375m-.75 0a.375.375 0 0 1 .375-.375m0 .75a.375.375 0 0 1-.375-.375m.75 0a.375.375 0 0 1-.375.375m5.25-.375c.678-2.415 2.776-1.293 3.75-3"/></svg>