<svg id="Regular" xmlns="http://www.w3.org/2000/svg" viewBox="0 0 24 24" width="24" height="24"><defs><style>.cls-1{fill:none;stroke:#000;stroke-linecap:round;stroke-linejoin:round;stroke-width:1.5px}</style></defs><title>laboratory-chromosome</title><path class="cls-1" d="M7.227 15.527a5.354 5.354 0 0 0 1.609-3.054c.436-2.081-.054-3.945-1.1-4.163S5.5 9.6 5.068 11.684c-.013.059-.024.118-.035.176-.027-.052-.056-.1-.085-.158C3.916 9.843 2.326 8.755 1.4 9.271s-.846 2.441.186 4.3a5.352 5.352 0 0 0 2.441 2.441 5.354 5.354 0 0 0-1.609 3.054c-.436 2.081.054 3.945 1.095 4.163s2.237-1.293 2.673-3.374c.013-.059.024-.118.035-.176.027.053.056.105.085.158 1.032 1.859 2.622 2.948 3.552 2.432s.846-2.442-.186-4.3a5.352 5.352 0 0 0-2.445-2.442zM5.033 11.86l1.184 7.819m-2.194-3.667l3.204-.485m15.704-13.27c-.667-.588-2.161.017-3.336 1.35-.035.041-.07.081-.1.122l-.032-.157C19.081 1.835 18.071.58 17.2.769s-1.266 1.75-.888 3.488A4.689 4.689 0 0 0 17.559 6.7a5.187 5.187 0 0 0-1.05 2.109c-.447 1.721-.112 3.3.748 3.521s1.921-.991 2.367-2.712a5.18 5.18 0 0 0 .109-2.354 4.685 4.685 0 0 0 2.277-1.528c1.176-1.336 1.59-2.892.921-3.479z"/><path class="cls-1" d="M19.733 7.264c-1.12-.291-.242-3.535-.242-3.535S18.673 7 17.559 6.7m5.691 15.05l-1.5 1.5m-7.5-7.5l.75 1.5M2.25.75l-1.5 1.5m9 1.125a.375.375 0 0 1 .375.375m-.75 0a.375.375 0 0 1 .375-.375m0 .75a.375.375 0 0 1-.375-.375m.75 0a.375.375 0 0 1-.375.375M21 16.875a.375.375 0 0 1 .375.375m-.75 0a.375.375 0 0 1 .375-.375m0 .75a.375.375 0 0 1-.375-.375m.75 0a.375.375 0 0 1-.375.375"/></svg>