<svg xmlns="http://www.w3.org/2000/svg" viewBox="0 0 24 24" width="24" height="24"><path fill="none" stroke="#000" stroke-linecap="round" stroke-linejoin="round" stroke-miterlimit="10" d="M23.5 23.5s-.5-3.979-2.5-5.479-6.5 0-6.5-3.5V12c.5 1.5 3.5 2.521 5.5.021-3 0 0-15-8-10-8-5-5 10-8 10 2 2.5 5 1.479 5.5-.021v2.521c0 3.5-4.5 2-6.5 3.5S.5 23.5.5 23.5h23z"/><path fill="none" stroke="#000" stroke-linejoin="round" stroke-miterlimit="10" d="M18.364 17.216L14 23.5m-8.364-6.284L10 23.5"/><path d="M10 17.021a.5.5 0 100 1 .5.5 0 000-1zm2 .5a.5.5 0 100 1 .5.5 0 000-1zm2-.5a.5.5 0 100 1 .5.5 0 000-1z"/><path fill="none" stroke="#000" stroke-linecap="round" stroke-linejoin="round" stroke-miterlimit="10" d="M9.5 12s-1.5-.538-1-4.096M9 6.521c0 .5-.5 2-1.5 2m7 3.479s1.5-.538 1-4.096M15 6.521c0 .5.5 2 1.5 2"/><path fill="none" d="M0 0h24v24H0z"/></svg>