<svg xmlns="http://www.w3.org/2000/svg" viewBox="0 0 24 24" width="24" height="24"><g fill="none" stroke="#000" stroke-linecap="round" stroke-linejoin="round" stroke-miterlimit="10"><path d="M16.9 11.993c0 2.5 4.601 4 6.101.5-4.5 0-1-15.5-11-10.5-10-5-6.5 10.5-11 10.5 1.5 3.5 6.11 2 6.11-.5"/><path d="M12 16.493c1.5-.5 4.5-2 5-5 1.5 0 1.5-3 0-3l-.5-2c-4 0-4-1.5-4.5-2-.5.5-.5 2-4.5 2l-.5 2c-1.5 0-1.5 3 0 3 .5 3 3.5 4.5 5 5z"/><path d="M14.471 15.238c4.5 2 9.029 3.255 9.029 6.755V23.5H.5v-1.507c0-3.5 4.528-4.755 9.028-6.755M5.5 16.993c0 3 6.5 3.5 6.5 6.5m6.5-6.5c0 3-6.5 3.5-6.5 6.5M9 8.995c0-.553.447-.5 1-.5s1-.053 1 .5m2 0c0-.553.447-.5 1-.5s1-.053 1 .5"/></g><path fill="none" d="M0 0h24v24H0z"/></svg>