<svg id="Regular" xmlns="http://www.w3.org/2000/svg" viewBox="0 0 24 24" width="24" height="24"><defs><style>.cls-1{fill:none;stroke:#000;stroke-linecap:round;stroke-linejoin:round;stroke-width:1.5px}</style></defs><title>lama</title><path class="cls-1" d="M21 15.75h.75s1.5 0 1.5-2.25-2.25-3.75-4.5-3.75H10.5v-6a2.938 2.938 0 0 0-3-3v1.5c-.241-.047-1.989 0-2.25 0A2.27 2.27 0 0 0 3 4.5c0 1.243 1.343 2.25 3 2.25 0 0-2.25 1.5-2.25 3.75s0 5.25 2.25 6.75C6 19.5 6.75 21 8.25 21a3.226 3.226 0 0 0 3-3h4.5s.75 3 3 3S21 18.75 21 17.25v-3"/><path class="cls-1" d="M3.148 5.2L3 5.25S.75 6 .75 7.5s3 1.5 3 1.5h.336M8.25 21v2.25h-1.5m12-2.25v2.25h-1.5"/></svg>