<svg xmlns="http://www.w3.org/2000/svg" viewBox="0 0 24 24" width="24" height="24"><g fill="none" stroke="#000" stroke-miterlimit="10"><path stroke-linecap="round" stroke-linejoin="round" d="M7.5 22.5a3 3 0 013-3h4a3 3 0 013 3v1h-10v-1z"/><path stroke-linejoin="round" d="M12.5 19.5v-3h2a8 8 0 000-16h-4a2 2 0 00-2 2v1"/><path stroke-linejoin="round" d="M13.5 8.5c0-2.762-2.238-5-5-5s-5 2.238-5 5h10z"/><path stroke-linecap="round" d="M8.5 10.5v1m3-1.5l.5 1m-6.5-1L5 11"/></g><path fill="none" d="M0 0h24v24H0z"/></svg>