<svg xmlns="http://www.w3.org/2000/svg" viewBox="0 0 24 24" width="24" height="24"><g fill="none" stroke="#000" stroke-miterlimit="10"><path stroke-linecap="round" stroke-linejoin="round" d="M7.5 18.5V21m2-2.5V21m2-2.5V21m2-2.5V21m2-2.5V21m-4-.5l1 3h-2zm0-17v-3"/><path stroke-linecap="round" d="M21 10.5h2M20.5 6L22 4.5M20.5 15l1.5 1.5m-19.5-6h-2M3 6L1.5 4.5M3 15l-1.5 1.5"/><path d="M9.1 16.5a6 6 0 010-11m4.802 0a6.001 6.001 0 01-.002 11m-2.4-11v11"/><path stroke-linejoin="round" d="M7.5 3.5h8v2h-8z"/><path d="M13.094 16.5c.844-1.15 1.406-3.18 1.406-5.5 0-2.319-.562-4.35-1.406-5.5H9.906C9.062 6.65 8.5 8.681 8.5 11c0 2.32.562 4.35 1.406 5.5h3.188z"/><path stroke-linejoin="round" d="M7.5 16.5h8v2h-8z"/><path d="M5.521 10.5h11.958"/></g><path fill="none" d="M0 0h24v24H0z"/></svg>