<svg xmlns="http://www.w3.org/2000/svg" viewBox="0 0 24 24" width="24" height="24"><g fill="none" stroke="#000" stroke-linecap="round" stroke-linejoin="round" stroke-miterlimit="10"><path d="M19.5 7.5v2a7 7 0 11-14 0v-2m7 0v16m-4.5 0h9"/><path d="M7.688 5.312a2.189 2.189 0 01-4.376 0C3.312 4.104 5.5.5 5.5.5s2.188 3.604 2.188 4.812zm7 0a2.188 2.188 0 11-4.376 0C10.312 4.104 12.5.5 12.5.5s2.188 3.604 2.188 4.812zm7 0a2.188 2.188 0 11-4.376 0C17.312 4.104 19.5.5 19.5.5s2.188 3.604 2.188 4.812z"/></g><path fill="none" d="M0 0h24v24H0z"/></svg>