<svg xmlns="http://www.w3.org/2000/svg" viewBox="0 0 24 24" width="24" height="24"><defs><style>.a{fill:none;stroke:#000;stroke-linecap:round;stroke-linejoin:round;stroke-width:1.5px}</style></defs><title>landmark-gate</title><path class="a" d="M2.75 10.5v12a.75.75 0 0 0 .75.75h3a.75.75 0 0 0 .75-.75V21a4.5 4.5 0 0 1 9 0v1.5a.75.75 0 0 0 .75.75h3a.75.75 0 0 0 .75-.75v-12zM1.25 9v1.5h21V9M3.5 7.5V5.25H20V7.5M9.5 5.25V4.5a2.25 2.25 0 0 1 4.5 0v.75M18.5 3v2.25M5 3v2.25"/><path class="a" d="M13.577 14.251a10 10 0 0 0-1.383-1.188.75.75 0 0 0-.887 0 9.992 9.992 0 0 0-1.383 1.187m-2.674-9V7.5m9-2.25V7.5m-4.5-5.25V.75"/></svg>