<svg xmlns="http://www.w3.org/2000/svg" viewBox="0 0 24 24" width="24" height="24"><defs><style>.a{fill:none;stroke:#000;stroke-linecap:round;stroke-linejoin:round;stroke-width:1.5px}</style></defs><title>landmark-buddha-statue</title><ellipse class="a" cx="12.533" cy="7.125" rx="3" ry="3.375"/><path class="a" d="M11.351 3.924a1.5 1.5 0 1 1 2.364 0M20.033 21a1.5 1.5 0 0 1-1.5 1.5h-12a1.5 1.5 0 0 1 0-3h12a1.5 1.5 0 0 1 1.5 1.5zm-12-10.5h7.5c3 0 3 2.843 3 4.5v4.5h-10.5m1.5 3q4.5-1.5 6-3m-.75-9A25.454 25.454 0 0 1 8.9 13.981"/><path class="a" d="M8.033 10.5a2.426 2.426 0 0 0-2.171 1.342l-1.737 3.474a1.5 1.5 0 0 0 .51 1.919l3.4 2.265m9.918-7.786l-3.17 2.536A27.682 27.682 0 0 1 9.8 17.362M18.533 15l-3.75 3s-.869.7-2.1 1.5"/></svg>