<svg xmlns="http://www.w3.org/2000/svg" viewBox="0 0 24 24" width="24" height="24"><defs><style>.a{fill:none;stroke:#000;stroke-linecap:round;stroke-linejoin:round;stroke-width:1.5px}</style></defs><title>landmark-merlion-statue</title><path class="a" d="M11.25 8.25a1.5 1.5 0 0 0 1.5 1.5h.75A3.75 3.75 0 0 0 17.25 6"/><path class="a" d="M14.883 18.342C15.6 15.061 13.639 12 9 12l1.5 4.5v.375a6.375 6.375 0 0 0 12.75 0V5.109a4.358 4.358 0 0 0-8.493-1.379l-3.507.02a1.5 1.5 0 0 0-1.5 1.5V6m4.5 3.675v4.669M18 11.25A6.272 6.272 0 0 0 20.25 6m0 7.5c3-2.25 3-7.5 3-7.5M7.5 7.5H6a5.251 5.251 0 0 0-5.25 5.25V18"/><path class="a" d="M6 10.5a2.25 2.25 0 0 0-2.25 2.25V15"/></svg>