<svg xmlns="http://www.w3.org/2000/svg" viewBox="0 0 24 24" width="24" height="24"><defs><style>.a{fill:none;stroke:#000;stroke-linecap:round;stroke-linejoin:round;stroke-width:1.5px}</style></defs><title>landmark-bagan</title><path class="a" d="M4.969 5.851a.752.752 0 0 1-.938 0L3.094 5.1a2.253 2.253 0 0 1-.844-1.755V3a2.25 2.25 0 0 1 1.092-1.929 2.249 2.249 0 0 1 2.316 0A2.25 2.25 0 0 1 6.75 3v.345A2.251 2.251 0 0 1 5.905 5.1zM4.5 8.25a.375.375 0 1 1-.375.375.375.375 0 0 1 .375-.375m6 9H12a1.5 1.5 0 0 1 1.5-1.5v-3.1a2.262 2.262 0 0 1 1.249-2.022l2.5-6.875 2.5 6.875A2.262 2.262 0 0 1 21 12.647v3.1a1.5 1.5 0 0 1 1.5 1.5m-21 6.003v-3a2.262 2.262 0 0 1 1.249-2.022L4.5 14.353l1.751 3.875A2.262 2.262 0 0 1 7.5 20.25v2.25a.75.75 0 0 0 .75.75h2.25"/></svg>