<svg xmlns="http://www.w3.org/2000/svg" viewBox="0 0 24 24" width="24" height="24"><defs><style>.a{fill:none;stroke:#000;stroke-linecap:round;stroke-linejoin:round;stroke-width:1.5px}</style></defs><title>landmark-brooklyn-bridge</title><path class="a" d="M23.25 7.453A6 6 0 0 1 18.005 1.5a6 6 0 1 1-12 0 6 6 0 0 1-5.25 5.954M.75 13.5h22.5m-9 0V7.066M18 13.5l.005-12m3.745 12V7.062M9.755 13.5V7.066M6.005 13.5L6 1.5m-3.745 12V7.062M16.5 17.25V13.5h3v3.75m-12 0V13.5h-3v3.75m18.75 5.25a2.553 2.553 0 0 1-2.475-2.25c0 1.243-1.31 2.25-2.925 2.25s-2.925-1.007-2.925-2.25c0 1.243-1.31 2.25-2.925 2.25s-2.925-1.007-2.925-2.25c0 1.243-1.31 2.25-2.925 2.25s-2.925-1.007-2.925-2.25A2.553 2.553 0 0 1 .75 22.5"/></svg>