<svg xmlns="http://www.w3.org/2000/svg" viewBox="0 0 24 24" width="24" height="24"><defs><style>.a{fill:none;stroke:#000;stroke-linecap:round;stroke-linejoin:round;stroke-width:1.5px}</style></defs><title>landmark-japan-castle-1</title><path class="a" d="M19.5 17.095v3.75h-15v-3.75m6-4.495H5.758a.75.75 0 0 0-.7.471L2.25 17.1m19.5 0l-2.77-3.97a.851.851 0 0 1-.062-.105.749.749 0 0 0-.676-.425H13.5M.75 23.1l.579-1.738a.75.75 0 0 1 .712-.512h19.918a.75.75 0 0 1 .712.512l.579 1.738"/><path class="a" d="M9 14.1l2.47-2.47a.749.749 0 0 1 1.06 0L15 14.1M9 9.6l2.47-2.47a.749.749 0 0 1 1.06 0L15 9.6m-2.251-2.255h3.96a.75.75 0 0 1 .712.512L18 9.6"/><path class="a" d="M6 9.6l.579-1.738a.75.75 0 0 1 .712-.512h3.959M9 4.345V3.6l2.47-2.47a.749.749 0 0 1 1.06 0L15 3.6v.75m6.75 12.745l1.5-1.5m-21 1.5l-1.5-1.5m14.25-12l1.5-1.5m1.5 7.5l1.5-1.5M6 9.595l-1.5-1.5m4.5-4.5l-1.5-1.5m14.25 15H2.25"/></svg>