<svg xmlns="http://www.w3.org/2000/svg" viewBox="0 0 24 24" width="24" height="24"><defs><style>.a{fill:none;stroke:#000;stroke-linecap:round;stroke-linejoin:round;stroke-width:1.5px}</style></defs><title>landmark-london-bridge</title><path class="a" d="M17.25 5.25h4.5v10.5h-4.5zm0 0L19.5.75l2.25 4.5m-4.5 4.5h4.5m0 6h.75a.75.75 0 0 1 .75.75v3.75m-6-4.5v3.75m0-3.75L13.5 12m-6.75 3.75h-4.5V5.25h4.5zm0-10.5L4.5.75l-2.25 4.5m4.5 4.5h-4.5m0 6H1.5a.75.75 0 0 0-.75.75v3.75m6-4.5v3.75m0-3.75L10.5 12M6.75 7.5h10.5m6 15.75c-2.068 0-3.745-1.007-3.745-2.25 0 1.243-1.677 2.25-3.745 2.25s-3.745-1.007-3.745-2.25c0 1.243-1.677 2.25-3.745 2.25S4.525 22.243 4.525 21c0 1.243-1.677 2.25-3.745 2.25"/></svg>