<svg xmlns="http://www.w3.org/2000/svg" viewBox="0 0 24 24" width="24" height="24"><defs><style>.a{fill:none;stroke:#000;stroke-linecap:round;stroke-linejoin:round;stroke-width:1.5px}</style></defs><title>landmark-louvre</title><path class="a" d="M.75 8.249H7.5m9 0h6.75M7.5 12V6a3 3 0 0 1 3-3h3a3 3 0 0 1 3 3v6"/><path class="a" d="M3.038 22.5a.374.374 0 0 1-.291-.611l8.962-11.03a.374.374 0 0 1 .582 0l8.962 11.03a.374.374 0 0 1-.291.611zm12.267-7.933l-5.93 7.298m8.555-4.067L14.109 22.5m-5.414-7.933l5.93 7.298M6.07 17.798L9.891 22.5M7.5 1.499v4.5m9-4.5v4.5m0 0h-9M22.5 15h-3v-2.25a1.5 1.5 0 0 1 3 0zm-18 0h-3v-2.25a1.5 1.5 0 0 1 3 0zm18.75-9.751H16.5m-9 0H.75"/></svg>