<svg xmlns="http://www.w3.org/2000/svg" viewBox="0 0 24 24" width="24" height="24"><defs><style>.a{fill:none;stroke:#000;stroke-linecap:round;stroke-linejoin:round;stroke-width:1.5px}</style></defs><title>landmark-chinese-wall</title><path class="a" d="M14.25 8.25h9v9h-9z"/><path class="a" d="M20.25 17.25h-3V13.5a1.5 1.5 0 0 1 3 0zm-6-9V6m4.5 2.25V6m4.5 2.25V6M.75 9V3h6v6.75M.75 3V.75m3 2.25V.75m3 2.25V.75"/><path class="a" d="M10.25 16l-8.671-4.335a1.5 1.5 0 0 1-.829-1.342V6.75l9.9 4.95m-2.4 11.55l6-6M3.75 22.5L14.25 12m9 5.25l-4.5 6"/></svg>