<svg xmlns="http://www.w3.org/2000/svg" viewBox="0 0 24 24" width="24" height="24"><defs><style>.a{fill:none;stroke:#000;stroke-linecap:round;stroke-linejoin:round;stroke-width:1.5px}</style></defs><title>landmark-forbidden-city</title><path class="a" d="M20.25 10.875a15.721 15.721 0 0 0 2.985 4.485c0 .015 0 .015.015.015H.75c.015 0 .015 0 .015-.015a15.721 15.721 0 0 0 2.985-4.485m0-3h16.5v3H3.75zm-3 7.5h22.5v6.5a1 1 0 0 1-1 1H1.75a1 1 0 0 1-1-1v-6.5z"/><path class="a" d="M21.659 7.875a.749.749 0 0 0 .585-1.219 7.7 7.7 0 0 1-1.994-4.781H3.75a7.7 7.7 0 0 1-1.994 4.781.749.749 0 0 0 .585 1.219zM3 1.125l.75.75M21 1.125l-.75.75m-13.5 21h-3v-3a1.5 1.5 0 0 1 3 0zm13.5 0h-3v-3a1.5 1.5 0 0 1 3 0zm-9.5-4.5h2.5a1 1 0 0 1 1 1v3.5h-4.5v-3.5a1 1 0 0 1 1-1z"/></svg>