<svg xmlns="http://www.w3.org/2000/svg" viewBox="0 0 24 24" width="24" height="24"><defs><style>.a{fill:none;stroke:#000;stroke-linecap:round;stroke-linejoin:round;stroke-width:1.5px}</style></defs><title>landmark-japan-castle</title><path class="a" d="M.75 23.25h22.5m-3-4.5h-18l2.555-3.832a1.5 1.5 0 0 1 1.248-.668h10.394a1.5 1.5 0 0 1 1.248.668zM18.181 5.242l-1.839 3.679A1.5 1.5 0 0 1 15 9.75H7.5a1.5 1.5 0 0 1-1.342-.829L4.331 5.266m.742 1.484h12.354m-9.177 0a3 3 0 0 1 6 0m-3-6v3"/><path class="a" d="M8.25 9.75h6v4.5h-6zm9 13.5h-12v-4.5h12v4.5zm-6-13.5v4.5m0 9v-4.5m-3 0v4.5m6-4.5v4.5m-13.5-6l1.5 1.5m19.5-1.5l-1.5 1.5"/></svg>