<svg xmlns="http://www.w3.org/2000/svg" viewBox="0 0 24 24" width="24" height="24"><defs><style>.a{fill:none;stroke:#000;stroke-linecap:round;stroke-linejoin:round;stroke-width:1.5px}</style></defs><title>landmark-chinese-pagoda-1</title><path class="a" d="M17.528 12H6.471A7.81 7.81 0 0 1 1 15.214a.292.292 0 0 0-.249.27.311.311 0 0 0 .186.327 12.708 12.708 0 0 0 4.428.689h13.269a12.7 12.7 0 0 0 4.427-.689.311.311 0 0 0 .187-.327.292.292 0 0 0-.249-.27A7.814 7.814 0 0 1 17.528 12zm1.972 4.479v2.271m-15-2.271v2.271M18.6 6.964A20.81 20.81 0 0 1 13.225 4.5h-2.45A20.81 20.81 0 0 1 5.4 6.964c-.078.013-.141.126-.15.27a.375.375 0 0 0 .112.327 4.964 4.964 0 0 0 2.656.689h7.962a4.965 4.965 0 0 0 2.657-.689.375.375 0 0 0 .112-.327c-.009-.144-.072-.257-.149-.27zM8.689 1.5l.75-.75 1.5 2.25 1.5-1.5a1.061 1.061 0 0 1 1.5 0 1.059 1.059 0 0 1 0 1.5M.75 21v.75a1.5 1.5 0 0 0 1.5 1.5h19.5a1.5 1.5 0 0 0 1.5-1.5V21m-18 2.25V21m4.5 2.25V21m4.5 2.25V21m4.5 2.25V21M7.5 12v-1.5M12 12v-1.5m4.5 1.5v-1.5"/></svg>