<svg xmlns="http://www.w3.org/2000/svg" viewBox="0 0 24 24" width="24" height="24"><defs><style>.a{fill:none;stroke:#000;stroke-linecap:round;stroke-linejoin:round;stroke-width:1.5px}</style></defs><title>landmark-buckingham-palace</title><path class="a" d="M9.75 15.75V7.811a.751.751 0 0 1 .22-.531L12 5.25l2.03 2.03a.751.751 0 0 1 .22.531v7.939m-9 0h13.5M12 5.25V.75m-3.75 18v1.5m3.75-1.5v1.5m3.75-1.5v1.5"/><path class="a" d="M18.75 23.25v-9.439a.751.751 0 0 1 .22-.531l1.5-1.5a.749.749 0 0 1 1.06 0l1.5 1.5a.751.751 0 0 1 .22.531v7.939a1.5 1.5 0 0 1-1.5 1.5H2.25a1.5 1.5 0 0 1-1.5-1.5v-7.939a.751.751 0 0 1 .22-.531l1.5-1.5a.749.749 0 0 1 1.06 0l1.5 1.5a.751.751 0 0 1 .22.531v9.439"/></svg>