<svg xmlns="http://www.w3.org/2000/svg" viewBox="0 0 24 24" width="24" height="24"><defs><style>.a{fill:none;stroke:#000;stroke-linecap:round;stroke-linejoin:round;stroke-width:1.5px}</style></defs><title>landmark-mountain</title><path class="a" d="M6.75.75a2.249 2.249 0 0 0-2.2 1.767 1.457 1.457 0 0 0-.8-.267 1.5 1.5 0 0 0 0 3h3a2.25 2.25 0 0 0 0-4.5zm6 22.5c0-4.971-2.686-9-6-9s-6 4.029-6 9m22.5 0c0-9.941-3.862-18-8.625-18-2.559 0-4.858 2.326-6.437 6.02"/><path class="a" d="M9.822 8.298L12 9.75l2.25-1.5 2.25 1.5 2.681-1.787"/></svg>