<svg xmlns="http://www.w3.org/2000/svg" viewBox="0 0 24 24" width="24" height="24"><defs><style>.a{fill:none;stroke:#000;stroke-linecap:round;stroke-linejoin:round;stroke-width:1.5px}</style></defs><title>landmark-chinese-pagoda-2</title><path class="a" d="M17.932 10.272a1.5 1.5 0 0 0-1.139-.522H7.206a1.5 1.5 0 0 0-1.138.522A7.789 7.789 0 0 1 1 12.964a.292.292 0 0 0-.249.27.311.311 0 0 0 .186.327 12.708 12.708 0 0 0 4.428.689h13.269a12.7 12.7 0 0 0 4.427-.689.311.311 0 0 0 .187-.327.292.292 0 0 0-.249-.27 7.789 7.789 0 0 1-5.067-2.692zM12 2.25S7.589 5.092 5.4 5.464c-.078.013-.141.126-.15.27a.375.375 0 0 0 .112.327 4.964 4.964 0 0 0 2.656.689h7.962a4.965 4.965 0 0 0 2.657-.689.375.375 0 0 0 .112-.327c-.009-.144-.072-.257-.15-.27C16.411 5.092 12 2.25 12 2.25zm-11.25 21h22.5M7.5 6.729V9.75m9-3.021V9.75M12 2.25L9.75.75M12 2.25l2.25-1.5m9 17.25H.75m18.75-3.771V18m-15-3.771V18m14.25 3v2.25M5.25 21v2.25m16.5-6.75v6.75M2.25 16.5v6.75"/></svg>