<svg xmlns="http://www.w3.org/2000/svg" viewBox="0 0 24 24" width="24" height="24"><defs><style>.a{fill:none;stroke:#000;stroke-linecap:round;stroke-linejoin:round;stroke-width:1.5px}</style></defs><title>landmark-triumph-gate</title><path class="a" d="M2.25 4.5V21a1.5 1.5 0 0 0 1.5 1.5h3a1.5 1.5 0 0 0 1.5-1.5v-6.75a3.75 3.75 0 0 1 7.5 0V21a1.5 1.5 0 0 0 1.5 1.5h3a1.5 1.5 0 0 0 1.5-1.5V4.5m-21 3h22.5M.75 15h9m4.5 0h9M4.5 10.5H6m12 0h1.5M5.25 18v1.5m13.5-1.5v1.5"/><rect class="a" x=".75" y="1.5" width="22.5" height="3" rx=".5" ry=".5"/></svg>