<svg xmlns="http://www.w3.org/2000/svg" viewBox="0 0 24 24" width="24" height="24"><defs><style>.a{fill:none;stroke:#000;stroke-linecap:round;stroke-linejoin:round;stroke-width:1.5px}</style></defs><title>landmark-one-world-trade-center</title><path class="a" d="M4.75 17.131h14.5a1 1 0 0 1 1 1v5H3.75v-5a1 1 0 0 1 1-1zm1.5-9h11.5a1 1 0 0 1 1 1v8H5.25v-8a1 1 0 0 1 1-1zm.5-3h10.5v3H6.75zm5.738-4.082a.752.752 0 0 0-.976 0L6.75 5.131h10.5zM2.25 23.131h19.5"/><path class="a" d="M9.75 13.756a.375.375 0 1 1-.375.375.375.375 0 0 1 .375-.375m0-3a.375.375 0 1 1-.375.375.375.375 0 0 1 .375-.375m-1.5 9a.375.375 0 1 1-.375.375.375.375 0 0 1 .375-.375m3.75 0a.375.375 0 1 1-.375.375.375.375 0 0 1 .375-.375m3.75 0a.375.375 0 1 1-.375.375.375.375 0 0 1 .375-.375m-1.5-6a.375.375 0 1 1-.375.375.375.375 0 0 1 .375-.375m0-3a.375.375 0 1 1-.375.375.375.375 0 0 1 .375-.375"/></svg>