<svg xmlns="http://www.w3.org/2000/svg" viewBox="0 0 24 24" width="24" height="24"><defs><style>.a{fill:none;stroke:#000;stroke-linecap:round;stroke-linejoin:round;stroke-width:1.5px}</style></defs><title>landmark-netherlands-windmill</title><path class="a" d="M15.334 17.169l1.342 4.025a1.5 1.5 0 0 1-1.423 1.975H8.915a1.5 1.5 0 0 1-1.423-1.975l1.342-4.025m1.129-9.335L6.1 5.256a2.46 2.46 0 1 1 3.406-3.411l2.578 3.868 2.579-3.868a2.459 2.459 0 1 1 3.41 3.411l-3.867 2.578 3.867 2.579a2.459 2.459 0 1 1-3.41 3.41l-2.579-3.867-2.578 3.867a2.459 2.459 0 1 1-3.406-3.41z"/></svg>