<svg xmlns="http://www.w3.org/2000/svg" viewBox="0 0 24 24" width="24" height="24"><defs><style>.a{fill:none;stroke:#000;stroke-linecap:round;stroke-linejoin:round;stroke-width:1.5px}</style></defs><title>landmark-hagia-sophia</title><path class="a" d="M8.25 13.5v-2.25a3.75 3.75 0 0 1 7.5 0v2.25M2.25 3.75v-3"/><path class="a" d="M18.375 15.75a1.874 1.874 0 0 1 1.875 1.875V6.75l1.5-3 1.5 3v15a1.5 1.5 0 0 1-1.5 1.5H2.25a1.5 1.5 0 0 1-1.5-1.5v-15l1.5-3 1.5 3v10.875a1.874 1.874 0 0 1 1.875-1.875m16.125-12v-3M7.5 19.5a4.5 4.5 0 0 1 9 0M12 7.5V5.25m3.75 6h-7.5M6 19.5h12"/></svg>