<svg id="Regular" xmlns="http://www.w3.org/2000/svg" viewBox="0 0 24 24" width="24" height="24"><defs><style>.cls-1{fill:none;stroke:#000;stroke-linecap:round;stroke-linejoin:round;stroke-width:1.5px}</style></defs><title>landmarks-statue-flag</title><circle class="cls-1" cx="7.693" cy="3.75" r="2.625"/><path class="cls-1" d="M9.943 17.25V13.5a1.5 1.5 0 0 0 1.5-1.5v-.75a3 3 0 0 0-3-3h-1.5a3 3 0 0 0-3 3V12a1.5 1.5 0 0 0 1.5 1.5v3.75m-3 0h10.5m-1.418 5.343a.75.75 0 0 1-.744.657H4.605a.75.75 0 0 1-.744-.657l-.668-5.343h9z"/><path class="cls-1" transform="rotate(22.15 17.873 3.965)" d="M14.873 1.715h6v4.5h-6z"/><path class="cls-1" d="M14.246 4.918l-2.803 6.886"/></svg>