<svg xmlns="http://www.w3.org/2000/svg" viewBox="0 0 24 24" width="24" height="24"><defs><style>.a{fill:none;stroke:#000;stroke-linecap:round;stroke-linejoin:round;stroke-width:1.5px}</style></defs><title>landmark-berlin-cathedral</title><path class="a" d="M16.5 23.25h-9V13.5l3.876-5.814a.75.75 0 0 1 1.248 0L16.5 13.5z"/><path class="a" d="M12 13.875a.375.375 0 1 1-.375.375.375.375 0 0 1 .375-.375m1.5 9.375h-3v-3a1.5 1.5 0 0 1 3 0zm-12-13.5h6v13.5h-5a1 1 0 0 1-1-1V9.75zm15 0h6v12.5a1 1 0 0 1-1 1h-5V9.75zm-14.25 0l2.25-4.5 2.25 4.5m10.5 0l2.25-4.5 2.25 4.5M4.5.75v4.5M3 3.75h3m13.5-3v4.5M18 3.75h3M4.5 14.25v1.5m15-1.5v1.5m-18 0h6m9 0h6m-18 3v1.5m15-1.5v1.5"/></svg>