<svg xmlns="http://www.w3.org/2000/svg" viewBox="0 0 24 24" width="24" height="24"><defs><style>.a{fill:none;stroke:#000;stroke-linecap:round;stroke-linejoin:round;stroke-width:1.5px}</style></defs><title>landmark-cologne-cathedral</title><path class="a" d="M11.25 23.25h3v-3a1.5 1.5 0 0 0-3 0zM.75 9.75h7.5v13.5h-6.5a1 1 0 0 1-1-1V9.75zm0 0l3.75-4.5 3.75 4.5M4.5.75v4.5M3 3h3M4.5 13.5V15m0 3v1.5"/><path class="a" d="M8.25 23.25V15l3.931-4.586a.749.749 0 0 1 1.138 0L17.25 15v8.25"/><path class="a" d="M17.25 15.75l5.171 2.585a1.5 1.5 0 0 1 .829 1.342v2.073a1.5 1.5 0 0 1-1.5 1.5H8.25"/></svg>