<svg xmlns="http://www.w3.org/2000/svg" viewBox="0 0 24 24" width="24" height="24"><defs><style>.a{fill:none;stroke:#000;stroke-linecap:round;stroke-linejoin:round;stroke-width:1.5px}</style></defs><title>landmark-wat-phra-kaew</title><path class="a" d="M23.25 22.428H.75v-2.25a1.5 1.5 0 0 1 1.5-1.5h19.5a1.5 1.5 0 0 1 1.5 1.5zm-21-3.75h19.5m0 0c-2.919-2.918-3.265-9.75-9.75-9.75-6.468 0-6.881 6.881-9.75 9.75"/><path class="a" d="M15.666 9.92a19.556 19.556 0 0 1-3.3-8.048.376.376 0 0 0-.736 0 19.543 19.543 0 0 1-3.307 8.06m-2.019 1.996H17.7"/></svg>