<svg id="Regular" xmlns="http://www.w3.org/2000/svg" viewBox="0 0 24 24" width="24" height="24"><defs><style>.cls-1{fill:none;stroke:#000;stroke-linecap:round;stroke-linejoin:round;stroke-width:1.5px}</style></defs><title>landmarks-telescope-person</title><path class="cls-1" d="M10.181 8.319a5.255 5.255 0 0 0 6.317.242 1.557 1.557 0 0 1 2.025.3l3.59 4.039a4.5 4.5 0 0 1 1.137 2.99v5.61a1.5 1.5 0 0 1-3 0v-5.61a1.5 1.5 0 0 0-.379-1l-2.835-3.188a8.267 8.267 0 0 1-8.746-1.051M.75 2h3v6h-3zM9 5.75l-5.25 1.5v-4.5L9 4.25v1.5z"/><path class="cls-1" d="M5.25 6.821V19.25L1.5 23m3.75 0v-3.75L9 23"/><circle class="cls-1" cx="13.875" cy="3.875" r="2.625"/></svg>