<svg xmlns="http://www.w3.org/2000/svg" viewBox="0 0 24 24" width="24" height="24"><defs><style>.a{fill:none;stroke:#000;stroke-linecap:round;stroke-linejoin:round;stroke-width:1.5px}</style></defs><title>landmark-totem-pole</title><path class="a" d="M7.5 23.25v-18a4.5 4.5 0 0 1 9 0v18m-9-3h9m-9-3h9M13.5 6v.75m-3-.75v.75"/><path class="a" d="M12.237 9.079a.753.753 0 0 0-.474 0L7.5 10.5l4.02 3.35a.749.749 0 0 0 .96 0l4.02-3.35zM7.5 6.75h-6a.749.749 0 0 0-.721.956l.921 3.212A1.491 1.491 0 0 0 3.131 12a1.125 1.125 0 0 1 1.125 1.125 1.125 1.125 0 0 0 1.125 1.125H7.5m9-7.5h6a.749.749 0 0 1 .721.956l-.921 3.212A1.491 1.491 0 0 1 20.869 12a1.125 1.125 0 0 0-1.125 1.125 1.125 1.125 0 0 1-1.125 1.125H16.5"/></svg>