<svg xmlns="http://www.w3.org/2000/svg" viewBox="0 0 24 24" width="24" height="24"><defs><style>.a{fill:none;stroke:#000;stroke-linecap:round;stroke-linejoin:round;stroke-width:1.5px}</style></defs><title>landmark-taj-mahal</title><path class="a" d="M.75 11.96h3v10.5h-2a1 1 0 0 1-1-1v-9.5z"/><path class="a" d="M3.75 10.46a1.5 1.5 0 0 1-3 0c0-.829 1.5-3 1.5-3s1.5 2.171 1.5 3zm16.5 1.5h3v9.5a1 1 0 0 1-1 1h-2v-10.5z"/><path class="a" d="M23.25 10.46a1.5 1.5 0 0 1-3 0c0-.829 1.5-3 1.5-3s1.5 2.171 1.5 3zm-19.5 3h16.5v9H3.75z"/><path class="a" d="M14.25 22.46h-4.5v-3.75a2.25 2.25 0 0 1 4.5 0zm-.819-19.048a1.5 1.5 0 1 1-1.916-1.872"/><path class="a" d="M7.664 13.46a5.351 5.351 0 0 1-.914-3c0-2.9 5.25-6 5.25-6s5.25 3.1 5.25 6a5.162 5.162 0 0 1-.955 3"/></svg>