<svg xmlns="http://www.w3.org/2000/svg" viewBox="0 0 24 24" width="24" height="24"><defs><style>.a{fill:none;stroke:#000;stroke-linecap:round;stroke-linejoin:round;stroke-width:1.5px}</style></defs><title>landmark-pisa-tower</title><path class="a" d="M3.566 23.25L7.92 5.34l10.203 2.48-3.751 15.43"/><path class="a" d="M10.087 2.78l7.287 1.771-.708 2.915-7.288-1.771zm-5.042 8.036l13.118 3.189M3.628 16.646l13.118 3.189M6.463 4.985l13.118 3.19M8.629 2.425l10.203 2.48M14.439.75l-.708 2.915M7.425 23.25l.418-1.72a.751.751 0 0 1 .906-.552l1.458.355a.751.751 0 0 1 .552.906l-.246 1.011m-9.013 0h21"/></svg>