<svg xmlns="http://www.w3.org/2000/svg" viewBox="0 0 24 24" width="24" height="24"><defs><style>.a{fill:none;stroke:#000;stroke-linecap:round;stroke-linejoin:round;stroke-width:1.5px}</style></defs><title>landmark-statue-of-liberty</title><path class="a" d="M5 4.75a2 2 0 0 1-4 0c0-1.1 2-4 2-4s2 2.895 2 4zm16 18.5h-4.5l1.216-4.864a1.5 1.5 0 0 1 1.455-1.136h2.158a1.5 1.5 0 0 1 1.455 1.864L22.5 20.25m-15.75-6L4.65 9M1.5 9l3.592 8.98m4.218-1.169L6.75 14.25l-2.515 5.658a1.5 1.5 0 0 0 .471 1.809L6.75 23.25m9.011-6.719l-4.199 6.719M15.78 8.573A1.5 1.5 0 0 1 16.812 10v4.25a3 3 0 0 1-6 0V10a1.5 1.5 0 0 1 1.032-1.425 6.152 6.152 0 0 1 3.936-.002zM10.812 12a6.375 6.375 0 0 1 6 0m-3-6.75v3m-3.75-1.684l1.648 2.058M8.25 9l2.562 1.036m6.75-3.47l-1.647 2.058M19.374 9l-2.549 1.031"/><path class="a" d="M20.75 20.25h2.5v3h-2.5a.5.5 0 0 1-.5-.5v-2a.5.5 0 0 1 .5-.5zM.75 9H6"/></svg>