<svg xmlns="http://www.w3.org/2000/svg" viewBox="0 0 24 24" width="24" height="24"><defs><style>.a{fill:none;stroke:#000;stroke-linecap:round;stroke-linejoin:round;stroke-width:1.5px}</style></defs><title>landmark-golden-temple</title><path class="a" d="M15.5 10.929a1.973 1.973 0 0 0 1-1.608C16.5 6.643 14 6.643 12 4.5c-2 2.143-4.5 2.143-4.5 4.821a1.973 1.973 0 0 0 1 1.608m10.249-2.435a11.263 11.263 0 0 0 1.5-1.744C21 8 22.5 8.84 22.5 9.875a1.634 1.634 0 0 1-.75 1.25v3.125"/><path class="a" d="M21.75 23.25v-9a1.5 1.5 0 0 0-1.5-1.5h-1.5m-16.5 10.5v-9a1.5 1.5 0 0 1 1.5-1.5h1.5m-4.5 3h22.5m-9 7.5V21a2.25 2.25 0 0 0-4.5 0v2.25M20.25 4.5V3"/><path class="a" d="M5.251 8.494A11.263 11.263 0 0 1 3.75 6.75C3 8 1.5 8.84 1.5 9.875a1.634 1.634 0 0 0 .75 1.25v3.125m1.5-9.75V3"/><circle class="a" cx="12" cy="1.125" r=".375"/><path class="a" d="M17.25 18v5.25M6.75 18v5.25"/></svg>