<svg xmlns="http://www.w3.org/2000/svg" viewBox="0 0 24 24" width="24" height="24"><defs><style>.a{fill:none;stroke:#000;stroke-linecap:round;stroke-linejoin:round;stroke-width:1.5px}</style></defs><title>landmark-bridge</title><path class="a" d="M8 11h8a.5.5 0 0 1 .5.5v10.75h-9V11.5A.5.5 0 0 1 8 11z"/><path class="a" d="M13.5 22.25h-3V18.5a1.5 1.5 0 0 1 3 0zM9.75 11V3.811a.751.751 0 0 1 .22-.531l1.5-1.5a.749.749 0 0 1 1.06 0l1.5 1.5a.751.751 0 0 1 .22.531V11m2.25 3H21m-4.5 8.25H21m2.25 0H21V12.5h2.25M7.5 14H3m4.5 8.25H3m-2.25 0H3V12.5H.75M3 10.25v2.25m18-2.25v2.25"/></svg>