<svg xmlns="http://www.w3.org/2000/svg" viewBox="0 0 24 24" width="24" height="24"><defs><style>.a{fill:none;stroke:#000;stroke-linecap:round;stroke-linejoin:round;stroke-width:1.5px}</style></defs><title>landmark-pyramid-sphinx</title><path class="a" d="M18.563 14.163l1.674-1.656a1.719 1.719 0 0 0 .513-1.224V9.4a8.751 8.751 0 0 0-17.5 0v1.879a1.719 1.719 0 0 0 .513 1.224l1.674 1.656"/><path class="a" d="M20.75 19.5v-1.442a4.155 4.155 0 0 0-1.238-2.958L14 9.649m-4 0L4.488 15.1a4.155 4.155 0 0 0-1.238 2.958V19.5"/><path class="a" d="M15.5 4.212a3.5 3.5 0 0 0-7 0v2.6a3.5 3.5 0 0 0 7 0zm-7 19.038V21A1.5 1.5 0 0 0 7 19.5H3A1.5 1.5 0 0 0 1.5 21v2.25m14 0V21a1.5 1.5 0 0 1 1.5-1.5h4a1.5 1.5 0 0 1 1.5 1.5v2.25m-12.892-9h4.55m-4.55 3h4.55"/></svg>