<svg xmlns="http://www.w3.org/2000/svg" viewBox="0 0 24 24" width="24" height="24"><defs><style>.a{fill:none;stroke:#000;stroke-linecap:round;stroke-linejoin:round;stroke-width:1.5px}</style></defs><title>landmark-empire-state</title><path class="a" d="M4.5 23.25V18a.75.75 0 0 1 .75-.75h5.25m-4.5 0v-4.5a.75.75 0 0 1 .75-.75h3.75m-3 0V8.25a.75.75 0 0 1 .75-.75h2.25m9 15.75V18a.75.75 0 0 0-.75-.75H13.5m4.5 0v-4.5a.75.75 0 0 0-.75-.75H13.5m3 0V8.25a.75.75 0 0 0-.75-.75H13.5m0 0v15.75m-3 0V7.501M9.75 7.5l1.5-4.5h1.5l1.5 4.5M12 3V.75"/></svg>