<svg xmlns="http://www.w3.org/2000/svg" viewBox="0 0 24 24" width="24" height="24"><defs><style>.a{fill:none;stroke:#000;stroke-linecap:round;stroke-linejoin:round;stroke-width:1.5px}</style></defs><title>landmark-rialto-bridge</title><path class="a" d="M23.22 22.5c-2.068 0-3.745-1.007-3.745-2.25 0 1.243-1.677 2.25-3.745 2.25s-3.745-1.007-3.745-2.25c0 1.243-1.677 2.25-3.745 2.25S4.5 21.493 4.5 20.25c0 1.243-1.682 2.25-3.75 2.25m0-3v-5.459a.751.751 0 0 1 .513-.712l10.5-3.5a.753.753 0 0 1 .474 0l10.5 3.5a.751.751 0 0 1 .513.712V19.5M.75 5.25l11.013-3.671a.753.753 0 0 1 .474 0L23.25 5.25M2.25 13v-2.5a2.25 2.25 0 0 1 4.5 0v1m15 1.5v-2.5a2.25 2.25 0 0 0-4.5 0v1"/><path class="a" d="M9.75 10.5V6.75a2.25 2.25 0 0 1 4.5 0v3.75m-6 9v-3a3.75 3.75 0 0 1 7.5 0v3"/></svg>