<svg xmlns="http://www.w3.org/2000/svg" viewBox="0 0 24 24" width="24" height="24"><defs><style>.a{fill:none;stroke:#000;stroke-linecap:round;stroke-linejoin:round;stroke-width:1.5px}</style></defs><title>landmark-london-tower</title><circle class="a" cx="11.75" cy="16.439" r="3.75"/><path class="a" d="M11.75 14.939v2.25m-7.5-7.5h15v12.5a1 1 0 0 1-1 1h-13a1 1 0 0 1-1-1v-12.5zm8.03-8.469a.749.749 0 0 0-1.06 0L8.97 3.47a.747.747 0 0 0-.22.53v1.939l-4.5 3.75h15l-4.5-3.75V4a.747.747 0 0 0-.22-.53zm-.53 15.969h1.5"/></svg>