<svg xmlns="http://www.w3.org/2000/svg" viewBox="0 0 24 24" width="24" height="24"><defs><style>.a{fill:none;stroke:#000;stroke-linecap:round;stroke-linejoin:round;stroke-width:1.5px}</style></defs><title>landmark-stonehenge</title><path class="a" d="M5.25 6.75a1.5 1.5 0 0 0-1.5 1.5v13.5h6V8.25a1.5 1.5 0 0 0-1.5-1.5zm14.906 13.411a1.5 1.5 0 0 1-1.5 1.589h-2.992a1.5 1.5 0 0 1-1.5-1.411l-1.407-9.756A1.5 1.5 0 0 1 14.257 9h2.995a1.5 1.5 0 0 1 1.5 1.417z"/><rect class="a" x=".75" y="2.25" width="21" height="4.5" rx="1" ry="1"/><path class="a" d="M.75 21.75h22.5"/></svg>