<svg xmlns="http://www.w3.org/2000/svg" viewBox="0 0 24 24" width="24" height="24"><defs><style>.a{fill:none;stroke:#000;stroke-linecap:round;stroke-linejoin:round;stroke-width:1.5px}</style></defs><title>landmark-pagoda</title><path class="a" d="M18.75 23.25v-3H5.25v3m13.725-6.469a.752.752 0 0 0-.585-.281H5.61a.752.752 0 0 0-.585.281L2.25 20.25h19.5zM.75 20.25h22.5m-16.5-7.5h10.5v3.75H6.75zm10.725-3.469A.752.752 0 0 0 16.89 9H7.11a.752.752 0 0 0-.585.281L3.75 12.75h16.5zM2.25 12.75h19.5m-13.5-7.5h7.5V9h-7.5zm7.72-2.78a.751.751 0 0 0-.531-.22H8.561a.751.751 0 0 0-.531.22L5.25 5.25h13.5zM3.75 5.25h16.5m-8.25-3V.75"/></svg>