<svg xmlns="http://www.w3.org/2000/svg" viewBox="0 0 24 24" width="24" height="24"><defs><style>.a{fill:none;stroke:#000;stroke-linecap:round;stroke-linejoin:round;stroke-width:1.5px}</style></defs><title>landmark-christ-the reedemer</title><path class="a" d="M10.277 6.456l-.9-2.706a2.625 2.625 0 0 1 5.25 0l-.9 2.706"/><path class="a" d="M8.25 22.875v-12H4.5c-3 0-2.25-3-2.25-3A15.258 15.258 0 0 0 6 7.125a28.1 28.1 0 0 1 6-.75m0 0a28.1 28.1 0 0 1 6 .75 15.258 15.258 0 0 0 3.75.75s.75 3-2.25 3h-3.75v12m-15-14.25h1.417m19.666 0h1.417"/><path class="a" d="M15.75 6.684v11.691l-1.756 1.537a.75.75 0 0 1-1.244-.565V6.4m-4.968.358c1.252 1.319 3.39 3.391 4.969 3.965m-4.501 2.52a15.541 15.541 0 0 0 4.5 3.48"/></svg>