<svg xmlns="http://www.w3.org/2000/svg" viewBox="0 0 24 24" width="24" height="24"><defs><style>.a{fill:none;stroke:#000;stroke-linecap:round;stroke-linejoin:round;stroke-width:1.5px}</style></defs><title>landmark-angkor-wat</title><path class="a" d="M3.758 13.875C1.819 11.906 2.3 8.625 2.3 8.625s5.818 0 5.818 5.25m12.124 0c1.939-1.969 1.454-5.25 1.454-5.25s-5.818 0-5.818 5.25m0 0c0-3.281-3.878-5.25-3.878-5.25s-3.878 1.969-3.878 5.25m7.668-7.859A8.792 8.792 0 0 0 12 1.875a8.792 8.792 0 0 0-3.79 4.141M2.25 18.375v-3.75a.75.75 0 0 1 .75-.75h18a.75.75 0 0 1 .75.75v3.75m-12-4.5l-2.25 8.25m6.75-8.25l2.25 8.25"/><path class="a" d="M15.5 18.375h7a.75.75 0 0 1 .75.75v3m-22.5 0v-3a.75.75 0 0 1 .75-.75h7.023M4.666 9.062A6.261 6.261 0 0 1 5.32 6.4a4.873 4.873 0 0 1 1.832-2.025S7.931 5.54 8.9 7.125m10.434 1.937A6.261 6.261 0 0 0 18.68 6.4a4.873 4.873 0 0 0-1.832-2.023S16.069 5.54 15.1 7.125"/></svg>