<svg xmlns="http://www.w3.org/2000/svg" viewBox="0 0 24 24" width="24" height="24"><defs><style>.a{fill:none;stroke:#000;stroke-linecap:round;stroke-linejoin:round;stroke-width:1.5px}</style></defs><title>landmark-mesoamerican-pyramid</title><path class="a" d="M16.5 3v6m-9 0V3M6 3h12M5 9h2.5v3h-3V9.5A.5.5 0 0 1 5 9zm-1.5 3h4v4.5H3v-4a.5.5 0 0 1 .5-.5zm-2.25 4.5H7.5V21H.75v-4a.5.5 0 0 1 .5-.5zM19.5 12h-3V9H19a.5.5 0 0 1 .5.5V12zm1.5 4.5h-4.5V12h4a.5.5 0 0 1 .5.5v4zm2.25 4.5H16.5v-4.5h6.25a.5.5 0 0 1 .5.5v4zM7.5 9h3V7.5a1.5 1.5 0 0 1 3 0V9h3m-6 3h3m-3 3h3m-3 3h3m-3 3h3"/></svg>