<svg xmlns="http://www.w3.org/2000/svg" viewBox="0 0 24 24" width="24" height="24"><defs><style>.a{fill:none;stroke:#000;stroke-linecap:round;stroke-linejoin:round;stroke-width:1.5px}</style></defs><title>laptop-star</title><path class="a" d="M17.956 11.68l1.544 4.073h2.99a.735.735 0 0 1 .517 1.283l-2.6 1.813 1.44 3.313a.785.785 0 0 1-1.117.982l-3.48-1.961-3.48 1.961a.785.785 0 0 1-1.117-.982l1.44-3.313-2.6-1.813a.734.734 0 0 1 .514-1.283h3l1.541-4.073a.8.8 0 0 1 1.408 0zM3 12V2.25A1.5 1.5 0 0 1 4.5.75h15a1.5 1.5 0 0 1 1.5 1.5v6"/><path class="a" d="M12 12H.75a3.75 3.75 0 0 0 3.75 3.75h3.75"/></svg>