<svg xmlns="http://www.w3.org/2000/svg" viewBox="0 0 24 24" width="24" height="24"><defs><style>.a{fill:none;stroke:#000;stroke-linecap:round;stroke-linejoin:round;stroke-width:1.5px}</style></defs><title>laptop-idea</title><path class="a" d="M12 .75v1.5m-7.5 6h1.607m13.393 0h-1.607M5.814 3.35l1.365 1.364M18.186 3.35l-1.365 1.364M6.214 11.25a.941.941 0 0 0-.964.917v6.416a.942.942 0 0 0 .964.917h11.572a.942.942 0 0 0 .964-.917v-6.416a.941.941 0 0 0-.964-.917"/><path class="a" d="M5.25 19.5l-1.868 1.616a1.214 1.214 0 0 0 0 1.768 1.335 1.335 0 0 0 .922.366H19.7a1.335 1.335 0 0 0 .922-.366 1.214 1.214 0 0 0 0-1.768L18.75 19.5zm10.5-11.25a3.75 3.75 0 1 0-5.25 3.433V13.5h3v-1.817a3.747 3.747 0 0 0 2.25-3.433zm-5.25 7.5h3"/></svg>