<svg xmlns="http://www.w3.org/2000/svg" viewBox="0 0 24 24" width="24" height="24"><defs><style>.a{fill:none;stroke:#000;stroke-linecap:round;stroke-linejoin:round;stroke-width:1.5px}</style></defs><title>laptop-shield</title><path class="a" d="M22.371 19.228A1.226 1.226 0 0 1 21.273 21H2.727a1.225 1.225 0 0 1-1.1-1.775L3 15h18zM19.5 3A1.5 1.5 0 0 1 21 4.5V15H3.006V4.5a1.5 1.5 0 0 1 1.5-1.5m6.744 15.001h1.5"/><path class="a" d="M16.5 6.378A5.75 5.75 0 0 1 12 12a5.751 5.751 0 0 1-4.5-5.622v-2.25A1.125 1.125 0 0 1 8.625 3h6.75A1.125 1.125 0 0 1 16.5 4.128z"/></svg>