<svg xmlns="http://www.w3.org/2000/svg" viewBox="0 0 24 24" width="24" height="24"><defs><style>.a{fill:none;stroke:#000;stroke-linecap:round;stroke-linejoin:round;stroke-width:1.5px}</style></defs><title>laptop-1</title><path class="a" d="M17.25 11.25a1.5 1.5 0 0 0 1.5-1.5v-6a1.5 1.5 0 0 0-1.5-1.5h-12a1.5 1.5 0 0 0-1.5 1.5v6a1.5 1.5 0 0 0 1.5 1.5m14.818 3.974a1.5 1.5 0 0 1-1.405 2.026H3.751a1.5 1.5 0 0 1-1.4-2.026l1.125-3a1.5 1.5 0 0 1 1.4-.974h12.835a1.5 1.5 0 0 1 1.4.974zM9.75 14.25h3m-12 7.5h22.5m-12-4.5v4.5"/></svg>