<svg xmlns="http://www.w3.org/2000/svg" viewBox="0 0 24 24" width="24" height="24"><defs><style>.a{fill:none;stroke:#000;stroke-linecap:round;stroke-linejoin:round;stroke-width:1.5px}</style></defs><title>laptop-download</title><path class="a" d="M6.75 8.25h-1.5a1.5 1.5 0 0 0-1.5 1.5v6a1.5 1.5 0 0 0 1.5 1.5h13.5a1.5 1.5 0 0 0 1.5-1.5v-6a1.5 1.5 0 0 0-1.5-1.5h-1.5m2.999 15H3.751a1.5 1.5 0 0 1-1.4-2.026l.953-3a1.5 1.5 0 0 1 1.4-.974h14.42a1.5 1.5 0 0 1 1.4.974l1.125 3a1.5 1.5 0 0 1-1.4 2.026zm-9.748-3h3m-1.5-19.5V13.5"/><path class="a" d="M15.001 10.5l-3 3-3-3"/></svg>