<svg xmlns="http://www.w3.org/2000/svg" viewBox="0 0 24 24" width="24" height="24"><defs><style>.a{fill:none;stroke:#000;stroke-linecap:round;stroke-linejoin:round;stroke-width:1.5px}</style></defs><title>laptop-home</title><path class="a" d="M22.371 19.228A1.226 1.226 0 0 1 21.273 21H2.727a1.225 1.225 0 0 1-1.1-1.775L3 15h18zM19.5 3A1.5 1.5 0 0 1 21 4.5V15H3.006V4.5a1.5 1.5 0 0 1 1.5-1.5m6.744 15.001h1.5"/><path class="a" d="M7.5 6.2v4.3A1.5 1.5 0 0 0 9 12h6a1.5 1.5 0 0 0 1.5-1.5V6.2"/><path class="a" d="M6 7.514l4.518-3.954a2.252 2.252 0 0 1 2.964 0L18 7.514"/><path class="a" d="M13.5 12h-3V9a1.5 1.5 0 0 1 3 0z"/></svg>