<svg xmlns="http://www.w3.org/2000/svg" viewBox="0 0 24 24" width="24" height="24"><defs><style>.a{fill:none;stroke:#000;stroke-linecap:round;stroke-linejoin:round;stroke-width:1.5px}</style></defs><title>laptop-launch</title><path class="a" d="M13.772 20.36A11.579 11.579 0 0 1 12 23.25a11.328 11.328 0 0 1-1.816-3M12 2.598V.75m3.352 4.234L12 2.6 8.648 4.984A2.7 2.7 0 0 0 7.6 7.847l2.3 8.72h4.2l2.3-8.72a2.7 2.7 0 0 0-1.048-2.863z"/><path class="a" d="M8.881 12.709l-1 .461a1.9 1.9 0 0 0-1.135 1.7v2.719a.473.473 0 0 0 .277.42.572.572 0 0 0 .539-.023L9.9 16.567m5.219-3.858l1 .461a1.9 1.9 0 0 1 1.135 1.7v2.719a.473.473 0 0 1-.277.42.572.572 0 0 1-.539-.023L14.1 16.567"/><circle class="a" cx="12" cy="7.5" r="1.5"/><path class="a" d="M23 4.25h-1.75a.955.955 0 0 0-.894 1.006 1.012 1.012 0 0 0 .562.934l1.77.619a1.014 1.014 0 0 1 .562.934.955.955 0 0 1-.894 1.007H20.25m1.5-4.5v-1m0 6.5v-1m-18.25-7H1.75a.955.955 0 0 0-.894 1.006 1.012 1.012 0 0 0 .562.934l1.77.619a1.014 1.014 0 0 1 .562.934.955.955 0 0 1-.894 1.007H.75m1.5-4.5v-1m0 6.5v-1"/></svg>