<svg xmlns="http://www.w3.org/2000/svg" viewBox="0 0 24 24" width="24" height="24"><defs><style>.a{fill:none;stroke:#000;stroke-linecap:round;stroke-linejoin:round;stroke-width:1.5px}</style></defs><title>laptop-bug</title><path class="a" d="M20.25 18.75a3 3 0 0 1-6 0v-1.5a3 3 0 0 1 6 0zm-6-1.5h6m-5.735-1.235L12 13.5m3.129 7.371L12.75 23.25m1.5-4.5h-3m8.735-2.735L22.5 13.5m-3.129 7.371l2.379 2.379m-1.5-4.5h3M3 12V2.25A1.5 1.5 0 0 1 4.5.75h15a1.5 1.5 0 0 1 1.5 1.5v7.5M9.75 12h-9a3.75 3.75 0 0 0 3.75 3.75h3.75"/></svg>