<svg xmlns="http://www.w3.org/2000/svg" viewBox="0 0 24 24" width="24" height="24"><defs><style>.a{fill:none;stroke:#000;stroke-linecap:round;stroke-linejoin:round;stroke-width:1.5px}</style></defs><title>laptop-announcement</title><path class="a" d="M17.786 11.25H6.214a.941.941 0 0 0-.964.916v6.417a.942.942 0 0 0 .964.917h11.572a.942.942 0 0 0 .964-.917v-6.417a.941.941 0 0 0-.964-.916z"/><path class="a" d="M5.25 19.5l-1.868 1.616a1.214 1.214 0 0 0 0 1.768 1.335 1.335 0 0 0 .922.366H19.7a1.335 1.335 0 0 0 .922-.366 1.214 1.214 0 0 0 0-1.768L18.75 19.5z"/><rect class="a" x=".75" y=".75" width="9" height="6" rx="1" ry="1"/><path class="a" d="M.75 2.25l4.5 2.25 4.5-2.25"/><rect class="a" x="14.25" y=".75" width="9" height="6" rx="1" ry="1"/><path class="a" d="M14.25 2.25l4.5 2.25 4.5-2.25"/></svg>