<svg xmlns="http://www.w3.org/2000/svg" viewBox="0 0 24 24" width="24" height="24"><defs><style>.a{fill:none;stroke:#000;stroke-linecap:round;stroke-linejoin:round;stroke-width:1.5px}</style></defs><title>laptop-heart</title><path class="a" d="M17.25 23.25l-5.114-5.335a3.023 3.023 0 0 1-.566-3.492 3.025 3.025 0 0 1 4.845-.786l.835.835.835-.835a3.026 3.026 0 0 1 4.846.786 3.025 3.025 0 0 1-.567 3.492zM3 12V2.25A1.5 1.5 0 0 1 4.5.75h15a1.5 1.5 0 0 1 1.5 1.5V9M9 12H.75a3.75 3.75 0 0 0 3.75 3.75h3.75"/></svg>