<svg xmlns="http://www.w3.org/2000/svg" viewBox="0 0 24 24" width="24" height="24"><defs><style>.a{fill:none;stroke:#000;stroke-linecap:round;stroke-linejoin:round;stroke-width:1.5px}</style></defs><title>laptop-heart</title><path class="a" d="M22.371 19.228A1.226 1.226 0 0 1 21.273 21H2.727a1.225 1.225 0 0 1-1.1-1.775L3 15h18zM19.5 3A1.5 1.5 0 0 1 21 4.5V15H3.006V4.5a1.5 1.5 0 0 1 1.5-1.5m6.744 15.001h1.5"/><path class="a" d="M12 12L7.617 7.431a2.6 2.6 0 0 1-.486-2.994 2.594 2.594 0 0 1 4.153-.674l.716.716.716-.716a2.594 2.594 0 0 1 4.153.674 2.593 2.593 0 0 1-.486 2.994z"/></svg>