<svg xmlns="http://www.w3.org/2000/svg" viewBox="0 0 24 24" width="24" height="24"><defs><style>.a{fill:none;stroke:#000;stroke-linecap:round;stroke-linejoin:round;stroke-width:1.5px}</style></defs><title>laptop-cash</title><path class="a" d="M18.75 14.25h-2.033a1.342 1.342 0 0 0-.5 2.587l2.064.826a1.342 1.342 0 0 1-.5 2.587H15.75m1.5-6v-.75m0 7.5v-.75"/><circle class="a" cx="17.25" cy="17.25" r="6"/><path class="a" d="M3 12V2.25A1.5 1.5 0 0 1 4.5.75h15a1.5 1.5 0 0 1 1.5 1.5v6M9.75 12h-9a3.75 3.75 0 0 0 3.75 3.75h3.75"/></svg>