<svg xmlns="http://www.w3.org/2000/svg" viewBox="0 0 24 24" width="24" height="24"><defs><style>.a{fill:none;stroke:#000;stroke-linecap:round;stroke-linejoin:round;stroke-width:1.5px}</style></defs><title>laptop-lock</title><path class="a" d="M5.25 12.75a1.5 1.5 0 0 1-1.5-1.5v-6a1.5 1.5 0 0 1 1.5-1.5h7.5m7.318 12.974a1.5 1.5 0 0 1-1.405 2.026H3.751a1.5 1.5 0 0 1-1.4-2.026l1.125-3a1.5 1.5 0 0 1 1.4-.974h12.835a1.5 1.5 0 0 1 1.4.974zM9.75 15.75h3"/><rect class="a" x="15.75" y="3.75" width="7.5" height="6" rx="1.5" ry="1.5"/><path class="a" d="M19.5 6.375a.375.375 0 1 0 .375.375.375.375 0 0 0-.375-.375M.75 23.25h22.5m-12-4.5v4.5m6-19.5V3a2.25 2.25 0 0 1 4.5 0v.75"/></svg>