<svg xmlns="http://www.w3.org/2000/svg" viewBox="0 0 24 24" width="24" height="24"><defs><style>.a{fill:none;stroke:#000;stroke-linecap:round;stroke-linejoin:round;stroke-width:1.5px}</style></defs><title>laundry-retro-iron</title><path class="a" d="M9.591 3.65h7.368A4.1 4.1 0 0 1 21 7.036l2.247 12.738a.49.49 0 0 1-.483.576H.75a9.823 9.823 0 0 1 9.824-9.823h11.037"/><path class="a" d="M7.125 15.85a.375.375 0 1 1-.375.375.375.375 0 0 1 .375-.375m5.25 0a.375.375 0 1 1-.375.375.375.375 0 0 1 .375-.375m5.25 0a.375.375 0 1 1-.375.375.375.375 0 0 1 .375-.375"/></svg>