<svg xmlns="http://www.w3.org/2000/svg" viewBox="0 0 24 24" width="24" height="24"><defs><style>.a{fill:none;stroke:#000;stroke-linecap:round;stroke-linejoin:round;stroke-width:1.5px}</style></defs><title>launch-go-flag</title><path class="a" d="M.904.75v22.5m13.496-18a1.5 1.5 0 0 0-1.5 1.5v4.5a1.5 1.5 0 0 0 3 0v-4.5a1.5 1.5 0 0 0-1.5-1.5zm-5.246 4.5H9.9v1.5a1.5 1.5 0 0 1-3 0v-4.5a1.5 1.5 0 0 1 1.5-1.5h1.5"/><path class="a" d="M.9 2.25h21.35a.749.749 0 0 1 .685 1.05l-2.396 5.4a.751.751 0 0 0 0 .609l2.4 5.391a.75.75 0 0 1-.685 1.055H.9"/></svg>