<svg xmlns="http://www.w3.org/2000/svg" viewBox="0 0 24 24" width="24" height="24"><defs><style>.a{fill:none;stroke:#000;stroke-linecap:round;stroke-linejoin:round;stroke-width:1.5px}</style></defs><title>laundry-hand-wash</title><path class="a" d="M23.25 18.639A4.383 4.383 0 0 1 21 17.25a3.964 3.964 0 0 1-3 1.5v-.027a4.188 4.188 0 0 1-3-1.473 3.964 3.964 0 0 1-3 1.5v-.027a4.188 4.188 0 0 1-3-1.473 3.964 3.964 0 0 1-3 1.5v-.027a4.188 4.188 0 0 1-3-1.473 4.075 4.075 0 0 1-2.25 1.42v4.58h22.5zM17.25.75a8.5 8.5 0 0 1-4.915 2.421 20.459 20.459 0 0 0-7.854 2.74L2.956 6.964A1.5 1.5 0 0 0 4.5 9.536l1.521-1.048A17.426 17.426 0 0 1 9.974 6.74a8.224 8.224 0 0 0-3.953 5.76 1.5 1.5 0 1 0 2.958.5 5.241 5.241 0 0 1 4.049-4.271l1.034-.229a12.343 12.343 0 0 0-2.033 4.71 1.5 1.5 0 0 0 2.942.589 9.364 9.364 0 0 1 3.178-5.341l1.524-1.271A6.9 6.9 0 0 1 18.3 11.1a1.5 1.5 0 0 0 2.4 1.8 9.293 9.293 0 0 0 1.8-7.65l.75-.75"/></svg>