<svg xmlns="http://www.w3.org/2000/svg" viewBox="0 0 24 24" width="24" height="24"><defs><style>.a{fill:none;stroke:#000;stroke-linecap:round;stroke-linejoin:round;stroke-width:1.5px}</style></defs><title>laundry-iron-water</title><path class="a" d="M21 14.628H3l2.211-3.791a10.5 10.5 0 0 1 9.07-5.209H21zm0-9v-1.5a3 3 0 0 0-3-3h-5.25m3.75 3v1.5m-11.75 6H21m-10.875 6.75a.375.375 0 1 1-.375.375.375.375 0 0 1 .375-.375m-2.25 3.75a.375.375 0 1 1-.375.372.375.375 0 0 1 .375-.375m4.5.003A.375.375 0 1 1 12 22.5a.375.375 0 0 1 .375-.375m2.25-3.747a.375.375 0 1 1-.375.375.375.375 0 0 1 .375-.375m2.25 3.75a.375.375 0 1 1-.375.375.375.375 0 0 1 .375-.375"/></svg>