<svg xmlns="http://www.w3.org/2000/svg" viewBox="0 0 24 24" width="24" height="24"><defs><style>.a{fill:none;stroke:#000;stroke-linecap:round;stroke-linejoin:round;stroke-width:1.5px}</style></defs><title>layers-grid-hide</title><path class="a" d="M6.75 18.75h-3a3 3 0 0 1-3-3v-12a3 3 0 0 1 3-3h12a3 3 0 0 1 3 3v9m-12-12v18m6-18v12m6-6h-18m18 6h-18m15.794 3.001H16.5a10.092 10.092 0 0 0-6.455 2.367.828.828 0 0 0 0 1.266 10.2 10.2 0 0 0 1.23.882m5.184 1.483h.041a10.094 10.094 0 0 0 6.455-2.367.829.829 0 0 0 0-1.266 10.28 10.28 0 0 0-1.23-.882M11.251 23.25l10.5-9"/></svg>