<svg xmlns="http://www.w3.org/2000/svg" viewBox="0 0 24 24" width="24" height="24"><defs><style>.a{fill:none;stroke:#000;stroke-linecap:round;stroke-linejoin:round;stroke-width:1.5px}</style></defs><title>layers-show</title><path class="a" d="M8.153 13.664a12.271 12.271 0 0 1-5.936-4.15L1.008 7.96a.75.75 0 0 1 0-.92l1.209-1.554A12.268 12.268 0 0 1 11.9.75a12.269 12.269 0 0 1 9.684 4.736l1.208 1.554a.748.748 0 0 1 0 .92l-1.208 1.554M10.4 10.937A3.749 3.749 0 1 1 15.338 9"/><circle class="a" cx="17.15" cy="17.25" r="6"/><path class="a" d="M17.15 14.25v6m-3-3h6"/></svg>