<svg xmlns="http://www.w3.org/2000/svg" viewBox="0 0 24 24" width="24" height="24"><defs><style>.a{fill:none;stroke:#000;stroke-linecap:round;stroke-linejoin:round;stroke-width:1.5px}</style></defs><title>layers-grid-warning</title><path class="a" d="M8.25 18.75h-4.5a3 3 0 0 1-3-3v-12a3 3 0 0 1 3-3h12a3 3 0 0 1 3 3v4.5m-12-7.5v18m6-18v9m6-3h-18m9 6h-9m16.5 7.5a.375.375 0 1 1-.375.375.375.375 0 0 1 .375-.375m0-2.25v-3"/><path class="a" d="M23.063 20.682a1.774 1.774 0 0 1-1.587 2.568h-8.452a1.773 1.773 0 0 1-1.586-2.568l4.226-8.451a1.773 1.773 0 0 1 3.173 0z"/></svg>