<svg xmlns="http://www.w3.org/2000/svg" viewBox="0 0 24 24" width="24" height="24"><defs><style>.a{fill:none;stroke:#000;stroke-linecap:round;stroke-linejoin:round;stroke-width:1.5px}</style></defs><title>layers-grid-settings</title><path class="a" d="M8.25 18.75h-4.5a3 3 0 0 1-3-3v-12a3 3 0 0 1 3-3h12a3 3 0 0 1 3 3v3m-12-6v18m6-18v9m6-3h-18m7.5 6H.75"/><circle class="a" cx="17.25" cy="16.5" r="1.5"/><path class="a" d="M18.525 10.7l.442 1.453a.993.993 0 0 0 1.173.681l1.473-.341a1.338 1.338 0 0 1 1.274 2.218l-1.03 1.111a1 1 0 0 0 0 1.362l1.03 1.111a1.338 1.338 0 0 1-1.274 2.218l-1.473-.341a.993.993 0 0 0-1.173.681l-.442 1.447a1.331 1.331 0 0 1-2.549 0l-.442-1.453a.993.993 0 0 0-1.173-.681l-1.473.341a1.338 1.338 0 0 1-1.274-2.218l1.03-1.111a1 1 0 0 0 0-1.362l-1.03-1.111a1.338 1.338 0 0 1 1.274-2.218l1.473.341a.993.993 0 0 0 1.173-.681l.442-1.453a1.331 1.331 0 0 1 2.549.006z"/></svg>