<svg xmlns="http://www.w3.org/2000/svg" viewBox="0 0 24 24" width="24" height="24"><defs><style>.a{fill:none;stroke:#000;stroke-linecap:round;stroke-linejoin:round;stroke-width:1.5px}</style></defs><title>layers-grid-magnet</title><path class="a" d="M8.25 18.75h-4.5a3 3 0 0 1-3-3v-12a3 3 0 0 1 3-3h12a3 3 0 0 1 3 3v4.5m-12-7.5v18m6-18v7.5m6-1.5h-18m7.5 6H.75"/><path class="a" d="M23.25 17.25a6 6 0 0 1-12 0v-4.5a1.5 1.5 0 0 1 1.5-1.5h1.5a1.5 1.5 0 0 1 1.5 1.5v4.5a1.5 1.5 0 0 0 3 0v-4.5a1.5 1.5 0 0 1 1.5-1.5h1.5a1.5 1.5 0 0 1 1.5 1.5zm-12-3h4.5m3 0h4.5"/></svg>