<svg xmlns="http://www.w3.org/2000/svg" viewBox="0 0 24 24" width="24" height="24"><defs><style>.a{fill:none;stroke:#000;stroke-linecap:round;stroke-linejoin:round;stroke-width:1.5px}</style></defs><title>layers-off</title><path class="a" d="M3.218 5.1L1.083 6.2a.616.616 0 0 0 0 1.094l6.038 3.126m8.079.869L22.917 7.3a.616.616 0 0 0 0-1.094L12.708.922a1.543 1.543 0 0 0-1.416 0L8.613 2.308"/><path class="a" d="M17.991 15.1l4.926-2.548a.616.616 0 0 0 0-1.094L18.9 9.375m-13.8 0l-4.017 2.078a.616.616 0 0 0 0 1.094l10.209 5.281a1.538 1.538 0 0 0 1.3.053"/><path class="a" d="M20.782 18.9l2.135-1.1a.616.616 0 0 0 0-1.094L18.9 14.625m-13.8 0L1.083 16.7a.616.616 0 0 0 0 1.094l10.209 5.281a1.543 1.543 0 0 0 1.416 0l2.679-1.386M3.75.75l16.5 22.5"/></svg>