<svg xmlns="http://www.w3.org/2000/svg" viewBox="0 0 24 24" width="24" height="24"><defs><style>.a{fill:none;stroke:#000;stroke-linecap:round;stroke-linejoin:round;stroke-width:1.5px}</style></defs><title>layers-lock</title><path class="a" d="M8.253 13.664a12.271 12.271 0 0 1-5.936-4.15L1.108 7.96a.75.75 0 0 1 0-.92l1.209-1.554A12.268 12.268 0 0 1 12 .75a12.269 12.269 0 0 1 9.684 4.736l1.208 1.554a.748.748 0 0 1 0 .92l-1.208 1.554M10.5 10.937A3.749 3.749 0 1 1 15.438 9"/><rect class="a" x="12.75" y="15.75" width="9" height="7.5" rx="1.5" ry="1.5"/><path class="a" d="M17.25 11.25a3 3 0 0 0-3 3v1.5h6v-1.5a3 3 0 0 0-3-3zm0 7.904a.375.375 0 1 1-.375.375.375.375 0 0 1 .375-.375"/></svg>