<svg xmlns="http://www.w3.org/2000/svg" viewBox="0 0 24 24" width="24" height="24"><defs><style>.a{fill:none;stroke:#000;stroke-linecap:round;stroke-linejoin:round;stroke-width:1.5px}</style></defs><title>layers</title><path class="a" d="M22.917 6.2L12.708.922a1.543 1.543 0 0 0-1.416 0L1.083 6.2a.616.616 0 0 0 0 1.094l10.209 5.281a1.543 1.543 0 0 0 1.416 0L22.917 7.3a.616.616 0 0 0 0-1.094z"/><path class="a" d="M5.1 9.375l-4.017 2.078a.616.616 0 0 0 0 1.094l10.209 5.281a1.543 1.543 0 0 0 1.416 0l10.209-5.281a.616.616 0 0 0 0-1.094L18.9 9.375"/><path class="a" d="M5.1 14.625L1.083 16.7a.616.616 0 0 0 0 1.094l10.209 5.281a1.543 1.543 0 0 0 1.416 0L22.917 17.8a.616.616 0 0 0 0-1.094L18.9 14.625"/></svg>