<svg xmlns="http://www.w3.org/2000/svg" viewBox="0 0 24 24" width="24" height="24"><defs><style>.a{fill:none;stroke:#000;stroke-linecap:round;stroke-linejoin:round;stroke-width:1.5px}</style></defs><title>legal-scale</title><path class="a" d="M9.75 17.25h12a1.5 1.5 0 0 1 1.5 1.5v3a1.5 1.5 0 0 1-1.5 1.5h-12"/><path class="a" d="M.75 17.25h9a1.5 1.5 0 0 1 1.5 1.5v3a1.5 1.5 0 0 1-1.5 1.5h-9m18-6v6m-10.5-3h-6m0-18h19.5M12 .75v13.5"/><path class="a" d="M9 17.25a3 3 0 0 1 6 0zM.75 9.75l3.75-7.5 3.75 7.5m7.5 0l3.75-7.5 3.75 7.5m-15 0a3.75 3.75 0 0 1-7.5 0zm15 0a3.75 3.75 0 0 1-7.5 0z"/></svg>