<svg xmlns="http://www.w3.org/2000/svg" viewBox="0 0 24 24" width="24" height="24"><defs><style>.a{fill:none;stroke:#000;stroke-linecap:round;stroke-linejoin:round;stroke-width:1.5px}</style></defs><title>legal-verdict</title><circle class="a" cx="18.693" cy="17.25" r="3"/><circle class="a" cx="5.193" cy="17.25" r="3"/><rect class="a" x="10.727" y=".943" width="3.182" height="6.364" rx=".75" ry=".75" transform="rotate(-45 12.318 4.125)"/><path class="a" d="M11.193 5.25L7.443 9m8.25-8.25h2.25a1.5 1.5 0 0 1 1.5 1.5v7.5a1.5 1.5 0 0 1-1.5 1.5h-3L11.193 15v-3.75h-6a1.5 1.5 0 0 1-1.5-1.5v-7.5a1.5 1.5 0 0 1 1.5-1.5h1.5M9.5 23.25a5.248 5.248 0 0 0-8.615 0m22.115 0a5.249 5.249 0 0 0-8.616 0"/></svg>