<svg xmlns="http://www.w3.org/2000/svg" viewBox="0 0 24 24" width="24" height="24"><defs><style>.a{fill:none;stroke:#000;stroke-linecap:round;stroke-linejoin:round;stroke-width:1.5px}</style></defs><title>legal-certificate</title><circle class="a" cx="20.25" cy="3.75" r="3"/><path class="a" d="M4.814 1.018a.489.489 0 0 1 .872 0L6.7 3.06a.485.485 0 0 0 .365.263l2.273.328a.484.484 0 0 1 .39.325.474.474 0 0 1-.121.489l-1.65 1.6a.476.476 0 0 0-.138.421l.389 2.255a.475.475 0 0 1-.194.468.49.49 0 0 1-.511.034L5.477 8.185a.486.486 0 0 0-.454 0L3 9.243a.49.49 0 0 1-.511-.034.475.475 0 0 1-.194-.468l.389-2.255a.476.476 0 0 0-.138-.421L.9 4.465a.474.474 0 0 1-.121-.489.483.483 0 0 1 .39-.325l2.272-.328A.485.485 0 0 0 3.8 3.06zM20.25.75H9.75m7.5 3v15a4.5 4.5 0 0 1-4.5 4.5h-12a4.5 4.5 0 0 0 4.5-4.5v-6m3 4.5h6m-6-3h6m-3-3h3m-3-3h3"/></svg>