<svg xmlns="http://www.w3.org/2000/svg" viewBox="0 0 24 24" width="24" height="24"><defs><style>.a{fill:none;stroke:#000;stroke-linecap:round;stroke-linejoin:round;stroke-width:1.5px}</style></defs><title>legal-scale-document</title><path class="a" d="M6.75 9.75h15m-7.5-1.5v12m-3 3a3 3 0 0 1 6 0zm-6-7.5l3-6 3 6m6 0l3-6 3 6m-12 0a3 3 0 0 1-6 0zm12 0a3 3 0 0 1-6 0z"/><path class="a" d="M6.75 21.75h-4.5a1.5 1.5 0 0 1-1.5-1.5v-18a1.5 1.5 0 0 1 1.5-1.5h10.189a.751.751 0 0 1 .531.22l4.06 4.06a.751.751 0 0 1 .22.531V6.75"/></svg>