<svg xmlns="http://www.w3.org/2000/svg" viewBox="0 0 24 24" width="24" height="24"><defs><style>.a{fill:none;stroke:#000;stroke-linecap:round;stroke-linejoin:round;stroke-width:1.5px}</style></defs><title>legal-scale</title><path class="a" d="M17.222 22.592a.465.465 0 0 1-.075.45.563.563 0 0 1-.443.208H7.3a.563.563 0 0 1-.443-.208.465.465 0 0 1-.075-.45l.503-1.392a1.511 1.511 0 0 1 1.438-.949h6.554a1.511 1.511 0 0 1 1.438.949z"/><path class="a" d="M9.75 20.25v-1.033A2.123 2.123 0 0 1 12 17.25a2.123 2.123 0 0 1 2.25 1.967v1.033M12 17.239V6m1.843-1.773a1.823 1.823 0 0 1-3.645 0 10.865 10.865 0 0 1 1.283-3.157.615.615 0 0 1 1.079 0 10.893 10.893 0 0 1 1.283 3.157zM2.25 7.5h19.5M4.5 7.5V12m3.277 0a.474.474 0 0 1 .357.162.462.462 0 0 1 .111.373 3.789 3.789 0 0 1-7.49 0 .464.464 0 0 1 .111-.374.477.477 0 0 1 .358-.161zM19.5 7.5V12m3.277 0a.474.474 0 0 1 .357.162.462.462 0 0 1 .111.373 3.789 3.789 0 0 1-7.49 0 .464.464 0 0 1 .111-.374.477.477 0 0 1 .358-.161z"/></svg>