<svg xmlns="http://www.w3.org/2000/svg" viewBox="0 0 24 24" width="24" height="24"><defs><style>.a{fill:none;stroke:#000;stroke-linecap:round;stroke-linejoin:round;stroke-width:1.5px}</style></defs><title>lens-shade-1</title><path class="a" d="M15.75 18.548v1.7a1.5 1.5 0 0 1-1.5 1.5h-4.5a1.5 1.5 0 0 1-1.5-1.5v-1.7M13.861.75a1.162 1.162 0 0 1 1.117.91l.686 2.863a.776.776 0 0 0 .627.594.753.753 0 0 0 .767-.374l1.007-1.73a.768.768 0 0 1 .662-.388.761.761 0 0 1 .59.285.829.829 0 0 1 .172.654l-.6 3.761a1.076 1.076 0 0 1-1.047.925H6.158a1.076 1.076 0 0 1-1.047-.925l-.6-3.761a.829.829 0 0 1 .172-.654.761.761 0 0 1 .59-.285.768.768 0 0 1 .662.388l1.007 1.73a.753.753 0 0 0 .767.374.776.776 0 0 0 .627-.594l.686-2.863a1.162 1.162 0 0 1 1.117-.91z"/><path class="a" d="M6.75 8.25h10.5V11a1 1 0 0 1-1 1h-8.5a1 1 0 0 1-1-1V8.25zm3 0V12M12 18.75v3m2.25-13.5V12"/><path class="a" d="M16.5 11.967v5.283a1.5 1.5 0 0 1-1.5 1.5H9a1.5 1.5 0 0 1-1.5-1.5v-5.283M9 21.548v1.702m6-1.702v1.702"/></svg>