<svg xmlns="http://www.w3.org/2000/svg" viewBox="0 0 24 24" width="24" height="24"><defs><style>.a{fill:none;stroke:#000;stroke-linecap:round;stroke-linejoin:round;stroke-width:1.5px}</style></defs><title>lens-vertical</title><path class="a" d="M20.25 3.75H3.75m12 3v3m-3.75-3v3m-3.75-3v3m9 4.629a1.5 1.5 0 0 1-.439 1.06l-.311.311h-9l-.311-.311a1.5 1.5 0 0 1-.439-1.06V12.75h10.5zM7.5 15.75h9v3.5a1 1 0 0 1-1 1h-7a1 1 0 0 1-1-1v-3.5z"/><path class="a" d="M7.25.75h9.5a2 2 0 0 1 2 2v9a1 1 0 0 1-1 1H6.25a1 1 0 0 1-1-1v-9a2 2 0 0 1 2-2zm1 19.469v1.531a1.5 1.5 0 0 0 1.5 1.5h4.5a1.5 1.5 0 0 0 1.5-1.5v-1.531"/></svg>