<svg xmlns="http://www.w3.org/2000/svg" viewBox="0 0 24 24" width="24" height="24"><defs><style>.a{fill:none;stroke:#000;stroke-linecap:round;stroke-linejoin:round;stroke-width:1.5px}</style></defs><title>lens-horizontal</title><ellipse class="a" cx="17.67" cy="6.524" rx="3.75" ry="6.75" transform="rotate(-45 17.67 6.524)"/><path class="a" d="M12.9 1.751l-8.488 8.485C2.947 11.7 3.9 15.025 6.533 17.661s5.96 3.586 7.425 2.121l8.485-8.482"/><path class="a" d="M8.655 5.994c-1.465 1.464-.515 4.788 2.121 7.424S16.736 17 18.2 15.54m-5.027-8.762L8.93 11.021m8.486 0l-4.243 4.243m-9.168-4.459L1.227 15.7a3 3 0 0 0 .521 3.543l2.819 2.819a3 3 0 0 0 3.3.636l5.433-2.467"/></svg>