<svg xmlns="http://www.w3.org/2000/svg" viewBox="0 0 24 24" width="24" height="24"><defs><style>.a{fill:none;stroke:#000;stroke-linecap:round;stroke-linejoin:round;stroke-width:1.5px}</style></defs><title>lens-shade</title><path class="a" d="M17.52 8.25H6.48a1.5 1.5 0 0 1-1.471-1.206l-1.08-5.4a.751.751 0 0 1 .736-.9h14.67a.751.751 0 0 1 .736.9l-1.08 5.4A1.5 1.5 0 0 1 17.52 8.25z"/><path class="a" d="M16.5 20.25h-9a.75.75 0 0 1-.75-.75V8.25h10.5V19.5a.75.75 0 0 1-.75.75zm-.75 0h-7.5v1.5a1.5 1.5 0 0 0 1.5 1.5h4.5a1.5 1.5 0 0 0 1.5-1.5zm-9-9h10.5m-7.5 3v3m4.5-3v3"/></svg>