<svg xmlns="http://www.w3.org/2000/svg" viewBox="0 0 24 24" width="24" height="24"><g fill="none" stroke="#000" stroke-linejoin="round" stroke-miterlimit="10"><path stroke-linecap="round" d="M10.5 21.5a2 2 0 01-2 2h-6a2 2 0 01-2-2v-6a2 2 0 012-2h6a2 2 0 012 2v6zm13 0a2 2 0 01-2 2h-6a2 2 0 01-2-2v-6a2 2 0 012-2h6a2 2 0 012 2v6zm-7-12a2 2 0 01-2 2h-6a2 2 0 01-2-2v-6a2 2 0 012-2h6a2 2 0 012 2v6z"/><path d="M3.5 15.5H6a1.5 1.5 0 010 3H3.5v-3zm0 3H6a1.5 1.5 0 010 3H3.5v-3z"/><path d="M9 9.484l2.578-5.968L14 9.484M9.864 7.5h3.324M21.061 20.621a3 3 0 11-.078-4.317" stroke-linecap="round"/></g><path fill="none" d="M0 0h24v24H0z"/></svg>