<svg xmlns="http://www.w3.org/2000/svg" viewBox="0 0 24 24" width="24" height="24"><defs><style>.a{fill:none;stroke:#000;stroke-linecap:round;stroke-linejoin:round;stroke-width:1.5px}</style></defs><title>library-hidden</title><path class="a" d="M12.844 4.436a.558.558 0 0 1 0-.619A6.52 6.52 0 0 1 18 .751a6.52 6.52 0 0 1 5.156 3.066.558.558 0 0 1 0 .619A6.522 6.522 0 0 1 18 7.5a6.522 6.522 0 0 1-5.156-3.064zm7.641-3.065L15.524 6.89m.226 3.61v11.25a1.5 1.5 0 0 1-1.5 1.5h-12a1.5 1.5 0 0 1-1.5-1.5V5.251a1.5 1.5 0 0 1 1.5-1.5h7.5m-9 9.75h15"/><path class="a" d="M.75 7.501h3v6h-3zm3-.001h2.493a.5.5 0 0 1 .5.5v5.5H3.75v-6zm-3 9.751h2.5a.5.5 0 0 1 .5.5v5.5m3.5-6h2a.5.5 0 0 1 .5.5v5.5h-3v-5.5a.5.5 0 0 1 .5-.5zm-3.5.75h3v5.25h-3z"/><rect class="a" x="8.703" y="7.891" width="2.759" height="5.519" rx=".5" ry=".5" transform="rotate(-13.535 10.084 10.652)"/></svg>