<svg xmlns="http://www.w3.org/2000/svg" viewBox="0 0 24 24" width="24" height="24"><defs><style>.a{fill:none;stroke:#000;stroke-linecap:round;stroke-linejoin:round;stroke-width:1.5px}</style></defs><title>library-sports</title><path class="a" d="M17.947 4.479l.267-1.76a2.132 2.132 0 0 1 3.077 0 2.132 2.132 0 0 1 0 3.078l-1.576.45m1.576-.447s1.539-.769 1.924 1.154c.261 1.306-.326 1.2-5.5 2.659m.499-6.894S18.983 1.181 17.06.8c-1.42-.284-1.335.7-2.531 5.632"/><path class="a" d="M17.711 9.61l-.53.531a2.257 2.257 0 0 1-3.182 0 2.257 2.257 0 0 1 0-3.182l.53-.531zm-1.961 3.901v8.25a1.5 1.5 0 0 1-1.5 1.5h-12a1.5 1.5 0 0 1-1.5-1.5v-16.5a1.5 1.5 0 0 1 1.5-1.5h7.5m-9 9.75h15"/><path class="a" d="M.75 7.511h3v6h-3zm3 0h2.493a.5.5 0 0 1 .5.5v5.5H3.75v-6zm-3 9.75h2.5a.5.5 0 0 1 .5.5v5.5m3.5-6h2a.5.5 0 0 1 .5.5v5.5h-3v-5.5a.5.5 0 0 1 .5-.5zm-3.5.75h3v5.25h-3z"/><rect class="a" x="8.703" y="7.9" width="2.759" height="5.519" rx=".5" ry=".5" transform="rotate(-13.535 10.083 10.66)"/></svg>