<svg xmlns="http://www.w3.org/2000/svg" viewBox="0 0 24 24" width="24" height="24"><defs><style>.a{fill:none;stroke:#000;stroke-linecap:round;stroke-linejoin:round;stroke-width:1.5px}</style></defs><title>library-art</title><path class="a" d="M18.457 1.293a6.16 6.16 0 0 0-2.552-.542c-2.985 0-5.4 2.049-5.4 4.576A4.633 4.633 0 0 0 13.8 9.54c.767.274 1.4.051 1.845-.966a1.6 1.6 0 0 1 1.584-1.018m3.747-1.388l-2.819 5.729m2.215-7.571a1.383 1.383 0 0 0 .6 1.842 1.342 1.342 0 0 0 1.813-.614 2.959 2.959 0 0 0-.6-3.888c.201 1.634-1.007 1.023-1.813 2.66zm-6.497.833a.378.378 0 0 1 .375.381m-.75 0a.378.378 0 0 1 .375-.381m0 .762a.378.378 0 0 1-.375-.381m.75 0a.378.378 0 0 1-.375.381m2.25-3.012a.378.378 0 0 1 .375.381m-.75 0a.378.378 0 0 1 .375-.381m0 .762a.378.378 0 0 1-.375-.381m.75 0a.378.378 0 0 1-.375.381M15.75 16.5v5.25a1.5 1.5 0 0 1-1.5 1.5h-12a1.5 1.5 0 0 1-1.5-1.5V5.251a1.5 1.5 0 0 1 1.5-1.5H7.5m-6.75 9.75h13.5"/><path class="a" d="M.75 7.501h3v6h-3zm3-.001h2.493a.5.5 0 0 1 .5.5v5.5H3.75v-6zm-3 9.751h2.5a.5.5 0 0 1 .5.5v5.5m3.5-6h2a.5.5 0 0 1 .5.5v5.5h-3v-5.5a.5.5 0 0 1 .5-.5zm-3.5.75h3v5.25h-3z"/></svg>