<svg xmlns="http://www.w3.org/2000/svg" viewBox="0 0 24 24" width="24" height="24"><defs><style>.a{fill:none;stroke:#000;stroke-linecap:round;stroke-linejoin:round;stroke-width:1.5px}</style></defs><title>library-maths</title><path class="a" d="M22.75 8.501H17.5M20.125 5.5a.375.375 0 0 0-.375.375m.75.001a.375.375 0 0 0-.375-.375m0 .75a.374.374 0 0 0 .375-.375m-.75 0a.374.374 0 0 0 .375.375m0 4.5a.375.375 0 0 0-.375.375m.75 0a.375.375 0 0 0-.375-.375m0 .749a.374.374 0 0 0 .375-.375m-.75.001a.374.374 0 0 0 .375.375M13 3.251l1.5 2.25 1.5-4.5h5.25M16 16v5.25a1.5 1.5 0 0 1-1.5 1.5h-12a1.5 1.5 0 0 1-1.5-1.5V4.751a1.5 1.5 0 0 1 1.5-1.5H10m-9 9.75h13.5"/><path class="a" d="M1 7.001h3v6H1zM4 7h2.493a.5.5 0 0 1 .5.5V13H4V7zm-3 9.751h2.5a.5.5 0 0 1 .5.5v5.5m3.5-6h2a.5.5 0 0 1 .5.5v5.5H7v-5.5a.5.5 0 0 1 .5-.5zm-3.5.75h3v5.25H4z"/><rect class="a" x="8.953" y="7.391" width="2.759" height="5.519" rx=".5" ry=".5" transform="rotate(-13.535 10.332 10.152)"/></svg>