<svg xmlns="http://www.w3.org/2000/svg" viewBox="0 0 24 24" width="24" height="24"><defs><style>.a{fill:none;stroke:#000;stroke-linecap:round;stroke-linejoin:round;stroke-width:1.5px}</style></defs><title>library</title><rect class="a" x="2.25" y=".751" width="19.5" height="22.5" rx="1.5" ry="1.5"/><path class="a" d="M2.25 11.251h19.5m-14.5 4.5h2.5v7.5h-2a1 1 0 0 1-1-1v-6a.5.5 0 0 1 .5-.5zm-5-11.25h3v6.75h-3zm3-.75h3v7.5h-3zm3 0h2.5a.5.5 0 0 1 .5.5v7h-3v-7.5zm8.05 6.765l-2.047.735-2.211-6.2a.754.754 0 0 1 .458-.961l1.341-.482a.75.75 0 0 1 .959.455l1.958 5.491a.754.754 0 0 1-.458.962zm2.45 12.735v-7.5h3m-6 0h3v7.5h-3zm-5.5-1.5h2.5v9h-3v-8.5a.5.5 0 0 1 .5-.5zm2.5 0h2.5a.5.5 0 0 1 .5.5v8.5h-3v-9z"/></svg>