<svg xmlns="http://www.w3.org/2000/svg" viewBox="0 0 24 24" width="24" height="24"><defs><style>.a{fill:none;stroke:#000;stroke-linecap:round;stroke-linejoin:round;stroke-width:1.5px}</style></defs><title>library-music-1</title><path class="a" d="M15.75 16.5v5.25a1.5 1.5 0 0 1-1.5 1.5h-12a1.5 1.5 0 0 1-1.5-1.5V5.251a1.5 1.5 0 0 1 1.5-1.5h7.5m-9 9.75h9"/><path class="a" d="M.75 7.501h3v6h-3zm3-.001h2.493a.5.5 0 0 1 .5.5v5.5H3.75v-6zm-3 9.751h2.5a.5.5 0 0 1 .5.5v5.5m3.5-6h2a.5.5 0 0 1 .5.5v5.5h-3v-5.5a.5.5 0 0 1 .5-.5zm-3.5.75h3v5.25h-3z"/><circle class="a" cx="13.875" cy="10.295" r="1.875"/><circle class="a" cx="21.375" cy="8.045" r="1.875"/><path class="a" d="M15.75 10.3V3.5a1.5 1.5 0 0 1 1.026-1.423l4.5-1.25a1.5 1.5 0 0 1 1.974 1.424v5.794"/></svg>