<svg xmlns="http://www.w3.org/2000/svg" viewBox="0 0 24 24" width="24" height="24"><defs><style>.a{fill:none;stroke:#000;stroke-linecap:round;stroke-linejoin:round;stroke-width:1.5px}</style></defs><title>lift-1</title><rect class="a" x=".75" y=".75" width="22.5" height="22.5" rx="1" ry="1"/><path class="a" d="M4.5 23.25V10.5a.75.75 0 0 1 .75-.75h10.5a.75.75 0 0 1 .75.75v12.75m-6-13.5v13.5m9-9.375a.375.375 0 1 1 .375.375.375.375 0 0 1-.375-.375m0 3.75a.375.375 0 1 1 .375.375.375.375 0 0 1-.375-.375M7.5 6h6"/></svg>