<svg xmlns="http://www.w3.org/2000/svg" viewBox="0 0 24 24" width="24" height="24"><defs><style>.a{fill:none;stroke:#000;stroke-linecap:round;stroke-linejoin:round;stroke-width:1.5px}</style></defs><title>light-mode-sunny-woman</title><path class="a" d="M18.008.814v.864m3.723.655l-.611.611m2.13 3.112h-.864m-.655 3.611l-.611-.611m-3.112 2.13v-.864m-3.611-.655l.611-.611m-2.13-3h.864m.655-3.723l.611.611"/><circle class="a" cx="18" cy="6.064" r="2.25"/><path class="a" d="M12.75 23.186a6.018 6.018 0 0 0-6-6 6.018 6.018 0 0 0-6 6m2.079-11.447v.921a5.465 5.465 0 0 1-.8 3.026m8.426-3.947v.921a5.465 5.465 0 0 0 .8 3.026m-8.416-3.745a5.075 5.075 0 0 0 3.8-1.756 5.074 5.074 0 0 0 3.8 1.756"/><circle class="a" cx="6.642" cy="11.636" r="3.815"/></svg>