<svg xmlns="http://www.w3.org/2000/svg" viewBox="0 0 24 24" width="24" height="24"><defs><style>.a{fill:none;stroke:#000;stroke-linecap:round;stroke-linejoin:round;stroke-width:1.5px}</style></defs><title>light-mode-bw</title><rect class="a" x=".75" y=".75" width="22.5" height="22.5" rx="1" ry="1"/><path class="a" d="M6 15.75v-7.5m0 0h1.5A1.5 1.5 0 0 1 9 9.75v.75A1.5 1.5 0 0 1 7.5 12H6m0 0h1.5A1.5 1.5 0 0 1 9 13.5v.75a1.5 1.5 0 0 1-1.5 1.5H6m6-7.5v2.017a8.982 8.982 0 0 0 .644 3.342l.856 2.141L15 10.5l1.5 5.25.856-2.141A8.982 8.982 0 0 0 18 10.267V8.25"/></svg>