<svg xmlns="http://www.w3.org/2000/svg" viewBox="0 0 24 24" width="24" height="24"><defs><style>.a{fill:none;stroke:#000;stroke-linecap:round;stroke-linejoin:round;stroke-width:1.5px}</style></defs><title>light-mode-hdr-off</title><path class="a" d="M5.25 16.5V9m3 7.5V9m-3 3.75h3m9 3.75V9m0 0h1.125a1.875 1.875 0 0 1 0 3.75H17.25m3 3.75L18 12.75m-6.75 3.75a3 3 0 0 0 3-3V12a3 3 0 0 0-3-3z"/><path class="a" d="M15.754 20.25H5.25a4.5 4.5 0 0 1-4.5-4.5v-6A4.491 4.491 0 0 1 2.249 6.4m6.744-1.15h9.757a4.5 4.5 0 0 1 4.5 4.5v6a4.48 4.48 0 0 1-1.146 3M.75.75l22.5 22.5"/></svg>