<svg xmlns="http://www.w3.org/2000/svg" viewBox="0 0 24 24" width="24" height="24"><defs><style>.a{fill:none;stroke:#000;stroke-linecap:round;stroke-linejoin:round;stroke-width:1.5px}</style></defs><title>light-mode-bright-dark-1</title><path class="a" d="M20.25 15.418l2.357-2.357a1.5 1.5 0 0 0 0-2.121L20.25 8.583V5.25a1.5 1.5 0 0 0-1.5-1.5h-3.333l-2.356-2.357a1.5 1.5 0 0 0-2.122 0L8.583 3.75H5.25a1.5 1.5 0 0 0-1.5 1.5v3.333L1.393 10.94a1.5 1.5 0 0 0 0 2.121l2.357 2.357v3.332a1.5 1.5 0 0 0 1.5 1.5h3.333l2.356 2.357a1.5 1.5 0 0 0 2.122 0l2.356-2.357h3.333a1.5 1.5 0 0 0 1.5-1.5z"/><path class="a" d="M12 6.75a5.194 5.194 0 0 0-2.25.525 5.222 5.222 0 0 1 0 9.451A5.243 5.243 0 1 0 12 6.75z"/></svg>