<svg id="Regular" xmlns="http://www.w3.org/2000/svg" viewBox="0 0 24 24" width="24" height="24"><defs><style>.cls-1{fill:none;stroke:#000;stroke-linecap:round;stroke-linejoin:round;stroke-width:1.5px}</style></defs><title>lighter</title><path class="cls-1" d="M20.25 23.25H9.75a1.5 1.5 0 0 1-1.5-1.5v-7.5h13.5v7.5a1.5 1.5 0 0 1-1.5 1.5zm-18-10.5V2.25a1.5 1.5 0 0 1 1.5-1.5h4.5v13.5h-4.5a1.5 1.5 0 0 1-1.5-1.5zM15.284 1.871a3.739 3.739 0 0 1 .379 4.263A1.332 1.332 0 0 1 14.242 5a3.014 3.014 0 0 0-1.563 2.84 3.411 3.411 0 0 0 3.411 3.41 3.457 3.457 0 0 0 3.41-3.41 5.672 5.672 0 0 0-4.216-5.969zM12.75 11.25h6v3h-6z"/></svg>