<svg xmlns="http://www.w3.org/2000/svg" viewBox="0 0 24 24" width="24" height="24"><defs><style>.a{fill:none;stroke:#000;stroke-linecap:round;stroke-linejoin:round;stroke-width:1.5px}</style></defs><title>lighthouse-bird</title><path class="a" d="M23.25 23.25c-2.068 0-3.745-1.007-3.745-2.25 0 1.243-1.677 2.25-3.745 2.25s-3.745-1.007-3.745-2.25c0 1.243-1.677 2.25-3.745 2.25S4.525 22.243 4.525 21c0 1.243-1.677 2.25-3.745 2.25m9.778-5.139l2.061-9.274a.751.751 0 0 1 .732-.587h6.3a.749.749 0 0 1 .732.587l2.025 9.112M11.416 14.25h10.167"/><path class="a" d="M18.75 8.25h-4.5V4.5a2.25 2.25 0 0 1 4.5 0zM16.5.75v1.5M.75.75l1.5 1.5 1.5-1.5M16.5 10.875a.375.375 0 1 1-.375.375.375.375 0 0 1 .375-.375m0 6a.375.375 0 1 1-.375.375.375.375 0 0 1 .375-.375"/></svg>