<svg xmlns="http://www.w3.org/2000/svg" viewBox="0 0 24 24" width="24" height="24"><g fill="none" stroke="#000" stroke-linecap="round" stroke-linejoin="round" stroke-miterlimit="10"><path d="M23.5 23.388c-2.505.521-4.06-1.979-4.06-1.979h-.004s-1.186 2.056-3.621 2.056c-2.334 0-3.615-2.056-3.615-2.056h-.004s-1.185 2.056-3.62 2.056c-2.335 0-3.615-2.056-3.615-2.056h-.004s-2.004 2.542-4.455 2.02M13.5.5v2"/><path d="M7.539 23.32L10.5 9.5v-4h6v4l2.641 12.322M10.5 5.5a3 3 0 116 0M9 9.5h9m-8.357 4h7.714m-8.785 5h9.857M13.5 11v1m0 3.5v1m-8-16L7 2 8.5.5M1.5 4L3 5.5 4.5 4"/></g><path fill="none" d="M0 0h24v24H0z"/></svg>