<svg id="Regular" xmlns="http://www.w3.org/2000/svg" viewBox="0 0 24 24" width="24" height="24"><defs><style>.cls-1{fill:none;stroke:#000;stroke-linecap:round;stroke-linejoin:round;stroke-width:1.5px}</style></defs><title>light-bulb-1</title><path class="cls-1" d="M14.25 21a2.25 2.25 0 0 1-4.5 0v-3.75h4.5zm0-3.75a8.639 8.639 0 0 0 6-8.25 8.25 8.25 0 0 0-16.5 0 8.639 8.639 0 0 0 6 8.25"/><path class="cls-1" d="M10.5 9.75H9a1.5 1.5 0 1 1 1.5-1.5zm3 0H15a1.5 1.5 0 1 0-1.5-1.5zm-3 7.5v-7.5h3v7.5m-3.75 3h4.5"/></svg>