<svg xmlns="http://www.w3.org/2000/svg" viewBox="0 0 24 24" width="24" height="24"><defs><style>.a{fill:none;stroke:#000;stroke-linecap:round;stroke-linejoin:round;stroke-width:1.5px}</style></defs><title>light-mode-bright-dark-2</title><rect class="a" x=".75" y="2.25" width="22.5" height="19.5" rx="3" ry="3"/><path class="a" d="M17.25 14.175l1.644-1.645a.749.749 0 0 0 0-1.06L17.25 9.825V7.5a.75.75 0 0 0-.75-.75h-2.325L12.53 5.106a.749.749 0 0 0-1.06 0L9.825 6.75H7.5a.75.75 0 0 0-.75.75v2.325L5.106 11.47a.749.749 0 0 0 0 1.06l1.644 1.645V16.5a.75.75 0 0 0 .75.75h2.325l1.645 1.644a.749.749 0 0 0 1.06 0l1.645-1.644H16.5a.75.75 0 0 0 .75-.75z"/><path class="a" d="M12 9a3 3 0 0 1 0 6z"/></svg>