<svg xmlns="http://www.w3.org/2000/svg" viewBox="0 0 24 24" width="24" height="24"><defs><style>.a{fill:none;stroke:#000;stroke-linecap:round;stroke-linejoin:round;stroke-width:1.5px}</style></defs><title>like-bubble</title><path class="a" d="M23.25 12a3.751 3.751 0 0 0-2.618-3.576 3.75 3.75 0 0 0-5.056-5.056 3.751 3.751 0 0 0-7.152 0 3.75 3.75 0 0 0-5.056 5.056 3.751 3.751 0 0 0 0 7.152 3.75 3.75 0 0 0 5.056 5.056 3.751 3.751 0 0 0 7.152 0 3.75 3.75 0 0 0 5.056-5.056A3.752 3.752 0 0 0 23.25 12z"/><path class="a" d="M6.75 15.8v-4.9h.7a3.5 3.5 0 0 0 3.5-3.5 1.4 1.4 0 0 1 1.4-1.4 1.9 1.9 0 0 1 1.9 1.9v.9a.7.7 0 0 0 .7.7h.2a2.1 2.1 0 0 1 2.089 2.309l-.217 2.17a2.8 2.8 0 0 1-2.786 2.521h-2.894a2.779 2.779 0 0 1-.769-.108l-1.7-.484a2.779 2.779 0 0 0-.769-.108H6.75"/></svg>