<svg xmlns="http://www.w3.org/2000/svg" viewBox="0 0 24 24" width="24" height="24"><defs><style>.a{fill:none;stroke:#000;stroke-linecap:round;stroke-linejoin:round;stroke-width:1.5px}</style></defs><title>like-shine</title><path class="a" d="M19.5 6.75v-3M18 5.25h3M6.75 3.75v-3m-1.5 1.5h3M2.25 9V6M.75 7.5h3m-3 4.5h2.143a8.025 8.025 0 0 0 8.035-7.863c0-1.591 3.215-1.792 3.215 1.226a30.056 30.056 0 0 1-1.071 5.816l-.021.071h8.7a1.5 1.5 0 0 1 0 3h-1.5a1.5 1.5 0 0 1 0 3H19.5a1.5 1.5 0 0 1 0 3h-.75a1.5 1.5 0 0 1 0 3h-7.286C7.179 23.25 9.321 21 .75 21"/></svg>