<svg xmlns="http://www.w3.org/2000/svg" viewBox="0 0 24 24" width="24" height="24"><defs><style>.a{fill:none;stroke:#000;stroke-linecap:round;stroke-linejoin:round;stroke-width:1.5px}</style></defs><title>like-plus-bubble</title><path class="a" d="M12 7.5v9M7.5 12h9m6.75 0a3.751 3.751 0 0 0-2.618-3.576 3.75 3.75 0 0 0-5.056-5.056 3.751 3.751 0 0 0-7.152 0 3.75 3.75 0 0 0-5.056 5.056 3.751 3.751 0 0 0 0 7.152 3.75 3.75 0 0 0 5.056 5.056 3.751 3.751 0 0 0 7.152 0 3.75 3.75 0 0 0 5.056-5.056A3.752 3.752 0 0 0 23.25 12z"/></svg>