<svg xmlns="http://www.w3.org/2000/svg" viewBox="0 0 24 24" width="24" height="24"><defs><style>.a{fill:none;stroke:#000;stroke-linecap:round;stroke-linejoin:round;stroke-width:1.5px}</style></defs><title>like-ribbon</title><path class="a" d="M4.807 13.042L.75 18l3.75.75 1.5 4.5 3.944-6.258m9.249-3.95L23.25 18l-3.75.75-1.5 4.5-3.944-6.258"/><circle class="a" cx="12" cy="9" r="8.25"/><path class="a" d="M7.5 12.15v-4.2h.6a3 3 0 0 0 3-3 1.2 1.2 0 0 1 1.2-1.2 1.629 1.629 0 0 1 1.629 1.629v.771a.6.6 0 0 0 .6.6h.171a1.8 1.8 0 0 1 1.791 1.979l-.186 1.86a2.4 2.4 0 0 1-2.388 2.161h-2.481a2.4 2.4 0 0 1-.659-.092l-1.454-.416a2.4 2.4 0 0 0-.659-.092H7.5"/></svg>