<svg xmlns="http://www.w3.org/2000/svg" viewBox="0 0 24 24" width="24" height="24"><defs><style>.a{fill:none;stroke:#000;stroke-linecap:round;stroke-linejoin:round;stroke-width:1.5px}</style></defs><title>like-ribbon-1</title><path class="a" d="M4.717 13.152L.75 18l3.75.75 1.5 4.5 3.99-6.332m9.293-3.766L23.25 18l-3.75.75-1.5 4.5-3.99-6.332"/><path class="a" d="M12.471.916L14.318 2.4l2.369-.118a.75.75 0 0 1 .761.553l.62 2.29 1.986 1.3a.75.75 0 0 1 .29.9L19.5 9.537l.844 2.216a.749.749 0 0 1-.29.895l-1.986 1.3-.62 2.29a.75.75 0 0 1-.761.553l-2.369-.118-1.847 1.488a.752.752 0 0 1-.942 0L9.682 16.67l-2.369.118a.75.75 0 0 1-.761-.553l-.62-2.29-1.986-1.3a.749.749 0 0 1-.29-.895L4.5 9.537 3.656 7.32a.75.75 0 0 1 .29-.9l1.986-1.3.62-2.29a.75.75 0 0 1 .761-.553l2.369.123L11.529.916a.752.752 0 0 1 .942 0z"/><path class="a" d="M7.5 12.9V8.7h.6a3 3 0 0 0 3-3 1.2 1.2 0 0 1 1.2-1.2 1.629 1.629 0 0 1 1.629 1.629V6.9a.6.6 0 0 0 .6.6h.171a1.8 1.8 0 0 1 1.791 1.979l-.186 1.86a2.4 2.4 0 0 1-2.388 2.161h-2.481a2.4 2.4 0 0 1-.659-.092l-1.454-.416a2.4 2.4 0 0 0-.659-.092H7.5"/></svg>