<svg xmlns="http://www.w3.org/2000/svg" viewBox="0 0 24 24" width="24" height="24"><defs><style>.a{fill:none;stroke:#000;stroke-linecap:round;stroke-linejoin:round;stroke-width:1.5px}</style></defs><title>link-broken-2</title><path class="a" d="M5.25 12.373h-3m3 3l-1.5 1.5m1.5-7.5l-1.5-1.5m15 4.5h3m-3 3l1.5 1.5m-1.5-7.5l1.5-1.5m-12 1.5v-4.5A3.762 3.762 0 0 1 12 1.123a3.761 3.761 0 0 1 3.75 3.75v5.25a3.763 3.763 0 0 1-2.25 3.435 3.709 3.709 0 0 1-1.5.315"/><path class="a" d="M15.75 14.623v4.5a3.76 3.76 0 0 1-3.75 3.75 3.761 3.761 0 0 1-3.75-3.75v-4.5a3.762 3.762 0 0 1 3.75-3.75"/></svg>