<svg id="Regular" xmlns="http://www.w3.org/2000/svg" viewBox="0 0 24 24" width="24" height="24"><defs><style>.cls-1{fill:none;stroke:#000;stroke-linecap:round;stroke-linejoin:round;stroke-width:1.5px}</style></defs><title>lion-footprint</title><path class="cls-1" d="M17.607 22.491c1.132 0 1.51.76 2.643.76a1.383 1.383 0 0 0 1.51-1.51c0-1.511-1.649-1.549-1.888-2.266-.377-1.132-.755-2.265-2.265-2.265s-1.888 1.133-2.266 2.265c-.238.717-1.887.755-1.887 2.266a1.383 1.383 0 0 0 1.51 1.51c1.136 0 1.51-.76 2.643-.76zm-2.222-8.25a.375.375 0 0 1 .375.375m-.75 0a.375.375 0 0 1 .375-.375m0 .75a.375.375 0 0 1-.375-.375m.75 0a.375.375 0 0 1-.375.375m-3 2.25a.375.375 0 0 1 .375.375m-.75 0a.375.375 0 0 1 .375-.375m0 .75a.375.375 0 0 1-.375-.375m.75 0a.375.375 0 0 1-.375.375m10.5-.75a.375.375 0 0 1 .375.375m-.75 0a.375.375 0 0 1 .375-.375m0 .75a.375.375 0 0 1-.375-.375m.75 0a.375.375 0 0 1-.375.375m-3-3.75a.375.375 0 0 1 .375.375m-.75 0a.375.375 0 0 1 .375-.375m0 .75a.375.375 0 0 1-.375-.375m.75 0a.375.375 0 0 1-.375.375M15.76 7.837c0 4.875-5.833 7.5-7.5 7.5s-7.5-2.625-7.5-7.5c0-4.5 3.333-8.25 7.5-6.75 4.167-1.5 7.5 2.25 7.5 6.75z"/><path class="cls-1" d="M12.76 7.428a4.31 4.31 0 0 0-4.5-4.091 4.309 4.309 0 0 0-4.5 4.091 3.978 3.978 0 0 0 1.866 3.3 2.638 2.638 0 0 0 2.634 1.609 2.638 2.638 0 0 0 2.634-1.605 3.978 3.978 0 0 0 1.866-3.304zm-6.375-.341a.375.375 0 0 1 .375.375m-.75 0a.375.375 0 0 1 .375-.375m0 .75a.375.375 0 0 1-.375-.375m.75 0a.375.375 0 0 1-.375.375m3.75-.75a.375.375 0 0 1 .375.375m-.75 0a.375.375 0 0 1 .375-.375m0 .75a.375.375 0 0 1-.375-.375m.75 0a.375.375 0 0 1-.375.375"/></svg>