<svg id="Regular" xmlns="http://www.w3.org/2000/svg" viewBox="0 0 24 24" width="24" height="24"><defs><style>.cls-1{fill:none;stroke:#000;stroke-linecap:round;stroke-linejoin:round;stroke-width:1.5px}</style></defs><title>lion</title><path class="cls-1" d="M22.948 10.708c-.738 8.854-9.592 12.543-11.068 12.543S1.55 19.562.812 10.708C.077 1.884 5.977-1.1 11.88 1.853c5.903-2.953 11.803.031 11.068 8.855z"/><path class="cls-1" d="M19.258 9.97c0-2.853-1.982-5.165-4.427-5.165a4.073 4.073 0 0 0-2.951 1.34 4.073 4.073 0 0 0-2.951-1.34C6.484 4.805 4.5 7.117 4.5 9.97c0 2.667 1.464 4.891 3.689 5.165-.624.318-.738 1.475-.738 2.213 0 1.476 2.213 2.952 4.427.738 2.214 2.214 4.427.738 4.427-.738 0-.738-.114-1.895-.738-2.213 2.227-.274 3.691-2.498 3.691-5.165z"/><path class="cls-1" d="M13.356 13.659c0 .407-.661.738-1.476.738s-1.476-.331-1.476-.738m1.476.738v3.689m3.32-8.86a.375.375 0 0 1 .375.375m-.75-.001a.375.375 0 0 1 .375-.375m0 .751a.375.375 0 0 1-.375-.375m.75-.001a.375.375 0 0 1-.375.375m-6.64-.749a.375.375 0 0 1 .375.375m-.75-.001a.375.375 0 0 1 .375-.375m0 .751a.375.375 0 0 1-.375-.376m.75 0a.375.375 0 0 1-.375.375"/></svg>