<svg id="Regular" xmlns="http://www.w3.org/2000/svg" viewBox="0 0 24 24" width="24" height="24"><defs><style>.cls-1{fill:none;stroke:#000;stroke-linecap:round;stroke-linejoin:round;stroke-width:1.5px}</style></defs><title>lion-1</title><path class="cls-1" d="M12.01 15.751a2.25 2.25 0 0 1-4.5 0V9c0-3 3-3 4.5-1.5 1.5-1.5 4.5-1.5 4.5 1.5v6.75a2.25 2.25 0 0 1-4.5 0m-.75-1.499h1.5m-.75 1.5v-1.5m-1.875-3a.375.375 0 0 1 .375.375m-.75 0a.375.375 0 0 1 .375-.375m0 .749a.375.375 0 0 1-.375-.375m.75.001a.375.375 0 0 1-.375.375m3.75-.75a.375.375 0 0 1 .375.375m-.75 0a.375.375 0 0 1 .375-.375m0 .749a.375.375 0 0 1-.375-.375m.75.001a.375.375 0 0 1-.375.375"/><path class="cls-1" d="M22.51 12c0 9-9 11.25-10.5 11.25S1.51 21 1.51 12c0-5.8 3-13.5 10.5-10.5 7.5-3 10.5 4.7 10.5 10.5z"/></svg>