<svg id="Regular" xmlns="http://www.w3.org/2000/svg" viewBox="0 0 24 24" width="24" height="24"><defs><style>.cls-1{fill:none;stroke:#000;stroke-linecap:round;stroke-linejoin:round;stroke-width:1.5px}</style></defs><title>lioness</title><path class="cls-1" d="M15.641 3.6a8.263 8.263 0 0 0-8.441 0M4.485 6.228a8.2 8.2 0 0 0-1.312 4.466c0 4.5 3 4.5 3 6.75a2.631 2.631 0 1 0 5.25 0 2.631 2.631 0 1 0 5.25 0c0-2.25 3-2.25 3-6.75a8.216 8.216 0 0 0-1.384-4.576"/><path class="cls-1" d="M9.923 15.194a1.6 1.6 0 0 0 1.5 1.5 1.6 1.6 0 0 0 1.5-1.5m-4.875-5.25a.375.375 0 0 1 .375.375m-.75 0a.374.374 0 0 1 .375-.375m0 .75a.374.374 0 0 1-.375-.375m.75 0a.375.375 0 0 1-.375.375m6.752-.75a.375.375 0 0 1 .375.375m-.752 0a.374.374 0 0 1 .375-.375m.002.75a.374.374 0 0 1-.375-.375m.748 0a.375.375 0 0 1-.375.375M8.43 20.232c-.13 1.852 1.431 2.462 2.993 2.462s3.122-.61 2.992-2.462M15.641 3.6c2-2.895 3.536-1.654 4.032-1.158s1.989 2.445-.859 4.581M7.205 3.6c-2-2.895-3.536-1.654-4.032-1.158s-1.99 2.445.858 4.581m7.392 10.421v-.75"/></svg>