<svg xmlns="http://www.w3.org/2000/svg" viewBox="0 0 24 24" width="24" height="24"><defs><style>.a{fill:none;stroke:#000;stroke-linecap:round;stroke-linejoin:round;stroke-width:1.5px}</style></defs><title>list-quill</title><path class="a" d="M8.25 23.259h-6a1.5 1.5 0 0 1-1.5-1.5v-19.5a1.5 1.5 0 0 1 1.5-1.5h10.629a1.5 1.5 0 0 1 1.06.439l5.872 5.871a1.5 1.5 0 0 1 .439 1.061v.129"/><path class="a" d="M12.75.759v6a1.5 1.5 0 0 0 1.5 1.5h6M8.169 9.617l-2.132 2.842a.75.75 0 0 1-1.13.08L3.75 11.382m4.419 4.985l-2.132 2.842a.75.75 0 0 1-1.13.08L3.75 18.132m7.231 5.127l5.834-5.834m6.364-6.364a10.416 10.416 0 0 0-2.241 0l-2 3.18-1.229-2.289c-4.459 2.188-6.2 7.478-4.551 9.129 2.212 2.219 10.97-1.665 10.021-10.02z"/></svg>