<svg xmlns="http://www.w3.org/2000/svg" viewBox="0 0 24 24" width="24" height="24"><defs><style>.a{fill:none;stroke:#000;stroke-linecap:round;stroke-linejoin:round;stroke-width:1.5px}</style></defs><title>list-edit</title><path class="a" d="M20.25 19.511l1.5 3 1.5-3v-9.75a1.5 1.5 0 0 0-1.5-1.5 1.5 1.5 0 0 0-1.5 1.5zm-7.5-14.25h3a1.5 1.5 0 0 1 1.5 1.5v14.25a1.5 1.5 0 0 1-1.5 1.5H2.25a1.5 1.5 0 0 1-1.5-1.5V6.761a1.5 1.5 0 0 1 1.5-1.5h3a3.75 3.75 0 0 1 7.5 0z"/><path class="a" d="M9 4.511a.375.375 0 1 1-.375.375A.375.375 0 0 1 9 4.511"/></svg>