<svg xmlns="http://www.w3.org/2000/svg" viewBox="0 0 24 24" width="24" height="24"><defs><style>.a{fill:none;stroke:#000;stroke-linecap:round;stroke-linejoin:round;stroke-width:1.5px}</style></defs><title>list-remove</title><path class="a" d="M5.25 2.123h15m-15 6h15m-15 6h3M1.125 1.748a.375.375 0 1 1-.375.375.375.375 0 0 1 .375-.375m0 6a.375.375 0 1 1-.375.375.375.375 0 0 1 .375-.375m0 6a.375.375 0 1 1-.375.375.375.375 0 0 1 .375-.375"/><circle class="a" cx="17.25" cy="17.123" r="6"/><path class="a" d="M14.25 17.123h6"/></svg>