<svg xmlns="http://www.w3.org/2000/svg" viewBox="0 0 24 24" width="24" height="24"><defs><style>.a{fill:none;stroke:#000;stroke-linecap:round;stroke-linejoin:round;stroke-width:1.5px}</style></defs><title>list-to-do</title><path class="a" d="M21.75 21.761a1.5 1.5 0 0 1-1.5 1.5H3.75a1.5 1.5 0 0 1-1.5-1.5v-19.5a1.5 1.5 0 0 1 1.5-1.5h10.629a1.5 1.5 0 0 1 1.06.439l5.872 5.872a1.5 1.5 0 0 1 .439 1.06z"/><path class="a" d="M21.75 8.261h-6a1.5 1.5 0 0 1-1.5-1.5v-6M9.669 9.619l-2.132 2.842a.75.75 0 0 1-1.13.08L5.25 11.385m4.419 4.984l-2.132 2.842a.75.75 0 0 1-1.13.08L5.25 18.134m7.5-5.373h4.5m-4.5 6h4.5"/></svg>