<svg id="Regular" xmlns="http://www.w3.org/2000/svg" viewBox="0 0 24 24" width="24" height="24"><defs><style>.cls-1{fill:none;stroke:#000;stroke-linecap:round;stroke-linejoin:round;stroke-width:1.5px}</style></defs><title>livestock-lamb</title><path class="cls-1" d="M11.26 8.55c0 2.651 2.35 7.2 5.25 7.2s5.25-4.549 5.25-7.2a5.04 5.04 0 0 0-5.25-4.8 5.04 5.04 0 0 0-5.25 4.8z"/><path class="cls-1" d="M11.665 2.682a4.394 4.394 0 0 0-1.9-.432 4.469 4.469 0 0 0-3.45 1.637 4.478 4.478 0 0 0-4.387 7.363 4.471 4.471 0 0 0 4.387 7.363 4.443 4.443 0 0 0 6.89 0 4.379 4.379 0 0 0 3.248-.433m-12.693.314v3.256m3-2.671v2.671m6-2.671v2.671m3-3.256v3.256M14.635 9a.375.375 0 0 1 .375.375m-.75 0A.375.375 0 0 1 14.635 9m0 .75a.375.375 0 0 1-.375-.375m.75 0a.375.375 0 0 1-.375.375m3.75-.75a.375.375 0 0 1 .375.375m-.75 0A.375.375 0 0 1 18.385 9m0 .75a.375.375 0 0 1-.375-.375m.75 0a.375.375 0 0 1-.375.375m-7.114-1.517L9.76 10.5m11.989-2.267L23.26 10.5"/></svg>