<svg id="Regular" xmlns="http://www.w3.org/2000/svg" viewBox="0 0 24 24" width="24" height="24"><defs><style>.cls-1{fill:none;stroke:#000;stroke-linecap:round;stroke-linejoin:round;stroke-width:1.5px}</style></defs><title>livestock-bull-footstep</title><path class="cls-1" d="M3.385 7.75a4.871 4.871 0 0 0 .972 2.838 4.691 4.691 0 0 1 1.045 2l.327 1.634a1.749 1.749 0 0 0 1.716 1.407h2.38a1.75 1.75 0 0 0 1.716-1.407l.327-1.634a4.691 4.691 0 0 1 1.045-2 4.871 4.871 0 0 0 .972-2.838m-10.5 0A2.571 2.571 0 0 1 .76 5.125a3.205 3.205 0 0 1 3.5-3.5A8.814 8.814 0 0 0 6.885.75s.875 3.5-1.75 4.375m8.75 2.625a2.571 2.571 0 0 0 2.625-2.625 3.205 3.205 0 0 0-3.5-3.5A8.814 8.814 0 0 1 10.385.75s-.875 3.5 1.75 4.375"/><path class="cls-1" d="M6.519 4.067l.366.183a4.154 4.154 0 0 0 3.854-.2m5.246 8.7s-3.675 2.625-3.675 5.775.84 4.725 2.52 4.725 1.68-3.15 1.68-5.775a21.663 21.663 0 0 0-.525-4.725zm3.6 0s3.675 2.625 3.675 5.775-.84 4.725-2.52 4.725-1.68-3.15-1.68-5.775a21.663 21.663 0 0 1 .525-4.725z"/></svg>