<svg id="Regular" xmlns="http://www.w3.org/2000/svg" viewBox="0 0 24 24" width="24" height="24"><defs><style>.cls-1,.cls-2{fill:none;stroke:#000;stroke-linecap:round;stroke-linejoin:round;stroke-width:1.5px}.cls-2{fill-rule:evenodd}</style></defs><title>livestock-lamb-1</title><ellipse class="cls-1" cx="12.01" cy="10.5" rx="4.5" ry="5.25"/><path class="cls-2" d="M11.26 12.75l.75.75.75-.75"/><path class="cls-1" d="M12.01 13.5v2.25M7.562 9.698L5.26 12m11.198-2.302L18.76 12m-8.625-3a.375.375 0 0 1 .375.375m-.75 0A.375.375 0 0 1 10.135 9m0 .75a.375.375 0 0 1-.375-.375m.75 0a.375.375 0 0 1-.375.375m3.75-.75a.375.375 0 0 1 .375.375m-.75 0A.375.375 0 0 1 13.885 9m0 .75a.375.375 0 0 1-.375-.375m.75 0a.375.375 0 0 1-.375.375"/><path class="cls-1" d="M22.51 10.5a5.239 5.239 0 0 0-2.389-4.394 2.956 2.956 0 0 0 .139-.856 3 3 0 0 0-3-3 2.968 2.968 0 0 0-1.315.316 5.171 5.171 0 0 0-7.87 0A2.968 2.968 0 0 0 6.76 2.25a3 3 0 0 0-3 3 2.956 2.956 0 0 0 .139.856 5.235 5.235 0 0 0 0 8.788 2.956 2.956 0 0 0-.139.856 3 3 0 0 0 3 3 2.968 2.968 0 0 0 1.315-.316 5.171 5.171 0 0 0 7.87 0 2.968 2.968 0 0 0 1.315.316 3 3 0 0 0 3-3 2.956 2.956 0 0 0-.139-.856A5.239 5.239 0 0 0 22.51 10.5zm-15 8.149v4.601m9-4.601v4.601"/></svg>