<svg id="Regular" xmlns="http://www.w3.org/2000/svg" viewBox="0 0 24 24" width="24" height="24"><defs><style>.cls-1{fill:none;stroke:#000;stroke-linecap:round;stroke-linejoin:round;stroke-width:1.5px}</style></defs><title>livestock-sheep</title><path class="cls-1" d="M18.752 8.916c0 10.5-3.022 12.834-6.75 12.834s-6.75-2.334-6.75-12.834c0-4.142 3.022-7.5 6.75-7.5s6.75 3.358 6.75 7.5zM13.5 15.75a1.5 1.5 0 0 1-3 0m1.502 1.5v4.5M8.627 9.666a.375.375 0 0 1 .373.375m-.748 0a.375.375 0 0 1 .375-.375m0 .75a.375.375 0 0 1-.375-.375m.748 0a.375.375 0 0 1-.375.375m6.752-.75a.375.375 0 0 1 .375.375m-.752 0a.375.375 0 0 1 .375-.375m.002.75a.375.375 0 0 1-.377-.375m.752 0a.375.375 0 0 1-.375.375"/><path class="cls-1" d="M18.376 6.44l3.155 1.893a1.5 1.5 0 0 1 .641 1.791c-.467 1.3-1.506 3.121-3.569 2.5M5.629 6.44L2.473 8.333a1.5 1.5 0 0 0-.641 1.791c.468 1.3 1.506 3.121 3.57 2.5"/></svg>