<svg id="Regular" xmlns="http://www.w3.org/2000/svg" viewBox="0 0 24 24" width="24" height="24"><defs><style>.cls-1{fill:none;stroke:#000;stroke-linecap:round;stroke-linejoin:round;stroke-width:1.5px}</style></defs><title>livestock-bull-body</title><path class="cls-1" d="M10.062 4.648c3-2.25 8.25 0 9 3.75 5.25.75 3.75 7.5 3.75 7.5H7.062a5.738 5.738 0 0 0-1.5-3.75l-3 1.5-1.5-1.5s.75-4.5 2.25-4.5a3.285 3.285 0 0 1 2.25.75s2.25-.75 1.5-3.75m-3.75 3a2.078 2.078 0 0 1 0-3m3.75 11.25v3m3-3v3m9.75-3v3m3-3v3"/></svg>