<svg id="Regular" xmlns="http://www.w3.org/2000/svg" viewBox="0 0 24 24" width="24" height="24"><defs><style>.cls-1{fill:none;stroke:#000;stroke-linecap:round;stroke-linejoin:round;stroke-width:1.5px}</style></defs><title>livestock-ram-2</title><path class="cls-1" d="M18.724 10.548c0-2.476-3.01-4.483-6.724-4.483s-6.724 2.007-6.724 4.483c0 7.472 2.241 12.7 6.724 12.7s6.724-5.228 6.724-12.7zm-5.23 8.219a1.494 1.494 0 0 1-2.988 0M12 20.261v2.989"/><path class="cls-1" d="M5.276 10.548L1.54 12.79s.78 3.12 3.933 1.39m13.251-3.632l3.736 2.242s-.78 3.12-3.933 1.39m-9.889-1.392a.375.375 0 0 1 .375.375m-.75 0a.375.375 0 0 1 .375-.375m0 .75a.375.375 0 0 1-.375-.375m.75 0a.375.375 0 0 1-.375.375m6.724-.75a.375.375 0 0 1 .375.375m-.75 0a.375.375 0 0 1 .375-.375m0 .75a.375.375 0 0 1-.375-.375m.75 0a.375.375 0 0 1-.375.375m-1.894-7.366l.026-.107a7.5 7.5 0 0 1 3.736-4.483 9.7 9.7 0 0 1 5.23-.747 27.012 27.012 0 0 0-2.988 3.736c-1.709 2.563-1.5 3.736-1.5 3.736l.045.244m-7.485-2.379l-.026-.107A7.5 7.5 0 0 0 6.77 1.582 9.7 9.7 0 0 0 1.54.835a27.012 27.012 0 0 1 2.988 3.736c1.709 2.563 1.5 3.736 1.5 3.736l-.045.244"/></svg>