<svg id="Regular" xmlns="http://www.w3.org/2000/svg" viewBox="0 0 24 24" width="24" height="24"><defs><style>.cls-1{fill:none;stroke:#000;stroke-linecap:round;stroke-linejoin:round;stroke-width:1.5px}</style></defs><title>livestock-cow-body</title><path class="cls-1" d="M17.84 13.186h.72a1.819 1.819 0 0 0 1.776-1.424l1.011-4.548A1.82 1.82 0 0 0 19.571 5H16.83a1.82 1.82 0 0 0-1.776 2.214l1.011 4.548a1.819 1.819 0 0 0 1.775 1.424z"/><path class="cls-1" d="M15.038 6.5H4.51C2.26 6.5.76 8.75.76 11v10.5M20.5 5.255L21.01 5a1.642 1.642 0 0 0 .75-2.25m-5.679 2.41L15.76 5a1.642 1.642 0 0 1-.75-2.25m1.5 13.5v5.25"/><path class="cls-1" d="M13.51 21.5V17a1.5 1.5 0 0 0-1.5-1.5H5.26c-1.5 0-1.5 1.5-1.5 2.25v3.75"/><path class="cls-1" d="M9.76 15.5s-.75 3-3 3h-3m3 0V20m2.07-2.609l.93 1.859m5.294-12.036L13.51 8.75m7.881-1.869L23.26 8.75"/></svg>