<svg id="Regular" xmlns="http://www.w3.org/2000/svg" viewBox="0 0 24 24" width="24" height="24"><defs><style>.cls-1{fill:none;stroke:#000;stroke-linecap:round;stroke-linejoin:round;stroke-width:1.5px}</style></defs><title>livestock-sheep-body</title><ellipse class="cls-1" cx="17.76" cy="5" rx="3" ry="3.75"/><path class="cls-1" d="M15.01 3.5a3.448 3.448 0 0 1-2.5 1.5m8-1.5a3.448 3.448 0 0 0 2.5 1.5m-4.089 3.459c.844.611 1.839 2.142 1.839 5.166a6.2 6.2 0 0 1-6 6.375 5.735 5.735 0 0 1-3.75-1.435A5.735 5.735 0 0 1 7.26 20a6.2 6.2 0 0 1-6-6.375 6.2 6.2 0 0 1 6-6.375 5.735 5.735 0 0 1 3.75 1.435m6 10.852V23m-3.75-3.209V23m-9-3.853V23"/></svg>