<svg xmlns="http://www.w3.org/2000/svg" viewBox="0 0 24 24" width="24" height="24"><defs><style>.a{fill:none;stroke:#000;stroke-linecap:round;stroke-linejoin:round;stroke-width:1.5px}</style></defs><title>loading-circle-1</title><path class="a" d="M12 4.447a7.5 7.5 0 1 1-7.5 7.5m18.442 2.576a11.42 11.42 0 0 1-1.087 2.848m-2.041 2.66a12.161 12.161 0 0 1-2.455 1.81M12.993.747a11.137 11.137 0 0 1 2.971.682m2.924 1.636a10.807 10.807 0 0 1 2.131 2.178M22.6 8.2a10.5 10.5 0 0 1 .614 2.984M14.25 22.972A11.252 11.252 0 0 1 9.75.922"/></svg>