<svg xmlns="http://www.w3.org/2000/svg" viewBox="0 0 24 24" width="24" height="24"><defs><style>.a{fill:none;stroke:#000;stroke-linecap:round;stroke-linejoin:round;stroke-width:1.5px}</style></defs><title>loading-1</title><path class="a" d="M11.5 7.9a.534.534 0 0 0 1 0l2.436-6.759a11.289 11.289 0 0 0-5.876 0zm0 8.2a.533.533 0 0 1 1 0l2.436 6.759a11.318 11.318 0 0 1-5.876 0zm-2.8-1.616a.534.534 0 0 0-.5-.87l-7.071 1.27a11.3 11.3 0 0 0 2.938 5.089zm7.105-4.103a.534.534 0 0 1-.5-.87l4.635-5.489a11.287 11.287 0 0 1 2.938 5.089zm-.505 4.103a.534.534 0 0 1 .5-.87l7.071 1.27a11.3 11.3 0 0 1-2.938 5.089zm-7.1-4.103a.534.534 0 0 0 .5-.87L4.064 4.022a11.287 11.287 0 0 0-2.938 5.089z"/></svg>