<svg xmlns="http://www.w3.org/2000/svg" viewBox="0 0 24 24" width="24" height="24"><defs><style>.a{fill:none;stroke:#000;stroke-linecap:round;stroke-linejoin:round;stroke-width:1.5px}</style></defs><title>loading-3</title><path class="a" d="M22.394 16.31a11.281 11.281 0 0 0 0-8.621L17.1 10.766a5.284 5.284 0 0 1 0 2.467zM6.75 12a5.283 5.283 0 0 1 .15-1.234L1.606 7.689a11.281 11.281 0 0 0 0 8.621L6.9 13.233A5.281 5.281 0 0 1 6.75 12zm6.75-5.032a5.236 5.236 0 0 1 2.094 1.205L20.883 5.1A11.238 11.238 0 0 0 13.5.849zm2.094 8.858a5.238 5.238 0 0 1-2.094 1.206v6.118a11.238 11.238 0 0 0 7.383-4.25zM8.406 8.173a5.236 5.236 0 0 1 2.094-1.2V.849A11.238 11.238 0 0 0 3.117 5.1zm2.094 8.859a5.238 5.238 0 0 1-2.094-1.206L3.117 18.9a11.238 11.238 0 0 0 7.383 4.25z"/></svg>