<svg xmlns="http://www.w3.org/2000/svg" viewBox="0 0 24 24" width="24" height="24"><defs><style>.a{fill:none;stroke:#000;stroke-linecap:round;stroke-linejoin:round;stroke-width:1.5px}</style></defs><title>locker-room-wash-hands</title><path class="a" d="M12.75 11.071h7.5a1.5 1.5 0 0 1 0 3"/><path class="a" d="M15 11.071a1.5 1.5 0 0 0 0-3H9.158a4.5 4.5 0 0 0-3.744 2L4.2 11.9a1.5 1.5 0 0 1-1.248.668H.75m15.75 1.503h5.25a1.5 1.5 0 0 1 0 3H16.5m4.5 0a1.5 1.5 0 0 1 0 3h-2.25m-3 0h3a1.5 1.5 0 0 1 0 3H7.062A4.506 4.506 0 0 1 5.05 22.6l-1.733-.867a1.5 1.5 0 0 0-.671-.158H.75m12-20.629a.375.375 0 1 1-.375.375.375.375 0 0 1 .375-.375m0 3.754a.375.375 0 1 1-.375.375.375.375 0 0 1 .375-.375M16.5.946a.375.375 0 1 1-.375.375.375.375 0 0 1 .375-.375M18.75 4.7a.375.375 0 1 1-.375.375.375.375 0 0 1 .375-.375M21 8.446a.375.375 0 1 1-.375.375.375.375 0 0 1 .375-.375M9 .946a.375.375 0 1 1-.375.375A.375.375 0 0 1 9 .946M6.75 4.7a.375.375 0 1 1-.375.375.375.375 0 0 1 .375-.375"/></svg>