<svg xmlns="http://www.w3.org/2000/svg" viewBox="0 0 24 24" width="24" height="24"><path fill="none" stroke="#000" stroke-linejoin="round" stroke-miterlimit="10" d="M1.5.5h7v23h-7zm7 0h7v23h-7zm7 0h7v23h-7z"/><path fill="none" stroke="#000" stroke-linecap="round" stroke-linejoin="round" stroke-miterlimit="10" d="M11 2.5h2m-2 2h2m-2 2h2m-2 12h2m-2 2h2"/><path d="M10.5 10a.5.5 0 100 1 .5.5 0 000-1z"/><path fill="none" stroke="#000" stroke-linecap="round" stroke-linejoin="round" stroke-miterlimit="10" d="M18 2.5h2m-2 2h2m-2 2h2m-2 12h2m-2 2h2"/><path d="M17.5 10a.5.5 0 100 1 .5.5 0 000-1z"/><path fill="none" stroke="#000" stroke-linecap="round" stroke-linejoin="round" stroke-miterlimit="10" d="M4 2.5h2m-2 2h2m-2 2h2m-2 12h2m-2 2h2"/><path d="M3.5 10a.5.5 0 100 1 .5.5 0 000-1z"/><path fill="none" d="M0 0h24v24H0z"/></svg>