<svg xmlns="http://www.w3.org/2000/svg" viewBox="0 0 24 24" width="24" height="24"><defs><style>.a{fill:none;stroke:#000;stroke-linecap:round;stroke-linejoin:round;stroke-width:1.5px}</style></defs><title>locker-room-wash-hands-1</title><path class="a" d="M12.75 11.25h7.5a1.5 1.5 0 0 1 0 3"/><path class="a" d="M15 11.25a1.5 1.5 0 0 0 0-3H9.158a4.5 4.5 0 0 0-3.744 2L4.2 12.082a1.5 1.5 0 0 1-1.248.668H.75m15.75 1.5h5.25a1.5 1.5 0 0 1 0 3H16.5m4.5 0a1.5 1.5 0 0 1 0 3h-2.25m-3 0h3a1.5 1.5 0 0 1 0 3H7.062a4.493 4.493 0 0 1-2.012-.475l-1.733-.866a1.492 1.492 0 0 0-.671-.159H.75M9 .75l-.321 1.465m-.643 2.931l-.169.77M5.25.75l-.643 1.355M3.321 4.816l-.642 1.355M1.393 8.882L.75 10.237M13.5.75l.321 1.465m.643 2.931l.204.927M17.25.75l.643 1.355m1.286 2.711l.642 1.355m1.286 2.711l.246.519"/></svg>