<svg xmlns="http://www.w3.org/2000/svg" viewBox="0 0 24 24" width="24" height="24"><defs><style>.a{fill:none;stroke:#000;stroke-linecap:round;stroke-linejoin:round;stroke-width:1.5px}</style></defs><title>locker-room-suitcase-umbrella</title><rect class="a" x="6.75" y="12.75" width="16.5" height="10.5" rx="1" ry="1"/><path class="a" d="M11.25 12.75v10.5m7.5-10.5v10.5M12 12.75a3 3 0 0 1 6 0m-1.986-5.919L15.75 5.25l1.366.456a2.254 2.254 0 0 0 1.718-.123l.666-.333.666.333a2.254 2.254 0 0 0 1.718.123l1.366-.456-.75 4.5m-6-7.5a1.5 1.5 0 0 1 3 0v3"/><circle class="a" cx="6" cy="6" r="5.25"/><path class="a" d="M4.359 5.016A1.641 1.641 0 1 1 6 6.657m0 1.921a.375.375 0 1 1-.375.375A.375.375 0 0 1 6 8.578"/></svg>