<svg xmlns="http://www.w3.org/2000/svg" viewBox="0 0 24 24" width="24" height="24"><defs><style>.a{fill:none;stroke:#000;stroke-linecap:round;stroke-linejoin:round;stroke-width:1.5px}</style></defs><title>logout-2</title><path class="a" d="M20.249 18.754v1.5a1.5 1.5 0 0 1-1.5 1.5h-4.5m0-18h4.5a1.5 1.5 0 0 1 1.5 1.5v1.5m-9.856 16.492l-9-1.286a.75.75 0 0 1-.644-.742V3.725a.75.75 0 0 1 .593-.734l9-2.221a.75.75 0 0 1 .907.734v21a.75.75 0 0 1-.856.742zm9.856-13.493l3 3h-8.25m5.251 3l3-3"/><path class="a" d="M7.874 11.629a.375.375 0 1 0 .375.371.374.374 0 0 0-.375-.375"/></svg>