<svg xmlns="http://www.w3.org/2000/svg" viewBox="0 0 24 24" width="24" height="24"><g fill="none" stroke="#000" stroke-linejoin="round" stroke-miterlimit="10"><path stroke-linecap="round" d="M18.072 13.497a7.503 7.503 0 00-14.145.003L2.14 19.88a2.75 2.75 0 002.61 3.62h12.5a2.75 2.75 0 002.61-3.62l-1.788-6.383zM13 8.77c.091-1.477.599-3.393 1.385-4.546m-6.699.027c.788 1.154 1.209 3.038 1.3 4.519"/><path stroke-linecap="round" d="M5.5 1.5c0 1.433 1.566 3 3.5 3h4c1.934 0 3.5-1.567 3.5-3h-11z"/><path d="M8.603 6.5h4.795"/><path stroke-linecap="round" d="M11 11l2 2v6l-2 2-2-2v-6zm-2 2l2 1m2-1l-2 1m0 0v3.5m0 0l-2 1m2-1l2 1"/></g><path fill="none" d="M0 0h24v24H0z"/></svg>