<svg xmlns="http://www.w3.org/2000/svg" viewBox="0 0 24 24" width="24" height="24"><defs><style>.a{fill:none;stroke:#000;stroke-linecap:round;stroke-linejoin:round;stroke-width:1.5px}</style></defs><title>love-heart-hands-hold-3</title><path class="a" d="M13.068 12.418a1.5 1.5 0 0 1-2.136 0l-5.324-5.4A3.6 3.6 0 0 1 4.9 2.781a3.842 3.842 0 0 1 6.057-.954L12 2.841l1.044-1.014a3.842 3.842 0 0 1 6.057.954 3.6 3.6 0 0 1-.709 4.241zM3.75 23.25l-2.014-2.381a4.5 4.5 0 0 1-.986-2.811v-5.172a1.5 1.5 0 0 1 1.5-1.5 1.5 1.5 0 0 1 1.5 1.5v3.75"/><path class="a" d="M8.25 23.25v-3a4.5 4.5 0 0 0-.757-2.5l-1.142-1.71a1.4 1.4 0 0 0-1.977-.44 1.4 1.4 0 0 0-.474 1.786l1.352 2.25M20.25 23.25l2.014-2.381a4.5 4.5 0 0 0 .986-2.811v-5.172a1.5 1.5 0 0 0-1.5-1.5 1.5 1.5 0 0 0-1.5 1.5v3.75"/><path class="a" d="M15.75 23.25v-3a4.5 4.5 0 0 1 .757-2.5l1.142-1.712a1.4 1.4 0 0 1 1.977-.445 1.4 1.4 0 0 1 .476 1.791l-1.352 2.25"/></svg>