<svg xmlns="http://www.w3.org/2000/svg" viewBox="0 0 24 24" width="24" height="24"><defs><style>.a{fill:none;stroke:#000;stroke-linecap:round;stroke-linejoin:round;stroke-width:1.5px}</style></defs><title>love-heart-hands-hold-1</title><path class="a" d="M.75 23.25h15a3 3 0 0 0-3-3H9a3 3 0 0 0-3-3H.75m5.25 3h3M23.25.75h-15a3 3 0 0 0 3 3H15a3 3 0 0 0 3 3h5.25m-5.25-3h-3m.93 5.839a1.9 1.9 0 0 0-2.751 0L12 10.808l-1.179-1.219a1.9 1.9 0 0 0-2.751 0 2.06 2.06 0 0 0 0 2.845l3.511 3.631a.579.579 0 0 0 .838 0l3.511-3.631a2.06 2.06 0 0 0 0-2.845z"/></svg>