<svg xmlns="http://www.w3.org/2000/svg" viewBox="0 0 24 24" width="24" height="24"><defs><style>.a{fill:none;stroke:#000;stroke-linecap:round;stroke-linejoin:round;stroke-width:1.5px}</style></defs><title>love-gift-diamond</title><path class="a" d="M12.5 3L4.25 7.5v9.75l8.25 4.5 8.25-4.5V7.5L12.5 3z"/><path class="a" d="M12.5 7.5L8 9.75V15l4.5 2.25L17 15V9.75L12.5 7.5zm0 0V3m0 14.25v4.5M17 15l3.75 2.25M17 9.75l3.75-2.25M8 9.75L4.25 7.5M8 15l-3.75 2.25M3.5.75v4.5M1.25 3h4.5M21.5 20.25v3m-1.5-1.5h3"/></svg>