<svg xmlns="http://www.w3.org/2000/svg" viewBox="0 0 24 24" width="24" height="24"><g fill="none" stroke="#000" stroke-linejoin="round" stroke-miterlimit="10"><path d="M18.281 8.365s3-2.182 3-3.799c0-1.865-2.454-2.455-3-.186-.545-2.27-3-1.68-3 .186 0 1.618 3 3.799 3 3.799zm-6.115-4.029s.928-2.125.417-2.996c-.59-1.006-2.1-.547-1.677.848-1.01-1.051-2.147.042-1.558 1.048.51.871 2.818 1.1 2.818 1.1zm5.985 10.732s3.664.577 4.808-.564c1.318-1.319 0-3.471-1.99-2.254 1.219-1.988-.935-3.309-2.253-1.988-1.143 1.142-.565 4.806-.565 4.806zM4.5 21.201c0 1.15-.732 2.299-2.003 2.299-1.27 0-1.966-.572-1.966-1.845 0-1.269.993-2.155 2.263-2.155H4.5v1.701zm9-2.5C13.5 19.85 12.484 21 11.214 21s-2.293-1.07-2.293-2.342c0-1.27 1.036-2.158 2.307-2.158H13.5v2.201z"/><path d="M4.5 20.25V9.701l9-3.451v11.566m-8.979-5.148l9.006-3.734"/></g><path fill="none" d="M0 0h24v24H0z"/></svg>