<svg xmlns="http://www.w3.org/2000/svg" viewBox="0 0 24 24" width="24" height="24"><defs><style>.a{fill:none;stroke:#000;stroke-linecap:round;stroke-linejoin:round;stroke-width:1.5px}</style></defs><title>love-it-break</title><path class="a" d="M12 21.844l-9.588-10a5.672 5.672 0 0 1-1.063-6.551 5.673 5.673 0 0 1 9.085-1.474L12 5.384l1.566-1.565a5.673 5.673 0 0 1 9.085 1.474 5.673 5.673 0 0 1-1.062 6.548z"/><path class="a" d="M12 5.384l2.937 2.9a.751.751 0 0 1-.249 1.23L9.8 11.473a.751.751 0 0 0-.057 1.368l3.925 1.959a.75.75 0 0 1 .376.908L12 21.844"/></svg>