<svg xmlns="http://www.w3.org/2000/svg" viewBox="0 0 24 24" width="24" height="24"><defs><style>.a{fill:none;stroke:#000;stroke-linecap:round;stroke-linejoin:round;stroke-width:1.5px}</style></defs><title>love-bird</title><path class="a" d="M10.125 11.25a.375.375 0 0 1 .375.375m-.75 0a.375.375 0 0 1 .375-.375m0 .75a.375.375 0 0 1-.375-.375m.75 0a.375.375 0 0 1-.375.375M18 9.938L13.526 5.27a2.648 2.648 0 0 1-.5-3.056 2.648 2.648 0 0 1 4.24-.688l.734.731.731-.731a2.648 2.648 0 0 1 4.24.688 2.65 2.65 0 0 1-.5 3.056z"/><path class="a" d="M7.026 17.968C3.675 18.169.75 17.485.75 14.25v-.75a.75.75 0 0 1 .75-.75H6V12a3.75 3.75 0 0 1 7.5 0v5.25a6 6 0 0 1-6 6H.75l2.625-2.625M13.5 12.75h2.25"/></svg>