<svg xmlns="http://www.w3.org/2000/svg" viewBox="0 0 24 24" width="24" height="24"><defs><style>.a{fill:none;stroke:#000;stroke-linecap:round;stroke-linejoin:round;stroke-width:1.5px}</style></defs><title>love-heart-arrow</title><path class="a" d="M20.713 15.459l1.447-1.446a3.736 3.736 0 1 0-5.284-5.284l-2.264 2.264-2.264-2.264a3.736 3.736 0 0 0-5.284 5.284l6.744 6.744a1.139 1.139 0 0 0 1.608 0l.829-.829m.072-3.615l6.937 6.937M6.218 6.192l1.815 1.837M19.18 23.25h4.074v-4.074M6.386 2.224a1.379 1.379 0 0 1 .377 1.245l-.545 2.723-2.718.545a1.379 1.379 0 0 1-1.25-.377l-1.3-1.3a.69.69 0 0 1 .09-1.051l2.09-.926.907-2.041a.69.69 0 0 1 1.051-.09z"/></svg>