<svg xmlns="http://www.w3.org/2000/svg" viewBox="0 0 24 24" width="24" height="24"><defs><style>.a{fill:none;stroke:#000;stroke-linecap:round;stroke-linejoin:round;stroke-width:1.5px}</style></defs><title>love-it-bubble</title><path class="a" d="M12 17.344l-4.474-4.668a2.648 2.648 0 0 1-.5-3.056 2.648 2.648 0 0 1 4.24-.688l.734.731.731-.731a2.648 2.648 0 0 1 4.24.688 2.65 2.65 0 0 1-.5 3.056z"/><path class="a" d="M12.576 1.012l1.878 2.162a.765.765 0 0 0 .748.243l2.79-.645a.764.764 0 0 1 .932.678l.25 2.852a.761.761 0 0 0 .462.636l2.636 1.119a.763.763 0 0 1 .356 1.1l-1.475 2.454a.764.764 0 0 0 0 .786l1.475 2.454a.763.763 0 0 1-.356 1.1l-2.636 1.119a.761.761 0 0 0-.462.636l-.25 2.852a.764.764 0 0 1-.932.678l-2.79-.645a.765.765 0 0 0-.748.243l-1.878 2.161a.763.763 0 0 1-1.152 0l-1.878-2.169a.765.765 0 0 0-.748-.243l-2.79.645a.764.764 0 0 1-.932-.678l-.25-2.85a.761.761 0 0 0-.462-.636l-2.636-1.121a.763.763 0 0 1-.356-1.1l1.475-2.454a.76.76 0 0 0 0-.786l-1.475-2.45a.763.763 0 0 1 .356-1.1l2.636-1.115a.761.761 0 0 0 .462-.638l.25-2.852a.764.764 0 0 1 .932-.678l2.79.645a.765.765 0 0 0 .748-.243l1.878-2.162a.765.765 0 0 1 1.152.002z"/></svg>