<svg xmlns="http://www.w3.org/2000/svg" viewBox="0 0 24 24" width="24" height="24"><defs><style>.a{fill:none;stroke:#000;stroke-linecap:round;stroke-linejoin:round;stroke-width:1.5px}</style></defs><title>love-gift-box-heart</title><path class="a" d="M21.365 6.8a3.643 3.643 0 0 1-1.055 4.5l-7.432 5.366a1.5 1.5 0 0 1-1.756 0L3.69 11.3a3.6 3.6 0 0 1-.921-4.719A5.143 5.143 0 0 1 6.75 4.564"/><path class="a" d="M2.25 8.3v6.478A3.3 3.3 0 0 0 3.689 17.3l7.432 5.366a1.5 1.5 0 0 0 1.756 0l7.432-5.366a3.3 3.3 0 0 0 1.439-2.522V8.3m-2.157-3.659c-.879.879-4.773 1.591-4.773 1.591s.712-3.894 1.591-4.773a2.25 2.25 0 0 1 3.182 3.182zm-9.546 0c.879.879 4.773 1.591 4.773 1.591s-.712-3.894-1.591-4.773a2.25 2.25 0 0 0-3.182 3.182zm4.773 1.591l-3 3m3-3l3 3"/></svg>