<svg xmlns="http://www.w3.org/2000/svg" viewBox="0 0 24 24" width="24" height="24"><defs><style>.a{fill:none;stroke:#000;stroke-linecap:round;stroke-linejoin:round;stroke-width:1.5px}</style></defs><title>love-plant-pot</title><path class="a" d="M14.612 23.25h-5.7a.665.665 0 0 1-.668-.482l-1.091-4.8a.627.627 0 0 1 .669-.718H15.7a.627.627 0 0 1 .669.718l-1.091 4.8a.665.665 0 0 1-.666.482zM11.643 12v5.25m1.083-5.712a1.5 1.5 0 0 1-2.166 0L5.8 6.653a3.456 3.456 0 0 1-.648-3.991 3.458 3.458 0 0 1 5.538-.9l.954.955.954-.955a3.458 3.458 0 0 1 5.538.9 3.457 3.457 0 0 1-.648 3.991zm-1.083 5.712l3.75-3m-3.75 3l-3.75-3"/></svg>