<svg xmlns="http://www.w3.org/2000/svg" viewBox="0 0 24 24" width="24" height="24"><defs><style>.a{fill:none;stroke:#000;stroke-linecap:round;stroke-linejoin:round;stroke-width:1.5px}</style></defs><title>love-hat</title><path class="a" d="M23.068 14.876a1.9 1.9 0 0 0-2.594-.917l-1.518.755-.7-1.542a1.9 1.9 0 0 0-2.593-.917 2.059 2.059 0 0 0-.949 2.681l2.1 4.594a.579.579 0 0 0 .79.28l4.521-2.252a2.061 2.061 0 0 0 .943-2.682zm-13.629-.427L2.312 9.35A3.589 3.589 0 0 1 .888 5.4a3.588 3.588 0 0 1 5.476-1.973l1.156.791.79-1.156a3.588 3.588 0 0 1 5.82-.143 3.589 3.589 0 0 1 .1 4.2zM22.125 9a.375.375 0 0 1 .375.375m-.75 0A.375.375 0 0 1 22.125 9m0 .75a.375.375 0 0 1-.375-.375m.75 0a.375.375 0 0 1-.375.375m-19.5 7.5a.375.375 0 0 1 .375.375m-.75 0a.375.375 0 0 1 .375-.375m0 .75a.375.375 0 0 1-.375-.375m.75 0a.375.375 0 0 1-.375.375m7.875 1.5v3M12 21H9M19.5 1.5v3M21 3h-3"/></svg>