<svg xmlns="http://www.w3.org/2000/svg" viewBox="0 0 24 24" width="24" height="24"><defs><style>.a{fill:none;stroke:#000;stroke-linecap:round;stroke-linejoin:round;stroke-width:1.5px}</style></defs><title>love-heart-balloon</title><path class="a" d="M12.03 13.5L5.638 7.207a3.783 3.783 0 0 1-.709-4.366 3.782 3.782 0 0 1 6.057-.983L12.03 2.9l1.044-1.044a3.782 3.782 0 0 1 6.057.983 3.784 3.784 0 0 1-.709 4.366z"/><path class="a" d="M12.03 13.49s-4.53 3.188-5.656 3.447a2.095 2.095 0 1 1-.937-4.083c1.127-.254 6.593.636 6.593.636zm0 0s4.529 3.188 5.656 3.447a2.095 2.095 0 1 0 .937-4.083c-1.123-.254-6.593.636-6.593.636zm0 0v6.01a3.75 3.75 0 0 0 3.75 3.75"/></svg>