<svg xmlns="http://www.w3.org/2000/svg" viewBox="0 0 24 24" width="24" height="24"><defs><style>.a{fill:none;stroke:#000;stroke-linecap:round;stroke-linejoin:round;stroke-width:1.5px}</style></defs><title>love-boat</title><path class="a" d="M.75 10.5v12.75"/><circle class="a" cx="6" cy="14.25" r="2.25"/><path class="a" d="M23.25 14.25v9m0-3.75H.75m10.5-3v-3.539a.749.749 0 0 1 .932-.728l5.885 1.467a2.883 2.883 0 0 1 2.183 2.8zM23.191 6.266a1.9 1.9 0 0 0-2.381-1.38l-1.631.464-.409-1.645a1.9 1.9 0 0 0-2.381-1.38 2.061 2.061 0 0 0-1.426 2.462l1.218 4.9a.579.579 0 0 0 .725.419l4.859-1.381a2.061 2.061 0 0 0 1.426-2.459zM10.313 1.058a1.9 1.9 0 0 0-2.678.632l-.867 1.458-1.428-.916a1.9 1.9 0 0 0-2.677.633 2.059 2.059 0 0 0 .654 2.768L7.569 8.36a.579.579 0 0 0 .815-.193l2.582-4.341a2.059 2.059 0 0 0-.653-2.768z"/></svg>