<svg xmlns="http://www.w3.org/2000/svg" viewBox="0 0 24 24" width="24" height="24"><defs><style>.a{fill:none;stroke:#000;stroke-linecap:round;stroke-linejoin:round;stroke-width:1.5px}</style></defs><title>love-heart-key</title><path class="a" d="M10.775 14.6a1.583 1.583 0 0 0-2.293 0L7.5 15.61l-.982-1.01a1.583 1.583 0 0 0-2.293 0 1.716 1.716 0 0 0 0 2.37l2.926 3.026a.483.483 0 0 0 .7 0l2.926-3.026a1.716 1.716 0 0 0-.002-2.37zm9.639-10.929L9.783 14.111M19.5 12.75l1.053 1.034m1.644-3.568l1.053 1.034m-6.674 4.03l1.053 1.035"/><path class="a" d="M13.813 14.673l8.455-8.3a3.25 3.25 0 0 0 0-4.655 3.4 3.4 0 0 0-4.74 0l-8.679 8.519a6.77 6.77 0 0 0-6.135 1.774 6.5 6.5 0 0 0 0 9.311 6.79 6.79 0 0 0 9.48 0 6.475 6.475 0 0 0 1.619-6.649z"/></svg>