<svg xmlns="http://www.w3.org/2000/svg" viewBox="0 0 24 24" width="24" height="24"><defs><style>.a{fill:none;stroke:#000;stroke-linecap:round;stroke-linejoin:round;stroke-width:1.5px}</style></defs><title>love-it-settings</title><circle class="a" cx="17.247" cy="16.5" r="1.5"/><path class="a" d="M18.522 10.7l.442 1.453a.993.993 0 0 0 1.173.681l1.473-.341a1.338 1.338 0 0 1 1.274 2.218l-1.03 1.111a1 1 0 0 0 0 1.362l1.03 1.111a1.338 1.338 0 0 1-1.274 2.215l-1.473-.341a.993.993 0 0 0-1.173.681l-.442 1.45a1.331 1.331 0 0 1-2.549 0l-.442-1.453a.993.993 0 0 0-1.173-.681l-1.473.341a1.338 1.338 0 0 1-1.274-2.218l1.03-1.111a1 1 0 0 0 0-1.362l-1.03-1.111a1.338 1.338 0 0 1 1.274-2.218l1.473.341a.993.993 0 0 0 1.173-.681l.442-1.453a1.331 1.331 0 0 1 2.549.006z"/><path class="a" d="M8.223 16.5l-5.811-6.065a5.672 5.672 0 0 1-1.063-6.548 5.672 5.672 0 0 1 9.085-1.474L12 3.978l1.566-1.565a5.672 5.672 0 0 1 9.085 1.474A5.676 5.676 0 0 1 22.632 9"/></svg>