<svg xmlns="http://www.w3.org/2000/svg" viewBox="0 0 24 24" width="24" height="24"><g fill="none" stroke="#000" stroke-linejoin="round" stroke-miterlimit="10"><path d="M11.5 9.553s5-3.6 5-6.268c0-3.076-4.091-4.049-5-.308-.909-3.741-5-2.769-5 .308 0 2.668 5 6.268 5 6.268zM9 13a3.5 3.5 0 10-7 0c0 .773.259 1.482.684 2.062L1.5 23.5H9l-3.051-7.045A3.49 3.49 0 009 13z"/><path stroke-linecap="round" d="M6.5 12v-.5M8.414 15A3.413 3.413 0 016 14"/><path d="M14 13a3.5 3.5 0 117 0c0 .773-.259 1.482-.684 2.062L21.5 23.5H14l3.051-7.045A3.49 3.49 0 0114 13z"/><path stroke-linecap="round" d="M16.5 12v-.5M14.586 15c.905 0 1.773-.359 2.414-1"/></g><path fill="none" d="M0 0h24v24H0z"/></svg>