<svg xmlns="http://www.w3.org/2000/svg" viewBox="0 0 24 24" width="24" height="24"><defs><style>.a{fill:none;stroke:#000;stroke-linecap:round;stroke-linejoin:round;stroke-width:1.5px}</style></defs><title>love-it-lock</title><path class="a" d="M10.463 18.834l-8.051-8.4a5.673 5.673 0 0 1-1.063-6.548 5.672 5.672 0 0 1 9.085-1.473L12 3.978l1.566-1.565a5.672 5.672 0 0 1 9.085 1.473 5.675 5.675 0 0 1-.015 5.1"/><rect class="a" x="14.247" y="15.75" width="9" height="7.5" rx="1.5" ry="1.5"/><path class="a" d="M18.747 11.25a3 3 0 0 0-3 3v1.5h6v-1.5a3 3 0 0 0-3-3zm0 7.904a.375.375 0 1 0 .375.375.375.375 0 0 0-.375-.375"/></svg>