<svg xmlns="http://www.w3.org/2000/svg" viewBox="0 0 24 24" width="24" height="24"><defs><style>.a{fill:none;stroke:#000;stroke-linecap:round;stroke-linejoin:round;stroke-width:1.5px}</style></defs><title>love-gift-couple-box</title><path class="a" d="M21.75 9.75H2.25v12a1.5 1.5 0 0 0 1.5 1.5h16.5a1.5 1.5 0 0 0 1.5-1.5zm0-4.5H2.25a1.5 1.5 0 0 0-1.5 1.5v3h22.5v-3a1.5 1.5 0 0 0-1.5-1.5z"/><path class="a" d="M9.75 5.25h4.5v4.5h-4.5zm2.25 0L7.5.75m4.5 4.5l4.5-4.5"/><circle class="a" cx="8.25" cy="16.125" r="2.625"/><path class="a" d="M12 23.25a3.75 3.75 0 0 0-7.5 0"/><circle class="a" cx="15.75" cy="16.125" r="2.625"/><path class="a" d="M19.5 23.25a3.75 3.75 0 0 0-7.5 0"/></svg>