<svg xmlns="http://www.w3.org/2000/svg" viewBox="0 0 24 24" width="24" height="24"><defs><style>.a{fill:none;stroke:#000;stroke-linecap:round;stroke-linejoin:round;stroke-width:1.5px}</style></defs><title>love-gift-chocolate-box</title><path class="a" d="M22.651 5.157C20.509 2.239 13.957 2.142 12 5.874c-1.957-3.732-8.509-3.635-10.651-.717C.257 6.645.685 8.44 2.412 9.614l8.719 6.193a1.5 1.5 0 0 0 1.738 0l8.719-6.193c1.727-1.174 2.155-2.969 1.063-4.457z"/><path class="a" d="M23.25 6.925v4.212a4.284 4.284 0 0 1-1.8 3.494l-8.577 6.092a1.5 1.5 0 0 1-1.738 0l-8.581-6.092a4.284 4.284 0 0 1-1.8-3.494V6.925"/></svg>