<svg xmlns="http://www.w3.org/2000/svg" viewBox="0 0 24 24" width="24" height="24"><defs><style>.a{fill:none;stroke:#000;stroke-linecap:round;stroke-linejoin:round;stroke-width:1.5px}</style></defs><title>love-gift-flowers</title><path class="a" d="M16.435 6.2a.516.516 0 0 1 .755.027A7.5 7.5 0 0 1 6.828 16.984a.751.751 0 0 1-.062-1.116z"/><path class="a" d="M15.423 17.524l3 4.506a.75.75 0 0 0 1.154.114L22.53 19.2a.751.751 0 0 0-.114-1.155l-4.506-3m-2.487 2.479l-3.489 4.631m3.489-4.631l-.292 5.726M9.67 12.965l.153-2.722a2.061 2.061 0 0 0-2.012-2.012 1.9 1.9 0 0 0-1.945 1.946l.028 1.7-1.7-.028a1.9 1.9 0 0 0-1.946 1.945A2.061 2.061 0 0 0 4.265 15.8l2.721-.153"/><path class="a" d="M16.033 6.6l.154-2.722a2.061 2.061 0 0 0-2.012-2.012 1.9 1.9 0 0 0-1.945 1.947l.028 1.695-1.695-.028a1.9 1.9 0 0 0-1.946 1.945 2.06 2.06 0 0 0 2.012 2.012l2.721-.153M6.751.807a1.9 1.9 0 0 0-1.946 1.945l.028 1.7-1.7-.029a1.9 1.9 0 0 0-1.94 1.942A2.059 2.059 0 0 0 3.2 8.376l4.7-.265a.577.577 0 0 0 .6-.592l.265-4.7A2.06 2.06 0 0 0 6.751.807z"/></svg>