<svg xmlns="http://www.w3.org/2000/svg" viewBox="0 0 24 24" width="24" height="24"><g fill="none" stroke="#000" stroke-linejoin="round" stroke-miterlimit="10"><path d="M6.468 21.512s3.802-2.766 3.802-4.814c0-2.363-3.11-3.109-3.802-.236-.69-2.873-3.802-2.127-3.802.236 0 2.048 3.802 4.814 3.802 4.814z"/><path stroke-linecap="round" d="M9.203 14.805L21.039 2.961M11.91 14.918L22.807 4.021c.781-.78.788-2.04 0-2.827a1.992 1.992 0 00-2.828 0L9.081 12.09a6 6 0 00-6.824 1.168 6.001 6.001 0 008.485 8.486 6 6 0 001.168-6.826zm9.365-7.108l.672.69m-4.207 2.846l.707.707m-4.243 2.828l.708.707"/></g><path fill="none" d="M0 0h24v24H0z"/></svg>