<svg xmlns="http://www.w3.org/2000/svg" viewBox="0 0 24 24" width="24" height="24"><defs><style>.a{fill:none;stroke:#000;stroke-linecap:round;stroke-linejoin:round;stroke-width:1.5px}</style></defs><title>love-it-edit</title><path class="a" d="M22.628 14.868L15 22.5l-3.75.75.75-3.75 7.631-7.63a2.115 2.115 0 0 1 2.991 0l.009.009a2.115 2.115 0 0 1-.003 2.989zM8.223 16.5l-5.811-6.063a5.673 5.673 0 0 1-1.063-6.549 5.673 5.673 0 0 1 9.085-1.474L12 3.98l1.566-1.566a5.673 5.673 0 0 1 9.085 1.474A5.676 5.676 0 0 1 22.632 9"/></svg>