<svg xmlns="http://www.w3.org/2000/svg" viewBox="0 0 24 24" width="24" height="24"><defs><style>.a{fill:none;stroke:#000;stroke-linecap:round;stroke-linejoin:round;stroke-width:1.5px}</style></defs><title>love-plant</title><path class="a" d="M13.74 1.535a2.534 2.534 0 0 0-3.668 0L8.5 3.16 6.928 1.535a2.534 2.534 0 0 0-3.668 0 2.747 2.747 0 0 0 0 3.793l4.682 4.933a.77.77 0 0 0 1.116 0l4.682-4.933a2.747 2.747 0 0 0 0-3.793zM3.1 23.25l-.518-2.282a.626.626 0 0 1 .668-.718h10.5a.626.626 0 0 1 .668.718L13.9 23.25M8.5 10.5v9.75m12.746-6.898a1.9 1.9 0 0 0-2.1-1.783l-1.688.165-.108-1.692a1.9 1.9 0 0 0-2.1-1.783 2.061 2.061 0 0 0-1.843 2.167l.323 5.041a.579.579 0 0 0 .638.543l5.027-.491a2.061 2.061 0 0 0 1.851-2.167zm-7.4 2.419A6.592 6.592 0 0 1 8.5 18"/></svg>