<svg xmlns="http://www.w3.org/2000/svg" viewBox="0 0 24 24" width="24" height="24"><defs><style>.a{fill:none;stroke:#000;stroke-linecap:round;stroke-linejoin:round;stroke-width:1.5px}</style></defs><title>love-it-check</title><path class="a" d="M23.247 17.25a6 6 0 1 1-6-6m6 1.5l-5.469 5.469a.75.75 0 0 1-1.061 0L15 16.5"/><path class="a" d="M8.223 16.5l-5.811-6.065a5.673 5.673 0 0 1-1.063-6.549 5.672 5.672 0 0 1 9.085-1.473L12 3.978l1.566-1.565a5.672 5.672 0 0 1 9.085 1.473A5.678 5.678 0 0 1 22.632 9"/></svg>