<svg xmlns="http://www.w3.org/2000/svg" viewBox="0 0 24 24" width="24" height="24"><defs><style>.a{fill:none;stroke:#000;stroke-linecap:round;stroke-linejoin:round;stroke-width:1.5px}</style></defs><title>love-it-sync</title><path class="a" d="M14.997 18.75h-3.75v3.75m11.418-3.017a5.572 5.572 0 0 1-10.74-.733m7.572-3h3.75V12M11.83 15.017a5.572 5.572 0 0 1 10.74.733"/><path class="a" d="M8.223 16.5l-5.811-6.065a5.673 5.673 0 0 1-1.063-6.549 5.672 5.672 0 0 1 9.085-1.473L12 3.978l1.566-1.565a5.672 5.672 0 0 1 9.085 1.473A5.678 5.678 0 0 1 22.632 9"/></svg>