<svg xmlns="http://www.w3.org/2000/svg" viewBox="0 0 24 24" width="24" height="24"><defs><style>.a{fill:none;stroke:#000;stroke-linecap:round;stroke-linejoin:round;stroke-width:1.5px}</style></defs><title>love-it-warning</title><path class="a" d="M17.247 20.25a.375.375 0 1 0 .375.375.375.375 0 0 0-.375-.375m0-2.25v-3"/><path class="a" d="M23.06 20.682a1.775 1.775 0 0 1-1.587 2.568h-8.451a1.774 1.774 0 0 1-1.587-2.568l4.226-8.451a1.773 1.773 0 0 1 3.173 0z"/><path class="a" d="M8.223 16.5l-5.811-6.065a5.673 5.673 0 0 1-1.063-6.549 5.672 5.672 0 0 1 9.085-1.473L12 3.978l1.566-1.565a5.672 5.672 0 0 1 9.085 1.473A5.678 5.678 0 0 1 22.632 9"/></svg>