<svg xmlns="http://www.w3.org/2000/svg" viewBox="0 0 24 24" width="24" height="24"><defs><style>.a{fill:none;stroke:#000;stroke-linecap:round;stroke-linejoin:round;stroke-width:1.5px}</style></defs><title>love-shield</title><path class="a" d="M13.083 15.524a1.5 1.5 0 0 1-2.166 0l-4.031-4.2a3.025 3.025 0 0 1-.567-3.492 3.026 3.026 0 0 1 4.846-.786l.835.83.835-.835a3.026 3.026 0 0 1 4.846.786 3.025 3.025 0 0 1-.567 3.492z"/><path class="a" d="M2.25 3.923v7.614c0 3.723 1.629 8.8 8.673 11.513a3 3 0 0 0 2.154 0c7.041-2.708 8.673-7.822 8.673-11.513V3.923a1.486 1.486 0 0 0-.868-1.362A21.7 21.7 0 0 0 12 .75a21.7 21.7 0 0 0-8.882 1.811 1.486 1.486 0 0 0-.868 1.362z"/></svg>