<svg xmlns="http://www.w3.org/2000/svg" viewBox="0 0 24 24" width="24" height="24"><defs><style>.a{fill:none;stroke:#000;stroke-linecap:round;stroke-linejoin:round;stroke-width:1.5px}</style></defs><title>love-it-ribbon</title><path class="a" d="M12 14.531L7.526 9.863a2.646 2.646 0 0 1-.5-3.056 2.647 2.647 0 0 1 4.24-.687l.73.73.731-.73a2.647 2.647 0 0 1 4.24.687 2.649 2.649 0 0 1-.5 3.056z"/><path class="a" d="M19.059 23.105l-6.177-4.492a1.5 1.5 0 0 0-1.764 0l-6.177 4.492A.75.75 0 0 1 3.75 22.5V2.25a1.5 1.5 0 0 1 1.5-1.5h13.5a1.5 1.5 0 0 1 1.5 1.5V22.5a.75.75 0 0 1-1.191.605z"/><path class="a" d="M12 14.531L7.526 9.863a2.646 2.646 0 0 1-.5-3.056 2.647 2.647 0 0 1 4.24-.687l.73.73.731-.73a2.647 2.647 0 0 1 4.24.687 2.649 2.649 0 0 1-.5 3.056z"/></svg>