<svg xmlns="http://www.w3.org/2000/svg" viewBox="0 0 24 24" width="24" height="24"><defs><style>.a{fill:none;stroke:#000;stroke-linecap:round;stroke-linejoin:round;stroke-width:1.5px}</style></defs><title>love-heart-hold</title><path class="a" d="M6.989 11.386l-1.8-1.9a5.275 5.275 0 0 1-.921-5.907 4.816 4.816 0 0 1 7.875-1.329L13.5 3.662l1.357-1.412a4.816 4.816 0 0 1 7.874 1.329 5.275 5.275 0 0 1-.921 5.907L13.5 18l-2.079-2.131"/><path class="a" d="M7.5 15l1.673-1.255a1.569 1.569 0 0 1 2.247.385 1.569 1.569 0 0 1 0 1.74l-1.645 2.467A4.5 4.5 0 0 1 7.7 20.019L5.25 21v2.25m1.013-12.631C-.314 13.438.75 19.486.75 23.25"/></svg>