<svg xmlns="http://www.w3.org/2000/svg" viewBox="0 0 24 24" width="24" height="24"><defs><style>.a{fill:none;stroke:#000;stroke-linecap:round;stroke-linejoin:round;stroke-width:1.5px}</style></defs><title>love-heart-ranking</title><path class="a" d="M17.29 1.543a2.559 2.559 0 0 0-3.7 0L12 3.184l-1.587-1.641a2.559 2.559 0 0 0-3.7 0 2.774 2.774 0 0 0 0 3.829l4.726 4.887a.78.78 0 0 0 1.127 0l4.724-4.887a2.774 2.774 0 0 0 0-3.829zM.75 23.25v-4.5A.75.75 0 0 1 1.5 18h6m15.75 5.25v-4.5a.75.75 0 0 0-.75-.75h-6m-9 5.25v-9a.75.75 0 0 1 .75-.75h7.5a.75.75 0 0 1 .75.75v9"/></svg>