<svg xmlns="http://www.w3.org/2000/svg" viewBox="0 0 24 24" width="24" height="24"><g fill="none" stroke="#000" stroke-linecap="round" stroke-linejoin="round" stroke-miterlimit="10"><path d="M17.5 17.75a2.25 2.25 0 00-2.25-2.25h-7.5a2.25 2.25 0 00-2.25 2.25v3.5a2.25 2.25 0 002.25 2.25h7.5a2.25 2.25 0 002.25-2.25v-3.5z"/><circle cx="11.5" cy="5.516" r="4.984"/><path d="M13.184 3.446L11.5 6M8 18.5h7m-7 2h7m-.5-6a2 2 0 00-2-2h-2a2 2 0 00-2 2v1h6v-1zM1 23.5h22"/></g><path fill="none" d="M0 0h24v24H0z"/></svg>