<svg xmlns="http://www.w3.org/2000/svg" viewBox="0 0 24 24" width="24" height="24"><g fill="none" stroke="#000" stroke-linecap="round" stroke-linejoin="round" stroke-miterlimit="10"><path d="M.5 20.5h22.969m-1.969 0v-14a4 4 0 00-4-4h-11a4 4 0 00-4 4v14m9-20v5m-2.984 0H14.5"/><path d="M9.5 12.5v-1c0-1.1.9-2 2-2h1c1.1 0 2 .9 2 2v1m4 6a2 2 0 01-2 2h-9a2 2 0 01-2-2v-4a2 2 0 012-2h9a2 2 0 012 2v4z"/><circle cx="21" cy="22" r="1.5"/><circle cx="3" cy="22" r="1.5"/></g><path fill="none" d="M0 0h24v24H0z"/></svg>