<svg xmlns="http://www.w3.org/2000/svg" viewBox="0 0 24 24" width="24" height="24"><g fill="none" stroke="#000" stroke-linejoin="round" stroke-miterlimit="10"><path stroke-linecap="round" d="M23.5 7.5c0-1.1-.9-2-2-2h-19c-1.1 0-2 .9-2 2v12c0 1.1.9 2 2 2h19c1.1 0 2-.9 2-2v-12zm-15-2V4c0-.825.675-1.5 1.5-1.5h4c.825 0 1.5.675 1.5 1.5v1.5"/><path stroke-linecap="round" d="M15 11c-1.11 0-2.077.604-2.596 1.5H6.5L5 14l1.5 1.5h5.904A3 3 0 1015 11z"/><path d="M15.5 14a.5.5 0 01-.5.5h0a.5.5 0 01-.5-.5h0a.5.5 0 01.5-.5h0a.5.5 0 01.5.5h0z"/></g><path fill="none" d="M0 0h24v24H0z"/></svg>