<svg xmlns="http://www.w3.org/2000/svg" viewBox="0 0 24 24" width="24" height="24"><g fill="none" stroke="#000" stroke-linejoin="round" stroke-miterlimit="10"><path stroke-linecap="round" d="M20.5 15.5c0-1.649-1.35-3-3-3h-11c-1.65 0-3 1.351-3 3v5c0 1.65 1.35 3 3 3h11c1.65 0 3-1.35 3-3v-5zm-11-3v-1c0-1.1.9-2 2-2h1c1.1 0 2 .9 2 2v1"/><path d="M17.5 12.5v11m-3-11v11m-5-11v11m-3-11v11"/><circle stroke-linecap="round" cx="5" cy="4.516" r="1.5"/><path stroke-linecap="round" d="M8.873 5.5C8.428 7.224 6.862 8.516 5 8.516a4 4 0 010-8c1.873 0 3.444 1.247 3.88 2.984H22.5a1 1 0 010 2h-2v2h-2v-2h-2v2h-2v-2H8.873z"/></g><path fill="none" d="M0 0h24v24H0z"/></svg>