<svg xmlns="http://www.w3.org/2000/svg" viewBox="0 0 24 24" width="24" height="24"><g fill="none" stroke="#000" stroke-linejoin="round" stroke-miterlimit="10"><path d="M2.5 19.379L9.879 12M12 14.123L4.622 21.5m-.152 1.566c-.977.977-3.536 0-3.536 0s-.976-2.559 0-3.536c.977-.976 1.853-.269 2.829.708.975.976 1.682 1.852.707 2.828z"/><circle cx="15" cy="9" r="6"/><path d="M16.5 6.5L15 5l-1.5 1.5m0 5L15 13l1.5-1.5m1-1L19 9l-1.5-1.5m-5 0L11 9l1.5 1.5m-7.31 6.19l2.121 2.121"/><path stroke-linecap="round" d="M15 3V1m4.242 3.758l1.415-1.415M21 9h2m-3.758 4.243l1.415 1.414M15 15v2M9 9H7m3.758-4.242L9.343 3.343"/></g><path fill="none" d="M0 0h24v24H0z"/></svg>