<svg xmlns="http://www.w3.org/2000/svg" viewBox="0 0 24 24" width="24" height="24"><g fill="none" stroke="#000" stroke-linecap="round" stroke-linejoin="round" stroke-miterlimit="10"><path d="M16.5 21.5a2 2 0 01-2 2h-6a2 2 0 01-2-2v-7h10v7zM3 14.5h17m-13.5 3h10m1.217-15.408a2.544 2.544 0 00-3.741-1.024 2.537 2.537 0 00-1.091 1.837L12 11.549a3.954 3.954 0 011.954.842L17.72 4.23a2.548 2.548 0 00-.003-2.138zm-6.987 9.481l-.433-8.579A2.54 2.54 0 105.4 4.065l3.394 8.481a3.95 3.95 0 011.936-.973z"/><path d="M15.315 14.5a3.99 3.99 0 00-3.858-2.997A3.99 3.99 0 007.6 14.5h7.715z"/></g><path fill="none" d="M0 0h24v24H0z"/></svg>