<svg xmlns="http://www.w3.org/2000/svg" viewBox="0 0 24 24" width="24" height="24"><path fill="none" stroke="#000" stroke-linecap="round" stroke-linejoin="round" stroke-miterlimit="10" d="M7 8.5v2.473c-1.5 0-1.5 3 0 3 0 3 3.5 5.027 5 5.027m5-10.5v2.473c1.5 0 1.5 3 0 3 0 3-3.5 5.027-5 5.027"/><path fill="none" stroke="#000" stroke-linejoin="round" stroke-miterlimit="10" d="M8 23.5L7 18m9 5.5l1-5.5m-8.195-.502L3.096 19C1.534 19.586.5 21.832.5 23.5h23c0-1.668-1.034-3.914-2.596-4.5l-5.708-1.5M17 8.5l1-7C14.667.166 9.333.166 6 1.5l1 7"/><path fill="none" stroke="#000" stroke-linecap="round" stroke-linejoin="round" stroke-miterlimit="10" d="M9 12c0-.553.448-.5 1-.5.553 0 1-.053 1 .5m2 0c0-.553.448-.5 1-.5.553 0 1-.053 1 .5"/><path fill="none" stroke="#000" stroke-linecap="round" stroke-linejoin="round" stroke-miterlimit="10" d="M18.123 12.393c2.016-.459 3.377-1.137 3.377-1.893C21.5 9.119 17.247 8 12 8s-9.5 1.119-9.5 2.5c0 .756 1.362 1.434 3.377 1.893"/><path fill="none" stroke="#000" stroke-linejoin="round" stroke-miterlimit="10" d="M6.633 5.937C8.16 5.661 10.009 5.5 12 5.5s3.839.16 5.366.437M12 21l-2.5-1v3l2.5-2 2.5 2v-3z"/><path fill="none" d="M0 0h24v24H0z"/></svg>