<svg xmlns="http://www.w3.org/2000/svg" viewBox="0 0 24 24" width="24" height="24"><defs><style>.a{fill:none;stroke:#000;stroke-linecap:round;stroke-linejoin:round;stroke-width:1.5px}</style></defs><title>mailbox-house</title><path class="a" d="M23.071 8.25L20.26 1.221a.751.751 0 0 0-.7-.471H4.079a.749.749 0 0 0-.7.471l-2.4 6a.75.75 0 0 0 .7 1.029h8.884a.751.751 0 0 0 .7-.471L14.071.75"/><path class="a" d="M21.571 4.5v6.75a1.5 1.5 0 0 1-1.5 1.5h-16.5a1.5 1.5 0 0 1-1.5-1.5v-3m13.5-3h3m-6 7.5v10.5m-3-10.5v10.5"/></svg>