<svg xmlns="http://www.w3.org/2000/svg" viewBox="0 0 24 24" width="24" height="24"><defs><style>.a{fill:none;stroke:#000;stroke-linecap:round;stroke-linejoin:round;stroke-width:1.5px}</style></defs><title>mailbox-post-1</title><path class="a" d="M5.25 5.25h13.5v18H5.25zM3 5.25h18m-17.25 18h16.5m-1.5-18H5.25a4.5 4.5 0 0 1 4.5-4.5h4.5a4.5 4.5 0 0 1 4.5 4.5zM9 8.25h6"/><path class="a" d="M15.75 23.25h-7.5v-9a1.5 1.5 0 0 1 1.5-1.5h4.5a1.5 1.5 0 0 1 1.5 1.5z"/><path class="a" d="M12 15.75a.375.375 0 1 0 .375.375.375.375 0 0 0-.375-.375"/></svg>