<svg id="Regular" xmlns="http://www.w3.org/2000/svg" viewBox="0 0 24 24" width="24" height="24"><defs><style>.cls-1{fill:none;stroke:#000;stroke-linecap:round;stroke-linejoin:round;stroke-width:1.5px}</style></defs><title>make-up-lipstick-1</title><path class="cls-1" d="M1.75 12.75h7a1 1 0 0 1 1 1v9a.5.5 0 0 1-.5.5h-8a.5.5 0 0 1-.5-.5v-9a1 1 0 0 1 1-1z"/><rect class="cls-1" x="14.25" y="11.25" width="9" height="12" rx=".5" ry=".5"/><path class="cls-1" d="M2.25 12.75V2.25a.75.75 0 0 1 1.2-.6l4.2 3.15a1.5 1.5 0 0 1 .6 1.2v6.75m-4.5 7.5h3m7.5-3h9m-9 3h9"/></svg>