<svg id="Regular" xmlns="http://www.w3.org/2000/svg" viewBox="0 0 24 24" width="24" height="24"><defs><style>.cls-1{fill:none;stroke:#000;stroke-linecap:round;stroke-linejoin:round;stroke-width:1.5px}</style></defs><title>make-up-brush-set</title><rect class="cls-1" x=".75" y=".749" width="22.5" height="22.5" rx="3" ry="3"/><path class="cls-1" d="M5.25 9.749v9a1.5 1.5 0 0 0 3 0v-9zm4.318-4.611L8.25 9.749h-3L3.932 5.138a.755.755 0 0 1 .468-.913 7.068 7.068 0 0 1 2.35-.476 7.068 7.068 0 0 1 2.35.476.755.755 0 0 1 .468.913zm3.182 9.111h6v3a1.5 1.5 0 0 1-1.5 1.5h-3a1.5 1.5 0 0 1-1.5-1.5zm0-4.5h6v4.5h-6zm1.5-4.5h3a1.5 1.5 0 0 1 1.5 1.5v3h-6v-3a1.5 1.5 0 0 1 1.5-1.5z"/></svg>