<svg id="Regular" xmlns="http://www.w3.org/2000/svg" viewBox="0 0 24 24" width="24" height="24"><defs><style>.cls-1{fill:none;stroke:#000;stroke-linecap:round;stroke-linejoin:round;stroke-width:1.5px}</style></defs><title>make-up-brush</title><path class="cls-1" d="M8.9 9.27l-6.92 6.92a4.078 4.078 0 0 0 5.767 5.766l6.92-6.92zm0 0l1.434-7.17A1.62 1.62 0 0 1 12.229.818a13.891 13.891 0 0 1 7.051 3.839 13.9 13.9 0 0 1 3.839 7.051 1.621 1.621 0 0 1-1.286 1.892l-7.166 1.433m-8.073-3.456l5.766 5.766m6.92-12.686l-2.307 2.306m-1.982-5.261l-1.478 2.955m8.722 4.289l-2.955 1.477"/></svg>