<svg id="Regular" xmlns="http://www.w3.org/2000/svg" viewBox="0 0 24 24" width="24" height="24"><defs><style>.cls-1{fill:none;stroke:#000;stroke-linecap:round;stroke-linejoin:round;stroke-width:1.5px}</style></defs><title>make-up-mascara-small</title><path class="cls-1" d="M1.25 12.75h8a.5.5 0 0 1 .5.5v8a2 2 0 0 1-2 2h-5a2 2 0 0 1-2-2v-8a.5.5 0 0 1 .5-.5z"/><path class="cls-1" d="M16.25.75h6.5a.5.5 0 0 1 .5.5v8a2 2 0 0 1-2 2h-3.5a2 2 0 0 1-2-2v-8a.5.5 0 0 1 .5-.5z" transform="rotate(180 19.5 6)"/><path class="cls-1" d="M5.25.75v12m-1.5-10.5h3m-4.5 3h6m-4.5 3h3m9 0h7.5"/></svg>