<svg id="Regular" xmlns="http://www.w3.org/2000/svg" viewBox="0 0 24 24" width="24" height="24"><defs><style>.cls-1{fill:none;stroke:#000;stroke-linecap:round;stroke-linejoin:round;stroke-width:1.5px}</style></defs><title>make-up-nail-polisher</title><path class="cls-1" d="M18.783 15.085l-2.022 7.078a1.5 1.5 0 0 1-1.442 1.087H8.581a1.5 1.5 0 0 1-1.442-1.087l-2.022-7.078a2.99 2.99 0 0 1 1.759-3.609 13.677 13.677 0 0 1 10.148 0 2.99 2.99 0 0 1 1.759 3.609z"/><path class="cls-1" d="M8.924 10.842l.723-9.4A.75.75 0 0 1 10.4.75h3.111a.75.75 0 0 1 .747.693l.723 9.4M14.2 20.25H9.7l-.75-6h6l-.75 6z"/></svg>