<svg id="Regular" xmlns="http://www.w3.org/2000/svg" viewBox="0 0 24 24" width="24" height="24"><defs><style>.cls-1{fill:none;stroke:#000;stroke-linecap:round;stroke-linejoin:round;stroke-width:1.5px}</style></defs><title>make-up-lipstick</title><path class="cls-1" d="M3.717 12.751h8.2a.5.5 0 0 1 .5.5v7.185a1 1 0 0 1-1 1h-7.2a1 1 0 0 1-1-1v-7.185a.5.5 0 0 1 .5-.5z" transform="rotate(45 7.816 17.093)"/><path class="cls-1" d="M9.977 8.79h6.152a.5.5 0 0 1 .5.5v5.63H9.477V9.29a.5.5 0 0 1 .5-.5z" transform="rotate(45 13.052 11.855)"/><path class="cls-1" d="M20.7 7.82l-3.675 3.674-3.611-3.612 6.714-6.714a.511.511 0 0 1 .872.361V7.1a1.026 1.026 0 0 1-.3.72z"/></svg>