<svg id="Regular" xmlns="http://www.w3.org/2000/svg" viewBox="0 0 24 24" width="24" height="24"><defs><style>.cls-1{fill:none;stroke:#000;stroke-linecap:round;stroke-linejoin:round;stroke-width:1.5px}</style></defs><title>make-up-eye</title><path class="cls-1" d="M21.007 12.54a.515.515 0 0 1 0 .587 10.928 10.928 0 0 1-9.242 4.373 10.929 10.929 0 0 1-9.242-4.373.513.513 0 0 1 0-.587 10.929 10.929 0 0 1 9.242-4.373 10.931 10.931 0 0 1 9.242 4.373z"/><circle class="cls-1" cx="11.765" cy="12.834" r="4.667"/><path class="cls-1" d="M11.765 12.459a.375.375 0 0 1 .375.375m-.75 0a.375.375 0 0 1 .375-.375m0 .75a.375.375 0 0 1-.375-.375m.75 0a.375.375 0 0 1-.375.375m9.054-.926A3.488 3.488 0 0 0 23.25 8.7m-5.726.824a3.5 3.5 0 0 0 .914-4.08m-5.914 2.743a3.7 3.7 0 0 0-.424-4.341M8.2 8.642a3.62 3.62 0 0 0-2.715-3.349m-1.401 5.542a3.427 3.427 0 0 0-3.3-2.287"/></svg>