<svg id="Regular" xmlns="http://www.w3.org/2000/svg" viewBox="0 0 24 24" width="24" height="24"><defs><style>.cls-1{fill:none;stroke:#000;stroke-linecap:round;stroke-linejoin:round;stroke-width:1.5px}</style></defs><title>make-up-mirror-1</title><path class="cls-1" d="M6.751 18.75a9.75 9.75 0 1 1 10.5 0m5.249 0h-6.314a.738.738 0 0 0-.632.346c-.271.443-.788 1.154-1.3 1.154H9.75c-.516 0-1.033-.711-1.3-1.154a.738.738 0 0 0-.632-.346H1.5a.75.75 0 0 0-.75.75v.75a3 3 0 0 0 3 3h16.5a3 3 0 0 0 3-3v-.75a.75.75 0 0 0-.75-.75z"/><circle class="cls-1" cx="12" cy="10.5" r="6.75"/></svg>