<svg xmlns="http://www.w3.org/2000/svg" viewBox="0 0 24 24" width="24" height="24"><g fill="none" stroke="#000" stroke-linecap="round" stroke-linejoin="round" stroke-miterlimit="10"><path d="M12 16.5c1.5 0 5-2 5-5 1.5 0 1.5-3 0-3L16.5 6c-4 0-4-1.5-4.5-2-.5.5-.5 2-4.5 2L7 8.5c-1.5 0-1.5 3 0 3 0 3 3.5 5 5 5z"/><path d="M17.977 9.219L18.5 5.5s.5-5-6.5-5-6.5 5-6.5 5l.533 3.695m3.237 6.187l-6.174 1.873A4 4 0 00.5 21v2.5h23V21a3.998 3.998 0 00-2.596-3.745l-6.174-1.873"/><path d="M9 9.5c0-.553.448-.5 1-.5s1-.053 1 .5m2 0c0-.553.448-.5 1-.5s1-.053 1 .5"/></g><path fill="none" d="M0 0h24v24H0z"/></svg>