<svg xmlns="http://www.w3.org/2000/svg" viewBox="0 0 24 24" width="24" height="24"><defs><style>.a{fill:none;stroke:#000;stroke-linecap:round;stroke-linejoin:round;stroke-width:1.5px}</style></defs><title>maps-pin-1</title><path class="a" d="M23.25 9V4.65a1.5 1.5 0 0 0-.943-1.393l-6-2.4a1.5 1.5 0 0 0-1.114 0L8.807 3.412a1.5 1.5 0 0 1-1.114 0L1.779 1.046a.75.75 0 0 0-1.029.7v14.373a1.5 1.5 0 0 0 .943 1.393l6 2.4a1.5 1.5 0 0 0 1.114 0l2.881-1.153M8.25 3.519v16.5M15.75.75v7.5m3 7.199a.375.375 0 0 1 .375.375m-.75 0a.375.375 0 0 1 .375-.375m0 .751a.375.375 0 0 1-.375-.375m.75-.001a.375.375 0 0 1-.375.375"/><path class="a" d="M18.75 11.324a4.5 4.5 0 0 1 4.5 4.5c0 1.921-2.688 5.576-3.909 7.138a.75.75 0 0 1-1.182 0c-1.221-1.561-3.909-5.217-3.909-7.138a4.5 4.5 0 0 1 4.5-4.5z"/></svg>