<svg xmlns="http://www.w3.org/2000/svg" viewBox="0 0 24 24" width="24" height="24"><defs><style>.a{fill:none;stroke:#000;stroke-linecap:round;stroke-linejoin:round;stroke-width:1.5px}</style></defs><title>maps-search</title><path class="a" d="M23.25 11.25v-6.6a1.5 1.5 0 0 0-.943-1.393l-6-2.4a1.5 1.5 0 0 0-1.114 0L8.807 3.412a1.5 1.5 0 0 1-1.114 0L1.779 1.046a.75.75 0 0 0-1.029.7v14.373a1.5 1.5 0 0 0 .943 1.393l6 2.4a1.5 1.5 0 0 0 1.114 0M8.25 3.519v7.731m7.5-10.5V7.5"/><circle class="a" cx="16.5" cy="16.5" r="5.25"/><path class="a" d="M23.25 23.25l-3.014-3.014"/></svg>