<svg xmlns="http://www.w3.org/2000/svg" viewBox="0 0 24 24" width="24" height="24"><defs><style>.a{fill:none;stroke:#000;stroke-linecap:round;stroke-linejoin:round;stroke-width:1.5px}</style></defs><title>maps-pin</title><path class="a" d="M12.13 4.875a.375.375 0 0 1 .375.375m-.75 0a.375.375 0 0 1 .375-.375m0 .75a.375.375 0 0 1-.375-.375m.75 0a.375.375 0 0 1-.375.375"/><path class="a" d="M12.13.75a4.5 4.5 0 0 1 4.5 4.5c0 1.921-2.688 5.576-3.909 7.138a.75.75 0 0 1-1.182 0C10.318 10.827 7.63 7.171 7.63 5.25a4.5 4.5 0 0 1 4.5-4.5z"/><path class="a" d="M6.135 9.781a1.5 1.5 0 0 0-1.108.97l-3.441 10.5A1.5 1.5 0 0 0 3 23.25h18.26a1.5 1.5 0 0 0 1.414-2l-3.441-10.5a1.5 1.5 0 0 0-1.117-.971M7.63 23.249l1.5-8.999m7.5 8.999l-1.5-8.999m-12.696 4.5h19.421M3.88 14.25h5.25m6 0h5.25"/></svg>