<svg xmlns="http://www.w3.org/2000/svg" viewBox="0 0 24 24" width="24" height="24"><defs><style>.a{fill:none;stroke:#000;stroke-linecap:round;stroke-linejoin:round;stroke-width:1.5px}</style></defs><title>maps-pin-2</title><path class="a" d="M8.25 11.769a1.511 1.511 0 0 1-.557-.107L1.779 9.3A.75.75 0 0 0 .75 10v9.35a1.5 1.5 0 0 0 .943 1.393l6 2.4a1.5 1.5 0 0 0 1.114 0l6.386-2.555a1.5 1.5 0 0 1 1.114 0l5.914 2.366a.75.75 0 0 0 1.029-.7V12.9a1.5 1.5 0 0 0-.943-1.393l-6-2.4a1.5 1.5 0 0 0-1.114 0l-.906.363M8.25 11.769V23.25M15.75 9v11.481M11.25 6.75v9"/><circle class="a" cx="11.25" cy="3.75" r="3"/></svg>