<svg xmlns="http://www.w3.org/2000/svg" viewBox="0 0 24 24" width="24" height="24"><defs><style>.a{fill:none;stroke:#000;stroke-linecap:round;stroke-linejoin:round;stroke-width:1.5px}</style></defs><title>maps-mark</title><path class="a" d="M.75 6.26a1.5 1.5 0 0 1 .943-1.393l5.381-2.152a3 3 0 0 1 2.333.044l4.487 1.994a3 3 0 0 0 2.244.078l5.1-1.855a1.5 1.5 0 0 1 2.013 1.41v13.308a1.5 1.5 0 0 1-.987 1.409l-6.125 2.228a3 3 0 0 1-2.244-.078l-4.488-1.994a3 3 0 0 0-2.333-.044l-4.267 1.707A1.5 1.5 0 0 1 .75 19.529zm11.625 4.984a.375.375 0 0 1 .375.375m-.75 0a.375.375 0 0 1 .375-.375m0 .75a.375.375 0 0 1-.375-.375m.75 0a.375.375 0 0 1-.375.375m-3 1.756a.375.375 0 0 1 .375.375m-.75 0a.375.375 0 0 1 .375-.375m0 .75A.375.375 0 0 1 9 14.125m.75 0a.375.375 0 0 1-.375.375m-3-3a.375.375 0 0 1 .375.375m-.75 0a.375.375 0 0 1 .375-.375m0 .75A.375.375 0 0 1 6 11.875m.75 0a.375.375 0 0 1-.375.375m-2.25 2.25a.375.375 0 0 1 .375.375m-.75 0a.375.375 0 0 1 .375-.375m0 .75a.375.375 0 0 1-.375-.375m.75 0a.375.375 0 0 1-.375.375M15.75 8.244l4.5 4.5m-4.5 0l4.5-4.5"/></svg>