<svg xmlns="http://www.w3.org/2000/svg" viewBox="0 0 24 24" width="24" height="24"><defs><style>.a{fill:none;stroke:#000;stroke-linecap:round;stroke-linejoin:round;stroke-width:1.5px}</style></defs><title>maps</title><path class="a" d="M16.307 2.838a1.5 1.5 0 0 0-1.114 0L8.807 5.393a1.5 1.5 0 0 1-1.114 0L1.779 3.027a.75.75 0 0 0-1.029.7V18.1a1.5 1.5 0 0 0 .943 1.393l6 2.4a1.5 1.5 0 0 0 1.114 0l6.386-2.555a1.5 1.5 0 0 1 1.114 0l5.914 2.362a.75.75 0 0 0 1.029-.7V6.631a1.5 1.5 0 0 0-.943-1.393zM8.25 5.5V22m7.5-19.269v16.5"/></svg>