<svg xmlns="http://www.w3.org/2000/svg" viewBox="0 0 24 24" width="24" height="24"><g fill="none" stroke="#000" stroke-linejoin="round" stroke-miterlimit="10"><circle cx="6" cy="8" r="5.001"/><path d="M1.499 10.122l4.148.354-1.062-3.889 3.89 1.06-.353-4.145"/><circle cx="18" cy="8" r="5.001"/><path d="M22.501 10.122l-4.148.354 1.062-3.889-3.89 1.06.353-4.145m.294 9.154l-6.657 6.657a2 2 0 01-2.828-2.828l6.658-6.658m-1.346 1.344l-1.344-1.344"/><path d="M12 16.828l2.484 2.485a2 2 0 002.828-2.828l-2.487-2.487m-6.998-1.343L9.173 14"/></g><path fill="none" d="M0 0h24v24H0z"/></svg>