<svg xmlns="http://www.w3.org/2000/svg" viewBox="0 0 24 24" width="24" height="24"><g fill="none" stroke="#000" stroke-linecap="round" stroke-linejoin="round" stroke-miterlimit="10"><path d="M20.5 10.5c1.221-1.055 2-2.511 2-4.25A5.75 5.75 0 0016.75.5h-9.5A5.75 5.75 0 001.5 6.25c0 1.743.775 3.195 2 4.25h17z"/><path d="M9 5.5l1.5-3 1.5 2 1.5-2 1.5 3m5.5 5c0-1.656-1.344-3-3-3h-11a3 3 0 00-3 3V15a8.5 8.5 0 0017 0v-4.5zM3 11.5a2.5 2.5 0 100 5m18 0a2.5 2.5 0 100-5M8.5 13v1m7-1v1"/><path d="M11.987 19.648a1.75 1.75 0 01-3.087-.153l-.55-.993a1.502 1.502 0 01-2.524-.483l-.576-1.535L9.75 16c0 1.242 1.008 2.5 2.25 2.5s2.25-1.258 2.25-2.5l4.484.484-.576 1.534a1.501 1.501 0 01-2.524.484l-.55.993a1.75 1.75 0 01-3.087.153"/></g><path fill="none" d="M0 0h24v24H0z"/></svg>