<svg id="Regular" xmlns="http://www.w3.org/2000/svg" viewBox="0 0 24 24" width="24" height="24"><defs><style>.cls-1{fill:none;stroke:#000;stroke-linecap:round;stroke-linejoin:round;stroke-width:1.5px}</style></defs><title>marine-mammal-turtle-1</title><ellipse class="cls-1" cx="12" cy="15.75" rx="6" ry="7.5"/><path class="cls-1" d="M10.5 8.465c.047-2.419-.75-3.165-.75-4.715 0-1.657 1.5-3 2.25-3s2.25 1.343 2.25 3c0 1.547-.8 2.3-.748 4.715M8.257 9.776C7.9 8.339 6.832 6.75 5.25 6.75c-2.25 0-4.5 3-4.5 6.75a3.25 3.25 0 0 0 3-1.5m11.993-2.224C16.1 8.339 17.168 6.75 18.75 6.75c2.25 0 4.5 3 4.5 6.75a3.25 3.25 0 0 1-3-1.5M6.146 17.318C4.831 16.7 3.3 16.65 2.7 18a5.093 5.093 0 0 0 .66 5.25s1.318 0 1.318-2.25m13.176-3.682C19.169 16.7 20.7 16.65 21.3 18a5.093 5.093 0 0 1-.66 5.25s-1.318 0-1.318-2.25M7.198 11.099L12 13.5l4.802-2.401m-5.907 1.848l-4.253 5.954m6.463-5.954l4.253 5.954m-9.226-2.085L12 18.75l3.868-1.934m-4.413 1.661L8.96 21.803m3.64-3.353l1.877 3.754"/></svg>