<svg id="Regular" xmlns="http://www.w3.org/2000/svg" viewBox="0 0 24 24" width="24" height="24"><defs><style>.cls-1{fill:none;stroke:#000;stroke-linecap:round;stroke-linejoin:round;stroke-width:1.5px}</style></defs><title>marine-mammal-dolphin-1</title><path class="cls-1" d="M17.682 11.75s-2.25 3-5.25 3a10.037 10.037 0 0 0 .75-3.75"/><path class="cls-1" d="M14.748 14.174c5.286 1.84 8.184.782 8.184-3.174 0-3.907-3.78-5.956-7.847-6.276a5.7 5.7 0 0 0-4.153-3.474 7.03 7.03 0 0 1-.1 3.778C4.445 6.5.8 12.011 2.43 18.352a3.718 3.718 0 0 0-1.615 3.9 7.48 7.48 0 0 0 3.021-1.482 7.486 7.486 0 0 0 3.346.364 3.915 3.915 0 0 0-2.005-2.844c.653-2.229 2.752-7.414 7.7-4.822m5.93-4.718a.375.375 0 0 1 .375.375m-.75 0a.375.375 0 0 1 .375-.375m0 .75a.375.375 0 0 1-.375-.375m.75 0a.375.375 0 0 1-.375.375"/></svg>