<svg xmlns="http://www.w3.org/2000/svg" viewBox="0 0 24 24" width="24" height="24"><g fill="none" stroke="#000" stroke-linecap="round" stroke-linejoin="round" stroke-miterlimit="10"><path d="M15.496 1.761A6.472 6.472 0 0012 .743c-1.289 0-2.49.375-3.5 1.021M6.104 4.505A6.461 6.461 0 005.5 7.243l-1.474.387A3.5 3.5 0 005 14.493h14a3.5 3.5 0 003.5-3.5c0-1.613-1.09-2.97-2.573-3.377L18.5 7.243c0-.984-.218-1.916-.608-2.75"/><path d="M9.5 10.493l-1.5 2-1.5-2h11l-1.5 2-1.5-2m-1-5l4-3.5a1.5 1.5 0 012.121 0L21 3.493m-10.5 2l-4-3.5a1.5 1.5 0 00-2.121 0L3 3.493m5 11.028a5.986 5.986 0 00-2 4.473v1l2.5 3.5h7l2.5-3.5v-1a5.99 5.99 0 00-1.999-4.473"/><path d="M8.5 23.493h-7v-1c0-.361.191-.679.479-.854L6 19.993m9.5 3.5h7v-1a.998.998 0 00-.479-.854L18 19.993m-9.5-1.5a1 1 0 01.328-.742L12 15.993l3.172 1.76a.997.997 0 01.328.74m-7 1.5v.5m7-.5v.5m-7-14v1.5m7-1.5v1.5"/></g><path fill="none" d="M0 0h24v24H0z"/></svg>