<svg xmlns="http://www.w3.org/2000/svg" viewBox="0 0 24 24" width="24" height="24"><g fill="none" stroke="#000" stroke-linejoin="round" stroke-miterlimit="10"><path d="M5.5 17.5c0-2.666 13-2.666 13 0v2a4 4 0 01-4 4h-5a4 4 0 01-4-4v-2z"/><path d="M5.526 19.486a4.996 4.996 0 01-3.188-1.627C-.592 14.605 1.021.514 12 .514c10.809 0 12.646 14.031 9.662 17.346-.772.857-2.037 1.465-3.162 1.641"/><path d="M19.804 4.068C19.4 5.252 18.318 6 17 6a3 3 0 01-3-3c0-.779.396-1.582.885-2.115"/><circle cx="18" cy="12" r="2"/><circle cx="7.5" cy="10.5" r="3.5"/><path stroke-linecap="round" d="M9.5 18v2m5-2v2"/></g><path fill="none" d="M0 0h24v24H0z"/></svg>