<svg xmlns="http://www.w3.org/2000/svg" viewBox="0 0 24 24" width="24" height="24"><g fill="none" stroke="#000" stroke-linecap="round" stroke-linejoin="round" stroke-miterlimit="10"><path d="M9.5 6.5V8m5-1.5V8M12 14l-2.5 9.5m-5 0a2.5 2.5 0 01-2-1l-2-4h4a2.5 2.5 0 012 1l1.5 4H4.5zm11.5 0a2.5 2.5 0 002-1l2-4h-4a2.5 2.5 0 00-2 1l-1.5 4H16zM.5 7A6.5 6.5 0 007 13.5h10a6.5 6.5 0 100-13H7A6.5 6.5 0 00.5 7z"/><path d="M4.5 7A3.5 3.5 0 008 10.5h8.5a3.5 3.5 0 100-7H8A3.5 3.5 0 004.5 7z"/></g><path fill="none" d="M0 0h24v24H0z"/></svg>