<svg xmlns="http://www.w3.org/2000/svg" viewBox="0 0 24 24" width="24" height="24"><g fill="none" stroke="#000" stroke-linecap="round" stroke-miterlimit="10"><path stroke-linejoin="round" d="M.5.5h23v23H.5z"/><path stroke-linejoin="round" d="M13.5 14.3a5.48 5.48 0 004-5.3 5.5 5.5 0 00-11 0h3a2.5 2.5 0 112.5 2.5h-.5a1 1 0 00-1 1v4h3v-2.2z"/><circle stroke-linejoin="round" cx="12" cy="20" r="1.5"/><path stroke-linejoin="round" d="M2.5 2.5l2 2m-2 0l2-2"/><path d="M21.5 2.5l-2 2"/><path stroke-linejoin="round" d="M19.5 2.5l2 2m-2 15l2 2m0-2l-2 2m-17-2l2 2m0-2l-2 2"/></g><path fill="none" d="M0 0h24v24H0z"/></svg>