<svg id="Regular" xmlns="http://www.w3.org/2000/svg" viewBox="0 0 24 24" width="24" height="24"><defs><style>.cls-1{fill:none;stroke:#000;stroke-linecap:round;stroke-linejoin:round;stroke-width:1.5px}</style></defs><title>marine-mammal-seal</title><path class="cls-1" d="M9.431 13.77C8.4 20.444 5.25 22.02 5.25 22.02s3.75 3 6-1.5M18.75 5c0-2.071-2.015-3.75-4.5-3.75S9.75 2.929 9.75 5m7.5 15.52c2.25 4.5 6 1.5 6 1.5s-3.154-1.576-4.181-8.25"/><path class="cls-1" d="M10.281 21.947a14.676 14.676 0 0 0 3.969.823 14.7 14.7 0 0 0 3.97-.823M12.375 5.75a.375.375 0 0 1 .375.375m-.75 0a.375.375 0 0 1 .375-.375m0 .75A.375.375 0 0 1 12 6.125m.75 0a.375.375 0 0 1-.375.375m3.75-.75a.375.375 0 0 1 .375.375m-.75 0a.375.375 0 0 1 .375-.375m0 .75a.375.375 0 0 1-.375-.375m.75 0a.375.375 0 0 1-.375.375M13.5 8.75H15M20.25 8L18 9.5l2.25 1.5m-12-3l2.25 1.5L8.25 11m-1.388 9.52c-.922 0-3.222-.806-4.492-5.25-2.25-.75-1.5-3.75-1.5-3.75s2.88 1.5 5.13 0c.75 1.5-.75 3-.75 3"/></svg>