<svg id="Regular" xmlns="http://www.w3.org/2000/svg" viewBox="0 0 24 24" width="24" height="24"><defs><style>.cls-1,.cls-2{fill:none;stroke:#000;stroke-linecap:round;stroke-linejoin:round;stroke-width:1.5px}.cls-1{fill-rule:evenodd}</style></defs><title>marine-mammal-turtle</title><path class="cls-1" d="M7.893 8H6.882a2.852 2.852 0 0 1-1.358-.334A3.659 3.659 0 0 0 3.8 7.25c-1.656 0-3 1.5-3 3.75.75 0 1.344.75 3 .75a3.64 3.64 0 0 0 1.724-.417A2.87 2.87 0 0 1 6.882 11h1.262"/><path class="cls-1" d="M20.3 12.5a3.971 3.971 0 0 0 2.25-3c0-2.485-3-5.25-8.25-5.25-3.728 0-6.75 2.765-6.75 5.25 0 1.2.664 1.639 1.808 2.446a4.734 4.734 0 0 0 .392 4.414 5.837 5.837 0 0 0 4.5 2.25 7.629 7.629 0 0 0-1.069-5.321 10.08 10.08 0 0 0 1.069.071 12.524 12.524 0 0 0 3.034-.4 3.217 3.217 0 0 0 2.216 2.65c2.25.75 3.75-1.5 3.75-1.5z"/><path class="cls-2" d="M7.663 10.25H22.41m-11.111 0l5.018-5.854m-1.556 1.816l4.038 4.038m1.425-4.424L17.299 8.75"/></svg>