<svg xmlns="http://www.w3.org/2000/svg" viewBox="0 0 24 24" width="24" height="24"><g fill="none" stroke="#000" stroke-linejoin="round" stroke-miterlimit="10"><path d="M6 4.493l1.053 4.499a5.251 5.251 0 0010.393.001l.554-4"/><path stroke-linecap="round" d="M15.447 1.397a2.25 2.25 0 113.222 3.091l-3.961 3.087a3.735 3.735 0 01-2.458.918c-1.088 0-2.083-.375-2.75-1.021L5.84 4.497a2.25 2.25 0 113.001-3.346l3.409 3.342 3.197-3.096zM12 13.493l-2.5 10m-3.95-3a2.25 2.25 0 01-1.8-.9l-1.8-3.1h3.6c.736 0 1.389.354 1.801.899l1.35 3.101H5.55zm10.1 1a2.25 2.25 0 001.8-.9l1.8-3.1h-3.6c-.735 0-1.389.354-1.8.899l-1.35 3.101h3.15z"/></g><path fill="none" d="M0 0h24v24H0z"/></svg>