<svg id="Regular" xmlns="http://www.w3.org/2000/svg" viewBox="0 0 24 24" width="24" height="24"><defs><style>.cls-1{fill:none;stroke:#000;stroke-linecap:round;stroke-linejoin:round;stroke-width:1.5px}</style></defs><title>marine-mammal-dolphin</title><path class="cls-1" d="M23.251 22.633A5.956 5.956 0 0 1 16.5 21a5.928 5.928 0 0 1-9 0 5.958 5.958 0 0 1-6.75 1.633m21.103-9.913a3.646 3.646 0 0 0-1.718-.641A9.749 9.749 0 0 0 13.5 4.224c-.019-.859-.122-3.474-.749-3.474-1.7 0-3.4 2.143-4.13 3.188a9.742 9.742 0 0 0-5.156 2.824A3.676 3.676 0 0 0 3 10.5a3.612 3.612 0 0 0-.75 2.25 1.332 1.332 0 0 0 1.51 1.314 9.821 9.821 0 0 1 3.855-2.836A3.166 3.166 0 0 0 9.751 13.5a8.662 8.662 0 0 0 .71-2.955c.262-.021.523-.045.79-.045a9.627 9.627 0 0 1 6.055 2.143 3.641 3.641 0 0 0-1.237 1.084 3.951 3.951 0 0 0-.444 3.548 3.948 3.948 0 0 0 3.191-1.617 3.642 3.642 0 0 0 .408-.775 3.581 3.581 0 0 0 .673.618 3.935 3.935 0 0 0 3.56.426 3.938 3.938 0 0 0-1.604-3.207z"/></svg>