<svg id="Regular" xmlns="http://www.w3.org/2000/svg" viewBox="0 0 24 24" width="24" height="24"><defs><style>.cls-1{fill:none;stroke:#000;stroke-linecap:round;stroke-linejoin:round;stroke-width:1.5px}</style></defs><title>marine-mammal-seal-ball</title><path class="cls-1" d="M3.446 20.252a3.347 3.347 0 0 0-2.621 1.932.75.75 0 0 0 .68 1.066h20.744a.751.751 0 0 0 .745-.847c-.118-.9-.713-2.215-3.162-2.241.153-1.412-.6-2.912-2.847-4.412a7.911 7.911 0 0 0-8.25-.75s0-6-3.75-6.75a8.839 8.839 0 0 0-3.75 7.5 14.811 14.811 0 0 0 .157 2.233"/><circle class="cls-1" cx="4.985" cy="4.5" r="3.75"/><path class="cls-1" d="M5.36 12a.375.375 0 0 1 .375.375m-.75 0A.375.375 0 0 1 5.36 12m0 .75a.375.375 0 0 1-.375-.375m.75 0a.375.375 0 0 1-.375.375M2.333 1.848l5.303 5.304m0-5.304L2.333 7.152"/></svg>