<svg id="Regular" xmlns="http://www.w3.org/2000/svg" viewBox="0 0 24 24" width="24" height="24"><defs><style>.cls-1{fill:none;stroke:#000;stroke-linecap:round;stroke-linejoin:round;stroke-width:1.5px}</style></defs><title>martial-arts-kimono</title><path class="cls-1" d="M20.25 10.5l3-3-3.361-3.921C18.958 2.517 17.25.75 12 .75S5.042 2.517 4.111 3.579L.75 7.5l3 3 3-2.25.75 6-1.178 7.232A1.5 1.5 0 0 0 7.8 23.25h8.4a1.5 1.5 0 0 0 1.475-1.768L16.5 14.25l.75-6zM7.5 14.25l7.76-13.218m-3.35 5.706L8.74 1.032M16.5 14.25h-9m4.5 0l-1.5 4.5m1.5-4.5l1.5 4.5"/></svg>