<svg id="Regular" xmlns="http://www.w3.org/2000/svg" viewBox="0 0 24 24" width="24" height="24"><defs><style>.cls-1{fill:none;stroke:#000;stroke-linecap:round;stroke-linejoin:round;stroke-width:1.5px}</style></defs><title>martial-arts-sumo</title><path class="cls-1" d="M10.5 19.1a4.422 4.422 0 0 0-2.966 3.71.5.5 0 0 1-.5.44H5.692a.5.5 0 0 1-.485-.376 6.759 6.759 0 0 1-.187-1.58c0-1.838 1.078-4.794 2.605-5.544m-.667-4.115a41.215 41.215 0 0 0 .667 4.115m5.865 3.35a4.425 4.425 0 0 1 2.968 3.712.493.493 0 0 0 .5.44H18.3a.5.5 0 0 0 .485-.376 6.759 6.759 0 0 0 .187-1.58c0-1.838-1.077-4.794-2.605-5.544m.666-4.117a41.215 41.215 0 0 1-.667 4.115"/><path class="cls-1" d="M6.958 11.636a20.6 20.6 0 0 0-4.689 1.8.5.5 0 0 1-.664-.178l-.784-1.282a.483.483 0 0 1 .12-.636 18.033 18.033 0 0 1 9.507-3.677m6.582 3.972a20.506 20.506 0 0 1 4.692 1.8.5.5 0 0 0 .663-.176l.792-1.277a.482.482 0 0 0-.118-.639 18.031 18.031 0 0 0-9.515-3.683m1.441-2.508a2.99 2.99 0 0 1-5.979 0m0 0V2.6A3.6 3.6 0 0 1 12 .75a3.6 3.6 0 0 1 2.985 1.85v2.552M7.625 15.75l2.876 3.348 2.991.001 2.874-3.349M7.442 15h9.108"/></svg>