<svg id="Regular" xmlns="http://www.w3.org/2000/svg" viewBox="0 0 24 24" width="24" height="24"><defs><style>.cls-1{fill:none;stroke:#000;stroke-linecap:round;stroke-linejoin:round;stroke-width:1.5px}</style></defs><title>martial-arts-helmet</title><ellipse class="cls-1" cx="12" cy="8.25" rx="6.75" ry="7.5"/><path class="cls-1" d="M9.75 18.859a11.262 11.262 0 0 1-7.268 4.373A1.5 1.5 0 0 1 .75 21.75v-1.523a1.5 1.5 0 0 1 1.228-1.474 6.769 6.769 0 0 0 5.344-5.1m6.928 5.206a11.262 11.262 0 0 0 7.268 4.373 1.5 1.5 0 0 0 1.732-1.482v-1.523a1.5 1.5 0 0 0-1.228-1.474 6.769 6.769 0 0 1-5.344-5.1m-6.928 1.67v4.927a1.5 1.5 0 0 0 1.5 1.5h1.5a1.5 1.5 0 0 0 1.5-1.5v-4.927M5.559 6h12.882M5.559 10.5h12.882M12 .75v15"/></svg>