<svg id="Regular" xmlns="http://www.w3.org/2000/svg" viewBox="0 0 24 24" width="24" height="24"><defs><style>.cls-1{fill:none;stroke:#000;stroke-linecap:round;stroke-linejoin:round;stroke-width:1.5px}</style></defs><title>martial-arts-karate</title><circle class="cls-1" cx="5.523" cy="5.508" r="2.625"/><path class="cls-1" d="M7.644 2.856L2.871 7.629H.75M2.871 9.75V7.629m19.773-.499a1.5 1.5 0 0 0-2.117.124l-5.011 5.638-4.024-3.521.242-.272a1.518 1.518 0 0 1 .649-.43l.721-.24a4.5 4.5 0 0 0 2.755-5.94l-.318-.795a1.5 1.5 0 1 0-2.786 1.113l.318.8a1.5 1.5 0 0 1-.919 1.98l-.719.239A4.52 4.52 0 0 0 9.494 7.1l-3.587 4.041a4.5 4.5 0 0 0 .18 6.169l1 1a1.5 1.5 0 1 0 2.122-2.12l-1-1a1.5 1.5 0 0 1-.06-2.056L9.5 11.613l4.649 4.069v6.068a1.5 1.5 0 0 0 3 0v-6.181l5.621-6.323a1.5 1.5 0 0 0-.126-2.116z"/></svg>