<svg id="Regular" xmlns="http://www.w3.org/2000/svg" viewBox="0 0 24 24" width="24" height="24"><defs><style>.cls-1{fill:none;stroke:#000;stroke-linecap:round;stroke-linejoin:round;stroke-width:1.5px}</style></defs><title>martial-arts-swords</title><path class="cls-1" d="M9.75 16.325l-6.495 6.5a1.467 1.467 0 0 1-2.075-2.08l6.5-6.5M4 14.466L9.534 20m8.444-16.053l2.075 2.075M20 14.466L14.466 20m6.279 2.82a1.467 1.467 0 0 0 2.075-2.075L3.255 1.18A1.467 1.467 0 0 0 1.18 3.255zM6.022 3.947L3.947 6.022M14.25 7.675l6.5-6.495a1.467 1.467 0 0 1 2.07 2.075l-6.5 6.5"/></svg>