<svg xmlns="http://www.w3.org/2000/svg" viewBox="0 0 24 24" width="24" height="24"><defs><style>.a{fill:none;stroke:#000;stroke-linecap:round;stroke-linejoin:round;stroke-width:1.5px}</style></defs><title>mask-heart-double</title><rect class="a" x=".75" y=".75" width="22.5" height="22.5" rx="1" ry="1"/><path class="a" d="M8.258 13.346l-3.677-3.9a2.922 2.922 0 0 1-.532-3.329 2.812 2.812 0 0 1 4.543-.749l.783.8.783-.8a2.812 2.812 0 0 1 4.543.749 2.916 2.916 0 0 1 .283 1.591"/><path class="a" d="M13.875 20.25l-4.794-5.085a2.924 2.924 0 0 1-.532-3.33 2.812 2.812 0 0 1 4.543-.749l.783.8.783-.8a2.812 2.812 0 0 1 4.543.749 2.924 2.924 0 0 1-.532 3.33z"/></svg>