<svg xmlns="http://www.w3.org/2000/svg" viewBox="0 0 24 24" width="24" height="24"><g fill="none" stroke="#000" stroke-linecap="round" stroke-linejoin="round" stroke-miterlimit="10"><path d="M10.679 2.214C9.28 3.062 8 4.762 8 6.5c0 1.427.62 2.867 1.607 3.75.817-.735 1.438-2.074 1.607-3.215C13.889 8.283 15.5 11.133 15.5 14a7.5 7.5 0 01-15 0C.5 8.209 5.049 3.156 10.679 2.214z"/><path d="M7.55 14.515a1.99 1.99 0 00.878 3.742 1.997 1.997 0 001.547-.646l1.632-1.784-1.934-2.471-2.123 1.159zm3.012-.023l11.743-9.664"/></g><path fill="none" d="M0 0h24v24H0z"/></svg>