<svg xmlns="http://www.w3.org/2000/svg" viewBox="0 0 24 24" width="24" height="24"><defs><style>.a{fill:none;stroke:#000;stroke-linecap:round;stroke-linejoin:round;stroke-width:1.5px}</style></defs><title>material-isolation</title><circle class="a" cx="4.5" cy="19.5" r="3.75"/><path class="a" d="M.75 19.5v-15a3.75 3.75 0 0 1 7.5 0v15"/><path class="a" d="M8.25 5.25h13.5a1.5 1.5 0 0 1 1.5 1.5v15a1.5 1.5 0 0 1-1.5 1.5H4.5m15.75-15v1.5m0 3v1.5m0 3v1.5m-3-9v1.5m0 3v1.5m0 3v1.5m-3-12v1.5m0 3v1.5m0 3v1.5m-3-9v1.5m0 3v1.5m0 3v1.5M4.5 19.125a.375.375 0 1 1-.375.375.375.375 0 0 1 .375-.375"/></svg>