<svg xmlns="http://www.w3.org/2000/svg" viewBox="0 0 24 24" width="24" height="24"><defs><style>.a{fill:none;stroke:#000;stroke-linecap:round;stroke-linejoin:round;stroke-width:1.5px}</style></defs><title>material-brick</title><path class="a" d="M.75 22.5h22.5M.75 18h22.5m-21 0h3v4.5h-3zm8.25 0h3v4.5h-3zm8.25 0h3v4.5h-3z"/><rect class="a" x=".75" y="1.5" width="22.5" height="13.5" rx="1.5" ry="1.5"/><path class="a" d="M.75 10.5h22.5M.75 6h22.5M6.75 1.5V6m6-4.5V6m6-4.5V6m-12 4.5V15m6-4.5V15m6-4.5V15M5.25 6v4.5m6-4.5v4.5m6-4.5v4.5"/></svg>