<svg xmlns="http://www.w3.org/2000/svg" viewBox="0 0 24 24" width="24" height="24"><defs><style>.a{fill:none;stroke:#000;stroke-linecap:round;stroke-linejoin:round;stroke-width:1.5px}</style></defs><title>material-fabric</title><path class="a" d="M8.625 20.25h13.5l.459 1.253A1.5 1.5 0 0 1 21.1 23.25H9.646a1.5 1.5 0 0 1-1.48-1.75zm0-16.5h13.5l.459-1.25A1.5 1.5 0 0 0 21.1.75H9.646a1.5 1.5 0 0 0-1.48 1.75zm0 0a59.754 59.754 0 0 0-.75 8.25 59.754 59.754 0 0 0 .75 8.25m13.5-16.5a59.754 59.754 0 0 1 .75 8.25 59.754 59.754 0 0 1-.75 8.25m-16.5 3h-2.25a2.25 2.25 0 0 1 0-4.5h2.25m0 0h-2.25a2.25 2.25 0 0 1 0-4.5h1.5m0 0h-1.5a2.25 2.25 0 0 1 0-4.5h2.25"/></svg>