<svg xmlns="http://www.w3.org/2000/svg" viewBox="0 0 24 24" width="24" height="24"><defs><style>.a{fill:none;stroke:#000;stroke-linecap:round;stroke-linejoin:round;stroke-width:1.5px}</style></defs><title>material-tile-roof-1</title><path class="a" d="M23.01 20.821L21.189 2.105A1.5 1.5 0 0 0 19.7.75H4.3a1.5 1.5 0 0 0-1.489 1.355L.99 20.821m22.021 0A3.751 3.751 0 0 1 15.75 19.5m-7.5 0a3.751 3.751 0 0 1-7.261 1.321"/><path class="a" d="M8.25 18.75v.75a3.75 3.75 0 0 0 7.5 0v-.75M12 15a3.75 3.75 0 0 1-7.5 0m15 0a3.75 3.75 0 0 1-7.5 0m-3.75-3.75a3.75 3.75 0 0 1-6.57 2.472m14.07-2.472a3.75 3.75 0 0 1-7.5 0m14.07 2.472a3.75 3.75 0 0 1-6.57-2.472M12 7.5a3.75 3.75 0 0 1-7.5 0m15 0a3.75 3.75 0 0 1-7.5 0m3.75-3.75a3.75 3.75 0 0 1-7.5 0m13.399 3.074a3.751 3.751 0 0 1-5.9-3.074M2.351 6.824A3.751 3.751 0 0 0 8.25 3.75"/></svg>