<svg xmlns="http://www.w3.org/2000/svg" viewBox="0 0 24 24" width="24" height="24"><defs><style>.a{fill:none;stroke:#000;stroke-linecap:round;stroke-linejoin:round;stroke-width:1.5px}</style></defs><title>maze-strategy</title><path class="a" d="M19.5 3.729H21a1.5 1.5 0 0 1 1.5 1.5v16.5a1.5 1.5 0 0 1-1.5 1.5h-7.5m-3 0v-6h-3v-4.5h3v-6h3v-6"/><path class="a" d="M10.5 3.697l3-2.968 3 2.968M15 15.729v4.5m-8.25-16.5H3a1.5 1.5 0 0 0-1.5 1.5v16.5a1.5 1.5 0 0 0 1.5 1.5h4.5v-3h-3v-2.25m13.5 5.25v-9h1.5m3-3H15v1.5"/><path class="a" d="M4.5 7.479v2.25h2.25m11.25 1.5v-3"/></svg>