<svg xmlns="http://www.w3.org/2000/svg" viewBox="0 0 24 24" width="24" height="24"><defs><style>.a{fill:none;stroke:#000;stroke-linecap:round;stroke-linejoin:round;stroke-width:1.5px}</style></defs><title>measure-ruler-divider</title><path class="a" d="M3.988 20.291l-.497 2.959m8.504-2.959l.496 2.959M5.045 6.43L2.509 20.043l2.958.497L7.659 8.982m.665-.001l2.191 11.559 2.959-.497L10.95 6.5"/><path class="a" d="M10.991 6a3 3 0 0 1-3.5 2.959 3.112 3.112 0 0 1-2.5-3.119V4.5a.75.75 0 0 1 .75-.75h4.5a.75.75 0 0 1 .75.75zm-3-2.25v-3m7.5 22.5h4.5a1.5 1.5 0 0 0 1.5-1.5V2.25a1.5 1.5 0 0 0-1.5-1.5h-4.5a1.5 1.5 0 0 0-1.5 1.5V7.5m4.5-2.25h3m-3 4.5h3m-3 4.5h3m-3 4.5h3"/></svg>