<svg id="Regular" xmlns="http://www.w3.org/2000/svg" viewBox="0 0 24 24" width="24" height="24"><defs><style>.cls-1{fill:none;stroke:#000;stroke-linecap:round;stroke-linejoin:round;stroke-width:1.5px}</style></defs><title>medical-condition-cough</title><path class="cls-1" d="M20.554 22.378v-5.63A8.415 8.415 0 0 0 14.826 2.16c-6.414 0-7.8 5.282-10.086 11.214a.675.675 0 0 0 .629.917h1.707v2.7a2.7 2.7 0 0 0 2.7 2.7h1.344v2.7m-7.049-1.062a.375.375 0 0 1 .375.375M3.7 21.7a.375.375 0 0 1 .375-.375m-.004.754A.375.375 0 0 1 3.7 21.7m.746 0a.375.375 0 0 1-.375.375m-2.696-4.116a.375.375 0 0 1 .375.375m-.75 0a.375.375 0 0 1 .375-.375m0 .75A.375.375 0 0 1 1 18.334m.75 0a.375.375 0 0 1-.375.375m3.37-1.424a.375.375 0 0 1 .375.375m-.75 0a.374.374 0 0 1 .375-.375m0 .75a.374.374 0 0 1-.375-.375m.75 0a.375.375 0 0 1-.375.375"/></svg>