<svg xmlns="http://www.w3.org/2000/svg" viewBox="0 0 24 24" width="24" height="24"><g fill="none" stroke="#000" stroke-linecap="round" stroke-linejoin="round" stroke-miterlimit="10"><path d="M22.5 9.5v12c0 1.1-.9 2-2 2h-7c-1.1 0-2-.9-2-2v-12m12 0h-13V8c0-.828.67-1.5 1.5-1.5h10A1.5 1.5 0 0123.5 8v1.5z"/><path d="M15.5 12.5h7v7h-7zm-6 9.5A1.5 1.5 0 018 23.5H3a1.5 1.5 0 010-3h5A1.5 1.5 0 019.5 22zm-4-1.5v3m4.596-10.061a1.5 1.5 0 010 2.121l-3.535 3.536a1.501 1.501 0 01-2.121-2.122l3.535-3.535a1.501 1.501 0 012.121 0zm-3.889 1.768l2.121 2.121"/></g><path fill="none" d="M0 0h24v24H0z"/></svg>