<svg id="Regular" xmlns="http://www.w3.org/2000/svg" viewBox="0 0 24 24" width="24" height="24"><defs><style>.cls-1{fill:none;stroke:#000;stroke-linecap:round;stroke-linejoin:round;stroke-width:1.5px}</style></defs><title>medical-specialty-skin</title><path class="cls-1" d="M23.25 4.875H.75m.775 12.375a.375.375 0 0 1 .375.375m-.75 0a.375.375 0 0 1 .375-.375m0 .75a.375.375 0 0 1-.375-.375m.75 0a.375.375 0 0 1-.375.375m3-4.5a.375.375 0 0 1 .375.375m-.75 0a.375.375 0 0 1 .375-.375m0 .75a.375.375 0 0 1-.375-.375m.75 0a.375.375 0 0 1-.375.375m3.75 3a.375.375 0 0 1 .375.375m-.75 0a.375.375 0 0 1 .375-.375m0 .75a.375.375 0 0 1-.375-.375m.75 0a.375.375 0 0 1-.375.375m14.25-.75a.375.375 0 0 0-.375.375m.75 0a.375.375 0 0 0-.375-.375m0 .75a.375.375 0 0 0 .375-.375m-.75 0a.375.375 0 0 0 .375.375m-3-4.5a.375.375 0 0 0-.375.375m.75 0a.375.375 0 0 0-.375-.375m0 .75a.375.375 0 0 0 .375-.375m-.75 0a.375.375 0 0 0 .375.375m-3.75 3a.375.375 0 0 0-.375.375m.75 0a.375.375 0 0 0-.375-.375m0 .75a.375.375 0 0 0 .375-.375m-.75 0a.375.375 0 0 0 .375.375m-3.75-4.5a.375.375 0 0 1 .375.375m-.75 0a.375.375 0 0 1 .375-.375m0 .75a.375.375 0 0 1-.375-.375m.75 0a.375.375 0 0 1-.375.375M23.25 10.9c-1.93-1.228-5.155-3.8-8.825-1.05a4 4 0 0 1-4.8 0C6.057 7.176 2.939 9.509.75 10.9"/></svg>