<svg id="Regular" xmlns="http://www.w3.org/2000/svg" viewBox="0 0 24 24" width="24" height="24"><defs><style>.cls-1{fill:none;stroke:#000;stroke-linecap:round;stroke-linejoin:round;stroke-width:1.5px}</style></defs><title>medical-specialty-broken-bone</title><path class="cls-1" d="M9.506 17.724a3.212 3.212 0 0 0-.36-.294l2.419-2.418a.751.751 0 0 0-.294-1.242l-.81-.27-.778-.778a.751.751 0 0 0-1.06 0l-2.092 2.092a3.426 3.426 0 0 0-.294-.36 3.237 3.237 0 1 0-2.253 5.523 3.236 3.236 0 1 0 5.522-2.253zM16 4.571a3.231 3.231 0 0 0 .129.446L12.228 6a.751.751 0 0 0-.416 1.178l.565.751.187 1.019a.753.753 0 0 0 .932.589l3.3-.883a3.165 3.165 0 0 0 .038.463 3.237 3.237 0 1 0 4.99-3.265A3.235 3.235 0 1 0 16 4.571zM5.961 5.25L3.711 3m5.25.75l-.75-2.25m-3 6.75h-2.25m15 10.5l2.25 2.25m-.75-5.25h3m-7.5 4.5l-.75 2.25"/></svg>