<svg id="Regular" xmlns="http://www.w3.org/2000/svg" viewBox="0 0 24 24" width="24" height="24"><defs><style>.cls-1{fill:none;stroke:#000;stroke-linecap:round;stroke-linejoin:round;stroke-width:1.5px}</style></defs><title>medical-specialty-lungs</title><path class="cls-1" d="M12 .75v9.75M8.25 6.13a1.5 1.5 0 0 0-2.61-1.009l-.989 1.088A15 15 0 0 0 .75 16.3v3.95a3 3 0 0 0 4.114 2.785l2.443-.977a1.5 1.5 0 0 0 .943-1.393z"/><path class="cls-1" d="M5.25 18v-2.25L12 10.5m-6.75 5.25l-1.5-1.5m12-8.12a1.5 1.5 0 0 1 2.61-1.009l.989 1.088a15 15 0 0 1 3.9 10.09v3.951a3 3 0 0 1-4.114 2.785l-2.443-.977a1.5 1.5 0 0 1-.943-1.393z"/><path class="cls-1" d="M18.75 18v-2.25L12 10.5m6.75 5.25l1.5-1.5"/></svg>