<svg id="Regular" xmlns="http://www.w3.org/2000/svg" viewBox="0 0 24 24" width="24" height="24"><defs><style>.cls-1{fill:none;stroke:#000;stroke-linecap:round;stroke-linejoin:round;stroke-width:1.5px}</style></defs><title>medical-room-wait</title><path class="cls-1" d="M9 3.75H6.75V1.5A.75.75 0 0 0 6 .75H4.5a.75.75 0 0 0-.75.75v2.25H1.5a.75.75 0 0 0-.75.75V6a.75.75 0 0 0 .75.75h2.25V9a.75.75 0 0 0 .75.75H6A.75.75 0 0 0 6.75 9V6.75H9A.75.75 0 0 0 9.75 6V4.5A.75.75 0 0 0 9 3.75z"/><circle class="cls-1" cx="14.25" cy="7.125" r="2.625"/><path class="cls-1" d="M9.365 12.785a4.49 4.49 0 0 1 3.385-1.535h3a4.49 4.49 0 0 1 3.385 1.535"/><path class="cls-1" d="M6.75 17.25V12l7.5 2.25v9L6.75 21v-.75m15-3V12l-7.5 2.25v9l7.5-2.25v-.75"/><path class="cls-1" d="M6.75 20.25a1.5 1.5 0 0 1 0-3h.75a.75.75 0 0 1 .75.75v1.5a.75.75 0 0 1-.75.75zm15 0a1.5 1.5 0 0 0 0-3H21a.75.75 0 0 0-.75.75v1.5a.75.75 0 0 0 .75.75z"/></svg>