<svg id="Regular" xmlns="http://www.w3.org/2000/svg" viewBox="0 0 24 24" width="24" height="24"><defs><style>.cls-1{fill:none;stroke:#000;stroke-linecap:round;stroke-linejoin:round;stroke-width:1.5px}</style></defs><title>medical-app-tablet</title><path class="cls-1" d="M15.692 14.25L14.019 13a1.569 1.569 0 0 0-2.247.385 1.569 1.569 0 0 0 0 1.74l1.645 2.467a4.5 4.5 0 0 0 2.073 1.682l2.452.981V22.5m-3-13.5c5.108 2.189 7.5 2.058 7.5 13.5"/><path class="cls-1" d="M11.942 21H4.5a3 3 0 0 1-3-3V4.5a3 3 0 0 1 3-3h7.442a3 3 0 0 1 3 3v6M8.25 6.019v6m-3-3h6"/></svg>