<svg id="Regular" xmlns="http://www.w3.org/2000/svg" viewBox="0 0 24 24" width="24" height="24"><defs><style>.cls-1{fill:none;stroke:#000;stroke-linecap:round;stroke-linejoin:round;stroke-width:1.5px}</style></defs><title>medical-folder</title><path class="cls-1" d="M18 14.25a.75.75 0 0 0-.75-.75h-1.5V12a.75.75 0 0 0-.75-.75h-1.5a.75.75 0 0 0-.75.75v1.5h-1.5a.75.75 0 0 0-.75.75v1.5a.75.75 0 0 0 .75.75h1.5V18a.75.75 0 0 0 .75.75H15a.75.75 0 0 0 .75-.75v-1.5h1.5a.75.75 0 0 0 .75-.75z"/><path class="cls-1" d="M3 21.75h18a2.25 2.25 0 0 0 2.25-2.25V8.25h-18V19.5a2.25 2.25 0 0 1-4.5 0V3.75a1.5 1.5 0 0 1 1.5-1.5h6a1.5 1.5 0 0 1 1.5 1.5v.75a.75.75 0 0 0 .75.75h9.75"/></svg>