<svg id="Regular" xmlns="http://www.w3.org/2000/svg" viewBox="0 0 24 24" width="24" height="24"><defs><style>.cls-1{fill:none;stroke:#000;stroke-linecap:round;stroke-linejoin:round;stroke-width:1.5px}</style></defs><title>medical-app-smartphone-listen</title><circle class="cls-1" cx="21" cy="17.25" r="2.25"/><path class="cls-1" d="M.75 6.75v4.5a7.5 7.5 0 0 0 15 0v-4.5"/><path class="cls-1" d="M18.75 17.25a3 3 0 0 0-3 3 3 3 0 0 1-3 3h-1.5a3 3 0 0 1-3-3v-1.5"/><rect class="cls-1" x="3.75" y=".75" width="9" height="13.5" rx="1.5" ry="1.5"/><path class="cls-1" d="M8.25 10.875a.375.375 0 0 1 .375.375m-.75 0a.375.375 0 0 1 .375-.375m0 .75a.375.375 0 0 1-.375-.375m.75 0a.375.375 0 0 1-.375.375"/></svg>