<svg id="Regular" xmlns="http://www.w3.org/2000/svg" viewBox="0 0 24 24" width="24" height="24"><defs><style>.cls-1{fill:none;stroke:#000;stroke-linecap:round;stroke-linejoin:round;stroke-width:1.5px}</style></defs><title>medical-file</title><path class="cls-1" d="M4.636.75A1.573 1.573 0 0 0 3 2.25v19.5a1.573 1.573 0 0 0 1.636 1.5h14.728A1.573 1.573 0 0 0 21 21.75V5.871a1.438 1.438 0 0 0-.479-1.06L16.57 1.189A1.716 1.716 0 0 0 15.413.75z"/><path class="cls-1" d="M16.5 13.5a.75.75 0 0 0-.75-.75H13.5V10.5a.75.75 0 0 0-.75-.75h-1.5a.75.75 0 0 0-.75.75v2.25H8.25a.75.75 0 0 0-.75.75V15a.75.75 0 0 0 .75.75h2.25V18a.75.75 0 0 0 .75.75h1.5a.75.75 0 0 0 .75-.75v-2.25h2.25a.75.75 0 0 0 .75-.75zM15 .75v4.286a1.715 1.715 0 0 0 1.714 1.714H21"/></svg>