<svg xmlns="http://www.w3.org/2000/svg" viewBox="0 0 24 24" width="24" height="24"><g fill="none" stroke="#000" stroke-linejoin="round" stroke-miterlimit="10"><path d="M19.497 9.021V.5h-9v5.521m0 7V18.5h-4a5.003 5.003 0 00-4.843 3.75.999.999 0 00.969 1.25h15.874a1 1 0 001-1v-6.875"/><ellipse transform="rotate(17.369 3.427 12.386)" cx="3.428" cy="12.385" rx="2.5" ry="1.5"/><path d="M1.042 11.639l1.94-6.203c.247-.791 1.516-1.098 2.834-.686l16.679 4.771v7L3.876 10.954M10.5 18.5l9-2M10.497 4.646l8.998-2.5M19.5 16.5l-5.005 7.021M10.497 18.5l.998 5.021M5.497 18.5l.998 5.021"/></g><path fill="none" d="M0 0h24v24H0z"/></svg>