<svg id="Regular" xmlns="http://www.w3.org/2000/svg" viewBox="0 0 24 24" width="24" height="24"><defs><style>.cls-1{fill:none;stroke:#000;stroke-linecap:round;stroke-linejoin:round;stroke-width:1.5px}</style></defs><title>medical-app-smartphone-touch</title><path class="cls-1" d="M15.75 23.25l-2.929-2.344a1.638 1.638 0 0 1-.566-1.676 1.637 1.637 0 0 1 2.321-1.067l1.174.587V13.5a1.5 1.5 0 0 1 1.5-1.5 1.5 1.5 0 0 1 1.5 1.5v3l1.993.332a3 3 0 0 1 2.507 2.959v3.459m-12 0H3A2.25 2.25 0 0 1 .75 21V3A2.25 2.25 0 0 1 3 .75h9A2.25 2.25 0 0 1 14.25 3v6.75m-13.5 9h9"/><path class="cls-1" d="M11.25 9a.75.75 0 0 0-.75-.75H9v-1.5A.75.75 0 0 0 8.25 6h-1.5a.75.75 0 0 0-.75.75v1.5H4.5a.75.75 0 0 0-.75.75v1.5a.75.75 0 0 0 .75.75H6v1.5a.75.75 0 0 0 .75.75h1.5a.75.75 0 0 0 .75-.75v-1.5h1.5a.75.75 0 0 0 .75-.75z"/></svg>