<svg id="Regular" xmlns="http://www.w3.org/2000/svg" viewBox="0 0 24 24" width="24" height="24"><defs><style>.cls-1{fill:none;stroke:#000;stroke-linecap:round;stroke-linejoin:round;stroke-width:1.5px}</style></defs><title>medical-instrument-scalpel-cut</title><path class="cls-1" d="M22.1 4.964a2.25 2.25 0 0 0-2.2-3.927L3.538 10.191l.754 1.348a3 3 0 0 0 3.235 1.471l9.146-1.923a.75.75 0 0 0 .5-1.1l-.967-1.728zM15.319 3.6l6.125 1.73M.75 19.5h22.5m-21 2.625a.375.375 0 0 1 .375.375m-.75 0a.375.375 0 0 1 .375-.375m0 .75a.375.375 0 0 1-.375-.375m.75 0a.375.375 0 0 1-.375.375m19.5-.75a.375.375 0 0 1 .375.375m-.75 0a.375.375 0 0 1 .375-.375m0 .75a.375.375 0 0 1-.375-.375m.75 0a.375.375 0 0 1-.375.375m-6.75-.75a.375.375 0 0 1 .375.375m-.75 0a.375.375 0 0 1 .375-.375m0 .75a.375.375 0 0 1-.375-.375m.75 0a.375.375 0 0 1-.375.375m-6.75-.75a.375.375 0 0 1 .375.375m-.75 0a.375.375 0 0 1 .375-.375m0 .75a.375.375 0 0 1-.375-.375m.75 0a.375.375 0 0 1-.375.375m-6-6a.375.375 0 0 0 .375-.375m-.75 0a.375.375 0 0 0 .375.375m0-.75a.375.375 0 0 0-.375.375m.75 0a.375.375 0 0 0-.375-.375m19.5.75a.375.375 0 0 0 .375-.375m-.75 0a.375.375 0 0 0 .375.375m0-.75a.375.375 0 0 0-.375.375m.75 0a.375.375 0 0 0-.375-.375m-6.75.75a.375.375 0 0 0 .375-.375m-.75 0a.375.375 0 0 0 .375.375m0-.75a.375.375 0 0 0-.375.375m.75 0a.375.375 0 0 0-.375-.375m-6.75.75a.375.375 0 0 0 .375-.375m-.75 0a.375.375 0 0 0 .375.375m0-.75a.375.375 0 0 0-.375.375m.75 0a.375.375 0 0 0-.375-.375"/></svg>