<svg id="Regular" xmlns="http://www.w3.org/2000/svg" viewBox="0 0 24 24" width="24" height="24"><defs><style>.cls-1{fill:none;stroke:#000;stroke-linecap:round;stroke-linejoin:round;stroke-width:1.5px}</style></defs><title>medical-specialty-eye</title><path class="cls-1" d="M14.25 9a3.75 3.75 0 1 1-4.5 0m6-3.059a18.86 18.86 0 0 1 7.071 4.944 1.663 1.663 0 0 1 0 2.226C20.2 16 16.031 18.816 12 18.749 7.969 18.816 3.8 16 1.179 13.114a1.663 1.663 0 0 1 0-2.226A18.852 18.852 0 0 1 8.25 5.941m-6 17.309l3.24-6.549m16.26 6.549l-3.24-6.549M2.25.75l3.24 6.549M21.75.75l-3.24 6.549M12 .75v1.5m0 3v1.5m0 3v1.5"/></svg>