<svg id="Regular" xmlns="http://www.w3.org/2000/svg" viewBox="0 0 24 24" width="24" height="24"><defs><style>.cls-1{fill:none;stroke:#000;stroke-linecap:round;stroke-linejoin:round;stroke-width:1.5px}</style></defs><title>medical-specialty-hearing</title><path class="cls-1" d="M.75 6A6.5 6.5 0 0 1 6.049.9a6.758 6.758 0 0 1 8.2 6.6 7.951 7.951 0 0 1-2.835 6.115A3.831 3.831 0 0 0 9.7 17.25a10.955 10.955 0 0 1-.046 2.416A4.5 4.5 0 0 1 .75 18.75M3.942 7.67a2.75 2.75 0 1 1 5.458.682M23.25 9.75h-4.5m0-4.5l3-3m-3 12l3 3"/></svg>