<svg id="Regular" xmlns="http://www.w3.org/2000/svg" viewBox="0 0 24 24" width="24" height="24"><defs><style>.cls-1{fill:none;stroke:#000;stroke-linecap:round;stroke-linejoin:round;stroke-width:1.5px}</style></defs><title>medical-personnel-nurse</title><circle class="cls-1" cx="17.25" cy="10.5" r="3"/><path class="cls-1" d="M23.25 19.5a4.5 4.5 0 0 0-4.5-4.5h-3a4.5 4.5 0 0 0-4.5 4.5m-10.5 3h22.5M14.789 8.784l-2.1-2.74a7.5 7.5 0 0 1 9.129.01l-2.102 2.738M9 4.5H6.75V2.25A.75.75 0 0 0 6 1.5H4.5a.75.75 0 0 0-.75.75V4.5H1.5a.75.75 0 0 0-.75.75v1.5a.75.75 0 0 0 .75.75h2.25v2.25a.75.75 0 0 0 .75.75H6a.75.75 0 0 0 .75-.75V7.5H9a.75.75 0 0 0 .75-.75v-1.5A.75.75 0 0 0 9 4.5z"/></svg>