<svg id="Regular" xmlns="http://www.w3.org/2000/svg" viewBox="0 0 24 24" width="24" height="24"><defs><style>.cls-1{fill:none;stroke:#000;stroke-linecap:round;stroke-linejoin:round;stroke-width:1.5px}</style></defs><title>medical-specialty-optometrist</title><path class="cls-1" d="M10.5 9.75H9a1.5 1.5 0 0 1-1.5-1.5v-3A1.5 1.5 0 0 1 9 3.75h1.5m-3 3h3"/><path class="cls-1" d="M17.25 17.25v4.5a1.5 1.5 0 0 1-1.5 1.5H2.25a1.5 1.5 0 0 1-1.5-1.5V2.25a1.5 1.5 0 0 1 1.5-1.5h13.5a1.5 1.5 0 0 1 1.5 1.5v3m-13.5 7.5h10.5m0-4.5l9 9m-16.5-1.5v3"/><path class="cls-1" d="M9.75 15.75h3l-3 3h3"/></svg>