<svg id="Regular" xmlns="http://www.w3.org/2000/svg" viewBox="0 0 24 24" width="24" height="24"><defs><style>.cls-1{fill:none;stroke:#000;stroke-linecap:round;stroke-linejoin:round;stroke-width:1.5px}</style></defs><title>medical-specialty-vertebra</title><path class="cls-1" d="M15.41.75a4.038 4.038 0 0 1-3.16 1.385A4.038 4.038 0 0 1 9.09.75a2.63 2.63 0 0 0-1.34 2.135C7.75 4.542 9.765 6 12.25 6s4.5-1.458 4.5-3.115A2.63 2.63 0 0 0 15.41.75zM7.75 2.885l-4.5 1.5m13.5-1.5l4.5 1.5m-5.84 4.99a4.038 4.038 0 0 1-3.16 1.385 4.038 4.038 0 0 1-3.16-1.385 2.63 2.63 0 0 0-1.34 2.135c0 1.657 2.015 3.115 4.5 3.115s4.5-1.458 4.5-3.115a2.63 2.63 0 0 0-1.34-2.135zM7.75 11.51l-4.5 1.5m13.5-1.5l4.5 1.5M15.41 18a4.038 4.038 0 0 1-3.16 1.385A4.038 4.038 0 0 1 9.09 18a2.63 2.63 0 0 0-1.34 2.135c0 1.657 2.015 3.115 4.5 3.115s4.5-1.458 4.5-3.115A2.63 2.63 0 0 0 15.41 18zm-7.66 2.135l-4.5 1.5m13.5-1.5l4.5 1.5"/></svg>