<svg id="Regular" xmlns="http://www.w3.org/2000/svg" viewBox="0 0 24 24" width="24" height="24"><defs><style>.cls-1{fill:none;stroke:#000;stroke-linecap:round;stroke-linejoin:round;stroke-width:1.5px}</style></defs><title>medical-hospital-1</title><circle class="cls-1" cx="12.033" cy="3.434" r="2.684"/><path class="cls-1" d="M15.23 12.625a1.887 1.887 0 0 1 1.807 2.523m-5.004-9.03V23.25M14.494 4.5h7.889c2.677 0-1.2 6.453-6.772 4.3M9.569 4.5H1.682c-2.676 0 1.2 6.453 6.772 4.3m.381 3.825A1.9 1.9 0 0 0 6.916 14.5a1.975 1.975 0 0 0 1.919 1.964h5.116a1.919 1.919 0 0 1 0 3.838h-3.517a1.638 1.638 0 0 0-1.6 1.675 1.708 1.708 0 0 0 .531 1.247"/></svg>