<svg id="Regular" xmlns="http://www.w3.org/2000/svg" viewBox="0 0 24 24" width="24" height="24"><defs><style>.cls-1{fill:none;stroke:#000;stroke-linecap:round;stroke-linejoin:round;stroke-width:1.5px}</style></defs><title>medical-instrument-syringe-1</title><path class="cls-1" d="M7.894 19.038l-3.182-3.182a1.5 1.5 0 0 1 0-2.122l9.016-9.015 5.3 5.3-9.015 9.016a1.5 1.5 0 0 1-2.119.003z"/><path class="cls-1" transform="rotate(-45 4.978 18.772)" d="M3.102 17.273h3.75v3h-3.75z"/><path class="cls-1" d="M1 22.75l2.652-2.652m8.485-16.97l8.485 8.485"/><path class="cls-1" transform="rotate(-45 18.236 5.514)" d="M15.611 4.014h5.25v3h-5.25z"/><path class="cls-1" d="M17.44 1.006l5.304 5.304m-9.016 4.773l2.121 2.121m-5.303 1.061l2.121 2.121"/></svg>