<svg id="Regular" xmlns="http://www.w3.org/2000/svg" viewBox="0 0 24 24" width="24" height="24"><defs><style>.cls-1{fill:none;stroke:#000;stroke-linecap:round;stroke-linejoin:round;stroke-width:1.5px}</style></defs><title>medical-specialty-rehabilitation</title><circle class="cls-1" cx="13.125" cy="3.375" r="2.625"/><circle class="cls-1" cx="19.875" cy="20.625" r="2.625"/><path class="cls-1" d="M13.875 23.25h-5.25a1.5 1.5 0 0 1-1.286-.728L5.525 19.5h-2.9a1.5 1.5 0 0 1 0-3h3.75a1.5 1.5 0 0 1 1.286.728l1.814 3.022h4.4a1.5 1.5 0 0 1 0 3z"/><path class="cls-1" d="M8.625 23.25h-6a1.5 1.5 0 0 1-1.5-1.5m14.25-9.092a1.5 1.5 0 0 1-1.135 1.454l-.728.182a1.5 1.5 0 0 0 .362 2.956 1.568 1.568 0 0 0 .364-.044l.73-.183a4.493 4.493 0 0 0 3.407-4.365V12a3 3 0 0 0-3-3h-4.342a4.5 4.5 0 0 0-3.744 2l-1.664 2.5"/></svg>