<svg id="Regular" xmlns="http://www.w3.org/2000/svg" viewBox="0 0 24 24" width="24" height="24"><defs><style>.cls-1{fill:none;stroke:#000;stroke-linecap:round;stroke-linejoin:round;stroke-width:1.5px}</style></defs><title>medical-specialty</title><path class="cls-1" d="M.75 23.25H6a3.75 3.75 0 0 0 0-7.5H.75m0 3.75h6"/><path class="cls-1" d="M6 15.75h13.5a3.75 3.75 0 0 1 0 7.5H6m11.25-7.5v7.5m-3-7.5v7.5M9 .75h3m-1.5 0v10.5m-3.75 0h7.5M3.75.75a3 3 0 0 1 3 3 3.75 3.75 0 0 0 7.5 0 3 3 0 0 1 3-3"/></svg>