<svg id="Regular" xmlns="http://www.w3.org/2000/svg" viewBox="0 0 24 24" width="24" height="24"><defs><style>.cls-1{fill:none;stroke:#000;stroke-linecap:round;stroke-linejoin:round;stroke-width:1.5px}</style></defs><title>medical-nanobot-pill</title><path class="cls-1" d="M21 7.251L17.25 9.5 13.5 7.251V3.6a1.5 1.5 0 0 1 .728-1.287l2.25-1.35a1.5 1.5 0 0 1 1.544 0l2.25 1.35A1.5 1.5 0 0 1 21 3.6zm-3.75 2.25v3m-3.75-5.25l-1 .668A1.5 1.5 0 0 0 12.082 10l.668 1M21 7.251l1 .668A1.5 1.5 0 0 1 22.418 10l-.668 1M16.5 5.001H18"/><path class="cls-1" d="M17.266 14.646a4.895 4.895 0 0 1-6.922 6.922l-8.16-8.161a4.895 4.895 0 0 1 6.922-6.922m1.352 6.725l-4.236 4.236"/><path class="cls-1" d="M10.344 17.612l1.484 1.488a2.1 2.1 0 0 0 2.966 0"/></svg>