<svg id="Regular" xmlns="http://www.w3.org/2000/svg" viewBox="0 0 24 24" width="24" height="24"><defs><style>.cls-1{fill:none;stroke:#000;stroke-linecap:round;stroke-linejoin:round;stroke-width:1.5px}</style></defs><title>medical-app-laptop-1</title><path class="cls-1" d="M2.25 16.5v-12A1.5 1.5 0 0 1 3.75 3h16.5a1.5 1.5 0 0 1 1.5 1.5v12m-6.764 0a.752.752 0 0 0-.6.3 2.97 2.97 0 0 1-4.77 0 .752.752 0 0 0-.6-.3H.75V18a3 3 0 0 0 3 3h16.5a3 3 0 0 0 3-3v-1.5z"/><path class="cls-1" d="M15.75 9a.75.75 0 0 0-.75-.75h-1.5v-1.5a.75.75 0 0 0-.75-.75h-1.5a.75.75 0 0 0-.75.75v1.5H9a.75.75 0 0 0-.75.75v1.5a.75.75 0 0 0 .75.75h1.5v1.5a.75.75 0 0 0 .75.75h1.5a.75.75 0 0 0 .75-.75v-1.5H15a.75.75 0 0 0 .75-.75z"/></svg>