<svg id="Regular" xmlns="http://www.w3.org/2000/svg" viewBox="0 0 24 24" width="24" height="24"><defs><style>.cls-1{fill:none;stroke:#000;stroke-linecap:round;stroke-linejoin:round;stroke-width:1.5px}</style></defs><title>medical-specialty-heart</title><path class="cls-1" d="M.75 2.25l2.966 4.662A7.794 7.794 0 0 0 3 11.25c.75 6.75 4.5 12 9 12s8.25-5.25 9-12a7.794 7.794 0 0 0-.716-4.338L23.25 2.25"/><path class="cls-1" d="M9.75.75v1.731a9.469 9.469 0 0 0-3.271 1.341L5.25.75m13.5 0l-1.229 3.072a9.469 9.469 0 0 0-3.271-1.341V.75"/><path class="cls-1" d="M15.655 2.884l-.009.007s-2.5 2.139-.724 4.327m5.857 5.532s-5.765-1.7-6.495 1.716M3 11.25s5.8.344 5.921-2.117m-2.054 1.784l2.054 1.833m-.511 9.323v-.012S9.9 18.7 12 18.7"/></svg>