<svg id="Regular" xmlns="http://www.w3.org/2000/svg" viewBox="0 0 24 24" width="24" height="24"><defs><style>.cls-1{fill:none;stroke:#000;stroke-linecap:round;stroke-linejoin:round;stroke-width:1.5px}</style></defs><title>medical-condition-flu</title><path class="cls-1" d="M19.151 23.25v-6.265A9.365 9.365 0 0 0 12.776.75C5.637.75 4.1 6.628 1.551 13.23a.751.751 0 0 0 .7 1.02h1.9v3a3 3 0 0 0 3 3h1.5v3m0-8.625a.375.375 0 0 1 .375.375m-.75 0a.375.375 0 0 1 .375-.375m0 .75A.375.375 0 0 1 8.276 15m.75 0a.375.375 0 0 1-.375.375m3-4.5a.375.375 0 0 1 .375.375m-.75 0a.375.375 0 0 1 .375-.375m0 .75a.375.375 0 0 1-.375-.375m.75 0a.375.375 0 0 1-.375.375m2.249 3a.375.375 0 0 1 .375.375m-.749 0a.375.375 0 0 1 .375-.375m-.001.75a.375.375 0 0 1-.374-.375m.75 0a.375.375 0 0 1-.375.375"/></svg>