<svg id="Regular" xmlns="http://www.w3.org/2000/svg" viewBox="0 0 24 24" width="24" height="24"><defs><style>.cls-1{fill:none;stroke:#000;stroke-linecap:round;stroke-linejoin:round;stroke-width:1.5px}</style></defs><title>medical-nanobot-lungs</title><path class="cls-1" d="M21.08 7.251L17.33 9.5l-3.75-2.25V3.6a1.5 1.5 0 0 1 .728-1.287l2.25-1.35a1.5 1.5 0 0 1 1.544 0l2.25 1.35A1.5 1.5 0 0 1 21.08 3.6zm-3.75 2.25v3m-3.75-5.25l-1 .668A1.5 1.5 0 0 0 12.162 10l.668 1m8.25-3.749l1 .668A1.5 1.5 0 0 1 22.5 10l-.668 1M16.58 5.001h1.5m-9 8.25v-7.5m-5.25 12l5.25-4.5 5.25 4.5"/><path class="cls-1" d="M6.83 11.751a1.5 1.5 0 0 0-1.5-1.5 4.5 4.5 0 0 0-4.5 4.5V20a3 3 0 0 0 6 0zm10.5 3.749V20a3 3 0 1 1-6 0v-6.75"/></svg>