<svg id="Regular" xmlns="http://www.w3.org/2000/svg" viewBox="0 0 24 24" width="24" height="24"><defs><style>.cls-1{fill:none;stroke:#000;stroke-linecap:round;stroke-linejoin:round;stroke-width:1.5px}</style></defs><title>medical-room-clock-man</title><circle class="cls-1" cx="5.25" cy="5.25" r="4.5"/><path class="cls-1" d="M5.25 3v2.25h1.5m16.5 18v-3h-1.5m-21 3v-3h6m4.5 0h-4.5a1.5 1.5 0 0 1-1.138-.524l-4.5-5.25a1.5 1.5 0 0 1 2.276-1.952L7.44 17.25h3.81m10.5 0a1.5 1.5 0 0 1 0 3"/><circle class="cls-1" cx="16.5" cy="4.875" r="2.625"/><path class="cls-1" d="M17.25 9h-1.5a3 3 0 0 0-3 3v2.25a1.5 1.5 0 0 0 1.5 1.5v6a1.5 1.5 0 0 0 1.5 1.5h1.5a1.5 1.5 0 0 0 1.5-1.5v-6a1.5 1.5 0 0 0 1.5-1.5V12a3 3 0 0 0-3-3z"/></svg>