<svg xmlns="http://www.w3.org/2000/svg" viewBox="0 0 24 24" width="24" height="24"><g fill="none" stroke="#000" stroke-linejoin="round" stroke-miterlimit="10"><path d="M21.5 21.5a2 2 0 01-2 2h-15a2 2 0 01-2-2v-19a2 2 0 012-2h15a2 2 0 012 2v19z"/><path d="M10.5 5A1.5 1.5 0 019 6.5H6a1.5 1.5 0 010-3h3A1.5 1.5 0 0110.5 5zm9 0A1.5 1.5 0 0118 6.5h-3a1.5 1.5 0 010-3h3A1.5 1.5 0 0119.5 5zm-12 1.5v-3m9 3v-3m-6 8.5A1.5 1.5 0 019 13.5H6a1.5 1.5 0 010-3h3a1.5 1.5 0 011.5 1.5zm9 0a1.5 1.5 0 01-1.5 1.5h-3a1.5 1.5 0 010-3h3a1.5 1.5 0 011.5 1.5zm-12 1.5v-3m9 3v-3m-6 8.5A1.5 1.5 0 019 20.5H6a1.5 1.5 0 010-3h3a1.5 1.5 0 011.5 1.5zm9 0a1.5 1.5 0 01-1.5 1.5h-3a1.5 1.5 0 010-3h3a1.5 1.5 0 011.5 1.5zm-12 1.5v-3"/></g><path fill="none" d="M0 0h24v24H0z"/></svg>