<svg id="Regular" xmlns="http://www.w3.org/2000/svg" viewBox="0 0 24 24" width="24" height="24"><defs><style>.cls-1{fill:none;stroke:#000;stroke-linecap:round;stroke-linejoin:round;stroke-width:1.5px}</style></defs><title>medical-nanobot-syringe</title><path class="cls-1" d="M21.08 7.257l-3.75 2.25-3.75-2.25V3.606a1.5 1.5 0 0 1 .728-1.286l2.25-1.35a1.5 1.5 0 0 1 1.542 0l2.25 1.35a1.5 1.5 0 0 1 .728 1.286zm-3.75 2.25v3"/><path class="cls-1" d="M13.58 7.257l-1 .668a1.5 1.5 0 0 0-.416 2.08l.668 1m8.248-3.748l1 .668a1.5 1.5 0 0 1 .416 2.08l-.668 1M16.58 5.007h1.5M4.542 10.273l9.016 9.015a1.5 1.5 0 0 0 2.121 0l3.182-3.182a1.5 1.5 0 0 0 0-2.121"/><path class="cls-1" d="M16.209 18.758l2.652 2.652 2.121-2.122-2.651-2.651m4.243 6.364l-2.652-2.652M9.819 4.996l-6.868 6.868m-.53-6.894l3.712 3.712M8.255 6.56L4.542 2.848m1.591-1.591L.83 6.56"/></svg>