<svg id="Regular" xmlns="http://www.w3.org/2000/svg" viewBox="0 0 24 24" width="24" height="24"><defs><style>.cls-1{fill:none;stroke:#000;stroke-linecap:round;stroke-linejoin:round;stroke-width:1.5px}</style></defs><title>medical-nanobots</title><path class="cls-1" d="M15.709 7.5l-3.75 2.25-3.75-2.25V3.85a1.5 1.5 0 0 1 .728-1.286l2.25-1.35a1.5 1.5 0 0 1 1.544 0l2.25 1.35a1.5 1.5 0 0 1 .728 1.286zm-3.75 2.251v3M8.209 7.5l-1 .668a1.5 1.5 0 0 0-.416 2.08l.668 1M15.709 7.5l1 .668a1.5 1.5 0 0 1 .416 2.08l-.668 1m-5.248-5.997h1.5m8.672 13.734l-3.047 1.828-3.047-1.828v-3.231a.751.751 0 0 1 .364-.644l2.3-1.378a.753.753 0 0 1 .772 0l2.3 1.378a.751.751 0 0 1 .364.644zm-3.047 1.828v2.438"/><path class="cls-1" d="M15.287 18.985l-1.2.8a.75.75 0 0 0-.208 1.04l.8 1.2m6.702-3.04l1.2.8a.75.75 0 0 1 .208 1.04l-.8 1.2m-4.265-4.868h1.219M8.631 18.985l-3.047 1.828-3.047-1.828v-3.231a.751.751 0 0 1 .363-.644l2.3-1.378a.753.753 0 0 1 .772 0l2.3 1.378a.752.752 0 0 1 .365.644zm-3.047 1.828v2.438"/><path class="cls-1" d="M2.537 18.985l-1.2.8a.75.75 0 0 0-.208 1.04l.8 1.2m6.702-3.04l1.2.8a.75.75 0 0 1 .208 1.04l-.8 1.2m-4.265-4.868h1.219"/></svg>