<svg id="Regular" xmlns="http://www.w3.org/2000/svg" viewBox="0 0 24 24" width="24" height="24"><defs><style>.cls-1{fill:none;stroke:#000;stroke-linecap:round;stroke-linejoin:round;stroke-width:1.5px}</style></defs><title>medical-notes</title><path class="cls-1" d="M7.5 3.75H4.636A1.573 1.573 0 0 0 3 5.25v16.5a1.573 1.573 0 0 0 1.636 1.5h14.728A1.573 1.573 0 0 0 21 21.75V5.25a1.573 1.573 0 0 0-1.636-1.5H16.5"/><path class="cls-1" d="M16.5 13.5a.75.75 0 0 0-.75-.75H13.5V10.5a.75.75 0 0 0-.75-.75h-1.5a.75.75 0 0 0-.75.75v2.25H8.25a.75.75 0 0 0-.75.75V15a.75.75 0 0 0 .75.75h2.25V18a.75.75 0 0 0 .75.75h1.5a.75.75 0 0 0 .75-.75v-2.25h2.25a.75.75 0 0 0 .75-.75zM14.584 2.25a2.976 2.976 0 0 0-5.168 0H8.25A.75.75 0 0 0 7.5 3v3a.75.75 0 0 0 .75.75h7.5A.75.75 0 0 0 16.5 6V3a.75.75 0 0 0-.75-.75z"/></svg>