<svg id="Regular" xmlns="http://www.w3.org/2000/svg" viewBox="0 0 24 24" width="24" height="24"><defs><style>.cls-1{fill:none;stroke:#000;stroke-linecap:round;stroke-linejoin:round;stroke-width:1.5px}</style></defs><title>medical-condition-head-dizziness</title><path class="cls-1" d="M19.25 23.225V16.96a9.362 9.362 0 0 0 2.812-8.735m-18.486 0c-.653 1.546-1.254 3.238-1.926 4.98a.751.751 0 0 0 .7 1.02h1.9v3a3 3 0 0 0 3 3h1.5v3M18.5 1.36c2.283.549 3.75 1.4 3.75 2.365 0 1.657-4.365 3-9.75 3M5 5.642c-1.4-.52-2.25-1.188-2.25-1.917 0-1.657 4.365-3 9.75-3m3 .375a.375.375 0 0 1 .375.375m-.75 0A.375.375 0 0 1 15.5 1.1m0 .75a.375.375 0 0 1-.375-.375m.75 0a.375.375 0 0 1-.375.375M8.75 5.6a.375.375 0 0 1 .375.375m-.75 0A.375.375 0 0 1 8.75 5.6m0 .75a.375.375 0 0 1-.375-.375m.75 0a.375.375 0 0 1-.375.375"/></svg>