<svg id="Regular" xmlns="http://www.w3.org/2000/svg" viewBox="0 0 24 24" width="24" height="24"><defs><style>.cls-1{fill:none;stroke:#000;stroke-linecap:round;stroke-linejoin:round;stroke-width:1.5px}</style></defs><title>medical-specialty-hearing-1</title><path class="cls-1" d="M9.75 6a6.5 6.5 0 0 1 5.3-5.1 6.758 6.758 0 0 1 8.2 6.6 7.951 7.951 0 0 1-2.835 6.115A3.831 3.831 0 0 0 18.7 17.25a10.955 10.955 0 0 1-.046 2.416 4.5 4.5 0 0 1-8.904-.916m3.192-11.08a2.75 2.75 0 1 1 5.457.682"/><path class="cls-1" d="M.75 11.25h1.5l2.25-3 2.25 6 3-3h1.5"/></svg>