<svg id="Regular" xmlns="http://www.w3.org/2000/svg" viewBox="0 0 24 24" width="24" height="24"><defs><style>.cls-1{fill:none;stroke:#000;stroke-linecap:round;stroke-linejoin:round;stroke-width:1.5px}</style></defs><title>medical-instrument-tooth</title><path class="cls-1" d="M15.943 10.178l3.276 1.638a1.5 1.5 0 0 0 1.732-.281l.981-.982a4.5 4.5 0 0 0 1.087-4.605l-.267-.8a.376.376 0 0 0-.712 0 7.491 7.491 0 0 1-1.854 2.911 6.57 6.57 0 0 1-4.243 2.119zm0 0a7.476 7.476 0 0 1-5.556 2.184c-2.2-.08-3.287-.765-5.58 1.528C1.094 17.6.75 20.25.75 20.25M13.822 8.057l-1.638-3.276a1.5 1.5 0 0 1 .281-1.732l.982-.981A4.5 4.5 0 0 1 18.052.981l.8.267a.376.376 0 0 1 0 .712 7.491 7.491 0 0 0-2.911 1.854 6.57 6.57 0 0 0-2.119 4.243z"/><path class="cls-1" d="M13.822 8.057a7.476 7.476 0 0 0-2.184 5.556c.08 2.2.765 3.287-1.528 5.58-3.71 3.713-6.36 4.057-6.36 4.057"/></svg>