<svg id="Regular" xmlns="http://www.w3.org/2000/svg" viewBox="0 0 24 24" width="24" height="24"><defs><style>.cls-1{fill:none;stroke:#000;stroke-linecap:round;stroke-linejoin:round;stroke-width:1.5px}</style></defs><title>medical-specialty-ear</title><path class="cls-1" d="M10.147 15a3.5 3.5 0 0 0-.447 2.25 10.955 10.955 0 0 1-.046 2.416A4.5 4.5 0 0 1 .75 18.75M.75 6A6.5 6.5 0 0 1 6.049.9a6.762 6.762 0 0 1 7.064 2.85M3.942 7.67A2.751 2.751 0 0 1 8.25 5.759m7.5.991h6.5a1 1 0 0 1 1 1v4a1 1 0 0 1-1 1h-6.5v-6zm7.5 16.5v-1.5a1.5 1.5 0 0 0-1.5-1.5h-4.5a1.5 1.5 0 0 0-1.5 1.5v1.5m3.75-10.5v7.5m-9.75-9a11.541 11.541 0 0 1 6 1.5v-6a11.541 11.541 0 0 1-6 1.5z"/></svg>