<svg xmlns="http://www.w3.org/2000/svg" viewBox="0 0 24 24" width="24" height="24"><defs><style>.a{fill:none;stroke:#000;stroke-linecap:round;stroke-linejoin:round;stroke-width:1.5px}</style></defs><title>meeting-headphones</title><path class="a" d="M4.5 18.011h-.75a3 3 0 0 1-3-3v-3a3 3 0 0 1 3-3h.75c.414 0 1.5.336 1.5.75v7.5c0 .414-1.086.75-1.5.75zm15.75 0h-.75c-.414 0-1.5-.336-1.5-.75v-7.5c0-.414 1.086-.75 1.5-.75h.75a3 3 0 0 1 3 3v3a3 3 0 0 1-3 3zm-16.5-9A8.25 8.25 0 0 1 12 .761a8.25 8.25 0 0 1 8.25 8.25M15 21.761h2.25a3 3 0 0 0 3-3v-.75m-6.75 5.25h-3a1.5 1.5 0 0 1-1.5-1.5 1.5 1.5 0 0 1 1.5-1.5h3a1.5 1.5 0 0 1 1.5 1.5 1.5 1.5 0 0 1-1.5 1.5z"/></svg>