<svg xmlns="http://www.w3.org/2000/svg" viewBox="0 0 24 24" width="24" height="24"><defs><style>.a{fill:none;stroke:#000;stroke-linecap:round;stroke-linejoin:round;stroke-width:1.5px}</style></defs><title>meeting-monitor-webcam</title><path class="a" d="M12 2.25a.375.375 0 1 0 .375.375A.375.375 0 0 0 12 2.25"/><circle class="a" cx="12" cy="9.75" r="2.25"/><path class="a" d="M15.75 15a4.25 4.25 0 0 0-7.5 0m7.5-12h6a1.5 1.5 0 0 1 1.5 1.5v12a1.5 1.5 0 0 1-1.5 1.5H2.25a1.5 1.5 0 0 1-1.5-1.5v-12A1.5 1.5 0 0 1 2.25 3h6m7.5 19.5h-7.5L9 18h6l.75 4.5zM6 22.5h12"/></svg>