<svg xmlns="http://www.w3.org/2000/svg" viewBox="0 0 24 24" width="24" height="24"><defs><style>.a{fill:none;stroke:#000;stroke-linecap:round;stroke-linejoin:round;stroke-width:1.5px}</style></defs><title>meeting-headphone-wireless</title><path class="a" d="M17.927 14.877v-.616a6.018 6.018 0 0 0-6-6 6.018 6.018 0 0 0-6 6v.616m9.332-9.616a4.452 4.452 0 0 0-6.665 0m9.665-1.5a8.183 8.183 0 0 0-12.665 0"/><path class="a" d="M7.127 19.361a.9.9 0 0 1-.9.9 2.7 2.7 0 0 1-2.7-2.7 2.7 2.7 0 0 1 2.7-2.7.9.9 0 0 1 .9.9zm9.6 0a.9.9 0 0 0 .9.9 2.7 2.7 0 0 0 2.7-2.7 2.7 2.7 0 0 0-2.7-2.7.9.9 0 0 0-.9.9z"/><path class="a" d="M17.927 20.244a3.018 3.018 0 0 1-3.018 3.017h-2.232"/></svg>