<svg xmlns="http://www.w3.org/2000/svg" viewBox="0 0 24 24" width="24" height="24"><defs><style>.a{fill:none;stroke:#000;stroke-linecap:round;stroke-linejoin:round;stroke-width:1.5px}</style></defs><title>meeting-laptop</title><path class="a" d="M17.249 23.261h-15a1.5 1.5 0 0 1-1.4-2.027l1.125-3a1.5 1.5 0 0 1 1.4-.973h12.75a1.5 1.5 0 0 1 1.4.973l1.125 3a1.5 1.5 0 0 1-1.4 2.027zm-8.999-3h3m6-7.5v3a1.5 1.5 0 0 1-1.5 1.5h-12a1.5 1.5 0 0 1-1.5-1.5v-7.5a1.5 1.5 0 0 1 1.5-1.5h4.5"/><path class="a" d="M23.25 2.261l-3 1v-1a1.5 1.5 0 0 0-1.5-1.5h-6a1.5 1.5 0 0 0-1.5 1.5v6a1.5 1.5 0 0 0 1.5 1.5h6a1.5 1.5 0 0 0 1.5-1.5v-1l3 1z"/></svg>