<svg xmlns="http://www.w3.org/2000/svg" viewBox="0 0 24 24" width="24" height="24"><defs><style>.a{fill:none;stroke:#000;stroke-linecap:round;stroke-linejoin:round;stroke-width:1.5px}</style></defs><title>meeting-smartphone</title><path class="a" d="M23.25 2.261l-3 1v-1a1.5 1.5 0 0 0-1.5-1.5h-6a1.5 1.5 0 0 0-1.5 1.5v6a1.5 1.5 0 0 0 1.5 1.5h6a1.5 1.5 0 0 0 1.5-1.5v-1l3 1zm-10.5 10.5v7.767a2.732 2.732 0 0 1-2.732 2.733H3.483A2.732 2.732 0 0 1 .75 20.528V4.993a2.732 2.732 0 0 1 2.733-2.732H8.25m-7.5 3h7.5m-7.5 12h12"/><path class="a" d="M6.75 19.886a.375.375 0 1 0 .375.375.375.375 0 0 0-.375-.375"/></svg>