<svg xmlns="http://www.w3.org/2000/svg" viewBox="0 0 24 24" width="24" height="24"><defs><style>.a{fill:none;stroke:#000;stroke-linecap:round;stroke-linejoin:round;stroke-width:1.5px}</style></defs><title>meeting-team-monitor-woman-1</title><circle class="a" cx="15" cy="6.011" r="2.25"/><path class="a" d="M15 9.011a3.75 3.75 0 0 1 3.75 3.75m-16.5-8.25v-2.25a1.5 1.5 0 0 1 1.5-1.5h18a1.5 1.5 0 0 1 1.5 1.5v12a1.5 1.5 0 0 1-1.5 1.5h-6m1.5 0v3m-1.5 0h3.75m-18.75 4.5a6.75 6.75 0 0 1 13.5 0M3.377 11v1a5.9 5.9 0 0 1-.86 3.272"/><path class="a" d="M11.624 11v1a5.9 5.9 0 0 0 .859 3.272m-9.095-4.057A5.483 5.483 0 0 0 7.5 9.316a5.483 5.483 0 0 0 4.112 1.9"/><circle class="a" cx="7.5" cy="10.886" r="4.125"/></svg>