<svg xmlns="http://www.w3.org/2000/svg" viewBox="0 0 24 24" width="24" height="24"><defs><style>.a{fill:none;stroke:#000;stroke-linecap:round;stroke-linejoin:round;stroke-width:1.5px}</style></defs><title>meeting-headphones-1</title><path class="a" d="M3.046 10.061a8.931 8.931 0 1 1 17.846 0m-1.303 8.212a8.917 8.917 0 0 1-5.832 3.632"/><path class="a" d="M5.775 15.85a2.266 2.266 0 0 1-.412 1.678 2.227 2.227 0 0 1-4-1l-.587-3.879a2.261 2.261 0 0 1 .412-1.678 2.226 2.226 0 0 1 4 1zm12.45 0a2.266 2.266 0 0 0 .412 1.678 2.227 2.227 0 0 0 4-1l.586-3.879a2.261 2.261 0 0 0-.412-1.678 2.226 2.226 0 0 0-4 1z"/><ellipse class="a" cx="11.969" cy="21.386" rx="1.86" ry="1.875"/></svg>