<svg xmlns="http://www.w3.org/2000/svg" viewBox="0 0 24 24" width="24" height="24"><defs><style>.a{fill:none;stroke:#000;stroke-linecap:round;stroke-linejoin:round;stroke-width:1.5px}</style></defs><title>meeting-team-laptop</title><path class="a" d="M15.349 23.261c-.754-.845-2.679-1.5-5.037-2.371-.718-.266-.6-2.138-.282-2.488a5.289 5.289 0 0 0 1.377-4.1c0-2.342-1.528-3.789-3.357-3.789S4.692 11.958 4.692 14.3a5.289 5.289 0 0 0 1.378 4.1c.318.35.435 2.222-.282 2.488-2.359.873-4.283 1.526-5.038 2.371m21-10.498V1.828a1.035 1.035 0 0 0-1-1.067h-13a1.035 1.035 0 0 0-1 1.067v5.683"/><path class="a" d="M14.25 12.761h9a3.449 3.449 0 0 1-3 3h-6m-1.5-6H15a.75.75 0 0 0 .75-.75v-.75l3 .75v-4.5l-3 .75v-.75a.75.75 0 0 0-.75-.75h-4.5a.75.75 0 0 0-.75.75v2.25"/></svg>