<svg xmlns="http://www.w3.org/2000/svg" viewBox="0 0 24 24" width="24" height="24"><g fill="none" stroke="#000" stroke-linejoin="round" stroke-miterlimit="10"><circle stroke-linecap="round" cx="8.75" cy="4.75" r="4.25"/><circle stroke-linecap="round" cx="8" cy="4.5" r="1"/><path d="M9 4.5h4"/><path stroke-linecap="round" d="M8.5 5.5V9m3 6c0 1.657-1.343 2.5-3 2.5s-3-.843-3-2.5v-3a3 3 0 116 0v3zm-5 6.5h-3a1 1 0 000 2h3a1 1 0 100-2zm-.799-2.003c.141-.697.355-1.784.635-2.421"/><path stroke-linecap="round" d="M6.5 21.5v-1a1 1 0 10-2 0v1m6 0h3a1 1 0 110 2h-3a1 1 0 110-2zm.799-2.003c-.141-.697-.355-1.784-.635-2.421"/><path stroke-linecap="round" d="M10.5 21.5v-1a1 1 0 112 0v1m-12-6a6 6 0 016-6m4 0h4m4 2.822a3.001 3.001 0 11.006-5.657l2.994.828v4l-3 .829zm3-3.822h2v2h-2m-16 4h6"/></g><path fill="none" d="M0 0h24v24H0z"/></svg>