<svg xmlns="http://www.w3.org/2000/svg" viewBox="0 0 24 24" width="24" height="24"><g fill="none" stroke="#000" stroke-linecap="round" stroke-linejoin="round" stroke-miterlimit="10"><path d="M21.5 21.5a2 2 0 01-2 2h-14a2 2 0 01-2-2v-19a2 2 0 012-2h14a2 2 0 012 2v19zm-19-17h2m-2 3h2m-2 3h2m-2 3h2m-2 3h2m-2 3h2"/><path d="M6.478 7.441L8.775 9.74a1.95 1.95 0 002.757-2.757L9.234 4.685M7.855 6.062l9.668 9.669M14.899 9.74l-6.045 6.044m6.964-9.722a1.95 1.95 0 012.757 2.758l-.919.92a1.95 1.95 0 01-2.757-2.757l.919-.921z"/></g><path fill="none" d="M0 0h24v24H0z"/></svg>