<svg xmlns="http://www.w3.org/2000/svg" viewBox="0 0 24 24" width="24" height="24"><g fill="none" stroke="#000" stroke-linecap="round" stroke-linejoin="round" stroke-miterlimit="10"><path d="M23.479 7.5H.5L12 .521zM12 .521L8 7.5m4-6.979L16.016 7.5M7.5 7.5h-7V8a3.5 3.5 0 107 0v-.5zm8 0h-7V8a3.5 3.5 0 107 0v-.5zm8 0h-7V8a3.5 3.5 0 107 0v-.5z"/><path d="M10.5 11.5h3v5h-3zm0 9h3v3h-3zm-5.876-3.797l.4-.9A3.776 3.776 0 018.5 13.5v3h-3a2.391 2.391 0 00-.876.203zM3.5 18.5H7"/><path d="M3.5 18.5a2 2 0 012-2h14a4 4 0 01-4 4h-10a2 2 0 01-2-2z"/></g><path fill="none" d="M0 0h24v24H0z"/></svg>