<svg xmlns="http://www.w3.org/2000/svg" viewBox="0 0 24 24" width="24" height="24"><defs><style>.a{fill:none;stroke:#000;stroke-linecap:round;stroke-linejoin:round;stroke-width:1.5px}</style></defs><title>messages-bubble-typing_1</title><path class="a" d="M12.75.75a10.485 10.485 0 0 0-8.917 16.025L.75 23.25l6.474-3.084A10.5 10.5 0 1 0 12.75.75zm-4.5 10.125"/><path class="a" d="M8.25 10.875a.375.375 0 1 0 .375.375.375.375 0 0 0-.375-.375m4.5 0a.375.375 0 1 0 .375.375.375.375 0 0 0-.375-.375m4.5 0a.375.375 0 1 0 .375.375.375.375 0 0 0-.375-.375"/></svg>