<svg xmlns="http://www.w3.org/2000/svg" viewBox="0 0 24 24" width="24" height="24"><defs><style>.a{fill:none;stroke:#000;stroke-linecap:round;stroke-linejoin:round;stroke-width:1.5px}</style></defs><title>messages-bubble-quotation</title><path class="a" d="M12.75.75a10.485 10.485 0 0 0-8.917 16.025L.75 23.25l6.475-3.083A10.5 10.5 0 1 0 12.75.75z"/><path class="a" d="M15.006 10.5a.75.75 0 0 0 0-1.5.75.75 0 0 0 0 1.5"/><path class="a" d="M15.171 13.755a2.785 2.785 0 0 0 1.616-2.378c0-1.045-.557-2.377-1.844-2.377m-5.187 1.5a.75.75 0 0 0 0-1.5.75.75 0 0 0 0 1.5"/><path class="a" d="M9.921 13.755a2.785 2.785 0 0 0 1.616-2.378C11.537 10.332 10.98 9 9.693 9"/></svg>