<svg xmlns="http://www.w3.org/2000/svg" viewBox="0 0 24 24" width="24" height="24"><defs><style>.a{fill:none;stroke:#000;stroke-linecap:round;stroke-linejoin:round;stroke-width:1.5px}</style></defs><title>messages-people-user-check</title><path class="a" d="M11.25 15.75h3v4.5l4.5-4.5h3a1.5 1.5 0 0 0 1.5-1.5v-12a1.5 1.5 0 0 0-1.5-1.5h-12a1.5 1.5 0 0 0-1.5 1.5"/><circle class="a" cx="4.5" cy="6.75" r="3"/><path class="a" d="M8.25 17.25V15a3.75 3.75 0 0 0-7.5 0v2.25h1.5l.75 6h3l.75-6zM18.287 5.576l-2.9 3.874a.75.75 0 0 1-1.13.08l-1.5-1.5"/></svg>