<svg xmlns="http://www.w3.org/2000/svg" viewBox="0 0 24 24" width="24" height="24"><defs><style>.a{fill:none;stroke:#000;stroke-linecap:round;stroke-linejoin:round;stroke-width:1.5px}</style></defs><title>messages-people-woman-bubble-1</title><path class="a" d="M2.626 12.486v1a5.91 5.91 0 0 1-.859 3.273m9.106-4.273v1a5.909 5.909 0 0 0 .86 3.273m-9.095-4.054a5.487 5.487 0 0 0 4.112-1.9 5.487 5.487 0 0 0 4.112 1.9"/><circle class="a" cx="6.75" cy="12.375" r="4.125"/><path class="a" d="M12.75 23.25a6.054 6.054 0 0 0-12 0m17.625-10.5a.375.375 0 1 0 .375.375.375.375 0 0 0-.375-.375m-3 2.25a.375.375 0 1 0 .375.375.375.375 0 0 0-.375-.375M13.5 9.75h5.25a4.5 4.5 0 1 0-4.458-4.915A2.984 2.984 0 0 0 9.4 5.25"/></svg>