<svg xmlns="http://www.w3.org/2000/svg" viewBox="0 0 24 24" width="24" height="24"><defs><style>.a{fill:none;stroke:#000;stroke-linecap:round;stroke-linejoin:round;stroke-width:1.5px}</style></defs><title>messages-bubble-square-quotation</title><path class="a" d="M21.75 18.75h-10.5l-6 4.5v-4.5h-3a1.5 1.5 0 0 1-1.5-1.5v-15a1.5 1.5 0 0 1 1.5-1.5h19.5a1.5 1.5 0 0 1 1.5 1.5v15a1.5 1.5 0 0 1-1.5 1.5zM15 8.25a.75.75 0 0 0-.75-.75m0 1.5a.75.75 0 0 0 .75-.75m-1.5 0a.75.75 0 0 0 .75.75m0-1.5a.75.75 0 0 0-.75.75"/><path class="a" d="M14.415 12.256a2.787 2.787 0 0 0 1.616-2.378c0-1.045-.557-2.378-1.844-2.378m-4.437.75A.75.75 0 0 0 9 7.5M9 9a.75.75 0 0 0 .75-.75m-1.5 0A.75.75 0 0 0 9 9m0-1.5a.75.75 0 0 0-.75.75"/><path class="a" d="M9.165 12.256a2.787 2.787 0 0 0 1.616-2.378c0-1.045-.557-2.378-1.844-2.378"/></svg>