<svg xmlns="http://www.w3.org/2000/svg" viewBox="0 0 24 24" width="24" height="24"><defs><style>.a{fill:none;stroke:#000;stroke-linecap:round;stroke-linejoin:round;stroke-width:1.5px}</style></defs><title>messages-people-user-skull</title><path class="a" d="M11.25 15.75h3v4.5l4.5-4.5h3a1.5 1.5 0 0 0 1.5-1.5v-12a1.5 1.5 0 0 0-1.5-1.5h-12a1.5 1.5 0 0 0-1.5 1.5"/><circle class="a" cx="4.5" cy="6.75" r="3"/><path class="a" d="M8.25 17.25V15a3.75 3.75 0 0 0-7.5 0v2.25h1.5l.75 6h3l.75-6zm6-9.75a.375.375 0 1 0 .375.375.375.375 0 0 0-.375-.375m3 0a.375.375 0 1 0 .375.375.375.375 0 0 0-.375-.375m-1.5 5.25v-1.5"/><path class="a" d="M20.25 8.25a4.5 4.5 0 0 0-9 0 3.566 3.566 0 0 0 1.5 2.582V12a.75.75 0 0 0 .75.75H18a.75.75 0 0 0 .75-.75v-1.168a4.235 4.235 0 0 0 1.5-2.582z"/></svg>