<svg xmlns="http://www.w3.org/2000/svg" viewBox="0 0 24 24" width="24" height="24"><defs><style>.a{fill:none;stroke:#000;stroke-linecap:round;stroke-linejoin:round;stroke-width:1.5px}</style></defs><title>messages-bubble-square-lock</title><path class="a" d="M14.25 21.75a1.5 1.5 0 0 0 1.5 1.5m-1.5-6v4.5m1.5-6a1.5 1.5 0 0 0-1.5 1.5m7.5-1.5h-6m7.5 1.5a1.5 1.5 0 0 0-1.5-1.5m1.5 6v-4.5m-1.5 6a1.5 1.5 0 0 0 1.5-1.5m-7.5 1.5h6m-3-12a3 3 0 0 0-3 3v1.5h6v-1.5a3 3 0 0 0-3-3zm0 7.904a.375.375 0 1 0 .375.375.375.375 0 0 0-.375-.375"/><path class="a" d="M11.25 18.75h-1.5l-6 4.5v-4.5h-1.5a1.5 1.5 0 0 1-1.5-1.5v-15a1.5 1.5 0 0 1 1.5-1.5h19.5a1.5 1.5 0 0 1 1.5 1.5v7.5"/></svg>