<svg xmlns="http://www.w3.org/2000/svg" viewBox="0 0 24 24" width="24" height="24"><defs><style>.a{fill:none;stroke:#000;stroke-linecap:round;stroke-linejoin:round;stroke-width:1.5px}</style></defs><title>messages-bubble-square-star</title><path class="a" d="M8.223 19.9L3.75 23.25v-4.5h-1.5a1.5 1.5 0 0 1-1.5-1.5v-15a1.5 1.5 0 0 1 1.5-1.5h19.5a1.5 1.5 0 0 1 1.5 1.5v9"/><path class="a" d="M17.948 11.68L19.489 15h3a.735.735 0 0 1 .518 1.283l-2.6 2.562 1.442 3.314a.786.786 0 0 1-1.119.982l-3.486-1.961-3.487 1.961a.786.786 0 0 1-1.119-.982l1.443-3.314-2.6-2.562A.734.734 0 0 1 11.989 15h3l1.544-3.323a.8.8 0 0 1 1.415.003z"/></svg>