<svg xmlns="http://www.w3.org/2000/svg" viewBox="0 0 24 24" width="24" height="24"><defs><style>.a{fill:none;stroke:#000;stroke-linecap:round;stroke-linejoin:round;stroke-width:1.5px}</style></defs><title>messages-bubble-laptop-hi</title><path class="a" d="M21.75 15.75v3m-19.5 0V8.25a1.5 1.5 0 0 1 1.5-1.5H7.5m7.084 12a2.976 2.976 0 0 1-5.168 0H.75v1.5a3 3 0 0 0 3 3h16.5a3 3 0 0 0 3-3v-1.5zm4.074-17.739a6.363 6.363 0 0 0-7.582 8.8L9.012 14l4.723-1.29a6.316 6.316 0 0 0 1.319.567 6.392 6.392 0 1 0 3.6-12.265zM19.5 4.5"/><path class="a" d="M19.5 4.5a.375.375 0 1 0 .375.375.375.375 0 0 0-.375-.375m-6 .75v4.5m6-2.25v2.25m-6-2.25h3m0-2.25v4.5"/></svg>