<svg xmlns="http://www.w3.org/2000/svg" viewBox="0 0 24 24" width="24" height="24"><defs><style>.a{fill:none;stroke:#000;stroke-linecap:round;stroke-linejoin:round;stroke-width:1.5px}</style></defs><title>messages-bubble-window-hi</title><path class="a" d="M20.233 1.157a5.234 5.234 0 0 0-5.967 8.283l-.656 3.779 3.423-2.111a5.133 5.133 0 0 0 3.33-.321"/><circle class="a" cx="8.436" cy="15.375" r="3.375"/><path class="a" d="M13.663 23.243A6.062 6.062 0 0 0 3.2 23.25m15.004-9v9m-17.25 0V3.75a3 3 0 0 1 3-3h7.5m-10.5 6h9m-3-3h3M22.7 3a.375.375 0 1 0 .375.375A.375.375 0 0 0 22.7 3m-5.996.75v4.5m6-2.25v2.25m-6-2.25h3m0-2.25v4.5"/></svg>