<svg xmlns="http://www.w3.org/2000/svg" viewBox="0 0 24 24" width="24" height="24"><defs><style>.a{fill:none;stroke:#000;stroke-linecap:round;stroke-linejoin:round;stroke-width:1.5px}</style></defs><title>messages-bubble-square-quote</title><path class="a" d="M21.75 18.75h-10.5l-6 4.5v-4.5h-3a1.5 1.5 0 0 1-1.5-1.5v-15a1.5 1.5 0 0 1 1.5-1.5h19.5a1.5 1.5 0 0 1 1.5 1.5v15a1.5 1.5 0 0 1-1.5 1.5z"/><path class="a" d="M7.968 12.75a.75.75 0 0 0 0-1.5.75.75 0 0 0 0 1.5"/><path class="a" d="M8.134 16.006a2.787 2.787 0 0 0 1.616-2.378c0-1.045-.558-2.378-1.844-2.378M8.25 4.5v2.512M15 13.375a5.747 5.747 0 0 0 0-7.744"/></svg>