<svg xmlns="http://www.w3.org/2000/svg" viewBox="0 0 24 24" width="24" height="24"><defs><style>.a{fill:none;stroke:#000;stroke-linecap:round;stroke-linejoin:round;stroke-width:1.5px}</style></defs><title>messages-bubble-typing</title><path class="a" d="M8.25 8.25a.375.375 0 0 0-.375-.375m0 0a.375.375 0 1 0 .375.375m4.125-.375a.375.375 0 1 0 .375.375.375.375 0 0 0-.375-.375"/><circle class="a" cx="6.375" cy="20.625" r="1.875"/><path class="a" d="M1.125 22.5a.375.375 0 1 0 .375.375.375.375 0 0 0-.375-.375M17.25 8.25a.375.375 0 0 0-.375-.375m-.375.375a.375.375 0 0 0 .75 0m-.375-.375a.375.375 0 0 0-.375.375"/><path class="a" d="M3.786 6.365A3.667 3.667 0 0 1 3.75 6a3.746 3.746 0 0 1 6.368-2.679A7.493 7.493 0 1 1 15.75 15.75H5.625a4.872 4.872 0 0 1-1.839-9.385z"/></svg>