<svg xmlns="http://www.w3.org/2000/svg" viewBox="0 0 24 24" width="24" height="24"><g fill="none" stroke="#000" stroke-linecap="round" stroke-linejoin="round" stroke-miterlimit="10"><path d="M5.917 16.379c.876-1.866 2.383-4.863 2.826-5.809 1.559-3.323 5.622-2.566 6.382-4.186C15.763 5.027 17.886.5 17.886.5m2.717 1.274l-2.762 5.885c-.868 1.852 2.514 4.06.861 7.584l-.728 1.531"/><path d="M17.886.5l2.715 1.274-1.275 2.715-2.715-1.274z"/><ellipse transform="rotate(25.123 14.945 11.365)" cx="14.945" cy="11.364" rx="2" ry="1"/><path d="M10.101 17.095l3.034-6.58m3.621 1.698l-2.249 4.909m8.993 4.19c-2.505.521-4.06-1.979-4.06-1.979h-.004s-1.186 2.056-3.621 2.056c-2.334 0-3.615-2.056-3.615-2.056h-.004s-1.185 2.056-3.62 2.056c-2.335 0-3.615-2.056-3.615-2.056h-.004s-2.004 2.542-4.455 2.02M23.5 17.312c-2.505.521-4.06-1.979-4.06-1.979h-.004s-1.186 2.056-3.621 2.056c-2.334 0-3.615-2.056-3.615-2.056h-.004s-1.185 2.056-3.62 2.056c-2.335 0-3.615-2.056-3.615-2.056h-.004s-2.004 2.542-4.455 2.02"/></g><path fill="none" d="M0 0h24v24H0z"/></svg>