<svg xmlns="http://www.w3.org/2000/svg" viewBox="0 0 24 24" width="24" height="24"><defs><style>.a{fill:none;stroke:#000;stroke-linecap:round;stroke-linejoin:round;stroke-width:1.5px}</style></defs><title>messages-bubble-image</title><path class="a" d="M7.961 6.75a.375.375 0 0 0 0-.75.375.375 0 0 0 0 .75m11.539 7.5l-3.87-5.836a.749.749 0 0 0-1.238-.014l-2 2.851-1.236-.989a.75.75 0 0 0-1.092.17L7.521 14.25M6 14.25h13.5"/><path class="a" d="M12.75.75a10.485 10.485 0 0 0-8.917 16.025L.75 23.25l6.474-3.083A10.5 10.5 0 1 0 12.75.75z"/></svg>