<svg xmlns="http://www.w3.org/2000/svg" viewBox="0 0 24 24" width="24" height="24"><defs><style>.a{fill:none;stroke:#000;stroke-linecap:round;stroke-linejoin:round;stroke-width:1.5px}</style></defs><title>messages-bubble-square-information</title><path class="a" d="M21.75 18.75h-10.5l-6 4.5v-4.5h-3a1.5 1.5 0 0 1-1.5-1.5v-15a1.5 1.5 0 0 1 1.5-1.5h19.5a1.5 1.5 0 0 1 1.5 1.5v15a1.5 1.5 0 0 1-1.5 1.5z"/><path class="a" d="M15 14.25h-.75a1.5 1.5 0 0 1-1.5-1.5V9a.75.75 0 0 0-.75-.75h-.75m1.5-3.375a.375.375 0 0 0-.375-.375m0 0a.375.375 0 1 0 .375.375"/></svg>