<svg xmlns="http://www.w3.org/2000/svg" viewBox="0 0 24 24" width="24" height="24"><defs><style>.a{fill:none;stroke:#000;stroke-linecap:round;stroke-linejoin:round;stroke-width:1.5px}</style></defs><title>messages-bubble-square-image</title><path class="a" d="M21.75 18.75h-10.5l-6 4.5v-4.5h-3a1.5 1.5 0 0 1-1.5-1.5v-15a1.5 1.5 0 0 1 1.5-1.5h19.5a1.5 1.5 0 0 1 1.5 1.5v15a1.5 1.5 0 0 1-1.5 1.5zM7.586 4.875a.375.375 0 0 0-.375-.375m0 0a.375.375 0 1 0 .375.375"/><path class="a" d="M18.75 12.75l-3.87-5.837a.749.749 0 0 0-1.238-.013l-2 2.851-1.232-.99a.751.751 0 0 0-1.093.17L6.771 12.75m-1.521 0h13.5"/></svg>