<svg xmlns="http://www.w3.org/2000/svg" viewBox="0 0 24 24" width="24" height="24"><defs><style>.a{fill:none;stroke:#000;stroke-linecap:round;stroke-linejoin:round;stroke-width:1.5px}</style></defs><title>messages-people-user-idea</title><circle class="a" cx="4.5" cy="6.75" r="3"/><path class="a" d="M8.25 17.25V15a3.75 3.75 0 0 0-7.5 0v2.25h1.5l.75 6h3l.75-6zm10.5-10.5a3 3 0 1 0-4.5 2.584v1.916h3V9.334a2.988 2.988 0 0 0 1.5-2.584zm-3 4.5v1.5"/><path class="a" d="M11.25 15.75h3v4.5l4.5-4.5h3a1.5 1.5 0 0 0 1.5-1.5v-12a1.5 1.5 0 0 0-1.5-1.5h-12a1.5 1.5 0 0 0-1.5 1.5"/></svg>