<svg xmlns="http://www.w3.org/2000/svg" viewBox="0 0 24 24" width="24" height="24"><defs><style>.a{fill:none;stroke:#000;stroke-linecap:round;stroke-linejoin:round;stroke-width:1.5px}</style></defs><title>messages-bubble-square-heart</title><path class="a" d="M21.75 18.75h-10.5l-6 4.5v-4.5h-3a1.5 1.5 0 0 1-1.5-1.5v-15a1.5 1.5 0 0 1 1.5-1.5h19.5a1.5 1.5 0 0 1 1.5 1.5v15a1.5 1.5 0 0 1-1.5 1.5z"/><path class="a" d="M12 13.875l-3.836-4a2.271 2.271 0 0 1-.425-2.619 2.269 2.269 0 0 1 3.634-.59l.627.625.626-.626a2.269 2.269 0 0 1 3.634.59 2.268 2.268 0 0 1-.425 2.619z"/></svg>