<svg xmlns="http://www.w3.org/2000/svg" viewBox="0 0 24 24" width="24" height="24"><g fill="none" stroke="#000" stroke-linejoin="round" stroke-miterlimit="10"><path d="M18.5 5.5h-13v-1a2 2 0 012-2h9a2 2 0 012 2v1z"/><circle cx="12" cy="10" r="2"/><path d="M15.5 13.5h-7c0 4 1 4.757 2 5.631V23.5h3v-4.369c1.062-.86 2-1.631 2-5.631zm3-8V24M5.5 5.5V24"/><path stroke-linecap="round" d="M20.521 15.5h2.958M20.5 11.812l2.646-1.186m-2.646 8.52l2.646 1.188M3.479 15.5H.521M3.5 11.812L.854 10.626m2.646 8.52L.854 20.334"/><path d="M10.5.5h3v2h-3z"/></g><path fill="none" d="M0 0h24v24H0z"/></svg>