<svg xmlns="http://www.w3.org/2000/svg" viewBox="0 0 24 24" width="24" height="24"><defs><style>.a{fill:none;stroke:#000;stroke-linecap:round;stroke-linejoin:round;stroke-width:1.5px}</style></defs><title>microphone-podcast-person</title><path class="a" d="M6.76 17.427a2.908 2.908 0 0 1-2.985 2.823 2.909 2.909 0 0 1-3-2.8L.75 11.823A2.908 2.908 0 0 1 3.735 9a2.908 2.908 0 0 1 3.005 2.8zM.753 13.5h2.996m-2.989 3h2.989m0 3.75l.011 2.993m-1.511.007h3"/><circle class="a" cx="19.499" cy="12.75" r="3"/><path class="a" d="M19.499 6.75l-.01 3m-1.24-9h2.5a1 1 0 0 1 1 1v3.5a1.5 1.5 0 0 1-1.5 1.5h-1.5a1.5 1.5 0 0 1-1.5-1.5v-3.5a1 1 0 0 1 1-1zm-1 2.66C12.941 4.823 11.871 9.7 9.749 15h3v3.3a2.7 2.7 0 0 0 2.7 2.7H16.5v2.25m6.749-19.622a8.511 8.511 0 0 0-1.5-.457"/></svg>