<svg xmlns="http://www.w3.org/2000/svg" viewBox="0 0 24 24" width="24" height="24"><defs><style>.a{fill:none;stroke:#000;stroke-linecap:round;stroke-linejoin:round;stroke-width:1.5px}</style></defs><title>microphone-1</title><path class="a" d="M16.65 16.95l-2 1.5a1.5 1.5 0 0 1-.9.3h-3.5a1.5 1.5 0 0 1-.9-.3l-2-1.5a1.5 1.5 0 0 1-.6-1.2V3.165a1.489 1.489 0 0 1 .814-1.344 9.722 9.722 0 0 1 8.872 0 1.489 1.489 0 0 1 .814 1.344V15.75a1.5 1.5 0 0 1-.6 1.2zm-9.9-8.7h10.5m-10.5 3h10.5"/><path class="a" d="M10.5 11.25v2.25A1.5 1.5 0 0 0 12 15a1.5 1.5 0 0 0 1.5-1.5v-2.25m-3.765 7.409l.765 4.591h3l.765-4.591"/></svg>