<svg xmlns="http://www.w3.org/2000/svg" viewBox="0 0 24 24" width="24" height="24"><defs><style>.a{fill:none;stroke:#000;stroke-linecap:round;stroke-linejoin:round;stroke-width:1.5px}</style></defs><title>microphone-off</title><path class="a" d="M12 19.5v3.75m.562-6.785A4.535 4.535 0 0 1 12 16.5 4.5 4.5 0 0 1 7.5 12v-.75m.564-8.183A4.5 4.5 0 0 1 12 .75a4.5 4.5 0 0 1 4.5 4.5V12"/><path class="a" d="M15.128 18.841A7.7 7.7 0 0 1 12 19.5a7.369 7.369 0 0 1-7.5-7.184V9.75m15 0v2.566a6.851 6.851 0 0 1-.56 2.716M3 2.25L21 21"/></svg>