<svg xmlns="http://www.w3.org/2000/svg" viewBox="0 0 24 24" width="24" height="24"><defs><style>.a{fill:none;stroke:#000;stroke-linecap:round;stroke-linejoin:round;stroke-width:1.5px}</style></defs><title>microphone-stage</title><path class="a" d="M2.25 9.75v3m-1.5-1.5h3M5.25.75v3m-1.5-1.5h3"/><circle class="a" cx="10.5" cy="9" r="3.75"/><path class="a" d="M7.848 11.652l5.304-5.304m1.061 3.183l4.772 4.769a2.319 2.319 0 0 1 .094 3.276 2.319 2.319 0 0 1-3.276-.094l-4.772-4.772m1.719 1.722v8.818m-2.25 0H15m1.568-17.509L21.75.75l1.5 21.669M.881 22.074l5.135-6.173"/><path class="a" d="M22.449 23.25c.512-.257.8-.537.8-.831 0-1.243-5.037-2.25-11.25-2.25S.75 21.176.75 22.419c0 .293.286.574.8.831"/></svg>