<svg xmlns="http://www.w3.org/2000/svg" viewBox="0 0 24 24" width="24" height="24"><defs><style>.a{fill:none;stroke:#000;stroke-linecap:round;stroke-linejoin:round;stroke-width:1.5px}</style></defs><title>microphone-2</title><path class="a" d="M7.5 11.25V7.501m9 0v3.749m-9-6.75V2.25A1.5 1.5 0 0 1 9 .75h6a1.5 1.5 0 0 1 1.5 1.5V4.5"/><path class="a" d="M17.25 7.5a1.5 1.5 0 0 0 0-3H6.75a1.5 1.5 0 0 0 0 3h3.75v3.75h-3a1.5 1.5 0 0 0-1.5 1.5V15a1.5 1.5 0 0 0 1.5 1.5h9A1.5 1.5 0 0 0 18 15v-2.25a1.5 1.5 0 0 0-1.5-1.5h-3V7.5zm-9 9l.466 1.864a1.5 1.5 0 0 0 1.455 1.136h3.658a1.5 1.5 0 0 0 1.455-1.136l.466-1.864m-3.75 3v3.75"/></svg>