<svg xmlns="http://www.w3.org/2000/svg" viewBox="0 0 24 24" width="24" height="24"><defs><style>.a{fill:none;stroke:#000;stroke-linecap:round;stroke-linejoin:round;stroke-width:1.5px}</style></defs><title>microphone-sing-man</title><path class="a" d="M9.75 23.247a6.75 6.75 0 0 1 13.5 0M12.958 8.79a6.853 6.853 0 0 0 7.612 1.531"/><circle class="a" cx="16.5" cy="10.872" r="4.125"/><path class="a" d="M9.747 9.382a2.827 2.827 0 0 0-2.985-2.635 2.828 2.828 0 0 0-3 2.614l-.019 5.25a2.828 2.828 0 0 0 2.986 2.635 2.829 2.829 0 0 0 3-2.614zm-6.004 4.115h2.996m-2.989-3h2.989m0-6.75L6.75.754"/><path class="a" d="M.75 12V9.747a6 6 0 0 1 6-6 5.985 5.985 0 0 1 4.45 1.975"/></svg>