<svg xmlns="http://www.w3.org/2000/svg" viewBox="0 0 24 24" width="24" height="24"><defs><style>.a{fill:none;stroke:#000;stroke-linecap:round;stroke-linejoin:round;stroke-width:1.5px}</style></defs><title>microphone-podcast-man</title><path class="a" d="M6.75 17.427a2.909 2.909 0 0 1-2.985 2.823 2.917 2.917 0 0 1-3.015-2.8v-5.627A2.9 2.9 0 0 1 3.725 9a2.927 2.927 0 0 1 3.025 2.8zm-6-3.927h2.989m-2.989 3h2.989m.011 3.75l.01 2.993m-1.51.007h3m6-6h-1.5a6.751 6.751 0 0 1 12.626-3.324M12.945 2.781a6.848 6.848 0 0 0 4.93 2.094 6.847 6.847 0 0 0 2.712-.558"/><circle class="a" cx="16.5" cy="4.875" r="4.125"/><path class="a" d="M14.75 15.75h5a.5.5 0 0 1 .5.5v4.5a1 1 0 0 1-1 1h-4a1 1 0 0 1-1-1v-4.5a.5.5 0 0 1 .5-.5zm5.5 1.5h1.5a1.5 1.5 0 0 1 1.5 1.5 1.5 1.5 0 0 1-1.5 1.5h-1.5"/></svg>