<svg xmlns="http://www.w3.org/2000/svg" viewBox="0 0 24 24" width="24" height="24"><g fill="none" stroke="#000" stroke-linejoin="round" stroke-miterlimit="10"><path d="M23.5 19.5a2 2 0 01-2 2h-19a2 2 0 01-2-2v-12a2 2 0 012-2h19a2 2 0 012 2v12zM2.5 24v-2.5m19 2.5v-2.5"/><path d="M14.5 17.5a2 2 0 01-2 2h-8a2 2 0 01-2-2v-8a2 2 0 012-2h8a2 2 0 012 2v8zm2-12v16m2-4h3v2h-3zM4 16.5h9"/><path d="M11 12.5c0 2-1.119 3.5-2.5 3.5S6 14.5 6 12.5h5zm7.5-5h3v8h-3z"/></g><path fill="none" d="M0 0h24v24H0z"/></svg>