<svg id="Regular" xmlns="http://www.w3.org/2000/svg" viewBox="0 0 24 24" width="24" height="24"><defs><style>.cls-1{fill:none;stroke:#000;stroke-linecap:round;stroke-linejoin:round;stroke-width:1.5px}</style></defs><title>milk-can</title><path class="cls-1" d="M15.75 3.75h-7.5L5.5 7.872a1.5 1.5 0 0 0-.25.828v13.05a1.5 1.5 0 0 0 1.5 1.5h10.5a1.5 1.5 0 0 0 1.5-1.5V8.7a1.5 1.5 0 0 0-.252-.832zm1.5-1.5a1.5 1.5 0 0 0-1.5-1.5h-7.5a1.5 1.5 0 0 0 0 3h7.5a1.5 1.5 0 0 0 1.5-1.5zm-11.93 6h13.359M5.25 9l-3-3m16.5 3l3-3"/></svg>