<svg id="Regular" xmlns="http://www.w3.org/2000/svg" viewBox="0 0 24 24" width="24" height="24"><defs><style>.cls-1{fill:none;stroke:#000;stroke-linecap:round;stroke-linejoin:round;stroke-width:1.5px}</style></defs><title>milk-carton</title><path class="cls-1" d="M18 5.25H6L3.158 9.433A1.5 1.5 0 0 0 3 10.1v11.65a1.5 1.5 0 0 0 1.5 1.5h15a1.5 1.5 0 0 0 1.5-1.5V10.1a1.5 1.5 0 0 0-.158-.671zm0-3a1.5 1.5 0 0 0-1.5-1.5h-9A1.5 1.5 0 0 0 6 2.25v3h12zM6.75 9.75h10.5"/><circle class="cls-1" cx="12" cy="17.25" r="3"/></svg>