<svg xmlns="http://www.w3.org/2000/svg" viewBox="0 0 24 24" width="24" height="24"><g fill="none" stroke="#000" stroke-linecap="round" stroke-linejoin="round" stroke-miterlimit="10"><path d="M9.437 16.5l-6.341 1.754A4 4 0 00.5 22v1.5h23V22a4 4 0 00-2.596-3.746L14.583 16.5M9 11.5c0-.553.448-.5 1-.5.553 0 1-.053 1 .5m2 0c0-.553.448-.5 1-.5.553 0 1-.053 1 .5"/><path d="M17 8.058V9.5c1.5 0 1.5 3 0 3 0 3-3.5 5.027-5 5.027S7 15.5 7 12.5c-1.5 0-1.5-3 0-3V8.058"/><path d="M7.5 17.035V18.5a2 2 0 002 2h5a2 2 0 002-2v-1.465m-12 .83V23.5m15-5.635V23.5M13.434 1.232C15.455 1.873 17 3.387 17 5.621l1.5.879S18 9 12 9 5.5 6.5 5.5 6.5L7 5.621c0-2.234 1.545-3.748 3.566-4.389"/><path d="M12.943 6.473L13.5.5h-3l.557 5.973"/><path d="M17 5.621c-1.267.543-3.067.879-5 .879s-3.733-.336-5-.879"/></g><path fill="none" d="M0 0h24v24H0z"/></svg>