<svg xmlns="http://www.w3.org/2000/svg" viewBox="0 0 24 24" width="24" height="24"><defs><style>.a{fill:none;stroke:#000;stroke-linecap:round;stroke-linejoin:round;stroke-width:1.5px}</style></defs><title>mobile-shopping-shop-basket</title><path class="a" d="M21.749 17.25h-7.5a1.5 1.5 0 0 0-1.4 2.026l1.307 3.487a.75.75 0 0 0 .7.487h6.287a.751.751 0 0 0 .7-.487l1.307-3.487a1.5 1.5 0 0 0-1.401-2.026zm-7.412 0l1.5-3.75m5.826 3.75l-1.5-3.75m-8.913 9.75h-4.5a3 3 0 0 1-3-3V9m12 0v1.5m-12 8.25h6"/><path class="a" d="M12.75 6.545a2.769 2.769 0 0 0 3 2.455 2.769 2.769 0 0 0 3-2.455L16.924 1.39a.978.978 0 0 0-.976-.64H3.552a.977.977 0 0 0-.976.64L.75 6.545A2.769 2.769 0 0 0 3.75 9a2.769 2.769 0 0 0 3-2.455A2.769 2.769 0 0 0 9.75 9a2.769 2.769 0 0 0 3-2.455zM6.75.75v5.795m6-5.795v5.795M16.5 19.5V21m3-1.5V21"/></svg>