<svg xmlns="http://www.w3.org/2000/svg" viewBox="0 0 24 24" width="24" height="24"><g fill="none" stroke="#000" stroke-linejoin="round" stroke-miterlimit="10"><path stroke-linecap="round" d="M14.5 14.5v7a2 2 0 01-2 2h-7a2 2 0 01-2-2v-15a2 2 0 012-2h3m0 4h-5m11 11h-11m4-13h1"/><path d="M9.5 21.5a.5.5 0 01-.5.5h0a.5.5 0 01-.5-.5h0A.5.5 0 019 21h0a.5.5 0 01.5.5h0z"/><path stroke-linecap="round" d="M20.5 9.33V6.5c0-1.75-.863-3.367-2.382-4 0-.895-.726-1.5-1.618-1.5-.895 0-1.618.605-1.618 1.5-1.521.633-2.382 2.25-2.382 4v2.83c0 .715-.785 1.17-1.5 1.17h11c-.715 0-1.5-.455-1.5-1.17zm-2 1.17a2 2 0 01-4 0"/></g><path fill="none" d="M0 0h24v24H0z"/></svg>