<svg xmlns="http://www.w3.org/2000/svg" viewBox="0 0 24 24" width="24" height="24"><path fill="none" stroke="#000" stroke-linecap="round" stroke-linejoin="round" stroke-miterlimit="10" d="M18.5 20.5c0 1.656-1.344 3-3 3h-8a3 3 0 01-3-3v-16a4 4 0 014-4h6a4 4 0 014 4v16z"/><path fill="none" stroke="#000" stroke-linecap="round" stroke-linejoin="round" stroke-miterlimit="10" d="M6.5 4.5h10v9h-10zm3-2h4"/><path d="M9 16H8v1h1v-1zm3 0h-1v1h1v-1zm3 0h-1v1h1v-1zm-6 2H8v1h1v-1zm3 0h-1v1h1v-1zm3 0h-1v1h1v-1zm-6 2H8v1h1v-1zm3 0h-1v1h1v-1zm3 0h-1v1h1v-1z"/><path fill="none" d="M0 0h24v24H0z"/></svg>