<svg xmlns="http://www.w3.org/2000/svg" viewBox="0 0 24 24" width="24" height="24"><g fill="none" stroke="#000" stroke-linejoin="round" stroke-miterlimit="10"><path stroke-linecap="round" d="M18.5 21.5a2 2 0 01-2 2h-9a2 2 0 01-2-2v-19a2 2 0 012-2h9a2 2 0 012 2v19zm0-17h-13m13 15h-13m4-17h5"/><path d="M12.5 21.5a.5.5 0 01-.5.5h0a.5.5 0 01-.5-.5h0a.5.5 0 01.5-.5h0a.5.5 0 01.5.5h0z"/><path stroke-linecap="round" d="M13.746 9.172a2.19 2.19 0 01-1.743-.838h-.006a2.192 2.192 0 01-1.742.838c-.616 0-1.174-.25-1.755-.656V13.7s.508 1.845 3.5 2.684c2.993-.839 3.5-2.684 3.5-2.684V8.516c-.58.406-1.139.656-1.754.656z"/></g><path fill="none" d="M0 0h24v24H0z"/></svg>