<svg xmlns="http://www.w3.org/2000/svg" viewBox="0 0 24 24" width="24" height="24"><g fill="none" stroke="#000" stroke-linejoin="round" stroke-miterlimit="10"><path stroke-linecap="round" d="M11.5 14.5v7a2 2 0 01-2 2h-7a2 2 0 01-2-2v-15a2 2 0 012-2h3m0 4h-5m11 11H.5m4-13h1"/><path d="M6.5 21.5a.5.5 0 01-.5.5h0a.5.5 0 01-.5-.5h0A.5.5 0 016 21h0a.5.5 0 01.5.5h0zm13.729-10l-2.011-7.028-2.677 4.687-2.676-1.012-2.011 3.353"/><path d="M20.5 11.5a2 2 0 002-2v-6a2 2 0 00-2-2h-10a2 2 0 00-2 2v6a2 2 0 002 2h10z"/><circle cx="12.859" cy="5.131" r="1.006"/></g><path fill="none" d="M0 0h24v24H0z"/></svg>