<svg xmlns="http://www.w3.org/2000/svg" viewBox="0 0 24 24" width="24" height="24"><g fill="none" stroke="#000" stroke-linejoin="round" stroke-miterlimit="10"><path stroke-linecap="round" d="M23.5 10a1.5 1.5 0 01-1.5 1.5H10A1.5 1.5 0 018.5 10V3A1.5 1.5 0 0110 1.5h12A1.5 1.5 0 0123.5 3v7z"/><path stroke-linecap="round" d="M21.5 4L16 7.5 10.5 4m11 5l-3.929-2.5M10.5 9l3.929-2.5m-2.929 8v7a2 2 0 01-2 2h-7a2 2 0 01-2-2v-15a2 2 0 012-2h3m0 4h-5m11 11H.5m4-13h1"/><path d="M6.5 21.5a.5.5 0 01-.5.5h0a.5.5 0 01-.5-.5h0A.5.5 0 016 21h0a.5.5 0 01.5.5h0z"/></g><path fill="none" d="M0 0h24v24H0z"/></svg>