<svg xmlns="http://www.w3.org/2000/svg" viewBox="0 0 24 24" width="24" height="24"><g fill="none" stroke="#000" stroke-linecap="round" stroke-linejoin="round" stroke-miterlimit="10"><circle cx="20.5" cy="4.5" r="2"/><circle cx="20.5" cy="11.5" r="2"/><circle cx="12.5" cy="8.5" r="2"/><path d="M14.287 7.605l4.425-2.211m-4.337 3.809l4.254 1.595"/></g><g fill="none" stroke="#000" stroke-linejoin="round" stroke-miterlimit="10"><path stroke-linecap="round" d="M14.5 14.5v7a2 2 0 01-2 2h-7a2 2 0 01-2-2v-15a2 2 0 012-2h3m0 4h-5m11 11h-11m4-13h1"/><path d="M9.5 21.5a.5.5 0 01-.5.5h0a.5.5 0 01-.5-.5h0A.5.5 0 019 21h0a.5.5 0 01.5.5h0z"/></g><path fill="none" d="M0 0h24v24H0z"/></svg>