<svg xmlns="http://www.w3.org/2000/svg" viewBox="0 0 24 24" width="24" height="24"><path d="M10 16H9v1h1v-1zm2.5 0h-1v1h1v-1zm2.5 0h-1v1h1v-1zm-5 2H9v1h1v-1zm2.5 0h-1v1h1v-1zm2.5 0h-1v1h1v-1zm-5 2H9v1h1v-1zm2.5 0h-1v1h1v-1zm2.5 0h-1v1h1v-1z"/><path fill="none" stroke="#000" stroke-linejoin="round" stroke-miterlimit="10" d="M18.5 21.5c0 1.1-.9 2-2 2h-9c-1.1 0-2-.9-2-2v-16c0-1.1.9-2 2-2h9c1.1 0 2 .9 2 2v16z"/><path fill="none" stroke="#000" stroke-linejoin="round" stroke-miterlimit="10" d="M7.5 6.5h9v7h-9z"/><path fill="none" stroke="#000" stroke-linecap="round" stroke-linejoin="round" stroke-miterlimit="10" d="M7.5 3.5v-3"/><path fill="none" d="M0 0h24v24H0z"/></svg>