<svg xmlns="http://www.w3.org/2000/svg" viewBox="0 0 24 24" width="24" height="24"><defs><style>.a{fill:none;stroke:#000;stroke-linecap:round;stroke-linejoin:round;stroke-width:1.5px}</style></defs><title>mobile-shopping-bag</title><path class="a" d="M9.754 23.25h-6a3 3 0 0 1-3-3V3.75a3 3 0 0 1 3-3h7.5a3 3 0 0 1 3 3v6m-13.5 9h9"/><path class="a" d="M9.379 6.75H7.346a1.342 1.342 0 0 0-.5 2.587l2.064.825a1.342 1.342 0 0 1-.5 2.588H6.379m1.5-6V6m0 7.5v-.75m13.647.757h-7.052a.748.748 0 0 0-.717.707l-1 8.164a.766.766 0 0 0 .718.872h9.048a.766.766 0 0 0 .718-.872l-1-8.164a.748.748 0 0 0-.715-.707z"/><path class="a" d="M19.84 16.478A1.879 1.879 0 0 1 18 18a1.879 1.879 0 0 1-1.839-1.513"/></svg>