<svg xmlns="http://www.w3.org/2000/svg" viewBox="0 0 24 24" width="24" height="24"><defs><style>.a{fill:none;stroke:#000;stroke-linecap:round;stroke-linejoin:round;stroke-width:1.5px}</style></defs><title>mobile-launch</title><path class="a" d="M15 17.25v3a3 3 0 0 1-3 3H4.5a3 3 0 0 1-3-3V3.75a3 3 0 0 1 3-3H12"/><path class="a" d="M10.367 15.27c-1.068 1.067-3.205.6-3.205.6s-.47-2.137.6-3.2a1.576 1.576 0 0 1 2.445.163 1.576 1.576 0 0 1 .16 2.437zM21.429 1.821L22.5.75m-.928 4.813l-.143-3.742-3.743-.143a3.374 3.374 0 0 0-2.768 1.551l-4.066 6.735 2.434 2.436 6.734-4.068a3.378 3.378 0 0 0 1.552-2.769zm-9.02 1.584l-1.115-.529a1.573 1.573 0 0 0-1.76.205L8.1 8.4a.389.389 0 0 0-.054.433.641.641 0 0 0 .383.356l2.418.779"/><path class="a" d="M16.147 10.67l.484 1.143a1.572 1.572 0 0 1-.2 1.76l-1.576 1.576a.393.393 0 0 1-.434.054.639.639 0 0 1-.355-.383l-.78-2.419"/><circle class="a" cx="17.719" cy="5.531" r="1.5"/><path class="a" d="M1.5 19.5H15"/></svg>