<svg xmlns="http://www.w3.org/2000/svg" viewBox="0 0 24 24" width="24" height="24"><g fill="none" stroke="#000" stroke-linejoin="round" stroke-miterlimit="10"><path stroke-linecap="round" d="M10.5 17v3.5a2 2 0 01-2 2h-6a2 2 0 01-2-2v-16a2 2 0 012-2h6a2 2 0 012 2V8m0-1.5H.5m10 12H.5M4 4.5h3M13.5 8V4.5a2 2 0 012-2h6a2 2 0 012 2v16a2 2 0 01-2 2h-6a2 2 0 01-2-2V17m10-10.5h-10m10 12h-10m3.5-14h3m-15.5 8h15"/><path stroke-linecap="round" d="M7.5 15.515l-3-3 3-3m9 6l3-3-3-3"/><path d="M6 20.5a.5.5 0 01-.5.5h0a.5.5 0 01-.5-.5h0a.5.5 0 01.5-.5h0a.5.5 0 01.5.5h0zm13 0a.5.5 0 01-.5.5h0a.5.5 0 01-.5-.5h0a.5.5 0 01.5-.5h0a.5.5 0 01.5.5h0z"/></g><path fill="none" d="M0 0h24v24H0z"/></svg>