<svg xmlns="http://www.w3.org/2000/svg" viewBox="0 0 24 24" width="24" height="24"><g fill="none" stroke="#000" stroke-linejoin="round" stroke-miterlimit="10"><path stroke-linecap="round" d="M13.5 14.5v7a2 2 0 01-2 2h-7a2 2 0 01-2-2v-15a2 2 0 012-2h3m0 4h-5m11 11h-11m4-13h1"/><path d="M8.5 21.5a.5.5 0 01-.5.5h0a.5.5 0 01-.5-.5h0A.5.5 0 018 21h0a.5.5 0 01.5.5h0z"/><circle stroke-linecap="round" cx="13" cy="6" r="2.5"/><path stroke-linecap="round" d="M17 12.5H9a4 4 0 118 0zm0-9h5"/></g><path fill="none" d="M0 0h24v24H0z"/></svg>