<svg xmlns="http://www.w3.org/2000/svg" viewBox="0 0 24 24" width="24" height="24"><g fill="none" stroke="#000" stroke-linejoin="round" stroke-miterlimit="10"><path stroke-linecap="round" d="M18.5 21.5a2 2 0 01-2 2h-9a2 2 0 01-2-2v-19a2 2 0 012-2h9a2 2 0 012 2v19zm0-2h-13m13-15h-13m4-2h5"/><path d="M12 22a.5.5 0 01-.5-.5h0a.5.5 0 01.5-.5h0a.5.5 0 01.5.5h0a.5.5 0 01-.5.5h0z"/><g stroke-linecap="round"><circle cx="12" cy="12" r="1.761"/><path d="M14.543 15.718A4.48 4.48 0 0112 16.5a4.5 4.5 0 114.5-4.5v.392a1.37 1.37 0 01-2.739 0V12"/></g></g><path fill="none" d="M0 0h24v24H0z"/></svg>