<svg xmlns="http://www.w3.org/2000/svg" viewBox="0 0 24 24" width="24" height="24"><g fill="none" stroke="#000" stroke-linejoin="round" stroke-miterlimit="10"><path stroke-linecap="round" d="M18.5 21.5a2 2 0 01-2 2h-9a2 2 0 01-2-2v-19a2 2 0 012-2h9a2 2 0 012 2v19zm0-17h-13m13 15h-13m4-17h5"/><path d="M12.5 21.5a.5.5 0 01-.5.5h0a.5.5 0 01-.5-.5h0a.5.5 0 01.5-.5h0a.5.5 0 01.5.5h0z"/></g><path fill="none" stroke="#000" stroke-linecap="round" stroke-linejoin="round" stroke-miterlimit="10" d="M16.5 16.5h-9L12 6.772zm-4.5-5v2"/><path d="M12.001 14.272a.501.501 0 100 1.002.501.501 0 000-1.002z"/><path fill="none" d="M0 0h24v24H0z"/></svg>