<svg xmlns="http://www.w3.org/2000/svg" viewBox="0 0 24 24" width="24" height="24"><defs><style>.a{fill:none;stroke:#000;stroke-linecap:round;stroke-linejoin:round;stroke-width:1.5px}</style></defs><title>mobile-phone-blackberry</title><rect class="a" x="5.25" y="3.75" width="13.5" height="19.5" rx="3" ry="3"/><path class="a" d="M8.25 3.75v-3m1.875 14.625a.375.375 0 1 0 .375.375.375.375 0 0 0-.375-.375m4.125 0a.375.375 0 1 0 .375.375.375.375 0 0 0-.375-.375m-4.125 3.75a.375.375 0 1 0 .375.375.375.375 0 0 0-.375-.375m4.125 0a.375.375 0 1 0 .375.375.375.375 0 0 0-.375-.375m-9-6.375h13.5"/></svg>