<svg xmlns="http://www.w3.org/2000/svg" viewBox="0 0 24 24" width="24" height="24"><g fill="none" stroke="#000" stroke-linejoin="round" stroke-miterlimit="10"><path stroke-linecap="round" d="M15.5 14.5v7a2 2 0 01-2 2h-7a2 2 0 01-2-2v-15a2 2 0 012-2h3m0 4h-5m11 11h-11m4-13h1"/><path d="M10.5 21.5a.5.5 0 01-.5.5h0a.5.5 0 01-.5-.5h0a.5.5 0 01.5-.5h0a.5.5 0 01.5.5h0zm4-10.504c0 .75-.672 1.5-1.5 1.5a1.5 1.5 0 010-3h1.5v1.5zm6-3.019c0 .75-.672 1.5-1.5 1.5a1.5 1.5 0 010-3h1.5v1.5z"/><path d="M14.5 9.983V3.279L20.5.5v6.483"/></g><path fill="none" d="M0 0h24v24H0z"/></svg>