<svg xmlns="http://www.w3.org/2000/svg" viewBox="0 0 24 24" width="24" height="24"><g fill="none" stroke="#000" stroke-linecap="round" stroke-linejoin="round" stroke-miterlimit="10"><path d="M18.956 13.662a1.421 1.421 0 010 2.01l-3.517 3.517a1.42 1.42 0 01-2.01 0l-8.54-8.54a1.42 1.42 0 010-2.01l3.517-3.517a1.42 1.42 0 012.01 0l8.54 8.54zm1.4-12.846l-5.384 1.246 2.703 4.82"/><path d="M14.963 2.092a10.219 10.219 0 014.371 2.603 10.492 10.492 0 012.883 9.43M3.5 23.5l5.384-1.245-2.702-4.82"/><path d="M8.894 22.226a10.217 10.217 0 01-4.371-2.603 10.493 10.493 0 01-2.884-9.431"/></g><path fill="none" d="M0 0h24v24H0z"/></svg>