<svg xmlns="http://www.w3.org/2000/svg" viewBox="0 0 24 24" width="24" height="24"><g fill="none" stroke="#000" stroke-linecap="round" stroke-linejoin="round" stroke-miterlimit="10"><path d="M18.621 13.095l.412.412a1.421 1.421 0 010 2.01l-3.517 3.517a1.42 1.42 0 01-2.01 0l-8.54-8.54a1.42 1.42 0 010-2.01l3.517-3.517a1.42 1.42 0 012.01 0l1.06 1.06M3.577 23.345L8.961 22.1l-2.702-4.821"/><path d="M8.971 22.07A10.217 10.217 0 014.6 19.467a10.493 10.493 0 01-2.884-9.431M13.5 4.5h9v7h-9zm2-1.5a2.5 2.5 0 115 0v1.5h-5V3z"/><circle cx="18" cy="8" r=".5"/></g><path fill="none" d="M0 0h24v24H0z"/></svg>