<svg xmlns="http://www.w3.org/2000/svg" viewBox="0 0 24 24" width="24" height="24"><g fill="none" stroke="#000" stroke-linejoin="round" stroke-miterlimit="10"><path d="M9.93 14.175a2.069 2.069 0 102.07-2.07 2.069 2.069 0 112.068-2.07M12 16.245v1.38m0-11.042v1.381" stroke-linecap="round"/><path stroke-linecap="round" d="M18.5 21.5a2 2 0 01-2 2h-9a2 2 0 01-2-2v-19a2 2 0 012-2h9a2 2 0 012 2v19zm0-17h-13m13 15h-13m4-17h5"/><path d="M12.5 21.5a.5.5 0 01-.5.5h0a.5.5 0 01-.5-.5h0a.5.5 0 01.5-.5h0a.5.5 0 01.5.5h0z"/></g><path fill="none" d="M0 0h24v24H0z"/></svg>