<svg xmlns="http://www.w3.org/2000/svg" viewBox="0 0 24 24" width="24" height="24"><defs><style>.a{fill:none;stroke:#000;stroke-linecap:round;stroke-linejoin:round;stroke-width:1.5px}</style></defs><title>mobile-phone-blackberry-2</title><path class="a" d="M7.875 15a.375.375 0 1 0 .375.375.375.375 0 0 0-.375-.375M12 15a.375.375 0 1 0 .375.375A.375.375 0 0 0 12 15m4.125 0a.375.375 0 1 0 .375.375.375.375 0 0 0-.375-.375m-8.25 3.75a.375.375 0 1 0 .375.375.375.375 0 0 0-.375-.375m4.125 0a.375.375 0 1 0 .375.375.375.375 0 0 0-.375-.375m4.125 0a.375.375 0 1 0 .375.375.375.375 0 0 0-.375-.375M3.75 11.25h16.5"/><rect class="a" x="3.75" y=".75" width="16.5" height="22.5" rx="1.5" ry="1.5"/></svg>