<svg xmlns="http://www.w3.org/2000/svg" viewBox="0 0 24 24" width="24" height="24"><path fill="none" stroke="#000" stroke-linecap="round" stroke-linejoin="round" stroke-miterlimit="10" d="M11.5 14.5v7a2 2 0 01-2 2h-7a2 2 0 01-2-2v-15a2 2 0 012-2h3m0 4h-5m11 11H.5m4-13h1m18 1.5A1.5 1.5 0 0122 9.5h-5.5l-3 3v-3H10A1.5 1.5 0 018.5 8V2A1.5 1.5 0 0110 .5h12A1.5 1.5 0 0123.5 2v6z"/><path d="M16.5 4a.5.5 0 10.002 1.002A.5.5 0 0016.5 4zm3 0a.5.5 0 10.002 1.002A.5.5 0 0019.5 4zm-5.969 0a.5.5 0 10.002 1.002A.5.5 0 0013.53 4z"/><path fill="none" stroke="#000" stroke-linejoin="round" stroke-miterlimit="10" d="M6.5 21.5a.5.5 0 01-.5.5h0a.5.5 0 01-.5-.5h0A.5.5 0 016 21h0a.5.5 0 01.5.5h0z"/><path fill="none" d="M0 0h24v24H0z"/></svg>