<svg xmlns="http://www.w3.org/2000/svg" viewBox="0 0 24 24" width="24" height="24"><g fill="none" stroke="#000" stroke-linejoin="round" stroke-miterlimit="10"><path stroke-linecap="round" d="M14.5 14v7.5a2 2 0 01-2 2h-7a2 2 0 01-2-2v-15a2 2 0 012-2h3m0 4h-5m11 11h-11m4-13h1"/><path d="M9.5 21.5a.5.5 0 01-.5.5h0a.5.5 0 01-.5-.5h0A.5.5 0 019 21h0a.5.5 0 01.5.5h0z"/><path stroke-linecap="round" d="M19.715 3.927c-1.35-.9-2.971-1.428-4.715-1.428s-3.365.527-4.715 1.428m8.32 1.664A6.465 6.465 0 0015 4.499a6.464 6.464 0 00-3.604 1.092m6.101 1.664c-.716-.477-1.573-.756-2.497-.756s-1.781.279-2.496.756"/><circle stroke-linecap="round" cx="15" cy="9.999" r="1.5"/></g><path fill="none" d="M0 0h24v24H0z"/></svg>