<svg xmlns="http://www.w3.org/2000/svg" viewBox="0 0 24 24" width="24" height="24"><defs><style>.a{fill:none;stroke:#000;stroke-linecap:round;stroke-linejoin:round;stroke-width:1.5px}</style></defs><title>mobile-shopping-shop-hand</title><path class="a" d="M8.25 13.5V9m12 0v11.25a3 3 0 0 1-3 3h-6a3 3 0 0 1-3-3v-3m6 1.5h6"/><path class="a" d="M8.25 17.25h3.261a1.877 1.877 0 1 0 0-3.75h-5.38m.163 6.624A3.1 3.1 0 0 0 8.25 17.25M2.279 9.026A5.85 5.85 0 0 0 .75 12.978V18.4c0 1.48.951 2.181 2.25 2.89v1.96M17.25 6.545a2.769 2.769 0 0 0 3 2.455 2.769 2.769 0 0 0 3-2.455L21.424 1.39a.977.977 0 0 0-.976-.64H8.052a.977.977 0 0 0-.976.64L5.25 6.545A2.769 2.769 0 0 0 8.25 9a2.769 2.769 0 0 0 3-2.455 2.769 2.769 0 0 0 3 2.455 2.769 2.769 0 0 0 3-2.455zm-6-5.795v5.795m6-5.795v5.795"/></svg>