<svg xmlns="http://www.w3.org/2000/svg" viewBox="0 0 24 24" width="24" height="24"><path fill="none" stroke="#000" stroke-linecap="round" stroke-linejoin="round" stroke-miterlimit="10" d="M18.5 21.5a2 2 0 01-2 2h-9a2 2 0 01-2-2v-19a2 2 0 012-2h9a2 2 0 012 2v19zm0-17h-13m13 15h-13m4-17h5"/><path fill="none" stroke="#000" stroke-linejoin="round" stroke-miterlimit="10" d="M12.5 21.5a.5.5 0 01-.5.5h0a.5.5 0 01-.5-.5h0a.5.5 0 01.5-.5h0a.5.5 0 01.5.5h0zM12 7l1.5 3.5H17L14 13l1.5 4-3.5-3-3.5 3 1.5-4-3-2.5h3.5z"/><path fill="none" d="M0 0h24v24H0z"/></svg>