<svg xmlns="http://www.w3.org/2000/svg" viewBox="0 0 24 24" width="24" height="24"><path fill="none" stroke="#000" stroke-linecap="round" stroke-linejoin="round" stroke-miterlimit="10" d="M4.5 4.5h14v9h-14zm4.5-2h5"/><path d="M7 16H6v1h1v-1zm2 0H8v1h1v-1zm2 0h-1v1h1v-1zm-4 2H6v1h1v-1zm2 0H8v1h1v-1zm2 0h-1v1h1v-1zm-4 2H6v1h1v-1zm2 0H8v1h1v-1zm2 0h-1v1h1v-1zm2-4h-1v1h1v-1zm0 2h-1v1h1v-1zm0 2h-1v1h1v-1zm2-4h-1v1h1v-1zm0 2h-1v1h1v-1zm0 2h-1v1h1v-1zm2-4h-1v1h1v-1zm0 2h-1v1h1v-1zm0 2h-1v1h1v-1z"/><path fill="none" stroke="#000" stroke-linecap="round" stroke-linejoin="round" stroke-miterlimit="10" d="M20.5 20.5c0 1.65-1.35 3-3 3h-12c-1.65 0-3-1.35-3-3V2c0-.825.675-1.5 1.5-1.5h15c.825 0 1.5.675 1.5 1.5v18.5z"/><path fill="none" d="M0 0h24v24H0z"/></svg>