<svg xmlns="http://www.w3.org/2000/svg" viewBox="0 0 24 24" width="24" height="24"><g fill="none" stroke="#000" stroke-linejoin="round" stroke-miterlimit="10"><path stroke-linecap="round" d="M14.5 14.5v7a2 2 0 01-2 2h-7a2 2 0 01-2-2v-15a2 2 0 012-2h3m0 4h-5m11 11h-11m4-13h1"/><path d="M9.5 21.5a.5.5 0 01-.5.5h0a.5.5 0 01-.5-.5h0A.5.5 0 019 21h0a.5.5 0 01.5.5h0z"/><path stroke-linecap="round" d="M10.5 6L17 1.5 23.5 6"/><path stroke-linecap="round" d="M12.5 4.617V11.5h9V4.617"/><path stroke-linecap="round" d="M15.5 11.5v-4h3v4"/></g><path fill="none" d="M0 0h24v24H0z"/></svg>