<svg xmlns="http://www.w3.org/2000/svg" viewBox="0 0 24 24" width="24" height="24"><g fill="none" stroke="#000" stroke-linejoin="round" stroke-miterlimit="10"><path stroke-linecap="round" d="M11.5 14.5v7a2 2 0 01-2 2h-7a2 2 0 01-2-2v-15a2 2 0 012-2h3m0 4h-5m11 11H.5m4-13h1"/><path d="M6.5 21.5a.5.5 0 01-.5.5h0a.5.5 0 01-.5-.5h0A.5.5 0 016 21h0a.5.5 0 01.5.5h0z"/><path stroke-linecap="round" d="M12.5 9V4l5.569 2.5z"/><path stroke-linecap="round" d="M21.5 9.5a2 2 0 01-2 2h-9a2 2 0 01-2-2v-6a2 2 0 012-2h9a2 2 0 012 2v6z"/></g><path fill="none" d="M0 0h24v24H0z"/></svg>