<svg xmlns="http://www.w3.org/2000/svg" viewBox="0 0 24 24" width="24" height="24"><g fill="none" stroke="#000" stroke-linecap="round" stroke-linejoin="round" stroke-miterlimit="10"><path d="M21.5 3v2.5H19"/><path d="M12.5 5.5c.617-1.747 2.541-3 4.5-3s3.883 1.253 4.5 3M12.5 11V8.5H15"/><path d="M21.5 8.5c-.617 1.747-2.541 3-4.5 3s-3.883-1.253-4.5-3"/></g><g fill="none" stroke="#000" stroke-linejoin="round" stroke-miterlimit="10"><path stroke-linecap="round" d="M15.5 14.5v7a2 2 0 01-2 2h-7a2 2 0 01-2-2v-15a2 2 0 012-2h3m0 4h-5m11 11h-11m4-13h1"/><path d="M10.5 21.5a.5.5 0 01-.5.5h0a.5.5 0 01-.5-.5h0a.5.5 0 01.5-.5h0a.5.5 0 01.5.5h0z"/></g><path fill="none" d="M0 0h24v24H0z"/></svg>