<svg xmlns="http://www.w3.org/2000/svg" viewBox="0 0 24 24" width="24" height="24"><defs><style>.a{fill:none;stroke:#000;stroke-linecap:round;stroke-linejoin:round;stroke-width:1.5px}</style></defs><title>mobile-phone-blackberry-1</title><rect class="a" x="4.5" y=".75" width="15" height="22.5" rx="3" ry="3"/><path class="a" d="M4.5 3.75h15v9h-15zm7.5 12a.375.375 0 1 0 .375.375.375.375 0 0 0-.375-.375m0 3.75a.375.375 0 1 0 .375.375A.375.375 0 0 0 12 19.5m3.75-3.75a.375.375 0 1 0 .375.375.375.375 0 0 0-.375-.375m0 3.75a.375.375 0 1 0 .375.375.375.375 0 0 0-.375-.375m-7.5-3.75a.375.375 0 1 0 .375.375.375.375 0 0 0-.375-.375m0 3.75a.375.375 0 1 0 .375.375.375.375 0 0 0-.375-.375"/></svg>