<svg xmlns="http://www.w3.org/2000/svg" viewBox="0 0 24 24" width="24" height="24"><path d="M20.139 12.914a1.5 1.5 0 010 2.121l-4.95 4.95a1.5 1.5 0 01-2.121 0l-9.899-9.899a1.5 1.5 0 010-2.121l4.95-4.95a1.5 1.5 0 012.121 0l9.899 9.899zm-15.203-1.06l7.071-7.072m0 14.143l7.071-7.071M5.643 8.318l2.829-2.829M17.405 1.5l-2.598 1.997L17.405 5.5m-2.561-1.966c3.462-.654 6.868 1.12 8.656 3.964M7.247 22.5l2.6-1.997-2.6-2.003m2.563 1.966c-3.462.654-6.868-1.12-8.656-3.964" fill="none" stroke="#000" stroke-linecap="round" stroke-linejoin="round" stroke-miterlimit="10"/><path fill="none" d="M0 0h24v24H0z"/></svg>