<svg xmlns="http://www.w3.org/2000/svg" viewBox="0 0 24 24" width="24" height="24"><g fill="none" stroke="#000" stroke-linejoin="round" stroke-miterlimit="10"><path stroke-linecap="round" d="M18.5 21.5a2 2 0 01-2 2h-9a2 2 0 01-2-2v-19a2 2 0 012-2h9a2 2 0 012 2v19zm0-17h-13m13 15h-13m4-17h5"/><path d="M12.5 21.5a.5.5 0 01-.5.5h0a.5.5 0 01-.5-.5h0a.5.5 0 01.5-.5h0a.5.5 0 01.5.5h0z"/><path d="M9.5 9.5h5v6h-5zm1-1.959h3V9.5h-3zM7.5 9.5h9" stroke-linecap="round"/></g><path fill="none" d="M0 0h24v24H0z"/></svg>