<svg xmlns="http://www.w3.org/2000/svg" viewBox="0 0 24 24" width="24" height="24"><path fill="none" stroke="#000" stroke-linecap="round" stroke-linejoin="round" stroke-miterlimit="10" d="M17.5 16.5c0 .55-.45 1-1 1h-9c-.55 0-1-.45-1-1v-11c0-.55.45-1 1-1h9c.55 0 1 .45 1 1v11z"/><path fill="none" stroke="#000" stroke-linecap="round" stroke-linejoin="round" stroke-miterlimit="10" d="M19.5 20.5c0 1.65-1.35 3-3 3h-9c-1.65 0-3-1.35-3-3v-17c0-1.649 1.35-3 3-3h9c1.65 0 3 1.351 3 3v17zm-10-18h5"/><path d="M9 20H8v1h1v-1zm7 0h-1v1h1v-1z"/><path fill="none" stroke="#000" stroke-linecap="round" stroke-linejoin="round" stroke-miterlimit="10" d="M10.5 19.5h3v2h-3z"/><path fill="none" d="M0 0h24v24H0z"/></svg>