<svg xmlns="http://www.w3.org/2000/svg" viewBox="0 0 24 24" width="24" height="24"><g fill="none" stroke="#000" stroke-linejoin="round" stroke-miterlimit="10"><path stroke-linecap="round" d="M18.5 4.5h-13m13 15h-13m4-17h5M16 13.036l-3 2.151-4-2.151-3.5 2.128V21.5a2 2 0 002 2h9a2 2 0 002-2v-7.571l-2.5-.893zM8.766 9.062l4.211 2L16.082 8.5l2.418.809V2.5a2 2 0 00-2-2h-9a2 2 0 00-2 2v8.51l3.266-1.948zM3 11.5H.5m2-3l-2-2m2 8l-2 2m20.5-5h2.5m-2-3l2-2m-2 8l2 2"/><path d="M12.5 21.5a.5.5 0 01-.5.5h0a.5.5 0 01-.5-.5h0a.5.5 0 01.5-.5h0a.5.5 0 01.5.5h0z"/></g><path fill="none" d="M0 0h24v24H0z"/></svg>