<svg xmlns="http://www.w3.org/2000/svg" viewBox="0 0 24 24" width="24" height="24"><g fill="none" stroke="#000" stroke-linejoin="round" stroke-miterlimit="10"><path stroke-linecap="round" d="M10.5 17.002V20.5a2 2 0 01-2 2h-6a2 2 0 01-2-2v-16a2 2 0 012-2h6a2 2 0 012 2v3.501m0-1.501H.5m10 12H.5M4 4.5h3m6.5 3.501V4.5a2 2 0 012-2h6a2 2 0 012 2v16a2 2 0 01-2 2h-6a2 2 0 01-2-2v-3.498M23.5 6.5h-10m10 12h-10m3.5-14h3M8.977 9.516l6 6m0-6l-6 6"/><path d="M6 20.5a.5.5 0 01-.5.5h0a.5.5 0 01-.5-.5h0a.5.5 0 01.5-.5h0a.5.5 0 01.5.5h0zm13 0a.5.5 0 01-.5.5h0a.5.5 0 01-.5-.5h0a.5.5 0 01.5-.5h0a.5.5 0 01.5.5h0z"/></g><path fill="none" d="M0 0h24v24H0z"/></svg>