<svg xmlns="http://www.w3.org/2000/svg" viewBox="0 0 24 24" width="24" height="24"><g fill="none" stroke="#000" stroke-linejoin="round" stroke-miterlimit="10"><path stroke-linecap="round" d="M18.5 21.5a2 2 0 01-2 2h-9a2 2 0 01-2-2v-19a2 2 0 012-2h9a2 2 0 012 2v19zm0-17h-13m13 15h-13m4-17h5"/><path d="M12.5 21.5a.5.5 0 01-.5.5h0a.5.5 0 01-.5-.5h0a.5.5 0 01.5-.5h0a.5.5 0 01.5.5h0z"/><path stroke-linecap="round" d="M7.5 6.5h2v2h-2zm0 9h2v2h-2zm7-9h2v2h-2zm-7 4h3v1m-3 2h4m5 4v-2h-2.984m0-2v-1m2.984 1h-.984M11.5 15.531V17.5h3m-3-10.984V8.5h1m.016 2h4"/></g><path fill="none" d="M0 0h24v24H0z"/></svg>