<svg xmlns="http://www.w3.org/2000/svg" viewBox="0 0 24 24" width="24" height="24"><g fill="none" stroke="#000" stroke-linejoin="round" stroke-miterlimit="10"><path stroke-linecap="round" d="M18.5 21.5a2 2 0 01-2 2h-9a2 2 0 01-2-2v-19a2 2 0 012-2h9a2 2 0 012 2v19zm0-17h-13m13 15h-13m4-17h5"/><path d="M12.5 21.5a.5.5 0 01-.5.5h0a.5.5 0 01-.5-.5h0a.5.5 0 01.5-.5h0a.5.5 0 01.5.5h0z"/><g stroke-linecap="round"><path d="M8 7.508h1.5v6h6v-4h-6"/><circle cx="10.5" cy="15.492" r=".5"/><circle cx="14.5" cy="15.492" r=".5"/></g></g><path fill="none" d="M0 0h24v24H0z"/></svg>