<svg xmlns="http://www.w3.org/2000/svg" viewBox="0 0 24 24" width="24" height="24"><g fill="none" stroke="#000" stroke-linejoin="round" stroke-miterlimit="10"><path stroke-linecap="round" d="M21.5 5.5a2 2 0 012 2v9a2 2 0 01-2 2h-19a2 2 0 01-2-2v-9a2 2 0 012-2h19zm-2 0v13m-15-13v13m-2-4v-5"/><path stroke-linecap="round" d="M8.5 10.5h7v6h-7zm1-.5a2.5 2.5 0 115 0v.5h-5V10z"/><path d="M12.5 13a.5.5 0 01-.5.5h0a.5.5 0 01-.5-.5h0a.5.5 0 01.5-.5h0a.5.5 0 01.5.5h0zm9.5-1a.5.5 0 01-.5.5h0a.5.5 0 01-.5-.5h0a.5.5 0 01.5-.5h0a.5.5 0 01.5.5h0z"/></g><path fill="none" d="M0 0h24v24H0z"/></svg>