<svg xmlns="http://www.w3.org/2000/svg" viewBox="0 0 24 24" width="24" height="24"><defs><style>.a{fill:none;stroke:#000;stroke-linecap:round;stroke-linejoin:round;stroke-width:1.5px}</style></defs><title>modern-weapon-tank-machine-gun</title><circle class="a" cx="9.75" cy="20.25" r="3"/><path class="a" d="M6.75 20.25l-6 3m12-3h6.879a1.5 1.5 0 0 1 1.06.439l2.561 2.561m-11.682-5.386L14.03 15.4a.75.75 0 0 0 0-1.061l-2.651-2.652a1.5 1.5 0 0 0-2.122 0L5.545 15.4a.749.749 0 0 0 0 1.06l1.885 1.888m4.415-6.193L18.75 5.25m0 0a1.9 1.9 0 0 0 2.825-.156L23.25 3 21 .75l-2.094 1.675a1.9 1.9 0 0 0-.156 2.825z"/><path class="a" d="M6.723 14.223l-1.162-1.162a1.5 1.5 0 0 1 0-2.122L6.75 9.75"/></svg>