<svg xmlns="http://www.w3.org/2000/svg" viewBox="0 0 24 24" width="24" height="24"><defs><style>.a{fill:none;stroke:#000;stroke-linecap:round;stroke-linejoin:round;stroke-width:1.5px}</style></defs><title>modern-weapon-van-machine-gun</title><circle class="a" cx="18" cy="19.5" r="2.25"/><circle class="a" cx="6" cy="19.5" r="2.25"/><path class="a" d="M20.122 18.75h1.628a1.5 1.5 0 0 0 1.5-1.5v-1.5a3 3 0 0 0-3-3h-.75l-2.568-3.744a1.5 1.5 0 0 0-1.3-.756H11.25v4.5h-9a1.5 1.5 0 0 0-1.5 1.5v3a1.5 1.5 0 0 0 1.5 1.5h1.629M5.25 5.25h4.5a1.5 1.5 0 0 0 0-3h-4.5zm6-1.5h4.5"/><path class="a" d="M9 7.5l-3.75 3v2.25m0-9h-1.5a1.5 1.5 0 0 0-1.5 1.5m13.629 13.5H8.121m3.129-6h8.25"/></svg>