<svg xmlns="http://www.w3.org/2000/svg" viewBox="0 0 24 24" width="24" height="24"><defs><style>.a{fill:none;stroke:#000;stroke-linecap:round;stroke-linejoin:round;stroke-width:1.5px}</style></defs><title>modern-music-cymbal</title><path class="a" d="M13.501 23.25v-7.598m-3 .001v7.597M13.5 5.348V2.767a.519.519 0 0 0-.521-.517h-1.956a.519.519 0 0 0-.517.521l.005 2.572M12.001.75v1.5M2.25 9h19.5"/><path class="a" d="M19.685 9a1.729 1.729 0 0 0-.185-.75c-.75-1.5-4.186-3-7.5-3s-6.75 1.5-7.5 3a1.729 1.729 0 0 0-.185.75M2.25 12h19.5m-2.065 0a1.729 1.729 0 0 1-.185.75c-.75 1.5-4.186 3-7.5 3s-6.75-1.5-7.5-3a1.729 1.729 0 0 1-.185-.75"/></svg>