<svg xmlns="http://www.w3.org/2000/svg" viewBox="0 0 24 24" width="24" height="24"><defs><style>.a{fill:none;stroke:#000;stroke-linecap:round;stroke-linejoin:round;stroke-width:1.5px}</style></defs><title>modern-weapon-shotgun</title><path class="a" d="M11.759 12.374L9.123 6.909 4.182 9.292A6.067 6.067 0 0 0 .8 15.529l.747 6.99a.758.758 0 0 0 1.081.586L5.4 21.77a1.516 1.516 0 0 0 .822-1.67l-.611-4.757 6.148-2.965"/><path class="a" d="M9.123 6.909L21.643.87a.507.507 0 0 1 .677.237l.877 1.818a.507.507 0 0 1-.237.677L10.44 9.641 9.123 6.909z"/><path class="a" d="M10.441 9.64l6.831-3.294.877 1.818a1.015 1.015 0 0 1-.473 1.355l-5.917 2.854-1.318-2.733zm-4.83 5.699l-4.595 2.216m5.043 1.076L8.9 17.5a1.517 1.517 0 0 0 .954-1.408v-2.798"/></svg>