<svg xmlns="http://www.w3.org/2000/svg" viewBox="0 0 24 24" width="24" height="24"><defs><style>.a{fill:none;stroke:#000;stroke-linecap:round;stroke-linejoin:round;stroke-width:1.5px}</style></defs><title>modern-architecture-1</title><path class="a" d="M11.755 22.768a106.345 106.345 0 0 1-1.516-13.142c0-4.485 5.56-5.559 5.56-5.559M4.973 22.768A106.345 106.345 0 0 0 6.489 9.626c0-4.485-5.56-5.559-5.56-5.559M.75 22.768h22.5M7.236 4.71a6.9 6.9 0 0 0-3.747-2.7m6 2.705a6.9 6.9 0 0 1 3.75-2.706M6.305 13.018h4.119m10.543 9.75s-1.516-5.971-1.516-9.1 3.538-3.538 3.538-3.538"/><path class="a" d="M14.511 22.768s1.516-5.971 1.516-9.1-3.538-3.538-3.538-3.538m2.25-2.362a9.06 9.06 0 0 1 4.5 5.152l.212.75m1.288-5.902a9.42 9.42 0 0 0-3 2.4M5.492 2.959L6.992 1m4.183 1.959L9.674 1"/></svg>