<svg xmlns="http://www.w3.org/2000/svg" viewBox="0 0 24 24" width="24" height="24"><defs><style>.a{fill:none;stroke:#000;stroke-linecap:round;stroke-linejoin:round;stroke-width:1.5px}</style></defs><title>modern-architecture-cloud</title><path class="a" d="M.75 22.75h22.5m-19.918-4.5a.75.75 0 0 1-.7-1.013L8.439 1.746a.75.75 0 0 1 1.354-.109L12 5.5l1.472-1.962a.75.75 0 0 1 1.289.154L20.552 17.2a.749.749 0 0 1-.689 1.045zM12 5.5v12.75m-7.5 0v4.5m15-4.5v4.5m-9.75-15H6.188m2.062 3H5.063m2.437 3H3.938m11.062-3h2.786m-2.036 3h3.321M9 18.25v4.5m6-4.5v4.5"/></svg>