<svg xmlns="http://www.w3.org/2000/svg" viewBox="0 0 24 24" width="24" height="24"><defs><style>.a{fill:none;stroke:#000;stroke-linecap:round;stroke-linejoin:round;stroke-width:1.5px}</style></defs><title>modern-music-guitar</title><path class="a" d="M12 .75h2.25a1.5 1.5 0 0 1 1.5 1.5v7.5a1.5 1.5 0 0 1-1.5 1.5h-12a1.5 1.5 0 0 1-1.5-1.5v-7.5a1.5 1.5 0 0 1 1.5-1.5h3"/><circle class="a" cx="6.75" cy="6.75" r="1.5"/><path class="a" d="M8.25 6.75v-4.5l2.25 1.5m-3.75 10.5h-6v3h4.5m3-6v1.5m3.75 6l1.5 1.5m9.607-9.861a.489.489 0 0 0 0-.692l-.776-.775a.489.489 0 0 0-.692 0L16.666 13.9a2.515 2.515 0 0 0-3.908 1.81c-3.994-.857-5.211 3.539-2.592 6.158s7.01 1.38 6.157-2.593a2.513 2.513 0 0 0 1.811-3.908zM2.25 17.25l-1.5 3"/></svg>