<svg xmlns="http://www.w3.org/2000/svg" viewBox="0 0 24 24" width="24" height="24"><defs><style>.a{fill:none;stroke:#000;stroke-linecap:round;stroke-linejoin:round;stroke-width:1.5px}</style></defs><title>modern-tv-remote-smart</title><rect class="a" x="6.75" y=".75" width="10.5" height="22.5" rx="3" ry="3"/><path class="a" d="M6.75 12.75h10.5m-7.5-3.375a.375.375 0 1 0 .375.375.375.375 0 0 0-.375-.375m0 6.75a.375.375 0 1 0 .375.375.375.375 0 0 0-.375-.375m0 3a.375.375 0 1 0 .375.375.375.375 0 0 0-.375-.375m4.5-9.75a.375.375 0 1 0 .375.375.375.375 0 0 0-.375-.375M10.5 3.75h3m.75 12.75v3"/></svg>