<svg xmlns="http://www.w3.org/2000/svg" viewBox="0 0 24 24" width="24" height="24"><defs><style>.a{fill:none;stroke:#000;stroke-linecap:round;stroke-linejoin:round;stroke-width:1.5px}</style></defs><title>modern-weapon-tank-1</title><rect class="a" x="11.25" y="3.375" width="9" height="6.75" rx="1" ry="1"/><path class="a" d="M20.25 6.375h.6a2.751 2.751 0 0 1 2.4 3v.75m-12-1.5H.75m10.5-3H.75m1.5-2.25v5.25m4.5-3v3m9-6.75v1.5m-3 18.75v-12h4.5v12m-4.5-9h4.5m-4.5 3h4.5m-4.5 3h4.5m3-2.25l2.4 1.8a1.5 1.5 0 0 1 .6 1.2v2.25m-13.5-5.25l-2.4 1.8a1.5 1.5 0 0 0-.6 1.2v2.25m7.5-16.5v1.5"/></svg>