<svg xmlns="http://www.w3.org/2000/svg" viewBox="0 0 24 24" width="24" height="24"><defs><style>.a{fill:none;stroke:#000;stroke-linecap:round;stroke-linejoin:round;stroke-width:1.5px}</style></defs><title>modern-music-dj</title><path class="a" d="M23.25 20.25H.75v1.5a1.5 1.5 0 0 0 1.5 1.5h19.5a1.5 1.5 0 0 0 1.5-1.5zm-4.581-6H5.331a1.5 1.5 0 0 0-1.272.705L.75 20.25h22.5l-3.309-5.295a1.5 1.5 0 0 0-1.272-.705zm-7.419 3h1.5M7.5 16.5L6.75 18m9.75-1.5l.75 1.5"/><circle class="a" cx="12" cy="8.25" r="3.75"/><path class="a" d="M18 6.75a6 6 0 0 0-12 0m12-1.5a3 3 0 0 1 0 6zm-12 0a3 3 0 0 0 0 6z"/></svg>