<svg xmlns="http://www.w3.org/2000/svg" viewBox="0 0 24 24" width="24" height="24"><defs><style>.a{fill:none;stroke:#000;stroke-linecap:round;stroke-linejoin:round;stroke-width:1.5px}</style></defs><title>modern-architecture-high-cloud-building</title><path class="a" d="M18.193 22.307a.75.75 0 0 1-.725.943H5.921a.75.75 0 0 1-.725-.943l5.555-20.832a.976.976 0 0 1 1.887 0z"/><path class="a" d="M4.945 15.75l-.693-9.7A.75.75 0 0 1 5 5.25h13.389a.75.75 0 0 1 .748.8l-.692 9.7M14.645 9h-5.9m7.1 4.5H7.593m9.452 4.5h-10.7m5.35 3v2.25"/></svg>