<svg xmlns="http://www.w3.org/2000/svg" viewBox="0 0 24 24" width="24" height="24"><defs><style>.a{fill:none;stroke:#000;stroke-linecap:round;stroke-linejoin:round;stroke-width:1.5px}</style></defs><title>modern-music-drums</title><circle class="a" cx="12" cy="17.25" r="5.25"/><path class="a" d="M7.99 20.639L6.75 22.5m9.26-1.861l1.24 1.861m-16.5 0l1.5-1.5M3.755 7.505L5.25 6m-1.5 16.5L2.25 21V10.864a4.5 4.5 0 0 1 1.505-3.359M6 9.75l-4.5-4.5M23.25 22.5l-1.5-1.5M20.245 3.755L18.75 2.25m1.5 20.25l1.5-1.5V7.114a4.5 4.5 0 0 0-1.5-3.359M18 6l4.5-4.5"/></svg>