<svg xmlns="http://www.w3.org/2000/svg" viewBox="0 0 24 24" width="24" height="24"><defs><style>.a{fill:none;stroke:#000;stroke-linecap:round;stroke-linejoin:round;stroke-width:1.5px}</style></defs><title>modern-weapon-gun</title><path class="a" d="M20.25 3.25h-15a4.5 4.5 0 0 0-4.5 4.5v4.5a2.771 2.771 0 0 1 2.71 3.35l-1.21 5.65H9l1.674-7.814a1.5 1.5 0 0 1 1.467-1.186h8.109zm0 1.5h2.5a.5.5 0 0 1 .5.5v3.5a.5.5 0 0 1-.5.5h-2.5v-4.5z"/><path class="a" d="M10.286 15.25h3.037a1.5 1.5 0 0 0 1.342-.829l1.085-2.171m-6.75 9h2.25m4.5-18V5.5a.75.75 0 0 1-.75.75h-4.5a.75.75 0 0 1-.75-.75V3.25m1.5 6H.75m3.804-5.946L3 1.75"/></svg>