<svg xmlns="http://www.w3.org/2000/svg" viewBox="0 0 24 24" width="24" height="24"><defs><style>.a{fill:none;stroke:#000;stroke-linecap:round;stroke-linejoin:round;stroke-width:1.5px}</style></defs><title>modern-weapon-tank</title><path class="a" d="M6 22.5a3 3 0 0 1 0-6h12.75a3 3 0 0 1 0 6z"/><path class="a" d="M3 19.5l-2-1.872a1.5 1.5 0 0 1-.25-.828v-3.3a1.5 1.5 0 0 1 1.5-1.5h17.2a1.5 1.5 0 0 1 1.248.668l2.072 3.108a1.5 1.5 0 0 1 .094 1.5L21.75 19.5m-6-7.5H9L3.884 8.787A4.5 4.5 0 0 1 3.75 7.7V4.5h10.5a1.5 1.5 0 0 1 1.5 1.5zm-12-7.5H1.5m14.25 3h7.5m0-1.5v3m-15-7.5h4.5m-.375 17.625a.375.375 0 0 1 .375.375m-.75 0a.375.375 0 0 1 .375-.375m0 .75A.375.375 0 0 1 12 19.5m.75 0a.375.375 0 0 1-.375.375m-5.625-.75a.375.375 0 0 1 .375.375m-.75 0a.375.375 0 0 1 .375-.375m0 .75a.375.375 0 0 1-.375-.375m.75 0a.375.375 0 0 1-.375.375m11.25-.75a.375.375 0 0 1 .375.375m-.75 0a.375.375 0 0 1 .375-.375m0 .75a.375.375 0 0 1-.375-.375m.75 0a.375.375 0 0 1-.375.375"/></svg>