<svg xmlns="http://www.w3.org/2000/svg" viewBox="0 0 24 24" width="24" height="24"><defs><style>.a{fill:none;stroke:#000;stroke-linecap:round;stroke-linejoin:round;stroke-width:1.5px}</style></defs><title>modern-architecture-spiral</title><path class="a" d="M.75 23.25h22.5M7.5 13.5V8.25m9-2.25v5.25m1.5-6a.75.75 0 0 1-.75.75h-6v2.25h-4.5A.75.75 0 0 1 6 7.5v-6a.75.75 0 0 1 .75-.75h10.5a.75.75 0 0 1 .75.75zm0 18V12a.75.75 0 0 0-.75-.75h-4.5v2.25h-6a.75.75 0 0 0-.75.75v9m0-6h3.75m4.5 3H18m-12 0h5.25M6 3.75h3.75"/></svg>