<svg xmlns="http://www.w3.org/2000/svg" viewBox="0 0 24 24" width="24" height="24"><defs><style>.a{fill:none;stroke:#000;stroke-linecap:round;stroke-linejoin:round;stroke-width:1.5px}</style></defs><title>modern-tv-channel-van</title><path class="a" d="M8.25 18.75v-9a1.5 1.5 0 0 1 1.5-1.5h12a1.5 1.5 0 0 1 1.5 1.5v9a1.5 1.5 0 0 1-1.5 1.5h-1.629M8.25 18.75v-9H5.6C3.161 9.75.75 13.5.75 15.493v3.257a1.5 1.5 0 0 0 1.5 1.5h3.879"/><circle class="a" cx="8.25" cy="21" r="2.25"/><circle class="a" cx="18" cy="21" r="2.25"/><path class="a" d="M.75 15.75h7.5m9.803-15a3.75 3.75 0 0 1-5.3 5.3zm-2.651 2.652L13.5 1.5m-.75 14.25v-4.5m-1.5 0h3m3 0v1.528a4.041 4.041 0 0 0 1.5 2.972 4.041 4.041 0 0 0 1.5-2.972V11.25m-9.879 9h5.507"/></svg>