<svg xmlns="http://www.w3.org/2000/svg" viewBox="0 0 24 24" width="24" height="24"><defs><style>.a{fill:none;stroke:#000;stroke-linecap:round;stroke-linejoin:round;stroke-width:1.5px}</style></defs><title>modern-architecture-building-1</title><path class="a" d="M5.25 23.25h3v-3a1.5 1.5 0 0 0-3 0zm-4.5 0h22.5M9 7.5v8.25a.75.75 0 0 0 .75.75H15M2.25 23.25V7.5"/><path class="a" d="M21 .75a.75.75 0 0 1 .75.75v21.75H15v-15a.75.75 0 0 0-.75-.75h-12v-6A.75.75 0 0 1 3 .75zM2.25 11.25H6m-3.75 3H6m12-9h3.75m-3.75 3h3.75m-3.75 3h3.75"/></svg>