<svg xmlns="http://www.w3.org/2000/svg" viewBox="0 0 24 24" width="24" height="24"><defs><style>.a{fill:none;stroke:#000;stroke-linecap:round;stroke-linejoin:round;stroke-width:1.5px}</style></defs><title>modern-music-bass-guitar</title><path class="a" d="M8.269 6L8.25.75l-3 1.463v3.801L8.269 6zM6.75 6v9.713m-3-12l1.5-.01m4.383 0l-1.383.005m-2.02 7.505a1.5 1.5 0 0 0-1.383.92L.856 21.68a1.1 1.1 0 0 0 1.4 1.49l4.474-1.893 4.486 1.893a1.1 1.1 0 0 0 1.338-.43 1.1 1.1 0 0 0 .064-1.06l-4-9.547a1.5 1.5 0 0 0-1.384-.92zm8.209 12.023l6.858.014a1.964 1.964 0 0 0 1.953-1.976V9.462A1.964 1.964 0 0 0 21.283 7.5l-10.05.016M23.25 10.5H11.233M13.5 6l.004 1.513M16.496 6l.004 1.508M19.496 6l.004 1.5m-6.032 8.326a3.005 3.005 0 1 1 1.563 3.333"/></svg>