<svg xmlns="http://www.w3.org/2000/svg" viewBox="0 0 24 24" width="24" height="24"><defs><style>.a{fill:none;stroke:#000;stroke-linecap:round;stroke-linejoin:round;stroke-width:1.5px}</style></defs><title>modern-music-monitor-speaker</title><circle class="a" cx="18" cy="18" r="2.25"/><circle class="a" cx="18" cy="11.25" r="1.5"/><rect class="a" x="12.75" y="6" width="10.5" height="17.25" rx="2" ry="2"/><path class="a" d="M9.75 17.25h-7.5a1.5 1.5 0 0 1-1.5-1.5V2.25a1.5 1.5 0 0 1 1.5-1.5h16.5a1.5 1.5 0 0 1 1.5 1.5M8.25 21v-3.75M7.5 21h2.25"/><circle class="a" cx="6.75" cy="9.75" r="1.5"/><path class="a" d="M13.673 3.739a1.5 1.5 0 0 0-1.287-.273l-3 .75A1.5 1.5 0 0 0 8.25 5.671V9.75m-7.5 4.5h9"/></svg>