<svg xmlns="http://www.w3.org/2000/svg" viewBox="0 0 24 24" width="24" height="24"><defs><style>.a{fill:none;stroke:#000;stroke-linecap:round;stroke-linejoin:round;stroke-width:1.5px}</style></defs><title>modern-weapon-bullets</title><path class="a" d="M3.75 6.75h6v16.5h-6zm0 0v-.343a6.416 6.416 0 0 1 1.879-4.536 1.586 1.586 0 0 1 2.242 0A6.416 6.416 0 0 1 9.75 6.407v.343zm-1.5 16.5h9m9-6h-6V.75h6z"/><path class="a" d="M20.25 17.25v.343a6.416 6.416 0 0 1-1.879 4.536 1.586 1.586 0 0 1-2.242 0 6.416 6.416 0 0 1-1.879-4.536v-.343zm1.5-16.5h-9"/></svg>