<svg xmlns="http://www.w3.org/2000/svg" viewBox="0 0 24 24" width="24" height="24"><defs><style>.a{fill:none;stroke:#000;stroke-linecap:round;stroke-linejoin:round;stroke-width:1.5px}</style></defs><title>modern-tv-3d-sync</title><path class="a" d="M.75 12A11.251 11.251 0 0 0 21 18.751m-3.75-.001H21v3.75m-6-6.75a3 3 0 0 0 3-3v-1.5a3 3 0 0 0-3-3h-1.5v7.5z"/><path class="a" d="M6 9.75a1.5 1.5 0 0 1 1.5-1.5l1.135.005A1.873 1.873 0 0 1 8.627 12a1.873 1.873 0 0 1 .008 3.745L7.5 15.75a1.5 1.5 0 0 1-1.5-1.5M23.25 12A11.251 11.251 0 0 0 3 5.249"/><path class="a" d="M6.75 5.25H3V1.5"/></svg>