<svg xmlns="http://www.w3.org/2000/svg" viewBox="0 0 24 24" width="24" height="24"><defs><style>.a{fill:none;stroke:#000;stroke-linecap:round;stroke-linejoin:round;stroke-width:1.5px}</style></defs><title>modern-weapon-machine-gun-1</title><path class="a" d="M.97 18.736a.749.749 0 0 0 0 1.06L4.2 23.03a.75.75 0 0 0 1.2-.2l2.534-5.069-3-3zm3.969-3.97l.24-2.467a.746.746 0 0 1 .216-.458l4.749-4.749a1.5 1.5 0 0 1 2.121 0l3.174 3.174-7.5 7.5zm9.75-5.25L23.25.955"/><path class="a" d="M12.439 7.266l2.787-2.786a1.5 1.5 0 0 1 1.154-.437l3.559.223m1.758-1.758L19.939.75m-12 17.016l3.661 3.659a.75.75 0 0 0 1.061 0l.722-.722a.75.75 0 0 0 .062-.99l-3.254-4.2m12.17-2.308a.747.747 0 0 0-.829-.561 6.246 6.246 0 0 1-4.758-1.31l-1.335-1.068-2.25 2.25 1.693 1.693a6.983 6.983 0 0 0 7.447 1.577.75.75 0 0 0 .458-.881z"/></svg>