<svg xmlns="http://www.w3.org/2000/svg" viewBox="0 0 24 24" width="24" height="24"><defs><style>.a{fill:none;stroke:#000;stroke-linecap:round;stroke-linejoin:round;stroke-width:1.5px}</style></defs><title>modern-architecture-top</title><path class="a" d="M12 3V.75m0 22.5V11.509M5.776 23.25A14.17 14.17 0 0 0 12 11.509a13.853 13.853 0 0 0-2.373-7.762H8.086L8.7 7.84A10.4 10.4 0 0 1 .75 19.5"/><path class="a" d="M18.224 23.25A14.17 14.17 0 0 1 12 11.509a13.853 13.853 0 0 1 2.373-7.762h1.541L15.3 7.84a10.4 10.4 0 0 0 7.95 11.66"/></svg>