<svg xmlns="http://www.w3.org/2000/svg" viewBox="0 0 24 24" width="24" height="24"><defs><style>.a{fill:none;stroke:#000;stroke-linecap:round;stroke-linejoin:round;stroke-width:1.5px}</style></defs><title>modern-architecture-building-2</title><path class="a" d="M15.533 1.61l-.3-.5a.751.751 0 0 0-.64-.36H9.442a.749.749 0 0 0-.643.364l-.3.5C4.374 8.015 4.4 15.817 7.32 22.789a.751.751 0 0 0 .692.461h8.011a.751.751 0 0 0 .692-.461c2.92-6.972 2.946-14.774-1.182-21.179zm1.792 19.59a18.043 18.043 0 0 1-12-10.118M6.373 6h11.289m.974 9.557A18.063 18.063 0 0 1 9.576 6M6.709 21.2a18.04 18.04 0 0 0 12-10.118M5.4 15.557A18.065 18.065 0 0 0 14.459 6M7.517 6A14.614 14.614 0 0 0 14.951.842"/></svg>