<svg xmlns="http://www.w3.org/2000/svg" viewBox="0 0 24 24" width="24" height="24"><defs><style>.a{fill:none;stroke:#000;stroke-linecap:round;stroke-linejoin:round;stroke-width:1.5px}</style></defs><title>modern-tv-remote-hand</title><path class="a" d="M7.687 12.75c.157 0-.375-.058-.375.375a.375.375 0 1 0 .375-.375m0 4.5c.157 0-.375-.058-.375.375a.375.375 0 1 0 .375-.375m6.001-14.377a9.541 9.541 0 0 0-12 0m2.499 2.603a5.567 5.567 0 0 1 7 0"/><path class="a" d="M9.562 23.25h-3.75a3 3 0 0 1-3-3v-9a3 3 0 0 1 3-3h3.75a3 3 0 0 1 3 3"/><path class="a" d="M15.563 15l-1.674-1.255a1.568 1.568 0 0 0-2.246.385 1.566 1.566 0 0 0 0 1.74l1.644 2.467a4.5 4.5 0 0 0 2.073 1.682l2.453.981v2.25M14.259 9.513l4.149 1.778a4.5 4.5 0 0 1 2.364 2.364l1.177 2.745a4.5 4.5 0 0 1 .364 1.773v5.077"/></svg>