<svg xmlns="http://www.w3.org/2000/svg" viewBox="0 0 24 24" width="24" height="24"><defs><style>.a{fill:none;stroke:#000;stroke-linecap:round;stroke-linejoin:round;stroke-width:1.5px}</style></defs><title>modern-tv-apple</title><path class="a" d="M.75 12.709v6.041a4.5 4.5 0 0 0 4.5 4.5h13.5a4.5 4.5 0 0 0 4.5-4.5v-6.041"/><path class="a" d="M18.574.75H5.426a3.041 3.041 0 0 0-2.992 2.5L.825 11.873a4.561 4.561 0 0 0 4.487 5.377h13.376a4.561 4.561 0 0 0 4.487-5.377l-1.609-8.626A3.041 3.041 0 0 0 18.574.75zM9 12.75v-7.5m-1.5 0h3"/><path class="a" d="M13.5 5.25V7.8a8.932 8.932 0 0 0 1.5 4.95 8.932 8.932 0 0 0 1.5-4.95V5.25"/></svg>