<svg xmlns="http://www.w3.org/2000/svg" viewBox="0 0 24 24" width="24" height="24"><defs><style>.a{fill:none;stroke:#000;stroke-linecap:round;stroke-linejoin:round;stroke-width:1.5px}</style></defs><title>module-phone-puzzle</title><path class="a" d="M15.686 10.1a1.7 1.7 0 1 1 2.4-2.4 1.749 1.749 0 0 1 .39.59.443.443 0 0 0 .315.267.422.422 0 0 0 .389-.113l1.325-1.325a.859.859 0 0 0-.012-1.213L19.1 4.519a1.653 1.653 0 0 0 .764-.436 1.733 1.733 0 0 0-2.45-2.45 1.661 1.661 0 0 0-.436.764l-1.386-1.389A.858.858 0 0 0 14.379 1l-1.23 1.23a.421.421 0 0 0-.12.345.445.445 0 0 0 .193.317 1.752 1.752 0 0 1 .27.221 1.7 1.7 0 1 1-2.4 2.4 1.752 1.752 0 0 1-.221-.27.44.44 0 0 0-.317-.193.422.422 0 0 0-.345.12L8.979 6.4a.858.858 0 0 0 .013 1.213l4.9 4.9a.858.858 0 0 0 1.213.013L16.43 11.2a.424.424 0 0 0 .113-.39.443.443 0 0 0-.267-.314 1.764 1.764 0 0 1-.59-.396z"/><path class="a" d="M15.31 15.751v4.768a2.732 2.732 0 0 1-2.732 2.732H6.043a2.733 2.733 0 0 1-2.733-2.732V4.984a2.734 2.734 0 0 1 2.733-2.733H9.31m-6 15h12"/><path class="a" d="M9.31 19.876a.375.375 0 1 0 .375.375.375.375 0 0 0-.375-.375"/></svg>