<svg xmlns="http://www.w3.org/2000/svg" viewBox="0 0 24 24" width="24" height="24"><defs><style>.a{fill:none;stroke:#000;stroke-linecap:round;stroke-linejoin:round;stroke-width:1.5px}</style></defs><title>module-hand-puzzle-1</title><path class="a" d="M17.436 10.852a1.7 1.7 0 1 1 2.4-2.4 1.752 1.752 0 0 1 .391.59.441.441 0 0 0 .314.267.422.422 0 0 0 .389-.109l1.325-1.325a.858.858 0 0 0-.012-1.213l-1.39-1.389a1.661 1.661 0 0 0 .765-.436 1.733 1.733 0 0 0-2.451-2.45 1.659 1.659 0 0 0-.435.764l-1.39-1.389a.858.858 0 0 0-1.213-.013L14.9 2.975a.417.417 0 0 0-.119.345.442.442 0 0 0 .193.317 1.745 1.745 0 0 1 .269.221 1.7 1.7 0 1 1-2.4 2.4 1.752 1.752 0 0 1-.221-.27.438.438 0 0 0-.322-.188.422.422 0 0 0-.345.12l-1.23 1.23a.859.859 0 0 0 .013 1.213l4.9 4.9a.857.857 0 0 0 1.212.013l1.325-1.325a.421.421 0 0 0 .113-.39.439.439 0 0 0-.267-.314 1.774 1.774 0 0 1-.585-.395zM1.484 13.5v9m0-1.5h16.5a3 3 0 0 0-3-3h-3.75a3 3 0 0 0-3-3h-6.75m6 3h3.75"/></svg>