<svg xmlns="http://www.w3.org/2000/svg" viewBox="0 0 24 24" width="24" height="24"><defs><style>.a{fill:none;stroke:#000;stroke-linecap:round;stroke-linejoin:round;stroke-width:1.5px}</style></defs><title>module-three-1</title><path class="a" d="M.75 15v5.25l5.25 3 3.75-2.143M6 23.25V18m12-6l-5.25 3L18 18l5.25-3L18 12z"/><path class="a" d="M12.75 15v5.25l5.25 3 5.25-3V15M18 18v5.25M12 .75l-5.25 3 5.25 3 5.25-3-5.25-3z"/><path class="a" d="M6.75 3.75V9L12 12l5.25-3V3.75m-5.25 3V12m-2.25 2.143L6 12 .75 15 6 18l3-1.714"/></svg>