<svg xmlns="http://www.w3.org/2000/svg" viewBox="0 0 24 24" width="24" height="24"><defs><style>.a{fill:none;stroke:#000;stroke-linecap:round;stroke-linejoin:round;stroke-width:1.5px}</style></defs><title>module-three-2</title><path class="a" d="M1.723 13.033a1.5 1.5 0 0 0-.973 1.405v5.625a1.5 1.5 0 0 0 .973 1.4l4.5 1.687a1.5 1.5 0 0 0 1.054 0l4.5-1.687a1.5 1.5 0 0 0 .973-1.4v-5.625a1.5 1.5 0 0 0-.973-1.405l-4.5-1.687a1.5 1.5 0 0 0-1.054 0z"/><path class="a" d="M1.008 13.597L6.75 15.75l5.742-2.153M6.75 15.75v7.5m16.2-19.4l-8.7 2.9-8.7-2.9m8.7 2.9v3.75"/><path class="a" d="M5.25 8.25v-3.5a1.5 1.5 0 0 1 1.026-1.423l7.5-2.5a1.493 1.493 0 0 1 .948 0l7.5 2.5A1.5 1.5 0 0 1 23.25 4.75v8.5a1.5 1.5 0 0 1-1.026 1.423l-6.474 2.158"/></svg>