<svg xmlns="http://www.w3.org/2000/svg" viewBox="0 0 24 24" width="24" height="24"><defs><style>.a{fill:none;stroke:#000;stroke-linecap:round;stroke-linejoin:round;stroke-width:1.5px}</style></defs><title>module</title><path class="a" d="M1.817 4.524l9.1-3.568a2.936 2.936 0 0 1 2.162 0l9.1 3.568a1.763 1.763 0 0 1 1.071 1.662v11.628a1.763 1.763 0 0 1-1.067 1.662l-9.1 3.569a2.956 2.956 0 0 1-2.162 0l-9.1-3.569A1.763 1.763 0 0 1 .75 17.814V6.186a1.763 1.763 0 0 1 1.067-1.662zM12 9.353L1.104 5.081M12 9.353l10.896-4.272M12 23.25V9.353"/></svg>