<svg xmlns="http://www.w3.org/2000/svg" viewBox="0 0 24 24" width="24" height="24"><g fill="none" stroke="#000" stroke-linejoin="round" stroke-miterlimit="10"><path stroke-linecap="round" d="M13.569 12.552l2.74-2.741-2.121-2.121-2.74 2.741c-.706.706-4.596.353-6.01 1.766L.555 17.081c-.708.708 5.656 7.071 6.363 6.364l4.884-4.884c1.414-1.413 1.06-5.303 1.767-6.009zm-.798-3.446l2.13 2.114M5.01 12.625l6.348 6.381m-9.192-3.537l6.372 6.356"/><path d="M22.729.602c.093 1.966-1.721 3.321-2.846 3.431.004-.554.062-1.09.469-1.504-1.367-.771-2.713-.615-3.753.228a3.497 3.497 0 004.402 5.434C23.193 6.413 23.98 3.16 22.729.602z"/><path stroke-linecap="round" d="M17.732 6.142l-2.539 2.554"/></g><path fill="none" d="M0 0h24v24H0z"/></svg>