<svg xmlns="http://www.w3.org/2000/svg" viewBox="0 0 24 24" width="24" height="24"><defs><style>.a{fill:none;stroke:#000;stroke-linecap:round;stroke-linejoin:round;stroke-width:1.5px}</style></defs><title>money-bag-dollar</title><path class="a" d="M13.574 12.75h-2.033a1.342 1.342 0 0 0-.5 2.587l2.064.826a1.342 1.342 0 0 1-.5 2.587h-2.031m1.5-6V12m0 7.5v-.75m-5.25-10.5h10.5M15.63 5.036l1.438-2.876a.75.75 0 0 0-1.006-1.006l-1.9.948a.75.75 0 0 1-.959-.255l-.503-.763a.75.75 0 0 0-1.248 0l-.509.763a.749.749 0 0 1-.959.255l-1.897-.948A.751.751 0 0 0 7.08 2.16l1.41 2.82"/><path class="a" d="M7.237 10.5l-2.76 3.2a5.932 5.932 0 0 0 4.7 9.549h5.79a5.932 5.932 0 0 0 4.7-9.549l-2.76-3.2"/></svg>