<svg xmlns="http://www.w3.org/2000/svg" viewBox="0 0 24 24" width="24" height="24"><defs><style>.a{fill:none;stroke:#000;stroke-linecap:round;stroke-linejoin:round;stroke-width:1.5px}</style></defs><title>monetization-touch-browser</title><path class="a" d="M19.5 6V1.868A1.128 1.128 0 0 0 18.369.75H1.875A1.121 1.121 0 0 0 .75 1.862v13.519A1.129 1.129 0 0 0 1.881 16.5H3.75m-3-12H19.5m3.636 18.75l.1-1.123a3 3 0 0 0-2.337-3.2l-3.651-.811v-5.741a2 2 0 0 0-1.949-1.86 1.817 1.817 0 0 0-1.8 1.86v9.2l-1.477-1.108a1.533 1.533 0 0 0-2.146 2.145l.475.633"/><path class="a" d="M5.65 13.844a2.221 2.221 0 0 0 1.858.875c1.139 0 2.063-.693 2.063-1.547s-.924-1.547-2.063-1.547-2.062-.693-2.062-1.548.923-1.547 2.062-1.547a2.224 2.224 0 0 1 1.858.87m-1.858 5.319v1.031m0-8.25v1.03"/></svg>