<svg xmlns="http://www.w3.org/2000/svg" viewBox="0 0 24 24" width="24" height="24"><defs><style>.a{fill:none;stroke:#000;stroke-linecap:round;stroke-linejoin:round;stroke-width:1.5px}</style></defs><title>monetization-tablet</title><path class="a" d="M22.125 23.25l-3-4.5V13.5c0-2-3.8-4.14-5.25-5.25m1.93 6.543l-3.648-2.923a1.3 1.3 0 0 0-1.843 1.843l3.534 3.987v2.5c0 1.181 1.687 3.045 1.687 3.045"/><path class="a" d="M13.836 17.978a2.733 2.733 0 0 1-2.694 2.272H4.608a2.733 2.733 0 0 1-2.733-2.733V3.482A2.732 2.732 0 0 1 4.608.75h6.267a3 3 0 0 1 3 3v9.5m-12 2.5h6"/><path class="a" d="M6.017 9.344a2.221 2.221 0 0 0 1.858.875c1.139 0 2.063-.693 2.063-1.547s-.924-1.547-2.063-1.547-2.062-.693-2.062-1.548.923-1.547 2.062-1.547a2.224 2.224 0 0 1 1.858.875m-1.858 5.314v1.031m0-8.25v1.03"/></svg>