<svg xmlns="http://www.w3.org/2000/svg" viewBox="0 0 24 24" width="24" height="24"><defs><style>.a{fill:none;stroke:#000;stroke-linecap:round;stroke-linejoin:round;stroke-width:1.5px}</style></defs><title>monetization-structure</title><path class="a" d="M3.375 18.75v-2.523a.477.477 0 0 1 .477-.477H19.4a.477.477 0 0 1 .477.477V18m-8.252-5.25v6"/><circle class="a" cx="3.375" cy="21" r="2.25"/><path class="a" d="M13.125 3.75h-2.033a1.342 1.342 0 0 0-.5 2.587l2.064.825a1.342 1.342 0 0 1-.5 2.588h-2.031m1.5-6V3m0 7.5v-.75"/><circle class="a" cx="11.625" cy="6.75" r="6"/><path class="a" d="M9.375 18.75h4.5v4.5h-4.5zm7.5 4.5h6l-3-5.25-3 5.25z"/></svg>