<svg xmlns="http://www.w3.org/2000/svg" viewBox="0 0 24 24" width="24" height="24"><defs><style>.a{fill:none;stroke:#000;stroke-linecap:round;stroke-linejoin:round;stroke-width:1.5px}</style></defs><title>monetization-phone</title><path class="a" d="M18.829 13.094a2.225 2.225 0 0 0 1.859.875c1.138 0 2.062-.693 2.062-1.547s-.924-1.547-2.062-1.547-2.063-.693-2.063-1.548.924-1.547 2.063-1.547a2.223 2.223 0 0 1 1.857.875m-1.857 5.314V15m0-8.25v1.03M1.25 18.75h13.5v1.5a3 3 0 0 1-3 3h-7.5a3 3 0 0 1-3-3V3.75a3 3 0 0 1 3-3h7.5a3 3 0 0 1 3 3v1.5m-3 3h3m-3 6h3m-5.25-3h6.75m-9 0H6.5m3-3h-.75m.75 6h-.75"/></svg>