<svg xmlns="http://www.w3.org/2000/svg" viewBox="0 0 24 24" width="24" height="24"><defs><style>.a{fill:none;stroke:#000;stroke-linecap:round;stroke-linejoin:round;stroke-width:1.5px}</style></defs><title>monetization-dollar-bill-magnet</title><path class="a" d="M10.329 9.344a2.225 2.225 0 0 0 1.859.875c1.138 0 2.062-.693 2.062-1.547s-.924-1.547-2.062-1.547-2.063-.693-2.063-1.548.924-1.547 2.063-1.547a2.223 2.223 0 0 1 1.857.875m-1.857 5.314v1.031m0-8.25v1.03"/><path class="a" d="M3.75 12.75h-1.5a1.5 1.5 0 0 1-1.5-1.5v-9a1.5 1.5 0 0 1 1.5-1.5h19.5a1.5 1.5 0 0 1 1.5 1.5v9a1.5 1.5 0 0 1-1.5 1.5h-1.5m-6.75.75V18a1.5 1.5 0 0 1-3 0v-4.5H6.75V18a5.25 5.25 0 0 0 10.5 0v-4.5zm-6.75 3h3.75m3 0h3.75"/></svg>