<svg xmlns="http://www.w3.org/2000/svg" viewBox="0 0 24 24" width="24" height="24"><defs><style>.a{fill:none;stroke:#000;stroke-linecap:round;stroke-linejoin:round;stroke-width:1.5px}</style></defs><title>monetization-user-coins</title><path class="a" d="M3.454 7.1a2.225 2.225 0 0 0 1.859.875c1.138 0 2.062-.693 2.062-1.548s-.924-1.55-2.062-1.55S3.25 4.184 3.25 3.329s.924-1.547 2.063-1.547a2.221 2.221 0 0 1 1.857.875M5.313 7.971v1.03m0-8.25v1.031m11.721 5.312a2.221 2.221 0 0 0 1.858.875c1.139 0 2.063-.693 2.063-1.547s-.924-1.547-2.063-1.547-2.062-.693-2.062-1.548.924-1.547 2.062-1.547a2.224 2.224 0 0 1 1.858.875m-1.858 5.314V9m0-8.25v1.03M10.554 4.5h3m4.517 18.75a6.7 6.7 0 0 0-12.035 0M8.5 11.781a6.857 6.857 0 0 0 7.642 1.536"/><circle class="a" cx="12.054" cy="13.875" r="4.125"/></svg>