<svg xmlns="http://www.w3.org/2000/svg" viewBox="0 0 24 24" width="24" height="24"><defs><style>.a{fill:none;stroke:#000;stroke-linecap:round;stroke-linejoin:round;stroke-width:1.5px}</style></defs><title>monetization-mouse</title><path class="a" d="M8.25 12H6.217a1.342 1.342 0 0 0-.5 2.587l2.064.825A1.342 1.342 0 0 1 7.283 18H5.25m1.5-6v-.75m0 7.5V18"/><path class="a" d="M7.635 9.064A6.146 6.146 0 0 0 6.75 9a6 6 0 1 0 .974 11.921M20.25 4.5h-6a3 3 0 0 0-3 3v9.75a6 6 0 0 0 12 0V7.5a3 3 0 0 0-3-3zm-3 3v3M8.507 2.56l1.061 1.061M12 2.25V.75M6.697 6h1.5"/></svg>