<svg xmlns="http://www.w3.org/2000/svg" viewBox="0 0 24 24" width="24" height="24"><defs><style>.a{fill:none;stroke:#000;stroke-linecap:round;stroke-linejoin:round;stroke-width:1.5px}</style></defs><title>monetization-user-monitor-1</title><path class="a" d="M11 .75h1"/><circle class="a" cx="6" cy="3.75" r="3"/><path class="a" d="M11.25 13.5a5.25 5.25 0 0 0-10.5 0v2.25H3l.75 7.5h4.5l.75-7.5h2.25zM6 8.25v4.5m13.5-12h1.875a1.838 1.838 0 0 1 1.875 1.8v8.4a1.838 1.838 0 0 1-1.875 1.8H15m.75 0v3m-1.5 0H18"/><path class="a" d="M13.892 7.094a2.221 2.221 0 0 0 1.858.875c1.139 0 2.063-.693 2.063-1.547s-.924-1.547-2.063-1.547-2.062-.693-2.062-1.548.923-1.547 2.062-1.547a2.224 2.224 0 0 1 1.858.875M15.75 7.969V9m0-8.25v1.03"/></svg>