<svg xmlns="http://www.w3.org/2000/svg" viewBox="0 0 24 24" width="24" height="24"><defs><style>.a{fill:none;stroke:#000;stroke-linecap:round;stroke-linejoin:round;stroke-width:1.5px}</style></defs><title>money-wallet</title><path class="a" d="M21.75 18.5V20a3 3 0 0 1-3 3h-15a3 3 0 0 1-3-3V9.5a3 3 0 0 1 3-3h15a3 3 0 0 1 3 3V11m-3-4.5l-2.329-4.658a1.5 1.5 0 0 0-2.013-.671L3.75 6.5"/><path class="a" d="M21.75 18.5a1.5 1.5 0 0 0 1.5-1.5v-4.5a1.5 1.5 0 0 0-1.5-1.5H18a3.75 3.75 0 0 0 0 7.5z"/><path class="a" d="M18 14.375a.375.375 0 1 1-.375.375.375.375 0 0 1 .375-.375"/></svg>