<svg xmlns="http://www.w3.org/2000/svg" viewBox="0 0 24 24" width="24" height="24"><defs><style>.a{fill:none;stroke:#000;stroke-linecap:round;stroke-linejoin:round;stroke-width:1.5px}</style></defs><title>money-bag-euro</title><path class="a" d="M8.279 14.25h4.5m-4.5 3h4.5m0-5.725a4.475 4.475 0 0 0 0 8.45m-6-11.725h10.5m-1.694-3.214l1.438-2.876a.751.751 0 0 0-1.007-1.006l-1.895.946a.749.749 0 0 1-.959-.255l-.509-.763a.75.75 0 0 0-1.248 0l-.509.763a.75.75 0 0 1-.959.255l-1.9-.948A.75.75 0 0 0 7.035 2.16l1.41 2.82"/><path class="a" d="M7.192 10.5l-2.76 3.2a5.932 5.932 0 0 0 4.7 9.549h5.79a5.932 5.932 0 0 0 4.7-9.549l-2.76-3.2"/></svg>