<svg xmlns="http://www.w3.org/2000/svg" viewBox="0 0 24 24" width="24" height="24"><defs><style>.a{fill:none;stroke:#000;stroke-linecap:round;stroke-linejoin:round;stroke-width:1.5px}</style></defs><title>money-wallet-open</title><path class="a" d="M2.97 2.771L13.908 5.88a3.769 3.769 0 0 1 2.592 3.5v10.51a2.052 2.052 0 0 1-2.6 2.167l-9.048-2.46a3.7 3.7 0 0 1-2.6-3.457V4.688a2.752 2.752 0 0 1 2.67-2.813H18.75a3 3 0 0 1 3 3v8.953a3.074 3.074 0 0 1-3.11 3.047H16.5"/><path class="a" d="M12.375 13.125A.375.375 0 1 1 12 13.5a.375.375 0 0 1 .375-.375m9.375-3.75H16.5"/></svg>