<svg xmlns="http://www.w3.org/2000/svg" viewBox="0 0 24 24" width="24" height="24"><defs><style>.a{fill:none;stroke:#000;stroke-linecap:round;stroke-linejoin:round;stroke-width:1.5px}</style></defs><title>monetization-user-laptop</title><path class="a" d="M10.5 23.25H3.684m9.416-7.624a.936.936 0 0 1 .885-.626h8.328a.943.943 0 0 1 .76.38.9.9 0 0 1 .129.826L20.8 23.25H10.5z"/><path class="a" d="M16.891 17.848a1 1 0 1 1-1 1 1 1 0 0 1 1-1M.75 23.25a6.757 6.757 0 0 1 8.758-6.45M3.945 8.781a6.858 6.858 0 0 0 7.643 1.536"/><circle class="a" cx="7.5" cy="10.875" r="4.125"/><path class="a" d="M19.125 2.25H16.5a1.341 1.341 0 0 0-.5 2.587l2.655.825a1.342 1.342 0 0 1-.5 2.588H15m2.25-6V.75m0 9v-1.5"/></svg>