<svg xmlns="http://www.w3.org/2000/svg" viewBox="0 0 24 24" width="24" height="24"><defs><style>.a{fill:none;stroke:#000;stroke-linecap:round;stroke-linejoin:round;stroke-width:1.5px}</style></defs><title>monetization-user-monitor</title><path class="a" d="M19.5.75h1.875a1.838 1.838 0 0 1 1.875 1.8v8.4a1.838 1.838 0 0 1-1.875 1.8H15m-6.75-9v-1.2A1.707 1.707 0 0 1 9.969.75H12m3.75 12v3m-1.5 0H18m-3.75 7.5a6.75 6.75 0 0 0-13.5 0M3.945 8.781a6.857 6.857 0 0 0 7.642 1.536"/><circle class="a" cx="7.5" cy="10.875" r="4.125"/><path class="a" d="M13.892 7.094a2.221 2.221 0 0 0 1.858.875c1.139 0 2.062-.693 2.062-1.547s-.923-1.547-2.062-1.547-2.063-.693-2.063-1.548.924-1.547 2.063-1.547a2.224 2.224 0 0 1 1.858.875M15.75 7.969V9m0-8.25v1.03"/></svg>