<svg xmlns="http://www.w3.org/2000/svg" viewBox="0 0 24 24" width="24" height="24"><defs><style>.a{fill:none;stroke:#000;stroke-linecap:round;stroke-linejoin:round;stroke-width:1.5px}</style></defs><title>monetization-touch-coin</title><path class="a" d="M23.136 23.25l.1-1.123a3 3 0 0 0-2.337-3.2l-3.471-.811v-5.741a1.9 1.9 0 0 0-1.95-1.86 1.733 1.733 0 0 0-1.8 1.86v9.2L12.2 20.472a1.533 1.533 0 0 0-2.146 2.145l.475.633M9 17.25a8.25 8.25 0 1 1 7.935-10.517"/><path class="a" d="M11.357 5.464H8.048A1.305 1.305 0 0 0 6.643 6.87c0 1.54 4.714 2.719 4.714 4.26a1.38 1.38 0 0 1-1.4 1.4H6.643M9 5.464V3.696m0 10.607v-1.768"/></svg>