<svg xmlns="http://www.w3.org/2000/svg" viewBox="0 0 24 24" width="24" height="24"><defs><style>.a{fill:none;stroke:#000;stroke-linecap:round;stroke-linejoin:round;stroke-width:1.5px}</style></defs><title>monetization-approve</title><path class="a" d="M13.236.817c.249.028.5.063.743.107m4.132 1.687l.614.431m3.003 3.303c.126.216.244.437.356.661M8.949 22.822a5.385 5.385 0 0 1-.713-.23m-3.802-2.334l-.535-.524m-2.422-3.748q-.134-.353-.243-.711"/><circle class="a" cx="17.25" cy="17.25" r="6"/><path class="a" d="M19.924 15.505l-2.905 3.874a.751.751 0 0 1-1.131.08l-1.5-1.5M8.222 3.75H6.189a1.342 1.342 0 0 0-.5 2.587l2.064.825a1.342 1.342 0 0 1-.5 2.588H5.222m1.5-6V3m0 7.5v-.75"/><circle class="a" cx="6.722" cy="6.75" r="6"/></svg>