<svg xmlns="http://www.w3.org/2000/svg" viewBox="0 0 24 24" width="24" height="24"><defs><style>.a{fill:none;stroke:#000;stroke-linecap:round;stroke-linejoin:round;stroke-width:1.5px}</style></defs><title>monetization-user-bag</title><circle class="a" cx="18" cy="3.75" r="3"/><path class="a" d="M23.25 13.5a5.25 5.25 0 0 0-10.5 0v2.25H15l.75 7.5h4.5l.75-7.5h2.25zM18 8.25v4.5m-6.12-5.621A27.561 27.561 0 0 0 9.188 5.35l1.769-3.027a.542.542 0 0 0 0-.549.565.565 0 0 0-.487-.274H4.532a.565.565 0 0 0-.487.274.542.542 0 0 0 0 .549L5.813 5.35C4.924 5.918.75 7.453.75 11.95.75 15.443 3.834 18 7.406 18a7.554 7.554 0 0 0 2.345-.374"/><path class="a" d="M5.642 13.844a2.221 2.221 0 0 0 1.858.875c1.139 0 2.063-.693 2.063-1.547s-.924-1.547-2.063-1.547-2.062-.693-2.062-1.548S6.361 8.53 7.5 8.53a2.224 2.224 0 0 1 1.858.87M7.5 14.719v1.031m0-8.25v1.03"/></svg>