<svg xmlns="http://www.w3.org/2000/svg" viewBox="0 0 24 24" width="24" height="24"><defs><style>.a{fill:none;stroke:#000;stroke-linecap:round;stroke-linejoin:round;stroke-width:1.5px}</style></defs><title>monetization-bill-magnet</title><path class="a" d="M3.75 12.75h-1.5a1.5 1.5 0 0 1-1.5-1.5v-9a1.5 1.5 0 0 1 1.5-1.5h19.5a1.5 1.5 0 0 1 1.5 1.5v9a1.5 1.5 0 0 1-1.5 1.5h-1.5"/><path class="a" d="M13.5 12v6a1.5 1.5 0 0 1-3 0v-6H6.75v6a5.25 5.25 0 0 0 10.5 0v-6zm-6.75 3h3.75m3 0h3.75"/><circle class="a" cx="12" cy="6.583" r="2.5"/><path class="a" d="M.75 6L6 .75M23.25 6L18 .75"/></svg>