<svg xmlns="http://www.w3.org/2000/svg" viewBox="0 0 24 24" width="24" height="24"><defs><style>.a{fill:none;stroke:#000;stroke-linecap:round;stroke-linejoin:round;stroke-width:1.5px}</style></defs><title>money-atm</title><path class="a" d="M18.629 19.5H5.371a.75.75 0 0 1-.742-.861L6.75 4.5h10.5l2.121 14.139a.75.75 0 0 1-.742.861zM4.5 22.5h15"/><path class="a" d="M13.5 9h-2.033a1.342 1.342 0 0 0-.5 2.587l2.064.826a1.342 1.342 0 0 1-.5 2.587H10.5M12 9V7.5m0 9V15"/><path class="a" d="M3 9H1.5a.75.75 0 0 1-.75-.75v-6a.75.75 0 0 1 .75-.75h21a.75.75 0 0 1 .75.75v6a.75.75 0 0 1-.75.75H21"/></svg>