<svg xmlns="http://www.w3.org/2000/svg" viewBox="0 0 24 24" width="24" height="24"><defs><style>.a{fill:none;stroke:#000;stroke-linecap:round;stroke-linejoin:round;stroke-width:1.5px}</style></defs><title>monetization-browser-bag</title><path class="a" d="M18.188 10.6l1.769-3.027a.542.542 0 0 0 0-.549.565.565 0 0 0-.487-.274h-5.938a.565.565 0 0 0-.487.274.542.542 0 0 0 0 .549l1.77 3.027c-.889.568-5.063 2.1-5.063 6.6 0 3.493 3.084 6.05 6.656 6.05s6.844-2.557 6.844-6.05c-.002-4.325-4.094-5.865-5.064-6.6z"/><path class="a" d="M19.5 3.75V1.868A1.128 1.128 0 0 0 18.369.75H1.875A1.121 1.121 0 0 0 .75 1.862v13.519A1.129 1.129 0 0 0 1.881 16.5H6M.75 4.5h10.5m3.392 14.594a2.221 2.221 0 0 0 1.858.875c1.139 0 2.063-.693 2.063-1.547s-.924-1.547-2.063-1.547-2.062-.693-2.062-1.548.923-1.547 2.062-1.547a2.224 2.224 0 0 1 1.858.875M16.5 19.969V21m0-8.25v1.03"/></svg>