<svg xmlns="http://www.w3.org/2000/svg" viewBox="0 0 24 24" width="24" height="24"><defs><style>.a{fill:none;stroke:#000;stroke-linecap:round;stroke-linejoin:round;stroke-width:1.5px}</style></defs><title>monitor-www</title><path class="a" d="M.75 6.75v2.017a9 9 0 0 0 .644 3.342l.856 2.141L3.75 9l1.5 5.25.856-2.141a9 9 0 0 0 .644-3.342V6.75m2.25 0v2.017a9 9 0 0 0 .644 3.342l.856 2.141L12 9l1.5 5.25.856-2.141A9 9 0 0 0 15 8.767V6.75m2.25 0v2.017a9 9 0 0 0 .644 3.342l.856 2.141L20.25 9l1.5 5.25.856-2.141a9 9 0 0 0 .644-3.342V6.75M15 23.25H9l.75-4.5h4.5l.75 4.5zm-8.25 0h10.5M.75.75h22.5m-22.5 18h22.5"/></svg>