<svg xmlns="http://www.w3.org/2000/svg" viewBox="0 0 24 24" width="24" height="24"><defs><style>.a{fill:none;stroke:#000;stroke-linecap:round;stroke-linejoin:round;stroke-width:1.5px}</style></defs><title>monitor-star</title><path class="a" d="M8.25 20.25l.75-4.5m-3 4.5h3.75m-9-7.5h12m-3.75 3H3.75a3 3 0 0 1-3-3v-9a3 3 0 0 1 3-3h16.5a3 3 0 0 1 3 3v9"/><path class="a" d="M17.952 11.68l1.538 4.073h3a.735.735 0 0 1 .51 1.283l-2.6 1.813 1.44 3.313a.785.785 0 0 1-1.117.982l-3.48-1.961-3.481 1.961a.785.785 0 0 1-1.117-.982l1.44-3.313-2.6-1.813A.734.734 0 0 1 12 15.753h3l1.54-4.073a.8.8 0 0 1 1.412 0z"/></svg>