<svg id="Regular" xmlns="http://www.w3.org/2000/svg" viewBox="0 0 24 24" width="24" height="24"><defs><style>.cls-1{fill:none;stroke:#000;stroke-linecap:round;stroke-linejoin:round;stroke-width:1.5px}</style></defs><title>monitor-heart-beat-touch</title><path class="cls-1" d="M9 12.75v6.75l-1.709-.85a2.447 2.447 0 0 0-2.623 4.1l.627.5m14.955 0v-2.167a4.482 4.482 0 0 0-3.745-4.421l-3-.5V12.75m2.388-9.203A5.251 5.251 0 0 0 6 6v5.25a1.5 1.5 0 0 0 1.5 1.5H15a1.5 1.5 0 0 0 1.5-1.5V9.394"/><path class="cls-1" d="M6 7.5h2.018a.376.376 0 0 0 .336-.207l1.083-2.166a.375.375 0 0 1 .661-.019l2.3 4.034a.375.375 0 0 0 .661-.019l1.083-2.166a.376.376 0 0 1 .336-.207H16.5"/></svg>