<svg xmlns="http://www.w3.org/2000/svg" viewBox="0 0 24 24" width="24" height="24"><defs><style>.a{fill:none;stroke:#000;stroke-linecap:round;stroke-linejoin:round;stroke-width:1.5px}</style></defs><title>monitor-question</title><path class="a" d="M8.25 20.25l.75-4.5m-3 4.5h2.25m-7.5-7.57h8.383M9 15.75H3.75a3 3 0 0 1-3-3v-9a3 3 0 0 1 3-3h16.5a3 3 0 0 1 3 3v7.5"/><circle class="a" cx="17.25" cy="17.25" r="6"/><path class="a" d="M15.375 16.125A1.875 1.875 0 1 1 17.25 18m0 2.25a.375.375 0 1 1-.375.375.375.375 0 0 1 .375-.375"/></svg>