<svg xmlns="http://www.w3.org/2000/svg" viewBox="0 0 24 24" width="24" height="24"><defs><style>.a{fill:none;stroke:#000;stroke-linecap:round;stroke-linejoin:round;stroke-width:1.5px}</style></defs><title>monitor-shopping-cart</title><path class="a" d="M8.25 21.753h7.5m-3.75-3v3M.75 15.003h22.5m-3-14.25h1.5a1.5 1.5 0 0 1 1.5 1.5v15a1.5 1.5 0 0 1-1.5 1.5H2.25a1.5 1.5 0 0 1-1.5-1.5v-15a1.5 1.5 0 0 1 1.5-1.5h1.5"/><path class="a" d="M17.25 1.503L15 9.003H9l-1.5-4.5h8.85m-6.975 6.75a.375.375 0 1 1-.375.375.375.375 0 0 1 .375-.375m5.25 0a.375.375 0 1 1-.375.375.375.375 0 0 1 .375-.375"/></svg>