<svg id="Regular" xmlns="http://www.w3.org/2000/svg" viewBox="0 0 24 24" width="24" height="24"><defs><style>.cls-1{fill:none;stroke:#000;stroke-linecap:round;stroke-linejoin:round;stroke-width:1.5px}</style></defs><title>monitor-heart-rate-up</title><path class="cls-1" d="M23.25 18v-6.75H16.5"/><path class="cls-1" d="M23.25 11.25l-7.939 7.939a1.5 1.5 0 0 1-2.122 0l-3.128-3.128a1.5 1.5 0 0 0-2.122 0L.75 23.25m6-12L1.636 5.915a3.023 3.023 0 0 1-.566-3.492 3.025 3.025 0 0 1 4.845-.786l.835.835.835-.835a3.026 3.026 0 0 1 4.846.786 3.025 3.025 0 0 1-.567 3.492z"/></svg>