<svg xmlns="http://www.w3.org/2000/svg" viewBox="0 0 24 24" width="24" height="24"><defs><style>.a{fill:none;stroke:#000;stroke-linecap:round;stroke-linejoin:round;stroke-width:1.5px}</style></defs><title>monitor-lock</title><path class="a" d="M.75 21.75h9.75m3 0h9.75M12 17.25v3M14.25.75H6a1.5 1.5 0 0 0-1.5 1.5v7.5a1.5 1.5 0 0 0 1.5 1.5h7.5m-1.5 0v3m-2.25 0h4.5m-9.75-6h8.25"/><circle class="a" cx="12" cy="21.75" r="1.5"/><rect class="a" x="15.75" y="3.75" width="7.5" height="6" rx="1.5" ry="1.5"/><path class="a" d="M19.5 6.375a.375.375 0 1 0 .375.375.375.375 0 0 0-.375-.375M17.25 3.75V3a2.25 2.25 0 0 1 4.5 0v.75"/></svg>