<svg xmlns="http://www.w3.org/2000/svg" viewBox="0 0 24 24" width="24" height="24"><defs><style>.a{fill:none;stroke:#000;stroke-linecap:round;stroke-linejoin:round;stroke-width:1.5px}</style></defs><title>monitor-code-send</title><path class="a" d="M3.822 8.25v-6A1.65 1.65 0 0 1 5.589.75h15.9a1.65 1.65 0 0 1 1.766 1.5v10.5a1.65 1.65 0 0 1-1.766 1.5H17.25m-13.428-9H23.25"/><path class="a" d="M.75 22.05a1.32 1.32 0 0 0 1.413 1.2h10.674a1.32 1.32 0 0 0 1.413-1.2v-9.6a1.32 1.32 0 0 0-1.413-1.2H2.163a1.32 1.32 0 0 0-1.413 1.2z"/><path class="a" d="M6.048 15l3.533 2.325-3.533 2.325m12.752 3.6c1.137 0 1.8-1.256 1.8-2.25v-3.75"/><path class="a" d="M23.25 19.65l-2.717-2.4-2.718 2.4"/></svg>