<svg xmlns="http://www.w3.org/2000/svg" viewBox="0 0 24 24" width="24" height="24"><defs><style>.a{fill:none;stroke:#000;stroke-linecap:round;stroke-linejoin:round;stroke-width:1.5px}</style></defs><title>monitor-bug</title><path class="a" d="M8.25 20.25l.75-4.5m-3 4.5h3m-8.25-7.5h8.281m.719 3h-6a3 3 0 0 1-3-3v-9a3 3 0 0 1 3-3h16.5a3 3 0 0 1 3 3v6.75m-3 8.25a3 3 0 0 1-6 0v-1.5a3 3 0 0 1 6 0zm-6-1.5h6m-5.735-1.235L12 13.5m3.129 7.371L12.75 23.25m1.5-4.5h-3m8.735-2.735L22.5 13.5m-3.129 7.371l2.379 2.379m-1.5-4.5h3"/></svg>