<svg xmlns="http://www.w3.org/2000/svg" viewBox="0 0 24 24" width="24" height="24"><defs><style>.a{fill:none;stroke:#000;stroke-linecap:round;stroke-linejoin:round;stroke-width:1.5px}</style></defs><title>monitor-transfer-file</title><path class="a" d="M17.25 9.75h4.5a1.5 1.5 0 0 0 1.5-1.5V3.622a1.5 1.5 0 0 0-.439-1.061L21.439 1.19a1.5 1.5 0 0 0-1.061-.44H17.25a1.5 1.5 0 0 0-1.5 1.5v6a1.5 1.5 0 0 0 1.5 1.5z"/><path class="a" d="M18.75.75v3a1.5 1.5 0 0 0 1.5 1.5h3m-10.5-1.5h-6a1.5 1.5 0 0 0-1.5 1.5v4.5"/><path class="a" d="M3 7.5l2.25 2.25L7.5 7.5"/><rect class="a" x=".75" y="12.75" width="12" height="7.5" rx="1.5" ry="1.5"/><path class="a" d="M6.75 20.25v3m-2.25 0H9"/></svg>