<svg id="Regular" xmlns="http://www.w3.org/2000/svg" viewBox="0 0 24 24" width="24" height="24"><defs><style>.cls-1{fill:none;stroke:#000;stroke-linecap:round;stroke-linejoin:round;stroke-width:1.5px}</style></defs><title>monitor-heart-notes</title><path class="cls-1" d="M20.25 12.75v-7.5a1.5 1.5 0 0 0-1.5-1.5h-3m-12 15v3a1.5 1.5 0 0 0 1.5 1.5h13.5a1.5 1.5 0 0 0 1.5-1.5v-3m-12-15h-3a1.5 1.5 0 0 0-1.5 1.5v7.5"/><path class="cls-1" d="M.75 15.75h5.768a.376.376 0 0 0 .336-.207L8.61 12.03a.375.375 0 0 1 .688.039l2.384 6.558a.375.375 0 0 0 .7.024l2.3-5.175a.375.375 0 0 1 .678-.015l1.04 2.082a.376.376 0 0 0 .336.207h6.514m-9.045-13.5A2.19 2.19 0 0 0 12 .75a2.19 2.19 0 0 0-2.2 1.5H9a.75.75 0 0 0-.75.75v3a.75.75 0 0 0 .75.75h6a.75.75 0 0 0 .75-.75V3a.75.75 0 0 0-.75-.75z"/></svg>