<svg xmlns="http://www.w3.org/2000/svg" viewBox="0 0 24 24" width="24" height="24"><defs><style>.a{fill:none;stroke:#000;stroke-linecap:round;stroke-linejoin:round;stroke-width:1.5px}</style></defs><title>monitor-touch</title><path class="a" d="M9 23.25l.75-4.5m-3 4.5h4.5m-1.5-4.5h-6a3 3 0 0 1-3-3v-12a3 3 0 0 1 3-3h16.5a3 3 0 0 1 3 3v10.5"/><path class="a" d="M16.61 23.25l-3.789-3.094a1.637 1.637 0 0 1-.566-1.675 1.637 1.637 0 0 1 2.321-1.068L15.75 18v-5.25a1.5 1.5 0 0 1 1.5-1.5 1.5 1.5 0 0 1 1.5 1.5v3l1.993.332a3 3 0 0 1 2.507 2.959v4.209m-22.5-7.5h9"/></svg>