<svg xmlns="http://www.w3.org/2000/svg" viewBox="0 0 24 24" width="24" height="24"><defs><style>.a{fill:none;stroke:#000;stroke-linecap:round;stroke-linejoin:round;stroke-width:1.5px}</style></defs><title>monitor-team</title><path class="a" d="M21 10.5v8.25a1.5 1.5 0 0 1-1.5 1.5h-15a1.5 1.5 0 0 1-1.5-1.5V10.5m9 9.75v3m-5.25 0h10.5"/><circle class="a" cx="4.647" cy="3" r="2.25"/><path class="a" d="M8.543 8.25a4.5 4.5 0 0 0-7.793 0"/><circle class="a" cx="19.354" cy="3" r="2.25"/><path class="a" d="M23.25 8.25a4.5 4.5 0 0 0-7.793 0"/><circle class="a" cx="12" cy="3" r="2.25"/><path class="a" d="M15.676 7.906a4.5 4.5 0 0 0-7.353 0M21 17.25H3"/></svg>