<svg xmlns="http://www.w3.org/2000/svg" viewBox="0 0 24 24" width="24" height="24"><defs><style>.a{fill:none;stroke:#000;stroke-linecap:round;stroke-linejoin:round;stroke-width:1.5px}</style></defs><title>monitor-transfer-folder</title><path class="a" d="M10.5 3.75H6.75a1.5 1.5 0 0 0-1.5 1.5v4.5"/><path class="a" d="M3 7.5l2.25 2.25L7.5 7.5m9.75-5.25V1.5a.75.75 0 0 0-.75-.75h-2.25a.75.75 0 0 0-.75.75v5.25a1.5 1.5 0 0 0 1.5 1.5h6.75a1.5 1.5 0 0 0 1.5-1.5V3a.75.75 0 0 0-.75-.75z"/><rect class="a" x=".75" y="12.75" width="12" height="7.5" rx="1.5" ry="1.5"/><path class="a" d="M6.75 20.25v3m-2.25 0H9"/></svg>