<svg xmlns="http://www.w3.org/2000/svg" viewBox="0 0 24 24" width="24" height="24"><defs><style>.a{fill:none;stroke:#000;stroke-linecap:round;stroke-linejoin:round;stroke-width:1.5px}</style></defs><title>monitor-users</title><path class="a" d="M15 23.25H9l.75-4.5h4.5l.75 4.5zm-8.25 0h10.5M6.75 9h-6v-.75a3 3 0 0 1 3-3 3 3 0 0 1 3 3z"/><circle class="a" cx="3.75" cy="3" r="2.25"/><path class="a" d="M23.25 9h-6v-.75a3 3 0 0 1 3-3 3 3 0 0 1 3 3z"/><circle class="a" cx="20.25" cy="3" r="2.25"/><path class="a" d="M20.25 12v5.25a1.5 1.5 0 0 1-1.5 1.5H5.25a1.5 1.5 0 0 1-1.5-1.5V12m0 3.75h16.5m-10.5-9h4.5"/></svg>