<svg xmlns="http://www.w3.org/2000/svg" viewBox="0 0 24 24" width="24" height="24"><defs><style>.a{fill:none;stroke:#000;stroke-linecap:round;stroke-linejoin:round;stroke-width:1.5px}</style></defs><title>monitor-heart</title><path class="a" d="M8.25 22.503h7.5m-3.75-3v3M.75 15.753h22.5"/><rect class="a" x=".75" y="1.503" width="22.5" height="18" rx="1.5" ry="1.5"/><path class="a" d="M15.93 5.349a1.9 1.9 0 0 0-2.751 0L12 6.568l-1.179-1.219a1.9 1.9 0 0 0-2.751 0 2.059 2.059 0 0 0 0 2.844l3.511 3.631a.579.579 0 0 0 .838 0l3.511-3.631a2.059 2.059 0 0 0 0-2.844z"/></svg>