<svg xmlns="http://www.w3.org/2000/svg" viewBox="0 0 24 24" width="24" height="24"><defs><style>.a{fill:none;stroke:#000;stroke-linecap:round;stroke-linejoin:round;stroke-width:1.5px}</style></defs><title>monitor-warning</title><path class="a" d="M8.25 20.25l.75-4.5m-3 4.5h2.25m-7.5-7.5h12m-2.25 3H3.75a3 3 0 0 1-3-3v-9a3 3 0 0 1 3-3h16.5a3 3 0 0 1 3 3v9m-6 7.5a.375.375 0 1 1-.375.375.375.375 0 0 1 .375-.375m0-2.25v-3"/><path class="a" d="M23.063 20.682a1.774 1.774 0 0 1-1.587 2.568h-8.452a1.774 1.774 0 0 1-1.587-2.568l4.226-8.451a1.774 1.774 0 0 1 3.174 0z"/></svg>