<svg xmlns="http://www.w3.org/2000/svg" viewBox="0 0 24 24" width="24" height="24"><defs><style>.a{fill:none;stroke:#000;stroke-linecap:round;stroke-linejoin:round;stroke-width:1.5px}</style></defs><title>monitor-signal</title><path class="a" d="M7.5 8.25H5.25a1.5 1.5 0 0 0-1.5 1.5v7.5a1.5 1.5 0 0 0 1.5 1.5h13.5a1.5 1.5 0 0 0 1.5-1.5v-7.5a1.5 1.5 0 0 0-1.5-1.5H16.5m-1.5 15H9l.75-4.5h4.5l.75 4.5zm-8.25 0h10.5M12 7.576"/><path class="a" d="M12 7.576a.375.375 0 1 0 .375.375.375.375 0 0 0-.375-.375m6-4.703a9.542 9.542 0 0 0-12 0M8.5 5.25a5.566 5.566 0 0 1 7 0"/></svg>