<svg xmlns="http://www.w3.org/2000/svg" viewBox="0 0 24 24" width="24" height="24"><defs><style>.a{fill:none;stroke:#000;stroke-linecap:round;stroke-linejoin:round;stroke-width:1.5px}</style></defs><title>monitor-page</title><path class="a" d="M8.25 23.25h7.5m-3.75-3v3M.75 16.5h22.5M21.75 3a1.5 1.5 0 0 1 1.5 1.5v14.25a1.5 1.5 0 0 1-1.5 1.5H2.25a1.5 1.5 0 0 1-1.5-1.5V4.5A1.5 1.5 0 0 1 2.25 3"/><path class="a" d="M5.25 13.5V2.25a1.5 1.5 0 0 1 1.5-1.5h10.5a1.5 1.5 0 0 1 1.5 1.5V13.5"/><path class="a" d="M8.25 6.75h3v3h-3zm-3-3h13.5m-4.5 3h1.5M14.25 9h1.5m-7.5 3.75h7.5"/></svg>