<svg xmlns="http://www.w3.org/2000/svg" viewBox="0 0 24 24" width="24" height="24"><defs><style>.a{fill:none;stroke:#000;stroke-linecap:round;stroke-linejoin:round;stroke-width:1.5px}</style></defs><title>monitor-movie</title><path class="a" d="M15 23.254H9l.75-4.5h4.5l.75 4.5zm-8.25 0h10.5"/><rect class="a" x=".75" y=".754" width="22.5" height="18" rx="3" ry="3"/><path class="a" d="M8.25 5.254v9m7.5-9v9m-7.5-7.5h7.5m-7.5 6h7.5M5.25 5.629A.375.375 0 1 1 4.875 6a.374.374 0 0 1 .375-.375m0 3.754a.375.375 0 1 1-.375.375.374.374 0 0 1 .375-.375m0 3.75a.375.375 0 1 1-.375.375.374.374 0 0 1 .375-.375m13.5-7.5a.375.375 0 1 0 .375.371.374.374 0 0 0-.375-.375m0 3.754a.375.375 0 1 0 .375.375.374.374 0 0 0-.375-.375m0 3.75a.375.375 0 1 0 .375.375.374.374 0 0 0-.375-.375"/></svg>