<svg id="Regular" xmlns="http://www.w3.org/2000/svg" viewBox="0 0 24 24" width="24" height="24"><defs><style>.cls-1{fill:none;stroke:#000;stroke-linecap:round;stroke-linejoin:round;stroke-width:1.5px}</style></defs><title>monkey-2</title><path class="cls-1" d="M5.25 7.456a6.75 6.75 0 0 1 13.5 0m-9.375.419a.375.375 0 0 1 .375.375m-.75 0a.375.375 0 0 1 .375-.375m0 .75A.375.375 0 0 1 9 8.25m.75 0a.375.375 0 0 1-.375.375m5.25-.75A.375.375 0 0 1 15 8.25m-.75 0a.375.375 0 0 1 .375-.375m0 .75a.375.375 0 0 1-.375-.375m.75 0a.375.375 0 0 1-.375.375m1.516 5.854a1.933 1.933 0 0 0 .026-.229 2.26 2.26 0 0 0-2.5-2.084A2.64 2.64 0 0 0 12 12.75a2.64 2.64 0 0 0-1.667-.584 2.26 2.26 0 0 0-2.5 2.084 1.933 1.933 0 0 0 .026.229A5.928 5.928 0 0 0 4.5 19.5c0 2.692 3.358 3.75 7.5 3.75s7.5-1.058 7.5-3.75a5.928 5.928 0 0 0-3.359-5.021z"/><path class="cls-1" d="M4.849 17.733A13.256 13.256 0 0 0 12 19.5a13.243 13.243 0 0 0 7.151-1.767M5.383 6.123a3 3 0 1 0-.133 5.086m13.367-5.086a3 3 0 1 1 .133 5.086"/></svg>