<svg id="Regular" xmlns="http://www.w3.org/2000/svg" viewBox="0 0 24 24" width="24" height="24"><defs><style>.cls-1{fill:none;stroke:#000;stroke-linecap:round;stroke-linejoin:round;stroke-width:1.5px}</style></defs><title>monkey</title><path class="cls-1" d="M16.2 17.562a3.08 3.08 0 0 1 .59-2.877A10.3 10.3 0 0 0 18.75 9c0-2.485-1.679-4.5-3.75-4.5a3.266 3.266 0 0 0-2.038.734 1.534 1.534 0 0 1-1.924 0A3.266 3.266 0 0 0 9 4.5C6.929 4.5 5.25 6.515 5.25 9a10.3 10.3 0 0 0 1.963 5.685 3.08 3.08 0 0 1 .59 2.877 7.905 7.905 0 0 0-.3 2.313c0 1.864 2.015 3.375 4.5 3.375s4.5-1.511 4.5-3.375a7.905 7.905 0 0 0-.303-2.313zM9.375 9.75a.375.375 0 0 1 .375.375m-.75 0a.375.375 0 0 1 .375-.375m0 .75A.375.375 0 0 1 9 10.125m.75 0a.375.375 0 0 1-.375.375m5.25-.75a.375.375 0 0 1 .375.375m-.75 0a.375.375 0 0 1 .375-.375m0 .75a.375.375 0 0 1-.375-.375m.75 0a.375.375 0 0 1-.375.375"/><path class="cls-1" d="M7.556 18.8A6.736 6.736 0 0 0 12 20.25a6.736 6.736 0 0 0 4.444-1.45M12 13.5v2.25"/><path class="cls-1" d="M22.5 12.75c0 7.5-4.287 10.5-10.5 10.5s-10.5-3-10.5-10.5c0-8.25 2.25-12 10.5-12s10.5 3.75 10.5 12z"/></svg>