<svg id="Regular" xmlns="http://www.w3.org/2000/svg" viewBox="0 0 24 24" width="24" height="24"><defs><style>.cls-1{fill:none;stroke:#000;stroke-linecap:round;stroke-linejoin:round;stroke-width:1.5px}</style></defs><title>monkey-1</title><path class="cls-1" d="M20.254 11.4A4.283 4.283 0 0 0 15.9 7.5H8.118a4.283 4.283 0 0 0-4.352 3.9 4.125 4.125 0 0 0 4.119 4.35h.25L7.781 20a3 3 0 0 0 2.989 3.25h2.479a3 3 0 0 0 2.99-3.25l-.354-4.251h.25a4.125 4.125 0 0 0 4.119-4.349z"/><path class="cls-1" d="M9.76 23.25c-6.75 0-9-4.5-9-13.5 0-5.25 4.858-9 9-9h4.5c4.142 0 9 3.75 9 9 0 9-2.25 13.5-9 13.5zm-1.875-12a.375.375 0 0 1 .375.375m-.75 0a.375.375 0 0 1 .375-.375m0 .75a.375.375 0 0 1-.375-.375m.75 0a.375.375 0 0 1-.375.375m7.5-.75a.375.375 0 0 1 .375.375m-.75 0a.375.375 0 0 1 .375-.375m0 .75a.375.375 0 0 1-.375-.375m.75 0a.375.375 0 0 1-.375.375"/><path class="cls-1" d="M7.84 19.29a8.656 8.656 0 0 0 4.17.96 8.7 8.7 0 0 0 4.17-.96M11.26 15h1.5"/></svg>