<svg xmlns="http://www.w3.org/2000/svg" viewBox="0 0 24 24" width="24" height="24"><g fill="none" stroke="#000" stroke-linejoin="round" stroke-miterlimit="10"><circle stroke-linecap="round" cx="12.5" cy="15.995" r="7.5"/><circle stroke-linecap="round" cx="12.5" cy="15.995" r="5.5"/><circle stroke-linecap="round" cx="12.5" cy="15.995" r="1.5"/><path stroke-linecap="round" d="M12.5 4.995v9.5"/><path d="M7 15.995h4"/><path stroke-linecap="round" d="M12.5 17.495v4m1.5-5.5h4"/><path d="M13.5 14.995l2.889-2.889M11.5 14.995l-2.632-3.132m2.632 5.132l-2.63 3.13m4.63-3.13l2.304 3.398"/><path stroke-linecap="round" d="M14 2.495c-1.458 0-2.825-.89-4.003-1.571 0 0-.497-.429-1.997-.429H6a4 4 0 004 4h7.75c.69 0 1.25-.31 1.25-1s-.56-1-1.25-1H14z"/></g><path fill="none" d="M0 0h24v24H0z"/></svg>