<svg xmlns="http://www.w3.org/2000/svg" viewBox="0 0 24 24" width="24" height="24"><g fill="none" stroke="#000" stroke-linejoin="round" stroke-miterlimit="10"><path stroke-linecap="round" d="M6.5 11.394V8a6 6 0 0112 0v3"/><path d="M17.553 16.733c.257-.398.466-.829.623-1.285 3.256-1.58 5.324-5.087 5.324-8.948l-5 3"/><path stroke-linecap="round" d="M6.5 11.394A9.884 9.884 0 001 15.5h5.839c.13.369.354.93.55 1.262M15.5 13.5c0 .5-2.5 2-3 2s-3-1.5-3-2a3 3 0 116 0zm-5-6.5v1.5m4-1.5v1.5"/><path stroke-linecap="round" d="M11.5 18.5c-.232-1.142-1.79-2-3-2a2.5 2.5 0 00-1.496 4.504L9 22.5l2.5-1v-3zm6.5 2.499a2.5 2.5 0 00-1.5-4.499c-1.209 0-2.767.859-3 2v3.001l2.5.999 2-1.501z"/><path d="M11.5 19.5h2"/></g><path fill="none" d="M0 0h24v24H0z"/></svg>