<svg xmlns="http://www.w3.org/2000/svg" viewBox="0 0 24 24" width="24" height="24"><g fill="none" stroke="#000" stroke-linecap="round" stroke-linejoin="round" stroke-miterlimit="10"><path d="M10.5 2.5A7.5 7.5 0 0118 10l2.5-3v9c0 4.142-3.357 7.5-7.5 7.5S5.5 20.142 5.5 16c0-1.816.622-3.152 1.5-5a5.235 5.235 0 00.506-2.251c0-1.75-1.544-3.276-3.006-4.231C5.033 4.276 5.626 4 6.25 4c2.348 0 4.25 2.152 4.25 4.5 0 .414.336.75.75.75.862 0 1.047-1.525 1.047-2.374 0-1.709-.574-3.367-1.797-4.376z"/><circle cx="13" cy="16" r="5"/><path d="M11.5 15v2m3-2v2m-12-9v3M1 9.5h3M21.5 2v3M20 3.5h3"/></g><path fill="none" d="M0 0h24v24H0z"/></svg>