<svg xmlns="http://www.w3.org/2000/svg" viewBox="0 0 24 24" width="24" height="24"><defs><style>.a{fill:none;stroke:#000;stroke-linecap:round;stroke-linejoin:round;stroke-width:1.5px}</style></defs><title>mood-moody</title><path class="a" d="M8.927 9.2a1.95 1.95 0 0 1-3.677 0M12 .75v22.5M9.75 2.278a9.751 9.751 0 0 0 0 19.444M12 18.75a6.745 6.745 0 0 1-5.614-3m8.687-6.55a1.95 1.95 0 0 0 3.677 0m.75 10.486a9.7 9.7 0 0 1-5.25 2.036m0-19.444A9.76 9.76 0 0 1 22.78 9M12 15.532a6.727 6.727 0 0 1 4.5 1.718M23.25 15a2.25 2.25 0 0 1-4.5 0c0-1.243 2.25-3.75 2.25-3.75s2.25 2.507 2.25 3.75z"/></svg>