<svg xmlns="http://www.w3.org/2000/svg" viewBox="0 0 24 24" width="24" height="24"><defs><style>.a{fill:none;stroke:#000;stroke-linecap:round;stroke-linejoin:round;stroke-width:1.5px}</style></defs><title>mood-peace</title><path class="a" d="M20.175 16.573a1.771 1.771 0 0 1-3.542 0v-3.542a1.771 1.771 0 0 1 3.542 0zm-3.542-1.181a1.771 1.771 0 0 1-3.542 0v-3.541a1.771 1.771 0 1 1 3.542 0z"/><path class="a" d="M9.869 11.25l1.016-8.95a1.714 1.714 0 1 1 3.412.331l-.815 8.11m-7.041.509L5.5 2.628A1.714 1.714 0 1 1 8.913 2.3l.956 8.949m1.706 8.001a4 4 0 0 0-4-4h3.5a2 2 0 0 0 0-4h-4.75a2 2 0 0 0-2 2v5a3 3 0 0 0 1.608 2.658 2.6 2.6 0 0 1 1.392 2.3v.041m10.7-4.949a3.005 3.005 0 0 1-1.325 1.974 3.54 3.54 0 0 0-1.623 2.976"/></svg>