<svg xmlns="http://www.w3.org/2000/svg" viewBox="0 0 24 24" width="24" height="24"><defs><style>.a{fill:none;stroke:#000;stroke-linecap:round;stroke-linejoin:round;stroke-width:1.5px}</style></defs><title>mood-skull-chat</title><path class="a" d="M21.75 18.75h-10.5l-6 4.5v-4.5h-3a1.5 1.5 0 0 1-1.5-1.5v-15a1.5 1.5 0 0 1 1.5-1.5h19.5a1.5 1.5 0 0 1 1.5 1.5v15a1.5 1.5 0 0 1-1.5 1.5z"/><path class="a" d="M9 14.25V12l-.158-.079A2.426 2.426 0 0 1 7.5 9.75a4.5 4.5 0 0 1 9 0 2.426 2.426 0 0 1-1.342 2.171L15 12v2.25m-3-1.5v1.5M10.125 9"/><path class="a" d="M10.125 9a.375.375 0 1 0 .375.375.375.375 0 0 0-.375-.375m3.75 0a.375.375 0 1 0 .375.375.375.375 0 0 0-.375-.375"/></svg>