<svg xmlns="http://www.w3.org/2000/svg" viewBox="0 0 24 24" width="24" height="24"><defs><style>.a{fill:none;stroke:#000;stroke-linecap:round;stroke-linejoin:round;stroke-width:1.5px}</style></defs><title>mood-happy</title><path class="a" d="M12.75.75a10.485 10.485 0 0 0-8.917 16.025L.75 23.25l6.475-3.083A10.5 10.5 0 1 0 12.75.75z"/><path class="a" d="M15.75 13.5a3 3 0 0 1-6 0zm-7.5-4.125a.375.375 0 1 0 .375.375.375.375 0 0 0-.375-.375m9 0a.375.375 0 1 0 .375.375.375.375 0 0 0-.375-.375"/></svg>