<svg id="Regular" xmlns="http://www.w3.org/2000/svg" viewBox="0 0 24 24" width="24" height="24"><defs><style>.cls-1{fill:none;stroke:#000;stroke-linecap:round;stroke-linejoin:round;stroke-width:1.5px}</style></defs><title>moose-body</title><path class="cls-1" d="M.705 23.242v-9a3.75 3.75 0 0 1 3.75-3.75h6.75c2.25 0 3.75-3 5.25-4.5s4.508-1.5 6 1.5c1.3 2.621.837 4.5-.75 4.5-2.25 0-3-1.5-3.75-.75s-1.5 3-1.5 6v6"/><path class="cls-1" d="M3.705 23.242v-3.5q0-1.751 2.25-1.75h5.25q2.25 0 2.25 1.75v3.5m6.375-15.75a.375.375 0 0 1 .375.375m-.75 0a.374.374 0 0 1 .375-.375m0 .75a.374.374 0 0 1-.375-.375m.745 0a.375.375 0 0 1-.375.375M17.2 5.434c.06-1.628-.558-2.442-5.246-2.442-3.75 0-5.25 0-5.25-2.25m3.751 0v2.25m3.75-2.25V3.08m-.683 6.326l-.067.336a3.749 3.749 0 0 0 3.264 4.547"/></svg>