<svg id="Regular" xmlns="http://www.w3.org/2000/svg" viewBox="0 0 24 24" width="24" height="24"><defs><style>.cls-1{fill:none;stroke:#000;stroke-linecap:round;stroke-linejoin:round;stroke-width:1.5px}</style></defs><title>moose</title><path class="cls-1" d="M13.376 9.1l.124-.25a9.1 9.1 0 0 0 .75-3.75V3.75a1.613 1.613 0 0 1 1.5-1.5 1.613 1.613 0 0 1 1.5 1.5v2.1c0 1.5 3 1.5 3 0v-3.6a1.613 1.613 0 0 1 1.5-1.5 1.613 1.613 0 0 1 1.5 1.5V6.6c0 1.226-1 3.452-3.008 3.675"/><path class="cls-1" d="M9 10.35H3.75c-3 0-3-2.25-3-3.75V2.25a1.613 1.613 0 0 1 1.5-1.5 1.613 1.613 0 0 1 1.5 1.5v3.6c0 1.5 3 1.5 3 0v-2.1a1.613 1.613 0 0 1 1.5-1.5 1.613 1.613 0 0 1 1.5 1.5V5.1c0 4.985 4.722 2.583 7.5 6.75 1.5 2.25 3.75 6 1.5 8.25-3 3-6.75-2.25-6.75-2.25l-.75 5.25S6 24.6 3.75 17.85c0 0 1.395-2.232 2.994-4.484m7.881-.016a.375.375 0 0 1 .375.375m-.75 0a.375.375 0 0 1 .375-.375m0 .75a.375.375 0 0 1-.375-.375m.75 0a.375.375 0 0 1-.375.375"/></svg>