<svg xmlns="http://www.w3.org/2000/svg" viewBox="0 0 24 24" width="24" height="24"><g fill="none" stroke="#000" stroke-linecap="round" stroke-linejoin="round" stroke-miterlimit="10"><path d="M1.5 8.522h6v15h-6zm-1 8h8m-5 2v1m2-1v1"/><path d="M3.5 16.522v-2a1 1 0 112 0v2m-4-5h6m-5.5-3l2.5-3.5 2.5 3.5m-2.5-3.5v-4.5m-1.5 2h3m10.5 6h6v15h-6zm-1 8h8m-5 2v1m2-1v1"/><path d="M18.5 16.522v-2a1 1 0 112 0v2m-4-5h6m-5.5-3l2.5-3.5 2.5 3.5m-2.5-3.5v-4.5m-1.5 2h3m-13.5 21h9m-9-11l4.5-6.5 4.5 6.5"/><circle cx="12" cy="13.522" r="2"/><path d="M10.5 23.522v-3.5a1.5 1.5 0 113 0v3.5"/></g><path fill="none" d="M0 0h24v24H0z"/></svg>