<svg xmlns="http://www.w3.org/2000/svg" viewBox="0 0 24 24" width="24" height="24"><g fill="none" stroke="#000" stroke-linejoin="round" stroke-miterlimit="10"><path d="M23.5 23.5H.5v-2h2v-2h-2V.5h16v2h4v-2h3z"/><path d="M3.5 5.5h2v4h-2zm4 0h2v4h-2zm4 0h2v4h-2z"/><path stroke-linecap="round" d="M16 5.5h5m-5 2h5m-5 2h5"/><path d="M7.5 14.5h4v4h-4z"/><path stroke-linecap="round" d="M8.5 14.5v-2m2 2v-2m-2 8v-2m2 2v-2m1-3h2m-2 2h2m-8-2h2m-2 2h2m14 4h-6v-6H18l2-3h1.5z"/></g><path fill="none" d="M0 0h24v24H0z"/></svg>