<svg xmlns="http://www.w3.org/2000/svg" viewBox="0 0 24 24" width="24" height="24"><g fill="none" stroke="#000" stroke-linejoin="round" stroke-miterlimit="10"><path d="M9.5 20.5H9a1.855 1.855 0 01-1.814-1.467L5.018 8.919A2.002 2.002 0 016.974 6.5h8.052a2.001 2.001 0 011.955 2.419l-2.167 10.114A1.855 1.855 0 0113 20.5h-.5"/><path d="M12.5 18a1.5 1.5 0 00-3 0v4a1.5 1.5 0 103 0v-4zm-7.022-6.936L11 14.479 16.5 11"/><path d="M5.351 7.332L10 10.5l1 3.979m5.649-7.147L12 10.5l-1 3.979M6.5 6.558V5a4.5 4.5 0 019 0v1.557"/><path stroke-linecap="round" d="M16.757 7.5h3.711m-15.225 0H1.531"/></g><path fill="none" d="M0 0h24v24H0z"/></svg>