<svg xmlns="http://www.w3.org/2000/svg" viewBox="0 0 24 24" width="24" height="24"><g fill="none" stroke="#000" stroke-linecap="round" stroke-linejoin="round" stroke-miterlimit="10"><path d="M5.5 23.5h11s-.5-10-5.5-10-5.5 10-5.5 10z"/><path d="M12.476 13.836C13.287 10.007 14.774 6.5 17.5 6.5c6 0 6 17 6 17h-7"/><path d="M13.464 10.464L15.5 12.5l2-2 2 2 2.047-2.047M8.563 6.5S10.5 6.248 10.5 4.349a2.147 2.147 0 00-2.229-2.147A2.988 2.988 0 005.553.5C3.951.5 2.538 1.73 2.446 3.308A1.613 1.613 0 00.5 4.887C.5 6.525 2.221 6.5 2.221 6.5h6.342z"/></g><path fill="none" d="M0 0h24v24H0z"/></svg>