<svg id="Regular" xmlns="http://www.w3.org/2000/svg" viewBox="0 0 24 24" width="24" height="24"><defs><style>.cls-1{fill:none;stroke:#000;stroke-linecap:round;stroke-linejoin:round;stroke-width:1.5px}</style></defs><title>mouse-body</title><path class="cls-1" d="M15.436 19.5a9.445 9.445 0 0 1-3.926 3m6.75-15.75v4.5a13.533 13.533 0 0 1-.862 4.84m-6.82-12.522a4.5 4.5 0 0 1 6.364 0"/><path class="cls-1" d="M17.51 23.25H7.76a6 6 0 0 1 0-12c1.5 0 1.5-1.5 1.5-2.25V6.75m-2.25 10.5c3 0 4.5 2.25 4.5 6m.375-16.5a.375.375 0 0 1 .375.375m-.75 0a.375.375 0 0 1 .375-.375m0 .75a.375.375 0 0 1-.375-.375m.75 0a.375.375 0 0 1-.375.375m3.75-.75a.375.375 0 0 1 .375.375m-.75 0a.375.375 0 0 1 .375-.375m0 .75a.375.375 0 0 1-.375-.375m.75 0a.375.375 0 0 1-.375.375"/><path class="cls-1" d="M11.911 2.657A3.37 3.37 0 1 0 8.885 7.5a3.33 3.33 0 0 0 .375-.038V6.75m9 .712a3.307 3.307 0 0 0 .375.038 3.375 3.375 0 1 0-3.026-4.843M19.01 18.75a3 3 0 0 0-3-3h-1.5"/></svg>