<svg xmlns="http://www.w3.org/2000/svg" viewBox="0 0 24 24" width="24" height="24"><path fill="none" stroke="#000" stroke-linecap="round" stroke-linejoin="round" stroke-miterlimit="10" d="M16.714 1.928C15.365 1.027 13.745.5 12 .5s-3.365.527-4.714 1.428m8.319 1.664A6.46 6.46 0 0012 2.5a6.462 6.462 0 00-3.605 1.092m6.101 1.664C13.781 4.779 12.923 4.5 12 4.5s-1.782.279-2.496.756M17.5 18.5c0 2.712-2.287 5-5 5h-1c-2.712 0-5-2.288-5-5v-6c0-2.712 2.288-5 5-5h1c2.713 0 5 2.288 5 5v6z"/><path fill="none" stroke="#000" stroke-linecap="round" stroke-linejoin="round" stroke-miterlimit="10" d="M11 13.5a1 1 0 102 0v-2a1 1 0 00-2 0v2z"/><path fill="none" d="M0 0h24v24H0z"/></svg>