<svg xmlns="http://www.w3.org/2000/svg" viewBox="0 0 24 24" width="24" height="24"><defs><style>.a{fill:none;stroke:#000;stroke-linecap:round;stroke-linejoin:round;stroke-width:1.5px}</style></defs><title>mouse-remote</title><path class="a" d="M15.167 7.572a6.5 6.5 0 0 0-6.329 0m7.909-2.586a9.724 9.724 0 0 0-9.489 0M18.31 2.429a12.687 12.687 0 0 0-12.615 0M12 23.25A5.249 5.249 0 0 1 6.753 18v-3A5.25 5.25 0 0 1 12 9.75 5.251 5.251 0 0 1 17.253 15v3A5.25 5.25 0 0 1 12 23.25zm.003-10.5v1.5"/></svg>