<svg id="Regular" xmlns="http://www.w3.org/2000/svg" viewBox="0 0 24 24" width="24" height="24"><defs><style>.cls-1{fill:none;stroke:#000;stroke-linecap:round;stroke-linejoin:round;stroke-width:1.5px}</style></defs><title>mouse</title><path class="cls-1" d="M14.26 18.45a2.306 2.306 0 0 1-4.5 0c0-.663 1.007-1.2 2.25-1.2s2.25.537 2.25 1.2zm-2.25 1.8v3M7.885 13.5a.375.375 0 0 1 .375.375m-.75 0a.375.375 0 0 1 .375-.375m0 .75a.375.375 0 0 1-.375-.375m.75 0a.375.375 0 0 1-.375.375m8.25-.75a.375.375 0 0 1 .375.375m-.75 0a.375.375 0 0 1 .375-.375m0 .75a.375.375 0 0 1-.375-.375m.75 0a.375.375 0 0 1-.375.375m3.747 3.656l3.378.844m-5.576 1.924l2.576 2.576M18.01 7.37a9.551 9.551 0 0 0-12 0"/><path class="cls-1" d="M14.268 5.515A4.5 4.5 0 1 1 19.927 9.6a7.636 7.636 0 0 1 1.083 3.9c0 6-5.727 9.75-9 9.75s-9-3.75-9-9.75a7.636 7.636 0 0 1 1.083-3.9 4.5 4.5 0 1 1 5.659-4.085M4.138 17.906L.76 18.75m5.576 1.924L3.76 23.25"/></svg>