<svg id="Regular" xmlns="http://www.w3.org/2000/svg" viewBox="0 0 24 24" width="24" height="24"><defs><style>.cls-1{fill:none;stroke:#000;stroke-linecap:round;stroke-linejoin:round;stroke-width:1.5px}</style></defs><title>mouse-1</title><path class="cls-1" d="M13.51 21.75s5.25-7.5 5.25-9-.289-3 0-3A4.5 4.5 0 1 0 14.336 6a4.293 4.293 0 0 0-4.652 0A4.493 4.493 0 1 0 5.26 9.75c.289 0 0 1.5 0 3s5.25 9 5.25 9"/><circle class="cls-1" cx="12.01" cy="21.75" r="1.5"/><path class="cls-1" d="M9.385 9.75a.375.375 0 0 1 .375.375m-.75 0a.375.375 0 0 1 .375-.375m0 .75a.375.375 0 0 1-.375-.375m.75 0a.375.375 0 0 1-.375.375m5.25-.75a.375.375 0 0 1 .375.375m-.75 0a.375.375 0 0 1 .375-.375m0 .75a.375.375 0 0 1-.375-.375m.75 0a.375.375 0 0 1-.375.375m2.863 5.079l5.012 1.671m-6.276.406l3.276 4.094M6.522 15.579L1.51 17.25m6.275.406L4.51 21.75"/></svg>