<svg xmlns="http://www.w3.org/2000/svg" viewBox="0 0 24 24" width="24" height="24"><circle fill="none" stroke="#000" stroke-linecap="round" stroke-linejoin="round" stroke-miterlimit="10" cx="16.5" cy="6.562" r="5"/><path d="M23.5 5.562a.5.5 0 100 1 .5.5 0 000-1z"/><path fill="none" stroke="#000" stroke-linecap="round" stroke-linejoin="round" stroke-miterlimit="10" d="M23.5 23.501v-16m-6.812 14.016a2.56 2.56 0 01-2.559-2.56c0-2.644-3.108-3.212-4.479-1.729-1.368-1.482-4.479-.914-4.479 1.729a2.56 2.56 0 01-4.673 1.44c1.921 4.314 7.298 3.515 9.151.665 1.853 2.85 7.23 3.649 9.153-.665a2.548 2.548 0 01-2.114 1.12zM19.5 6.562a3 3 0 01-3 3"/><path fill="none" d="M0 0h24v24H0z"/></svg>