<svg xmlns="http://www.w3.org/2000/svg" viewBox="0 0 24 24" width="24" height="24"><defs><style>.a{fill:none;stroke:#000;stroke-linecap:round;stroke-linejoin:round;stroke-width:1.5px}</style></defs><title>movies-director-chair</title><path class="a" d="M6 1.476V.774m0 13.452v-2.968m12-9.782V.774m0 13.452v-3m0 0l-12 .032V1.476h12v9.75zm.359 3H5.641l-1.264 1.292a1.018 1.018 0 0 0-.213 1.09.98.98 0 0 0 .9.618h13.868a.98.98 0 0 0 .9-.618 1.018 1.018 0 0 0-.213-1.09zm-14.187 1.6l-1.607-6.85m17.01 6.493l1.894-6.493M6 8.976H.75m17.25 0h5.25m-5.928 8.25l-10.572 6m0-6l10.5 6"/><path class="a" d="M11.755 4.325a.275.275 0 0 1 .49 0l.568 1.147a.272.272 0 0 0 .205.148l1.276.184a.273.273 0 0 1 .219.182.265.265 0 0 1-.067.275l-.927.9a.265.265 0 0 0-.077.236l.218 1.266a.268.268 0 0 1-.109.263.275.275 0 0 1-.287.019l-1.136-.595a.276.276 0 0 0-.256 0l-1.136.594a.275.275 0 0 1-.287-.019.268.268 0 0 1-.109-.263l.218-1.262a.265.265 0 0 0-.077-.236l-.927-.9a.265.265 0 0 1-.067-.275.273.273 0 0 1 .219-.189l1.276-.184a.272.272 0 0 0 .205-.148z"/></svg>