<svg xmlns="http://www.w3.org/2000/svg" viewBox="0 0 24 24" width="24" height="24"><defs><style>.a{fill:none;stroke:#000;stroke-linecap:round;stroke-linejoin:round;stroke-width:1.5px}</style></defs><title>movies-film</title><path class="a" d="M.75 23.25V.75m22.5 0v22.5"/><rect class="a" x="6.75" y=".75" width="10.5" height="9" rx="1" ry="1"/><rect class="a" x="6.75" y="14.25" width="10.5" height="9" rx="1" ry="1"/><path class="a" d="M4.125 3a.375.375 0 1 1-.375-.375.375.375 0 0 1 .375.375m0 6a.375.375 0 1 1-.375-.375.375.375 0 0 1 .375.375m0 6a.375.375 0 1 1-.375-.375.375.375 0 0 1 .375.375m0 6a.375.375 0 1 1-.375-.375.375.375 0 0 1 .375.375m16.5-18a.375.375 0 1 1-.375-.375.375.375 0 0 1 .375.375m0 6a.375.375 0 1 1-.375-.375.375.375 0 0 1 .375.375m0 6a.375.375 0 1 1-.375-.375.375.375 0 0 1 .375.375m0 6a.375.375 0 1 1-.375-.375.375.375 0 0 1 .375.375"/></svg>