<svg xmlns="http://www.w3.org/2000/svg" viewBox="0 0 24 24" width="24" height="24"><defs><style>.a{fill:none;stroke:#000;stroke-linecap:round;stroke-linejoin:round;stroke-width:1.5px}</style></defs><title>moving-walkway-luggage</title><rect class="a" x="2.25" y="14.25" width="12" height="9" rx="1.5" ry="1.5"/><path class="a" d="M11.25 23.25v-10.5a1.5 1.5 0 0 0-1.5-1.5h-3a1.5 1.5 0 0 0-1.5 1.5v10.5"/><circle class="a" cx="20.625" cy="3.75" r="2.625"/><path class="a" d="M21 23.25a1.5 1.5 0 0 1-1.5-1.5V11.739l-3.338.954a1.5 1.5 0 0 1-.824-2.886l5.25-1.5A1.5 1.5 0 0 1 22.5 9.75v12a1.5 1.5 0 0 1-1.5 1.5zm-20.25 0h22.5M.75 4.5h9.563M4.5.75L.75 4.5 4.5 8.25"/></svg>