<svg id="Regular" xmlns="http://www.w3.org/2000/svg" viewBox="0 0 24 24" width="24" height="24"><defs><style>.cls-1{fill:none;stroke:#000;stroke-linecap:round;stroke-linejoin:round;stroke-width:1.5px}</style></defs><title>movie-monster</title><path class="cls-1" d="M6.141 8.3L3.129 9.44s-1.112-.17-.614-1.882A19.941 19.941 0 0 1 3.3 5.325L1 5.188S.984 3.306 3.457 2.317 6.926.946 6.926.946A3.233 3.233 0 0 1 8.035.75c1.775 0 3.683 1.3 3.683 3.073l.023.993-1.341.878a1.236 1.236 0 1 0 1.48 1.978s4.944-2.718 6.428-3.707 2.967-.989 3.956 0a1.825 1.825 0 0 1 .593 1.643.489.489 0 0 1-.391.392l-2.18.436-8.279 4.684s-.128-.233.367 1.25 1.483.989 2.967.495a46.7 46.7 0 0 0 4.45-1.484 9.017 9.017 0 0 0 1.651-1.213.494.494 0 0 1 .822.371v2.043a1.5 1.5 0 0 1-1.041 1.428l-7.507 2.418a9.7 9.7 0 0 0-3.033 2.049l-2.945 3.207.581.775a.494.494 0 0 1-.4.791H6.44a2.672 2.672 0 0 1-1.506-.889 1.5 1.5 0 0 1-.085-2.079c1.2-1.342 3.224-3.61 3.569-3.955.494-.494 0-1.978 0-1.978zm.299-4.949l1.483 1.483m-1.483 0l1.483-1.483M21.382 17.25v1.5m-18.75-6v1.5m12 6.75v1.5"/></svg>