<svg id="Regular" xmlns="http://www.w3.org/2000/svg" viewBox="0 0 24 24" width="24" height="24"><defs><style>.cls-1{fill:none;stroke:#000;stroke-linecap:round;stroke-linejoin:round;stroke-width:1.5px}</style></defs><title>movie-star</title><path class="cls-1" d="M12.729 1.2l3.346 6.629 6.44.638a.805.805 0 0 1 .5 1.374l-5.3 5.253 1.965 7.138a.813.813 0 0 1-1.151.935L12 19.934l-6.52 3.229a.813.813 0 0 1-1.151-.935l1.965-7.138L.99 9.837a.805.805 0 0 1 .5-1.374l6.44-.638L11.271 1.2a.819.819 0 0 1 1.458 0zM10.5 9.75h3"/><circle class="cls-1" cx="12" cy="15" r="2.25"/></svg>