<svg xmlns="http://www.w3.org/2000/svg" viewBox="0 0 24 24" width="24" height="24"><defs><style>.a{fill:none;stroke:#000;stroke-linecap:round;stroke-linejoin:round;stroke-width:1.5px}</style></defs><title>movies-3d-glasses</title><path class="a" d="M21.75 22.125h-6.129a1.5 1.5 0 0 1-1.06-.439L12 19.125l-2.561 2.561a1.5 1.5 0 0 1-1.06.439H2.25a1.5 1.5 0 0 1-1.5-1.5v-7.5a1.5 1.5 0 0 1 1.5-1.5h19.5a1.5 1.5 0 0 1 1.5 1.5v7.5a1.5 1.5 0 0 1-1.5 1.5z"/><path class="a" d="M15.75 19.125h4.5v-4.5h-6l1.5 4.5zm-12 0h4.5l1.5-4.5h-6v4.5zm-2.792-6.75l3.11-7.743A4.551 4.551 0 0 1 8.25 1.875m14.792 10.5l-3.11-7.743a4.551 4.551 0 0 0-4.182-2.757"/></svg>