<svg id="Regular" xmlns="http://www.w3.org/2000/svg" viewBox="0 0 24 24" width="24" height="24"><defs><style>.cls-1{fill:none;stroke:#000;stroke-linecap:round;stroke-linejoin:round;stroke-width:1.5px}</style></defs><title>movie-cinema-clock</title><path class="cls-1" d="M4.5 12.75H2.25a1.5 1.5 0 0 1-1.5-1.5v-9a1.5 1.5 0 0 1 1.5-1.5H4.5m14.25 0h3a1.5 1.5 0 0 1 1.5 1.5v9a1.5 1.5 0 0 1-1.5 1.5h-3m-18 10.5v-3a3.75 3.75 0 0 1 7.5 0v3m0 0v-3a3.75 3.75 0 0 1 7.5 0v3m0 0v-3a3.75 3.75 0 0 1 7.5 0v3m0 0H.75"/><circle class="cls-1" cx="12" cy="6.75" r="6"/><path class="cls-1" d="M14.652 6.75H12V4.098"/></svg>