<svg xmlns="http://www.w3.org/2000/svg" viewBox="0 0 24 24" width="24" height="24"><defs><style>.a{fill:none;stroke:#000;stroke-linecap:round;stroke-linejoin:round;stroke-width:1.5px}</style></defs><title>movies-audience</title><circle class="a" cx="12" cy="18" r="2.25"/><circle class="a" cx="4.5" cy="18" r="2.25"/><circle class="a" cx="19.5" cy="18" r="2.25"/><path class="a" d="M22.761 23.25a4.581 4.581 0 0 0-7.133 0A4.76 4.76 0 0 0 12 21.547M1.239 23.25a4.581 4.581 0 0 1 7.133 0A4.76 4.76 0 0 1 12 21.547"/><circle class="a" cx="15.75" cy="9" r="2.25"/><circle class="a" cx="8.25" cy="9" r="2.25"/><path class="a" d="M18.1 13.094a4.672 4.672 0 0 0-2.68-.84m.004 0a4.607 4.607 0 0 0-2.488.724m-2.277 0a4.6 4.6 0 0 0-4.9 0"/><path class="a" d="M2.218 14.25h-.49a.971.971 0 0 1-.978-.964V1.714A.971.971 0 0 1 1.728.75h20.544a.971.971 0 0 1 .978.964v11.572a.971.971 0 0 1-.978.964h-.489"/></svg>