<svg id="Regular" xmlns="http://www.w3.org/2000/svg" viewBox="0 0 24 24" width="24" height="24"><defs><style>.cls-1{fill:none;stroke:#000;stroke-linecap:round;stroke-linejoin:round;stroke-width:1.5px}</style></defs><title>movie-cinema-watch</title><path class="cls-1" d="M6.75 12h-4.5a1.5 1.5 0 0 1-1.5-1.5V2.25a1.5 1.5 0 0 1 1.5-1.5h4.5m8.25 0h6.75a1.5 1.5 0 0 1 1.5 1.5v8.25a1.5 1.5 0 0 1-1.5 1.5H15"/><path class="cls-1" d="M9.75 3v7.5l6-3.75-6-3.75zm-9 20.25v-3a3.75 3.75 0 0 1 7.5 0v3m0 0v-3a3.75 3.75 0 0 1 7.5 0v3m0 0v-3a3.75 3.75 0 0 1 7.5 0v3m0 0H.75"/></svg>