<svg xmlns="http://www.w3.org/2000/svg" viewBox="0 0 24 24" width="24" height="24"><path fill="none" stroke="#000" stroke-linejoin="round" stroke-miterlimit="10" d="M13.5 22c0 .824-.675 1.5-1.5 1.5H2c-.824 0-1.5-.676-1.5-1.5V2C.5 1.175 1.176.5 2 .5h10c.825 0 1.5.675 1.5 1.5v20zm-13-7.5h13"/><circle fill="none" stroke="#000" stroke-linejoin="round" stroke-miterlimit="10" cx="7" cy="19" r="2.5"/><path d="M6.5 18v2L8 19l-1.5-1z"/><path fill="none" stroke="#000" stroke-linejoin="round" stroke-miterlimit="10" d="M13.5 3.5H16A1.5 1.5 0 0117.5 5v14a2.5 2.5 0 105 0v-7.5"/><path fill="none" stroke="#000" stroke-linejoin="round" stroke-miterlimit="10" d="M23.5 10.5a1 1 0 11-2 0v-3a1 1 0 112 0v3zm-2 0H21a1.5 1.5 0 010-3h.5v3zM3 5.5h2m-2 2h2m-2 2h2m-2 2h2m4-4h2m-2 2h2m-2 2h2m-5-2h2m-2 2h2"/><path fill="none" d="M0 0h24v24H0z"/></svg>