<svg xmlns="http://www.w3.org/2000/svg" viewBox="0 0 24 24" width="24" height="24"><g fill="none" stroke="#000" stroke-linejoin="round" stroke-miterlimit="10"><path stroke-linecap="round" d="M19.112 13.033A8 8 0 113.5 15.5c0-.875.141-1.717.4-2.505l2.6-7.494h10l2.612 7.532zM6.5 5.501v-1.19C6.5 2.338 8.738.74 11.5.74c2.76 0 5 1.599 5 3.571v1.19m-12 0h14"/><path d="M3.5 13.001a1.5 1.5 0 110-3H5m14.5 3a1.5 1.5 0 100-3H18"/><circle stroke-linecap="round" cx="8.5" cy="10.751" r="2.25"/><circle stroke-linecap="round" cx="14.5" cy="10.751" r="2.25"/><path stroke-linecap="round" d="M9.001 15.985L10.086 13a1.5 1.5 0 012.83.003L14 16.001"/><path stroke-linecap="round" d="M8.926 18.682A1.5 1.5 0 118 16.001h7a1.5 1.5 0 11-1.002 2.616m-2.498.134a1.25 1.25 0 01-2.5 0m5 0a1.25 1.25 0 01-2.5 0m-3-8.25v.5m6-.5v.5"/></g><path fill="none" d="M0 0h24v24H0z"/></svg>