<svg id="Regular" xmlns="http://www.w3.org/2000/svg" viewBox="0 0 24 24" width="24" height="24"><defs><style>.cls-1{fill:none;stroke:#000;stroke-linecap:round;stroke-linejoin:round;stroke-width:1.5px}</style></defs><title>multiple-actions-lock</title><rect class="cls-1" x="14.25" y="15.75" width="9" height="7.5" rx="1.5" ry="1.5"/><path class="cls-1" d="M18.75 11.25a3 3 0 0 0-3 3v1.5h6v-1.5a3 3 0 0 0-3-3zm0 7.904a.375.375 0 1 0 .375.375.375.375 0 0 0-.375-.375"/><circle class="cls-1" cx="6" cy="3.75" r="3"/><path class="cls-1" d="M11.25 13.5a5.25 5.25 0 0 0-10.5 0v2.25H3l.75 7.5h4.5l.75-7.5h2.25z"/><circle class="cls-1" cx="16.5" cy="3.375" r="2.625"/><path class="cls-1" d="M20.4 9a4.5 4.5 0 0 0-7.285-.71"/></svg>