<svg id="Regular" xmlns="http://www.w3.org/2000/svg" viewBox="0 0 24 24" width="24" height="24"><defs><style>.cls-1{fill:none;stroke:#000;stroke-linecap:round;stroke-linejoin:round;stroke-width:1.5px}</style></defs><title>multiple-actions-warning</title><path class="cls-1" d="M17.25 20.25a.375.375 0 1 0 .375.375.374.374 0 0 0-.375-.375m0-2.25v-3"/><path class="cls-1" d="M23.062 20.682a1.774 1.774 0 0 1-1.587 2.568h-8.451a1.774 1.774 0 0 1-1.587-2.568l4.226-8.452a1.774 1.774 0 0 1 3.173 0zM11.6 11.4A6.029 6.029 0 0 0 6.75 9a6 6 0 0 0-6 5.25"/><circle class="cls-1" cx="6.75" cy="4.125" r="3.375"/><circle class="cls-1" cx="16.5" cy="3.375" r="2.625"/><path class="cls-1" d="M20.4 9a4.5 4.5 0 0 0-7.285-.71"/></svg>