<svg id="Regular" xmlns="http://www.w3.org/2000/svg" viewBox="0 0 24 24" width="24" height="24"><defs><style>.cls-1{fill:none;stroke:#000;stroke-linecap:round;stroke-linejoin:round;stroke-width:1.5px}</style></defs><title>multiple-users-1</title><circle class="cls-1" cx="11.5" cy="4.125" r="3.375"/><path class="cls-1" d="M15.553 10.5a6.028 6.028 0 0 0-8.106 0m7.428-6.264A6.752 6.752 0 0 1 13 4.5a6.723 6.723 0 0 1-4.568-1.781"/><circle class="cls-1" cx="18.5" cy="16.125" r="3.375"/><path class="cls-1" d="M23.25 23.25a6.026 6.026 0 0 0-9.5 0m8.125-7.014a6.76 6.76 0 0 1-6.443-1.517"/><circle class="cls-1" cx="5.5" cy="16.125" r="3.375"/><path class="cls-1" d="M10.249 23.25a6.026 6.026 0 0 0-9.5 0m8.126-7.014a6.76 6.76 0 0 1-6.443-1.517"/></svg>