<svg id="Regular" xmlns="http://www.w3.org/2000/svg" viewBox="0 0 24 24" width="24" height="24"><defs><style>.cls-1{fill:none;stroke:#000;stroke-linecap:round;stroke-linejoin:round;stroke-width:1.5px}</style></defs><title>multiple-actions-star</title><circle class="cls-1" cx="6" cy="3.75" r="3"/><path class="cls-1" d="M10.743 11.245A5.251 5.251 0 0 0 .75 13.5v2.25H3l.75 7.5h4.5l.522-5.216m9.175-6.354L19.489 15h3a.735.735 0 0 1 .518 1.283l-2.6 2.562 1.443 3.314a.786.786 0 0 1-1.119.982l-3.491-1.958-3.487 1.961a.786.786 0 0 1-1.119-.982l1.443-3.314-2.6-2.562A.734.734 0 0 1 11.989 15h3l1.544-3.323a.8.8 0 0 1 1.414.003z"/><circle class="cls-1" cx="16.5" cy="3.375" r="2.625"/><path class="cls-1" d="M20.4 9a4.5 4.5 0 0 0-7.285-.71"/></svg>