<svg id="Regular" xmlns="http://www.w3.org/2000/svg" viewBox="0 0 24 24" width="24" height="24"><defs><style>.cls-1{fill:none;stroke:#000;stroke-linecap:round;stroke-linejoin:round;stroke-width:1.5px}</style></defs><title>multiple-actions-wifi</title><path class="cls-1" d="M10.781 10.513A6.048 6.048 0 0 0 6.75 9a6 6 0 0 0-6 5.25"/><circle class="cls-1" cx="6.75" cy="4.125" r="3.375"/><circle class="cls-1" cx="16.5" cy="3.375" r="2.625"/><path class="cls-1" d="M20.4 9a4.5 4.5 0 0 0-7.284-.71m4.134 14.134a.375.375 0 1 1-.375.375.375.375 0 0 1 .375-.375m6-6.802a9.542 9.542 0 0 0-12 0m2.499 3.616a5.567 5.567 0 0 1 7 0"/></svg>