<svg id="Regular" xmlns="http://www.w3.org/2000/svg" viewBox="0 0 24 24" width="24" height="24"><defs><style>.cls-1{fill:none;stroke:#000;stroke-linecap:round;stroke-linejoin:round;stroke-width:1.5px}</style></defs><title>multiple-users-3</title><circle class="cls-1" cx="12" cy="16.875" r="2.625"/><path class="cls-1" d="M16.224 23.25a4.474 4.474 0 0 0-8.448 0"/><circle class="cls-1" cx="4.974" cy="3.375" r="2.625"/><path class="cls-1" d="M9.2 9.75a4.474 4.474 0 0 0-8.449 0z"/><circle class="cls-1" cx="19.026" cy="3.375" r="2.625"/><path class="cls-1" d="M23.25 9.75a4.474 4.474 0 0 0-8.449 0zm-19.5 3v3.75A2.25 2.25 0 0 0 6 18.75h.75m13.5-6v3.75A2.25 2.25 0 0 1 18 18.75h-.75"/></svg>