<svg id="Regular" xmlns="http://www.w3.org/2000/svg" viewBox="0 0 24 24" width="24" height="24"><defs><style>.cls-1{fill:none;stroke:#000;stroke-linecap:round;stroke-linejoin:round;stroke-width:1.5px}</style></defs><title>multiple-actions-mail</title><path class="cls-1" d="M23.25 15.75v6a1.5 1.5 0 0 1-1.5 1.5h-9a1.5 1.5 0 0 1-1.5-1.5v-6"/><path class="cls-1" d="M23.25 15.75a1.5 1.5 0 0 0-1.5-1.5h-9a1.5 1.5 0 0 0-1.5 1.5L16.455 19a1.5 1.5 0 0 0 1.59 0z"/><circle class="cls-1" cx="6.75" cy="4.125" r="3.375"/><circle class="cls-1" cx="16.5" cy="3.375" r="2.625"/><path class="cls-1" d="M11.452 11.245A6.051 6.051 0 0 0 .75 14.25m20.25-3a4.484 4.484 0 0 0-8.037-2.75"/></svg>