<svg id="Regular" xmlns="http://www.w3.org/2000/svg" viewBox="0 0 24 24" width="24" height="24"><defs><style>.cls-1{fill:none;stroke:#000;stroke-linecap:round;stroke-linejoin:round;stroke-width:1.5px}</style></defs><title>multiple-actions-key</title><path class="cls-1" d="M10.781 10.513A6.048 6.048 0 0 0 6.75 9a6 6 0 0 0-6 5.25"/><circle class="cls-1" cx="6.75" cy="4.125" r="3.375"/><circle class="cls-1" cx="16.5" cy="3.375" r="2.625"/><path class="cls-1" d="M20.4 9a4.5 4.5 0 0 0-7.284-.71m2.459 10.635a.375.375 0 1 1-.531 0 .375.375 0 0 1 .531 0"/><path class="cls-1" d="M19.086 17.71l3.688-3.688a1.624 1.624 0 1 0-2.3-2.3l-3.684 3.691a4.061 4.061 0 1 0 2.3 2.3z"/></svg>