<svg id="Regular" xmlns="http://www.w3.org/2000/svg" viewBox="0 0 24 24" width="24" height="24"><defs><style>.cls-1{fill:none;stroke:#000;stroke-linecap:round;stroke-linejoin:round;stroke-width:1.5px}</style></defs><title>multiple-actions-graduate</title><path class="cls-1" d="M16.5 14.308l-6.75 2.779 6.75 2.471 6.75-2.471-6.75-2.779zm-6.75 2.758v3.771"/><path class="cls-1" d="M12.75 18.185V21.3a.75.75 0 0 0 .471.7l3 1.2a.748.748 0 0 0 .558 0l3-1.2a.75.75 0 0 0 .471-.7v-3.115"/><circle class="cls-1" cx="6" cy="3.75" r="3"/><path class="cls-1" d="M10.555 10.888A5.251 5.251 0 0 0 .75 13.5v2.25H3l.75 7.5h4.5"/><circle class="cls-1" cx="16.5" cy="3.375" r="2.625"/><path class="cls-1" d="M20.4 9a4.5 4.5 0 0 0-7.285-.71"/></svg>