<svg id="Regular" xmlns="http://www.w3.org/2000/svg" viewBox="0 0 24 24" width="24" height="24"><defs><style>.cls-1{fill:none;stroke:#000;stroke-linecap:round;stroke-linejoin:round;stroke-width:1.5px}</style></defs><title>multiple-actions-laptop</title><path class="cls-1" d="M9.9 9.78a6.093 6.093 0 0 0-3-.78 6 6 0 0 0-6 5.25"/><circle class="cls-1" cx="6.895" cy="4.125" r="3.375"/><circle class="cls-1" cx="16.645" cy="3.375" r="2.625"/><path class="cls-1" d="M20.541 9a4.5 4.5 0 0 0-7.284-.71m8.643 4.46v6H11.4v-6a1.5 1.5 0 0 1 1.5-1.5h7.5a1.5 1.5 0 0 1 1.5 1.5zm-10.5 6h10.5l1.171 3.513a.751.751 0 0 1-.712.987H10.935a.75.75 0 0 1-.711-.987z"/></svg>