<svg xmlns="http://www.w3.org/2000/svg" viewBox="0 0 24 24" width="24" height="24"><path fill="none" stroke="#000" stroke-linecap="round" stroke-linejoin="round" stroke-miterlimit="10" d="M5.5 9.503l2-2.5 1.5 1-2 3-.5 4.75c1.521-1.729 5.771-1.729 6.75.312.539-6.321 9.375-5.983 9.375.458 0 9.84-21.125 7.016-21.125 1.492-.293-1.495 1.319-7.39 1.965-9.744C3.877 6.768 5.5 5.503 5.5 5.503h5l.5 2.5-.875 2.528L7 11.003m9.5 4.497h2m-1-1.5v5"/><path fill="none" stroke="#000" stroke-linecap="round" stroke-linejoin="round" stroke-miterlimit="10" d="M15.5 18l2 1 2-1"/><path fill="none" d="M0 0h24v24H0z"/></svg>