<svg id="Regular" xmlns="http://www.w3.org/2000/svg" viewBox="0 0 24 24" width="24" height="24"><defs><style>.cls-1{fill:none;stroke:#000;stroke-linecap:round;stroke-linejoin:round;stroke-width:1.5px}</style></defs><title>museum-exhibition</title><path class="cls-1" d="M.75.75h22.5M1.5.75l2.349 4.11a.75.75 0 0 0 1.3 0L7.5.75m1.5 0l2.349 4.11a.75.75 0 0 0 1.3 0L15 .75m1.5 0l2.349 4.11a.75.75 0 0 0 1.3 0L22.5.75M5.25 14.25v9m13.5-9v9m0-7.516a15.785 15.785 0 0 1-13.5 0m18 1.357a15.648 15.648 0 0 1-4.5-1.357m-18 1.357a15.648 15.648 0 0 0 4.5-1.357"/><circle class="cls-1" cx="5.25" cy="12.75" r="1.5"/><circle class="cls-1" cx="18.75" cy="12.75" r="1.5"/></svg>