<svg id="Regular" xmlns="http://www.w3.org/2000/svg" viewBox="0 0 24 24" width="24" height="24"><defs><style>.cls-1{fill:none;stroke:#000;stroke-linecap:round;stroke-linejoin:round;stroke-width:1.5px}</style></defs><title>museum-art</title><path class="cls-1" d="M4.5 18.75v4.5m7.5-4.5v4.5M4.5.75H12m1.5 7.5a5.24 5.24 0 0 0-1.909-4.05A3 3 0 0 1 10.5 1.886V.75H6v1.136A3 3 0 0 1 4.909 4.2a5.251 5.251 0 0 0 1.124 8.81l-.783 2.74h6l-.783-2.74A5.25 5.25 0 0 0 13.5 8.25z"/><path class="cls-1" d="M15.75 17.25a1.5 1.5 0 0 1-1.5 1.5h-12a1.5 1.5 0 0 1 0-3h12a1.5 1.5 0 0 1 1.5 1.5zM3.506 6h9.488m-9.488 4.5h9.488m3.506-6h6.75v3.75H16.5z"/></svg>