<svg id="Regular" xmlns="http://www.w3.org/2000/svg" viewBox="0 0 24 24" width="24" height="24"><defs><style>.cls-1{fill:none;stroke:#000;stroke-linecap:round;stroke-linejoin:round;stroke-width:1.5px}</style></defs><title>museum-painting</title><path class="cls-1" d="M5.25 15v8.25M18.75 15v8.25m0-6.766a15.785 15.785 0 0 1-13.5 0m18 1.357a15.648 15.648 0 0 1-4.5-1.357m-18 1.357a15.648 15.648 0 0 0 4.5-1.357"/><rect class="cls-1" x="3" y=".75" width="18" height="11.25" rx="1" ry="1"/><path class="cls-1" d="M6 9l3.236-4.23a.75.75 0 0 1 1.095-.062l2.612 2.836"/><path class="cls-1" d="M12 9l3.17-4.9a.75.75 0 0 1 1.236-.053L18 6"/></svg>