<svg xmlns="http://www.w3.org/2000/svg" viewBox="0 0 24 24" width="24" height="24"><defs><style>.a{fill:none;stroke:#000;stroke-linecap:round;stroke-linejoin:round;stroke-width:1.5px}</style></defs><title>music-genre-settings</title><circle class="a" cx="13.875" cy="21.375" r="1.875"/><circle class="a" cx="21.375" cy="19.125" r="1.875"/><path class="a" d="M15.75 21.375v-6.794a1.5 1.5 0 0 1 1.026-1.423l4.5-1.25a1.5 1.5 0 0 1 1.974 1.423v5.794"/><path class="a" d="M9.235 22.923A1.959 1.959 0 0 1 6.2 21.191l.072-1.4a1.96 1.96 0 0 0-2.062-2.057l-1.4.071A1.959 1.959 0 0 1 1.4 14.4l1.042-.941a1.959 1.959 0 0 0 0-2.908L1.4 9.606A1.959 1.959 0 0 1 2.809 6.2l1.4.072a1.96 1.96 0 0 0 2.058-2.061L6.2 2.809A1.959 1.959 0 0 1 9.606 1.4l.94 1.041a1.959 1.959 0 0 0 2.908 0l.94-1.041a1.959 1.959 0 0 1 3.411 1.412l-.072 1.4a1.958 1.958 0 0 0 2.057 2.055l1.4-.072a1.959 1.959 0 0 1 1.872 2.792M12 16.5a4.5 4.5 0 1 1 3.967-6.625"/></svg>