<svg xmlns="http://www.w3.org/2000/svg" viewBox="0 0 24 24" width="24" height="24"><defs><style>.a{fill:none;stroke:#000;stroke-linecap:round;stroke-linejoin:round;stroke-width:1.5px}</style></defs><title>music-metronome</title><path class="a" d="M15.557 5.189l-1.138-3.413A1.5 1.5 0 0 0 13 .75H9.075a1.5 1.5 0 0 0-1.4.968l-6.825 18a1.5 1.5 0 0 0 1.4 2.032H19a1.5 1.5 0 0 0 1.423-1.974l-2.831-8.493M3.75 21.75v1.5m13.5-1.5v1.5m-14.898-7.5h16.725m-12.175-12h2.175m-3.312 3h3.312m-4.45 3h4.375m-5.512 3h5.512"/><circle class="a" cx="21" cy="3" r="2.25"/><path class="a" d="M19.416 4.598L10.5 15.75"/></svg>