<svg xmlns="http://www.w3.org/2000/svg" viewBox="0 0 24 24" width="24" height="24"><defs><style>.a{fill:none;stroke:#000;stroke-linecap:round;stroke-linejoin:round;stroke-width:1.5px}</style></defs><title>music-genre-pacman</title><path class="a" d="M11.513 10.244a.98.98 0 0 0-.6-1.36 7.337 7.337 0 1 0 3.949 11.17.979.979 0 0 0-.387-1.435l-5.669-2.707z"/><path class="a" d="M5.872 12.6a.375.375 0 1 1-.375.375.375.375 0 0 1 .375-.375"/><circle class="a" cx="21.032" cy="16.5" r="1.5"/><path class="a" d="M22.532 16.5V12"/><circle class="a" cx="17.657" cy="7.929" r="1.875"/><path class="a" d="M19.532 7.929V1.5a.75.75 0 0 1 1.2-.6l1.8 1.35"/></svg>