<svg xmlns="http://www.w3.org/2000/svg" viewBox="0 0 24 24" width="24" height="24"><defs><style>.a{fill:none;stroke:#000;stroke-linecap:round;stroke-linejoin:round;stroke-width:1.5px}</style></defs><title>music-concert-ticket</title><path class="a" d="M19.5 12a3.75 3.75 0 0 1 3.75-3.75V4.5a1.5 1.5 0 0 0-1.5-1.5H2.25a1.5 1.5 0 0 0-1.5 1.5v3.75a3.75 3.75 0 0 1 0 7.5v3.75a1.5 1.5 0 0 0 1.5 1.5h19.5a1.5 1.5 0 0 0 1.5-1.5v-3.75A3.75 3.75 0 0 1 19.5 12z"/><circle class="a" cx="8.25" cy="16.5" r="1.5"/><circle class="a" cx="14.25" cy="15" r="1.5"/><path class="a" d="M15.75 15v-4.079a1.5 1.5 0 0 0-1.864-1.455l-3 .75a1.5 1.5 0 0 0-1.136 1.455V16.5M4.875 6a.375.375 0 1 1-.375.375A.375.375 0 0 1 4.875 6m4.5 0A.375.375 0 1 1 9 6.375.375.375 0 0 1 9.375 6m5.25 0a.375.375 0 1 1-.375.375.375.375 0 0 1 .375-.375m4.5 0a.375.375 0 1 1-.375.375.375.375 0 0 1 .375-.375"/></svg>