<svg xmlns="http://www.w3.org/2000/svg" viewBox="0 0 24 24" width="24" height="24"><defs><style>.a{fill:none;stroke:#000;stroke-linecap:round;stroke-linejoin:round;stroke-width:1.5px}</style></defs><title>music-genre-moon-night</title><circle class="a" cx="21.75" cy="16.004" r="1.5"/><path class="a" d="M23.25 16.004v-4.5M8.655 13.389A10.269 10.269 0 0 1 11.547 3.35a.489.489 0 0 0-.326-.844 10.271 10.271 0 1 0 4.951 19.16.489.489 0 0 0-.123-.9 10.268 10.268 0 0 1-7.394-7.377z"/><circle class="a" cx="16.125" cy="8.129" r="1.875"/><path class="a" d="M18 8.129V1.7a.75.75 0 0 1 1.2-.6L21 2.451"/></svg>