<svg xmlns="http://www.w3.org/2000/svg" viewBox="0 0 24 24" width="24" height="24"><defs><style>.a{fill:none;stroke:#000;stroke-linecap:round;stroke-linejoin:round;stroke-width:1.5px}</style></defs><title>music-genre-dumbbell</title><circle class="a" cx="13.875" cy="21.375" r="1.875"/><circle class="a" cx="21.375" cy="19.125" r="1.875"/><path class="a" d="M15.75 21.375V15a1.5 1.5 0 0 1 1.026-1.423l4.5-1.25a1.5 1.5 0 0 1 1.974 1.423v5.375M16.318 1.19a1.5 1.5 0 0 0 0 2.121l4.371 4.371a1.5 1.5 0 0 0 2.121-2.121L18.439 1.19a1.5 1.5 0 0 0-2.121 0z"/><path class="a" d="M21.784 8.778L14.2 1.189a1.5 1.5 0 0 0-2.125 2.121l6.725 6.722M1.189 16.318a1.5 1.5 0 0 1 2.121 0l4.372 4.372a1.5 1.5 0 1 1-2.122 2.121L1.189 18.44a1.5 1.5 0 0 1 0-2.122zm8.198 6.076l-8.2-8.2a1.5 1.5 0 0 1 2.12-2.121l6.907 6.907m-3.657-3.658l8.764-8.765m2.122 2.122l-8.765 8.764"/></svg>