<svg xmlns="http://www.w3.org/2000/svg" viewBox="0 0 24 24" width="24" height="24"><defs><style>.a{fill:none;stroke:#000;stroke-linecap:round;stroke-linejoin:round;stroke-width:1.5px}</style></defs><title>music-genre-idea</title><circle class="a" cx="13.875" cy="10.294" r="1.875"/><circle class="a" cx="21.375" cy="8.044" r="1.875"/><path class="a" d="M15.75 10.294V3.5a1.5 1.5 0 0 1 1.026-1.423l4.5-1.25A1.5 1.5 0 0 1 23.25 2.25v5.794m-12-5.794V.75M.75 11.25h1.5m1.575-8.174l1.061 1.06M3.825 17.925l1.061-1.061M11.25 21v2.25m1.5-17.811a6.005 6.005 0 0 0-7.5 5.811A5.964 5.964 0 0 0 9 16.776v1.974a2.25 2.25 0 0 0 4.5 0v-1.974a6.046 6.046 0 0 0 2.722-2.191M9 18h4.5"/></svg>