<svg xmlns="http://www.w3.org/2000/svg" viewBox="0 0 24 24" width="24" height="24"><defs><style>.a{fill:none;stroke:#000;stroke-linecap:round;stroke-linejoin:round;stroke-width:1.5px}</style></defs><title>music-basket-buy</title><path class="a" d="M9 17.25H4.314a1.441 1.441 0 0 1-1.383-1.136l-2.138-9A1.484 1.484 0 0 1 2.176 5.25h18.148a1.484 1.484 0 0 1 1.383 1.864l-.3 1.256M3.75 5.25l4.5-4.5m10.5 4.5L14.25.752"/><circle class="a" cx="13.875" cy="21.375" r="1.875"/><circle class="a" cx="21.375" cy="19.125" r="1.875"/><path class="a" d="M15.75 21.375v-6.794a1.5 1.5 0 0 1 1.026-1.423l4.5-1.25a1.5 1.5 0 0 1 1.974 1.423v5.794"/></svg>