<svg xmlns="http://www.w3.org/2000/svg" viewBox="0 0 24 24" width="24" height="24"><defs><style>.a{fill:none;stroke:#000;stroke-linecap:round;stroke-linejoin:round;stroke-width:1.5px}</style></defs><title>music-genre-80s</title><rect class="a" x=".75" y="3.75" width="22.5" height="19.5" rx="1" ry="1"/><path class="a" d="M.75 9.75h22.5M6.75 6V.75M17.25 6V.75M13.5 18a1.5 1.5 0 0 1-3 0v-3a1.5 1.5 0 0 1 3 0zm5.25-3h-1.125a1.032 1.032 0 0 0-1.125.9c0 1.35 2.25 1.35 2.25 2.7a1.032 1.032 0 0 1-1.125.9H16.5"/><circle class="a" cx="6" cy="18" r="1.5"/><circle class="a" cx="6" cy="15" r="1.5"/></svg>