<svg xmlns="http://www.w3.org/2000/svg" viewBox="0 0 24 24" width="24" height="24"><defs><style>.a{fill:none;stroke:#000;stroke-linecap:round;stroke-linejoin:round;stroke-width:1.5px}</style></defs><title>music-genre-choose</title><path class="a" d="M12.374 12h9.75m-9.231-4.491a.511.511 0 0 1-.471-.3.488.488 0 0 1 .108-.541L16.882 2.4a.518.518 0 0 1 .719 0l4.381 4.237a.486.486 0 0 1 .113.539.51.51 0 0 1-.469.307zm-.019 8.991a.512.512 0 0 0-.469.309.49.49 0 0 0 .113.542l4.382 4.255a.518.518 0 0 0 .72 0l4.351-4.289a.491.491 0 0 0 .108-.543.507.507 0 0 0-.471-.3zM1.918 18.362a1.5 1.5 0 1 1 1.449 1.888 1.5 1.5 0 1 1-1.445 1.9M1.867.75h.75a.75.75 0 0 1 .75.75v5.25m-1.5 0h3m-1.5 3a.375.375 0 1 1-.375.375.374.374 0 0 1 .375-.375m0 3.844a.375.375 0 1 1-.375.375.374.374 0 0 1 .375-.375"/></svg>