<svg xmlns="http://www.w3.org/2000/svg" viewBox="0 0 24 24" width="24" height="24"><defs><style>.a{fill:none;stroke:#000;stroke-linecap:round;stroke-linejoin:round;stroke-width:1.5px}</style></defs><title>music-clef-sheet</title><path class="a" d="M.75 4.5h4.5m11.989 0h5.993M.75 9.75h2.988m12 .028l7.512-.028M.75 15h2.238m13.5 0h6.751M.75 20.25L3 20.236m12 .014h8.239m-12.613-2.076a23.567 23.567 0 0 1 .354 2.63 2.374 2.374 0 0 1-2.446 2.446 2.446 2.446 0 0 1-2.445-2.45"/><path class="a" d="M9.313 15.521a1.982 1.982 0 0 1 1.667-3.032c1.081 0 1.957.978 1.957 2.446a3.424 3.424 0 0 1-6.848 0c0-2.7 2.036-4.248 4.891-5.381 3.473-1.378 3.424-8.8.978-8.8S9.024 5.152 9.024 7.6a44.151 44.151 0 0 0 .7 5.348"/></svg>