<svg xmlns="http://www.w3.org/2000/svg" viewBox="0 0 24 24" width="24" height="24"><defs><style>.a{fill:none;stroke:#000;stroke-linecap:round;stroke-linejoin:round;stroke-width:1.5px}</style></defs><title>music-ticket</title><circle class="a" cx="6.75" cy="15" r="1.5"/><circle class="a" cx="12.75" cy="13.5" r="1.5"/><path class="a" d="M14.25 13.5V9a1.5 1.5 0 0 0-1.864-1.455l-3 .75A1.5 1.5 0 0 0 8.25 9.75V15m9.375.75a.375.375 0 1 1-.375.375.375.375 0 0 1 .375-.375m0-3.75a.375.375 0 1 1-.375.375.375.375 0 0 1 .375-.375m0-3.75a.375.375 0 1 1-.375.375.375.375 0 0 1 .375-.375"/><path class="a" d="M21 12a2.25 2.25 0 0 1 2.25-2.25V6a1.5 1.5 0 0 0-1.5-1.5H2.25A1.5 1.5 0 0 0 .75 6v3.75a2.25 2.25 0 0 1 0 4.5V18a1.5 1.5 0 0 0 1.5 1.5h19.5a1.5 1.5 0 0 0 1.5-1.5v-3.75A2.25 2.25 0 0 1 21 12z"/></svg>