<svg xmlns="http://www.w3.org/2000/svg" viewBox="0 0 24 24" width="24" height="24"><defs><style>.a{fill:none;stroke:#000;stroke-linecap:round;stroke-linejoin:round;stroke-width:1.5px}</style></defs><title>music-genre-moon</title><path class="a" d="M8.917 9.821a9.987 9.987 0 0 1 .566-6.949.5.5 0 0 0-.583-.695 10 10 0 1 0 10.563 15.715.5.5 0 0 0-.426-.8c-.149.008-.3.013-.45.014a10.033 10.033 0 0 1-2.4-.281"/><circle class="a" cx="13.134" cy="13.184" r="1.875"/><circle class="a" cx="20.634" cy="10.934" r="1.875"/><path class="a" d="M15.009 13.184V6.39a1.5 1.5 0 0 1 1.025-1.423l4.5-1.25a1.5 1.5 0 0 1 1.975 1.423v5.794"/></svg>