<svg id="Regular" xmlns="http://www.w3.org/2000/svg" viewBox="0 0 24 24" width="24" height="24"><defs><style>.cls-1{fill:none;stroke:#000;stroke-linecap:round;stroke-linejoin:round;stroke-width:1.5px}</style></defs><title>natural-disaster-water-level-rise</title><path class="cls-1" d="M15.75 9V.75m0 0L18 3M15.75.75L13.5 3M8.25 9V.75m0 0L10.5 3M8.25.75L6 3M.75 18.084a8.983 8.983 0 0 1 6-2.25c3.75 0 10.5 6.333 16.5.333M.75 13.584a8.983 8.983 0 0 1 6-2.25c3.75 0 10.5 6.333 16.5.333M.75 22.584a8.983 8.983 0 0 1 6-2.25c3.75 0 10.5 6.333 16.5.333"/></svg>