<svg id="Regular" xmlns="http://www.w3.org/2000/svg" viewBox="0 0 24 24" width="24" height="24"><defs><style>.cls-1{fill:none;stroke:#000;stroke-linecap:round;stroke-linejoin:round;stroke-width:1.5px}</style></defs><title>natural-disaster-volcano</title><path class="cls-1" d="M21.938 23.25H2.312a.54.54 0 0 1-.355-.946l.007-.007a17.894 17.894 0 0 0 5.9-10.746l.312-2.029A1.5 1.5 0 0 1 9.662 8.25h4.926a1.5 1.5 0 0 1 1.483 1.272l.312 2.029a17.894 17.894 0 0 0 5.9 10.746l.007.007a.54.54 0 0 1-.352.946z"/><path class="cls-1" d="M12.875 8.25l-2.25 4.5h3l-1.5 5.25m3-12.75s1.5-4.5 5.25-4.5m-11.25 4.5s-1.5-4.5-5.25-4.5m-2.25 3.375A.375.375 0 0 1 2 4.5m-.75 0a.375.375 0 0 1 .375-.375m0 .75A.375.375 0 0 1 1.25 4.5m.75 0a.375.375 0 0 1-.375.375m10.5-3.75a.375.375 0 0 1 .375.375m-.75 0a.375.375 0 0 1 .375-.375m0 .75a.375.375 0 0 1-.375-.375m.75 0a.375.375 0 0 1-.375.375m10.5 2.25A.375.375 0 0 1 23 4.5m-.75 0a.375.375 0 0 1 .375-.375m0 .75a.375.375 0 0 1-.375-.375m.75 0a.375.375 0 0 1-.375.375"/></svg>