<svg id="Regular" xmlns="http://www.w3.org/2000/svg" viewBox="0 0 24 24" width="24" height="24"><defs><style>.cls-1,.cls-2{fill:none;stroke:#000;stroke-linecap:round;stroke-linejoin:round;stroke-width:1.5px}.cls-2{stroke-dasharray:1 2}</style></defs><title>natural-disaster-hurricane-map</title><path class="cls-1" d="M21 13.5l1.715 7.929a1.5 1.5 0 0 1-1.467 1.817H2.379A1.5 1.5 0 0 1 .9 21.5L2.649 11a1.5 1.5 0 0 1 1.48-1.25h8.479"/><ellipse class="cls-1" cx="18.608" cy="2.221" rx="3.922" ry="1.471"/><path class="cls-1" d="M21.55 6c0 .812-1.317 1.471-2.942 1.471S15.667 6.812 15.667 6m4.902 3.75c0 .677-.878 1.226-1.961 1.226s-1.961-.549-1.961-1.226"/><path class="cls-2" d="M5.858 20.265h9.375a1.877 1.877 0 0 0 1.875-1.879 1.877 1.877 0 0 0-1.875-1.879h-1.875a1.877 1.877 0 0 1-1.875-1.878 1.877 1.877 0 0 1 1.875-1.879h1.875"/></svg>