<svg id="Regular" xmlns="http://www.w3.org/2000/svg" viewBox="0 0 24 24" width="24" height="24"><defs><style>.cls-1{fill:none;stroke:#000;stroke-linecap:round;stroke-linejoin:round;stroke-width:1.5px}</style></defs><title>natural-disaster-flood-house-wave</title><path class="cls-1" d="M.75 18.75a8.983 8.983 0 0 1 6-2.25c3.75 0 10.5 6.333 16.5.333m-10.165-6.306a7.089 7.089 0 0 0 1.164-4.134 1.875 1.875 0 1 0-3.749 0c0 .556-.861.4-1.282-.035a1.286 1.286 0 0 1-.36-.936A4.83 4.83 0 0 1 13.685.75c6.615 0 5.862 9.05 9.565 11.583M.75 22.5a8.983 8.983 0 0 1 6-2.25c3.75 0 10.5 6.333 16.5.333m-21-2.906V11.75m6 0v4.999M.75 12.75l4.5-3 4.5 3"/></svg>