<svg id="Regular" xmlns="http://www.w3.org/2000/svg" viewBox="0 0 24 24" width="24" height="24"><defs><style>.cls-1{fill:none;stroke:#000;stroke-linecap:round;stroke-linejoin:round;stroke-width:1.5px}</style></defs><title>natural-disaster-draught</title><path class="cls-1" d="M.75 23.25v-6a1.5 1.5 0 0 1 1.5-1.5h19.5a1.5 1.5 0 0 1 1.5 1.5v6"/><path class="cls-1" d="M.75 18a70.8 70.8 0 0 0 6.75 2.25c.75 0 8.25-1.5 8.25-1.5l7.5 1.5"/><circle class="cls-1" cx="3.75" cy="3.75" r="3"/><path class="cls-1" d="M17.25.75v15m0-9h1.5a1.5 1.5 0 0 0 1.5-1.5V3m-3 2.25h-1.5a1.5 1.5 0 0 1-1.5-1.5V1.5m3 8.25h-3a1.5 1.5 0 0 1-1.5-1.5V7.5m4.5 3.75h3a1.5 1.5 0 0 0 1.5-1.5V9m-13.5 6.75v7.5m7.5-7.5v7.5"/></svg>