<svg id="Regular" xmlns="http://www.w3.org/2000/svg" viewBox="0 0 24 24" width="24" height="24"><defs><style>.cls-1{fill:none;stroke:#000;stroke-linecap:round;stroke-linejoin:round;stroke-width:1.5px}</style></defs><title>natural-disaster-earthquake</title><path class="cls-1" d="M.75 22.5v-6a1.5 1.5 0 0 1 1.5-1.5h5.669a1.5 1.5 0 0 1 1.423 1.026l1.235 3.705a1.5 1.5 0 0 0 2.846 0l1.235-3.705A1.5 1.5 0 0 1 16.081 15h5.669a1.5 1.5 0 0 1 1.5 1.5v6M5.25 12v3m2.9-5.039A1.5 1.5 0 0 1 6.75 12h-3a1.5 1.5 0 0 1-1.4-2.039L5.25 1.5zM18.75 12v3m-2.9-5.039A1.5 1.5 0 0 0 17.25 12h3a1.5 1.5 0 0 0 1.4-2.039L18.75 1.5z"/></svg>