<svg id="Regular" xmlns="http://www.w3.org/2000/svg" viewBox="0 0 24 24" width="24" height="24"><defs><style>.cls-1{fill:none;stroke:#000;stroke-linecap:round;stroke-linejoin:round;stroke-width:1.5px}</style></defs><title>natural-disaster-flood-building</title><path class="cls-1" d="M.75 23.25V1.941a1.108 1.108 0 0 1 1-1.191h4a1.108 1.108 0 0 1 1 1.191V23.25m0-18.75H4.5m2.25 3.75H4.5m2.25 7.5H4.5M6.75 12H4.5m2.25 7.532H4.5m18.75-2.588a3.185 3.185 0 0 1-2.759-1.718 4.4 4.4 0 0 1-3.265 1.718 3.834 3.834 0 0 1-3.011-1.718s-1.674 2.124-3.715 1.688m12.75 4.839a3.185 3.185 0 0 1-2.759-1.717 4.4 4.4 0 0 1-3.265 1.717 3.834 3.834 0 0 1-3.011-1.717s-1.668 2.123-3.709 1.687m12.744-9.588a3.185 3.185 0 0 1-2.759-1.718 4.4 4.4 0 0 1-3.265 1.718 3.834 3.834 0 0 1-3.011-1.718s-1.668 2.124-3.709 1.688"/></svg>