<svg id="Regular" xmlns="http://www.w3.org/2000/svg" viewBox="0 0 24 24" width="24" height="24"><defs><style>.cls-1{fill:none;stroke:#000;stroke-linecap:round;stroke-linejoin:round;stroke-width:1.5px}</style></defs><title>natural-disaster-flood-house</title><path class="cls-1" d="M.75 18.834a8.983 8.983 0 0 1 6-2.25c3.75 0 10.5 6.333 16.5.333M.75 22.584a8.983 8.983 0 0 1 6-2.25c3.75 0 10.5 6.333 16.5.333m-4.5-13.781v9.121m-13.5-2.675V6.886M1.5 10.584l9.4-9.274a1.507 1.507 0 0 1 2.194 0l9.4 9.274"/><path class="cls-1" d="M9.75 13.605v-2.271a2.25 2.25 0 0 1 4.5 0v3.943"/></svg>