<svg id="Regular" xmlns="http://www.w3.org/2000/svg" viewBox="0 0 24 24" width="24" height="24"><defs><style>.cls-1{fill:none;stroke:#000;stroke-linecap:round;stroke-linejoin:round;stroke-width:1.5px}</style></defs><title>nautic-sports-scooter</title><path class="cls-1" d="M.789 13.25h22.395m-2.853 4.09a10.443 10.443 0 0 0 2.369-2.735 4.309 4.309 0 0 0 .55-2.105v-.75a3 3 0 0 0-3-3H10.5L8.245 4.8a1.5 1.5 0 0 0-2.127-.5A11.541 11.541 0 0 0 .78 12.572a3.014 3.014 0 0 0 .227 1.438 9.593 9.593 0 0 0 2.663 3.33"/><path class="cls-1" d="M9.689 7.331L11.1 5.45a3 3 0 0 1 2.4-1.2h2.25m-15 13.5a5.511 5.511 0 0 0 4.5-1.5 4.547 4.547 0 0 0 6.75 0 4.547 4.547 0 0 0 6.75 0 5.511 5.511 0 0 0 4.5 1.5m-21.945-7.5H5.25m9-1.5l4.5 4.5"/></svg>