<svg id="Regular" xmlns="http://www.w3.org/2000/svg" viewBox="0 0 24 24" width="24" height="24"><defs><style>.cls-1{fill:none;stroke:#000;stroke-linecap:round;stroke-linejoin:round;stroke-width:1.5px}</style></defs><title>nautic-sports-sailing-person</title><circle class="cls-1" cx="3.75" cy="8.157" r="2.625"/><path class="cls-1" d="M9 19.032H7.6a3.016 3.016 0 0 1-2.573-1.456l-1.813-3.022a1.5 1.5 0 0 1 .992-2.242L6 11.953a3.009 3.009 0 0 0 1.985-1.4L9.214 8.51a1.5 1.5 0 1 1 2.572 1.544L10.56 12.1a6.013 6.013 0 0 1-3.683 2.73l.723 1.2H9a6.029 6.029 0 0 1 3.724 1.3M8.8 1a.75.75 0 0 0-.659 1.127l8.872 15.213a.75.75 0 0 0 1.356-.131 8.187 8.187 0 0 1 4.276-4.646.748.748 0 0 0 .36-.948C22.048 9.211 18.138 1.13 8.8 1zm1.763 5.282h9.233m-6.608 4.5h9.46M.75 22.75a4.666 4.666 0 0 0 3.75-1.9 4.649 4.649 0 0 0 7.5 0 4.649 4.649 0 0 0 7.5 0 4.666 4.666 0 0 0 3.75 1.9"/></svg>