<svg id="Regular" xmlns="http://www.w3.org/2000/svg" viewBox="0 0 24 24" width="24" height="24"><defs><style>.cls-1{fill:none;stroke:#000;stroke-linecap:round;stroke-linejoin:round;stroke-width:1.5px}</style></defs><title>nautic-sports-scooter-1</title><path class="cls-1" d="M23.071 14H.75m22.5 5.25a5.511 5.511 0 0 1-4.5-1.5 4.547 4.547 0 0 1-6.75 0 4.547 4.547 0 0 1-6.75 0 5.511 5.511 0 0 1-4.5 1.5m0-3V12.5a1.5 1.5 0 0 1 1.5-1.5H13.5l2.25-4.5 6.334 4.434a2.732 2.732 0 0 1 .707 3.754L21.75 16.25"/><path class="cls-1" d="M8.25 11l.466-1.864A1.5 1.5 0 0 1 10.171 8H15m-1.5 0l-.75-3.75H10.5"/></svg>