<svg id="Regular" xmlns="http://www.w3.org/2000/svg" viewBox="0 0 24 24" width="24" height="24"><defs><style>.cls-1{fill:none;stroke:#000;stroke-linecap:round;stroke-linejoin:round;stroke-width:1.5px}</style></defs><title>nautic-sports-surfing-water</title><circle class="cls-1" cx="17.25" cy="3.625" r="2.625"/><path class="cls-1" d="M16.454 18.993a1.49 1.49 0 0 0 .046-.368v-2.947a3 3 0 0 0-1.336-2.5l-.57-.38.7-1.758a12.508 12.508 0 0 1 1.616.91l4 2.669a1.5 1.5 0 1 0 1.665-2.5l-4-2.669a15.539 15.539 0 0 0-6.668-2.48A4.494 4.494 0 0 1 8.721 5a1.5 1.5 0 0 0-2.5 1.664A7.486 7.486 0 0 0 10.5 9.75l-1.21 1.214a3.01 3.01 0 0 0-.79 2.848l.3 1.211-2.2 1.652a1.5 1.5 0 0 0-.473.6"/><path class="cls-1" d="M9.954 17.909l.648-.485a3 3 0 0 0 1.155-2.924c.05.044 1.743 1.18 1.743 1.18v2.82m-12.75.875l22.5 3.75M2.137 19.606l-.844 2.532a.751.751 0 0 0 1.022.92l5.509-2.5"/></svg>