<svg xmlns="http://www.w3.org/2000/svg" viewBox="0 0 24 24" width="24" height="24"><defs><style>.a{fill:none;stroke:#000;stroke-linecap:round;stroke-linejoin:round;stroke-width:1.5px}</style></defs><title>navigation-car-pin</title><circle class="a" cx="9" cy="21.013" r="2.25"/><path class="a" d="M.75 21.013h6m4.5 0h2.25a1.5 1.5 0 0 0 1.5-1.5v-2.25a3 3 0 0 0-3-3H9L6.829 9.921a3 3 0 0 0-2.683-1.658H.75m0 6H9m2.027-3a8.688 8.688 0 0 1-1.277-3.75 6.75 6.75 0 0 1 13.5 0c0 2.591-3.261 7.015-5.25 9.473"/><circle class="a" cx="16.5" cy="7.513" r="2.25"/></svg>