<svg xmlns="http://www.w3.org/2000/svg" viewBox="0 0 24 24" width="24" height="24"><defs><style>.a{fill:none;stroke:#000;stroke-linecap:round;stroke-linejoin:round;stroke-width:1.5px}</style></defs><title>navigation-smartphone-hand</title><path class="a" d="M8 15.013l1.673-1.255a1.569 1.569 0 0 1 2.247.385 1.569 1.569 0 0 1 0 1.74l-1.645 2.467A4.5 4.5 0 0 1 8.2 20.032l-2.452.981v2.25m3.002-13.5c-5.108 2.189-7.5 2.058-7.5 13.5"/><path class="a" d="M8.75 14.45V3.763a3 3 0 0 1 3-3h7.5a3 3 0 0 1 3 3v16.5a3 3 0 0 1-3 3h-7.5a3 3 0 0 1-3-3v-.5m1.214-1H22.25m-6-12v3.75"/><circle class="a" cx="16.25" cy="5.263" r="1.5"/><circle class="a" cx="16.25" cy="12.013" r="1.5"/></svg>