<svg xmlns="http://www.w3.org/2000/svg" viewBox="0 0 24 24" width="24" height="24"><defs><style>.a{fill:none;stroke:#000;stroke-linecap:round;stroke-linejoin:round;stroke-width:1.5px}</style></defs><title>navigation-car-pin-1</title><circle class="a" cx="9" cy="20.939" r="2.25"/><path class="a" d="M.75 20.939h6m4.5 0h2.25a1.5 1.5 0 0 0 1.5-1.5v-2.25a3 3 0 0 0-3-3H9L6.829 9.848a3 3 0 0 0-2.683-1.659H.75m0 6H9m9.75-9.301a.375.375 0 0 1 .375.375m-.75 0a.375.375 0 0 1 .375-.375m0 .75a.375.375 0 0 1-.375-.375m.75 0a.375.375 0 0 1-.375.375"/><path class="a" d="M18.75.763a4.5 4.5 0 0 1 4.5 4.5c0 1.921-2.688 5.577-3.909 7.138a.75.75 0 0 1-1.182 0c-1.221-1.562-3.909-5.217-3.909-7.138a4.5 4.5 0 0 1 4.5-4.5z"/></svg>