<svg xmlns="http://www.w3.org/2000/svg" viewBox="0 0 24 24" width="24" height="24"><defs><style>.a{fill:none;stroke:#000;stroke-linecap:round;stroke-linejoin:round;stroke-width:1.5px}</style></defs><title>navigation-monitor</title><rect class="a" x=".75" y="1.513" width="22.5" height="16.5" rx="1.5" ry="1.5"/><path class="a" d="M15.75 22.513h-7.5l.75-4.5h6l.75 4.5zm-9.75 0h12m-9.75-10.5h1.5m4.5 0h1.5m-9 2.25v1.5m10.5-1.5v1.5m1.25-4.878l-1.25-1.872-1.158-3.474a1.5 1.5 0 0 0-1.423-1.026H9.331a1.5 1.5 0 0 0-1.423 1.026L6.75 9.013 5.5 10.885a1.5 1.5 0 0 0-.252.832v1.046a1.5 1.5 0 0 0 1.5 1.5h10.5a1.5 1.5 0 0 0 1.5-1.5v-1.046a1.5 1.5 0 0 0-.248-.832zM6.75 9.013h10.5"/></svg>