<svg xmlns="http://www.w3.org/2000/svg" viewBox="0 0 24 24" width="24" height="24"><defs><style>.a{fill:none;stroke:#000;stroke-linecap:round;stroke-linejoin:round;stroke-width:1.5px}</style></defs><title>navigation-smartphone-message</title><path class="a" d="M9.75 15.763v5.25a2.25 2.25 0 0 1-2.25 2.25H3a2.25 2.25 0 0 1-2.25-2.25v-12A2.25 2.25 0 0 1 3 6.763h2.25m-4.5 13.5h9"/><path class="a" d="M21.75 3.013a1.5 1.5 0 0 1 1.5 1.5v9.75a1.5 1.5 0 0 1-1.5 1.5h-4.5l-4.5 3.75v-3.75h-6a1.5 1.5 0 0 1-1.5-1.5v-9.75a1.5 1.5 0 0 1 1.5-1.5m7.5 1.875a.375.375 0 0 1 .375.375m-.75 0a.375.375 0 0 1 .375-.375m0 .75a.375.375 0 0 1-.375-.375m.75 0a.375.375 0 0 1-.375.375"/><path class="a" d="M14.25.763a4.5 4.5 0 0 1 4.5 4.5c0 1.921-2.688 5.577-3.909 7.138a.75.75 0 0 1-1.182 0C12.438 10.839 9.75 7.184 9.75 5.263a4.5 4.5 0 0 1 4.5-4.5z"/></svg>