<svg xmlns="http://www.w3.org/2000/svg" viewBox="0 0 24 24" width="24" height="24"><path fill="none" stroke="#000" stroke-linejoin="round" stroke-miterlimit="10" d="M17.5 12l-4 1 .5-4.5h-4l.5 4.5-4-1v4.5l4-1-.5 8h4l-.5-8 4 1zM13 7a1 1 0 10-2 0v1.5h2V7z"/><g fill="none" stroke="#000" stroke-linecap="round" stroke-linejoin="round"><path d="M12.973 6.955c.335-.03.665-.075.991-.135"/><path stroke-dasharray="1.9249,1.9249" d="M15.817 6.308a11.027 11.027 0 005.22-4.093"/><path d="M21.55 1.391c.163-.289.313-.586.45-.891"/></g><g fill="none" stroke="#000" stroke-linecap="round" stroke-linejoin="round"><path d="M1.945.5c.137.305.287.602.449.891"/><path stroke-dasharray="1.9249,1.9249" d="M3.482 2.979a10.983 10.983 0 005.557 3.625"/><path d="M9.981 6.82c.325.06.656.104.991.135"/></g><path fill="none" d="M0 0h24v24H0z"/></svg>