<svg xmlns="http://www.w3.org/2000/svg" viewBox="0 0 24 24" width="24" height="24"><g fill="none" stroke="#000" stroke-linejoin="round" stroke-miterlimit="10"><path d="M18.743 2.515a1.94 1.94 0 112.742 2.743c-.506.505-13.265 12.043-19.801 17.764a.5.5 0 01-.705-.705C6.701 15.781 18.237 3.021 18.743 2.515z"/><path stroke-linecap="round" d="M20.071 3.929L17.95 6.051M1.462 5.743c.5-3.5 4.031-6.407 7.281-3.376 5.021 4.684 6.945.865 8.891 1.33m2.057.613s2.052.934 2.052 3.934-4 6-2 10"/></g><path fill="none" d="M0 0h24v24H0z"/></svg>