<svg xmlns="http://www.w3.org/2000/svg" viewBox="0 0 24 24" width="24" height="24"><defs><style>.a{fill:none;stroke:#000;stroke-linecap:round;stroke-linejoin:round;stroke-width:1.5px}</style></defs><title>network-lock</title><rect class="a" x="14.25" y="15.75" width="9" height="7.5" rx="1.5" ry="1.5"/><path class="a" d="M18.75 11.25a3 3 0 0 0-3 3v1.5h6v-1.5a3 3 0 0 0-3-3zm0 7.905a.375.375 0 1 1-.375.375.375.375 0 0 1 .375-.375m-7.514 4.07a11.251 11.251 0 1 1 11.913-12.739"/><path class="a" d="M9.289 22.921C7.768 20.689 6.75 16.633 6.75 12S7.768 3.312 9.289 1.079M.774 11.25H13.5m-10.501-6H21m-18.952 12h9.202m3.461-16.171a17.046 17.046 0 0 1 2.311 7.192"/></svg>