<svg xmlns="http://www.w3.org/2000/svg" viewBox="0 0 24 24" width="24" height="24"><defs><style>.a{fill:none;stroke:#000;stroke-linecap:round;stroke-linejoin:round;stroke-width:1.5px}</style></defs><title>network-navigation</title><path class="a" d="M13.588 23.141A11.565 11.565 0 0 1 12 23.25a11.257 11.257 0 1 1 11.137-9.658"/><path class="a" d="M9.289 22.921C7.767 20.689 6.749 16.633 6.749 12s1.018-8.688 2.54-10.921M.774 11.25h10.475m5.25 0h6.75m-20.25-6H21m-18.953 12h8.452M14.71 1.079c1.348 1.978 2.3 5.386 2.5 9.359q.021.408.031.813m-3.985 2.741l4.108 8.973a.537.537 0 0 0 .987-.1l1.2-3.315 3.315-1.2a.537.537 0 0 0 .1-.987l-8.973-4.108a.563.563 0 0 0-.737.737z"/></svg>