<svg xmlns="http://www.w3.org/2000/svg" viewBox="0 0 24 24" width="24" height="24"><defs><style>.a{fill:none;stroke:#000;stroke-linecap:round;stroke-linejoin:round;stroke-width:1.5px}</style></defs><title>network-star</title><path class="a" d="M17.947 11.68l1.541 4.07h3a.735.735 0 0 1 .519 1.283l-2.6 1.816 1.443 3.313a.786.786 0 0 1-1.12.982l-3.49-1.961-3.487 1.961a.786.786 0 0 1-1.119-.982l1.443-3.313-2.6-1.816a.734.734 0 0 1 .515-1.283h3l1.545-4.07a.8.8 0 0 1 1.41 0zM9.76 23.027A11.251 11.251 0 1 1 23.25 12"/><path class="a" d="M9.289 22.922C7.768 20.689 6.75 16.633 6.75 12S7.768 3.312 9.289 1.079M.775 11.25H12.75m-9.751-6H21m-18.952 12h5.166m7.497-16.171a16.982 16.982 0 0 1 2.3 7.126"/></svg>