<svg xmlns="http://www.w3.org/2000/svg" viewBox="0 0 24 24" width="24" height="24"><defs><style>.a{fill:none;stroke:#000;stroke-linecap:round;stroke-linejoin:round;stroke-width:1.5px}</style></defs><title>network-browser</title><circle class="a" cx="16.5" cy="16.5" r="6.75"/><path class="a" d="M10.134 18.75h12.732m-12.732-4.5h12.732m-7.822-4.342a21.863 21.863 0 0 0 .51 13.276m2.402-13.276a21.734 21.734 0 0 1 .794 5.842 21.7 21.7 0 0 1-1.3 7.434"/><path class="a" d="M21.75 7.5V2.366A1.62 1.62 0 0 0 20.135.75H2.357A1.612 1.612 0 0 0 .75 2.357v15.528A1.62 1.62 0 0 0 2.365 19.5H6.75m-6-14.25h21m-15-4.5v4.5m4.5-4.5v4.5"/></svg>