<svg xmlns="http://www.w3.org/2000/svg" viewBox="0 0 24 24" width="24" height="24"><defs><style>.a{fill:none;stroke:#000;stroke-linecap:round;stroke-linejoin:round;stroke-width:1.5px}</style></defs><title>network-user</title><path class="a" d="M11.25 22.5a10.5 10.5 0 0 1 0-21m0 0S6 4.5 6 12s5.25 10.5 5.25 10.5m0-15H1.761m9.489 9H1.761"/><circle class="a" cx="18.75" cy="4.5" r="3"/><path class="a" d="M21.36 9.846L18.75 13.5l-2.61-3.654a4.486 4.486 0 0 0-1.89 3.654v3a1.5 1.5 0 0 0 1.5 1.5h.75v3a1.5 1.5 0 0 0 1.5 1.5h1.5A1.5 1.5 0 0 0 21 21v-3h.75a1.5 1.5 0 0 0 1.5-1.5v-3a4.486 4.486 0 0 0-1.89-3.654z"/></svg>