<svg xmlns="http://www.w3.org/2000/svg" viewBox="0 0 24 24" width="24" height="24"><defs><style>.a{fill:none;stroke:#000;stroke-linecap:round;stroke-linejoin:round;stroke-width:1.5px}</style></defs><title>network-user</title><path class="a" d="M9.735 23.023a11.251 11.251 0 1 1 13.418-12.511M9.289 22.922C7.768 20.689 6.75 16.634 6.75 12S7.768 3.312 9.289 1.079M.775 11.251H12.75m-9.751-6H21m-18.952 12H10.5m4.211-16.172a16.184 16.184 0 0 1 2.2 6.42"/><circle class="a" cx="18" cy="13.126" r="2.625"/><path class="a" d="M18 16.5a5.25 5.25 0 0 0-5.25 5.25v1.5h10.5v-1.5A5.249 5.249 0 0 0 18 16.5z"/></svg>