<svg xmlns="http://www.w3.org/2000/svg" viewBox="0 0 24 24" width="24" height="24"><defs><style>.a{fill:none;stroke:#000;stroke-linecap:round;stroke-linejoin:round;stroke-width:1.5px}</style></defs><title>network-warning</title><path class="a" d="M8.236 22.605A11.251 11.251 0 1 1 23.25 12M9.289 1.079C7.768 3.312 6.75 7.367 6.75 12a24.573 24.573 0 0 0 1.515 8.961M.775 11.25H12.75m-9.751-6H21m-18.952 12H9.75m4.961-16.171a16.978 16.978 0 0 1 2.3 7.137m.239 12.034a.375.375 0 1 1-.375.375.375.375 0 0 1 .375-.375m0-2.25v-3"/><path class="a" d="M23.063 20.683a1.774 1.774 0 0 1-1.587 2.567h-8.452a1.774 1.774 0 0 1-1.587-2.567l4.226-8.452a1.774 1.774 0 0 1 3.174 0z"/></svg>