<svg xmlns="http://www.w3.org/2000/svg" viewBox="0 0 24 24" width="24" height="24"><defs><style>.a{fill:none;stroke:#000;stroke-linecap:round;stroke-linejoin:round;stroke-width:1.5px}</style></defs><title>network-question</title><circle class="a" cx="17.25" cy="17.25" r="6"/><path class="a" d="M15.375 16.125A1.875 1.875 0 1 1 17.25 18m0 2.25a.375.375 0 1 1-.375.375.375.375 0 0 1 .375-.375m-6.765 2.899a11.251 11.251 0 1 1 12.669-12.628"/><path class="a" d="M9.289 22.921C7.768 20.689 6.75 16.633 6.75 12S7.768 3.312 9.289 1.079M.775 11.25H10.5m-7.501-6H21m-18.952 12h5.166m7.497-16.171a17 17 0 0 1 2.307 7.161"/></svg>