<svg xmlns="http://www.w3.org/2000/svg" viewBox="0 0 24 24" width="24" height="24"><defs><style>.a{fill:none;stroke:#000;stroke-linecap:round;stroke-linejoin:round;stroke-width:1.5px}</style></defs><title>network-cash</title><path class="a" d="M18.75 14.25h-2.033a1.342 1.342 0 0 0-.5 2.588l2.064.825a1.342 1.342 0 0 1-.5 2.587H15.75m1.5-6v-.75m0 7.5v-.75"/><circle class="a" cx="17.25" cy="17.25" r="6"/><path class="a" d="M11.232 23.224a11.25 11.25 0 1 1 11.913-12.769M9.289 22.921C7.768 20.689 6.75 16.633 6.75 12S7.768 3.312 9.289 1.079M.775 11.25h9.523m-7.299-6H21m-18.952 12H8.25m6.461-16.171a16.961 16.961 0 0 1 2.3 7.113"/></svg>