<svg xmlns="http://www.w3.org/2000/svg" viewBox="0 0 24 24" width="24" height="24"><defs><style>.a{fill:none;stroke:#000;stroke-linecap:round;stroke-linejoin:round;stroke-width:1.5px}</style></defs><title>network-www</title><path class="a" d="M3 5.25a11.252 11.252 0 0 1 18 0m-13.2 0c.958-2.732 2.482-4.5 4.2-4.5s3.243 1.768 4.2 4.5m7.05 13.5H.75m0-13.5h22.5M21 18.75a11.252 11.252 0 0 1-18 0"/><path class="a" d="M16.2 18.75c-.957 2.733-2.482 4.5-4.2 4.5s-3.242-1.767-4.2-4.5M2.25 8.25v2.859a9.014 9.014 0 0 0 .175 1.765L3 15.75l1.5-4.5 1.5 4.5.575-2.876a8.938 8.938 0 0 0 .175-1.765V8.25m3 0v2.859a9.014 9.014 0 0 0 .175 1.765l.575 2.876 1.5-4.5 1.5 4.5.575-2.876a8.938 8.938 0 0 0 .175-1.765V8.25m3 0v2.859a9.014 9.014 0 0 0 .175 1.765L18 15.75l1.5-4.5 1.5 4.5.575-2.876a8.938 8.938 0 0 0 .175-1.765V8.25"/></svg>