<svg xmlns="http://www.w3.org/2000/svg" viewBox="0 0 24 24" width="24" height="24"><defs><style>.a{fill:none;stroke:#000;stroke-linecap:round;stroke-linejoin:round;stroke-width:1.5px}</style></defs><title>network-sync</title><path class="a" d="M15 18.75h-3.75v3.75m11.417-3.017a5.572 5.572 0 0 1-10.74-.733m7.573-3h3.75V12m-11.417 3.017a5.572 5.572 0 0 1 10.74.733m-14.7 4.131A26.129 26.129 0 0 1 6.75 12c0-4.633 1.018-8.688 2.539-10.921M.775 11.25H10.5m-7.501-6H21m-18.952 12H8.25m6.461-16.171a16.184 16.184 0 0 1 2.2 6.416M7.96 22.5A11.252 11.252 0 1 1 22.608 8.245"/></svg>