<svg xmlns="http://www.w3.org/2000/svg" viewBox="0 0 24 24" width="24" height="24"><defs><style>.a{fill:none;stroke:#000;stroke-linecap:round;stroke-linejoin:round;stroke-width:1.5px}</style></defs><title>network-users</title><circle class="a" cx="4.975" cy="16.875" r="2.625"/><path class="a" d="M9.2 23.25a4.474 4.474 0 0 0-8.449 0z"/><circle class="a" cx="19.026" cy="16.875" r="2.625"/><path class="a" d="M23.25 23.25a4.474 4.474 0 0 0-8.449 0z"/><circle class="a" cx="12" cy="7.5" r="6.75"/><path class="a" d="M5.634 9.75h12.732M5.634 5.25h12.732M10.544.908a21.863 21.863 0 0 0 .51 13.276M13.456.908a21.734 21.734 0 0 1 .794 5.842 21.7 21.7 0 0 1-1.3 7.434"/></svg>