<svg xmlns="http://www.w3.org/2000/svg" viewBox="0 0 24 24" width="24" height="24"><defs><style>.a{fill:none;stroke:#000;stroke-linecap:round;stroke-linejoin:round;stroke-width:1.5px}</style></defs><title>network-arrow-sync</title><path class="a" d="M12 6v2.886a1.5 1.5 0 0 1-.668 1.249l-.48.32a1.5 1.5 0 0 0-.51 1.919l.237.474a1.5 1.5 0 0 0 2.013.67l.829-.414a1.5 1.5 0 0 0 .829-1.342v-.242a1.5 1.5 0 0 1 1.026-1.42l2.024-.922"/><circle class="a" cx="12" cy="12" r="6"/><path class="a" d="M16.068 1.509A11.251 11.251 0 0 0 4.349 20.248m.002-3.599v3.601H.75m7.182 2.242A11.251 11.251 0 0 0 19.651 3.753"/><path class="a" d="M19.649 7.352V3.75h3.601"/></svg>