<svg xmlns="http://www.w3.org/2000/svg" viewBox="0 0 24 24" width="24" height="24"><defs><style>.a{fill:none;stroke:#000;stroke-linecap:round;stroke-linejoin:round;stroke-width:1.5px}</style></defs><title>network-live</title><path class="a" d="M3 5.25a11.252 11.252 0 0 1 18 0m-13.2 0c.958-2.732 2.482-4.5 4.2-4.5s3.243 1.768 4.2 4.5m7.05 13.5H.75m0-13.5h22.5M21 18.75a11.252 11.252 0 0 1-18 0"/><path class="a" d="M16.2 18.75c-.957 2.733-2.482 4.5-4.2 4.5s-3.242-1.767-4.2-4.5m1.95-3v-7.5m3 0v2.55a8.932 8.932 0 0 0 1.5 4.954 8.932 8.932 0 0 0 1.5-4.954V8.25m-12 0v6a1.5 1.5 0 0 0 1.5 1.5h1.5m15 0h-1.5a1.5 1.5 0 0 1-1.5-1.5v-4.5a1.5 1.5 0 0 1 1.5-1.5h1.5m-3 4.5h3"/></svg>