<svg xmlns="http://www.w3.org/2000/svg" viewBox="0 0 24 24" width="24" height="24"><defs><style>.a{fill:none;stroke:#000;stroke-linecap:round;stroke-linejoin:round;stroke-width:1.5px}</style></defs><title>newspaper-give</title><path class="a" d="M.75 15.75h3.879a3.023 3.023 0 0 1 2.121.879L10.125 20l2.625-2.625a1.5 1.5 0 0 1 2.121 2.125l-2.625 2.625a3 3 0 0 1-4.242 0L5.25 19.5v3.75M.75 12.675a3.75 3.75 0 1 0 0-7.35m15 8.925V2.641S14.113.823 8.6.75a.336.336 0 0 0-.243.1.349.349 0 0 0-.1.246v10.917a.344.344 0 0 0 .336.346c5.526.071 7.164 1.891 7.164 1.891"/><path class="a" d="M15.75 14.25V2.641S17.387.823 22.905.75a.336.336 0 0 1 .243.1.349.349 0 0 1 .1.246v10.917a.344.344 0 0 1-.336.346c-5.526.071-7.164 1.891-7.164 1.891"/></svg>