<svg xmlns="http://www.w3.org/2000/svg" viewBox="0 0 24 24" width="24" height="24"><path d="M18.988 19.633a3.998 3.998 0 00-.236-6.439c.916-2.109-.801-4.457-3.123-4.169A5.5 5.5 0 0010.5 5.5a5.5 5.5 0 00-5.477 5.024 5 5 0 00-2.072 9.28M2 23.5l5-5m0 5l5-5m0 5l5-5m5.266-6.515a5.847 5.847 0 001.234-.427c-4.433-2.108-4.414-8.393 0-10.492-3.406-1.615-7.354.375-8.157 3.977" fill="none" stroke="#000" stroke-linecap="round" stroke-linejoin="round" stroke-miterlimit="10"/><path fill="none" d="M0 0h24v24H0z"/></svg>