<svg id="Regular" xmlns="http://www.w3.org/2000/svg" viewBox="0 0 24 24" width="24" height="24"><defs><style>.cls-1{fill:none;stroke:#000;stroke-linecap:round;stroke-linejoin:round;stroke-width:1.5px}</style></defs><title>night-stand-retro</title><path class="cls-1" d="M21.75 6a1.5 1.5 0 0 0 0-3H2.25a1.5 1.5 0 0 0 0 3zm-1.5 0a22.168 22.168 0 0 1 1.5 6.75c0 3-1.5 5.25-1.5 6.75A5.738 5.738 0 0 0 16.5 18c-2.25 0-2.25 1.5-4.5 1.5S9.75 18 7.5 18a5.738 5.738 0 0 0-3.75 1.5c0-1.5-1.5-3.75-1.5-6.75A22.168 22.168 0 0 1 3.75 6"/><path class="cls-1" d="M6.75 9h10.5v6H6.75zm4.5 3h1.5m-9 7.5L2.25 21m18-1.5l1.5 1.5"/></svg>