<svg xmlns="http://www.w3.org/2000/svg" viewBox="0 0 24 24" width="24" height="24"><path fill="none" stroke="#000" stroke-linecap="round" stroke-linejoin="round" stroke-miterlimit="10" d="M6.5 12c0-5.094 2.806-9.474 6.827-11.42C6.474-.221.5 5.146.5 12c0 6.822 5.931 12.213 12.827 11.423C9.305 21.476 6.5 17.096 6.5 12z"/><path fill="none" stroke="#000" stroke-linejoin="round" stroke-miterlimit="10" d="M18.5 14.5c-.008 2.512 1.215 3.942 4 4-2.584-.01-3.869 1.375-4 4-.021-2.474-1.131-4.002-4-4 2.568-.035 3.989-1.275 4-4zm-5-6.5c-.006 1.57.76 2.463 2.5 2.5-1.615-.006-2.418.86-2.5 2.5-.014-1.547-.707-2.502-2.5-2.5 1.604-.022 2.494-.797 2.5-2.5zm7-6.5c-.006 1.885.912 2.957 3 3-1.938-.007-2.902 1.032-3 3-.016-1.856-.85-3.002-3-3 1.925-.025 2.992-.956 3-3z"/><path fill="none" d="M0 0h24v24H0z"/></svg>