<svg xmlns="http://www.w3.org/2000/svg" viewBox="0 0 24 24" width="24" height="24"><g fill="none" stroke="#000" stroke-linecap="round" stroke-linejoin="round" stroke-miterlimit="10"><circle cx="12.99" cy="23" r=".5"/><path d="M13.345 22.647l4.145-4.145"/><circle cx="8.99" cy="22" r=".5"/><path d="M9.345 21.647l3.145-3.145"/><circle cx="2.99" cy="23" r=".5"/><path d="M3.345 22.647l4.145-4.145m11.489 1.131A3.996 3.996 0 0020.49 16.5a3.998 3.998 0 00-1.748-3.306c.916-2.109-.801-4.457-3.123-4.169A5.5 5.5 0 0010.49 5.5a5.5 5.5 0 00-5.477 5.024 5 5 0 00-2.072 9.28m19.315-7.819a5.847 5.847 0 001.234-.427c-4.433-2.108-4.414-8.395 0-10.491-3.396-1.614-7.352.368-8.157 3.975"/></g><path fill="none" d="M0 0h24v24H0z"/></svg>