<svg xmlns="http://www.w3.org/2000/svg" viewBox="0 0 24 24" width="24" height="24"><path d="M17.5 19.5a.5.5 0 100 1 .5.5 0 000-1zm0 3a.5.5 0 100 1 .5.5 0 000-1zm-2-1.5a.5.5 0 100 1 .5.5 0 000-1zm0-3a.5.5 0 100 1 .5.5 0 000-1zm-8 3a.5.5 0 100 1 .5.5 0 000-1zm-2 1.5a.5.5 0 100 1 .5.5 0 000-1zm2-4.5a.5.5 0 100 1 .5.5 0 000-1zm-2 1.5a.5.5 0 100 1 .5.5 0 000-1z"/><path fill="none" stroke="#000" stroke-linecap="round" stroke-linejoin="round" stroke-miterlimit="10" d="M10.5 23.5l2.5-2.485h-2.5l2.5-2.507"/><path fill="none" stroke="#000" stroke-linecap="round" stroke-linejoin="round" stroke-miterlimit="10" d="M18.988 19.633a3.998 3.998 0 00-.236-6.439c.916-2.109-.801-4.457-3.123-4.169A5.5 5.5 0 0010.5 5.5a5.5 5.5 0 00-5.477 5.024 5 5 0 00-2.071 9.28m19.314-7.819a5.847 5.847 0 001.234-.427c-4.433-2.108-4.414-8.395 0-10.491-3.396-1.614-7.352.368-8.157 3.975"/><path fill="none" d="M0 0h24v24H0z"/></svg>