<svg xmlns="http://www.w3.org/2000/svg" viewBox="0 0 24 24" width="24" height="24"><g fill="none" stroke="#000" stroke-linejoin="round" stroke-miterlimit="10"><path d="M16.091 6.09L19 5l-2.909-1.092L15 1l-1.091 2.908L11 5l2.909 1.09L15 9zm4.454 5.455L22 11l-1.455-.546L20 9l-.545 1.454L18 11l1.455.545L20 13z"/><path stroke-linecap="round" d="M17 15.5c-5.72 0-9.798-5.537-8.126-10.994C4.238 4.574.5 8.348.5 13a8.501 8.501 0 0016.626 2.493c-.042.001-.083.007-.126.007z"/></g><path fill="none" d="M0 0h24v24H0z"/></svg>