<svg id="Regular" xmlns="http://www.w3.org/2000/svg" viewBox="0 0 24 24" width="24" height="24"><defs><style>.cls-1{fill:none;stroke:#000;stroke-linecap:round;stroke-linejoin:round;stroke-width:1.5px}</style></defs><title>non-gmo-dna</title><path class="cls-1" d="M.75 23.259l22.5-22.5m-13.789 0l2.652 2.652a5.972 5.972 0 0 1 1.528 2.6M9.992 1.29L1.506 9.775m10.607-6.364l-8.485 8.485m6.894-2.651l-4.2 4.205a5.964 5.964 0 0 1-2.694-1.55L.976 9.245m13.789 13.788l-2.652-2.651a5.975 5.975 0 0 1-1.652-3.123m3.773 5.244l8.486-8.485m-10.607 6.364l8.485-8.486M13.7 14.548l4.2-4.2a5.965 5.965 0 0 1 2.7 1.552l2.652 2.652"/></svg>