<svg id="Regular" xmlns="http://www.w3.org/2000/svg" viewBox="0 0 24 24" width="24" height="24"><defs><style>.cls-1{fill:none;stroke:#000;stroke-linecap:round;stroke-linejoin:round;stroke-width:1.5px}</style></defs><title>non-gmo-organic-flask</title><path class="cls-1" d="M15.75 9.759v2.25L23.043 21a1.5 1.5 0 0 1-1.293 2.26H2.25A1.5 1.5 0 0 1 .957 21l7.293-8.99V9.759m3.75 6v-9m4.286-1.714A6.971 6.971 0 0 1 12 6.759a6.967 6.967 0 0 1 1.714-4.285A6.975 6.975 0 0 1 18 .759a6.971 6.971 0 0 1-1.714 4.286zm-8.572 0A6.971 6.971 0 0 0 12 6.759a6.967 6.967 0 0 0-1.714-4.285A6.975 6.975 0 0 0 6 .759a6.971 6.971 0 0 0 1.714 4.286zm8.411 12.964a.375.375 0 0 1 .375.375m-.75 0a.375.375 0 0 1 .375-.375m0 .75a.375.375 0 0 1-.375-.375m.75 0a.375.375 0 0 1-.375.375m-7.5-2.25a.375.375 0 0 1 .375.375m-.75 0a.375.375 0 0 1 .375-.375m0 .75a.375.375 0 0 1-.375-.375m.75 0a.375.375 0 0 1-.375.375m3 2.25a.375.375 0 0 1 .375.375m-.75 0a.375.375 0 0 1 .375-.375m0 .75a.375.375 0 0 1-.375-.375m.75 0a.375.375 0 0 1-.375.375"/></svg>