<svg id="Regular" xmlns="http://www.w3.org/2000/svg" viewBox="0 0 24 24" width="24" height="24"><defs><style>.cls-1{fill:none;stroke:#000;stroke-linecap:round;stroke-linejoin:round;stroke-width:1.5px}</style></defs><title>non-gmo-spray</title><path class="cls-1" d="M9.75 10.509l2.25-6h4.5m1.97 5.253l.28.747v11.25a1.5 1.5 0 0 1-1.5 1.5h-6a1.5 1.5 0 0 1-1.5-1.5v-4.5M21.937 6.763a5.977 5.977 0 0 1 1.313 3.746v2.25m-15-6.75h3.187m2.812-1.5v-3M.75 23.259l22.5-22.5"/><path class="cls-1" d="M14.25 14.259v4.5h-4.5m-4.5-15l-3.75-1.5m3.75 6l-3.75 1.5m2.25-3.75h-3"/></svg>