<svg xmlns="http://www.w3.org/2000/svg" viewBox="0 0 24 24" width="24" height="24"><g fill="none" stroke="#000" stroke-linejoin="round" stroke-miterlimit="10"><path d="M1.5 13.5h19a9.133 9.133 0 01-9.062 8h-.875a9.133 9.133 0 01-9.063-8z"/><path d="M7.5 21.5h7v2h-7z"/><path stroke-linecap="round" d="M7.88 6.543c1.422 2.506-1.971 4.462-.263 6.957m2.071-7.258c1.893 2.65-1.79 4.681-.07 7.258M11.5 6c2.324 2.789-1.697 4.832.117 7.5m2 0c-1.814-2.668 2.207-4.711-.117-7.5l-.255-.299m8.671-1.159L3.084 7.062M21.643.505L3.357 5.666"/></g><path fill="none" d="M0 0h24v24H0z"/></svg>