<svg xmlns="http://www.w3.org/2000/svg" viewBox="0 0 24 24" width="24" height="24"><defs><style>.a{fill:none;stroke:#000;stroke-linecap:round;stroke-linejoin:round;stroke-width:1.5px}</style></defs><title>notes-edit</title><path class="a" d="M22.63 14.862L15 22.492l-3.75.75.75-3.75 7.63-7.63a2.116 2.116 0 0 1 2.992 0l.008.009a2.113 2.113 0 0 1 0 2.991zm-14.38 5.38h-6a1.464 1.464 0 0 1-1.5-1.5V3.849a1.557 1.557 0 0 1 1.5-1.607h15a1.557 1.557 0 0 1 1.5 1.607v4.393M5.25.742v4.5m4.5-4.5v4.5m4.5-4.5v4.5"/></svg>