<svg xmlns="http://www.w3.org/2000/svg" viewBox="0 0 24 24" width="24" height="24"><defs><style>.a{fill:none;stroke:#000;stroke-linecap:round;stroke-linejoin:round;stroke-width:1.5px}</style></defs><title>notes-warning</title><path class="a" d="M17.25 20.25a.375.375 0 1 1-.375.375.375.375 0 0 1 .375-.375m0-2.25v-3"/><path class="a" d="M23.063 20.682a1.774 1.774 0 0 1-1.587 2.568h-8.452a1.774 1.774 0 0 1-1.587-2.568l4.226-8.451a1.774 1.774 0 0 1 3.174 0zM8.25 20.25h-6a1.464 1.464 0 0 1-1.5-1.5V3.857a1.556 1.556 0 0 1 1.5-1.607h15a1.556 1.556 0 0 1 1.5 1.607V8.25M5.25.75v4.5m4.5-4.5v4.5m4.5-4.5v4.5"/></svg>