<svg xmlns="http://www.w3.org/2000/svg" viewBox="0 0 24 24" width="24" height="24"><defs><style>.a{fill:none;stroke:#000;stroke-linecap:round;stroke-linejoin:round;stroke-width:1.5px}</style></defs><title>notes-list</title><path class="a" d="M10.629 20.25H2.25a1.5 1.5 0 0 1-1.5-1.5V2.25a1.5 1.5 0 0 1 1.5-1.5h16.5a1.5 1.5 0 0 1 1.5 1.5v8.379a1.5 1.5 0 0 1-.439 1.06l-8.122 8.122a1.5 1.5 0 0 1-1.06.439z"/><path class="a" d="M11.25 20.115V12.75a1.5 1.5 0 0 1 1.5-1.5h7.365"/><path class="a" d="M23.25 10.5v11.25a1.5 1.5 0 0 1-1.5 1.5h-15"/></svg>