<svg xmlns="http://www.w3.org/2000/svg" viewBox="0 0 24 24" width="24" height="24"><defs><style>.a{fill:none;stroke:#000;stroke-linecap:round;stroke-linejoin:round;stroke-width:1.5px}</style></defs><title>notes-give-1</title><path class="a" d="M9.75 12V3.857a1.557 1.557 0 0 1 1.5-1.607h10.5a1.557 1.557 0 0 1 1.5 1.607v8.786a1.557 1.557 0 0 1-1.5 1.607h-6M14.25.75v4.5m4.5-4.5v4.5m-18 9h3a1.5 1.5 0 0 1 1.5 1.5v6a1.5 1.5 0 0 1-1.5 1.5h-3m19.5-1.5a3 3 0 0 0-3-3H13.5a3 3 0 0 0-3-3H5.25v6zm-9.75-3h3"/><path class="a" d="M2.625 19.5a.375.375 0 1 1-.375.375.375.375 0 0 1 .375-.375"/></svg>