<svg xmlns="http://www.w3.org/2000/svg" viewBox="0 0 24 24" width="24" height="24"><defs><style>.a{fill:none;stroke:#000;stroke-linecap:round;stroke-linejoin:round;stroke-width:1.5px}</style></defs><title>notes-sync</title><path class="a" d="M15 18.75h-3.75v3.75m11.417-3.017a5.572 5.572 0 0 1-10.74-.733m7.573-3h3.75V12m-11.417 3.017a5.572 5.572 0 0 1 10.74.733"/><path class="a" d="M8.25 20.25h-6a1.464 1.464 0 0 1-1.5-1.5V3.857a1.556 1.556 0 0 1 1.5-1.607h15a1.556 1.556 0 0 1 1.5 1.607V8.25M5.25.75v4.5m4.5-4.5v4.5m4.5-4.5v4.5"/></svg>