<svg xmlns="http://www.w3.org/2000/svg" viewBox="0 0 24 24" width="24" height="24"><defs><style>.a{fill:none;stroke:#000;stroke-linecap:round;stroke-linejoin:round;stroke-width:1.5px}</style></defs><title>notes-question</title><circle class="a" cx="17.25" cy="17.25" r="6"/><path class="a" d="M15.375 16.125A1.875 1.875 0 1 1 17.25 18m0 2.25a.375.375 0 1 1-.375.375.375.375 0 0 1 .375-.375m-9 0h-6a1.464 1.464 0 0 1-1.5-1.5V3.857a1.556 1.556 0 0 1 1.5-1.607h15a1.556 1.556 0 0 1 1.5 1.607V8.25M5.25.75v4.5m4.5-4.5v4.5m4.5-4.5v4.5"/></svg>