<svg xmlns="http://www.w3.org/2000/svg" viewBox="0 0 24 24" width="24" height="24"><defs><style>.a{fill:none;stroke:#000;stroke-linecap:round;stroke-linejoin:round;stroke-width:1.5px}</style></defs><title>notes-lock</title><rect class="a" x="14.25" y="15.75" width="9" height="7.5" rx="1" ry="1"/><path class="a" d="M18.75 11.25a3 3 0 0 0-3 3v1.5h6v-1.5a3 3 0 0 0-3-3zm0 7.904a.375.375 0 1 1-.375.375.375.375 0 0 1 .375-.375m-9 1.096h-7.5a1.464 1.464 0 0 1-1.5-1.5V3.857a1.556 1.556 0 0 1 1.5-1.607h15a1.556 1.556 0 0 1 1.5 1.607V8.25M5.25.75v4.5m4.5-4.5v4.5m4.5-4.5v4.5"/></svg>