<svg xmlns="http://www.w3.org/2000/svg" viewBox="0 0 24 24" width="24" height="24"><defs><style>.a{fill:none;stroke:#000;stroke-linecap:round;stroke-linejoin:round;stroke-width:1.5px}</style></defs><title>notes-settings</title><circle class="a" cx="17.25" cy="16.5" r="1.5"/><path class="a" d="M18.524 10.7l.442 1.453a.994.994 0 0 0 1.174.681l1.472-.341a1.339 1.339 0 0 1 1.275 2.218l-1.031 1.111a1 1 0 0 0 0 1.362l1.031 1.111a1.339 1.339 0 0 1-1.275 2.218l-1.472-.341a.994.994 0 0 0-1.174.681l-.442 1.447a1.33 1.33 0 0 1-2.548 0l-.442-1.453a.994.994 0 0 0-1.174-.681l-1.472.341a1.339 1.339 0 0 1-1.275-2.218l1.031-1.111a1 1 0 0 0 0-1.362l-1.031-1.111a1.339 1.339 0 0 1 1.275-2.218l1.472.341a.994.994 0 0 0 1.174-.681l.442-1.453a1.33 1.33 0 0 1 2.548.006z"/><path class="a" d="M8.25 20.25h-6a1.464 1.464 0 0 1-1.5-1.5V3.857a1.556 1.556 0 0 1 1.5-1.607h15a1.556 1.556 0 0 1 1.5 1.607V6.75m-13.5-6v4.5m4.5-4.5v4.5m4.5-4.5v4.5"/></svg>