<svg xmlns="http://www.w3.org/2000/svg" viewBox="0 0 24 24" width="24" height="24"><defs><style>.a{fill:none;stroke:#000;stroke-linecap:round;stroke-linejoin:round;stroke-width:1.5px}</style></defs><title>notes-quill</title><path class="a" d="M10.981 23.25l5.833-5.834m6.364-6.364a10.471 10.471 0 0 0-2.24 0l-2 3.18-1.229-2.289c-4.459 2.189-6.2 7.478-4.551 9.13 2.212 2.216 10.97-1.665 10.02-10.021zM8.25 20.25h-6a1.464 1.464 0 0 1-1.5-1.5V3.857a1.556 1.556 0 0 1 1.5-1.607h15a1.556 1.556 0 0 1 1.5 1.607V8.25M5.25.75v4.5m4.5-4.5v4.5m4.5-4.5v4.5"/></svg>