<svg xmlns="http://www.w3.org/2000/svg" viewBox="0 0 24 24" width="24" height="24"><defs><style>.a{fill:none;stroke:#000;stroke-linecap:round;stroke-linejoin:round;stroke-width:1.5px}</style></defs><title>notes-tasks</title><path class="a" d="M15.75 4.5h3.75A1.5 1.5 0 0 1 21 6v15.75a1.5 1.5 0 0 1-1.5 1.5h-15a1.5 1.5 0 0 1-1.5-1.5V6a1.5 1.5 0 0 1 1.5-1.5h3.75a3.75 3.75 0 0 1 7.5 0z"/><path class="a" d="M12 3.75a.375.375 0 1 1-.375.375A.375.375 0 0 1 12 3.75M6.75 10.5H12m3 0h2.25m0 3.75H12m-3 0H6.75m0 3.75H12m3 0h2.25"/></svg>