<svg xmlns="http://www.w3.org/2000/svg" viewBox="0 0 24 24" width="24" height="24"><g fill="none" stroke="#000" stroke-linecap="round" stroke-linejoin="round" stroke-miterlimit="10"><path d="M19.457 4.504L8.295 10.127a10.025 10.025 0 00-2.791 1.966l-3.588 3.588c-1.662 1.662-1.931 4.361-.434 6.173a4.5 4.5 0 006.661.327l3.725-3.725a10.003 10.003 0 001.967-2.79l5.622-11.162z"/><path d="M15.922 11.575l3.182-1.06 4.243-4.243-4.951-.707"/><path d="M12.386 8.04l1.061-3.182L17.689.615l.707 4.95M5.669 11.93l6.364 6.363-2.122 2.122-6.364-6.364zM6.729 22.889l-5.657-5.657"/></g><path fill="none" d="M0 0h24v24H0z"/></svg>