<svg id="Regular" xmlns="http://www.w3.org/2000/svg" viewBox="0 0 24 24" width="24" height="24"><defs><style>.cls-1{fill:none;stroke:#000;stroke-linecap:round;stroke-linejoin:round;stroke-width:1.5px}</style></defs><title>nuclear-energy-message</title><path class="cls-1" d="M12.75.75a10.485 10.485 0 0 0-8.917 16.025L.75 23.25l6.475-3.084A10.5 10.5 0 1 0 12.75.75zm0 10.125a.375.375 0 0 1 .375.375m-.75 0a.375.375 0 0 1 .375-.375m0 .75a.375.375 0 0 1-.375-.375m.75 0a.375.375 0 0 1-.375.375"/><path class="cls-1" d="M11.32 8.628L9.532 5.351A6.72 6.72 0 0 0 6 11.25h3.75a2.987 2.987 0 0 1 1.57-2.622zm2.86 5.244a2.894 2.894 0 0 1-2.86 0l-1.788 3.277a6.508 6.508 0 0 0 6.435 0zm1.787-8.521L14.18 8.628a2.987 2.987 0 0 1 1.57 2.622h3.75a6.719 6.719 0 0 0-3.533-5.899z"/></svg>