<svg id="Regular" xmlns="http://www.w3.org/2000/svg" viewBox="0 0 24 24" width="24" height="24"><defs><style>.cls-1{fill:none;stroke:#000;stroke-linecap:round;stroke-linejoin:round;stroke-width:1.5px}</style></defs><title>nuclear-energy-plant</title><path class="cls-1" d="M14.766 8a39.662 39.662 0 0 1-1.411-6.123.74.74 0 0 0-.74-.627h-6.2a.74.74 0 0 0-.74.627A39.754 39.754 0 0 1 4.266 8a23.1 23.1 0 0 1-2.883 5.579A.749.749 0 0 0 2 14.75h4.518m9.748 1.125a.375.375 0 0 1 .375.375m-.75 0a.374.374 0 0 1 .375-.375m0 .75a.374.374 0 0 1-.375-.375m.75 0a.375.375 0 0 1-.375.375m-1.43-2.997l-1.788-3.277a6.72 6.72 0 0 0-3.532 5.9h3.75a2.985 2.985 0 0 1 1.57-2.623zm2.864 5.244a2.894 2.894 0 0 1-2.86 0l-1.788 3.277a6.508 6.508 0 0 0 6.435 0zm1.783-8.521L17.7 13.628a2.987 2.987 0 0 1 1.57 2.622h3.75a6.721 6.721 0 0 0-3.537-5.899z"/></svg>