<svg id="Regular" xmlns="http://www.w3.org/2000/svg" viewBox="0 0 24 24" width="24" height="24"><defs><style>.cls-1{fill:none;stroke:#000;stroke-linecap:round;stroke-linejoin:round;stroke-width:1.5px}</style></defs><title>nuclear-energy-bin</title><path class="cls-1" d="M16.5 15.625a.375.375 0 0 1 .375.375m-.75 0a.375.375 0 0 1 .375-.375m0 .75a.375.375 0 0 1-.375-.375m.75 0a.375.375 0 0 1-.375.375m-1.43-2.997L13.282 10.1A6.72 6.72 0 0 0 9.75 16h3.75a2.987 2.987 0 0 1 1.57-2.622zm2.86 5.244a2.894 2.894 0 0 1-2.86 0L13.282 21.9a6.51 6.51 0 0 0 6.436 0zm1.788-8.522l-1.788 3.278A2.987 2.987 0 0 1 19.5 16h3.75a6.72 6.72 0 0 0-3.532-5.9zM6.465 16.75a3 3 0 0 1-2.985-2.7L2.25 1h12l-.525 6M.75 1h15M6 1l.75 12.75M10.5 1l-.43 7.499"/></svg>