<svg xmlns="http://www.w3.org/2000/svg" viewBox="0 0 24 24" width="24" height="24"><g fill="none" stroke="#000" stroke-linejoin="round" stroke-miterlimit="10"><path stroke-linecap="round" d="M14.694 16.355c4.5 2 8.807 3.145 8.807 6.645v.5h-23V23c0-3.5 4.306-4.645 8.806-6.645M8 7.5h8l.674-4.717A2.002 2.002 0 0014.695.5H9.306a2.001 2.001 0 00-1.98 2.283L8 7.5zm4-5v3M10.5 4h3"/><path d="M7.433 3.5C1.933 5.5 4 13.5 2 15c0 0 4.227.945 5.727-.555m8.842-10.92C22.069 5.525 20 13.5 22 15c0 0-4.217.956-5.717-.544"/><path stroke-linecap="round" d="M9 7.5c0 1-1.5 3.5-3.5 3.5m11.5-.5c0 6-3.5 6.5-5 7-1.5-.5-5-1-5-7m8-3c0 1 1.5 3.5 3.5 3.5M7.951 16.955L12 21.5m0 0l4.05-4.545M12 21.5v2"/><path d="M6.52 17.553L8 21.5l3.549-.508m5.932-3.439L16 21.5l-3.548-.508"/><path stroke-linecap="round" d="M9 11.002c0-.553.448-.5 1-.5s1-.053 1 .5m2 0c0-.553.448-.5 1-.5.553 0 1-.053 1 .5"/></g><path fill="none" d="M0 0h24v24H0z"/></svg>