<svg xmlns="http://www.w3.org/2000/svg" viewBox="0 0 24 24" width="24" height="24"><defs><style>.a{fill:none;stroke:#000;stroke-linecap:round;stroke-linejoin:round;stroke-width:1.5px}</style></defs><title>office-employee</title><path class="a" d="M17.931 23.25H6.069l-1.542-6.969a1.139 1.139 0 0 1 .166-.885.881.881 0 0 1 .72-.4h13.174a.881.881 0 0 1 .72.4 1.139 1.139 0 0 1 .166.885zm-17.181 0h22.5"/><circle class="a" cx="12" cy="18.75" r="1.5"/><path class="a" d="M8.445 2.781a6.848 6.848 0 0 0 4.93 2.094 6.851 6.851 0 0 0 2.713-.558"/><circle class="a" cx="12" cy="4.875" r="4.125"/><path class="a" d="M17 12.75a6.676 6.676 0 0 0-10 0"/></svg>