<svg xmlns="http://www.w3.org/2000/svg" viewBox="0 0 24 24" width="24" height="24"><defs><style>.a{fill:none;stroke:#000;stroke-linecap:round;stroke-linejoin:round;stroke-width:1.5px}</style></defs><title>office-file-key-1</title><path class="a" d="M5.249 23.248h-3a1.5 1.5 0 0 1-1.5-1.5v-19.5a1.5 1.5 0 0 1 1.5-1.5h10.629a1.5 1.5 0 0 1 1.06.439l5.872 5.872a1.5 1.5 0 0 1 .439 1.06v4.629"/><path class="a" d="M20.249 8.248h-6a1.5 1.5 0 0 1-1.5-1.5v-6m-4.5 22.5v-7.5m3 7.5l-3-3.75 3-3.75m6 7.5h-1.5a1.5 1.5 0 0 1-1.5-1.5v-4.5a1.5 1.5 0 0 1 1.5-1.5h1.5m-3 4.5h3m3-4.5V18a1.5 1.5 0 0 0 3 0v-2.25m-1.5 3.748v3.75"/></svg>