<svg xmlns="http://www.w3.org/2000/svg" viewBox="0 0 24 24" width="24" height="24"><defs><style>.a{fill:none;stroke:#000;stroke-linecap:round;stroke-linejoin:round;stroke-width:1.5px}</style></defs><title>office-outdoors</title><path class="a" d="M7.598 23.25v-3.913m5.869 3.913v-3.913m-7.826 0h9.783M.75 23.25V6.958A1.007 1.007 0 0 1 1.8 6h8.4a1.007 1.007 0 0 1 1.05.958v8.792"/><path class="a" d="M8.25 3.5a.534.534 0 0 0-.562-.5H4.313a.534.534 0 0 0-.563.5V6h4.5zm-2.273-.794L6 .913M3.75 9.75h4.5m-4.5 4.5h4.5m-7.5 9h22.5"/><circle class="a" cx="19.5" cy="12.75" r="3.75"/><path class="a" d="M19.5 23.25V13.5"/></svg>