<svg xmlns="http://www.w3.org/2000/svg" viewBox="0 0 24 24" width="24" height="24"><defs><style>.a{fill:none;stroke:#000;stroke-linecap:round;stroke-linejoin:round;stroke-width:1.5px}</style></defs><title>office-file-sheet-alternate</title><path class="a" d="M8.999 10.499v9m-4.5-4.5h15M22.81 5.56a1.5 1.5 0 0 1 .439 1.061V21A2.25 2.25 0 0 1 21 23.249H3A2.25 2.25 0 0 1 .749 21V3A2.251 2.251 0 0 1 3 .749h14.378a1.5 1.5 0 0 1 1.061.44z"/><path class="a" d="M17.249.749v4.5a1.5 1.5 0 0 0 1.5 1.5h4.5m-3.749 12a.75.75 0 0 1-.75.75H5.249a.75.75 0 0 1-.75-.75V10.5h14.25a.75.75 0 0 1 .75.75zm-6-8.249h-9V8.249a.75.75 0 0 1 .75-.75h8.25"/></svg>