<svg xmlns="http://www.w3.org/2000/svg" viewBox="0 0 24 24" width="24" height="24"><defs><style>.a{fill:none;stroke:#000;stroke-linecap:round;stroke-linejoin:round;stroke-width:1.5px}</style></defs><title>office-file-presentation</title><path class="a" d="M22.81 5.559a1.5 1.5 0 0 1 .439 1.06V21A2.25 2.25 0 0 1 21 23.248H3A2.25 2.25 0 0 1 .749 21V3A2.25 2.25 0 0 1 3 .748h14.378a1.5 1.5 0 0 1 1.061.439z"/><path class="a" d="M17.249.748v4.5a1.5 1.5 0 0 0 1.5 1.5h4.5m-6 3v4.5a.75.75 0 0 1-.75.75h-9a.75.75 0 0 1-.75-.75v-6A.75.75 0 0 1 7.5 7.5H15m-3.001 7.498v4.5m-3 0l3-3m3 3l-3-3"/></svg>