<svg xmlns="http://www.w3.org/2000/svg" viewBox="0 0 24 24" width="24" height="24"><defs><style>.a{fill:none;stroke:#000;stroke-linecap:round;stroke-linejoin:round;stroke-width:1.5px}</style></defs><title>office-file-xls-1</title><path class="a" d="M5.249 23.248h-3a1.5 1.5 0 0 1-1.5-1.5v-19.5a1.5 1.5 0 0 1 1.5-1.5h10.629a1.5 1.5 0 0 1 1.06.439l5.872 5.872a1.5 1.5 0 0 1 .439 1.06v4.629"/><path class="a" d="M20.249 8.248h-6a1.5 1.5 0 0 1-1.5-1.5v-6m-4.5 15l3 7.5m0-7.5l-3 7.5m6-7.5v6a1.5 1.5 0 0 0 1.5 1.5h1.5m6-7.5h-1.5a1.5 1.5 0 0 0-1.5 1.5c0 2.25 3 2.25 3 4.5a1.5 1.5 0 0 1-1.5 1.5h-1.5"/></svg>