<svg xmlns="http://www.w3.org/2000/svg" viewBox="0 0 24 24" width="24" height="24"><defs><style>.a{fill:none;stroke:#000;stroke-linecap:round;stroke-linejoin:round;stroke-width:1.5px}</style></defs><title>office-shredder</title><path class="a" d="M21 11.248H3v10.5a1.5 1.5 0 0 0 1.5 1.5h15a1.5 1.5 0 0 0 1.5-1.5zM7.5 6H5.631a1.5 1.5 0 0 0-1.442 1.086L3 11.248h18l-1.189-4.162A1.5 1.5 0 0 0 18.369 6H16.5"/><path class="a" d="M16.5 8.248h-9V1.5a.75.75 0 0 1 .75-.75h7.5a.75.75 0 0 1 .75.75zm-4.5 3v8.25m-3-8.25v1.408a8.483 8.483 0 0 1-1.413 5.417M15 11.248v1.408a8.483 8.483 0 0 0 1.413 5.417"/></svg>