<svg xmlns="http://www.w3.org/2000/svg" viewBox="0 0 24 24" width="24" height="24"><defs><style>.a{fill:none;stroke:#000;stroke-linecap:round;stroke-linejoin:round;stroke-width:1.5px}</style></defs><title>office-folder-sealed</title><rect class="a" x="3.75" y=".748" width="16.5" height="22.5" rx="1" ry="1"/><path class="a" d="M20.067 22.825l-2.575-2.665a2.238 2.238 0 0 0-1.609-.662H8.118a2.239 2.239 0 0 0-1.61.662l-2.575 2.665"/><circle class="a" cx="12" cy="5.248" r="1.5"/><circle class="a" cx="12" cy="14.248" r="1.5"/><path class="a" d="M12 6.748v6M15.75 7.5h1.169a1.5 1.5 0 0 0 1.423-1.025L20.1 1.222M3.905 1.213l1.753 5.26A1.5 1.5 0 0 0 7.081 7.5H8.25"/></svg>