<svg xmlns="http://www.w3.org/2000/svg" viewBox="0 0 24 24" width="24" height="24"><defs><style>.a{fill:none;stroke:#000;stroke-linecap:round;stroke-linejoin:round;stroke-width:1.5px}</style></defs><title>office-stationery</title><rect class="a" x="13.281" y=".76" width="3.3" height="4.95" rx="1" ry="1" transform="rotate(9.095 14.934 3.234)"/><path class="a" d="M16.69 2.681l1.824 9.483-.814 5.084"/><rect class="a" x="19.798" y="1.803" width="3.3" height="4.95" rx="1" ry="1" transform="rotate(-170.905 21.448 4.278)"/><path class="a" d="M19.949 3.203l-4.693 8.439-1.006 5.606m-9-13.5h3.5a1.007 1.007 0 0 1 1 1.008v12.492h-4.5zm2.25 0v-3"/><path class="a" d="M23.25 18.248a1.014 1.014 0 0 0-1.023-1H1.773a1.014 1.014 0 0 0-1.023 1v4a1.014 1.014 0 0 0 1.023 1h20.454a1.014 1.014 0 0 0 1.023-1zM6 .748h2.795m-3.545 3a3 3 0 0 0-3 3V10.5"/></svg>