<svg xmlns="http://www.w3.org/2000/svg" viewBox="0 0 24 24" width="24" height="24"><defs><style>.a{fill:none;stroke:#000;stroke-linecap:round;stroke-linejoin:round;stroke-width:1.5px}</style></defs><title>office-table-cabinets</title><path class="a" d="M13.5 13.5h9.75v.945"/><path class="a" d="M16.5 22.275a.973.973 0 0 0 .964.975h4.822a.973.973 0 0 0 .964-.975V13.5H16.5zm-6-10.764v4.532A1.962 1.962 0 0 1 8.544 18H5.25m-4.5 5.25v-8.772a.981.981 0 0 1 .978-.978h5.381m16.141-.033V1.728a.974.974 0 0 0-.964-.978H16.5v12.717M9 .75v7.5M7.5 18v5.25m-1.5 0h3"/><path class="a" d="M.75.75H16.5v7.5H.75z"/><path class="a" d="M4.125 4.5a.375.375 0 1 1-.375.375.375.375 0 0 1 .375-.375m8.25 0a.375.375 0 1 1-.375.375.375.375 0 0 1 .375-.375m7.5 5.25a.375.375 0 1 1-.375.375.375.375 0 0 1 .375-.375m0 9.75a.375.375 0 1 1-.375.375.375.375 0 0 1 .375-.375"/></svg>