<svg xmlns="http://www.w3.org/2000/svg" viewBox="0 0 24 24" width="24" height="24"><defs><style>.a{fill:none;stroke:#000;stroke-linecap:round;stroke-linejoin:round;stroke-width:1.5px}</style></defs><title>office-stamp-document</title><path class="a" d="M6.75 6V1.727a.975.975 0 0 1 .971-.979h9.7l5.824 5.87V22.27a.975.975 0 0 1-.971.978H15.75"/><path class="a" d="M17.25.748v5a1 1 0 0 0 1 1h5m-2.446 3.75H12.75m8.054 9H18m2.804-4.5H14.25m-13.5 5.25l.75 3H12l.75-3m-3-3h-1.5v-2.666a3 3 0 1 0-3 0v2.666h-1.5a3 3 0 0 0-3 3h12a3 3 0 0 0-3-3z"/></svg>