<svg xmlns="http://www.w3.org/2000/svg" viewBox="0 0 24 24" width="24" height="24"><defs><style>.a{fill:none;stroke:#000;stroke-linecap:round;stroke-linejoin:round;stroke-width:1.5px}</style></defs><title>office-file-presentation-1</title><path class="a" d="M22.5 21.748a1.5 1.5 0 0 1-1.5 1.5H3a1.5 1.5 0 0 1-1.5-1.5v-19.5A1.5 1.5 0 0 1 3 .748h15a1.5 1.5 0 0 1 1.048.426l3 2.883a1.5 1.5 0 0 1 .452 1.074z"/><rect class="a" x="6.752" y="6.748" width="10.5" height="7.5" rx=".5" ry=".5"/><path class="a" d="M12.002 14.248v4.5m-3 0l3-3m3 3l-3-3"/></svg>