<svg xmlns="http://www.w3.org/2000/svg" viewBox="0 0 24 24" width="24" height="24"><defs><style>.a{fill:none;stroke:#000;stroke-linecap:round;stroke-linejoin:round;stroke-width:1.5px}</style></defs><title>office-tape-1</title><path class="a" d="M8.466 13.1a6 6 0 1 1 11.747-2.267m-8.783 1.691a3 3 0 1 1 5.818-1.124M.75 6.835L8.699 9.22"/><path class="a" d="M22.764 17.605a1.957 1.957 0 0 1-1.817 1.23H4.234a1.956 1.956 0 0 1-1.9-1.482L.869 11.484a3.964 3.964 0 0 1-.119-.964.489.489 0 0 1 .489-.489h.741a2.932 2.932 0 0 1 2.075.86l1.462 1.462a2.937 2.937 0 0 0 2.633.806l11.9-2.3a1.957 1.957 0 0 1 2.246 1.359l.818 2.728a3.307 3.307 0 0 1 .141.958 2.539 2.539 0 0 1-.182.943z"/></svg>