<svg xmlns="http://www.w3.org/2000/svg" viewBox="0 0 24 24" width="24" height="24"><defs><style>.a{fill:none;stroke:#000;stroke-linecap:round;stroke-linejoin:round;stroke-width:1.5px}</style></defs><title>official-building</title><path class="a" d="M4.5 14.25h3v6h-3zm6 0h3v6h-3zm6 0h3v6h-3zm4.5-.75a.75.75 0 0 1-.75.75H3.75A.75.75 0 0 1 3 13.5a1.04 1.04 0 0 1 .712-.987l8.051-2.684a.753.753 0 0 1 .474 0l8.051 2.684A1.04 1.04 0 0 1 21 13.5zm-6-5.25h3v3.5m-12 0v-3.5h3m-3 0a6 6 0 0 1 12 0m-6-7.5v1.5m-10.5 21h21m-19.5-3h18"/></svg>