<svg xmlns="http://www.w3.org/2000/svg" viewBox="0 0 24 24" width="24" height="24"><defs><style>.a{fill:none;stroke:#000;stroke-linecap:round;stroke-linejoin:round;stroke-width:1.5px}</style></defs><title>office-work-wireless</title><circle class="a" cx="4.5" cy="7.5" r="2.25"/><path class="a" d="M9.751 23.25a1.5 1.5 0 0 1-1.343-.829l-.671-1.342A1.491 1.491 0 0 0 6.4 20.25H4.5a1.5 1.5 0 0 1-1.5-1.5v-6a1.5 1.5 0 0 1 2.332-1.25l1.116.744a3 3 0 0 0 1.664.5H9.75a1.5 1.5 0 0 1 0 3H8.112A5.985 5.985 0 0 1 6 15.366v1.884h.4a4.477 4.477 0 0 1 4.025 2.487l.671 1.342a1.5 1.5 0 0 1-1.345 2.171zm-5.251-3h-3m8.25-4.5h10.5m-5.25 0v7.5m-.75-10.5h6L22.5 7.5m-8.25-.375a.375.375 0 1 1-.375.375.375.375 0 0 1 .375-.375M11.6 4.848a3.752 3.752 0 0 1 5.3 0M9.477 2.727a6.75 6.75 0 0 1 9.546 0M3.75 23.25v-3"/></svg>