<svg xmlns="http://www.w3.org/2000/svg" viewBox="0 0 24 24" width="24" height="24"><defs><style>.a{fill:none;stroke:#000;stroke-linecap:round;stroke-linejoin:round;stroke-width:1.5px}</style></defs><title>office-file-graph</title><path class="a" d="M22.454 21.748a1.5 1.5 0 0 1-1.5 1.5H3a1.5 1.5 0 0 1-1.5-1.5v-19.5A1.5 1.5 0 0 1 3 .748h15a1.5 1.5 0 0 1 1.047.426L22 4.057a1.5 1.5 0 0 1 .452 1.074z"/><circle class="a" cx="10.454" cy="9.748" r="5.25"/><path class="a" d="M5.205 9.748h5.23l1.146 5.129m-1.146-5.129l3.732-3.712m4.537 10.462h-3m3 3h-6.75"/></svg>