<svg xmlns="http://www.w3.org/2000/svg" viewBox="0 0 24 24" width="24" height="24"><defs><style>.a{fill:none;stroke:#000;stroke-linecap:round;stroke-linejoin:round;stroke-width:1.5px}</style></defs><title>office-file-text-alternate</title><path class="a" d="M7.499 16.499v-6m-3 1.5v-1.5h6v1.5m3.75 3h5.25m-5.25-4.5h5.25m-15 9h15m-13.5-3h3"/><path class="a" d="M22.809 5.56a1.5 1.5 0 0 1 .44 1.061V21A2.25 2.25 0 0 1 21 23.249H3A2.25 2.25 0 0 1 .749 21V3A2.25 2.25 0 0 1 3 .749h14.377a1.5 1.5 0 0 1 1.061.44z"/><path class="a" d="M17.249.749v4.5a1.5 1.5 0 0 0 1.5 1.5h4.5"/></svg>