<svg xmlns="http://www.w3.org/2000/svg" viewBox="0 0 24 24" width="24" height="24"><defs><style>.a{fill:none;stroke:#000;stroke-linecap:round;stroke-linejoin:round;stroke-width:1.5px}</style></defs><title>office-eraser</title><path class="a" d="M11.25 19.498H21m0 2.772a1.034 1.034 0 0 1-1.083.978h-7.584a1.034 1.034 0 0 1-1.083-.978V1.727a1.035 1.035 0 0 1 1.083-.979h7.678a.952.952 0 0 1 .989.979zM14.25 3.54v.958M18 3.54v.958m-6.75 3H21m-6.75 3v6m3.75-6v6m-6.75-10.48c-3.507 2.551-7.185 5.668-8.1 10.111a5.336 5.336 0 0 0 0 2.525c.972 3.424 4.818 2.737 8.1 2.681"/></svg>