<svg xmlns="http://www.w3.org/2000/svg" viewBox="0 0 24 24" width="24" height="24"><defs><style>.a{fill:none;stroke:#000;stroke-linecap:round;stroke-linejoin:round;stroke-width:1.5px}</style></defs><title>office-file-stamp</title><path class="a" d="M12.748 11.998h-8.25m6 4.5h-6m13.5-9h-13.5m17.711 11.763a.751.751 0 0 0-.711-.513h-2.25V16.5a2.25 2.25 0 1 0-3 0v2.25H14a.751.751 0 0 0-.712.513l-1 3a.749.749 0 0 0 .712.987h9.5a.749.749 0 0 0 .711-.987z"/><path class="a" d="M9 23.248H2.248a1.5 1.5 0 0 1-1.5-1.5v-19.5a1.5 1.5 0 0 1 1.5-1.5h15a1.5 1.5 0 0 1 1.047.427l3 2.882a1.5 1.5 0 0 1 .453 1.074V10.5"/></svg>