<svg xmlns="http://www.w3.org/2000/svg" viewBox="0 0 24 24" width="24" height="24"><defs><style>.a{fill:none;stroke:#000;stroke-linecap:round;stroke-linejoin:round;stroke-width:1.5px}</style></defs><title>office-chair</title><path class="a" d="M18 14.25a1.5 1.5 0 0 1-1.5 1.5h-9a1.5 1.5 0 0 1 0-3h9a1.5 1.5 0 0 1 1.5 1.5zm-6 1.5v7.5m-6.537 0A6.658 6.658 0 0 1 12 18.75a6.66 6.66 0 0 1 6.537 4.5"/><path class="a" d="M3 9.75v3a3 3 0 0 0 3 3h1.5m-6-6h3m16.5 0v3a3 3 0 0 1-3 3h-1.5m6-6h-3m-3-4.5a4.5 4.5 0 0 0-9 0v7.5h9z"/></svg>