<svg xmlns="http://www.w3.org/2000/svg" viewBox="0 0 24 24" width="24" height="24"><defs><style>.a{fill:none;stroke:#000;stroke-linecap:round;stroke-linejoin:round;stroke-width:1.5px}</style></defs><title>office-razor</title><path class="a" d="M11.207 15.372l-3.558-3.559a.838.838 0 0 1 0-1.186l8.9-8.9a3.355 3.355 0 0 1 4.744 0 3.347 3.347 0 0 1 .007 4.74l-8.909 8.907a.832.832 0 0 1-1.184-.002z"/><path class="a" d="M11.207 15.372l-3.558-3.559L2 17.466a.841.841 0 0 0-.243.669l.4 4.349a.839.839 0 0 0 1.42.516zm-1.779-1.78l5.931-5.93m.593-5.338l4.744 4.745M5.869 13.592l.594 6.524"/></svg>