<svg xmlns="http://www.w3.org/2000/svg" viewBox="0 0 24 24" width="24" height="24"><defs><style>.a{fill:none;stroke:#000;stroke-linecap:round;stroke-linejoin:round;stroke-width:1.5px}</style></defs><title>office-sign-document</title><path class="a" d="M9.164 13.293a2.3 2.3 0 0 1 3.211-.092 2.3 2.3 0 0 1-.092 3.21c-.881.883-4.752 1.632-4.752 1.632s.752-3.869 1.633-4.75zm3.566-7.725l3.639-3.639a1.47 1.47 0 0 1 2.079 0l1.04 1.04"/><path class="a" d="M11.17 11.286l8.318-8.317a2.211 2.211 0 0 1 3.119 0 2.213 2.213 0 0 1 0 3.119l-8.318 8.317zm5.199-5.198l3.119 3.119"/><path class="a" d="M21.22 13.5c0 4.041.425 6.325-1.758 8.508l-1.132 1.131a.378.378 0 0 1-.266.109H1.125a.375.375 0 0 1-.265-.64l.6-.6c2.265-2.265 1.76-3.714 1.76-15.774 0-3.148 2.348-4.834 3-5.486h4.448"/></svg>