<svg xmlns="http://www.w3.org/2000/svg" viewBox="0 0 24 24" width="24" height="24"><defs><style>.a{fill:none;stroke:#000;stroke-linecap:round;stroke-linejoin:round;stroke-width:1.5px}</style></defs><title>office-printer</title><path class="a" d="M.75 9.748V7.5A1.5 1.5 0 0 1 2.25 6h19.5a1.5 1.5 0 0 1 1.5 1.5v.75a1.5 1.5 0 0 1-1.5 1.5zm3-3.75L21.294.748"/><path class="a" d="M.75 9.748V22.27a.978.978 0 0 0 .978.978h20.544a.978.978 0 0 0 .978-.978v-7.043a.978.978 0 0 0-.978-.979h-2.935l-1.957 1.5H13.5v-6M.75 20.248h22.5m-9.75-4.5h-1.989m-7.761-3v2.25m3-2.25v2.25"/></svg>