<svg xmlns="http://www.w3.org/2000/svg" viewBox="0 0 24 24" width="24" height="24"><defs><style>.a{fill:none;stroke:#000;stroke-linecap:round;stroke-linejoin:round;stroke-width:1.5px}</style></defs><title>office-file-text-graph-alternate</title><path class="a" d="M17.249 14.999h2.25m-3.75-4.5h3.75m-5.25 9h5.25"/><circle class="a" cx="8.999" cy="14.249" r="4.5"/><path class="a" d="M5.294 16.718l3.705-2.469v-4.5"/><path class="a" d="M22.809 5.559a1.5 1.5 0 0 1 .44 1.061V21A2.251 2.251 0 0 1 21 23.249H3A2.25 2.25 0 0 1 .749 21V3A2.25 2.25 0 0 1 3 .749h14.377a1.5 1.5 0 0 1 1.061.439z"/><path class="a" d="M17.249.749v4.5a1.5 1.5 0 0 0 1.5 1.5h4.5"/></svg>