<svg xmlns="http://www.w3.org/2000/svg" viewBox="0 0 24 24" width="24" height="24"><defs><style>.a{fill:none;stroke:#000;stroke-linecap:round;stroke-linejoin:round;stroke-width:1.5px}</style></defs><title>office-chair-table-2</title><path class="a" d="M23.25 20.249v-8.378a1.5 1.5 0 0 0-.439-1.061l-2.122-2.121a1.5 1.5 0 0 0-1.06-.44H4.371a1.5 1.5 0 0 0-1.06.44L1.189 10.81a1.5 1.5 0 0 0-.439 1.061v8.378m3.75-9h15"/><path class="a" d="M8.25 8.249V7.5a3.75 3.75 0 0 1 7.5 0v.75m-7.5 2.999v9m7.5-9v9m-9-6a10.376 10.376 0 0 0 5.25 1.5 10.376 10.376 0 0 0 5.25-1.5"/></svg>