<svg xmlns="http://www.w3.org/2000/svg" viewBox="0 0 24 24" width="24" height="24"><defs><style>.a{fill:none;stroke:#000;stroke-linecap:round;stroke-linejoin:round;stroke-width:1.5px}</style></defs><title>office-tape-2</title><path class="a" d="M1.875 4.123l14.532 6.013"/><circle class="a" cx="16.125" cy="13.123" r="3"/><path class="a" d="M16.125 12.748a.375.375 0 1 1-.375.375.375.375 0 0 1 .375-.375"/><path class="a" d="M6.838 14.29a1.467 1.467 0 0 1-2.713-.775v-2.8a2.936 2.936 0 0 0-1.408-2.286l-.778-.6c-.448-.3-.814-.1-.814.436v7.7a3.913 3.913 0 0 0 3.913 3.913h11.087a6.75 6.75 0 0 0 0-13.5c-3.536-.005-5.814 2.331-9.287 7.912z"/></svg>