<svg xmlns="http://www.w3.org/2000/svg" viewBox="0 0 24 24" width="24" height="24"><defs><style>.a{fill:none;stroke:#000;stroke-linecap:round;stroke-linejoin:round;stroke-width:1.5px}</style></defs><title>office-file-hierarchy-alternate</title><rect class="a" x="5.249" y="14.999" width="4.5" height="4.5" rx="1" ry="1"/><rect class="a" x="8.249" y="4.499" width="6" height="4.5" rx="1" ry="1"/><rect class="a" x="12.749" y="14.999" width="4.5" height="4.5" rx="1" ry="1"/><path class="a" d="M5.999 11.999h10.5m-5.25 0v1.5m11.561-7.94a1.5 1.5 0 0 1 .439 1.061V21A2.25 2.25 0 0 1 21 23.249H3A2.251 2.251 0 0 1 .749 21V3A2.25 2.25 0 0 1 3 .749h14.378a1.5 1.5 0 0 1 1.061.439z"/><path class="a" d="M17.249.749v4.5a1.5 1.5 0 0 0 1.5 1.5h4.5"/></svg>