<svg xmlns="http://www.w3.org/2000/svg" viewBox="0 0 24 24" width="24" height="24"><defs><style>.a{fill:none;stroke:#000;stroke-linecap:round;stroke-linejoin:round;stroke-width:1.5px}</style></defs><title>office-file-pdf</title><path class="a" d="M4.499 19.498v-7.5M4.5 12h.75a2.25 2.25 0 0 1 0 4.5H4.5m6 3a3 3 0 0 0 3-3V15a3 3 0 0 0-3-3zm6 0v-6A1.5 1.5 0 0 1 18 12h1.5m-3.001 4.498h2.25"/><path class="a" d="M22.809 5.559a1.5 1.5 0 0 1 .44 1.06V21A2.25 2.25 0 0 1 21 23.248H3A2.25 2.25 0 0 1 .749 21V3A2.25 2.25 0 0 1 3 .748h14.377a1.5 1.5 0 0 1 1.061.439z"/><path class="a" d="M17.249.748v4.5a1.5 1.5 0 0 0 1.5 1.5h4.5"/></svg>