<svg xmlns="http://www.w3.org/2000/svg" viewBox="0 0 24 24" width="24" height="24"><defs><style>.a{fill:none;stroke:#000;stroke-linecap:round;stroke-linejoin:round;stroke-width:1.5px}</style></defs><title>office-file-xls</title><path class="a" d="M4.503 11.998l3 7.5m0-7.5l-3 7.5M10.5 12v6a1.5 1.5 0 0 0 1.5 1.5h1.5m6-7.5H18a1.5 1.5 0 0 0-1.5 1.5c0 2.25 3 2.25 3 4.5a1.5 1.5 0 0 1-1.5 1.5h-1.5"/><path class="a" d="M22.814 5.559a1.5 1.5 0 0 1 .439 1.06V21A2.25 2.25 0 0 1 21 23.248H3A2.25 2.25 0 0 1 .753 21V3A2.25 2.25 0 0 1 3 .748h14.382a1.5 1.5 0 0 1 1.06.439z"/><path class="a" d="M17.253.748v4.5a1.5 1.5 0 0 0 1.5 1.5h4.5"/></svg>