<svg xmlns="http://www.w3.org/2000/svg" viewBox="0 0 24 24" width="24" height="24"><defs><style>.a{fill:none;stroke:#000;stroke-linecap:round;stroke-linejoin:round;stroke-width:1.5px}</style></defs><title>office-file-pps</title><path class="a" d="M4.502 19.498v-7.5M4.5 12h.75a2.25 2.25 0 0 1 0 4.5H4.5m6.002 2.998v-7.5M10.5 12h.75a2.25 2.25 0 0 1 0 4.5h-.75m9-4.5H18a1.5 1.5 0 0 0-1.5 1.5c0 2.25 3 2.25 3 4.5a1.5 1.5 0 0 1-1.5 1.5h-1.5"/><path class="a" d="M22.813 5.559a1.5 1.5 0 0 1 .439 1.06V21A2.25 2.25 0 0 1 21 23.248H3A2.25 2.25 0 0 1 .752 21V3A2.25 2.25 0 0 1 3 .748h14.381a1.5 1.5 0 0 1 1.061.439z"/><path class="a" d="M17.252.748v4.5a1.5 1.5 0 0 0 1.5 1.5h4.5"/></svg>