<svg xmlns="http://www.w3.org/2000/svg" viewBox="0 0 24 24" width="24" height="24"><defs><style>.a{fill:none;stroke:#000;stroke-linecap:round;stroke-linejoin:round;stroke-width:1.5px}</style></defs><title>office-folder</title><path class="a" d="M23.286 12.433a1 1 0 0 0-.979-1.193H10.479a1 1 0 0 1-.978-.8l-.277-1.391a1 1 0 0 0-.978-.8H1.8a1 1 0 0 0-.975 1.193l2.593 13.005a1 1 0 0 0 .978.8h15.917a1 1 0 0 0 .978-.8l1.995-10.014zM4.556 5.248l.02-3.5a1 1 0 0 1 1-1h12.962a1 1 0 0 1 1 1l.021 6.5M7.568 3.74l8.238.008m-3.75 3h3.75"/></svg>