<svg xmlns="http://www.w3.org/2000/svg" viewBox="0 0 24 24" width="24" height="24"><defs><style>.a{fill:none;stroke:#000;stroke-linecap:round;stroke-linejoin:round;stroke-width:1.5px}</style></defs><title>office-file-stamp-alternate</title><path class="a" d="M22.211 19.262a.751.751 0 0 0-.712-.513h-2.25V16.5a2.25 2.25 0 1 0-3 0v2.25H14a.751.751 0 0 0-.711.513l-1 3a.749.749 0 0 0 .711.987h9.5a.749.749 0 0 0 .712-.987zm-10.962-5.013h-6.75m4.5 4.5h-4.5m12-9h-12"/><path class="a" d="M8.249 23.249H3A2.25 2.25 0 0 1 .749 21V3A2.251 2.251 0 0 1 3 .749h14.378a1.5 1.5 0 0 1 1.061.44L22.81 5.56a1.5 1.5 0 0 1 .439 1.061v6.128"/><path class="a" d="M17.249.749v4.5a1.5 1.5 0 0 0 1.5 1.5h4.5"/></svg>