<svg xmlns="http://www.w3.org/2000/svg" viewBox="0 0 24 24" width="24" height="24"><defs><style>.a{fill:none;stroke:#000;stroke-linecap:round;stroke-linejoin:round;stroke-width:1.5px}</style></defs><title>office-desk</title><rect class="a" x="2.991" y=".75" width="12" height="9" rx="1.5" ry="1.5"/><path class="a" d="M21.949 15.335a.751.751 0 0 1-.671.415H2.705a.751.751 0 0 1-.671-.415l-.75-1.5a.75.75 0 0 1 .671-1.085h20.073a.75.75 0 0 1 .671 1.085zm-16.708.415l-2.25 7.5h1.5l4.5-7.5m9.75 0l2.25 7.5h-1.5l-4.5-7.5m-12-9h12m-7.5 3l-.75 3m3.75-3l.75 3m6.75-3h3v3h-3zm1.5 0l1.5-3.75"/></svg>