<svg xmlns="http://www.w3.org/2000/svg" viewBox="0 0 24 24" width="24" height="24"><defs><style>.a{fill:none;stroke:#000;stroke-linecap:round;stroke-linejoin:round;stroke-width:1.5px}</style></defs><title>office-file-ppt-1</title><path class="a" d="M5.249 23.248h-3a1.5 1.5 0 0 1-1.5-1.5v-19.5a1.5 1.5 0 0 1 1.5-1.5h10.629a1.5 1.5 0 0 1 1.061.439l5.871 5.872a1.5 1.5 0 0 1 .439 1.06v4.629"/><path class="a" d="M20.249 8.248h-6a1.5 1.5 0 0 1-1.5-1.5v-6m-4.5 22.5v-7.5m0 0H9a2.25 2.25 0 0 1 0 4.5h-.75m5.999 3v-7.5m0 0H15a2.25 2.25 0 0 1 0 4.5h-.75m7.499 3v-7.5m-1.5 0h3"/></svg>