<svg xmlns="http://www.w3.org/2000/svg" viewBox="0 0 24 24" width="24" height="24"><defs><style>.a{fill:none;stroke:#000;stroke-linecap:round;stroke-linejoin:round;stroke-width:1.5px}</style></defs><title>office-file-text</title><path class="a" d="M22.5 21.748a1.5 1.5 0 0 1-1.5 1.5H3a1.5 1.5 0 0 1-1.5-1.5v-19.5A1.5 1.5 0 0 1 3 .748h15a1.5 1.5 0 0 1 1.047.427l3 2.882a1.5 1.5 0 0 1 .453 1.074zM9 11.248v-6"/><path class="a" d="M6 6.748v-1.5h6v1.5m3.75 3H18m-2.25-4.5H18m-12 9h12m-12 4.5h12m-10.5-7.5h3"/></svg>