<svg xmlns="http://www.w3.org/2000/svg" viewBox="0 0 24 24" width="24" height="24"><defs><style>.a{fill:none;stroke:#000;stroke-linecap:round;stroke-linejoin:round;stroke-width:1.5px}</style></defs><title>office-outdoors-1</title><path class="a" d="M.75 4.5h10.5M.75 8.25h10.5m-9 3.75h7.5v11.25h-7.5zM.75 23.25h22.5"/><path class="a" d="M4.5 15h3v3h-3zm15.75 8.25h-4.5L15 19.5h6l-.75 3.75zM18 19.5v-6"/><rect class="a" x=".75" y=".75" width="10.5" height="11.25" rx="1.303" ry="1.303"/><path class="a" d="M15.751 16.536a6.183 6.183 0 0 1-2.1-4.861C13.646 8.541 15.6 6 18 6s4.354 2.541 4.354 5.675a6.183 6.183 0 0 1-2.1 4.86M5.25 20.25h1.5"/></svg>