<svg xmlns="http://www.w3.org/2000/svg" viewBox="0 0 24 24" width="24" height="24"><defs><style>.a{fill:none;stroke:#000;stroke-linecap:round;stroke-linejoin:round;stroke-width:1.5px}</style></defs><title>office-drawer</title><rect class="a" x=".75" y="12.814" width="22.5" height="10.435" rx=".978" ry=".978"/><path class="a" d="M2.25 12.814V6.977A.983.983 0 0 1 3.237 6h8.388a.987.987 0 0 1 .789.392L13.6 8.248h6.414a.983.983 0 0 1 .986.979v3.587M9.065 15.748h5.87m4.802-10.5V3.977A.983.983 0 0 0 18.75 3H13.6l-1.186-1.86a.987.987 0 0 0-.789-.392H4.5a.983.983 0 0 0-.987.979V2.77"/></svg>