<svg xmlns="http://www.w3.org/2000/svg" viewBox="0 0 24 24" width="24" height="24"><defs><style>.a{fill:none;stroke:#000;stroke-linecap:round;stroke-linejoin:round;stroke-width:1.5px}</style></defs><title>office-shelf</title><rect class="a" x=".75" y=".748" width="22.5" height="21" rx="3" ry="3"/><path class="a" d="M.75 8.248h22.5v3H.75zm0 10.5h22.5"/><path class="a" d="M5.25 3.748h3v4.5h-3zm3 0h3v4.5h-3zm3 0h3v4.5h-3zm3 10.5h3v4.5h-3zm3 0h3v4.5h-3zm-10.5 0h3v4.5h-3zm-3 0h3v4.5h-3zm16.5 0h3v4.5h-3zm-3-10.5h3v4.5h-3zm-15 17.599v1.901m19.5-1.901v1.901"/></svg>