<svg xmlns="http://www.w3.org/2000/svg" viewBox="0 0 24 24" width="24" height="24"><defs><style>.a{fill:none;stroke:#000;stroke-linecap:round;stroke-linejoin:round;stroke-width:1.5px}</style></defs><title>office-file-glue-alternate</title><path class="a" d="M11.25 14.249H4.5m4.5 4.5H4.5m12-9h-12m13.122 12.44a.749.749 0 0 1-1.06 0l-3.182-3.182a.75.75 0 0 1 0-1.061l2.063-2.063a.693.693 0 0 1 .127-.1l5.257-3.345a.749.749 0 0 1 .933.1l1.27 1.27a.749.749 0 0 1 .1.933L19.788 20a.791.791 0 0 1-.1.128z"/><path class="a" d="M16.031 21.659l-1.591 1.59H10.5l3.41-3.712M7.5 23.249H3A2.25 2.25 0 0 1 .75 21V3A2.25 2.25 0 0 1 3 .749h14.379a1.5 1.5 0 0 1 1.06.44l4.372 4.371a1.5 1.5 0 0 1 .439 1.061v3.128"/><path class="a" d="M17.25.749v4.5a1.5 1.5 0 0 0 1.5 1.5h4.5"/></svg>