<svg xmlns="http://www.w3.org/2000/svg" viewBox="0 0 24 24" width="24" height="24"><defs><style>.a{fill:none;stroke:#000;stroke-linecap:round;stroke-linejoin:round;stroke-width:1.5px}</style></defs><title>office-file-graph-alternate</title><path class="a" d="M22.812 5.559a1.5 1.5 0 0 1 .439 1.061V21A2.25 2.25 0 0 1 21 23.249H3A2.251 2.251 0 0 1 .751 21V3A2.25 2.25 0 0 1 3 .749h14.38a1.5 1.5 0 0 1 1.061.439z"/><path class="a" d="M17.251.749v4.5a1.5 1.5 0 0 0 1.5 1.5h4.5"/><circle class="a" cx="9.751" cy="9.749" r="5.25"/><path class="a" d="M4.502 9.749h5.23l1.146 5.129M9.732 9.749l3.732-3.712m6.037 10.462h-4.5m4.5 3h-8.25"/></svg>