<svg xmlns="http://www.w3.org/2000/svg" viewBox="0 0 24 24" width="24" height="24"><defs><style>.a{fill:none;stroke:#000;stroke-linecap:round;stroke-linejoin:round;stroke-width:1.5px}</style></defs><title>office-drawing-board</title><path class="a" d="M16.586 12.75H3.376a.751.751 0 0 1-.7-1.014L6.428 1.723A1.5 1.5 0 0 1 7.833.75h13.21a.75.75 0 0 1 .7 1.013L17.99 11.776a1.5 1.5 0 0 1-1.404.974zM3.7 9h15.331m1.594-4.25v18.5m-1.5 0h3m-12-3.75a1.5 1.5 0 0 1 0-3h3.75a1.5 1.5 0 0 1 0 3zm0 0l-.75 3.75m4.5-3.75l.75 3.75m-11.25 0L3.376 15m-1.501 8.25h3"/></svg>