<svg xmlns="http://www.w3.org/2000/svg" viewBox="0 0 24 24" width="24" height="24"><defs><style>.a{fill:none;stroke:#000;stroke-linecap:round;stroke-linejoin:round;stroke-width:1.5px}</style></defs><title>office-file-glue</title><path class="a" d="M12.749 11.998h-8.25m4.5 4.5h-4.5m13.5-9h-13.5M7.5 23.248H2.249a1.5 1.5 0 0 1-1.5-1.5v-19.5a1.5 1.5 0 0 1 1.5-1.5h15a1.5 1.5 0 0 1 1.047.427l3 2.882a1.5 1.5 0 0 1 .453 1.074V9m-4.128 13.188a.75.75 0 0 1-1.061 0l-3.182-3.182a.75.75 0 0 1 0-1.061l2.063-2.063a.735.735 0 0 1 .128-.1l5.257-3.346a.751.751 0 0 1 .933.1l1.27 1.27a.749.749 0 0 1 .1.933L19.786 20a.735.735 0 0 1-.1.128z"/><path class="a" d="M16.03 21.657l-1.591 1.591h-3.94l3.41-3.712"/></svg>