<svg xmlns="http://www.w3.org/2000/svg" viewBox="0 0 24 24" width="24" height="24"><defs><style>.a{fill:none;stroke:#000;stroke-linecap:round;stroke-linejoin:round;stroke-width:1.5px}</style></defs><title>office-file-rtf</title><path class="a" d="M13.5 19.498v-7.5m-1.5 0h3m3 7.502v-6a1.5 1.5 0 0 1 1.5-1.5H21m-3 4.498h2.25m-14.25 3v-7.5M6 12h1.125a1.875 1.875 0 0 1 0 3.75H6m3 3.748l-2.25-3.75"/><path class="a" d="M22.811 5.559a1.5 1.5 0 0 1 .439 1.061V21A2.25 2.25 0 0 1 21 23.248H3A2.25 2.25 0 0 1 .75 21V3A2.251 2.251 0 0 1 3 .748h14.379a1.5 1.5 0 0 1 1.061.44z"/><path class="a" d="M17.25.748v4.5a1.5 1.5 0 0 0 1.5 1.5h4.5"/></svg>