<svg xmlns="http://www.w3.org/2000/svg" viewBox="0 0 24 24" width="24" height="24"><defs><style>.a{fill:none;stroke:#000;stroke-linecap:round;stroke-linejoin:round;stroke-width:1.5px}</style></defs><title>office-file-txt</title><path class="a" d="M17.998 19.498v-7.5m-1.5 0h3m-13.5 7.5v-7.5m-1.5 0h3m3 0l3 7.5m0-7.5l-3 7.5M22.809 5.559a1.5 1.5 0 0 1 .439 1.06V21A2.25 2.25 0 0 1 21 23.248H3A2.25 2.25 0 0 1 .748 21V3A2.25 2.25 0 0 1 3 .748h14.377a1.5 1.5 0 0 1 1.061.439z"/><path class="a" d="M17.248.748v4.5a1.5 1.5 0 0 0 1.5 1.5h4.5"/></svg>