<svg xmlns="http://www.w3.org/2000/svg" viewBox="0 0 24 24" width="24" height="24"><defs><style>.a{fill:none;stroke:#000;stroke-linecap:round;stroke-linejoin:round;stroke-width:1.5px}</style></defs><title>office-file-doc-1</title><path class="a" d="M5.247 23.248h-3a1.5 1.5 0 0 1-1.5-1.5v-19.5a1.5 1.5 0 0 1 1.5-1.5h10.629a1.5 1.5 0 0 1 1.061.439l5.871 5.872a1.5 1.5 0 0 1 .439 1.06v4.629"/><path class="a" d="M20.247 8.248h-6a1.5 1.5 0 0 1-1.5-1.5v-6m-4.5 22.5a3 3 0 0 0 3-3v-1.5a3 3 0 0 0-3-3zm7.5-7.5a1.5 1.5 0 0 0-1.5 1.5v4.5a1.5 1.5 0 1 0 3 0v-4.5a1.5 1.5 0 0 0-1.5-1.5zm7.5 0a3 3 0 0 0-3 3v1.5a3 3 0 0 0 3 3"/></svg>