<svg xmlns="http://www.w3.org/2000/svg" viewBox="0 0 24 24" width="24" height="24"><defs><style>.a{fill:none;stroke:#000;stroke-linecap:round;stroke-linejoin:round;stroke-width:1.5px}</style></defs><title>office-business-card</title><path class="a" d="M11.25 5.623h11.022a.977.977 0 0 1 .978.971v14.559a.977.977 0 0 1-.978.97H1.728a.977.977 0 0 1-.978-.97V6.594a.977.977 0 0 1 .978-.971H5.25m6.75 6.75h8.25m-13.5 4.5h13.5"/><path class="a" d="M3.75 5.623v-1.5A2.25 2.25 0 0 1 6 1.873a2.25 2.25 0 0 1 2.25 2.25v6.75a1.5 1.5 0 0 1-1.5 1.5 1.5 1.5 0 0 1-1.5-1.5v-2.25"/></svg>