<svg xmlns="http://www.w3.org/2000/svg" viewBox="0 0 24 24" width="24" height="24"><defs><style>.a{fill:none;stroke:#000;stroke-linecap:round;stroke-linejoin:round;stroke-width:1.5px}</style></defs><title>office-shredder-1</title><path class="a" d="M5.25 9.748V1.787A1.039 1.039 0 0 1 6.288.748h6.551a1.035 1.035 0 0 1 .734.3l4.873 4.872a1.038 1.038 0 0 1 .3.734v3.094"/><path class="a" d="M18.75 6.748h-4.962A1.038 1.038 0 0 1 12.75 5.71V.748m-9 16.5h-1.5a1.5 1.5 0 0 1-1.5-1.5v-4.5a1.5 1.5 0 0 1 1.5-1.5h19.5a1.5 1.5 0 0 1 1.5 1.5v4.5a1.5 1.5 0 0 1-1.5 1.5h-3m-13.5-3h12m-7.5 0v9m3-9v9"/><path class="a" d="M6.75 14.248v6a1.5 1.5 0 0 1-1.5 1.5H4.5m11.25-7.5v6a1.5 1.5 0 0 0 1.5 1.5H18m2.625-8.248a.375.375 0 1 1-.375.375.375.375 0 0 1 .375-.375"/></svg>