<svg xmlns="http://www.w3.org/2000/svg" viewBox="0 0 24 24" width="24" height="24"><defs><style>.a{fill:none;stroke:#000;stroke-linecap:round;stroke-linejoin:round;stroke-width:1.5px}</style></defs><title>office-lamp</title><path class="a" d="M20.422 9.345l-9.231-4.727m6.34 13.927l3.581-7.161"/><circle class="a" cx="21.75" cy="10.042" r="1.5"/><path class="a" d="M10.125 11.264a1.305 1.305 0 0 0 .369-1.107l-.6-4.2 1.038-1.038a2.446 2.446 0 1 0-3.459-3.454L6.435 2.5l-4.2-.6a1.3 1.3 0 0 0-1.103 2.216l7.148 7.148a1.3 1.3 0 0 0 1.845 0zm10.524 11.984a.978.978 0 0 0 .93-1.28 5.8 5.8 0 0 0-5.666-3.611 5.8 5.8 0 0 0-5.666 3.611.978.978 0 0 0 .93 1.28z"/></svg>