<svg xmlns="http://www.w3.org/2000/svg" viewBox="0 0 24 24" width="24" height="24"><path fill="none" stroke="#000" stroke-linejoin="round" stroke-miterlimit="10" d="M23.366 22.486a1 1 0 01-1 1h-16a1 1 0 01-1-1V12.423a2 2 0 01.72-1.537l5.28-4.4v-3a2 2 0 012-2h8a2 2 0 012 2v19z"/><path fill="none" stroke="#000" stroke-linejoin="round" stroke-miterlimit="10" d="M14.366 3.486a1 1 0 00-1 1v1a1 1 0 001 1h6a1 1 0 001-1v-1a1 1 0 00-1-1h-6z"/><path fill="none" stroke="#000" stroke-linecap="round" stroke-linejoin="round" stroke-miterlimit="10" d="M11.366 11.486l8 8m0-8l-8 8"/><path fill="none" stroke="#000" stroke-linejoin="round" stroke-miterlimit="10" d="M11.202 6.486l-1.5-1-3.5 3 1 1.5"/><path fill="none" stroke="#000" stroke-linecap="round" stroke-linejoin="round" stroke-miterlimit="10" d="M7.16 7.666c-1.647-2.109-2.879-4.18-5.958-4.693 0 0 .125-.768.328-1.973 3.266.143 5.411 3.167 7.125 5.373"/><path fill="none" d="M0 0h24v24H0z"/></svg>