<svg xmlns="http://www.w3.org/2000/svg" viewBox="0 0 24 24" width="24" height="24"><defs><style>.a{fill:none;stroke:#000;stroke-linecap:round;stroke-linejoin:round;stroke-width:1.5px}</style></defs><title>old-people-woman-2</title><path class="a" d="M6.727 8.808a3.349 3.349 0 0 0 1.873.567 3.744 3.744 0 0 0 3.373-2.625 3.744 3.744 0 0 0 3.375 2.625 3.346 3.346 0 0 0 1.871-.567"/><circle class="a" cx="11.973" cy="9" r="5.25"/><path class="a" d="M8.223 17.189L11.973 21l3.75-3.811m6.06 6.061a10.5 10.5 0 0 0-19.619 0m9.809-19.5a5.221 5.221 0 0 1 2.875.857 3 3 0 1 0-5.75 0 5.223 5.223 0 0 1 2.875-.857zm-2.875.857L5.223 2.25m9.625 2.357l3.875-2.357"/></svg>