<svg xmlns="http://www.w3.org/2000/svg" viewBox="0 0 24 24" width="24" height="24"><defs><style>.a{fill:none;stroke:#000;stroke-linecap:round;stroke-linejoin:round;stroke-width:1.5px}</style></defs><title>old-people-man-1</title><path class="a" d="M2.25 23.25a9.75 9.75 0 0 1 19.5 0m-7.5 0L12 13.5l-2.25 9.75M16.379 8.9a3.75 3.75 0 1 0 .871-7.4 3.735 3.735 0 0 0-1.858.493S13.333 6 17.25 6M7.621 8.9a3.75 3.75 0 1 1-.871-7.4 3.735 3.735 0 0 1 1.858.493S10.667 6 6.75 6m10.5 0a5.25 5.25 0 0 1-10.5 0m8.642-4.007a5.25 5.25 0 0 0-6.784 0"/></svg>