<svg xmlns="http://www.w3.org/2000/svg" viewBox="0 0 24 24" width="24" height="24"><g fill="none" stroke="#000" stroke-linecap="round" stroke-linejoin="round" stroke-miterlimit="10"><path d="M7.5 23.5h-5a2 2 0 01-2-2v-19a2 2 0 012-2h10a2 2 0 012 2v9m0-7H.5m7 15h-7m5-17h4M7.5 22a.5.5 0 010-1"/><path d="M9.5 16.5h14m-8 2h-4m10 0h-2m-6 2h-2m12 1a2 2 0 01-2 2h-10a2 2 0 01-2-2v-6a2 2 0 012-2h10a2 2 0 012 2v6zM6.109 12.602A1.391 1.391 0 107.5 11.209a1.39 1.39 0 110-2.782c.768 0 1.391.623 1.391 1.391M7.5 13.992v.926m0-7.418v.928"/></g><path fill="none" d="M0 0h24v24H0z"/></svg>