<svg xmlns="http://www.w3.org/2000/svg" viewBox="0 0 24 24" width="24" height="24"><g fill="none" stroke="#000" stroke-linecap="round" stroke-linejoin="round" stroke-miterlimit="10"><path d="M18.5 10.5v1c-.188.934-1.047 2-2 2h-3M20 9a1.5 1.5 0 01-1.5 1.5h-1v-3h1A1.5 1.5 0 0120 9z"/><path stroke-width="2" d="M13.5 13.5h-2"/><path d="M19.731 5.983C18.815 2.467 17.312-.663 12 1.992c-10-5-6.5 10.5-11 10.5 1.5 3.5 6.11 2 6.11-.5m12.371 2.518c1.314.209 2.786-.309 3.519-2.018-.979 0-1.579-.732-2.021-1.828"/><path d="M16.5 6.492c-4 0-4-1.5-4.5-2-.5.5-.5 2-4.5 2l-.5 2c-1.5 0-1.5 3 0 3 .5 3 3.5 4.5 5 5m2.471-1.254A9.389 9.389 0 0112 16.492"/><path d="M14.471 15.238c4.5 2 9.029 3.254 9.029 6.754V23.5H.5v-1.508c0-3.5 4.528-4.754 9.028-6.754M8 15.896c0 3 4 7.597 4 7.597m4-7.597c0 3-4 7.596-4 7.596M9 8.994c0-.553.448-.5 1-.5.553 0 1-.053 1 .5m2 0c0-.553.448-.5 1-.5.553 0 1-.053 1 .5"/></g><path fill="none" d="M0 0h24v24H0z"/></svg>