<svg xmlns="http://www.w3.org/2000/svg" viewBox="0 0 24 24" width="24" height="24"><defs><style>.a{fill:none;stroke:#000;stroke-linecap:round;stroke-linejoin:round;stroke-width:1.5px}</style></defs><title>optimization-rocket-graph</title><path class="a" d="M18 8.947a6.368 6.368 0 0 1 .327 9.415 6.648 6.648 0 0 1-9.281 0A6.405 6.405 0 0 1 7.43 15.75"/><path class="a" d="M15.189 6.5l2.067-2.03a.949.949 0 0 1 1.326 0l1.326 1.3a.909.909 0 0 1 0 1.3l-3.978 3.91a.952.952 0 0 1-1.17.124"/><path class="a" d="M19.061 4.94l2.689-2.69-1.5-1.5m3 3l-1.5-1.5M5.182 15.75h5.25M6 23.25h14.25m-6.75-3v3M.75 12.75H9m-6-12h3v12H3zm6 3h3v9H9z"/></svg>