<svg xmlns="http://www.w3.org/2000/svg" viewBox="0 0 24 24" width="24" height="24"><defs><style>.a{fill:none;stroke:#000;stroke-linecap:round;stroke-linejoin:round;stroke-width:1.5px}</style></defs><title>optimization-timer-1</title><path class="a" d="M21 20.25h.75a1.5 1.5 0 0 0 1.5-1.5V2.365A1.62 1.62 0 0 0 21.635.75H2.357A1.612 1.612 0 0 0 .75 2.357v16.277a1.62 1.62 0 0 0 1.615 1.616H3m-2.25-15h22.5"/><circle class="a" cx="12" cy="17.25" r="6"/><path class="a" d="M12 17.25L14.081 15M12 11.25v-3m-1.5 0h3m2.35 4.333l1.333-1.333M7.85 12.583L6.517 11.25"/></svg>