<svg xmlns="http://www.w3.org/2000/svg" viewBox="0 0 24 24" width="24" height="24"><defs><style>.a{fill:none;stroke:#000;stroke-linecap:round;stroke-linejoin:round;stroke-width:1.5px}</style></defs><title>optimization-plane</title><path class="a" d="M2.456 14.275h19.088m-16.728 3.75h1.539m2.566 0h1.539m2.566 0h1.54m2.566 0h1.539m-2.3-16.384a1.779 1.779 0 0 1 1.378 1.716 1.76 1.76 0 0 1-.822 1.526l-10.143 6.3a.624.624 0 0 1-.688-.02L2.378 8.551a.343.343 0 0 1 .007-.541l1.56-1.376a.343.343 0 0 1 .332-.057l1.955 1.165 2.48-1.73-4.7-2.912a.428.428 0 0 1 .02-.667l1.149-.851a.428.428 0 0 1 .4-.058l6.477 2.412 3-2.045a1.663 1.663 0 0 1 1.313-.25zM13.5 10.525h5.854a1.547 1.547 0 0 1 1.511 1.136l2.338 9a1.514 1.514 0 0 1-1.512 1.864H2.309A1.514 1.514 0 0 1 .8 20.661l2.046-7.878"/></svg>