<svg id="Regular" xmlns="http://www.w3.org/2000/svg" viewBox="0 0 24 24" width="24" height="24"><defs><style>.cls-1{fill:none;stroke:#000;stroke-linecap:round;stroke-linejoin:round;stroke-width:1.5px}</style></defs><title>organic-plant-grow-1</title><path class="cls-1" d="M.751 23.25a5.511 5.511 0 0 0 4.5-1.5 4.547 4.547 0 0 0 6.75 0 4.547 4.547 0 0 0 6.75 0 5.511 5.511 0 0 0 4.5 1.5m-3-15.666A8.282 8.282 0 0 0 12 15.9a8.283 8.283 0 0 0 8.251-8.316z"/><path class="cls-1" d="M14.171 10.278A9.24 9.24 0 0 0 12.011.75a9.239 9.239 0 0 0-2.148 9.564"/><path class="cls-1" d="M3.751 7.584A8.282 8.282 0 0 1 12 15.9a8.282 8.282 0 0 1-8.249-8.316zm8.25 11.916v-3.601"/></svg>