<svg id="Regular" xmlns="http://www.w3.org/2000/svg" viewBox="0 0 24 24" width="24" height="24"><defs><style>.cls-1{fill:none;stroke:#000;stroke-linecap:round;stroke-linejoin:round;stroke-width:1.5px}</style></defs><title>organic-rain-growth</title><path class="cls-1" d="M15.75 11.25L12 15m8.25-3.75L18 13.5m-6.75-2.25L9 13.5m-8.25 6S3 21 3 23.25m2.25-3.75S3 21 3 23.25m6.75-3.75S12 21 12 23.25m2.25-3.75S12 21 12 23.25m6.75-3.75S21 21 21 23.25m2.25-3.75S21 21 21 23.25m2.25 0H.75M18 .75a3.75 3.75 0 0 0-3.746 3.577 2.25 2.25 0 1 0-1.5 3.923H18a3.75 3.75 0 0 0 0-7.5z"/></svg>