<svg id="Regular" xmlns="http://www.w3.org/2000/svg" viewBox="0 0 24 24" width="24" height="24"><defs><style>.cls-1{fill:none;stroke:#000;stroke-linecap:round;stroke-linejoin:round;stroke-width:1.5px}</style></defs><title>organic-plant-root</title><path class="cls-1" d="M22.252.792a.749.749 0 0 1 .986.84c-.426 2.391-1.764 7.207-5.6 6.9a3.534 3.534 0 1 1 .562-7.047 10.583 10.583 0 0 0 4.052-.693z"/><path class="cls-1" d="M12 23.25V10.8a6 6 0 0 1 6-6M1.748.792a.749.749 0 0 0-.986.84c.426 2.391 1.764 7.207 5.6 6.9A3.534 3.534 0 1 0 5.8 1.485 10.583 10.583 0 0 1 1.748.792zM12 10.8a6 6 0 0 0-6-6M15 15h8.25M.75 15H9"/><path class="cls-1" d="M12 18h.75a3.75 3.75 0 0 1 3.75 3.75m-4.5-1.5h-1.5a3 3 0 0 0-3 3"/></svg>