<svg id="Regular" xmlns="http://www.w3.org/2000/svg" viewBox="0 0 24 24" width="24" height="24"><defs><style>.cls-1{fill:none;stroke:#000;stroke-linecap:round;stroke-linejoin:round;stroke-width:1.5px}</style></defs><title>organic-seedling-growth</title><path class="cls-1" d="M10.941 13.508a2.25 2.25 0 0 1-2.061 4 14.063 14.063 0 0 1-2.835-3.242.75.75 0 0 1 .61-1.185 14.047 14.047 0 0 1 4.286.427zm.917 3.128a5.126 5.126 0 0 1 1.642 2.409m8.752-13.003a.749.749 0 0 1 .986.84c-.426 2.391-1.764 7.207-5.6 6.9a3.534 3.534 0 1 1 .562-7.047 10.583 10.583 0 0 0 4.052-.693z"/><path class="cls-1" d="M13.5 23.25v-7.2a6 6 0 0 1 6-6M.75 23.25h9.75m6 0h6.75m-22.5-9L15 .75m-4.5 0H15V4.5"/></svg>