<svg id="Regular" xmlns="http://www.w3.org/2000/svg" viewBox="0 0 24 24" width="24" height="24"><defs><style>.cls-1{fill:none;stroke:#000;stroke-linecap:round;stroke-linejoin:round;stroke-width:1.5px}</style></defs><title>organic-sun-growth</title><circle class="cls-1" cx="15" cy="8.25" r="3"/><path class="cls-1" d="M15 2.25V.75m4.243 3.257l1.06-1.06M21 8.25h1.5m-3.257 4.243l1.06 1.06M15 14.25v1.5m-4.243-3.257l-1.06 1.06M9 8.25H7.5m3.257-4.243l-1.06-1.06M.75 19.5S3 21 3 23.25m2.25-3.75S3 21 3 23.25m6.75-3.75S12 21 12 23.25m2.25-3.75S12 21 12 23.25m6.75-3.75S21 21 21 23.25m2.25-3.75S21 21 21 23.25m2.25 0H.75"/></svg>