<svg id="Regular" xmlns="http://www.w3.org/2000/svg" viewBox="0 0 24 24" width="24" height="24"><defs><style>.cls-1{fill:none;stroke:#000;stroke-linecap:round;stroke-linejoin:round;stroke-width:1.5px}</style></defs><title>organic-worm</title><path class="cls-1" d="M3.75 23.25a3 3 0 0 1-3-3V18a10.512 10.512 0 0 1 10.5-10.5h1.5a4.481 4.481 0 0 0 4.478-4.047 3 3 0 1 1 5.971.591A10.462 10.462 0 0 1 12.75 13.5h-1.5a4.505 4.505 0 0 0-4.5 4.5v2.25a3 3 0 0 1-3 3z"/><path class="cls-1" d="M.75 18.75a10.916 10.916 0 0 1 3-.4 10.923 10.923 0 0 1 3 .4M3.8 10.605a10.955 10.955 0 0 1 2.466 1.772 10.792 10.792 0 0 1 1.895 2.351M12.08 7.5a11.932 11.932 0 0 1 1.144 2.961 10.889 10.889 0 0 1 .293 3.013m3.05-8.074a11.1 11.1 0 0 1 2.666 1.5 10.773 10.773 0 0 1 2.145 2.115"/></svg>