<svg id="Regular" xmlns="http://www.w3.org/2000/svg" viewBox="0 0 24 24" width="24" height="24"><defs><style>.cls-1{fill:none;stroke:#000;stroke-linecap:round;stroke-linejoin:round;stroke-width:1.5px}</style></defs><title>organic-flask-1</title><path class="cls-1" d="M14.578 20.754s1.22 2.495 3.271 2.308c4.158-.38 3.88-5.907 5.4-7.859a9.1 9.1 0 0 0-8.265.075c-2.154 1.222-2.307 3.27-.406 5.476zm2.942-2.535s-2.7.335-4.623 5.031m4.041-12.005A8.268 8.268 0 0 0 11.25 5.56V.75h-4.5v4.81A8.252 8.252 0 0 0 9 21.75M4.5.75h9.75M11.625 12a.375.375 0 0 1 .375.375m-.75 0a.375.375 0 0 1 .375-.375m0 .75a.375.375 0 0 1-.375-.375m.75 0a.375.375 0 0 1-.375.375M6.375 15a.375.375 0 0 1 .375.375m-.75 0A.375.375 0 0 1 6.375 15m0 .75A.375.375 0 0 1 6 15.375m.75 0a.375.375 0 0 1-.375.375m.75-6a.375.375 0 0 1 .375.375m-.75 0a.375.375 0 0 1 .375-.375m0 .75a.375.375 0 0 1-.375-.375m.75 0a.375.375 0 0 1-.375.375"/></svg>