<svg id="Regular" xmlns="http://www.w3.org/2000/svg" viewBox="0 0 24 24" width="24" height="24"><defs><style>.cls-1{fill:none;stroke:#000;stroke-linecap:round;stroke-linejoin:round;stroke-width:1.5px}</style></defs><title>organic-flask</title><path class="cls-1" d="M12.932 17s1.22 2.495 3.27 2.307c4.158-.38 3.88-5.907 5.4-7.859a9.106 9.106 0 0 0-8.265.075c-2.154 1.221-2.306 3.277-.405 5.477zm2.941-2.531s-2.7.334-4.623 5.03"/><path class="cls-1" d="M21.747 18.86l1.3 2.129a1.5 1.5 0 0 1-1.297 2.261H2.25a1.5 1.5 0 0 1-1.293-2.261L8.25 9V.75m7.5 0V7.5M6 .75h12m-2.25 3H13.5m2.25 3H13.5"/></svg>