<svg xmlns="http://www.w3.org/2000/svg" viewBox="0 0 24 24" width="24" height="24"><g fill="none" stroke="#000" stroke-linecap="round" stroke-linejoin="round" stroke-miterlimit="10"><path d="M22.444 13.563l-9.888 9.889M20.5 12.5v3h3m-5-1v3h3m-5-1v3h3m-5-1v3h3M6.5.5h6v3h-6z"/><path d="M15.5 14.5c0-3-1-5.5-4-6.5V3.5m-4 0V8c-3 1-4 3.5-4 6.5v8a1 1 0 001 1h5.503"/><path d="M11.375 14.625a1.874 1.874 0 11-3.75 0C7.625 13.59 9.5 11.5 9.5 11.5s1.875 2.09 1.875 3.125z"/></g><path fill="none" d="M0 0h24v24H0z"/></svg>