<svg xmlns="http://www.w3.org/2000/svg" viewBox="0 0 24 24" width="24" height="24"><g fill="none" stroke="#000" stroke-linejoin="round" stroke-miterlimit="10"><path d="M22.444 13.563l-9.888 9.889M20.5 12.5v3h3m-5-1v3h3m-5-1v3h3m-5-1v3h3M13.5 10.5H.5v13h9.542m13.458-13l-5-5-5 5v5.542M.5 10.5l5-5h13m0 0V3c0-1.375-1.35-2.5-3-2.5h-7c-1.649 0-3 1.125-3 2.5v2.5" stroke-linecap="round"/><path stroke-linecap="round" d="M2.5 13.5h8v4h-8z"/><path d="M13.5 10.5h10"/></g><path fill="none" d="M0 0h24v24H0z"/></svg>