<svg id="Regular" xmlns="http://www.w3.org/2000/svg" viewBox="0 0 24 24" width="24" height="24"><defs><style>.cls-1{fill:none;stroke:#000;stroke-linecap:round;stroke-linejoin:round;stroke-width:1.5px}</style></defs><title>organic-plant-grow</title><path class="cls-1" d="M20.251 7.585A8.283 8.283 0 0 0 12 15.9a8.283 8.283 0 0 0 8.251-8.315z"/><path class="cls-1" d="M14.171 10.279a9.238 9.238 0 0 0-2.16-9.528 9.238 9.238 0 0 0-2.147 9.565"/><path class="cls-1" d="M3.751 7.585A8.283 8.283 0 0 1 12 15.9a8.283 8.283 0 0 1-8.249-8.315zm8.25 11.916V15.9M.751 23.25a18.754 18.754 0 0 1 22.5 0"/></svg>