<svg xmlns="http://www.w3.org/2000/svg" viewBox="0 0 24 24" width="24" height="24"><g fill="none" stroke="#000" stroke-linecap="round" stroke-linejoin="round" stroke-miterlimit="10"><path d="M.5 1.5h22v22H.5zm11 0v22m-11-11h22"/><circle cx="17" cy="7" r="3.5"/><circle cx="6" cy="18" r="3.5"/><circle cx="6" cy="7" r="3.5"/><path d="M8.475 4.525l-4.95 4.95m3.651-5.772l-4.47 4.47M9.291 5.83l-4.467 4.468m4.554-2.434l-2.544 2.544M5.11 3.647l-2.5 2.5"/><circle cx="17" cy="18" r="3.5"/><path d="M19.475 15.525l-4.95 4.951m3.651-5.773l-4.47 4.47m6.585-2.343l-4.467 4.468m4.554-2.434l-2.544 2.544m-1.724-6.761l-2.5 2.5"/></g><path fill="none" d="M0 0h24v24H0z"/></svg>