<svg id="Regular" xmlns="http://www.w3.org/2000/svg" viewBox="0 0 24 24" width="24" height="24"><defs><style>.cls-1{fill:none;stroke:#000;stroke-linecap:round;stroke-linejoin:round;stroke-width:1.5px}</style></defs><title>otter</title><path class="cls-1" d="M18.258 4.8a10.49 10.49 0 0 1-.507 5.7c-1.5 3-5.25 3-5.25 3M3.5 18s-.176-6.861 2.25-10.5c2.375-3.563 8.511-4.775 10.964-5.125"/><path class="cls-1" d="M16.032 12.421l.219.329a10.376 10.376 0 0 1 1.5 5.25m-12 2.25s-1.5.75-.75 3m-2.25-3s-1.5.75-.75 3m14.25-3s1.5.75.75 3m2.25-3s1.5.75.75 3m-12.75-.75h7.5"/><ellipse class="cls-1" cx="18.489" cy="2.906" rx="1.637" ry="2.136" transform="rotate(-30 18.49 2.906)"/><path class="cls-1" d="M12.126 6.75a.375.375 0 0 1 .375.375m-.75 0a.375.375 0 0 1 .375-.375m0 .75a.375.375 0 0 1-.375-.375m.749 0a.375.375 0 0 1-.375.375m5.237-3.362L15.501 6m4.125-4.313L21.501.75m-1.273 3h2.023"/></svg>