<svg id="Regular" xmlns="http://www.w3.org/2000/svg" viewBox="0 0 24 24" width="24" height="24"><defs><style>.cls-1{fill:none;stroke:#000;stroke-linecap:round;stroke-linejoin:round;stroke-width:1.5px}</style></defs><title>outdoors-mining</title><path class="cls-1" d="M19.27 6.877a1.5 1.5 0 0 1 .03 2.149l-1.8 1.794a1.5 1.5 0 0 1-2.343-.282c-1.815-2.982-5.793-8.95-8.577-8.95.004 0 2.964-3.947 12.69 5.289zm-6.888-.481L.75 18.028m15 2.972L12 23.25 8.25 21v-4.5L12 14.25l3.75 2.25V21zm7.5-2.25L21 20.25l-2.25-1.5v-3l2.25-1.5 2.25 1.5v3z"/></svg>