<svg id="Regular" xmlns="http://www.w3.org/2000/svg" viewBox="0 0 24 24" width="24" height="24"><defs><style>.cls-1{fill:none;stroke:#000;stroke-linecap:round;stroke-linejoin:round;stroke-width:1.5px}</style></defs><title>outdoors-camp-flame</title><path class="cls-1" d="M14.25 9.31a2.25 2.25 0 1 1-4.5 0c0-.9.185-.84.448-1.35 0 0 .9 1.128 1.352.9.527-.263.591-1.452.554-2.392a.45.45 0 0 1 .793-.309A5.106 5.106 0 0 1 14.25 9.31z"/><rect class="cls-1" x="5.25" y="16.5" width="13.5" height="6.75" rx="1" ry="1"/><path class="cls-1" d="M6.25.75h11.5a1 1 0 0 1 1 1v2H5.25v-2a1 1 0 0 1 1-1zm11.75 3H6V12a1.5 1.5 0 0 0 1.5 1.5h3v3h3v-3h3A1.5 1.5 0 0 0 18 12zM5.25 20.25H7.5m11.25 0H16.5m-4.5-.375a.375.375 0 0 1 .375.375m-.75 0a.375.375 0 0 1 .375-.375m0 .75a.375.375 0 0 1-.375-.375m.75 0a.375.375 0 0 1-.375.375"/></svg>