<svg id="Regular" xmlns="http://www.w3.org/2000/svg" viewBox="0 0 24 24" width="24" height="24"><defs><style>.cls-1{fill:none;stroke:#000;stroke-linecap:round;stroke-linejoin:round;stroke-width:1.5px}</style></defs><title>outdoors-bird-house-1</title><path class="cls-1" d="M15.75 2.75V7.5h-6V2.75"/><path class="cls-1" d="M8.25 3.75l4.5-3 4.5 3m-4.5 1.5v18m-4.5-9.75a1.5 1.5 0 0 0 0-3 1.457 1.457 0 0 0-.8.267 2.242 2.242 0 0 0-4.315-.241c-.045 0-.084-.026-.13-.026a1.5 1.5 0 0 0 0 3zM21 18a1.5 1.5 0 0 0 0-3 1.457 1.457 0 0 0-.8.267A2.249 2.249 0 1 0 18 18zM5.25 13.5V15a3 3 0 0 0 3 3h4.5m6.75 0v.75a3 3 0 0 1-3 3h-3.75"/></svg>