<svg id="Regular" xmlns="http://www.w3.org/2000/svg" viewBox="0 0 24 24" width="24" height="24"><defs><style>.cls-1{fill:none;stroke:#000;stroke-linecap:round;stroke-linejoin:round;stroke-width:1.5px}</style></defs><title>outdoors-camp-fire-marshmallows</title><path class="cls-1" d="M8.847 8.826a.751.751 0 0 0-1.1.864 5.438 5.438 0 0 1-.488 4.16 1.9 1.9 0 0 1-2.03-1.588A4.2 4.2 0 0 0 3 16.234 4.82 4.82 0 0 0 7.871 21a4.887 4.887 0 0 0 4.871-4.766 7.689 7.689 0 0 0-3.895-7.408zm.586 11.919L15 23.25m-8.683-2.505L.75 23.25m19.568-8.989l2.932 6.08M16.735 6.83l1.629 3.378"/><rect class="cls-1" x="17.091" y="9.985" width="4.5" height="4.5" rx=".5" ry=".5" transform="rotate(-25.742 19.343 12.234)"/><rect class="cls-1" x="13.508" y="2.553" width="4.5" height="4.5" rx=".5" ry=".5" transform="rotate(-25.742 15.759 4.803)"/><path class="cls-1" d="M14.781 2.777L13.803.75"/></svg>