<svg id="Regular" xmlns="http://www.w3.org/2000/svg" viewBox="0 0 24 24" width="24" height="24"><defs><style>.cls-1{fill:none;stroke:#000;stroke-linecap:round;stroke-linejoin:round;stroke-width:1.5px}</style></defs><title>outdoors-bird</title><path class="cls-1" d="M10.979 7.449a2.547 2.547 0 0 0-2.7-.517 2.387 2.387 0 0 0-1.529 2.2v2.591A4.866 4.866 0 0 0 11.7 16.5h6.425a.594.594 0 0 0 .438-1.018zM4.5 9.75h2.25m2.625 0a.375.375 0 0 1 .375.375m-.75 0a.375.375 0 0 1 .375-.375m0 .75A.375.375 0 0 1 9 10.125m.75 0a.375.375 0 0 1-.375.375"/><circle class="cls-1" cx="12" cy="12" r="11.25"/><path class="cls-1" d="M12.75 16.5v2.25"/></svg>