<svg id="Regular" xmlns="http://www.w3.org/2000/svg" viewBox="0 0 24 24" width="24" height="24"><defs><style>.cls-1{fill:none;stroke:#000;stroke-linecap:round;stroke-linejoin:round;stroke-width:1.5px}</style></defs><title>outdoors-water-flask</title><path class="cls-1" d="M8.75 6.512V2.25a1.5 1.5 0 0 1 1.5-1.5h3a1.5 1.5 0 0 1 1.5 1.5v4.262m-9.728 2.51l13.963 13.963"/><path class="cls-1" d="M20.75 15a9 9 0 0 0-18 0v5.25a3 3 0 0 0 3 3h12a3 3 0 0 0 3-3zm-2.272-5.978L4.515 22.985"/><path class="cls-1" d="M2.75 15a9 9 0 0 1 18 0v5.25a3 3 0 0 1-3 3h-12a3 3 0 0 1-3-3z"/></svg>