<svg id="Regular" xmlns="http://www.w3.org/2000/svg" viewBox="0 0 24 24" width="24" height="24"><defs><style>.cls-1{fill:none;stroke:#000;stroke-linecap:round;stroke-linejoin:round;stroke-width:1.5px}</style></defs><title>outdoors-bench-sit</title><circle class="cls-1" cx="9" cy="3.625" r="2.625"/><path class="cls-1" d="M9.75 22.75a1.5 1.5 0 0 1-1.422-1.025L7.169 18.25H3.75a1.5 1.5 0 0 1-1.342-2.171l3.75-7.5a1.5 1.5 0 0 1 2.013-.671l2.683 1.342h3.4a1.5 1.5 0 0 1 0 3H10.5a1.5 1.5 0 0 1-.671-.158l-1.658-.829-1.994 3.987H8.25a1.5 1.5 0 0 1 1.422 1.025l1.5 4.5A1.5 1.5 0 0 1 9.75 22.75z"/><path class="cls-1" d="M.75 18.25h3v4.5m10.5-10.5h9m-9 5.25h7.5m-5.25-5.25l-3 10.5m6-10.5l3 10.5"/></svg>