<svg id="Regular" xmlns="http://www.w3.org/2000/svg" viewBox="0 0 24 24" width="24" height="24"><defs><style>.cls-1{fill:none;stroke:#000;stroke-linecap:round;stroke-linejoin:round;stroke-width:1.5px}</style></defs><title>outdoors-water-sun</title><path class="cls-1" d="M23.251 17a5.956 5.956 0 0 1-6.75-1.633 5.928 5.928 0 0 1-9 0A5.954 5.954 0 0 1 .75 16.994m0 4.319a5.954 5.954 0 0 0 6.75-1.632 5.928 5.928 0 0 0 9 0 5.956 5.956 0 0 0 6.75 1.633M6 12.75a6 6 0 0 1 12 0m-14.999 0H.751m22.5 0h-2.25m-9-10.5V4.5m6 2.25l1.5-1.5m-13.5 1.5l-1.5-1.5"/></svg>