<svg id="Regular" xmlns="http://www.w3.org/2000/svg" viewBox="0 0 24 24" width="24" height="24"><defs><style>.cls-1{fill:none;stroke:#000;stroke-linecap:round;stroke-linejoin:round;stroke-width:1.5px}</style></defs><title>outdoors-woodchopping</title><path class="cls-1" d="M10.139 8.987l-.266-3.343-1.55-2.569L12.176.75l1.55 2.569 2.834 1.793a5.437 5.437 0 0 1-6.421 3.875zM9.098 4.359L.75 9.397m12.201-7.363l1.284-.775m.015 17.491a4.5 4.5 0 1 0 6.75-3.9l-2.25 3.9zm-.75-4.125a3.75 3.75 0 0 1 3.75-3.75l.75 4.5zM6.75 19.5A3.75 3.75 0 0 1 3 23.25l-1.5-4.5z"/></svg>