<svg id="Regular" xmlns="http://www.w3.org/2000/svg" viewBox="0 0 24 24" width="24" height="24"><defs><style>.cls-1{fill:none;stroke:#000;stroke-linecap:round;stroke-linejoin:round;stroke-width:1.5px}</style></defs><title>outdoors-camp-fire</title><path class="cls-1" d="M13.01.845a.75.75 0 0 0-1.074.9 6.464 6.464 0 0 1-.475 5.136 2.181 2.181 0 0 1-2.326-1.86 4.934 4.934 0 0 0-2.558 4.652 5.582 5.582 0 0 0 5.582 5.582 5.66 5.66 0 0 0 5.582-5.582A9.056 9.056 0 0 0 13.01.845zM2 23.25l19.5-6.75M7.164 18.288L2 16.5m19.5 6.75l-5.164-1.788"/></svg>