<svg id="Regular" xmlns="http://www.w3.org/2000/svg" viewBox="0 0 24 24" width="24" height="24"><defs><style>.cls-1{fill:none;stroke:#000;stroke-linecap:round;stroke-linejoin:round;stroke-width:1.5px}</style></defs><title>outdoors-camp-fire-roasting</title><path class="cls-1" d="M.75 23.25L2.25.75m21 22.5L21.75.75M9 6.75A2.25 2.25 0 0 0 6.75 9a1.839 1.839 0 0 0 2.957 1.46A3.672 3.672 0 0 1 12 9.75a3.672 3.672 0 0 1 2.293.71A1.839 1.839 0 0 0 17.25 9 2.25 2.25 0 0 0 15 6.75a2.25 2.25 0 0 0 2.25-2.25 1.839 1.839 0 0 0-2.957-1.46A3.672 3.672 0 0 1 12 3.75a3.672 3.672 0 0 1-2.293-.71A1.839 1.839 0 0 0 6.75 4.5 2.25 2.25 0 0 0 9 6.75zm6 0h7.15M9 6.75H1.85m11.35 8.135a.75.75 0 0 0-1.187.721 4 4 0 0 1-.442 2.528A1.332 1.332 0 0 1 10.15 17a3.014 3.014 0 0 0-1.563 2.84A3.41 3.41 0 0 0 12 23.25a3.457 3.457 0 0 0 3.41-3.41 5.549 5.549 0 0 0-2.21-4.955z"/></svg>