<svg id="Regular" xmlns="http://www.w3.org/2000/svg" viewBox="0 0 24 24" width="24" height="24"><defs><style>.cls-1{fill:none;stroke:#000;stroke-linecap:round;stroke-linejoin:round;stroke-width:1.5px}</style></defs><title>outdoors-backpack</title><path class="cls-1" d="M18.75 7.75v15H5.25v-15m13.5 7.5h1.5a3 3 0 0 1 3 3V22a.75.75 0 0 1-.75.75h-3.75m-13.5-7.5h-1.5a3 3 0 0 0-3 3V22a.75.75 0 0 0 .75.75h3.75"/><rect class="cls-1" x="2.25" y="1.75" width="19.5" height="6" rx="1" ry="1"/><path class="cls-1" d="M18.75 10a9 9 0 0 1-13.5 0M12 11.549v3M6.75 1.75v6m10.5-6v6M9 22.75v-3a.75.75 0 0 1 .75-.75h4.5a.75.75 0 0 1 .75.75v3"/></svg>