<svg id="Regular" xmlns="http://www.w3.org/2000/svg" viewBox="0 0 24 24" width="24" height="24"><defs><style>.cls-1{fill:none;stroke:#000;stroke-linecap:round;stroke-linejoin:round;stroke-width:1.5px}</style></defs><title>outdoors-rope-1</title><path class="cls-1" d="M9.51 7.389c.993-1.816 1.315-4.171 4-5.641a6.043 6.043 0 0 1 5.094-.34 7.068 7.068 0 0 1 4.006 4.011 6.041 6.041 0 0 1-.334 5.1c-1.47 2.68-3.826 3-5.646 3.994"/><path class="cls-1" d="M11.962 9.841c1.559-2.949 1.71-4.082 3.458-4.727a2.768 2.768 0 0 1 2.953.531 2.769 2.769 0 0 1 .532 2.955c-.625 1.693-1.61 1.811-4.728 3.458M7.389 9.51c-1.816.993-4.171 1.315-5.641 4a6.043 6.043 0 0 0-.34 5.094 7.068 7.068 0 0 0 4.011 4.006 6.041 6.041 0 0 0 5.1-.334c2.68-1.47 3-3.826 3.994-5.646"/><path class="cls-1" d="M9.841 11.962c-2.949 1.559-4.082 1.71-4.727 3.458a2.768 2.768 0 0 0 .531 2.953 2.769 2.769 0 0 0 2.953.532c1.693-.625 1.811-1.61 3.458-4.728M7.912 5.791l10.607 10.606M5.791 7.912l10.606 10.607"/></svg>