<svg id="Regular" xmlns="http://www.w3.org/2000/svg" viewBox="0 0 24 24" width="24" height="24"><defs><style>.cls-1{fill:none;stroke:#000;stroke-linecap:round;stroke-linejoin:round;stroke-width:1.5px}</style></defs><title>outdoors-tree-gate</title><path class="cls-1" d="M16.6 18h5.9a.75.75 0 0 0 .6-1.2L19.5 12H21a.75.75 0 0 0 .6-1.2L18 6h.793a.751.751 0 0 0 .61-1.186L17.11 1.6a.75.75 0 0 0-1.22 0L13.6 4.814A.751.751 0 0 0 14.207 6H15l-3.357 4.476M16.5 18v4.5M3 12.75v9.75m4.5-9.75v9.75m4.5-9.75v9.75M.75 15h13.5M.75 20.25h13.5"/></svg>