<svg id="Regular" xmlns="http://www.w3.org/2000/svg" viewBox="0 0 24 24" width="24" height="24"><defs><style>.cls-1{fill:none;stroke:#000;stroke-linecap:round;stroke-linejoin:round;stroke-width:1.5px}</style></defs><title>outdoors-flashlight</title><path class="cls-1" d="M22.88 8.054l-2.965 2.966a1.5 1.5 0 0 1-2.121 0L13.08 6.306a1.5 1.5 0 0 1 0-2.121l2.966-2.965a.75.75 0 0 1 1.061 0l5.773 5.774a.749.749 0 0 1 0 1.06zm-5.165 2.887L6.246 22.411a1.5 1.5 0 0 1-2.122 0l-2.435-2.435a1.5 1.5 0 0 1 0-2.122l11.47-11.469m-3.987 3.987L8.033 9.233"/></svg>