<svg id="Regular" xmlns="http://www.w3.org/2000/svg" viewBox="0 0 24 24" width="24" height="24"><defs><style>.cls-1{fill:none;stroke:#000;stroke-linecap:round;stroke-linejoin:round;stroke-width:1.5px}</style></defs><title>outdoors-sun-plants</title><circle class="cls-1" cx="17.25" cy="9" r="3.75"/><path class="cls-1" d="M17.25 3v2.25m4.243-.493l-1.591 1.591M23.25 9H21m.493 4.243l-1.591-1.591M17.25 15v-2.25m-4.243.493l1.591-1.591M11.25 9h2.25m-.493-4.243l1.591 1.591M17.25 18v5.25m0-.75a3 3 0 0 1 3-3m-3 3a3 3 0 0 0-3-3m-3.75-6.966a6.375 6.375 0 1 1 .738-10.28"/></svg>