<svg id="Regular" xmlns="http://www.w3.org/2000/svg" viewBox="0 0 24 24" width="24" height="24"><defs><style>.cls-1{fill:none;stroke:#000;stroke-linecap:round;stroke-linejoin:round;stroke-width:1.5px}</style></defs><title>outdoors-landscape</title><path class="cls-1" d="M7.5 3.767L5.934 1.418a1.5 1.5 0 0 0-2.59.161L.75 6.767h12l-2.069-4.138a1.5 1.5 0 0 0-2.4-.39l-1.1 1.053M20.25 3l-3 8.25h6l-3-8.25zm0 8.25v3M3.75 12l-3 8.25h6l-3-8.25zm0 8.25v3M19.5 19.7a4.818 4.818 0 0 1 1.27 2.056M15 17.848c.24.058.489.109.749.152a9.264 9.264 0 0 1 1.507.376M10.7 14.667a5.746 5.746 0 0 0 1.3 1.7M9.75 9.75a16.554 16.554 0 0 0 .087 1.75"/></svg>