<svg id="Regular" xmlns="http://www.w3.org/2000/svg" viewBox="0 0 24 24" width="24" height="24"><defs><style>.cls-1{fill:none;stroke:#000;stroke-linecap:round;stroke-linejoin:round;stroke-width:1.5px}</style></defs><title>outdoors-water-birds</title><path class="cls-1" d="M.75 23.25a5.511 5.511 0 0 0 4.5-1.5 4.547 4.547 0 0 0 6.75 0 4.547 4.547 0 0 0 6.75 0 5.511 5.511 0 0 0 4.5 1.5m-22.5-4.5a5.511 5.511 0 0 0 4.5-1.5 4.547 4.547 0 0 0 6.75 0 4.547 4.547 0 0 0 6.75 0 5.511 5.511 0 0 0 4.5 1.5m-22.5-4.5a5.511 5.511 0 0 0 4.5-1.5 4.547 4.547 0 0 0 6.75 0 4.547 4.547 0 0 0 6.75 0 5.511 5.511 0 0 0 4.5 1.5M5.25.75l1.65 2.2a.75.75 0 0 0 1.2 0L9.75.75M12 5.25l1.65 2.2a.75.75 0 0 0 1.2 0l1.65-2.2m2.25-4.5l1.65 2.2a.75.75 0 0 0 1.2 0l1.65-2.2"/></svg>