<svg id="Regular" xmlns="http://www.w3.org/2000/svg" viewBox="0 0 24 24" width="24" height="24"><defs><style>.cls-1{fill:none;stroke:#000;stroke-linecap:round;stroke-linejoin:round;stroke-width:1.5px}</style></defs><title>outdoors-swiss-knife</title><ellipse class="cls-1" cx="18.75" cy="11.25" rx="2.25" ry="1.5"/><ellipse class="cls-1" cx="18.75" cy="8.25" rx="2.25" ry="1.5"/><ellipse class="cls-1" cx="18.75" cy="5.25" rx="2.25" ry="1.5"/><path class="cls-1" d="M18.75 3.75c-1.243 0-2.25-.672-2.25-1.5s1.007-1.5 2.25-1.5m0 12v3m-11.026 0l2.607-9.274A4.5 4.5 0 0 0 7.216.926l-4.26 15.157"/><path class="cls-1" d="M23.25 19.5a3.75 3.75 0 0 1-3.75 3.75h-15a3.75 3.75 0 0 1 0-7.5h15a3.75 3.75 0 0 1 3.75 3.75zm-18-.375a.375.375 0 0 1 .375.375m-.75 0a.375.375 0 0 1 .375-.375m0 .75a.375.375 0 0 1-.375-.375m.75 0a.375.375 0 0 1-.375.375m13.5-.75a.375.375 0 0 1 .375.375m-.75 0a.375.375 0 0 1 .375-.375m0 .75a.375.375 0 0 1-.375-.375m.75 0a.375.375 0 0 1-.375.375"/></svg>