<svg xmlns="http://www.w3.org/2000/svg" viewBox="0 0 24 24" width="24" height="24"><g fill="none" stroke="#000" stroke-linejoin="round" stroke-miterlimit="10"><path d="M8.5 11.503a4 4 0 00-8 0v11c0 .551.448 1 1 1h6c.552 0 1-.449 1-1v-11z"/><circle cx="9.5" cy="3.5" r="3"/><path stroke-linecap="round" d="M9 3.5l1-1M.5 13.503h8m-8 6h8"/><path d="M18.5 11.503a4 4 0 00-8 0v11c0 .551.448 1 1 1h6c.552 0 1-.449 1-1v-11z"/><path stroke-linecap="round" d="M10.5 13.503h8m-8 6h8m-6-16h5c2.209 0 4 1.788 4 3.997v6.003"/><circle stroke-linecap="round" cx="21.5" cy="15.003" r="1.5"/><path stroke-linecap="round" d="M21.5 16.503v3.5"/></g><path fill="none" d="M0 0h24v24H0z"/></svg>