<svg xmlns="http://www.w3.org/2000/svg" viewBox="0 0 24 24" width="24" height="24"><g fill="none" stroke="#000" stroke-linejoin="round" stroke-miterlimit="10"><circle stroke-linecap="round" cx="16.5" cy="8.501" r="4"/><path stroke-linecap="round" d="M19 18.501a3 3 0 01-6 0v-3a3 3 0 116 0v3zm1.72 3.719a.75.75 0 101.061 1.061l1.5-2a.75.75 0 10-1.061-1.061l-1.5 2zm-12.501 0a.75.75 0 101.061 1.061l1.5-2a.75.75 0 10-1.061-1.061l-1.5 2zm10.011-1.719c1.16 0 1.987.438 2.785 1.16"/><path stroke-linecap="round" d="M14.5 21.096a3.242 3.242 0 01-2.25.905 3.238 3.238 0 01-1.66-.455m12.91-8.795a2.75 2.75 0 01-4.506 2.116M9 16.501c0-1.934 1.566-3.5 3.5-3.5h1.842"/><circle stroke-linecap="round" cx="11.5" cy="3.001" r="1"/><path d="M12 3.501l2 2"/><path stroke-linecap="round" d="M3.5 6.001h5m-5 3h5m-5 3h4m-7-6h1m-1 3h1m-1 3h1m18.5-5h-3a1.5 1.5 0 100 3h3"/></g><path fill="none" d="M0 0h24v24H0z"/></svg>