<svg xmlns="http://www.w3.org/2000/svg" viewBox="0 0 24 24" width="24" height="24"><g fill="none" stroke="#000" stroke-linecap="round" stroke-linejoin="round" stroke-miterlimit="10"><path d="M20.5 9a8.501 8.501 0 00-17 0v13.5c0 .551.45 1 1 1H5c.551 0 1-.449 1-1h0c0-.549.45-1 1-1h0c.551 0 1 .451 1 1h0c0 .551.45 1 1 1h1c.551 0 1-.449 1-1h0c0-.549.45-1 1-1h0c.551 0 1 .451 1 1h0c0 .551.45 1 1 1h1c.551 0 1-.449 1-1h0c0-.549.45-1 1-1h0c.551 0 1 .451 1 1h0c0 .551.45 1 1 1h.5c.551 0 1-.449 1-1V9z"/><path d="M16.5 12c0 .826-.675 1.5-1.5 1.5h0c-.824 0-1.5-.674-1.5-1.5V9c0-.824.676-1.5 1.5-1.5h0c.825 0 1.5.676 1.5 1.5v3z"/><circle cx="14" cy="11" r=".5"/><path d="M10.5 12c0 .826-.675 1.5-1.5 1.5h0c-.824 0-1.5-.674-1.5-1.5V9c0-.824.676-1.5 1.5-1.5h0c.825 0 1.5.676 1.5 1.5v3z"/><circle cx="8" cy="11" r=".5"/></g><path fill="none" d="M0 0h24v24H0z"/></svg>