<svg xmlns="http://www.w3.org/2000/svg" viewBox="0 0 24 24" width="24" height="24"><defs><style>.a{fill:none;stroke:#000;stroke-linecap:round;stroke-linejoin:round;stroke-width:1.5px}</style></defs><title>paper-write</title><path class="a" d="M13.045 18.636l-3.712.53.53-3.712 9.546-9.546a2.25 2.25 0 0 1 3.182 3.182z"/><rect class="a" x="5.25" y=".749" width="7.5" height="3" rx=".75" ry=".75"/><path class="a" d="M12.75 2.249h3a1.5 1.5 0 0 1 1.5 1.5m0 15v3a1.5 1.5 0 0 1-1.5 1.5H2.25a1.5 1.5 0 0 1-1.5-1.5v-18a1.5 1.5 0 0 1 1.5-1.5h3m0 6h7.5m-7.5 4.5h3"/></svg>