<svg id="Regular" xmlns="http://www.w3.org/2000/svg" viewBox="0 0 24 24" width="24" height="24"><defs><style>.cls-1{fill:none;stroke:#000;stroke-linecap:round;stroke-linejoin:round;stroke-width:1.5px}</style></defs><title>paralympics-javelin-throwing</title><circle class="cls-1" cx="11.5" cy="8.625" r="2.625"/><path class="cls-1" d="M1.75 7.491l18-6.741m2.172 20.525l-.688-2.067a4.474 4.474 0 0 0-5.008-3.016l-.811.135-.715-1.676.852-.3a1.5 1.5 0 0 0-.993-2.831l-3.988 1.4A3 3 0 0 1 6.8 11.2L5.4 7.691a1.5 1.5 0 0 0-2.793 1.116l1.4 3.508a5.991 5.991 0 0 0 7.547 3.438l.3-.106.959 2.239-1.854 3.092a1.5 1.5 0 1 0 2.572 1.544l1.894-3.156 1.289-.215a1.5 1.5 0 0 1 1.669 1l.69 2.069a1.5 1.5 0 1 0 2.844-.95z"/></svg>