<svg id="Regular" xmlns="http://www.w3.org/2000/svg" viewBox="0 0 24 24" width="24" height="24"><defs><style>.cls-1{fill:none;stroke:#000;stroke-linecap:round;stroke-linejoin:round;stroke-width:1.5px}</style></defs><title>paralympics-fencing</title><circle class="cls-1" cx="12.375" cy="3.375" r="2.625"/><path class="cls-1" d="M11.959 20.23a6 6 0 1 1-6.711-8.791m9.052-1.215l-2.663.761-1.222 3.265H13.6a4.485 4.485 0 0 1 3.457 1.62l2.843 3.419a1.5 1.5 0 0 1-2.3 1.922l-2.85-3.42a1.49 1.49 0 0 0-1.15-.541H8.25a1.5 1.5 0 0 1-1.405-2.027l2.25-6a1.5 1.5 0 0 1 .993-.916l3.456-.987m2.611-1.935A2.25 2.25 0 0 1 17.25 9.75zm2.73 1.635l4.365-1.094"/></svg>