<svg id="Regular" xmlns="http://www.w3.org/2000/svg" viewBox="0 0 24 24" width="24" height="24"><defs><style>.cls-1{fill:none;stroke:#000;stroke-linecap:round;stroke-linejoin:round;stroke-width:1.5px}</style></defs><title>paralympics-torch</title><path class="cls-1" d="M9 21.75a1.5 1.5 0 0 0 3 0v-6a1.5 1.5 0 0 0-3 0zm7.727-2.786a1.5 1.5 0 1 0 2.934-.626l-.94-4.4a1.5 1.5 0 1 0-2.933.627zm-.366-1.714h-4.357m-7.727 1.714a1.5 1.5 0 0 1-2.934-.626l.94-4.4a1.5 1.5 0 1 1 2.934.627zm.366-1.714H9"/><circle class="cls-1" cx="10.502" cy="3.375" r="2.625"/><path class="cls-1" d="M13.5 12.75V9.968c.594.057 1.19.106 1.784.106a6.4 6.4 0 0 0 4.34-1.423 1.5 1.5 0 1 0-1.921-2.3c-1.054.879-2.4.792-4.508.578A26.553 26.553 0 0 0 10.5 6.75a14.29 14.29 0 0 0-8.9 3.123 1.5 1.5 0 0 0 1.875 2.341A11.136 11.136 0 0 1 7.5 10.19v2.56m15.75-8.437a1.688 1.688 0 0 1-3.375 0 1.1 1.1 0 0 0-1.125-1.125A1.8 1.8 0 0 1 17.062 1.5h3.375a2.812 2.812 0 0 1 2.813 2.813zM16.453.778c.154.26.476.722.8.722m2.997 3.873v5.877"/></svg>