<svg id="Regular" xmlns="http://www.w3.org/2000/svg" viewBox="0 0 24 24" width="24" height="24"><defs><style>.cls-1{fill:none;stroke:#000;stroke-linecap:round;stroke-linejoin:round;stroke-width:1.5px}</style></defs><title>paralympics-flag</title><circle class="cls-1" cx="8.625" cy="3.375" r="2.625"/><path class="cls-1" d="M11.96 20.227a6 6 0 1 1-8.187-8.187m8.254-3.79a1.456 1.456 0 0 0 1.284-.771l.365-.685a1.5 1.5 0 0 1 2.648 1.412s-.694 1.283-.753 1.355a4.472 4.472 0 0 1-3.512 1.689H9.75v3h3.85a4.485 4.485 0 0 1 3.457 1.62l2.843 3.419a1.5 1.5 0 0 1-2.3 1.922l-2.85-3.42a1.49 1.49 0 0 0-1.15-.541H8.25a1.5 1.5 0 0 1-1.5-1.5v-6a1.5 1.5 0 0 1 1.5-1.5zm3.588-2.118L17.631.75m4.6 1.281a1.714 1.714 0 0 0-1.79-.228 1.718 1.718 0 0 1-1.79-.228L17.631.75l-1.052 2.809 1.019.825a1.716 1.716 0 0 0 1.79.228 1.716 1.716 0 0 1 1.79.228l1.019.824 1.053-2.809z"/></svg>