<svg id="Regular" xmlns="http://www.w3.org/2000/svg" viewBox="0 0 24 24" width="24" height="24"><defs><style>.cls-1{fill:none;stroke:#000;stroke-linecap:round;stroke-linejoin:round;stroke-width:1.5px}</style></defs><title>paralympics-racing</title><path class="cls-1" d="M13.535 21.75a1.5 1.5 0 0 1-3 0v-6a1.5 1.5 0 0 1 3 0zm-7.723-2.786a1.5 1.5 0 1 1-2.934-.626l.939-4.4a1.5 1.5 0 1 1 2.934.627zm.366-1.714h4.357m7.727 1.714a1.5 1.5 0 1 0 2.934-.626l-.94-4.4a1.5 1.5 0 1 0-2.934.627zm-.366-1.714h-4.357"/><circle class="cls-1" cx="12.037" cy="3.375" r="2.625"/><path class="cls-1" d="M15.036 12.75v-2.56a11.115 11.115 0 0 1 4.026 2.024 1.5 1.5 0 1 0 1.875-2.341 14.246 14.246 0 0 0-18.025.182 1.5 1.5 0 1 0 1.922 2.3 11.23 11.23 0 0 1 4.2-2.195v2.59"/></svg>