<svg id="Regular" xmlns="http://www.w3.org/2000/svg" viewBox="0 0 24 24" width="24" height="24"><defs><style>.cls-1{fill:none;stroke:#000;stroke-linecap:round;stroke-linejoin:round;stroke-width:1.5px}</style></defs><title>paralympics-ball</title><circle class="cls-1" cx="8.625" cy="3.375" r="2.625"/><path class="cls-1" d="M11.96 20.227a6 6 0 1 1-8.187-8.187m14.978 9.71a1.5 1.5 0 0 1-1.154-.539l-2.85-3.42a1.49 1.49 0 0 0-1.147-.541H8.25a1.5 1.5 0 0 1-1.5-1.5v-6a1.5 1.5 0 0 1 1.5-1.5h3.809a1.492 1.492 0 0 0 1.171-.564l1.3-1.812a1.5 1.5 0 1 1 2.434 1.752L15.618 9.5a4.507 4.507 0 0 1-3.559 1.75H9.75v3h3.85a4.485 4.485 0 0 1 3.457 1.62l2.843 3.419a1.5 1.5 0 0 1-1.152 2.461z"/><circle class="cls-1" cx="21" cy="3" r="2.25"/></svg>