<svg id="Regular" xmlns="http://www.w3.org/2000/svg" viewBox="0 0 24 24" width="24" height="24"><defs><style>.cls-1{fill:none;stroke:#000;stroke-linecap:round;stroke-linejoin:round;stroke-width:1.5px}</style></defs><title>paralympics-race</title><circle class="cls-1" cx="12.125" cy="3.375" r="2.625"/><path class="cls-1" d="M16.089 13.018a5.251 5.251 0 1 0 6.03 2.07m-7.902-3.959l-.778-1.4a1.5 1.5 0 0 1 .784-2.129L18.2 6.105a3 3 0 0 1 4.055 2.81v2.335a1.5 1.5 0 0 1-3 0V8.915L17 9.758"/><path class="cls-1" d="M17.75 17.25H8.708a2.986 2.986 0 0 0-1.341.317L4.25 19.5"/><circle class="cls-1" cx="4.25" cy="19.5" r="3"/></svg>