<svg xmlns="http://www.w3.org/2000/svg" viewBox="0 0 24 24" width="24" height="24"><defs><style>.a{fill:none;stroke:#000;stroke-linecap:round;stroke-linejoin:round;stroke-width:1.5px}</style></defs><title>parking-p-1</title><circle class="a" cx="16.875" cy="6.75" r="6"/><path class="a" d="M15.375 6.75h1.5a1.5 1.5 0 0 0 0-3h-1.5v6M3.327 13.607l1.75-3.9A2.251 2.251 0 0 1 7.184 8.25h.691m-6 11.799v1.7a1.5 1.5 0 0 0 3 0v-1.5m16.5-.2v1.7a1.5 1.5 0 0 1-3 0v-1.5m.375-3.749a.375.375 0 0 1 .375.375m-.75 0a.375.375 0 0 1 .375-.375m0 .75a.375.375 0 0 1-.375-.375m.75 0a.375.375 0 0 1-.375.375M4.5 16.5a.375.375 0 0 0-.375.375m.75 0A.375.375 0 0 0 4.5 16.5m0 .75a.375.375 0 0 0 .375-.375m-.75 0a.375.375 0 0 0 .375.375"/><path class="a" d="M10.875 13.5h-6.75a3 3 0 0 0-3 3v2.25a1.5 1.5 0 0 0 1.5 1.5h18a1.5 1.5 0 0 0 1.5-1.5V16.5a2.977 2.977 0 0 0-.4-1.5"/></svg>