<svg xmlns="http://www.w3.org/2000/svg" viewBox="0 0 24 24" width="24" height="24"><defs><style>.a{fill:none;stroke:#000;stroke-linecap:round;stroke-linejoin:round;stroke-width:1.5px}</style></defs><title>parking-ramp-1</title><path class="a" d="M.75 20.25h12a1.5 1.5 0 0 0 1.5-1.5 3.624 3.624 0 0 0-1.061-2.561L11.25 14.25H.75m13.175 3H9.75m-9-9h6.691a2.249 2.249 0 0 1 2.106 1.46l1.7 4.54H.75m12 6v1.5a1.5 1.5 0 0 1-3 0v-1.5zm4.5-10.5h5a1 1 0 0 1 1 1v11.5a1 1 0 0 1-1 1h-4a1 1 0 0 1-1-1V9.75zm0 12l6-6m-6 1.5l6-6m-6-1.5L4.5.75"/></svg>