<svg xmlns="http://www.w3.org/2000/svg" viewBox="0 0 24 24" width="24" height="24"><defs><style>.a{fill:none;stroke:#000;stroke-linecap:round;stroke-linejoin:round;stroke-width:1.5px}</style></defs><title>park-bench-light</title><path class="a" d="M12.75 20.25v-4.5a1.5 1.5 0 0 1 1.5-1.5h6a1.5 1.5 0 0 1 1.5 1.5v4.5m-10.5 0h12m-9 0v3m6-3v3m-12.068-.812a.749.749 0 0 1-.747.812h-2.87a.749.749 0 0 1-.747-.812l.558-6.693a1.63 1.63 0 0 1 3.249 0zM6 13.5V5.25"/><circle class="a" cx="9.75" cy="2.25" r="1.5"/><path class="a" d="M6 7.5h.75a3 3 0 0 0 3-3v-.75"/><circle class="a" cx="2.25" cy="2.25" r="1.5"/><path class="a" d="M6 7.5h-.75a3 3 0 0 1-3-3v-.75"/></svg>