<svg xmlns="http://www.w3.org/2000/svg" viewBox="0 0 24 24" width="24" height="24"><defs><style>.a{fill:none;stroke:#000;stroke-linecap:round;stroke-linejoin:round;stroke-width:1.5px}</style></defs><title>park-fountain</title><path class="a" d="M9 7.5a1.5 1.5 0 0 1 3 0m3 0a1.5 1.5 0 0 0-3 0M4.5 5.25a3.75 3.75 0 0 1 7.5 0"/><path class="a" d="M12 12V5.25a3.75 3.75 0 0 1 7.5 0M1.5 12h21m-.75 0A4.684 4.684 0 0 0 18 14.25C16.625 16.893 15.185 18 12 18c-3.2 0-4.633-1.082-6-3.75A4.688 4.688 0 0 0 2.25 12M7.5 22.5h9m-4.5 0V18"/></svg>