<svg xmlns="http://www.w3.org/2000/svg" viewBox="0 0 24 24" width="24" height="24"><defs><style>.a{fill:none;stroke:#000;stroke-linecap:round;stroke-linejoin:round;stroke-width:1.5px}</style></defs><title>parking-p</title><path class="a" d="M3.75 14.25l-1.939 1.939A3.624 3.624 0 0 0 .75 18.75a1.5 1.5 0 0 0 1.5 1.5h19.5a1.5 1.5 0 0 0 1.5-1.5 3.624 3.624 0 0 0-1.061-2.561L21 15M1.075 17.25H5.25m17.675 0H18.75m-6-3h-9l1.7-4.54a2.249 2.249 0 0 1 2.109-1.46h.691m-6 12v1.5a1.5 1.5 0 0 0 3 0v-1.5zm19.5 0v1.5a1.5 1.5 0 0 1-3 0v-1.5z"/><circle class="a" cx="17.25" cy="6.75" r="6"/><path class="a" d="M15.75 6.75h1.5a1.5 1.5 0 0 0 0-3h-1.5v6"/></svg>