<svg xmlns="http://www.w3.org/2000/svg" viewBox="0 0 24 24" width="24" height="24"><defs><style>.a{fill:none;stroke:#000;stroke-linecap:round;stroke-linejoin:round;stroke-width:1.5px}</style></defs><title>parking-ramp</title><path class="a" d="M17.25 9.75h5a1 1 0 0 1 1 1v11.5a1 1 0 0 1-1 1h-4a1 1 0 0 1-1-1V9.75zm0 12l6-6m-6 1.5l6-6m-6-1.5L4.5.75m7.549 12.858L10.3 9.71a2.251 2.251 0 0 0-2.109-1.46H.75M13.5 20.049v1.7a1.5 1.5 0 0 1-3 0v-1.5m.375-3.749a.375.375 0 0 1 .375.375m-.75 0a.375.375 0 0 1 .375-.375m0 .75a.375.375 0 0 1-.375-.375m.75 0a.375.375 0 0 1-.375.375"/><path class="a" d="M.75 13.5h10.5a3 3 0 0 1 3 3v2.25a1.5 1.5 0 0 1-1.5 1.5h-12"/></svg>