<svg id="Regular" xmlns="http://www.w3.org/2000/svg" viewBox="0 0 24 24" width="24" height="24"><defs><style>.cls-1{fill:none;stroke:#000;stroke-linecap:round;stroke-linejoin:round;stroke-width:1.5px}</style></defs><title>parrot-1</title><path class="cls-1" d="M13.527 12.75c-1.5 9.75-12.75 10.5-12.75 10.5C.777 19.7-.1 9.875 12.012 7.51a3.982 3.982 0 0 1-.735-2.26c0-2.485 2.35-4.5 5.25-4.5s5.25 1.265 5.25 3.75c0 1.5-.75 1.5-.75 1.5"/><path class="cls-1" d="M19.527 9a2.877 2.877 0 0 0 3.736 0 3.338 3.338 0 0 0-2.236-3s-2.25 0-1.5 3zM16.9 4.5a.375.375 0 0 0-.375.375m.752 0A.375.375 0 0 0 16.9 4.5m0 .75a.375.375 0 0 0 .375-.375m-.748 0a.375.375 0 0 0 .375.375M19.527 9a10.17 10.17 0 0 1-3 9 14.069 14.069 0 0 1-5.166 3.5m5.059-3.393l.857 5.143m-3-3.318v3.318"/></svg>