<svg id="Regular" xmlns="http://www.w3.org/2000/svg" viewBox="0 0 24 24" width="24" height="24"><defs><style>.cls-1{fill:none;stroke:#000;stroke-linecap:round;stroke-linejoin:round;stroke-width:1.5px}</style></defs><title>party-decoration-1</title><path class="cls-1" d="M.75 8.091c5.25 3.75 13.37 5.392 22.5 4.5M2.965 9.46l-.089 4.194a1.067 1.067 0 0 0 1.733.77L7.8 11.407"/><path class="cls-1" d="M9.962 11.96l.929 4.36a1.067 1.067 0 0 0 1.862.362l2.581-3.962m1.636.085l1.77 4.131a1.067 1.067 0 0 0 1.9-.028l1.732-4.238m-4.747-3.42a.375.375 0 0 1 .375.375m-.75 0a.375.375 0 0 1 .375-.375m0 .75a.375.375 0 0 1-.375-.375m.75 0a.375.375 0 0 1-.375.375m-13.5 9a.375.375 0 0 1 .375.375m-.75 0A.375.375 0 0 1 4.125 19m0 .75a.375.375 0 0 1-.375-.375m.75 0a.375.375 0 0 1-.375.375m.75-17.25a.375.375 0 0 1 .375.375m-.75 0a.375.375 0 0 1 .375-.375m0 .75a.375.375 0 0 1-.375-.375m.75 0a.375.375 0 0 1-.375.375M19.5 1v3M21 2.5h-3M9 4.75v3m1.5-1.5h-3m9.75 13.5v3m1.5-1.5h-3"/></svg>