<svg id="Regular" xmlns="http://www.w3.org/2000/svg" viewBox="0 0 24 24" width="24" height="24"><defs><style>.cls-1{fill:none;stroke:#000;stroke-linecap:round;stroke-linejoin:round;stroke-width:1.5px}</style></defs><title>party-beer-cheers</title><path class="cls-1" d="M23.25 12.75H21a1.5 1.5 0 0 0-1.5 1.5v7.5a1.5 1.5 0 0 0 1.5 1.5h2.25M19.5 15h-1.323a2.714 2.714 0 0 1-2.427-1.5 2.714 2.714 0 0 0-2.427-1.5h-.573v1.5a1.5 1.5 0 0 1-1.5 1.5h-4.5a1.5 1.5 0 0 0-1.475 1.768l.954 5.25a1.5 1.5 0 0 0 1.476 1.232H13.9a1.5 1.5 0 0 0 .671-.158L19.5 21"/><path class="cls-1" d="M6.75 15V8.852a4.466 4.466 0 0 1 .75-2.477A4.466 4.466 0 0 0 8.25 3.9V1.5A.75.75 0 0 1 9 .749h1.5a.75.75 0 0 1 .75.75V3.9A4.466 4.466 0 0 0 12 6.375a4.466 4.466 0 0 1 .75 2.477V12m-6-3h6m6-6.75v3m-1.5-1.5h3m-18 6.75v3M.75 12h3m14.288-4.125a.375.375 0 0 1 .375.375m-.75 0a.375.375 0 0 1 .375-.375m0 .75a.375.375 0 0 1-.375-.375m.75 0a.375.375 0 0 1-.375.375M2.625.75A.375.375 0 0 1 3 1.125m-.75 0A.375.375 0 0 1 2.625.75m0 .75a.375.375 0 0 1-.375-.375m.75 0a.375.375 0 0 1-.375.375"/></svg>