<svg id="Regular" xmlns="http://www.w3.org/2000/svg" viewBox="0 0 24 24" width="24" height="24"><defs><style>.cls-1{fill:none;stroke:#000;stroke-linecap:round;stroke-linejoin:round;stroke-width:1.5px}</style></defs><title>party-music</title><path class="cls-1" d="M12.686 17.839a1.5 1.5 0 0 1 1.24-1.651 3.012 3.012 0 0 0 1.658-.83c1.465-1.464 1.1-4.206-.819-6.123s-4.659-2.284-6.123-.819a3.012 3.012 0 0 0-.83 1.658 1.5 1.5 0 0 1-1.651 1.24 4.738 4.738 0 0 0-3.98 1.248c-2.05 2.05-1.64 5.784.919 8.338s6.291 2.966 8.341.916a4.738 4.738 0 0 0 1.245-3.977z"/><rect class="cls-1" x="17.708" y="2.167" width="5.25" height="3" rx="1.5" ry="1.5" transform="rotate(-45 20.334 3.666)"/><path class="cls-1" d="M18.477 5.523l-3.712 3.712M19.007.75l1.061 1.061m2.121 2.121l1.061 1.061m-2.652.53l1.061 1.061m-4.243-4.243l1.061 1.061"/><circle class="cls-1" cx="11.052" cy="12.948" r="1.5"/><path class="cls-1" d="M5.219 16.66l2.121 2.121M9.492 5.259L6.77 2A3.394 3.394 0 1 0 2 6.771L4.5 8.87m11.788 9.875l1.722 1.442-.5.5a1.5 1.5 0 0 0 2.122 2.122l3.182-3.182a1.5 1.5 0 0 0-2.122-2.122l-.537.538-1.292-1.543"/></svg>