<svg id="Regular" xmlns="http://www.w3.org/2000/svg" viewBox="0 0 24 24" width="24" height="24"><defs><style>.cls-1{fill:none;stroke:#000;stroke-linecap:round;stroke-linejoin:round;stroke-width:1.5px}</style></defs><title>party-decoration</title><path class="cls-1" d="M.75 1.75l22.5 3.587M2.293 2l1.014 4.153a1.066 1.066 0 0 0 1.873.3l2.256-3.637m2.058.328L10.508 7.3a1.066 1.066 0 0 0 1.872.3l2.257-3.636m2.057.328l1.014 4.157a1.066 1.066 0 0 0 1.873.3l2.256-3.636M.759 19.793l22.491-8.695M2.3 19.2l3.143 3.266a1.13 1.13 0 0 0 1.874-.725l.129-4.531m2.061-.799l3.143 3.266a1.13 1.13 0 0 0 1.874-.724l.129-4.531m2.058-.796l3.144 3.266a1.129 1.129 0 0 0 1.873-.725l.129-4.531"/></svg>