<svg xmlns="http://www.w3.org/2000/svg" viewBox="0 0 24 24" width="24" height="24"><g fill="none" stroke="#000" stroke-linejoin="round" stroke-miterlimit="10"><path d="M7.204 9.533L.633 21.842A1.13 1.13 0 00.83 23.17c.352.352.891.432 1.329.197l12.347-6.584"/><ellipse transform="rotate(45.004 11.357 12.647)" cx="11.358" cy="12.647" rx="5.376" ry="2.481"/><path stroke-linecap="round" d="M16.447 12.217a4.966 4.966 0 017.018 0M11.769 7.539a4.962 4.962 0 000-7.018m6.306 7.729l3.509-1.168m-5.848-1.17l1.17-3.51"/><circle stroke-linecap="round" cx="15.566" cy="8.251" r=".501"/><circle stroke-linecap="round" cx="8.134" cy="5.326" r=".5"/><circle stroke-linecap="round" cx="19.908" cy="4.096" r=".5"/><circle stroke-linecap="round" cx="19.245" cy="14.1" r=".5"/></g><path fill="none" d="M0 0h24v24H0z"/></svg>