<svg id="Regular" xmlns="http://www.w3.org/2000/svg" viewBox="0 0 24 24" width="24" height="24"><defs><style>.cls-1{fill:none;stroke:#000;stroke-linecap:round;stroke-linejoin:round;stroke-width:1.5px}</style></defs><title>party-confetti-whistle</title><path class="cls-1" d="M3.584 23.25l9.423-9.424a1.5 1.5 0 0 1 2.122 2.122l-7.3 7.3"/><path class="cls-1" d="M15.129 13.826l5.3-5.3a4.5 4.5 0 0 0 0-6.364 2.25 2.25 0 0 0-3.179 3.179 1.5 1.5 0 0 0 2.121 0M4.5 4.5h3M6 3v3m12.75 10.5h3m-1.5-1.5v3M10.125 9a.375.375 0 0 1 .375.375m-.75 0A.375.375 0 0 1 10.125 9m0 .75a.375.375 0 0 1-.375-.375m.75 0a.375.375 0 0 1-.375.375m2.25-9a.375.375 0 0 1 .375.375m-.75 0a.375.375 0 0 1 .375-.375m0 .75A.375.375 0 0 1 12 1.125m.75 0a.375.375 0 0 1-.375.375M1.125 8.25a.375.375 0 0 1 .375.375m-.75 0a.375.375 0 0 1 .375-.375m0 .75a.375.375 0 0 1-.375-.375m.75 0A.375.375 0 0 1 1.125 9m21.75 1.5a.375.375 0 0 1 .375.375m-.75 0a.375.375 0 0 1 .375-.375m0 .75a.375.375 0 0 1-.375-.375m.75 0a.375.375 0 0 1-.375.375"/></svg>