<svg id="Regular" xmlns="http://www.w3.org/2000/svg" viewBox="0 0 24 24" width="24" height="24"><defs><style>.cls-1{fill:none;stroke:#000;stroke-linecap:round;stroke-linejoin:round;stroke-width:1.5px}</style></defs><title>party-water-gun</title><path class="cls-1" d="M15.75 10.969v3.281a1.5 1.5 0 0 1-1.5 1.5h-9a1.5 1.5 0 0 1-1.5-1.5V11"/><path class="cls-1" d="M20.25 8.146a1.5 1.5 0 0 1-.767 1.309 14.292 14.292 0 0 1-5.233 1.8h-9a4.5 4.5 0 0 1-4.5-4.5 4.5 4.5 0 0 1 4.5-4.5h9a14.292 14.292 0 0 1 5.233 1.8 1.5 1.5 0 0 1 .767 1.309zm-4.5 6.104h3m0-1.5h3.5a1 1 0 0 1 1 1v1a1 1 0 0 1-1 1h-3.5v-3zM8.615 20.777a1.5 1.5 0 0 1-1.4.973H4.832a.75.75 0 0 1-.7-1.013L6 15.75h4.5zm2.635-5.027l1.5 3m7.5-12h3m-9-4.5v9"/></svg>