<svg id="Regular" xmlns="http://www.w3.org/2000/svg" viewBox="0 0 24 24" width="24" height="24"><defs><style>.cls-1{fill:none;stroke:#000;stroke-linecap:round;stroke-linejoin:round;stroke-width:1.5px}</style></defs><title>party-mask</title><path class="cls-1" d="M23.25.75v22.5"/><ellipse class="cls-1" cx="8.25" cy="5.883" rx="1.688" ry="2.25" transform="rotate(-68.566 8.25 5.883)"/><ellipse class="cls-1" cx="15.749" cy="5.883" rx="2.25" ry="1.688" transform="rotate(-21.434 15.749 5.884)"/><path class="cls-1" d="M19.717 1.945a2.615 2.615 0 0 1-2.6-.312 3.783 3.783 0 0 0-4.712.173L12 2.154l-.407-.348a3.783 3.783 0 0 0-4.712-.173 2.616 2.616 0 0 1-2.6.312L.75.75a29.68 29.68 0 0 0 .182 3.835A7.355 7.355 0 0 0 12 9.892a7.354 7.354 0 0 0 11.067-5.307A29.488 29.488 0 0 0 23.25.75z"/></svg>