<svg id="Regular" xmlns="http://www.w3.org/2000/svg" viewBox="0 0 24 24" width="24" height="24"><defs><style>.cls-1{fill:none;stroke:#000;stroke-linecap:round;stroke-linejoin:round;stroke-width:1.5px}</style></defs><title>party-dance</title><path class="cls-1" d="M20.3 18.943l-.746-1.866a4.48 4.48 0 0 0-4.179-2.827H13.04l-.478-3h1.864a4.527 4.527 0 0 0 3.86-2.184l1.375-2.294a1.5 1.5 0 0 0-2.572-1.544l-1.376 2.293a1.509 1.509 0 0 1-1.287.729h-5.8a4.476 4.476 0 0 0-3.183 1.318l-2.121 2.121a1.5 1.5 0 0 0 2.121 2.122l2.121-2.122a1.515 1.515 0 0 1 1.061-.439h.9l1.165 7.327a1.49 1.49 0 0 1-.228 1.09l-.835 1.251a1.5 1.5 0 1 0 2.5 1.664l.836-1.252a4.465 4.465 0 0 0 .69-3.248l-.132-.832h1.858a1.494 1.494 0 0 1 1.393.942l.746 1.865a1.5 1.5 0 0 0 2.782-1.114z"/><circle class="cls-1" cx="10.5" cy="3.375" r="2.625"/><path class="cls-1" d="M2.25 3v3M.75 4.5h3m18-3.75v3m-1.5-1.5h3M18.1 4.526l-1.475-1.541a.748.748 0 0 0-1.06-.023L14.481 4a.751.751 0 0 0-.023 1.061l1.68 1.754m1.704 2.864l1.78 1.858a1.5 1.5 0 0 0 2.121.046l1.083-1.037a1.5 1.5 0 0 0 .046-2.121l-1.819-1.9a3.04 3.04 0 0 0-1.2-.766m2.647 9.616a.375.375 0 0 1 .375.375m-.75 0a.375.375 0 0 1 .375-.375m0 .75a.375.375 0 0 1-.375-.375m.75 0a.375.375 0 0 1-.375.375M5.25 6.375a.375.375 0 0 1 .375.375m-.75 0a.375.375 0 0 1 .375-.375m0 .75a.375.375 0 0 1-.375-.375m.75 0a.375.375 0 0 1-.375.375"/></svg>