<svg id="Regular" xmlns="http://www.w3.org/2000/svg" viewBox="0 0 24 24" width="24" height="24"><defs><style>.cls-1{fill:none;stroke:#000;stroke-linecap:round;stroke-linejoin:round;stroke-width:1.5px}</style></defs><title>party-balloons</title><path class="cls-1" d="M22.133 18.525a.375.375 0 0 1 .375.375m-.75 0a.375.375 0 0 1 .375-.375m0 .75a.375.375 0 0 1-.375-.375m.75 0a.375.375 0 0 1-.375.375M10.875 21.5a.375.375 0 0 1 .375.375m-.75 0a.375.375 0 0 1 .375-.375m0 .75a.375.375 0 0 1-.375-.375m.75 0a.375.375 0 0 1-.375.375m12-15a.375.375 0 0 1 .375.375m-.75 0a.375.375 0 0 1 .375-.375m0 .75a.375.375 0 0 1-.375-.375m.75 0a.375.375 0 0 1-.375.375m-21.75 9a.375.375 0 0 1 .375.375m-.75 0A.375.375 0 0 1 1.125 17m0 .75a.375.375 0 0 1-.375-.375m.75 0a.375.375 0 0 1-.375.375"/><ellipse class="cls-1" cx="15" cy="7.25" rx="4.5" ry="5.25"/><path class="cls-1" d="M15 12.5l-1.35 1.8a.75.75 0 0 0 .6 1.2h1.5a.75.75 0 0 0 .6-1.2zm.157 3a2.641 2.641 0 0 0 .283 3.4 2.639 2.639 0 0 1 0 3.733M9 1.953a4.007 4.007 0 0 0-2.252-.7c-2.485 0-4.5 2.351-4.5 5.25s2.015 5.25 4.5 5.25a4 4 0 0 0 2.25-.7"/><path class="cls-1" d="M6.75 11.75l1.35 1.8a.75.75 0 0 1-.6 1.2H6a.75.75 0 0 1-.6-1.2zm-.157 3a2.641 2.641 0 0 1-.283 3.4 2.639 2.639 0 0 0 0 3.733"/></svg>