<svg xmlns="http://www.w3.org/2000/svg" viewBox="0 0 24 24" width="24" height="24"><defs><style>.a{fill:none;stroke:#000;stroke-linecap:round;stroke-linejoin:round;stroke-width:1.5px}</style></defs><title>password-desktop</title><path class="a" d="M7.875 7.875a.375.375 0 1 0 .375.375.374.374 0 0 0-.375-.375m3.75 0A.375.375 0 1 0 12 8.25a.374.374 0 0 0-.375-.375"/><rect class="a" x="3.75" y="5.25" width="16.5" height="6" rx=".75" ry=".75"/><path class="a" d="M15 8.25h1.5m-3 10.5a8.934 8.934 0 0 0 1.5 4.5H9a8.934 8.934 0 0 0 1.5-4.5m-3.75 4.5h10.5m-16.5-7.5h22.5"/><rect class="a" x=".75" y=".75" width="22.5" height="18" rx="1.5" ry="1.5"/></svg>