<svg xmlns="http://www.w3.org/2000/svg" viewBox="0 0 24 24" width="24" height="24"><defs><style>.a{fill:none;stroke:#000;stroke-linecap:round;stroke-linejoin:round;stroke-width:1.5px}</style></defs><title>password-lock</title><path class="a" d="M6 10.875a.375.375 0 1 0 .375.375.374.374 0 0 0-.375-.375M9.75 6.75V4.5A3.761 3.761 0 0 0 6 .75 3.76 3.76 0 0 0 2.25 4.5v2.25m15 13.5h3"/><rect class="a" x="8.25" y="15.75" width="15" height="7.5" rx="1.5" ry="1.5"/><path class="a" d="M14.25 18.75v1.5m-3-1.5v1.5m0-7.5v-4.5a1.5 1.5 0 0 0-1.5-1.5h-7.5a1.5 1.5 0 0 0-1.5 1.5v6a1.5 1.5 0 0 0 1.5 1.5h3"/></svg>