<svg xmlns="http://www.w3.org/2000/svg" viewBox="0 0 24 24" width="24" height="24"><defs><style>.a{fill:none;stroke:#000;stroke-linecap:round;stroke-linejoin:round;stroke-width:1.5px}</style></defs><title>passport</title><path class="a" d="M9 20.25H3.75a3 3 0 0 1-3-3V3.75"/><path class="a" d="M14.25.75H3.91a3.111 3.111 0 0 0-3.119 2.5 3 3 0 0 0 2.959 3.5h9.75a.75.75 0 0 1 .75.75V9M3.75 3.75h9"/><circle class="a" cx="17.25" cy="17.25" r="6"/><path class="a" d="M15.409 11.537L17.1 13.8a1.5 1.5 0 0 1-.3 2.1L15 17.25V18a1.5 1.5 0 0 1-1.5 1.5h-1.813m11.551-2.628l-2.662 1.339a1.5 1.5 0 0 0-.784 1.706l.621 2.431"/></svg>