<svg xmlns="http://www.w3.org/2000/svg" viewBox="0 0 24 24" width="24" height="24"><defs><style>.a{fill:none;stroke:#000;stroke-linecap:round;stroke-linejoin:round;stroke-width:1.5px}</style></defs><title>passport-ticket</title><path class="a" d="M8.25 21.75h-6a1.5 1.5 0 0 1-1.5-1.5v-18a1.5 1.5 0 0 1 1.5-1.5h13.5a1.5 1.5 0 0 1 1.5 1.5v4.5M6.753 16a5.251 5.251 0 1 1 6.556-7.75"/><path class="a" d="M21.439 12.954a1.5 1.5 0 0 1-2.121-2.122l-1.591-1.591a.75.75 0 0 0-1.061 0l-7.424 7.425a.75.75 0 0 0 0 1.061l1.591 1.591a1.5 1.5 0 0 1 2.121 2.121l1.591 1.591a.75.75 0 0 0 1.061 0l7.424-7.425a.749.749 0 0 0 0-1.06zM9 6v7.5m-5.25-2.25h7.5"/></svg>