<svg xmlns="http://www.w3.org/2000/svg" viewBox="0 0 24 24" width="24" height="24"><g fill="none" stroke="#000" stroke-linecap="round" stroke-linejoin="round" stroke-miterlimit="10"><path d="M11.5 21.5a2 2 0 002 2h8a2 2 0 002-2v-11a2 2 0 00-2-2h-8a2 2 0 00-2 2v11z"/><circle cx="17.5" cy="15.5" r="4"/><path d="M16.5 19.374v-7.73m2 7.73v-7.73M13.627 14.5h7.746m-7.746 2.002l7.746-.002M10 19.5C4.753 19.5.5 15.247.5 10S4.753.5 10 .5c4.198 0 7.762 2.725 9.017 6.502"/><path d="M7.5 14.543v-2.064L3.805 9.174 5.665 6.5h4.956V3.804l-1.447-.825L12.778.913m4.243 2.69l-1.443 2.679h-1.446l-.699.7"/></g><path fill="none" d="M0 0h24v24H0z"/></svg>