<svg xmlns="http://www.w3.org/2000/svg" viewBox="0 0 24 24" width="24" height="24"><defs><style>.a{fill:none;stroke:#000;stroke-linecap:round;stroke-linejoin:round;stroke-width:1.5px}</style></defs><title>password-desktop-lock</title><path class="a" d="M7.125 7.875a.375.375 0 1 0 .375.375.374.374 0 0 0-.375-.375m3.75 0a.375.375 0 1 0 .375.375.374.374 0 0 0-.375-.375"/><path class="a" d="M11.25 11.25H4.5a.75.75 0 0 1-.75-.75V6a.75.75 0 0 1 .75-.75h6.75m2.25 13.5a8.934 8.934 0 0 0 1.5 4.5H9a8.934 8.934 0 0 0 1.5-4.5m-3.75 4.5h10.5m-16.5-7.5h22.5"/><path class="a" d="M23.25 15.75v1.5a1.5 1.5 0 0 1-1.5 1.5H2.25a1.5 1.5 0 0 1-1.5-1.5v-15a1.5 1.5 0 0 1 1.5-1.5h10.5"/><rect class="a" x="14.25" y="5.25" width="9" height="7.5" rx="1.5" ry="1.5"/><path class="a" d="M15.75 5.25v-1.5a3 3 0 0 1 3-3 3 3 0 0 1 3 3v1.5m-3 3.375a.375.375 0 1 0 .375.375.374.374 0 0 0-.375-.375"/></svg>