<svg xmlns="http://www.w3.org/2000/svg" viewBox="0 0 24 24" width="24" height="24"><defs><style>.a{fill:none;stroke:#000;stroke-linecap:round;stroke-linejoin:round;stroke-width:1.5px}</style></defs><title>password-denied</title><path class="a" d="M9 12.75H2.25a1.5 1.5 0 0 1-1.5-1.5v-9a1.5 1.5 0 0 1 1.5-1.5h18a1.5 1.5 0 0 1 1.5 1.5v6"/><circle class="a" cx="17.25" cy="17.25" r="6"/><path class="a" d="M19.5 14.999l-4.5 4.5m0-4.5l4.5 4.5M5.25 6.375a.375.375 0 1 1-.375.375.374.374 0 0 1 .375-.375m6 0a.375.375 0 1 1-.375.375.374.374 0 0 1 .375-.375m6 0a.375.375 0 1 1-.375.375.374.374 0 0 1 .375-.375"/></svg>