<svg id="Regular" xmlns="http://www.w3.org/2000/svg" viewBox="0 0 24 24" width="24" height="24"><defs><style>.cls-1{fill:none;stroke:#000;stroke-linecap:round;stroke-linejoin:round;stroke-width:1.5px}</style></defs><title>pasta-noodles</title><path class="cls-1" d="M13.114 23.25H4.886A1.5 1.5 0 0 1 3.406 22L1.51 10.623a.75.75 0 0 1 .74-.873h13.5a.75.75 0 0 1 .74.873L14.594 22a1.5 1.5 0 0 1-1.48 1.25z"/><path class="cls-1" d="M9.557 13.5l-.618.823a1.584 1.584 0 0 0 .243 2.177 1.585 1.585 0 0 1 .242 2.177l-.617.823M6 9.75v-7.5m3 4.5v-6m3 6V3m2.654.448l7.846.302m-21-1.5H3m11.852 4.368L22.5 7.5m-21-2.25h1.544"/></svg>