<svg id="Regular" xmlns="http://www.w3.org/2000/svg" viewBox="0 0 24 24" width="24" height="24"><defs><style>.cls-1{fill:none;stroke:#000;stroke-linecap:round;stroke-linejoin:round;stroke-width:1.5px}</style></defs><title>pasta-plate-warm</title><path class="cls-1" d="M12 .75l-.617.823a1.584 1.584 0 0 0 .242 2.177 1.584 1.584 0 0 1 .242 2.177l-.617.823M5.807 4.5l-.618.823A1.584 1.584 0 0 0 5.432 7.5a1.585 1.585 0 0 1 .242 2.177l-.617.823m12.58-6l.617.823a1.584 1.584 0 0 1-.242 2.177 1.585 1.585 0 0 0-.243 2.177l.618.823M.75 18.75h22.5m-1.81 0c-.577-1.7-1.9-3.118-3.44-3.118a3.048 3.048 0 0 0-1.422.361A5.317 5.317 0 0 0 12 13.5a5.317 5.317 0 0 0-4.578 2.493A3.048 3.048 0 0 0 6 15.632c-1.54 0-2.863 1.417-3.44 3.118m14.696 4.5H6.744a1.878 1.878 0 0 1-1.475-.668L2.25 18.75h19.5l-3.019 3.832a1.878 1.878 0 0 1-1.475.668z"/></svg>