<svg id="Regular" xmlns="http://www.w3.org/2000/svg" viewBox="0 0 24 24" width="24" height="24"><defs><style>.cls-1{fill:none;stroke:#000;stroke-linecap:round;stroke-linejoin:round;stroke-width:1.5px}</style></defs><title>pasta-fork</title><path class="cls-1" d="M20.25 1.485v12m-19.5-4.5H6.3a5.031 5.031 0 0 0 4.949 3v-9a5.032 5.032 0 0 0-4.949 3H.75m10.5-3h3m-3 3h3m-3 3h3m-3 3h2.952m6.048-9h3m-3 3h3m-3 3h3m-3 3h3M8.3 22.328l.832-2.928A2.983 2.983 0 0 1 12 17.235a2.25 2.25 0 0 0 2.25-2.25v-13.5"/><path class="cls-1" d="M17.25 1.485v13.5c0 1.975-.48 3.895-2.25 4.5-.952.326-2.467.868-2.711 1.844l-.3 1.186"/></svg>