<svg id="Regular" xmlns="http://www.w3.org/2000/svg" viewBox="0 0 24 24" width="24" height="24"><defs><style>.cls-1{fill:none;stroke:#000;stroke-linecap:round;stroke-linejoin:round;stroke-width:1.5px}</style></defs><title>pasta-bowl</title><path class="cls-1" d="M21.75 12a9.75 9.75 0 0 1-19.5 0zm-21 0h22.5m-21 10.5l3.242-3.242M21.75 22.5l-3.242-3.242M14.061 9A6 6 0 0 0 2.439 9m8.409 0a3 3 0 0 0-5.2 0m8.602-4.5a4.5 4.5 0 0 1 4.5 4.5m3 0a7.5 7.5 0 0 0-10.358-6.936"/><path class="cls-1" d="M12 14.625a.375.375 0 1 1-.375.375.375.375 0 0 1 .375-.375m-5.25 0a.375.375 0 1 1-.375.375.375.375 0 0 1 .375-.375m10.5 0a.375.375 0 1 1-.375.375.375.375 0 0 1 .375-.375m-7.5 3a.375.375 0 1 1-.375.375.375.375 0 0 1 .375-.375m4.5 0a.375.375 0 1 1-.375.375.375.375 0 0 1 .375-.375"/></svg>