<svg xmlns="http://www.w3.org/2000/svg" viewBox="0 0 24 24" width="24" height="24"><defs><style>.a{fill:none;stroke:#000;stroke-linecap:round;stroke-linejoin:round;stroke-width:1.5px}</style></defs><title>pathfinder-divide</title><path class="a" d="M17.25 6.75v9a1.5 1.5 0 0 1-1.5 1.5h-9v4.5a1.5 1.5 0 0 0 1.5 1.5h13.5a1.5 1.5 0 0 0 1.5-1.5V8.25a1.5 1.5 0 0 0-1.5-1.5zm-15-6a1.5 1.5 0 0 0-1.5 1.5m0 3V7.5m0 3v2.25m0 3a1.5 1.5 0 0 0 1.5 1.5m4.5 0h-1.5m0-16.5H7.5m3 0h2.25m3 0a1.5 1.5 0 0 1 1.5 1.5m0 4.5v-1.5"/></svg>