<svg xmlns="http://www.w3.org/2000/svg" viewBox="0 0 24 24" width="24" height="24"><defs><style>.a{fill:none;stroke:#000;stroke-linecap:round;stroke-linejoin:round;stroke-width:1.5px}</style></defs><title>pathfinder-exclude</title><path class="a" d="M8.25 6.75a1.5 1.5 0 0 0-1.5 1.5m4.5-1.5h1.5m3 0h1.5m-10.5 10.5v-1.5m0-4.5v1.5m10.5 3a1.5 1.5 0 0 1-1.5 1.5m1.5-4.5v-1.5m0-3v-1.5m-10.5 10.5h1.5m4.5 0h-1.5"/><path class="a" d="M17.25 6.75v-4.5a1.5 1.5 0 0 0-1.5-1.5H2.25a1.5 1.5 0 0 0-1.5 1.5v13.5a1.5 1.5 0 0 0 1.5 1.5h4.5v4.5a1.5 1.5 0 0 0 1.5 1.5h13.5a1.5 1.5 0 0 0 1.5-1.5V8.25a1.5 1.5 0 0 0-1.5-1.5z"/></svg>