<svg xmlns="http://www.w3.org/2000/svg" viewBox="0 0 24 24" width="24" height="24"><defs><style>.a{fill:none;stroke:#000;stroke-linecap:round;stroke-linejoin:round;stroke-width:1.5px}</style></defs><title>pathfinder-merge</title><path class="a" d="M17.25 6.75v-4.5a1.5 1.5 0 0 0-1.5-1.5H2.25a1.5 1.5 0 0 0-1.5 1.5v13.5a1.5 1.5 0 0 0 1.5 1.5h4.5m15 6a1.5 1.5 0 0 0 1.5-1.5m-7.5-4.5a1.5 1.5 0 0 0 1.5-1.5m6 3V16.5m0-3v-2.25m0-3a1.5 1.5 0 0 0-1.5-1.5m-4.5 0h1.5m0 16.5H16.5m-3 0h-2.25m-3 0a1.5 1.5 0 0 1-1.5-1.5m0-4.5v1.5m10.5-6v-1.5m0-3v-1.5m-4.5 10.5h-1.5m-3 0h-1.5"/></svg>