<svg xmlns="http://www.w3.org/2000/svg" viewBox="0 0 24 24" width="24" height="24"><defs><style>.a{fill:none;stroke:#000;stroke-linecap:round;stroke-linejoin:round;stroke-width:1.5px}</style></defs><title>pathfinder-intersect</title><path class="a" d="M7.75 6.75h9.5v9.5a1 1 0 0 1-1 1h-9.5v-9.5a1 1 0 0 1 1-1zm-7-4.5a1.5 1.5 0 0 1 1.5-1.5m3 0H7.5m3 0h2.25m3 0a1.5 1.5 0 0 1 1.5 1.5m0 4.5v-1.5m-16.5 0V7.5m0 3v2.25m0 3a1.5 1.5 0 0 0 1.5 1.5m4.5 0h-1.5m16.5 6a1.5 1.5 0 0 0 1.5-1.5m0-3V16.5m0-3v-2.25m0-3a1.5 1.5 0 0 0-1.5-1.5m-4.5 0h1.5m0 16.5H16.5m-3 0h-2.25m-3 0a1.5 1.5 0 0 1-1.5-1.5m0-4.5v1.5"/></svg>