<svg id="Regular" xmlns="http://www.w3.org/2000/svg" viewBox="0 0 24 24" width="24" height="24"><defs><style>.cls-1{fill:none;stroke:#000;stroke-linecap:round;stroke-linejoin:round;stroke-width:1.5px}</style></defs><title>peacock-head</title><path class="cls-1" d="M2.26 23.25C4.51 21 7.51 15 7.51 9.75a3.75 3.75 0 0 1 7.5 0 9.1 9.1 0 0 1-.75 3.75l-.055.109"/><path class="cls-1" d="M12.76 23.25v-7.5c0-2.25 3-3 6-3h3a4 4 0 0 0-3.75-3c-3 0-3.075-.75-3.075-.75m-3.3.75a.375.375 0 0 1 .375.375m-.75 0a.375.375 0 0 1 .375-.375m0 .75a.375.375 0 0 1-.375-.375m.75 0a.375.375 0 0 1-.375.375M3.101 6.75H9.01V.842m-6 7.408c0-5.25 3-7.5 7.5-7.5M4.929 2.669L9.01 6.75"/></svg>