<svg id="Regular" xmlns="http://www.w3.org/2000/svg" viewBox="0 0 24 24" width="24" height="24"><defs><style>.cls-1{fill:none;stroke:#000;stroke-linecap:round;stroke-linejoin:round;stroke-width:1.5px}</style></defs><title>peacock-feathers</title><path class="cls-1" d="M15.385 8.375a3.375 3.375 0 0 1-6.75 0C8.635 5 11.635 2 12.01 2s3.375 3 3.375 6.375zM12.01 8a.375.375 0 0 1 .375.375m-.75 0A.375.375 0 0 1 12.01 8m0 .75a.375.375 0 0 1-.375-.375m.75 0a.375.375 0 0 1-.375.375m-4.24 5.237A3.375 3.375 0 0 1 3 18.76C.611 16.374.611 12.131.876 11.866s4.508-.266 6.894 2.121zm-2.651 2.122a.374.374 0 0 1 .53 0m-.53.53a.374.374 0 0 1 0-.53m.53.53a.375.375 0 0 1-.53 0m.53-.53a.375.375 0 0 1 0 .53m10.601-2.652a3.375 3.375 0 0 0 4.773 4.773c2.386-2.386 2.386-6.629 2.121-6.894s-4.508-.266-6.894 2.121zm2.65 2.122a.374.374 0 0 0-.53 0m.53.53a.374.374 0 0 0 0-.53m-.529.53a.375.375 0 0 0 .53 0m-.53-.53a.375.375 0 0 0 0 .53m3.567-8.201c1.956-2.751 1.249-6.934.943-7.151-.265-.189-3.454.319-5.569 2.257m2.228 2.715a.376.376 0 0 0-.506.161m.666.345a.376.376 0 0 0-.16-.506m-.34.666a.374.374 0 0 0 .5-.16m-.666-.345a.375.375 0 0 0 .161.5M2.082 8.438C.126 5.687.833 1.5 1.139 1.287c.261-.187 3.454.319 5.569 2.257M4.48 6.259a.376.376 0 0 1 .506.161m-.666.345a.375.375 0 0 1 .16-.506m.345.666a.374.374 0 0 1-.5-.16m.661-.345a.375.375 0 0 1-.161.5"/><path class="cls-1" d="M7.77 18.76L12.01 23l4.24-4.24M12.01 23V11.75"/></svg>