<svg id="Regular" xmlns="http://www.w3.org/2000/svg" viewBox="0 0 24 24" width="24" height="24"><defs><style>.cls-1{fill:none;stroke:#000;stroke-linecap:round;stroke-linejoin:round;stroke-width:1.5px}</style></defs><title>peacock-feather</title><path class="cls-1" d="M10.951 2.66A3.772 3.772 0 0 1 6.861 9C5.11 7.869 1.544 3.324 1.51 1.057 3.589.154 9.2 1.53 10.951 2.66zm-2.36 2.966a.375.375 0 0 1 .518-.112m-.409.63a.374.374 0 0 1-.111-.518m.632.406a.376.376 0 0 1-.519.112m.407-.63a.375.375 0 0 1 .112.518m2.833 1.877c7.2 4.493 8.76 11.5 9.529 15.341"/><path class="cls-1" d="M11.083 12.75a5.875 5.875 0 0 0 5.25-1.5c2.25-2.25.75-5.25.75-5.25m-4.304 9.3a5.875 5.875 0 0 0 5.437-.5c2.629-1.793 1.712-5.019 1.712-5.019m-5.269 8.999a5.874 5.874 0 0 0 5.459-.123c2.746-1.608 2.053-4.89 2.053-4.89"/></svg>