<svg id="Regular" xmlns="http://www.w3.org/2000/svg" viewBox="0 0 24 24" width="24" height="24"><defs><style>.cls-1{fill:none;stroke:#000;stroke-linecap:round;stroke-linejoin:round;stroke-width:1.5px}</style></defs><title>peacock-feathers-up</title><path class="cls-1" d="M14.26 8.875A2.19 2.19 0 0 1 12.01 11c-1.243 0-4.5-2.125-4.5-2.125s3.257-2.125 4.5-2.125a2.19 2.19 0 0 1 2.25 2.125z"/><path class="cls-1" d="M13.179 10.691a17.092 17.092 0 0 1 1.831 6.559 3 3 0 0 1-6 0 17.1 17.1 0 0 1 1.83-6.558m-.242 9.206L9.76 23.25m-.75 0h1.5m2.912-3.352l.838 3.352m-.75 0h1.5"/><path class="cls-1" d="M18.01 18.75H21a11.25 11.25 0 1 0-17.97 0h2.98M.777 12.628l5.233.872M8.213 1.407L9.76 4.5M2.648 5.759L5.26 7.5m17.983 5.128l-5.233.872M15.807 1.407L14.26 4.5m7.111 1.259L16.51 9"/></svg>