<svg xmlns="http://www.w3.org/2000/svg" viewBox="0 0 24 24" width="24" height="24"><g fill="none" stroke="#000" stroke-linejoin="round" stroke-miterlimit="10"><path d="M11.149 6c2.83 0 3.432 2.42 4.059 4.937.608 2.44 4.091 3.146 4.091 7.232 0 4.088-4.062 5.347-8.149 5.347S3 22.257 3 18.169c0-4.087 3.482-4.792 4.091-7.232C7.717 8.42 8.319 6 11.149 6z"/><path stroke-linecap="round" d="M11.149 6v-.5c0-1.102-.9-2-2-2h-2"/><path d="M13.149 5c2.485 0 4.5-2.016 4.5-4.5a4.5 4.5 0 00-4.5 4.5z"/></g><path fill="none" d="M0 0h24v24H0z"/></svg>