<svg xmlns="http://www.w3.org/2000/svg" viewBox="0 0 24 24" width="24" height="24"><g fill="none" stroke="#000" stroke-linejoin="round" stroke-miterlimit="10"><path d="M.5 11.5h7v9h-7zm16 0h7v9h-7zm-9-5h9v14h-9zm9 2H22l1.5 3h-7zm-9 0H2l-1.5 3h7zm0-2l1.5-3h6l1.5 3z"/><path stroke-linecap="round" d="M12.5 15.895V11l-1.5.56m-7.871 3.419a.937.937 0 01.936-.895.935.935 0 01.755 1.483L3.117 18H4.99"/><g stroke-linecap="round"><path d="M19 14.936c.017-.365.184-.936.936-.936.796 0 .936.642.936.999s-.14 1-.936 1"/><path d="M19 17.064c.017.364.184.936.936.936.796 0 .936-.644.936-1.001 0-.356-.14-1-.936-1"/></g></g><path fill="none" d="M0 0h24v24H0z"/></svg>