<svg xmlns="http://www.w3.org/2000/svg" viewBox="0 0 24 24" width="24" height="24"><defs><style>.a{fill:none;stroke:#000;stroke-linecap:round;stroke-linejoin:round;stroke-width:1.5px}</style></defs><title>pen-write</title><path class="a" d="M8.492 11.265l-1.06 4.243 4.242-1.061 6.364-6.364-3.182-3.182-6.364 6.364zm13.259-6.894l1.06 1.06a1.5 1.5 0 0 1 0 2.122l-3.311 3.31m-1.462-2.78l3.713-3.712a1.5 1.5 0 0 0 0-2.121L20.69 1.189a1.5 1.5 0 0 0-2.121 0L14.856 4.9"/><path class="a" d="M18.75 14.25v7.5a1.5 1.5 0 0 1-1.5 1.5h-15a1.5 1.5 0 0 1-1.5-1.5v-15a1.5 1.5 0 0 1 1.5-1.5h7.5"/></svg>