<svg xmlns="http://www.w3.org/2000/svg" viewBox="0 0 24 24" width="24" height="24"><defs><style>.a{fill:none;stroke:#000;stroke-linecap:round;stroke-linejoin:round;stroke-width:1.5px}</style></defs><title>people-woman-8</title><path class="a" d="M21.449 23.25a10.483 10.483 0 0 0-18.952 0m11.726 0l2.034-5.086m-8.568 0l2.034 5.086m7.5-15.75v2.25h-10.5V7.5"/><path class="a" d="M6.777 9.75a5.25 5.25 0 1 0 10.446.75 5.142 5.142 0 0 0-.054-.75zm7.446 0v-1.5m-4.5 1.5v-1.5"/><circle class="a" cx="17.223" cy="3" r="2.25"/><path class="a" d="M20.223 21.274V9a8.228 8.228 0 0 0-.311-2.25M13.473.886A8.257 8.257 0 0 0 3.723 9v12.274"/></svg>