<svg xmlns="http://www.w3.org/2000/svg" viewBox="0 0 24 24" width="24" height="24"><defs><style>.a{fill:none;stroke:#000;stroke-linecap:round;stroke-linejoin:round;stroke-width:1.5px}</style></defs><title>people-woman-4</title><path class="a" d="M11.974 5.25s-1.434 3.6-5.031 3.745a5.251 5.251 0 1 0 10.057 0c-3.593-.148-5.026-3.745-5.026-3.745z"/><path class="a" d="M16.718 12.75h2a1.5 1.5 0 0 0 1.5-1.5v-1.9A8.491 8.491 0 0 0 12.784.788 8.253 8.253 0 0 0 3.723 9v2.25a1.5 1.5 0 0 0 1.5 1.5h2.006"/><ellipse class="a" cx="5.223" cy="15" rx="1.5" ry="2.25"/><ellipse class="a" cx="18.723" cy="15" rx="1.5" ry="2.25"/><path class="a" d="M21.449 23.25a10.567 10.567 0 0 0-1.923-2.78m-15.105 0A10.567 10.567 0 0 0 2.5 23.25m14.726-4.588a10.475 10.475 0 0 0-10.5 0"/><path class="a" d="M6.723 18.75c0 .828-1.5 3-1.5 3s-1.5-2.172-1.5-3a1.5 1.5 0 0 1 3 0zm10.5 0c0 .828 1.5 3 1.5 3s1.5-2.172 1.5-3a1.5 1.5 0 0 0-3 0zm-9.059-.785v.785a3.75 3.75 0 0 0 7.5 0v-.831"/></svg>