<svg xmlns="http://www.w3.org/2000/svg" viewBox="0 0 24 24" width="24" height="24"><defs><style>.a{fill:none;stroke:#000;stroke-linecap:round;stroke-linejoin:round;stroke-width:1.5px}</style></defs><title>people-woman-glasses-6</title><path class="a" d="M17.809 19.026A14.616 14.616 0 0 0 21.2 18.02a1.5 1.5 0 0 0 .762-1.961l-1.375-3.21a4.486 4.486 0 0 1-.364-1.773V9a8.25 8.25 0 1 0-16.5 0v2.076a4.5 4.5 0 0 1-.364 1.773l-1.376 3.21a1.5 1.5 0 0 0 .762 1.961 14.616 14.616 0 0 0 3.391 1.006m15.313 4.224a10.483 10.483 0 0 0-18.952 0m11.726 0l2.034-5.086m-8.569 0l2.035 5.086"/><path class="a" d="M17.169 9.75A5.256 5.256 0 0 0 17 8.995a5.152 5.152 0 0 1-3.042-1.144 7.033 7.033 0 0 1-1.988-2.6 7.043 7.043 0 0 1-1.989 2.6 5.149 5.149 0 0 1-3.039 1.144 5.256 5.256 0 0 0-.166.755m.929 3.808a5.25 5.25 0 0 0 8.535 0"/><path class="a" d="M11.973 9.75h-6a3.342 3.342 0 0 0 1.5 3.75c1.839.517 3.927-.218 4.5-3.75z"/><path class="a" d="M11.973 9.75h6a3.344 3.344 0 0 1-1.5 3.75c-1.839.517-3.924-.218-4.5-3.75z"/></svg>