<svg xmlns="http://www.w3.org/2000/svg" viewBox="0 0 24 24" width="24" height="24"><defs><style>.a{fill:none;stroke:#000;stroke-linecap:round;stroke-linejoin:round;stroke-width:1.5px}</style></defs><title>people-man-3</title><path class="a" d="M21.279 23.25a9.753 9.753 0 0 0-18.558 0m5.529-6.003a3.75 3.75 0 0 0 7.5 0m4.5-8.997c0 4.142-4.108 6-8.25 6s-8.25-1.858-8.25-6S7.5.75 12 .75s8.25 3.358 8.25 7.5z"/><path class="a" d="M12 8.25c-1.429 0-1.54-.5-2.571-1.335a.751.751 0 0 0-1.179.333c-1.2 3.406.124 7 3.75 7s4.955-3.6 3.75-7a.751.751 0 0 0-1.179-.333C13.54 7.75 13.429 8.25 12 8.25z"/></svg>