<svg xmlns="http://www.w3.org/2000/svg" viewBox="0 0 24 24" width="24" height="24"><defs><style>.a{fill:none;stroke:#000;stroke-linecap:round;stroke-linejoin:round;stroke-width:1.5px}</style></defs><title>people-man-beard-1</title><path class="a" d="M7.477 3.334A8.711 8.711 0 0 0 13.751 6a8.709 8.709 0 0 0 3.449-.711"/><path class="a" d="M17.25 6v5.25a5.25 5.25 0 0 1-10.5 0V6a5.25 5.25 0 1 1 10.5 0z"/><path class="a" d="M17.251 6.75c0 1.522-1.215 4.683-2.25 5.25-.937.512-1.622-1.5-3-1.5S9.938 12.512 9 12c-1.035-.567-2.25-3.728-2.25-5.25m14.885 16.5a9.763 9.763 0 0 0-6.55-7.752m-6.17.002a9.763 9.763 0 0 0-6.55 7.752"/></svg>