<svg xmlns="http://www.w3.org/2000/svg" viewBox="0 0 24 24" width="24" height="24"><defs><style>.a{fill:none;stroke:#000;stroke-linecap:round;stroke-linejoin:round;stroke-width:1.5px}</style></defs><title>people-man-10</title><path class="a" d="M8.251 17.249V18a3.75 3.75 0 0 0 7.5 0v-.751m5.529 6.001a9.753 9.753 0 0 0-18.558 0M12 7.5c-1.97 0-3 1.5-5.1.249a5.251 5.251 0 1 0 10.2 0C15 9 13.97 7.5 12 7.5z"/><path class="a" d="M17.1 7.749l.118-5.467a1.5 1.5 0 0 0-1.5-1.532H8.283a1.5 1.5 0 0 0-1.5 1.532L6.9 7.749M9.751.75v3m4.5-3v3"/></svg>