<svg xmlns="http://www.w3.org/2000/svg" viewBox="0 0 24 24" width="24" height="24"><defs><style>.a{fill:none;stroke:#000;stroke-linecap:round;stroke-linejoin:round;stroke-width:1.5px}</style></defs><title>people-woman-cap-3</title><circle class="a" cx="12" cy="6" r="5.25"/><path class="a" d="M6.804 6.75h10.393m-5.947-3h1.5m-1.5 13.49v6.01m4.125-3.75a.375.375 0 1 0 .375.375.375.375 0 0 0-.375-.375m.298-5.329a3.75 3.75 0 0 1-7.4 0M6.8 6.75S6.75 10.5 3.75 12M17.2 6.75s.05 3.75 3.05 5.25m2.196 11.25a10.5 10.5 0 0 0-20.946 0"/></svg>