<svg xmlns="http://www.w3.org/2000/svg" viewBox="0 0 24 24" width="24" height="24"><defs><style>.a{fill:none;stroke:#000;stroke-linecap:round;stroke-linejoin:round;stroke-width:1.5px}</style></defs><title>people-woman-13</title><path class="a" d="M6.728 9.875a3.346 3.346 0 0 0 1.871.567 3.744 3.744 0 0 0 3.375-2.625 3.744 3.744 0 0 0 3.375 2.625 3.346 3.346 0 0 0 1.871-.567m-8.996 8.381v.811c0 2.071 3.75 4.154 3.75 4.154s3.75-2.083 3.75-4.154v-.811m5.566 4.965a10.5 10.5 0 0 0-18.632 0M7.441 7.417a5.25 5.25 0 1 0 9.1.051M6.279.843a.75.75 0 0 0-1.055.686v3.692a.75.75 0 0 0 1.055.685l5.7-2.531z"/><path class="a" d="M17.669.843a.75.75 0 0 1 1.055.686v3.692a.75.75 0 0 1-1.055.685l-5.695-2.531z"/></svg>