<svg xmlns="http://www.w3.org/2000/svg" viewBox="0 0 24 24" width="24" height="24"><defs><style>.a{fill:none;stroke:#000;stroke-linecap:round;stroke-linejoin:round;stroke-width:1.5px}</style></defs><title>people-man-glasses-1</title><circle class="a" cx="12" cy="6.75" r="6"/><path class="a" d="M2.25 23.25A9.756 9.756 0 0 1 9 13.97l3 2.53 3-2.53a9.753 9.753 0 0 1 6.751 9.28"/><path class="a" d="M17.654 15.306A9.71 9.71 0 0 0 15 13.97l-3 2.53 4.5 3zM12 16.5l-3-2.53a9.726 9.726 0 0 0-2.653 1.336L7.5 19.5z"/><circle class="a" cx="9.75" cy="6.75" r="1.5"/><circle class="a" cx="14.25" cy="6.75" r="1.5"/><path class="a" d="M4.5 6.75h3.75m7.5 0h3.75M12 23.25V16.5"/></svg>