<svg xmlns="http://www.w3.org/2000/svg" viewBox="0 0 24 24" width="24" height="24"><defs><style>.a{fill:none;stroke:#000;stroke-linecap:round;stroke-linejoin:round;stroke-width:1.5px}</style></defs><title>people-woman-beanie</title><circle class="a" cx="11.973" cy="7.5" r="5.25"/><path class="a" d="M5.973 8.25h12m-6-7.5a.375.375 0 1 0 .375.375.375.375 0 0 0-.375-.375m2.941 18a2.25 2.25 0 1 0 0-4.5h-6a2.25 2.25 0 0 0 0 4.5zm-6.691 0v4.5m3-4.5v4.5m10.385 0a9.763 9.763 0 0 0-4.442-6.75M6.7 16.55a9.757 9.757 0 0 0-4.357 6.7m4.433-15s.7 2.25-2.3 3.75M17.17 8.25s-.7 2.25 2.3 3.75"/></svg>