<svg xmlns="http://www.w3.org/2000/svg" viewBox="0 0 24 24" width="24" height="24"><defs><style>.a{fill:none;stroke:#000;stroke-linecap:round;stroke-linejoin:round;stroke-width:1.5px}</style></defs><title>people-woman-glasses-1</title><path class="a" d="M21.449 23.25a10.483 10.483 0 0 0-18.952 0m11.726 0l2.034-5.086m-8.568 0l2.034 5.086"/><path class="a" d="M11.973 5.25s-1.433 3.6-5.031 3.745a5.25 5.25 0 1 0 10.058 0c-3.593-.148-5.027-3.745-5.027-3.745zm5.836 13.777A14.652 14.652 0 0 0 21.2 18.02a1.5 1.5 0 0 0 .762-1.961l-1.376-3.21a4.505 4.505 0 0 1-.364-1.774V9a8.218 8.218 0 0 0-1.987-5.37m-12.524 0A8.213 8.213 0 0 0 3.723 9v2.075a4.505 4.505 0 0 1-.364 1.774l-1.376 3.21a1.5 1.5 0 0 0 .763 1.961 14.625 14.625 0 0 0 3.391 1.007M12.723.75h-1.5"/><path class="a" d="M11.223.75h-6a3.342 3.342 0 0 0 1.5 3.75c1.839.517 3.923-.218 4.5-3.75zm1.5 0h6a3.342 3.342 0 0 1-1.5 3.75c-1.839.517-3.923-.218-4.5-3.75z"/></svg>