<svg xmlns="http://www.w3.org/2000/svg" viewBox="0 0 24 24" width="24" height="24"><defs><style>.a{fill:none;stroke:#000;stroke-linecap:round;stroke-linejoin:round;stroke-width:1.5px}</style></defs><title>people-woman-ribbon</title><path class="a" d="M21.449 23.25a10.484 10.484 0 0 0-18.953 0m4.28-12a5.25 5.25 0 0 0 10.393 0"/><path class="a" d="M3.723 10.5v.576a4.5 4.5 0 0 1-.364 1.773l-1.376 3.21a1.5 1.5 0 0 0 .762 1.961 14.607 14.607 0 0 0 3.391 1.007m11.673 0A14.607 14.607 0 0 0 21.2 18.02a1.5 1.5 0 0 0 .762-1.961l-1.376-3.21a4.5 4.5 0 0 1-.363-1.773V10.5M17.677.811l-3.816 2.467a2.244 2.244 0 0 1 0 2.443l3.815 2.467a.75.75 0 0 0 1.047-.688v-6a.75.75 0 0 0-1.046-.689zM9.723 4.5a2.231 2.231 0 0 1 .361-1.222L6.268.811a.75.75 0 0 0-1.045.689v6a.75.75 0 0 0 1.045.689l3.815-2.467a2.238 2.238 0 0 1-.36-1.222z"/><circle class="a" cx="11.973" cy="4.5" r="2.25"/><path class="a" d="M9.723 23.25l-2.575-4.834m7.075 4.834l2.574-4.834"/></svg>