<svg xmlns="http://www.w3.org/2000/svg" viewBox="0 0 24 24" width="24" height="24"><defs><style>.a{fill:none;stroke:#000;stroke-linecap:round;stroke-linejoin:round;stroke-width:1.5px}</style></defs><title>people-woman-5</title><path class="a" d="M7.936 15.223v.877c0 2.23 4.038 4.9 4.038 4.9s4.038-2.674 4.038-4.9v-.873M6.324 6.2a3.611 3.611 0 0 0 2.015.61c2.008 0 3.635-2.019 3.635-2.827 0 .808 1.627 2.827 3.635 2.827a3.611 3.611 0 0 0 2.015-.61"/><circle class="a" cx="11.974" cy="6.404" r="5.654"/><path class="a" d="M23 23.25a11.31 11.31 0 0 0-22.042 0m5.66-18.662A3.229 3.229 0 0 0 1.5 7.211c0 1.784 1.551 7.269 1.551 7.269a40.417 40.417 0 0 0 4.124-5.087m10.213-4.805A3.229 3.229 0 0 1 22.5 7.211c0 1.784-1.679 7.269-1.679 7.269A47.227 47.227 0 0 1 16.8 9.352"/></svg>