<svg xmlns="http://www.w3.org/2000/svg" viewBox="0 0 24 24" width="24" height="24"><defs><style>.a{fill:none;stroke:#000;stroke-linecap:round;stroke-linejoin:round;stroke-width:1.5px}</style></defs><title>people-woman-7</title><path class="a" d="M3.724 10.5a.75.75 0 0 0 .75.75h2.25v-4.5h-2.25a.75.75 0 0 0-.75.75zm15.75.75h-2.25v-4.5h2.25a.75.75 0 0 1 .75.75v3a.75.75 0 0 1-.75.75zm-.792-4.5a6.75 6.75 0 0 0-13.416 0m2.958 10.439V18a3.75 3.75 0 0 0 7.5 0v-.811M6.728 8.808a3.349 3.349 0 0 0 1.872.567 3.744 3.744 0 0 0 3.374-2.625 3.744 3.744 0 0 0 3.375 2.625 3.346 3.346 0 0 0 1.871-.567"/><circle class="a" cx="11.974" cy="9" r="5.25"/><path class="a" d="M21.784 23.25a10.5 10.5 0 0 0-19.619 0m4.559-12a5.329 5.329 0 0 1-3 4.5m13.5-4.5a5.329 5.329 0 0 0 3 4.5"/></svg>