<svg xmlns="http://www.w3.org/2000/svg" viewBox="0 0 24 24" width="24" height="24"><defs><style>.a{fill:none;stroke:#000;stroke-linecap:round;stroke-linejoin:round;stroke-width:1.5px}</style></defs><title>people-woman-10</title><path class="a" d="M8.825 13.982a10.4 10.4 0 0 0-2.746 1.334L7.473 19.5l4.5-3zm6.296 0L11.973 16.5l4.5 3 1.394-4.184a10.4 10.4 0 0 0-2.746-1.334z"/><path class="a" d="M22.446 23.25a10.508 10.508 0 0 0-7.325-9.27l-3.148 2.52-3.148-2.518A10.508 10.508 0 0 0 1.5 23.25M6.727 5.808a3.353 3.353 0 0 0 1.873.566c1.864 0 3.938-1.875 3.938-2.625m-.565-3a5.25 5.25 0 1 0 3.963 8.693"/><path class="a" d="M11.973.749c0 5.25 4.5 6.75 4.5 11.25 0 0 1.5-.75 1.5-6 0-4.499-3.75-5.25-6-5.25z"/></svg>