<svg xmlns="http://www.w3.org/2000/svg" viewBox="0 0 24 24" width="24" height="24"><g fill="none" stroke="#000" stroke-linecap="round" stroke-linejoin="round" stroke-miterlimit="10"><path d="M17.5 21.5c0-1-1-2-2-2h-8c-1 0-2 1-2 2v2h12v-2zm-2-16V8c-1.333 3.667-1.333 5.333 0 9v2.5m-8-14V8c1.333 3.667 1.333 5.333 0 9v2.5M17.5 4c0-.825-.675-1.5-1.5-1.5H7c-.825 0-1.5.675-1.5 1.5h0c0 .825.675 1.5 1.5 1.5h9c.825 0 1.5-.675 1.5-1.5h0z"/><circle cx="11.5" cy="1.5" r="1"/><path d="M7.5 7.5h8m-8 10h8"/></g><path fill="none" d="M0 0h24v24H0z"/></svg>