<svg xmlns="http://www.w3.org/2000/svg" viewBox="0 0 24 24" width="24" height="24"><g fill="none" stroke="#000" stroke-linecap="round" stroke-linejoin="round" stroke-miterlimit="10"><path d="M8 16l8-8"/><circle cx="9" cy="9" r="1.5"/><circle cx="15" cy="15" r="1.5"/><path d="M.5 22.5v1h1m21 0h1v-1m-23-21v-1h1m21 0h1v1m-20 22h1m7 0h1m-5 0h1m7 0h1m3 0h1M3.5.5h1m7 0h1m-5 0h1m7 0h1m3 0h1m3 20v-1m0-7v-1m0 5v-1m0-7v-1m0-3v-1m-23 17v-1m0-7v-1m0 5v-1m0-7v-1m0-3v-1"/></g><path fill="none" d="M0 0h24v24H0z"/></svg>