<svg xmlns="http://www.w3.org/2000/svg" viewBox="0 0 24 24" width="24" height="24"><defs><style>.a{fill:none;stroke:#000;stroke-linecap:round;stroke-linejoin:round;stroke-width:1.5px}</style></defs><title>performance-money-increase</title><path class="a" d="M21.75.75L14.4 8.1a1.5 1.5 0 0 1-1.933.16L9.173 5.909a1.5 1.5 0 0 0-1.809.049L.75 11.25"/><path class="a" d="M15.75.75h6v6"/><rect class="a" x="14.25" y="20.25" width="9" height="3" rx=".75" ry=".75"/><rect class="a" x="2.25" y="20.25" width="9" height="3" rx=".75" ry=".75"/><rect class="a" x=".75" y="17.25" width="9" height="3" rx=".75" ry=".75"/><rect class="a" x="2.25" y="14.25" width="9" height="3" rx=".75" ry=".75"/><rect class="a" x="12.75" y="17.25" width="9" height="3" rx=".75" ry=".75"/><rect class="a" x="14.25" y="14.25" width="9" height="3" rx=".75" ry=".75"/><rect class="a" x="14.25" y="11.25" width="9" height="3" rx=".75" ry=".75"/></svg>