<svg xmlns="http://www.w3.org/2000/svg" viewBox="0 0 24 24" width="24" height="24"><defs><style>.a{fill:none;stroke:#000;stroke-linecap:round;stroke-linejoin:round;stroke-width:1.5px}</style></defs><title>performance-decrease</title><path class="a" d="M23.25 23.25H.75m17.25-6h3a.75.75 0 0 1 .75.75v5.25h-4.5V18a.75.75 0 0 1 .75-.75zm-7.5-4.5h3a.75.75 0 0 1 .75.75v9.75h-4.5V13.5a.75.75 0 0 1 .75-.75zm-7.5-3h3a.75.75 0 0 1 .75.75v12.75h-4.5V10.5A.75.75 0 0 1 3 9.75zm1.5-9l16.068 7.297m-1.194-3.181l1.194 3.181-3.181 1.194"/></svg>