<svg xmlns="http://www.w3.org/2000/svg" viewBox="0 0 24 24" width="24" height="24"><defs><style>.a{fill:none;stroke:#000;stroke-linecap:round;stroke-linejoin:round;stroke-width:1.5px}</style></defs><title>performance-presentation-graph</title><path class="a" d="M3.75 11.7l1.833-1.834a.972.972 0 0 1 1.374 0L8.1 11.012a.972.972 0 0 0 1.374 0L12.2 8.291a.972.972 0 0 1 1.374 0l2.091 2.091a.972.972 0 0 0 1.374 0L20.25 7.2M11.808.75v1.438"/><rect class="a" x=".75" y="2.188" width="22.5" height="15.75" rx="1" ry="1"/><path class="a" d="M12 17.938v3m-3.079 2.309L12 20.938l3.076 2.307"/></svg>