<svg xmlns="http://www.w3.org/2000/svg" viewBox="0 0 24 24" width="24" height="24"><defs><style>.a{fill:none;stroke:#000;stroke-linecap:round;stroke-linejoin:round;stroke-width:1.5px}</style></defs><title>performance-increase-mail</title><path class="a" d="M22.5 11.25v10.5a1.5 1.5 0 0 1-1.5 1.5H3a1.5 1.5 0 0 1-1.5-1.5v-10.5"/><path class="a" d="M1.805 10.742l8.342 6.617a3 3 0 0 0 3.706 0l8.347-6.617m-3.616-5.694l.916-3.383L16.118.75"/><path class="a" d="M19.5 1.665l-5.055 2.9a.778.778 0 0 1-1.063-.287l-1.144-1.992A.778.778 0 0 0 11.176 2L6.6 4.626m10.65 10.038V8.25a.75.75 0 0 0-.75-.75h-2.25a.75.75 0 0 0-.75.75v9.35m-3 0V9.75A.75.75 0 0 0 9.75 9H7.5a.75.75 0 0 0-.75.75v4.914M1.5 11.25L3.75 7.5m18.75 3.75L20.25 7.5"/></svg>