<svg xmlns="http://www.w3.org/2000/svg" viewBox="0 0 24 24" width="24" height="24"><defs><style>.a{fill:none;stroke:#000;stroke-linecap:round;stroke-linejoin:round;stroke-width:1.5px}</style></defs><title>performance-presentation-cart</title><path class="a" d="M12 .75v1.438"/><rect class="a" x=".75" y="2.188" width="22.5" height="15.75" rx="1" ry="1"/><path class="a" d="M12 17.938v3m-3.078 2.309L12 20.938l3.079 2.31M17.625 4.5l-2.25 7.5h-6l-1.5-4.5h8.85M9.75 14.25a.375.375 0 1 1-.375.375.375.375 0 0 1 .375-.375m5.25 0a.375.375 0 1 1-.375.375.375.375 0 0 1 .375-.375"/></svg>