<svg xmlns="http://www.w3.org/2000/svg" viewBox="0 0 24 24" width="24" height="24"><defs><style>.a{fill:none;stroke:#000;stroke-linecap:round;stroke-linejoin:round;stroke-width:1.5px}</style></defs><title>performance-phone-increase</title><path class="a" d="M21.75 9.625l-.579-3.456-3.456.579"/><path class="a" d="M21.171 6.169l-3.384 4.745a.777.777 0 0 1-1.087.186l-1.87-1.333a.779.779 0 0 0-1.086.182l-3.064 4.3"/><path class="a" d="M15.75 14.992v5.25a3 3 0 0 1-3 3h-7.5a3 3 0 0 1-3-3v-16.5a3 3 0 0 1 3-3h7.5a3 3 0 0 1 3 3m-13.5 15h13.5"/></svg>