<svg xmlns="http://www.w3.org/2000/svg" viewBox="0 0 24 24" width="24" height="24"><defs><style>.a{fill:none;stroke:#000;stroke-linecap:round;stroke-linejoin:round;stroke-width:1.5px}</style></defs><title>performance-increase</title><path class="a" d="M.75 23.25h22.5M6 17.25H3a.75.75 0 0 0-.75.75v5.25h4.5V18a.75.75 0 0 0-.75-.75zm7.5-4.5h-3a.75.75 0 0 0-.75.75v9.75h4.5V13.5a.75.75 0 0 0-.75-.75zm7.5-3h-3a.75.75 0 0 0-.75.75v12.75h4.5V10.5a.75.75 0 0 0-.75-.75zM4.182 9.241L20.25 1.944m-1.194 3.182l1.194-3.182L17.068.75"/></svg>