<svg xmlns="http://www.w3.org/2000/svg" viewBox="0 0 24 24" width="24" height="24"><defs><style>.a{fill:none;stroke:#000;stroke-linecap:round;stroke-linejoin:round;stroke-width:1.5px}</style></defs><title>performance-increase-2</title><path class="a" d="M.75 23.25H22.5m-19.75-4.5H5.5a.5.5 0 0 1 .5.5v4H2.25v-4a.5.5 0 0 1 .5-.5zm7.5-9H13a.5.5 0 0 1 .5.5v13H9.75v-13a.5.5 0 0 1 .5-.5zm7.5 4.5h2.75a.5.5 0 0 1 .5.5v8.5h-3.75v-8.5a.5.5 0 0 1 .5-.5zm4-9V.75h-4.5"/><path class="a" d="M21.75.75L16.7 5.8a2.249 2.249 0 0 1-2.237.564L8.754 4.838a2.251 2.251 0 0 0-2.172.583L.75 11.253"/></svg>