<svg xmlns="http://www.w3.org/2000/svg" viewBox="0 0 24 24" width="24" height="24"><defs><style>.a{fill:none;stroke:#000;stroke-linecap:round;stroke-linejoin:round;stroke-width:1.5px}</style></defs><title>performance-graph-calculator</title><path class="a" d="M8.25 15.75H1.714a.952.952 0 0 1-.964-.938V1.687A.951.951 0 0 1 1.714.75h18.322a.951.951 0 0 1 .964.937V5.25m-5.625 12a.375.375 0 1 1-.375.375.375.375 0 0 1 .375-.375m3.75 0a.375.375 0 1 1-.375.375.375.375 0 0 1 .375-.375m-3.75 3a.375.375 0 1 1-.375.375.375.375 0 0 1 .375-.375m3.75 0a.375.375 0 1 1-.375.375.375.375 0 0 1 .375-.375m1.125-6.5c0 .353-.214.5-.429.5h-5.142c-.215 0-.428-.164-.428-.518V11.75c0-.354.214-.5.429-.5h5.142c.215 0 .429.146.429.5z"/><rect class="a" x="11.25" y="8.25" width="12" height="15" rx="1.16" ry="1.16"/><path class="a" d="M3.75 8.25L6 6l3 1.5 3.75-3.75"/><path class="a" d="M10.5 3.75h2.25V6"/></svg>