<svg xmlns="http://www.w3.org/2000/svg" viewBox="0 0 24 24" width="24" height="24"><g fill="none" stroke="#000" stroke-linecap="round" stroke-linejoin="round" stroke-miterlimit="10"><path d="M14.677 2l2.031 2.029c1.141 1.142.352 3.813-1.797 5.963-2.146 2.146-4.09 2.292-5.273 1.108L7.96 9.424"/><path d="M10.442 11.648l-8.269 8.253a1.5 1.5 0 002.12 2.121l6.343-6.342c3.917 1.772 12.005-6.396 10.728-10.229-.502-1.509-2.59-2.152-3.634-1.106l-.558.557m-4.311 6.59L8.313 6.95m6.236 3.388l-4.95-4.932m6.28 3.45l-4.867-4.864m5.887 3.059l-4.342-4.345"/></g><path fill="none" d="M0 0h24v24H0z"/></svg>