<svg id="Regular" xmlns="http://www.w3.org/2000/svg" viewBox="0 0 24 24" width="24" height="24"><defs><style>.cls-1{fill:none;stroke:#000;stroke-linecap:round;stroke-linejoin:round;stroke-width:1.5px}</style></defs><title>pet-tracking-dog-search</title><path class="cls-1" d="M9 12H5.25a3 3 0 0 1-3-3V7.5a3 3 0 0 1 3-3h7.65a3.006 3.006 0 0 0 2.555-1.425 5.931 5.931 0 0 0 .456-.917A2.253 2.253 0 0 1 18 .75c1.5 0 2.25 1.758 2.25 3a.75.75 0 0 0 .75.75h.75a1.5 1.5 0 0 1 0 3H19.5l-.75.75m-18-6s0 3.25 2.533 2.985m.467 6.364v4.902m3-4.501v4.501m10.5-9l-3.145-3.254"/><circle class="cls-1" cx="15.75" cy="15.751" r="5.25"/><path class="cls-1" d="M23.25 23.251l-3.788-3.788"/></svg>