<svg xmlns="http://www.w3.org/2000/svg" viewBox="0 0 24 24" width="24" height="24"><g fill="none" stroke="#000" stroke-linecap="round" stroke-linejoin="round" stroke-miterlimit="10"><path d="M23.5 8.572c0 2.151-5.116 3.928-11.467 3.928C5.681 12.5.5 10.724.5 8.572S5.681 4.5 12.033 4.5c6.35 0 11.467 1.92 11.467 4.072z"/><path d="M3.56 11.229C5.586 10.594 7.002 9.5 12.033 9.5c5.029 0 6.786.953 8.798 1.586"/><path d="M23.5 8.5v6.072c0 2.151-5.116 3.928-11.467 3.928C5.681 18.5.5 16.724.5 14.572V8.5"/><path d="M15.5 12.311a32.31 32.31 0 01-7 0v6.014c2.281.247 4.613.227 7-.008v-6.006z"/><path d="M10.5 14.5h3v2h-3z"/><circle cx="18.041" cy="15" r=".5"/><circle cx="21" cy="14" r=".5"/><circle cx="5.958" cy="15" r=".5"/><circle cx="3" cy="14" r=".5"/></g><path fill="none" d="M0 0h24v24H0z"/></svg>