<svg id="Regular" xmlns="http://www.w3.org/2000/svg" viewBox="0 0 24 24" width="24" height="24"><defs><style>.cls-1{fill:none;stroke:#000;stroke-linecap:round;stroke-linejoin:round;stroke-width:1.5px}</style></defs><title>pet-tracking-dog-chip</title><path class="cls-1" d="M12 12H5.25a3 3 0 0 1-3-3V7.5a3 3 0 0 1 3-3h7.65a3.007 3.007 0 0 0 2.555-1.424 5.977 5.977 0 0 0 .456-.917A2.253 2.253 0 0 1 18 .75c1.5 0 2.25 1.757 2.25 3a.75.75 0 0 0 .75.75h.75a1.5 1.5 0 0 1 0 3H19.5l-1.153 1.613M.75 2.25s0 3.25 2.533 2.985m.467 6.364V16.5m3-4.5v4.5m11.738-7.584l-4.383-4.67"/><rect class="cls-1" x="14.25" y="14.25" width="7.5" height="7.5" rx="1" ry="1"/><path class="cls-1" d="M15.75 14.25v-1.5m4.5 1.5v-1.5m-4.5 10.5v-1.5m4.5 1.5v-1.5m1.5-6h1.5m-1.5 4.5h1.5m-10.5-4.5h1.5m-1.5 4.5h1.5m4.5-1.5h-1.5"/></svg>