<svg xmlns="http://www.w3.org/2000/svg" viewBox="0 0 24 24" width="24" height="24"><g fill="none" stroke="#000" stroke-linecap="round" stroke-linejoin="round" stroke-miterlimit="10"><path d="M7.5 23.5a2 2 0 01-2-2v-13a2 2 0 012-2h8a2 2 0 012 2v13a2 2 0 01-2 2h-8zm6-17l-1-2.5h-2l-1 2.5m2-6V4M15 .5H8L5.938 3"/><path d="M12.259 14.934a.956.956 0 00-1.543 0L9.252 16.93a1.001 1.001 0 00-.082 1.023c.163.32.493.547.854.547h2.928c.36 0 .69-.227.854-.547a.982.982 0 00-.082-1.012l-1.465-2.007z"/><circle cx="8.5" cy="14" r="1"/><circle cx="11.5" cy="12" r="1"/><circle cx="14.5" cy="14" r="1"/></g><path fill="none" d="M0 0h24v24H0z"/></svg>