<svg id="Regular" xmlns="http://www.w3.org/2000/svg" viewBox="0 0 24 24" width="24" height="24"><defs><style>.cls-1{fill:none;stroke:#000;stroke-linecap:round;stroke-linejoin:round;stroke-width:1.5px}</style></defs><title>pet-tracking-dog-smartphone</title><path class="cls-1" d="M12 12H5.25a3 3 0 0 1-3-3V7.5a3 3 0 0 1 3-3h7.65a3.005 3.005 0 0 0 2.555-1.424 5.931 5.931 0 0 0 .456-.917A2.253 2.253 0 0 1 18 .75c1.5 0 2.25 1.758 2.25 3a.75.75 0 0 0 .75.75h.75a1.5 1.5 0 0 1 0 3H19.5l-.615.86M.75 2.25s0 3.25 2.533 2.985m.467 6.364v4.902m3-4.501v4.501m10.226-9.195l-2.871-3.059"/><rect class="cls-1" x="15.75" y="11.251" width="7.5" height="12" rx="1" ry="1"/><path class="cls-1" d="M19.5 19.125a.375.375 0 0 1 .375.375m-.75 0a.375.375 0 0 1 .375-.375m0 .75a.374.374 0 0 1-.375-.375m.75 0a.374.374 0 0 1-.375.375"/></svg>