<svg xmlns="http://www.w3.org/2000/svg" viewBox="0 0 24 24" width="24" height="24"><g fill="none" stroke="#000" stroke-linecap="round" stroke-linejoin="round" stroke-miterlimit="10"><path d="M22.5 8.572c0 2.151-4.894 3.928-10.969 3.928S.5 10.724.5 8.572 5.456 4.5 11.531 4.5 22.5 6.42 22.5 8.572z"/><path d="M1.332 10.061C2.989 8.596 6.94 7.5 11.531 7.5c4.557 0 8.447 1.08 10.109 2.527"/><path d="M7.992 15.291C3.642 14.762.5 13.286.5 11.572v-3m22-.072v3.072c0 1.714-3.104 3.189-7.436 3.719"/><circle cx="11.5" cy="17" r="2.5"/><path d="M11.5 14.5V17"/></g><path fill="none" d="M0 0h24v24H0z"/></svg>