<svg xmlns="http://www.w3.org/2000/svg" viewBox="0 0 24 24" width="24" height="24"><g fill="none" stroke="#000" stroke-linecap="round" stroke-linejoin="round" stroke-miterlimit="10"><path d="M20.689 22.742a1.002 1.002 0 01-.971.758H4.281c-.459 0-.859-.313-.971-.758L1.5 15.5h21l-1.811 7.242zM23.5 14.5a1 1 0 01-1 1h-21a1 1 0 110-2h21a1 1 0 011 1zm-10 3v4m3-4v4m-6-4v4m-3-4v4M3.31 6.257a1 1 0 01.971-.757h15.438c.459 0 .859.312.971.757L22.5 13.5h-21l1.81-7.243zM10.5 11.5v-4m-3 4v-4m6 4v-4m3 4v-4"/><path d="M15.5 5a3.5 3.5 0 10-7 0v.5h7V5z"/></g><path fill="none" d="M0 0h24v24H0z"/></svg>