<svg xmlns="http://www.w3.org/2000/svg" viewBox="0 0 24 24" width="24" height="24"><path fill="none" stroke="#000" stroke-linejoin="round" stroke-miterlimit="10" d="M9.54 18.028c-.122-.12-.327-.275-.346-.256l8.482-8.481c-.02.02.135.224.255.345 1.159 1.159 3.014 1.135 4.172-.024 1.159-1.158 1.146-3.05-.012-4.209a2.978 2.978 0 00-2.695-.813 2.972 2.972 0 00-5.01-2.693c-1.158 1.158-1.054 3.142.104 4.301.121.121.479.428.499.408l-8.482 8.482c.02-.02-.289-.378-.41-.499-1.158-1.159-3.09-1.212-4.249-.053-1.159 1.158-1.185 3.012-.026 4.17A2.934 2.934 0 004.5 19.5c-.19.942.07 1.952.801 2.683 1.159 1.159 3.06 1.18 4.218.021 1.159-1.158 1.18-3.016.021-4.176z"/><path fill="none" d="M0 0h24v24H0z"/></svg>