<svg xmlns="http://www.w3.org/2000/svg" viewBox="0 0 24 24" width="24" height="24"><g fill="none" stroke="#000" stroke-linecap="round" stroke-linejoin="round" stroke-miterlimit="10"><path d="M3.168.565c-.322-.112-.739-.09-.98.151-.629.63-4.413 3.134 1.953 9.498 2.828 2.829 9.744-4.087 6.914-6.915L3.168.565z"/><circle cx="7.232" cy="5.186" r=".444"/><path d="M9.355 9.221l7.081 7.082m-4.228-7.086l-3.182 3.181m6.349-2.107l-4.949 4.95m6.025-1.781l-3.181 3.181M2.278.645l1.156 3.834m14.347 13.169s3.705-.909 5.471.1a4.572 4.572 0 00-.742-.979c-1.807-1.807-4.268-2.273-6.074-.467-1.805 1.805-1.339 4.267.469 6.073.297.298.629.542.979.742-1.011-1.764-.103-5.469-.103-5.469z"/></g><path fill="none" d="M0 0h24v24H0z"/></svg>