<svg xmlns="http://www.w3.org/2000/svg" viewBox="0 0 24 24" width="24" height="24"><g fill="none" stroke="#000" stroke-linejoin="round" stroke-miterlimit="10"><path d="M21.284 13.848L23.5 12l-2.216-1.846 1.34-2.555-2.753-.857.261-2.873-2.873.262-.859-2.754-2.554 1.34L12 .5l-1.847 2.217-2.554-1.34-.858 2.754-2.873-.262.261 2.873-2.754.858 1.341 2.555L.5 12l2.216 1.848-1.341 2.555 2.754.857-.261 2.873 2.873-.262.858 2.754 2.554-1.34L12 23.5l1.847-2.215 2.554 1.34.858-2.754 2.873.262-.261-2.873 2.753-.857-1.34-2.555z"/><path d="M12.96 12.057c-.224-.307-.581-.488-.961-.488s-.737.182-.963.488l-1.822 2.486a1.244 1.244 0 00-.103 1.273c.203.402.614.684 1.063.684h3.648c.449 0 .86-.281 1.063-.684.203-.4.163-.896-.103-1.259l-1.822-2.5z"/><circle cx="8.246" cy="10.893" r="1.246"/><circle cx="11.984" cy="8.4" r="1.246"/><circle cx="15.753" cy="10.893" r="1.246"/></g><path fill="none" d="M0 0h24v24H0z"/></svg>