<svg xmlns="http://www.w3.org/2000/svg" viewBox="0 0 24 24" width="24" height="24"><g fill="none" stroke="#000" stroke-linejoin="round" stroke-miterlimit="10"><path d="M15.429 17.057a4 4 0 01-5.657 0l-2.829-2.828a4 4 0 010-5.657L14.721.794a1 1 0 011.415 0l7.07 7.071a.999.999 0 010 1.414l-7.777 7.778z"/><path d="M15.594.516L8.446 12.607l2.946 2.947L23.49 8.447m-13.718 8.61l-2.829-2.828-5.656 5.656a2 2 0 002.828 2.829l5.657-5.657zm7.425-13.082l-1.414 1.414m2.828 0l-1.414 1.415m2.828 0l-1.414 1.414m-3.536-2.122l-1.414 1.415m0 1.414l-1.414 1.414m2.828 0l-1.414 1.415m-1.414 0l-1.414 1.414m5.657-5.657l-1.415 1.414m2.829 0l-1.414 1.414"/></g><path fill="none" d="M0 0h24v24H0z"/></svg>