<svg id="Regular" xmlns="http://www.w3.org/2000/svg" viewBox="0 0 24 24" width="24" height="24"><defs><style>.cls-1{fill:none;stroke:#000;stroke-linecap:round;stroke-linejoin:round;stroke-width:1.5px}</style></defs><title>pet-tracking-dog-location</title><path class="cls-1" d="M12 12H5.25a3 3 0 0 1-3-3V7.5a3 3 0 0 1 3-3h7.65a3.006 3.006 0 0 0 2.555-1.425 5.931 5.931 0 0 0 .456-.917A2.253 2.253 0 0 1 18 .75c1.5 0 2.25 1.758 2.25 3a.75.75 0 0 0 .75.75h.75a1.5 1.5 0 0 1 0 3H19.5l-1.153 1.613M.75 2.25s0 3.25 2.533 2.986m.467 6.363v4.902m3-4.5v4.5m11.738-7.584l-4.383-4.67m4.645 11.129a.375.375 0 0 1 .375.375m-.75 0a.375.375 0 0 1 .375-.375m0 .75a.375.375 0 0 1-.375-.375m.75 0a.375.375 0 0 1-.375.375"/><path class="cls-1" d="M18.75 11.251a4.5 4.5 0 0 1 4.5 4.5c0 1.92-2.688 5.576-3.909 7.137a.751.751 0 0 1-1.182 0c-1.221-1.562-3.909-5.218-3.909-7.138a4.5 4.5 0 0 1 4.5-4.499z"/></svg>