<svg id="Regular" xmlns="http://www.w3.org/2000/svg" viewBox="0 0 24 24" width="24" height="24"><defs><style>.cls-1{fill:none;stroke:#000;stroke-linecap:round;stroke-linejoin:round;stroke-width:1.5px}</style></defs><title>pet-tracking-cat-search</title><path class="cls-1" d="M14.752 8.25H6a2.25 2.25 0 0 0 0 4.5h2.25m-1.5 0v6m-2.18-6.512l-.82 6.512"/><path class="cls-1" d="M4.362 8.957L1.682 6a3.181 3.181 0 0 1 0-4.5 2.546 2.546 0 0 1 3.6 0 2.037 2.037 0 0 1 0 2.88M20.25 9.15a2.848 2.848 0 0 0 1.5-2.4V2.311a.75.75 0 0 0-1.219-.586L18.937 3a1.5 1.5 0 0 1-1.874 0l-1.594-1.275a.75.75 0 0 0-1.219.586V6.75a2.581 2.581 0 0 0 .625 1.659"/><circle class="cls-1" cx="15.75" cy="15.75" r="5.25"/><path class="cls-1" d="M23.25 23.25l-3.788-3.787"/></svg>