<svg id="Regular" xmlns="http://www.w3.org/2000/svg" viewBox="0 0 24 24" width="24" height="24"><defs><style>.cls-1{fill:none;stroke:#000;stroke-linecap:round;stroke-linejoin:round;stroke-width:1.5px}</style></defs><title>pet-tracking-cat-chip</title><path class="cls-1" d="M14.752 8.25H6a2.25 2.25 0 0 0 0 4.5h6m-5.25 0v6m-2.179-6.512L3.75 18.75"/><path class="cls-1" d="M4.362 8.957L1.682 6a3.181 3.181 0 0 1 0-4.5 2.546 2.546 0 0 1 3.6 0 2.037 2.037 0 0 1 0 2.88M20.25 9.15a2.848 2.848 0 0 0 1.5-2.4V2.311a.75.75 0 0 0-1.219-.586L18.937 3a1.5 1.5 0 0 1-1.874 0l-1.594-1.275a.75.75 0 0 0-1.219.586V6.75a2.848 2.848 0 0 0 1.5 2.4"/><rect class="cls-1" x="14.25" y="14.25" width="7.5" height="7.5" rx="1" ry="1"/><path class="cls-1" d="M15.75 14.25v-1.5m4.5 1.5v-1.5m-4.5 10.5v-1.5m4.5 1.5v-1.5m1.5-6h1.5m-1.5 4.5h1.5m-10.5-4.5h1.5m-1.5 4.5h1.5m4.5-1.5h-1.5"/></svg>