<svg xmlns="http://www.w3.org/2000/svg" viewBox="0 0 24 24" width="24" height="24"><g fill="none" stroke="#000" stroke-linejoin="round" stroke-miterlimit="10"><path d="M20.224 14.5H10.41c-6.256 0-4.045-10.323.59-9 14 4 12.933 9 9.224 9zM14.5 2v4.628M18.5 2c0 .828-.68 1.5-1.516 1.5S14.5 2 14.5 2 16.148.5 16.984.5A1.51 1.51 0 0118.5 2zm-8 0c0 .828.678 1.5 1.516 1.5C12.851 3.5 14.5 2 14.5 2S12.852.5 12.016.5C11.177.5 10.5 1.171 10.5 2z"/><circle cx="18.5" cy="11.5" r=".5"/><path stroke-linecap="round" d="M6.949 12.415S1.5 12.259 1.5 14.977s9 1.616 9 4.491S3.593 23.5 3.593 23.5"/></g><path fill="none" d="M0 0h24v24H0z"/></svg>