<svg id="Regular" xmlns="http://www.w3.org/2000/svg" viewBox="0 0 24 24" width="24" height="24"><defs><style>.cls-1{fill:none;stroke:#000;stroke-linecap:round;stroke-linejoin:round;stroke-width:1.5px}</style></defs><title>pet-tracking-cat-signal</title><path class="cls-1" d="M21.75 14.25L13.5 7.5c-2.25-5.25-5.25-5.25-5.25-5.25V7.5"/><path class="cls-1" d="M8.25 6l-1.72.344a3 3 0 0 0-2.37 2.449L4 9.771a1.771 1.771 0 0 1-1.75 1.479 1.5 1.5 0 0 0-1.5 1.5v2.094a3 3 0 0 0 2.35 2.928l2.9.645a4.5 4.5 0 0 1 2.48 1.512l2.77 3.321m-1.856-2.227l9.285-9.285M11.25 23.25l9.675-9.675M7.5 10.5a.375.375 0 0 1 .375.375m-.75 0A.375.375 0 0 1 7.5 10.5m0 .75a.374.374 0 0 1-.375-.375m.75 0a.374.374 0 0 1-.375.375m15.75-9.04a6.559 6.559 0 0 0-8.25 0m1.719 2.561a3.828 3.828 0 0 1 4.812 0m-2.406 1.792a.375.375 0 0 1 .375.375m-.75 0a.375.375 0 0 1 .375-.375m0 .75a.375.375 0 0 1-.375-.375m.75 0a.375.375 0 0 1-.375.375"/></svg>