<svg xmlns="http://www.w3.org/2000/svg" viewBox="0 0 24 24" width="24" height="24"><g fill="none" stroke="#000" stroke-linecap="round" stroke-linejoin="round" stroke-miterlimit="10"><path d="M19 15l1.5-2h2a1 1 0 110 2H22l-2.026 5.672A2 2 0 0118.09 22H5.909a1.999 1.999 0 01-1.883-1.328L2 15h-.5a1 1 0 010-2h2L5 15h14zm-8 0l2-3.5m.5 3.5l1.5-2.5"/><path d="M16.366 15l.721-1.354a3.488 3.488 0 00-.635-4.121l2.429-4.555a1.001 1.001 0 10-1.765-.942l-2.429 4.555c-1.476-.297-3.032.371-3.776 1.769L8.5 15h7.866z"/></g><path fill="none" d="M0 0h24v24H0z"/></svg>