<svg xmlns="http://www.w3.org/2000/svg" viewBox="0 0 24 24" width="24" height="24"><g fill="none" stroke="#000" stroke-linejoin="round" stroke-miterlimit="10"><circle cx="11.542" cy="16" r="7.5"/><g stroke-linecap="round"><path d="M16.74 7.471L20.042.5h-2.5L14.68 6.511"/><path d="M18.531 8.856L22.542.5h-2.5L16.74 7.471"/></g><g stroke-linecap="round"><path d="M6.3 7.471L3 .5h2.5l2.862 6.011"/><path d="M4.51 8.856L.5.5H3l3.3 6.971"/></g><path d="M12.326 15.934a.957.957 0 00-1.543 0L9.319 17.93a1.001 1.001 0 00-.082 1.023c.163.32.493.547.853.547h2.928c.36 0 .69-.227.854-.547a.982.982 0 00-.082-1.012l-1.464-2.007z"/><circle cx="8.542" cy="15" r="1"/><circle cx="11.542" cy="13" r="1"/><circle cx="14.567" cy="15" r="1"/></g><path fill="none" d="M0 0h24v24H0z"/></svg>