<svg id="Regular" xmlns="http://www.w3.org/2000/svg" viewBox="0 0 24 24" width="24" height="24"><defs><style>.cls-1{fill:none;stroke:#000;stroke-linecap:round;stroke-linejoin:round;stroke-width:1.5px}</style></defs><title>pet-tracking-cat-smartphone</title><path class="cls-1" d="M14.752 8.246H6a2.25 2.25 0 0 0 0 4.5h6m-5.25 0v6m-2.179-6.512l-.821 6.512"/><path class="cls-1" d="M4.362 8.953L1.682 6a3.181 3.181 0 0 1 0-4.5 2.546 2.546 0 0 1 3.6 0 2.037 2.037 0 0 1 0 2.88m15.872 3.989a2.574 2.574 0 0 0 .6-1.623V2.307a.75.75 0 0 0-1.219-.586L18.937 3a1.5 1.5 0 0 1-1.874 0l-1.594-1.279a.75.75 0 0 0-1.219.586v4.439a2.685 2.685 0 0 0 .965 2.008"/><rect class="cls-1" x="15.75" y="11.246" width="7.5" height="12" rx="1" ry="1"/><path class="cls-1" d="M19.5 19.121a.375.375 0 0 1 .375.375m-.75.004a.375.375 0 0 1 .375-.375m0 .746a.375.375 0 0 1-.375-.375m.75.004a.375.375 0 0 1-.375.375"/></svg>