<svg id="Regular" xmlns="http://www.w3.org/2000/svg" viewBox="0 0 24 24" width="24" height="24"><defs><style>.cls-1{fill:none;stroke:#000;stroke-linecap:round;stroke-linejoin:round;stroke-width:1.5px}</style></defs><title>pet-tracking-dog-signal</title><path class="cls-1" d="M11.25 23.25L7.189 17.7c-.536-.537-1.105-.44-1.939-.44-2.485 0-4.5-.521-4.5-3.007v-1.5a1.5 1.5 0 0 1 1.5-1.5h3C5.712 9.4 6.4 7.962 8.25 7.5L9.75 3s3.75 0 3.75 5.25l9.6 8.061M9.525 20.892l9.225-8.233m-7.5 10.591l9.717-8.73M9.375 10.5a.375.375 0 0 1 .375.375m-.75 0a.375.375 0 0 1 .375-.375m0 .75A.374.374 0 0 1 9 10.875m.75 0a.374.374 0 0 1-.375.375M23.25 2.21a6.559 6.559 0 0 0-8.25 0m1.719 2.561a3.828 3.828 0 0 1 4.812 0m-2.406 1.792a.375.375 0 0 1 .375.375m-.75 0a.375.375 0 0 1 .375-.375m0 .75a.375.375 0 0 1-.375-.375m.75 0a.375.375 0 0 1-.375.375"/></svg>