<svg xmlns="http://www.w3.org/2000/svg" viewBox="0 0 24 24" width="24" height="24"><g fill="none" stroke="#000" stroke-linejoin="round" stroke-miterlimit="10"><path d="M4.208 14.086L.5 20.5l3.849-.651 1.336 3.669 3.283-5.516m10.703-3.827l3.666 6.325-3.849-.651-1.336 3.669-3.277-5.485"/><circle cx="12" cy="9.518" r="9"/><path d="M12.96 9.057a1.188 1.188 0 00-1.923-.001l-1.822 2.486a1.245 1.245 0 00-.102 1.274c.203.4.613.683 1.062.683h3.648c.449 0 .859-.282 1.062-.683a1.218 1.218 0 00-.102-1.261L12.96 9.057z"/><circle cx="8.246" cy="7.893" r="1.246"/><circle cx="11.984" cy="5.4" r="1.246"/><circle cx="15.753" cy="7.893" r="1.246"/></g><path fill="none" d="M0 0h24v24H0z"/></svg>