<svg xmlns="http://www.w3.org/2000/svg" viewBox="0 0 24 24" width="24" height="24"><g fill="none" stroke="#000" stroke-linejoin="round" stroke-miterlimit="10"><circle cx="10" cy="10.012" r="9.5"/><path d="M14.221 1.499A12.442 12.442 0 0115.5 7.012c0 5.599-3.68 10.337-8.752 11.93"/><path d="M9.512.5a9.178 9.178 0 012.697 6.512 9.21 9.21 0 01-9.21 9.211c-.064 0-.129 0-.193-.002M5.5 1.643A5.922 5.922 0 01.832 12.525M19.121 7.35a12.563 12.563 0 01-4.297 3.726m-8.865 1.065A12.492 12.492 0 01.577 9.25m16.746-5.288a9.225 9.225 0 01-1.811 2.563M8.496 9.209a9.192 9.192 0 01-6.875-3.684m7.197.406a5.92 5.92 0 01-5.029-3.105m10.386 15.721a12.507 12.507 0 01-3.127-1.889m6.266-.59a9.147 9.147 0 01-4.082-1.875M19 12.933a5.903 5.903 0 01-4.243-1.791"/><path stroke-linecap="round" d="M13.984 18.464c8.391-.011 10.725 5.874 7.099 4.507C12.813 19.853 3 26.846 1.621 21.054"/></g><path fill="none" d="M0 0h24v24H0z"/></svg>