<svg id="Regular" xmlns="http://www.w3.org/2000/svg" viewBox="0 0 24 24" width="24" height="24"><defs><style>.cls-1{fill:none;stroke:#000;stroke-linecap:round;stroke-linejoin:round;stroke-width:1.5px}</style></defs><title>pet-tracking-cat-location</title><path class="cls-1" d="M18.75 15.445a.375.375 0 0 1 .375.375m-.75 0a.375.375 0 0 1 .375-.375m0 .755a.375.375 0 0 1-.375-.375m.75-.005a.375.375 0 0 1-.375.375"/><path class="cls-1" d="M18.75 11.32a4.5 4.5 0 0 1 4.5 4.5c0 1.921-2.688 5.576-3.909 7.138a.751.751 0 0 1-1.182 0c-1.221-1.558-3.909-5.217-3.909-7.138a4.5 4.5 0 0 1 4.5-4.5zm-3.998-3.074H6a2.25 2.25 0 0 0 0 4.5h6m-5.25 0v6m-2.179-6.512l-.821 6.512"/><path class="cls-1" d="M4.362 8.953L1.682 6a3.181 3.181 0 0 1 0-4.5 2.546 2.546 0 0 1 3.6 0 2.037 2.037 0 0 1 0 2.88M20.25 9.146a2.849 2.849 0 0 0 1.5-2.4v-4.44a.75.75 0 0 0-1.219-.585L18.937 3a1.5 1.5 0 0 1-1.874 0l-1.594-1.279a.75.75 0 0 0-1.219.585v4.44a2.849 2.849 0 0 0 1.5 2.4"/></svg>