<svg xmlns="http://www.w3.org/2000/svg" viewBox="0 0 24 24" width="24" height="24"><g fill="none" stroke="#000" stroke-linejoin="round" stroke-miterlimit="10"><path d="M17.477 5.5l2-5c-1.563.327-2.413 1.856-4 2.018-1.579.161-1.896-1.044-3.499-1.048-1.58-.005-1.898 1.196-3.501 1.03-1.565-.161-2.413-1.684-4-2l2 5c0 5.65-4.756 6.446-4.977 15.953A1.997 1.997 0 003.499 23.5h16.955a1.999 1.999 0 001.999-2.047c-.223-9.467-4.976-10.421-4.976-15.953z"/><ellipse cx="11.977" cy="17.5" rx="3.75" ry="3"/><ellipse cx="11.977" cy="11.24" rx=".875" ry="1.26"/><ellipse cx="8.393" cy="12.24" rx=".875" ry="1.26"/><ellipse cx="15.393" cy="12.24" rx=".875" ry="1.26"/><path d="M8 5.5h2m1 0h2m1 0h2"/></g><path fill="none" d="M0 0h24v24H0z"/></svg>