<svg xmlns="http://www.w3.org/2000/svg" viewBox="0 0 24 24" width="24" height="24"><path fill="none" stroke="#000" stroke-linejoin="round" stroke-miterlimit="10" d="M12 23.5s11.5-9.129 11.5-16.82c0-7.692-10.417-8.139-11.5-1.592C10.917-1.459.5-1.013.5 7.271S12 23.5 12 23.5z"/><g fill="none" stroke="#000" stroke-linejoin="round" stroke-miterlimit="10"><path d="M12.96 13.045c-.224-.307-.581-.487-.961-.487s-.737.181-.963.487l-1.822 2.486c-.266.363-.306.873-.103 1.274s.614.683 1.063.683h3.648c.449 0 .86-.281 1.063-.683s.163-.897-.103-1.26l-1.822-2.5z"/><circle cx="8.246" cy="11.881" r="1.246"/><circle cx="11.984" cy="9.389" r="1.246"/><circle cx="15.753" cy="11.881" r="1.246"/></g><path fill="none" d="M0 0h24v24H0z"/></svg>