<svg xmlns="http://www.w3.org/2000/svg" viewBox="0 0 24 24" width="24" height="24"><path fill="none" stroke="#000" stroke-linecap="round" stroke-linejoin="round" stroke-miterlimit="10" d="M5.734 13.5h7.333a4 4 0 003.692-2.462L18.234 7.5l1 2.441c2.403 1.516 3 1.526 3 3.246 0 .725-.587 1.312-1.312 1.312h-1.188l-1.5 3-1.311 5.242a1.001 1.001 0 01-.971.758.755.755 0 01-.753-.758c.024-3.372-.226-4.242-4.466-4.242-5.663 0-6.187 1.909-7.742 4.512-.544.911-1.771.422-1.446-.383.646-1.597 2.032-5.057 2.922-7.539C2.952 14.342 2.234 13 2.234 11c0-4.828 5.203-6.778 5.831-3.018.16.966-1.197 1.419-1.468.605-.831-2.485-4.274 2.866-.863 4.913z"/><path fill="none" stroke="#000" stroke-linecap="round" stroke-linejoin="round" stroke-miterlimit="10" d="M9.234 18.621l.399 4.252c.06.641-.828.877-1.094.29L6.667 19.05m10.749 1.722l1.521 2.282c.57.855 1.7.359 1.374-.384-.207-.472-.495-1.215-2.077-5.171"/><path d="M19.5 12a.5.5 0 100 1 .5.5 0 000-1z"/><path fill="none" d="M0 0h24v24H0z"/></svg>