<svg xmlns="http://www.w3.org/2000/svg" viewBox="0 0 24 24" width="24" height="24"><path d="M21.955 8.5c-.585 0-1.12-.331-1.381-.854A2.074 2.074 0 0018.719 6.5c-1.385 0-2.506.717-3.213 2.484a3.999 3.999 0 01-3.714 2.516H6.5c-4.045 0-4.562-2.938-1.5-6a4 4 0 00-1.767 7.59C2.792 13.865 1.5 19.335 1.5 22a1.5 1.5 0 103 0v-.63c0-1.979 1.464-3.948 4-3.87.142.004 1.5 0 1.5 0 2.573 0 4.5 1.344 4.5 3.923V22a1.5 1.5 0 103 0c0-3.821-.134-2.13.613-6.984a2.968 2.968 0 012.933-2.516c1.355 0 2.455-1.1 2.455-2.455A1.546 1.546 0 0021.955 8.5zm-7.757 2.197L6 .5m8.705 9.743l3.753 3.753m-.575 2.363l-5.016-5.016" fill="none" stroke="#000" stroke-linecap="round" stroke-linejoin="round" stroke-miterlimit="10"/><path d="M18.5 9a.5.5 0 100 1 .5.5 0 000-1z"/><path fill="none" d="M0 0h24v24H0z"/></svg>