<svg id="Regular" xmlns="http://www.w3.org/2000/svg" viewBox="0 0 24 24" width="24" height="24"><defs><style>.cls-1{fill:none;stroke:#000;stroke-linecap:round;stroke-linejoin:round;stroke-width:1.5px}</style></defs><title>pet-tracking-tablet</title><path class="cls-1" d="M16.5 15l-1.673-1.255a1.57 1.57 0 0 0-2.247.385 1.571 1.571 0 0 0 0 1.741l1.645 2.467A4.5 4.5 0 0 0 16.3 20.02l2.45.98v2.25m-3-13.5l3.595 1.541a4.5 4.5 0 0 1 2.364 2.364l1.177 2.745a4.508 4.508 0 0 1 .364 1.773v5.077"/><path class="cls-1" d="M15.75 14.438V3A2.25 2.25 0 0 0 13.5.75H3A2.25 2.25 0 0 0 .75 3v18A2.25 2.25 0 0 0 3 23.25h10.5A2.25 2.25 0 0 0 15.75 21v-1.244M13.5 17.25H.75m7.875 3a.375.375 0 0 0-.375-.375m0 .75a.374.374 0 0 0 .375-.375m-.75 0a.374.374 0 0 0 .375.375m0-.75a.375.375 0 0 0-.375.375M8.25 6.343a.375.375 0 0 1 .375.375m-.75 0a.375.375 0 0 1 .375-.375m0 .75a.375.375 0 0 1-.375-.375m.75 0a.375.375 0 0 1-.375.375m-3 .75a.375.375 0 0 1 .375.375m-.75 0a.375.375 0 0 1 .375-.375m0 .75a.375.375 0 0 1-.375-.375m.75 0a.375.375 0 0 1-.375.375m6-.75a.375.375 0 0 1 .375.375m-.75 0a.375.375 0 0 1 .375-.375m0 .75a.375.375 0 0 1-.375-.375m.75 0a.375.375 0 0 1-.375.375"/><path class="cls-1" d="M8.78 10.281a.749.749 0 0 0-1.06 0L6.53 11.47a.751.751 0 0 0 .531 1.28h2.378a.751.751 0 0 0 .531-1.28z"/></svg>