<svg id="Regular" xmlns="http://www.w3.org/2000/svg" viewBox="0 0 24 24" width="24" height="24"><defs><style>.cls-1{fill:none;stroke:#000;stroke-linecap:round;stroke-linejoin:round;stroke-width:1.5px}</style></defs><title>pets-paw-bubble</title><path class="cls-1" d="M20.787 14.9a.792.792 0 0 1 .271-1.01l1.842-1.231a.792.792 0 0 0 0-1.318l-1.839-1.227a.792.792 0 0 1-.271-1.01l.98-1.981a.792.792 0 0 0-.66-1.142l-2.2-.143a.791.791 0 0 1-.74-.739l-.15-2.206a.793.793 0 0 0-1.142-.66l-1.982.98a.791.791 0 0 1-1.01-.271L12.659 1.1a.792.792 0 0 0-1.318 0l-1.227 1.842a.791.791 0 0 1-1.01.271l-1.982-.98a.793.793 0 0 0-1.142.66L5.838 5.1a.791.791 0 0 1-.74.739l-2.2.143a.792.792 0 0 0-.66 1.142L3.213 9.1a.792.792 0 0 1-.271 1.01L1.1 11.341a.792.792 0 0 0 0 1.318l1.839 1.227a.792.792 0 0 1 .271 1.01l-.98 1.982a.793.793 0 0 0 .66 1.142l2.205.142a.791.791 0 0 1 .74.74l.142 2.2a.793.793 0 0 0 1.142.66l1.982-.98a.793.793 0 0 1 1.01.271l1.23 1.847a.792.792 0 0 0 1.318 0l1.227-1.839a.793.793 0 0 1 1.01-.271l1.982.98a.793.793 0 0 0 1.142-.66l.142-2.2a.791.791 0 0 1 .74-.74l2.2-.142a.793.793 0 0 0 .66-1.142zM12 7.629a.374.374 0 0 1 .375.371m-.75 0A.374.374 0 0 1 12 7.629m0 .75A.375.375 0 0 1 11.625 8m.75 0a.375.375 0 0 1-.375.379m-3.17.834a.375.375 0 0 1 .375.375m-.75 0a.375.375 0 0 1 .375-.375m0 .75a.375.375 0 0 1-.375-.375m.75 0a.375.375 0 0 1-.375.375m6.34-.75a.375.375 0 0 1 .375.375m-.745 0a.375.375 0 0 1 .375-.375m-.005.75a.375.375 0 0 1-.375-.375m.75 0a.375.375 0 0 1-.375.375"/><path class="cls-1" d="M12.873 11.9a1.235 1.235 0 0 0-1.746 0l-1.958 1.955a1.235 1.235 0 0 0 .873 2.107h3.916a1.235 1.235 0 0 0 .873-2.107z"/></svg>