<svg id="Regular" xmlns="http://www.w3.org/2000/svg" viewBox="0 0 24 24" width="24" height="24"><defs><style>.cls-1{fill:none;stroke:#000;stroke-linecap:round;stroke-linejoin:round;stroke-width:1.5px}</style></defs><title>pets-paw-can</title><path class="cls-1" d="M.75 20.25V3.75m22.5 0v16.5"/><ellipse class="cls-1" cx="12" cy="3.75" rx="11.25" ry="3"/><path class="cls-1" d="M23.25 20.25c0 1.657-5.037 3-11.25 3S.75 21.907.75 20.25M12 10.5a.375.375 0 0 1 .375.375m-.75 0A.375.375 0 0 1 12 10.5m0 .75a.375.375 0 0 1-.375-.375m.75 0a.375.375 0 0 1-.375.375M8.25 12a.375.375 0 0 1 .375.375m-.75 0A.375.375 0 0 1 8.25 12m0 .75a.375.375 0 0 1-.375-.375m.75 0a.375.375 0 0 1-.375.375m7.5-.75a.375.375 0 0 1 .375.375m-.75 0A.375.375 0 0 1 15.75 12m0 .75a.375.375 0 0 1-.375-.375m.75 0a.375.375 0 0 1-.375.375m-2.863 2.243a1.252 1.252 0 0 0-1.774 0l-1.99 1.99a1.255 1.255 0 0 0 .887 2.142h3.98a1.255 1.255 0 0 0 .887-2.142z"/></svg>