<svg id="Regular" xmlns="http://www.w3.org/2000/svg" viewBox="0 0 24 24" width="24" height="24"><defs><style>.cls-1{fill:none;stroke:#000;stroke-linecap:round;stroke-linejoin:round;stroke-width:1.5px}</style></defs><title>pets-paw-search</title><circle class="cls-1" cx="9.75" cy="9.75" r="9"/><path class="cls-1" d="M16.114 16.114l7.136 7.136M9.75 5.625a.375.375 0 0 1 .375.375m-.75 0a.375.375 0 0 1 .375-.375m0 .75A.375.375 0 0 1 9.375 6m.75 0a.375.375 0 0 1-.375.375M6 7.125a.375.375 0 0 1 .375.375m-.75 0A.375.375 0 0 1 6 7.125m0 .75a.375.375 0 0 1-.375-.375m.75 0A.375.375 0 0 1 6 7.875m7.5-.75a.375.375 0 0 1 .375.375m-.75 0a.375.375 0 0 1 .375-.375m0 .75a.375.375 0 0 1-.375-.375m.75 0a.375.375 0 0 1-.375.375m-2.863 2.243a1.252 1.252 0 0 0-1.774 0l-1.99 1.99a1.256 1.256 0 0 0 .887 2.142h3.98a1.256 1.256 0 0 0 .887-2.142z"/></svg>