<svg id="Regular" xmlns="http://www.w3.org/2000/svg" viewBox="0 0 24 24" width="24" height="24"><defs><style>.cls-1{fill:none;stroke:#000;stroke-linecap:round;stroke-linejoin:round;stroke-width:1.5px}</style></defs><title>pets-paw-ribbon</title><circle class="cls-1" cx="12.357" cy="8.75" r="7.5"/><path class="cls-1" d="M10.612 16.046L6.18 22.537 5.168 20.03 2.464 20l4.282-6.273m11.221 0L22.25 20l-2.704.03-1.012 2.507-4.432-6.491M12.357 5.343a.375.375 0 0 1 .375.375m-.75 0a.375.375 0 0 1 .375-.375m0 .75a.375.375 0 0 1-.375-.375m.75 0a.375.375 0 0 1-.375.375m-3 .75a.375.375 0 0 1 .375.375m-.75 0a.375.375 0 0 1 .375-.375m0 .75a.375.375 0 0 1-.375-.375m.75 0a.375.375 0 0 1-.375.375m6-.75a.375.375 0 0 1 .375.375m-.75 0a.375.375 0 0 1 .375-.375m0 .75a.375.375 0 0 1-.375-.375m.75 0a.375.375 0 0 1-.375.375m-2.47 1.687a.75.75 0 0 0-1.061 0l-1.189 1.19a.751.751 0 0 0 .53 1.28h2.379a.75.75 0 0 0 .53-1.28z"/></svg>