<svg id="Regular" xmlns="http://www.w3.org/2000/svg" viewBox="0 0 24 24" width="24" height="24"><defs><style>.cls-1{fill:none;stroke:#000;stroke-linecap:round;stroke-linejoin:round;stroke-width:1.5px}</style></defs><title>pets-paw-medal</title><circle class="cls-1" cx="12" cy="15.75" r="7.5"/><path class="cls-1" d="M6.603 10.542L.75.75h6l3.804 7.639m6.843 2.153L23.25.75h-6l-3.804 7.639M12 12.342a.375.375 0 0 1 .375.375m-.75 0a.375.375 0 0 1 .375-.375m0 .75a.375.375 0 0 1-.375-.375m.75 0a.375.375 0 0 1-.375.375m-3 .75a.375.375 0 0 1 .375.375m-.75 0A.375.375 0 0 1 9 13.842m0 .75a.375.375 0 0 1-.375-.375m.75 0a.375.375 0 0 1-.375.375m6-.75a.375.375 0 0 1 .375.375m-.75 0a.375.375 0 0 1 .375-.375m0 .75a.375.375 0 0 1-.375-.375m.75 0a.375.375 0 0 1-.375.375m-2.47 1.688a.749.749 0 0 0-1.06 0l-1.19 1.189a.751.751 0 0 0 .531 1.281h2.378a.751.751 0 0 0 .531-1.281z"/></svg>