<svg id="Regular" xmlns="http://www.w3.org/2000/svg" viewBox="0 0 24 24" width="24" height="24"><defs><style>.cls-1{fill:none;stroke:#000;stroke-linecap:round;stroke-linejoin:round;stroke-width:1.5px}</style></defs><title>pets-hospital</title><path class="cls-1" d="M9 3.75H6.75V1.5A.75.75 0 0 0 6 .75H4.5a.75.75 0 0 0-.75.75v2.25H1.5a.75.75 0 0 0-.75.75V6a.75.75 0 0 0 .75.75h2.25V9a.75.75 0 0 0 .75.75H6A.75.75 0 0 0 6.75 9V6.75H9A.75.75 0 0 0 9.75 6V4.5A.75.75 0 0 0 9 3.75zm5.25 16.5h-9a3 3 0 0 1-3-3v-1.5a3 3 0 0 1 3-3h7.65a3.007 3.007 0 0 0 2.555-1.424 6.067 6.067 0 0 0 .457-.917A2.25 2.25 0 0 1 18 9a2.1 2.1 0 0 1 2.25 2.25 1.5 1.5 0 0 0 1.5 1.5 1.5 1.5 0 0 1 0 3H19.5l-2.136 2.988a3 3 0 0 1-2.605 1.512h-.509M.75 10.5s0 3.246 2.533 2.985M14.25 20.25v3m3 0l-.728-3.573m-12.772.172v3.401m3-3v3m11.738-6.084l-4.383-4.67"/></svg>