<svg id="Regular" xmlns="http://www.w3.org/2000/svg" viewBox="0 0 24 24" width="24" height="24"><defs><style>.cls-1{fill:none;stroke:#000;stroke-linecap:round;stroke-linejoin:round;stroke-width:1.5px}</style></defs><title>pets-paw-hospital</title><path class="cls-1" d="M20.25 12V8.25a1.5 1.5 0 0 0-1.5-1.5h-4.5v-4.5a1.5 1.5 0 0 0-1.5-1.5h-4.5a1.5 1.5 0 0 0-1.5 1.5v4.5h-4.5a1.5 1.5 0 0 0-1.5 1.5v4.5a1.5 1.5 0 0 0 1.5 1.5h4.5v4.5a1.5 1.5 0 0 0 1.5 1.5h4.5m6.125-5.625a.375.375 0 0 1 .375.375m-.75 0a.375.375 0 0 1 .375-.375m0 .75A.375.375 0 0 1 18.5 15m.75 0a.375.375 0 0 1-.375.375m-3.75.75a.375.375 0 0 1 .375.375m-.75 0a.375.375 0 0 1 .375-.375m0 .75a.375.375 0 0 1-.375-.375m.75 0a.375.375 0 0 1-.375.375m7.5-.75A.375.375 0 0 1 23 16.5m-.75 0a.375.375 0 0 1 .375-.375m0 .75a.375.375 0 0 1-.375-.375m.75 0a.375.375 0 0 1-.375.375m-2.863 2.243a1.252 1.252 0 0 0-1.774 0L16 21.108a1.255 1.255 0 0 0 .887 2.142h3.98a1.255 1.255 0 0 0 .887-2.142z"/></svg>