<svg id="Regular" xmlns="http://www.w3.org/2000/svg" viewBox="0 0 24 24" width="24" height="24"><defs><style>.cls-1{fill:none;stroke:#000;stroke-linecap:round;stroke-linejoin:round;stroke-width:1.5px}</style></defs><title>pets-paw-bag</title><path class="cls-1" d="M12 20.25H3.75a3 3 0 0 1-3-3v-9a3 3 0 0 1 3-3h15a3 3 0 0 1 3 3v3m-14.25-6v-3A1.5 1.5 0 0 1 9 .75h4.5a1.5 1.5 0 0 1 1.5 1.5v3m3.375 9.375a.375.375 0 0 1 .375.375M18 15a.375.375 0 0 1 .375-.375m0 .75A.375.375 0 0 1 18 15m.75 0a.375.375 0 0 1-.375.375m-3.75.75A.375.375 0 0 1 15 16.5m-.75 0a.375.375 0 0 1 .375-.375m0 .75a.375.375 0 0 1-.375-.375m.75 0a.375.375 0 0 1-.375.375m7.5-.75a.375.375 0 0 1 .375.375m-.75 0a.375.375 0 0 1 .375-.375m0 .75a.375.375 0 0 1-.375-.375m.75 0a.375.375 0 0 1-.375.375m-2.863 2.243a1.252 1.252 0 0 0-1.774 0l-1.99 1.99a1.255 1.255 0 0 0 .887 2.142h3.98a1.255 1.255 0 0 0 .887-2.142z"/></svg>