<svg id="Regular" xmlns="http://www.w3.org/2000/svg" viewBox="0 0 24 24" width="24" height="24"><defs><style>.cls-1{fill:none;stroke:#000;stroke-linecap:round;stroke-linejoin:round;stroke-width:1.5px}</style></defs><title>pets-tick-free</title><path class="cls-1" d="M7.557 13.5c.243-3.138 1.232-5.568 2.583-6.75h3.585m2.319 4.495A15.838 15.838 0 0 1 16.5 15c0 2.49-2.01 5.25-4.5 5.25a4.107 4.107 0 0 1-3.025-1.5m4.75-12H10.14l.93-2.265a.956.956 0 0 1 1.86 0zM8.721 8.724A6.508 6.508 0 0 1 8.3.751"/><path class="cls-1" d="M2.25 6l.725 1.812a4.5 4.5 0 0 0 2.755 2.6l2.176.725M2.25 17.25a5.4 5.4 0 0 1 4.536-4.291l.833-.119M6 23.25v-1.504M16.7 3a6.465 6.465 0 0 0-1-2.251M21.75 6l-.725 1.812a4.5 4.5 0 0 1-2.755 2.6l-2.226.835m5.706 6.003a5.4 5.4 0 0 0-4.536-4.291l-.865-.123M18 23.25v-2.015a6 6 0 0 0-1.757-4.242l-.1-.1M23.25.745L.75 23.246"/></svg>