<svg xmlns="http://www.w3.org/2000/svg" viewBox="0 0 24 24" width="24" height="24"><defs><style>.a{fill:none;stroke:#000;stroke-linecap:round;stroke-linejoin:round;stroke-width:1.5px}</style></defs><title>phone-action-shield</title><path class="a" d="M14.25 15v5.518a2.732 2.732 0 0 1-2.733 2.732H4.983a2.732 2.732 0 0 1-2.733-2.732V4.983A2.733 2.733 0 0 1 4.983 2.25H6.75m-4.5 16.5h12"/><path class="a" d="M21.75 5.25a7.669 7.669 0 0 1-6 7.5 7.669 7.669 0 0 1-6-7.5v-3a1.5 1.5 0 0 1 1.5-1.5h9a1.5 1.5 0 0 1 1.5 1.5zm-6-2.208v6m-3-3h6"/></svg>