<svg xmlns="http://www.w3.org/2000/svg" viewBox="0 0 24 24" width="24" height="24"><defs><style>.a{fill:none;stroke:#000;stroke-linecap:round;stroke-linejoin:round;stroke-width:1.5px}</style></defs><title>phone-actions-pause</title><path class="a" d="M12.464 22.54l.01.006a4.5 4.5 0 0 0 5.6-.614l.629-.63a1.5 1.5 0 0 0 0-2.121l-2.653-2.652a1.5 1.5 0 0 0-2.122 0 1.5 1.5 0 0 1-2.121 0l-4.243-4.242a1.5 1.5 0 0 1 0-2.121 1.5 1.5 0 0 0 0-2.122L4.913 5.393a1.5 1.5 0 0 0-2.122 0l-.629.629a4.5 4.5 0 0 0-.615 5.6l.007.01a40.592 40.592 0 0 0 10.91 10.908zM15.656 9a1.5 1.5 0 0 1-1.5-1.5V2.25a1.5 1.5 0 0 1 1.5-1.5 1.5 1.5 0 0 1 1.5 1.5V7.5a1.5 1.5 0 0 1-1.5 1.5zm6 0a1.5 1.5 0 0 1-1.5-1.5V2.25a1.5 1.5 0 0 1 1.5-1.5 1.5 1.5 0 0 1 1.5 1.5V7.5a1.5 1.5 0 0 1-1.5 1.5z"/></svg>