<svg xmlns="http://www.w3.org/2000/svg" viewBox="0 0 24 24" width="24" height="24"><defs><style>.a{fill:none;stroke:#000;stroke-linecap:round;stroke-linejoin:round;stroke-width:1.5px}</style></defs><title>phone-lock-left</title><rect class="a" x="14.25" y="6" width="9" height="7.5" rx="1.5" ry="1.5"/><path class="a" d="M18.75 1.5a3 3 0 0 0-3 3V6h6V4.5a3 3 0 0 0-3-3zm0 7.9a.375.375 0 1 0 .375.375.375.375 0 0 0-.375-.375m-.333 7.365l-3.182 3.182a1.5 1.5 0 0 1-2.121 0l-7.425-7.425a1.5 1.5 0 0 1 0-2.121l3.182-3.182a1.5 1.5 0 0 1 2.122 0M6.75 18v4.5H1.5"/><path class="a" d="M4.37 4.5a11.207 11.207 0 0 0-3.62 8.25 11.56 11.56 0 0 0 6 9.75"/></svg>