<svg xmlns="http://www.w3.org/2000/svg" viewBox="0 0 24 24" width="24" height="24"><defs><style>.a{fill:none;stroke:#000;stroke-linecap:round;stroke-linejoin:round;stroke-width:1.5px}</style></defs><title>phone-actions-menu-1</title><path class="a" d="M.818 10.723L1.9 11.806a3 3 0 0 0 4.242 0l1.591-1.591a1.5 1.5 0 0 0 0-2.121L4.64 5a1.5 1.5 0 0 0-2.263.147C-.864 9.549 1.1 14.186 5.083 18.17s8.62 5.946 13.023 2.706a1.5 1.5 0 0 0 .147-2.263l-3.094-3.095a1.5 1.5 0 0 0-2.122 0l-1.591 1.591a3 3 0 0 0 0 4.243l1.1 1.094M17.25 1.498h6m-6 4.5h6m-6 4.5h6m-10.5-9h1.5m-1.5 4.5h1.5m-1.5 4.5h1.5"/></svg>