<svg xmlns="http://www.w3.org/2000/svg" viewBox="0 0 24 24" width="24" height="24"><defs><style>.a{fill:none;stroke:#000;stroke-linecap:round;stroke-linejoin:round;stroke-width:1.5px}</style></defs><title>phone-action-bin</title><path class="a" d="M14.625 13.5v7.018a2.732 2.732 0 0 1-2.733 2.732H5.358a2.732 2.732 0 0 1-2.733-2.732V4.983A2.733 2.733 0 0 1 5.358 2.25h3.267m-6 16.5h12m-3.75-18h10.5m-3.639 9.75h-3.222a1.5 1.5 0 0 1-1.495-1.385L12.375.75h7.5l-.643 8.365a1.5 1.5 0 0 1-1.496 1.385zM16.125.75v9.75m-3.404-5.25h6.808"/></svg>