<svg xmlns="http://www.w3.org/2000/svg" viewBox="0 0 24 24" width="24" height="24"><defs><style>.a{fill:none;stroke:#000;stroke-linecap:round;stroke-linejoin:round;stroke-width:1.5px}</style></defs><title>phone-action-ring</title><path class="a" d="M15 15v5.518a2.732 2.732 0 0 1-2.733 2.732H5.733A2.732 2.732 0 0 1 3 20.518V4.983A2.733 2.733 0 0 1 5.733 2.25H9m-6 16.5h12"/><path class="a" d="M15.75.75A3.75 3.75 0 0 1 19.5 4.5v3A1.5 1.5 0 0 0 21 9H10.5A1.5 1.5 0 0 0 12 7.5v-3A3.75 3.75 0 0 1 15.75.75zm0 10.5a.375.375 0 1 0 .375.375.375.375 0 0 0-.375-.375"/></svg>