<svg xmlns="http://www.w3.org/2000/svg" viewBox="0 0 24 24" width="24" height="24"><defs><style>.a{fill:none;stroke:#000;stroke-linecap:round;stroke-linejoin:round;stroke-width:1.5px}</style></defs><title>phone-action-at</title><path class="a" d="M14.25 15.75v4.768a2.732 2.732 0 0 1-2.733 2.732H4.983a2.732 2.732 0 0 1-2.733-2.732V4.983A2.733 2.733 0 0 1 4.983 2.25H6.75m-4.5 16.5h12"/><circle class="a" cx="15.75" cy="6.75" r="2.25"/><path class="a" d="M18 6.75v1.125a1.874 1.874 0 0 0 1.875 1.875 1.874 1.874 0 0 0 1.875-1.875v-.846A6.186 6.186 0 0 0 15.905.752a6 6 0 0 0-1.577 11.835 6.152 6.152 0 0 0 2.966-.037"/></svg>