<svg xmlns="http://www.w3.org/2000/svg" viewBox="0 0 24 24" width="24" height="24"><defs><style>.a{fill:none;stroke:#000;stroke-linecap:round;stroke-linejoin:round;stroke-width:1.5px}</style></defs><title>phone-selfie-front-1</title><circle class="a" cx="12" cy="15.375" r="2.625"/><path class="a" d="M7.5 23.25a4.5 4.5 0 0 1 9 0z"/><path class="a" d="M16.5 8.25a3 3 0 0 1 3 3v12h-15v-12a3 3 0 0 1 3-3"/><path class="a" d="M12 7.5a.375.375 0 1 1-.375.375A.375.375 0 0 1 12 7.5m-3-3L6.75 2.25M15 4.5l2.25-2.25M12 3.75v-3"/></svg>