<svg xmlns="http://www.w3.org/2000/svg" viewBox="0 0 24 24" width="24" height="24"><path fill="none" stroke="#000" stroke-linecap="round" stroke-linejoin="round" stroke-miterlimit="10" d="M21 3.409c1.381.282 2.5 1.501 2.5 2.91V8.5c0 1.093-.907 2.181-2 2.181h-3c-1.093 0-2-1.088-2-2.181V6.819a46.029 46.029 0 00-9 0V8.5c0 1.093-.907 2.181-2 2.181h-3c-1.093 0-2-1.088-2-2.181V6.319C.5 4.91 1.619 3.691 3 3.409a44.997 44.997 0 0118 0z"/><path fill="none" stroke="#000" stroke-linejoin="round" stroke-miterlimit="10" d="M18.5 12v7.5c0 1.101-.9 2-2 2h-10c-1.1 0-2-.899-2-2V12"/><path d="M9 13H8v1h1v-1zm3 0h-1v1h1v-1zm3 0h-1v1h1v-1zm-6 2H8v1h1v-1zm3 0h-1v1h1v-1zm3 0h-1v1h1v-1zm-6 2H8v1h1v-1zm3 0h-1v1h1v-1zm3 0h-1v1h1v-1z"/><path fill="none" d="M0 0h24v24H0z"/></svg>