<svg xmlns="http://www.w3.org/2000/svg" viewBox="0 0 24 24" width="24" height="24"><defs><style>.a{fill:none;stroke:#000;stroke-linecap:round;stroke-linejoin:round;stroke-width:1.5px}</style></defs><title>phone-action-lock</title><path class="a" d="M15 15.75v4.768a2.732 2.732 0 0 1-2.733 2.732H5.733A2.732 2.732 0 0 1 3 20.518V4.983A2.733 2.733 0 0 1 5.733 2.25H9m-6 16.5h12"/><rect class="a" x="12" y="5.25" width="9" height="7.5" rx="1.5" ry="1.5"/><path class="a" d="M16.5.75a3 3 0 0 0-3 3v1.5h6v-1.5a3 3 0 0 0-3-3zm0 7.905a.375.375 0 1 0 .375.375.375.375 0 0 0-.375-.375"/></svg>