<svg xmlns="http://www.w3.org/2000/svg" viewBox="0 0 24 24" width="24" height="24"><defs><style>.a{fill:none;stroke:#000;stroke-linecap:round;stroke-linejoin:round;stroke-width:1.5px}</style></defs><title>phone-retro-1</title><path class="a" d="M4.285 1.49h-.011A4.5 4.5 0 0 0 .75 5.885v.89a1.5 1.5 0 0 0 1.5 1.5H6a1.5 1.5 0 0 0 1.5-1.5 1.5 1.5 0 0 1 1.5-1.5h6a1.5 1.5 0 0 1 1.5 1.5 1.5 1.5 0 0 0 1.5 1.5h3.75a1.5 1.5 0 0 0 1.5-1.5v-.89a4.5 4.5 0 0 0-3.524-4.393h-.011a40.593 40.593 0 0 0-15.43-.002zm8.02 9.785H11.7a9 9 0 0 0-8.931 7.884l-.093.744a3 3 0 0 0 2.977 3.372h12.7a3 3 0 0 0 2.975-3.375l-.093-.744a9 9 0 0 0-8.93-7.881zm-2.555.212V9.025m4.5 2.462V9.025"/><circle class="a" cx="12" cy="17.275" r="3"/></svg>