<svg xmlns="http://www.w3.org/2000/svg" viewBox="0 0 24 24" width="24" height="24"><defs><style>.a{fill:none;stroke:#000;stroke-linecap:round;stroke-linejoin:round;stroke-width:1.5px}</style></defs><title>phone-actions-off-1</title><path class="a" d="M.75 23.25L23.25.75M8.995 19.886c4.29 3.283 9.006 4.384 13.523 1.06a1.86 1.86 0 0 0 .182-2.8l-3.829-3.828a1.856 1.856 0 0 0-2.625 0l-1.969 1.968a3.714 3.714 0 0 0 0 5.25l1.354 1.354M1.125 8.383l1.34 1.34a3.712 3.712 0 0 0 5.25 0l1.969-1.969a1.856 1.856 0 0 0 0-2.625L5.855 1.3a1.858 1.858 0 0 0-2.8.183C-.268 6 .83 10.71 4.108 15"/></svg>