<svg xmlns="http://www.w3.org/2000/svg" viewBox="0 0 24 24" width="24" height="24"><path fill="none" stroke="#000" stroke-linecap="round" stroke-linejoin="round" stroke-miterlimit="10" d="M8.586 7.902a2.315 2.315 0 000-3.271L6.132 2.178a2.313 2.313 0 00-3.271 0L1.516 3.523a3.465 3.465 0 00-.439 4.366 53.778 53.778 0 0015.034 15.034 3.467 3.467 0 004.365-.438l1.346-1.346a2.313 2.313 0 000-3.271l-2.453-2.453a2.312 2.312 0 00-3.271 0l-.817.817a54.83 54.83 0 01-7.513-7.514l.818-.816z"/><path fill="none" d="M0 0h24v24H0z"/></svg>