<svg xmlns="http://www.w3.org/2000/svg" viewBox="0 0 24 24" width="24" height="24"><defs><style>.a{fill:none;stroke:#000;stroke-linecap:round;stroke-linejoin:round;stroke-width:1.5px}</style></defs><title>phonebook</title><path class="a" d="M21 23.25H5.25A2.25 2.25 0 0 1 3 21M6 .75a3 3 0 0 0-3 3V21a2.25 2.25 0 0 1 2.25-2.25h15A.75.75 0 0 0 21 18V1.5a.75.75 0 0 0-.75-.75zm13.5 22.5v-4.5"/><path class="a" d="M11.748 13.681l2.411-2.381a1.5 1.5 0 0 1 2.121 0l.531.531a1.5 1.5 0 0 1 0 2.121l-.46.46a1.5 1.5 0 0 1-1.425.4l-.872-.218a9.478 9.478 0 0 1-6.9-6.9l-.214-.87A1.5 1.5 0 0 1 7.335 5.4l.46-.46a1.5 1.5 0 0 1 2.121 0l.531.53a1.5 1.5 0 0 1 0 2.121l-2.386 2.4"/></svg>