<svg xmlns="http://www.w3.org/2000/svg" viewBox="0 0 24 24" width="24" height="24"><defs><style>.a{fill:none;stroke:#000;stroke-linecap:round;stroke-linejoin:round;stroke-width:1.5px}</style></defs><title>phone-selfie-front</title><path class="a" d="M17.279 18.75H6.029m6-14.25h3.912a2.13 2.13 0 0 1 2.088 2.143v8.309m-.048 6.512a2.129 2.129 0 0 1-2.04 1.786H8.1a2.11 2.11 0 0 1-2.075-2.143V12M.779 4.5h1.5m6 0h-1.5m-2.25 2.25v1.5m0-7.5v1.5"/><path class="a" d="M20.984 23.249l-2.96-1.749a1.749 1.749 0 0 1-.745-1.67V18l-1.053-1.106a1.326 1.326 0 0 1 .2-2.041 1.327 1.327 0 0 1 1.673.166l1.561 1.561m-1.631-8.639l3.662 5.136a4.5 4.5 0 0 1 .838 2.615v2.177a2.362 2.362 0 0 0 .692 1.67"/><circle class="a" cx="12.087" cy="10.875" r="2.625"/><path class="a" d="M17.279 18.75H7.587a4.5 4.5 0 0 1 4.5-4.5"/></svg>