<svg xmlns="http://www.w3.org/2000/svg" viewBox="0 0 24 24" width="24" height="24"><defs><style>.a{fill:none;stroke:#000;stroke-linecap:round;stroke-linejoin:round;stroke-width:1.5px}</style></defs><title>phone-action-star</title><path class="a" d="M13.875 15v5.518a2.732 2.732 0 0 1-2.733 2.732H4.608a2.732 2.732 0 0 1-2.733-2.732V4.983A2.733 2.733 0 0 1 4.608 2.25h2.517m-5.25 16.5h12"/><path class="a" d="M16.832 1.18L18.5 4.458h2.836a.777.777 0 0 1 .559 1.328l-2.6 2.563 1.443 3.313a.786.786 0 0 1-1.119.982l-3.487-1.961-3.487 1.961a.786.786 0 0 1-1.119-.982l1.443-3.313-2.6-2.563a.777.777 0 0 1 .559-1.328h2.836l1.654-3.278a.8.8 0 0 1 1.414 0z"/></svg>