<svg xmlns="http://www.w3.org/2000/svg" viewBox="0 0 24 24" width="24" height="24"><g fill="none" stroke="#000" stroke-linejoin="round" stroke-miterlimit="10"><path stroke-linecap="round" d="M11.5 14.5v7a2 2 0 01-2 2h-7a2 2 0 01-2-2v-15a2 2 0 012-2h3m0 4h-5m11 11H.5m4-13h1m18 1.5A1.5 1.5 0 0122 9.5h-5.5l-3 3v-3H10A1.5 1.5 0 018.5 8V2A1.5 1.5 0 0110 .5h12A1.5 1.5 0 0123.5 2v6z"/><path d="M16 7.5s2.75-2 2.75-3.48c0-1.71-2.25-2.25-2.75-.172-.5-2.078-2.75-1.538-2.75.172C13.25 5.5 16 7.5 16 7.5z"/><circle cx="6" cy="21.5" r=".5"/></g><path fill="none" d="M0 0h24v24H0z"/></svg>