<svg xmlns="http://www.w3.org/2000/svg" viewBox="0 0 24 24" width="24" height="24"><defs><style>.a{fill:none;stroke:#000;stroke-linecap:round;stroke-linejoin:round;stroke-width:1.5px}</style></defs><title>phone-action-edit-1</title><path class="a" d="M14.25 6V3.75a3 3 0 0 0-3-3h-7.5a3 3 0 0 0-3 3v16.5a3 3 0 0 0 3 3h7.5a3 3 0 0 0 3-3v-3m-13.5 1.5h13.5"/><path class="a" d="M14.646 13.725a1.493 1.493 0 0 1-.766.41l-2.206.442.441-2.207a1.5 1.5 0 0 1 .41-.766l7.1-7.1 2.125 2.118zm7.104-7.103L19.629 4.5l1.06-1.06a1.5 1.5 0 0 1 2.122 0 1.5 1.5 0 0 1 0 2.121zm-7.955 3.712l2.121 2.121"/></svg>