<svg xmlns="http://www.w3.org/2000/svg" viewBox="0 0 24 24" width="24" height="24"><defs><style>.a{fill:none;stroke:#000;stroke-linecap:round;stroke-linejoin:round;stroke-width:1.5px}</style></defs><title>phone-dial</title><path class="a" d="M4.285 2.227h-.011A4.5 4.5 0 0 0 .75 6.623v.89a1.5 1.5 0 0 0 1.5 1.5H6a1.5 1.5 0 0 0 1.5-1.5 1.5 1.5 0 0 1 1.5-1.5h6a1.5 1.5 0 0 1 1.5 1.5 1.5 1.5 0 0 0 1.5 1.5h3.75a1.5 1.5 0 0 0 1.5-1.5v-.89a4.5 4.5 0 0 0-3.524-4.393h-.011a40.613 40.613 0 0 0-15.43-.003zm2.09 10.536a.375.375 0 1 0 .375.375.375.375 0 0 0-.375-.375m5.625 0a.375.375 0 1 0 .375.375.375.375 0 0 0-.375-.375m5.625 0a.375.375 0 1 0 .375.375.375.375 0 0 0-.375-.375m-11.25 4.5a.375.375 0 1 0 .375.375.375.375 0 0 0-.375-.375m5.625 0a.375.375 0 1 0 .375.375.375.375 0 0 0-.375-.375m5.625 0a.375.375 0 1 0 .375.375.375.375 0 0 0-.375-.375m-11.25 4.5a.375.375 0 1 0 .375.375.375.375 0 0 0-.375-.375m5.625 0a.375.375 0 1 0 .375.375.375.375 0 0 0-.375-.375m5.625 0a.375.375 0 1 0 .375.375.375.375 0 0 0-.375-.375"/></svg>