<svg xmlns="http://www.w3.org/2000/svg" viewBox="0 0 24 24" width="24" height="24"><defs><style>.a{fill:none;stroke:#000;stroke-linecap:round;stroke-linejoin:round;stroke-width:1.5px}</style></defs><title>phone-actions-wait</title><path class="a" d="M13.12 20.853l.01.006a4.5 4.5 0 0 0 5.6-.614l.629-.63a1.5 1.5 0 0 0 0-2.121l-2.651-2.652a1.5 1.5 0 0 0-2.122 0 1.5 1.5 0 0 1-2.121 0L8.221 10.6a1.5 1.5 0 0 1 0-2.122 1.5 1.5 0 0 0 0-2.121L5.569 3.705a1.5 1.5 0 0 0-2.121 0l-.63.63a4.5 4.5 0 0 0-.614 5.6l.006.01a40.62 40.62 0 0 0 10.91 10.908zm.755-17.665a.375.375 0 1 0 .375.375.375.375 0 0 0-.375-.375m3.75 0a.375.375 0 1 0 .375.375.375.375 0 0 0-.375-.375m3.75 0a.375.375 0 1 0 .375.375.375.375 0 0 0-.375-.375"/></svg>