<svg xmlns="http://www.w3.org/2000/svg" viewBox="0 0 24 24" width="24" height="24"><defs><style>.a{fill:none;stroke:#000;stroke-linecap:round;stroke-linejoin:round;stroke-width:1.5px}</style></defs><title>phone-actions-restaurant</title><path class="a" d="M12.37 22.54l.01.007a4.5 4.5 0 0 0 5.6-.615l.629-.629a1.5 1.5 0 0 0 0-2.122l-2.653-2.651a1.5 1.5 0 0 0-2.122 0 1.5 1.5 0 0 1-2.121 0l-4.242-4.243a1.5 1.5 0 0 1 0-2.121 1.5 1.5 0 0 0 0-2.122L4.819 5.393a1.5 1.5 0 0 0-2.121 0l-.63.629a4.5 4.5 0 0 0-.614 5.6l.006.01A40.606 40.606 0 0 0 12.37 22.54zM14.25.75v10.5m-3-10.5V3a3 3 0 0 0 3 3 3 3 0 0 0 3-3V.75m6 10.5V.75a13.241 13.241 0 0 0-3.75 7.5h3.75"/></svg>