<svg xmlns="http://www.w3.org/2000/svg" viewBox="0 0 24 24" width="24" height="24"><defs><style>.a{fill:none;stroke:#000;stroke-linecap:round;stroke-linejoin:round;stroke-width:1.5px}</style></defs><title>phone-actions-wait-1</title><path class="a" d="M1.562 9.786l1.082 1.083a3 3 0 0 0 4.243 0l1.591-1.591a1.5 1.5 0 0 0 0-2.122L5.384 4.062a1.5 1.5 0 0 0-2.263.148c-3.241 4.4-1.279 9.039 2.7 13.023s8.621 5.946 13.023 2.7A1.5 1.5 0 0 0 19 17.675l-3.1-3.094a1.5 1.5 0 0 0-2.121 0l-1.589 1.591a3 3 0 0 0 0 4.243l1.094 1.094m.597-18.324a.375.375 0 1 0 .375.375.375.375 0 0 0-.375-.375m3.75 0a.375.375 0 1 0 .375.375.375.375 0 0 0-.375-.375m3.75 0a.375.375 0 1 0 .375.375.375.375 0 0 0-.375-.375"/></svg>