<svg xmlns="http://www.w3.org/2000/svg" viewBox="0 0 24 24" width="24" height="24"><defs><style>.a{fill:none;stroke:#000;stroke-linecap:round;stroke-linejoin:round;stroke-width:1.5px}</style></defs><title>phone-camera-shoot</title><path class="a" d="M18 2.25a3 3 0 0 1 3 3v15a3 3 0 0 1-3 3h-7.5a3 3 0 0 1-3-3V10.5m5.25 9.75h3M10.5.75V3m-5.212-.75l1.462 1.5M3 6.75h2.25m10.462-4.5l-1.462 1.5m3.75 3h-2.25M9 6.375a.375.375 0 1 0 .375.375A.375.375 0 0 0 9 6.375m3 0"/><path class="a" d="M12 6.375a.375.375 0 1 0 .375.375.375.375 0 0 0-.375-.375"/></svg>