<svg xmlns="http://www.w3.org/2000/svg" viewBox="0 0 24 24" width="24" height="24"><defs><style>.a{fill:none;stroke:#000;stroke-linecap:round;stroke-linejoin:round;stroke-width:1.5px}</style></defs><title>phone-actions-merge-1</title><path class="a" d="M.818 11.471L1.9 12.554a3 3 0 0 0 4.242 0l1.591-1.591a1.5 1.5 0 0 0 0-2.122L4.64 5.747a1.5 1.5 0 0 0-2.263.153C-.864 10.3 1.1 14.934 5.083 18.918s8.62 5.946 13.023 2.705a1.5 1.5 0 0 0 .147-2.263l-3.094-3.094a1.5 1.5 0 0 0-2.122 0l-1.591 1.591a3 3 0 0 0 0 4.243l1.1 1.094M17.25 12.75l3-3v-9m1.875 10.875l1.125 1.125"/><path class="a" d="M17.25 3.75l3-3 3 3"/></svg>