<svg xmlns="http://www.w3.org/2000/svg" viewBox="0 0 24 24" width="24" height="24"><defs><style>.a{fill:none;stroke:#000;stroke-linecap:round;stroke-linejoin:round;stroke-width:1.5px}</style></defs><title>phone-retro</title><path class="a" d="M21.49 11.279a9.75 9.75 0 1 1-18.979 0M4.285 1.49h-.011A4.5 4.5 0 0 0 .75 5.885v.89a1.5 1.5 0 0 0 1.5 1.5H6a1.5 1.5 0 0 0 1.5-1.5 1.5 1.5 0 0 1 1.5-1.5h6a1.5 1.5 0 0 1 1.5 1.5 1.5 1.5 0 0 0 1.5 1.5h3.75a1.5 1.5 0 0 0 1.5-1.5v-.89a4.5 4.5 0 0 0-3.524-4.393h-.011a40.593 40.593 0 0 0-15.43-.002zM15.75 17.275l4.5 4.5"/><circle class="a" cx="12" cy="13.525" r="2.25"/><path class="a" d="M6 13.15a.375.375 0 1 0 .375.375A.375.375 0 0 0 6 13.15m6 6a.375.375 0 1 0 .375.375.375.375 0 0 0-.375-.375m-4.243-1.757a.375.375 0 1 0 .375.375.375.375 0 0 0-.375-.375M18 13.15a.375.375 0 1 0 .375.375.375.375 0 0 0-.375-.375"/></svg>