<svg xmlns="http://www.w3.org/2000/svg" viewBox="0 0 24 24" width="24" height="24"><defs><style>.a{fill:none;stroke:#000;stroke-linecap:round;stroke-linejoin:round;stroke-width:1.5px}</style></defs><title>phone-actions-voice-mail</title><path class="a" d="M.98 8.529l1.339 1.339a3.712 3.712 0 0 0 5.25 0L9.538 7.9a1.856 1.856 0 0 0 0-2.625L5.709 1.446a1.859 1.859 0 0 0-2.8.182C-1.1 7.076 1.327 12.814 6.257 17.743s10.667 7.357 16.115 3.348a1.859 1.859 0 0 0 .182-2.8l-3.828-3.829a1.856 1.856 0 0 0-2.625 0l-1.969 1.969a3.712 3.712 0 0 0 0 5.25l1.354 1.354"/></svg>