<svg xmlns="http://www.w3.org/2000/svg" viewBox="0 0 24 24" width="24" height="24"><defs><style>.a{fill:none;stroke:#000;stroke-linecap:round;stroke-linejoin:round;stroke-width:1.5px}</style></defs><title>phone-translate</title><path class="a" d="M5.25 3.75a3 3 0 0 1 3-3h7.5a3 3 0 0 1 3 3m0 12v4.5a3 3 0 0 1-3 3h-7.5a3 3 0 0 1-3-3v-4.5m0 1.5h13.5"/><path class="a" d="M12 19.875a.375.375 0 1 0 .375.375.375.375 0 0 0-.375-.375M.75 12.75v-4.5a1.5 1.5 0 0 1 3 0v4.5m-3-1.5h3m16.5-4.5v1.5m-3 0h6m-1.5 0s-1.5 4.5-4.5 4.5m2.999-1.733a3.932 3.932 0 0 0 3 1.733m-10.499 1.5a7.155 7.155 0 0 0 0-9M8.364 7.125a4.175 4.175 0 0 1 0 5.25"/></svg>