<svg xmlns="http://www.w3.org/2000/svg" viewBox="0 0 24 24" width="24" height="24"><defs><style>.a{fill:none;stroke:#000;stroke-linecap:round;stroke-linejoin:round;stroke-width:1.5px}</style></defs><title>phone-circle</title><path class="a" d="M14.137 17.7h.008a3.226 3.226 0 0 0 4.014-.441l.452-.451a1.076 1.076 0 0 0 0-1.521l-1.9-1.9a1.076 1.076 0 0 0-1.521 0 1.077 1.077 0 0 1-1.522 0l-3.042-3.043a1.076 1.076 0 0 1 0-1.521 1.076 1.076 0 0 0 0-1.521l-1.9-1.9A1.076 1.076 0 0 0 7.2 5.4l-.452.451a3.229 3.229 0 0 0-.44 4.015v.007a29.14 29.14 0 0 0 7.829 7.827z"/><path class="a" d="M21 18.764a11.251 11.251 0 1 0-9 4.5c4.418 0 6.446-2.136 5.215-5.344"/></svg>