<svg xmlns="http://www.w3.org/2000/svg" viewBox="0 0 24 24" width="24" height="24"><defs><style>.a{fill:none;stroke:#000;stroke-linecap:round;stroke-linejoin:round;stroke-width:1.5px}</style></defs><title>phone-ring</title><path class="a" d="M9.568 12.43a4.5 4.5 0 0 1 0-6.364m-2.652 9.016a8.251 8.251 0 0 1 0-11.668M4.265 17.733a12 12 0 0 1 0-16.97m12.985 22.5l3-3.75V5.263"/><path class="a" d="M14.25 23.263h9v-18H15a.75.75 0 0 0-.75.75v4.323a1.5 1.5 0 0 0 .829 1.341l2.171 1.086v5.25l-3.671 1.835a1.5 1.5 0 0 0-.829 1.342v.573a1.5 1.5 0 0 0 1.5 1.5zm9-22.5v4.5"/></svg>