<svg xmlns="http://www.w3.org/2000/svg" viewBox="0 0 24 24" width="24" height="24"><defs><style>.a{fill:none;stroke:#000;stroke-linecap:round;stroke-linejoin:round;stroke-width:1.5px}</style></defs><title>phone-action-cart</title><path class="a" d="M14.591 15v5.518a2.733 2.733 0 0 1-2.733 2.732H5.323a2.732 2.732 0 0 1-2.732-2.732V4.983A2.733 2.733 0 0 1 5.323 2.25h1.768m-4.5 16.5h12m6.818-18l-2.82 7.757a.751.751 0 0 1-.7.493h-5.373a.75.75 0 0 1-.689-.454l-1.607-4.5A.75.75 0 0 1 10.909 3h9.682m-7.057 8.25a.375.375 0 1 0 .375.375.375.375 0 0 0-.375-.375m3.75 0a.375.375 0 1 0 .375.375.375.375 0 0 0-.375-.375"/></svg>