<svg xmlns="http://www.w3.org/2000/svg" viewBox="0 0 24 24" width="24" height="24"><defs><style>.a{fill:none;stroke:#000;stroke-linecap:round;stroke-linejoin:round;stroke-width:1.5px}</style></defs><title>phone-action-play</title><path class="a" d="M14.25 15.75v4.768a2.732 2.732 0 0 1-2.733 2.732H4.983a2.732 2.732 0 0 1-2.733-2.732V4.983A2.733 2.733 0 0 1 4.983 2.25H6.75m-4.5 16.5h12"/><rect class="a" x="9.75" y=".75" width="12" height="12" rx="1.5" ry="1.5"/><path class="a" d="M14.25 4.93a.43.43 0 0 1 .651-.369l3.034 1.821a.43.43 0 0 1 0 .737L14.9 8.939a.43.43 0 0 1-.651-.369z"/></svg>