<svg xmlns="http://www.w3.org/2000/svg" viewBox="0 0 24 24" width="24" height="24"><defs><style>.a{fill:none;stroke:#000;stroke-linecap:round;stroke-linejoin:round;stroke-width:1.5px}</style></defs><title>phone-landline</title><path class="a" d="M4.285 2.24h-.011A4.5 4.5 0 0 0 .75 6.635v.89a1.5 1.5 0 0 0 1.5 1.5H6a1.5 1.5 0 0 0 1.5-1.5 1.5 1.5 0 0 1 1.5-1.5h6a1.5 1.5 0 0 1 1.5 1.5 1.5 1.5 0 0 0 1.5 1.5h3.75a1.5 1.5 0 0 0 1.5-1.5v-.89a4.5 4.5 0 0 0-3.524-4.393h-.011a40.593 40.593 0 0 0-15.43-.002zm-.535 9.785v6a4.5 4.5 0 0 0 4.5 4.5h7.5a4.5 4.5 0 0 0 4.5-4.5v-6m-12.375 1.5"/><path class="a" d="M7.875 13.525a.375.375 0 1 0 .375.375.375.375 0 0 0-.375-.375m4.125 0a.375.375 0 1 0 .375.375.375.375 0 0 0-.375-.375m4.125 0a.375.375 0 1 0 .375.375.375.375 0 0 0-.375-.375m-8.25 3.75a.375.375 0 1 0 .375.375.375.375 0 0 0-.375-.375m4.125 0a.375.375 0 1 0 .375.375.375.375 0 0 0-.375-.375m4.125 0a.375.375 0 1 0 .375.375.375.375 0 0 0-.375-.375"/></svg>