<svg xmlns="http://www.w3.org/2000/svg" viewBox="0 0 24 24" width="24" height="24"><defs><style>.a{fill:none;stroke:#000;stroke-linecap:round;stroke-linejoin:round;stroke-width:1.5px}</style></defs><title>phone-chatting</title><path class="a" d="M18 11.289v9.229a2.733 2.733 0 0 1-2.733 2.732H8.733A2.732 2.732 0 0 1 6 20.518V9.029m.001 9.721h12"/><path class="a" d="M11.945 10.556a2.357 2.357 0 0 0 1.674.694H15v3l3.039-3h2.092A2.369 2.369 0 0 0 22.5 8.882V5.369A2.369 2.369 0 0 0 20.132 3H16.5m-1.124 3.75"/><path class="a" d="M15.376 6.75a.375.375 0 1 0 .375.375.375.375 0 0 0-.375-.375m3.75 0a.375.375 0 1 0 .375.375.375.375 0 0 0-.375-.375M3.869.75h6.513a2.369 2.369 0 0 1 2.369 2.369v2.763a2.369 2.369 0 0 1-2.369 2.368H8.251v3l-3.04-3H3.869A2.368 2.368 0 0 1 1.5 5.882V3.119A2.369 2.369 0 0 1 3.869.75zM9.126 4.5"/><path class="a" d="M9.126 4.5a.375.375 0 1 1-.375.375.375.375 0 0 1 .375-.375m-4 0a.375.375 0 1 1-.375.375.375.375 0 0 1 .375-.375"/></svg>