<svg xmlns="http://www.w3.org/2000/svg" viewBox="0 0 24 24" width="24" height="24"><defs><style>.a{fill:none;stroke:#000;stroke-linecap:round;stroke-linejoin:round;stroke-width:1.5px}</style></defs><title>phone-action-question</title><path class="a" d="M14.25 15.75v4.768a2.732 2.732 0 0 1-2.733 2.732H4.983a2.732 2.732 0 0 1-2.733-2.732V4.983A2.733 2.733 0 0 1 4.983 2.25H7.5m-5.25 16.5h12"/><circle class="a" cx="15.75" cy="6.75" r="6"/><path class="a" d="M13.875 5.625A1.875 1.875 0 1 1 15.75 7.5m0 2.25a.375.375 0 1 0 .375.375.375.375 0 0 0-.375-.375"/></svg>