<svg xmlns="http://www.w3.org/2000/svg" viewBox="0 0 24 24" width="24" height="24"><defs><style>.a{fill:none;stroke:#000;stroke-linecap:round;stroke-linejoin:round;stroke-width:1.5px}</style></defs><title>phone-hand-hold-1</title><path class="a" d="M8.25 15l1.673-1.255a1.57 1.57 0 0 1 2.247.385 1.569 1.569 0 0 1 0 1.74l-1.645 2.467a4.5 4.5 0 0 1-2.073 1.682L6 21v2.25m3-13.5l-3.6 1.541a4.5 4.5 0 0 0-2.363 2.364L1.864 16.4a4.5 4.5 0 0 0-.364 1.774v5.076"/><path class="a" d="M9 14.438V3.75a3 3 0 0 1 3-3h7.5a3 3 0 0 1 3 3v16.5a3 3 0 0 1-3 3H12a3 3 0 0 1-3-3v-.5m1.214-1H22.5"/></svg>