<svg xmlns="http://www.w3.org/2000/svg" viewBox="0 0 24 24" width="24" height="24"><defs><style>.a{fill:none;stroke:#000;stroke-linecap:round;stroke-linejoin:round;stroke-width:1.5px}</style></defs><title>photography-equipment-bag</title><path class="a" d="M21.75 11.554v8.386a2.968 2.968 0 0 1-3 2.935H5.25a2.968 2.968 0 0 1-3-2.935v-8.386"/><path class="a" d="M23.25 6.6a.978.978 0 0 0-.978-.978H1.728A.978.978 0 0 0 .75 6.6v2.481a1.956 1.956 0 0 0 .444 1.24c1.269 1.548 4.979 5.8 7.382 5.8h6.848c2.4 0 6.113-4.256 7.382-5.8a1.956 1.956 0 0 0 .444-1.24zM6.692 5.625a5.381 5.381 0 0 1 10.616 0m-3.808 10.5v6.75m-3 0v-6.75m7.37-6.75H6.13m10.37 0v1.467"/><path class="a" d="M18.75 14.483v3.99a3.011 3.011 0 0 0 2.588 2.952M5.25 14.483v3.99a3 3 0 0 1-2.6 2.93"/></svg>