<svg xmlns="http://www.w3.org/2000/svg" viewBox="0 0 24 24" width="24" height="24"><defs><style>.a{fill:none;stroke:#000;stroke-linecap:round;stroke-linejoin:round;stroke-width:1.5px}</style></defs><title>photography-equipment-light-umbrella</title><path class="a" d="M16.321 13.467v9.783m.599-14.034l4.114 4.113a.5.5 0 0 1 0 .707L19.33 15.74a.5.5 0 0 1-.707 0l-4.467-4.467 2.056-2.056a.5.5 0 0 1 .707 0zM5.256 14.945a8.316 8.316 0 0 1 11.76-11.76 3.3 3.3 0 0 0-3.828 3.5l.023.3a3.865 3.865 0 0 0-4.15 4.15l-.3-.023a3.3 3.3 0 0 0-3.5 3.828z"/><path class="a" d="M9.061 11.14C5.813 7.893 4.11 4.332 5.256 3.185s4.708.558 7.955 3.805m-2.593.745l3.539 3.538M12.571 23.25l3.75-4.5 3.75 4.5"/></svg>