<svg xmlns="http://www.w3.org/2000/svg" viewBox="0 0 24 24" width="24" height="24"><defs><style>.a{fill:none;stroke:#000;stroke-linecap:round;stroke-linejoin:round;stroke-width:1.5px}</style></defs><title>photography-equipment-flash-light</title><rect class="a" x="3.75" y=".75" width="16.5" height="10.5" rx="1.5" ry="1.5"/><path class="a" d="M15.115 20.25h-6.23a.749.749 0 0 1-.739-.627L6.75 11.25h10.5l-1.4 8.373a.749.749 0 0 1-.735.627zm-1.615 3h-3a.75.75 0 0 1-.75-.75v-2.25h4.5v2.25a.75.75 0 0 1-.75.75zM6.75 3.75h10.5v4.5H6.75z"/><path class="a" d="M13.125 16.125a.375.375 0 1 1-.375.375.375.375 0 0 1 .375-.375"/></svg>