<svg xmlns="http://www.w3.org/2000/svg" viewBox="0 0 24 24" width="24" height="24"><defs><style>.a{fill:none;stroke:#000;stroke-linecap:round;stroke-linejoin:round;stroke-width:1.5px}</style></defs><title>photography-equipment-film-print</title><path class="a" d="M23.25.75v22.492M6.75.758v8.028a.95.95 0 0 0 .923.976h8.654a.95.95 0 0 0 .923-.976V.758M6.75 23.25v-8.014a.949.949 0 0 1 .923-.974h8.654a.949.949 0 0 1 .923.974v8.014m-16.5-.008V.75m2.625 2.26a.375.375 0 1 1 .375.375.375.375 0 0 1-.375-.375m0 5.999a.375.375 0 1 1 .375.375.375.375 0 0 1-.375-.375m0 6a.375.375 0 1 1 .375.375.375.375 0 0 1-.375-.375m0 6a.375.375 0 1 1 .375.375.375.375 0 0 1-.375-.375m16.5-17.999a.375.375 0 1 1 .375.375.375.375 0 0 1-.375-.375m0 5.999a.375.375 0 1 1 .375.375.375.375 0 0 1-.375-.375m0 6a.375.375 0 1 1 .375.375.375.375 0 0 1-.375-.375m0 6a.375.375 0 1 1 .375.375.375.375 0 0 1-.375-.375"/></svg>