<svg xmlns="http://www.w3.org/2000/svg" viewBox="0 0 24 24" width="24" height="24"><defs><style>.a{fill:none;stroke:#000;stroke-linecap:round;stroke-linejoin:round;stroke-width:1.5px}</style></defs><title>photography-equipment-light-2</title><circle class="a" cx="12" cy="10.5" r="1.5"/><path class="a" d="M8.25 6.75h7.5v7.5h-7.5zm0 0L6.76 2.777A1.5 1.5 0 0 1 8.165.75h7.67a1.5 1.5 0 0 1 1.4 2.027L15.75 6.75m0 0l3.973-1.49a1.5 1.5 0 0 1 2.027 1.405v7.671a1.5 1.5 0 0 1-2.027 1.4L15.75 14.25"/><path class="a" d="M15.75 14.25l1.49 3.973a1.5 1.5 0 0 1-1.4 2.027H8.165a1.5 1.5 0 0 1-1.4-2.027L8.25 14.25m0 0l-3.973 1.49a1.5 1.5 0 0 1-2.027-1.4V6.665A1.5 1.5 0 0 1 4.277 5.26L8.25 6.75m2.25 13.5v3m3-3v3"/></svg>