<svg xmlns="http://www.w3.org/2000/svg" viewBox="0 0 24 24" width="24" height="24"><defs><style>.a{fill:none;stroke:#000;stroke-linecap:round;stroke-linejoin:round;stroke-width:1.5px}</style></defs><title>photography-equipment-remote-shutter</title><path class="a" d="M23.25 22.25a1.041 1.041 0 0 1-1.072 1h-5.357a1.04 1.04 0 0 1-1.071-1V14a3.632 3.632 0 0 1 3.75-3.5 3.632 3.632 0 0 1 3.75 3.5z"/><circle class="a" cx="19.5" cy="15" r="1.5"/><path class="a" d="M18.75 20.25h1.5m3-14.526a6.36 6.36 0 0 0-7.5 0m1.416 2.601a3.713 3.713 0 0 1 4.667 0M3.75 5.625A.375.375 0 1 1 3.375 6a.375.375 0 0 1 .375-.375"/><path class="a" d="M15 3h-1.5l-.408-1.224A1.5 1.5 0 0 0 11.669.75H7.831a1.5 1.5 0 0 0-1.423 1.026L6 3H2.25a1.5 1.5 0 0 0-1.5 1.5v9a1.5 1.5 0 0 0 1.5 1.5h10.5"/><circle class="a" cx="9.75" cy="9" r="3"/></svg>