<svg xmlns="http://www.w3.org/2000/svg" viewBox="0 0 24 24" width="24" height="24"><defs><style>.a{fill:none;stroke:#000;stroke-linecap:round;stroke-linejoin:round;stroke-width:1.5px}</style></defs><title>photography-equipment-cable</title><path class="a" d="M14.25 14.625a.375.375 0 1 1-.375.375.375.375 0 0 1 .375-.375m3 4.125h1.875a4.173 4.173 0 0 0 0-8.346A2.64 2.64 0 0 1 16.5 7.749V7.5"/><rect class="a" x="14.25" y="3.75" width="4.5" height="3.75" rx=".5" ry=".5"/><path class="a" d="M15 .75h3v3h-3zM15.75 12h-3l-.408-1.224a1.5 1.5 0 0 0-1.423-1.026H7.081a1.5 1.5 0 0 0-1.423 1.026L5.25 12h-3a1.5 1.5 0 0 0-1.5 1.5v8.25a1.5 1.5 0 0 0 1.5 1.5h13.5a1.5 1.5 0 0 0 1.5-1.5V13.5a1.5 1.5 0 0 0-1.5-1.5z"/><circle class="a" cx="9" cy="17.25" r="3"/></svg>