<svg xmlns="http://www.w3.org/2000/svg" viewBox="0 0 24 24" width="24" height="24"><defs><style>.a{fill:none;stroke:#000;stroke-linecap:round;stroke-linejoin:round;stroke-width:1.5px}</style></defs><title>photography-equipment-light</title><rect class="a" x="4.125" y=".75" width="15.75" height="14.25" rx="1" ry="1"/><path class="a" d="M22.875 7.5v8.4A2.085 2.085 0 0 1 20.8 18H3.2a2.085 2.085 0 0 1-2.071-2.1V7.5M10.875 18h3v5.25h-3zM7.5 4.5a.375.375 0 1 1-.375.375A.375.375 0 0 1 7.5 4.5m4.5 0a.375.375 0 1 1-.375.375A.375.375 0 0 1 12 4.5m4.5 0a.375.375 0 1 1-.375.375.375.375 0 0 1 .375-.375"/><path class="a" d="M7.5 9.75a.375.375 0 1 1-.375.375.375.375 0 0 1 .375-.375m4.5 0a.375.375 0 1 1-.375.375A.375.375 0 0 1 12 9.75m4.5 0a.375.375 0 1 1-.375.375.375.375 0 0 1 .375-.375m-2.625 12h3m0-.75v1.5"/></svg>