<svg xmlns="http://www.w3.org/2000/svg" viewBox="0 0 24 24" width="24" height="24"><defs><style>.a{fill:none;stroke:#000;stroke-linecap:round;stroke-linejoin:round;stroke-width:1.5px}</style></defs><title>photography-equipment-tripod</title><path class="a" d="M14.982 2.478l2.729 2.673M12 23.25v-10.5m-9.75 10.5l5.993-10.5m13.507 10.5l-6-10.5m-.95-1.944a1.812 1.812 0 0 0-1.613-1.056h-2.381A1.812 1.812 0 0 0 9.2 10.806l-.957 1.944h7.507zM12 9.75v-6M8.25 6v1.5m0-.75H12m7.191-2.43l2.121 2.121a1.5 1.5 0 0 1 0 2.121 1.5 1.5 0 0 1-2.121 0L17.07 6.441z"/><rect class="a" x="9" y=".75" width="6" height="3" rx="1" ry="1"/></svg>