<svg xmlns="http://www.w3.org/2000/svg" viewBox="0 0 24 24" width="24" height="24"><defs><style>.a{fill:none;stroke:#000;stroke-linecap:round;stroke-linejoin:round;stroke-width:1.5px}</style></defs><title>picture-flower</title><path class="a" d="M23.25 18.75H.75V2.25a1.5 1.5 0 0 1 1.5-1.5h19.5a1.5 1.5 0 0 1 1.5 1.5zm0 0H.75v3a1.5 1.5 0 0 0 1.5 1.5h19.5a1.5 1.5 0 0 0 1.5-1.5zm-11.25 0V9.775"/><path class="a" d="M10.581 5.5A6.243 6.243 0 0 1 12 9.746a6.243 6.243 0 0 1-4.25-1.415c-1.563-1.563-2.2-3.464-1.415-4.246s2.683-.148 4.246 1.415z"/><path class="a" d="M13.419 5.5A6.243 6.243 0 0 0 12 9.746a6.243 6.243 0 0 0 4.25-1.415c1.563-1.563 2.2-3.464 1.415-4.246s-2.683-.148-4.246 1.415zM10.581 14A6.243 6.243 0 0 0 12 9.754a6.243 6.243 0 0 0-4.25 1.415c-1.563 1.563-2.2 3.465-1.415 4.246s2.683.148 4.246-1.415z"/><path class="a" d="M13.419 14A6.243 6.243 0 0 1 12 9.754a6.243 6.243 0 0 1 4.246 1.415c1.563 1.563 2.2 3.465 1.415 4.246s-2.679.148-4.242-1.415z"/></svg>