<svg xmlns="http://www.w3.org/2000/svg" viewBox="0 0 24 24" width="24" height="24"><defs><style>.a{fill:none;stroke:#000;stroke-linecap:round;stroke-linejoin:round;stroke-width:1.5px}</style></defs><title>picture-flower-1</title><rect class="a" x=".75" y=".75" width="22.5" height="22.5" rx="1.5" ry="1.5"/><path class="a" d="M12 15.75v7.5m1.688-9.429a.752.752 0 0 1 .936-.541 2.221 2.221 0 0 0 2.49-.511 2.224 2.224 0 0 0-.8-2.413.749.749 0 0 1 0-1.08 2.22 2.22 0 0 0 .8-2.412 2.221 2.221 0 0 0-2.49-.512.75.75 0 0 1-.936-.54c-.267-1.079-.983-1.9-1.688-1.9s-1.421.822-1.688 1.9a.75.75 0 0 1-.936.54 2.221 2.221 0 0 0-2.49.512 2.222 2.222 0 0 0 .8 2.412.75.75 0 0 1 0 1.081 2.22 2.22 0 0 0-.8 2.412 2.221 2.221 0 0 0 2.49.511.75.75 0 0 1 .936.541c.267 1.078.983 1.9 1.688 1.9s1.421-.821 1.688-1.9z"/><circle class="a" cx="12" cy="9.75" r="1.5"/><path class="a" d="M8.711 20.619a4.433 4.433 0 0 1-1.668-.68c-1.766-1.083-3.177-3.948-3.177-3.948a9.278 9.278 0 0 1 5.2 1.2m6.286 3.428a4.443 4.443 0 0 0 1.669-.68c1.765-1.083 3.176-3.948 3.176-3.948a9.281 9.281 0 0 0-5.2 1.2"/></svg>