<svg xmlns="http://www.w3.org/2000/svg" viewBox="0 0 24 24" width="24" height="24"><defs><style>.a{fill:none;stroke:#000;stroke-linecap:round;stroke-linejoin:round;stroke-width:1.5px}</style></defs><title>picture-double-landscape</title><path class="a" d="M18.75 5.25v-.978a2.011 2.011 0 0 0-2-2.022h-14a2.011 2.011 0 0 0-2 2.022v9.456a2.011 2.011 0 0 0 2 2.022m8.589 6l4.439-6.307a1.5 1.5 0 0 1 2.357-.128l4.938 5.643M10.875 12.75a.375.375 0 1 1-.375.375.375.375 0 0 1 .375-.375"/><rect class="a" x="6" y="8.25" width="17.25" height="13.5" rx="1" ry="1"/></svg>