<svg xmlns="http://www.w3.org/2000/svg" viewBox="0 0 24 24" width="24" height="24"><defs><style>.a{fill:none;stroke:#000;stroke-linecap:round;stroke-linejoin:round;stroke-width:1.5px}</style></defs><title>picture-stack-landscape</title><rect class="a" x="1.5" y=".75" width="15" height="16.5" rx=".75" ry=".75"/><path class="a" d="M19.5 3.75V19.5a.75.75 0 0 1-.75.75H4.5"/><path class="a" d="M22.5 6.75V22.5a.75.75 0 0 1-.75.75H7.5m9-10.5h-15m4.5 0l4.153-5.932a1.5 1.5 0 0 1 2.357-.128l3.99 4.56M5.25 4.125a.375.375 0 1 1-.375.375.375.375 0 0 1 .375-.375"/></svg>