<svg id="Regular" xmlns="http://www.w3.org/2000/svg" viewBox="0 0 24 24" width="24" height="24"><defs><style>.cls-1{fill:none;stroke:#000;stroke-linecap:round;stroke-linejoin:round;stroke-width:1.5px}</style></defs><title>pie</title><path class="cls-1" d="M19.483 20.2l-1.43 2.331a1.5 1.5 0 0 1-1.279.716H7.411a1.5 1.5 0 0 1-1.279-.716l-1.409-2.3"/><path class="cls-1" d="M21.95 18.684a1.35 1.35 0 0 0 .527-1.173C22.019 13.2 17.5 9.821 12 9.821S1.981 13.2 1.523 17.511a1.35 1.35 0 0 0 .527 1.173l1.189.952a2.8 2.8 0 0 0 3.5 0 2.806 2.806 0 0 1 3.5 0 2.806 2.806 0 0 0 3.5 0 2.806 2.806 0 0 1 3.5 0 2.8 2.8 0 0 0 3.5 0zm-9.933-4.434L12 12.714m3.733 1.536l-.75-1.5m-6.75 1.5l.75-1.5m3.75-12l-.617.823a1.584 1.584 0 0 0 .242 2.177 1.585 1.585 0 0 1 .242 2.177l-.618.823M6.21 2.25l-.617.823a1.585 1.585 0 0 0 .242 2.177 1.584 1.584 0 0 1 .243 2.177l-.618.823m13.273-6l.618.823a1.585 1.585 0 0 1-.243 2.177 1.584 1.584 0 0 0-.242 2.177l.617.823"/></svg>