<svg xmlns="http://www.w3.org/2000/svg" viewBox="0 0 24 24" width="24" height="24"><g fill="none" stroke="#000" stroke-linecap="round" stroke-linejoin="round" stroke-miterlimit="10"><path d="M11.5 6.017a7.483 7.483 0 015 1.483m7 2a2 2 0 01-2 2"/><path d="M9.546 3.78A3.492 3.492 0 004.75 2.472a3.5 3.5 0 011.715 2.536C4.37 6.276 2.91 8.24 2.574 10.5H.5v4h2.697c1.41 2.931 4.817 5 8.803 5 5.247 0 9.5-3.581 9.5-8 0-5.167-5.806-9.105-11.954-7.72z"/><circle cx="6" cy="10" r=".5"/><path d="M7.5 18.546V22m9-3.454V22"/></g><path fill="none" d="M0 0h24v24H0z"/></svg>