<svg xmlns="http://www.w3.org/2000/svg" viewBox="0 0 24 24" width="24" height="24"><defs><style>.a{fill:none;stroke:#000;stroke-linecap:round;stroke-linejoin:round;stroke-width:1.5px}</style></defs><title>pin-map-1</title><path class="a" d="M17.75 15.75v1.5a1.5 1.5 0 0 1-1.5 1.5h-12a1.5 1.5 0 0 1-1.5-1.5v-15a1.5 1.5 0 0 1 1.5-1.5H11M2.75 15l7.125-7.125M6.5 11.25l9 7.5m-5.25 0v4.5m-4.5 0h9M17 4.875a.375.375 0 0 1 .375.375m-.75 0A.375.375 0 0 1 17 4.875m0 .75a.375.375 0 0 1-.375-.375m.75 0a.375.375 0 0 1-.375.375"/><path class="a" d="M17 .75a4.5 4.5 0 0 1 4.5 4.5c0 1.921-2.688 5.576-3.909 7.138a.75.75 0 0 1-1.182 0C15.188 10.827 12.5 7.171 12.5 5.25A4.5 4.5 0 0 1 17 .75z"/></svg>