<svg xmlns="http://www.w3.org/2000/svg" viewBox="0 0 24 24" width="24" height="24"><defs><style>.a{fill:none;stroke:#000;stroke-linecap:round;stroke-linejoin:round;stroke-width:1.5px}</style></defs><title>pin-location-2</title><circle class="a" cx="12" cy="6" r="4.5"/><path class="a" d="M11.625 4.5a.375.375 0 0 1 .375.375m-.75 0a.375.375 0 0 1 .375-.375m0 .75a.375.375 0 0 1-.375-.375m.75 0a.375.375 0 0 1-.375.375M12 10.5v8.25m3-3.595c4.338.461 7.5 1.9 7.5 3.6 0 2.071-4.7 3.75-10.5 3.75S1.5 20.821 1.5 18.75c0-1.7 3.149-3.127 7.471-3.592"/></svg>