<svg id="Regular" xmlns="http://www.w3.org/2000/svg" viewBox="0 0 24 24" width="24" height="24"><defs><style>.cls-1{fill:none;stroke:#000;stroke-linecap:round;stroke-linejoin:round;stroke-width:1.5px}</style></defs><title>ping-pong-player</title><path class="cls-1" d="M16.651 8.55a1.5 1.5 0 0 0-2.1.3l-1.4 1.866L9.832 8.5A1.5 1.5 0 0 0 9 8.25H5.782A4.478 4.478 0 0 0 1.6 11.079l-.743 1.863a1.5 1.5 0 0 0 .837 1.95 1.5 1.5 0 0 0 1.949-.837l.746-1.862a1.493 1.493 0 0 1 1.393-.943h1.572l-.535 3.208-3.59 5.742a1.5 1.5 0 1 0 2.543 1.6l2.885-4.62.494.37a1.508 1.508 0 0 1 .6 1.2V21a1.5 1.5 0 0 0 3 0v-2.25a4.517 4.517 0 0 0-1.8-3.6l-1.071-.8.331-1.987 1.277.851a3 3 0 0 0 4.063-.7l1.4-1.863a1.5 1.5 0 0 0-.3-2.101z"/><circle class="cls-1" cx="10.5" cy="4.125" r="2.625"/><path class="cls-1" d="M20.25 15v7.5m-3-7.5h6m-1.5-3.375a.375.375 0 0 1 .375.375m-.75 0a.375.375 0 0 1 .375-.375m0 .75a.375.375 0 0 1-.375-.375m.75 0a.375.375 0 0 1-.375.375m-4.938-3.686L18.75 6.75"/><ellipse class="cls-1" cx="20.606" cy="4.894" rx="2.625" ry="1.969" transform="rotate(-45 20.606 4.894)"/></svg>