<svg xmlns="http://www.w3.org/2000/svg" viewBox="0 0 24 24" width="24" height="24"><g fill="none" stroke="#000" stroke-linejoin="round" stroke-miterlimit="10"><path d="M3.5 14.5a1 1 0 011-1h10V18a5.5 5.5 0 01-11 0v-3.5z"/><path stroke-linecap="round" d="M14.5 13.5s.292-13 9-13"/><circle stroke-linecap="round" cx="8.917" cy="10.458" r="1"/><path stroke-linecap="round" d="M7.493 4.069c.001-.023.007-.046.007-.069a3.5 3.5 0 10-7 0C.5 5.934 2.066 7.5 4 7.5c.502 0 .977-.109 1.408-.3.365.484.94.8 1.592.8a1.996 1.996 0 00.493-3.931z"/></g><path fill="none" d="M0 0h24v24H0z"/></svg>