<svg xmlns="http://www.w3.org/2000/svg" viewBox="0 0 24 24" width="24" height="24"><g fill="none" stroke="#000" stroke-linejoin="round" stroke-miterlimit="10"><path stroke-linecap="round" d="M13.5.5c2.485 0 4.734 1 6.363 2.5h.001L13.5 9.5v-9z"/><path stroke-linecap="round" d="M17.864 8.136L11.5 14.5v-9a9 9 0 106.364 2.636z"/><path stroke-linecap="round" d="M16.449 9.549L11.5 14.5v-7a7 7 0 104.949 2.049zM13.5 2.5c1.933 0 3.683.783 4.949 2.049"/><circle stroke-linecap="round" cx="9" cy="11" r="1"/><circle stroke-linecap="round" cx="8" cy="15.5" r="1"/><circle stroke-linecap="round" cx="12" cy="18.5" r="1"/><circle stroke-linecap="round" cx="15.5" cy="15.5" r="1"/><path d="M15.227 10.774L15.5 11c.391.39.391 1.109 0 1.5-.391.39-1.109.39-1.5 0l-.273-.226"/><path stroke-linecap="round" d="M17.266 5.734L17 5.5c-.391-.391-1.109-.391-1.5 0-.391.39-.391 1.109 0 1.5l.258.243"/></g><path fill="none" d="M0 0h24v24H0z"/></svg>