<svg xmlns="http://www.w3.org/2000/svg" viewBox="0 0 24 24" width="24" height="24"><defs><style>.a{fill:none;stroke:#000;stroke-linecap:round;stroke-linejoin:round;stroke-width:1.5px}</style></defs><title>plane</title><path class="a" d="M14.25 5.094l1.313-1.313a.75.75 0 0 0-.348-1.258L13.5 2.094l-.97-.969a.749.749 0 0 0-1.06 0l-.97.969-1.715.429a.75.75 0 0 0-.348 1.258L9.75 5.094s-3 11.935-3 12.75a5.25 5.25 0 0 0 10.5 0c0-.815-3-12.75-3-12.75z"/><path class="a" d="M13.949 17.845a2.609 2.609 0 0 1-1.949.749 2.609 2.609 0 0 1-1.949-.749m6.414-3.698L22.671 9.3a1.5 1.5 0 0 0 .579-1.184v-1.29a.749.749 0 0 0-.95-.726L15 8.094m-7.465 6.053L1.329 9.3A1.5 1.5 0 0 1 .75 8.111V6.826A.749.749 0 0 1 1.7 6.1L9 8.094"/></svg>