<svg xmlns="http://www.w3.org/2000/svg" viewBox="0 0 24 24" width="24" height="24"><defs><style>.a{fill:none;stroke:#000;stroke-linecap:round;stroke-linejoin:round;stroke-width:1.5px}</style></defs><title>plane-trip</title><path class="a" d="M16.805 8.289l-8.886 2.987-1.189-1.183-1.766.594a.749.749 0 0 0-.32 1.21l2.389 2.674a1.5 1.5 0 0 0 1.6.422l2.617-.879-.53 3.78a.75.75 0 0 0 .982.816l1.36-.458a.752.752 0 0 0 .46-.439l1.994-5.133L18 11.844a1.875 1.875 0 0 0-1.2-3.555z"/><path class="a" d="M14.317 9.126l-2.78-1.915a.752.752 0 0 0-.664-.093l-1.338.45a.75.75 0 0 0-.29 1.242l1.517 1.51"/><rect class="a" x=".75" y=".75" width="22.5" height="22.5" rx="4.5" ry="4.5"/></svg>