<svg id="Regular" xmlns="http://www.w3.org/2000/svg" viewBox="0 0 24 24" width="24" height="24"><defs><style>.cls-1{fill:none;stroke:#000;stroke-linecap:round;stroke-linejoin:round;stroke-width:1.5px}</style></defs><title>plant-bamboo</title><path class="cls-1" d="M9.738.766v22.5m4.5-22.5v22.5M7.488.766h9m-9 7.5h9m-9 7.5h9m-9 7.5h9m4.752-11.003a5.716 5.716 0 0 1-4 1.248 5.719 5.719 0 0 1 1.248-4 5.716 5.716 0 0 1 4-1.248 5.719 5.719 0 0 1-1.248 4zM2.736 19.772a5.719 5.719 0 0 0 4 1.248 5.713 5.713 0 0 0-1.249-4 5.716 5.716 0 0 0-4-1.248 5.716 5.716 0 0 0 1.249 4z"/></svg>