<svg id="Regular" xmlns="http://www.w3.org/2000/svg" viewBox="0 0 24 24" width="24" height="24"><defs><style>.cls-1{fill:none;stroke:#000;stroke-linecap:round;stroke-linejoin:round;stroke-width:1.5px}</style></defs><title>plant-sad</title><path class="cls-1" d="M8.985 14.28a.375.375 0 0 0-.375.375m.75 0a.375.375 0 0 0-.375-.375m0 .75a.375.375 0 0 0 .375-.375m-.75 0a.375.375 0 0 0 .375.375m6-.75a.375.375 0 0 0-.375.375m.75 0a.375.375 0 0 0-.375-.375m0 .75a.375.375 0 0 0 .375-.375m-.75 0a.375.375 0 0 0 .375.375"/><path class="cls-1" d="M18.626 21.436a2 2 0 0 1-1.99 1.83h-9.3a2 2 0 0 1-1.989-1.83L4.5 11.288h14.971zM3.5 11.288h16.97m-5.363 8.984a3.439 3.439 0 0 0-6.245 0m3.123-8.984l5.025-9.137a.482.482 0 0 1 .861.034 6.455 6.455 0 0 1-5.886 9.1zm0 0L6.959 2.151a.481.481 0 0 0-.86.034 6.455 6.455 0 0 0 5.886 9.1z"/><path class="cls-1" d="M9.009 5.878a40.73 40.73 0 0 1 2.548-4.869.5.5 0 0 1 .856 0 42.584 42.584 0 0 1 2.547 4.87"/></svg>