<svg xmlns="http://www.w3.org/2000/svg" viewBox="0 0 24 24" width="24" height="24"><g fill="none" stroke="#000" stroke-linecap="round" stroke-linejoin="round" stroke-miterlimit="10"><path d="M17.912 8.084A7.47 7.47 0 0118.5 11c0 4.143-3.357 7.5-7.5 7.5a7.48 7.48 0 01-3.494-.861m-1.705-1.233A7.5 7.5 0 1116.787 6.23"/><path d="M4.238 15.127L.793 18.293a.999.999 0 101.414 1.414l18.5-17a.999.999 0 10-1.414-1.414l-3.878 3.644"/><path d="M.5 19.5a2 2 0 003.414 1.414l18-16.5A2 2 0 0020.499 1M1.963 1v3.062M.463 2.5h3m13.5 18c1.656 0 3-1.344 3-3m0 0c0 1.656 1.344 3 3 3m-3 3a3 3 0 00-3-3m6 0a3 3 0 00-3 3"/></g><path fill="none" d="M0 0h24v24H0z"/></svg>