<svg id="Regular" xmlns="http://www.w3.org/2000/svg" viewBox="0 0 24 24" width="24" height="24"><defs><style>.cls-1{fill:none;stroke:#000;stroke-linecap:round;stroke-linejoin:round;stroke-width:1.5px}</style></defs><title>plant-pot-3</title><path class="cls-1" d="M20.247 13.516a1.5 1.5 0 0 1-1.5 1.5h-13.5a1.5 1.5 0 1 1 0-3h13.5a1.5 1.5 0 0 1 1.5 1.5zm-1.5 1.5l-1.3 6.978a1.5 1.5 0 0 1-1.482 1.272H8.034a1.5 1.5 0 0 1-1.482-1.272l-1.3-6.978M11.997.766v11.25m5.613-9.75a4.5 4.5 0 0 1-5.613 3M6.385.766a4.5 4.5 0 0 0 5.612 3m-5.612 2.25a4.5 4.5 0 0 0 5.612 3"/></svg>