<svg id="Regular" xmlns="http://www.w3.org/2000/svg" viewBox="0 0 24 24" width="24" height="24"><defs><style>.cls-1{fill:none;stroke:#000;stroke-linecap:round;stroke-linejoin:round;stroke-width:1.5px}</style></defs><title>plant-1</title><path class="cls-1" d="M14.372 5.641a7.781 7.781 0 0 1-2.255 4.875 7.781 7.781 0 0 1-2.255-4.875A7.785 7.785 0 0 1 12.117.766a7.785 7.785 0 0 1 2.255 4.875zm3.109 9.035a7.783 7.783 0 0 1-5.357-.39 7.786 7.786 0 0 1 3.766-3.831 7.78 7.78 0 0 1 5.357.391 7.78 7.78 0 0 1-3.766 3.83zm0 7.5a7.783 7.783 0 0 1-5.357-.39 7.786 7.786 0 0 1 3.766-3.831 7.78 7.78 0 0 1 5.357.391 7.78 7.78 0 0 1-3.766 3.83zm-10.718-7.5a7.783 7.783 0 0 0 5.357-.39 7.782 7.782 0 0 0-3.765-3.831A7.784 7.784 0 0 0 3 10.846a7.786 7.786 0 0 0 3.763 3.83zm0 7.5a7.783 7.783 0 0 0 5.357-.39 7.782 7.782 0 0 0-3.765-3.831A7.784 7.784 0 0 0 3 18.346a7.786 7.786 0 0 0 3.763 3.83zm5.356-11.66l.008 12.75"/></svg>