<svg id="Regular" xmlns="http://www.w3.org/2000/svg" viewBox="0 0 24 24" width="24" height="24"><defs><style>.cls-1{fill:none;stroke:#000;stroke-linecap:round;stroke-linejoin:round;stroke-width:1.5px}</style></defs><title>plant-pot-1</title><path class="cls-1" d="M10.653 8.984s-1.53 2.62-3.75 2.25c-4.5-.75-3.75-6.75-5.25-9a9.947 9.947 0 0 1 9 .75c2.247 1.5 2.247 3.75 0 6zm4.922 2.198S16.638 13 18.18 12.745c3.125-.521 2.6-4.688 3.646-6.251a6.913 6.913 0 0 0-6.251.521c-1.562 1.042-1.562 2.605 0 4.167z"/><path class="cls-1" d="M7.653 5.984s4.5 2.25 5.25 9.75c1.5-4.5 3.75-6 3.75-6"/><path class="cls-1" d="M16.038 23.234h-6.27a.75.75 0 0 1-.735-.6l-1.2-6a.75.75 0 0 1 .735-.9h8.67a.75.75 0 0 1 .736.9l-1.2 6a.751.751 0 0 1-.736.6z"/></svg>