<svg id="Regular" xmlns="http://www.w3.org/2000/svg" viewBox="0 0 24 24" width="24" height="24"><defs><style>.cls-1{fill:none;stroke:#000;stroke-linecap:round;stroke-linejoin:round;stroke-width:1.5px}</style></defs><title>plant-pot</title><path class="cls-1" d="M16.485 22.663a.75.75 0 0 1-.735.6h-7.5a.75.75 0 0 1-.735-.6l-.75-3a.75.75 0 0 1 .735-.9h9a.75.75 0 0 1 .735.9zM12 6.766v12m0-18a3 3 0 0 1 3 3v.75a1.5 1.5 0 0 0 1.5 1.5h.75a2.25 2.25 0 0 1 0 4.5 2.25 2.25 0 0 0-2.25 2.25.75.75 0 0 0 .75.75h1.875a1.875 1.875 0 0 1 1.125 3.375M12 .766a3 3 0 0 0-3 3v.75a1.5 1.5 0 0 1-1.5 1.5h-.75a2.25 2.25 0 0 0 0 4.5A2.25 2.25 0 0 1 9 12.766a.75.75 0 0 1-.75.75H6.375a1.875 1.875 0 0 0-1.126 3.374"/></svg>