<svg xmlns="http://www.w3.org/2000/svg" viewBox="0 0 24 24" width="24" height="24"><defs><style>.a{fill:none;stroke:#000;stroke-linecap:round;stroke-linejoin:round;stroke-width:1.5px}</style></defs><title>plane-info-center</title><path class="a" d="M23.25 23.25v-7.5a1.5 1.5 0 0 0-1.5-1.5H2.25a1.5 1.5 0 0 0-1.5 1.5v7.5"/><circle class="a" cx="7.5" cy="4.125" r="2.625"/><path class="a" d="M11.25 11.625a3 3 0 0 0-3-3h-1.5a3 3 0 0 0-3 3m17.726-8.564l-.983.182-3-2.493-1.176.217a.5.5 0 0 0-.308.793l1.534 2.03-1.966.365-.677-.892-1.337.248a.5.5 0 0 0-.364.7l1.123 2.459a1 1 0 0 0 1.092.567l6.61-1.227a1.5 1.5 0 1 0-.548-2.949z"/></svg>