<svg xmlns="http://www.w3.org/2000/svg" viewBox="0 0 24 24" width="24" height="24"><g fill="none" stroke="#000" stroke-linecap="round" stroke-linejoin="round" stroke-miterlimit="10"><path d="M7.497 20.967C6.861 20.318 5.979 20 5 20a3.5 3.5 0 00-3.5 3.5h21A3.5 3.5 0 0019 20c-.979 0-1.865.337-2.501.984"/><path d="M7 22s1.062-3.5 5-3.5c3.875 0 5 3.5 5 3.5m-2-11h1.675a5.999 5.999 0 005.692-4.103L23 5h-1.675a5.999 5.999 0 00-5.692 4.103L15 11z"/><path d="M13.5 18.695l-.963-13.196a.539.539 0 00-1.074 0l-.963 13.19M15 11l4-3M9 11H7.325a5.999 5.999 0 01-5.692-4.103L1 5h1.675a5.999 5.999 0 015.692 4.103L9 11zm0 0L5 8"/></g><path fill="none" d="M0 0h24v24H0z"/></svg>