<svg xmlns="http://www.w3.org/2000/svg" viewBox="0 0 24 24" width="24" height="24"><defs><style>.a{fill:none;stroke:#000;stroke-linecap:round;stroke-linejoin:round;stroke-width:1.5px}</style></defs><title>plane-boarding-pass-smartphone-check</title><path class="a" d="M15.751 9.75v-6a3 3 0 0 0-3-3H4.5a3 3 0 0 0-3 3v16.5a3 3 0 0 0 3 3h6m12-5.25a5.25 5.25 0 1 1-5.25-5.25"/><path class="a" d="M22.5 14.062l-4.785 4.786a.658.658 0 0 1-.929 0l-1.5-1.5M1.5 19.5h7.501M11.7 5.25l-4.95 6.6M6 6.6l3.9 1.05L12 11.1m-6.9.45l1.65.3.75 1.5"/></svg>