<svg xmlns="http://www.w3.org/2000/svg" viewBox="0 0 24 24" width="24" height="24"><defs><style>.a{fill:none;stroke:#000;stroke-linecap:round;stroke-linejoin:round;stroke-width:1.5px}</style></defs><title>plane-board-arrival-departure</title><rect class="a" x=".75" y="2.25" width="22.5" height="19.5" rx="1" ry="1"/><path class="a" d="M3.75 5.25V7.5l6 1.5m-3-.75v-3m7.5 1.5V9l6-1.5m-3 .75v-3m-13.5 7.5h.75m3 0h3m-6.75 3h.75m3 0h3m-6.75 3h.75m3 0h3m3-6h.75m3 0h3m-6.75 3h.75m3 0h3m-6.75 3h.75m3 0h3"/></svg>