<svg xmlns="http://www.w3.org/2000/svg" viewBox="0 0 24 24" width="24" height="24"><defs><style>.a{fill:none;stroke:#000;stroke-linecap:round;stroke-linejoin:round;stroke-width:1.5px}</style></defs><title>plane-trip-take-off-cancel</title><path class="a" d="M14.6 8.992l.4-1.036 3.2-1.076a2.412 2.412 0 0 0-1.537-4.573L5.234 6.149 3.705 4.628l-2.272.763a.965.965 0 0 0-.412 1.557l3.073 3.44a1.931 1.931 0 0 0 2.054.544L9.515 9.8l-.683 4.864"/><path class="a" d="M13.465 3.383L9.889.92A.967.967 0 0 0 9.035.8l-1.722.579a.965.965 0 0 0-.373 1.6L8.892 4.92"/><circle class="a" cx="17.235" cy="17.261" r="5.989"/><path class="a" d="M13.001 21.495l8.468-8.469"/></svg>