<svg xmlns="http://www.w3.org/2000/svg" viewBox="0 0 24 24" width="24" height="24"><defs><style>.a{fill:none;stroke:#000;stroke-linecap:round;stroke-linejoin:round;stroke-width:1.5px}</style></defs><title>plane-land</title><path class="a" d="M19.577 13.67l-12.72-6.2-.006-2.457L4.843 3.9a1.1 1.1 0 0 0-1.584.921l-.295 5.239a2.2 2.2 0 0 0 1.215 2.089l3.618 1.8-4.461 3.359a1.1 1.1 0 0 0 .173 1.86l1.881.932a1.1 1.1 0 0 0 .93.022l7.38-3.247 3.44 1.71a2.744 2.744 0 0 0 2.442-4.915z"/><path class="a" d="M16.276 12.06l-.9-4.918a1.1 1.1 0 0 0-.591-.784l-1.852-.919a1.1 1.1 0 0 0-1.586.986v3.233"/></svg>