<svg id="Regular" xmlns="http://www.w3.org/2000/svg" viewBox="0 0 24 24" width="24" height="24"><defs><style>.cls-1{fill:none;stroke:#000;stroke-linecap:round;stroke-linejoin:round;stroke-width:1.5px}</style></defs><title>plant</title><path class="cls-1" d="M15.011 6.35c0 3.083-3.006 5.583-3.006 5.583S9 9.433 9 6.35 12.005.766 12.005.766s3.006 2.5 3.006 5.584zm5.176 13.85C17.079 23.313 12 23.266 12 23.266s-.047-5.084 3.061-8.192 8.192-3.06 8.192-3.06.041 5.086-3.066 8.186z"/><path class="cls-1" d="M3.808 20.2C6.916 23.313 12 23.266 12 23.266s.047-5.084-3.061-8.192-8.191-3.06-8.191-3.06S.7 17.1 3.808 20.2zm8.197-8.267v11.333"/></svg>