<svg xmlns="http://www.w3.org/2000/svg" viewBox="0 0 24 24" width="24" height="24"><defs><style>.a{fill:none;stroke:#000;stroke-linecap:round;stroke-linejoin:round;stroke-width:1.5px}</style></defs><title>plane-trip-return-1</title><path class="a" d="M21.75 18.75a1.5 1.5 0 0 0 0-3H19.5l-3-4.5H15l.75 4.5H12L9.75 15v4.5l2.25-.75h3.75l-.75 4.5h2.25l2.25-4.5zm-15-1.5h-1.5m-3 0H.75m1.5-9a1.5 1.5 0 0 1 0-3H4.5l3-4.5H9l-.75 4.5H12l2.25-.75V9L12 8.25H8.25l.75 4.5H6.75L4.5 8.25zm15-1.5h1.5m3 0h1.5"/></svg>