<svg xmlns="http://www.w3.org/2000/svg" viewBox="0 0 24 24" width="24" height="24"><defs><style>.a{fill:none;stroke:#000;stroke-linecap:round;stroke-linejoin:round;stroke-width:1.5px}</style></defs><title>plane-trip-return</title><path class="a" d="M21 18.75h-1.5l-3.75-4.5h-1.786a.749.749 0 0 0-.671 1.085L15 18.75h-3l-.75-1.5H9.211a.75.75 0 0 0-.728.931l.983 3.933a1.5 1.5 0 0 0 1.455 1.136H21a2.25 2.25 0 0 0 0-4.5zm-20.25 3h1.5m3 0h1.5M3 5.25h1.5L8.25.75h1.786a.749.749 0 0 1 .671 1.085L9 5.25h3l.75-1.5h2.039a.75.75 0 0 1 .728.931l-.983 3.933a1.5 1.5 0 0 1-1.455 1.136H3a2.25 2.25 0 0 1 0-4.5zm20.25 3h-1.5m-3 0h-1.5"/></svg>