<svg id="Regular" xmlns="http://www.w3.org/2000/svg" viewBox="0 0 24 24" width="24" height="24"><defs><style>.cls-1{fill:none;stroke:#000;stroke-linecap:round;stroke-linejoin:round;stroke-width:1.5px}</style></defs><title>plant-flower</title><path class="cls-1" d="M17.25 14.312a1.984 1.984 0 0 1 .75 1.454c0 1.657-2.686 3-6 3s-6-1.343-6-3a1.981 1.981 0 0 1 .75-1.453"/><path class="cls-1" d="M17.953 16.138L16.5 21.016c-.393 1.179-2.015 2.25-4.5 2.25s-4.107-1.066-4.5-2.25l-1.453-4.878M14.25 5.266a2.25 2.25 0 0 1-4.5 0c0-1.242 2.25-4.5 2.25-4.5s2.25 3.258 2.25 4.5zM6.7 7.75a2.25 2.25 0 0 1-1.863 4.1C3.7 11.332 1.5 8.266 1.5 8.266s4.064-1.03 5.2-.516zm10.84 0a2.25 2.25 0 1 0 1.862 4.1c1.131-.514 3.1-3.58 3.1-3.58s-3.831-1.034-4.962-.52zM12 7.516v8.25"/><path class="cls-1" d="M7.649 11.026L12 12.766l4.708-1.569"/></svg>