<svg xmlns="http://www.w3.org/2000/svg" viewBox="0 0 24 24" width="24" height="24"><defs><style>.a{fill:none;stroke:#000;stroke-linecap:round;stroke-linejoin:round;stroke-width:1.5px}</style></defs><title>plane-trip-cloud</title><path class="a" d="M16.268 4.34l-11.277.036-.908-1.8-2.24.007a.9.9 0 0 0-.825 1.261L2.729 7.8a1.806 1.806 0 0 0 1.662 1.088l3.321-.01-2.04 4.113a.9.9 0 0 0 .811 1.3l1.726-.005a.9.9 0 0 0 .692-.327l4.224-5.1 3.157-.01a2.255 2.255 0 0 0-.014-4.51z"/><path class="a" d="M13.11 4.35l-2.446-3.24a.9.9 0 0 0-.723-.359l-1.7.006a.9.9 0 0 0-.8 1.308L8.6 4.364m12.207 18.884a2.25 2.25 0 1 0-1.622-3.8 2.995 2.995 0 1 0-2.878 3.8z"/></svg>