<svg id="Regular" xmlns="http://www.w3.org/2000/svg" viewBox="0 0 24 24" width="24" height="24"><defs><style>.cls-1{fill:none;stroke:#000;stroke-linecap:round;stroke-linejoin:round;stroke-width:1.5px}</style></defs><title>plant-smile</title><path class="cls-1" d="M18.656 21.436a2 2 0 0 1-1.989 1.83h-9.3a2 2 0 0 1-1.99-1.83l-.848-10.148H19.5zM3.531 11.288H20.5M10.672 14.9a1.246 1.246 0 0 0-2.151 0m4.838 0a1.245 1.245 0 0 1 2.15 0m-6.616 3.374a3.439 3.439 0 0 0 6.244 0m-3.122-6.986l5.026-9.137a.481.481 0 0 1 .86.034 6.455 6.455 0 0 1-5.886 9.1zm0 0L6.99 2.151a.482.482 0 0 0-.861.034 6.455 6.455 0 0 0 5.886 9.1z"/><path class="cls-1" d="M9.04 5.878a40.738 40.738 0 0 1 2.547-4.869.5.5 0 0 1 .856 0 42.574 42.574 0 0 1 2.548 4.87"/></svg>