<svg id="Regular" xmlns="http://www.w3.org/2000/svg" viewBox="0 0 24 24" width="24" height="24"><defs><style>.cls-1{fill:none;stroke:#000;stroke-linecap:round;stroke-linejoin:round;stroke-width:1.5px}</style></defs><title>plant-bonsai-1</title><path class="cls-1" d="M14.111 23.266H8.618c-.261 0-.483-.265-.526-.626l-.355-3c-.054-.458.2-.874.525-.874h6.205c.329 0 .58.416.526.874l-.356 3c-.043.36-.265.626-.526.626zm6.889-12a2.25 2.25 0 1 0-.81-4.343 3.741 3.741 0 0 0-3.69-3.157 3.7 3.7 0 0 0-.5.05 5.242 5.242 0 0 0-10 2.2c0 .111.026.215.033.325a2.994 2.994 0 1 0-2.283 4.925zm-9.75 0v7.5"/><path class="cls-1" d="M11.25 16.516a4.2 4.2 0 0 0 4.5-4.5v-.75m-4.5 4.501c-3.6 0-4.5-2.25-4.5-3.75v-.751"/></svg>