<svg id="Regular" xmlns="http://www.w3.org/2000/svg" viewBox="0 0 24 24" width="24" height="24"><defs><style>.cls-1{fill:none;stroke:#000;stroke-linecap:round;stroke-linejoin:round;stroke-width:1.5px}</style></defs><title>plant-cactus</title><path class="cls-1" d="M18.6 17.547a.729.729 0 0 0-.575-.281H5.98a.73.73 0 0 0-.708.907l.678 2.712A3.143 3.143 0 0 0 9 23.266h6a3.143 3.143 0 0 0 3.049-2.381l.678-2.712a.726.726 0 0 0-.127-.626zM12 .766v2.25M1.5 5.668l.75 1.299M4.5 5.668l-.75 1.299m4.007-4.701l1.415 1.75m7.071-1.75l-1.415 1.75M22.5 7.168l-.75 1.299M19.5 7.168l.75 1.299m.75-.201a1.5 1.5 0 0 0-1.5 1.5 1.5 1.5 0 0 1-1.5 1.5h-1.5v-3.75a4.5 4.5 0 0 0-9 0v2.25H6a1.5 1.5 0 0 1-1.5-1.5 1.5 1.5 0 0 0-3 0 4.5 4.5 0 0 0 4.5 4.5h1.5v4.5h9v-3H18a4.5 4.5 0 0 0 4.5-4.5 1.5 1.5 0 0 0-1.5-1.5z"/></svg>