<svg id="Regular" xmlns="http://www.w3.org/2000/svg" viewBox="0 0 24 24" width="24" height="24"><defs><style>.cls-1{fill:none;stroke:#000;stroke-linecap:round;stroke-linejoin:round;stroke-width:1.5px}</style></defs><title>platypus</title><path class="cls-1" d="M12.033 13.212a3.678 3.678 0 0 1 7.356 0c0 2.031-.736 4.413-5.149 4.413H7.23"/><path class="cls-1" d="M19.389 13.212h3.678s.735 2.942-.736 3.678-3.678-.736-3.678-.736l-.1-.069M12.315 11.8l-.282-.056a40.637 40.637 0 0 0-6.62-.736C1 11.005.264 14.683 1 16.89s2.207 2.942 4.414 2.942h2.941m-2.207-5.149a3.556 3.556 0 0 1 0 5.149m6.621-2.207s-.736 2.207 2.942 2.207"/><path class="cls-1" d="M2.013 12.157l-.278-.416a5.3 5.3 0 0 1 0-5.149c1.471-2.943 2.087-5.269 4.413-2.943 2.207 2.207 1.471 2.207 0 3.678-1.523 1.523-2.257 2.258-2.2 3.836m12.131 1.306a.375.375 0 0 0-.375.375m.75 0a.375.375 0 0 0-.375-.375m0 .75a.375.375 0 0 0 .375-.375m-.754 0a.375.375 0 0 0 .375.375"/></svg>