<svg xmlns="http://www.w3.org/2000/svg" viewBox="0 0 24 24" width="24" height="24"><defs><style>.a{fill:none;stroke:#000;stroke-linecap:round;stroke-linejoin:round;stroke-width:1.5px}</style></defs><title>playlist-star-favorite</title><path class="a" d="M20.25 8.25v-6a1.5 1.5 0 0 0-1.5-1.5H2.25a1.5 1.5 0 0 0-1.5 1.5v15a1.5 1.5 0 0 0 1.5 1.5H9"/><circle class="a" cx="6.375" cy="13.125" r="1.875"/><path class="a" d="M8.25 13.125V6.331a1.5 1.5 0 0 1 1.026-1.423l4.5-1.25a1.5 1.5 0 0 1 1.974 1.423V9m2.197 2.68l1.541 4.07h3a.735.735 0 0 1 .518 1.283l-2.6 1.816 1.442 3.313a.786.786 0 0 1-1.119.982l-3.489-1.961-3.487 1.961a.786.786 0 0 1-1.119-.982l1.443-3.313-2.6-1.816a.734.734 0 0 1 .515-1.283h3l1.544-4.07a.8.8 0 0 1 1.411 0z"/></svg>