<svg xmlns="http://www.w3.org/2000/svg" viewBox="0 0 24 24" width="24" height="24"><defs><style>.a{fill:none;stroke:#000;stroke-linecap:round;stroke-linejoin:round;stroke-width:1.5px}</style></defs><title>playlist-warning</title><path class="a" d="M20.25 8.25v-6a1.5 1.5 0 0 0-1.5-1.5H2.25a1.5 1.5 0 0 0-1.5 1.5v15a1.5 1.5 0 0 0 1.5 1.5h6"/><circle class="a" cx="6.375" cy="13.125" r="1.875"/><path class="a" d="M8.25 13.125V6.331a1.5 1.5 0 0 1 1.026-1.423l4.5-1.25a1.5 1.5 0 0 1 1.974 1.423V8.25m1.5 12a.375.375 0 1 1-.375.375.375.375 0 0 1 .375-.375m0-2.25v-3"/><path class="a" d="M23.063 20.682a1.774 1.774 0 0 1-1.587 2.568h-8.452a1.774 1.774 0 0 1-1.587-2.568l4.226-8.451a1.774 1.774 0 0 1 3.174 0z"/></svg>