<svg xmlns="http://www.w3.org/2000/svg" viewBox="0 0 24 24" width="24" height="24"><defs><style>.a{fill:none;stroke:#000;stroke-linecap:round;stroke-linejoin:round;stroke-width:1.5px}</style></defs><title>playlist-sync</title><path class="a" d="M20.25 8.265v-6a1.5 1.5 0 0 0-1.5-1.5H2.25a1.5 1.5 0 0 0-1.5 1.5v15a1.5 1.5 0 0 0 1.5 1.5H7.5"/><circle class="a" cx="6.375" cy="13.14" r="1.875"/><path class="a" d="M8.25 13.14V6.346a1.5 1.5 0 0 1 1.026-1.423l4.5-1.25A1.5 1.5 0 0 1 15.75 5.1v3.165m3.75 7.47h3.75v-4.5m-.189 4.5a6 6 0 1 0-1.121 5.243"/></svg>