<svg xmlns="http://www.w3.org/2000/svg" viewBox="0 0 24 24" width="24" height="24"><defs><style>.a{fill:none;stroke:#000;stroke-linecap:round;stroke-linejoin:round;stroke-width:1.5px}</style></defs><title>playlist-songs</title><circle class="a" cx="21.052" cy="18.052" r="2.198"/><circle class="a" cx="10.552" cy="21.052" r="2.198"/><path class="a" d="M12.75 21.052V11.4a2.068 2.068 0 0 1 1.415-1.963l6.362-1.727a2.068 2.068 0 0 1 2.723 1.962v8.38M5.25.75h15m-15 6h6m-6 6h3M1.5 1.125A.375.375 0 1 1 1.125.75a.375.375 0 0 1 .375.375m0 5.25A.375.375 0 1 1 1.125 6a.375.375 0 0 1 .375.375m0 6A.375.375 0 1 1 1.125 12a.375.375 0 0 1 .375.375"/></svg>