<svg xmlns="http://www.w3.org/2000/svg" viewBox="0 0 24 24" width="24" height="24"><defs><style>.a{fill:none;stroke:#000;stroke-linecap:round;stroke-linejoin:round;stroke-width:1.5px}</style></defs><title>playlist-repeat</title><path class="a" d="M20.25 10.5V2.249a1.5 1.5 0 0 0-1.5-1.5H2.25a1.5 1.5 0 0 0-1.5 1.5v15a1.5 1.5 0 0 0 1.5 1.5H7.5"/><path class="a" d="M15 21.749h-1.125a3.385 3.385 0 0 1-3.375-3.375A3.385 3.385 0 0 1 13.875 15h1.875"/><path class="a" d="M14.25 13.501l1.5 1.498-1.5 1.5M18.75 15h1.125a3.385 3.385 0 0 1 3.375 3.375 3.385 3.385 0 0 1-3.375 3.375H18"/><path class="a" d="M19.5 23.251L18 21.749l1.5-1.5"/><circle class="a" cx="6.375" cy="13.124" r="1.875"/><path class="a" d="M8.25 13.124V6.33a1.5 1.5 0 0 1 1.026-1.423l4.5-1.25A1.5 1.5 0 0 1 15.75 5.08v5.42"/></svg>