<svg xmlns="http://www.w3.org/2000/svg" viewBox="0 0 24 24" width="24" height="24"><defs><style>.a{fill:none;stroke:#000;stroke-linecap:round;stroke-linejoin:round;stroke-width:1.5px}</style></defs><title>player-phone-station</title><circle class="a" cx="5.25" cy="18.75" r="1.5"/><circle class="a" cx="18.75" cy="18.75" r="1.5"/><path class="a" d="M7.5 14.25H5.25a4.5 4.5 0 0 0 0 9h13.5a4.5 4.5 0 0 0 0-9H16.5"/><path class="a" d="M16.458 2.71A1.984 1.984 0 0 0 14.451.75l-5 .018A1.985 1.985 0 0 0 7.46 2.743l.04 11.805a1.984 1.984 0 0 0 2.006 1.961l5-.018a1.984 1.984 0 0 0 1.994-1.975zM7.5 12.75h9m-5.25 7.5h1.5"/></svg>