<svg xmlns="http://www.w3.org/2000/svg" viewBox="0 0 24 24" width="24" height="24"><g fill="none" stroke="#000" stroke-linecap="round" stroke-linejoin="round" stroke-miterlimit="10"><path d="M22.536 9.692l-3.89 3.89c-2.139 2.139-5.798 1.979-8.131-.354-2.334-2.334-2.493-5.994-.354-8.133l3.889-3.889m.001.001l8.485 8.485m-6.364-6.364L19 .5m1.415 7.07l2.828-2.828m-9.192-.707l5.656 5.657"/><circle cx="13.697" cy="10.046" r="1.5"/><path d="M11.698 14.167L9.454 16.41l-2.121-2.121 2.243-2.244"/><path d="M8.394 15.35l-4.596 4.596a2 2 0 102.828 2.828l3.182-3.182a1.5 1.5 0 012.122 2.121l-1.683 1.682"/></g><path fill="none" d="M0 0h24v24H0z"/></svg>