<svg xmlns="http://www.w3.org/2000/svg" viewBox="0 0 24 24" width="24" height="24"><defs><style>.a{fill:none;stroke:#000;stroke-linecap:round;stroke-linejoin:round;stroke-width:1.5px}</style></defs><title>podcast-live</title><path class="a" d="M1.125 4.875a.375.375 0 1 1-.375.375.375.375 0 0 1 .375-.375m8 11.25v-7.5m3 0v2.546a8.932 8.932 0 0 0 1.5 4.954 8.932 8.932 0 0 0 1.5-4.954V8.625m-12 0v6a1.5 1.5 0 0 0 1.5 1.5h1.5m15 0h-1.5a1.5 1.5 0 0 1-1.5-1.5v-4.5a1.5 1.5 0 0 1 1.5-1.5h1.5m-3 4.5h3m-16.5-7.5H23.25m0 13.5H.75"/></svg>