<svg xmlns="http://www.w3.org/2000/svg" viewBox="0 0 24 24" width="24" height="24"><g fill="none" stroke="#000" stroke-linejoin="round" stroke-miterlimit="10"><path d="M12.5 9.5v2m3-8a3 3 0 10-6 0v3a3 3 0 106 0v-3zm-6 3h6m-5 10h-4l-3-5h18l-3 5h-4"/><path stroke-linecap="round" d="M10.5 23.5v-9h4v9m-3-19h2m-2-2h2m-7.439 2c.585-.586.586-1.414 0-2s-1.415-.586-2 0L2.561 4l2 2 1.5-1.5z"/><path stroke-linecap="round" d="M3.561 5c-.977.978-.977 3.023 0 4l2.5 2.5m12.878-7c-.585-.586-.586-1.414 0-2s1.415-.586 2 0l1.5 1.5-2 2-1.5-1.5z"/><path stroke-linecap="round" d="M21.439 5c.977.978.977 3.023 0 4l-2.5 2.5"/></g><path fill="none" d="M0 0h24v24H0z"/></svg>