<svg xmlns="http://www.w3.org/2000/svg" viewBox="0 0 24 24" width="24" height="24"><defs><style>.a{fill:none;stroke:#000;stroke-linecap:round;stroke-linejoin:round;stroke-width:1.5px}</style></defs><title>police-hat-4</title><path class="a" d="M3.75 14.5h16.5m0 3H3.75m.75 0s-.6 5.25 7.5 5.25 7.5-5.25 7.5-5.25m0-3l3.289-4.6a.751.751 0 0 0-.194-1.06A6.013 6.013 0 0 1 19.5 3.87a.752.752 0 0 0-.868-.7 7.633 7.633 0 0 1-6.155-2.04.748.748 0 0 0-.953 0 7.634 7.634 0 0 1-6.155 2.039.75.75 0 0 0-.868.7 6.015 6.015 0 0 1-3.1 4.966.751.751 0 0 0-.19 1.065L4.5 14.5"/><path class="a" d="M11.637 4.637a.406.406 0 0 1 .726 0l.844 1.7a.4.4 0 0 0 .3.219l1.893.274a.4.4 0 0 1 .326.271.4.4 0 0 1-.1.407l-1.372 1.335a.394.394 0 0 0-.115.35l.324 1.88a.4.4 0 0 1-.162.389.409.409 0 0 1-.426.029l-1.686-.882a.409.409 0 0 0-.379 0l-1.686.882a.409.409 0 0 1-.426-.029.4.4 0 0 1-.162-.389l.324-1.88a.394.394 0 0 0-.115-.35L8.37 7.509a.393.393 0 0 1-.1-.407.4.4 0 0 1 .33-.271l1.894-.274a.405.405 0 0 0 .3-.219z"/></svg>