<svg xmlns="http://www.w3.org/2000/svg" viewBox="0 0 24 24" width="24" height="24"><defs><style>.a{fill:none;stroke:#000;stroke-linecap:round;stroke-linejoin:round;stroke-width:1.5px}</style></defs><title>police-woman-spy-1</title><path class="a" d="M6.961 10.959L7.691 12a5.251 5.251 0 0 0 8.618 0l.732-1.041M2.25 23.25a10.67 10.67 0 0 1 19.5 0M3 6.75h18M6 6.752l1.66-4.976A1.5 1.5 0 0 1 9.854.964l1.374.825a1.5 1.5 0 0 0 1.544 0l1.374-.825a1.5 1.5 0 0 1 2.194.812L18 6.752"/><path class="a" d="M12 23.25l-3.411-5.779L6.75 21.75 9 23.25m3 0l3.411-5.779 1.839 4.279-2.25 1.5M18.75 7.5v.75a3 3 0 0 1-3 3h-1.629a1.5 1.5 0 0 1-1.06-.439L12 9.75l-1.061 1.061a1.5 1.5 0 0 1-1.06.439H8.25a3 3 0 0 1-3-3V7.5m1.528 3.364A6.1 6.1 0 0 1 3.75 15.75m13.472-4.886a6.1 6.1 0 0 0 3.028 4.886"/></svg>