<svg xmlns="http://www.w3.org/2000/svg" viewBox="0 0 24 24" width="24" height="24"><defs><style>.a{fill:none;stroke:#000;stroke-linecap:round;stroke-linejoin:round;stroke-width:1.5px}</style></defs><title>police-man-2</title><path class="a" d="M17.2 9.75a5.251 5.251 0 0 1-10.4 0m-4.55 13.5a10.671 10.671 0 0 1 19.5 0m-9.75 0v-6.334M2.25 6.75a64.13 64.13 0 0 0 19.5 0"/><path class="a" d="M6.393 7.25l1.235-4.325A3 3 0 0 1 10.513.75h2.974a3 3 0 0 1 2.885 2.175l1.235 4.325"/><path class="a" d="M12 3.375a.375.375 0 1 0 .375.375.375.375 0 0 0-.375-.375m4.125 19.875h1.5"/></svg>