<svg xmlns="http://www.w3.org/2000/svg" viewBox="0 0 24 24" width="24" height="24"><defs><style>.a{fill:none;stroke:#000;stroke-linecap:round;stroke-linejoin:round;stroke-width:1.5px}</style></defs><title>police-woman-1</title><path class="a" d="M16.888 8.552a5.238 5.238 0 1 1-9.776 0M3.047 23.25a10.6 10.6 0 0 1 17.906 0M12 23.132v-4.805m5.968-11.609a11.811 11.811 0 0 0 1.493-4.476 8.322 8.322 0 0 1-5.736-.629L12 .75l-1.725.863a8.322 8.322 0 0 1-5.736.629 11.829 11.829 0 0 0 1.493 4.476z"/><path class="a" d="M6.085 6.718C6.447 9.248 9.369 9.7 12 9.7s5.553-.455 5.915-2.985zM12 3.734a.373.373 0 1 0 .373.373.373.373 0 0 0-.373-.373m3.73 19.398h1.492M6.785 10.177a4.856 4.856 0 0 1-2.992 4M17.2 10.023a5.02 5.02 0 0 0 3 4.156"/></svg>