<svg xmlns="http://www.w3.org/2000/svg" viewBox="0 0 24 24" width="24" height="24"><defs><style>.a{fill:none;stroke:#000;stroke-linecap:round;stroke-linejoin:round;stroke-width:1.5px}</style></defs><title>police-woman-3</title><path class="a" d="M2.424 23.252a10.669 10.669 0 0 1 19.5 0m-9.75-.004v-6.333M2.076 6.748a64.067 64.067 0 0 0 19.5 0"/><path class="a" d="M6.219 7.248l1.235-4.324A3 3 0 0 1 10.339.748h2.974A3 3 0 0 1 16.2 2.924l1.236 4.324"/><path class="a" d="M11.826 3.373a.375.375 0 1 0 .375.375.375.375 0 0 0-.375-.375m4.098 19.875h1.5M6.258 7.123s-.058 4.018-3.271 5.625m14.407-5.625s.057 4.018 3.271 5.625M6.842 7.3l-.048.161A5.26 5.26 0 1 0 16.809 7.3"/></svg>