<svg xmlns="http://www.w3.org/2000/svg" viewBox="0 0 24 24" width="24" height="24"><defs><style>.a{fill:none;stroke:#000;stroke-linecap:round;stroke-linejoin:round;stroke-width:1.5px}</style></defs><title>police-polygraph</title><rect class="a" x=".75" y="14.25" width="22.5" height="9" rx="1.5" ry="1.5"/><path class="a" d="M23.25 5.25v-3a1.5 1.5 0 0 0-1.5-1.5h-3a1.5 1.5 0 0 0-1.5 1.5v3a3 3 0 0 0 6 0zm-6-1.5h6"/><path class="a" d="M20.25 8.25v1.5a1.5 1.5 0 0 1-1.5 1.5h-6a3 3 0 0 1-3-3v-4.5a3 3 0 0 0-6 0v10.5m-3 3h3m-3 3h3m3-3h9v3h-9zm12.75 1.125a.375.375 0 0 1 .375.375m-.75 0a.375.375 0 0 1 .375-.375m0 .75a.375.375 0 0 1-.375-.375m.75 0a.375.375 0 0 1-.375.375"/></svg>