<svg xmlns="http://www.w3.org/2000/svg" viewBox="0 0 24 24" width="24" height="24"><defs><style>.a{fill:none;stroke:#000;stroke-linecap:round;stroke-linejoin:round;stroke-width:1.5px}</style></defs><title>police-man-spy-1</title><path class="a" d="M6.972 10.964L7.691 12a5.251 5.251 0 0 0 8.618 0l.719-1.036M2.25 23.25a10.669 10.669 0 0 1 19.5 0M3 6.75h18M6 6.751l1.66-4.976A1.5 1.5 0 0 1 9.854.963l1.374.825a1.5 1.5 0 0 0 1.544 0l1.374-.825a1.5 1.5 0 0 1 2.194.812L18 6.751"/><path class="a" d="M12 23.25l-3.411-5.78-1.839 4.28L9 23.25m3 0l3.411-5.78 1.839 4.28-2.25 1.5m3.75-16.499v1.5a3 3 0 0 1-3 3h-1.629a1.5 1.5 0 0 1-1.06-.44L12 9.75l-1.061 1.06a1.5 1.5 0 0 1-1.06.44H8.25a3 3 0 0 1-3-3v-1.5"/></svg>