<svg xmlns="http://www.w3.org/2000/svg" viewBox="0 0 24 24" width="24" height="24"><defs><style>.a{fill:none;stroke:#000;stroke-linecap:round;stroke-linejoin:round;stroke-width:1.5px}</style></defs><title>police-man-spy-2</title><path class="a" d="M2.25 23.25a10.669 10.669 0 0 1 19.5 0m-4.5-14.088a5.23 5.23 0 0 1-.941 3m-8.618.001a5.23 5.23 0 0 1-.941-3"/><path class="a" d="M11.25 12.162c1.1 2.344-2.968 3.412-5.4 2.531.879-2.433 4.302-4.874 5.4-2.531zm1.5 0c-1.1 2.344 2.968 3.412 5.4 2.531-.879-2.433-4.302-4.874-5.4-2.531zM3 6.75h18M6 6.751l1.66-4.976A1.5 1.5 0 0 1 9.854.963l1.374.825a1.5 1.5 0 0 0 1.544 0l1.374-.825a1.5 1.5 0 0 1 2.194.812L18 6.751M12 23.25l-3.411-5.78-1.839 4.28L9 23.25m3 0l3.411-5.78 1.839 4.28-2.25 1.5"/></svg>