<svg xmlns="http://www.w3.org/2000/svg" viewBox="0 0 24 24" width="24" height="24"><defs><style>.a{fill:none;stroke:#000;stroke-linecap:round;stroke-linejoin:round;stroke-width:1.5px}</style></defs><title>police-rotating-light</title><path class="a" d="M18.75 18.75H5.25a3 3 0 0 0-3 3 1.5 1.5 0 0 0 1.5 1.5h16.5a1.5 1.5 0 0 0 1.5-1.5 3 3 0 0 0-3-3zm-4.185-13.5h-5.13a3 3 0 0 0-2.982 2.669L5.25 18.75h13.5l-1.2-10.831a3 3 0 0 0-2.985-2.669z"/><circle class="a" cx="12" cy="13.5" r="2.25"/><path class="a" d="M12 15.75v3m0-16.5V.75m-9.75 9H.75m1.5-7.5l1.5 1.5m18 6h1.5m-1.5-7.5l-1.5 1.5"/></svg>