<svg xmlns="http://www.w3.org/2000/svg" viewBox="0 0 24 24" width="24" height="24"><defs><style>.a{fill:none;stroke:#000;stroke-linecap:round;stroke-linejoin:round;stroke-width:1.5px}</style></defs><title>police-woman-2</title><path class="a" d="M18.75 8.25c0-5.063-3.022-7.5-6.75-7.5s-6.75 2.437-6.75 7.5zm-13.5 0c.781 4.352 12.714 4.381 13.5 0"/><path class="a" d="M12 5.122a.375.375 0 1 0 .375.375.375.375 0 0 0-.375-.375m5.245 5.15a5.25 5.25 0 1 1-10.49-.007M3 23.25a10.658 10.658 0 0 1 18 0m-9 0v-4.949m3.75 4.949h1.5M6.432 10.039s-.057 4.1-3.271 5.711m14.407-5.705s.057 4.1 3.271 5.705"/></svg>