<svg xmlns="http://www.w3.org/2000/svg" viewBox="0 0 24 24" width="24" height="24"><defs><style>.a{fill:none;stroke:#000;stroke-linecap:round;stroke-linejoin:round;stroke-width:1.5px}</style></defs><title>police-hat-6</title><path class="a" d="M2 10.5V3.2a1.507 1.507 0 0 1 .99-1.41A33.282 33.282 0 0 1 11.75.75a33.282 33.282 0 0 1 8.76 1.04 1.507 1.507 0 0 1 .99 1.41v7.3M2 16.5s.75 6.75 9.75 6.75 9.75-6.75 9.75-6.75zm0-3h19.5"/><path class="a" d="M11.75 10.5C9.8 9.325 8.593 8.929 8.593 7.007V4.5h6v2.507c0 1.782-1.116 2.287-2.843 3.493z"/></svg>