<svg xmlns="http://www.w3.org/2000/svg" viewBox="0 0 24 24" width="24" height="24"><defs><style>.a{fill:none;stroke:#000;stroke-linecap:round;stroke-linejoin:round;stroke-width:1.5px}</style></defs><title>police-hat-5</title><path class="a" d="M4.889 19.935C7.337 16.464 12.658 12.684 21.75 8.5M12 13.71A80.471 80.471 0 0 0 2.25 8.5m12 8.25l3-1.5"/><path class="a" d="M6.309 10.468l5.081-7.114a.75.75 0 0 1 1.22 0l5.08 7.112"/><path class="a" d="M8.674 7.157A25.455 25.455 0 0 0 2.25 8.5L.936 17.7a1.5 1.5 0 0 0 1.125 1.668A42.349 42.349 0 0 0 12 20.5a42.349 42.349 0 0 0 9.939-1.137 1.5 1.5 0 0 0 1.124-1.663L21.75 8.5a25.455 25.455 0 0 0-6.424-1.343"/></svg>