<svg xmlns="http://www.w3.org/2000/svg" viewBox="0 0 24 24" width="24" height="24"><g fill="none" stroke="#000" stroke-linecap="round" stroke-linejoin="round" stroke-miterlimit="10"><path d="M9.437 15.5l-6.341 1.755A4 4 0 00.5 21v2.5h23V21a3.999 3.999 0 00-2.596-3.745L14.583 15.5M9 9.502c0-.553.448-.5 1-.5s1-.053 1 .5m2 0c0-.553.448-.5 1-.5s1-.053 1 .5"/><path d="M7 6.649V8.5c-1.5 0-1.5 3 0 3 0 3 3.5 5.027 5 5.027m5-9.878V8.5c1.5 0 1.5 3 0 3 0 3-3.5 5.027-5 5.027m4.5 1.973h3v2l-1.5 1-1.5-1zM11.5 2h1v1l-.5.5-.5-.5z"/><path d="M12 7.5c-6 0-6-2-6-2h12s0 2-6 2zm7-2H5V3C8.5 3 8.5.5 12 .5S16 3 19 3v2.5zm-8.5 10.625V23.5m3-7.402V23.5"/></g><path fill="none" d="M0 0h24v24H0z"/></svg>