<svg xmlns="http://www.w3.org/2000/svg" viewBox="0 0 24 24" width="24" height="24"><defs><style>.a{fill:none;stroke:#000;stroke-linecap:round;stroke-linejoin:round;stroke-width:1.5px}</style></defs><title>police-hat-7</title><path class="a" d="M17.25 3.751H6.75a6 6 0 0 0-5.97 6.6l.633 6.328a3.087 3.087 0 0 0 2.338 2.692 37.973 37.973 0 0 0 8.249.878 37.973 37.973 0 0 0 8.249-.882 3.087 3.087 0 0 0 2.338-2.692l.633-6.328a6 6 0 0 0-5.97-6.596z"/><path class="a" d="M20.25 19.368V14.25a3 3 0 0 0-3-3H6.75a3 3 0 0 0-3 3v5.117"/><path class="a" d="M15 15.75c0 .828-1.343 1.5-3 1.5s-3-.672-3-1.5"/></svg>