<svg xmlns="http://www.w3.org/2000/svg" viewBox="0 0 24 24" width="24" height="24"><defs><style>.a{fill:none;stroke:#000;stroke-linecap:round;stroke-linejoin:round;stroke-width:1.5px}</style></defs><title>police-man-1</title><path class="a" d="M17.2 11.25a5.251 5.251 0 0 1-10.394 0M3 23.219a10.516 10.516 0 0 1 9-4.8 10.516 10.516 0 0 1 9 4.8m-9 .031v-4.831M18 6.75a11.867 11.867 0 0 0 1.5-4.5 8.368 8.368 0 0 1-5.766-.633L12 .75l-1.734.867A8.368 8.368 0 0 1 4.5 2.25 11.9 11.9 0 0 0 6 6.75zm-11.946 0c.364 2.543 3.3 3 5.946 3s5.582-.457 5.946-3z"/><path class="a" d="M12 3.75a.375.375 0 1 0 .375.375A.375.375 0 0 0 12 3.75m3.75 19.5h1.5"/></svg>