<svg xmlns="http://www.w3.org/2000/svg" viewBox="0 0 24 24" width="24" height="24"><defs><style>.a{fill:none;stroke:#000;stroke-linecap:round;stroke-linejoin:round;stroke-width:1.5px}</style></defs><title>police-man-3</title><path class="a" d="M18.75 8.25c0-5.063-3.022-7.5-6.75-7.5s-6.75 2.437-6.75 7.5zm-13.5 0c.781 4.351 12.714 4.381 13.5 0"/><path class="a" d="M12 5.121a.375.375 0 1 0 .375.375.375.375 0 0 0-.375-.375m4.309 8.379a5.251 5.251 0 0 1-8.618 0M3 23.25a10.657 10.657 0 0 1 18 0m-9 0V18.3m3.75 4.95h1.5"/></svg>