<svg xmlns="http://www.w3.org/2000/svg" viewBox="0 0 24 24" width="24" height="24"><defs><style>.a{fill:none;stroke:#000;stroke-linecap:round;stroke-linejoin:round;stroke-width:1.5px}</style></defs><title>police-hat-1</title><path class="a" d="M16.5 12h5.966c.188-.377.4-.817.619-1.246a1.5 1.5 0 0 0-.944-2.134 7.425 7.425 0 0 1-4.122-2.98A7.4 7.4 0 0 0 12 2.25a7.4 7.4 0 0 0-6.019 3.39 7.425 7.425 0 0 1-4.122 2.98 1.5 1.5 0 0 0-.944 2.134c.22.429.431.869.619 1.246H7.5m-6 3A12.055 12.055 0 0 0 12 21.75 12.055 12.055 0 0 0 22.5 15z"/><path class="a" d="M14.415 10.335L12 12.75l-2.415-2.415v-3.22h4.83v3.22zM1.5 12v3m21-3v3"/></svg>