<svg xmlns="http://www.w3.org/2000/svg" viewBox="0 0 24 24" width="24" height="24"><defs><style>.a{fill:none;stroke:#000;stroke-linecap:round;stroke-linejoin:round;stroke-width:1.5px}</style></defs><title>police-hat-8</title><circle class="a" cx="12" cy="8.25" r="3"/><path class="a" d="M11.7 23.186a.752.752 0 0 0 .606 0 34.652 34.652 0 0 1 9.394-2.734.75.75 0 0 0 .444-1.268L20.25 17.25V9a8.25 8.25 0 0 0-16.5 0v8.25l-1.889 1.934a.75.75 0 0 0 .445 1.268 34.645 34.645 0 0 1 9.394 2.734zM3.75 17.25h16.5m-16.5-3h16.5"/></svg>