<svg xmlns="http://www.w3.org/2000/svg" viewBox="0 0 24 24" width="24" height="24"><g fill="none" stroke="#000" stroke-linejoin="round" stroke-miterlimit="10"><path d="M16 5.9l-1.6-1.6L12 5.5 9.6 4.301 8 5.9s1.2.4 1.2 1.6c0 1.2-.8 1.6-.8 2.4 0 .8 2.399 2.4 3.6 2.4s3.6-1.601 3.6-2.4c0-.801-.8-1.2-.8-2.4 0-1.199 1.2-1.6 1.2-1.6zm5.5 10.6a1 1 0 01-1 1h-17a1 1 0 01-1-1v-1a1 1 0 011-1h17a1 1 0 011 1v1zM3 17.5s3.094 5 8.984 5 9.047-5 9.047-5H3z"/><path d="M21.5 14.5c0 .042 1.984-2.484 1.984-4.984S16.062 1 12 1 .531 7.219.531 9.531C.531 11.843 2.5 14.5 2.5 14.5h19z"/><path stroke-linecap="round" d="M9.2 7.5h5.6"/><path d="M16 5.9l-1.6-1.6L12 5.5 9.6 4.301 8 5.9s1.2.4 1.2 1.6c0 1.2-.8 1.6-.8 2.4 0 .8 2.399 2.4 3.6 2.4s3.6-1.601 3.6-2.4c0-.801-.8-1.2-.8-2.4 0-1.199 1.2-1.6 1.2-1.6zm5.5 10.6a1 1 0 01-1 1h-17a1 1 0 01-1-1v-1a1 1 0 011-1h17a1 1 0 011 1v1zM3 17.5s3.094 5 8.984 5 9.047-5 9.047-5H3z"/><path d="M21.5 14.5c0 .042 1.984-2.484 1.984-4.984S16.062 1 12 1 .531 7.219.531 9.531C.531 11.843 2.5 14.5 2.5 14.5h19z"/><path stroke-linecap="round" d="M9.2 7.5h5.6"/></g><path fill="none" d="M0 0h24v24H0z"/></svg>