<svg id="Regular" xmlns="http://www.w3.org/2000/svg" viewBox="0 0 24 24" width="24" height="24"><defs><style>.cls-1{fill:none;stroke:#000;stroke-linecap:round;stroke-linejoin:round;stroke-width:1.5px}</style></defs><title>pollution-co2-message</title><path class="cls-1" d="M9 6.75a3 3 0 0 0-3 3v1.5a3 3 0 0 0 3 3m3.75-7.5a1.5 1.5 0 0 0-1.5 1.5v4.5a1.5 1.5 0 0 0 3 0v-4.5a1.5 1.5 0 0 0-1.5-1.5zm3.75 5.625a1.125 1.125 0 0 1 1.125-1.125 1.125 1.125 0 0 1 1.125 1.125 1.608 1.608 0 0 1-.351 1L16.5 15.75h2.25"/><path class="cls-1" d="M12.75.75a10.485 10.485 0 0 0-8.917 16.025L.75 23.25l6.475-3.084A10.5 10.5 0 1 0 12.75.75z"/></svg>