<svg id="Regular" xmlns="http://www.w3.org/2000/svg" viewBox="0 0 24 24" width="24" height="24"><defs><style>.cls-1{fill:none;stroke:#000;stroke-linecap:round;stroke-linejoin:round;stroke-width:1.5px}</style></defs><title>pollution-rain-skull</title><path class="cls-1" d="M9.75 19.5L6 23.25m12.75-3.75L15 23.25m-.75-3.75L12 21.75M5.25 19.5L3 21.75M23.25 4.125c0-1.864-2.015-3.375-4.5-3.375s-4.5 1.511-4.5 3.375c0 1.246.16 2.322 1.5 2.907V9.75h6V7.032c1.34-.585 1.5-1.661 1.5-2.907zM18.75 7.5v2.25m-1.5-5.625a.375.375 0 0 1 .375.375m-.75 0a.375.375 0 0 1 .375-.375m0 .75a.375.375 0 0 1-.375-.375m.75 0a.375.375 0 0 1-.375.375m3-.75a.375.375 0 0 1 .375.375m-.75 0a.375.375 0 0 1 .375-.375m0 .75a.375.375 0 0 1-.375-.375m.75 0a.375.375 0 0 1-.375.375"/><path class="cls-1" d="M10.513 4.686a6 6 0 0 0-4.4 4.692A3.745 3.745 0 1 0 4.5 16.5h15a3.75 3.75 0 0 0 3.75-3.75"/></svg>