<svg id="Regular" xmlns="http://www.w3.org/2000/svg" viewBox="0 0 24 24" width="24" height="24"><defs><style>.cls-1{fill:none;stroke:#000;stroke-linecap:round;stroke-linejoin:round;stroke-width:1.5px}</style></defs><title>pollution-skull</title><circle class="cls-1" cx="12" cy="12" r="10.5"/><path class="cls-1" d="M16.5 10.875C16.5 9.011 14.485 7.5 12 7.5s-4.5 1.511-4.5 3.375c0 1.246.16 2.322 1.5 2.907V16.5h6v-2.718c1.34-.582 1.5-1.661 1.5-2.907zM12 14.25v2.25m-1.5-5.625a.375.375 0 0 1 .375.375m-.75 0a.375.375 0 0 1 .375-.375m0 .75a.375.375 0 0 1-.375-.375m.75 0a.375.375 0 0 1-.375.375m3-.75a.375.375 0 0 1 .375.375m-.75 0a.375.375 0 0 1 .375-.375m0 .75a.375.375 0 0 1-.375-.375m.75 0a.375.375 0 0 1-.375.375m3.748 5.623l2.177 2.177M4.575 4.575l2.171 2.171m.006 10.502l-2.176 2.176M19.425 4.575l-2.171 2.171"/></svg>