<svg id="Regular" xmlns="http://www.w3.org/2000/svg" viewBox="0 0 24 24" width="24" height="24"><defs><style>.cls-1{fill:none;stroke:#000;stroke-linecap:round;stroke-linejoin:round;stroke-width:1.5px}</style></defs><title>pollution-barrel</title><path class="cls-1" d="M2.25 23.25h19.5M2.25 3.75h19.5m-18 0h16.5v19.5H3.75zm15 6h3m-19.5 0h3M18 17.25h3.75m-19.5 0H6M15.25.75h2.5a1 1 0 0 1 1 1v2h-4.5v-2a1 1 0 0 1 1-1z"/><path class="cls-1" d="M16.5 12.375C16.5 10.511 14.485 9 12 9s-4.5 1.511-4.5 3.375c0 1.246.161 2.322 1.5 2.907V18h6v-2.718c1.34-.582 1.5-1.661 1.5-2.907zM12 15.75V18m-1.5-5.625a.375.375 0 0 1 .375.375m-.75 0a.375.375 0 0 1 .375-.375m0 .75a.375.375 0 0 1-.375-.375m.75 0a.375.375 0 0 1-.375.375m3-.75a.375.375 0 0 1 .375.375m-.75 0a.375.375 0 0 1 .375-.375m0 .75a.375.375 0 0 1-.375-.375m.75 0a.375.375 0 0 1-.375.375"/></svg>