<svg id="Regular" xmlns="http://www.w3.org/2000/svg" viewBox="0 0 24 24" width="24" height="24"><defs><style>.cls-1{fill:none;stroke:#000;stroke-linecap:round;stroke-linejoin:round;stroke-width:1.5px}</style></defs><title>pollution-faucet-water</title><path class="cls-1" d="M.75 23a5.511 5.511 0 0 0 4.5-1.5 4.547 4.547 0 0 0 6.75 0 4.547 4.547 0 0 0 6.75 0 5.511 5.511 0 0 0 4.5 1.5M7.5 13.25H.75m0-7.5H7.5"/><rect class="cls-1" x="7.5" y="4.25" width="4.5" height="10.5" rx="1" ry="1"/><path class="cls-1" d="M18 1l1.65 2.2a.75.75 0 0 0 1.2 0L22.5 1m-7.316 12.89a8.226 8.226 0 0 0-3-.635H12m5.958 2.545a8.264 8.264 0 0 1 1.673 2.568M15.054 8.355a13.21 13.21 0 0 1 2.914 1.051m2.843 1.876a13.3 13.3 0 0 1 2.094 2.283"/></svg>