<svg id="Regular" xmlns="http://www.w3.org/2000/svg" viewBox="0 0 24 24" width="24" height="24"><defs><style>.cls-1{fill:none;stroke:#000;stroke-linecap:round;stroke-linejoin:round;stroke-width:1.5px}</style></defs><title>pollution-water</title><path class="cls-1" d="M.75 23.25a5.511 5.511 0 0 0 4.5-1.5 4.547 4.547 0 0 0 6.75 0 4.547 4.547 0 0 0 6.75 0 5.511 5.511 0 0 0 4.5 1.5M4.842 10.5a7.5 7.5 0 1 1 14.315 0m.343 5.845l.97.969a.749.749 0 0 0 1.06 0l.97-.969M.75 14.25l.97.97a.749.749 0 0 0 1.06 0l.97-.97"/><path class="cls-1" d="M15.75 20.25V10.5a9.75 9.75 0 0 0-7.5 0v9.75m.003-9.507a4.5 4.5 0 1 1 7.5-.005M11.25 12.75v1.5m1.5 3v1.5"/></svg>