<svg id="Regular" xmlns="http://www.w3.org/2000/svg" viewBox="0 0 24 24" width="24" height="24"><defs><style>.cls-1{fill:none;stroke:#000;stroke-linecap:round;stroke-linejoin:round;stroke-width:1.5px}</style></defs><title>pollution-fish</title><path class="cls-1" d="M20.679 18.854c-6.227-.31-10.521.267-14.386-3.6a11.253 11.253 0 0 1-3.136-9.847 11.253 11.253 0 0 1 9.849 3.136c4.071 4.071 3.223 8.3 3.223 14.707M8.027 8.142v2.487m1.244-1.243H6.784M.75 2.25a5.511 5.511 0 0 0 4.5-1.5 4.638 4.638 0 0 0 3.375 1.5A4.638 4.638 0 0 0 12 .75a4.638 4.638 0 0 0 3.375 1.5A4.638 4.638 0 0 0 18.75.75a5.511 5.511 0 0 0 4.5 1.5"/></svg>