<svg id="Regular" xmlns="http://www.w3.org/2000/svg" viewBox="0 0 24 24" width="24" height="24"><defs><style>.cls-1{fill:none;stroke:#000;stroke-linecap:round;stroke-linejoin:round;stroke-width:1.5px}</style></defs><title>pollution-pm10</title><path class="cls-1" d="M22.815 14.251a10.5 10.5 0 1 0-18.982 2.524L.75 23.25l6.475-3.084a10.431 10.431 0 0 0 5.525 1.584m-6-7.5v-7.5"/><path class="cls-1" d="M6.75 6.75h.75a2.25 2.25 0 0 1 0 4.5h-.75m9.75 3v-7.5l-2.25 3.75L12 6.75v7.5m3.75 3h.75a.75.75 0 0 1 .75.75v3.75m-1.5 0h3m4.5-1.5a1.5 1.5 0 0 1-3 0v-1.5a1.5 1.5 0 0 1 3 0z"/></svg>