<svg id="Regular" xmlns="http://www.w3.org/2000/svg" viewBox="0 0 24 24" width="24" height="24"><defs><style>.cls-1{fill:none;stroke:#000;stroke-linecap:round;stroke-linejoin:round;stroke-width:1.5px}</style></defs><title>pool-table</title><path class="cls-1" d="M14.25 17.5h-12A1.5 1.5 0 0 1 .75 16V4a1.5 1.5 0 0 1 1.5-1.5h19.5a1.5 1.5 0 0 1 1.5 1.5v12a1.5 1.5 0 0 1-1.5 1.5m-16.5-5.625a.375.375 0 0 1 .375-.375m0 .75a.375.375 0 0 1-.375-.375m.75 0a.375.375 0 0 1-.375.375m0-.75a.375.375 0 0 1 .375.375m-.75-4.5A.375.375 0 0 1 5.625 7m0 .75a.375.375 0 0 1-.375-.375m.75 0a.375.375 0 0 1-.375.375m0-.75A.375.375 0 0 1 6 7.375m11.625.375a.375.375 0 0 1 .375.375m-.75 0a.375.375 0 0 1 .375-.375m0 .75a.375.375 0 0 1-.375-.375m.75 0a.375.375 0 0 1-.375.375M8.25 9.625a.375.375 0 0 1 .375-.375m0 .75a.375.375 0 0 1-.375-.375m.75 0a.375.375 0 0 1-.375.375m0-.75A.375.375 0 0 1 9 9.625m3 1.875L22.5 22"/></svg>