<svg id="Regular" xmlns="http://www.w3.org/2000/svg" viewBox="0 0 24 24" width="24" height="24"><defs><style>.cls-1{fill:none;stroke:#000;stroke-linecap:round;stroke-linejoin:round;stroke-width:1.5px}</style></defs><title>pool-player-table</title><circle class="cls-1" cx="6.75" cy="3.375" r="2.625"/><path class="cls-1" d="M6.75 16.5v5.25m6.135-7.056a5.962 5.962 0 0 1-3.135-2.442v9.5a1.5 1.5 0 0 1-3 0 1.5 1.5 0 0 1-3 0V15a1.5 1.5 0 0 1-3 0v-3a4.5 4.5 0 0 1 4.5-4.5H7.9a4.5 4.5 0 0 1 4.025 2.487l.177.354a3 3 0 0 0 1.744 1.508 1.5 1.5 0 0 1-.957 2.845zM3.75 15v-3m19.5.75h-4.5a1.5 1.5 0 0 0-1.5 1.5 1.5 1.5 0 0 0 1.5 1.5h4.5m-4.5 0l1.5 7.5m-9 0l2.266-8.499m.717-2.688L17.25.75"/></svg>