<svg id="Regular" xmlns="http://www.w3.org/2000/svg" viewBox="0 0 24 24" width="24" height="24"><defs><style>.cls-1{fill:none;stroke:#000;stroke-linecap:round;stroke-linejoin:round;stroke-width:1.5px}</style></defs><title>pool-player</title><circle class="cls-1" cx="12.75" cy="3.373" r="2.625"/><path class="cls-1" d="M7.277 8.9a1.5 1.5 0 0 0-1.63.325l-1.586 1.584a1.5 1.5 0 0 1-2.122-2.121L3.526 7.1a4.487 4.487 0 0 1 4.894-.977l10.9 4.488m-5.754 4.357l2.8 6.159a1.5 1.5 0 1 1-2.73 1.242l-2.386-5.245-2.385 5.245a1.5 1.5 0 1 1-2.73-1.242l2.8-6.159M3 11.248l19.5 2.25"/></svg>