<svg xmlns="http://www.w3.org/2000/svg" viewBox="0 0 24 24" width="24" height="24"><defs><style>.a{fill:none;stroke:#000;stroke-linecap:round;stroke-linejoin:round;stroke-width:1.5px}</style></defs><title>power-tools-circular-saw</title><circle class="a" cx="12" cy="15" r="2.25"/><circle class="a" cx="12" cy="15" r="6"/><path class="a" d="M12 21v2.25m-5.954-7.5H3.75m16.5 0h-2.297m-.119 5.084l-1.591-1.591m-8.486 0l-1.591 1.591m11.398-8.084H21.6a.75.75 0 0 0 .731-.92A10.551 10.551 0 0 0 12 3.75a10.551 10.551 0 0 0-10.331 8.08.75.75 0 0 0 .73.92h4.037"/><path class="a" d="M3 8.656V2.25A1.5 1.5 0 0 1 4.5.75H6a1.5 1.5 0 0 1 1.5 1.5v2.48"/></svg>