<svg xmlns="http://www.w3.org/2000/svg" viewBox="0 0 24 24" width="24" height="24"><defs><style>.a{fill:none;stroke:#000;stroke-linecap:round;stroke-linejoin:round;stroke-width:1.5px}</style></defs><title>power-adapter</title><path class="a" d="M15 1.952V3.5a.75.75 0 0 1-.75.75h-4.5A.75.75 0 0 1 9 3.5V1.958a.758.758 0 0 0-1.04-.7A11.255 11.255 0 0 0 .992 14.119a10.968 10.968 0 0 0 8.744 8.66 11.25 11.25 0 0 0 6.248-21.54.744.744 0 0 0-.984.713z"/><path class="a" d="M12 14a1.5 1.5 0 0 1-1.5-1.5V8.75a1.5 1.5 0 0 1 1.5-1.5 1.5 1.5 0 0 1 1.5 1.5v3.75A1.5 1.5 0 0 1 12 14zm-6.375-.75a.375.375 0 1 0 .375.375.375.375 0 0 0-.375-.375m3 4.5a.375.375 0 1 0 .375.375.375.375 0 0 0-.375-.375m6.75 0a.375.375 0 1 0 .375.375.375.375 0 0 0-.375-.375m3-4.5a.375.375 0 1 0 .375.375.375.375 0 0 0-.375-.375"/></svg>