<svg xmlns="http://www.w3.org/2000/svg" viewBox="0 0 24 24" width="24" height="24"><defs><style>.a{fill:none;stroke:#000;stroke-linecap:round;stroke-linejoin:round;stroke-width:1.5px}</style></defs><title>power-tools-drill</title><path class="a" d="M10.75 2.25h10.5a2 2 0 0 1 2 2v5a2 2 0 0 1-2 2h-10.5a1 1 0 0 1-1-1v-7a1 1 0 0 1 1-1zm6.227 17.588a2.227 2.227 0 0 0 4.41-.63L20.25 11.25h-4.5zM6.25 3.75h3.5v6h-3.5a1 1 0 0 1-1-1v-4a1 1 0 0 1 1-1zm-1 3H.75"/><path class="a" d="M12.75 11.25l.268 1.338A3 3 0 0 0 15.959 15h.327m-.536-9.75h3m-3 3h3"/></svg>