<svg xmlns="http://www.w3.org/2000/svg" viewBox="0 0 24 24" width="24" height="24"><defs><style>.a{fill:none;stroke:#000;stroke-linecap:round;stroke-linejoin:round;stroke-width:1.5px}</style></defs><title>power-tools-wood-cutter</title><path class="a" d="M5.25 11.25v4.5m-4.5.75A2.25 2.25 0 0 0 3 18.75h14.25m-3-4.5v4.5m2.25-4.5a6.75 6.75 0 0 0 0-13.5H6.75a3 3 0 0 0-3 3v6.75a.75.75 0 0 0 .75.75h3a.75.75 0 0 1 .75.75v1.5a.75.75 0 0 0 .75.75zm-11.25 7.5v1.5m9-13.5h4.5m0-3h-3"/><path class="a" d="M6.75 4.125a.375.375 0 1 1 .375-.375.375.375 0 0 1-.375.375"/></svg>