<svg xmlns="http://www.w3.org/2000/svg" viewBox="0 0 24 24" width="24" height="24"><defs><style>.a{fill:none;stroke:#000;stroke-linecap:round;stroke-linejoin:round;stroke-width:1.5px}</style></defs><title>power-tools-wood-cutter-1</title><path class="a" d="M23.25.75a3 3 0 0 1-3 3H3.75a3 3 0 0 1-3-3m18.75 3a7.5 7.5 0 0 1-15 0m11.25 0a3.75 3.75 0 0 1-7.5 0M4.626 5.124L3 6.75m4.757 3.186v2.299m5.617-1.111L15 12.75m3.186-4.757h2.299M23.25 23.25v-4.5a1.5 1.5 0 0 0-1.5-1.5H2.25a1.5 1.5 0 0 0-1.5 1.5v4.5m0-3h4.5m3 0h3"/><path class="a" d="M20.68 23.25a1.447 1.447 0 0 1-1.35-.859 2.251 2.251 0 0 0-4.16 0 1.447 1.447 0 0 1-1.35.859H10.5m-3 0H5.25"/></svg>