<svg id="Regular" xmlns="http://www.w3.org/2000/svg" viewBox="0 0 24 24" width="24" height="24"><defs><style>.cls-1{fill:none;stroke:#000;stroke-linecap:round;stroke-linejoin:round;stroke-width:1.5px}</style></defs><title>pregnancy-vgr</title><path class="cls-1" d="M17.213 21.145L3.731 23.219a2.587 2.587 0 0 1-2.95-2.95L2.855 6.787a4.7 4.7 0 0 1 3.932-3.932L20.269.781a2.587 2.587 0 0 1 2.95 2.95l-2.074 13.482a4.7 4.7 0 0 1-3.932 3.932zm.621-9.675L12.53 6.166"/><path class="cls-1" d="M12.53 6.166l.8-.795a1.875 1.875 0 0 1 2.651 2.652l-.795.8m4.769.525l-4.243-1.06M4.045 14.652l1.8 1.8a8.932 8.932 0 0 0 4.564 2.442 8.932 8.932 0 0 0-2.442-4.563l-1.8-1.8M13.061 12l.53-.53 1.061 1.06a1.5 1.5 0 0 1-2.122 2.122l-1.591-1.591-1.591-1.591a1.5 1.5 0 0 1 0-2.122l1.061-1.06"/></svg>