<svg id="Regular" xmlns="http://www.w3.org/2000/svg" viewBox="0 0 24 24" width="24" height="24"><defs><style>.cls-1{fill:none;stroke:#000;stroke-linecap:round;stroke-linejoin:round;stroke-width:1.5px}</style></defs><title>pregnancy-ultrasound-baby</title><path class="cls-1" d="M3.218 15.9a12.705 12.705 0 0 0 1.162.906m3.979 1.882A11.8 11.8 0 0 0 9.8 19m4.4 0a11.8 11.8 0 0 0 1.44-.312m3.98-1.878a12.705 12.705 0 0 0 1.162-.906m2.468-2.724l-8.25-9a3.75 3.75 0 0 1-6 0l-8.25 9"/><path class="cls-1" d="M23.25 13.18l-8.25-9a3.75 3.75 0 0 1-6 0l-8.25 9M9 11.3c-.473-.1-.922-.289-1.383-.43"/><circle class="cls-1" cx="15" cy="12.43" r="3"/></svg>