<svg xmlns="http://www.w3.org/2000/svg" viewBox="0 0 24 24" width="24" height="24"><defs><style>.a{fill:none;stroke:#000;stroke-linecap:round;stroke-linejoin:round;stroke-width:1.5px}</style></defs><title>presentation-speaker</title><path class="a" d="M4.5 15.75h15m-3.75 7.5h-7.5l-.75-7.5h9l-.75 7.5z"/><circle class="a" cx="12" cy="7.875" r="2.625"/><path class="a" d="M15.249 12.75a4.269 4.269 0 0 0-6.5 0m-4.249 0H2.25a1.5 1.5 0 0 1-1.5-1.5v-9a1.5 1.5 0 0 1 1.5-1.5h19.5a1.5 1.5 0 0 1 1.5 1.5v9a1.5 1.5 0 0 1-1.5 1.5H19.5"/></svg>