<svg xmlns="http://www.w3.org/2000/svg" viewBox="0 0 24 24" width="24" height="24"><defs><style>.a{fill:none;stroke:#000;stroke-linecap:round;stroke-linejoin:round;stroke-width:1.5px}</style></defs><title>presentation-analytics</title><path class="a" d="M16.5.75V3M12 3h10.1a1.157 1.157 0 0 1 1.15 1.159v10.432a1.157 1.157 0 0 1-1.15 1.159H15"/><path class="a" d="M13.64 9.725L15.467 7.9a.578.578 0 0 1 .816 0L17.7 9.319a.578.578 0 0 0 .816 0l2.437-2.437M16.5 15.75V21m0 0l-3 2.25m3-2.25l2.691 2.25"/><circle class="a" cx="6" cy="3.75" r="3"/><path class="a" d="M11.25 13.5a5.25 5.25 0 0 0-10.5 0v2.25H3l.75 7.5h4.5l.75-7.5h2.25z"/></svg>