<svg xmlns="http://www.w3.org/2000/svg" viewBox="0 0 24 24" width="24" height="24"><defs><style>.a{fill:none;stroke:#000;stroke-linecap:round;stroke-linejoin:round;stroke-width:1.5px}</style></defs><title>presentation-microphone</title><path class="a" d="M9.75 17.25H3a1.5 1.5 0 0 1-1.455-1.136l-.75-3A1.5 1.5 0 0 1 2.25 11.25h19.5a1.5 1.5 0 0 1 1.455 1.864l-.75 3A1.5 1.5 0 0 1 21 17.25h-6.75M9.75 15v8.25m4.5-8.25v8.25m-2.25-12v-3M14.25 6a2.25 2.25 0 0 1-4.5 0V3a2.25 2.25 0 0 1 4.5 0zM18 11.25l2.689-2.69a1.5 1.5 0 0 0 0-2.121l-.879-.879"/><circle class="a" cx="18.75" cy="4.5" r="1.5"/><path class="a" d="M6 11.25L3.311 8.56a1.5 1.5 0 0 1 0-2.121l.879-.879"/><circle class="a" cx="5.25" cy="4.5" r="1.5"/></svg>