<svg xmlns="http://www.w3.org/2000/svg" viewBox="0 0 24 24" width="24" height="24"><defs><style>.a{fill:none;stroke:#000;stroke-linecap:round;stroke-linejoin:round;stroke-width:1.5px}</style></defs><title>presentation-projector-1</title><rect class="a" x="2.25" y="12.75" width="19.5" height="3" rx=".75" ry=".75"/><path class="a" d="M20.25 15.75H3.75v6a1.5 1.5 0 0 0 1.5 1.5h13.5a1.5 1.5 0 0 0 1.5-1.5zm-6-9h-6V1.5A.75.75 0 0 1 9 .75h4.5a.75.75 0 0 1 .75.75zm0-3h4.5a1.5 1.5 0 0 1 1.5 1.5v7.5m-13.5-6h9"/><path class="a" d="M11.25 3.375a.375.375 0 1 1-.375.375.375.375 0 0 1 .375-.375m6 15.375v1.5"/></svg>