<svg xmlns="http://www.w3.org/2000/svg" viewBox="0 0 24 24" width="24" height="24"><defs><style>.a{fill:none;stroke:#000;stroke-linecap:round;stroke-linejoin:round;stroke-width:1.5px}</style></defs><title>presentation-projector</title><path class="a" d="M11.506 7.5H3.75a3 3 0 0 0-3 3V15a1.5 1.5 0 0 0 1.5 1.5h19.5a1.5 1.5 0 0 0 1.5-1.5v-4.5a3 3 0 0 0-3-3h-.256"/><circle class="a" cx="15.75" cy="9" r="4.5"/><path class="a" d="M3.75 11.25v1.5m3-1.5v1.5m-3 3.75v3m16.5-3v3m-4.5-10.875a.375.375 0 1 1-.375.375.374.374 0 0 1 .375-.375"/></svg>