<svg xmlns="http://www.w3.org/2000/svg" viewBox="0 0 24 24" width="24" height="24"><defs><style>.a{fill:none;stroke:#000;stroke-linecap:round;stroke-linejoin:round;stroke-width:1.5px}</style></defs><title>presentation-projector-screen-cart</title><rect class="a" x=".75" y=".75" width="21" height="3" rx=".75" ry=".75"/><path class="a" d="M2.25 17.25V3.75h18V9M.75 17.25H9"/><path class="a" d="M12 12l2.821 7.756a.749.749 0 0 0 .7.494h5.368a.749.749 0 0 0 .689-.455l1.607-4.5a.749.749 0 0 0-.685-1.045h-9.682m7.057 8.25a.375.375 0 1 0 .375.375.375.375 0 0 0-.375-.375m-3.75 0a.375.375 0 1 0 .375.375.375.375 0 0 0-.375-.375"/></svg>