<svg xmlns="http://www.w3.org/2000/svg" viewBox="0 0 24 24" width="24" height="24"><path fill="none" stroke="#000" stroke-linejoin="round" stroke-miterlimit="10" d="M.5.5h22v3H.5z"/><path fill="none" stroke="#000" stroke-linecap="round" stroke-linejoin="round" stroke-miterlimit="10" d="M.521 17.5h21.958"/><path fill="none" stroke="#000" stroke-linejoin="round" stroke-miterlimit="10" d="M2.5 3.5h18v14h-18zm9 14v3"/><circle fill="none" stroke="#000" stroke-linejoin="round" stroke-miterlimit="10" cx="11.5" cy="22" r="1.5"/><path fill="none" stroke="#000" stroke-linejoin="round" stroke-miterlimit="10" d="M16.625 9.841c0 2.252-2.238 4.078-5 4.078-.616 0-1.206-.09-1.752-.255L7 15l1.125-2.246c-.926-.739-1.5-1.772-1.5-2.913 0-2.254 2.238-4.08 5-4.08s5 1.826 5 4.08z"/><path fill="none" d="M0 0h24v24H0z"/></svg>