<svg xmlns="http://www.w3.org/2000/svg" viewBox="0 0 24 24" width="24" height="24"><defs><style>.a{fill:none;stroke:#000;stroke-linecap:round;stroke-linejoin:round;stroke-width:1.5px}</style></defs><title>presentation-projector-screen-pin</title><rect class="a" x=".75" y=".75" width="21" height="3" rx=".75" ry=".75"/><path class="a" d="M2.25 17.25V3.75h18v4.5m-19.5 9h10.5m7.5-1.83a.375.375 0 1 1-.375.375.375.375 0 0 1 .375-.375"/><path class="a" d="M18.75 11.3a4.5 4.5 0 0 1 4.5 4.5c0 1.941-2.744 5.652-3.946 7.186a.7.7 0 0 1-1.107 0c-1.2-1.533-3.947-5.245-3.947-7.186a4.5 4.5 0 0 1 4.5-4.5z"/></svg>