<svg xmlns="http://www.w3.org/2000/svg" viewBox="0 0 24 24" width="24" height="24"><defs><style>.a{fill:none;stroke:#000;stroke-linecap:round;stroke-linejoin:round;stroke-width:1.5px}</style></defs><title>presentation-projector-screen-chat</title><rect class="a" x=".75" y=".75" width="21" height="3" rx=".75" ry=".75"/><path class="a" d="M2.25 17.25V3.75h18v4.5m-19.5 9h7.5"/><path class="a" d="M21.75 20.25h-3l-4.5 3v-3h-1.5a1.5 1.5 0 0 1-1.5-1.5v-6a1.5 1.5 0 0 1 1.5-1.5h9a1.5 1.5 0 0 1 1.5 1.5v6a1.5 1.5 0 0 1-1.5 1.5zm-7.5-6h6m-6 3h6"/></svg>