<svg xmlns="http://www.w3.org/2000/svg" viewBox="0 0 24 24" width="24" height="24"><g fill="none" stroke="#000" stroke-linejoin="round" stroke-miterlimit="10"><path d="M14.897 13.117l1-1.732-1-.577a3.232 3.232 0 000-1.614l.999-.577-1-1.732-.999.576a3.496 3.496 0 00-1.397-.799V5.5h-2v1.162a3.49 3.49 0 00-1.397.799l-.999-.576-1 1.732.999.577a3.232 3.232 0 000 1.614l-1 .577 1 1.732 1-.578a3.5 3.5 0 001.397.798V14.5h2v-1.162a3.495 3.495 0 001.396-.798l1.001.577z"/><circle cx="11.5" cy="10" r="1.5"/><path d="M.5.5h22v3H.5z"/><path stroke-linecap="round" d="M.521 17.5h21.958"/><path d="M2.5 3.5h18v14h-18zm9 14v3"/><circle cx="11.5" cy="22" r="1.5"/></g><path fill="none" d="M0 0h24v24H0z"/></svg>