<svg xmlns="http://www.w3.org/2000/svg" viewBox="0 0 24 24" width="24" height="24"><defs><style>.a{fill:none;stroke:#000;stroke-linecap:round;stroke-linejoin:round;stroke-width:1.5px}</style></defs><title>presentation-projector-screen-budget-analytics</title><rect class="a" x="1.5" y="1.75" width="21" height="3" rx=".75" ry=".75"/><path class="a" d="M3 4.75h18v13.5H3zm9 16.5v-3m-10.5 0h21m-9 4c0-.552-.672-1-1.5-1s-1.5.448-1.5 1"/><path class="a" d="M6.694 13.517a1.756 1.756 0 0 0 1.521.8A1.567 1.567 0 0 0 9.9 12.906 1.567 1.567 0 0 0 8.215 11.5a1.567 1.567 0 0 1-1.688-1.407 1.568 1.568 0 0 1 1.688-1.407 1.757 1.757 0 0 1 1.52.8m-1.52 4.826v.937m0-7.5v.937M13.5 15.25v-3m3 3v-6"/></svg>