<svg xmlns="http://www.w3.org/2000/svg" viewBox="0 0 24 24" width="24" height="24"><g fill="none" stroke="#000" stroke-linejoin="round" stroke-miterlimit="10"><path d="M12 21.11c-2.954 0-5.726-.9-7.803-2.535C1.778 16.672.5 13.968.5 10.756c0-4.273 3.477-7.75 7.75-7.75 1.359 0 2.638.352 3.75.969a7.705 7.705 0 013.75-.969c4.273 0 7.75 3.477 7.75 7.75 0 6.798-5.785 10.354-11.5 10.354zm2.725-6.244a14.71 14.71 0 002.466 1.521c2.245-1.13 3.31-2.515 3.31-5.632a4.756 4.756 0 00-6.003-4.582A7.723 7.723 0 0116 10.756c0 1.602-.07 2.579-1.275 4.11zM8.25 6.006a4.756 4.756 0 00-4.75 4.75c0 3.107 1.032 4.5 3.267 5.631.932-.457 1.751-.97 2.454-1.511C8.03 13.354 8 12.375 8 10.756c0-1.713.559-3.298 1.503-4.582a4.707 4.707 0 00-1.253-.168zM12 7.844c-.627.805-1 1.815-1 2.912 0 .753.321 1.673.99 2.627.669-.941 1.01-1.861 1.01-2.627a4.72 4.72 0 00-1-2.912z"/><path d="M12.037 16.241s-1.938 1.271-3 1.854c2 .604 4.021.604 5.959.021l-2.959-1.875z"/></g><path fill="none" d="M0 0h24v24H0z"/></svg>