<svg xmlns="http://www.w3.org/2000/svg" viewBox="0 0 24 24" width="24" height="24"><defs><style>.a{fill:none;stroke:#000;stroke-linecap:round;stroke-linejoin:round;stroke-width:1.5px}</style></defs><title>primitive-symbols-bull</title><path class="a" d="M11.058 7.933a3.887 3.887 0 0 0-1.072-.15 3.943 3.943 0 0 0-1.9.489 3.1 3.1 0 0 0-1.582-.489A2.557 2.557 0 0 0 4.08 9.53l-.6 1.8a1.179 1.179 0 0 0 1.856 1.294L6.5 11.7a.521.521 0 0 1 .827.263l.47 1.648a4.112 4.112 0 0 0 3.952 2.98h3.629a5.352 5.352 0 0 0 2.807-.795l3.575-2.2a3.138 3.138 0 0 0-1.645-5.81h-.506a3.935 3.935 0 0 0-1.462.281 7.671 7.671 0 0 1-3.158.7 7.343 7.343 0 0 1-2.02-.283zm-2.81 6.701l-2.607 3.909m4.446-2.306L9.554 20.5"/><path class="a" d="M19.323 15.091l.453 1.788a.49.49 0 0 1-.055.372l-1.362 2.271m2.273-5.237l1.588 3.177a.49.49 0 0 1 .052.219V20.5M.75 6.315a3.9 3.9 0 0 0 3.744 2.446M7.1 7.849a2.685 2.685 0 0 0-1.987-3.133L1.728 3.87"/></svg>