<svg xmlns="http://www.w3.org/2000/svg" viewBox="0 0 24 24" width="24" height="24"><defs><style>.a{fill:none;stroke:#000;stroke-linecap:round;stroke-linejoin:round;stroke-width:1.5px}</style></defs><title>primitive-symbols-animal-1</title><path class="a" d="M5.457 16.565L1 23.25m7.924-5.87L5.5 22.272M13 17.38l5.87 3.913m-1.853-4.675l4.526 3.208M5.26 10.533H1m22.109-5.446a2.026 2.026 0 0 0-1.379-2.362l-.386-.12a2.934 2.934 0 0 0-3.892 1.634l-1.817 4.672a1.007 1.007 0 0 1-.939.643H7.848a3.913 3.913 0 0 0 0 7.826H14.7a3.913 3.913 0 0 0 3.913-3.913 10.506 10.506 0 0 0-.4-2.514l1.677-4.329a.978.978 0 0 1 1.3-.545 1.4 1.4 0 0 0 1.922-.992zM16.75.75l2.294 1.85"/></svg>