<svg xmlns="http://www.w3.org/2000/svg" viewBox="0 0 24 24" width="24" height="24"><defs><style>.a{fill:none;stroke:#000;stroke-linecap:round;stroke-linejoin:round;stroke-width:1.5px}</style></defs><title>primitive-symbols-woman-1</title><ellipse class="a" cx="11.75" cy="3.75" rx="2.25" ry="3"/><path class="a" d="M5.75 15.75V12a3 3 0 0 1 3-3h6a3 3 0 0 1 3 3v3.75"/><path class="a" d="M9.5 9a11.082 11.082 0 0 1-.75 7.5h6A11.082 11.082 0 0 1 14 9zm-.75 7.5v6.75m6-6.75v6.75m-7.5-16.5a3.647 3.647 0 0 0 2.7-1.2m6.3 1.2a3.647 3.647 0 0 1-2.7-1.2"/></svg>