<svg xmlns="http://www.w3.org/2000/svg" viewBox="0 0 24 24" width="24" height="24"><defs><style>.a{fill:none;stroke:#000;stroke-linecap:round;stroke-linejoin:round;stroke-width:1.5px}</style></defs><title>primitive-symbols-group</title><ellipse class="a" cx="5.25" cy="3.625" rx="2.25" ry="2.625"/><ellipse class="a" cx="18.75" cy="3.625" rx="2.25" ry="2.625"/><path class="a" d="M.75 12.25l.864-1.728a.751.751 0 0 1 1.327-.029l6.6 11.871a.75.75 0 0 0 .655.386h3.595a.75.75 0 0 0 .671-.415l6-12a.75.75 0 0 1 1.271-.114l1.517 2.029"/><path class="a" d="M23.25 22.75l-6.207-12.415a.75.75 0 0 0-1.271-.114L14.25 12.25M.75 22.75l6.207-12.415a.75.75 0 0 1 1.271-.114L9.75 12.25"/></svg>