<svg xmlns="http://www.w3.org/2000/svg" viewBox="0 0 24 24" width="24" height="24"><defs><style>.a{fill:none;stroke:#000;stroke-linecap:round;stroke-linejoin:round;stroke-width:1.5px}</style></defs><title>primitive-symbols-shaman</title><ellipse class="a" cx="12" cy="5.625" rx="2.25" ry="2.625"/><path class="a" d="M9.773 6H6a3 3 0 0 1-3-3V.75M6.75 3v3m7.477 0H18a3 3 0 0 0 3-3V.75M17.25 3v3M6.75 23.25L12 18l5.25 5.25M12 8.25V18m-7.5-7.5l1.576 2.627a1.5 1.5 0 0 0 1.877.607L12 12l4.047 1.734a1.5 1.5 0 0 0 1.877-.607L19.5 10.5"/></svg>