<svg xmlns="http://www.w3.org/2000/svg" viewBox="0 0 24 24" width="24" height="24"><defs><style>.a{fill:none;stroke:#000;stroke-linecap:round;stroke-linejoin:round;stroke-width:1.5px}</style></defs><title>primitive-symbols-animal</title><path class="a" d="M7.25 17.25l-1.5-4.5 6-5.25 6 2.25-6 2.25-4.5 5.25zm4.5-9.75L15.5 3h6s-1.5 3-3 3H13m2.5-3H11a3.25 3.25 0 0 1-3-1.5m3.75 0V3m6 6.75c.75 3.75 0 4.5-.75 5.25m-9.75 2.25v2.25a2.747 2.747 0 0 0 3 3m-4.5-9.75a2.078 2.078 0 0 1-3 0"/><path class="a" d="M6.364 14.591L3.5 16.5v3.75c0 1.5.75 2.25 1.5 2.25"/></svg>