<svg xmlns="http://www.w3.org/2000/svg" viewBox="0 0 24 24" width="24" height="24"><defs><style>.a{fill:none;stroke:#000;stroke-linecap:round;stroke-linejoin:round;stroke-width:1.5px}</style></defs><title>printer</title><path class="a" d="M17.25 15.75H6.75l-1.5 7.5h13.5l-1.5-7.5z"/><path class="a" d="M17.85 18.75h3.9a1.5 1.5 0 0 0 1.5-1.5v-6H.75v6a1.5 1.5 0 0 0 1.5 1.5h3.9m.6-13.5H4.677a1.5 1.5 0 0 0-1.342.829L.75 11.25h22.5l-2.585-5.171a1.5 1.5 0 0 0-1.342-.829H17.25"/><path class="a" d="M6.75.75h10.5v7.5H6.75zm13.875 13.5a.375.375 0 1 0 .375.375.375.375 0 0 0-.375-.375m-10.875 6h4.5"/></svg>