<svg xmlns="http://www.w3.org/2000/svg" viewBox="0 0 24 24" width="24" height="24"><defs><style>.a{fill:none;stroke:#000;stroke-linecap:round;stroke-linejoin:round;stroke-width:1.5px}</style></defs><title>printer-view</title><path class="a" d="M5.25 17.248h-3a1.5 1.5 0 0 1-1.5-1.5v-7.5a1.5 1.5 0 0 1 1.5-1.5h19.5a1.5 1.5 0 0 1 1.5 1.5v6m-19.5-4.5h.75"/><path class="a" d="M13.5 23.248H5.25v-10.5h3m10.5-6H5.25v-4.5a1.5 1.5 0 0 1 1.5-1.5h10.5a1.5 1.5 0 0 1 1.5 1.5z"/><circle class="a" cx="15.75" cy="15.748" r="5.25"/><path class="a" d="M23.25 23.248l-3.788-3.788"/></svg>