<svg xmlns="http://www.w3.org/2000/svg" viewBox="0 0 24 24" width="24" height="24"><path fill="none" stroke="#000" stroke-linecap="round" stroke-linejoin="round" stroke-miterlimit="10" d="M9.228 14.351l-6.132 1.811A3.997 3.997 0 00.5 19.906V23.5m14.272-9.149l6.132 1.811a3.999 3.999 0 012.596 3.745V23.5"/><path fill="none" stroke="#000" stroke-linejoin="round" stroke-miterlimit="10" d="M17 3.5s-1.5 1-5 1-5-1-5-1M17 6s-1.5 1-5 1-5-1-5-1m2.5 8.5v-1a2 2 0 012-2h1a2 2 0 012 2v1m-2.5 1v-2m-11.203 5h22.359m-22.64 2H23.5m-23 2h23"/><path d="M10 8.5a.5.5 0 100 1 .5.5 0 000-1zm4 0a.5.5 0 100 1 .5.5 0 000-1z"/><path fill="none" stroke="#000" stroke-linecap="round" stroke-linejoin="round" stroke-miterlimit="10" d="M12 15.5c-1.5 0-5-2-5-5-1.5 0-1.5-3 0-3v-5c0-1.104 2.238-2 5-2s5 .896 5 2v5c1.5 0 1.5 3 0 3 0 3-3.5 5-5 5"/><path fill="none" d="M0 0h24v24H0z"/></svg>