<svg xmlns="http://www.w3.org/2000/svg" viewBox="0 0 24 24" width="24" height="24"><defs><style>.a{fill:none;stroke:#000;stroke-linecap:round;stroke-linejoin:round;stroke-width:1.5px}</style></defs><title>products-gifts</title><path class="a" d="M6.053 20.25h3m-3-15.75v9M.803 9h10.5M3.803.75l2.25 3.75M8.303.75L6.053 4.5M15.8 23.25a3 3 0 0 0-3-3H9.053a3 3 0 0 0-3-3H.8v6z"/><rect class="a" x=".803" y="4.5" width="10.5" height="9" rx=".5" ry=".5"/><path class="a" d="M13.86 8.575l.357-2.675a.749.749 0 0 1 .743-.651h6.187a.749.749 0 0 1 .743.651l1.3 9.75a.765.765 0 0 1-.743.849H12.8"/><path class="a" d="M15.8 5.25v-1.5a2.25 2.25 0 0 1 4.5 0v1.5"/></svg>