<svg xmlns="http://www.w3.org/2000/svg" viewBox="0 0 24 24" width="24" height="24"><defs><style>.a{fill:none;stroke:#000;stroke-linecap:round;stroke-linejoin:round;stroke-width:1.5px}</style></defs><title>products-give-gift</title><path class="a" d="M15.75 23.238a3 3 0 0 0-3-3H9a3 3 0 0 0-3-3H.75v6zm-9.75-3h3m2.25-3H21a.75.75 0 0 0 .75-.75v-6.75m-13.5 0v4.5"/><rect class="a" x="6.75" y="5.988" width="16.5" height="3.75" rx=".75" ry=".75"/><path class="a" d="M15 17.238V5.988m4.265-2.121a11.855 11.855 0 0 1-4.242 2.121 11.855 11.855 0 0 1 2.121-4.242C18.463.428 19.21.63 19.8 1.216s.784 1.333-.535 2.651zm-8.531 0a11.863 11.863 0 0 0 4.242 2.121 11.837 11.837 0 0 0-2.121-4.242C11.537.428 10.79.63 10.2 1.216s-.784 1.333.534 2.651z"/></svg>