<svg xmlns="http://www.w3.org/2000/svg" viewBox="0 0 24 24" width="24" height="24"><defs><style>.a{fill:none;stroke:#000;stroke-linecap:round;stroke-linejoin:round;stroke-width:1.5px}</style></defs><title>products-gift-tag</title><path class="a" d="M19.125 22.986a.861.861 0 0 0 1.217 0L23 20.33a.861.861 0 0 0 0-1.217l-3.875-3.873a.863.863 0 0 0-.609-.252h-2.655a.86.86 0 0 0-.861.861v2.656a.861.861 0 0 0 .252.608zm-3.957-7.647l-1.851-1.851M12 17.238H3a.75.75 0 0 1-.75-.75v-6.75m13.5 0v2.25"/><rect class="a" x=".75" y="5.988" width="16.5" height="3.75" rx=".75" ry=".75"/><path class="a" d="M9 17.238V5.988M4.734 3.867a11.863 11.863 0 0 0 4.242 2.121 11.837 11.837 0 0 0-2.121-4.242C5.537.428 4.79.63 4.2 1.216s-.784 1.333.534 2.651zm8.532 0a11.864 11.864 0 0 1-4.243 2.121 11.855 11.855 0 0 1 2.121-4.242C12.463.428 13.21.63 13.8 1.216s.784 1.333-.534 2.651z"/></svg>