<svg xmlns="http://www.w3.org/2000/svg" viewBox="0 0 24 24" width="24" height="24"><defs><style>.a{fill:none;stroke:#000;stroke-linecap:round;stroke-linejoin:round;stroke-width:1.5px}</style></defs><title>products-shopping-bags</title><path class="a" d="M15.75 8.25V7.5a1.5 1.5 0 0 0-1.5-1.5h-12a1.5 1.5 0 0 0-1.5 1.5v14.156a1.583 1.583 0 0 0 1.5 1.594h8.25"/><rect class="a" x="14.25" y="14.156" width="9" height="9" rx=".75" ry=".75"/><path class="a" d="M11.25 9.75v-6a3.009 3.009 0 0 0-3-3 3.009 3.009 0 0 0-3 3v6m13.5 4.406v9m-4.5-4.5h9m-6.75-7.5l2.25 3m2.25-3l-2.25 3"/></svg>