<svg xmlns="http://www.w3.org/2000/svg" viewBox="0 0 24 24" width="24" height="24"><defs><style>.a{fill:none;stroke:#000;stroke-linecap:round;stroke-linejoin:round;stroke-width:1.5px}</style></defs><title>products-give-purse</title><path class="a" d="M15.75 23.25a3 3 0 0 0-3-3H9a3 3 0 0 0-3-3H.75v6zm-9.75-3h3m3-3h9.75a1.6 1.6 0 0 0 1.5-1.688V8.75m-16.5 0v5.5"/><path class="a" d="M21.562 5.25H8.437A1.719 1.719 0 0 0 6.75 7v1.75a1.719 1.719 0 0 0 1.687 1.75h13.125a1.72 1.72 0 0 0 1.688-1.75V7a1.72 1.72 0 0 0-1.688-1.75zM15 9v3m3.8-6.844a3.8 3.8 0 1 0-7.483.094"/></svg>