<svg xmlns="http://www.w3.org/2000/svg" viewBox="0 0 24 24" width="24" height="24"><defs><style>.a{fill:none;stroke:#000;stroke-linecap:round;stroke-linejoin:round;stroke-width:1.5px}</style></defs><title>professions-man-diver</title><path class="a" d="M21.665 22.875a9.755 9.755 0 0 0-7.939-8.837m-3.565 0a9.756 9.756 0 0 0-7.939 8.837m14.466-18.75a5.252 5.252 0 0 0-9.489 0"/><circle class="a" cx="11.944" cy="11.625" r="3"/><path class="a" d="M14.541 10.125h1.153a3 3 0 0 0 3-3v-1.5a1.5 1.5 0 0 0-1.5-1.5h-10.5a1.5 1.5 0 0 0-1.5 1.5v1.5a3 3 0 0 0 3 3h1.152m-6.027-9a.375.375 0 1 0 .375.375.375.375 0 0 0-.375-.375m-2.25 4.5A.375.375 0 1 0 1.444 6a.375.375 0 0 0-.375-.375m19.5-4.5a.375.375 0 1 0 .375.375.375.375 0 0 0-.375-.375m2.25 4.5a.375.375 0 1 0 .375.375.375.375 0 0 0-.375-.375M2.944 19.869v-5.244a2.25 2.25 0 0 1 4.5 0v.349m13.5 4.895v-5.244a2.25 2.25 0 0 0-4.5 0v.349m-4.688 8.089v-4.5"/></svg>