<svg xmlns="http://www.w3.org/2000/svg" viewBox="0 0 24 24" width="24" height="24"><defs><style>.a{fill:none;stroke:#000;stroke-linecap:round;stroke-linejoin:round;stroke-width:1.5px}</style></defs><title>professions-woman-magician</title><path class="a" d="M6.941 11.249S6.888 15 3.888 16.5m13.447-5.251s.053 3.75 3.053 5.25"/><path class="a" d="M17.388 11.249a5.25 5.25 0 0 1-10.5 0z"/><path class="a" d="M6.138 2.25l.75 9h10.5l.75-9a1.5 1.5 0 0 0-1.5-1.5h-9a1.5 1.5 0 0 0-1.5 1.5zm-2.25 8.999h16.5m-13.75-3h10.996M8.528 18.833a.6.6 0 0 0-.3-.083.587.587 0 0 0-.587.587v3.325a.587.587 0 0 0 .89.5l7.221-4.333a.588.588 0 0 1 .889.5v3.325a.587.587 0 0 1-.889.5z"/></svg>