<svg xmlns="http://www.w3.org/2000/svg" viewBox="0 0 24 24" width="24" height="24"><defs><style>.a{fill:none;stroke:#000;stroke-linecap:round;stroke-linejoin:round;stroke-width:1.5px}</style></defs><title>professions-man-astronaut</title><path class="a" d="M17.2 7.5V6A5.25 5.25 0 0 0 6.7 6v1.5M2.2 23.25a9.75 9.75 0 0 1 19.5 0"/><path class="a" d="M17.2 7.5c0 2.071-2.351 4.372-5.25 4.372S6.7 9.571 6.7 7.5s2.35-3.75 5.25-3.75S17.2 5.429 17.2 7.5zm-1.877 11.122A1.875 1.875 0 1 0 17.2 20.5a1.875 1.875 0 0 0-1.875-1.875zm-7.875 0h3m-3 3h3"/><path class="a" d="M6.8 8.25h-.1a3 3 0 0 0-3 3v6.8m16.5.001v-6.8a3 3 0 0 0-3-3h-.105"/></svg>