<svg xmlns="http://www.w3.org/2000/svg" viewBox="0 0 24 24" width="24" height="24"><defs><style>.a{fill:none;stroke:#000;stroke-linecap:round;stroke-linejoin:round;stroke-width:1.5px}</style></defs><title>professions-man-clown</title><path class="a" d="M6.75 13.172a5.25 5.25 0 0 0 10.5 0M12 11.25a1.875 1.875 0 1 0 1.875 1.875A1.875 1.875 0 0 0 12 11.25z"/><path class="a" d="M6.728 8.065a2.241 2.241 0 0 0-3.685 2.114c-.015 0-.028-.007-.043-.007a2.25 2.25 0 1 0 1.263 4.112A3.734 3.734 0 0 0 7.5 16.172c.063 0 .126 0 .188-.006m8.624 0c.062 0 .125.006.188.006a3.734 3.734 0 0 0 3.237-1.888A2.25 2.25 0 1 0 21 10.172c-.015 0-.028.007-.043.007a2.241 2.241 0 0 0-3.685-2.114M14.25 5.25h-4.5L9 .75h6l-.75 4.5zM6 5.25h12M9.142 9.33a1.124 1.124 0 0 1 1.591 0m2.534 0a1.124 1.124 0 0 1 1.591 0m4.287 13.92a10.2 10.2 0 0 0-14.29 0"/></svg>