<svg xmlns="http://www.w3.org/2000/svg" viewBox="0 0 24 24" width="24" height="24"><defs><style>.a{fill:none;stroke:#000;stroke-linecap:round;stroke-linejoin:round;stroke-width:1.5px}</style></defs><title>professions-woman-doctor-2</title><path class="a" d="M6.707 19.139a10.567 10.567 0 0 0-3.476 4.111m18.952 0a10.489 10.489 0 0 0-9.476-6m0-12s-1.434 3.6-5.031 3.745a5.25 5.25 0 1 0 10.062 0c-3.598-.148-5.031-3.745-5.031-3.745z"/><circle class="a" cx="2.957" cy="12.75" r="1.5"/><path class="a" d="M16.457 17.25a3.75 3.75 0 0 1-7.5 0m-4.5-4.406a3 3 0 0 1 2.25 2.906V21a2.25 2.25 0 0 0 2.25 2.25h1.5a2.251 2.251 0 0 0 2.25-2.25"/><path class="a" d="M4.457 9a8.25 8.25 0 0 1 16.5 0v2.076a4.5 4.5 0 0 0 .364 1.772l1.379 3.211a1.5 1.5 0 0 1-.762 1.961 14.584 14.584 0 0 1-3.391 1.006"/></svg>