<svg xmlns="http://www.w3.org/2000/svg" viewBox="0 0 24 24" width="24" height="24"><defs><style>.a{fill:none;stroke:#000;stroke-linecap:round;stroke-linejoin:round;stroke-width:1.5px}</style></defs><title>professions-woman-welder</title><path class="a" d="M17.222 6a5.25 5.25 0 0 0-10.5 0v6.75s1.5 1.5 5.25 1.5 5.25-1.5 5.25-1.5z"/><path class="a" d="M8.222 14.249V15c0 2.071 0 3.75 3.75 3.75s3.75-1.679 3.75-3.75v-.751m-10.5 9.001v-7.035m13.5 7.035v-7.035m3 7.035a9.754 9.754 0 0 0-6.922-9.334m-5.653 0a9.754 9.754 0 0 0-6.925 9.334m6.75-18h6v3h-6zM6.722 9s0 3.749-3 5.249M17.222 9s.054 3.75 3.054 5.25"/></svg>