<svg xmlns="http://www.w3.org/2000/svg" viewBox="0 0 24 24" width="24" height="24"><defs><style>.a{fill:none;stroke:#000;stroke-linecap:round;stroke-linejoin:round;stroke-width:1.5px}</style></defs><title>professions-man-nurse-2</title><path class="a" d="M11.944 18v5.25m5.25-16.5v-4.5a1.5 1.5 0 0 0-1.5-1.5h-7.5a1.5 1.5 0 0 0-1.5 1.5v4.5a5.25 5.25 0 1 0 10.5 0zM6.694 6h10.5m-5.25 12a4.5 4.5 0 0 0 4.172-2.814 9.766 9.766 0 0 0-8.344 0A4.5 4.5 0 0 0 11.944 18zm3.75 2.625a.375.375 0 1 0 .375.375.375.375 0 0 0-.375-.375m5.962 2.625a9.74 9.74 0 0 0-19.424 0"/></svg>