<svg xmlns="http://www.w3.org/2000/svg" viewBox="0 0 24 24" width="24" height="24"><defs><style>.a{fill:none;stroke:#000;stroke-linecap:round;stroke-linejoin:round;stroke-width:1.5px}</style></defs><title>professions-man-magician</title><path class="a" d="M17.2 11.25a5.25 5.25 0 0 1-10.5 0zm-11.252-9l.75 9H17.2l.75-9a1.5 1.5 0 0 0-1.5-1.5h-9a1.5 1.5 0 0 0-1.502 1.5zm-2.25 9h16.5m-13.5-3h10.5m-8.86 10.583a.6.6 0 0 0-.3-.083.587.587 0 0 0-.587.587v3.325a.587.587 0 0 0 .89.5l7.221-4.333a.588.588 0 0 1 .889.5v3.325a.587.587 0 0 1-.889.5z"/></svg>