<svg xmlns="http://www.w3.org/2000/svg" viewBox="0 0 24 24" width="24" height="24"><defs><style>.a{fill:none;stroke:#000;stroke-linecap:round;stroke-linejoin:round;stroke-width:1.5px}</style></defs><title>professions-woman-bellboy</title><path class="a" d="M17.222 8.25v-6a1.5 1.5 0 0 0-1.5-1.5h-7.5a1.5 1.5 0 0 0-1.5 1.5v6a5.25 5.25 0 0 0 10.5 0zm-10.5-.75h10.5m-6 8.28v7.47m3-.75a.375.375 0 1 0 .375.375.375.375 0 0 0-.375-.375m0-3.375a.375.375 0 1 0 .375.375.375.375 0 0 0-.375-.375M6.722 4.5h10.5m4.229 18.75a9.739 9.739 0 0 0-18.957 0m4.228-15s0 3.75-3 5.25m13.5-5.25s0 3.75 3 5.25"/></svg>