<svg xmlns="http://www.w3.org/2000/svg" viewBox="0 0 24 24" width="24" height="24"><defs><style>.a{fill:none;stroke:#000;stroke-linecap:round;stroke-linejoin:round;stroke-width:1.5px}</style></defs><title>professions-woman-chef-1</title><path class="a" d="M8.249 23.25l8.568-8.568m-9.654-.019l4.836 4.837m2.25 3.75l3.316-8.139M17.249 6V2.25a1.5 1.5 0 0 0-1.5-1.5h-7.5a1.5 1.5 0 0 0-1.5 1.5V6a5.25 5.25 0 1 0 10.5 0zm-10.5-.75h10.5m-4.5 0V.75m9.696 22.5a10.5 10.5 0 0 0-20.946 0M6.8 6.75S6.749 10.5 3.749 12M17.2 6.75s.053 3.75 3.053 5.25"/></svg>