<svg xmlns="http://www.w3.org/2000/svg" viewBox="0 0 24 24" width="24" height="24"><defs><style>.a{fill:none;stroke:#000;stroke-linecap:round;stroke-linejoin:round;stroke-width:1.5px}</style></defs><title>professions-woman-post</title><path class="a" d="M3.608 12.749c3-1.5 3.053-5.25 3.053-5.25v-.75m13.447 6c-3-1.5-3.054-5.25-3.054-5.25v-.75m-10.332 0V3.9a1.522 1.522 0 0 1 .909-1.4l3.75-1.627a1.481 1.481 0 0 1 1.182 0l3.75 1.627a1.52 1.52 0 0 1 .909 1.4v2.849"/><path class="a" d="M11.972 3.374a.375.375 0 1 0 .375.375.375.375 0 0 0-.375-.375m-6.75 3.375h13.5m2.886 16.5A9.754 9.754 0 0 0 11.972 15a9.753 9.753 0 0 0-9.635 8.25M16.23 6.749a4.511 4.511 0 1 1-8.515 0m7.143 15h3m-6-6.75v8.25"/></svg>