<svg xmlns="http://www.w3.org/2000/svg" viewBox="0 0 24 24" width="24" height="24"><defs><style>.a{fill:none;stroke:#000;stroke-linecap:round;stroke-linejoin:round;stroke-width:1.5px}</style></defs><title>professions-man-post</title><path class="a" d="M6.7 6.749V3.9a1.52 1.52 0 0 1 .909-1.4L11.358.873a1.481 1.481 0 0 1 1.182 0L16.29 2.5a1.522 1.522 0 0 1 .91 1.4v2.849"/><path class="a" d="M11.949 3.374a.375.375 0 1 0 .375.375.375.375 0 0 0-.375-.375m-6.75 3.375h13.5m2.885 16.5A9.754 9.754 0 0 0 11.949 15a9.754 9.754 0 0 0-9.636 8.25M16.386 9a4.5 4.5 0 0 1-8.875 0m7.323 12.749h3m-6-6.75v8.25"/></svg>