<svg xmlns="http://www.w3.org/2000/svg" viewBox="0 0 24 24" width="24" height="24"><defs><style>.a{fill:none;stroke:#000;stroke-linecap:round;stroke-linejoin:round;stroke-width:1.5px}</style></defs><title>professions-woman-chef-3</title><path class="a" d="M17.388 11.25a5.25 5.25 0 0 1-10.5 0zm0-4.5a1.5 1.5 0 0 0 1.5-1.5 3 3 0 0 0-4.051-2.811 3 3 0 0 0-5.4 0A3 3 0 0 0 5.388 5.25a1.5 1.5 0 0 0 1.5 1.5v4.5h10.5zm2.412 16.5a9.692 9.692 0 0 0-15.314 0m7.652-3.75v3.75m-5.25-12s0 3.75-3 5.25m13.5-5.25s0 3.75 3 5.25"/></svg>