<svg xmlns="http://www.w3.org/2000/svg" viewBox="0 0 24 24" width="24" height="24"><defs><style>.a{fill:none;stroke:#000;stroke-linecap:round;stroke-linejoin:round;stroke-width:1.5px}</style></defs><title>professions-man-artist</title><path class="a" d="M14.885 3a16.977 16.977 0 0 0-7.5-2.25c-3 0-3.75 1.5-3.75 3 0 1.657.675 3 2.25 3h9c1.3 0 2.25-.127 2.25-1.5A1.989 1.989 0 0 0 14.885 3zm0 0a2.25 2.25 0 0 1 2.25-2.25m-10.5 14.998a9.762 9.762 0 0 0-5.886 7.5m22.074-9.866A2.25 2.25 0 1 1 19.006 11c.794-1.272 2.7-.08 3.895-1.989-.001-.002.58 3.317-.078 4.371z"/><path class="a" d="M19.722 14.1a2.035 2.035 0 0 0-2.9.825L13.56 20.86a1.658 1.658 0 0 0 2.8 1.747l3.9-5.535a2.036 2.036 0 0 0-.538-2.972zM5.2 6.653a5.25 5.25 0 1 0 10.375.076"/></svg>