<svg xmlns="http://www.w3.org/2000/svg" viewBox="0 0 24 24" width="24" height="24"><defs><style>.a{fill:none;stroke:#000;stroke-linecap:round;stroke-linejoin:round;stroke-width:1.5px}</style></defs><title>professions-man-telecommunicator</title><path class="a" d="M6.723 5.477a5.251 5.251 0 1 1 8.225 4.831M7.439 3.35A8.71 8.71 0 0 0 13.7 6a8.706 8.706 0 0 0 3.429-.7m-6.306 4.45a1.5 1.5 0 1 0 1.5 1.5 1.5 1.5 0 0 0-1.5-1.5z"/><path class="a" d="M9.323 11.25h-1.5a3 3 0 0 1-3-3V7.172M21.7 23.25a9.741 9.741 0 0 0-5.25-8.644m-9.002 0A9.741 9.741 0 0 0 2.2 23.25"/></svg>