<svg xmlns="http://www.w3.org/2000/svg" viewBox="0 0 24 24" width="24" height="24"><defs><style>.a{fill:none;stroke:#000;stroke-linecap:round;stroke-linejoin:round;stroke-width:1.5px}</style></defs><title>programming-language-html</title><path class="a" d="M.75 20.135a1.62 1.62 0 0 0 1.615 1.615H21.75a1.5 1.5 0 0 0 1.5-1.5m0-13.5V3.865a1.62 1.62 0 0 0-1.615-1.615H2.357A1.612 1.612 0 0 0 .75 3.857V6.75m0 0h22.5m-15 10.5v-7.5m-1.5 0h3m-9 7.5v-7.5m3 7.5v-7.5m-3 4.5h3m16.5-4.5v6a1.5 1.5 0 0 0 1.5 1.5h1.5m-6 0v-7.5L15 13.5l-2.25-3.75v7.5"/></svg>