<svg xmlns="http://www.w3.org/2000/svg" viewBox="0 0 24 24" width="24" height="24"><defs><style>.a{fill:none;stroke:#000;stroke-linecap:round;stroke-linejoin:round;stroke-width:1.5px}</style></defs><title>programming-language-html-5</title><path class="a" d="M19.629 19.224l-6.89 3.759a1.5 1.5 0 0 1-1.437 0l-6.89-3.759a1.5 1.5 0 0 1-.762-1.07L1.061 2.621A1.5 1.5 0 0 1 2.541.875H21.5a1.5 1.5 0 0 1 1.479 1.746L20.39 18.154a1.494 1.494 0 0 1-.761 1.07z"/><path class="a" d="M17.27 5.375H6.77l.75 4.5h9l-.75 6-3.75 2.25-3.75-2.25"/></svg>