<svg xmlns="http://www.w3.org/2000/svg" viewBox="0 0 24 24" width="24" height="24"><defs><style>.a{fill:none;stroke:#000;stroke-linecap:round;stroke-linejoin:round;stroke-width:1.5px}</style></defs><title>programming-language-monitor-css</title><path class="a" d="M15 23.25H9l.75-4.5h4.5l.75 4.5zm-8.25 0h10.5"/><rect class="a" x=".75" y=".75" width="22.5" height="18" rx="3" ry="3"/><path class="a" d="M6.75 5.25a3 3 0 0 0-3 3v1.5a3 3 0 0 0 3 3m12-7.5h-1.5a1.5 1.5 0 0 0-1.5 1.5c0 2.25 3 2.25 3 4.5a1.5 1.5 0 0 1-1.5 1.5h-1.5m-3-7.5h-1.5a1.5 1.5 0 0 0-1.5 1.5c0 2.25 3 2.25 3 4.5a1.5 1.5 0 0 1-1.5 1.5h-1.5m-9 3h22.5"/></svg>