<svg xmlns="http://www.w3.org/2000/svg" viewBox="0 0 24 24" width="24" height="24"><defs><style>.a{fill:none;stroke:#000;stroke-linecap:round;stroke-linejoin:round;stroke-width:1.5px}</style></defs><title>programming-code</title><path class="a" d="M2.25 21.75a1.5 1.5 0 0 1-1.5-1.5V3.865A1.62 1.62 0 0 1 2.365 2.25h19.278a1.612 1.612 0 0 1 1.607 1.607v16.278a1.62 1.62 0 0 1-1.615 1.615z"/><path class="a" d="M4.85 18.75a1.071 1.071 0 0 1-1.1-1.038V6.368A1.156 1.156 0 0 1 4.935 5.25h14.136a1.151 1.151 0 0 1 1.179 1.113v11.269a1.156 1.156 0 0 1-1.185 1.118zM13.5 12h3"/><path class="a" d="M8.25 9.75L10.5 12l-2.25 2.25"/></svg>