<svg xmlns="http://www.w3.org/2000/svg" viewBox="0 0 24 24" width="24" height="24"><defs><style>.a{fill:none;stroke:#000;stroke-linecap:round;stroke-linejoin:round;stroke-width:1.5px}</style></defs><title>programming-monitor-type</title><rect class="a" x="5.25" y=".75" width="13.5" height="9" rx="1.5" ry="1.5"/><path class="a" d="M9.75 12.75h4.5M.75 23.25s-.015-4.266 1.4-6.738A3 3 0 0 1 4.753 15h2.632a.751.751 0 0 1 .743.856L7.5 20.25c3.75-2.25 3.75 0 1.5 3m14.25 0s.015-4.266-1.4-6.738A3 3 0 0 0 19.247 15h-2.632a.751.751 0 0 0-.743.856l.628 4.394c-3.75-2.25-3.75 0-1.5 3m-3-10.5v-3"/></svg>