<svg xmlns="http://www.w3.org/2000/svg" viewBox="0 0 24 24" width="24" height="24"><defs><style>.a{fill:none;stroke:#000;stroke-linecap:round;stroke-linejoin:round;stroke-width:1.5px}</style></defs><title>programming-team-chat-2</title><circle class="a" cx="6" cy="14.25" r="3"/><path class="a" d="M3 14.25S3 18 .75 18M9 14.25S9 18 11.25 18M1.5 23.25a4.5 4.5 0 0 1 9 0zm19.1-10.5a3 3 0 1 1-5.6 1.5m0 0S15 18 12.75 18M21 14.25S21 18 23.25 18m-9.75 5.25a4.5 4.5 0 0 1 9 0zM6.75 9.75H12v4.5l4.5-4.5h6v-9H6.75v9z"/><path class="a" d="M17.596 3L19.5 5.25 17.596 7.5M11.654 3L9.75 5.25l1.904 2.25M15 3l-.75 4.5"/></svg>