<svg xmlns="http://www.w3.org/2000/svg" viewBox="0 0 24 24" width="24" height="24"><defs><style>.a{fill:none;stroke:#000;stroke-linecap:round;stroke-linejoin:round;stroke-width:1.5px}</style></defs><title>programming-language-monitor-html</title><path class="a" d="M15 23.25H9l.75-4.5h4.5l.75 4.5zm-8.25 0h10.5m6-7.5v1.5a1.5 1.5 0 0 1-1.5 1.5H2.25a1.5 1.5 0 0 1-1.5-1.5v-1.5zM.75 2.25a1.5 1.5 0 0 1 1.5-1.5h19.5a1.5 1.5 0 0 1 1.5 1.5m-15 10.5v-7.5m-1.5 0h3m-9 7.5v-7.5m3 7.5v-7.5m-3 4.5h3m16.5-4.5v6a1.5 1.5 0 0 0 1.5 1.5h1.5m-6 0v-7.5L15 9l-2.25-3.75v7.5"/></svg>