<svg xmlns="http://www.w3.org/2000/svg" viewBox="0 0 24 24" width="24" height="24"><defs><style>.a{fill:none;stroke:#000;stroke-linecap:round;stroke-linejoin:round;stroke-width:1.5px}</style></defs><title>programming-language-http</title><path class="a" d="M22.5 6.75v-3a1.5 1.5 0 0 0-1.5-1.5H3a1.5 1.5 0 0 0-1.5 1.5v3m0 13.5a1.5 1.5 0 0 0 1.5 1.5h18a1.5 1.5 0 0 0 1.5-1.5v-3m-21-10.5h21M9 17.25v-7.5m-1.5 0h3m4.5 7.5v-7.5m-1.5 0h3m-15 7.5v-7.5m3 7.5v-7.5m-3 4.5h3m15 3v-7.5m0 0h.75a2.25 2.25 0 0 1 0 4.5h-.75"/></svg>