<svg xmlns="http://www.w3.org/2000/svg" viewBox="0 0 24 24" width="24" height="24"><defs><style>.a{fill:none;stroke:#000;stroke-linecap:round;stroke-linejoin:round;stroke-width:1.5px}</style></defs><title>programming-keyboard-type</title><rect class="a" x="1.494" y="1.5" width="21" height="9" rx="1.5" ry="1.5"/><path class="a" d="M4.494 4.5h1.5m-1.5 3h1.5m3-3h1.5m-1.5 3h6m-1.5-3h1.5m3 0h1.5m-1.5 3h1.5m-18.75 15s-.015-4.266 1.4-6.738a3 3 0 0 1 2.603-1.512h2.632a.751.751 0 0 1 .743.856L7.494 19.5c3.75-2.25 3.75 0 1.5 3m14.25 0s.015-4.266-1.4-6.738a3 3 0 0 0-2.6-1.512h-2.635a.751.751 0 0 0-.743.856l.628 4.394c-3.75-2.25-3.75 0-1.5 3"/></svg>