<svg xmlns="http://www.w3.org/2000/svg" viewBox="0 0 24 24" width="24" height="24"><defs><style>.a{fill:none;stroke:#000;stroke-linecap:round;stroke-linejoin:round;stroke-width:1.5px}</style></defs><title>programming-team-chat-3</title><circle class="a" cx="3.375" cy="16.876" r="2.625"/><path class="a" d="M7.514 22.984A4.5 4.5 0 0 0 .75 21.1"/><circle class="a" cx="20.625" cy="16.876" r="2.625"/><path class="a" d="M16.486 22.984A4.5 4.5 0 0 1 23.25 21.1"/><circle class="a" cx="12" cy="16.126" r="3.375"/><path class="a" d="M16.715 23.25a6.066 6.066 0 0 0-9.429 0m8.464-13.5h-7.5V12L4.5 9.75h-3v-9h14.25v9z"/><path class="a" d="M6 3.75l-1.5 1.5L6 6.75m5.25-3l1.5 1.5-1.5 1.5M9 3.75l-.75 3"/></svg>