<svg xmlns="http://www.w3.org/2000/svg" viewBox="0 0 24 24" width="24" height="24"><defs><style>.a{fill:none;stroke:#000;stroke-linecap:round;stroke-linejoin:round;stroke-width:1.5px}</style></defs><title>programming-laptop-type</title><path class="a" d="M.75 23.25s-.015-4.266 1.4-6.738A3 3 0 0 1 4.753 15h2.632a.751.751 0 0 1 .743.856L7.5 20.25c3.75-2.25 3.75 0 1.5 3m14.25 0s.015-4.266-1.4-6.738A3 3 0 0 0 19.247 15h-2.632a.751.751 0 0 0-.743.856l.628 4.394c-3.75-2.25-3.75 0-1.5 3M5.25 9V2.25a1.5 1.5 0 0 1 1.5-1.5h10.5a1.5 1.5 0 0 1 1.5 1.5V9M3 9c0 2.071 1.679 3 3.75 3h10.5c2.071 0 3.75-.929 3.75-3z"/></svg>