<svg xmlns="http://www.w3.org/2000/svg" viewBox="0 0 24 24" width="24" height="24"><defs><style>.a{fill:none;stroke:#000;stroke-linecap:round;stroke-linejoin:round;stroke-width:1.5px}</style></defs><title>programming-user-head</title><circle class="a" cx="12" cy="13.125" r="3.375"/><path class="a" d="M18 23.25a6.054 6.054 0 0 0-12 0zM1.5.75h.75A.75.75 0 0 1 3 1.5v5.25m-1.5 0h3m-3 12h.75a.75.75 0 0 1 .75.75v3.75m16.5-4.5h.75a.75.75 0 0 1 .75.75v3.75m-10.5-18a1.5 1.5 0 0 1-3 0v-3a1.5 1.5 0 0 1 3 0zm-6 9a1.5 1.5 0 0 1-3 0v-3a1.5 1.5 0 0 1 3 0zm15-13.5h.75a.75.75 0 0 1 .75.75v5.25m-1.5 0h3m-6-1.5a1.5 1.5 0 0 1-3 0v-3a1.5 1.5 0 0 1 3 0zm6 9a1.5 1.5 0 0 1-3 0v-3a1.5 1.5 0 0 1 3 0z"/></svg>