<svg xmlns="http://www.w3.org/2000/svg" viewBox="0 0 24 24" width="24" height="24"><defs><style>.a{fill:none;stroke:#000;stroke-linecap:round;stroke-linejoin:round;stroke-width:1.5px}</style></defs><title>programming-language-css</title><path class="a" d="M23.25 20.25V3.865a1.62 1.62 0 0 0-1.615-1.615H2.357A1.612 1.612 0 0 0 .75 3.857v16.278a1.62 1.62 0 0 0 1.615 1.615H21.75a1.5 1.5 0 0 0 1.5-1.5zM.75 6.75h22.5"/><path class="a" d="M7.5 10.5a3 3 0 0 0-3 3V15a3 3 0 0 0 3 3m12-7.5H18a1.5 1.5 0 0 0-1.5 1.5c0 2.25 3 2.25 3 4.5A1.5 1.5 0 0 1 18 18h-1.5m-3-7.5H12a1.5 1.5 0 0 0-1.5 1.5c0 2.25 3 2.25 3 4.5A1.5 1.5 0 0 1 12 18h-1.5"/></svg>