<svg xmlns="http://www.w3.org/2000/svg" viewBox="0 0 24 24" width="24" height="24"><defs><style>.a{fill:none;stroke:#000;stroke-linecap:round;stroke-linejoin:round;stroke-width:1.5px}</style></defs><title>programming-user-chat-1</title><path class="a" d="M14.248 23.208l-4.3-1.841v-2.455s1.063-.429 1.063-3.068c.839 0 1.158-2.454-.009-2.454a3.226 3.226 0 0 0 .54-2.455c-.6-2.454-6.542-2.454-7.145 0-2.535-.527-.517 2.1-.517 2.455-1.2 0-1.2 2.454 0 2.454 0 2.639 1.159 3.068 1.159 3.068v2.455L.75 23.207"/><path class="a" d="M14.25 12.844v4.5l4.5-4.5h3a1.5 1.5 0 0 0 1.5-1.5v-9a1.5 1.5 0 0 0-1.5-1.5h-12a1.5 1.5 0 0 0-1.5 1.5v3"/><path class="a" d="M12.75 4.594L15 6.844l-2.25 2.25M18 6.844h2.25"/></svg>