<svg xmlns="http://www.w3.org/2000/svg" viewBox="0 0 24 24" width="24" height="24"><defs><style>.a{fill:none;stroke:#000;stroke-linecap:round;stroke-linejoin:round;stroke-width:1.5px}</style></defs><title>programming-language-css-3</title><path class="a" d="M19.629 19.238L12.739 23a1.5 1.5 0 0 1-1.439 0l-6.89-3.758a1.5 1.5 0 0 1-.762-1.07L1.061 2.635A1.5 1.5 0 0 1 2.541.888H21.5a1.5 1.5 0 0 1 1.479 1.747L20.39 18.168a1.5 1.5 0 0 1-.761 1.07z"/><path class="a" d="M8.27 15.888l3.75 2.25 3.75-2.25.75-6H9.77l7.5-4.5H6.77"/></svg>