<svg xmlns="http://www.w3.org/2000/svg" viewBox="0 0 24 24" width="24" height="24"><defs><style>.a{fill:none;stroke:#000;stroke-linecap:round;stroke-linejoin:round;stroke-width:1.5px}</style></defs><title>project-blueprint-idea</title><path class="a" d="M5.25 6.75h-3a1.5 1.5 0 0 0-1.5 1.5v13.5a1.5 1.5 0 0 0 1.5 1.5h18a1.5 1.5 0 0 0 1.5-1.5V12m-21-.75h3"/><path class="a" d="M.75 18.75H6v4.5m11.25-4.5h4.5M.75 15h9v2.25m0 3v3m6-9.75v2.25m3.75-7.5a3.75 3.75 0 1 0-5.25 3.437V13.5h3v-1.813A3.751 3.751 0 0 0 19.5 8.25zM15.75.75v1.5m5.303.697l-1.06 1.06M23.25 8.25h-1.5M10.447 2.947l1.06 1.06M8.25 8.25h1.5"/></svg>