<svg xmlns="http://www.w3.org/2000/svg" viewBox="0 0 24 24" width="24" height="24"><defs><style>.a{fill:none;stroke:#000;stroke-linecap:round;stroke-linejoin:round;stroke-width:1.5px}</style></defs><title>project-book-building</title><path class="a" d="M9 20.25h6V10.5a.75.75 0 0 0-.75-.75h-4.5a.75.75 0 0 0-.75.75zm3-7.5h3m-3 3h3m1.5 4.5H15m-6 0H7.5"/><path class="a" d="M20.25.75H6.91a3.111 3.111 0 0 0-3.119 2.5 3 3 0 0 0 2.959 3.5H19.5a.75.75 0 0 1 .75.75v15a.75.75 0 0 1-.75.75H6.75a3 3 0 0 1-3-3V3.75m3 0h12"/></svg>