<svg xmlns="http://www.w3.org/2000/svg" viewBox="0 0 24 24" width="24" height="24"><defs><style>.a{fill:none;stroke:#000;stroke-linecap:round;stroke-linejoin:round;stroke-width:1.5px}</style></defs><title>project-plan-pen</title><path class="a" d="M22.811 1.189a1.5 1.5 0 0 1 0 2.122l-6.043 6.043a1.5 1.5 0 0 1-.767.41l-2.206.441L14.236 8a1.5 1.5 0 0 1 .41-.767l6.043-6.043a1.5 1.5 0 0 1 2.122-.001zm-6.895 4.773l2.122 2.122M12.75 20.25v3h-6v-3M5.25 18l4.5-3.75 4.5 3.75m-3-7.5h-6m-4.5 0h1.5"/></svg>