<svg xmlns="http://www.w3.org/2000/svg" viewBox="0 0 24 24" width="24" height="24"><defs><style>.a{fill:none;stroke:#000;stroke-linecap:round;stroke-linejoin:round;stroke-width:1.5px}</style></defs><title>project-home-shopping</title><path class="a" d="M4.5 5.032V12A1.5 1.5 0 0 0 6 13.5h6a1.5 1.5 0 0 0 1.5-1.5V5.032"/><path class="a" d="M16.5 7.732L10 1.885a1.5 1.5 0 0 0-2 0L1.5 7.732M15 6.382V2.25"/><path class="a" d="M.75 16.5h15.958a1.5 1.5 0 0 0 1.484-1.277l1.866-12.446A1.5 1.5 0 0 1 21.542 1.5h1.708"/><circle class="a" cx="4.125" cy="20.625" r="1.875"/><circle class="a" cx="14.625" cy="20.625" r="1.875"/></svg>