<svg xmlns="http://www.w3.org/2000/svg" viewBox="0 0 24 24" width="24" height="24"><defs><style>.a{fill:none;stroke:#000;stroke-linecap:round;stroke-linejoin:round;stroke-width:1.5px}</style></defs><title>project-blueprint-create</title><path class="a" d="M13.045 14.137l-3.712.53.53-3.712 9.546-9.546a2.25 2.25 0 0 1 3.182 3.182z"/><path class="a" d="M23.25 8.25v13.5a1.5 1.5 0 0 1-1.5 1.5H2.25a1.5 1.5 0 0 1-1.5-1.5V5.25a1.5 1.5 0 0 1 1.5-1.5h10.5"/><path class="a" d="M9 6.75H3.75v13.5h16.5v-9m-16.5 0h3"/><path class="a" d="M3.75 17.25h4.5v3m7.5-3h4.5m-3-3h3"/></svg>