<svg xmlns="http://www.w3.org/2000/svg" viewBox="0 0 24 24" width="24" height="24"><defs><style>.a{fill:none;stroke:#000;stroke-linecap:round;stroke-linejoin:round;stroke-width:1.5px}</style></defs><title>project-notes-buildings</title><path class="a" d="M9 19.124h6v-9.75a.75.75 0 0 0-.75-.75h-4.5a.75.75 0 0 0-.75.75zm3-6.75h3m-3 3h3m1.5 3.75H15m-6 0H7.5"/><path class="a" d="M15.75 4.5h3.75A1.5 1.5 0 0 1 21 6v15.75a1.5 1.5 0 0 1-1.5 1.5h-15a1.5 1.5 0 0 1-1.5-1.5V6a1.5 1.5 0 0 1 1.5-1.5h3.75a3.75 3.75 0 0 1 7.5 0zM12 3.75a.375.375 0 0 1 .375.375m-.75 0A.375.375 0 0 1 12 3.75m0 .75a.375.375 0 0 1-.375-.375m.75 0A.375.375 0 0 1 12 4.5"/></svg>