<svg xmlns="http://www.w3.org/2000/svg" viewBox="0 0 24 24" width="24" height="24"><defs><style>.a{fill:none;stroke:#000;stroke-linecap:round;stroke-linejoin:round;stroke-width:1.5px}</style></defs><title>project-building-shopping</title><path class="a" d="M.75 17.444h15.443a1.452 1.452 0 0 0 1.436-1.237l1.807-12.043a1.451 1.451 0 0 1 1.435-1.237h1.653"/><circle class="a" cx="4.016" cy="21.435" r="1.815"/><circle class="a" cx="14.177" cy="21.435" r="1.815"/><path class="a" d="M4.153 6.556h5.532a.5.5 0 0 1 .5.5v7.484H3.653V7.056a.5.5 0 0 1 .5-.5z"/><path class="a" d="M10.185 14.54h5.081V1.476A.726.726 0 0 0 14.54.75H8.008a.726.726 0 0 0-.726.726v5.08M3.653 14.54H2.202m5.08-5.08h2.903m2.904-5.807h2.177m-2.177 2.903h2.177"/></svg>