<svg xmlns="http://www.w3.org/2000/svg" viewBox="0 0 24 24" width="24" height="24"><defs><style>.a{fill:none;stroke:#000;stroke-linecap:round;stroke-linejoin:round;stroke-width:1.5px}</style></defs><title>promo-mail</title><path class="a" d="M.75 16.4V1.728A.978.978 0 0 1 1.728.75h11.544a.978.978 0 0 1 .978.978V6.75m-10.5-3v9"/><circle class="a" cx="8.25" cy="5.25" r="1.5"/><path class="a" d="M15.2 13.5a1.5 1.5 0 1 1 1.3 2.252m-6.75-3.035v-1.989a.978.978 0 0 1 .978-.978h11.544a.978.978 0 0 1 .978.978v7.043a.978.978 0 0 1-.978.979H17.25"/><rect class="a" x="3.75" y="15.75" width="10.5" height="7.5" rx="1" ry="1"/><path class="a" d="M3.75 17.25l5.25 3 5.25-3"/></svg>