<svg xmlns="http://www.w3.org/2000/svg" viewBox="0 0 24 24" width="24" height="24"><defs><style>.a{fill:none;stroke:#000;stroke-linecap:round;stroke-linejoin:round;stroke-width:1.5px}</style></defs><title>protection-sand-bag</title><path class="a" d="M7.5 17.5H3A2.25 2.25 0 0 0 3 22h4.5a2.25 2.25 0 0 0 0-4.5z"/><path class="a" d="M16.5 17.5H12a2.25 2.25 0 0 0 0 4.5h4.5a2.25 2.25 0 0 0 0-4.5zM12 13H7.5a2.25 2.25 0 0 0 0 4.5H12a2.25 2.25 0 0 0 0-4.5z"/><path class="a" d="M6.75 13.128V4.75a3 3 0 0 1 3-3h12a1.5 1.5 0 0 1 1.5 1.5v15"/><path class="a" d="M14.457 8.085a.748.748 0 0 1-.671.415H6.75v-3h7.786a.75.75 0 0 1 .671 1.085z"/></svg>