<svg xmlns="http://www.w3.org/2000/svg" viewBox="0 0 24 24" width="24" height="24"><defs><style>.a{fill:none;stroke:#000;stroke-linecap:round;stroke-linejoin:round;stroke-width:1.5px}</style></defs><title>protection-helmet-viking</title><path class="a" d="M14.757 8.628l.221.063a8.253 8.253 0 0 1 5.272 7.7v3.95a1.5 1.5 0 0 1-1.5 1.5H5.25a1.5 1.5 0 0 1-1.5-1.5v-3.95a8.254 8.254 0 0 1 5.311-7.715l.182-.048M3.75 17.337h16.5"/><path class="a" d="M10.5 17.337L9.013 7.035a1.5 1.5 0 0 1 1.487-1.7h3a1.5 1.5 0 0 1 1.487 1.7L13.5 17.337zm9.165-4.006a9.049 9.049 0 0 0 3.585-6.494 7.428 7.428 0 0 0-1.156-3.989.753.753 0 0 0-1.37.25 10.722 10.722 0 0 1-4.524 6.19M4.335 13.331A9.049 9.049 0 0 1 .75 6.837a7.428 7.428 0 0 1 1.156-3.989.752.752 0 0 1 1.369.25A10.728 10.728 0 0 0 7.8 9.288"/></svg>