<svg xmlns="http://www.w3.org/2000/svg" viewBox="0 0 24 24" width="24" height="24"><defs><style>.a{fill:none;stroke:#000;stroke-linecap:round;stroke-linejoin:round;stroke-width:1.5px}</style></defs><title>protection-shield</title><path class="a" d="M9.75 20.829a1.5 1.5 0 0 0 .919 1.383A15.063 15.063 0 0 0 16.5 23.25a15.063 15.063 0 0 0 5.831-1.038 1.5 1.5 0 0 0 .919-1.383V7.426a1.5 1.5 0 0 0-1.944-1.434 16.476 16.476 0 0 1-4.806.758 16.476 16.476 0 0 1-4.806-.758A1.5 1.5 0 0 0 9.75 7.426zm4.5-9.579h4.5m-5.25-7.5a3 3 0 0 1 6 0m-15.75 18a1.5 1.5 0 0 0 3 0v-15a1.5 1.5 0 0 0-3 0zm3-6h-6m3 3H6"/></svg>