<svg xmlns="http://www.w3.org/2000/svg" viewBox="0 0 24 24" width="24" height="24"><defs><style>.a{fill:none;stroke:#000;stroke-linecap:round;stroke-linejoin:round;stroke-width:1.5px}</style></defs><title>protection-castle-gate</title><path class="a" d="M23.259 20.25h-10.5a1.5 1.5 0 0 0-1.5 1.5v1.5m3-16.5h7.5v13.5h-7.5zm-1.5-6h10.5v5a1 1 0 0 1-1 1h-8.5a1 1 0 0 1-1-1v-5zm3 0v1.5m4.5-1.5v1.5M.75 21.653a3.013 3.013 0 0 0 .759.1 2.981 2.981 0 0 0 2.25-1.035 2.963 2.963 0 0 0 4.5 0"/><path class="a" d="M14.259 19.147l-12-5.647 1.277-2.714 10.727 5.048m-.004-9.084l-8.204 5.221"/></svg>