<svg xmlns="http://www.w3.org/2000/svg" viewBox="0 0 24 24" width="24" height="24"><defs><style>.a{fill:none;stroke:#000;stroke-linecap:round;stroke-linejoin:round;stroke-width:1.5px}</style></defs><title>protection-sand-bag-soldier-1</title><path class="a" d="M.75 23.25h.75a2.25 2.25 0 0 0 0-4.5H.75"/><path class="a" d="M10.5 18.75H6a2.25 2.25 0 0 0 0 4.5h4.5a2.25 2.25 0 0 0 0-4.5zm-3-4.5H3a2.25 2.25 0 0 0 0 4.5h4.5a2.25 2.25 0 0 0 0-4.5z"/><circle class="a" cx="18" cy="3.75" r="3"/><path class="a" d="M23.25 13.5a5.25 5.25 0 0 0-10.5 0v2.25H15l.75 7.5h4.5l.75-7.5h2.25z"/><path class="a" d="M14.283 9.793L9.69 6.786l.581-.887"/></svg>