<svg xmlns="http://www.w3.org/2000/svg" viewBox="0 0 24 24" width="24" height="24"><defs><style>.a{fill:none;stroke:#000;stroke-linecap:round;stroke-linejoin:round;stroke-width:1.5px}</style></defs><title>protection-shield-skull</title><path class="a" d="M17.25 9a5.25 5.25 0 1 0-7.5 4.745V15a.75.75 0 0 0 .75.75h3a.75.75 0 0 0 .75-.75v-1.255a5.251 5.251 0 0 0 3-4.745zm-7.125 0a.375.375 0 0 0-.375-.375m0 .75A.375.375 0 0 0 10.125 9m-.75 0a.375.375 0 0 0 .375.375m0-.75A.375.375 0 0 0 9.375 9m5.25 0a.375.375 0 0 0-.375-.375m0 .75A.375.375 0 0 0 14.625 9m-.75 0a.375.375 0 0 0 .375.375m0-.75a.375.375 0 0 0-.375.375"/><path class="a" d="M21.165 16.593l-8.25 6.346a1.5 1.5 0 0 1-1.83 0l-8.25-6.346A1.5 1.5 0 0 1 2.25 15.4V2.25a1.5 1.5 0 0 1 1.5-1.5h16.5a1.5 1.5 0 0 1 1.5 1.5V15.4a1.5 1.5 0 0 1-.585 1.193z"/></svg>