<svg xmlns="http://www.w3.org/2000/svg" viewBox="0 0 24 24" width="24" height="24"><defs><style>.a{fill:none;stroke:#000;stroke-linecap:round;stroke-linejoin:round;stroke-width:1.5px}</style></defs><title>protection-shield-star</title><path class="a" d="M2.25 3.923v7.614A11.907 11.907 0 0 0 9.882 22.65l1.041.4a3 3 0 0 0 2.154 0l1.041-.4a11.907 11.907 0 0 0 7.632-11.113V3.923a1.487 1.487 0 0 0-.868-1.362A21.7 21.7 0 0 0 12 .75a21.7 21.7 0 0 0-8.882 1.811 1.487 1.487 0 0 0-.868 1.362z"/><path class="a" d="M11.564 6.494a.488.488 0 0 1 .872 0l1.012 2.041a.485.485 0 0 0 .366.263l2.272.329a.482.482 0 0 1 .39.324.473.473 0 0 1-.121.489l-1.65 1.6a.473.473 0 0 0-.138.42l.389 2.256a.474.474 0 0 1-.194.467.491.491 0 0 1-.511.035l-2.024-1.058a.492.492 0 0 0-.454 0l-2.024 1.059a.491.491 0 0 1-.511-.035.474.474 0 0 1-.194-.467l.389-2.256a.473.473 0 0 0-.138-.42l-1.65-1.6a.473.473 0 0 1-.121-.489.483.483 0 0 1 .39-.324l2.273-.328a.485.485 0 0 0 .365-.263z"/></svg>