<svg xmlns="http://www.w3.org/2000/svg" viewBox="0 0 24 24" width="24" height="24"><defs><style>.a{fill:none;stroke:#000;stroke-linecap:round;stroke-linejoin:round;stroke-width:1.5px}</style></defs><title>protection-shield-3</title><path class="a" d="M12 .75v22.5m9-12H3m4.5 0V1.244m9 20.116V11.25M3 3.923v7.614c0 4.927 2.284 9.344 6.882 11.113l1.041.4a3 3 0 0 0 2.154 0l1.041-.4C18.716 20.881 21 16.464 21 11.537V3.923a1.487 1.487 0 0 0-.868-1.362A17.55 17.55 0 0 0 12 .75a17.55 17.55 0 0 0-8.132 1.811A1.487 1.487 0 0 0 3 3.923z"/></svg>