<svg xmlns="http://www.w3.org/2000/svg" viewBox="0 0 24 24" width="24" height="24"><defs><style>.a{fill:none;stroke:#000;stroke-linecap:round;stroke-linejoin:round;stroke-width:1.5px}</style></defs><title>protection-shield-bolt</title><path class="a" d="M10.293 5.665a.75.75 0 0 1 .671-.415h2.822a.75.75 0 0 1 .671 1.085L12.75 9.75h2.066a.75.75 0 0 1 .557 1.25l-4.824 5.36a.375.375 0 0 1-.651-.3l.6-4.815H8.714a.75.75 0 0 1-.671-1.085z"/><path class="a" d="M2.25 3.923v7.614A11.907 11.907 0 0 0 9.882 22.65l1.041.4a3 3 0 0 0 2.154 0l1.041-.4a11.907 11.907 0 0 0 7.632-11.113V3.923a1.487 1.487 0 0 0-.868-1.362A21.7 21.7 0 0 0 12 .75a21.7 21.7 0 0 0-8.882 1.811 1.487 1.487 0 0 0-.868 1.362z"/></svg>