<svg xmlns="http://www.w3.org/2000/svg" viewBox="0 0 24 24" width="24" height="24"><defs><style>.a{fill:none;stroke:#000;stroke-linecap:round;stroke-linejoin:round;stroke-width:1.5px}</style></defs><title>protection-vest</title><path class="a" d="M19.772 3.779l.307-2.279-4.848-.75H8.764l-4.841.75.307 2.281A6.261 6.261 0 0 1 1.5 9.749l2.2 12.266a1.5 1.5 0 0 0 1.478 1.235h13.644a1.5 1.5 0 0 0 1.478-1.235L22.5 9.75a6.26 6.26 0 0 1-2.728-5.971z"/><path class="a" d="M2.038 12.75H8.25a1.5 1.5 0 0 1 1.5 1.5v3a1.5 1.5 0 0 1-1.5 1.5H3.115m18.847-6H15.75a1.5 1.5 0 0 0-1.5 1.5v3a1.5 1.5 0 0 0 1.5 1.5h5.135M9 .75v.823a8.344 8.344 0 0 0 1.829 5.213 1.5 1.5 0 0 0 2.342 0A8.344 8.344 0 0 0 15 1.573V.75"/></svg>