<svg xmlns="http://www.w3.org/2000/svg" viewBox="0 0 24 24" width="24" height="24"><defs><style>.a{fill:none;stroke:#000;stroke-linecap:round;stroke-linejoin:round;stroke-width:1.5px}</style></defs><title>protection-shield-knight</title><path class="a" d="M2.25 3.923v7.614A11.907 11.907 0 0 0 9.882 22.65l1.041.4a3 3 0 0 0 2.154 0l1.041-.4a11.907 11.907 0 0 0 7.632-11.113V3.923a1.487 1.487 0 0 0-.868-1.362A21.7 21.7 0 0 0 12 .75a21.7 21.7 0 0 0-8.882 1.811 1.487 1.487 0 0 0-.868 1.362z"/><path class="a" d="M17.25 8.608a.751.751 0 0 0-1.029-.7L13.5 9l1.089-2.721a.751.751 0 0 0-.7-1.029h-3.781a.751.751 0 0 0-.7 1.029L10.5 9 7.779 7.911a.751.751 0 0 0-1.029.7v3.784a.751.751 0 0 0 1.029.7L10.5 12l-1.089 2.721a.751.751 0 0 0 .7 1.029h3.784a.751.751 0 0 0 .7-1.029L13.5 12l2.721 1.089a.751.751 0 0 0 1.029-.7z"/></svg>