<svg xmlns="http://www.w3.org/2000/svg" viewBox="0 0 24 24" width="24" height="24"><defs><style>.a{fill:none;stroke:#000;stroke-linecap:round;stroke-linejoin:round;stroke-width:1.5px}</style></defs><title>protection-mask-1</title><path class="a" d="M7.091 19.864C4.357 17.616 1.5 14.491 1.5 11.25 1.5 5.037 5.309.75 12 .75s10.5 4.287 10.5 10.5c0 3.241-2.857 6.366-5.591 8.614"/><circle class="a" cx="12" cy="18" r="5.25"/><path class="a" d="M12.265 15.083a.375.375 0 0 1 0 .531m-.53-.531a.375.375 0 0 1 .53 0m-.53.531a.375.375 0 0 1 0-.531m.53.531a.375.375 0 0 1-.53 0m3.182 2.121a.375.375 0 0 1 0 .53m-.531-.53a.375.375 0 0 1 .531 0m-.531.53a.375.375 0 0 1 0-.53m.531.53a.375.375 0 0 1-.531 0m-4.772-.53a.375.375 0 0 1 0 .53m-.531-.53a.375.375 0 0 1 .531 0m-.531.53a.375.375 0 0 1 0-.53m.531.53a.375.375 0 0 1-.531 0m3.182 2.121a.375.375 0 0 1 0 .531m-.53-.531a.375.375 0 0 1 .53 0m-.53.531a.375.375 0 0 1 0-.531m.53.531a.375.375 0 0 1-.53 0"/><circle class="a" cx="16.125" cy="7.875" r="2.625"/><circle class="a" cx="7.875" cy="7.875" r="2.625"/></svg>