<svg xmlns="http://www.w3.org/2000/svg" viewBox="0 0 24 24" width="24" height="24"><defs><style>.a{fill:none;stroke:#000;stroke-linecap:round;stroke-linejoin:round;stroke-width:1.5px}</style></defs><title>public-service-police-van</title><circle class="a" cx="18.75" cy="20.213" r="1.5"/><circle class="a" cx="5.25" cy="20.213" r="1.5"/><path class="a" d="M20.25 20.213h1.5a1.5 1.5 0 0 0 1.5-1.5v-3.269a1.5 1.5 0 0 0-.279-.872l-3.022-4.231a1.5 1.5 0 0 0-1.221-.628H14.25m0 10.5v-13.5a1.5 1.5 0 0 0-1.5-1.5H2.25a1.5 1.5 0 0 0-1.5 1.5v12a1.5 1.5 0 0 0 1.5 1.5h1.5m13.5 0H6.75m4.5-18a1.5 1.5 0 0 1 1.5 1.5v1.5h-3v-1.5a1.5 1.5 0 0 1 1.5-1.5z"/><path class="a" d="M3.75 11.004l2.468-.375L7.5 8.213l1.282 2.416 2.468.375-1.945 1.931.569 2.584L7.5 14.17l-2.374 1.349.569-2.584-1.945-1.931zm18.964 3.209H14.25"/></svg>