<svg xmlns="http://www.w3.org/2000/svg" viewBox="0 0 24 24" width="24" height="24"><defs><style>.a{fill:none;stroke:#000;stroke-linecap:round;stroke-linejoin:round;stroke-width:1.5px}</style></defs><title>public-service-ambulance</title><path class="a" d="M3.75 20.263v1.5a1.5 1.5 0 0 0 3 0v-1.5m13.5 0v1.5a1.5 1.5 0 1 1-3 0v-1.5m-15-6h19.5v5a1 1 0 0 1-1 1H3.25a1 1 0 0 1-1-1v-5zm0 3h3m13.5 0h3"/><path class="a" d="M8.25 17.263h7.5v3h-7.5zm-5-13.5h17.5a1 1 0 0 1 1 1v9.5H2.25v-9.5a1 1 0 0 1 1-1zm12.342-2.171A1.5 1.5 0 0 0 14.25.763h-4.5a1.5 1.5 0 0 0-1.342.829L7.323 3.763h9.354z"/><path class="a" d="M4.5 14.263c.558-4.2.292-7.5 3.531-7.5h7.938c3.475 0 3.068 4.013 3.531 7.5"/></svg>