<svg xmlns="http://www.w3.org/2000/svg" viewBox="0 0 24 24" width="24" height="24"><defs><style>.a{fill:none;stroke:#000;stroke-linecap:round;stroke-linejoin:round;stroke-width:1.5px}</style></defs><title>public-service-firefighter-truck-1</title><circle class="a" cx="18.75" cy="21.713" r="1.5"/><circle class="a" cx="5.25" cy="21.713" r="1.5"/><path class="a" d="M20.25 21.713h1.5a1.5 1.5 0 0 0 1.5-1.5v-3.269a1.5 1.5 0 0 0-.279-.872l-3.022-4.231a1.5 1.5 0 0 0-1.221-.628H15.75a1.5 1.5 0 0 0-1.5 1.5v9m9-4.5h-9m-3 4.5v-9a1.5 1.5 0 0 0-1.5-1.5h-7.5a1.5 1.5 0 0 0-1.5 1.5v7.5a1.5 1.5 0 0 0 1.5 1.5h1.5m13.5 0H6.75m7.5-7.5h-3m-9-3l21-10.45"/></svg>