<svg xmlns="http://www.w3.org/2000/svg" viewBox="0 0 24 24" width="24" height="24"><defs><style>.a{fill:none;stroke:#000;stroke-linecap:round;stroke-linejoin:round;stroke-width:1.5px}</style></defs><title>public-service-ambulance-1</title><path class="a" d="M5.25 20.25v1.5a1.5 1.5 0 0 0 3 0v-1.5m10.5 0v1.5a1.5 1.5 0 0 1-3 0v-1.5m-12.001-3H2.25a1.5 1.5 0 0 1-1.5-1.5V2.25a1.5 1.5 0 0 1 1.5-1.5h19.5a1.5 1.5 0 0 1 1.5 1.5v13.5a1.5 1.5 0 0 1-1.5 1.5h-1.5m-4.5 0h1.5m-10.5 0h1.5m-4.5-13.5h1.5m13.5 0h1.5m-12 0h7.5m-12 10.5h16.5"/><path class="a" d="M18.321 7.819a1.5 1.5 0 0 0-1.437-1.069H7.116a1.5 1.5 0 0 0-1.437 1.069L3.75 14.25v4.5a1.5 1.5 0 0 0 1.5 1.5h13.5a1.5 1.5 0 0 0 1.5-1.5v-4.5z"/></svg>