<svg xmlns="http://www.w3.org/2000/svg" viewBox="0 0 24 24" width="24" height="24"><defs><style>.a{fill:none;stroke:#000;stroke-linecap:round;stroke-linejoin:round;stroke-width:1.5px}</style></defs><title>public-service-police</title><path class="a" d="M21.75 20.263a1.5 1.5 0 0 0 1.5-1.5v-2.251a1.809 1.809 0 0 0-.53-1.279l-2.47-2.47H3.75l-2.47 2.47a1.809 1.809 0 0 0-.53 1.279v2.251a1.5 1.5 0 0 0 1.5 1.5z"/><path class="a" d="M.913 15.763h2.925a3 3 0 0 1 2.846 2.051l.816 2.449m15.588-4.5h-2.926a3 3 0 0 0-2.846 2.051l-.816 2.449m-12.75-7.5l1.723-4.6a2.166 2.166 0 0 1 2.027-1.4h9a2.166 2.166 0 0 1 2.027 1.4l1.723 4.6zm0 0L2.689 11.7a1.5 1.5 0 0 0-1.06-.439H.75m19.5 1.502l1.061-1.063a1.5 1.5 0 0 1 1.06-.439h.879m-21 9.002v1.5a1.5 1.5 0 0 0 3 0v-1.5zm19.5 0v1.5a1.5 1.5 0 1 1-3 0v-1.5zm-12-3h4.5"/><path class="a" d="M17.25 5.263a1.5 1.5 0 0 1-1.5 1.5h-7.5a1.5 1.5 0 0 1 0-3h7.5a1.5 1.5 0 0 1 1.5 1.5zM12 3.763v3m-7.5-6l1.5 1.5m-4.234 1.5l1.984.75m18.484-.75l-1.984.75M19.5.763l-1.5 1.5"/></svg>