<svg id="Regular" xmlns="http://www.w3.org/2000/svg" viewBox="0 0 24 24" width="24" height="24"><defs><style>.cls-1,.cls-2{fill:none;stroke:#000;stroke-linecap:round;stroke-linejoin:round;stroke-width:1.5px}.cls-2{fill-rule:evenodd}</style></defs><title>pufferfish</title><path class="cls-1" d="M16.5 5.242c.929-.405.75-.886.75-1.5 0-1.019-1.582-1.88-3.751-2.157A11.992 11.992 0 0 0 12 1.492a11.816 11.816 0 0 0-1.5.094c-2.169.276-3.75 1.137-3.75 2.156 0 .614-.179 1.095.75 1.5C4.4 6.664 3 9.86 3 13.492a9 9 0 0 0 18 0c0-3.632-1.4-6.828-4.5-8.25zm-15.75 7.5H3m18 0h2.25m-13.125-9a.375.375 0 0 1 .375.375m-.75 0a.375.375 0 0 1 .375-.375m0 .75a.375.375 0 0 1-.375-.375m.75 0a.375.375 0 0 1-.375.375m3.75-.75a.375.375 0 0 1 .375.375m-.75 0a.375.375 0 0 1 .375-.375m0 .75a.375.375 0 0 1-.375-.375m.75 0a.375.375 0 0 1-.375.375m-2.625 3h1.5"/><path class="cls-2" d="M3 12.742a23.273 23.273 0 0 1 9-2.25 23.273 23.273 0 0 1 9 2.25m-2.625-6.25C20.8 3.261 22.052 4.57 22.5 5.242c.393.59.825 2.218-2.349 3.8M5.625 6.492C3.2 3.261 1.948 4.57 1.5 5.242c-.393.59-.825 2.218 2.349 3.8"/></svg>