<svg xmlns="http://www.w3.org/2000/svg" viewBox="0 0 24 24" width="24" height="24"><defs><style>.a{fill:none;stroke:#000;stroke-linecap:round;stroke-linejoin:round;stroke-width:1.5px}</style></defs><title>punishment-prisoner-bars</title><rect class="a" x=".75" y=".75" width="22.5" height="22.5" rx="1" ry="1"/><circle class="a" cx="12" cy="7.5" r="3.75"/><path class="a" d="M8.25.75V16.5M15.75.75V16.5M3.75.75v22.5M20.25.75v22.5m-4.5-4.5a2.25 2.25 0 0 0 0 4.5h.75a3.75 3.75 0 0 0 3.75-3.75v-.75a4.5 4.5 0 0 0-4.5-4.5h-7.5a4.5 4.5 0 0 0-4.5 4.5v.75a3.75 3.75 0 0 0 3.75 3.75h.75a2.25 2.25 0 0 0 0-4.5"/></svg>