<svg xmlns="http://www.w3.org/2000/svg" viewBox="0 0 24 24" width="24" height="24"><defs><style>.a{fill:none;stroke:#000;stroke-linecap:round;stroke-linejoin:round;stroke-width:1.5px}</style></defs><title>qr-code-scan</title><path class="a" d="M5.25 5.25h3v3h-3zm0 10.5h3v3h-3zm10.5-10.5h3v3h-3zm-10.5 7.5h6v1.5m3 0v4.5h4.5v-4.5h-1.5m-6 3v1.5m0-13.5v4.5h1.5m3 1.5h3M.75 6V2.25a1.5 1.5 0 0 1 1.5-1.5H6m12 0h3.75a1.5 1.5 0 0 1 1.5 1.5V6m0 12v3.75a1.5 1.5 0 0 1-1.5 1.5H18m-12 0H2.25a1.5 1.5 0 0 1-1.5-1.5V18"/></svg>