<svg xmlns="http://www.w3.org/2000/svg" viewBox="0 0 24 24" width="24" height="24"><path fill="none" stroke="#000" stroke-linejoin="round" stroke-miterlimit="10" d="M22.5 11.5c0-2.209-.791-4-4-4v12h4v-8zm0 8l1 4h-5l1-4zm-9 0l1 4h-5l1-4zm-12-8c0-2.209 1-4 4-4v12h-4v-8zm0 8l-1 4h5l-1-4zM5 7.5h14m-12 2h10m-10 2h10m-7.5 2h3v4h-3z"/><path fill="none" stroke="#000" stroke-linejoin="round" stroke-miterlimit="10" d="M5.5 7a6.5 6.5 0 1113 0v12.5h-13V7zm10 7v4"/><circle fill="none" stroke="#000" stroke-linejoin="round" stroke-miterlimit="10" cx="12" cy="4" r="1.5"/><path d="M15.5 5a.5.5 0 10.002 1.002A.5.5 0 0015.5 5z"/><path fill="none" d="M0 0h24v24H0z"/></svg>