<svg id="Regular" xmlns="http://www.w3.org/2000/svg" viewBox="0 0 24 24" width="24" height="24"><defs><style>.cls-1{fill:none;stroke:#000;stroke-linecap:round;stroke-linejoin:round;stroke-width:1.5px}</style></defs><title>rabbit</title><path class="cls-1" d="M7.773 11.038a7.572 7.572 0 0 1 1.3-.694 7.489 7.489 0 0 1 7.037.694m-5.67 7.737h3m-4.875-4.5a.375.375 0 0 1 .375.375m-.75 0a.375.375 0 0 1 .375-.375m0 .75a.375.375 0 0 1-.375-.375m.75 0a.375.375 0 0 1-.375.375m6.75-.75a.375.375 0 0 1 .375.375m-.75 0a.375.375 0 0 1 .375-.375m0 .75a.375.375 0 0 1-.375-.375m.75 0a.375.375 0 0 1-.375.375"/><path class="cls-1" d="M13.44 9.928V3.775a3 3 0 1 1 6 0v15.75a3.75 3.75 0 0 1-7.5 0 3.75 3.75 0 0 1-7.5 0V3.775a3 3 0 1 1 6 0v6.153m1.5 9.597v-.75"/></svg>