<svg id="Regular" xmlns="http://www.w3.org/2000/svg" viewBox="0 0 24 24" width="24" height="24"><defs><style>.cls-1{fill:none;stroke:#000;stroke-linecap:round;stroke-linejoin:round;stroke-width:1.5px}</style></defs><title>rabbit-2</title><path class="cls-1" d="M10.471 17.096l1.539.769 1.538-.769M9.51 13.26a.375.375 0 0 1 .375.375m-.75 0a.375.375 0 0 1 .375-.375m0 .75a.375.375 0 0 1-.375-.375m.75 0a.375.375 0 0 1-.375.375m5.39-.75a.375.375 0 0 1 .375.375m-.755 0a.374.374 0 0 1 .375-.375m.005.75a.374.374 0 0 1-.375-.375m.745 0a.375.375 0 0 1-.375.375M12.01 7.865a7.9 7.9 0 0 0-2.91.554l-.025.011C8.786 4.466 7.2.75 2.816.75 1.33.75.76 1.225.76 1.959c0 1.849 2.863 5.241 4.584 6.894"/><path class="cls-1" d="M17.731 11.753a4.794 4.794 0 0 1 .24 1.5v1.556a3.835 3.835 0 0 1-2.307 6.906 3.687 3.687 0 0 1-3.654-3.847 3.687 3.687 0 0 1-3.654 3.847 3.835 3.835 0 0 1-2.308-6.906V13.25a4.765 4.765 0 0 1 .241-1.5"/><path class="cls-1" d="M14.922 21.639l-.027.073a2.872 2.872 0 0 1-2.885 1.538 2.872 2.872 0 0 1-2.885-1.538l-.025-.073m2.91-13.774a7.9 7.9 0 0 1 2.91.554l.025.011C15.234 4.466 16.819.75 21.2.75c1.486 0 2.056.475 2.056 1.209 0 1.849-2.863 5.244-4.585 6.894"/></svg>