<svg id="Regular" xmlns="http://www.w3.org/2000/svg" viewBox="0 0 24 24" width="24" height="24"><defs><style>.cls-1{fill:none;stroke:#000;stroke-linecap:round;stroke-linejoin:round;stroke-width:1.5px}</style></defs><title>rabbit-side</title><path class="cls-1" d="M14.25 23.25c3.314 0 5.25-2.686 5.25-6a5.9 5.9 0 0 0-.229-1.553 4.484 4.484 0 0 0 3.979-4.447c0-3.75-2.25-4.5-7.5-7.5S8.25 0 7.5 1.5s.75 3 3.75 4.5l4.265 2.132a4.479 4.479 0 0 0-1.265 3.118c0 .026.007.05.008.076a5.915 5.915 0 0 0-.758-.076H6.75a6 6 0 0 0 0 12h3.75m-5.25-6c3 0 4.5 3 3 6m6 0h4.5m1.125-12.75a.375.375 0 0 1 .375.375m-.75 0a.375.375 0 0 1 .375-.375m0 .75a.375.375 0 0 1-.375-.375m.75 0a.375.375 0 0 1-.375.375"/></svg>