<svg id="Regular" xmlns="http://www.w3.org/2000/svg" viewBox="0 0 24 24" width="24" height="24"><defs><style>.cls-1{fill:none;stroke:#000;stroke-linecap:round;stroke-linejoin:round;stroke-width:1.5px}</style></defs><title>rabbit-body</title><path class="cls-1" d="M15.5 17.39c0-.035.007-.068.007-.1a7.222 7.222 0 0 0-1.77-5.046 3.615 3.615 0 0 0 1.608-4.18c1.646-4.812 1.71-6.4.162-7.173s-2.3 1.653-2.245 4.79a3.727 3.727 0 0 0-3.013 0v-.008C10.311 2.537 9.562.117 8.01.888s-1.484 2.361.162 7.173a3.615 3.615 0 0 0 1.608 4.18 7.218 7.218 0 0 0-1.77 5.046c0 .035.006.068.007.1a2.974 2.974 0 0 0 .743 5.86h6a2.974 2.974 0 0 0 .743-5.86zm-5.24 2.878l.75 2.982m2.25-2.982l-.75 2.982M11.385 9.833h.75M5.01 23.25h13.5"/></svg>