<svg id="Regular" xmlns="http://www.w3.org/2000/svg" viewBox="0 0 24 24" width="24" height="24"><defs><style>.cls-1{fill:none;stroke:#000;stroke-linecap:round;stroke-linejoin:round;stroke-width:1.5px}</style></defs><title>rabbit-1</title><path class="cls-1" d="M18.169 13.5c0-2.9-2.686-5.25-6-5.25s-6 2.351-6 5.25v1.517a3.744 3.744 0 1 0 6 2.983 3.75 3.75 0 1 0 6-2.983z"/><path class="cls-1" d="M10.669 17.25l1.5.75 1.5-.75M9.544 13.5a.375.375 0 0 1 .375.375m-.75 0a.375.375 0 0 1 .375-.375m0 .75a.375.375 0 0 1-.375-.375m.75 0a.375.375 0 0 1-.375.375m5.25-.75a.375.375 0 0 1 .375.375m-.75 0a.375.375 0 0 1 .375-.375m0 .75a.375.375 0 0 1-.375-.375m.75 0a.375.375 0 0 1-.375.375m-5.659 7.432l.034.068a3.25 3.25 0 0 0 3 1.5 3.25 3.25 0 0 0 3-1.5l.034-.068M13.65 8.411l.019-.161s.811-6.76 5.25-7.5c4.5-.75 4.5 4.5 1.5 4.5-2.25 0-4.5 3.75-4.5 3.75l-.171.286m-5.06-.875l-.019-.161s-.811-6.76-5.25-7.5c-4.5-.75-4.5 4.5-1.5 4.5 2.25 0 4.5 3.75 4.5 3.75l.172.286"/></svg>