<svg id="Regular" xmlns="http://www.w3.org/2000/svg" viewBox="0 0 24 24" width="24" height="24"><defs><style>.cls-1{fill:none;stroke:#000;stroke-linecap:round;stroke-linejoin:round;stroke-width:1.5px}</style></defs><title>raccoon-1</title><path class="cls-1" d="M14.251 15.75S12 15 12.751 8.25c-5.25 0-9 0-9-3.75 3 0 3-3.75 8.25-3.75A11.25 11.25 0 1 1 .751 12C7.5 12 7.824 14.735 9 16.5a6.049 6.049 0 0 0 6.75 2.25 5.082 5.082 0 0 0 3.75-5.25m-10.499 3L5.76 21.362m6.422-2.586l-1.109 4.436m4.451-4.392l1.14 3.421M10.126 3.75a.375.375 0 0 1 .375.375m-.75 0a.375.375 0 0 1 .375-.375m0 .75a.375.375 0 0 1-.375-.375m.749 0a.375.375 0 0 1-.375.375m4.126 0s2.479 2.48 4.836-1.238"/></svg>