<svg id="Regular" xmlns="http://www.w3.org/2000/svg" viewBox="0 0 24 24" width="24" height="24"><defs><style>.cls-1{fill:none;stroke:#000;stroke-linecap:round;stroke-linejoin:round;stroke-width:1.5px}</style></defs><title>raccoon</title><path class="cls-1" d="M11.279 9.439A8.255 8.255 0 0 0 .751 17.37v5.88m22.5-7.38a6 6 0 0 0-12 0h.587a3 3 0 0 1 2.544 1.41l1.6 1.635a1.5 1.5 0 0 0 2.544 0l1.6-1.635a3 3 0 0 1 2.544-1.41zm-22.5 4.5a4.323 4.323 0 0 0 4.5-4.5"/><path class="cls-1" d="M4.309 18.743l.192.127a11.541 11.541 0 0 0 6 1.5c3.75 0 5.478-1.455 5.478-1.455m-3.228 1.264v3.071m2.625-9.63a.375.375 0 0 1 .375.375M15 14a.375.375 0 0 1 .375-.375m.001.745A.375.375 0 0 1 15 14m.751 0a.375.375 0 0 1-.375.375m3.75-.755a.375.375 0 0 1 .374.38m-.749 0a.375.375 0 0 1 .375-.375m0 .745a.375.375 0 0 1-.375-.37m.749 0a.375.375 0 0 1-.375.375m-.419-4.327l.045-.178s.75-3 3-2.25c2.776.926.984 5.278.261 4.6M15.8 10.048l-.044-.178s-.75-3-3-2.25c-2.777.926-.985 5.278-.262 4.6m-10.024.109L2.251 12a11.541 11.541 0 0 1-1.5-6A5.092 5.092 0 0 1 6 .75c2.25 0 4.5 0 4.5 2.25 0 3-3.75 2.25-5.25 3-2.418 1.209-.75 3.75-.75 3.75l.329.5M.771 6.755l3.202.8M2.236 2.232L5.251 6m1.5-5.25l.794 4.766"/></svg>