<svg xmlns="http://www.w3.org/2000/svg" viewBox="0 0 24 24" width="24" height="24"><g fill="none" stroke="#000" stroke-linejoin="round" stroke-miterlimit="10"><circle cx="12.094" cy="12" r="11.5"/><circle cx="12.094" cy="12" r="8"/><circle cx="12.094" cy="12" r="4.5"/><path stroke-linecap="round" d="M12.094 12l6.984-6.984"/><circle stroke-linecap="round" cx="12" cy="16.5" r=".5"/><circle stroke-linecap="round" cx="20" cy="10.5" r=".5"/><circle stroke-linecap="round" cx="5" cy="5.5" r=".5"/><circle stroke-linecap="round" cx="17" cy="20.5" r=".5"/><circle stroke-linecap="round" cx="5" cy="15.5" r=".5"/><circle cx="12.094" cy="12" r="11.5"/><circle cx="12.094" cy="12" r="8"/><circle cx="12.094" cy="12" r="4.5"/><path stroke-linecap="round" d="M12.094 12l6.984-6.984"/><circle stroke-linecap="round" cx="12" cy="16.5" r=".5"/><circle stroke-linecap="round" cx="20" cy="10.5" r=".5"/><circle stroke-linecap="round" cx="5" cy="5.5" r=".5"/><circle stroke-linecap="round" cx="17" cy="20.5" r=".5"/><circle stroke-linecap="round" cx="5" cy="15.5" r=".5"/></g><path fill="none" d="M0 0h24v24H0z"/></svg>