<svg xmlns="http://www.w3.org/2000/svg" viewBox="0 0 24 24" width="24" height="24"><g fill="none" stroke="#000" stroke-linejoin="round" stroke-miterlimit="10"><path stroke-linecap="round" d="M7.5 11.5h8v4h-8zm4 0v-3m-5-7h10v7h-10zm3 0v7m4-7v7m5.518-6.239a8.01 8.01 0 01-.008 5.502M20.992.505A10.453 10.453 0 0122 5c0 1.573-.346 3.065-.967 4.405M3.99 2.261A8.015 8.015 0 003.51 5c0 .971.174 1.901.49 2.763M2.018.505A10.453 10.453 0 001.01 5c0 1.573.346 3.065.967 4.405"/><path d="M4.5 15.5h14l2 8h-18z"/><path stroke-linecap="round" d="M9.5 18.5h4v5h-4z"/></g><path fill="none" d="M0 0h24v24H0z"/></svg>