<svg xmlns="http://www.w3.org/2000/svg" viewBox="0 0 24 24" width="24" height="24"><g fill="none" stroke="#000" stroke-linejoin="round" stroke-miterlimit="10"><path stroke-linecap="round" d="M18.5 11.5c0 4.418-7 7.5-7 7.5s-7-3.082-7-7.5 5.5-4 7-4 7-.418 7 4zm-7-4v-6"/><path d="M11.5 7.318c3.524.772 6.692-1.142 7.467-4.668-3.525-.772-6.694 1.143-7.467 4.668zm0 0c-3.524.773-6.692-1.141-7.467-4.668 3.525-.772 6.694 1.143 7.467 4.668z"/><path stroke-linecap="round" d="M10.513 18.525c1.238 2.132-2.271 1.816-1.058 3.902m3.032-3.902c-1.238 2.132 2.271 1.816 1.058 3.902M11.5 19v4.5"/></g><path fill="none" d="M0 0h24v24H0z"/></svg>