<svg xmlns="http://www.w3.org/2000/svg" viewBox="0 0 24 24" width="24" height="24"><defs><style>.a{fill:none;stroke:#000;stroke-linecap:round;stroke-linejoin:round;stroke-width:1.5px}</style></defs><title>radio-retro</title><rect class="a" x=".75" y="6.75" width="22.5" height="15" rx="1.5" ry="1.5"/><path class="a" d="M3.75 21.75v1.5m16.5-1.5v1.5m-1.5-9H5.25a1.406 1.406 0 0 1-1.5-1.286v-1.928a1.406 1.406 0 0 1 1.5-1.286h13.5a1.406 1.406 0 0 1 1.5 1.286v1.928a1.406 1.406 0 0 1-1.5 1.286zm-10.5 4.5h7.5m0-4.5v-4.5m-10.5-9v.75M1.5 3.75h.75m6 0H9m-3.75 0v3M4.125 18a.375.375 0 1 1-.375.375.375.375 0 0 1 .375-.375m15.75 0a.375.375 0 1 1-.375.375.375.375 0 0 1 .375-.375"/></svg>