<svg xmlns="http://www.w3.org/2000/svg" viewBox="0 0 24 24" width="24" height="24"><defs><style>.a{fill:none;stroke:#000;stroke-linecap:round;stroke-linejoin:round;stroke-width:1.5px}</style></defs><title>radio-stereo-1</title><path class="a" d="M10.492 14.25h3"/><circle class="a" cx="17.992" cy="17.25" r="2.25"/><circle class="a" cx="5.992" cy="17.25" r="2.25"/><path class="a" d="M7.492 11.25L8 8.706A1.5 1.5 0 0 1 9.472 7.5h5.04a1.5 1.5 0 0 1 1.471 1.206l.509 2.544m-12.75-4.5a3 3 0 0 1 3-3m-6 3a6 6 0 0 1 6-6m13.5 6a3 3 0 0 0-3-3m6 3a6 6 0 0 0-6-6"/><rect class="a" x=".742" y="11.25" width="22.5" height="12" rx="4" ry="4"/><path class="a" d="M8.242 23.25l1.5-3h4.5l1.5 3"/></svg>