<svg xmlns="http://www.w3.org/2000/svg" viewBox="0 0 24 24" width="24" height="24"><defs><style>.a{fill:none;stroke:#000;stroke-linecap:round;stroke-linejoin:round;stroke-width:1.5px}</style></defs><title>radioactive</title><circle class="a" cx="12.025" cy="11" r="1.5"/><path class="a" d="M17.95 1.04a.753.753 0 0 0-1.068.248l-2.8 4.848a.75.75 0 0 0 .262 1.017 4.492 4.492 0 0 1 2.134 3.205.749.749 0 0 0 .742.642h5.28a.748.748 0 0 0 .748-.8 11.98 11.98 0 0 0-5.298-9.16zM9.7 7.153a.749.749 0 0 0 .262-1.017l-2.8-4.848A.75.75 0 0 0 6.1 1.04 11.983 11.983 0 0 0 .8 10.2a.751.751 0 0 0 .748.8h5.28a.749.749 0 0 0 .742-.642A4.5 4.5 0 0 1 9.7 7.153zm4.565 7.728a4.364 4.364 0 0 1-4.481 0l-3.367 5.833a.751.751 0 0 0 .316 1.048 11.928 11.928 0 0 0 10.583 0 .749.749 0 0 0 .317-1.048z"/></svg>