<svg id="Regular" xmlns="http://www.w3.org/2000/svg" viewBox="0 0 24 24" width="24" height="24"><defs><style>.cls-1{fill:none;stroke:#000;stroke-linecap:round;stroke-linejoin:round;stroke-width:1.5px}</style></defs><title>radiology-scan-mri</title><path class="cls-1" d="M23.25 23.25V3.75a1.5 1.5 0 0 0-1.5-1.5h-4.134a11.263 11.263 0 0 0-11.232 0H2.25a1.5 1.5 0 0 0-1.5 1.5v19.5"/><path class="cls-1" d="M15.365 15.223a1.5 1.5 0 0 0-1.4-.973h-3.926a1.5 1.5 0 0 0-1.4.973L6.75 20.25h10.5zM6.75 20.25v1.5a1.5 1.5 0 0 0 1.5 1.5h7.5a1.5 1.5 0 0 0 1.5-1.5v-1.5M3.75 4.875a.375.375 0 0 1 .375.375m-.75 0a.375.375 0 0 1 .375-.375m0 .75a.375.375 0 0 1-.375-.375m.75 0a.375.375 0 0 1-.375.375m16.5-.75a.375.375 0 0 1 .375.375m-.75 0a.375.375 0 0 1 .375-.375m0 .75a.375.375 0 0 1-.375-.375m.75 0a.375.375 0 0 1-.375.375M7.5 12a4.5 4.5 0 0 1 9 0m2.375 3a7.5 7.5 0 1 0-13.75 0"/></svg>