<svg xmlns="http://www.w3.org/2000/svg" viewBox="0 0 24 24" width="24" height="24"><g fill="none" stroke="#000" stroke-linecap="round" stroke-linejoin="round" stroke-miterlimit="10"><path d="M3.5 3.5h16v20h-16zm4-3h8v3h-8zM1 3.5h22"/><path d="M13.923 13.5l3.633-.002c-.002-2.369-1.375-4.398-3.359-5.394l-1.619 3.237a2.42 2.42 0 011.345 2.159zm-.974 1.889a2.38 2.38 0 01-2.9 0l-2.174 2.895c2.181 1.644 5.066 1.646 7.25 0l-2.176-2.895zm-2.53-4.047L8.802 8.104c-1.984.996-3.359 3.025-3.359 5.394l3.633.002a2.42 2.42 0 011.343-2.158zM12 13.516c0 .275-.225.5-.5.5h0a.5.5 0 01-.5-.5h0c0-.277.223-.5.5-.5h0a.5.5 0 01.5.5h0z"/></g><path fill="none" d="M0 0h24v24H0z"/></svg>