<svg id="Regular" xmlns="http://www.w3.org/2000/svg" viewBox="0 0 24 24" width="24" height="24"><defs><style>.cls-1{fill:none;stroke:#000;stroke-linecap:round;stroke-linejoin:round;stroke-width:1.5px}</style></defs><title>radiology-scan-hand</title><path class="cls-1" d="M16.5 14.25L14.827 13a1.569 1.569 0 0 0-2.247.385 1.569 1.569 0 0 0 0 1.74l1.645 2.467a4.5 4.5 0 0 0 2.075 1.677l2.452.981v2.25M15.75 9c5.108 2.189 7.5 2.058 7.5 13.5m-11.124-15A5.18 5.18 0 0 0 8.25 6a5.18 5.18 0 0 0-3.876 1.5m7.752 3.75a5.18 5.18 0 0 0-3.876-1.5 5.18 5.18 0 0 0-3.876 1.5M8.25 6v7.5"/><path class="cls-1" d="M12.75 21h-9a3 3 0 0 1-3-3V4.5a3 3 0 0 1 3-3h9a3 3 0 0 1 3 3v6"/></svg>