<svg xmlns="http://www.w3.org/2000/svg" viewBox="0 0 24 24" width="24" height="24"><defs><style>.a{fill:none;stroke:#000;stroke-linecap:round;stroke-linejoin:round;stroke-width:1.5px}</style></defs><title>radio-antenna-2</title><path class="a" d="M23.231 12.749H.746l.012 8.994a1.5 1.5 0 0 0 1.5 1.494l19.487.005a1.5 1.5 0 0 0 1.493-1.5z"/><circle class="a" cx="5.993" cy="17.996" r="2.248"/><circle class="a" cx="17.984" cy="17.996" r="2.248"/><path class="a" d="M23.229 9.935A.958.958 0 0 0 22.248 9H1.716a.958.958 0 0 0-.974.94l.01 2.807h22.487zM3.748 9.006l-.004-1.734m3.002 1.727l-.004-1.734"/><path class="a" d="M21.723 7.493a1.5 1.5 0 1 0-3.008.011v1.505L21.729 9zm-2.989.76L.759.765m9.731 11.984v2.998h2.998v-2.998"/></svg>