<svg xmlns="http://www.w3.org/2000/svg" viewBox="0 0 24 24" width="24" height="24"><g fill="none" stroke="#000" stroke-linecap="round" stroke-linejoin="round" stroke-miterlimit="10"><path d="M.5 10.5a2 2 0 012-2h19a2 2 0 012 2v10a2 2 0 01-2 2h-19a2 2 0 01-2-2v-10z"/><path d="M21.5 15a1.5 1.5 0 01-1.5 1.5H4A1.5 1.5 0 012.5 15v-3A1.5 1.5 0 014 10.5h16a1.5 1.5 0 011.5 1.5v3z"/><circle cx="4.5" cy="19.5" r="1"/><circle cx="19.5" cy="19.5" r="1"/><path d="M16.5 19.5a1 1 0 01-1 1h-7a1 1 0 110-2h7a1 1 0 011 1zm-14-7h19m-19 2h19m-8 4v2m-11-12l16-8m-13 22v1m13-1v1"/></g><path fill="none" d="M0 0h24v24H0z"/></svg>