<svg xmlns="http://www.w3.org/2000/svg" viewBox="0 0 24 24" width="24" height="24"><defs><style>.a{fill:none;stroke:#000;stroke-linecap:round;stroke-linejoin:round;stroke-width:1.5px}</style></defs><title>radio-antenna</title><path class="a" d="M3.727 7.5L21 .75M.75 13.5h22.5M4.124 9.75a.375.375 0 1 1-.374.376.375.375 0 0 1 .374-.376m15.75 0a.375.375 0 1 1-.374.376.375.375 0 0 1 .374-.376M15 10.5h1.5m-9 0H12"/><circle class="a" cx="6" cy="18" r="2.25"/><path class="a" d="M12.75 16.5H18m-5.25 3H18"/><rect class="a" x=".75" y="7.5" width="22.5" height="15.75" rx="1" ry="1"/></svg>