<svg id="Regular" xmlns="http://www.w3.org/2000/svg" viewBox="0 0 24 24" width="24" height="24"><defs><style>.cls-1{fill:none;stroke:#000;stroke-linecap:round;stroke-linejoin:round;stroke-width:1.5px}</style></defs><title>radiology-scanner</title><path class="cls-1" d="M.75 21.5h3m-3-4.5h3"/><circle class="cls-1" cx="6.75" cy="21.5" r=".375"/><circle class="cls-1" cx="6.75" cy="17" r=".375"/><path class="cls-1" d="M9.75 17h3m-3 3.75l3-.75m3 0v-3.75M.75 8h3m-3 4.5h3"/><circle class="cls-1" cx="6.75" cy="8" r=".375"/><circle class="cls-1" cx="6.75" cy="12.5" r=".375"/><path class="cls-1" d="M9.75 12.5h3m-3-3.75l3 .75m3 0v3.75m3 3h4.5m-4.5 3l4.5-.75m-4.5-5.25h4.5m-4.5-3l4.5.75"/><circle class="cls-1" cx="18.75" cy="3.5" r=".375"/><path class="cls-1" d="M21 5l2.25 2.25M15.75 2L12 1.25"/></svg>