<svg xmlns="http://www.w3.org/2000/svg" viewBox="0 0 24 24" width="24" height="24"><defs><style>.a{fill:none;stroke:#000;stroke-linecap:round;stroke-linejoin:round;stroke-width:1.5px}</style></defs><title>radio-antenna-handle</title><path class="a" d="M.75 12.75h22.5M4.124 9a.375.375 0 1 1-.374.376A.375.375 0 0 1 4.124 9m15.75 0a.375.375 0 1 1-.374.376.375.375 0 0 1 .374-.376M15 9.75h1.5m-9 0H12"/><circle class="a" cx="6" cy="17.25" r="2.25"/><path class="a" d="M12.75 15.75H18m-5.25 3H18"/><rect class="a" x=".75" y="6.75" width="22.5" height="15.75" rx="1" ry="1"/><path class="a" d="M21.75 6.75V4.5a3 3 0 0 0-3-3H5.25a3 3 0 0 0-3 3v2.25"/></svg>