<svg xmlns="http://www.w3.org/2000/svg" viewBox="0 0 24 24" width="24" height="24"><g fill="none" stroke="#000" stroke-linejoin="round" stroke-miterlimit="10"><circle stroke-linecap="round" cx="12" cy="12" r="11.5"/><path d="M14.5 12.5h6c0-3-1.714-6.386-4.254-7.855l-3.001 5.199c.746.432 1.255 1.656 1.255 2.656zm-3.745 1.655l-3.002 5.2a8.445 8.445 0 008.494 0l-3.002-5.2c-.368.214-.79.345-1.245.345-.456 0-.877-.131-1.245-.345zM9.5 12.5c0-1 .509-2.224 1.255-2.656L7.753 4.645C5.214 6.114 3.5 9.5 3.5 12.5h6zm3-.5a.5.5 0 01-.5.5h0a.5.5 0 01-.5-.5h0a.5.5 0 01.5-.5h0a.5.5 0 01.5.5h0z"/></g><path fill="none" d="M0 0h24v24H0z"/></svg>