<svg xmlns="http://www.w3.org/2000/svg" viewBox="0 0 24 24" width="24" height="24"><g fill="none" stroke="#000" stroke-linecap="round" stroke-linejoin="round" stroke-miterlimit="10"><circle cx="5" cy="21.5" r="2"/><circle cx="19" cy="21.5" r="2"/><path d="M3 21.5H.5V16l2-2L5 9.5h4.5v-4h14v16H21m-14 0h10"/><path d="M7.5 11.5H6l-1.5 3m5-5v10m-9 0h23m-10-15a2 2 0 10-4 0v1h4v-1zm4.5 8h3.5a4.991 4.991 0 00-2.936-4.543l-1.445 3.18m-1.602 2.488l-2.291 2.626c1.908 1.667 4.64 1.666 6.547 0l-2.291-2.626m-1.602-2.488l-1.445-3.18A4.992 4.992 0 0011.5 12.5H15"/><path d="M18 12.5a1.5 1.5 0 01-1.5 1.5h0a1.5 1.5 0 01-1.5-1.5h0c0-.83.67-1.5 1.5-1.5h0c.829 0 1.5.67 1.5 1.5h0z"/></g><path fill="none" d="M0 0h24v24H0z"/></svg>