<svg xmlns="http://www.w3.org/2000/svg" viewBox="0 0 24 24" width="24" height="24"><g fill="none" stroke="#000" stroke-linejoin="round" stroke-miterlimit="10"><path d="M7.5 8.503h9m-9 4h9m-9 4h9m3 4.016a2 2 0 014 0v2.984h-4v-2.984z"/><path stroke-linecap="round" d="M21.5.503v18.016"/><path d="M4.5 3.487a2 2 0 01-4 0V.503h4v2.984z"/><path stroke-linecap="round" d="M2.5 23.503V5.487"/><path d="M5.5 7.816c0-.838.35-1.637.965-2.204l3.5-3.231a2.998 2.998 0 014.07 0l3.5 3.231a3 3 0 01.965 2.204v9.187a6.5 6.5 0 11-13 0V7.816z"/><path d="M7.5 8.413c0-.581.236-1.137.663-1.531l2.427-2.244a2.083 2.083 0 012.825 0l2.423 2.244c.428.395.662.95.662 1.531v8.075c0 2.493-2.007 4.515-4.5 4.515s-4.5-2.021-4.5-4.515V8.413z"/></g><path fill="none" d="M0 0h24v24H0z"/></svg>