<svg xmlns="http://www.w3.org/2000/svg" viewBox="0 0 24 24" width="24" height="24"><defs><style>.a{fill:none;stroke:#000;stroke-linecap:round;stroke-linejoin:round;stroke-width:1.5px}</style></defs><title>railroad-cargo-train</title><circle class="a" cx="11.75" cy="12.013" r="6"/><circle class="a" cx="11.75" cy="12.013" r="2.25"/><path class="a" d="M14.757 6.82L14 .763H9.5L8.743 6.82M8.75.763h6M3.5 6.013s1.6-2.131 5.694-2.8m-4.944 16.3l7.5-1.5 7.5 1.5-.75 2.25-6.75 1.5-6.75-1.5-.75-2.25zm.696-14.739l.804 7.239m14.25-6s-1.6-2.131-5.694-2.8m4.248 1.561l-.804 7.239"/><path class="a" d="M5 19.513v-2.25a1.5 1.5 0 0 1 1.5-1.5h.566m11.434 3.75v-2.25a1.5 1.5 0 0 0-1.5-1.5h-.566"/></svg>