<svg xmlns="http://www.w3.org/2000/svg" viewBox="0 0 24 24" width="24" height="24"><defs><style>.a{fill:none;stroke:#000;stroke-linecap:round;stroke-linejoin:round;stroke-width:1.5px}</style></defs><title>railroad-train</title><path class="a" d="M15.375 15.013a.375.375 0 0 1 .375.375m-.75 0a.375.375 0 0 1 .375-.375m0 .75a.375.375 0 0 1-.375-.375m.75 0a.375.375 0 0 1-.375.375m-6.75-.75a.375.375 0 0 1 .375.375m-.75 0a.375.375 0 0 1 .375-.375m0 .75a.375.375 0 0 1-.375-.375m.75 0a.375.375 0 0 1-.375.375"/><path class="a" d="M7.25 5.263h9.5a2 2 0 0 1 2 2v10.5a1 1 0 0 1-1 1H6.25a1 1 0 0 1-1-1v-10.5a2 2 0 0 1 2-2zm-6.5 18l3-2.25m19.5 2.25l-3-2.25m-1.5-9H5.25M12 5.263v-4.5m-3 0h6"/></svg>