<svg xmlns="http://www.w3.org/2000/svg" viewBox="0 0 24 24" width="24" height="24"><defs><style>.a{fill:none;stroke:#000;stroke-linecap:round;stroke-linejoin:round;stroke-width:1.5px}</style></defs><title>railroad-metro</title><path class="a" d="M.75 23.263l2.37-2.729m20.13 2.729l-2.37-2.729m.87-11.521c0 4.971-3.537 12.75-9.75 12.75s-9.75-7.779-9.75-12.75S5.787.763 12 .763s9.75 3.279 9.75 8.25z"/><path class="a" d="M12 21.763a7.978 7.978 0 0 0 5.944-2.863c-.4-2.2-2.908-3.886-5.944-3.886S6.455 16.7 6.056 18.9A7.978 7.978 0 0 0 12 21.763zm3.75-16.5h-7.5a2.25 2.25 0 0 0 0 4.5h7.5a2.25 2.25 0 0 0 0-4.5z"/></svg>