<svg xmlns="http://www.w3.org/2000/svg" viewBox="0 0 24 24" width="24" height="24"><defs><style>.a{fill:none;stroke:#000;stroke-linecap:round;stroke-linejoin:round;stroke-width:1.5px}</style></defs><title>railroad-train-back</title><path class="a" d="M21 19.513H3a.75.75 0 0 1-.75-.75V3.862a1.5 1.5 0 0 1 .728-1.286l.884-.53A9 9 0 0 1 8.493.763h7.014a9 9 0 0 1 4.631 1.283l.884.53a1.5 1.5 0 0 1 .728 1.286v14.9a.75.75 0 0 1-.75.751zm-17.25 0h3v3.75h-3zm13.5 0h3v3.75h-3zm-16.5 3.75h22.5"/><path class="a" d="M9.25 7.513h5.5a1 1 0 0 1 1 1v11h-7.5v-11a1 1 0 0 1 1-1zm-.25-3h6m3.75 3.75v3m0 3.75v1.5m-13.5-8.25v3m0 3.75v1.5m3-3.75h7.5"/></svg>