<svg id="Regular" xmlns="http://www.w3.org/2000/svg" viewBox="0 0 24 24" width="24" height="24"><defs><style>.cls-1,.cls-2{fill:none;stroke:#000;stroke-linejoin:round;stroke-width:1.5px}.cls-2{stroke-linecap:round}</style></defs><title>rain-umbrella-sun</title><path class="cls-1" d="M8.25 17.185c.454-1.821 3.631-1.821 4.086 0 .014-1.835 3.417-1.821 3.4 0A7.575 7.575 0 0 0 8.25 9a7.575 7.575 0 0 0-7.491 8.185c-.012-1.821 3.391-1.835 3.406 0 .454-1.821 3.635-1.821 4.085 0z"/><path class="cls-2" d="M8.25 9.016V7.5m4.312-.95a4.05 4.05 0 1 1 4.738 4.92m-.8-8.02V.75m-2.864 3.886l-1.909-1.909M20.55 7.5h2.7m-3.886-2.864l1.909-1.909m-1.909 7.637l1.909 1.909M8.25 17.185v4.565a1.5 1.5 0 0 0 3 0"/></svg>