<svg id="Regular" xmlns="http://www.w3.org/2000/svg" viewBox="0 0 24 24" width="24" height="24"><defs><style>.cls-1,.cls-2{fill:none;stroke:#000;stroke-linejoin:round;stroke-width:1.5px}.cls-1{stroke-linecap:round}</style></defs><title>rain-umbrella-boots</title><path class="cls-1" d="M1.7 12a.948.948 0 0 0-.953.944v9.362a.948.948 0 0 0 .953.944h10.4c2.568-4.364-3.105-6.23-5.674-4.144l.486-6.087A.949.949 0 0 0 5.961 12zm4.992 3.75H3.75"/><path class="cls-2" d="M16.5 9.75c.409-1.669 3.268-1.669 3.677 0 .013-1.682 3.076-1.669 3.065 0a6.892 6.892 0 0 0-6.742-7.5 6.892 6.892 0 0 0-6.742 7.5c-.011-1.669 3.052-1.682 3.065 0 .409-1.669 3.268-1.669 3.677 0z"/><path class="cls-1" d="M16.5 2.25V.75m0 9V15a1.5 1.5 0 0 0 3 0"/></svg>