<svg id="Regular" xmlns="http://www.w3.org/2000/svg" viewBox="0 0 24 24" width="24" height="24"><defs><style>.cls-1{fill:none;stroke:#000;stroke-linecap:round;stroke-linejoin:round;stroke-width:1.5px}</style></defs><title>rain-coat-umbrella</title><path class="cls-1" d="M11.827 23.25H1.673a.964.964 0 0 1-.923-1V11.927A1 1 0 0 1 1.33 11L3 10.5l3.75 2.75 3.75-2.75 1.67.5a1 1 0 0 1 .58.928V22.25a.964.964 0 0 1-.923 1zM3 10.5L.75 7.75a7.9 7.9 0 0 1 6-2.5 7.9 7.9 0 0 1 6 2.5L10.5 10.5"/><path class="cls-1" d="M12.75 7.75s-1-7-6-7-6 7-6 7m6 5.5v10m16.5-16.5l-3.75 16.5-3.75-16.5c1.607 1.5 3.75 0 3.75 0s2.143 1.5 3.75 0zm-3.75 0V2.625A1.874 1.874 0 0 1 21.375.75a1.874 1.874 0 0 1 1.875 1.875V3"/></svg>