<svg xmlns="http://www.w3.org/2000/svg" viewBox="0 0 24 24" width="24" height="24"><path d="M.5 21.5h4.261S7.5 21.144 7.5 18.455a3.038 3.038 0 00-3.153-3.037A4.237 4.237 0 00.5 13m23 8.5h-4.261s-2.739-.356-2.739-3.045a3.038 3.038 0 013.153-3.037A4.237 4.237 0 0123.5 13M2.511 10.5c3.792-7.984 15.181-7.992 18.979-.001M5.459 12.5c2.289-5.984 10.791-5.988 13.081 0M8.5 15c0-4.625 7-4.629 7 0" fill="none" stroke="#000" stroke-linecap="round" stroke-linejoin="round" stroke-miterlimit="10"/><path fill="none" d="M0 0h24v24H0z"/></svg>