<svg xmlns="http://www.w3.org/2000/svg" viewBox="0 0 24 24" width="24" height="24"><defs><style>.a{fill:none;stroke:#000;stroke-linecap:round;stroke-linejoin:round;stroke-width:1.5px}</style></defs><title>ranking-first</title><path class="a" d="M8.25 10.5h-6A1.5 1.5 0 0 0 .75 12v6h7.5zm13.5 1.5h-6v6h7.5v-4.5a1.5 1.5 0 0 0-1.5-1.5zm-7.5-6h-4.5a1.5 1.5 0 0 0-1.5 1.5V18h7.5V7.5a1.5 1.5 0 0 0-1.5-1.5zM4.5 13.875"/><path class="a" d="M4.5 13.875a.375.375 0 1 0 .375.375.375.375 0 0 0-.375-.375m15 .75a.375.375 0 1 0 .375.375.375.375 0 0 0-.375-.375M12 11.25a.375.375 0 1 0 .375.375.375.375 0 0 0-.375-.375"/></svg>