<svg id="Regular" xmlns="http://www.w3.org/2000/svg" viewBox="0 0 24 24" width="24" height="24"><defs><style>.cls-1{fill:none;stroke:#000;stroke-linecap:round;stroke-linejoin:round;stroke-width:1.5px}</style></defs><title>rat-curve</title><path class="cls-1" d="M12.879 1.5a10.5 10.5 0 1 1-10.5 10.451m1.5.049c-2.25.75-3.53-2.159-3-3.75.75-2.25 2.25-1.5 2.25-1.5a3.742 3.742 0 0 1 3.75-2.25 28.379 28.379 0 0 1 6 .75s.75 6-3.75 6a5.454 5.454 0 0 0 3.75 3.75m1.809 4.416A8.454 8.454 0 0 1 17.379 15"/><path class="cls-1" d="M9.879 17.25a3.344 3.344 0 0 1 3-2.25 3.25 3.25 0 0 1 3 1.5l.054.107m-4.867-2.48l.313-.627a1.642 1.642 0 0 1 2.25-.75M7.254 7.5a.375.375 0 0 1 .375.375m-.75 0a.375.375 0 0 1 .375-.375m0 .75a.375.375 0 0 1-.375-.375m.75 0a.375.375 0 0 1-.375.375"/></svg>