<svg id="Regular" xmlns="http://www.w3.org/2000/svg" viewBox="0 0 24 24" width="24" height="24"><defs><style>.cls-1{fill:none;stroke:#000;stroke-linecap:round;stroke-linejoin:round;stroke-width:1.5px}</style></defs><title>rat</title><path class="cls-1" d="M7.81 21.45a5.923 5.923 0 0 0 4.2 1.8m7.056-7.078A18.965 18.965 0 0 0 19.51 12a6.019 6.019 0 0 0-.45-2.25 4.456 4.456 0 0 0 4.2-4.5 4.5 4.5 0 1 0-9 0v.3a11.579 11.579 0 0 0-2.25-.3 11.579 11.579 0 0 0-2.25.3v-.3a4.42 4.42 0 0 0-4.5-4.5 4.42 4.42 0 0 0-4.5 4.5 4.456 4.456 0 0 0 4.2 4.5A6.019 6.019 0 0 0 4.51 12a18.965 18.965 0 0 0 .444 4.172M16.21 21.45a5.923 5.923 0 0 1-4.2 1.8m-.75-3h1.5m5.25-4.5l3.75 1.5m-4.5.75l2.25 2.25m-13.5-4.5l-3.75 1.5m4.5.75l-2.25 2.25m3.675-8.55a.375.375 0 0 1 .375-.375m0 .75a.375.375 0 0 1-.375-.375m.75 0a.375.375 0 0 1-.375.375m0-.75a.375.375 0 0 1 .375.375m6 0a.375.375 0 0 1 .375-.375m0 .75a.375.375 0 0 1-.375-.375m.75 0a.375.375 0 0 1-.375.375m0-.75a.375.375 0 0 1 .375.375"/></svg>