<svg xmlns="http://www.w3.org/2000/svg" viewBox="0 0 24 24" width="24" height="24"><defs><style>.a{fill:none;stroke:#000;stroke-linecap:round;stroke-linejoin:round;stroke-width:1.5px}</style></defs><title>rating-five-star-hotel</title><path class="a" d="M12 .749v2.25m-1.5 2.25l1.5-2.25 1.5 2.25M9.75 2.249l2.25.75 2.25-.75m-9 1.5v2.25m-1.5 2.25l1.5-2.25 1.5 2.25m-3.75-3l2.25.75 2.25-.75m11.25-1.5v2.25m-1.5 2.25l1.5-2.25 1.5 2.25m-3.75-3l2.25.75 2.25-.75m-18 6v2.25m-1.5 2.25l1.5-2.25 1.5 2.25m-3.75-3l2.25.75 2.25-.75m15.75-1.5v2.25m-1.5 2.25l1.5-2.25 1.5 2.25m-3.75-3l2.25.75 2.25-.75m-7.5 6v-6L12 8.999l-3.75 3.75v6h-3v4.5h13.5v-4.5h-3zm-3.75 4.5v-2.25m-3.75-6.75h7.5"/></svg>