<svg xmlns="http://www.w3.org/2000/svg" viewBox="0 0 24 24" width="24" height="24"><defs><style>.a{fill:none;stroke:#000;stroke-linecap:round;stroke-linejoin:round;stroke-width:1.5px}</style></defs><title>rating-star-give</title><path class="a" d="M.751 14.25v9m15-1.5a3 3 0 0 0-3-3H9a3 3 0 0 0-3-3H.751v6zm-9.75-3h2.998m3.71-3.041l1.471-.856 5.4 3.14a.187.187 0 0 0 .277-.2l-1.319-6.1 4.649-4.163a.187.187 0 0 0-.107-.33l-6.21-.631L14.352.862a.188.188 0 0 0-.344 0L11.49 6.573 5.28 7.2a.187.187 0 0 0-.106.326l4.653 4.161-.327 1.528"/></svg>