<svg xmlns="http://www.w3.org/2000/svg" viewBox="0 0 24 24" width="24" height="24"><defs><style>.a{fill:none;stroke:#000;stroke-linecap:round;stroke-linejoin:round;stroke-width:1.5px}</style></defs><title>rating-booklet</title><path class="a" d="M17.25 5.249v-3A1.5 1.5 0 0 0 15.349.8l-10.5 2.92a1.6 1.6 0 0 0-1.1 1.529"/><path class="a" d="M3.75 21.749a1.5 1.5 0 0 0 1.5 1.5h13.5a1.5 1.5 0 0 0 1.5-1.5V6.743a1.5 1.5 0 0 0-1.5-1.5l-15 .006z"/><path class="a" d="M12.531 8.572l1.248 2.457h2.127a.583.583 0 0 1 .419 1l-1.953 1.922 1.082 2.485a.589.589 0 0 1-.839.736L12 15.7l-2.615 1.47a.589.589 0 0 1-.839-.736l1.082-2.485-1.953-1.923a.583.583 0 0 1 .419-1h2.127l1.249-2.454a.6.6 0 0 1 1.061 0zM8.25 20.249h7.5"/></svg>