<svg xmlns="http://www.w3.org/2000/svg" viewBox="0 0 24 24" width="24" height="24"><defs><style>.a{fill:none;stroke:#000;stroke-linecap:round;stroke-linejoin:round;stroke-width:1.5px}</style></defs><title>rating-star-top</title><path class="a" d="M12.53 1.075l1.249 2.675h2.127a.583.583 0 0 1 .42 1l-1.953 1.703 1.082 2.485a.59.59 0 0 1-.84.737L12 8.2 9.384 9.675a.589.589 0 0 1-.839-.737l1.082-2.485-1.953-1.706a.583.583 0 0 1 .419-1h2.127l1.249-2.675a.6.6 0 0 1 1.061.003zM12 8.204v6.046M4.5 3.6a11.25 11.25 0 1 0 15 0M5.635 9.735a6.75 6.75 0 1 0 12.73 0"/></svg>