<svg xmlns="http://www.w3.org/2000/svg" viewBox="0 0 24 24" width="24" height="24"><defs><style>.a{fill:none;stroke:#000;stroke-linecap:round;stroke-linejoin:round;stroke-width:1.5px}</style></defs><title>rating-star-ribbon</title><path class="a" d="M19.059 23.105l-6.177-4.492a1.5 1.5 0 0 0-1.764 0l-6.177 4.492A.75.75 0 0 1 3.75 22.5V2.25a1.5 1.5 0 0 1 1.5-1.5h13.5a1.5 1.5 0 0 1 1.5 1.5V22.5a.75.75 0 0 1-1.191.605z"/><path class="a" d="M12.53 5.791l1.249 2.458h2.127a.582.582 0 0 1 .419 1l-1.953 1.922 1.082 2.485a.589.589 0 0 1-.839.737L12 12.918l-2.615 1.471a.589.589 0 0 1-.839-.737l1.082-2.485-1.953-1.922a.582.582 0 0 1 .419-1h2.127l1.249-2.454a.594.594 0 0 1 1.06 0z"/></svg>