<svg xmlns="http://www.w3.org/2000/svg" viewBox="0 0 24 24" width="24" height="24"><defs><style>.a{fill:none;stroke:#000;stroke-linecap:round;stroke-linejoin:round;stroke-width:1.5px}</style></defs><title>rating-star-square</title><path class="a" d="M12.681 6.593l1.6 3.157h2.746a.748.748 0 0 1 .525 1.28l-2.505 2.47 1.39 3.191a.753.753 0 0 1-1.059.957L12 15.748l-3.378 1.9a.753.753 0 0 1-1.059-.957l1.39-3.191-2.5-2.459a.753.753 0 0 1 .528-1.29h2.734l1.6-3.157a.763.763 0 0 1 1.366-.001z"/><rect class="a" x=".75" y=".75" width="22.5" height="22.5" rx="3" ry="3"/></svg>