<svg xmlns="http://www.w3.org/2000/svg" viewBox="0 0 24 24" width="24" height="24"><defs><style>.a{fill:none;stroke:#000;stroke-linecap:round;stroke-linejoin:round;stroke-width:1.5px}</style></defs><title>rating-star-bubble-1</title><path class="a" d="M12.593 6.8l1.4 2.95h2.377a.651.651 0 0 1 .469 1.114l-2.187 1.946 1.209 2.778a.658.658 0 0 1-.938.823L12 14.767l-2.923 1.644a.658.658 0 0 1-.938-.823l1.209-2.778-2.183-1.946a.651.651 0 0 1 .469-1.114h2.377l1.4-2.95a.665.665 0 0 1 1.182 0z"/><path class="a" d="M12.576 1.013l1.878 2.161a.765.765 0 0 0 .748.243l2.79-.645a.764.764 0 0 1 .932.678l.25 2.852a.761.761 0 0 0 .462.636l2.636 1.119a.763.763 0 0 1 .356 1.1l-1.475 2.454a.764.764 0 0 0 0 .786l1.475 2.454a.763.763 0 0 1-.356 1.1l-2.636 1.119a.761.761 0 0 0-.462.636l-.25 2.852a.764.764 0 0 1-.932.678l-2.79-.645a.765.765 0 0 0-.748.243l-1.878 2.162a.765.765 0 0 1-1.152 0l-1.878-2.17a.765.765 0 0 0-.748-.243l-2.79.645a.764.764 0 0 1-.932-.678l-.25-2.85a.761.761 0 0 0-.462-.636l-2.636-1.121a.763.763 0 0 1-.356-1.1l1.475-2.454a.76.76 0 0 0 0-.786l-1.475-2.45a.763.763 0 0 1 .356-1.1l2.636-1.115a.761.761 0 0 0 .462-.638l.25-2.852a.764.764 0 0 1 .932-.678l2.79.645a.765.765 0 0 0 .748-.243l1.878-2.161a.763.763 0 0 1 1.152.002z"/></svg>