<svg xmlns="http://www.w3.org/2000/svg" viewBox="0 0 24 24" width="24" height="24"><defs><style>.a{fill:none;stroke:#000;stroke-linecap:round;stroke-linejoin:round;stroke-width:1.5px}</style></defs><title>rating-hotel</title><path class="a" d="M.75 10.5v12.75m22.5-9v9m0-3.75H.75"/><circle class="a" cx="6" cy="14.25" r="2.25"/><path class="a" d="M11.25 16.5v-3.539a.75.75 0 0 1 .932-.728l5.885 1.467a2.883 2.883 0 0 1 2.183 2.8zm8.03-15.427l1.249 2.458h2.127a.582.582 0 0 1 .419 1l-1.953 1.918L22.2 8.934a.589.589 0 0 1-.839.736L18.75 8.2l-2.615 1.47a.589.589 0 0 1-.839-.736l1.082-2.485-1.953-1.922a.582.582 0 0 1 .419-1h2.127l1.248-2.458a.6.6 0 0 1 1.061.004zM.75 2.25H7.5m3.75 0a.375.375 0 1 1-.375-.375.375.375 0 0 1 .375.375M.75 6.75H7.5m3.75 0a.375.375 0 1 1-.375-.375.375.375 0 0 1 .375.375"/></svg>