<svg id="Regular" xmlns="http://www.w3.org/2000/svg" viewBox="0 0 24 24" width="24" height="24"><defs><style>.cls-1{fill:none;stroke:#000;stroke-linecap:round;stroke-linejoin:round;stroke-width:1.5px}</style></defs><title>ray-1</title><path class="cls-1" d="M17.925 16.868s2.652-3.713 1.591-5.834c-.99-1.981-1.056-3.037.236-7.056a.75.75 0 0 0-.69-.978A14.766 14.766 0 0 0 4.056 18a.751.751 0 0 0 .98.69c4.018-1.291 5.074-1.226 7.056-.235 2.121 1.064 5.833-1.587 5.833-1.587zM7.319 13.686l1.06-2.122m1.061 3.182l1.061-2.121m4.242-6.364l-2.121 1.061m3.182 1.06l-2.121 1.061m-6.73-.481a3.591 3.591 0 0 1-2.286-2.171M10.02 5.9a3.591 3.591 0 0 0-2.171-2.291"/></svg>