<svg id="Regular" xmlns="http://www.w3.org/2000/svg" viewBox="0 0 24 24" width="24" height="24"><defs><style>.cls-1{fill:none;stroke:#000;stroke-linecap:round;stroke-linejoin:round;stroke-width:1.5px}</style></defs><title>ray</title><path class="cls-1" d="M18.849 14.7c2.929-2.929 3.167-7.441.531-10.077s-7.148-2.4-10.077.531l1.591 1.591-2.121 4.239 4.243 4.243 4.242-2.121zm-4.773-4.776L1 23m7.773-12.016H6.652M9.985 8.56l-2.273-.758m5.304 7.425v2.121m2.424-3.333l.758 2.273M14.872 5.416a.375.375 0 0 1 0 .53m-.531-.53a.375.375 0 0 1 .531 0m-.531.53a.375.375 0 0 1 0-.53m.531.53a.375.375 0 0 1-.531 0m4.243 3.182a.375.375 0 0 1 0 .531m-.53-.531a.375.375 0 0 1 .53 0m-.53.531a.375.375 0 0 1 0-.531m.53.531a.375.375 0 0 1-.53 0"/></svg>