<svg xmlns="http://www.w3.org/2000/svg" viewBox="0 0 24 24" width="24" height="24"><defs><style>.a{fill:none;stroke:#000;stroke-linecap:round;stroke-linejoin:round;stroke-width:1.5px}</style></defs><title>rb</title><path class="a" d="M1.502 3.753h21m-21 16.5h21m-15-4.5v-7.5m-.002 0h1.127a1.875 1.875 0 1 1 0 3.75H7.5m3.002 3.75l-2.25-3.75m5.25 3.75v-7.5m-.002 0H15a1.5 1.5 0 0 1 1.5 1.5v.75A1.5 1.5 0 0 1 15 12h-1.5"/><path class="a" d="M13.5 12H15a1.5 1.5 0 0 1 1.5 1.5v.75a1.5 1.5 0 0 1-1.5 1.5h-1.5"/></svg>