<svg xmlns="http://www.w3.org/2000/svg" viewBox="0 0 24 24" width="24" height="24"><defs><style>.a{fill:none;stroke:#000;stroke-linecap:round;stroke-linejoin:round;stroke-width:1.5px}</style></defs><title>read-maths</title><path class="a" d="M12 23.251c-.507-1.667-3.918-3.617-9.843-3.886A1.5 1.5 0 0 1 .75 17.858V4.507a1.482 1.482 0 0 1 .83-1.344M12 23.251c.507-1.667 3.918-3.617 9.843-3.886a1.5 1.5 0 0 0 1.407-1.507V4.507a1.482 1.482 0 0 0-.83-1.344M12 14.251v9m5.25-21.75v4.5M15 3.751h4.5m-12 3.75h5.25M10.125 4.5a.375.375 0 0 1 .375.375m-.75.001a.375.375 0 0 1 .375-.375m0 .75a.374.374 0 0 1-.375-.375m.75 0a.374.374 0 0 1-.375.375m0 4.5a.375.375 0 0 1 .375.375m-.75 0a.375.375 0 0 1 .375-.375m0 .749a.374.374 0 0 1-.375-.375m.75.001a.374.374 0 0 1-.375.375M4.5 3.001l.75.75.75-3h4.5"/></svg>