<svg xmlns="http://www.w3.org/2000/svg" viewBox="0 0 24 24" width="24" height="24"><defs><style>.a{fill:none;stroke:#000;stroke-linecap:round;stroke-linejoin:round;stroke-width:1.5px}</style></defs><title>read-home-1</title><path class="a" d="M8.817 19.669a19.96 19.96 0 0 0-6.66-1.307A1.5 1.5 0 0 1 .75 16.855V3.5A1.5 1.5 0 0 1 2.357 2C8.876 2.345 12 4.979 12 6.478m11.25 5.25V3.5A1.5 1.5 0 0 0 21.643 2C15.124 2.345 12 4.979 12 6.478m0 0l.01 5.251m.74 3.197v5.8a1.5 1.5 0 0 0 1.5 1.5h6a1.5 1.5 0 0 0 1.5-1.5v-5.8"/><path class="a" d="M11.25 16.238l4.518-3.953a2.252 2.252 0 0 1 2.964 0l4.518 3.953m-4.5 5.99h-3v-3a1.5 1.5 0 0 1 3 0z"/></svg>