<svg xmlns="http://www.w3.org/2000/svg" viewBox="0 0 24 24" width="24" height="24"><defs><style>.a{fill:none;stroke:#000;stroke-linecap:round;stroke-linejoin:round;stroke-width:1.5px}</style></defs><title>read-search</title><path class="a" d="M21.75 9.752V2.259A1.5 1.5 0 0 0 20.037.768a15.934 15.934 0 0 0-7.851 3.574 1.525 1.525 0 0 1-1.872 0A15.93 15.93 0 0 0 2.463.768 1.5 1.5 0 0 0 .75 2.259v13.6a1.492 1.492 0 0 0 1.3 1.481 14.64 14.64 0 0 1 5.44 1.741m3.76-14.418v2.838M8.254 7.23a14.875 14.875 0 0 0-3.712-1.682m3.712 5.427a10.342 10.342 0 0 0-4.516-1.891M14.246 7.23a14.875 14.875 0 0 1 3.712-1.682"/><circle class="a" cx="15.75" cy="15.751" r="6"/><path class="a" d="M23.25 23.251l-3.257-3.257m-4.243-2.743v-3m-1.5 0h3"/></svg>