<svg xmlns="http://www.w3.org/2000/svg" viewBox="0 0 24 24" width="24" height="24"><defs><style>.a{fill:none;stroke:#000;stroke-linecap:round;stroke-linejoin:round;stroke-width:1.5px}</style></defs><title>read-glasses-1</title><path class="a" d="M12 23.251l-8.778-3.34a1.405 1.405 0 0 1-.972-1.337v-7.323a1.406 1.406 0 0 1 1.841-1.337L12 12.972zm8.778-3.34L12 23.251V12.972l7.909-3.058a1.406 1.406 0 0 1 1.841 1.337v7.323a1.405 1.405 0 0 1-.972 1.337z"/><circle class="a" cx="6.75" cy="4.501" r="3.75"/><circle class="a" cx="17.25" cy="4.501" r="3.75"/><path class="a" d="M10.5 4.572a1.5 1.5 0 1 1 3 0m9.75-.071H21m-18 0H.75m15 11.25l2.25-.75"/></svg>