<svg xmlns="http://www.w3.org/2000/svg" viewBox="0 0 24 24" width="24" height="24"><defs><style>.a{fill:none;stroke:#000;stroke-linecap:round;stroke-linejoin:round;stroke-width:1.5px}</style></defs><title>read-world</title><rect class="a" x="12.75" y="11.251" width="10.5" height="12" rx=".75" ry=".75"/><path class="a" d="M18 14.251h2.25m-4.5 3h4.5m-4.5 3h4.5m-10.496-.028A9.75 9.75 0 1 1 19.99 8.255"/><path class="a" d="M6.75 19.5V15s1.009-.46 1.27-1.048a1.3 1.3 0 0 0-.04-1.139l-1.259-2.365A1.3 1.3 0 0 0 5.259 9.8l-4.5 1.122M5.25 2.284v3.952A1.3 1.3 0 0 0 6.235 7.5l1.9.65A1.3 1.3 0 0 0 9.75 6.886V5.518l4.164-.686A1.3 1.3 0 0 0 15 3.55v-1.7"/></svg>