<svg xmlns="http://www.w3.org/2000/svg" viewBox="0 0 24 24" width="24" height="24"><defs><style>.a{fill:none;stroke:#000;stroke-linecap:round;stroke-linejoin:round;stroke-width:1.5px}</style></defs><title>read-home</title><path class="a" d="M12 23.251s2.043-2.533 7.768-2.669a.491.491 0 0 0 .482-.489v-9.852a.492.492 0 0 0-.507-.489c-5.7.142-7.743 3-7.743 3s-2.038-2.857-7.743-3a.493.493 0 0 0-.507.489v9.852a.491.491 0 0 0 .482.489C9.957 20.718 12 23.251 12 23.251zm0-10.5v10.5M.75 7.599L12 .751l11.25 6.75m-4.5-6.75H21v2.25"/></svg>