<svg xmlns="http://www.w3.org/2000/svg" viewBox="0 0 24 24" width="24" height="24"><defs><style>.a{fill:none;stroke:#000;stroke-linecap:round;stroke-linejoin:round;stroke-width:1.5px}</style></defs><title>read-light-idea</title><path class="a" d="M12 23.251c-.528-1.663-3.943-3.6-9.843-3.866A1.5 1.5 0 0 1 .75 17.878V4.527a1.5 1.5 0 0 1 1.607-1.5c3.865.2 6.608 1.125 8.157 2.205M12 23.251c.528-1.663 3.943-3.6 9.843-3.866a1.5 1.5 0 0 0 1.407-1.507V9M9.342 8.773a24.438 24.438 0 0 0-5.574-1.3m5.574 5.115a25.017 25.017 0 0 0-5.574-1.3m5.574 5.344a25.247 25.247 0 0 0-5.625-1.3M12 10.501v12.75m5.25-22.5v1.5m-4.811.97L13.5 4.282m8.561-1.061L21 4.282m-3.75 8.469v1.5m3-6a3 3 0 1 0-4.5 2.584v1.916h3v-1.916a2.986 2.986 0 0 0 1.5-2.584z"/></svg>