<svg xmlns="http://www.w3.org/2000/svg" viewBox="0 0 24 24" width="24" height="24"><defs><style>.a{fill:none;stroke:#000;stroke-linecap:round;stroke-linejoin:round;stroke-width:1.5px}</style></defs><title>read-email-hand</title><path class="a" d="M16.5 15l-1.673-1.255a1.569 1.569 0 0 0-2.247.385 1.569 1.569 0 0 0 0 1.74l1.645 2.467a4.5 4.5 0 0 0 2.075 1.682l2.45.981v2.25m-3-13.5l3.6 1.541a4.5 4.5 0 0 1 2.363 2.364l1.173 2.745a4.5 4.5 0 0 1 .364 1.773v5.077"/><path class="a" d="M15.75 14.437V8.25L8.25 12 .75 8.25v7.5a1.5 1.5 0 0 0 1.5 1.5H13.5"/><path class="a" d="M14.25 9V2.25a1.5 1.5 0 0 0-1.5-1.5h-9a1.5 1.5 0 0 0-1.5 1.5V9m3-5.25H9m-3.75 3h6"/></svg>