<svg xmlns="http://www.w3.org/2000/svg" viewBox="0 0 24 24" width="24" height="24"><defs><style>.a{fill:none;stroke:#000;stroke-linecap:round;stroke-linejoin:round;stroke-width:1.5px}</style></defs><title>read-art</title><path class="a" d="M13.957 5.043a6.16 6.16 0 0 0-2.552-.543C8.42 4.5 6 6.55 6 9.077a4.633 4.633 0 0 0 3.3 4.213c.767.274 1.4.051 1.845-.966a1.6 1.6 0 0 1 1.584-1.018m3.747-1.388l-2.819 5.729m2.215-7.571a1.383 1.383 0 0 0 .6 1.842 1.342 1.342 0 0 0 1.817-.618 2.959 2.959 0 0 0-.6-3.888c.197 1.641-1.011 1.027-1.817 2.664zm-6.497.833a.378.378 0 0 1 .375.381m-.75 0a.378.378 0 0 1 .375-.381m0 .762A.378.378 0 0 1 9 9.29m.75 0a.378.378 0 0 1-.375.381m2.25-3.012A.378.378 0 0 1 12 7.04m-.75 0a.378.378 0 0 1 .375-.381m0 .762a.378.378 0 0 1-.375-.381m.75 0a.378.378 0 0 1-.375.381"/><path class="a" d="M21 23.251H5.25A2.25 2.25 0 0 1 3 21a2.25 2.25 0 0 1 2.25-2.25H19.5a1.5 1.5 0 0 0 1.5-1.5v-15a1.5 1.5 0 0 0-1.5-1.5H4.957A1.957 1.957 0 0 0 3 2.708V21.3m16.5-2.549v4.5"/></svg>