<svg id="Regular" xmlns="http://www.w3.org/2000/svg" viewBox="0 0 24 24" width="24" height="24"><defs><style>.cls-1{fill:none;stroke:#000;stroke-linecap:round;stroke-linejoin:round;stroke-width:1.5px}</style></defs><title>real-estate-action-building-key</title><path class="cls-1" d="M15.75 12V1.5a.75.75 0 0 0-1.013-.7l-8.25 4.27a.75.75 0 0 0-.487.7v3.98m7.5-4.5h2.25m-3.75 3h3.75m-15 4.5H3m-2.25 3H4.5M8.25 4.156V.751"/><path class="cls-1" d="M8.25 23.25v-12a1.5 1.5 0 0 0-1.5-1.5h-4.5a1.5 1.5 0 0 0-1.5 1.5v12h9m5.89-4.325a.375.375 0 1 1-.53 0 .374.374 0 0 1 .53 0"/><path class="cls-1" d="M19.087 17.71l3.687-3.688a1.624 1.624 0 0 0-2.3-2.3l-3.684 3.691a4.06 4.06 0 1 0 2.3 2.3z"/></svg>