<svg id="Regular" xmlns="http://www.w3.org/2000/svg" viewBox="0 0 24 24" width="24" height="24"><defs><style>.cls-1{fill:none;stroke:#000;stroke-linecap:round;stroke-linejoin:round;stroke-width:1.5px}</style></defs><title>real-estate-search-house-2</title><circle class="cls-1" cx="15.75" cy="8.25" r="7.5"/><path class="cls-1" d="M6.749 15H6a.75.75 0 0 0-.75.75v7.5H12V18"/><path class="cls-1" d="M5.25 23.25H.75V4.5a.75.75 0 0 1 .75-.75h5.25M8.25 18h-3M3 8.25H.75m4.5 3H.75M12 18.75l3.75 1.5v3M2.25 3.75v-3m3 1.5v1.5m13.5 2.5v5A.75.75 0 0 1 18 12h-4.5a.75.75 0 0 1-.75-.75v-5"/><path class="cls-1" d="M11.25 7.5l4.5-3.75 4.5 3.75"/></svg>