<svg id="Regular" xmlns="http://www.w3.org/2000/svg" viewBox="0 0 24 24" width="24" height="24"><defs><style>.cls-1{fill:none;stroke:#000;stroke-linecap:round;stroke-linejoin:round;stroke-width:1.5px}</style></defs><title>real-estate-action-building-like</title><path class="cls-1" d="M12.75 22.55v-4.9h.7a3.5 3.5 0 0 0 3.5-3.5 1.4 1.4 0 0 1 1.4-1.4 1.9 1.9 0 0 1 1.9 1.9v.9a.7.7 0 0 0 .7.7h.2a2.1 2.1 0 0 1 2.089 2.309l-.217 2.17a2.8 2.8 0 0 1-2.786 2.521h-2.894a2.779 2.779 0 0 1-.769-.108l-1.7-.484a2.779 2.779 0 0 0-.769-.108H12.75m3-12.05v-9a.75.75 0 0 0-1.013-.7l-8.25 4.27a.75.75 0 0 0-.487.7v3.98m7.5-4.5h2.25m-3.75 3h3.75m-15 4.5H3m-2.25 3H4.5M8.25 4.156V.751"/><path class="cls-1" d="M8.25 23.25v-12a1.5 1.5 0 0 0-1.5-1.5h-4.5a1.5 1.5 0 0 0-1.5 1.5v12h9"/></svg>