<svg id="Regular" xmlns="http://www.w3.org/2000/svg" viewBox="0 0 24 24" width="24" height="24"><defs><style>.cls-1{fill:none;stroke:#000;stroke-linecap:round;stroke-linejoin:round;stroke-width:1.5px}</style></defs><title>real-estate-update-building-refresh</title><path class="cls-1" d="M8.538.75l4.402 2.935-3.913 3.424"/><path class="cls-1" d="M20.25 18.675a9.783 9.783 0 1 1-8.283-14.99h.973m8.81 9.782a9.819 9.819 0 0 1-.308 2.447M20.25 8.26a9.737 9.737 0 0 1 1.05 2.275m-4.806-5.742a9.75 9.75 0 0 1 1.832 1.24"/><path class="cls-1" d="M9 18h6V9.75a.75.75 0 0 0-.75-.75h-4.5a.75.75 0 0 0-.75.75zm3-6h3m-3 3h3m1.5 3H15m-6 0H7.5"/></svg>