<svg id="Regular" xmlns="http://www.w3.org/2000/svg" viewBox="0 0 24 24" width="24" height="24"><defs><style>.cls-1{fill:none;stroke:#000;stroke-linecap:round;stroke-linejoin:round;stroke-width:1.5px}</style></defs><title>real-estate-location-house-pin</title><path class="cls-1" d="M8.25 4.875a.375.375 0 1 1-.375.375.375.375 0 0 1 .375-.375"/><path class="cls-1" d="M8.25.75a4.5 4.5 0 0 1 4.5 4.5c0 1.921-2.688 5.65-3.909 7.212a.75.75 0 0 1-1.182 0C6.438 10.9 3.75 7.171 3.75 5.25a4.5 4.5 0 0 1 4.5-4.5zm-4.5 16.5v4.5a1.5 1.5 0 0 0 1.5 1.5h6a1.5 1.5 0 0 0 1.5-1.5v-4.5m-8.667-4.5l-3.333 3m15 0l-3.334-3.001M21.75 17.5v5a.75.75 0 0 1-.75.75h-5.25m3-8.25l4.5 3.75"/></svg>