<svg id="Regular" xmlns="http://www.w3.org/2000/svg" viewBox="0 0 24 24" width="24" height="24"><defs><style>.cls-1{fill:none;stroke:#000;stroke-linecap:round;stroke-linejoin:round;stroke-width:1.5px}</style></defs><title>real-estate-settings-building</title><path class="cls-1" d="M10.546 2.438a1.959 1.959 0 0 0 2.908 0l.94-1.042a1.959 1.959 0 0 1 3.411 1.413l-.072 1.4a1.96 1.96 0 0 0 2.057 2.058l1.4-.072a1.959 1.959 0 0 1 1.41 3.411l-1.042.94a1.959 1.959 0 0 0 0 2.908l1.042.94a1.959 1.959 0 0 1-1.413 3.411l-1.4-.072a1.958 1.958 0 0 0-2.057 2.057l.072 1.4a1.959 1.959 0 0 1-3.408 1.41l-.94-1.042a1.959 1.959 0 0 0-2.908 0l-.94 1.042A1.959 1.959 0 0 1 6.2 21.191l.072-1.4a1.96 1.96 0 0 0-2.062-2.058l-1.4.072a1.959 1.959 0 0 1-1.41-3.411l1.042-.94a1.959 1.959 0 0 0 0-2.908L1.4 9.606A1.959 1.959 0 0 1 2.809 6.2l1.4.072A1.961 1.961 0 0 0 6.267 4.21L6.2 2.809A1.959 1.959 0 0 1 9.606 1.4z"/><path class="cls-1" d="M9 15.75h6V7.5a.75.75 0 0 0-.75-.75h-4.5A.75.75 0 0 0 9 7.5zm3-6h3m-3 3h3m1.5 3H15m-6 0H7.5"/></svg>