<svg id="Regular" xmlns="http://www.w3.org/2000/svg" viewBox="0 0 24 24" width="24" height="24"><defs><style>.cls-1{fill:none;stroke:#000;stroke-linecap:round;stroke-linejoin:round;stroke-width:1.5px}</style></defs><title>real-estate-sign-rent-1</title><path class="cls-1" d="M20.999 9.75v-6m-1.5 0h3m-21 6v-6m.001 0h1.124a1.875 1.875 0 0 1 0 3.75H1.5m2.999 2.25L2.249 7.5m11.25 2.25v-6l3 6v-6m-5.999 6H9a1.5 1.5 0 0 1-1.5-1.5v-3A1.5 1.5 0 0 1 9 3.75h1.5m-3.001 3h3m-9.75-6h22.5m.001 12H.75m11.25 0V21M.75 23.25a29.25 29.25 0 0 1 22.5 0"/></svg>