<svg id="Regular" xmlns="http://www.w3.org/2000/svg" viewBox="0 0 24 24" width="24" height="24"><defs><style>.cls-1{fill:none;stroke:#000;stroke-linecap:round;stroke-linejoin:round;stroke-width:1.5px}</style></defs><title>real-estate-deal-pay-house</title><path class="cls-1" d="M12.75.75h4.5a3 3 0 0 1 3 3v3"/><path class="cls-1" d="M18 4.5l2.25 2.25L22.5 4.5m-12 18.75H6a3 3 0 0 1-3-3v-3"/><path class="cls-1" d="M5.25 19.5L3 17.25.75 19.5m18-5.25h-2.033a1.342 1.342 0 0 0-.5 2.587l2.064.826a1.342 1.342 0 0 1-.5 2.587H15.75m1.5-6v-.75m0 7.5v-.75"/><circle class="cls-1" cx="17.25" cy="17.25" r="6"/><path class="cls-1" d="M.747 4.5l4.5-3.75 4.5 3.75"/></svg>