<svg id="Regular" xmlns="http://www.w3.org/2000/svg" viewBox="0 0 24 24" width="24" height="24"><defs><style>.cls-1{fill:none;stroke:#000;stroke-linecap:round;stroke-linejoin:round;stroke-width:1.5px}</style></defs><title>real-estate-action-building-megaphone</title><path class="cls-1" d="M15.75 8.25V1.5a.75.75 0 0 0-1.013-.7l-8.25 4.27a.75.75 0 0 0-.487.7v3.98m7.5-4.5h2.25m-3.75 3h3.75m-15 4.5H3m-2.25 3H4.5M8.25 4.156V.751"/><path class="cls-1" d="M8.25 14.25v-3a1.5 1.5 0 0 0-1.5-1.5h-4.5a1.5 1.5 0 0 0-1.5 1.5v12h9"/><path class="cls-1" d="M9.913 16.712a2.308 2.308 0 0 0-.946 3.128h.006a2.328 2.328 0 0 0 3.144.953l.349-.189c6.067-3.268 7.053-2.875 10.784-3.127L18.894 9.3c-2.494 3.284-2.594 3.937-8.981 7.412z"/><path class="cls-1" d="M11.745 15.694l2.99 6.329a2.317 2.317 0 0 0 3.133.955"/></svg>