<svg id="Regular" xmlns="http://www.w3.org/2000/svg" viewBox="0 0 24 24" width="24" height="24"><defs><style>.cls-1{fill:none;stroke:#000;stroke-linecap:round;stroke-linejoin:round;stroke-width:1.5px}</style></defs><title>real-estate-sign-building-sold</title><path class="cls-1" d="M9 17.25a1.5 1.5 0 0 0-1.5 1.5v3a1.5 1.5 0 0 0 3 0v-3a1.5 1.5 0 0 0-1.5-1.5zm4.5 0v4.5a1.5 1.5 0 0 0 1.5 1.5h1.5m-12-6H3a1.375 1.375 0 0 0-1.5 1.2c0 1.8 3 1.8 3 3.6a1.375 1.375 0 0 1-1.5 1.2H1.5m18 0a2.751 2.751 0 0 0 3-2.4v-1.2a2.75 2.75 0 0 0-3-2.4zm-15.75-9V1.5A.75.75 0 0 1 4.763.8l8.25 4.27a.75.75 0 0 1 .487.7v8.48M6 5.251H3.75m3.75 3H3.75m13.5 1.499H13.5m3.75 3H13.5M9.75 3.379V.751"/><path class="cls-1" d="M13.5 6.75h6a1.5 1.5 0 0 1 1.5 1.5v6"/></svg>