<svg id="Regular" xmlns="http://www.w3.org/2000/svg" viewBox="0 0 24 24" width="24" height="24"><defs><style>.cls-1{fill:none;stroke:#000;stroke-linecap:round;stroke-linejoin:round;stroke-width:1.5px}</style></defs><title>real-estate-update-house-refresh</title><path class="cls-1" d="M8.353.75l4.402 2.935-3.913 3.424"/><path class="cls-1" d="M20.066 18.675a9.783 9.783 0 1 1-8.283-14.99h.972m8.81 9.782a9.819 9.819 0 0 1-.308 2.447M20.065 8.26a9.737 9.737 0 0 1 1.053 2.275M16.31 4.793a9.775 9.775 0 0 1 1.831 1.24"/><path class="cls-1" d="M14.815 15.75V18a.75.75 0 0 1-.75.75h-4.5a.75.75 0 0 1-.75-.75v-2.25m-1.5-2.25l4.5-3.75 4.5 3.75"/></svg>