<svg id="Regular" xmlns="http://www.w3.org/2000/svg" viewBox="0 0 24 24" width="24" height="24"><defs><style>.cls-1{fill:none;stroke:#000;stroke-linecap:round;stroke-linejoin:round;stroke-width:1.5px}</style></defs><title>real-estate-action-house-shield</title><path class="cls-1" d="M8.25 19.75h-3a1.5 1.5 0 0 1-1.5-1.5v-7.5m-3-1.5l8.781-7.43a1.5 1.5 0 0 1 1.938 0l7.279 6.159M15.75 1.75h3v3m4.5 10.5a7.669 7.669 0 0 1-6 7.5 7.669 7.669 0 0 1-6-7.5v-3a1.5 1.5 0 0 1 1.5-1.5h9a1.5 1.5 0 0 1 1.5 1.5zm-6-.75V19M15 16.75h4.5"/></svg>