<svg id="Regular" xmlns="http://www.w3.org/2000/svg" viewBox="0 0 24 24" width="24" height="24"><defs><style>.cls-1{fill:none;stroke:#000;stroke-linecap:round;stroke-linejoin:round;stroke-width:1.5px}</style></defs><title>real-estate-favorite-house-rating</title><path class="cls-1" d="M12.531 1.076l1.248 2.457h2.127a.583.583 0 0 1 .419 1l-1.952 1.919 1.081 2.485a.589.589 0 0 1-.839.736L12 8.2 9.385 9.673a.589.589 0 0 1-.839-.736l1.082-2.485L7.675 4.53a.583.583 0 0 1 .419-1h2.127l1.249-2.454a.594.594 0 0 1 1.061 0zM5.25 2.25a.588.588 0 0 0-.53.326L3.471 5.033H1.344a.583.583 0 0 0-.419 1l1.953 1.919L1.8 10.437a.589.589 0 0 0 .839.736L5.25 9.7l.692.389M18.75 2.25a.59.59 0 0 1 .531.326l1.248 2.457h2.127a.583.583 0 0 1 .419 1l-1.953 1.919 1.078 2.485a.589.589 0 0 1-.839.736L18.75 9.7l-.692.389M7.5 18.235v3.518a1.5 1.5 0 0 0 1.5 1.5h6a1.5 1.5 0 0 0 1.5-1.5v-3.518m3-.75L13 11.638a1.5 1.5 0 0 0-2.006 0L4.5 17.485"/></svg>