<svg id="Regular" xmlns="http://www.w3.org/2000/svg" viewBox="0 0 24 24" width="24" height="24"><defs><style>.cls-1{fill:none;stroke:#000;stroke-linecap:round;stroke-linejoin:round;stroke-width:1.5px}</style></defs><title>real-estate-neighbourhood</title><path class="cls-1" d="M15 3.75v5a.75.75 0 0 1-.75.75h-4.5A.75.75 0 0 1 9 8.75v-5"/><path class="cls-1" d="M7.5 5L12 1.25 16.5 5m5.25 12.25v5A.75.75 0 0 1 21 23h-4.5a.75.75 0 0 1-.75-.75v-5"/><path class="cls-1" d="M14.25 18.5l4.5-3.75 4.5 3.75m-15-1.25v5a.75.75 0 0 1-.75.75H3a.75.75 0 0 1-.75-.75v-5"/><path class="cls-1" d="M.75 18.5l4.5-3.75 4.5 3.75"/></svg>