<svg id="Regular" xmlns="http://www.w3.org/2000/svg" viewBox="0 0 24 24" width="24" height="24"><defs><style>.cls-1{fill:none;stroke:#000;stroke-linecap:round;stroke-linejoin:round;stroke-width:1.5px}</style></defs><title>real-estate-action-house-lock</title><path class="cls-1" d="M10.5 19.5H6A1.5 1.5 0 0 1 4.5 18v-7.5M1.5 9l8.781-7.43a1.5 1.5 0 0 1 1.938 0l7.3 6.177M16.5 1.5h3v3"/><rect class="cls-1" x="13.5" y="15" width="9" height="7.5" rx="1" ry="1"/><path class="cls-1" d="M18 10.5a3 3 0 0 0-3 3V15h6v-1.5a3 3 0 0 0-3-3zm0 7.9a.375.375 0 1 1-.375.375A.375.375 0 0 1 18 18.4"/></svg>