<svg id="Regular" xmlns="http://www.w3.org/2000/svg" viewBox="0 0 24 24" width="24" height="24"><defs><style>.cls-1{fill:none;stroke:#000;stroke-linecap:round;stroke-linejoin:round;stroke-width:1.5px}</style></defs><title>real-estate-sign-sold</title><path class="cls-1" d="M9 3.75a1.5 1.5 0 0 0-1.5 1.5v3a1.5 1.5 0 1 0 3 0v-3A1.5 1.5 0 0 0 9 3.75zm4.5 0v4.5a1.5 1.5 0 0 0 1.5 1.5h1.5m-12-6H3a1.375 1.375 0 0 0-1.5 1.2c0 1.8 3 1.8 3 3.6A1.375 1.375 0 0 1 3 9.75H1.5m18 0a2.751 2.751 0 0 0 3-2.4v-1.2a2.75 2.75 0 0 0-3-2.4zm-7.5 3V21M.75 23.25a29.25 29.25 0 0 1 22.5 0M.75.75h22.5m0 12H.75"/></svg>