<svg id="Regular" xmlns="http://www.w3.org/2000/svg" viewBox="0 0 24 24" width="24" height="24"><defs><style>.cls-1{fill:none;stroke:#000;stroke-linecap:round;stroke-linejoin:round;stroke-width:1.5px}</style></defs><title>real-estate-action-house-location</title><path class="cls-1" d="M9.75 19.5h-4.5a1.5 1.5 0 0 1-1.5-1.5v-7.5M.75 9l8.781-7.43a1.5 1.5 0 0 1 1.938 0l7.3 6.177M15.75 1.5h3v3m-8.189 6.245l5.216 11.393a.682.682 0 0 0 1.253-.122l1.527-4.209 4.209-1.527a.682.682 0 0 0 .122-1.253L11.5 9.811a.716.716 0 0 0-.939.934z"/></svg>