<svg id="Regular" xmlns="http://www.w3.org/2000/svg" viewBox="0 0 24 24" width="24" height="24"><defs><style>.cls-1{fill:none;stroke:#000;stroke-linecap:round;stroke-linejoin:round;stroke-width:1.5px}</style></defs><title>real-estate-favorite-hands-heart</title><path class="cls-1" d="M3.75 23l-2.014-2.517a4.5 4.5 0 0 1-.986-2.812V12.5a1.5 1.5 0 0 1 1.5-1.5 1.5 1.5 0 0 1 1.5 1.5v3.75"/><path class="cls-1" d="M8.25 22.864v-3a4.493 4.493 0 0 0-.757-2.5l-1.142-1.71a1.4 1.4 0 0 0-1.977-.445A1.4 1.4 0 0 0 3.9 17l1.35 2.25m15 3.75l2.014-2.517a4.5 4.5 0 0 0 .986-2.812V12.5a1.5 1.5 0 0 0-1.5-1.5 1.5 1.5 0 0 0-1.5 1.5v3.75"/><path class="cls-1" d="M15.75 22.864v-3a4.493 4.493 0 0 1 .757-2.5l1.142-1.712a1.4 1.4 0 0 1 1.977-.445A1.4 1.4 0 0 1 20.1 17l-1.35 2.25m-14.727-12l7.008-5.93a1.5 1.5 0 0 1 1.938 0l7.011 5.932m-4.05 1.337a1.9 1.9 0 0 0-2.751 0L12 9.808l-1.179-1.219a1.9 1.9 0 0 0-2.751 0 2.06 2.06 0 0 0 0 2.845l3.511 3.631a.579.579 0 0 0 .838 0l3.511-3.631a2.06 2.06 0 0 0 0-2.845z"/></svg>