<svg id="Regular" xmlns="http://www.w3.org/2000/svg" viewBox="0 0 24 24" width="24" height="24"><defs><style>.cls-1{fill:none;stroke:#000;stroke-linecap:round;stroke-linejoin:round;stroke-width:1.5px}</style></defs><title>real-estate-action-house-warning</title><path class="cls-1" d="M8.25 19.5h-3a1.5 1.5 0 0 1-1.5-1.5v-7.5M.75 9l8.781-7.43a1.5 1.5 0 0 1 1.938 0l7.284 6.164M15.75 1.5h3v3m-1.5 15a.375.375 0 1 1-.375.375.375.375 0 0 1 .375-.375m0-2.25v-3"/><path class="cls-1" d="M23.063 19.932a1.774 1.774 0 0 1-1.587 2.568h-8.452a1.774 1.774 0 0 1-1.587-2.568l4.226-8.451a1.774 1.774 0 0 1 3.174 0z"/></svg>