<svg id="Regular" xmlns="http://www.w3.org/2000/svg" viewBox="0 0 24 24" width="24" height="24"><defs><style>.cls-1{fill:none;stroke:#000;stroke-linecap:round;stroke-linejoin:round;stroke-width:1.5px}</style></defs><title>real-estate-dimensions-plan-1</title><path class="cls-1" d="M13.5 11.25V22.5a.75.75 0 0 1-.75.75H1.5a.75.75 0 0 1-.75-.75V12a.75.75 0 0 1 .75-.75h5.25m-2.25 0V1.5a.75.75 0 0 1 .75-.75h10.5a.75.75 0 0 1 .75.75v9a.75.75 0 0 1-.75.75h-4.5"/><path class="cls-1" d="M16.5 6h6a.75.75 0 0 1 .75.75v9a.75.75 0 0 1-.75.75h-9m-12.75.75H6v6m0-3H.75"/></svg>