<svg id="Regular" xmlns="http://www.w3.org/2000/svg" viewBox="0 0 24 24" width="24" height="24"><defs><style>.cls-1{fill:none;stroke:#000;stroke-linecap:round;stroke-linejoin:round;stroke-width:1.5px}</style></defs><title>real-estate-market-building-fall</title><path class="cls-1" d="M15.75 19.5v3.75H12"/><path class="cls-1" d="M.75 14.25l3.97 3.97a.749.749 0 0 0 1.06 0l1.94-1.94a.749.749 0 0 1 1.06 0l6.97 6.97m-7.5-10.5V1.5A.75.75 0 0 1 9.263.8l8.25 4.27a.75.75 0 0 1 .487.7v3.98m-7.5-4.5H8.25m3.75 3H8.25m15 4.5H21m2.25 3H19.5M15.75 4.156V.751"/><path class="cls-1" d="M15.75 16.5v-5.25a1.5 1.5 0 0 1 1.5-1.5h4.5a1.5 1.5 0 0 1 1.5 1.5v12h-3"/></svg>