<svg id="Regular" xmlns="http://www.w3.org/2000/svg" viewBox="0 0 24 24" width="24" height="24"><defs><style>.cls-1{fill:none;stroke:#000;stroke-linecap:round;stroke-linejoin:round;stroke-width:1.5px}</style></defs><title>real-estate-message-chat-building</title><path class="cls-1" d="M17.25 15.75h-6l-6 4.5v-4.5h-3a1.5 1.5 0 0 1-1.5-1.5v-12a1.5 1.5 0 0 1 1.5-1.5h15a1.5 1.5 0 0 1 1.5 1.5v12a1.5 1.5 0 0 1-1.5 1.5z"/><path class="cls-1" d="M21 8.25h.75a1.5 1.5 0 0 1 1.5 1.5v7.5a1.5 1.5 0 0 1-1.5 1.5h-1.5v4.5l-4.5-4.5H12m-5.25-6h6V4.5a.75.75 0 0 0-.75-.75H7.5a.75.75 0 0 0-.75.75zm3-6h3m-3 3h3m1.5 3h-1.5m-6 0h-1.5"/></svg>