<svg id="Regular" xmlns="http://www.w3.org/2000/svg" viewBox="0 0 24 24" width="24" height="24"><defs><style>.cls-1{fill:none;stroke:#000;stroke-linecap:round;stroke-linejoin:round;stroke-width:1.5px}</style></defs><title>real-estate-couple-search-house</title><path class="cls-1" d="M5.25 3a1.5 1.5 0 0 0-1.5 1.5v6a1.5 1.5 0 0 0 1.5 1.5h5.25v4.5L15 12h3.75a1.5 1.5 0 0 0 1.5-1.5v-6a1.5 1.5 0 0 0-1.5-1.5"/><circle class="cls-1" cx="4.5" cy="17.625" r="2.625"/><path class="cls-1" d="M8.25 23.25a4.25 4.25 0 0 0-7.5 0"/><circle class="cls-1" cx="19.5" cy="17.625" r="2.625"/><path class="cls-1" d="M23.25 23.25a4.25 4.25 0 0 0-7.5 0m-.75-20v5a.75.75 0 0 1-.75.75h-4.5A.75.75 0 0 1 9 8.25v-5"/><path class="cls-1" d="M7.5 4.5L12 .75l4.5 3.75"/></svg>