<svg id="Regular" xmlns="http://www.w3.org/2000/svg" viewBox="0 0 24 24" width="24" height="24"><defs><style>.cls-1{fill:none;stroke:#000;stroke-linecap:round;stroke-linejoin:round;stroke-width:1.5px}</style></defs><title>real-estate-action-building-pin</title><path class="cls-1" d="M15.75 8.25V1.5a.75.75 0 0 0-1.013-.7l-8.25 4.27a.75.75 0 0 0-.487.7v3.98m7.5-4.5h2.25m-3.75 3h3.75m-15 4.5H3m-2.25 3H4.5M8.25 4.156V.751"/><path class="cls-1" d="M8.25 23.25v-12a1.5 1.5 0 0 0-1.5-1.5h-4.5a1.5 1.5 0 0 0-1.5 1.5v12h12m6-7.875a.375.375 0 1 1-.375.375.375.375 0 0 1 .375-.375"/><path class="cls-1" d="M18.75 11.25a4.5 4.5 0 0 1 4.5 4.5c0 1.921-2.688 5.65-3.909 7.212a.75.75 0 0 1-1.182 0c-1.221-1.562-3.909-5.291-3.909-7.212a4.5 4.5 0 0 1 4.5-4.5z"/></svg>