<svg id="Regular" xmlns="http://www.w3.org/2000/svg" viewBox="0 0 24 24" width="24" height="24"><defs><style>.cls-1{fill:none;stroke:#000;stroke-linecap:round;stroke-linejoin:round;stroke-width:1.5px}</style></defs><title>real-estate-sign-building-rent</title><path class="cls-1" d="M21 23.25v-6m-1.5 0h3m-21 6v-6m0 0h1.125a1.875 1.875 0 0 1 0 3.75H1.5m3 2.25L2.25 21m11.25 2.25v-6l3 6v-6m-6 6H9a1.5 1.5 0 0 1-1.5-1.5v-3a1.5 1.5 0 0 1 1.5-1.5h1.5m-3 3h3m-6.75-6V1.5A.75.75 0 0 1 4.763.8l8.25 4.27a.75.75 0 0 1 .487.7v8.48M6 5.251H3.75m3.75 3H3.75m13.5 1.499H13.5m3.75 3H13.5M9.75 3.379V.751"/><path class="cls-1" d="M13.5 6.75h6a1.5 1.5 0 0 1 1.5 1.5v6"/></svg>