<svg id="Regular" xmlns="http://www.w3.org/2000/svg" viewBox="0 0 24 24" width="24" height="24"><defs><style>.cls-1{fill:none;stroke:#000;stroke-linecap:round;stroke-linejoin:round;stroke-width:1.5px}</style></defs><title>real-estate-settings-building-2</title><path class="cls-1" d="M21.562 10.546a1.959 1.959 0 0 0 0 2.908l1.042.94a1.959 1.959 0 0 1-1.413 3.411l-1.4-.072a1.96 1.96 0 0 0-2.057 2.057l.072 1.4a1.959 1.959 0 0 1-3.412 1.41l-.94-1.042a1.959 1.959 0 0 0-2.908 0l-.94 1.042A1.959 1.959 0 0 1 6.2 21.191l.072-1.4a1.958 1.958 0 0 0-2.062-2.058l-1.4.072a1.959 1.959 0 0 1-1.41-3.411l1.042-.94a1.959 1.959 0 0 0 0-2.908M15.438 13.5a3.752 3.752 0 0 1-6.876 0m.438-3h6v-9a.75.75 0 0 0-.75-.75h-4.5A.75.75 0 0 0 9 1.5zm3-6h3m-3 3h3m1.5 3H15m-6 0H7.5"/></svg>