<svg id="Regular" xmlns="http://www.w3.org/2000/svg" viewBox="0 0 24 24" width="24" height="24"><defs><style>.cls-1{fill:none;stroke:#000;stroke-linecap:round;stroke-linejoin:round;stroke-width:1.5px}</style></defs><title>real-estate-sign-board-sold-1</title><path class="cls-1" d="M18.75 14v8.25M1.5 2h21m-21 12h21M9 5a1.5 1.5 0 0 0-1.5 1.5v3a1.5 1.5 0 0 0 3 0v-3A1.5 1.5 0 0 0 9 5zm4.5 0v4.5A1.5 1.5 0 0 0 15 11h1.5m-12-6H3a1.375 1.375 0 0 0-1.5 1.2c0 1.8 3 1.8 3 3.6A1.375 1.375 0 0 1 3 11H1.5m18 0a2.75 2.75 0 0 0 3-2.4V7.4a2.751 2.751 0 0 0-3-2.4zM5.25 14v8.25"/></svg>