<svg id="Regular" xmlns="http://www.w3.org/2000/svg" viewBox="0 0 24 24" width="24" height="24"><defs><style>.cls-1{fill:none;stroke:#000;stroke-linecap:round;stroke-linejoin:round;stroke-width:1.5px}</style></defs><title>real-estate-sign-house-sale</title><path class="cls-1" d="M14.25 16.75v4.5a1.5 1.5 0 0 0 1.5 1.5h1.5m-12-6h-1.5a1.375 1.375 0 0 0-1.5 1.2c0 1.8 3 1.8 3 3.6a1.375 1.375 0 0 1-1.5 1.2h-1.5m6 0v-4.5a1.5 1.5 0 0 1 3 0v4.5m-3-3h3m12 3h-1.5a1.5 1.5 0 0 1-1.5-1.5v-3a1.5 1.5 0 0 1 1.5-1.5h1.5m-3 3h3m-19.5-6v-3m13.5 0v3M.75 9.25L10.5 1l9.75 8.25m-4.5-7.5h3v3"/></svg>