<svg id="Regular" xmlns="http://www.w3.org/2000/svg" viewBox="0 0 24 24" width="24" height="24"><defs><style>.cls-1{fill:none;stroke:#000;stroke-linecap:round;stroke-linejoin:round;stroke-width:1.5px}</style></defs><title>real-estate-settings-house-wrench</title><path class="cls-1" d="M11.25 14.782v6.968a1.5 1.5 0 0 0 1.5 1.5h6a1.5 1.5 0 0 0 1.5-1.5v-6.968"/><path class="cls-1" d="M23.25 17.482l-6.5-5.847a1.5 1.5 0 0 0-2.007 0l-6.5 5.847m13.507-1.35V12m-15 3V9.474a4.436 4.436 0 0 0 2.443-6.349S7.146 5.217 6.929 5.5a1.374 1.374 0 0 1-2.054.13 1.374 1.374 0 0 1 .13-2.054c.278-.217 2.37-2.265 2.37-2.265a4.363 4.363 0 0 0-3.793-.227 4.478 4.478 0 0 0 .168 8.4V21.75a1.5 1.5 0 0 0 1.5 1.5 1.5 1.5 0 0 0 1.5-1.5v-1.5"/></svg>