<svg id="Regular" xmlns="http://www.w3.org/2000/svg" viewBox="0 0 24 24" width="24" height="24"><defs><style>.cls-1{fill:none;stroke:#000;stroke-linecap:round;stroke-linejoin:round;stroke-width:1.5px}</style></defs><title>real-estate-app-building-laptop-1</title><path class="cls-1" d="M2.25 14.25V3.75a1.5 1.5 0 0 1 1.5-1.5h16.5a1.5 1.5 0 0 1 1.5 1.5v10.5m-7.166 3a2.976 2.976 0 0 1-5.168 0H.75v1.5a3 3 0 0 0 3 3h16.5a3 3 0 0 0 3-3v-1.5zM9 14.25H7.5"/><path class="cls-1" d="M9 14.25h6V6a.75.75 0 0 0-.75-.75h-4.5A.75.75 0 0 0 9 6zm3-6h3m-3 3h3m1.5 3H15"/></svg>