<svg id="Regular" xmlns="http://www.w3.org/2000/svg" viewBox="0 0 24 24" width="24" height="24"><defs><style>.cls-1{fill:none;stroke:#000;stroke-linecap:round;stroke-linejoin:round;stroke-width:1.5px}</style></defs><title>real-estate-action-building-heart</title><path class="cls-1" d="M15.75 9.75V1.5a.75.75 0 0 0-1.013-.7l-8.25 4.27a.75.75 0 0 0-.487.7v3.98m7.5-4.5h2.25m-3.75 3h3.75m-15 4.5H3m-2.25 3H4.5M8.25 4.156V.751m0 22.499v-12a1.5 1.5 0 0 0-1.5-1.5h-4.5a1.5 1.5 0 0 0-1.5 1.5v12h9m7.5 0l-5.114-5.335a3.025 3.025 0 0 1-.567-3.492 3.026 3.026 0 0 1 4.846-.786l.835.835.835-.835a3.026 3.026 0 0 1 4.846.786 3.025 3.025 0 0 1-.567 3.492z"/></svg>