<svg id="Regular" xmlns="http://www.w3.org/2000/svg" viewBox="0 0 24 24" width="24" height="24"><defs><style>.cls-1{fill:none;stroke:#000;stroke-linecap:round;stroke-linejoin:round;stroke-width:1.5px}</style></defs><title>real-estate-action-house-wrench</title><path class="cls-1" d="M20.25 10.75v10.5a1.5 1.5 0 0 1-1.5 1.5H5.25a1.5 1.5 0 0 1-1.5-1.5v-10.5m-3-1.5l10.363-7.6a1.5 1.5 0 0 1 1.774 0l10.363 7.6m-4.5-7.5h3v3"/><path class="cls-1" d="M13.5 19.75v-2.526a4.438 4.438 0 0 0 2.444-6.35s-2.048 2.092-2.265 2.37a1.373 1.373 0 0 1-2.054.13 1.373 1.373 0 0 1 .13-2.053c.278-.218 2.37-2.265 2.37-2.265a4.36 4.36 0 0 0-3.793-.228 4.479 4.479 0 0 0 .168 8.4v2.522"/></svg>