<svg id="Regular" xmlns="http://www.w3.org/2000/svg" viewBox="0 0 24 24" width="24" height="24"><defs><style>.cls-1{fill:none;stroke:#000;stroke-linecap:round;stroke-linejoin:round;stroke-width:1.5px}</style></defs><title>real-estate-person-search-house</title><path class="cls-1" d="M12.75 15.75h3v4.5l4.5-4.5h1.494a1.506 1.506 0 0 0 1.506-1.506V2.25a1.5 1.5 0 0 0-1.5-1.5h-12a1.5 1.5 0 0 0-1.5 1.5v4.5"/><circle class="cls-1" cx="6.75" cy="13.125" r="3.375"/><path class="cls-1" d="M12.75 23.25a6.054 6.054 0 0 0-12 0m18-17v5A.75.75 0 0 1 18 12h-4.5a.75.75 0 0 1-.75-.75v-5"/><path class="cls-1" d="M11.25 7.5l4.5-3.75 4.5 3.75"/></svg>