<svg id="Regular" xmlns="http://www.w3.org/2000/svg" viewBox="0 0 24 24" width="24" height="24"><defs><style>.cls-1{fill:none;stroke:#000;stroke-linecap:round;stroke-linejoin:round;stroke-width:1.5px}</style></defs><title>real-estate-dimensions-plan</title><path class="cls-1" d="M10.25 15H16a.5.5 0 0 1 .5.5v7.75H9.75V15.5a.5.5 0 0 1 .5-.5z"/><path class="cls-1" d="M16.5 23.25h5.25v-12a.75.75 0 0 0-.75-.75h-6.75a.75.75 0 0 0-.75.75V15m-3.75 8.25h-1.5m15 0h-1.5M13.5 18h3m3-3h2.25m-2.25 3h2.25m-2.25-7.5V8.25"/><path class="cls-1" d="M23.25 1.5a.75.75 0 0 0-.75-.75h-21a.75.75 0 0 0-.75.75v21a.75.75 0 0 0 .75.75h3a.75.75 0 0 0 .75-.75V5.25H22.5a.75.75 0 0 0 .75-.75zm-19.5 9.75h1.5m-1.5 6h1.5m6-12v-1.5m6 1.5v-1.5"/><path class="cls-1" d="M.75 5.25h4.5V.75"/></svg>