<svg id="Regular" xmlns="http://www.w3.org/2000/svg" viewBox="0 0 24 24" width="24" height="24"><defs><style>.cls-1{fill:none;stroke:#000;stroke-linecap:round;stroke-linejoin:round;stroke-width:1.5px}</style></defs><title>real-estate-message-person-building-1</title><circle class="cls-1" cx="4.5" cy="6.75" r="3"/><path class="cls-1" d="M8.25 17.25V15a3.75 3.75 0 0 0-7.5 0v2.25h1.5l.75 6h3l.75-6zm3-1.5h3v4.5l4.5-4.5h3a1.5 1.5 0 0 0 1.5-1.5v-12a1.5 1.5 0 0 0-1.5-1.5h-12a1.5 1.5 0 0 0-1.5 1.5"/><path class="cls-1" d="M12.75 12.75h6V4.5a.75.75 0 0 0-.75-.75h-4.5a.75.75 0 0 0-.75.75zm3-6h3m-3 3h3m1.5 3h-1.5m-6 0h-1.5"/></svg>