<svg id="Regular" xmlns="http://www.w3.org/2000/svg" viewBox="0 0 24 24" width="24" height="24"><defs><style>.cls-1{fill:none;stroke:#000;stroke-linecap:round;stroke-linejoin:round;stroke-width:1.5px}</style></defs><title>real-estate-building-house</title><path class="cls-1" d="M11.25 14.781v6.968a1.5 1.5 0 0 0 1.5 1.5h6a1.5 1.5 0 0 0 1.5-1.5v-6.968"/><path class="cls-1" d="M23.25 17.481l-6.5-5.847a1.5 1.5 0 0 0-2.006 0l-6.5 5.847"/><path class="cls-1" d="M8.25 23.25h-6V1.5A.749.749 0 0 1 3.263.8l10.5 4.27a.748.748 0 0 1 .487.7v2.48m-12 15H.75M4.5 6H2.25M6 9H2.25m6 3h-6m8.25-8.26V.75"/></svg>