<svg id="Regular" xmlns="http://www.w3.org/2000/svg" viewBox="0 0 24 24" width="24" height="24"><defs><style>.cls-1{fill:none;stroke:#000;stroke-linecap:round;stroke-linejoin:round;stroke-width:1.5px}</style></defs><title>real-estate-insurance-dollar-hand</title><path class="cls-1" d="M.75 14.25v9m15-1.5a3 3 0 0 0-3-3H9a3 3 0 0 0-3-3H.75v6zm-9.75-3h3M10.5 9v5.25a1.5 1.5 0 0 0 1.5 1.5h7.5a1.5 1.5 0 0 0 1.5-1.5V9m2.25-2.018l-6.5-5.847a1.5 1.5 0 0 0-2.006 0L8.25 6.982"/><path class="cls-1" d="M17.25 6h-2.408a1.342 1.342 0 0 0-.5 2.587l2.814.826a1.342 1.342 0 0 1-.5 2.587H14.25m1.5-6v-.75m0 7.5V12"/></svg>