<svg id="Regular" xmlns="http://www.w3.org/2000/svg" viewBox="0 0 24 24" width="24" height="24"><defs><style>.cls-1{fill:none;stroke:#000;stroke-linecap:round;stroke-linejoin:round;stroke-width:1.5px}</style></defs><title>real-estate-action-house-settings-1</title><path class="cls-1" d="M20.25 10.5V21a1.5 1.5 0 0 1-1.5 1.5H5.25a1.5 1.5 0 0 1-1.5-1.5V10.5M.75 9l10.363-7.6a1.5 1.5 0 0 1 1.774 0L23.25 9m-4.5-7.5h3v3"/><circle class="cls-1" cx="12" cy="14.25" r="2.7"/><path class="cls-1" d="M12 11.55v-1.8m0 9v-1.8m2.7-2.7h1.8m-9 0h1.8m-.064 3.182l1.075-1.075m-1.075-5.289l1.075 1.075m4.453 5.289l-1.075-1.075m1.075-5.289l-1.075 1.075"/></svg>