<svg id="Regular" xmlns="http://www.w3.org/2000/svg" viewBox="0 0 24 24" width="24" height="24"><defs><style>.cls-1{fill:none;stroke:#000;stroke-linecap:round;stroke-linejoin:round;stroke-width:1.5px}</style></defs><title>real-estate-action-house-percent</title><path class="cls-1" d="M8.25 19.535h-3a1.5 1.5 0 0 1-1.5-1.5v-7.5m-3-1.5l8.781-7.43a1.5 1.5 0 0 1 1.938 0l7.284 6.164M15.75 1.535h3v3"/><circle class="cls-1" cx="17.25" cy="16.535" r="6"/><path class="cls-1" d="M15 18.784l4.5-4.499M15 13.91a.375.375 0 1 1-.375.375.375.375 0 0 1 .375-.375m4.5 4.5a.375.375 0 1 1-.375.375.375.375 0 0 1 .375-.375"/></svg>