<svg id="Regular" xmlns="http://www.w3.org/2000/svg" viewBox="0 0 24 24" width="24" height="24"><defs><style>.cls-1{fill:none;stroke:#000;stroke-linecap:round;stroke-linejoin:round;stroke-width:1.5px}</style></defs><title>real-estate-market-calculator-building</title><path class="cls-1" d="M21.75 14.25a1.5 1.5 0 0 1 1.5 1.5v6.15a1.347 1.347 0 0 1-1.35 1.35H6.6a1.347 1.347 0 0 1-1.35-1.35v-6.15a1.5 1.5 0 0 1 1.5-1.5zm-7.5 0v9m-4.5-6v3m-1.5-1.5h3m6 0h3"/><path class="cls-1" d="M.75 23.25V1.5A.75.75 0 0 1 1.763.8l8.25 4.27a.75.75 0 0 1 .487.7v5.481m-7.5-6H.75m3.75 3H.75m6 2.999h-6m6-7.871V.751M10.5 6.75h6a1.5 1.5 0 0 1 1.5 1.5v3"/></svg>