<svg id="Regular" xmlns="http://www.w3.org/2000/svg" viewBox="0 0 24 24" width="24" height="24"><defs><style>.cls-1{fill:none;stroke:#000;stroke-linecap:round;stroke-linejoin:round;stroke-width:1.5px}</style></defs><title>real-estate-market-building</title><path class="cls-1" d="M11.75 15h5.75a.5.5 0 0 1 .5.5v7.75h-6.75V15.5a.5.5 0 0 1 .5-.5z"/><path class="cls-1" d="M18 23.25h5.25v-12a.75.75 0 0 0-.75-.75h-6.75a.75.75 0 0 0-.75.75V15m-3.75 8.25h-1.5M15 18h3m3-3h2.25M21 18h2.25M10.5.75v4.5M1.223 7.5l4.282 1.385M7.8 15a5.25 5.25 0 1 1 7.011-7.5M7.5 19.78A9.752 9.752 0 1 1 19.78 7.5"/></svg>