<svg id="Regular" xmlns="http://www.w3.org/2000/svg" viewBox="0 0 24 24" width="24" height="24"><defs><style>.cls-1{fill:none;stroke:#000;stroke-linecap:round;stroke-linejoin:round;stroke-width:1.5px}</style></defs><title>real-estate-dimensions-building</title><path class="cls-1" d="M3 23.25V7.5M.75 21L3 23.25 5.25 21m0-11.25L3 7.5.75 9.75M7.5 3h15.75M9.75.75L7.5 3l2.25 2.25m11.25 0L23.25 3 21 .75M10.25 15H16a.5.5 0 0 1 .5.5v7.75H9.75V15.5a.5.5 0 0 1 .5-.5z"/><path class="cls-1" d="M16.5 23.25h5.25V9.75A.75.75 0 0 0 21 9h-6.75a.75.75 0 0 0-.75.75V15m-3.75 8.25h-1.5m15 0h-1.5M13.5 18h3m3-6h2.25m-2.25 3h2.25"/></svg>