<svg id="Regular" xmlns="http://www.w3.org/2000/svg" viewBox="0 0 24 24" width="24" height="24"><defs><style>.cls-1{fill:none;stroke:#000;stroke-linecap:round;stroke-linejoin:round;stroke-width:1.5px}</style></defs><title>real-estate-truck-house</title><path class="cls-1" d="M21.75 8a1.5 1.5 0 0 1 1.5 1.5v9a1.5 1.5 0 0 1-1.5 1.5h-.88M8.25 17.575V9.5A1.5 1.5 0 0 1 9.75 8m-1.5 3H6.177a1.5 1.5 0 0 0-1.342.829L3.75 14l-1.864.466A1.5 1.5 0 0 0 .75 15.921V18.5a1.5 1.5 0 0 0 1.5 1.5h2.38"/><circle class="cls-1" cx="6.75" cy="19.25" r="2.25"/><circle class="cls-1" cx="18.75" cy="19.25" r="2.25"/><path class="cls-1" d="M8.87 20h7.758M18.75 4.5v5a.75.75 0 0 1-.75.75h-4.5a.75.75 0 0 1-.75-.75v-5"/><path class="cls-1" d="M11.25 5.75L15.75 2l4.5 3.75"/></svg>