<svg id="Regular" xmlns="http://www.w3.org/2000/svg" viewBox="0 0 24 24" width="24" height="24"><defs><style>.cls-1{fill:none;stroke:#000;stroke-linecap:round;stroke-linejoin:round;stroke-width:1.5px}</style></defs><title>real-estate-sign-board-sold</title><path class="cls-1" d="M1.5 8.5h21m-21 12h21m-15-12l3.9-5.2a.75.75 0 0 1 1.2 0l3.9 5.2m-7.5 3A1.5 1.5 0 0 0 7.5 13v3a1.5 1.5 0 0 0 3 0v-3A1.5 1.5 0 0 0 9 11.5zm4.5 0V16a1.5 1.5 0 0 0 1.5 1.5h1.5m-12-6H3a1.375 1.375 0 0 0-1.5 1.2c0 1.8 3 1.8 3 3.6A1.375 1.375 0 0 1 3 17.5H1.5m18 0a2.75 2.75 0 0 0 3-2.4v-1.2a2.751 2.751 0 0 0-3-2.4z"/></svg>