<svg id="Regular" xmlns="http://www.w3.org/2000/svg" viewBox="0 0 24 24" width="24" height="24"><defs><style>.cls-1{fill:none;stroke:#000;stroke-linecap:round;stroke-linejoin:round;stroke-width:1.5px}</style></defs><title>real-estate-dimensions-map</title><path class="cls-1" d="M2.724.827A1.5 1.5 0 0 0 .75 2.25V19.5a1.5 1.5 0 0 0 .891 1.371l5.306 2.25a1.507 1.507 0 0 0 1.122.039l7.143-2.844a1.5 1.5 0 0 1 1.07.017l4.911 1.93a1.5 1.5 0 0 0 2.057-1.392V4.116a1.5 1.5 0 0 0-1.069-1.437L16.161.873a1.5 1.5 0 0 0-.825-.01l-7.4 2.084a1.5 1.5 0 0 1-.869-.024z"/><path class="cls-1" d="M3.75 4.5v14.25l3.75 1.5 8.25-3 4.5 1.5V5.25l-4.5-1.5L7.5 6 3.75 4.5z"/><path class="cls-1" d="M3.75 9.879l3.75 1.5 3.75-1.5m3-5.72v3.904m-10.5 6.316L7.5 15.75l2.25-.621v4.303m4.5-1.637V14.25l1.5-.75 4.5 1.5"/></svg>