<svg id="Regular" xmlns="http://www.w3.org/2000/svg" viewBox="0 0 24 24" width="24" height="24"><defs><style>.cls-1{fill:none;stroke:#000;stroke-linecap:round;stroke-linejoin:round;stroke-width:1.5px}</style></defs><title>real-estate-action-house-heart</title><path class="cls-1" d="M8.25 19.75h-3a1.5 1.5 0 0 1-1.5-1.5v-7.5m-3-1.5l8.781-7.43a1.5 1.5 0 0 1 1.938 0l8.781 7.43m-4.5-7.5h3v3m-1.5 18l-5.114-5.335a3.025 3.025 0 0 1-.567-3.492 3.026 3.026 0 0 1 4.846-.786l.835.835.835-.835a3.026 3.026 0 0 1 4.846.786 3.025 3.025 0 0 1-.567 3.492z"/></svg>