<svg id="Regular" xmlns="http://www.w3.org/2000/svg" viewBox="0 0 24 24" width="24" height="24"><defs><style>.cls-1{fill:none;stroke:#000;stroke-linecap:round;stroke-linejoin:round;stroke-width:1.5px}</style></defs><title>real-estate-market-building-increase</title><path class="cls-1" d="M11.25 8.25L19.5.75m-4.5 0h4.5v4.5m3.75-1.5v19.5M19.5 9v14.25m-3.75-9v9m7.5 0h-12"/><path class="cls-1" d="M6 15h5.25v7.75a.5.5 0 0 1-.5.5H6.5a.5.5 0 0 1-.5-.5V15z" transform="rotate(-180 8.625 19.125)"/><path class="cls-1" d="M6 23.25H.75v-12a.75.75 0 0 1 .75-.75h6a.75.75 0 0 1 .75.75V15M3 15H.75M3 18H.75"/></svg>