<svg id="Regular" xmlns="http://www.w3.org/2000/svg" viewBox="0 0 24 24" width="24" height="24"><defs><style>.cls-1{fill:none;stroke:#000;stroke-linecap:round;stroke-linejoin:round;stroke-width:1.5px}</style></defs><title>real-estate-deal-document-building</title><path class="cls-1" d="M10.5 23.25H2.25a1.5 1.5 0 0 1-1.5-1.5V2.25a1.5 1.5 0 0 1 1.5-1.5H18a1.5 1.5 0 0 1 1.5 1.5v7.5m3.753 7.5a6 6 0 1 1-6-6"/><path class="cls-1" d="M23.253 12.75l-5.469 5.469a.75.75 0 0 1-1.061 0L15 16.5m-3-6v-6a.75.75 0 0 0-.75-.75h-4.5A.75.75 0 0 0 6 4.5v9.75M9 7.5h3m-3 3h3m-3 3.75H4.5"/></svg>