<svg id="Regular" xmlns="http://www.w3.org/2000/svg" viewBox="0 0 24 24" width="24" height="24"><defs><style>.cls-1{fill:none;stroke:#000;stroke-linecap:round;stroke-linejoin:round;stroke-width:1.5px}</style></defs><title>real-estate-deal-key-1</title><path class="cls-1" d="M11.379 5.871l-8.486 8.486-2.121-2.122m2.121-2.121l2.122 2.121"/><path class="cls-1" d="M13.5 6.75a3 3 0 1 1 2.123-5.121 3.029 3.029 0 0 1 .478.621M11.25 18v3.75a1.5 1.5 0 0 0 1.5 1.5h6a1.5 1.5 0 0 0 1.5-1.5V18m3-.75l-6.5-5.847a1.5 1.5 0 0 0-2.006 0L8.25 17.25m13.5-1.35V12"/><path class="cls-1" d="M13.5 3.75A2.25 2.25 0 0 1 15.75 6v9"/></svg>