<svg id="Regular" xmlns="http://www.w3.org/2000/svg" viewBox="0 0 24 24" width="24" height="24"><defs><style>.cls-1{fill:none;stroke:#000;stroke-linecap:round;stroke-linejoin:round;stroke-width:1.5px}</style></defs><title>real-estate-sign-house-rent</title><path class="cls-1" d="M21.75 22.75v-6m-1.5 0h3m-21 6v-6m0 0h1.125a1.875 1.875 0 0 1 0 3.75H2.25m3 2.25L3 20.5m11.25 2.25v-6l3 6v-6m-6 6h-1.5a1.5 1.5 0 0 1-1.5-1.5v-3a1.5 1.5 0 0 1 1.5-1.5h1.5m-3 3h3m-7.5-6v-3m13.5 0v3M.75 9.25L10.5 1l9.75 8.25m-4.5-7.5h3v3"/></svg>