<svg id="Regular" xmlns="http://www.w3.org/2000/svg" viewBox="0 0 24 24" width="24" height="24"><defs><style>.cls-1{fill:none;stroke:#000;stroke-linecap:round;stroke-linejoin:round;stroke-width:1.5px}</style></defs><title>real-estate-sign-board-sale</title><path class="cls-1" d="M13.25 11v4.5a1.5 1.5 0 0 0 1.5 1.5h1.5m-12-6h-1.5a1.375 1.375 0 0 0-1.5 1.2c0 1.8 3 1.8 3 3.6a1.375 1.375 0 0 1-1.5 1.2h-1.5m6 0v-4.5a1.5 1.5 0 0 1 3 0V17m-3-3h3m12 3h-1.5a1.5 1.5 0 0 1-1.5-1.5v-3a1.5 1.5 0 0 1 1.5-1.5h1.5m-3 3h3m-21-6h21m-21 12h21m-15-12l3.9-5.2a.75.75 0 0 1 1.2 0l3.9 5.2"/></svg>