<svg id="Regular" xmlns="http://www.w3.org/2000/svg" viewBox="0 0 24 24" width="24" height="24"><defs><style>.cls-1{fill:none;stroke:#000;stroke-linecap:round;stroke-linejoin:round;stroke-width:1.5px}</style></defs><title>real-estate-market-building-rise</title><path class="cls-1" d="M7.5 23.25l6.22-6.22a.749.749 0 0 1 1.06 0l1.94 1.94a.749.749 0 0 0 1.06 0l5.47-5.47"/><path class="cls-1" d="M19.5 13.5h3.75v3.75m-7.5-3.75v-12a.75.75 0 0 0-1.013-.7l-8.25 4.27a.75.75 0 0 0-.487.7v3.98m7.5-4.5h2.25m-3.75 3h3.75m-15 4.5H3m-2.25 3H4.5M8.25 4.156V.751"/><path class="cls-1" d="M8.25 18v-6.75a1.5 1.5 0 0 0-1.5-1.5h-4.5a1.5 1.5 0 0 0-1.5 1.5v12h3"/></svg>