<svg id="Regular" xmlns="http://www.w3.org/2000/svg" viewBox="0 0 24 24" width="24" height="24"><defs><style>.cls-1{fill:none;stroke:#000;stroke-linecap:round;stroke-linejoin:round;stroke-width:1.5px}</style></defs><title>real-estate-favorite-building-choose</title><path class="cls-1" d="M12.75 23.25l-2.764-3.11a1.557 1.557 0 1 1 2.327-2.069l1.937 2.179v-9a1.5 1.5 0 0 1 3 0V18h1.5a4.5 4.5 0 0 1 4.5 4.5v.75M2.75 6.75H8.5a.5.5 0 0 1 .5.5V15H2.25V7.25a.5.5 0 0 1 .5-.5z"/><path class="cls-1" d="M14.25 7.5v-6a.75.75 0 0 0-.75-.75H6.75A.75.75 0 0 0 6 1.5v5.25M9 15h2.25m-9 0H.75M6 9.75h3m3-6h2.25m-2.25 3h2.25"/></svg>