<svg id="Regular" xmlns="http://www.w3.org/2000/svg" viewBox="0 0 24 24" width="24" height="24"><defs><style>.cls-1{fill:none;stroke:#000;stroke-linecap:round;stroke-linejoin:round;stroke-width:1.5px}</style></defs><title>real-estate-action-house-like</title><path class="cls-1" d="M9.75 20.035h-4.5a1.5 1.5 0 0 1-1.5-1.5v-7.5m-3-1.5l8.781-7.43a1.5 1.5 0 0 1 1.938 0l7.3 6.177M15.75 2.035h3v3m-6 16.55v-4.9h.7a3.5 3.5 0 0 0 3.5-3.5 1.4 1.4 0 0 1 1.4-1.4 1.9 1.9 0 0 1 1.9 1.9v.9a.7.7 0 0 0 .7.7h.2a2.1 2.1 0 0 1 2.089 2.309l-.217 2.17a2.8 2.8 0 0 1-2.786 2.521h-2.894a2.779 2.779 0 0 1-.769-.108l-1.7-.484a2.779 2.779 0 0 0-.769-.108H12.75"/></svg>