<svg id="Regular" xmlns="http://www.w3.org/2000/svg" viewBox="0 0 24 24" width="24" height="24"><defs><style>.cls-1{fill:none;stroke:#000;stroke-linecap:round;stroke-linejoin:round;stroke-width:1.5px}</style></defs><title>real-estate-insurance-building</title><path class="cls-1" d="M.75 14.25v9m15-1.5a3 3 0 0 0-3-3H9a3 3 0 0 0-3-3H.75v6zm-9.75-3h3m1.25-13.5H16a.5.5 0 0 1 .5.5v7.75H9.75V5.75a.5.5 0 0 1 .5-.5z"/><path class="cls-1" d="M16.5 13.5h5.25v-12A.75.75 0 0 0 21 .75h-6.75a.75.75 0 0 0-.75.75v3.75M9.75 13.5h-1.5m13.5 0h1.5M13.5 8.25h3m3-3h2.25m-2.25 3h2.25"/></svg>