<svg id="Regular" xmlns="http://www.w3.org/2000/svg" viewBox="0 0 24 24" width="24" height="24"><defs><style>.cls-1{fill:none;stroke:#000;stroke-linecap:round;stroke-linejoin:round;stroke-width:1.5px}</style></defs><title>real-estate-location-building-pin</title><circle class="cls-1" cx="8.25" cy="8.25" r="3.75"/><path class="cls-1" d="M6.878 21.75C4.714 18.285.75 11.261.75 8.25A7.5 7.5 0 0 1 15.406 6m-3.656 9h5.75a.5.5 0 0 1 .5.5v7.75h-6.75V15.5a.5.5 0 0 1 .5-.5z"/><path class="cls-1" d="M18 23.25h5.25V9.75A.75.75 0 0 0 22.5 9h-6.75a.75.75 0 0 0-.75.75V15m-3.75 8.25h-1.5M15 18h3m3-6h2.25M21 15h2.25"/></svg>