<svg id="Regular" xmlns="http://www.w3.org/2000/svg" viewBox="0 0 24 24" width="24" height="24"><defs><style>.cls-1{fill:none;stroke:#000;stroke-linecap:round;stroke-linejoin:round;stroke-width:1.5px}</style></defs><title>real-estate-sign-for-rent</title><path class="cls-1" d="M4.5 10.5V6A1.5 1.5 0 0 1 6 4.5h1.5m-3 3h2.25m9.75 3v-6m0 0h1.125a1.875 1.875 0 0 1 0 3.75H16.5m3 2.25l-2.25-2.25M12 4.5A1.5 1.5 0 0 0 10.5 6v3a1.5 1.5 0 0 0 3 0V6A1.5 1.5 0 0 0 12 4.5zm-10.5-3h21m-21 21h21m-1.5-3v-6m-1.5 0h3m-21 6v-6m0 0h1.125a1.875 1.875 0 0 1 0 3.75H1.5m3 2.25l-2.25-2.25M13.5 19.5v-6l3 6v-6m-6 6H9A1.5 1.5 0 0 1 7.5 18v-3A1.5 1.5 0 0 1 9 13.5h1.5m-3 3h3"/></svg>