<svg id="Regular" xmlns="http://www.w3.org/2000/svg" viewBox="0 0 24 24" width="24" height="24"><defs><style>.cls-1{fill:none;stroke:#000;stroke-linecap:round;stroke-linejoin:round;stroke-width:1.5px}</style></defs><title>real-estate-sign-sale-1</title><path class="cls-1" d="M13.5 3.75v4.5a1.5 1.5 0 0 0 1.5 1.5h1.5m-12-6H3a1.375 1.375 0 0 0-1.5 1.2c0 1.8 3 1.8 3 3.6A1.375 1.375 0 0 1 3 9.75H1.5m6 0v-4.5a1.5 1.5 0 0 1 3 0v4.5m-3.001-3h3m12.001 3H21a1.5 1.5 0 0 1-1.5-1.5v-3a1.5 1.5 0 0 1 1.5-1.5h1.5m-3.001 3h3M.75.75h22.5m0 12H.75m11.25 0V21M.75 23.25a29.25 29.25 0 0 1 22.5 0"/></svg>