<svg id="Regular" xmlns="http://www.w3.org/2000/svg" viewBox="0 0 24 24" width="24" height="24"><defs><style>.cls-1{fill:none;stroke:#000;stroke-linecap:round;stroke-linejoin:round;stroke-width:1.5px}</style></defs><title>real-estate-dimensions-house-ruler</title><path class="cls-1" d="M11.25 17.25v3a1.5 1.5 0 0 0 1.5 1.5h6a1.5 1.5 0 0 0 1.5-1.5v-3m3-1.5L16.753 9.9a1.5 1.5 0 0 0-2.006 0L8.25 15.75m13.5-1.35v-3.9"/><path class="cls-1" d="M23.25 1.5a.75.75 0 0 0-.75-.75h-21a.75.75 0 0 0-.75.75v21a.75.75 0 0 0 .75.75h3a.75.75 0 0 0 .75-.75V5.25H22.5a.75.75 0 0 0 .75-.75zm-19.5 9.75h1.5m-1.5 6h1.5m6-12v-1.5m6 1.5v-1.5"/><path class="cls-1" d="M.75 5.25h4.5V.75"/></svg>