<svg id="Regular" xmlns="http://www.w3.org/2000/svg" viewBox="0 0 24 24" width="24" height="24"><defs><style>.cls-1{fill:none;stroke:#000;stroke-linecap:round;stroke-linejoin:round;stroke-width:1.5px}</style></defs><title>real-estate-sign-sale</title><path class="cls-1" d="M13.5 5v4.5A1.5 1.5 0 0 0 15 11h1.5m-12-6H3a1.375 1.375 0 0 0-1.5 1.2c0 1.8 3 1.8 3 3.6A1.375 1.375 0 0 1 3 11H1.5m6 0V6.5a1.5 1.5 0 0 1 3 0V11m-3-3h3m12 3H21a1.5 1.5 0 0 1-1.5-1.5v-3A1.5 1.5 0 0 1 21 5h1.5m-3 3h3m-21-6h21m-21 12h21M5.25 14v8.25M18.75 14v8.25"/></svg>