<svg xmlns="http://www.w3.org/2000/svg" viewBox="0 0 24 24" width="24" height="24"><defs><style>.a{fill:none;stroke:#000;stroke-linecap:round;stroke-linejoin:round;stroke-width:1.5px}</style></defs><title>receipt</title><path class="a" d="M12.75 23.25v-4.5a1.5 1.5 0 0 1 1.5-1.5 1.476 1.476 0 0 1 1.5 1.289v1.711a1.5 1.5 0 0 0 1.5 1.5 1.5 1.5 0 0 0 1.5-1.5V.75H8.25a3 3 0 0 0-3 3v13.5"/><path class="a" d="M12.75 23.25h-12v-3a3 3 0 0 1 3-3h10.5m3 4.5h-4.5m-4.5-9h7.5m-7.5-3h7.5m-7.5-3h7.5m4.5-6h-1.5v4.5h4.5v-1.5a3 3 0 0 0-3-3z"/></svg>