<svg xmlns="http://www.w3.org/2000/svg" viewBox="0 0 24 24" width="24" height="24"><defs><style>.a{fill:none;stroke:#000;stroke-linecap:round;stroke-linejoin:round;stroke-width:1.5px}</style></defs><title>receipt-slip-1</title><path class="a" d="M21 23.25v-21a1.5 1.5 0 0 0-1.5-1.5h-15A1.5 1.5 0 0 0 3 2.25v21l3-3 3 3 3-3 3 3 3-3zM6 6h6m-6 4.5h6M6 15h6"/><path class="a" d="M17.625 5.25a.375.375 0 1 1-.375.375.375.375 0 0 1 .375-.375m0 4.5a.375.375 0 1 1-.375.375.375.375 0 0 1 .375-.375m0 4.5a.375.375 0 1 1-.375.375.375.375 0 0 1 .375-.375"/></svg>