<svg xmlns="http://www.w3.org/2000/svg" viewBox="0 0 24 24" width="24" height="24"><defs><style>.a{fill:none;stroke:#000;stroke-linecap:round;stroke-linejoin:round;stroke-width:1.5px}</style></defs><title>reception-bell-call</title><path class="a" d="M22.875 4.11l-.234 4.154a1.557 1.557 0 0 1-3.11-.175l.169-2.911-6.349 6.38a1.5 1.5 0 1 1-2.126-2.117l4.761-4.784L14.919 3.6A4.48 4.48 0 0 1 13.606.75M7.072 14.249v3m-3.75-3h7.5m-8.946 9a.751.751 0 0 1-.743-.856 6 6 0 0 1 11.878 0 .751.751 0 0 1-.742.857z"/></svg>