<svg xmlns="http://www.w3.org/2000/svg" viewBox="0 0 24 24" width="24" height="24"><defs><style>.a{fill:none;stroke:#000;stroke-linecap:round;stroke-linejoin:round;stroke-width:1.5px}</style></defs><title>reception-hotel-24</title><path class="a" d="M3.375.75v3a2.625 2.625 0 0 0 5.25 0v-3zm6.375 10.5a3 3 0 0 0-3-3h-1.5a3 3 0 0 0-3 3m21 12v-7.5a1.5 1.5 0 0 0-1.5-1.5H2.25a1.5 1.5 0 0 0-1.5 1.5v7.5m9-6v4.5m3-4.5v4.5m-3-2.25h3M3.375 3.75h5.25m7.125 4.5h6v3h-6zm3 3v3m3-10.5H19.5V3A2.25 2.25 0 0 1 21.75.75v4.5M15 1.875A1.125 1.125 0 0 1 16.125.75a1.125 1.125 0 0 1 1.125 1.125 1.608 1.608 0 0 1-.351 1L15 5.25h2.25"/></svg>