<svg xmlns="http://www.w3.org/2000/svg" viewBox="0 0 24 24" width="24" height="24"><defs><style>.a{fill:none;stroke:#000;stroke-linecap:round;stroke-linejoin:round;stroke-width:1.5px}</style></defs><title>reception-hotel</title><circle class="a" cx="19.5" cy="3.75" r="2.625"/><path class="a" d="M17.25 21a2.25 2.25 0 0 0 4.5 0v-3.75a1.5 1.5 0 0 0 1.5-1.5v-4.5a3 3 0 0 0-3-3h-1.5a3 3 0 0 0-3 3v4.5a1.5 1.5 0 0 0 1.5 1.5zM3.375.75v3a2.625 2.625 0 0 0 5.25 0v-3zm6.375 10.5a3 3 0 0 0-3-3h-1.5a3 3 0 0 0-3 3m10.5 3h-9a3 3 0 0 0-3 3v6m4.5-6v4.5m3-4.5v4.5m-3-2.25h3M3.375 3.75h5.25"/></svg>