<svg xmlns="http://www.w3.org/2000/svg" viewBox="0 0 24 24" width="24" height="24"><defs><style>.a{fill:none;stroke:#000;stroke-linecap:round;stroke-linejoin:round;stroke-width:1.5px}</style></defs><title>receipt-register-print</title><path class="a" d="M7.062 13.438a.375.375 0 1 1-.375.375.374.374 0 0 1 .375-.375m5.25 0a.375.375 0 1 1-.375.375.374.374 0 0 1 .375-.375m5.25 0a.375.375 0 1 1-.375.375.374.374 0 0 1 .375-.375"/><rect class="a" x=".75" y="17.25" width="22.5" height="6" rx="1.5" ry="1.5"/><path class="a" d="M17.25 6.75v-3"/><rect class="a" x="14.25" y=".75" width="6" height="3" rx="1.5" ry="1.5"/><path class="a" d="M6.75 9.75h6m-7.5-3H4.4a1.5 1.5 0 0 0-1.5 1.393l-.65 9.107m19.5 0l-.65-9.107a1.5 1.5 0 0 0-1.5-1.393h-5.35m-3-3l-3 .75v5.25h3v-6zm-1.5 16.5h4.5"/></svg>