<svg xmlns="http://www.w3.org/2000/svg" viewBox="0 0 24 24" width="24" height="24"><defs><style>.a{fill:none;stroke:#000;stroke-linecap:round;stroke-linejoin:round;stroke-width:1.5px}</style></defs><title>receipt-slip</title><path class="a" d="M16.5 23.25a2.605 2.605 0 0 1 4.5 0m-9 0a2.605 2.605 0 0 1 4.5 0"/><path class="a" d="M21 23.25V.75a2.614 2.614 0 0 1-2.25 1.293A2.613 2.613 0 0 1 16.5.75a2.614 2.614 0 0 1-2.25 1.293A2.613 2.613 0 0 1 12 .75a2.614 2.614 0 0 1-2.25 1.293A2.613 2.613 0 0 1 7.5.75a2.614 2.614 0 0 1-2.25 1.293A2.613 2.613 0 0 1 3 .75v22.5a2.605 2.605 0 0 1 4.5 0 2.605 2.605 0 0 1 4.5 0M6 6.75h6m-6 4.5h6m-6 4.5h6m4.5-9H18m-1.5 4.5H18m-1.5 4.5H18"/></svg>