<svg xmlns="http://www.w3.org/2000/svg" viewBox="0 0 24 24" width="24" height="24"><defs><style>.a{fill:none;stroke:#000;stroke-linecap:round;stroke-linejoin:round;stroke-width:1.5px}</style></defs><title>reception-hotel-bell</title><path class="a" d="M13.5 14.25A6 6 0 0 0 7.5 9a6 6 0 0 0-6.023 5.464m9.398-10.339a3.375 3.375 0 0 1-6.75 0V1.5a.75.75 0 0 1 .75-.75h5.25a.75.75 0 0 1 .75.75z"/><path class="a" d="M23.25 23.25H.75v-7.5a1.5 1.5 0 0 1 1.5-1.5h19.5a1.5 1.5 0 0 1 1.5 1.5zM4.131 4.308A10.171 10.171 0 0 1 7.5 3.75a10.167 10.167 0 0 1 3.374.56M15 14.25a3.75 3.75 0 1 1 7.5.2m-3.75-3.95V8.25m-1.5 0h3"/></svg>