<svg xmlns="http://www.w3.org/2000/svg" viewBox="0 0 24 24" width="24" height="24"><defs><style>.a{fill:none;stroke:#000;stroke-linecap:round;stroke-linejoin:round;stroke-width:1.5px}</style></defs><title>reception-pay</title><circle class="a" cx="17.25" cy="3.375" r="2.625"/><path class="a" d="M17.25 19.5v3.75m3 0V15a1.5 1.5 0 0 0 3 0v-3a4.5 4.5 0 0 0-4.5-4.5H16.1a4.5 4.5 0 0 0-4.025 2.487l-.177.354A3 3 0 0 1 9.218 12H9a1.5 1.5 0 0 0 0 3h.218a5.956 5.956 0 0 0 5.032-2.748v11m6-8.252v-3"/><circle class="a" cx="4.5" cy="4.5" r="2.25"/><path class="a" d="M.75 11.25a3 3 0 0 1 3-3h1.5a3 3 0 0 1 3 3v.95m-7.5 2.05H7.7m-5.45 9v-9m4.5 9h1.5a1.5 1.5 0 0 0 0-3 1.5 1.5 0 0 1 0-3h1.5m-1.5 0v-.75"/></svg>