<svg xmlns="http://www.w3.org/2000/svg" viewBox="0 0 24 24" width="24" height="24"><defs><style>.a{fill:none;stroke:#000;stroke-linecap:round;stroke-linejoin:round;stroke-width:1.5px}</style></defs><title>receipt-dollar</title><path class="a" d="M6 6.75h6m-6 4.5h3.75M6 15.75h3.75m6.75-9H18m-4.108 9.814a2.221 2.221 0 0 0 1.858.875c1.139 0 2.062-.693 2.062-1.547s-.923-1.547-2.062-1.547-2.063-.693-2.063-1.548.924-1.547 2.063-1.547a2.223 2.223 0 0 1 1.858.875m-1.858 5.314v1.03m0-8.249v1.03"/><path class="a" d="M16.5 23.25a2.605 2.605 0 0 1 4.5 0V.75a2.614 2.614 0 0 1-2.25 1.293A2.613 2.613 0 0 1 16.5.75a2.614 2.614 0 0 1-2.25 1.293A2.613 2.613 0 0 1 12 .75a2.614 2.614 0 0 1-2.25 1.293A2.613 2.613 0 0 1 7.5.75a2.614 2.614 0 0 1-2.25 1.293A2.613 2.613 0 0 1 3 .75v22.5a2.605 2.605 0 0 1 4.5 0 2.605 2.605 0 0 1 4.5 0m0 0a2.605 2.605 0 0 1 4.5 0"/></svg>