<svg xmlns="http://www.w3.org/2000/svg" viewBox="0 0 24 24" width="24" height="24"><defs><style>.a{fill:none;stroke:#000;stroke-linecap:round;stroke-linejoin:round;stroke-width:1.5px}</style></defs><title>reception-desk</title><path class="a" d="M5.25 18.75h-3a1.5 1.5 0 0 1-1.5-1.5v-1.5a1.5 1.5 0 0 1 1.5-1.5h19.5a1.5 1.5 0 0 1 1.5 1.5v1.5a1.5 1.5 0 0 1-1.5 1.5h-3"/><path class="a" d="M15 23.25H9a.75.75 0 0 1-.75-.75v-8.25h7.5v8.25a.75.75 0 0 1-.75.75zm-12.75-4.5v4.5m19.5-4.5v4.5m-13.5-3h7.5"/><circle class="a" cx="12" cy="6" r="5.25"/><path class="a" d="M2.25 11.25h3v3h-3zm16.5-1.5h3v4.5h-3z"/></svg>