<svg id="Regular" xmlns="http://www.w3.org/2000/svg" viewBox="0 0 24 24" width="24" height="24"><defs><style>.cls-1{fill:none;stroke:#000;stroke-linecap:round;stroke-linejoin:round;stroke-width:1.5px}</style></defs><title>recycling-bag-1</title><path class="cls-1" d="M2.393 23.25A1.5 1.5 0 0 1 .9 21.614l1.227-15A1.5 1.5 0 0 1 3.62 5.25h16.76a1.5 1.5 0 0 1 1.494 1.364l1.227 15a1.5 1.5 0 0 1-1.494 1.636z"/><path class="cls-1" d="M15.75 5.25V4.5a3.75 3.75 0 0 0-7.5 0v.75m1.5 10.5H6v3.75m11.417-3.017a5.572 5.572 0 0 1-10.74-.733m7.573-3H18V9M6.583 12.017a5.572 5.572 0 0 1 10.74.733"/></svg>