<svg id="Regular" xmlns="http://www.w3.org/2000/svg" viewBox="0 0 24 24" width="24" height="24"><defs><style>.cls-1{fill:none;stroke:#000;stroke-linecap:round;stroke-linejoin:round;stroke-width:1.5px}</style></defs><title>recycling-hand-trash</title><path class="cls-1" d="M22.9 7.317l-7.5 3s-1.186-1.814 0-3a10.789 10.789 0 0 1 2.25-1.5l-1.61-1.074a1.489 1.489 0 0 0-1.333-.166A18.938 18.938 0 0 1 9.4 5.817c-2.25 0-2.25-1.5-2.25-1.5l6.929-3.15a4.5 4.5 0 0 1 2.744-.316L22.9 2.067M12.399 23.264h-9l-.75-10.5h10.5l-.75 10.5zm-11.25-10.5h13.5m-8.25 3v4.5m3-4.5v4.5"/></svg>