<svg id="Regular" xmlns="http://www.w3.org/2000/svg" viewBox="0 0 24 24" width="24" height="24"><defs><style>.cls-1{fill:none;stroke:#000;stroke-linecap:round;stroke-linejoin:round;stroke-width:1.5px}</style></defs><title>recycling-trash-bin-2</title><path class="cls-1" d="M22.9 1.3a1.5 1.5 0 0 0-1.15-.536H2.25A1.5 1.5 0 0 0 .772 2.521l3.387 19.5a1.5 1.5 0 0 0 1.478 1.243h12.726a1.5 1.5 0 0 0 1.478-1.243l3.387-19.5A1.5 1.5 0 0 0 22.9 1.3z"/><path class="cls-1" d="M10.125 13.514h-3.75v3.75m11.417-3.017a5.572 5.572 0 0 1-10.74-.733m7.573-3h3.75v-3.75M6.958 9.781a5.572 5.572 0 0 1 10.74.733"/></svg>