<svg id="Regular" xmlns="http://www.w3.org/2000/svg" viewBox="0 0 24 24" width="24" height="24"><defs><style>.cls-1{fill:none;stroke:#000;stroke-linecap:round;stroke-linejoin:round;stroke-width:1.5px}</style></defs><title>recycling-bottle</title><path class="cls-1" d="M9.751 3.889V2.264a1.5 1.5 0 0 0-1.5-1.5h-1.5a1.5 1.5 0 0 0-1.5 1.5v1.625"/><path class="cls-1" d="M14.128 8.271a5.691 5.691 0 0 0-5.567-4.507H6.44A5.689 5.689 0 0 0 .751 9.453a.754.754 0 0 0 .219.531l.75.75a.749.749 0 0 1 0 1.06l-.75.75a.754.754 0 0 0-.219.531v2.378a.754.754 0 0 0 .219.531l.75.75a.749.749 0 0 1 0 1.06l-.75.75a.754.754 0 0 0-.219.531v2.689a1.5 1.5 0 0 0 1.5 1.5H9m-7.06-12h8.561m-8.561 6h6.311m6.75 1.5h-3.75v3.75M22.668 19.5a5.572 5.572 0 0 1-10.74-.733m7.573-3.003h3.75v-3.75m-11.417 3.017a5.572 5.572 0 0 1 10.74.733"/></svg>