<svg id="Regular" xmlns="http://www.w3.org/2000/svg" viewBox="0 0 24 24" width="24" height="24"><defs><style>.cls-1{fill:none;stroke:#000;stroke-linecap:round;stroke-linejoin:round;stroke-width:1.5px}</style></defs><title>recycling-trash-bin-1</title><path class="cls-1" d="M22.939 4.756l-2.633-3.421A1.5 1.5 0 0 0 19.117.75H4.883a1.5 1.5 0 0 0-1.189.585L1.061 4.756a1.5 1.5 0 0 0-.3 1.1l2.01 16.08A1.5 1.5 0 0 0 4.26 23.25h15.48a1.5 1.5 0 0 0 1.489-1.314l2.009-16.079a1.5 1.5 0 0 0-.299-1.101zM.808 5.259h22.384"/><path class="cls-1" d="M9.705 15.759h-3.75v3.75m11.417-3.017a5.572 5.572 0 0 1-10.74-.733m7.573-3h3.75v-3.75M6.538 12.025a5.573 5.573 0 0 1 10.74.734"/></svg>