<svg id="Regular" xmlns="http://www.w3.org/2000/svg" viewBox="0 0 24 24" width="24" height="24"><defs><style>.cls-1{fill:none;stroke:#000;stroke-linecap:round;stroke-linejoin:round;stroke-width:1.5px}</style></defs><title>recycling-paper</title><path class="cls-1" d="M14.444 20.754s1.219 2.495 3.27 2.308c4.158-.38 3.88-5.907 5.4-7.859a9.1 9.1 0 0 0-8.265.075c-2.149 1.216-2.307 3.27-.405 5.476zm2.941-2.535s-2.7.335-4.623 5.031m-2.877-3h-7.5a1.5 1.5 0 0 1-1.5-1.5V2.25a1.5 1.5 0 0 1 1.5-1.5h9.129a1.5 1.5 0 0 1 1.06.44l2.872 2.871a1.5 1.5 0 0 1 .439 1.061v6.128"/><path class="cls-1" d="M11.385.75v3a1.5 1.5 0 0 0 1.5 1.5h3"/></svg>