<svg id="Regular" xmlns="http://www.w3.org/2000/svg" viewBox="0 0 24 24" width="24" height="24"><defs><style>.cls-1{fill:none;stroke:#000;stroke-linecap:round;stroke-linejoin:round;stroke-width:1.5px}</style></defs><title>recycling-label</title><path class="cls-1" d="M14.069 20s1.219 2.495 3.27 2.308c4.158-.38 3.88-5.907 5.4-7.859a9.1 9.1 0 0 0-8.265.075c-2.154 1.22-2.307 3.276-.405 5.476zm2.941-2.531s-2.7.335-4.623 5.031"/><path class="cls-1" d="M9.2 19.906a1.5 1.5 0 0 1-2.121 0L1.7 14.527a1.5 1.5 0 0 1 0-2.121L12.2 1.94a1.5 1.5 0 0 1 1.06-.44h5.25a1.5 1.5 0 0 1 1.5 1.5v5.345a1.5 1.5 0 0 1-.439 1.061m-3.182-4.565a.375.375 0 0 1 .375.375m-.75 0a.374.374 0 0 1 .375-.375m0 .75a.374.374 0 0 1-.375-.375m.75 0a.375.375 0 0 1-.375.375"/></svg>