<svg xmlns="http://www.w3.org/2000/svg" viewBox="0 0 24 24" width="24" height="24"><defs><style>.a{fill:none;stroke:#000;stroke-linecap:round;stroke-linejoin:round;stroke-width:1.5px}</style></defs><title>reflect-left</title><path class="a" d="M7.72 17.03l-4.94 4.94a.75.75 0 0 1-1.28-.531v-9.878a.75.75 0 0 1 1.28-.531l4.94 4.94a.749.749 0 0 1 0 1.06zm8.56 0l4.94 4.94a.75.75 0 0 0 1.28-.531v-9.878a.75.75 0 0 0-1.28-.531l-4.94 4.94a.749.749 0 0 0 0 1.06zM12 23.25V9.75M3 1.5l.697 5.257 5.257-.697m10.395.69a7.5 7.5 0 0 0-14.672-.122"/></svg>