<svg xmlns="http://www.w3.org/2000/svg" viewBox="0 0 24 24" width="24" height="24"><defs><style>.a{fill:none;stroke:#000;stroke-linecap:round;stroke-linejoin:round;stroke-width:1.5px}</style></defs><title>reflect-up</title><path class="a" d="M17.03 6.968l4.94-4.939a.751.751 0 0 0-.531-1.281h-9.878a.751.751 0 0 0-.531 1.281l4.94 4.939a.749.749 0 0 0 1.06 0zm0 10.061l4.94 4.939a.75.75 0 0 1-.531 1.28h-9.878a.75.75 0 0 1-.531-1.28l4.94-4.939a.749.749 0 0 1 1.06 0zm6.22-5.031H9.75m-8.25-9l5.257.698-.697 5.257"/><path class="a" d="M6.75 19.347A7.5 7.5 0 0 1 .75 12a9.031 9.031 0 0 1 6.007-8.3"/></svg>