<svg xmlns="http://www.w3.org/2000/svg" viewBox="0 0 24 24" width="24" height="24"><defs><style>.a{fill:none;stroke:#000;stroke-linecap:round;stroke-linejoin:round;stroke-width:1.5px}</style></defs><title>reflect-down</title><path class="a" d="M6.97 17.029l-4.94 4.939a.75.75 0 0 0 .531 1.28h9.878a.75.75 0 0 0 .531-1.28l-4.94-4.939a.749.749 0 0 0-1.06 0zm0-10.061L2.03 2.029A.751.751 0 0 1 2.561.748h9.878a.751.751 0 0 1 .531 1.281L8.03 6.968a.749.749 0 0 1-1.06 0zm-6.22 5.03h13.5m8.25 9l-5.257-.697.697-5.257"/><path class="a" d="M17.25 4.65a7.5 7.5 0 0 1 6 7.348 9.032 9.032 0 0 1-6.007 8.3"/></svg>