<svg xmlns="http://www.w3.org/2000/svg" viewBox="0 0 24 24" width="24" height="24"><path fill="none" stroke="#000" stroke-linecap="round" stroke-linejoin="round" stroke-miterlimit="10" d="M.5 18.5h23v5H.5zm20-6h-17l-3 6h23z"/><path fill="none" stroke="#000" stroke-linecap="round" stroke-linejoin="round" stroke-miterlimit="10" d="M8.5 21.5v-1h6v1"/><path d="M8 16H7v1h1v-1zm-3 0H4v1h1v-1zm6 0h-1v1h1v-1zm3 0h-1v1h1v-1zm3 0h-1v1h1v-1zm3 0h-1v1h1v-1zm-3-2h-1v1h1v-1zm-3 0h-1v1h1v-1zm-3 0h-1v1h1v-1zm-3 0H7v1h1v-1z"/><path fill="none" stroke="#000" stroke-linecap="round" stroke-linejoin="round" stroke-miterlimit="10" d="M3.5 6.5h17v6h-17z"/><path fill="none" stroke="#000" stroke-linecap="round" stroke-linejoin="round" stroke-miterlimit="10" d="M5.5 8.5H11v2H5.5zm8.5 1h4.5m-9-7l-4 1v3h4zm11 0c0 .55-.449 1-1 1h-4c-.55 0-1-.45-1-1v-1c0-.549.45-1 1-1h4c.551 0 1 .451 1 1v1zm-3 1v3"/><path fill="none" d="M0 0h24v24H0z"/></svg>