<svg xmlns="http://www.w3.org/2000/svg" viewBox="0 0 24 24" width="24" height="24"><defs><style>.a{fill:none;stroke:#000;stroke-linecap:round;stroke-linejoin:round;stroke-width:1.5px}</style></defs><title>religion-woman-muslim</title><path class="a" d="M22.5 23.25a10.506 10.506 0 0 0-6.408-8.934l-.006.007m-8.399.16l-.03-.033a10.5 10.5 0 0 0-6.1 8.8m10.47-12c2.485 0 3.756-1.265 3.756-3.75 0-.079 0-.157-.006-.235A5.611 5.611 0 0 0 12.027 6a5.611 5.611 0 0 0-3.75 1.265c0 .078-.006.156-.006.235 0 2.485 1.271 3.75 3.756 3.75z"/><path class="a" d="M16.086 14.323A11.227 11.227 0 0 0 18.777 7.5a6.75 6.75 0 0 0-13.5 0 10.267 10.267 0 0 0 2.41 6.983 1.612 1.612 0 0 0-.91 1.267c0 1.243.75 3.75 5.25 3.75s5.25-2.507 5.25-3.75c0-.542-.447-1.039-1.191-1.427z"/></svg>