<svg xmlns="http://www.w3.org/2000/svg" viewBox="0 0 24 24" width="24" height="24"><g fill="none" stroke="#000" stroke-linejoin="round" stroke-miterlimit="10"><path d="M7.031 23.5L.5 16.969V7.988L7.031.5H17l6.5 7.488v8.981L16.979 23.5z"/><path d="M8.76 19.5L4.5 15.241V9.384L8.76 4.5h6.46l4.28 4.884v5.857L15.22 19.5z"/><path d="M10.488 15.5L8.5 13.513v-2.734L10.488 8.5h3.015l1.997 2.279v2.734L13.503 15.5zm3.015-7L17 .5m-6.503 8L7 .5m6.503 15l3.497 8m-6.503-8L7 23.5m8.5-12.721l8-2.791m-8 5.525l8 3.456m-15-6.19l-8-2.791m8 5.525l-8 3.456"/></g><path fill="none" d="M0 0h24v24H0z"/></svg>