<svg xmlns="http://www.w3.org/2000/svg" viewBox="0 0 24 24" width="24" height="24"><defs><style>.a{fill:none;stroke:#000;stroke-linecap:round;stroke-linejoin:round;stroke-width:1.5px}</style></defs><title>religion-hand</title><path class="a" d="M22.5 4.5a.75.75 0 0 0-.75-.75h-1.5A.75.75 0 0 1 19.5 3V1.5a.75.75 0 0 0-.75-.75h-1.5a.75.75 0 0 0-.75.75V3a.75.75 0 0 1-.75.75h-1.5a.75.75 0 0 0-.75.75V6a.75.75 0 0 0 .75.75h1.5a.75.75 0 0 1 .75.75v6a.75.75 0 0 0 .75.75h1.5a.75.75 0 0 0 .75-.75v-6a.75.75 0 0 1 .75-.75h1.5A.75.75 0 0 0 22.5 6zm-21 9.75v9m15-1.5a3 3 0 0 0-3-3H9.75a3 3 0 0 0-3-3H1.5v6zm-9.75-3h3"/></svg>