<svg xmlns="http://www.w3.org/2000/svg" viewBox="0 0 24 24" width="24" height="24"><defs><style>.a{fill:none;stroke:#000;stroke-linecap:round;stroke-linejoin:round;stroke-width:1.5px}</style></defs><title>religion-cross</title><path class="a" d="M17.25 11.25v-1.5A.75.75 0 0 0 16.5 9h-2.25a.75.75 0 0 1-.75-.75V6a.75.75 0 0 0-.75-.75h-1.5a.75.75 0 0 0-.75.75v2.25a.75.75 0 0 1-.75.75H7.5a.75.75 0 0 0-.75.75v1.5a.75.75 0 0 0 .75.75h2.25a.75.75 0 0 1 .75.75v6a.75.75 0 0 0 .75.75h1.5a.75.75 0 0 0 .75-.75v-6a.75.75 0 0 1 .75-.75h2.25a.75.75 0 0 0 .75-.75zM7.5 4.5L4.5.75M.75 7.5L4.5 9M.75 17.25L4.5 15m3 4.5l-3 3.75m12-18.75l3-3.75m3.75 6.75L19.5 9m3.75 8.25L19.5 15m-3 4.5l3 3.75"/></svg>