<svg xmlns="http://www.w3.org/2000/svg" viewBox="0 0 24 24" width="24" height="24"><defs><style>.a{fill:none;stroke:#000;stroke-linecap:round;stroke-linejoin:round;stroke-width:1.5px}</style></defs><title>religion-shinto</title><path class="a" d="M19.152 11.369h1.863a1.485 1.485 0 0 1 0 2.97h-1.606m-14.352-2.97H3.194a1.485 1.485 0 0 0 0 2.97H4.8m3.093-2.97h8.422m.245 2.97H7.649M17.3 2.459H6.906a5.136 5.136 0 0 1-3.563-1.441.966.966 0 0 0-1.634.7 5.212 5.212 0 0 0 5.2 5.2H17.3a5.213 5.213 0 0 0 5.2-5.2.966.966 0 0 0-1.634-.7A5.137 5.137 0 0 1 17.3 2.459z"/><path class="a" d="M7.739 6.914A35.994 35.994 0 0 1 5.421 23.25H1.709A25.345 25.345 0 0 0 4.721 6.429m11.748.485a36.007 36.007 0 0 0 2.318 16.336H22.5a25.352 25.352 0 0 1-3.013-16.821m-7.383.485v4.455"/></svg>