<svg xmlns="http://www.w3.org/2000/svg" viewBox="0 0 24 24" width="24" height="24"><defs><style>.a{fill:none;stroke:#000;stroke-linecap:round;stroke-linejoin:round;stroke-width:1.5px}</style></defs><title>religion-man-indian</title><path class="a" d="M21.313 23.25a9.779 9.779 0 0 0-4.73-5.625m-9.095 0a9.78 9.78 0 0 0-4.731 5.625m14.528-12.216a5.473 5.473 0 0 0 2.25-4.284c0-3.314-3.358-6-7.5-6s-7.5 2.686-7.5 6a5.476 5.476 0 0 0 2.25 4.284m3-10.009v5.941"/><path class="a" d="M17.286 10.5c0 2.9-2.35 3.75-5.25 3.75s-5.25-.851-5.25-3.75"/><path class="a" d="M9.8 6.964C8.017 7.324 6.786 8.1 6.786 9v6a5.25 5.25 0 0 0 10.5 0V9c0-.9-1.231-1.676-3.01-2.036"/><circle class="a" cx="12.035" cy="6.75" r="2.25"/></svg>