<svg xmlns="http://www.w3.org/2000/svg" viewBox="0 0 24 24" width="24" height="24"><defs><style>.a{fill:none;stroke:#000;stroke-linecap:round;stroke-linejoin:round;stroke-width:1.5px}</style></defs><title>religion-man-muslim-2</title><path class="a" d="M17.311 6a5.25 5.25 0 0 0-10.5 0v.75a37.084 37.084 0 0 1 10.5 0zM5.014 19.514a9.745 9.745 0 0 0-2.231 3.736"/><path class="a" d="M6.811 6.75C.41 18 7.04 16.276 12.035 23.214L8.271 6.571m10.785 12.943a9.745 9.745 0 0 1 2.231 3.736m-4.028-16.5c6.4 11.25-.229 9.526-5.224 16.464L15.8 6.565m-3.739 3.96c-1.161 0-1.814 1.394-2.561 1.475m2.561-1.475c1.132 0 1.785 1.332 2.507 1.464"/></svg>