<svg xmlns="http://www.w3.org/2000/svg" viewBox="0 0 24 24" width="24" height="24"><defs><style>.a{fill:none;stroke:#000;stroke-linecap:round;stroke-linejoin:round;stroke-width:1.5px}</style></defs><title>religion-angel-1</title><ellipse class="a" cx="12.001" cy="2.25" rx="4.5" ry="1.5"/><circle class="a" cx="12.001" cy="10.5" r="3.75"/><path class="a" d="M9 12.75l-3.035 8.5a1.5 1.5 0 0 0 1.413 2h9.243a1.5 1.5 0 0 0 1.413-2L15 12.75m0 0l7.1-4.35a.75.75 0 0 1 1.142.756c-.342 1.685-.377 5.8-3.96 6.756M9 12.75L1.9 8.4a.75.75 0 0 0-1.142.756c.342 1.685.377 5.8 3.96 6.756"/></svg>