<svg xmlns="http://www.w3.org/2000/svg" viewBox="0 0 24 24" width="24" height="24"><defs><style>.a{fill:none;stroke:#000;stroke-linecap:round;stroke-linejoin:round;stroke-width:1.5px}</style></defs><title>religion-cao-dai-hand-1</title><path class="a" d="M19.291 6.378L16.125.75l-3.166 5.628m-1.077 1.915L9.375 12.75h13.5l-2.507-4.457"/><path class="a" d="M16.125 5.25A6.454 6.454 0 0 0 11.8 7.368a.6.6 0 0 0 0 .836 6.44 6.44 0 0 0 4.329 2.119A6.44 6.44 0 0 0 20.454 8.2a.6.6 0 0 0 0-.836 6.454 6.454 0 0 0-4.329-2.114zm0 2.162a.375.375 0 0 1 .375.375m-.75 0a.375.375 0 0 1 .375-.375m0 .75a.375.375 0 0 1-.375-.375m.75 0a.375.375 0 0 1-.375.375m-15 6.088v9m15-1.5a3 3 0 0 0-3-3h-3.75a3 3 0 0 0-3-3h-5.25v6zm-9.75-3h3"/></svg>