<svg xmlns="http://www.w3.org/2000/svg" viewBox="0 0 24 24" width="24" height="24"><defs><style>.a{fill:none;stroke:#000;stroke-linecap:round;stroke-linejoin:round;stroke-width:1.5px}</style></defs><title>religion-islam-hand</title><path class="a" d="M.75 14.243v9m15-1.5a3 3 0 0 0-3-3H9a3 3 0 0 0-3-3H.75v6zm-9.75-3h3m3.108-17.702l1.145 1.952H15.2a.534.534 0 0 1 .385.913L13.8 5.381l.992 2.784a.54.54 0 0 1-.77.675l-2.4-1.347L9.226 8.84a.54.54 0 0 1-.769-.675l.991-2.784-1.789-1.475a.534.534 0 0 1 .384-.913h1.949l1.144-1.952a.545.545 0 0 1 .972 0z"/><path class="a" d="M21.477 2.89a.751.751 0 0 0-1.318.612 7.98 7.98 0 0 1-9.145 9.153.751.751 0 0 0-.612 1.318A7.875 7.875 0 0 0 21.477 2.89z"/></svg>