<svg xmlns="http://www.w3.org/2000/svg" viewBox="0 0 24 24" width="24" height="24"><defs><style>.a{fill:none;stroke:#000;stroke-linecap:round;stroke-linejoin:round;stroke-width:1.5px}</style></defs><title>religion-man-christian-2</title><path class="a" d="M17.285 6.75v6a5.25 5.25 0 0 1-10.5 0v-6"/><path class="a" d="M17.375 1.32a.749.749 0 0 1 .567.835l-.657 4.6h-10.5l-.656-4.6A.748.748 0 0 1 6.7 1.32a23.255 23.255 0 0 1 5.335-.57 23.274 23.274 0 0 1 5.34.57z"/><path class="a" d="M8.951 17a9.774 9.774 0 0 0-6.194 6.25h-.472l3.871-20.9m11.758-.004l3.871 20.9h-.472A9.774 9.774 0 0 0 15.12 17M11.285 3.75h1.5m0 14.194v5.306m2.625-3a.375.375 0 1 0 .375.375.375.375 0 0 0-.375-.375"/><path class="a" d="M12.035 12.025c-1.348 0-2.018 1.892-2.934 1.39A6.454 6.454 0 0 1 6.785 9m5.25 3.025c1.349 0 2.018 1.892 2.935 1.39A6.453 6.453 0 0 0 17.285 9"/></svg>