<svg xmlns="http://www.w3.org/2000/svg" viewBox="0 0 24 24" width="24" height="24"><defs><style>.a{fill:none;stroke:#000;stroke-linecap:round;stroke-linejoin:round;stroke-width:1.5px}</style></defs><title>religion-man-muslim-1</title><path class="a" d="M17.285 6.75v6a5.25 5.25 0 0 1-10.5 0v-6m14.528 16.5A9.774 9.774 0 0 0 15.12 17m-6.169 0a9.774 9.774 0 0 0-6.194 6.25M12.035.75a11.257 11.257 0 0 1 4.1.525.745.745 0 0 1 .455.588l.7 4.887H6.785l.7-4.887a.746.746 0 0 1 .456-.588A11.259 11.259 0 0 1 12.035.75zm.75 17.194v5.306m2.625-3a.375.375 0 1 0 .375.375.375.375 0 0 0-.375-.375"/><path class="a" d="M12.035 12.025c-1.348 0-2.018 1.892-2.934 1.39A6.454 6.454 0 0 1 6.785 9m5.25 3.025c1.349 0 2.018 1.892 2.935 1.39A6.453 6.453 0 0 0 17.285 9"/></svg>