<svg xmlns="http://www.w3.org/2000/svg" viewBox="0 0 24 24" width="24" height="24"><defs><style>.a{fill:none;stroke:#000;stroke-linecap:round;stroke-linejoin:round;stroke-width:1.5px}</style></defs><title>religion-devil-head</title><path class="a" d="M14.25 7.5l1.629-1.629A7.242 7.242 0 0 0 18 .75a6.115 6.115 0 0 1 .568 7.993L17.25 10.5m-7.5-3L8.121 5.871A7.242 7.242 0 0 1 6 .75a6.115 6.115 0 0 0-.568 7.993L6.75 10.5"/><path class="a" d="M5.319 8.588A7.476 7.476 0 0 0 4.5 12v3.75a7.5 7.5 0 0 0 15 0V12a7.476 7.476 0 0 0-.819-3.412m-2.627-2.899a7.506 7.506 0 0 0-8.108 0"/><path class="a" d="M19.5 12l3.75-1.5a5.539 5.539 0 0 1-3.482 5.143l-.268.107M4.5 12L.75 10.5a5.539 5.539 0 0 0 3.482 5.143l.268.107m3.75-3l2.25 1.5m5.25-1.5l-2.25 1.5m.988 4.5a4.5 4.5 0 0 1-4.976 0"/></svg>