<svg xmlns="http://www.w3.org/2000/svg" viewBox="0 0 24 24" width="24" height="24"><defs><style>.a{fill:none;stroke:#000;stroke-linecap:round;stroke-linejoin:round;stroke-width:1.5px}</style></defs><title>religion-angel</title><ellipse class="a" cx="12.263" cy="3.375" rx="9" ry="2.625"/><path class="a" d="M14.513 15.449a1.633 1.633 0 0 1 2.25 0m-6.75 0a1.633 1.633 0 0 0-2.25 0m11.963-2.699c-9.161 0-9.713-3.068-9.713-3.068-1.018 3.068-4.5 3.068-4.5 3.068H4.8m9.263 6.172a2.537 2.537 0 0 1-3.6 0"/><path class="a" d="M17.619 8.25a7.475 7.475 0 0 1 2.144 5.25v2.25a7.5 7.5 0 0 1-15 0V13.5a7.475 7.475 0 0 1 2.144-5.25"/></svg>