<svg xmlns="http://www.w3.org/2000/svg" viewBox="0 0 24 24" width="24" height="24"><g fill="none" stroke="#000" stroke-linejoin="round" stroke-miterlimit="10"><path stroke-linecap="round" d="M16.487 2.895A6.374 6.374 0 0111.508.5h-.017a6.374 6.374 0 01-4.979 2.395c-1.759 0-3.354-.715-5.013-1.874v14.812s1.45 5.271 10 7.668c8.549-2.396 10-7.668 10-7.668V1.021c-1.658 1.159-3.252 1.874-5.012 1.874z"/><path stroke-linecap="round" d="M11.505 4.481h-.011c-2.352 3.081-5.986.761-6.994.382v10.628s1.442 3.426 7 4.983c5.558-1.558 7-4.983 7-4.983V4.863c-1 .753-4.832 2.449-6.995-.382z"/><path d="M14.5 10.5h-2v-2h-2v2h-2v2h2v5h2v-5h2z"/></g><path fill="none" d="M0 0h24v24H0z"/></svg>