<svg xmlns="http://www.w3.org/2000/svg" viewBox="0 0 24 24" width="24" height="24"><defs><style>.a{fill:none;stroke:#000;stroke-linecap:round;stroke-linejoin:round;stroke-width:1.5px}</style></defs><title>religion-devil</title><path class="a" d="M23.25 13.5l-1.5-1.5-1.5 1.5"/><circle class="a" cx="13.5" cy="7.5" r="3.75"/><path class="a" d="M.75 6.75v4.5a1.5 1.5 0 0 0 1.5 1.5h3a1.5 1.5 0 0 0 1.5-1.5v-4.5m-3-1.5v18m12.35-3h2.65a3 3 0 0 0 3-3V12"/><path class="a" d="M15.75 10.5h.563a1.5 1.5 0 0 1 1.49 1.675l-2.053 9.75a1.5 1.5 0 0 1-1.49 1.325h-1.52a1.5 1.5 0 0 1-1.49-1.325l-2.05-9.75a1.5 1.5 0 0 1 1.49-1.675h.563M9 .75a3.106 3.106 0 0 0 1.223 3.566l.789.379M18 .75a3.106 3.106 0 0 1-1.223 3.566l-.7.463"/></svg>