<svg xmlns="http://www.w3.org/2000/svg" viewBox="0 0 24 24" width="24" height="24"><defs><style>.a{fill:none;stroke:#000;stroke-linecap:round;stroke-linejoin:round;stroke-width:1.5px}</style></defs><title>religion-jainism</title><path class="a" d="M13.5 12.751a7.21 7.21 0 0 0-4.892 2.47.712.712 0 0 0 0 .976 7.2 7.2 0 0 0 4.892 2.472 7.2 7.2 0 0 0 4.893-2.469.712.712 0 0 0 0-.976 7.21 7.21 0 0 0-4.893-2.473zm0 2.584a.375.375 0 0 1 .375.375m-.75 0a.375.375 0 0 1 .375-.375m0 .75a.375.375 0 0 1-.375-.375m.75 0a.375.375 0 0 1-.375.375m6.75-2.585V5.25a1.5 1.5 0 0 0-1.5-1.5 1.5 1.5 0 0 0-1.5 1.5v4.5"/><path class="a" d="M6.25 13.048a1.54 1.54 0 0 0-2.242.348 1.542 1.542 0 0 0 0 1.708l2.9 5.474A6 6 0 0 0 11.9 23.25h3.228a5.122 5.122 0 0 0 3.621-1.5 5.126 5.126 0 0 0 1.421-2.724M11.25 9.75v-6a1.5 1.5 0 0 0-1.5-1.5 1.5 1.5 0 0 0-1.5 1.5v6.75m6-6.75v-1.5a1.5 1.5 0 0 0-1.5-1.5 1.5 1.5 0 0 0-1.5 1.5v1.5m6 1.5v-1.5a1.5 1.5 0 0 0-1.5-1.5 1.5 1.5 0 0 0-1.5 1.5v6"/></svg>