<svg xmlns="http://www.w3.org/2000/svg" viewBox="0 0 24 24" width="24" height="24"><defs><style>.a{fill:none;stroke:#000;stroke-linecap:round;stroke-linejoin:round;stroke-width:1.5px}</style></defs><title>remove-bold</title><path class="a" d="M15.823 1.805L12 5.628 8.177 1.805a3.605 3.605 0 0 0-5.1 0L1.806 3.079a3.6 3.6 0 0 0 0 5.1L5.629 12l-3.823 3.822a3.6 3.6 0 0 0 0 5.1l1.274 1.272a3.605 3.605 0 0 0 5.1 0L12 18.371l3.823 3.823a3.605 3.605 0 0 0 5.1 0l1.274-1.274a3.6 3.6 0 0 0 0-5.1L18.372 12l3.822-3.824a3.6 3.6 0 0 0 0-5.1L20.92 1.805a3.605 3.605 0 0 0-5.097 0z"/></svg>