<svg xmlns="http://www.w3.org/2000/svg" viewBox="0 0 24 24" width="24" height="24"><g fill="none" stroke="#000" stroke-linejoin="round" stroke-miterlimit="10"><circle stroke-linecap="round" cx="4.062" cy="20.5" r="3"/><circle stroke-linecap="round" cx="4.062" cy="20.5" r="1"/><circle stroke-linecap="round" cx="17.062" cy="20.5" r="3"/><circle stroke-linecap="round" cx="17.062" cy="20.5" r="1"/><path stroke-linecap="round" d="M2.5 16.5a2 2 0 014 0h8a2 2 0 014 0h4v-5h-9v-4H8l-2 4H2A1.5 1.5 0 00.5 13v3.5h2"/><path stroke-linecap="round" d="M8.5 11.5l1-2h1m-3.438 11H14m2.583-9s-1.037-4.385 2.505-7.593"/><circle stroke-linecap="round" cx="20" cy="3.5" r="1"/><path d="M4.173 17.503l1.001-2.885M16.4 17.574l-.679-2.915"/></g><path fill="none" d="M0 0h24v24H0z"/></svg>