<svg xmlns="http://www.w3.org/2000/svg" viewBox="0 0 24 24" width="24" height="24"><path fill="none" stroke="#000" stroke-linecap="round" stroke-linejoin="round" stroke-miterlimit="10" d="M8.5 16.5H2c-.825 0-1.5-.676-1.5-1.5V2C.5 1.175 1.175.5 2 .5h20c.825 0 1.5.675 1.5 1.5v13c0 .824-.675 1.5-1.5 1.5h-1.5"/><path fill="none" stroke="#000" stroke-linecap="round" stroke-linejoin="round" stroke-miterlimit="10" d="M8.5 14.5h-6v-12h19v12h-1"/><path fill="none" stroke="#000" stroke-linejoin="round" stroke-miterlimit="10" d="M11.5 12.5h6v10h-6z"/><path d="M13.5 14a.5.5 0 10.002 1.002A.5.5 0 0013.5 14zm2 0a.5.5 0 10.002 1.002A.5.5 0 0015.5 14zm-2 2a.5.5 0 10.002 1.002A.5.5 0 0013.5 16zm2 0a.5.5 0 10.002 1.002A.5.5 0 0015.5 16zm-2 2a.5.5 0 10.002 1.002A.5.5 0 0013.5 18zm2 0a.5.5 0 10.002 1.002A.5.5 0 0015.5 18z"/><path fill="none" stroke="#000" stroke-linecap="round" stroke-linejoin="round" stroke-miterlimit="10" d="M17.893 6.963a6.5 6.5 0 00-6.548-.141m5.505 1.844a4.504 4.504 0 00-4.534-.098m3.487 1.806a2.492 2.492 0 00-2.512-.05"/><path fill="none" d="M0 0h24v24H0z"/></svg>