<svg id="Regular" xmlns="http://www.w3.org/2000/svg" viewBox="0 0 24 24" width="24" height="24"><defs><style>.cls-1{fill:none;stroke:#000;stroke-linecap:round;stroke-linejoin:round;stroke-width:1.5px}</style></defs><title>renewable-energy-solar-smartphone</title><path class="cls-1" d="M13.5 12.75a.75.75 0 0 0-.75-.75H1.5a.75.75 0 0 0-.75.75v9.75a.75.75 0 0 0 .75.75h1.709a.751.751 0 0 0 .712-.513l.408-1.224A.751.751 0 0 1 5.041 21h4.168a.751.751 0 0 1 .712.513l.408 1.224a.751.751 0 0 0 .712.513h1.709a.75.75 0 0 0 .75-.75z"/><path class="cls-1" d="M3 12l.75 3h6.75l.75-3m-6 6H9"/><rect class="cls-1" x="15.75" y=".75" width="7.5" height="12" rx="1.5" ry="1.5"/><path class="cls-1" d="M15.75 9.75h7.5m-3.75 3v4.5a1.5 1.5 0 0 1-1.5 1.5h-4.5"/></svg>