<svg id="Regular" xmlns="http://www.w3.org/2000/svg" viewBox="0 0 24 24" width="24" height="24"><defs><style>.cls-1{fill:none;stroke:#000;stroke-linecap:round;stroke-linejoin:round;stroke-width:1.5px}</style></defs><title>renewable-energy-battery-leaf</title><path class="cls-1" d="M13.579 20.754s1.219 2.495 3.27 2.307c4.158-.38 3.88-5.907 5.4-7.859a9.106 9.106 0 0 0-8.265.075c-2.154 1.217-2.307 3.271-.405 5.477zm2.941-2.535s-2.7.334-4.623 5.03"/><path class="cls-1" d="M8.75 23.25H3.5a1.5 1.5 0 0 1-1.5-1.5V5.25a1.5 1.5 0 0 1 1.5-1.5H14a1.5 1.5 0 0 1 1.5 1.5V12M6.75.75h4a1 1 0 0 1 1 1v2h-6v-2a1 1 0 0 1 1-1z"/></svg>