<svg id="Regular" xmlns="http://www.w3.org/2000/svg" viewBox="0 0 24 24" width="24" height="24"><defs><style>.cls-1{fill:none;stroke:#000;stroke-linecap:round;stroke-linejoin:round;stroke-width:1.5px}</style></defs><title>renewable-energy-power-socket</title><path class="cls-1" d="M11.25 4.5h-9A1.5 1.5 0 0 0 .75 6v16.5a.75.75 0 0 0 .75.75h5.537a.748.748 0 0 0 .67-.415l.336-.67a.75.75 0 0 1 .671-.415h6.573a.749.749 0 0 1 .67.415l.336.67a.748.748 0 0 0 .671.415H22.5a.75.75 0 0 0 .75-.75v-9.75m-22.5 6h22.5"/><circle class="cls-1" cx="9" cy="14.25" r="1.5"/><path class="cls-1" d="M19.5 15v3.75m-15 0V10.5a.75.75 0 0 1 .75-.75h6m9.178-9L14.3 6.875a.429.429 0 0 0 .3.732H17v5.143l6.125-6.125a.429.429 0 0 0-.3-.732h-2.397z"/></svg>