<svg id="Regular" xmlns="http://www.w3.org/2000/svg" viewBox="0 0 24 24" width="24" height="24"><defs><style>.cls-1{fill:none;stroke:#000;stroke-linecap:round;stroke-linejoin:round;stroke-width:1.5px}</style></defs><title>renewable-energy-paper-turbine</title><path class="cls-1" d="M10.409 10.409L2.78 2.78a.75.75 0 0 0-1.28.531V12m21 0v8.689a.75.75 0 0 1-1.28.531l-7.629-7.629m-3.182 0L2.78 21.22a.75.75 0 0 0 .531 1.28H12m0-21h8.689a.75.75 0 0 1 .531 1.28l-7.629 7.629M12 22.5l5.25-5.25M22.5 12l-5.25-5.25M12 1.5L6.75 6.75M1.5 12l5.25 5.25"/><circle class="cls-1" cx="12" cy="12" r="2.25"/></svg>