<svg id="Regular" xmlns="http://www.w3.org/2000/svg" viewBox="0 0 24 24" width="24" height="24"><defs><style>.cls-1{fill:none;stroke:#000;stroke-linecap:round;stroke-linejoin:round;stroke-width:1.5px}</style></defs><title>renewable-energy-battery-charge</title><path class="cls-1" d="M14.25 8.25v-1.5h-4.5v1.5H9a.75.75 0 0 0-.75.75v7.5a.75.75 0 0 0 .75.75h6a.75.75 0 0 0 .75-.75V9a.75.75 0 0 0-.75-.75z"/><path class="cls-1" d="M20.25 18.75a3 3 0 0 1-3 3H6.75a3 3 0 0 1-3-3V9m0-3.75a3 3 0 0 1 3-3h10.5a3 3 0 0 1 3 3V15"/><path class="cls-1" d="M22.5 12.75L20.25 15 18 12.75m-16.5-1.5L3.75 9 6 11.25"/></svg>