<svg id="Regular" xmlns="http://www.w3.org/2000/svg" viewBox="0 0 24 24" width="24" height="24"><defs><style>.cls-1{fill:none;stroke:#000;stroke-linecap:round;stroke-linejoin:round;stroke-width:1.5px}</style></defs><title>renewable-energy-battery-charge-1</title><path class="cls-1" d="M13.5 6.75l-5.36 5.36a.375.375 0 0 0 .265.64h2.1v4.5l5.36-5.36a.375.375 0 0 0-.265-.64h-2.1zM.849 13.5A11.417 11.417 0 0 1 .75 12 11.25 11.25 0 0 1 12 .75M23.151 13.5a11.417 11.417 0 0 0 .1-1.5A11.25 11.25 0 0 0 12 .75m10.316 15.742a10.729 10.729 0 0 1-1.41 2.381m-2.169 2.133a10.576 10.576 0 0 1-2.4 1.372m-8.651 0a10.523 10.523 0 0 1-2.4-1.372m-2.172-2.133A10.706 10.706 0 0 1 1.7 16.492m11.8 6.659a11.413 11.413 0 0 1-3 0"/></svg>