<svg id="Regular" xmlns="http://www.w3.org/2000/svg" viewBox="0 0 24 24" width="24" height="24"><defs><style>.cls-1{fill:none;stroke:#000;stroke-linecap:round;stroke-linejoin:round;stroke-width:1.5px}</style></defs><title>renewable-energy-solar-power</title><path class="cls-1" d="M20.25 9.75l-5.911 6.882a.376.376 0 0 0 .286.618h2.625v6l5.911-6.882a.376.376 0 0 0-.286-.618H20.25zM13.5 21.722c-.247.018-.5.028-.749.028a9.748 9.748 0 0 1-8.656-5.259M14.251 2.365a9.749 9.749 0 0 1 6.717 4.386"/><circle class="cls-1" cx="6.75" cy="6.75" r="2.25"/><path class="cls-1" d="M6.75 2.25V.75m4.5 6h1.5m-6 4.5v1.5m-4.5-6H.75m2.818-3.182L2.507 2.507m7.425 1.061l1.061-1.061M9.932 9.932l1.061 1.061M3.568 9.932l-1.061 1.061"/></svg>