<svg id="Regular" xmlns="http://www.w3.org/2000/svg" viewBox="0 0 24 24" width="24" height="24"><defs><style>.cls-1{fill:none;stroke:#000;stroke-linecap:round;stroke-linejoin:round;stroke-width:1.5px}</style></defs><title>renewable-energy-solar-panel</title><path class="cls-1" d="M22.5 20.25H6.314a.749.749 0 0 1-.706-1l3.214-9a.749.749 0 0 1 .706-.5h9.114a.749.749 0 0 1 .689.455l3.858 9a.75.75 0 0 1-.689 1.045zm-10.5 0v3m4.5-3v3M4.9 11.251A4.5 4.5 0 1 1 12.147 6M8.25 1.5V.75m5.25 3l.75-.75M3 3.75L2.25 3M1.5 8.25H.75M3 12.75l-.75.75m12-3.75v10.5m-6.857-6H21.07"/></svg>