<svg id="Regular" xmlns="http://www.w3.org/2000/svg" viewBox="0 0 24 24" width="24" height="24"><defs><style>.cls-1{fill:none;stroke:#000;stroke-linecap:round;stroke-linejoin:round;stroke-width:1.5px}</style></defs><title>renewable-energy-water-power</title><path class="cls-1" d="M20.25 9.75l-5.911 6.882a.376.376 0 0 0 .286.618h2.625v6l5.911-6.882a.376.376 0 0 0-.286-.618H20.25zM9.75 9a4.5 4.5 0 0 1-9 0C.75 6 4.5.75 5.25.75S9.75 6 9.75 9zm-4.5 1.5A1.5 1.5 0 0 1 3.75 9m9.75 12.722c-.247.018-.5.028-.749.028a9.748 9.748 0 0 1-8.656-5.259M11.25 2.365a9.764 9.764 0 0 1 9.718 4.386"/></svg>