<svg id="Regular" xmlns="http://www.w3.org/2000/svg" viewBox="0 0 24 24" width="24" height="24"><defs><style>.cls-1{fill:none;stroke:#000;stroke-linecap:round;stroke-linejoin:round;stroke-width:1.5px}</style></defs><title>renewable-energy-solar-electricity</title><path class="cls-1" d="M11.25 12H1.5a.75.75 0 0 0-.75.75v9.75a.75.75 0 0 0 .75.75h1.709a.751.751 0 0 0 .712-.513l.408-1.224A.751.751 0 0 1 5.041 21h4.168a.751.751 0 0 1 .712.513l.408 1.224a.751.751 0 0 0 .712.513h1.709a.75.75 0 0 0 .75-.75V18M15.75.75v1.5m5.303.697l-1.06 1.06M23.25 8.25h-1.5m-.697 5.303l-1.06-1.06m-9.546-9.546l1.06 1.06M8.25 8.25h1.5m6 5.25v2.25m3.75-7.5a3.75 3.75 0 1 0-5.25 3.437V13.5h3v-1.813A3.751 3.751 0 0 0 19.5 8.25z"/><path class="cls-1" d="M3 12l.75 3h6.75l.75-3m-6 6H9"/></svg>