<svg id="Regular" xmlns="http://www.w3.org/2000/svg" viewBox="0 0 24 24" width="24" height="24"><defs><style>.cls-1{fill:none;stroke:#000;stroke-linecap:round;stroke-linejoin:round;stroke-width:1.5px}</style></defs><title>renewable-energy-accumulator</title><path class="cls-1" d="M10.5.75L4.589 7.632a.376.376 0 0 0 .286.618H7.5v6l5.911-6.882a.376.376 0 0 0-.286-.618H10.5z"/><path class="cls-1" d="M13.5 2.25H21a1.5 1.5 0 0 1 1.5 1.5v18a1.5 1.5 0 0 1-1.5 1.5H3a1.5 1.5 0 0 1-1.5-1.5v-18A1.5 1.5 0 0 1 3 2.25h2.25m3.75 15v3M13.5 15v5.25m4.5-9v9m-10.5 0h12"/></svg>