<svg xmlns="http://www.w3.org/2000/svg" viewBox="0 0 24 24" width="24" height="24"><defs><style>.a{fill:none;stroke:#000;stroke-linecap:round;stroke-linejoin:round;stroke-width:1.5px}</style></defs><title>reorder-up</title><path class="a" d="M18.75 3.75v16.5m-4.5-12l3.97-4.28a.749.749 0 0 1 1.06 0l3.97 4.28"/><rect class="a" x=".75" y="14.25" width="9" height="9" rx="1" ry="1"/><path class="a" d="M2.25.75a1.5 1.5 0 0 0-1.5 1.5m0 6a1.5 1.5 0 0 0 1.5 1.5m6-9a1.5 1.5 0 0 1 1.5 1.5m0 6a1.5 1.5 0 0 1-1.5 1.5M4.5.75H6m-1.5 9H6M.75 6V4.5m9 1.5V4.5"/></svg>