<svg xmlns="http://www.w3.org/2000/svg" viewBox="0 0 24 24" width="24" height="24"><defs><style>.a{fill:none;stroke:#000;stroke-linecap:round;stroke-linejoin:round;stroke-width:1.5px}</style></defs><title>reorder-down</title><path class="a" d="M18.75 20.25V3.75m-4.5 12l3.97 4.28a.749.749 0 0 0 1.06 0l3.97-4.28"/><rect class="a" x=".75" y=".75" width="9" height="9" rx="1" ry="1"/><path class="a" d="M2.25 23.25a1.5 1.5 0 0 1-1.5-1.5m0-6a1.5 1.5 0 0 1 1.5-1.5m6 9a1.5 1.5 0 0 0 1.5-1.5m0-6a1.5 1.5 0 0 0-1.5-1.5m-3.75 9H6m-1.5-9H6M.75 18v1.5m9-1.5v1.5"/></svg>