<svg id="Regular" xmlns="http://www.w3.org/2000/svg" viewBox="0 0 24 24" width="24" height="24"><defs><style>.cls-1{fill:none;stroke:#000;stroke-linecap:round;stroke-linejoin:round;stroke-width:1.5px}</style></defs><title>reptile-hippo-1</title><path class="cls-1" d="M.75 17.976c1.494 0 2.242 1.5 3.736 1.5s2.242-1.5 3.736-1.5 2.242 1.5 3.736 1.5 2.242-1.5 3.737-1.5 2.241 1.5 3.736 1.5 2.242-1.5 3.736-1.5M.75 14.24h5.231c2.989 0 2.241-3.736.747-4.483L.75 6.768a4.343 4.343 0 0 1 4.483-2.989 4.344 4.344 0 0 1 4.484 2.989 3.754 3.754 0 0 1 3.736-.747c2.242.747 1.494 3.736 1.494 3.736s3.305-1.337 5.978 0a4.012 4.012 0 0 1 2.242 4.483M12.332 8.261a.375.375 0 0 1 .375.375m-.75 0a.375.375 0 0 1 .375-.375m0 .75a.375.375 0 0 1-.375-.375m.75 0a.375.375 0 0 1-.375.375M2.244 14.24v-1.494m0-5.231L1.497 9.01m3.736-2.989h.748"/></svg>