<svg id="Regular" xmlns="http://www.w3.org/2000/svg" viewBox="0 0 24 24" width="24" height="24"><defs><style>.cls-1{fill:none;stroke:#000;stroke-linecap:round;stroke-linejoin:round;stroke-width:1.5px}</style></defs><title>reptile-crocodile</title><path class="cls-1" d="M6 18a5.251 5.251 0 0 1-5.25-5.25C.75 9.851 3 7.5 5.25 7.5L6.75 6l1.5 1.5L9.75 6l1.5 1.5h1.5a3.344 3.344 0 0 1 3-2.25 3.344 3.344 0 0 1 3 2.25h4.5"/><path class="cls-1" d="M23.25 6v3a1.5 1.5 0 0 1-1.5 1.5h-3a1.51 1.51 0 1 0 0 3h3.75M4.5 15s0-1.5 3-1.5h6.75"/><path class="cls-1" d="M13.5 13.5v3H15m-6.75-3v3h1.5m6-8.625a.375.375 0 0 1 .375.375m-.75 0a.375.375 0 0 1 .375-.375m0 .75a.375.375 0 0 1-.375-.375m.75 0a.375.375 0 0 1-.375.375"/></svg>