<svg id="Regular" xmlns="http://www.w3.org/2000/svg" viewBox="0 0 24 24" width="24" height="24"><defs><style>.cls-1{fill:none;stroke:#000;stroke-linecap:round;stroke-linejoin:round;stroke-width:1.5px}</style></defs><title>reptile-crocodile-water</title><path class="cls-1" d="M.75 16.25c1.5 0 2.25 1.5 3.75 1.5s2.25-1.5 3.75-1.5 2.25 1.5 3.75 1.5 2.25-1.5 3.75-1.5 2.25 1.5 3.75 1.5 2.25-1.5 3.75-1.5M15 14c0-1.5 1.5-2.25 3-2.25h3.75a1.5 1.5 0 0 0 1.5-1.5v-3"/><path class="cls-1" d="M23.25 8.75h-7.5a3.344 3.344 0 0 0-3-2.25 3.344 3.344 0 0 0-3 2.25h-4.5l-1.5-1.5-1.5 1.5H.75m12.375.75a.375.375 0 0 1 .375.375m-.75 0a.375.375 0 0 1 .375-.375m0 .75a.375.375 0 0 1-.375-.375m.75 0a.375.375 0 0 1-.375.375"/></svg>