<svg id="Regular" xmlns="http://www.w3.org/2000/svg" viewBox="0 0 24 24" width="24" height="24"><defs><style>.cls-1{fill:none;stroke:#000;stroke-linecap:round;stroke-linejoin:round;stroke-width:1.5px}</style></defs><title>reptile-cobra</title><path class="cls-1" d="M14.26 21.75v-6a5.064 5.064 0 0 1 3-4.5c2.25-.75 3.75-2.015 3.75-4.5a4.5 4.5 0 0 0-4.5-4.5H8.26a4.5 4.5 0 0 0-4.5 4.5c0 2.485 1.5 3.75 3.75 4.5a5.064 5.064 0 0 1 3 4.5v3c0 2.25.75 3 3.75 3z"/><path class="cls-1" d="M14.26 21.75h7.125a1.875 1.875 0 1 0 0-3.75H14.26m-3.75 0H2.635a1.875 1.875 0 1 0 0 3.75H7.51m.75-19.5l4.125 4.5 4.125-4.5H8.26zm4.125 4.5v1.5m-1.65 1.5l1.65-1.5 1.65 1.5"/></svg>