<svg xmlns="http://www.w3.org/2000/svg" viewBox="0 0 24 24" width="24" height="24"><defs><style>.a{fill:none;stroke:#000;stroke-linecap:round;stroke-linejoin:round;stroke-width:1.5px}</style></defs><title>resize-expand-sides</title><path class="a" d="M20.561.75l2.47 2.47a.749.749 0 0 1 0 1.06l-2.47 2.47"/><path class="a" d="M3.75 23.25v-18a1.5 1.5 0 0 1 1.5-1.5h18"/><path class="a" d="M6.75 20.561L4.281 23.03a.75.75 0 0 1-1.061 0L.75 20.561m21 2.689a1.5 1.5 0 0 0 1.5-1.5m-4.5 1.5h-1.5m-3 0h-1.5m-3 0h-1.5m15-4.5v-1.5m0-3v-1.5m0-3v-1.5"/></svg>