<svg xmlns="http://www.w3.org/2000/svg" viewBox="0 0 24 24" width="24" height="24"><defs><style>.a{fill:none;stroke:#000;stroke-linecap:round;stroke-linejoin:round;stroke-width:1.5px}</style></defs><title>resize-shrink</title><path class="a" d="M11.25 18.75h10.5a1.5 1.5 0 0 0 1.5-1.5v-15a1.5 1.5 0 0 0-1.5-1.5h-15a1.5 1.5 0 0 0-1.5 1.5v10.5"/><path class="a" d="M17.25 11.25H13.5a.75.75 0 0 1-.75-.75V6.75m7.5-3l-7.28 7.28M.75 18.75v-1.5m0-3a1.5 1.5 0 0 1 1.5-1.5m9 6v-1.5m0-3a1.5 1.5 0 0 0-1.5-1.5m-9 9a1.5 1.5 0 0 0 1.5 1.5m9-1.5a1.5 1.5 0 0 1-1.5 1.5m-4.5-10.5h1.5m-1.5 10.5h1.5"/></svg>