<svg xmlns="http://www.w3.org/2000/svg" viewBox="0 0 24 24" width="24" height="24"><defs><style>.a{fill:none;stroke:#000;stroke-linecap:round;stroke-linejoin:round;stroke-width:1.5px}</style></defs><title>resize-expand</title><rect class="a" x="5.25" y="5.25" width="13.5" height="13.5" rx="1.5" ry="1.5"/><path class="a" d="M23.25 20.25v1.5a1.5 1.5 0 0 1-1.5 1.5h-1.5m0-22.5h1.5a1.5 1.5 0 0 1 1.5 1.5v1.5m-22.5 0v-1.5a1.5 1.5 0 0 1 1.5-1.5h1.5m0 22.5h-1.5a1.5 1.5 0 0 1-1.5-1.5v-1.5M23.25 7.5v2.25m0 4.5v2.25m-22.5-9v2.25m0 4.5v2.25m15.75 6.75h-2.25m-4.5 0H7.5m9-22.5h-2.25m-4.5 0H7.5"/></svg>