<svg xmlns="http://www.w3.org/2000/svg" viewBox="0 0 24 24" width="24" height="24"><defs><style>.a{fill:none;stroke:#000;stroke-linecap:round;stroke-linejoin:round;stroke-width:1.5px}</style></defs><title>resize-expand-corner</title><rect class="a" x="5.25" y=".75" width="18" height="18" rx="1" ry="1"/><path class="a" d="M15.75 3.75h3.75a.75.75 0 0 1 .75.75v3.75m-.219-4.28L13.5 10.5M.75 18.75v-1.5m0-3a1.5 1.5 0 0 1 1.5-1.5m9 6v-1.5m0-3a1.5 1.5 0 0 0-1.5-1.5m-9 9a1.5 1.5 0 0 0 1.5 1.5m9-1.5a1.5 1.5 0 0 1-1.5 1.5m-4.5-10.5h1.5m-1.5 10.5h1.5"/></svg>