<svg xmlns="http://www.w3.org/2000/svg" viewBox="0 0 24 24" width="24" height="24"><defs><style>.a{fill:none;stroke:#000;stroke-linecap:round;stroke-linejoin:round;stroke-width:1.5px}</style></defs><title>responsive-design-laptop</title><path class="a" d="M14.584 18.75a2.976 2.976 0 0 1-5.168 0H.75v1.5a3 3 0 0 0 3 3h16.5a3 3 0 0 0 3-3v-1.5zm-12.334 0v-4.63m19.5 4.63v-4.63m-12-7.37h4.5"/><rect class="a" x=".75" y=".75" width="9" height="13.5" rx="2.25" ry="2.25"/><path class="a" d="M9.75 11.25h-9m9-7.5h-9"/><rect class="a" x="14.25" y=".75" width="9" height="13.5" rx="2.25" ry="2.25"/><path class="a" d="M23.25 11.25h-9m9-7.5h-9"/></svg>