<svg xmlns="http://www.w3.org/2000/svg" viewBox="0 0 24 24" width="24" height="24"><defs><style>.a{fill:none;stroke:#000;stroke-linecap:round;stroke-linejoin:round;stroke-width:1.5px}</style></defs><title>responsive-design-1</title><path class="a" d="M15.75 14.25l.75 4.5m-1.5 0h3.75m-3-7.5h7.5m-7.5 3h6a1.5 1.5 0 0 0 1.5-1.5V2.25a1.5 1.5 0 0 0-1.5-1.5H5.25a1.5 1.5 0 0 0-1.5 1.5"/><rect class="a" x=".75" y="11.25" width="7.5" height="12" rx="1.5" ry="1.5"/><path class="a" d="M.75 20.25h7.5m-4.5-12v-1.5a1.5 1.5 0 0 1 1.5-1.5h6a1.5 1.5 0 0 1 1.5 1.5v9a1.5 1.5 0 0 1-1.5 1.5m0-3h1.5m-9-6h9"/></svg>