<svg xmlns="http://www.w3.org/2000/svg" viewBox="0 0 24 24" width="24" height="24"><defs><style>.a{fill:none;stroke:#000;stroke-linecap:round;stroke-linejoin:round;stroke-width:1.5px}</style></defs><title>responsive-design-image</title><rect class="a" x="15.75" y=".75" width="7.5" height="12" rx="1.5" ry="1.5"/><path class="a" d="M15.75 9.75h7.5m-7.5-6h7.5m-10.5 0H2.25a1.5 1.5 0 0 0-1.5 1.5v16.5a1.5 1.5 0 0 0 1.5 1.5h18a1.5 1.5 0 0 0 1.5-1.5v-6m-21-7.5h12"/><path class="a" d="M6.461 12a.375.375 0 1 1-.375.375.375.375 0 0 1 .375-.375M18 20.25l-3.87-5.837a.749.749 0 0 0-1.238-.014L10.9 17.25l-1.24-.989a.75.75 0 0 0-1.092.17L6.022 20.25m-1.522 0H18"/></svg>