<svg xmlns="http://www.w3.org/2000/svg" viewBox="0 0 24 24" width="24" height="24"><defs><style>.a{fill:none;stroke:#000;stroke-linecap:round;stroke-linejoin:round;stroke-width:1.5px}</style></defs><title>responsive-design-hand</title><path class="a" d="M16.61 23.25l-3.789-3.094a1.637 1.637 0 0 1-.566-1.675 1.637 1.637 0 0 1 2.321-1.068L15.75 18v-5.25a1.5 1.5 0 0 1 1.5-1.5 1.5 1.5 0 0 1 1.5 1.5v3l1.993.332a3 3 0 0 1 2.507 2.959v4.209m-19.5-6h-1.5a1.5 1.5 0 0 1-1.5-1.5V2.25a1.5 1.5 0 0 1 1.5-1.5h7.5a1.5 1.5 0 0 1 1.5 1.5v1.5M.75 14.25h3m-3-10.5h10.5"/><path class="a" d="M8.25 17.25a1.5 1.5 0 0 1-1.5-1.5v-7.5a1.5 1.5 0 0 1 1.5-1.5h13.5a1.5 1.5 0 0 1 1.5 1.5v4.5m-13.5-6v9m10.5-9v3"/></svg>