<svg xmlns="http://www.w3.org/2000/svg" viewBox="0 0 24 24" width="24" height="24"><defs><style>.a{fill:none;stroke:#000;stroke-linecap:round;stroke-linejoin:round;stroke-width:1.5px}</style></defs><title>responsive-design-phone</title><path class="a" d="M6.75 11.25h-3a1.5 1.5 0 0 0-1.5 1.5v9a1.5 1.5 0 0 0 1.5 1.5h4.5a1.5 1.5 0 0 0 1.5-1.5v-3m-7.5 1.5h7.5m7.5-3h3a1.5 1.5 0 0 0 1.5-1.5V2.25a1.5 1.5 0 0 0-1.5-1.5h-7.5a1.5 1.5 0 0 0-1.5 1.5v1.5m10.5 10.5h-4.5m4.5-10.5h-10.5m7.5 3l-9 9"/><path class="a" d="M18.75 11.25v-4.5h-4.5m0 9h-4.5v-4.5"/></svg>