<svg id="Regular" xmlns="http://www.w3.org/2000/svg" viewBox="0 0 24 24" width="24" height="24"><defs><style>.cls-1{fill:none;stroke:#000;stroke-linecap:round;stroke-linejoin:round;stroke-width:1.5px}</style></defs><title>restaurant-dishes</title><path class="cls-1" d="M11.25 17.25l-3.2-3.334a1.891 1.891 0 0 1-.35-2.183 1.89 1.89 0 0 1 3.028-.491l.522.522.522-.522a1.89 1.89 0 0 1 3.028.491 1.891 1.891 0 0 1-.354 2.183zM2.25 9v13.5M20.247 15H22.5a.75.75 0 0 0 .75-.748c.008-3.831.028-8.458-1.559-12.289a.75.75 0 0 0-1.443.287V22.5M.75 1.5v6A1.5 1.5 0 0 0 2.25 9a1.5 1.5 0 0 0 1.5-1.5v-6M16.5 8.565a7.176 7.176 0 0 0-10.5 0m0 9.87a7.176 7.176 0 0 0 10.5 0"/></svg>