<svg id="Regular" xmlns="http://www.w3.org/2000/svg" viewBox="0 0 24 24" width="24" height="24"><defs><style>.cls-1{fill:none;stroke:#000;stroke-linecap:round;stroke-linejoin:round;stroke-width:1.5px}</style></defs><title>restaurant-eating-set</title><path class="cls-1" d="M2.25 9v13.5M20.247 15H22.5a.75.75 0 0 0 .75-.748c.008-3.831.028-8.458-1.559-12.289a.75.75 0 0 0-1.443.287V22.5M.75 1.5v6A1.5 1.5 0 0 0 2.25 9a1.5 1.5 0 0 0 1.5-1.5v-6M16.5 8.283a7.173 7.173 0 0 0-9.744-.7M6 18.717a7.178 7.178 0 0 0 10.5 0"/></svg>