<svg id="Regular" xmlns="http://www.w3.org/2000/svg" viewBox="0 0 24 24" width="24" height="24"><defs><style>.cls-1{fill:none;stroke:#000;stroke-linecap:round;stroke-linejoin:round;stroke-width:1.5px}</style></defs><title>restaurant-food-truck</title><circle class="cls-1" cx="5.25" cy="18.75" r="2.25"/><circle class="cls-1" cx="18.75" cy="18.75" r="2.25"/><path class="cls-1" d="M23.25 10.5V18a1.5 1.5 0 0 1-1.5 1.5h-.878m-4.244 0H7.372m-4.244 0H2.25A1.5 1.5 0 0 1 .75 18v-5.25l2.573-4.472A1.5 1.5 0 0 1 4.638 7.5H6m2.25 3.75v8.25m-7.5-6.75h7.5m6-6a1.5 1.5 0 0 1-3 0m6 0a1.5 1.5 0 0 1-3 0m6 0a1.5 1.5 0 0 1-3 0"/><path class="cls-1" d="M20.25 6.75a1.5 1.5 0 0 0 3 0L21.75 3h-12l-1.5 3.75a1.5 1.5 0 0 0 3 0m9 3.75v3h-9v-3"/></svg>