<svg id="Regular" xmlns="http://www.w3.org/2000/svg" viewBox="0 0 24 24" width="24" height="24"><defs><style>.cls-1{fill:none;stroke:#000;stroke-linecap:round;stroke-linejoin:round;stroke-width:1.5px}</style></defs><title>restaurant-seat</title><circle class="cls-1" cx="3.75" cy="3.563" r="2.625"/><path class="cls-1" d="M8.25 23.063a1.5 1.5 0 0 1-1.5-1.5v-3h-3a3 3 0 0 1-3-3v-6a1.5 1.5 0 0 1 2.4-1.2c.025.017 2.652 1.95 5.1 1.95a1.5 1.5 0 0 1 0 3 10.823 10.823 0 0 1-4.5-1.143v3.393h3a3 3 0 0 1 3 3v3a1.5 1.5 0 0 1-1.5 1.5zm-4.5-1.5h-3m22.5-9h-9a1.5 1.5 0 0 0 0 3h9m-3 0v7.5m-.75-15H15l.75 4.5h3l.75-4.5z"/></svg>