<svg xmlns="http://www.w3.org/2000/svg" viewBox="0 0 24 24" width="24" height="24"><defs><style>.a{fill:none;stroke:#000;stroke-linecap:round;stroke-linejoin:round;stroke-width:1.5px}</style></defs><title>retouch-smile</title><path class="a" d="M22.562 15.844a10.2 10.2 0 0 1-1.031 2.112m-3.24 3.371a12.434 12.434 0 0 1-2.078 1.1m-4.605.803a10.5 10.5 0 0 1-2.327-.325M5.08 20.857a11.813 11.813 0 0 1-1.7-1.629M1.193 15.1a11.029 11.029 0 0 1-.4-2.315m.646-4.629a10.145 10.145 0 0 1 1.03-2.112m3.24-3.371a12.434 12.434 0 0 1 2.078-1.1M12.392.77a10.5 10.5 0 0 1 2.327.325m4.201 2.048a11.813 11.813 0 0 1 1.695 1.629M22.807 8.9a11.029 11.029 0 0 1 .4 2.315"/><circle class="a" cx="12" cy="12" r="7.5"/><path class="a" d="M13.982 14.557a4.1 4.1 0 0 1-3.964 0m-.268-4.402a.375.375 0 1 1-.375.375.375.375 0 0 1 .375-.375m4.55 0a.375.375 0 1 0 .375.375.375.375 0 0 0-.375-.375"/></svg>