<svg xmlns="http://www.w3.org/2000/svg" viewBox="0 0 24 24" width="24" height="24"><defs><style>.a{fill:none;stroke:#000;stroke-linecap:round;stroke-linejoin:round;stroke-width:1.5px}</style></defs><title>retouch-landscape</title><path class="a" d="M23.25 13.125L15.787 5.62m-3.29-3.29l1.383 1.383m2.588-2.588l-.382 1.919m3.59.714l-1.808.748m-6.576 1.795l1.919-.382m.714 3.589l.749-1.807m4.076 5.424V21.5a1.38 1.38 0 0 1-1.385 1.375H2.135A1.38 1.38 0 0 1 .75 21.5V7.75a1.38 1.38 0 0 1 1.385-1.375H8.25"/><path class="a" d="M4.875 10.125a.375.375 0 1 1-.375.375.375.375 0 0 1 .375-.375m-1.125 9.75l4.871-5.567a1.5 1.5 0 0 1 2.258 0l4.871 5.567"/></svg>