<svg xmlns="http://www.w3.org/2000/svg" viewBox="0 0 24 24" width="24" height="24"><defs><style>.a{fill:none;stroke:#000;stroke-linecap:round;stroke-linejoin:round;stroke-width:1.5px}</style></defs><title>retouch-select</title><path class="a" d="M19.5 7.5c-.009 2.355 1.14 3.694 3.75 3.75-2.423-.009-3.627 1.291-3.75 3.75-.021-2.32-1.06-3.753-3.75-3.75 2.407-.034 3.741-1.195 3.75-3.75zM11.283.75c-.013 3.318 1.605 5.2 5.282 5.283-3.413-.013-5.109 1.818-5.282 5.282C11.254 8.047 9.789 6.028 6 6.033c3.39-.048 5.27-1.684 5.283-5.283zM.75 19.728v2.348a1.177 1.177 0 0 0 1.174 1.174h2.348m0-22.5H1.924A1.177 1.177 0 0 0 .75 1.924v2.348m22.5 0V1.924A1.177 1.177 0 0 0 22.076.75h-2.348m0 22.5h2.348a1.177 1.177 0 0 0 1.174-1.174v-2.348m-6.65-2.364a7.125 7.125 0 0 1-12.85-4.157A6.963 6.963 0 0 1 4.94 9.3"/></svg>