<svg xmlns="http://www.w3.org/2000/svg" viewBox="0 0 24 24" width="24" height="24"><defs><style>.a{fill:none;stroke:#000;stroke-linecap:round;stroke-linejoin:round;stroke-width:1.5px}</style></defs><title>retouch-sticker</title><path class="a" d="M7.125 9a.375.375 0 1 1-.375.375A.375.375 0 0 1 7.125 9m-1.612 6.424A7.334 7.334 0 0 0 12 19.337c.168 0 .334-.006.5-.017q.207-.014.411-.039"/><path class="a" d="M23.239 11.523A11.25 11.25 0 1 0 12 23.25c.168 0 .334 0 .5-.012M14.446 9.66a2.308 2.308 0 0 1 3.913 0m4.88 1.863L12.5 23.238"/><path class="a" d="M12.489 23.25v-.978A10.761 10.761 0 0 1 23.25 11.511"/></svg>