<svg id="Regular" xmlns="http://www.w3.org/2000/svg" viewBox="0 0 24 24" width="24" height="24"><defs><style>.cls-1{fill:none;stroke:#000;stroke-linecap:round;stroke-linejoin:round;stroke-width:1.5px}</style></defs><title>rhino-body</title><path class="cls-1" d="M20.3 15.45l-.3.3S17.75 18 14 15m2.152-8.25h.1c.75 0 2.25 0 4.5 2.25 3 3 2.25 6.75 0 6.75l-2.25-1.5"/><path class="cls-1" d="M14.781 15.566l-.681 4.057a.749.749 0 0 1-.739.627h-1.75a.751.751 0 0 1-.736-.6l-.625-3.15H4.5l-.629 3.147a.751.751 0 0 1-.736.6H1.5a.75.75 0 0 1-.75-.75V11.25q0-4.5 4.5-4.5h7.25l3-3s1.5 3 0 4.5m4.474.035L22.25 5.25s2.386 3.182-.214 5.449m-4.661-.199a.375.375 0 0 0-.375.375m.75 0a.375.375 0 0 0-.375-.375m0 .75a.375.375 0 0 0 .375-.375m-.75 0a.375.375 0 0 0 .375.375"/></svg>