<svg xmlns="http://www.w3.org/2000/svg" viewBox="0 0 24 24" width="24" height="24"><path fill="none" stroke="#000" stroke-linejoin="round" stroke-miterlimit="10" d="M22.927 2.049l-2.646 9.237c-1.026.834-2.969.625-4.198.329L20.79 1.243a1.147 1.147 0 011.472-.666c.59.225.885.883.665 1.472z"/><path fill="none" stroke="#000" stroke-linejoin="round" stroke-miterlimit="10" d="M20.77 9.235c1.087.73 1.73 1.594 1.73 2.52 0 2.624-5.17 4.75-10.969 4.75S.5 14.379.5 11.755c0-2.623 5.232-4.75 11.031-4.75 2.175 0 4.261.299 6.019.811"/><path fill="none" stroke="#000" stroke-linejoin="round" stroke-miterlimit="10" d="M.5 11.505v2c0 5.799 3.5 10.001 11.031 10.001S22.5 19.304 22.5 13.505v-2"/><path fill="none" stroke="#000" stroke-linecap="round" stroke-linejoin="round" stroke-miterlimit="10" d="M4 12.505a2 2 0 014 0m4.5 1.75a1.5 1.5 0 013 0m-5.5-3.75a1 1 0 112 0"/><path fill="none" d="M0 0h24v24H0z"/></svg>