<svg xmlns="http://www.w3.org/2000/svg" viewBox="0 0 24 24" width="24" height="24"><defs><style>.a{fill:none;stroke:#000;stroke-linecap:round;stroke-linejoin:round;stroke-width:1.5px}</style></defs><title>road-curvy</title><path class="a" d="M15.75 18.763v4.5m0-13.5v4.5m7.5 4.5h-4.5v-6h4.5"/><path class="a" d="M18.75 23.263v-13.5a9 9 0 1 0-9 9h3v-6h-3a3 3 0 1 1 3-3v13.5m9-7.5h-3m-9-12a5.985 5.985 0 0 1 4.243 1.757M3.75 9.763A5.985 5.985 0 0 1 5.507 5.52M9.75 15.763a5.985 5.985 0 0 1-4.243-1.757"/></svg>