<svg xmlns="http://www.w3.org/2000/svg" viewBox="0 0 24 24" width="24" height="24"><defs><style>.a{fill:none;stroke:#000;stroke-linecap:round;stroke-linejoin:round;stroke-width:1.5px}</style></defs><title>road-sign-2.5m-high</title><path class="a" d="M10.5.75l1.5 1.5 1.5-1.5m0 22.5l-1.5-1.5-1.5 1.5M6 5.25a1.5 1.5 0 0 1 1.5-1.5A1.5 1.5 0 0 1 9 5.25a2.139 2.139 0 0 1-.468 1.336L6 9.75h3m9-6h-3V6a.75.75 0 0 0 .75.75h.75a1.5 1.5 0 0 1 0 3H15m-3-.375a.375.375 0 0 1 .375.375m-.75 0A.375.375 0 0 1 12 9.375m0 .75a.375.375 0 0 1-.375-.375m.75 0a.375.375 0 0 1-.375.375m2.25 9.375v-6L12 17.25 9.75 13.5v6"/></svg>