<svg xmlns="http://www.w3.org/2000/svg" viewBox="0 0 24 24" width="24" height="24"><defs><style>.a{fill:none;stroke:#000;stroke-linecap:round;stroke-linejoin:round;stroke-width:1.5px}</style></defs><title>road-traffic-lights</title><circle class="a" cx="12" cy="12.013" r="2.25"/><circle class="a" cx="12" cy="6.013" r="2.25"/><circle class="a" cx="12" cy="18.013" r="2.25"/><rect class="a" x="6.75" y=".763" width="10.5" height="22.5" rx="2" ry="2"/><path class="a" d="M6.75 3.763H3.227a.977.977 0 0 0-.542 1.79l4.065 2.71m0 1.5H3.227a.977.977 0 0 0-.542 1.79l4.065 2.71m0 1.5H3.227a.977.977 0 0 0-.542 1.79l4.065 2.71m10.5-16.5h3.523a.977.977 0 0 1 .542 1.79l-4.065 2.71m0 1.5h3.523a.977.977 0 0 1 .542 1.79l-4.065 2.71m0 1.5h3.523a.977.977 0 0 1 .542 1.79l-4.065 2.71"/></svg>