<svg xmlns="http://www.w3.org/2000/svg" viewBox="0 0 24 24" width="24" height="24"><g fill="none" stroke="#000" stroke-linecap="round" stroke-linejoin="round" stroke-miterlimit="10"><path d="M16.5 23.484V9.5a8 8 0 10-8 8h2m6-6h7m-7 6h7"/><path d="M10.5 11.5h-2c-1.104 0-2.004-.896-2.004-2s.899-2 2.004-2 2 .896 2 2v14m3-1v-5m0-3.969v-5m-9.498 3.157A4.98 4.98 0 013.5 9.5c0-.771.175-1.501.486-2.153"/><path d="M6.983 14.275c.469.147.999.225 1.517.225H10M6.288 5.015A4.988 4.988 0 018.5 4.5c.774 0 1.507.176 2.161.489M18.5 14.5h4"/></g><path fill="none" d="M0 0h24v24H0z"/></svg>