<svg xmlns="http://www.w3.org/2000/svg" viewBox="0 0 24 24" width="24" height="24"><defs><style>.a{fill:none;stroke:#000;stroke-linecap:round;stroke-linejoin:round;stroke-width:1.5px}</style></defs><title>road-tunnel</title><path class="a" d="M12 .763a10.5 10.5 0 0 0-10.5 10.5v10.5a1.5 1.5 0 0 0 1.5 1.5h18a1.5 1.5 0 0 0 1.5-1.5v-10.5A10.5 10.5 0 0 0 12 .763z"/><path class="a" d="M12 8.263a3 3 0 0 0-3 3v4.5h6v-4.5a3 3 0 0 0-3-3zm-3 7.5l-7.061 7.061M15 15.763l7.061 7.061M12 23.263v-3m0-4.5v1.5"/></svg>