<svg xmlns="http://www.w3.org/2000/svg" viewBox="0 0 24 24" width="24" height="24"><defs><style>.a{fill:none;stroke:#000;stroke-linecap:round;stroke-linejoin:round;stroke-width:1.5px}</style></defs><title>road-sign-school-bus</title><circle class="a" cx="8.25" cy="15.75" r="1.5"/><circle class="a" cx="15.75" cy="15.75" r="1.5"/><path class="a" d="M6.75 15.75h-1.5A.75.75 0 0 1 4.5 15v-2.25a.75.75 0 0 1 .75-.75h3V8.25A.75.75 0 0 1 9 7.5h9.75a.75.75 0 0 1 .75.75v6a1.5 1.5 0 0 1-1.5 1.5h-.75m-7.5 0h4.5m-6-3.75H19.5M12 12V7.5m3.75 4.5V7.5"/><circle class="a" cx="12" cy="12" r="11.25"/></svg>