<svg xmlns="http://www.w3.org/2000/svg" viewBox="0 0 24 24" width="24" height="24"><defs><style>.a{fill:none;stroke:#000;stroke-linecap:round;stroke-linejoin:round;stroke-width:1.5px}</style></defs><title>road-sign-stop</title><path class="a" d="M21.75 5.84L16.66.75H7.34L2.25 5.84m0 12.32l5.09 5.09h9.32l5.09-5.09M9 15V9M7.5 9h3m8.25 6V9m-4.5 0a1.5 1.5 0 0 0-1.5 1.5v3a1.5 1.5 0 0 0 3 0v-3a1.5 1.5 0 0 0-1.5-1.5zm-9 0h-1.5a1.5 1.5 0 0 0-1.5 1.5c0 2.25 3 .75 3 3a1.5 1.5 0 0 1-1.5 1.5h-1.5m16.5-6h1.125a1.875 1.875 0 0 1 0 3.75H18.75"/></svg>