<svg xmlns="http://www.w3.org/2000/svg" viewBox="0 0 24 24" width="24" height="24"><defs><style>.a{fill:none;stroke:#000;stroke-linecap:round;stroke-linejoin:round;stroke-width:1.5px}</style></defs><title>road-sign-2.5m-wide</title><path class="a" d="M.75 12.67l1.5-1.5-1.5-1.5m22.5 0l-1.5 1.5 1.5 1.5M6 6.67a1.5 1.5 0 0 1 1.5-1.5A1.5 1.5 0 0 1 9 6.67a2.139 2.139 0 0 1-.468 1.336L6 11.17h3m9-6h-3v2.25a.75.75 0 0 0 .75.75h.75a1.5 1.5 0 0 1 0 3H15m-3-.37a.375.375 0 0 1 .375.375m-.75-.005A.375.375 0 0 1 12 10.8m0 .745a.375.375 0 0 1-.375-.375m.75 0a.375.375 0 0 1-.375.375m2.25 9.375v-6L12 18.67l-2.25-3.75v6"/></svg>