<svg xmlns="http://www.w3.org/2000/svg" viewBox="0 0 24 24" width="24" height="24"><defs><style>.a{fill:none;stroke:#000;stroke-linecap:round;stroke-linejoin:round;stroke-width:1.5px}</style></defs><title>road-sign-roundabout</title><path class="a" d="M2.56 14.25l-1.5-1.5a1.063 1.063 0 0 1 0-1.5L11.248 1.061a1.064 1.064 0 0 1 1.5 0l4.5 4.5M21.44 9.75l1.5 1.5a1.063 1.063 0 0 1 0 1.5L12.752 22.939a1.064 1.064 0 0 1-1.5 0l-4.5-4.5M6.75 15.75v-3h3m7.5-4.5v3h-3m-6.674 1.5a4.476 4.476 0 0 0 8.3 1.5m.548-3a4.476 4.476 0 0 0-8.3-1.5"/></svg>