<svg xmlns="http://www.w3.org/2000/svg" viewBox="0 0 24 24" width="24" height="24"><defs><style>.a{fill:none;stroke:#000;stroke-linecap:round;stroke-linejoin:round;stroke-width:1.5px}</style></defs><title>road-sign</title><path class="a" d="M17.711 14.264a1.5 1.5 0 0 1 1.4.973l1.566 4.163a1.329 1.329 0 0 0 2.573-.467v-7.67a1.5 1.5 0 0 0-1.5-1.5H2.25a1.5 1.5 0 0 0-1.5 1.5v7.671a1.329 1.329 0 0 0 2.573.467l1.562-4.164a1.5 1.5 0 0 1 1.4-.973zM16.5 6.763v-6m-9 0v6m9 16.5v-4.5m-9 0v4.5m4.5-18v1.5m0-6v1.5m0 15v1.5m0 3v1.5"/></svg>