<svg xmlns="http://www.w3.org/2000/svg" viewBox="0 0 24 24" width="24" height="24"><defs><style>.a{fill:none;stroke:#000;stroke-linecap:round;stroke-linejoin:round;stroke-width:1.5px}</style></defs><title>road-traffic-lights-1</title><path class="a" d="M9.75.763h5a2 2 0 0 1 2 2v18a1 1 0 0 1-1 1h-7a1 1 0 0 1-1-1v-18a2 2 0 0 1 2-2z"/><circle class="a" cx="12.25" cy="5.263" r="1.5"/><circle class="a" cx="12.25" cy="11.263" r="1.5"/><circle class="a" cx="12.25" cy="17.263" r="1.5"/><path class="a" d="M12.25 21.763v1.5m-4.5-19.5H4.177a.927.927 0 0 0-.415 1.756L7.75 7.513m0 2.25H4.177a.927.927 0 0 0-.415 1.756l3.988 1.994m0 2.25H4.177a.927.927 0 0 0-.415 1.756l3.988 1.994m9-15.75h3.573a.927.927 0 0 1 .415 1.756L16.75 7.513m0 2.25h3.573a.927.927 0 0 1 .415 1.756l-3.988 1.994m0 2.25h3.573a.927.927 0 0 1 .415 1.756l-3.988 1.994"/></svg>