<svg xmlns="http://www.w3.org/2000/svg" viewBox="0 0 24 24" width="24" height="24"><defs><style>.a{fill:none;stroke:#000;stroke-linecap:round;stroke-linejoin:round;stroke-width:1.5px}</style></defs><title>road-woods</title><path class="a" d="M20.25 12.013l-3 8.25h6l-3-8.25zm0 8.25v3M3.75.763l-3 8.25h6l-3-8.25zm0 8.25v3M1.1 23.263A20.256 20.256 0 0 1 21 6.763m-9.811 16.5a10.531 10.531 0 0 1 4.4-5.25m-9.84 5.25a12.53 12.53 0 0 1 .982-2.884"/><path class="a" d="M8.388 17.605a9.951 9.951 0 0 1 .934-1.135 9.544 9.544 0 0 1 1.036-1.044m2.59-1.932a14.534 14.534 0 0 1 2.652-1.262"/></svg>