<svg xmlns="http://www.w3.org/2000/svg" viewBox="0 0 24 24" width="24" height="24"><defs><style>.a{fill:none;stroke:#000;stroke-linecap:round;stroke-linejoin:round;stroke-width:1.5px}</style></defs><title>robot-2</title><path class="a" d="M18.75 7.5a6.75 6.75 0 0 0-13.5 0v3.75h13.5zM9 6.75v1.5m6-1.5v1.5m-9.75 3c2.05 10.222 3.75 12 6.75 12s4.706-1.778 6.75-12zm0 0h-1.5a1.5 1.5 0 0 0-1.5 1.5v4.5"/><path class="a" d="M.75 20.25v-1.5a1.5 1.5 0 0 1 3 0v1.5m15-9h1.5a1.5 1.5 0 0 1 1.5 1.5v4.5"/><path class="a" d="M23.25 20.25v-1.5a1.5 1.5 0 0 0-3 0v1.5"/></svg>