<svg xmlns="http://www.w3.org/2000/svg" viewBox="0 0 24 24" width="24" height="24"><defs><style>.a{fill:none;stroke:#000;stroke-linecap:round;stroke-linejoin:round;stroke-width:1.5px}</style></defs><title>robot</title><path class="a" d="M.75 23.25v-1.5a1.5 1.5 0 0 1 3 0v1.5"/><path class="a" d="M21.75 20.25v-4.5a1.5 1.5 0 0 0-1.5-1.5H3.75a1.5 1.5 0 0 0-1.5 1.5v4.5"/><path class="a" d="M23.25 23.25v-1.5a1.5 1.5 0 0 0-3 0v1.5M18 19.026a3.006 3.006 0 0 0 1.5-2.6V11.25a7.5 7.5 0 0 0-15 0v5.176a3 3 0 0 0 1.5 2.6 12.01 12.01 0 0 0 12 0zM9 9v1.5M15 9v1.5m-3-6.75v-3"/></svg>