<svg xmlns="http://www.w3.org/2000/svg" viewBox="0 0 24 24" width="24" height="24"><g fill="none" stroke="#000" stroke-linecap="round" stroke-linejoin="round" stroke-miterlimit="10"><path d="M21.939 3.475L23 1l-2.476 1.061-4.242 4.242 1.414 1.414zm-6.011 6.009c-.39.391-2.475 1.061-2.475 1.061s.67-2.084 1.061-2.475a.999.999 0 111.414 1.414z"/><path d="M20.171 5.242l.707 2.121-1.768 1.768-1.414-1.414m1.061-3.889l-2.121-.707-1.768 1.768 1.414 1.414M12 13.01C6.973 18.014 1.978 21.119.813 19.955c-.685-.685.107-2.693 1.893-5.256m14.636-3.234A7.5 7.5 0 1112.945 6.1"/></g><path fill="none" d="M0 0h24v24H0z"/></svg>