<svg xmlns="http://www.w3.org/2000/svg" viewBox="0 0 24 24" width="24" height="24"><g fill="none" stroke="#000" stroke-linecap="round" stroke-linejoin="round" stroke-miterlimit="10"><path d="M6.464 13.949S17.409 2.974 18.117 2.267C19.177 1.207 23.42.5 23.42.5s-.707 4.242-1.769 5.303A127274.53 127274.53 0 019.984 17.47l-3.52-3.521zm1.411-1.423l3.525 3.53"/><path d="M15.288 12.168c0 .707 0 3.534-.354 4.595-.224.672-.93 1.637-1.415 2.122L9.984 22.42l.655-5.605m1.113-8.183c-.706 0-3.565-.03-4.625.323-.671.225-1.608.96-2.092 1.444L1.5 13.935l5.641-.689m.722 4.224c.708.707.413 1.709-.354 2.476-.976.976-5.657 2.136-5.657 2.136s1.146-4.695 2.122-5.672c.777-.776 1.769-1.061 2.476-.354"/></g><path fill="none" d="M0 0h24v24H0z"/></svg>