<svg xmlns="http://www.w3.org/2000/svg" viewBox="0 0 24 24" width="24" height="24"><path d="M4.499 4.5a.5.5 0 100 1 .5.5 0 000-1z"/><path fill="none" stroke="#000" stroke-linejoin="round" stroke-miterlimit="10" d="M5.617 18.64c.82-2.434 3.637-4.64 6.382-4.64 2.741 0 5.482 2.128 6.291 4.665"/><path fill="none" stroke="#000" stroke-linejoin="round" stroke-miterlimit="10" d="M2.874 17.716c1.089-3 3.542-4.966 3.542-4.966L4.999 7.5l-1.796.602a2.259 2.259 0 01-1.216-4.339L5.18 2.322a2 2 0 012.644.995L9.499 7h5a4 4 0 014 4v2.625c.643.267 1.953 2.248 2.625 4.091"/><path fill="none" stroke="#000" stroke-linecap="round" stroke-linejoin="round" stroke-miterlimit="10" d="M17.481 8.335l5.435 3.082"/><path fill="none" stroke="#000" stroke-linejoin="round" stroke-miterlimit="10" d="M14.999 7h-5.5l1 4h3.5zm-3 16.5c-3.523 0-6.959-.646-10.211-1.921a2 2 0 011.459-3.725c5.568 2.182 11.924 2.185 17.492.005a2 2 0 111.457 3.725A27.863 27.863 0 0111.999 23.5zM5.53 2.188l1.619-.646a2.5 2.5 0 013.237 1.364L12.083 7"/><path fill="none" d="M0 0h24v24H0z"/></svg>