<svg id="Regular" xmlns="http://www.w3.org/2000/svg" viewBox="0 0 24 24" width="24" height="24"><defs><style>.cls-1{fill:none;stroke:#000;stroke-linecap:round;stroke-linejoin:round;stroke-width:1.5px}</style></defs><title>roe</title><path class="cls-1" d="M11.02 15.064c-.226 1.181-.95 2.178-2.173 2.178h-8.1m20.85 6v-7.187M23.1.742c-2.25 0-3.75 2.25-3.75 2.25l-.089.133a5.24 5.24 0 0 0-5.822 0l-.089-.133S11.847.742 9.6.742c-.75 3.75 1.5 4.5 1.5 4.5l.444.148a5.224 5.224 0 0 0-.444 2.1c0 1.926-.311 3.09 2.9 7.1a3.006 3.006 0 0 0 4.7 0c3.3-4.12 2.9-5.392 2.9-7.1a5.224 5.224 0 0 0-.444-2.1l.444-.148s2.247-.75 1.5-4.5zm-9.378 6.75a.375.375 0 0 1 .375.375m-.75 0a.375.375 0 0 1 .375-.375m0 .75a.375.375 0 0 1-.375-.375m.753 0a.375.375 0 0 1-.375.375m5.247-.75a.375.375 0 0 1 .375.375m-.747 0a.375.375 0 0 1 .375-.375m-.003.75a.375.375 0 0 1-.375-.375m.75 0a.375.375 0 0 1-.375.375m-3.375 3.75h1.5"/></svg>