<svg id="Regular" xmlns="http://www.w3.org/2000/svg" viewBox="0 0 24 24" width="24" height="24"><defs><style>.cls-1{fill:none;stroke:#000;stroke-linecap:round;stroke-linejoin:round;stroke-width:1.5px}</style></defs><title>rollerblades-person</title><circle class="cls-1" cx="19.5" cy="3.375" r="2.625"/><path class="cls-1" d="M3.75 13.5v6m8.25.75h6M1.125 13.125a.375.375 0 0 1 .375.375m-.75 0a.375.375 0 0 1 .375-.375m0 .75A.375.375 0 0 1 .75 13.5m.75 0a.375.375 0 0 1-.375.375m0 2.25a.375.375 0 0 1 .375.375m-.75 0a.375.375 0 0 1 .375-.375m0 .75A.375.375 0 0 1 .75 16.5m.75 0a.375.375 0 0 1-.375.375m0 2.25a.375.375 0 0 1 .375.375m-.75 0a.375.375 0 0 1 .375-.375m0 .75A.375.375 0 0 1 .75 19.5m.75 0a.375.375 0 0 1-.375.375M12 22.5a.375.375 0 0 1 .375.375m-.75 0A.375.375 0 0 1 12 22.5m0 .75a.375.375 0 0 1-.375-.375m.75 0a.375.375 0 0 1-.375.375m3-.75a.375.375 0 0 1 .375.375m-.75 0A.375.375 0 0 1 15 22.5m0 .75a.375.375 0 0 1-.375-.375m.75 0a.375.375 0 0 1-.375.375m3-.75a.375.375 0 0 1 .375.375m-.75 0A.375.375 0 0 1 18 22.5m0 .75a.375.375 0 0 1-.375-.375m.75 0a.375.375 0 0 1-.375.375m3.75-13.501h-2.473l-3.339-2.672a1.485 1.485 0 0 0-.926-.326H7.5a1.5 1.5 0 0 0 0 3h4.109l-4.326 4.758a1.5 1.5 0 0 1-1.11.491H3.75v3h2.424A4.5 4.5 0 0 0 9.5 16.527l1.624-1.786.714.357a3 3 0 0 1 1.662 2.684v2.468h3v-2.468a5.966 5.966 0 0 0-3.278-5.345l1.941-2.137 2.239 1.79a3 3 0 0 0 1.874.657h2.474a1.5 1.5 0 0 0 0-3z"/></svg>