<svg xmlns="http://www.w3.org/2000/svg" viewBox="0 0 24 24" width="24" height="24"><g fill="none" stroke="#000" stroke-linejoin="round" stroke-miterlimit="10"><path d="M4.128 1.617A1 1 0 015.121.503h7.771a1 1 0 01.994 1.103L13 10.248c0 1.004.744 1.853 1.74 1.982l2.136.412a2.441 2.441 0 01-.316 4.86H5.781a1 1 0 01-.971-1.242l.69-3.757L4.128 1.617z"/><circle cx="6.5" cy="21.503" r="2"/><circle cx="12.5" cy="21.503" r="2"/><circle cx="18.5" cy="21.503" r="2"/><path stroke-linecap="round" d="M3.02 21.503H22m-8.5-17h-3m2.884 2H10.5m2.645 2H9.5m3.517 2H8.5"/></g><path fill="none" d="M0 0h24v24H0z"/></svg>