<svg xmlns="http://www.w3.org/2000/svg" viewBox="0 0 24 24" width="24" height="24"><g fill="none" stroke="#000" stroke-linejoin="round" stroke-miterlimit="10"><path d="M18.239 7.447a2 2 0 010 2.828l-9.192 9.192a2 2 0 01-2.828 0l-1.414-1.414a2 2 0 010-2.829l9.192-9.191a2 2 0 012.828 0l1.414 1.414z"/><path d="M22.482 1.79a1.761 1.761 0 01-.165 2.641l-4.078 3.016-1.414-1.414 3.015-4.079a1.768 1.768 0 012.642-.164zM.971 22.968c.354.362.846.556 1.352.53s1.043-.332 1.359-.729l2.432-3.392-1.396-1.431-3.483 2.314a1.885 1.885 0 00-.728 1.31c-.038.505.109 1.035.464 1.398z"/></g><path fill="none" d="M0 0h24v24H0z"/></svg>