<svg id="Regular" xmlns="http://www.w3.org/2000/svg" viewBox="0 0 24 24" width="24" height="24"><defs><style>.cls-1{fill:none;stroke:#000;stroke-linecap:round;stroke-linejoin:round;stroke-width:1.5px}</style></defs><title>rollerblades</title><path class="cls-1" d="M3.75 21.75h-1.5m19.5 0h-1.5"/><circle class="cls-1" cx="5.25" cy="21.75" r="1.5"/><circle class="cls-1" cx="12" cy="21.75" r="1.5"/><circle class="cls-1" cx="18.75" cy="21.75" r="1.5"/><path class="cls-1" d="M18.519 9.9a3.688 3.688 0 0 1-.463 7.348H5.25a3 3 0 0 1-3-3v-12A1.5 1.5 0 0 1 3.75.75h6a1.5 1.5 0 0 1 1.5 1.5v5.425a1.5 1.5 0 0 0 1.315 1.488zM6.75 21.75h3.75m3 0h3.75m-6-18h-3m3 3h-4.5"/></svg>