<svg xmlns="http://www.w3.org/2000/svg" viewBox="0 0 24 24" width="24" height="24"><g fill="none" stroke="#000" stroke-linejoin="round" stroke-miterlimit="10"><path d="M22.287 3.236c-.471-.775-1.564-.972-2.443-.438a2.051 2.051 0 00-.306.226 2.08 2.08 0 00.09-.585c0-1.027-.735-1.861-1.642-1.861s-1.643.834-1.643 1.861c0 .196.035.381.084.558a2.005 2.005 0 00-.271-.198c-.88-.533-1.974-.337-2.444.438-.47.776-.137 1.837.742 2.369.307.187.64.278.963.293-.076.058-.151.115-.221.185-.726.727-.796 1.835-.155 2.478.641.641 1.751.57 2.479-.156a2.07 2.07 0 00.48-.773c.098.277.253.544.48.772.728.727 1.837.797 2.479.156.641-.643.571-1.751-.156-2.479-.069-.069-.146-.127-.221-.185a2.03 2.03 0 00.963-.293c.879-.531 1.212-1.591.742-2.368z"/><circle cx="18" cy="5.019" r="1.488"/><path stroke-linecap="round" d="M14.71 6.507c-1.604 1.443-2.274 3.651-2.472 5.993"/><path d="M3.213 3.236c.471-.775 1.564-.972 2.443-.438.112.067.213.142.306.225a2.08 2.08 0 01-.09-.585c0-1.027.735-1.861 1.642-1.861s1.643.834 1.643 1.861c0 .196-.035.381-.084.558.084-.071.173-.14.271-.198.88-.533 1.974-.337 2.444.438.47.776.137 1.837-.742 2.369-.307.187-.64.278-.963.293.076.058.151.115.221.185.728.728.797 1.836.156 2.479-.642.64-1.752.57-2.48-.157a2.059 2.059 0 01-.48-.772 2.059 2.059 0 01-.48.772c-.728.727-1.837.797-2.479.157-.641-.643-.571-1.751.156-2.479.069-.069.146-.127.221-.185a2.019 2.019 0 01-.963-.293c-.879-.532-1.212-1.592-.742-2.369z"/><circle cx="7.5" cy="5.019" r="1.488"/><path stroke-linecap="round" d="M9 9s.424 1.378.784 3.5m-4.992 11h12.416c.674 0 1.31-.334 1.679-.898a3.698 3.698 0 00.583-1.594c.021-.168.03-.337.03-.508 0-2.434-2.057-4.524-5.007-5.466L15.5 12.5h-9l1.007 2.534C4.557 15.976 2.5 18.066 2.5 20.5c0 .171.011.34.03.508.07.587.276 1.125.584 1.594a2.002 2.002 0 001.678.898zM3 19.5h16m-16 2h16"/></g><path fill="none" d="M0 0h24v24H0z"/></svg>