<svg xmlns="http://www.w3.org/2000/svg" viewBox="0 0 24 24" width="24" height="24"><g fill="none" stroke="#000" stroke-linecap="round" stroke-linejoin="round" stroke-miterlimit="10"><path d="M14.502 3.533C15.733 4.534 16.5 5.941 16.5 7.5c0 3.037-2.91 5.5-6.5 5.5s-6.5-2.463-6.5-5.5c0-1.56.768-2.968 2-3.969"/><path d="M12.999 1.835c.822.546 1.334 1.313 1.334 2.165 0 1.657-1.939 3-4.333 3S5.667 5.657 5.667 4c0-.851.511-1.619 1.333-2.165M10.434 7s3.066.5 3.066 3v2M8 6.5s.376-1.127 1.242-2"/><ellipse cx="10.005" cy="2.5" rx="3.005" ry="2"/><path d="M10.006 4.5C11.5 4.5 12.162 2 9 2m1.5 11v10.5m5.678-6.27s-.724 2.902-1.867 3.676c-1.145.773-2.707.86-3.523-.294C10 19.5 11.077 18.025 12.5 18.5c1.5.5 3.678-1.27 3.678-1.27z"/></g><path fill="none" d="M0 0h24v24H0z"/></svg>