<svg xmlns="http://www.w3.org/2000/svg" viewBox="0 0 24 24" width="24" height="24"><path fill="none" stroke="#000" stroke-linejoin="round" stroke-miterlimit="10" d="M12 .5A8.5 8.5 0 003.5 9v8.5c1.068 2.497 3.855 4.397 6.5 6L8.585 12.271a26.845 26.845 0 01-3.085-.592V8.577c1.758.507 3.602.805 5.5.887V13l-.5 1 1.5 2.5 1.5-2.5-.5-1V9.464a23.494 23.494 0 005.5-.887v3.102a27.061 27.061 0 01-3.085.592L14 23.5c2.645-1.603 5.432-3.503 6.5-6V9A8.5 8.5 0 0012 .5z"/><path fill="none" d="M0 0h24v24H0z"/></svg>