<svg xmlns="http://www.w3.org/2000/svg" viewBox="0 0 24 24" width="24" height="24"><defs><style>.a{fill:none;stroke:#000;stroke-linecap:round;stroke-linejoin:round;stroke-width:1.5px}</style></defs><title>room-service-cart-food</title><path class="a" d="M.75 5.254a3 3 0 0 1 3 3v3m19.5 12H3.75v-12h18a1.5 1.5 0 0 1 1.5 1.5zm-13.5 0v-7.5m4.5 7.5v-7.5m4.5 7.5v-7.5m-10.5-7.5a6 6 0 1 1 12 0zm-1.5 0h15"/><path class="a" d="M20.25 9A2.25 2.25 0 0 1 18 11.254h-7.5A2.25 2.25 0 0 1 8.25 9v-.75h12zm-6-6.746v-1.5"/></svg>