<svg xmlns="http://www.w3.org/2000/svg" viewBox="0 0 24 24" width="24" height="24"><defs><style>.a{fill:none;stroke:#000;stroke-linecap:round;stroke-linejoin:round;stroke-width:1.5px}</style></defs><title>room-service-plates</title><circle class="a" cx="11.993" cy="3.379" r="2.625"/><path class="a" d="M11.993 17.254v4.5m8.339-13.998a1.5 1.5 0 0 0-2.08.416A1.9 1.9 0 0 1 16 8.9a11.36 11.36 0 0 0-7.988 0 1.9 1.9 0 0 1-2.259-.728 1.5 1.5 0 1 0-2.5 1.664 4.893 4.893 0 0 0 5.741 1.9v10.018a1.5 1.5 0 0 0 3 0 1.5 1.5 0 0 0 3 0L15 11.73a4.947 4.947 0 0 0 1.674.294 4.886 4.886 0 0 0 4.074-2.188 1.5 1.5 0 0 0-.416-2.08zM17.25 5.254a3 3 0 0 1 6 0zm3-3v-1.5m-19.5 4.5a3 3 0 0 1 6 0zm3-3v-1.5"/></svg>