<svg xmlns="http://www.w3.org/2000/svg" viewBox="0 0 24 24" width="24" height="24"><defs><style>.a{fill:none;stroke:#000;stroke-linecap:round;stroke-linejoin:round;stroke-width:1.5px}</style></defs><title>room-service-champagne</title><circle class="a" cx="4.5" cy="3.566" r="2.625"/><path class="a" d="M9.75 15.566h3a1.5 1.5 0 0 0 0-3h-3a1.5 1.5 0 0 1-1.5-1.5 3 3 0 0 0-3-3h-1.5a3 3 0 0 0-3 3v4.5a1.5 1.5 0 0 0 1.5 1.5v3.75a2.25 2.25 0 0 0 4.5 0v-6m4.5-5.25h12m-7.5-4.5a1.5 1.5 0 0 1-3 0v-3h3zm-1.5 1.5v3m7.5-4.5a1.5 1.5 0 0 1-3 0v-3h3zm-1.5 1.5v3"/></svg>