<svg id="Regular" xmlns="http://www.w3.org/2000/svg" viewBox="0 0 24 24" width="24" height="24"><defs><style>.cls-1{fill:none;stroke:#000;stroke-linecap:round;stroke-linejoin:round;stroke-width:1.5px}</style></defs><title>rooster</title><path class="cls-1" d="M14.01.762a2.25 2.25 0 0 0-2.25 2.25 2.25 2.25 0 0 0-4.5 0A2.251 2.251 0 0 0 5.01.762a2.1 2.1 0 0 0-2.25 2.25c0 1.5 1.5 3.75 1.5 3.75l.264.4m11.736-4.15a2.1 2.1 0 0 0-2.25-2.25m.49 6.397l.265-.4s1.5-2.25 1.5-3.75m.58 8.183l4.031 1.727a.75.75 0 0 1 .076 1.341l-3.942 2.252m1.817-1.038l.433.288s2.25 1.5 2.25 3.75-3 3-4.5 1.5m-3.375-9.75a.375.375 0 0 0-.375.375m.75 0a.375.375 0 0 0-.375-.375m0 .75a.374.374 0 0 0 .375-.375m-.75 0a.374.374 0 0 0 .375.375"/><path class="cls-1" d="M9.51 5.262a7.5 7.5 0 0 0-7.5 7.5v8.625a1.875 1.875 0 0 0 3.75 0 1.875 1.875 0 0 0 3.75 0 1.875 1.875 0 0 0 3.75 0 1.875 1.875 0 0 0 3.75 0v-8.625a7.5 7.5 0 0 0-7.5-7.5z"/></svg>