<svg id="Regular" xmlns="http://www.w3.org/2000/svg" viewBox="0 0 24 24" width="24" height="24"><defs><style>.cls-1{fill:none;stroke:#000;stroke-linecap:round;stroke-linejoin:round;stroke-width:1.5px}</style></defs><title>rooster-1</title><path class="cls-1" d="M17.977 13.515a8.25 8.25 0 0 0-16.467.747v9"/><path class="cls-1" d="M15.243 8.1a3 3 0 1 0-2.663-5.324 2.983 2.983 0 0 0-5.78.572 2.994 2.994 0 1 0-2.678 4.89m13.663 5.274a4.539 4.539 0 0 1 4.354 2.679.75.75 0 0 1-.677 1.071h-3.677a1.881 1.881 0 1 1 0-3.75z"/><path class="cls-1" d="M9.01 16.512a2.747 2.747 0 0 1 3 3c0 2.25 1.5 3.75 3 3.75s3-1.5 3-3.75v-2.25m-6-5.625a.375.375 0 0 1 .375.375m-.75 0a.375.375 0 0 1 .375-.375m0 .75a.374.374 0 0 1-.375-.375m.75 0a.374.374 0 0 1-.375.375"/></svg>