<svg id="Regular" xmlns="http://www.w3.org/2000/svg" viewBox="0 0 24 24" width="24" height="24"><defs><style>.cls-1{fill:none;stroke:#000;stroke-linecap:round;stroke-linejoin:round;stroke-width:1.5px}</style></defs><title>rooster-2</title><path class="cls-1" d="M.75 9.012s.75-4.5 6-3.75c4.7.671 4.5 6 4.5 6h1.5a2.747 2.747 0 0 0 3-3 3 3 0 0 1 6 0v3.75a6.75 6.75 0 1 1-13.5 0c0-2.25-4.5-3-5.25 0m12 6.75v3.75m2.25 0H13.5m9.75-14.25l-1.5.75 1.5 1.5m-4.125-2.25a.375.375 0 0 0-.375.375m.75 0a.375.375 0 0 0-.375-.375m0 .75a.374.374 0 0 0 .375-.375m-.75 0a.374.374 0 0 0 .375.375"/><path class="cls-1" d="M16.629 6.141l-.129-.129c-.75-.75-1.5-1.5-1.5-2.25a2.248 2.248 0 0 1 4.125-1.24 2.248 2.248 0 0 1 4.125 1.24c0 .75-.75 1.5-1.5 2.25l-.537.537M16.5 13.512a2.2 2.2 0 0 1-2.25 2.25 2.774 2.774 0 0 1-2.25-1.5"/></svg>