<svg xmlns="http://www.w3.org/2000/svg" viewBox="0 0 24 24" width="24" height="24"><g fill="none" stroke="#000" stroke-linejoin="round" stroke-miterlimit="10"><path stroke-linecap="round" d="M7.312 9.452l-.671-3.089a4.836 4.836 0 119.451 0l-.681 3.128"/><path d="M15.609 15.418l.482 2.218A4.835 4.835 0 017.6 21.698a4.835 4.835 0 01-.961-4.062l.479-2.198"/><path stroke-linecap="round" d="M9.464 9.449l-.63-3.985A2.567 2.567 0 0111.366 2.5a2.563 2.563 0 012.532 2.963l-.638 4.04"/><path d="M13.422 15.519l.477 3.019a2.564 2.564 0 11-5.064 0l.485-3.075"/><path stroke-linecap="round" d="M11.019 9.394l-.521-3.902a.874.874 0 011.526-.692c.167.19.243.442.21.692l-.532 3.988"/><path d="M10.905 15.458l-.407 3.051a.874.874 0 001.526.692.874.874 0 00.21-.692l-.404-3.03"/><path stroke-linecap="round" d="M16.366 14.5a1 1 0 01-1 1h-8a1 1 0 110-2h8a1 1 0 011 1zm0-2a1 1 0 01-1 1h-8a1 1 0 110-2h8a1 1 0 011 1zm0-2a1 1 0 01-1 1h-8a1 1 0 110-2h8a1 1 0 011 1z"/><path stroke-linecap="round" d="M15.866 13.5h1.5a2 2 0 012 2v2a1.5 1.5 0 103 0"/></g><path fill="none" d="M0 0h24v24H0z"/></svg>