<svg xmlns="http://www.w3.org/2000/svg" viewBox="0 0 24 24" width="24" height="24"><defs><style>.a{fill:none;stroke:#000;stroke-linecap:round;stroke-linejoin:round;stroke-width:1.5px}</style></defs><title>rotate-front</title><path class="a" d="M16.5.763l-2.25 2.25 2.25 2.25m2.25 2.25L21 9.763l2.25-2.25"/><path class="a" d="M14.25 3.013h1.687A5.063 5.063 0 0 1 21 8.076v1.687"/><rect class="a" x=".75" y="4.5" width="11.25" height="12" rx="1" ry="1"/><path class="a" d="M12 11.25h5.752a1 1 0 0 1 1 1v10a1 1 0 0 1-1 1h-10a1 1 0 0 1-1-1V16.5"/><path class="a" d="M11.993 14.263h3.257a.5.5 0 0 1 .5.5v5a.5.5 0 0 1-.5.5h-5a.5.5 0 0 1-.5-.5V16.5"/></svg>