<svg xmlns="http://www.w3.org/2000/svg" viewBox="0 0 24 24" width="24" height="24"><defs><style>.a{fill:none;stroke:#000;stroke-linecap:round;stroke-linejoin:round;stroke-width:1.5px}</style></defs><title>rotate-back</title><path class="a" d="M12.75 7.5l-3-3 3-3M3.031 12.75c-.02.247-.031.5-.031.75a8.973 8.973 0 0 0 .284 2.25m1.822-8.035a8.968 8.968 0 0 0-1.229 1.906m1.251 9.691q.24.284.508.552a8.979 8.979 0 0 0 1.792 1.39"/><path class="a" d="M11.25 22.469c.247.02.5.031.75.031a9 9 0 0 0 0-18H9.75"/></svg>