<svg xmlns="http://www.w3.org/2000/svg" viewBox="0 0 24 24" width="24" height="24"><defs><style>.a{fill:none;stroke:#000;stroke-linecap:round;stroke-linejoin:round;stroke-width:1.5px}</style></defs><title>rotate-vertical</title><rect class="a" x="3.75" y="9.75" width="10.5" height="16.5" rx="1" ry="1" transform="rotate(-90 9 18)"/><path class="a" d="M23.25 15.75a1.5 1.5 0 0 1-1.5 1.5m1.5-15a1.5 1.5 0 0 0-1.5-1.5m-4.5 16.5h1.5M17.25.75h1.5m4.5 12V10.5m0-3V5.25m-10.5-3a1.5 1.5 0 0 1 1.5-1.5m-1.5 12V10.5m0-3V5.25M1.5 8.561l1.72 1.719a.749.749 0 0 0 1.06 0L6 8.561M8.561 6l1.719-1.72a.749.749 0 0 0 0-1.06L8.561 1.5"/><path class="a" d="M3.75 10.5V6.75a3 3 0 0 1 3-3h3.75"/></svg>