<svg xmlns="http://www.w3.org/2000/svg" viewBox="0 0 24 24" width="24" height="24"><defs><style>.a,.b{fill:none;stroke:#000;stroke-linecap:round;stroke-linejoin:round;stroke-width:1.5px}.b{fill-rule:evenodd}</style></defs><title>router-signal-1</title><path class="a" d="M4.125 21.751v1.5m15.75-1.5v1.5M9.75 15.001v6.75M14.25 18a.375.375 0 1 0 .375.375.375.375 0 0 0-.375-.375m4.5 0a.375.375 0 1 0 .375.375.375.375 0 0 0-.375-.375m-1.5-2.999v-8.25"/><path class="b" d="M15.129 4.629a3 3 0 0 1 4.242 0m-6.364-2.121a6 6 0 0 1 8.486 0"/><path class="a" d="M19.875 21.751a3.375 3.375 0 0 0 0-6.75H4.125a3.375 3.375 0 0 0 0 6.75z"/></svg>