<svg xmlns="http://www.w3.org/2000/svg" viewBox="0 0 24 24" width="24" height="24"><defs><style>.a,.b{fill:none;stroke:#000;stroke-linecap:round;stroke-linejoin:round;stroke-width:1.5px}.b{fill-rule:evenodd}</style></defs><title>router-signal-double</title><path class="a" d="M4.125 21.75v1.5m15.75-1.5v1.5M9.75 15v6.75m4.5-3.75a.375.375 0 1 0 .375.375.375.375 0 0 0-.375-.375m4.5 0a.375.375 0 1 0 .375.375.375.375 0 0 0-.375-.375m0-3V6.75"/><path class="b" d="M16.629 4.629a3 3 0 0 1 4.242 0"/><path class="a" d="M19.875 21.75a3.375 3.375 0 0 0 0-6.75H4.125a3.375 3.375 0 0 0 0 6.75z"/><path class="b" d="M23.25 2.782a6 6 0 0 0-9 0"/><path class="a" d="M5.25 15V6.75"/><path class="b" d="M7.371 4.629a3 3 0 0 0-4.242 0M.75 2.782a6 6 0 0 1 9 0"/></svg>