<svg xmlns="http://www.w3.org/2000/svg" viewBox="0 0 24 24" width="24" height="24"><defs><style>.a{fill:none;stroke:#000;stroke-linecap:round;stroke-linejoin:round;stroke-width:1.5px}</style></defs><title>router-signal</title><path class="a" d="M12 15.001v-9.75m-3.75 1.5v-3m-3.75-1.5v6M.75.751v9m15-3v-3m3.75-1.5v6m3.75-7.5v9m-19.125 12v1.5m15.75-1.5v1.5M9.75 15.001v6.75M14.25 18a.375.375 0 1 0 .375.375.375.375 0 0 0-.375-.375m4.5 0a.375.375 0 1 0 .375.375.375.375 0 0 0-.375-.375"/><path class="a" d="M19.875 21.751a3.375 3.375 0 0 0 0-6.75H4.125a3.375 3.375 0 0 0 0 6.75z"/></svg>