<svg xmlns="http://www.w3.org/2000/svg" viewBox="0 0 24 24" width="24" height="24"><defs><style>.a{fill:none;stroke:#000;stroke-linecap:round;stroke-linejoin:round;stroke-width:1.5px}</style></defs><title>safety-helmet-1</title><path class="a" d="M14.676 5.655A9 9 0 0 1 21 14.25v1.5M9.346 5.648A9 9 0 0 0 3 14.25v1.5"/><path class="a" d="M15 3.417a11 11 0 0 0-6 0l.679 4.376a6.026 6.026 0 0 1 .071.92V10.5a2.25 2.25 0 0 0 4.5 0V8.713a6.026 6.026 0 0 1 .071-.92zM.75 15.75h22.5m-19.5 3A2.774 2.774 0 0 1 5.25 21h13.5a2.774 2.774 0 0 1 1.5-2.25"/></svg>