<svg xmlns="http://www.w3.org/2000/svg" viewBox="0 0 24 24" width="24" height="24"><defs><style>.a{fill:none;stroke:#000;stroke-linecap:round;stroke-linejoin:round;stroke-width:1.5px}</style></defs><title>safety-fire-extinguisher</title><path class="a" d="M12 5.5V3.375H7.5V5.5a4.481 4.481 0 0 0-2.25 3.875v12a1.5 1.5 0 0 0 1.5 1.5h6a1.5 1.5 0 0 0 1.5-1.5v-12A4.481 4.481 0 0 0 12 5.5zm11.25.125l-7.5-.75v-3l7.5-.75v4.5z"/><path class="a" d="M15.75 3.375h-9a6 6 0 0 0-6 6v10.5m7.5-16.5l-3-2.25m9 9.75h-4.5v7.5h4.5"/></svg>