<svg xmlns="http://www.w3.org/2000/svg" viewBox="0 0 24 24" width="24" height="24"><defs><style>.a{fill:none;stroke:#000;stroke-linecap:round;stroke-linejoin:round;stroke-width:1.5px}</style></defs><title>safety-fire</title><rect class="a" x=".75" y=".75" width="22.5" height="22.5" rx="1" ry="1"/><path class="a" d="M4.5 11.25v-6A1.5 1.5 0 0 1 6 3.75h1.5m-3 4.5h2.25m3 3v-7.5m2.25 7.5v-7.5m0 0h1.125a1.875 1.875 0 0 1 0 3.75H12m3 3.75L12.75 7.5m6.75 3.75h-.75a1.5 1.5 0 0 1-1.5-1.5v-4.5a1.5 1.5 0 0 1 1.5-1.5h.75m-2.25 4.5h2.25m-18.75 6h22.5m-18 3l1.5 1.5-1.5 1.5m13.5-3l-1.5 1.5 1.5 1.5"/><circle class="a" cx="12" cy="18.75" r="2.25"/></svg>