<svg xmlns="http://www.w3.org/2000/svg" viewBox="0 0 24 24" width="24" height="24"><defs><style>.a{fill:none;stroke:#000;stroke-linecap:round;stroke-linejoin:round;stroke-width:1.5px}</style></defs><title>safety-fire-alarm</title><path class="a" d="M17.669 8.25H6.331a1.5 1.5 0 0 1-1.423-1.025L3.75 3.75v-3h16.5v3l-1.158 3.475a1.5 1.5 0 0 1-1.423 1.025z"/><path class="a" d="M18 8.213v.037c0 2.486-2.686 4.5-6 4.5s-6-2.014-6-4.5v-.037M4.25 5.25h15.5m-13 11.25c-1.437 2.873 2.9 3.882.75 6.75m4.048-6.75c-1.437 2.873 2.9 3.882.75 6.75m4.048-6.75c-1.436 2.873 2.9 3.882.75 6.75m-7.346-18v3m4.5-3v3"/></svg>