<svg xmlns="http://www.w3.org/2000/svg" viewBox="0 0 24 24" width="24" height="24"><defs><style>.a{fill:none;stroke:#000;stroke-linecap:round;stroke-linejoin:round;stroke-width:1.5px}</style></defs><title>safety-slippery</title><circle class="a" cx="18" cy="4.502" r="2.625"/><path class="a" d="M23.221 10.958a1.493 1.493 0 0 0-1.766-1.177 7.477 7.477 0 0 1-5.729-1.2l-.626-.442A5.763 5.763 0 0 1 12.729 2.5a1.5 1.5 0 0 0-2.959-.494 8.779 8.779 0 0 0 3.353 8.406l-.715.787-5.472-.684a1.532 1.532 0 0 0-.857.146l-3 1.5a1.5 1.5 0 1 0 1.342 2.684l2.594-1.3 2.925.366-2.8 3.08a1.5 1.5 0 0 0 2.221 2.018l6.365-7a10.516 10.516 0 0 0 4.285.914 10.32 10.32 0 0 0 2.033-.2 1.5 1.5 0 0 0 1.177-1.765zM.75 23.252h22.5"/></svg>