<svg xmlns="http://www.w3.org/2000/svg" viewBox="0 0 24 24" width="24" height="24"><defs><style>.a{fill:none;stroke:#000;stroke-linecap:round;stroke-linejoin:round;stroke-width:1.5px}</style></defs><title>safety-vest</title><path class="a" d="M.75 14.25h22.5m-22.5 4.5h22.5m-6-6v7.5m-10.5-7.5v7.5m12-13.5V1.5A.75.75 0 0 0 18 .75h-2.326a.748.748 0 0 0-.734.6 3 3 0 0 1-5.88 0 .75.75 0 0 0-.734-.6H6a.75.75 0 0 0-.75.75v5.25a4.5 4.5 0 0 1-4.5 4.5v10.5a1.5 1.5 0 0 0 1.5 1.5h19.5a1.5 1.5 0 0 0 1.5-1.5v-10.5a4.5 4.5 0 0 1-4.5-4.5z"/></svg>