<svg xmlns="http://www.w3.org/2000/svg" viewBox="0 0 24 24" width="24" height="24"><defs><style>.a{fill:none;stroke:#000;stroke-linecap:round;stroke-linejoin:round;stroke-width:1.5px}</style></defs><title>safety-exit-left</title><path class="a" d="M21.75 14.063H18.6a1.5 1.5 0 0 1-1.122-.5l-4.1-4.612.571-.38a2.99 2.99 0 0 1 1.665-.5h3.136a1.5 1.5 0 0 0 0-3h-3.138a5.988 5.988 0 0 0-3.328 1.008L8.219 8.781a2.987 2.987 0 0 1-2.253.445l-1.922-.384a1.5 1.5 0 1 0-.588 2.941l1.921.384a6.1 6.1 0 0 0 1.191.119 5.953 5.953 0 0 0 3.315-1.009l.974-.649 2.313 2.6-1.416.944a4.491 4.491 0 0 0-2 3.744v3.645a1.5 1.5 0 1 0 3 0v-3.643a1.5 1.5 0 0 1 .668-1.248l1.76-1.17.052.059a4.508 4.508 0 0 0 3.366 1.504h3.15a1.5 1.5 0 1 0 0-3z"/><circle class="a" cx="8.25" cy="3.563" r="2.625"/><path class="a" d="M3 16.313l-2.25 2.25L3 20.813m-2.25-2.25H6"/></svg>