<svg xmlns="http://www.w3.org/2000/svg" viewBox="0 0 24 24" width="24" height="24"><defs><style>.a{fill:none;stroke:#000;stroke-linecap:round;stroke-linejoin:round;stroke-width:1.5px}</style></defs><title>safety-drown-hand</title><path class="a" d="M23.25 23.139A4.383 4.383 0 0 1 21 21.75a3.964 3.964 0 0 1-3 1.5v-.027a4.188 4.188 0 0 1-3-1.473 3.964 3.964 0 0 1-3 1.5v-.027a4.188 4.188 0 0 1-3-1.473 3.964 3.964 0 0 1-3 1.5v-.027a4.188 4.188 0 0 1-3-1.473 4.075 4.075 0 0 1-2.25 1.42m7.838-3.67v-1.581A4.152 4.152 0 0 1 6.927 14.6v-1.973a4.145 4.145 0 0 0-.3-1.543L4.544 5.871a1.285 1.285 0 0 1 .48-1.545 1.285 1.285 0 0 1 1.861.494L9 9.058l-1.115-5.59a1.426 1.426 0 0 1 1.053-1.663 1.426 1.426 0 0 1 1.743 1.1l1.092 5.457V2.135A1.385 1.385 0 0 1 13.157.75a1.385 1.385 0 0 1 1.385 1.385v6.231l1.084-5.418a1.463 1.463 0 0 1 1.79-1.133 1.463 1.463 0 0 1 1.093 1.626l-1.2 8.386 2.282-1.369a1.443 1.443 0 0 1 1.943.437 1.442 1.442 0 0 1-.128 1.765l-4.244 4.715V19.5"/></svg>