<svg xmlns="http://www.w3.org/2000/svg" viewBox="0 0 24 24" width="24" height="24"><defs><style>.a{fill:none;stroke:#000;stroke-linecap:round;stroke-linejoin:round;stroke-width:1.5px}</style></defs><title>safety-electricity-danger_1</title><circle class="a" cx="6.008" cy="3.563" r="2.625"/><path class="a" d="M3.758 20.813a2.25 2.25 0 1 0 4.5 0v-3.75a1.5 1.5 0 0 0 1.5-1.5v-4.5a3 3 0 0 0-3-3h-1.5a3 3 0 0 0-3 3v4.5a1.5 1.5 0 0 0 1.5 1.5zM19.864 5.419a2.639 2.639 0 0 1-1.177.677m-2.535-.677a2.639 2.639 0 0 1-.677-1.177m.677-2.535a2.639 2.639 0 0 1 1.177-.677m2.535.677a2.639 2.639 0 0 1 .677 1.177m1.217 11.038v-1.664m-.729-3.152a3.032 3.032 0 0 0-1.371-.9M16.357 8.2a3.029 3.029 0 0 0-1.37.9m-.729 3.158v1.664m1.511 7.119a2.262 2.262 0 0 0 .732 1.44m3.013 0a2.258 2.258 0 0 0 .732-1.44m-5.208-4.162a1.508 1.508 0 0 0 .72.184v.75m5.219-.934a1.5 1.5 0 0 1-.719.184v.75"/></svg>