<svg xmlns="http://www.w3.org/2000/svg" viewBox="0 0 24 24" width="24" height="24"><defs><style>.a{fill:none;stroke:#000;stroke-linecap:round;stroke-linejoin:round;stroke-width:1.5px}</style></defs><title>safety-vest-1</title><path class="a" d="M.75 14.25h22.5m-22.5 4.5H4.5m3.75 0H12M18.75 4.5v-3A.75.75 0 0 0 18 .75h-2.326a.687.687 0 0 0-.674.6V7.5A1.5 1.5 0 0 1 13.5 9h-3A1.5 1.5 0 0 1 9 7.5V1.351a.768.768 0 0 0-.75-.6H6a.75.75 0 0 0-.75.75v3c0 3.75-2.015 6.75-4.5 6.75v10.5a1.5 1.5 0 0 0 1.5 1.5h19.5a1.5 1.5 0 0 0 1.5-1.5V11.25c-2.485 0-4.5-3-4.5-6.75zM12 9v14.25"/><path class="a" d="M4.5 14.25v4.5a1.5 1.5 0 0 0 1.5 1.5h.75a1.5 1.5 0 0 0 1.5-1.5v-4.5m3.75 4.5h3.75m3.75 0h3.75m-7.5-4.5v4.5a1.5 1.5 0 0 0 1.5 1.5H18a1.5 1.5 0 0 0 1.5-1.5v-4.5"/></svg>