<svg xmlns="http://www.w3.org/2000/svg" viewBox="0 0 24 24" width="24" height="24"><defs><style>.a{fill:none;stroke:#000;stroke-linecap:round;stroke-linejoin:round;stroke-width:1.5px}</style></defs><title>safety-float</title><path class="a" d="M14.251 2.511a9.765 9.765 0 0 1 7.238 7.239m-18.978.001a9.765 9.765 0 0 1 7.239-7.24m4.501 18.978a9.764 9.764 0 0 0 7.238-7.238M2.511 14.25a9.764 9.764 0 0 0 7.239 7.239"/><circle class="a" cx="12" cy="12" r="3.75"/><path class="a" d="M15 9.75h6.75a1.5 1.5 0 0 1 1.5 1.5v1.5a1.5 1.5 0 0 1-1.5 1.5H15m-.75.75v6.75a1.5 1.5 0 0 1-1.5 1.5h-1.5a1.5 1.5 0 0 1-1.5-1.5V15M9 14.25H2.25a1.5 1.5 0 0 1-1.5-1.5v-1.5a1.5 1.5 0 0 1 1.5-1.5H9M9.75 9V2.25a1.5 1.5 0 0 1 1.5-1.5h1.5a1.5 1.5 0 0 1 1.5 1.5V9"/></svg>