<svg xmlns="http://www.w3.org/2000/svg" viewBox="0 0 24 24" width="24" height="24"><defs><style>.a{fill:none;stroke:#000;stroke-linecap:round;stroke-linejoin:round;stroke-width:1.5px}</style></defs><title>safety-911</title><path class="a" d="M9.877 3.352l-2.13 1.136a30.038 30.038 0 0 0-5.406 3.693l-.008.008a4.5 4.5 0 0 0-1.042 5.534l.419.786a1.5 1.5 0 0 0 2.03.617l3.308-1.765a1.5 1.5 0 0 0 .618-2.029A1.5 1.5 0 0 1 8.283 9.3l5.294-2.824a1.5 1.5 0 0 1 2.029.617 1.5 1.5 0 0 0 2.03.618l3.308-1.766a1.5 1.5 0 0 0 .618-2.029l-.419-.786A4.5 4.5 0 0 0 15.966.915h-.011a29.9 29.9 0 0 0-6.078 2.437zM21.739 23.25V16.5a.75.75 0 0 0-1.2-.6l-1.05.6m.75 6.75h3m-6.75 0V16.5a.75.75 0 0 0-1.2-.6l-1.05.6m.75 6.75h3"/><circle class="a" cx="9.739" cy="18" r="2.25"/><path class="a" d="M8.989 23.25a3 3 0 0 0 3-3V18"/></svg>