<svg xmlns="http://www.w3.org/2000/svg" viewBox="0 0 24 24" width="24" height="24"><defs><style>.a{fill:none;stroke:#000;stroke-linecap:round;stroke-linejoin:round;stroke-width:1.5px}</style></defs><title>safety-flame-right</title><path class="a" d="M10.95 12.015a4.482 4.482 0 0 0-.454 5.107 1.6 1.6 0 0 0 1.7-1.362 3.613 3.613 0 0 1 1.873 3.4 4.086 4.086 0 0 1-4.084 4.09A4.141 4.141 0 0 1 5.9 19.165a6.792 6.792 0 0 1 5.05-7.15z"/><path class="a" d="M2.364 9.107h.315l2.256 2.82a11.441 11.441 0 0 0-.309-7.962 11.479 11.479 0 0 1 9.507 5.98l2.046-1.993A9 9 0 1 1 2.364 9.107zM20.25.75l3 3-3 3m3-3H16.5"/></svg>