<svg xmlns="http://www.w3.org/2000/svg" viewBox="0 0 24 24" width="24" height="24"><g fill="none" stroke="#000" stroke-linecap="round" stroke-linejoin="round" stroke-miterlimit="10"><path d="M23.5 20.5a2 2 0 01-2 2h-19a2 2 0 01-2-2v-18a2 2 0 012-2h19a2 2 0 012 2v18zm-21 2v1m19-1v1"/><path d="M3.5 16.5v1a2 2 0 002 2h13a2 2 0 002-2v-12a2 2 0 00-2-2h-13a2 2 0 00-2 2v1m0 3v4"/><path d="M2.5 6.5h2v3h-2zm0 7h2v3h-2z"/><circle cx="12.5" cy="11.5" r="4.5"/><circle cx="12.5" cy="11.5" r="2.5"/><path d="M12.5 7v2m-3.182-.682l1.414 1.415M8 11.5h2m-.682 3.182l1.414-1.414M12.5 16v-2m3.182.683l-1.414-1.415M17 11.5h-2m.682-3.182l-1.414 1.415"/></g><path fill="none" d="M0 0h24v24H0z"/></svg>