<svg xmlns="http://www.w3.org/2000/svg" viewBox="0 0 24 24" width="24" height="24"><defs><style>.a{fill:none;stroke:#000;stroke-linecap:round;stroke-linejoin:round;stroke-width:1.5px}</style></defs><title>safety-danger-cliff</title><path class="a" d="M5.25 22.688v-3H.75"/><circle class="a" cx="20.25" cy="3.938" r="2.625"/><path class="a" d="M17.8 8.808a9.335 9.335 0 0 1-4.55-2.841 1.419 1.419 0 0 0-1.85-.247 1.561 1.561 0 0 0-.293 2.344 12.3 12.3 0 0 0 4.413 3.123l-.86.947-5.472-.685a1.54 1.54 0 0 0-.857.147l-3 1.5a1.5 1.5 0 1 0 1.34 2.684l2.594-1.3 2.925.366-2.8 3.079a1.5 1.5 0 1 0 2.22 2.019l6.855-7.541a4.4 4.4 0 0 1 1.785 3.532 1.5 1.5 0 1 0 3 0 7.407 7.407 0 0 0-5.45-7.127z"/></svg>