<svg xmlns="http://www.w3.org/2000/svg" viewBox="0 0 24 24" width="24" height="24"><defs><style>.a{fill:none;stroke:#000;stroke-linecap:round;stroke-linejoin:round;stroke-width:1.5px}</style></defs><title>safety-call-firefighters</title><path class="a" d="M2.341 8.181l-.009.008a4.5 4.5 0 0 0-1.041 5.534l.419.786a1.5 1.5 0 0 0 2.029.617l3.309-1.765a1.5 1.5 0 0 0 .617-2.029A1.5 1.5 0 0 1 8.283 9.3l5.293-2.824a1.5 1.5 0 0 1 2.03.617 1.5 1.5 0 0 0 2.029.618l3.309-1.766a1.5 1.5 0 0 0 .617-2.029l-.419-.786A4.5 4.5 0 0 0 15.965.915h-.011A40.628 40.628 0 0 0 2.341 8.181zm15.586 4.569h-2.949a.377.377 0 0 1-.208-.063l-2.155-1.437a5.386 5.386 0 0 0 5.312 4.5h1.432a5.382 5.382 0 0 1 2.987.905l.893.595a5.386 5.386 0 0 0-5.312-4.5zm5.312 7.5h-3.823a.377.377 0 0 1-.208-.063l-2.155-1.437a5.386 5.386 0 0 0 5.312 4.5h.874"/></svg>