<svg xmlns="http://www.w3.org/2000/svg" viewBox="0 0 24 24" width="24" height="24"><defs><style>.a{fill:none;stroke:#000;stroke-linecap:round;stroke-linejoin:round;stroke-width:1.5px}</style></defs><title>safety-fire-right</title><path class="a" d="M4.362 14.25a4.5 4.5 0 0 0-2.5.756L.75 15.75l.257-2.058A4.5 4.5 0 0 1 5.473 9.75h3.665a4.5 4.5 0 0 0 2.5-.756l1.112-.744-.257 2.058a4.5 4.5 0 0 1-4.466 3.942zM.75 18.75H3.3a8.932 8.932 0 0 0 4.954-1.5 6.849 6.849 0 0 1-6.8 6H.75m0-21H3.3A8.932 8.932 0 0 0 8.25.75a6.849 6.849 0 0 1-6.8 6h-.7m19.5-6l3 3-3 3m3-3H16.5"/></svg>