<svg xmlns="http://www.w3.org/2000/svg" viewBox="0 0 24 24" width="24" height="24"><defs><style>.a{fill:none;stroke:#000;stroke-linecap:round;stroke-linejoin:round;stroke-width:1.5px}</style></defs><title>safety-exit-door</title><path class="a" d="M23.25 18.238a1.5 1.5 0 0 0-1.5-1.5h-1.639a1.5 1.5 0 0 1-1.128-.512l-3.738-4.273.594-.424a1.494 1.494 0 0 1 .872-.279h3.539a1.5 1.5 0 0 0 0-3h-3.539a4.468 4.468 0 0 0-2.615.838l-3.685 2.634a1.493 1.493 0 0 1-.872.278H7.5a1.5 1.5 0 0 0 0 3h2.039a4.468 4.468 0 0 0 2.615-.838l.638-.456 1.708 1.957-1.565 1.253a4.475 4.475 0 0 0-1.689 3.513v1.321a1.5 1.5 0 0 0 3 0v-1.321a1.487 1.487 0 0 1 .564-1.17l1.668-1.335.244.278a4.5 4.5 0 0 0 3.385 1.536h1.643a1.5 1.5 0 0 0 1.5-1.5z"/><circle class="a" cx="9.75" cy="6" r="2.625"/><path class="a" d="M.75 23.25h3v-21a1.5 1.5 0 0 1 1.5-1.5h10.5a1.5 1.5 0 0 1 1.5 1.5V4.5m6 18.75h-6"/></svg>