<svg xmlns="http://www.w3.org/2000/svg" viewBox="0 0 24 24" width="24" height="24"><defs><style>.a{fill:none;stroke:#000;stroke-linecap:round;stroke-linejoin:round;stroke-width:1.5px}</style></defs><title>safety-extinguish-fire</title><path class="a" d="M13.829 3.75h-3.658a1.5 1.5 0 0 1-1.455-1.136L8.25.75h7.5l-.466 1.864a1.5 1.5 0 0 1-1.455 1.136zm-2.958 10.122a3.739 3.739 0 0 1 .379 4.263A1.332 1.332 0 0 1 9.829 17a3.015 3.015 0 0 0-1.563 2.84 3.41 3.41 0 0 0 3.41 3.41 3.458 3.458 0 0 0 3.411-3.41 5.67 5.67 0 0 0-4.216-5.968zM12 6.75v3.75m3.75-3.75l3 3.75M8.25 6.75l-3 3.75"/></svg>