<svg xmlns="http://www.w3.org/2000/svg" viewBox="0 0 24 24" width="24" height="24"><path fill="none" stroke="#000" stroke-linecap="round" stroke-linejoin="round" stroke-miterlimit="10" d="M23.5 20.5c0 .55-.45 1-1 1h-21c-.55 0-1-.45-1-1v-18c0-.549.45-1 1-1h21c.55 0 1 .451 1 1v18z"/><path fill="none" stroke="#000" stroke-linecap="round" stroke-linejoin="round" stroke-miterlimit="10" d="M18.717 8.743C18.717 9.962 17.72 11 16.5 11s-2.2-1.038-2.2-2.257c0-1.221.98-2.243 2.2-2.243s2.217 1.022 2.217 2.243z"/><path d="M16.509 8.015a.735.735 0 10-.003 1.47.735.735 0 00.003-1.47zM15 12h-1v1h1v-1zm2 0h-1v1h1v-1zm2 0h-1v1h1v-1zm-4 2h-1v1h1v-1zm2 0h-1v1h1v-1zm2 0h-1v1h1v-1zm-4 2h-1v1h1v-1zm2 0h-1v1h1v-1zm2 0h-1v1h1v-1z"/><path fill="none" stroke="#000" stroke-linecap="round" stroke-linejoin="round" stroke-miterlimit="10" d="M21.5 17.5c0 .55-.45 1-1 1h-16c-.55 0-1-.45-1-1v-12c0-.549.45-1 1-1h16c.55 0 1 .451 1 1v12z"/><path fill="none" stroke="#000" stroke-linecap="round" stroke-linejoin="round" stroke-miterlimit="10" d="M2.5 7.5h2v1h-2zm0 7h2v1h-2zm.5 7v1h1.5v-1m15 0v1H21v-1"/><path fill="none" d="M0 0h24v24H0z"/></svg>