<svg xmlns="http://www.w3.org/2000/svg" viewBox="0 0 24 24" width="24" height="24"><defs><style>.a{fill:none;stroke:#000;stroke-linecap:round;stroke-linejoin:round;stroke-width:1.5px}</style></defs><title>safety-warning-cliff</title><path class="a" d="M13.462 1.653a1.636 1.636 0 0 0-2.924 0L.923 20.884a1.636 1.636 0 0 0 1.462 2.366h19.231a1.636 1.636 0 0 0 1.462-2.366z"/><circle class="a" cx="13.5" cy="10.5" r="1.5"/><path class="a" d="M9 10.5l.935 1.246a5.473 5.473 0 0 0 3.477 2.114 5.467 5.467 0 0 1 3.653 2.362l.185.278m-4.185-2.71L9.75 19.5m1.78-3.066a4.038 4.038 0 0 0-4.78.816m-2.25 3h2.25"/></svg>