<svg id="Regular" xmlns="http://www.w3.org/2000/svg" viewBox="0 0 24 24" width="24" height="24"><defs><style>.cls-1{fill:none;stroke:#000;stroke-linecap:round;stroke-linejoin:round;stroke-width:1.5px}</style></defs><title>sailing-boat-1</title><path class="cls-1" d="M1.664 22.032a.75.75 0 0 0 .586 1.218h17.19a3 3 0 0 0 3-3 .75.75 0 0 0-.75-.75H4.05a.752.752 0 0 0-.586.282zM17.94 19.5v-12A11.253 11.253 0 0 0 15.69.75s-9 6-9 13.5a29.87 29.87 0 0 0 11.25 2.022m0-3.397L7.991 9.182m9.949-.193L10.021 6.05"/></svg>