<svg id="Regular" xmlns="http://www.w3.org/2000/svg" viewBox="0 0 24 24" width="24" height="24"><defs><style>.cls-1{fill:none;stroke:#000;stroke-linecap:round;stroke-linejoin:round;stroke-width:1.5px}</style></defs><title>sailing-boat-water-1</title><path class="cls-1" d="M.75 23.25a5.511 5.511 0 0 0 4.5-1.5 4.547 4.547 0 0 0 6.75 0 4.547 4.547 0 0 0 6.75 0 5.511 5.511 0 0 0 4.5 1.5"/><path class="cls-1" d="M3.566 22.882l-1.523-3.047a.75.75 0 0 1 .671-1.085h18.572a.75.75 0 0 1 .671 1.085l-1.523 3.047M12 18.75v-15a3 3 0 0 0-3-3C7.443 5.106 5.268 12.226 2.25 15H12m3-12c2.4 2.245 4.66 8.754 6.75 12h-6"/></svg>