<svg id="Regular" xmlns="http://www.w3.org/2000/svg" viewBox="0 0 24 24" width="24" height="24"><defs><style>.cls-1{fill:none;stroke:#000;stroke-linecap:round;stroke-linejoin:round;stroke-width:1.5px}</style></defs><title>sailing-archor</title><circle class="cls-1" cx="12" cy="2.25" r="1.5"/><path class="cls-1" d="M12 3.75v9.75M8.25 8.25h-1.5a5.25 5.25 0 0 0 10.5 0h-1.5m-5.25-1.5h3M.75 23.29a4.666 4.666 0 0 0 3.75-1.9 4.649 4.649 0 0 0 7.5 0 4.649 4.649 0 0 0 7.5 0 4.666 4.666 0 0 0 3.75 1.9M.75 18.641a4.668 4.668 0 0 0 3.75-1.9 4.649 4.649 0 0 0 7.5 0 4.649 4.649 0 0 0 7.5 0 4.668 4.668 0 0 0 3.75 1.9"/></svg>