<svg id="Regular" xmlns="http://www.w3.org/2000/svg" viewBox="0 0 24 24" width="24" height="24"><defs><style>.cls-1{fill:none;stroke:#000;stroke-linecap:round;stroke-linejoin:round;stroke-width:1.5px}</style></defs><title>sailing-boat-3</title><path class="cls-1" d="M.75 19.5v-3.3a1.5 1.5 0 0 1 1.887-1.449l16.128 4.3"/><circle class="cls-1" cx="15" cy="15.714" r="2.25"/><path class="cls-1" d="M19.966 14.906l3.284 1.024m-11.876-3.703l-8.592-2.68m20.468-3.83L9.65 1.476a.75.75 0 0 0-.968.8 9.59 9.59 0 0 0 6.671 8.046l7.9 2.462M15 3.144L18 .75m5.25 22.5a3.449 3.449 0 0 1-2.812-1.5 3.387 3.387 0 0 1-5.625 0 3.387 3.387 0 0 1-5.625 0 3.451 3.451 0 0 1-2.813 1.5 3.448 3.448 0 0 1-2.812-1.5 3.451 3.451 0 0 1-2.813 1.5"/></svg>