<svg id="Regular" xmlns="http://www.w3.org/2000/svg" viewBox="0 0 24 24" width="24" height="24"><defs><style>.cls-1{fill:none;stroke:#000;stroke-linecap:round;stroke-linejoin:round;stroke-width:1.5px}</style></defs><title>sailing-boat-water</title><path class="cls-1" d="M17.25 19.536a4.681 4.681 0 0 0 2.05-2.206l.892-2.067a.769.769 0 0 0-.808-1.013H4.612a.769.769 0 0 0-.812 1.013l.9 2.067a4.683 4.683 0 0 0 2.052 2.207M21 20.25a3 3 0 0 0 2.25 2.905M15 20.25a3 3 0 1 0 6 0m-12 0a3 3 0 0 0 6 0m-12 0a3 3 0 0 0 6 0M.75 23.155A3 3 0 0 0 3 20.25"/><path class="cls-1" d="M12.748 14.25V.75l-6.75 9h6.752m-8.252 0h1.5"/></svg>