<svg xmlns="http://www.w3.org/2000/svg" viewBox="0 0 24 24" width="24" height="24"><path fill="none" stroke="#000" stroke-linecap="round" stroke-linejoin="round" stroke-miterlimit="10" d="M10.5 23.5H.5c0-3.59 1-10 5-10s5 6.41 5 10z"/><path d="M4.5 15a.5.5 0 100 1 .5.5 0 000-1zm2 0a.5.5 0 100 1 .5.5 0 000-1z"/><path fill="none" stroke="#000" stroke-linecap="round" stroke-linejoin="round" stroke-miterlimit="10" d="M22.5 15.5c0-1-1-2-2-2h-6c-1 0-2 1-2 2v8h10v-8zm-8-7h6v5h-6zm7-3h-8v2c0 .5.5 1 1 1h6c.5 0 1-.5 1-1v-2zm2-1.5c0-.825-.675-1.5-1.5-1.5h-9c-.825 0-1.5.675-1.5 1.5h0c0 .825.675 1.5 1.5 1.5h9c.825 0 1.5-.675 1.5-1.5h0zm-6-1.5v-2m-1 0h2"/><path fill="none" d="M0 0h24v24H0z"/></svg>