<svg xmlns="http://www.w3.org/2000/svg" viewBox="0 0 24 24" width="24" height="24"><g fill="none" stroke="#000" stroke-linejoin="round" stroke-miterlimit="10"><path d="M.5 22.001a1.5 1.5 0 001.5 1.5h20a1.5 1.5 0 000-3H2a1.5 1.5 0 00-1.5 1.5z"/><path stroke-linecap="round" d="M18.438 15.578l-2.441 4.923H20.5v-3.938zm-6.844 4.923l3.234-6.585-1.965-.971A5.47 5.47 0 019 14.516 5.502 5.502 0 014.757 12.5L2 16.5A3.5 3.5 0 015.5 20v.5"/><path d="M23.5 2.001a1.5 1.5 0 00-1.5-1.5H2a1.5 1.5 0 000 3h20a1.5 1.5 0 001.5-1.5z"/><path stroke-linecap="round" d="M5.562 8.424l2.441-4.923H3.5v3.937zm6.844-4.923l-3.234 6.585 1.965.971A5.47 5.47 0 0115 9.486c1.708 0 3.234.794 4.242 2.016l2.758-4a3.5 3.5 0 01-3.5-3.5v-.5"/></g><path fill="none" d="M0 0h24v24H0z"/></svg>