<svg xmlns="http://www.w3.org/2000/svg" viewBox="0 0 24 24" width="24" height="24"><g fill="none" stroke="#000" stroke-linejoin="round" stroke-miterlimit="10"><path stroke-linecap="round" d="M4.5 19.5a4 4 0 01-4-4v-7a4 4 0 014-4h15a4 4 0 014 4v7a4 4 0 01-4 4h-15z"/><path d="M17.5 18.5a1 1 0 01-1 1h-2a1 1 0 01-1-1v-12a1 1 0 011-1h2a1 1 0 011 1v12z"/><path stroke-linecap="round" d="M14.5 21.5H14a1 1 0 100 2h3a1 1 0 100-2 1.5 1.5 0 01-1.5-1.5v-.5m3-3a2 2 0 002-2v-5a2 2 0 00-2-2M2.5 8c1.973.986 4.148 1.5 6.354 1.5H13.5v-3H8.854C6.648 6.5 4.473 7.014 2.5 8zm0 4c1.973.986 4.148 1.5 6.354 1.5H13.5v-3H8.854c-2.206 0-4.381.514-6.354 1.5zm0 4c1.973.986 4.148 1.5 6.354 1.5H13.5v-3H8.854c-2.206 0-4.381.514-6.354 1.5z"/></g><path fill="none" d="M0 0h24v24H0z"/></svg>