<svg xmlns="http://www.w3.org/2000/svg" viewBox="0 0 24 24" width="24" height="24"><g fill="none" stroke="#000" stroke-linecap="round" stroke-linejoin="round" stroke-miterlimit="10"><circle cx="5" cy="21.5" r="2"/><circle cx="19" cy="21.5" r="2"/><path d="M7 21.5h10m-9.5-10H6l-1.5 3"/><path d="M3 21.5H.5V16l2-2L5 9.5h4.5v10"/><path d="M.5 19.5h23v2H21m-11.5-5h14v3h-14zm5-7l-1 7H18l-1.541-5.515"/><path d="M14.75 9.801a5.794 5.794 0 008.197 0L14.75 1.604a5.795 5.795 0 000 8.197z"/><path d="M17.603 4.457C18.609 3.451 21 3.552 21 3.552s.099 2.391-.905 3.397"/></g><path fill="none" d="M0 0h24v24H0z"/></svg>