<svg xmlns="http://www.w3.org/2000/svg" viewBox="0 0 24 24" width="24" height="24"><defs><style>.a{fill:none;stroke:#000;stroke-linecap:round;stroke-linejoin:round;stroke-width:1.5px}</style></defs><title>satellite-1</title><path class="a" d="M4.779 13.917a3.75 3.75 0 0 1 5.3 5.3zM19.7 8.542a3 3 0 0 0-.385-4.57 3.112 3.112 0 0 0-3.971.441l-5.792 5.792a1.5 1.5 0 0 0 0 2.121l2.122 2.122a1.5 1.5 0 0 0 2.121 0zm1.592-5.834l-1.591 1.591M5.56 19.5a1.5 1.5 0 0 1-1.06-1.073m3.826 4.31a5.3 5.3 0 0 1-7.055-7.078m13.585-2.272l2.121 2.121"/><rect class="a" x="17.379" y="14.41" width="4.5" height="7.5" rx="1.5" ry="1.5" transform="rotate(-45 19.63 18.16)"/><path class="a" d="M10.613 9.144L8.492 7.023"/><rect class="a" x="3.59" y=".621" width="4.5" height="7.5" rx="1.5" ry="1.5" transform="rotate(-45 5.84 4.37)"/></svg>