<svg xmlns="http://www.w3.org/2000/svg" viewBox="0 0 24 24" width="24" height="24"><defs><style>.a{fill:none;stroke:#000;stroke-linecap:round;stroke-linejoin:round;stroke-width:1.5px}</style></defs><title>sauna-heat-person-1</title><circle class="a" cx="11.75" cy="3.752" r="3"/><path class="a" d="M16.25 12.752a4.5 4.5 0 0 0-5.391-4.415 4.61 4.61 0 0 0-3.609 4.581V15a.75.75 0 0 0 .75.75h1.5v3.75a.75.75 0 0 0 .75.75h3a.75.75 0 0 0 .75-.75v-3.75h1.5a.75.75 0 0 0 .75-.75zM4.25 9A2.447 2.447 0 0 0 5 7.161C5 5.933 3.5 5.32 3.5 4.092a2.443 2.443 0 0 1 .75-1.84M20.75 9a2.447 2.447 0 0 0 .75-1.841c0-1.226-1.5-1.839-1.5-3.067a2.443 2.443 0 0 1 .75-1.84"/><path class="a" d="M19.252 14.328c1.855.947 3 2.244 3 3.674 0 2.9-4.7 5.25-10.5 5.25S1.25 20.9 1.25 18c0-1.431 1.144-2.727 3-3.674"/></svg>