<svg xmlns="http://www.w3.org/2000/svg" viewBox="0 0 24 24" width="24" height="24"><defs><style>.a{fill:none;stroke:#000;stroke-linecap:round;stroke-linejoin:round;stroke-width:1.5px}</style></defs><title>saving-dog-guard-decrease</title><path class="a" d="M9.55 21.072a5.564 5.564 0 0 0 3.2-4.954 4.594 4.594 0 0 0-.73-2.491A2.25 2.25 0 1 0 8.351 11.3l.008-.024a5.378 5.378 0 0 0-.707-.042l-1.814.015a5.438 5.438 0 0 0-.689.051 2.25 2.25 0 1 0-3.669 2.327 4.6 4.6 0 0 0-.73 2.491 5.564 5.564 0 0 0 3.2 4.954"/><path class="a" d="M9.021 15.687l.479 4.939a2.2 2.2 0 0 1-2.119 2.624H6.119a2.1 2.1 0 0 1-1.483-.614A2.106 2.106 0 0 1 4 20.626l.479-4.939M6.75 19.5v.75m16.5-13.496v4.5h-4.5"/><path class="a" d="M23.25 11.254L18.2 6.2a2.251 2.251 0 0 0-2.237-.564l-5.709 1.529a2.251 2.251 0 0 1-2.172-.583L2.25.75"/></svg>