<svg xmlns="http://www.w3.org/2000/svg" viewBox="0 0 24 24" width="24" height="24"><defs><style>.a{fill:none;stroke:#000;stroke-linecap:round;stroke-linejoin:round;stroke-width:1.5px}</style></defs><title>saving-money-flower</title><path class="a" d="M11.946 12.75v10.5m0 0s-1.13-3.091-6.308-6.386"/><path class="a" d="M3.661 19c1.026 1.116 2.642 1.523 3.623-.564 2.427-1.436 1.432-3.254.053-4.206a7.219 7.219 0 0 0-6.523.1C2.47 15.935 2.385 17.609 3.661 19zm8.285 4.25s1.13-3.091 6.309-6.386"/><path class="a" d="M20.231 19c-1.025 1.116-2.642 1.523-3.622-.564-2.427-1.438-1.432-3.255-.054-4.207a7.222 7.222 0 0 1 6.524.1c-1.657 1.606-1.571 3.28-2.848 4.671zM13.446 3.75h-2.033a1.341 1.341 0 0 0-.5 2.587l2.063.826a1.342 1.342 0 0 1-.5 2.587h-2.03m1.5-6V3m0 7.5v-.75"/><circle class="a" cx="11.946" cy="6.75" r="6"/></svg>