<svg xmlns="http://www.w3.org/2000/svg" viewBox="0 0 24 24" width="24" height="24"><defs><style>.a{fill:none;stroke:#000;stroke-linecap:round;stroke-linejoin:round;stroke-width:1.5px}</style></defs><title>saving-safe-open</title><path class="a" d="M17.182 17.558A1.956 1.956 0 0 1 15.3 19H2.705A1.955 1.955 0 0 1 .75 17.045V5.205A1.955 1.955 0 0 1 2.705 3.25H15.3a1.955 1.955 0 0 1 1.941 1.722"/><path class="a" d="M15 6.25V16H4.589a.838.838 0 0 1-.839-.839V7.089a.838.838 0 0 1 .839-.839H7.5m12.75 13.5L15 16V6.25l5.25-3h2.022a.978.978 0 0 1 .978.978v14.544a.978.978 0 0 1-.978.978zM3.75 19v2.25M14.25 19v2.25m6-18v16.5"/><path class="a" d="M12.75 16l-1.446-3H7.446L6 16h6.75zm-2.25-6V7M12 8.5H9m8.25-3.528v12.635"/></svg>