<svg xmlns="http://www.w3.org/2000/svg" viewBox="0 0 24 24" width="24" height="24"><defs><style>.a{fill:none;stroke:#000;stroke-linecap:round;stroke-linejoin:round;stroke-width:1.5px}</style></defs><title>saving-safe-1</title><rect class="a" x=".75" y="3.75" width="22.5" height="18" rx="1.5" ry="1.5"/><rect class="a" x="5.25" y="6.75" width="15" height="12" rx="1.5" ry="1.5"/><path class="a" d="M3.75 21.75v1.5m16.5-1.5v1.5m-16.5-12h3m-3 4.5h3m7.125-1.5a.375.375 0 1 1-.375.375.375.375 0 0 1 .375-.375m3 0a.375.375 0 1 1-.375.375.375.375 0 0 1 .375-.375m-3-3.75a.375.375 0 1 1-.375.375.375.375 0 0 1 .375-.375m3 0a.375.375 0 1 1-.375.375.375.375 0 0 1 .375-.375"/></svg>