<svg xmlns="http://www.w3.org/2000/svg" viewBox="0 0 24 24" width="24" height="24"><defs><style>.a{fill:none;stroke:#000;stroke-linecap:round;stroke-linejoin:round;stroke-width:1.5px}</style></defs><title>saving-piggy-dollars</title><path class="a" d="M17.25 19.637a8.228 8.228 0 0 0 2.62-3.765M7.5 10.125a.375.375 0 1 1-.375.375.375.375 0 0 1 .375-.375M18.75 3.75h-2.033a1.342 1.342 0 0 0-.5 2.587l2.064.826a1.342 1.342 0 0 1-.5 2.587H15.75m1.5-6V3m0 7.5v-.75"/><circle class="a" cx="17.25" cy="6.75" r="6"/><path class="a" d="M9.037 5.531L7.054 3.878a.75.75 0 0 0-1.224.484l-.356 2.844A8.22 8.22 0 0 0 2.6 11.25H.75v6h2.49a9.114 9.114 0 0 0 8.01 4.5 8.911 8.911 0 0 0 8.689-6.092M6.011 20.204L5.25 23.25m11.24-3.041l.76 3.041"/></svg>