<svg xmlns="http://www.w3.org/2000/svg" viewBox="0 0 24 24" width="24" height="24"><defs><style>.a{fill:none;stroke:#000;stroke-linecap:round;stroke-linejoin:round;stroke-width:1.5px}</style></defs><title>saving-money-seedling</title><rect class="a" x="1.585" y="2.292" width="9.238" height="6.007" rx="1" ry="1" transform="rotate(30.012 6.204 5.295)"/><rect class="a" x="13.055" y="6.099" width="9.509" height="6.007" rx="1" ry="1" transform="rotate(141.884 17.81 9.102)"/><path class="a" d="M11.952 20.25V.933M6.134 4.764a.375.375 0 1 1-.375.375.374.374 0 0 1 .375-.375m11.513 4.005a.375.375 0 1 1-.375.375.374.374 0 0 1 .375-.375M8.952 23.25l-.79-2.341a.5.5 0 0 1 .475-.659h6.62a.5.5 0 0 1 .475.659l-.78 2.341"/><rect class="a" x="5.457" y="12.927" width="6" height="3.75" rx=".5" ry=".5" transform="rotate(21.429 8.459 14.803)"/></svg>