<svg xmlns="http://www.w3.org/2000/svg" viewBox="0 0 24 24" width="24" height="24"><defs><style>.a{fill:none;stroke:#000;stroke-linecap:round;stroke-linejoin:round;stroke-width:1.5px}</style></defs><title>saving-bull-increase</title><path class="a" d="M10.831 13.714l-.747 1.868A1.876 1.876 0 0 0 10.5 17.6l1.455 1.455a1.654 1.654 0 0 1 .484 1.168 1.652 1.652 0 0 0 1.129 1.567l1.09.363a1.866 1.866 0 0 0 1.186 0l1.09-.363a1.652 1.652 0 0 0 1.129-1.567 1.654 1.654 0 0 1 .484-1.168L20 17.6a1.876 1.876 0 0 0 .415-2.022l-.7-1.736M16 17.75h-1.5"/><path class="a" d="M10.414 14.756l-1.576-1.051a2.442 2.442 0 0 1-1.088-2.032 2.443 2.443 0 0 1 2.443-2.443 1.467 1.467 0 0 0 1.22-.653l1.44-2.16a3.53 3.53 0 0 1 1.381 2.076 1.065 1.065 0 0 0 2.032 0 3.53 3.53 0 0 1 1.381-2.076l1.44 2.16a1.467 1.467 0 0 0 1.22.653 2.443 2.443 0 0 1 2.443 2.443 2.442 2.442 0 0 1-1.088 2.032l-1.576 1.051M22.75 5.75v-4.5h-4.5M9.754 5.339a2.249 2.249 0 0 0-2.172.582L1.75 11.754m21-10.504l-2.939 2.939"/></svg>