<svg xmlns="http://www.w3.org/2000/svg" viewBox="0 0 24 24" width="24" height="24"><defs><style>.a{fill:none;stroke:#000;stroke-linecap:round;stroke-linejoin:round;stroke-width:1.5px}</style></defs><title>saving-bag-increase</title><path class="a" d="M14.16 16a.638.638 0 0 0-.66.609V21.4a.628.628 0 0 0 .65.6h8.44a.638.638 0 0 0 .66-.609V16.75a.784.784 0 0 0-.813-.75z"/><path class="a" d="M18.375 18.631A.369.369 0 1 1 18 19a.372.372 0 0 1 .375-.369m-4.875.222A7.289 7.289 0 0 1 7.5 22C4.111 22 .75 19.482.75 16.375c0-3.068 2.659-6.458 4.705-7.875-.59-1.3-1.065-2.325-1.435-3.115A1.5 1.5 0 0 1 5.379 3.25H10.5m1.3 7.396A10.1 10.1 0 0 1 14.237 16"/><path class="a" d="M5.829 17.844a2.224 2.224 0 0 0 1.858.875c1.139 0 2.063-.693 2.063-1.547s-.924-1.546-2.063-1.546-2.062-.693-2.062-1.548.924-1.547 2.062-1.547a2.221 2.221 0 0 1 1.858.875m-1.858 5.313v1.031m0-8.25v1.031M23.25 5.286V1.75h-3.536"/><path class="a" d="M23.25 1.753L20 5a1.444 1.444 0 0 1-1.438.363l-3.671-.981a1.449 1.449 0 0 0-1.4.375l-3.746 3.75"/></svg>