<svg xmlns="http://www.w3.org/2000/svg" viewBox="0 0 24 24" width="24" height="24"><defs><style>.a{fill:none;stroke:#000;stroke-linecap:round;stroke-linejoin:round;stroke-width:1.5px}</style></defs><title>saving-money-egg</title><path class="a" d="M10.892 10.844a2.221 2.221 0 0 0 1.858.875c1.139 0 2.062-.693 2.062-1.547s-.923-1.546-2.062-1.546-2.062-.693-2.062-1.548.923-1.547 2.062-1.547a2.221 2.221 0 0 1 1.858.875m-1.858 5.313v1.031m0-8.25v1.031"/><path class="a" d="M19.5 12.375c0-1.5-1.864-11.625-6.75-11.625S6 10.875 6 12.375M3.75 15.75a9.15 9.15 0 0 0 18 0zm-2.25-1.5l2.25 1.5M2.25 18l1.835-.918m16.106 2.379L22.5 21"/></svg>