<svg xmlns="http://www.w3.org/2000/svg" viewBox="0 0 24 24" width="24" height="24"><defs><style>.a{fill:none;stroke:#000;stroke-linecap:round;stroke-linejoin:round;stroke-width:1.5px}</style></defs><title>saving-money-tree</title><path class="a" d="M12.5 20.25v-4.5m-3 7.5l-.781-2.342a.5.5 0 0 1 .475-.658h6.612a.5.5 0 0 1 .475.658L15.5 23.25m2.554-6.062A2.5 2.5 0 0 0 20 14.75c0-1.225-1.5-2.5-3-2.454a9.49 9.49 0 0 0 1.5-5.046s.562-6.5-6.194-6.5S6.5 7.25 6.5 7.25a8.4 8.4 0 0 0 .5 3c-2 0-3.5 1-3.5 3 0 2.236 1.067 3.5 3 3.5m6 1a3.891 3.891 0 0 1-3-1.5m3 1.5a3.891 3.891 0 0 0 3-1.5"/><path class="a" d="M14.545 5.352h-3.068c-.673 0-1.022.2-1.022 1.023 0 1.337 4.09 2.754 4.09 4.091a.9.9 0 0 1-1.022 1.023h-3.068M12.5 5.352V3.818m0 9.205v-1.534"/></svg>