<svg xmlns="http://www.w3.org/2000/svg" viewBox="0 0 24 24" width="24" height="24"><defs><style>.a{fill:none;stroke:#000;stroke-linecap:round;stroke-linejoin:round;stroke-width:1.5px}</style></defs><title>saving-bank-drawer</title><path class="a" d="M9.75.75v22.5m-9-15h18m-18 7.5h18m0-13.45a1.776 1.776 0 0 0-1.5-1.55h-15A1.776 1.776 0 0 0 .75 2.3v19.4a1.776 1.776 0 0 0 1.5 1.552h15a1.776 1.776 0 0 0 1.5-1.552zm4.5 13.756a.749.749 0 0 1-.959.72L18.75 15.75v-7.5l3.611-.583a.75.75 0 0 1 .889.737z"/><path class="a" d="M4.125 4.5a.375.375 0 1 1-.375.375.375.375 0 0 1 .375-.375m0 7.5a.375.375 0 1 1-.375.375.375.375 0 0 1 .375-.375m0 7.5a.375.375 0 1 1-.375.375.375.375 0 0 1 .375-.375m9 0a.375.375 0 1 1-.375.375.375.375 0 0 1 .375-.375m-.143-14.971a.374.374 0 1 1-.2.489.374.374 0 0 1 .2-.489M12 15.75l.9-3h2.7l.9 3H12z"/></svg>