<svg xmlns="http://www.w3.org/2000/svg" viewBox="0 0 24 24" width="24" height="24"><defs><style>.a{fill:none;stroke:#000;stroke-linecap:round;stroke-linejoin:round;stroke-width:1.5px}</style></defs><title>saving-bull-decrease</title><path class="a" d="M12.669 14.211l.747 1.867A1.878 1.878 0 0 1 13 18.1l-1.455 1.454a1.655 1.655 0 0 0-.483 1.168 1.652 1.652 0 0 1-1.13 1.567l-1.09.364a1.88 1.88 0 0 1-1.186 0l-1.09-.364a1.651 1.651 0 0 1-1.129-1.567 1.656 1.656 0 0 0-.484-1.168L3.5 18.1a1.878 1.878 0 0 1-.415-2.023l.695-1.736M9 18.246H7.5"/><path class="a" d="M13.086 15.253l1.576-1.053a2.442 2.442 0 0 0 1.088-2.033 2.443 2.443 0 0 0-2.443-2.443 1.467 1.467 0 0 1-1.22-.653l-1.44-2.159A3.53 3.53 0 0 0 9.266 8.99a.991.991 0 0 1-1.016.746.988.988 0 0 1-1.016-.746 3.53 3.53 0 0 0-1.381-2.076l-1.44 2.159a1.467 1.467 0 0 1-1.22.653A2.443 2.443 0 0 0 .75 12.169 2.442 2.442 0 0 0 1.838 14.2l1.576 1.051M23.25 7.75v4.5h-4.5M4.266 3.68L2.25 1.664"/><path class="a" d="M23.25 12.25L18.2 7.2a2.252 2.252 0 0 0-2.237-.565l-1.456.39"/></svg>