<svg xmlns="http://www.w3.org/2000/svg" viewBox="0 0 24 24" width="24" height="24"><defs><style>.a{fill:none;stroke:#000;stroke-linecap:round;stroke-linejoin:round;stroke-width:1.5px}</style></defs><title>saving-piggy-bank</title><path class="a" d="M23.25 9.5a3 3 0 0 1-3 3M8.25 8a6.763 6.763 0 0 1 6 0m-7.875 3a.375.375 0 1 0 .375.375.375.375 0 0 0-.375-.375"/><path class="a" d="M7.9 4.883C6.726 2.756 3.75 2.75 3.75 2.75l.626 4.384A8.058 8.058 0 0 0 2.6 10.25H.75v6h2.49a8.467 8.467 0 0 0 2.01 2.372V21.5a.75.75 0 0 0 .75.75h1.5a.75.75 0 0 0 .75-.75v-1.241a9.512 9.512 0 0 0 6 .011v1.23a.75.75 0 0 0 .75.75h1.5a.75.75 0 0 0 .75-.75v-2.863a7.941 7.941 0 0 0 3-6.137c0-6.494-7.05-9.389-12.35-7.617z"/></svg>