<svg xmlns="http://www.w3.org/2000/svg" viewBox="0 0 24 24" width="24" height="24"><defs><style>.a{fill:none;stroke:#000;stroke-linecap:round;stroke-linejoin:round;stroke-width:1.5px}</style></defs><title>saving-bank-cash</title><path class="a" d="M5.25 23.25h18M15.575 6.572l7.406 4.937a.6.6 0 0 1 .269.5v.891a.6.6 0 0 1-.6.6H5.25"/><rect class="a" x="2.625" y="1.875" width="6.75" height="10.5" rx=".887" ry=".887" transform="rotate(-90 6 7.125)"/><path class="a" d="M4.443 3.75l.3-2.009A1.163 1.163 0 0 1 6.066.763l6.769 1.013a1.163 1.163 0 0 1 .978 1.324l-.529 3.531a1.187 1.187 0 0 1-2.034.625M6 6.75a.375.375 0 1 1-.375.375A.375.375 0 0 1 6 6.75m15 16.5V13.5m-4.5 9.75V13.5M12 23.25V13.5m-4.5 9.75V13.5"/></svg>