<svg xmlns="http://www.w3.org/2000/svg" viewBox="0 0 24 24" width="24" height="24"><defs><style>.a{fill:none;stroke:#000;stroke-linecap:round;stroke-linejoin:round;stroke-width:1.5px}</style></defs><title>saving-bank-international</title><path class="a" d="M9.75 23.25H22.5m-11.25-7.5v7.5m3-7.5v7.5m3.75-7.5v7.5m3-7.5v7.5m2.25-7.5H9l6.575-4.321a.933.933 0 0 1 1.1 0zM5.737 21.347a11.253 11.253 0 1 1 17.49-10.1"/><path class="a" d="M6.844 13.493a26.32 26.32 0 0 1 .232-5.928 16.27 16.27 0 0 1 2.213-6.486M.775 11.25H6.75M2.482 6h19.036M1.686 16.5H6m8.711-15.421a17.056 17.056 0 0 1 2.312 7.2"/></svg>