<svg xmlns="http://www.w3.org/2000/svg" viewBox="0 0 24 24" width="24" height="24"><path d="M11.5 7v15.5m-2.5 0h5m-13.5-6L4 9.035 7.5 16.5m5.5-11c0 .807-.694 1.5-1.5 1.5S10 6.307 10 5.5c0-.806.694-1.5 1.5-1.5s1.5.694 1.5 1.5zM4 20c1.881 0 3.5-1.38 3.5-3.5h-7C.5 18.62 2.119 20 4 20zm18.5-9.5L19 2.966 15.5 10.5M19 14c-1.881 0-3.5-1.38-3.5-3.5h7c0 2.12-1.619 3.5-3.5 3.5zm-6.006-8.604l8.061-3.261M1.946 9.865l8.419-3.406" fill="none" stroke="#000" stroke-linecap="round" stroke-linejoin="round" stroke-miterlimit="10"/><path fill="none" d="M0 0h24v24H0z"/></svg>