<svg xmlns="http://www.w3.org/2000/svg" viewBox="0 0 24 24" width="24" height="24"><defs><style>.a{fill:none;stroke:#000;stroke-linecap:round;stroke-linejoin:round;stroke-width:1.5px}</style></defs><title>scanner</title><path class="a" d="M20.25 23.25a3 3 0 0 0 3-3v-.75H.75v.75a3 3 0 0 0 3 3zm-15-13.5a1.5 1.5 0 0 0-1.342.829L.75 19.5h22.5l-3.158-8.921a1.5 1.5 0 0 0-1.342-.829z"/><path class="a" d="M3.908 10.579L2.545 2.5A1.5 1.5 0 0 1 4.024.75h15.952a1.5 1.5 0 0 1 1.479 1.75l-1.363 8.079M18 16.5H6l.75-3.75h10.5L18 16.5z"/></svg>