<svg xmlns="http://www.w3.org/2000/svg" viewBox="0 0 24 24" width="24" height="24"><g fill="none" stroke="#000" stroke-linecap="round" stroke-linejoin="round" stroke-miterlimit="10"><path d="M2.719 7.97A8 8 0 008.5 21.5h7a8 8 0 008-8 7.967 7.967 0 00-1-3.877V2.5a.5.5 0 00-.902-.298L18.5 6"/><path d="M1.5 9.5v-7a.5.5 0 01.854-.354l3.711 3.501A11.452 11.452 0 0112 4c3.109 0 5.932 1.234 8.002 3.239M12.5 10.5V13m7-2.5V13m-1 4.25a2 2 0 01-4 0V15.5h4v1.75zm-7-2.25L10 16.5M9.5 15L8 16.5M20 15l1.5 1.5M22 15l1 1"/></g><path fill="none" d="M0 0h24v24H0z"/></svg>