<svg xmlns="http://www.w3.org/2000/svg" viewBox="0 0 24 24" width="24" height="24"><defs><style>.a{fill:none;stroke:#000;stroke-linecap:round;stroke-linejoin:round;stroke-width:1.5px}</style></defs><title>school-exam-a</title><path class="a" d="M23.25 10.5v3.129a1.5 1.5 0 0 1-.439 1.061l-8.122 8.121a1.5 1.5 0 0 1-1.06.439H2.25a1.5 1.5 0 0 1-1.5-1.5V2.25a1.5 1.5 0 0 1 1.5-1.5h13.5"/><path class="a" d="M14.25 23.115V15.75a1.5 1.5 0 0 1 1.5-1.5h7.365m-4.365-6v-6a1.5 1.5 0 0 1 3 0v6m-3-3h3M7.5 6.75h5.25m-8.25 4.5h8.25m-8.25 4.5h6"/></svg>