<svg xmlns="http://www.w3.org/2000/svg" viewBox="0 0 24 24" width="24" height="24"><defs><style>.a{fill:none;stroke:#000;stroke-linecap:round;stroke-linejoin:round;stroke-width:1.5px}</style></defs><title>school-locker-2</title><rect class="a" x=".75" y="2.25" width="22.5" height="19.5" rx="1" ry="1"/><path class="a" d="M3.75 18h1.5m-1.5-3h1.5m-1.5-6.75h1.5m-1.5-3h1.5m3-3v19.5m3-3.75h2.25m-2.25-3h2.25m-2.25-6.75h2.25m-2.25-3h2.25m3-3v19.5m0-11.25h6.75m-3.75 5.25h3.75v5a1 1 0 0 1-1 1H19.5v-6zM16.5 6h2.75a1 1 0 0 1 1 1v3.5H16.5V6zm3.75 9.75v-1.5"/></svg>