<svg xmlns="http://www.w3.org/2000/svg" viewBox="0 0 24 24" width="24" height="24"><defs><style>.a{fill:none;stroke:#000;stroke-linecap:round;stroke-linejoin:round;stroke-width:1.5px}</style></defs><title>school-teacher-art</title><circle class="a" cx="5.25" cy="3.75" r="3"/><path class="a" d="M5.25 8.25v6m2.25 9l.75-7.5h1.5v-3a4.5 4.5 0 0 0-9 0v3h1.5l.75 7.5zM23.25.75h-12m1.5 15.75h10.5M18.635 3.839a7.18 7.18 0 0 0-1.688-.2c-2.721 0-5.293 1.776-5.682 3.86-.443 2.377 1.6 4.056 2.985 4.5a2.061 2.061 0 0 0 2.43-.97m3.484-.764l-1.992 3.985m1.196-5.992a1.448 1.448 0 0 0 2.59 1.3 3.088 3.088 0 0 0-.648-4.1c.216 1.72-1.079 1.073-1.942 2.8zm-4.791-.118a.375.375 0 0 1 .375.375m-.752 0a.375.375 0 0 1 .375-.375m.002.75a.375.375 0 0 1-.375-.375m.75 0a.375.375 0 0 1-.375.375m3-3a.375.375 0 0 1 .375.375m-.752 0a.375.375 0 0 1 .375-.375m.002.75a.375.375 0 0 1-.375-.375m.75 0a.375.375 0 0 1-.375.375"/></svg>