<svg xmlns="http://www.w3.org/2000/svg" viewBox="0 0 24 24" width="24" height="24"><defs><style>.a{fill:none;stroke:#000;stroke-linecap:round;stroke-linejoin:round;stroke-width:1.5px}</style></defs><title>school-board-maths</title><rect class="a" x=".75" y=".75" width="22.5" height="15" rx="1" ry="1"/><path class="a" d="M3.75 15.75v7.5m16.5-7.5v7.5m-16.5-3h16.5M4.5 6.75A1.5 1.5 0 0 1 6 5.25a1.5 1.5 0 0 1 1.5 1.5 2.139 2.139 0 0 1-.468 1.336L4.5 11.25h3m9.75-6H18a.75.75 0 0 1 .75.75v5.25m-1.5 0h3m-9.75-3H15M12.75 6v4.5"/></svg>