<svg xmlns="http://www.w3.org/2000/svg" viewBox="0 0 24 24" width="24" height="24"><defs><style>.a{fill:none;stroke:#000;stroke-linecap:round;stroke-linejoin:round;stroke-width:1.5px}</style></defs><title>school-teacher-blind</title><circle class="a" cx="5.25" cy="3.75" r="3"/><path class="a" d="M5.25 8.25v6m2.25 9l.75-7.5h1.5v-3a4.5 4.5 0 0 0-9 0v3h1.5l.75 7.5zM23.25.75h-12m1.5 15.75h10.5M12.094 8.185a.559.559 0 0 1 0-.62A6.522 6.522 0 0 1 17.25 4.5a6.522 6.522 0 0 1 5.156 3.065.559.559 0 0 1 0 .62 6.522 6.522 0 0 1-5.156 3.065 6.522 6.522 0 0 1-5.156-3.065zm7.632-3.074l-4.952 5.528"/></svg>