<svg xmlns="http://www.w3.org/2000/svg" viewBox="0 0 24 24" width="24" height="24"><defs><style>.a{fill:none;stroke:#000;stroke-linecap:round;stroke-linejoin:round;stroke-width:1.5px}</style></defs><title>school-locker-1</title><path class="a" d="M1.75 2.25H19.5v19.5H1.75a1 1 0 0 1-1-1V3.25a1 1 0 0 1 1-1zm8 0v19.5m-6-3.75h3m-3-3h3m-3-6.75h3m-3-3h3m3 5.25h9.75"/><path class="a" d="M14.75 16.5h4.75v5.25h-5.25V17a.5.5 0 0 1 .5-.5zm-5-3h6.75c.414 0 .75.241.75.539V16.5M9.75 5.25h2.5a.5.5 0 0 1 .5.5v4.75h-3V5.25zm9.75 5.25h-3V5.75a.5.5 0 0 1 .5-.5h2.5v5.25zm3.207 12.711L19.5 21.75V2.25L22.707.789a.375.375 0 0 1 .543.33v21.762a.375.375 0 0 1-.543.33zM12.75 7.5h3.75"/></svg>