<svg xmlns="http://www.w3.org/2000/svg" viewBox="0 0 24 24" width="24" height="24"><defs><style>.a{fill:none;stroke:#000;stroke-linecap:round;stroke-linejoin:round;stroke-width:1.5px}</style></defs><title>school-building</title><path class="a" d="M7.5 23.25H.75V15a1.5 1.5 0 0 1 1.5-1.5H7.5m9 0h5.25a1.5 1.5 0 0 1 1.5 1.5v8.25H16.5m-3-3.937A1.416 1.416 0 0 0 12 18a1.416 1.416 0 0 0-1.5 1.313v3.937h3zM12 6.75v-6m0 0h4a.5.5 0 0 1 .5.5v2a.5.5 0 0 1-.5.5h-4v-3z"/><circle class="a" cx="12" cy="11.283" r="1.467"/><path class="a" d="M16.5 11.118A4.435 4.435 0 0 0 12 6.75a4.435 4.435 0 0 0-4.5 4.368V23.25h9zM3.75 16.5h.75m-.75 3.75h.75m15-3.75h.75m-.75 3.75h.75"/></svg>