<svg xmlns="http://www.w3.org/2000/svg" viewBox="0 0 24 24" width="24" height="24"><defs><style>.a{fill:none;stroke:#000;stroke-linecap:round;stroke-linejoin:round;stroke-width:1.5px}</style></defs><title>school-book</title><path class="a" d="M18.75 23.25H3A2.25 2.25 0 0 1 .75 21m18-20.25h-15a3 3 0 0 0-3 3V21A2.25 2.25 0 0 1 3 18.75h15.75m-1.5 4.5v-4.5"/><path class="a" d="M5.25 12.75v-6a1.5 1.5 0 0 1 3 0v6m-3-3h3m4.5 6v-7.5m0 0h1.5a1.5 1.5 0 0 1 1.5 1.5v.75a1.5 1.5 0 0 1-1.5 1.5h-1.5m0 0h1.5a1.5 1.5 0 0 1 1.5 1.5v.75a1.5 1.5 0 0 1-1.5 1.5h-1.5m10.5-10.5a3 3 0 0 0-3 3v1.5a3 3 0 0 0 3 3"/></svg>