<svg xmlns="http://www.w3.org/2000/svg" viewBox="0 0 24 24" width="24" height="24"><defs><style>.a{fill:none;stroke:#000;stroke-linecap:round;stroke-linejoin:round;stroke-width:1.5px}</style></defs><title>school-bag</title><path class="a" d="M8.5 3.75h7a4 4 0 0 1 4 4v15.5h-15V7.75a4 4 0 0 1 4-4zm.5 0a2.792 2.792 0 0 1 2.935-3 2.815 2.815 0 0 1 2.935 3M2.707 14.25H4.5v9H2.707A1.957 1.957 0 0 1 .75 21.293v-5.086a1.957 1.957 0 0 1 1.957-1.957zm16.793.196h1.793A1.957 1.957 0 0 1 23.25 16.4v4.891a1.957 1.957 0 0 1-1.957 1.957H19.5V14.446z"/><rect class="a" x="7.5" y="13.5" width="9" height="6.75" rx="1" ry="1"/><path class="a" d="M7.5 16.5h9m-3.75 0V18m-12-.815H4.5m15 .065h3.75"/></svg>