<svg xmlns="http://www.w3.org/2000/svg" viewBox="0 0 24 24" width="24" height="24"><defs><style>.a{fill:none;stroke:#000;stroke-linecap:round;stroke-linejoin:round;stroke-width:1.5px}</style></defs><title>school-teacher-physical-education</title><circle class="a" cx="5.25" cy="3.75" r="3"/><path class="a" d="M5.25 8.25v6m2.25 9l.75-7.5h1.5v-3a4.5 4.5 0 0 0-9 0v3h1.5l.75 7.5zM23.25.75h-12m1.5 15.75h10.5m-5.969-9.138l.263-1.709a2.115 2.115 0 0 1 3.028 0 2.053 2.053 0 0 1 0 2.99l-1.551.437m1.551-.437s1.515-.748 1.893 1.121c.266 1.312-.447 1.2-5.416 2.583m.495-6.694s.757-1.495-1.136-1.869c-1.391-.274-1.309.659-2.49 5.472m3.131 3.091l-.522.515a2.239 2.239 0 0 1-3.131 0 2.172 2.172 0 0 1 0-3.091l.522-.515z"/></svg>