<svg xmlns="http://www.w3.org/2000/svg" viewBox="0 0 24 24" width="24" height="24"><defs><style>.a{fill:none;stroke:#000;stroke-linecap:round;stroke-linejoin:round;stroke-width:1.5px}</style></defs><title>science-perspective</title><path class="a" d="M18 5.922c2.72.678 4.5 1.8 4.5 3.078 0 2.071-4.7 3.75-10.5 3.75S1.5 11.071 1.5 9c0-1.274 1.78-2.4 4.5-3.078m6 3.828v-9m-3 3l3-3 3 3"/><path class="a" d="M16.626 23.25a34.719 34.719 0 0 1-.126-3 29.859 29.859 0 0 1 1.015-8.059A25.965 25.965 0 0 1 12 12.75a25.965 25.965 0 0 1-5.515-.559A29.859 29.859 0 0 1 7.5 20.25c0 1.078-.047 2.078-.126 3"/><path class="a" d="M16.655 17.082c-1.5.11-3.06.168-4.655.168s-3.14-.057-4.638-.166M16.2 8.25c0 .828-1.88 1.5-4.2 1.5s-4.2-.672-4.2-1.5m8.726 13.398q-2.223.1-4.526.1t-4.533-.1M12 12.75v10.5"/></svg>