<svg xmlns="http://www.w3.org/2000/svg" viewBox="0 0 24 24" width="24" height="24"><defs><style>.a{fill:none;stroke:#000;stroke-linecap:round;stroke-linejoin:round;stroke-width:1.5px}</style></defs><title>science-atom-positive-negative</title><circle class="a" cx="11.748" cy="12.748" r="6"/><path class="a" d="M9.498 12.748h4.5m-2.25-2.25v4.5m6.75-11.25h1.5M7.248 3.26A10.477 10.477 0 0 1 11 2.272M1.685 9.748a10.432 10.432 0 0 1 1.444-3M3.5 19.241A10.56 10.56 0 0 1 1.94 16.5m9.807 6.75A10.629 10.629 0 0 1 8 22.558M19.794 19.5a10.552 10.552 0 0 1-2.638 2.25M22.1 10.989a10.458 10.458 0 0 1 .039 3.259"/><circle class="a" cx="19.248" cy="3.748" r="3"/></svg>