<svg xmlns="http://www.w3.org/2000/svg" viewBox="0 0 24 24" width="24" height="24"><defs><style>.a{fill:none;stroke:#000;stroke-linecap:round;stroke-linejoin:round;stroke-width:1.5px}</style></defs><title>science-magnet</title><path class="a" d="M7.45 3.188a.375.375 0 0 1-.138.512m-.375-.65a.376.376 0 0 1 .513.138m-.65.375a.377.377 0 0 1 .137-.513m.375.65a.376.376 0 0 1-.512-.137M2.95 6.938a.376.376 0 0 1-.137.512m-.375-.65a.375.375 0 0 1 .512.138m-.65.375a.376.376 0 0 1 .138-.513m.375.65a.377.377 0 0 1-.513-.137m-.85 4.875a.376.376 0 0 1-.137.512m-.375-.65a.375.375 0 0 1 .512.138m-.65.375a.376.376 0 0 1 .138-.513m.375.65a.377.377 0 0 1-.513-.137m2.15 4.874a.375.375 0 0 1-.137.512m-.375-.649a.376.376 0 0 1 .512.137m-.65.375a.375.375 0 0 1 .138-.512m.375.649a.375.375 0 0 1-.513-.137m5.15 2.625a.375.375 0 0 1-.137.512m-.375-.649a.376.376 0 0 1 .512.137m-.65.375a.375.375 0 0 1 .138-.512m.375.649a.375.375 0 0 1-.513-.137m9.75-17.624a.375.375 0 0 0 .138.512m.375-.65a.376.376 0 0 0-.513.138m.65.375a.377.377 0 0 0-.137-.513m-.375.65a.376.376 0 0 0 .512-.137m3.85 3.375a.376.376 0 0 0 .137.512m.375-.65a.375.375 0 0 0-.512.138m.65.375a.376.376 0 0 0-.138-.513m-.375.65a.377.377 0 0 0 .513-.137m.85 4.875a.376.376 0 0 0 .137.512m.375-.65a.375.375 0 0 0-.512.138m.65.375a.376.376 0 0 0-.138-.513m-.375.65a.377.377 0 0 0 .513-.137m-2.15 4.874a.375.375 0 0 0 .137.512m.375-.649a.376.376 0 0 0-.512.137m.65.375a.375.375 0 0 0-.138-.512m-.375.649a.375.375 0 0 0 .513-.137m-5.15 2.625a.375.375 0 0 0 .137.512m.375-.649a.376.376 0 0 0-.512.137m.65.375a.375.375 0 0 0-.138-.512m-.375.649a.375.375 0 0 0 .513-.137M10.5 8.25V.75l3 7.5V.75m0 15H12a1.5 1.5 0 0 0-1.5 1.5c0 2.25 3 2.25 3 4.5a1.5 1.5 0 0 1-1.5 1.5h-1.5"/></svg>