<svg xmlns="http://www.w3.org/2000/svg" viewBox="0 0 24 24" width="24" height="24"><defs><style>.a{fill:none;stroke:#000;stroke-linecap:round;stroke-linejoin:round;stroke-width:1.5px}</style></defs><title>science-apple-newton</title><circle class="a" cx="11.57" cy="15.25" r="3"/><path class="a" d="M5.75 23.269a7.5 7.5 0 0 1 11.643 0M12.562 8.781c.871.244 1.789-.82 2-2.135s-.348-2.493-1.242-2.63a1.257 1.257 0 0 0-.846.188 1.678 1.678 0 0 1-1.771 0 1.257 1.257 0 0 0-.846-.188c-.894.137-1.45 1.314-1.241 2.63s1.1 2.271 2 2.135a5.437 5.437 0 0 1 .976-.18 3.05 3.05 0 0 1 .97.18zm-.361-6.58L13.402 1"/></svg>