<svg xmlns="http://www.w3.org/2000/svg" viewBox="0 0 24 24" width="24" height="24"><defs><style>.a{fill:none;stroke:#000;stroke-linecap:round;stroke-linejoin:round;stroke-width:1.5px}</style></defs><title>science-physics-law_1</title><path class="a" d="M.75.75h22.5M12 4.616a4.6 4.6 0 0 1-1.5 8.915A4.6 4.6 0 0 1 9 4.616M6 9.074v8.176m8.614-10.17l8.636 11.67"/><rect class="a" x="2.25" y="17.25" width="7.5" height="6" rx="1" ry="1"/><path class="a" d="M23.25 15.75v3h-3M9 .75h3v8a1 1 0 0 1-1 1h-1a1 1 0 0 1-1-1v-8zM2.646 22.765l6.708-5.03"/></svg>