<svg xmlns="http://www.w3.org/2000/svg" viewBox="0 0 24 24" width="24" height="24"><defs><style>.a{fill:none;stroke:#000;stroke-linecap:round;stroke-linejoin:round;stroke-width:1.5px}</style></defs><title>science-fiction-weapon</title><path class="a" d="M23.25 19.5l-3-10.5c0-2.133-2.473-3.919-5.792-4.383a1.5 1.5 0 0 0-1.708 1.488v5.788a1.5 1.5 0 0 0 1.712 1.487 10.689 10.689 0 0 0 2.365-.611L18.75 19.5zm-6 0h1.5"/><circle class="a" cx="2.25" cy="9" r="1.5"/><path class="a" d="M3.75 9h9m-3-3v6m-3-4.5v3m6 5.25A2.25 2.25 0 0 0 15 13.5v-.21"/></svg>