<svg xmlns="http://www.w3.org/2000/svg" viewBox="0 0 24 24" width="24" height="24"><defs><style>.a{fill:none;stroke:#000;stroke-linecap:round;stroke-linejoin:round;stroke-width:1.5px}</style></defs><title>science-electricity</title><path class="a" d="M6 9.75h-.75m18 1.5v-1.5h-1.5m-3.75 0h.75m-18 1.5v-1.5h1.5M3 19.5h3M4.5 18v3m6.75.75h1.5m-.75-9v1.5m4.891-8.609a4.891 4.891 0 1 0-6.391 4.633v.976a1.5 1.5 0 0 0 1.5 1.5 1.5 1.5 0 0 0 1.5-1.5v-.976a4.874 4.874 0 0 0 3.391-4.633z"/><circle class="a" cx="4.5" cy="19.5" r="3.75"/><path class="a" d="M18 19.5h3"/><circle class="a" cx="19.5" cy="19.5" r="3.75"/><path class="a" d="M.75 15v-.75m22.5.75v-.75"/></svg>