<svg xmlns="http://www.w3.org/2000/svg" viewBox="0 0 24 24" width="24" height="24"><defs><style>.a{fill:none;stroke:#000;stroke-linecap:round;stroke-linejoin:round;stroke-width:1.5px}</style></defs><title>science-physics-law</title><path class="a" d="M16.5 15a3 3 0 0 0-3 3v1.5a3 3 0 0 0 3 3m-6 0V15l-2.25 3.75L6 15v7.5M4.5 9H3a1.5 1.5 0 0 1-1.5-1.5V3A1.5 1.5 0 0 1 3 1.5h1.5M1.5 6h3m15 3A1.5 1.5 0 0 1 21 7.5 1.5 1.5 0 0 1 22.5 9a2.139 2.139 0 0 1-.468 1.336L19.5 13.5h3m-14.25-9H12m-3.75 3H12"/></svg>