<svg xmlns="http://www.w3.org/2000/svg" viewBox="0 0 24 24" width="24" height="24"><defs><style>.a{fill:none;stroke:#000;stroke-linecap:round;stroke-linejoin:round;stroke-width:1.5px}</style></defs><title>science-cells</title><path class="a" d="M3 12.75v-1.5M7.5 21L6 20.25m0-16.5L7.5 3m6.228 19.615a1.828 1.828 0 0 1-1.383.635 1.875 1.875 0 0 1 0-3.75 1.828 1.828 0 0 1 1.38.631m.003-16.266a1.828 1.828 0 0 1-1.383.635A1.86 1.86 0 0 1 10.5 2.625 1.86 1.86 0 0 1 12.345.75a1.828 1.828 0 0 1 1.38.631M4.728 8.365A1.828 1.828 0 0 1 3.345 9a1.875 1.875 0 0 1 0-3.75 1.828 1.828 0 0 1 1.38.631m.003 12.234a1.828 1.828 0 0 1-1.383.635 1.875 1.875 0 0 1 0-3.75 1.828 1.828 0 0 1 1.38.631M21 12.75v-1.5M16.5 21l1.5-.75m0-16.5L16.5 3m6 5.365A1.83 1.83 0 0 1 21.116 9a1.875 1.875 0 0 1 0-3.75 1.828 1.828 0 0 1 1.38.631m.004 12.234a1.83 1.83 0 0 1-1.384.635 1.875 1.875 0 0 1 0-3.75 1.828 1.828 0 0 1 1.38.631"/></svg>