<svg xmlns="http://www.w3.org/2000/svg" viewBox="0 0 24 24" width="24" height="24"><defs><style>.a{fill:none;stroke:#000;stroke-linecap:round;stroke-linejoin:round;stroke-width:1.5px}</style></defs><title>science-projection</title><path class="a" d="M20.78 22.75H3.22a.941.941 0 0 1-.907-1.267l.487-1.266A1.938 1.938 0 0 1 4.619 19h14.762a1.938 1.938 0 0 1 1.819 1.217l.491 1.266a.941.941 0 0 1-.911 1.267z"/><circle class="a" cx="12" cy="7.75" r="6.75"/><path class="a" d="M18.087 19L23.25 6.609M5.707 19L.75 6.609M13.5 19v3.75m3-3.75v3.75M6.387 4H9.75m4.5 0h3.363M15 7.75h3m-9 0h3m-6.048 3H9m3.75 0h3"/></svg>