<svg xmlns="http://www.w3.org/2000/svg" viewBox="0 0 24 24" width="24" height="24"><defs><style>.a{fill:none;stroke:#000;stroke-linecap:round;stroke-linejoin:round;stroke-width:1.5px}</style></defs><title>science-fiction-robot</title><path class="a" d="M.75 16.5a1.5 1.5 0 0 1 3 0M2.25 15V9.75a3 3 0 0 1 3-3h1.5m16.5 9.75a1.5 1.5 0 0 0-3 0"/><path class="a" d="M21.75 15V9.75a3 3 0 0 0-3-3h-1.5m0 0a10.886 10.886 0 0 1 .75 4.5 14.012 14.012 0 0 1-.372 3.363 1.5 1.5 0 0 1-1.456 1.137H7.828a1.5 1.5 0 0 1-1.456-1.137A14.012 14.012 0 0 1 6 11.25a10.886 10.886 0 0 1 .75-4.5z"/><path class="a" d="M10.5 15.75v6.75a.75.75 0 0 1-.75.75H7.5v-7.536M5.25 23.25H7.5m6-7.5v6.75a.75.75 0 0 0 .75.75h2.25v-7.536m2.25 7.536H16.5M12 .75a3 3 0 0 0-3 3v3h6v-3a3 3 0 0 0-3-3zm2.625 9a.375.375 0 0 1 .375.375m-.75 0a.375.375 0 0 1 .375-.375m0 .75a.375.375 0 0 1-.375-.375m.75 0a.375.375 0 0 1-.375.375M9 10.5h2.25"/></svg>