<svg xmlns="http://www.w3.org/2000/svg" viewBox="0 0 24 24" width="24" height="24"><defs><style>.a{fill:none;stroke:#000;stroke-linecap:round;stroke-linejoin:round;stroke-width:1.5px}</style></defs><title>science-apple-gravity</title><path class="a" d="M3 14.25v5.25M.75 18L3 19.5 5.25 18M21 13.5v5.25m-2.25-1.5l2.25 1.5 2.25-1.5M12 18v5.25m-2.25-1.5l2.25 1.5 2.25-1.5M8 12.359c.819.706-.2.782 1.441 2.193s5.876-.382 7.758-2.566 1.929-5 .291-6.41-1.883-.936-2.429-1.406-.261-1.2-1.9-2.614S8.748.606 6.865 2.79s-2.881 7.057-1.243 8.468 1.562.396 2.378 1.101zm7.061-8.189l1.917-2.453"/></svg>