<svg xmlns="http://www.w3.org/2000/svg" viewBox="0 0 24 24" width="24" height="24"><defs><style>.a{fill:none;stroke:#000;stroke-linecap:round;stroke-linejoin:round;stroke-width:1.5px}</style></defs><title>science-fiction-ship</title><path class="a" d="M6 8.252h12m-6-4.127a.375.375 0 0 1 .375.375m-.75 0A.375.375 0 0 1 12 4.125m0 .75a.375.375 0 0 1-.375-.375m.75 0a.375.375 0 0 1-.375.375M9 11.25h6"/><circle class="a" cx="10.5" cy="15.75" r="1.5"/><path class="a" d="M15 23.25H9l.75-3h4.5l.75 3zm3-16.5a6 6 0 0 0-12 0v13.5h12zm0 16.5h4.5v-10.5a4.5 4.5 0 0 0-4.5-4.5zm4.5-3H18m-12 3H1.5v-10.5A4.5 4.5 0 0 1 6 8.25zm-4.5-3H6"/></svg>