<svg xmlns="http://www.w3.org/2000/svg" viewBox="0 0 24 24" width="24" height="24"><defs><style>.a{fill:none;stroke:#000;stroke-linecap:round;stroke-linejoin:round;stroke-width:1.5px}</style></defs><title>science-neurons</title><circle class="a" cx="12" cy="5.285" r="2.25"/><circle class="a" cx="18" cy="8.25" r="2.25"/><circle class="a" cx="18" cy="15.75" r="2.25"/><circle class="a" cx="6" cy="8.25" r="2.25"/><circle class="a" cx="6" cy="15.75" r="2.25"/><circle class="a" cx="12" cy="18.75" r="2.25"/><path class="a" d="M.75 3.75a1.5 1.5 0 0 1 0 3m7.263.494l1.96-.981m4.054 0l1.96.981m-7.974 9.512l1.974.988m4.026 0l1.974-.988M6 10.5v3m6 7.5v2.25m0-22.5v2.285m6 7.465v3M4.02 7.18L2.102 5.901M.75 20.25a1.5 1.5 0 0 0 0-3m3.27-.43l-1.918 1.279M23.25 3.75a1.5 1.5 0 0 0 0 3m-3.27.43l1.918-1.279M23.25 20.25a1.5 1.5 0 0 1 0-3m-3.27-.43l1.918 1.279"/></svg>