<svg xmlns="http://www.w3.org/2000/svg" viewBox="0 0 24 24" width="24" height="24"><defs><style>.a{fill:none;stroke:#000;stroke-linecap:round;stroke-linejoin:round;stroke-width:1.5px}</style></defs><title>science-elecricity-power</title><path class="a" d="M4.75 20.25h14.5a1 1 0 0 1 1 1v1.5a.5.5 0 0 1-.5.5H4.25a.5.5 0 0 1-.5-.5v-1.5a1 1 0 0 1 1-1zm5.75-10.5h3m-3-3h3m-3 6h3m-3 3h3m-3.75 4.5l-2.25-3M6 4.5L.854 9.86a.378.378 0 0 0 .251.64H3V15l5.147-5.36A.378.378 0 0 0 7.9 9H6zm15 0l-5.146 5.36a.378.378 0 0 0 .251.64H18V15l5.147-5.36A.378.378 0 0 0 22.9 9H21zm-6.75 15.75l2.25-3M18 .75a1.5 1.5 0 0 1-1.5 1.5h-9A1.5 1.5 0 0 1 6 .75"/></svg>