<svg xmlns="http://www.w3.org/2000/svg" viewBox="0 0 24 24" width="24" height="24"><defs><style>.a{fill:none;stroke:#000;stroke-linecap:round;stroke-linejoin:round;stroke-width:1.5px}</style></defs><title>science-dna</title><path class="a" d="M23.024 9.211l-2.652 2.652a6 6 0 0 1-8.485-8.485L14.538.726"/><path class="a" d="M9.235 23l2.652-2.652A6 6 0 0 0 3.4 11.863L.75 14.515m21.743-4.773l-8.485-8.486m6.364 10.607l-8.485-8.485m2.651 6.894l-4.205-4.205"/><path class="a" d="M.75 14.515l2.65-2.652a6 6 0 0 1 8.485 8.485L9.235 23M1.28 13.984l8.486 8.486M3.402 11.863l8.485 8.485m-2.652-6.894l4.205 4.205"/></svg>