<svg xmlns="http://www.w3.org/2000/svg" viewBox="0 0 24 24" width="24" height="24"><defs><style>.a{fill:none;stroke:#000;stroke-linecap:round;stroke-linejoin:round;stroke-width:1.5px}</style></defs><title>scooter-sport</title><circle class="a" cx="20.25" cy="19" r="3"/><path class="a" d="M17.88 7.386L2.25 8.5a1.5 1.5 0 0 0 0 3h1.74a6 6 0 0 1 4.556 2.1l2.254 2.626a1.5 1.5 0 0 0 1.139.524h1.607a1.5 1.5 0 0 0 1.153-.54l2.026-2.431A4.249 4.249 0 0 1 23 13.5l.255.255"/><circle class="a" cx="3.75" cy="19" r="3"/><path class="a" d="M20.25 19L17.126 3.691A1.5 1.5 0 0 0 15.658 2.5h-1.783M3.75 19l5.739-4.304m4.761-7.051V10a1.5 1.5 0 0 1-1.5 1.5h-1.629a1.5 1.5 0 0 1-1.06-.439l-2.91-2.91M22.125 9.25a1.875 1.875 0 0 1 0-3.75h.75v3.75z"/></svg>