<svg xmlns="http://www.w3.org/2000/svg" viewBox="0 0 24 24" width="24" height="24"><defs><style>.a{fill:none;stroke:#000;stroke-linecap:round;stroke-linejoin:round;stroke-width:1.5px}</style></defs><title>screwdriver</title><path class="a" d="M12.233 13.887l-2.121-2.121a1.5 1.5 0 0 0-2.122 0L1.627 18.13a3 3 0 0 0 4.242 4.242l6.364-6.364a1.5 1.5 0 0 0 0-2.121zm6.796-12.432a1.58 1.58 0 0 1 2.432-.241l1.324 1.324a1.58 1.58 0 0 1-.241 2.432l-2.472 1.649a1.941 1.941 0 0 1-2.692-2.692zm-1.406 4.921l-6.451 6.451"/></svg>