<svg xmlns="http://www.w3.org/2000/svg" viewBox="0 0 24 24" width="24" height="24"><defs><style>.a{fill:none;stroke:#000;stroke-linecap:round;stroke-linejoin:round;stroke-width:1.5px}</style></defs><title>screen-curved</title><path class="a" d="M14.764 17.262l.983 4.4h-7.5l.983-4.4m-3.233 4.4h12"/><path class="a" d="M23.247 17.7a.743.743 0 0 1-.915.731A46.446 46.446 0 0 0 12 17.162a46.446 46.446 0 0 0-10.338 1.265.743.743 0 0 1-.915-.727V3.127a.743.743 0 0 1 .915-.727A46.432 46.432 0 0 0 12 3.662 46.432 46.432 0 0 0 22.332 2.4a.743.743 0 0 1 .915.731z"/></svg>