<svg xmlns="http://www.w3.org/2000/svg" viewBox="0 0 24 24" width="24" height="24"><g fill="none" stroke="#000" stroke-linecap="round" stroke-linejoin="round" stroke-miterlimit="10"><path d="M3 3C3 1.619 4.118.5 5.5.5h2v3c0 1.104-.395 2-1.5 2H4.5A1.5 1.5 0 013 4V3zm9 0A2.5 2.5 0 009.5.5h-2v3c0 1.104.395 2 1.5 2h1.5A1.5 1.5 0 0012 4V3zm-9.5-.5v1m10-1v1"/><circle cx="7" cy="9" r="1.5"/><path d="M23.5 22a1.5 1.5 0 01-1.5 1.5h-3a1.5 1.5 0 01-1.5-1.5v-9.5a3 3 0 016 0V22z"/><path d="M19.5 7.5h2v2h-2zm-2 14h6m-6-9h6"/><path d="M20.5 7.5c0-1.104-1-2-2-2h-1c-1.5 0-3 .5-3 3.5v7.75c0 4.25-2 6.75-6.25 6.75a6.75 6.75 0 01-6.75-6.75V13a4 4 0 014-4"/></g><path fill="none" d="M0 0h24v24H0z"/></svg>