<svg xmlns="http://www.w3.org/2000/svg" viewBox="0 0 24 24" width="24" height="24"><g fill="none" stroke="#000" stroke-linejoin="round" stroke-miterlimit="10"><path stroke-linecap="round" d="M8 8c0-.553.448-.5 1-.5.553 0 1-.053 1 .5m4 0c0-.553.448-.5 1-.5.553 0 1-.053 1 .5m-6.683 6.354l-6.222 1.838A4 4 0 00.5 19.938V23.5h23v-3.469c0-1.668-1.034-3.254-2.596-3.84l-6.222-1.838M17 5.564C17 2.803 14.761.5 12 .5S7 2.802 7 5.563"/><path d="M12 5.5H7.5a2 2 0 00-2 2v1.774c0 1.23 1.271 2.226 2.5 2.226 1.684 0 3.5-1 4-3.5.5 2.5 2.379 3.5 4 3.5 1.229 0 2.5-.996 2.5-2.226V7.5a2 2 0 00-2-2H12z"/><circle stroke-linecap="round" cx="12" cy="14.5" r="2.5"/><path stroke-linecap="round" d="M7.11 11.352c.326 1.336 1.328 2.404 2.393 3.117m4.994 0c1.064-.713 2.067-1.781 2.393-3.117"/><path d="M17.495 15.185C17.377 17.583 14.962 19.5 12 19.5s-5.377-1.917-5.495-4.315"/><path stroke-linecap="round" d="M9.035 14.438C7.328 14.188 1.5 13.142 1.5 10.5c0-1.657 1.343-2 3-2h1"/><circle stroke-linecap="round" cx="19.5" cy="12.5" r="1"/><circle stroke-linecap="round" cx="21" cy="8.5" r=".5"/><circle stroke-linecap="round" cx="22" cy="4.5" r=".5"/></g><path fill="none" d="M0 0h24v24H0z"/></svg>