<svg xmlns="http://www.w3.org/2000/svg" viewBox="0 0 24 24" width="24" height="24"><g fill="none" stroke="#000" stroke-linejoin="round" stroke-miterlimit="10"><path d="M22.375 16.418l1.072-.619-1.5-2.598-1.081.623A4.975 4.975 0 0019 12.754V11.5h-3v1.254a4.988 4.988 0 00-1.866 1.07l-1.081-.623-1.5 2.598 1.072.619a4.754 4.754 0 000 2.165l-1.07.618 1.5 2.598 1.079-.623c.53.485 1.164.848 1.866 1.07V23.5h3v-1.254a4.988 4.988 0 001.866-1.07l1.079.623 1.5-2.598-1.07-.618a4.754 4.754 0 000-2.165z"/><circle cx="17.5" cy="17.5" r="2"/></g><path d="M17.5 8.917V5.5l-5-5H.5v9h1v3h-1v11h9.457M4.5 3.5v5m3-5v5m3-5v5m3-3v4" fill="none" stroke="#000" stroke-linecap="round" stroke-linejoin="round" stroke-miterlimit="10"/><path fill="none" d="M0 0h24v24H0z"/></svg>