<svg xmlns="http://www.w3.org/2000/svg" viewBox="0 0 24 24" width="24" height="24"><defs><style>.a{fill:none;stroke:#000;stroke-linecap:round;stroke-linejoin:round;stroke-width:1.5px}</style></defs><title>sd-card-warning</title><path class="a" d="M8.25 23.25h-6a1.5 1.5 0 0 1-1.5-1.5v-10.5h1.5v-3H.75v-6a1.5 1.5 0 0 1 1.5-1.5h10.56a1.5 1.5 0 0 1 1.139.524l4.44 4.305a1.5 1.5 0 0 1 .361.976V9m-12-5.25v3m4.5-3v3"/><path class="a" d="M15.354 13.29l-3.676 6.617a2.25 2.25 0 0 0 1.967 3.343H21a2.25 2.25 0 0 0 1.967-3.343l-3.68-6.617a2.249 2.249 0 0 0-3.933 0zm1.896 2.46V18"/><path class="a" d="M17.321 19.875a.375.375 0 1 0 .375.375.375.375 0 0 0-.375-.375"/></svg>