<svg xmlns="http://www.w3.org/2000/svg" viewBox="0 0 24 24" width="24" height="24"><defs><style>.a{fill:none;stroke:#000;stroke-linecap:round;stroke-linejoin:round;stroke-width:1.5px}</style></defs><title>sd-card-sync</title><path class="a" d="M8.25 23.25h-6a1.5 1.5 0 0 1-1.5-1.5v-10.5h1.5v-3H.75v-6a1.5 1.5 0 0 1 1.5-1.5h10.56a1.5 1.5 0 0 1 1.139.524l4.44 4.305a1.5 1.5 0 0 1 .361.976v1.7m-12-4.505v3m4.5-3v3"/><path class="a" d="M15 18.75h-3.75v3.75m11.417-3.017a5.572 5.572 0 0 1-10.74-.733m7.573-3h3.75V12m-11.417 3.017a5.572 5.572 0 0 1 10.74.733"/></svg>