<svg xmlns="http://www.w3.org/2000/svg" viewBox="0 0 24 24" width="24" height="24"><defs><style>.a{fill:none;stroke:#000;stroke-linecap:round;stroke-linejoin:round;stroke-width:1.5px}</style></defs><title>sd-card-settings</title><path class="a" d="M9.75 23.25h-7.5a1.5 1.5 0 0 1-1.5-1.5v-10.5h1.5v-3H.75v-6a1.5 1.5 0 0 1 1.5-1.5h10.56a1.5 1.5 0 0 1 1.139.524l4.44 4.305a1.5 1.5 0 0 1 .361.976v.2m-12-3.005v3m4.5-3v3"/><circle class="a" cx="17.25" cy="16.5" r="1.5"/><path class="a" d="M18.524 10.7l.442 1.453a.994.994 0 0 0 1.174.681l1.472-.341a1.339 1.339 0 0 1 1.275 2.218l-1.031 1.111a1 1 0 0 0 0 1.362l1.031 1.111a1.339 1.339 0 0 1-1.275 2.218l-1.472-.341a.994.994 0 0 0-1.174.681l-.442 1.447a1.33 1.33 0 0 1-2.548 0l-.442-1.453a.994.994 0 0 0-1.174-.681l-1.472.341a1.339 1.339 0 0 1-1.275-2.218l1.031-1.111a1 1 0 0 0 0-1.362l-1.031-1.111a1.339 1.339 0 0 1 1.275-2.218l1.472.341a.994.994 0 0 0 1.174-.681l.442-1.453a1.33 1.33 0 0 1 2.548.006z"/></svg>