<svg xmlns="http://www.w3.org/2000/svg" viewBox="0 0 24 24" width="24" height="24"><defs><style>.a{fill:none;stroke:#000;stroke-linecap:round;stroke-linejoin:round;stroke-width:1.5px}</style></defs><title>sea-transport-small-boat</title><path class="a" d="M.75 20.263a5.511 5.511 0 0 0 4.5-1.5 4.547 4.547 0 0 0 6.75 0 4.547 4.547 0 0 0 6.75 0 5.511 5.511 0 0 0 4.5 1.5m-21-3v-1.5a1.5 1.5 0 0 1 1.5-1.5H22.5a.751.751 0 0 1 .631 1.156l-1.024 1.592M5.25 14.263v-3a1.5 1.5 0 0 0-1.5-1.5 1.5 1.5 0 0 1 0-3h7.582a1.5 1.5 0 0 1 1.115.5l6.3 7m-8.997-7.5l-3-3.75m7.95 6.75H9.75"/></svg>