<svg xmlns="http://www.w3.org/2000/svg" viewBox="0 0 24 24" width="24" height="24"><defs><style>.a{fill:none;stroke:#000;stroke-linecap:round;stroke-linejoin:round;stroke-width:1.5px}</style></defs><title>sea-transport-ship</title><path class="a" d="M.75 23.263a5.511 5.511 0 0 0 4.5-1.5 4.547 4.547 0 0 0 6.75 0 4.547 4.547 0 0 0 6.75 0 5.511 5.511 0 0 0 4.5 1.5m-.771-2.399a7.963 7.963 0 0 0 .768-2.783.75.75 0 0 0-.747-.818h-21a.75.75 0 0 0-.747.818 8.07 8.07 0 0 0 .62 2.465"/><path class="a" d="M19.664 12.577a1.5 1.5 0 0 0-1.488-1.314H5.824a1.5 1.5 0 0 0-1.488 1.314l-.586 4.686h16.5zM6.75 14.263h1.5m7.5 0h1.5m-6 0h1.5m-5.5-7.5h2a.5.5 0 0 1 .5.5v4h-3v-4a.5.5 0 0 1 .5-.5zm10 4.5h-3v-4a.5.5 0 0 1 .5-.5h2a.5.5 0 0 1 .5.5v4zm-9-7.5c0-1.5 3-1.5 3-3m4.5 3c0-1.5 3-1.5 3-3"/></svg>