<svg xmlns="http://www.w3.org/2000/svg" viewBox="0 0 24 24" width="24" height="24"><g fill="none" stroke="#000" stroke-linecap="round" stroke-linejoin="round" stroke-miterlimit="10"><path d="M23.493 21.521C21.042 22.042 19 19.5 19 19.5s-1.166 2-3.5 2c-2.435 0-3.5-2-3.5-2s-1.065 2-3.5 2c-2.334 0-3.5-2-3.5-2s-2.049 2.521-4.5 2m6.475-6.29A4.741 4.741 0 015 13.5S2.958 16.042.507 15.521m22.997-.042C21 16 19.444 13.5 19.444 13.5h-.003s-1.137 1.973-3.473 2.053M11.5 1.5v12m0-10h5m-5 3h5m-5 3h5"/><circle cx="11.5" cy="15.5" r="2"/></g><path fill="none" d="M0 0h24v24H0z"/></svg>