<svg xmlns="http://www.w3.org/2000/svg" viewBox="0 0 24 24" width="24" height="24"><defs><style>.a{fill:none;stroke:#000;stroke-linecap:round;stroke-linejoin:round;stroke-width:1.5px}</style></defs><title>sea-transport-bark-1</title><path class="a" d="M4.291 20.263c-2.1 0-3.1-2.205-3.507-3.528a.749.749 0 0 1 .716-.972h21a.752.752 0 0 1 .717.972c-.41 1.323-1.407 3.528-3.508 3.528zm.959 3l3-4.5m1.5 4.5l3-4.5m1.5 4.5l3-4.5m-4.5-3v-3m6 0H6a.75.75 0 0 1-.577-1.229 7.249 7.249 0 0 0 1.568-4.771 7.254 7.254 0 0 0-1.568-4.772A.749.749 0 0 1 6 .763h12.75s3 .75 3 6-3 6-3 6z"/></svg>