<svg xmlns="http://www.w3.org/2000/svg" viewBox="0 0 24 24" width="24" height="24"><defs><style>.a{fill:none;stroke:#000;stroke-linecap:round;stroke-linejoin:round;stroke-width:1.5px}</style></defs><title>sea-transport-sailing-boat</title><path class="a" d="M.75 23.263a5.511 5.511 0 0 0 4.5-1.5 4.547 4.547 0 0 0 6.75 0 4.547 4.547 0 0 0 6.75 0 5.511 5.511 0 0 0 4.5 1.5m-1.493-2.992a6.228 6.228 0 0 0 1.429-1.954.75.75 0 0 0-.686-1.054h-21a.75.75 0 0 0-.686 1.054A6.455 6.455 0 0 0 2.6 20.591"/><path class="a" d="M11.25 17.263V2.03a1.267 1.267 0 0 0-2.284-.756L2.271 11.6a.75.75 0 0 0 .629 1.161l8.348-.012m4.383-6.838a.75.75 0 0 0-1.381.406v7.946h5.376a.751.751 0 0 0 .631-1.156z"/></svg>