<svg xmlns="http://www.w3.org/2000/svg" viewBox="0 0 24 24" width="24" height="24"><defs><style>.a{fill:none;stroke:#000;stroke-linecap:round;stroke-linejoin:round;stroke-width:1.5px}</style></defs><title>sea-transport-yacht</title><path class="a" d="M.756 20.513a3.3 3.3 0 0 0 2.8-1.568 3.315 3.315 0 0 0 5.631 0A3.3 3.3 0 0 0 12 20.513c1.46 0 3.871-2.216 5.381-3.769a.746.746 0 0 1 1.275.423c.1.927.477 1.846 1.591 1.846a3.344 3.344 0 0 0 3-2.25m-11.997 0L7.8 15.9a6 6 0 0 1-3.81-2.947L.75 7.013l22.5 4.5M6.107 8.084l5.143-2.571 9.75 1.5"/><path class="a" d="M19.5 10.763l1.5-3.75L22.568 4.4a.749.749 0 0 0-.643-1.136H19.5l-3.69 2.951"/></svg>