<svg xmlns="http://www.w3.org/2000/svg" viewBox="0 0 24 24" width="24" height="24"><defs><style>.a{fill:none;stroke:#000;stroke-linecap:round;stroke-linejoin:round;stroke-width:1.5px}</style></defs><title>sea-transport-ship-cargo-birds</title><path class="a" d="M.75 21.013a5.508 5.508 0 0 0 4.5-1.5 4.547 4.547 0 0 0 6.75 0 4.547 4.547 0 0 0 6.75 0 5.511 5.511 0 0 0 4.5 1.5m-.72-2.506a8.008 8.008 0 0 0 .716-2.676.75.75 0 0 0-.747-.818H1.5a.75.75 0 0 0-.747.818 8.011 8.011 0 0 0 .7 2.631"/><path class="a" d="M21.749 15.013h-6v-6a1.5 1.5 0 0 1 1.5-1.5h1.5a3 3 0 0 1 3 3zm-6-4.5h3m-6 4.5v-9a3 3 0 0 0-3-3H2.25m1 9h4a1 1 0 0 1 1 1v2h-6v-2a1 1 0 0 1 1-1zm1.999-9v1.5m0 3v1.5"/></svg>