<svg xmlns="http://www.w3.org/2000/svg" viewBox="0 0 24 24" width="24" height="24"><defs><style>.a{fill:none;stroke:#000;stroke-linecap:round;stroke-linejoin:round;stroke-width:1.5px}</style></defs><title>sea-transport-submarine</title><path class="a" d="M.937 17.263H23.25m-1.5-3v6m-9-10.5h-6a6 6 0 0 0 0 12h6a6 6 0 0 0 0-12zM6 13.138a.375.375 0 0 1 .375.375m-.75 0A.375.375 0 0 1 6 13.138m0 .75a.375.375 0 0 1-.375-.375m.75 0a.375.375 0 0 1-.375.375m3.75-.75a.375.375 0 0 1 .375.375m-.75 0a.375.375 0 0 1 .375-.375m0 .75a.375.375 0 0 1-.375-.375m.75 0a.375.375 0 0 1-.375.375m3.75-.75a.375.375 0 0 1 .375.375m-.75 0a.375.375 0 0 1 .375-.375m0 .75a.375.375 0 0 1-.375-.375m.75 0a.375.375 0 0 1-.375.375M7.75 6.763h2.5a1 1 0 0 1 1 1v2h-4.5v-2a1 1 0 0 1 1-1zm-2.5-4.5h1.5a1.5 1.5 0 0 1 1.5 1.5v3"/></svg>