<svg xmlns="http://www.w3.org/2000/svg" viewBox="0 0 24 24" width="24" height="24"><defs><style>.a{fill:none;stroke:#000;stroke-linecap:round;stroke-linejoin:round;stroke-width:1.5px}</style></defs><title>sea-transport-bark</title><path class="a" d="M18.477 19.492a.751.751 0 0 0-.465-.975l-6.012-2-6.012 2a.751.751 0 0 0-.465.975m17.727 3.771a5.511 5.511 0 0 1-4.5-1.5 4.547 4.547 0 0 1-6.75 0 4.547 4.547 0 0 1-6.75 0 5.511 5.511 0 0 1-4.5 1.5M12 16.513v-2.25m0-13.5v1.5m10.5 0h-21m18.75 0l2.25 10.5s-2.25 1.5-10.5 1.5-10.5-1.5-10.5-1.5l2.25-10.5"/></svg>