<svg xmlns="http://www.w3.org/2000/svg" viewBox="0 0 24 24" width="24" height="24"><defs><style>.a{fill:none;stroke:#000;stroke-linecap:round;stroke-linejoin:round;stroke-width:1.5px}</style></defs><title>sea-transport-buoy-1</title><path class="a" d="M.75 22.263A3.307 3.307 0 0 0 3.565 20.7a3.308 3.308 0 0 0 5.621 0 3.315 3.315 0 0 0 5.628 0 3.308 3.308 0 0 0 5.621 0 3.307 3.307 0 0 0 2.815 1.563m-15.394-3.85L8.973 14a3 3 0 0 1 3.644-2.173l2.909.735A3 3 0 0 1 17.7 16.2l-.575 2.277m-3.054-6.285l2.575-10.179L21 6.209l-5.641.894m-.552 2.181l2.908.736"/></svg>