<svg xmlns="http://www.w3.org/2000/svg" viewBox="0 0 24 24" width="24" height="24"><defs><style>.a{fill:none;stroke:#000;stroke-linecap:round;stroke-linejoin:round;stroke-width:1.5px}</style></defs><title>sea-transport-buoy</title><path class="a" d="M.75 22.263a5.511 5.511 0 0 0 4.5-1.5 4.547 4.547 0 0 0 6.75 0 4.547 4.547 0 0 0 6.75 0 5.511 5.511 0 0 0 4.5 1.5"/><circle class="a" cx="12" cy="14.763" r="3"/><path class="a" d="M12 11.763v-10.5m0 1.5h6m-6 3h6m5.25 12a5.511 5.511 0 0 1-4.5-1.5 5.454 5.454 0 0 1-1.277.962m-10.946 0a5.454 5.454 0 0 1-1.277-.962 5.511 5.511 0 0 1-4.5 1.5"/></svg>