<svg xmlns="http://www.w3.org/2000/svg" viewBox="0 0 24 24" width="24" height="24"><defs><style>.a{fill:none;stroke:#000;stroke-linecap:round;stroke-linejoin:round;stroke-width:1.5px}</style></defs><title>sea-transport-kayak</title><path class="a" d="M.75 20.279a5.511 5.511 0 0 0 4.5-1.5 4.547 4.547 0 0 0 6.75 0 4.547 4.547 0 0 0 6.75 0 5.511 5.511 0 0 0 4.5 1.5m-22.5-3.75a5.511 5.511 0 0 0 4.5-1.5 4.547 4.547 0 0 0 6.75 0 4.547 4.547 0 0 0 6.75 0 5.511 5.511 0 0 0 4.5 1.5M1.631 13.441A5.251 5.251 0 0 1 6 5.279a.75.75 0 0 1 .75.75v2.25a1.5 1.5 0 0 0 .974 1.4M22.7 12.877a5.252 5.252 0 0 0-4.7-7.6.75.75 0 0 0-.75.75v2.25a1.5 1.5 0 0 1-1.5 1.5h-5.663"/><path class="a" d="M9.932 11.718A1.5 1.5 0 1 0 7.811 9.6L6.22 11.188a.749.749 0 0 0 0 1.06l1.06 1.061a.75.75 0 0 0 1.061 0zm0-2.121l5.834-5.834"/></svg>