<svg id="Regular" xmlns="http://www.w3.org/2000/svg" viewBox="0 0 24 24" width="24" height="24"><defs><style>.cls-1{fill:none;stroke:#000;stroke-linecap:round;stroke-linejoin:round;stroke-width:1.5px}</style></defs><title>seafood-crab</title><path class="cls-1" d="M12 12.75v1.5m-3.713-.75l1.05 1.061m6.376-1.061l-1.05 1.061m3.966-3.138a18.464 18.464 0 0 0-13.258 0 1.528 1.528 0 0 0-.9 2.061c1.732 3.907 2.849 5.509 5.614 7.9a1.51 1.51 0 0 0 .978.366h1.872a1.51 1.51 0 0 0 .978-.366c2.765-2.391 3.882-3.993 5.614-7.9a1.528 1.528 0 0 0-.898-2.061z"/><path class="cls-1" d="M18.5 15.669a7.89 7.89 0 0 1 3.718 2.8l.182.277m-5.234-.826a7.481 7.481 0 0 1 3.563 2.8l.183.277m-5.531-.965a8.219 8.219 0 0 1 3.739 2.941l.182.277M5.5 15.669a7.89 7.89 0 0 0-3.718 2.8l-.182.281m5.234-.83a7.481 7.481 0 0 0-3.563 2.8l-.183.28m5.531-.968a8.219 8.219 0 0 0-3.739 2.941l-.18.277m-.176-11.107l-.4-.272A7.028 7.028 0 0 1 1.6 5.25"/><path class="cls-1" d="M5.316 4.5l4.6-1.573a2.41 2.41 0 0 0-.3-.9C8.7.5 6.241.316 4.122 1.614S1.03 5.2 1.949 6.732s3.38 1.714 5.5.416a6.1 6.1 0 0 0 1.046-.828zm14.16 7.643l.4-.272A7.028 7.028 0 0 0 22.4 5.25"/><path class="cls-1" d="M18.684 4.5l-4.6-1.573a2.41 2.41 0 0 1 .3-.9C15.3.5 17.759.316 19.878 1.614S22.97 5.2 22.051 6.732s-3.38 1.714-5.5.416a6.1 6.1 0 0 1-1.047-.828z"/></svg>