<svg id="Regular" xmlns="http://www.w3.org/2000/svg" viewBox="0 0 24 24" width="24" height="24"><defs><style>.cls-1{fill:none;stroke:#000;stroke-linecap:round;stroke-linejoin:round;stroke-width:1.5px}</style></defs><title>seafood-sardine-can-1</title><path class="cls-1" d="M18.75 18v3.75a1.5 1.5 0 0 1-1.5 1.5h-15a1.5 1.5 0 0 1-1.5-1.5V2.25a1.5 1.5 0 0 1 1.5-1.5h15a1.5 1.5 0 0 1 1.5 1.5V7.5"/><path class="cls-1" d="M3.75 10.5A9.907 9.907 0 0 1 5.414 5L6.75 3l1.336 2a9.907 9.907 0 0 1 1.664 5.5"/><path class="cls-1" d="M9.75 10.5A9.907 9.907 0 0 1 11.414 5l1.336-2 1.336 2a9.907 9.907 0 0 1 1.664 5.5m1.5 4.5a2.25 2.25 0 0 0 0-4.5H3"/><path class="cls-1" d="M.75 12.75A2.25 2.25 0 1 1 3 15h14.25m2.25-2.25h2.25a1.5 1.5 0 0 1 0 3"/></svg>