<svg id="Regular" xmlns="http://www.w3.org/2000/svg" viewBox="0 0 24 24" width="24" height="24"><defs><style>.cls-1{fill:none;stroke:#000;stroke-linecap:round;stroke-linejoin:round;stroke-width:1.5px}</style></defs><title>seafood-tuna</title><path class="cls-1" d="M4 7.5s3-3 6-3h13.5A8.934 8.934 0 0 1 22 9c-1.177 1.765-5.25 3-9.75 3C8.426 12 4 7.5 4 7.5zm-3-3l3 3-3 3m16.5-6s-3-3.75-6-3.75V4.5"/><path class="cls-1" d="M6.25 9.75l-.75 4.5L12.25 12m5.625-5.25a.375.375 0 1 1-.375.375.375.375 0 0 1 .375-.375m-5.625 1.5L10 7.5m-4.5 9.75s0 3 4.5 3h13.5v-3H1a7.127 7.127 0 0 0 7.5 6h9v-6"/></svg>