<svg xmlns="http://www.w3.org/2000/svg" viewBox="0 0 24 24" width="24" height="24"><defs><style>.a{fill:none;stroke:#000;stroke-linecap:round;stroke-linejoin:round;stroke-width:1.5px}</style></defs><title>search-bar</title><path class="a" d="M4.125 8.625A.375.375 0 1 0 4.5 9a.374.374 0 0 0-.375-.375m3.75 0A.375.375 0 1 0 8.25 9a.374.374 0 0 0-.375-.375"/><path class="a" d="M21.75 6.75v-1.5a1.5 1.5 0 0 0-1.5-1.5h-18a1.5 1.5 0 0 0-1.5 1.5v6a1.5 1.5 0 0 0 1.5 1.5H7.5"/><circle class="a" cx="15.75" cy="12.75" r="5.25"/><path class="a" d="M23.25 20.25l-3.788-3.788"/></svg>