<svg id="Regular" xmlns="http://www.w3.org/2000/svg" viewBox="0 0 24 24" width="24" height="24"><defs><style>.cls-1{fill:none;stroke:#000;stroke-linecap:round;stroke-linejoin:round;stroke-width:1.5px}</style></defs><title>seasoning-pepper</title><path class="cls-1" d="M5.97 12.915c-4.073 0-5 6.152-5.217 8.963A1.394 1.394 0 0 0 2.26 23.25h7.421a1.393 1.393 0 0 0 1.506-1.372c-.212-2.811-1.143-8.963-5.217-8.963zM15.75.75h3m-1.5 3v-3"/><rect class="cls-1" x="12" y="3.75" width="10.5" height="3" rx="1.5" ry="1.5"/><path class="cls-1" d="M14.25 6.75h6v6h-6z"/><path class="cls-1" d="M14.25 23.25h7.5a1.5 1.5 0 0 0 1.5-1.5v-6a3 3 0 0 0-3-3h-6a2.986 2.986 0 0 0-1.649.494M6 15.75a.375.375 0 1 1-.375.375A.375.375 0 0 1 6 15.75"/></svg>