<svg id="Regular" xmlns="http://www.w3.org/2000/svg" viewBox="0 0 24 24" width="24" height="24"><defs><style>.cls-1{fill:none;stroke:#000;stroke-linecap:round;stroke-linejoin:round;stroke-width:1.5px}</style></defs><title>season-autumn</title><path class="cls-1" d="M14.582 20.754s1.22 2.495 3.27 2.308c4.158-.38 3.88-5.907 5.4-7.859a9.1 9.1 0 0 0-8.265.075c-2.154 1.222-2.306 3.27-.405 5.476zm2.941-2.535s-2.7.335-4.623 5.031m7.126-11.759a10.666 10.666 0 0 0 .911-4.849.479.479 0 0 0-.449-.455 8.318 8.318 0 0 0-6.765 2.428 14.95 14.95 0 0 0-2.487-7.67.479.479 0 0 0-.771 0 14.95 14.95 0 0 0-2.487 7.67 8.318 8.318 0 0 0-6.765-2.428.479.479 0 0 0-.449.455C.688 8.271.587 13.365 6.753 15.01l-2.372 1.355a.479.479 0 0 0 .14.885c1.387.289 3.3 1.247 5.982-.292m0 4.042v-4.042"/></svg>