<svg id="Regular" xmlns="http://www.w3.org/2000/svg" viewBox="0 0 24 24" width="24" height="24"><defs><style>.cls-1{fill:none;stroke:#000;stroke-linecap:round;stroke-linejoin:round;stroke-width:1.5px}</style></defs><title>seasoning-salt</title><path class="cls-1" d="M16.437 8.25H7.563a.813.813 0 0 1-.813-.813V6A5.25 5.25 0 0 1 12 .75 5.25 5.25 0 0 1 17.25 6v1.437a.813.813 0 0 1-.813.813z"/><path class="cls-1" d="M13.875 3.75a.375.375 0 1 1-.375.375.375.375 0 0 1 .375-.375m-3.75 0a.375.375 0 1 1-.375.375.375.375 0 0 1 .375-.375m5.625 4.5h-7.5q-5.814 11.627-.362 14.8a1.533 1.533 0 0 0 .768.2h6.688a1.533 1.533 0 0 0 .768-.2q5.451-3.173-.362-14.8zm-10.27 7.5h13.04m-13.238 3h13.436"/></svg>