<svg id="Regular" xmlns="http://www.w3.org/2000/svg" viewBox="0 0 24 24" width="24" height="24"><defs><style>.cls-1{fill:none;stroke:#000;stroke-linecap:round;stroke-linejoin:round;stroke-width:1.5px}</style></defs><title>season-winter</title><path class="cls-1" d="M14.579 20.379s1.219 2.495 3.27 2.308c4.158-.38 3.88-5.907 5.4-7.859a9.1 9.1 0 0 0-8.265.075c-2.154 1.217-2.307 3.27-.405 5.476zm2.941-2.535s-2.7.335-4.623 5.031M9.75 1.125v18m9-9h-18m6.75 2.25l-2.893 2.893M14.893 4.982L12 7.875M4.607 4.982L7.5 7.875m-.321-6.107L9.75 4.339l2.571-2.571m5.786 5.786l-2.571 2.571M9.75 15.911l-2.571 2.571m-5.786-5.786l2.571-2.571-2.571-2.571"/></svg>