<svg id="Regular" xmlns="http://www.w3.org/2000/svg" viewBox="0 0 24 24" width="24" height="24"><defs><style>.cls-1{fill:none;stroke:#000;stroke-linecap:round;stroke-linejoin:round;stroke-width:1.5px}</style></defs><title>season-summer</title><path class="cls-1" d="M14.579 20.754s1.219 2.495 3.27 2.308c4.158-.38 3.88-5.907 5.4-7.859a9.1 9.1 0 0 0-8.265.075c-2.154 1.216-2.307 3.27-.405 5.476zm2.941-2.535s-2.7.334-4.623 5.031M10.5 18.583a6.751 6.751 0 1 1 8.209-7.333M12 2.25V.75m6.894 4.356l1.061-1.061M5.106 18.895l-1.061 1.06M2.25 12H.75m4.356-6.894L4.045 4.045"/></svg>