<svg id="Regular" xmlns="http://www.w3.org/2000/svg" viewBox="0 0 24 24" width="24" height="24"><defs><style>.cls-1{fill:none;stroke:#000;stroke-linecap:round;stroke-linejoin:round;stroke-width:1.5px}</style></defs><title>seasoning-food</title><path class="cls-1" d="M19.81 13.583a.753.753 0 0 0-.746-.833H2.646a.753.753 0 0 0-.746.833 8.366 8.366 0 0 0 5.474 6.767.751.751 0 0 1 .481.7v1.45a.75.75 0 0 0 .75.75h4.5a.75.75 0 0 0 .75-.75v-1.45a.751.751 0 0 1 .481-.7 8.366 8.366 0 0 0 5.474-6.767zm2.212-9.757a.75.75 0 0 1-.325 1.01l-3.335 1.713a2.25 2.25 0 1 1-2.056-4L19.642.833a.749.749 0 0 1 1.009.325zM10.855 6l.75-.75m0 3.75l.75-.75m2.25 1.5l.75-.75"/></svg>