<svg id="Regular" xmlns="http://www.w3.org/2000/svg" viewBox="0 0 24 24" width="24" height="24"><defs><style>.cls-1{fill:none;stroke:#000;stroke-linecap:round;stroke-linejoin:round;stroke-width:1.5px}</style></defs><title>season-spring</title><path class="cls-1" d="M14.579 20.754s1.219 2.495 3.27 2.308c4.158-.38 3.88-5.907 5.4-7.859a9.1 9.1 0 0 0-8.265.075c-2.154 1.216-2.307 3.27-.405 5.476zm2.941-2.535s-2.7.334-4.623 5.031M5.25 18L1.5 21.75m9-3.75l-3.75 3.75m14.064-11.024a7.047 7.047 0 0 0 .6-2.851 7.188 7.188 0 0 0-14.24-1.332A4.457 4.457 0 1 0 5.242 15h4.771"/></svg>