<svg xmlns="http://www.w3.org/2000/svg" viewBox="0 0 24 24" width="24" height="24"><g fill="none" stroke="#000" stroke-linejoin="round" stroke-miterlimit="10"><path d="M11.813 3.41l-8.485 8.484L.5 9.066 8.985.58zM7.278 13.016a2 2 0 002.828 0l2.829-2.828a2 2 0 000-2.828l-2.536-2.535-5.656 5.655 2.535 2.536z"/><path d="M10.106 8.773l-1.414 1.414L6.864 8.36l1.414-1.415z"/><path stroke-linecap="round" d="M.853.935l3.889 3.889"/><path d="M23.129 16.098l-7.07 7.071-4.95-4.949-.354-2.476 4.951-4.949 2.474.353z"/><path stroke-linecap="round" d="M23.483 23.522l-3.89-3.887M13.23 17.512l4.242-4.242 2.828 2.828-4.242 4.242zM21.51 6.519L15.87.893m1.14 5.626h4.5v-4.5m-20 14.5l6.007 5.963M6.01 16.519h-4.5v4.5"/></g><path fill="none" d="M0 0h24v24H0z"/></svg>