<svg xmlns="http://www.w3.org/2000/svg" viewBox="0 0 24 24" width="24" height="24"><defs><style>.a{fill:none;stroke:#000;stroke-linecap:round;stroke-linejoin:round;stroke-width:1.5px}</style></defs><title>seat-settings</title><path class="a" d="M7.506 2.58A3 3 0 0 0 4.742.75h-2.45A1.506 1.506 0 0 0 .8 2.35L2 20.45a3 3 0 0 0 3 2.8h13.647a3 3 0 0 0 2.9-2.21l.414-1.521a3 3 0 0 0-3.387-3.749l-8.88 1.48A28.884 28.884 0 0 0 7.506 2.58zm8.788.276l2.652 6.894 1.591-2.651 2.652-1.591-6.895-2.652zm6.895 6.894l-2.652-2.651"/></svg>