<svg xmlns="http://www.w3.org/2000/svg" viewBox="0 0 24 24" width="24" height="24"><defs><style>.a{fill:none;stroke:#000;stroke-linecap:round;stroke-linejoin:round;stroke-width:1.5px}</style></defs><title>seat-find</title><circle class="a" cx="5.24" cy="3.559" r="2.625"/><path class="a" d="M.74 15.358a1.5 1.5 0 0 0 .75-1.3 3.007 3.007 0 0 1 2.25-2.9v.5a16.32 16.32 0 0 1-2.748 9.069 1.5 1.5 0 0 0 2.5 1.664A19.388 19.388 0 0 0 5.739 17.8a8.036 8.036 0 0 1 3.329 4.234 1.5 1.5 0 0 0 2.845-.949 11.044 11.044 0 0 0-5.426-6.307 19.381 19.381 0 0 0 .253-3.127v-.026a4.729 4.729 0 0 1 1.453 1.214 5.225 5.225 0 0 0 4.1 1.97 1.5 1.5 0 0 0 0-3 2.236 2.236 0 0 1-1.756-.844A7.7 7.7 0 0 0 4.49 8.059a5.973 5.973 0 0 0-3.75 1.32m15 13.68h5.25m-7.5-15.75l2.25-2.25-2.25-2.25m2.25 2.25h-4.5m10.479 13.746a1.5 1.5 0 0 1-1.479 1.254h-4.5a.75.75 0 0 1-.75-.75v-1.5a.75.75 0 0 1 .75-.75h3.23l1.3-8.373a.75.75 0 0 1 .863-.617l1.48.246a.751.751 0 0 1 .616.863z"/></svg>