<svg xmlns="http://www.w3.org/2000/svg" viewBox="0 0 24 24" width="24" height="24"><defs><style>.a{fill:none;stroke:#000;stroke-linecap:round;stroke-linejoin:round;stroke-width:1.5px}</style></defs><title>security-officer-plant</title><path class="a" d="M15 5.25h1.5v1.5a3 3 0 0 0 6 0v-1.5m-.001 0h-6l-.75-3 7.5.75-.75 2.25zm.752 6.602A4.485 4.485 0 0 0 21 11.25l-1.5 2.25-1.5-2.25h-1.5a1.5 1.5 0 0 0-1.06.439l-5.25 5.25a1.5 1.5 0 0 0 2.12 2.121l4.19-4.189v6.879m-15.751 0h22.5M4.499 7.5v14.25M.749 15s3 0 3.75 2.25M8.249 15s-3 0-3.75 2.25m-3.011-5.179A3.594 3.594 0 0 1 4.5 14.25m3.011-2.179A3.6 3.6 0 0 0 4.5 14.25M2.4 9.3a3.165 3.165 0 0 1 2.1 1.95M6.594 9.3A3.167 3.167 0 0 0 4.5 11.25"/></svg>