<svg xmlns="http://www.w3.org/2000/svg" viewBox="0 0 24 24" width="24" height="24"><defs><style>.a{fill:none;stroke:#000;stroke-linecap:round;stroke-linejoin:round;stroke-width:1.5px}</style></defs><title>security-officer-scanner</title><circle class="a" cx="19.5" cy="7.5" r="2.625"/><path class="a" d="M17.25 21a2.25 2.25 0 0 0 4.5 0v-2.25a1.5 1.5 0 0 0 1.5-1.5V15a3 3 0 0 0-3-3h-1.5a3 3 0 0 0-3 3v2.25a1.5 1.5 0 0 0 1.5 1.5z"/><path class="a" d="M12.75 23.25V3.75a3 3 0 0 1 3-3h7.5M7.125 7.5a2.625 2.625 0 0 1-5.25 0zM2.25 21a2.25 2.25 0 0 0 4.5 0v-2.25a1.5 1.5 0 0 0 1.5-1.5V15a3 3 0 0 0-3-3h-1.5a3 3 0 0 0-3 3v2.25a1.5 1.5 0 0 0 1.5 1.5zM7.125 7.5l1.125-3L4.5 3 .75 4.5l1.125 3m.375 11.25l5.462-5.462"/></svg>