<svg xmlns="http://www.w3.org/2000/svg" viewBox="0 0 24 24" width="24" height="24"><defs><style>.a{fill:none;stroke:#000;stroke-linecap:round;stroke-linejoin:round;stroke-width:1.5px}</style></defs><title>security-officer-passport</title><path class="a" d="M12.75 6.75h1.5v1.5a3 3 0 0 0 6 0v-1.5m0 13.5v-3m0 6v-3a1.5 1.5 0 0 0 3 0v-3a4.5 4.5 0 0 0-4.5-4.5L17.25 15l-1.5-2.25a5.124 5.124 0 0 0-3.438 1.316l-1.5 1.5a1.5 1.5 0 0 1-2.122 0l-2.379-2.377a1.5 1.5 0 0 0-2.122 2.121l2.379 2.379a4.507 4.507 0 0 0 6.364 0l1.318-1.318v6.879m6-16.5h-6l-.75-3 7.5.75-.75 2.25zM.75.75H7.5a.75.75 0 0 1 .75.75v6a.75.75 0 0 1-.75.75H5.25"/><path class="a" d="M5.25 9.286a.75.75 0 0 1-1.085.671l-3-1.5a.751.751 0 0 1-.415-.671V.75l4.085 2.042a.751.751 0 0 1 .415.671z"/></svg>