<svg xmlns="http://www.w3.org/2000/svg" viewBox="0 0 24 24" width="24" height="24"><defs><style>.a{fill:none;stroke:#000;stroke-linecap:round;stroke-linejoin:round;stroke-width:1.5px}</style></defs><title>security-officer-animal</title><path class="a" d="M15 6.75h1.5v1.5a3 3 0 0 0 6 0v-1.5m-.001 0h-6l-.75-3 7.5.75-.75 2.25zm.752 6.603A4.475 4.475 0 0 0 21 12.75L19.5 15 18 12.75h-1.5a1.5 1.5 0 0 0-1.06.439l-5.25 5.25a1.5 1.5 0 0 0 2.121 2.122l4.189-4.19v6.879m-15.751 0h22.5M7.5.75A1.5 1.5 0 0 0 6 2.25v1.5l-4.5 3H6a3 3 0 0 0 3-3v-1.5A1.5 1.5 0 0 0 7.5.75zm-2.251 6v1.5m3.75-6h1.5m-2.999 15a1.5 1.5 0 0 1-1.5 1.5H4.5a1.5 1.5 0 0 1-1.5-1.5 2.25 2.25 0 0 1 4.5 0zm-2.251-5.625a.375.375 0 1 1-.375.375.374.374 0 0 1 .375-.375M1.5 13.875a.375.375 0 1 1-.375.375.374.374 0 0 1 .375-.375m7.5 0a.375.375 0 1 1-.375.375.374.374 0 0 1 .375-.375"/></svg>