<svg xmlns="http://www.w3.org/2000/svg" viewBox="0 0 24 24" width="24" height="24"><defs><style>.a{fill:none;stroke:#000;stroke-linecap:round;stroke-linejoin:round;stroke-width:1.5px}</style></defs><title>security-officer-scanner-beep</title><path class="a" d="M5.25 23.25V6.75a3 3 0 0 1 3-3h7.5a3 3 0 0 1 3 3v16.5m-3-19.5h-7.5v-1.5a1.5 1.5 0 0 1 1.5-1.5h4.5a1.5 1.5 0 0 1 1.5 1.5z"/><circle class="a" cx="12" cy="9" r="2.25"/><path class="a" d="M12 12.75a4.046 4.046 0 0 0-3.75 3.75v3h1.5v3.75h4.5V19.5h1.5v-3A4.046 4.046 0 0 0 12 12.75zm-9 1.5H.75M3 9.75L1.5 9M3 18.75l-1.5.75M21 14.25h2.25M21 9.75L22.5 9M21 18.75l1.5.75"/></svg>