<svg xmlns="http://www.w3.org/2000/svg" viewBox="0 0 24 24" width="24" height="24"><defs><style>.a{fill:none;stroke:#000;stroke-linecap:round;stroke-linejoin:round;stroke-width:1.5px}</style></defs><title>security-officer-luggage-check</title><path class="a" d="M12.75 6.75h1.5v1.5a3 3 0 0 0 6 0v-1.5m0 13.5v-3m-7.318.439l1.318-1.318v6.879"/><path class="a" d="M20.25 23.25v-3a1.5 1.5 0 0 0 3 0v-3a4.5 4.5 0 0 0-4.5-4.5L17.25 15l-1.5-2.25a5.124 5.124 0 0 0-3.438 1.316l-3.247 3.248M20.25 6.75h-6l-.75-3 7.5.75-.75 2.25zm-18 13.5h9v2a1 1 0 0 1-1 1h-7a1 1 0 0 1-1-1v-2zm1.5-7.5v7.5h-1.5a1.5 1.5 0 0 1-1.5-1.5v-6m9-7.5a4.5 4.5 0 1 1-4.5-4.5"/><path class="a" d="M9.75 1.874l-4.1 4.1a.563.563 0 0 1-.8 0L3.563 4.687"/></svg>