<svg xmlns="http://www.w3.org/2000/svg" viewBox="0 0 24 24" width="24" height="24"><defs><style>.a{fill:none;stroke:#000;stroke-linecap:round;stroke-linejoin:round;stroke-width:1.5px}</style></defs><title>segway-person</title><path class="a" d="M20.222 3.193A2.25 2.25 0 1 1 18.174.758a2.249 2.249 0 0 1 2.048 2.435z"/><circle class="a" cx="16.5" cy="19.5" r="3.75"/><path class="a" d="M16.5 19.125a.375.375 0 0 1 .375.375m-.75 0a.375.375 0 0 1 .375-.375m0 .75a.375.375 0 0 1-.375-.375m.75 0a.375.375 0 0 1-.375.375m-1.922-3.595l.71-8.242a2.25 2.25 0 0 1 4.484.386l-.451 5.23-.785 2.7M12 4.5H9m3 3H6.75m5.25 3H3.75"/></svg>