<svg xmlns="http://www.w3.org/2000/svg" viewBox="0 0 24 24" width="24" height="24"><defs><style>.a{fill:none;stroke:#000;stroke-linecap:round;stroke-linejoin:round;stroke-width:1.5px}</style></defs><title>self-payment</title><path class="a" d="M20.878 19.259a.456.456 0 0 1 .122.308v3.2a.5.5 0 0 1-.525.482H3.525A.5.5 0 0 1 3 22.768v-3.2a.456.456 0 0 1 .122-.308l2.346-2.586a.546.546 0 0 1 .4-.173h12.261a.546.546 0 0 1 .4.173zM21 19.5H3m9-6v3m2.829-7.156a2.224 2.224 0 0 0 1.858.875c1.139 0 2.063-.693 2.063-1.547s-.924-1.546-2.063-1.546-2.062-.693-2.062-1.548.924-1.547 2.062-1.547a2.221 2.221 0 0 1 1.858.875m-1.858 5.313v1.031m0-8.25v1.031M6 .75V13.5m4.5 0V.75m-9 4.5h9m-9 4.5h9"/><rect class="a" x="1.5" y=".75" width="21" height="12.75" rx="1" ry="1"/></svg>