<svg xmlns="http://www.w3.org/2000/svg" viewBox="0 0 24 24" width="24" height="24"><defs><style>.a{fill:none;stroke:#000;stroke-linecap:round;stroke-linejoin:round;stroke-width:1.5px}</style></defs><title>send-email-monitor</title><path class="a" d="M13.673 23.25H8.827l.808-4.5h3.231l.807 4.5zm-7.269 0h9.692m-15.346-9h21m0 0v1.5a3 3 0 0 1-3 3h-15a3 3 0 0 1-3-3v-12a3 3 0 0 1 3-3h15a2.99 2.99 0 0 1 1.342.316"/><path class="a" d="M22.244 9.75a1.963 1.963 0 0 1-1.823 1.5h-7.5a1.061 1.061 0 0 1-1.027-1.5l1.418-4.5a2.16 2.16 0 0 1 1.866-1.5h6.965a1.137 1.137 0 0 1 1.07 1.5z"/><path class="a" d="M13.993 4.253l3.428 3.997 5.617-3.996M5.25 11.25h1.5m-1.5-3h3m-3-3h5.25"/></svg>