<svg xmlns="http://www.w3.org/2000/svg" viewBox="0 0 24 24" width="24" height="24"><defs><style>.a{fill:none;stroke:#000;stroke-linecap:round;stroke-linejoin:round;stroke-width:1.5px}</style></defs><title>seo-label</title><path class="a" d="M14.25 23.25L1.05 10.457a1 1 0 0 1-.293-.707l-.007-8a1 1 0 0 1 1-1h8a1 1 0 0 1 .709.294L23.25 13.5"/><path class="a" d="M4.875 4.5a.375.375 0 1 1-.375.375.375.375 0 0 1 .375-.375M19.9 14.421a1.5 1.5 0 0 0-2.121 0L14.593 17.6a1.5 1.5 0 0 0 2.121 2.121l3.186-3.179a1.5 1.5 0 0 0 0-2.121zM12.471 7l-1.06-1.061a1.5 1.5 0 0 0-2.122 0c-1.591 1.591.531 3.712-1.06 5.3a1.5 1.5 0 0 1-2.122 0l-1.06-1.06m6.364 6.363l-1.061-1.06a1.5 1.5 0 0 1 0-2.122l3.182-3.181a1.5 1.5 0 0 1 2.121 0l1.061 1.06M11.411 12.3l2.121 2.121"/></svg>