<svg xmlns="http://www.w3.org/2000/svg" viewBox="0 0 24 24" width="24" height="24"><defs><style>.a{fill:none;stroke:#000;stroke-linecap:round;stroke-linejoin:round;stroke-width:1.5px}</style></defs><title>seo-search-reward</title><path class="a" d="M16.628 10.5a1.02 1.02 0 0 1-1.012.715H6.884a1.02 1.02 0 0 1-1.012-.715L4.5 3.75l3.634 2.769L11.25 3.75l3.115 2.769L18 3.75z"/><circle class="a" cx="4.5" cy="2.25" r="1.5"/><circle class="a" cx="11.25" cy="2.25" r="1.5"/><circle class="a" cx="18" cy="2.25" r="1.5"/><path class="a" d="M3 18.75v4.5M5.25 21H.75m21-15.75v3m1.5-1.5h-3M6.053 14.045a5.626 5.626 0 0 0-.053.614 5.523 5.523 0 0 0 11.045 0 5.388 5.388 0 0 0-.053-.614m-1.901 4.795l4.409 4.41"/></svg>