<svg xmlns="http://www.w3.org/2000/svg" viewBox="0 0 24 24" width="24" height="24"><defs><style>.a{fill:none;stroke:#000;stroke-linecap:round;stroke-linejoin:round;stroke-width:1.5px}</style></defs><title>seo-search-eye</title><circle class="a" cx="12" cy="12" r="7.5"/><path class="a" d="M17.303 17.303l5.947 5.947m-1.101-6.391a11.256 11.256 0 1 0-19.7 1.06l-.892 4.527 4.526-.893a11.219 11.219 0 0 0 10.6.68"/><path class="a" d="M12 15a6.686 6.686 0 0 0 4.99-2.3 1.062 1.062 0 0 0 0-1.392 6.557 6.557 0 0 0-9.98 0 1.062 1.062 0 0 0 0 1.392A6.681 6.681 0 0 0 12 15z"/><path class="a" d="M12 11.625a.375.375 0 1 1-.375.375.375.375 0 0 1 .375-.375"/></svg>