<svg xmlns="http://www.w3.org/2000/svg" viewBox="0 0 24 24" width="24" height="24"><defs><style>.a{fill:none;stroke:#000;stroke-linecap:round;stroke-linejoin:round;stroke-width:1.5px}</style></defs><title>seo-eye</title><circle class="a" cx="12" cy="12" r="7.5"/><circle class="a" cx="12" cy="12" r="2.25"/><path class="a" d="M4.5 12.17a8.919 8.919 0 0 0 7.479 4.33 8.918 8.918 0 0 0 7.478-4.33l.043-.079m-15-.262A8.919 8.919 0 0 1 11.979 7.5a8.918 8.918 0 0 1 7.478 4.329l.043.078M12 .75V4.5M.75 12H4.5M12 23.25V19.5M23.25 12H19.5m3.682 0H19.5M23.25.75l-3 3M.75.75l3 3m19.5 19.5l-3-3m-19.5 3l3-3"/></svg>