<svg xmlns="http://www.w3.org/2000/svg" viewBox="0 0 24 24" width="24" height="24"><defs><style>.a{fill:none;stroke:#000;stroke-linecap:round;stroke-linejoin:round;stroke-width:1.5px}</style></defs><title>seo-network-1</title><circle class="a" cx="16.875" cy="11.875" r="6.375"/><path class="a" d="M10.5 11.875h12.75m-4.872-6.197a18.972 18.972 0 0 1 .888 6.2 18.965 18.965 0 0 1-.888 6.2m-3.006-12.4a18.972 18.972 0 0 0-.888 6.2 18.965 18.965 0 0 0 .888 6.2M2.25 8.125a1.5 1.5 0 0 0-1.5 1.5c0 2.25 1.5 2.25 1.5 4.5a1.5 1.5 0 0 1-1.5 1.5m6.75 0h-.75a1.5 1.5 0 0 1-1.5-1.5v-4.5a1.5 1.5 0 0 1 1.5-1.5h.75m-2.25 3.75H7.5"/></svg>