<svg xmlns="http://www.w3.org/2000/svg" viewBox="0 0 24 24" width="24" height="24"><defs><style>.a{fill:none;stroke:#000;stroke-linecap:round;stroke-linejoin:round;stroke-width:1.5px}</style></defs><title>seo-search</title><circle class="a" cx="18.875" cy="4.625" r="3.125"/><path class="a" d="M21.085 6.834L23.25 9m-10.5-1.5H2.25A1.5 1.5 0 0 1 .75 6V4.5A1.5 1.5 0 0 1 2.25 3h10.5M2.625 11.25a.375.375 0 1 1-.375.375.375.375 0 0 1 .375-.375M6 12h12M2.625 16.5a.375.375 0 1 1-.375.375.375.375 0 0 1 .375-.375M6 17.25h12m-15.375 4.5a.375.375 0 1 1-.375.375.375.375 0 0 1 .375-.375M6 22.5h12"/></svg>