<svg xmlns="http://www.w3.org/2000/svg" viewBox="0 0 24 24" width="24" height="24"><g fill="none" stroke="#000" stroke-linecap="round" stroke-linejoin="round" stroke-miterlimit="10"><ellipse cx="4.5" cy="3" rx="3" ry="1.5"/><path d="M7.5 5.5c0 .828-1.344 1.5-3 1.5s-3-.672-3-1.5"/><path d="M7.5 3v5c0 .828-1.344 1.5-3 1.5s-3-.672-3-1.5V3"/><ellipse cx="19.5" cy="3" rx="3" ry="1.5"/><path d="M22.5 5.5c0 .828-1.344 1.5-3 1.5s-3-.672-3-1.5"/><path d="M22.5 3v5c0 .828-1.344 1.5-3 1.5s-3-.672-3-1.5V3"/><ellipse cx="4.5" cy="16" rx="3" ry="1.5"/><path d="M7.5 18.5c0 .828-1.344 1.5-3 1.5s-3-.672-3-1.5"/><path d="M7.5 16v5c0 .828-1.344 1.5-3 1.5s-3-.672-3-1.5v-5"/><ellipse cx="19.5" cy="16" rx="3" ry="1.5"/><path d="M22.5 18.5c0 .828-1.344 1.5-3 1.5s-3-.672-3-1.5"/><path d="M22.5 16v5c0 .828-1.344 1.5-3 1.5s-3-.672-3-1.5v-5M7.386 8.407l9.233 7.175m-9.233 0l9.233-7.175"/></g><path fill="none" d="M0 0h24v24H0z"/></svg>