<svg xmlns="http://www.w3.org/2000/svg" viewBox="0 0 24 24" width="24" height="24"><g fill="none" stroke="#000" stroke-linecap="round" stroke-linejoin="round" stroke-miterlimit="10"><path d="M14.5 4.5h9v4h-9zm0 0v-4h9v4m-9 4v4h9v-4m-7-6h1m2 0h1m-4 4h1m2 0h1m-4 4h1m2 0h1M4.5 9V6.75A3.749 3.749 0 018.25 3H10"/><path d="M6.5 7l-2 2-2-2m6-5.5L10 3 8.5 4.5M8.5 22.5c0 .551-.45 1-1 1h-6c-.55 0-1-.449-1-1v-9c0-.549.45-1 1-1h6c.55 0 1 .451 1 1v9zm-8-2h8m-8-6h8M4 22h1"/></g><path fill="none" d="M0 0h24v24H0z"/></svg>