<svg xmlns="http://www.w3.org/2000/svg" viewBox="0 0 24 24" width="24" height="24"><defs><style>.a{fill:none;stroke:#000;stroke-linecap:round;stroke-linejoin:round;stroke-width:1.5px}</style></defs><title>server-1</title><path class="a" d="M6.751 5.625A.375.375 0 1 0 7.126 6a.375.375 0 0 0-.375-.375m5.25.375h1.5m3 0h1.5m-11.25 5.625a.375.375 0 1 0 .375.375.375.375 0 0 0-.375-.375m5.25.375h1.5m3 0h1.5m-6 3v6m-7.5 0h15m3.375-.75a.375.375 0 1 0 .375.375.375.375 0 0 0-.375-.375m-21.75 0a.375.375 0 1 0 .375.375.375.375 0 0 0-.375-.375"/><path class="a" d="M21 6a3 3 0 0 1-3 3H6a3 3 0 0 1 0-6h12a3 3 0 0 1 3 3zm0 6a3 3 0 0 1-3 3H6a3 3 0 0 1 0-6h12a3 3 0 0 1 3 3z"/></svg>