<svg xmlns="http://www.w3.org/2000/svg" viewBox="0 0 24 24" width="24" height="24"><g fill="none" stroke="#000" stroke-linecap="round" stroke-linejoin="round" stroke-miterlimit="10"><path d="M19.4 23.303a5 5 0 01-2.796-9.601 5.001 5.001 0 016.197 3.401"/><path d="M23.5 14.363l-.698 2.74-2.74-.697"/></g><path fill="none" stroke="#000" stroke-linecap="round" stroke-linejoin="round" stroke-miterlimit="10" d="M18.5 10.5H.5v-5h18v6"/><circle fill="none" stroke="#000" stroke-linecap="round" stroke-linejoin="round" stroke-miterlimit="10" cx="9.5" cy="8" r=".5"/><circle fill="none" stroke="#000" stroke-linecap="round" stroke-linejoin="round" stroke-miterlimit="10" cx="12.5" cy="8" r=".5"/><circle fill="none" stroke="#000" stroke-linecap="round" stroke-linejoin="round" stroke-miterlimit="10" cx="15.5" cy="8" r=".5"/><circle fill="none" stroke="#000" stroke-linecap="round" stroke-linejoin="round" stroke-miterlimit="10" cx="3.5" cy="8" r="1"/><path fill="none" stroke="#000" stroke-linecap="round" stroke-linejoin="round" stroke-miterlimit="10" d="M.5 5.5v-5h18v5"/><circle fill="none" stroke="#000" stroke-linecap="round" stroke-linejoin="round" stroke-miterlimit="10" cx="9.5" cy="3" r=".5"/><circle fill="none" stroke="#000" stroke-linecap="round" stroke-linejoin="round" stroke-miterlimit="10" cx="12.5" cy="3" r=".5"/><circle fill="none" stroke="#000" stroke-linecap="round" stroke-linejoin="round" stroke-miterlimit="10" cx="15.5" cy="3" r=".5"/><circle fill="none" stroke="#000" stroke-linecap="round" stroke-linejoin="round" stroke-miterlimit="10" cx="3.5" cy="3" r="1"/><path fill="none" stroke="#000" stroke-linecap="round" stroke-linejoin="round" stroke-miterlimit="10" d="M.5 10.5v5h11"/><circle fill="none" stroke="#000" stroke-linecap="round" stroke-linejoin="round" stroke-miterlimit="10" cx="9.5" cy="13" r=".5"/><circle fill="none" stroke="#000" stroke-linecap="round" stroke-linejoin="round" stroke-miterlimit="10" cx="12.5" cy="13" r=".5"/><circle fill="none" stroke="#000" stroke-linecap="round" stroke-linejoin="round" stroke-miterlimit="10" cx="3.5" cy="13" r="1"/><path fill="none" stroke="#000" stroke-linecap="round" stroke-linejoin="round" stroke-miterlimit="10" d="M5.5 19.5H11m-1.5-4v4"/><path d="M1.5 19a.5.5 0 100 1 .5.5 0 000-1zm2 0a.5.5 0 100 1 .5.5 0 000-1z"/><path fill="none" d="M0 0h24v24H0z"/></svg>