<svg xmlns="http://www.w3.org/2000/svg" viewBox="0 0 24 24" width="24" height="24"><defs><style>.a{fill:none;stroke:#000;stroke-linecap:round;stroke-linejoin:round;stroke-width:1.5px}</style></defs><title>server</title><path class="a" d="M5.626 7.875A.375.375 0 1 0 6 8.25a.375.375 0 0 0-.375-.375m7.876.375h1.5m3 0h1.5M5.626 13.875A.375.375 0 1 0 6 14.25a.375.375 0 0 0-.375-.375m7.876.375h1.5m3 0h1.5m-7.5 3v6m-7.5 0h15m3.375-.75a.375.375 0 1 0 .375.375.375.375 0 0 0-.375-.375m-21.736 0a.375.375 0 1 0 .375.375.375.375 0 0 0-.375-.375"/><path class="a" d="M23.251 14.25a3 3 0 0 1-3 3h-16.5a3 3 0 0 1 0-6h16.5a3 3 0 0 1 3 3zm0-6a3 3 0 0 1-3 3h-16.5a3 3 0 0 1 0-6h16.5a3 3 0 0 1 3 3z"/><path class="a" d="M1.279 6.55l1.936-3.485A4.5 4.5 0 0 1 7.149.75h9.7a4.5 4.5 0 0 1 3.934 2.315l1.94 3.485"/></svg>