<svg xmlns="http://www.w3.org/2000/svg" viewBox="0 0 24 24" width="24" height="24"><g fill="none" stroke="#000" stroke-linecap="round" stroke-linejoin="round" stroke-miterlimit="10"><circle cx="21.5" cy="14.5" r="2"/><circle cx="21.5" cy="21.5" r="2"/><circle cx="13.5" cy="18.499" r="2"/><path d="M15.288 17.604l4.425-2.211m-4.338 3.809l4.254 1.595M21.5 6.499a1 1 0 01-1 1h-19a1 1 0 01-1-1v-5a1 1 0 011-1h19a1 1 0 011 1v5zm-13.5-1h10m-10-2h10"/><circle cx="4" cy="3.999" r="1"/><path d="M12 14.499H1.5a1 1 0 01-1-1v-5a1 1 0 011-1h19a1 1 0 011 1v1.5M8 12.499h6m-6-2h7"/><circle cx="4" cy="10.999" r="1"/><path d="M10 21.499H1.5a1 1 0 01-1-1v-5a1 1 0 011-1H12"/><circle cx="4" cy="17.999" r="1"/></g><path fill="none" d="M0 0h24v24H0z"/></svg>