<svg xmlns="http://www.w3.org/2000/svg" viewBox="0 0 24 24" width="24" height="24"><defs><style>.a{fill:none;stroke:#000;stroke-linecap:round;stroke-linejoin:round;stroke-width:1.5px}</style></defs><title>server-lock</title><path class="a" d="M5.251 4.875a.375.375 0 1 0 .375.375.375.375 0 0 0-.375-.375m0 9a.375.375 0 1 0 .375.375.375.375 0 0 0-.375-.375"/><path class="a" d="M15 9.75H5.251a4.5 4.5 0 0 1 0-9h12c3.446 0 5.987 3.874 3.507 7.5m-9.507 10.5h-6a4.5 4.5 0 0 1 0-9H15m-4.499-4.5h6.75m-6.75 9h1.5"/><rect class="a" x="14.251" y="15.75" width="9" height="7.5" rx="1.5" ry="1.5"/><path class="a" d="M18.751 11.25a3 3 0 0 0-3 3v1.5h6v-1.5a3 3 0 0 0-3-3zm0 7.904a.375.375 0 1 0 .375.375.375.375 0 0 0-.375-.375"/></svg>