<svg xmlns="http://www.w3.org/2000/svg" viewBox="0 0 24 24" width="24" height="24"><defs><style>.a{fill:none;stroke:#000;stroke-linecap:round;stroke-linejoin:round;stroke-width:1.5px}</style></defs><title>server-search</title><path class="a" d="M5.251 4.875a.375.375 0 1 0 .375.375.375.375 0 0 0-.375-.375m0 9a.375.375 0 1 0 .375.375.375.375 0 0 0-.375-.375"/><path class="a" d="M9.751 9.75h-4.5a4.5 4.5 0 0 1 0-9h12A4.5 4.5 0 0 1 20.3 8.562M7.5 18.75H5.251a4.5 4.5 0 0 1 0-9h4.5m.75-4.5h6.75"/><circle class="a" cx="15.751" cy="15.75" r="5.25"/><path class="a" d="M23.251 23.25l-3.788-3.788"/></svg>