<svg xmlns="http://www.w3.org/2000/svg" viewBox="0 0 24 24" width="24" height="24"><defs><style>.a{fill:none;stroke:#000;stroke-linecap:round;stroke-linejoin:round;stroke-width:1.5px}</style></defs><title>server-star-1</title><path class="a" d="M4.5 3.375a.375.375 0 1 0 .375.375.375.375 0 0 0-.375-.375m5.251.375h1.5m3 0h1.5M4.5 9.375a.375.375 0 1 0 .375.375.375.375 0 0 0-.375-.375m5.251.375h1.5m3 0h.75m-10.5 9h3.75v-6M1.126 18a.375.375 0 1 0 .375.375.375.375 0 0 0-.375-.375"/><path class="a" d="M18.751 3.75a3 3 0 0 1-3 3h-12a3 3 0 0 1 0-6h12a3 3 0 0 1 3 3z"/><path class="a" d="M9.751 12.75h-6a3 3 0 0 1 0-6h12a2.994 2.994 0 0 1 2.308 1.084m-.111 3.846l1.541 4.07h3a.735.735 0 0 1 .518 1.283l-2.6 1.815 1.442 3.314a.786.786 0 0 1-1.119.982l-3.486-1.961-3.487 1.961a.786.786 0 0 1-1.119-.982l1.443-3.314-2.6-1.815a.734.734 0 0 1 .515-1.283h3l1.544-4.07a.8.8 0 0 1 1.408 0z"/></svg>