<svg xmlns="http://www.w3.org/2000/svg" viewBox="0 0 24 24" width="24" height="24"><defs><style>.a{fill:none;stroke:#000;stroke-linecap:round;stroke-linejoin:round;stroke-width:1.5px}</style></defs><title>server-clock</title><path class="a" d="M5.251 4.875a.375.375 0 1 0 .375.375.375.375 0 0 0-.375-.375m5.25.375h6.75m-12 8.625a.375.375 0 1 0 .375.375.375.375 0 0 0-.375-.375"/><path class="a" d="M11.936 9.75H5.251a4.5 4.5 0 0 1 0-9h12A4.5 4.5 0 0 1 20.3 8.563M8.251 18.75h-3a4.5 4.5 0 0 1 0-9"/><circle class="a" cx="17.251" cy="17.25" r="6"/><path class="a" d="M19.903 17.25h-2.652v-3"/></svg>