<svg xmlns="http://www.w3.org/2000/svg" viewBox="0 0 24 24" width="24" height="24"><defs><style>.a{fill:none;stroke:#000;stroke-linecap:round;stroke-linejoin:round;stroke-width:1.5px}</style></defs><title>server-refresh</title><path class="a" d="M5.251 4.875a.375.375 0 1 0 .375.375.375.375 0 0 0-.375-.375m0 9a.375.375 0 1 0 .375.375.375.375 0 0 0-.375-.375"/><path class="a" d="M12.714 9.75H5.251a4.5 4.5 0 0 1 0-9h12a4.5 4.5 0 0 1 3.063 7.8M8.251 18.75h-3a4.5 4.5 0 0 1 0-9h7.5m-2.25-4.5h6.75m2.25 10.5h3.75v-4.5m-.189 4.5a6 6 0 1 0-1.121 5.243"/></svg>