<svg xmlns="http://www.w3.org/2000/svg" viewBox="0 0 24 24" width="24" height="24"><g fill="none" stroke="#000" stroke-linejoin="round" stroke-miterlimit="10"><path d="M14.5 4.5h9v4h-9zm0 0v-4h9v4m-9 4v4h9v-4m-7-6h1m2 0h1m-4 4h1m2 0h1m-4 4h1m2 0h1" stroke-linecap="round"/><g stroke-linecap="round"><path d="M4.5 10V7.75A3.749 3.749 0 018.25 4H10"/><path d="M6.5 8l-2 2-2-2m6-5.5L10 4 8.5 5.5"/></g><path stroke-linecap="round" d="M3 23.5h7m-3.5-2v2"/><path d="M.5 18.5h12"/><path stroke-linecap="round" d="M11 13.5c.828 0 1.5.673 1.5 1.5v4.912c0 .878-.671 1.588-1.5 1.588H2c-.828 0-1.5-.71-1.5-1.588V15c0-.827.672-1.5 1.5-1.5h9z"/></g><path fill="none" d="M0 0h24v24H0z"/></svg>