<svg xmlns="http://www.w3.org/2000/svg" viewBox="0 0 24 24" width="24" height="24"><defs><style>.a{fill:none;stroke:#000;stroke-linecap:round;stroke-linejoin:round;stroke-width:1.5px}</style></defs><title>server-hand</title><path class="a" d="M.751 14.25v9m0-1.5h15a3 3 0 0 0-3-3H9a3 3 0 0 0-3-3H.751m5.25 3h3M9 3.375a.375.375 0 1 0 .375.375A.375.375 0 0 0 9 3.375m5.251.375h4.5M9 9.375a.375.375 0 1 0 .375.375A.375.375 0 0 0 9 9.375m5.251.375h4.5"/><path class="a" d="M23.251 3.75a3 3 0 0 1-3 3h-12a3 3 0 0 1 0-6h12a3 3 0 0 1 3 3zm0 6a3 3 0 0 1-3 3h-12a3 3 0 0 1 0-6h12a3 3 0 0 1 3 3z"/></svg>