<svg xmlns="http://www.w3.org/2000/svg" viewBox="0 0 24 24" width="24" height="24"><defs><style>.a{fill:none;stroke:#000;stroke-linecap:round;stroke-linejoin:round;stroke-width:1.5px}</style></defs><title>server-choose</title><path class="a" d="M12.751 15a3 3 0 0 1 0 6h-9a3 3 0 0 1 0-6zm3-3a3 3 0 0 1-3 3h-9a3 3 0 0 1 0-6h9a3 3 0 0 1 3 3zm0-6a3 3 0 0 1-3 3h-9a3 3 0 0 1 0-6h9a3 3 0 0 1 3 3z"/><path class="a" d="M3.751 5.625A.375.375 0 1 0 4.126 6a.375.375 0 0 0-.375-.375m0 6a.375.375 0 1 0 .375.375.375.375 0 0 0-.375-.375m0 6a.375.375 0 1 0 .375.375.375.375 0 0 0-.375-.375M9.001 6h3.75m-3.75 6h3.75m-3.75 6h3.75m6-10.5H21a2.25 2.25 0 0 1 0 4.5h-2.25m.001 0H21a2.25 2.25 0 1 1 0 4.5h-2.25m.001 0H21a2.25 2.25 0 1 1 0 4.5h-2.25"/></svg>