<svg xmlns="http://www.w3.org/2000/svg" viewBox="0 0 24 24" width="24" height="24"><ellipse fill="none" stroke="#000" stroke-linecap="round" stroke-linejoin="round" stroke-miterlimit="10" cx="12" cy="3.5" rx="8.5" ry="3"/><path fill="none" stroke="#000" stroke-linecap="round" stroke-linejoin="round" stroke-miterlimit="10" d="M20.5 7.5c0 1.657-3.806 3-8.5 3-4.693 0-8.5-1.343-8.5-3m17 4c0 1.657-3.806 3-8.5 3-4.693 0-8.5-1.343-8.5-3"/><path fill="none" stroke="#000" stroke-linecap="round" stroke-linejoin="round" stroke-miterlimit="10" d="M20.5 3.5v12c0 1.657-3.806 3-8.5 3-4.693 0-8.5-1.343-8.5-3v-12m1.5 20h13m-6.5-5v5"/><path d="M1 23a.5.5 0 100 1 .5.5 0 000-1zm2 0a.5.5 0 100 1 .5.5 0 000-1zm17 0a.5.5 0 100 1 .5.5 0 000-1zm2 0a.5.5 0 100 1 .5.5 0 000-1z"/><path fill="none" d="M0 0h24v24H0z"/></svg>