<svg xmlns="http://www.w3.org/2000/svg" viewBox="0 0 24 24" width="24" height="24"><g fill="none" stroke="#000" stroke-linejoin="round" stroke-miterlimit="10"><path stroke-linecap="round" d="M11.5 9V5.5m7 9h-14l7-14z"/><path d="M12 11.5a.5.5 0 01-.5.5h0a.5.5 0 01-.5-.5h0a.5.5 0 01.5-.5h0a.5.5 0 01.5.5h0z"/><path d="M6.5 16.5h-4v3h2c1.771 0 2 1.145 2 2 0 .854-.229 2-2 2h-2M13.996 20c0 2.705-1 3.5-2.498 3.5S9 22.705 9 20c0-2.701.996-3.5 2.498-3.5s2.498.799 2.498 3.5zm7.504 0c0 2.705-1 3.5-2.498 3.5s-2.498-.795-2.498-3.5c0-2.701.996-3.5 2.498-3.5s2.498.799 2.498 3.5z" stroke-linecap="round"/></g><path fill="none" d="M0 0h24v24H0z"/></svg>