<svg xmlns="http://www.w3.org/2000/svg" viewBox="0 0 24 24" width="24" height="24"><path fill="none" stroke="#000" stroke-linejoin="round" stroke-miterlimit="10" d="M18 23.5s5.5-4 5.5-6.963c0-3.42-4.5-4.5-5.5-.342-1-4.158-5.5-3.078-5.5.342C12.5 19.5 18 23.5 18 23.5z"/><g fill="none" stroke="#000" stroke-linecap="round" stroke-linejoin="round" stroke-miterlimit="10"><ellipse cx="10" cy="4.5" rx="9.5" ry="4"/><path d="M10 12.5c-5.246 0-9.5-1.79-9.5-4m8 8.449C3.967 16.646.5 14.994.5 13"/><path d="M9 21.479C4.224 21.268.5 19.567.5 17.5v-13m19 0V9"/></g><path fill="none" d="M0 0h24v24H0z"/></svg>