<svg xmlns="http://www.w3.org/2000/svg" viewBox="0 0 24 24" width="24" height="24"><defs><style>.a{fill:none;stroke:#000;stroke-linecap:round;stroke-linejoin:round;stroke-width:1.5px}</style></defs><title>server-warning-1</title><path class="a" d="M4.5 3.375a.375.375 0 1 0 .375.375.375.375 0 0 0-.375-.375m5.251.375h1.5m3 0h1.5M4.5 9.375a.375.375 0 1 0 .375.375.375.375 0 0 0-.375-.375m5.251.375h1.5m-6.75 9h3.75v-6M1.126 18a.375.375 0 1 0 .375.375.375.375 0 0 0-.375-.375"/><path class="a" d="M18.751 3.75a3 3 0 0 1-3 3h-12a3 3 0 0 1 0-6h12a3 3 0 0 1 3 3z"/><path class="a" d="M12 12.75H3.751a3 3 0 0 1 0-6h12a3 3 0 0 1 2.582 1.472M17.251 20.25a.375.375 0 1 0 .375.375.375.375 0 0 0-.375-.375m0-2.25v-3"/><path class="a" d="M23.064 20.682a1.774 1.774 0 0 1-1.587 2.568h-8.452a1.774 1.774 0 0 1-1.587-2.568l4.226-8.451a1.774 1.774 0 0 1 3.174 0z"/></svg>