<svg xmlns="http://www.w3.org/2000/svg" viewBox="0 0 24 24" width="24" height="24"><g fill="none" stroke="#000" stroke-linejoin="round" stroke-miterlimit="10"><path stroke-linecap="round" d="M15 22.5l-3.5 1 1-3.5 7.502-7.502 2.5 2.5z"/><path d="M18.002 14.498l2.5 2.5"/><path stroke-linecap="round" d="M12.5 20l2.5 2.5"/><g stroke-linecap="round"><path d="M21.5 6.5a1 1 0 01-1 1h-19a1 1 0 01-1-1v-5a1 1 0 011-1h19a1 1 0 011 1v5zM8 5.5h10m-10-2h10"/><circle cx="4" cy="4" r="1"/><path d="M11 14.5H1.5a1 1 0 01-1-1v-5a1 1 0 011-1h19a1 1 0 011 1V10M8 12.5h2m-2-2h3"/><circle cx="4" cy="11" r="1"/><path d="M9 21.5H1.5a1 1 0 01-1-1v-5a1 1 0 011-1H11"/><circle cx="4" cy="18" r="1"/></g></g><path fill="none" d="M0 0h24v24H0z"/></svg>