<svg xmlns="http://www.w3.org/2000/svg" viewBox="0 0 24 24" width="24" height="24"><defs><style>.a{fill:none;stroke:#000;stroke-linecap:round;stroke-linejoin:round;stroke-width:1.5px}</style></defs><title>server-2</title><path class="a" d="M4.5 7.125a.375.375 0 1 0 .375.375.375.375 0 0 0-.375-.375m0 9a.375.375 0 1 0 .375.375.375.375 0 0 0-.375-.375"/><path class="a" d="M18.751 3a4.5 4.5 0 0 1 0 9h-13.5a4.5 4.5 0 0 1 0-9zm0 9a4.5 4.5 0 1 1 0 9h-13.5a4.5 4.5 0 0 1 0-9zm-8.25-4.5h8.25m-8.25 9h8.25"/></svg>