<svg xmlns="http://www.w3.org/2000/svg" viewBox="0 0 24 24" width="24" height="24"><defs><style>.a{fill:none;stroke:#000;stroke-linecap:round;stroke-linejoin:round;stroke-width:1.5px}</style></defs><title>server-cash</title><path class="a" d="M5.251 4.875a.375.375 0 1 0 .375.375.375.375 0 0 0-.375-.375m0 9a.375.375 0 1 0 .375.375.375.375 0 0 0-.375-.375"/><path class="a" d="M12 9.75H5.251a4.5 4.5 0 0 1 0-9h12a4.5 4.5 0 0 1 3.014 7.841M8.251 18.75h-3a4.5 4.5 0 0 1 0-9m5.25-4.5h6.75m1.5 9h-2.033a1.342 1.342 0 0 0-.5 2.587l2.063.826a1.341 1.341 0 0 1-.5 2.587h-2.03m1.5-6v-.75m0 7.5v-.75"/><circle class="a" cx="17.251" cy="17.25" r="6"/></svg>