<svg xmlns="http://www.w3.org/2000/svg" viewBox="0 0 24 24" width="24" height="24"><defs><style>.a{fill:none;stroke:#000;stroke-linecap:round;stroke-linejoin:round;stroke-width:1.5px}</style></defs><title>server-upload</title><path class="a" d="M5.251 4.875a.375.375 0 1 0 .375.375.375.375 0 0 0-.375-.375m0 9a.375.375 0 1 0 .375.375.375.375 0 0 0-.375-.375"/><path class="a" d="M12.751 9.75h-7.5a4.5 4.5 0 0 1 0-9h12a4.5 4.5 0 0 1 2.458 8.27M8.251 18.75h-3a4.5 4.5 0 0 1 0-9m5.25-4.5h6.75"/><circle class="a" cx="17.251" cy="17.25" r="6"/><path class="a" d="M17.251 20.25v-6m0 0l-2.25 2.25m2.25-2.25l2.25 2.25"/></svg>