<svg xmlns="http://www.w3.org/2000/svg" viewBox="0 0 24 24" width="24" height="24"><g fill="none" stroke="#000" stroke-linejoin="round" stroke-miterlimit="10"><circle cx="17.5" cy="17.5" r="6"/><path stroke-linecap="round" d="M15 17.5h5M17.5 20v-5m4-8.5a1 1 0 01-1 1h-19a1 1 0 01-1-1v-5a1 1 0 011-1h19a1 1 0 011 1v5zM8 5.5h10m-10-2h10"/><circle stroke-linecap="round" cx="4" cy="4" r="1"/><path stroke-linecap="round" d="M9 14.5H1.5a1 1 0 01-1-1v-5a1 1 0 011-1h19a1 1 0 011 1V10M8 12.5h2m-2-2h3"/><circle stroke-linecap="round" cx="4" cy="11" r="1"/><path stroke-linecap="round" d="M10 21.5H1.5a1 1 0 01-1-1v-5a1 1 0 011-1H9"/><circle stroke-linecap="round" cx="4" cy="18" r="1"/></g><path fill="none" d="M0 0h24v24H0z"/></svg>