<svg xmlns="http://www.w3.org/2000/svg" viewBox="0 0 24 24" width="24" height="24"><defs><style>.a{fill:none;stroke:#000;stroke-linecap:round;stroke-linejoin:round;stroke-width:1.5px}</style></defs><title>server-share</title><path class="a" d="M5.251 4.875a.375.375 0 1 0 .375.375.375.375 0 0 0-.375-.375m0 9a.375.375 0 1 0 .375.375.375.375 0 0 0-.375-.375"/><path class="a" d="M17.189 9.75H5.251a4.5 4.5 0 0 1 0-9h12a4.5 4.5 0 0 1 3.388 7.462M8.251 18.75h-3a4.5 4.5 0 0 1 0-9H16.5m-5.999-4.5h6.75"/><circle class="a" cx="13.501" cy="18" r="2.25"/><circle class="a" cx="21.001" cy="21" r="2.25"/><circle class="a" cx="21.001" cy="13.5" r="2.25"/><path class="a" d="M15.426 16.845l3.65-2.19m-3.487 4.18l3.324 1.33"/></svg>