<svg xmlns="http://www.w3.org/2000/svg" viewBox="0 0 24 24" width="24" height="24"><g fill="none" stroke="#000" stroke-linecap="round" stroke-linejoin="round" stroke-miterlimit="10"><ellipse cx="12" cy="8" rx="5.5" ry="2.5"/><ellipse cx="21" cy="2" rx="2.5" ry="1.5"/><path d="M23.5 2v3c0 .828-1.119 1.5-2.5 1.5s-2.5-.672-2.5-1.5V2"/><ellipse cx="3" cy="2" rx="2.5" ry="1.5"/><path d="M5.5 2v3c0 .828-1.119 1.5-2.5 1.5S.5 5.828.5 5V2"/><ellipse cx="21" cy="19" rx="2.5" ry="1.5"/><path d="M23.5 19v3c0 .828-1.119 1.5-2.5 1.5s-2.5-.672-2.5-1.5v-3"/><ellipse cx="3" cy="19" rx="2.5" ry="1.5"/><path d="M5.5 19v3c0 .828-1.119 1.5-2.5 1.5S.5 22.828.5 22v-3m17-7c0 1.382-2.463 2.5-5.5 2.5S6.5 13.382 6.5 12"/><path d="M6.5 8v8c0 1.382 2.463 2.5 5.5 2.5s5.5-1.118 5.5-2.5V8M3.031 6.531L6.508 10m-3.477 7.469L6.508 14m14.461-7.469L17.492 10m3.477 7.469L17.492 14"/></g><path fill="none" d="M0 0h24v24H0z"/></svg>