<svg xmlns="http://www.w3.org/2000/svg" viewBox="0 0 24 24" width="24" height="24"><g fill="none" stroke="#000" stroke-linejoin="round" stroke-miterlimit="10"><g stroke-linecap="round"><ellipse cx="10" cy="4.5" rx="9.5" ry="4"/><path d="M11.5 12.449c-.489.033-.99.051-1.5.051-5.246 0-9.5-1.79-9.5-4M10 17C4.754 17 .5 15.21.5 13"/><path d="M10 21.5c-5.246 0-9.5-1.79-9.5-4v-13m19 0V10"/></g><path d="M16.5 17.5V21a2.499 2.499 0 105 0v-3.5h-5zm4-1.5a1.501 1.501 0 00-3 0v1.5h3V16z"/><path stroke-linecap="round" d="M21.449 21.5H23.5m-2-2h2m-2-1.5l2-1v-1m-6.949 5.5H14.5m2-2h-2m2-1.5l-2-1v-1"/></g><path fill="none" d="M0 0h24v24H0z"/></svg>