<svg xmlns="http://www.w3.org/2000/svg" viewBox="0 0 24 24" width="24" height="24"><defs><style>.a{fill:none;stroke:#000;stroke-linecap:round;stroke-linejoin:round;stroke-width:1.5px}</style></defs><title>server-warning-500</title><path class="a" d="M11.251.75l-7.5 12h7.5"/><path class="a" d="M11.251.75l7.5 12h-7.5"/><path class="a" d="M11.251 9.75a.375.375 0 1 0 .375.375.375.375 0 0 0-.375-.375m0-3.75v1.5m-9 15.75h2.625a1.874 1.874 0 0 0 1.875-1.875c0-3.333-4.5-.417-4.5-3.75V15.75h4.5m7.5 5.25a2.25 2.25 0 0 1-4.5 0v-3a2.25 2.25 0 0 1 4.5 0zm7.5 0a2.25 2.25 0 0 1-4.5 0v-3a2.25 2.25 0 0 1 4.5 0z"/></svg>