<svg xmlns="http://www.w3.org/2000/svg" viewBox="0 0 24 24" width="24" height="24"><path fill="none" stroke="#000" stroke-linejoin="round" stroke-miterlimit="10" d="M18 23.5s5.5-4 5.5-6.963c0-3.42-4.5-4.5-5.5-.342-1-4.158-5.5-3.078-5.5.342C12.5 19.5 18 23.5 18 23.5z"/><g fill="none" stroke="#000" stroke-linecap="round" stroke-linejoin="round" stroke-miterlimit="10"><path d="M21.499 6.5a1 1 0 01-1 1h-19a1 1 0 01-1-1v-5a1 1 0 011-1h19a1 1 0 011 1v5zm-13.5-1h10m-10-2h10"/><circle cx="3.999" cy="4" r="1"/><path d="M8.999 14.5h-7.5a1 1 0 01-1-1v-5a1 1 0 011-1h19a1 1 0 011 1V10m-13.5 2.5h2m-2-2h3"/><circle cx="3.999" cy="11" r="1"/><path d="M9.999 21.5h-8.5a1 1 0 01-1-1v-5a1 1 0 011-1h7.5"/><circle cx="3.999" cy="18" r="1"/></g><path fill="none" d="M0 0h24v24H0z"/></svg>