<svg xmlns="http://www.w3.org/2000/svg" viewBox="0 0 24 24" width="24" height="24"><defs><style>.a{fill:none;stroke:#000;stroke-linecap:round;stroke-linejoin:round;stroke-width:1.5px}</style></defs><title>server-warning</title><path class="a" d="M5.251 4.875a.375.375 0 1 0 .375.375.375.375 0 0 0-.375-.375m5.25.375h6.75m-12 8.625a.375.375 0 1 0 .375.375.375.375 0 0 0-.375-.375"/><path class="a" d="M5.251 9.75a4.5 4.5 0 0 1 0-9h12a4.5 4.5 0 0 1 3.073 7.787M9.751 18.75h-4.5a4.5 4.5 0 0 1 0-9H13.5m-2.999 4.5h.75m6 6a.375.375 0 1 0 .375.375.375.375 0 0 0-.375-.375m0-2.25v-3"/><path class="a" d="M23.064 20.682a1.774 1.774 0 0 1-1.587 2.568h-8.452a1.774 1.774 0 0 1-1.587-2.568l4.226-8.451a1.774 1.774 0 0 1 3.174 0z"/></svg>