<svg xmlns="http://www.w3.org/2000/svg" viewBox="0 0 24 24" width="24" height="24"><defs><style>.a{fill:none;stroke:#000;stroke-linecap:round;stroke-linejoin:round;stroke-width:1.5px}</style></defs><title>server-question-1</title><circle class="a" cx="17.251" cy="17.25" r="6"/><path class="a" d="M15.376 16.125A1.875 1.875 0 1 1 17.251 18m0 2.25a.375.375 0 1 0 .375.375.375.375 0 0 0-.375-.375M4.5 3.375a.375.375 0 1 0 .375.375.375.375 0 0 0-.375-.375m5.251.375h1.5m3 0h1.5M4.5 9.375a.375.375 0 1 0 .375.375.375.375 0 0 0-.375-.375m5.251.375h1.5m-6.749 9h3.749v-6M1.126 18a.375.375 0 1 0 .375.375.375.375 0 0 0-.375-.375"/><path class="a" d="M18.751 3.75a3 3 0 0 1-3 3h-12a3 3 0 0 1 0-6h12a3 3 0 0 1 3 3z"/><path class="a" d="M9.751 12.75h-6a3 3 0 0 1 0-6h12a3 3 0 0 1 2.632 1.56"/></svg>