<svg xmlns="http://www.w3.org/2000/svg" viewBox="0 0 24 24" width="24" height="24"><g fill="none" stroke="#000" stroke-linejoin="round" stroke-miterlimit="10"><g stroke-linecap="round"><path d="M6 10V7.75A3.749 3.749 0 019.75 4h1.75"/><path d="M8 8l-2 2-2-2m6-5.5L11.5 4 10 5.5"/></g><path stroke-linecap="round" d="M3 23.5h7m-3.5-2v2"/><path d="M.5 18.5h12"/><path stroke-linecap="round" d="M11 13.5c.828 0 1.5.673 1.5 1.5v4.912c0 .878-.671 1.588-1.5 1.588H2c-.828 0-1.5-.71-1.5-1.588V15c0-.827.672-1.5 1.5-1.5h9z"/><ellipse stroke-linecap="round" cx="19.5" cy="2.5" rx="4" ry="2"/><path stroke-linecap="round" d="M15.5 7.5c0 1.104 1.791 2 4 2s4-.896 4-2m-8-2.5c0 1.104 1.791 2 4 2s4-.896 4-2"/><path stroke-linecap="round" d="M23.5 2.5V10c0 1.104-1.791 2-4 2s-4-.896-4-2V2.5"/></g><path fill="none" d="M0 0h24v24H0z"/></svg>