<svg xmlns="http://www.w3.org/2000/svg" viewBox="0 0 24 24" width="24" height="24"><g fill="none" stroke="#000" stroke-linejoin="round" stroke-miterlimit="10"><g stroke-linecap="round"><ellipse cx="11.5" cy="2.5" rx="4" ry="2"/><path d="M7.5 5.5c0 1.104 1.791 2 4 2s4-.896 4-2"/><path d="M15.5 2.5v6c0 1.104-1.791 2-4 2s-4-.896-4-2v-6"/></g><path stroke-linecap="round" d="M3 23.5h5m-2.5-2v2"/><path d="M.5 19.5h10"/><path stroke-linecap="round" d="M9 14.5c.828 0 1.5.673 1.5 1.5v3.912c0 .878-.671 1.588-1.5 1.588H2c-.828 0-1.5-.71-1.5-1.588V16c0-.827.672-1.5 1.5-1.5h7zM15 23.5h5m-2.5-2v2"/><path d="M12.5 19.5h10"/><path stroke-linecap="round" d="M21 14.5c.828 0 1.5.673 1.5 1.5v3.912c0 .878-.671 1.588-1.5 1.588h-7c-.828 0-1.5-.71-1.5-1.588V16c0-.827.672-1.5 1.5-1.5h7zM17.5 6.5h3v5m-15-5h-3v5"/></g><path fill="none" d="M0 0h24v24H0z"/></svg>