<svg xmlns="http://www.w3.org/2000/svg" viewBox="0 0 24 24" width="24" height="24"><defs><style>.a{fill:none;stroke:#000;stroke-linecap:round;stroke-linejoin:round;stroke-width:1.5px}</style></defs><title>server-search-1</title><path class="a" d="M4.5 3.375a.375.375 0 1 0 .375.375.375.375 0 0 0-.375-.375m5.251.375h1.5m3 0h1.5M4.5 9.375a.375.375 0 1 0 .375.375.375.375 0 0 0-.375-.375m5.251.375h1.5m-6.75 9h3v-6M1.126 18a.375.375 0 1 0 .375.375.375.375 0 0 0-.375-.375"/><path class="a" d="M18.751 3.75a3 3 0 0 1-3 3h-12a3 3 0 0 1 0-6h12a3 3 0 0 1 3 3z"/><path class="a" d="M8.251 12.75h-4.5a3 3 0 0 1 0-6h12a3 3 0 0 1 2.6 1.5"/><circle class="a" cx="15.751" cy="15.75" r="5.25"/><path class="a" d="M23.251 23.25l-3.788-3.788"/></svg>