<svg xmlns="http://www.w3.org/2000/svg" viewBox="0 0 24 24" width="24" height="24"><defs><style>.a{fill:none;stroke:#000;stroke-linecap:round;stroke-linejoin:round;stroke-width:1.5px}</style></defs><title>server-4</title><path class="a" d="M6.752 9.375a.375.375 0 1 0 .375.375.374.374 0 0 0-.375-.375m5.25.375h1.5m3 0h1.5m-11.25 5.625a.375.375 0 1 0 .375.375.374.374 0 0 0-.375-.375m5.25.375h1.5m3 0h1.5m-6 3v4.5m-7.5 0h14.999m3.375-.75a.375.375 0 1 0 .375.375.375.375 0 0 0-.375-.375m-21.75 0a.375.375 0 1 0 .375.375.375.375 0 0 0-.375-.375"/><path class="a" d="M21 9.75a3 3 0 0 1-3 3H6a3 3 0 0 1 0-6h12a3 3 0 0 1 3 3zM6.752 3.375a.375.375 0 1 0 .375.375.374.374 0 0 0-.375-.375m5.25.375h1.5m3 0h1.5"/><path class="a" d="M21 3.75a3 3 0 0 1-3 3H6a3 3 0 0 1 0-6h12a3 3 0 0 1 3 3zm0 12a3 3 0 0 1-3 3H6a3 3 0 0 1 0-6h12a3 3 0 0 1 3 3z"/></svg>