<svg xmlns="http://www.w3.org/2000/svg" viewBox="0 0 24 24" width="24" height="24"><g fill="none" stroke="#000" stroke-linejoin="round" stroke-miterlimit="10"><circle cx="17.5" cy="17.5" r="6"/><path d="M16.109 18.82a1.39 1.39 0 102.782 0c0-.768-.623-1.393-1.391-1.393s-1.391-.62-1.391-1.391a1.391 1.391 0 012.782 0M17.5 20.211v.926m0-7.418v.927" stroke-linecap="round"/><g stroke-linecap="round"><ellipse cx="10" cy="4.5" rx="9.5" ry="4"/><path d="M10 12.5c-5.246 0-9.5-1.79-9.5-4m8 8.449C3.967 16.646.5 14.994.5 13"/><path d="M9 21.479C4.224 21.268.5 19.567.5 17.5v-13m19 0V9"/></g></g><path fill="none" d="M0 0h24v24H0z"/></svg>