<svg xmlns="http://www.w3.org/2000/svg" viewBox="0 0 24 24" width="24" height="24"><defs><style>.a{fill:none;stroke:#000;stroke-linecap:round;stroke-linejoin:round;stroke-width:1.5px}</style></defs><title>server-star</title><path class="a" d="M5.251 4.875a.375.375 0 1 0 .375.375.375.375 0 0 0-.375-.375m0 9a.375.375 0 1 0 .375.375.375.375 0 0 0-.375-.375"/><path class="a" d="M14.251 9.75h-9a4.5 4.5 0 0 1 0-9h12a4.5 4.5 0 0 1 2.266 8.389M9.751 18.75h-4.5a4.5 4.5 0 0 1 0-9h9m-3.75-4.5h6.75m.697 6.43l1.542 4.07h3a.735.735 0 0 1 .518 1.283l-2.6 1.815 1.443 3.314a.786.786 0 0 1-1.119.982l-3.487-1.961-3.486 1.961a.786.786 0 0 1-1.12-.982l1.443-3.314-2.6-1.815a.734.734 0 0 1 .516-1.283h3l1.544-4.07a.8.8 0 0 1 1.406 0z"/></svg>