<svg xmlns="http://www.w3.org/2000/svg" viewBox="0 0 24 24" width="24" height="24"><defs><style>.a{fill:none;stroke:#000;stroke-linecap:round;stroke-linejoin:round;stroke-width:1.5px}</style></defs><title>server-phone-exchange</title><rect class="a" x="12.751" y=".75" width="10.5" height="12" rx="1.5" ry="1.5"/><path class="a" d="M12.751 6.75h10.5m-7.5-3.375a.375.375 0 1 0 .375.375.375.375 0 0 0-.375-.375m0 6a.375.375 0 1 0 .375.375.375.375 0 0 0-.375-.375m4.5-5.625h-1.5m1.5 6h-1.5m-13.5-3L3 9V6.75a3 3 0 0 1 3-3h4.5m-9.749 3L3.001 9"/><path class="a" d="M8.251 1.5l2.25 2.25L8.251 6M4.5 19.875a.375.375 0 1 0 .375.375.375.375 0 0 0-.375-.375"/><rect class="a" x=".751" y="11.25" width="7.5" height="12" rx="1.5" ry="1.5"/></svg>