<svg xmlns="http://www.w3.org/2000/svg" viewBox="0 0 24 24" width="24" height="24"><circle fill="none" stroke="#000" stroke-linejoin="round" stroke-miterlimit="10" cx="17.5" cy="17.5" r="6"/><path d="M17.5 21a.501.501 0 000 1 .5.5 0 100-1z"/><path fill="none" stroke="#000" stroke-linecap="round" stroke-linejoin="round" stroke-miterlimit="10" d="M15.75 15.75a1.75 1.75 0 111.75 1.75v2"/><g fill="none" stroke="#000" stroke-linecap="round" stroke-linejoin="round" stroke-miterlimit="10"><path d="M21.499 6.5a1 1 0 01-1 1h-19a1 1 0 01-1-1v-5a1 1 0 011-1h19a1 1 0 011 1v5zm-13.5-1h10m-10-2h10"/><circle cx="3.999" cy="4" r="1"/><path d="M8.999 14.5h-7.5a1 1 0 01-1-1v-5a1 1 0 011-1h19a1 1 0 011 1V10m-13.5 2.5h2m-2-2h3"/><circle cx="3.999" cy="11" r="1"/><path d="M9.999 21.5h-8.5a1 1 0 01-1-1v-5a1 1 0 011-1h7.5"/><circle cx="3.999" cy="18" r="1"/></g><path fill="none" d="M0 0h24v24H0z"/></svg>