<svg xmlns="http://www.w3.org/2000/svg" viewBox="0 0 24 24" width="24" height="24"><g fill="none" stroke="#000" stroke-linejoin="round" stroke-miterlimit="10"><path stroke-linecap="round" d="M21.5 6.5a1 1 0 01-1 1h-19a1 1 0 01-1-1v-5a1 1 0 011-1h19a1 1 0 011 1v5zM8 5.5h10m-10-2h10"/><circle stroke-linecap="round" cx="4" cy="4" r="1"/><path stroke-linecap="round" d="M9 14.5H1.5a1 1 0 01-1-1v-5a1 1 0 011-1h19a1 1 0 011 1V10M8 12.5h2m-2-2h3"/><circle stroke-linecap="round" cx="4" cy="11" r="1"/><path stroke-linecap="round" d="M10 21.5H1.5a1 1 0 01-1-1v-5a1 1 0 011-1H9"/><circle stroke-linecap="round" cx="4" cy="18" r="1"/><circle cx="17.5" cy="17.5" r="6"/><path d="M16.109 18.82a1.39 1.39 0 102.782 0c0-.768-.623-1.393-1.391-1.393s-1.391-.62-1.391-1.391a1.391 1.391 0 012.782 0M17.5 20.211v.926m0-7.418v.927" stroke-linecap="round"/></g><path fill="none" d="M0 0h24v24H0z"/></svg>