<svg xmlns="http://www.w3.org/2000/svg" viewBox="0 0 24 24" width="24" height="24"><defs><style>.a{fill:none;stroke:#000;stroke-linecap:round;stroke-linejoin:round;stroke-width:1.5px}</style></defs><title>server-3</title><path class="a" d="M12.001 9.75h1.5m3 0h3m3.75 0a4.5 4.5 0 0 1-4.5 4.5h-13.5a4.5 4.5 0 0 1 0-9h13.5a4.5 4.5 0 0 1 4.5 4.5z"/><path class="a" d="M5.626 9.375A.375.375 0 1 0 6 9.75a.375.375 0 0 0-.375-.375m6.376 9.375h1.5m3 0h3m3.75 0a4.5 4.5 0 0 1-4.5 4.5h-13.5a4.5 4.5 0 0 1 0-9h13.5a4.5 4.5 0 0 1 4.5 4.5z"/><path class="a" d="M5.626 18.375A.375.375 0 1 0 6 18.75a.375.375 0 0 0-.375-.375M22.827 7.843L20.31 2.476A3 3 0 0 0 17.594.75H6.408a3 3 0 0 0-2.717 1.726L1.175 7.843"/></svg>