<svg xmlns="http://www.w3.org/2000/svg" viewBox="0 0 24 24" width="24" height="24"><defs><style>.a{fill:none;stroke:#000;stroke-linecap:round;stroke-linejoin:round;stroke-width:1.5px}</style></defs><title>server-mail</title><path class="a" d="M4.5 3.375a.375.375 0 1 0 .375.375.375.375 0 0 0-.375-.375m5.253.375h1.5m3 0h1.5M4.5 9.375a.375.375 0 1 0 .375.375.375.375 0 0 0-.375-.375m5.253.375h1.5m3 0h1.5m-11.252 9h3.752v-6M1.128 18a.375.375 0 1 0 .375.375.375.375 0 0 0-.375-.375"/><path class="a" d="M18.753 3.75a3 3 0 0 1-3 3h-12a3 3 0 0 1 0-6h12a3 3 0 0 1 3 3zm-9.002 9h-6a3 3 0 0 1 0-6h12a3.032 3.032 0 0 1 2.62 4.528m4.88 4.472v6a1.5 1.5 0 0 1-1.5 1.5h-9a1.5 1.5 0 0 1-1.5-1.5v-6"/><path class="a" d="M23.251 15.75a1.5 1.5 0 0 0-1.5-1.5h-9a1.5 1.5 0 0 0-1.5 1.5L16.456 19a1.5 1.5 0 0 0 1.59 0z"/></svg>