<svg xmlns="http://www.w3.org/2000/svg" viewBox="0 0 24 24" width="24" height="24"><defs><style>.a{fill:none;stroke:#000;stroke-linecap:round;stroke-linejoin:round;stroke-width:1.5px}</style></defs><title>server-sync</title><path class="a" d="M5.251 4.875a.375.375 0 1 0 .375.375.375.375 0 0 0-.375-.375m0 9a.375.375 0 1 0 .375.375.375.375 0 0 0-.375-.375"/><path class="a" d="M12.75 9.75h-7.5a4.5 4.5 0 0 1 0-9h12a4.5 4.5 0 0 1 3.025 7.832M8.249 18.75h-3a4.5 4.5 0 0 1 0-9m5.252-4.5h6.75m-2.252 13.5h-3.75v3.75m11.418-3.017a5.572 5.572 0 0 1-10.74-.733m7.572-3h3.75V12m-11.417 3.017a5.572 5.572 0 0 1 10.74.733"/></svg>