<svg xmlns="http://www.w3.org/2000/svg" viewBox="0 0 24 24" width="24" height="24"><g fill="none" stroke="#000" stroke-linejoin="round" stroke-miterlimit="10"><path d="M22.375 16.418l1.072-.619-1.5-2.598-1.081.624A4.99 4.99 0 0019 12.754V11.5h-3v1.254a5.004 5.004 0 00-1.866 1.071l-1.081-.624-1.5 2.598 1.072.619a4.759 4.759 0 000 2.166l-1.07.617 1.5 2.598 1.079-.622c.53.485 1.164.848 1.866 1.07V23.5h3v-1.253a4.988 4.988 0 001.866-1.07l1.079.622 1.5-2.598-1.07-.617a4.759 4.759 0 000-2.166z"/><circle cx="17.5" cy="17.5" r="2"/><g stroke-linecap="round"><ellipse cx="10" cy="4.5" rx="9.5" ry="4"/><path d="M10 12.5c-5.246 0-9.5-1.79-9.5-4M10 17C4.754 17 .5 15.21.5 13"/><path d="M10 21.5c-5.246 0-9.5-1.79-9.5-4v-13m19 0v5"/></g></g><path fill="none" d="M0 0h24v24H0z"/></svg>