<svg xmlns="http://www.w3.org/2000/svg" viewBox="0 0 24 24" width="24" height="24"><path fill="none" stroke="#000" stroke-linecap="round" stroke-linejoin="round" stroke-miterlimit="10" d="M21.5 6.499a1 1 0 01-1 1h-19a1 1 0 01-1-1v-5a1 1 0 011-1h19a1 1 0 011 1v5zm-13.5-1h10m-10-2h10"/><circle fill="none" stroke="#000" stroke-linecap="round" stroke-linejoin="round" stroke-miterlimit="10" cx="4" cy="3.999" r="1"/><path fill="none" stroke="#000" stroke-linecap="round" stroke-linejoin="round" stroke-miterlimit="10" d="M12 14.499H1.5a1 1 0 01-1-1v-5a1 1 0 011-1h19a1 1 0 011 1v1.5M8 12.499h6m-6-2h7"/><circle fill="none" stroke="#000" stroke-linecap="round" stroke-linejoin="round" stroke-miterlimit="10" cx="4" cy="10.999" r="1"/><path fill="none" stroke="#000" stroke-linecap="round" stroke-linejoin="round" stroke-miterlimit="10" d="M10 21.499H1.5a1 1 0 01-1-1v-5a1 1 0 011-1H12"/><circle fill="none" stroke="#000" stroke-linecap="round" stroke-linejoin="round" stroke-miterlimit="10" cx="4" cy="17.999" r="1"/><path fill="none" stroke="#000" stroke-linejoin="round" stroke-miterlimit="10" d="M18.008 12.499l1.992 4h3.5l-3 2.5 1.5 4.5-4-2.748-4 2.748 1.5-4.5-3-2.5H16z"/><path fill="none" d="M0 0h24v24H0z"/></svg>