<svg xmlns="http://www.w3.org/2000/svg" viewBox="0 0 24 24" width="24" height="24"><defs><style>.a{fill:none;stroke:#000;stroke-linecap:round;stroke-linejoin:round;stroke-width:1.5px}</style></defs><title>server-edit</title><path class="a" d="M5.251 4.875a.375.375 0 1 0 .375.375.375.375 0 0 0-.375-.375m0 9a.375.375 0 1 0 .375.375.375.375 0 0 0-.375-.375"/><path class="a" d="M12.751 9.75h-7.5a4.5 4.5 0 0 1 0-9h12a4.5 4.5 0 0 1 2.458 8.27M8.251 18.75h-3a4.5 4.5 0 0 1 0-9m5.25-4.5h6.75m5.38 9.619L15 22.5l-3.75.75.75-3.75 7.63-7.631a2.116 2.116 0 0 1 2.992 0l.008.009a2.115 2.115 0 0 1 .001 2.991zm-12.13-.619h3"/></svg>