<svg xmlns="http://www.w3.org/2000/svg" viewBox="0 0 24 24" width="24" height="24"><g fill="none" stroke="#000" stroke-linejoin="round" stroke-miterlimit="10"><path d="M.5 16.5h4v7h-4z"/><path stroke-linecap="round" d="M4.5 22.5h17c0-1.5-3.5-3-7.5-3H7"/><path d="M4.5 17.5H8c2.353 0 3.5 1.5 4 2"/><g stroke-linecap="round"><ellipse cx="18.5" cy="2.5" rx="5" ry="2"/><path d="M23.5 2.5v9c0 1.104-2.238 2-5 2s-5-.896-5-2v-9"/><path d="M23.5 8.5c0 1.104-2.238 2-5 2s-5-.896-5-2m10-3c0 1.104-2.238 2-5 2s-5-.896-5-2"/></g></g><path fill="none" d="M0 0h24v24H0z"/></svg>