<svg xmlns="http://www.w3.org/2000/svg" viewBox="0 0 24 24" width="24" height="24"><defs><style>.a{fill:none;stroke:#000;stroke-linecap:round;stroke-linejoin:round;stroke-width:1.5px}</style></defs><title>server-edit-1</title><path class="a" d="M4.5 3.377a.375.375 0 1 0 .375.375.375.375 0 0 0-.375-.375m5.251.375h1.5m3 0h1.5M4.5 9.377a.375.375 0 1 0 .375.375.375.375 0 0 0-.375-.375m5.251.375h1.5m3 0h1.5m-11.25 9h3.75v-6M1.126 18a.375.375 0 1 0 .375.375.375.375 0 0 0-.375-.375"/><path class="a" d="M18.751 3.752a3 3 0 0 1-3 3h-12a3 3 0 0 1 0-6h12a3 3 0 0 1 3 3z"/><path class="a" d="M14.251 12.752h-10.5a3 3 0 0 1 0-6h12a3 3 0 0 1 2.6 1.5m4.28 6.617L15 22.5l-3.75.75.75-3.75 7.63-7.631a2.116 2.116 0 0 1 2.992 0l.008.009a2.115 2.115 0 0 1 .001 2.991z"/></svg>