<svg xmlns="http://www.w3.org/2000/svg" viewBox="0 0 24 24" width="24" height="24"><path fill="none" stroke="#000" stroke-linejoin="round" stroke-miterlimit="10" d="M20.492 19l3-2.5h-3.5L18 12.5l-1.992 4h-3.516l3.016 2.5-1.5 4.5L18 20.761l3.992 2.739z"/><path fill="none" stroke="#000" stroke-linecap="round" stroke-linejoin="round" stroke-miterlimit="10" d="M18.5 10.5H.5v-5h18v5"/><circle fill="none" stroke="#000" stroke-linecap="round" stroke-linejoin="round" stroke-miterlimit="10" cx="9.5" cy="8" r=".5"/><circle fill="none" stroke="#000" stroke-linecap="round" stroke-linejoin="round" stroke-miterlimit="10" cx="12.5" cy="8" r=".5"/><circle fill="none" stroke="#000" stroke-linecap="round" stroke-linejoin="round" stroke-miterlimit="10" cx="15.5" cy="8" r=".5"/><circle fill="none" stroke="#000" stroke-linecap="round" stroke-linejoin="round" stroke-miterlimit="10" cx="3.5" cy="8" r="1"/><path fill="none" stroke="#000" stroke-linecap="round" stroke-linejoin="round" stroke-miterlimit="10" d="M.5 5.5v-5h18v5"/><circle fill="none" stroke="#000" stroke-linecap="round" stroke-linejoin="round" stroke-miterlimit="10" cx="9.5" cy="3" r=".5"/><circle fill="none" stroke="#000" stroke-linecap="round" stroke-linejoin="round" stroke-miterlimit="10" cx="12.5" cy="3" r=".5"/><circle fill="none" stroke="#000" stroke-linecap="round" stroke-linejoin="round" stroke-miterlimit="10" cx="15.5" cy="3" r=".5"/><circle fill="none" stroke="#000" stroke-linecap="round" stroke-linejoin="round" stroke-miterlimit="10" cx="3.5" cy="3" r="1"/><path fill="none" stroke="#000" stroke-linecap="round" stroke-linejoin="round" stroke-miterlimit="10" d="M.5 10.5v5h10"/><circle fill="none" stroke="#000" stroke-linecap="round" stroke-linejoin="round" stroke-miterlimit="10" cx="9.5" cy="13" r=".5"/><circle fill="none" stroke="#000" stroke-linecap="round" stroke-linejoin="round" stroke-miterlimit="10" cx="12.5" cy="13" r=".5"/><circle fill="none" stroke="#000" stroke-linecap="round" stroke-linejoin="round" stroke-miterlimit="10" cx="3.5" cy="13" r="1"/><path fill="none" stroke="#000" stroke-linecap="round" stroke-linejoin="round" stroke-miterlimit="10" d="M5.5 19.5H12m-2.5-4v4"/><path d="M1.5 19a.5.5 0 100 1 .5.5 0 000-1zm2 0a.5.5 0 100 1 .5.5 0 000-1z"/><path fill="none" d="M0 0h24v24H0z"/></svg>