<svg xmlns="http://www.w3.org/2000/svg" viewBox="0 0 24 24" width="24" height="24"><g fill="none" stroke="#000" stroke-linecap="round" stroke-linejoin="round" stroke-miterlimit="10"><ellipse cx="10" cy="4.5" rx="9.5" ry="4"/><path d="M10 12.5c-5.246 0-9.5-1.79-9.5-4m8 8.449C3.967 16.646.5 14.994.5 13"/><path d="M9 21.479C4.224 21.268.5 19.567.5 17.5v-13m19 0V9m-4 5.489c0-2 1.119-2.985 2.5-2.985s2.5.985 2.5 2.985h-5zm0 2h5v4.5a2.5 2.5 0 01-5 0v-4.5zm5 1h3m-3 2h3m-3.051 2H23.5m-10.969-4H15.5m-2.969 2H15.5m-2.969 2h3.02"/></g><path fill="none" d="M0 0h24v24H0z"/></svg>