<svg xmlns="http://www.w3.org/2000/svg" viewBox="0 0 24 24" width="24" height="24"><defs><style>.a{fill:none;stroke:#000;stroke-linecap:round;stroke-linejoin:round;stroke-width:1.5px}</style></defs><title>settings-sound</title><path class="a" d="M11.392 14.577a.749.749 0 0 1-.295.061H9.751a.749.749 0 0 0-.75.75v1.5a.75.75 0 0 0 .75.75H11.1a.748.748 0 0 1 .295.06l2.563 1.742A.752.752 0 0 0 15 18.75v-5.225a.751.751 0 0 0-1.046-.689z"/><rect class="a" x="5.251" y=".75" width="13.5" height="22.5" rx="3" ry="3"/><path class="a" d="M5.251 7.5h13.5"/></svg>