<svg xmlns="http://www.w3.org/2000/svg" viewBox="0 0 24 24" width="24" height="24"><defs><style>.a{fill:none;stroke:#000;stroke-linecap:round;stroke-linejoin:round;stroke-width:1.5px}</style></defs><title>settings-user</title><path class="a" d="M10.5 11.25a5.25 5.25 0 0 1 0-10.5zm0 12H.75a9.75 9.75 0 0 1 9.75-9.75zm5.121-19.371L17.25 2.25m-1.629 5.871L17.25 9.75M13.5 3a3 3 0 0 1 0 6m0-6V.75m0 8.25v2.25m3-5.25h2.25m4.5 17.25v-1.5h-2.4a7.472 7.472 0 0 0-1.093-2.636l1.7-1.7-2.123-2.114-1.7 1.7A7.479 7.479 0 0 0 15 15.9v-2.4h-1.5m0 6a3.75 3.75 0 0 1 3.75 3.75"/></svg>