<svg xmlns="http://www.w3.org/2000/svg" viewBox="0 0 24 24" width="24" height="24"><defs><style>.a{fill:none;stroke:#000;stroke-linecap:round;stroke-linejoin:round;stroke-width:1.5px}</style></defs><title>settings-human</title><path class="a" d="M19.5 23.25v-6.265A9.365 9.365 0 0 0 13.125.75C5.621.75 4.3 7.245 1.5 14.25h3v3a3 3 0 0 0 3 3H9v3"/><circle class="a" cx="12.75" cy="10.5" r="1.5"/><path class="a" d="M11.476 4.7l-.442 1.45a.994.994 0 0 1-1.174.681L8.388 6.49a1.339 1.339 0 0 0-1.275 2.218l1.031 1.111a1 1 0 0 1 0 1.362l-1.031 1.111a1.339 1.339 0 0 0 1.275 2.218l1.472-.341a.994.994 0 0 1 1.174.681l.442 1.453a1.33 1.33 0 0 0 2.548 0l.442-1.453a.994.994 0 0 1 1.174-.681l1.472.341a1.339 1.339 0 0 0 1.275-2.218l-1.031-1.111a1 1 0 0 1 0-1.362l1.031-1.111a1.339 1.339 0 0 0-1.275-2.218l-1.472.341a.994.994 0 0 1-1.174-.681l-.442-1.45a1.33 1.33 0 0 0-2.548 0z"/></svg>