<svg xmlns="http://www.w3.org/2000/svg" viewBox="0 0 24 24" width="24" height="24"><defs><style>.a{fill:none;stroke:#000;stroke-linecap:round;stroke-linejoin:round;stroke-width:1.5px}</style></defs><title>shape-cube</title><path class="a" d="M16.629 23.25a1.5 1.5 0 0 0 1.06-.439l5.122-5.122a1.5 1.5 0 0 0 .439-1.06V2.25a1.5 1.5 0 0 0-1.5-1.5H7.371a1.5 1.5 0 0 0-1.06.439L1.189 6.311a1.5 1.5 0 0 0-.439 1.06V21.75a1.5 1.5 0 0 0 1.5 1.5zm.621-.135V6.75m-10.5 10.5h16.365M1.189 22.811L6.75 17.25m10.5-10.5l5.561-5.561M17.25 6.75H.885M6.75.885V17.25"/></svg>