<svg xmlns="http://www.w3.org/2000/svg" viewBox="0 0 24 24" width="24" height="24"><g fill="none" stroke="#000" stroke-linejoin="round" stroke-miterlimit="10"><path d="M.5 16.5h4v7h-4z"/><path stroke-linecap="round" d="M4.5 22.5h17c0-1.5-3.5-3-7.5-3H7"/><path d="M4.5 17.5H8c2.353 0 3.5 1.5 4 2"/><circle cx="15.511" cy="8.5" r="3"/><path d="M21.855 7.141l1.573-.908-2-3.464-1.578.911a6.494 6.494 0 00-2.35-1.363V.5h-4v1.817a6.48 6.48 0 00-2.35 1.363l-1.579-.911-2 3.464 1.573.908a6.44 6.44 0 00.002 2.719l-1.573.908 2 3.464 1.579-.912a6.476 6.476 0 002.349 1.363V16.5h4v-1.816a6.476 6.476 0 002.349-1.363l1.579.912 2-3.464-1.575-.909a6.422 6.422 0 00.001-2.719z"/></g><path fill="none" d="M0 0h24v24H0z"/></svg>