<svg xmlns="http://www.w3.org/2000/svg" viewBox="0 0 24 24" width="24" height="24"><defs><style>.a{fill:none;stroke:#000;stroke-linecap:round;stroke-linejoin:round;stroke-width:1.5px}</style></defs><title>share-location-hand-1</title><path class="a" d="M2.25 13.5v9m15-1.5a3 3 0 0 0-3-3H10.5a3 3 0 0 0-3-3H2.25v6zM7.5 18h3m6.75-12.3a.375.375 0 0 1 .375.375m-.75-.001a.375.375 0 0 1 .375-.374m0 .749a.375.375 0 0 1-.375-.375m.75 0a.375.375 0 0 1-.375.375"/><path class="a" d="M17.25 1.574a4.5 4.5 0 0 1 4.5 4.5c0 1.921-2.688 5.576-3.909 7.138a.75.75 0 0 1-1.182 0C15.438 11.651 12.75 8 12.75 6.074a4.5 4.5 0 0 1 4.5-4.5z"/></svg>