<svg id="Regular" xmlns="http://www.w3.org/2000/svg" viewBox="0 0 24 24" width="24" height="24"><defs><style>.cls-1{fill:none;stroke:#000;stroke-linecap:round;stroke-linejoin:round;stroke-width:1.5px}</style></defs><title>shark-1</title><path class="cls-1" d="M4.348 13.334A2.147 2.147 0 0 0 6.6 15.607h2.25a9.521 9.521 0 0 0 1.31 2.908.75.75 0 0 0 1.3-.193 29.215 29.215 0 0 1 1.14-2.715l6.75-.75a7.382 7.382 0 0 0 1.56 1.879.751.751 0 0 0 1.255-.594 21.968 21.968 0 0 1 .615-6.125.75.75 0 0 0-.991-.879 5.03 5.03 0 0 0-2.439 1.969 17.789 17.789 0 0 0-6.75-2.25 9.674 9.674 0 0 1-.716-3.412.751.751 0 0 0-1.172-.571A7.3 7.3 0 0 0 8.26 8.9a17.826 17.826 0 0 0-6.76 1.7.751.751 0 0 0-.2 1.2c1.113 1.3.867 1.55 4.55 1.55m4.498-2.243l-.75 1.5m3.75-1.5l-.75 1.5"/></svg>