<svg id="Regular" xmlns="http://www.w3.org/2000/svg" viewBox="0 0 24 24" width="24" height="24"><defs><style>.cls-1,.cls-2{fill:none;stroke:#000;stroke-linecap:round;stroke-linejoin:round;stroke-width:1.5px}.cls-2{fill-rule:evenodd}</style></defs><title>shark-fish</title><path class="cls-1" d="M23.036 4.994a.751.751 0 0 0-1-.845 5.874 5.874 0 0 0-2.519 2.024 47.138 47.138 0 0 0-6.845-1.324l-.461-2.763a.75.75 0 0 0-1.222-.451 5.259 5.259 0 0 0-1.877 3.058A23.334 23.334 0 0 0 1.477 6.6.753.753 0 0 0 1.1 7.627c1.468 2.935 3.48 4.575 7.434 4.5a3.823 3.823 0 0 0 2.529 2.14.751.751 0 0 0 .955-.722v-1.553a20.7 20.7 0 0 0 7.5-2.819A3.552 3.552 0 0 0 22 11.268a.749.749 0 0 0 .921-.89 14.072 14.072 0 0 1 .115-5.384zM6.4 7.673a.374.374 0 0 1 .375.375m-.753 0a.375.375 0 0 1 .378-.375m0 .75a.375.375 0 0 1-.375-.375m.747 0a.374.374 0 0 1-.375.375m4.125-.75l-.75 1.5m3.75-1.5l-.75 1.5"/><path class="cls-2" d="M9.022 19.492s-1.5 3-4.5 3c-2.5 0-3-1.5-3-1.5s.5-1.5 3-1.5c3 0 4.5 3 4.5 3m13.5-6.75s-1.5 3-4.5 3c-2.5 0-3-1.5-3-1.5s.5-1.5 3-1.5c3 0 4.5 3 4.5 3"/></svg>