<svg xmlns="http://www.w3.org/2000/svg" viewBox="0 0 24 24" width="24" height="24"><g fill="none" stroke="#000" stroke-linecap="round" stroke-linejoin="round" stroke-miterlimit="10"><path d="M9.5 12.5L16 .5l6.568 12zm-9 1h4v8h-4zm4 6.5c10.729 3.577 6.771 3.613 19-2.5-1.062-1.062-1.902-1.313-3-1l-4.434 1.471"/><path d="M4.5 14.5h3c2.353 0 4 1.5 4.5 2h3c1.594 0 1.594 2 0 2H9.5m9.834-10s-1 2-3.334 2-3.334-2-3.334-2 1-2 3.334-2 3.334 2 3.334 2z"/><circle cx="16" cy="8.5" r=".5"/></g><path fill="none" d="M0 0h24v24H0z"/></svg>