<svg xmlns="http://www.w3.org/2000/svg" viewBox="0 0 24 24" width="24" height="24"><defs><style>.a{fill:none;stroke:#000;stroke-linecap:round;stroke-linejoin:round;stroke-width:1.5px}</style></defs><title>share-location-hand</title><path class="a" d="M2.25 14.25v9m15-1.5a3 3 0 0 0-3-3H10.5a3 3 0 0 0-3-3H2.25v6zm-9.75-3h3m7.285-2.222a27.3 27.3 0 0 0 3.56-7.648 17.2 17.2 0 0 0 .405-2.13 6 6 0 0 0-12 0 17.2 17.2 0 0 0 .4 2.13 26.715 26.715 0 0 0 3.342 7.3"/><circle class="a" cx="15.75" cy="6.75" r="2.25"/></svg>