<svg xmlns="http://www.w3.org/2000/svg" viewBox="0 0 24 24" width="24" height="24"><g fill="none" stroke="#000" stroke-linecap="round" stroke-linejoin="round" stroke-miterlimit="10"><path d="M16.5 3.5h-3v-3h-3v3h-3v3h3v7h3v-7h3zm-2 17h6v3h-6z"/><path d="M19.5 20.5v-1.531s3.187-3.155 4-3.969V6.938S21 6.031 21 13l-2.969 2.969.688-3c.344-1.438-.971-2.053-1.688-.938-.66 1.026-1.531 3.961-1.531 3.961V20.5m-12 0h6v3h-6zm1 0v-1.531S1.5 15.814.5 15V6.938S3 6.031 3 13l2.969 2.969-.688-3c-.344-1.438.971-2.053 1.688-.938.66 1.026 1.531 3.961 1.531 3.961V20.5"/></g><path fill="none" d="M0 0h24v24H0z"/></svg>