<svg id="Regular" xmlns="http://www.w3.org/2000/svg" viewBox="0 0 24 24" width="24" height="24"><defs><style>.cls-1{fill:none;stroke:#000;stroke-linecap:round;stroke-linejoin:round;stroke-width:1.5px}</style></defs><title>shark-fin</title><path class="cls-1" d="M.75 17.611c1.5 0 2.25 1.5 3.75 1.5s2.25-1.5 3.75-1.5 2.25 1.5 3.75 1.5 2.25-1.5 3.75-1.5 2.25 1.5 3.75 1.5 2.25-1.5 3.75-1.5m-22.5-3.75c1.5 0 2.25 1.5 3.75 1.5s2.25-1.5 3.75-1.5 2.25 1.5 3.75 1.5 2.25-1.5 3.75-1.5 2.25 1.5 3.75 1.5 2.25-1.5 3.75-1.5m-15.75-3a11.756 11.756 0 0 1 6.9-7.782c.615-.261 1.345.1 1.345.665v7.117"/></svg>