<svg xmlns="http://www.w3.org/2000/svg" viewBox="0 0 24 24" width="24" height="24"><g fill="none" stroke="#000" stroke-linecap="round" stroke-linejoin="round" stroke-miterlimit="10"><path d="M18.5 5.5s-1.833 4-6.5 4-6.5-4-6.5-4 1.833-4 6.5-4 6.5 4 6.5 4z"/><circle cx="12" cy="5.5" r="2"/><path d="M14.5 20.5h6v3h-6zm5 0v-1.531s3.187-3.155 4-3.969V6.938S21 6.031 21 13l-2.969 2.969.688-3c.344-1.438-.971-2.053-1.688-.938-.66 1.026-1.531 3.961-1.531 3.961V20.5m-12 0h6v3h-6zm1 0v-1.531S1.5 15.814.5 15V6.938S3 6.031 3 13l2.969 2.969-.688-3c-.344-1.438.971-2.053 1.688-.938.66 1.026 1.531 3.961 1.531 3.961V20.5"/></g><path fill="none" d="M0 0h24v24H0z"/></svg>