<svg id="Regular" xmlns="http://www.w3.org/2000/svg" viewBox="0 0 24 24" width="24" height="24"><defs><style>.cls-1{fill:none;stroke:#000;stroke-linecap:round;stroke-linejoin:round;stroke-width:1.5px}</style></defs><title>shark-swordfish-fish</title><path class="cls-1" d="M11.217 18.28a9.412 9.412 0 0 1 3.506-1.33.75.75 0 0 1 .76 1.077 8.986 8.986 0 0 0-.926 4.426.75.75 0 0 1-1.064.719 5.211 5.211 0 0 1-2.733-2.689s-6.18.25-7.317-5.347C2.5 10.487 6.005 6.476 11.755 4.6S22.7 1.1 22.7 1.1"/><path class="cls-1" d="M18.1 2.559a5.837 5.837 0 0 1-.651 6.041c-2.078 2.633-6.172 1.117-8.25 3.75a4.508 4.508 0 0 0-.75 3.75m4.396-11.85a14.628 14.628 0 0 0-3.937-2.921.751.751 0 0 0-.849.11 12.553 12.553 0 0 0-4.11 9.21M14.074 6.35a.375.375 0 0 0-.375.375m.75 0a.375.375 0 0 0-.375-.375m0 .75a.375.375 0 0 0 .375-.375m-.749 0a.375.375 0 0 0 .375.375"/></svg>