<svg id="Regular" xmlns="http://www.w3.org/2000/svg" viewBox="0 0 24 24" width="24" height="24"><defs><style>.cls-1{fill:none;stroke:#000;stroke-linecap:round;stroke-linejoin:round;stroke-width:1.5px}</style></defs><title>shark</title><path class="cls-1" d="M15.551 15.8a14.434 14.434 0 0 0 3.679-1.84 6.64 6.64 0 0 0 2.87 2.98.751.751 0 0 0 1.1-.807 18.936 18.936 0 0 1 0-7.666.751.751 0 0 0-1.1-.807 7.123 7.123 0 0 0-1.864 1.466 2.25 2.25 0 0 1-2.676.515 18.259 18.259 0 0 0-5.58-1.686 9.561 9.561 0 0 1 .085-2.836.75.75 0 0 0-.924-.853 4.951 4.951 0 0 0-4.027 3.848C3.369 8.9 1.05 11.082 1.05 12.3c0 1.438 3.2 4.253 8.2 4.485v.033a5.191 5.191 0 0 0 1.95 1.818.75.75 0 0 0 1.1-.665V15.3m-6.375-3.75a.375.375 0 0 1 .375.375m-.75 0a.375.375 0 0 1 .375-.375m0 .75a.375.375 0 0 1-.375-.375m.75 0a.375.375 0 0 1-.375.375M9.3 10.8l.75 1.5m1.5-1.5l.75 1.5"/></svg>