<svg id="Regular" xmlns="http://www.w3.org/2000/svg" viewBox="0 0 24 24" width="24" height="24"><defs><style>.cls-1{fill:none;stroke:#000;stroke-linecap:round;stroke-linejoin:round;stroke-width:1.5px}</style></defs><title>shellfish-lobster</title><path class="cls-1" d="M15.387 14.018c0 4.365-1.405 8.563-3.137 8.563s-3.137-4.2-3.137-8.563a3.147 3.147 0 0 1 3.137-1.976 3.147 3.147 0 0 1 3.137 1.976z"/><path class="cls-1" d="M9.113 14.018L8.486 12.8c0-4.317 2.514-6.78 3.764-6.78s3.764 2.463 3.764 6.775l-.627 1.223m-5.666 4.909l-2.2 2.927a.754.754 0 0 0 .345 1.16 2.543 2.543 0 0 0 3.306-.989m3.609-3.095l2.194 2.924a.754.754 0 0 1-.345 1.16 2.543 2.543 0 0 1-3.306-.989m-4.075-5.642a4.557 4.557 0 0 1 3-1.33 4.624 4.624 0 0 1 3 1.33"/><path class="cls-1" d="M9.743 19.01a4.023 4.023 0 0 1 2.507-.946 4.023 4.023 0 0 1 2.507.946m-1.01-12.226l1.514-2.27a15.2 15.2 0 0 1 7.528 13.55M10.753 6.784l-1.514-2.27a15.2 15.2 0 0 0-7.528 13.55M17.17 3.008A3.057 3.057 0 0 1 19.778.75c1.663 0 3.011 2.022 3.011 4.517a6.308 6.308 0 0 1-.4 2.258M19.778.75v3.011M7.33 3.008A3.057 3.057 0 0 0 4.722.75c-1.663 0-3.011 2.022-3.011 4.517a6.308 6.308 0 0 0 .4 2.258M4.722.75v3.011m10.639 11.292h2.911m-3.145 2.225l3.145.786m-9.129-3.011H6.228m3.145 2.225l-3.145.786"/></svg>