<svg id="Regular" xmlns="http://www.w3.org/2000/svg" viewBox="0 0 24 24" width="24" height="24"><defs><style>.cls-1{fill:none;stroke:#000;stroke-linecap:round;stroke-linejoin:round;stroke-width:1.5px}</style></defs><title>shelf-books-1</title><path class="cls-1" d="M21.75 23.25a1.5 1.5 0 0 0 0-3H2.25a1.5 1.5 0 0 0 0 3zm0-12a1.5 1.5 0 0 0 0-3H2.25a1.5 1.5 0 0 0 0 3zm-16 3h2.5v6h-3v-5.5a.5.5 0 0 1 .5-.5zm2.5 0h3v6h-3zm3 0h2.5a.5.5 0 0 1 .5.5v5.5h-3v-6zm2-12h2.5v6h-3v-5.5a.5.5 0 0 1 .5-.5zm2.5 0h2.5a.5.5 0 0 1 .5.5v5.5h-3v-6zm6 6V.75m0 19.5v-9m-19.5-3V.75m0 19.5v-9"/></svg>