<svg id="Regular" xmlns="http://www.w3.org/2000/svg" viewBox="0 0 24 24" width="24" height="24"><defs><style>.cls-1{fill:none;stroke:#000;stroke-linecap:round;stroke-linejoin:round;stroke-width:1.5px}</style></defs><title>shelf-books</title><rect class="cls-1" x=".75" y=".75" width="22.5" height="22.5" rx="1.5" ry="1.5"/><path class="cls-1" d="M.75 12.75h22.5m-22.5-6h3v6h-3zm3 0h3v6h-3zm3 0h2.5a.5.5 0 0 1 .5.5v5.5h-3v-6zm2 10.5h2.5v6h-3v-5.5a.5.5 0 0 1 .5-.5zm2.5 0h3v6h-3zm3 0h2.5a.5.5 0 0 1 .5.5v5.5h-3v-6zm3.5-10.5h2.5v6h-3v-5.5a.5.5 0 0 1 .5-.5zm2.5 0h3v6h-3z"/></svg>