<svg id="Regular" xmlns="http://www.w3.org/2000/svg" viewBox="0 0 24 24" width="24" height="24"><defs><style>.cls-1{fill:none;stroke:#000;stroke-linecap:round;stroke-linejoin:round;stroke-width:1.5px}</style></defs><title>shelf-tv</title><path class="cls-1" d="M2.25 15a.75.75 0 0 0-.75.75v6a.75.75 0 0 0 .75.75h3a.75.75 0 0 0 .75-.75v-1.5a.75.75 0 0 1 .75-.75h10.5a.75.75 0 0 1 .75.75v1.5a.75.75 0 0 0 .75.75h3a.75.75 0 0 0 .75-.75v-6a.75.75 0 0 0-.75-.75z"/><rect class="cls-1" x="4.5" y="1.5" width="15" height="10.5" rx="1.5" ry="1.5"/><path class="cls-1" d="M10.5 12l-.75 3m3.75-3l.75 3"/></svg>