<svg id="Regular" xmlns="http://www.w3.org/2000/svg" viewBox="0 0 24 24" width="24" height="24"><defs><style>.cls-1{fill:none;stroke:#000;stroke-linecap:round;stroke-linejoin:round;stroke-width:1.5px}</style></defs><title>shelf-books-round</title><circle class="cls-1" cx="12" cy="12" r="11.25"/><path class="cls-1" d="M3.75 23.25h16.5M.775 12.75h22.45m-15.975-6h2.5v6h-3v-5.5a.5.5 0 0 1 .5-.5zm2.5 0h2.5a.5.5 0 0 1 .5.5v5.5h-3v-6zm3 16.475V17.25H10.5a.75.75 0 0 0-.75.75v5.025m6-.416V18a.75.75 0 0 0-.75-.75h-2.25v5.975"/></svg>