<svg id="Regular" xmlns="http://www.w3.org/2000/svg" viewBox="0 0 24 24" width="24" height="24"><defs><style>.cls-1{fill:none;stroke:#000;stroke-linecap:round;stroke-linejoin:round;stroke-width:1.5px}</style></defs><title>shellfish-crab</title><path class="cls-1" d="M19.087 13.494a7.235 7.235 0 0 1-14.47 0l2.825-2.26A2.9 2.9 0 0 1 9.25 10.6h5.205a2.9 2.9 0 0 1 1.808.634zM5.22 16.388c-3.415 0-4.05 2.213-4.22 2.894m5.489-.932c-2.93 1.438-2.535 3.76-2.4 4.4m14.396-6.362c3.415 0 4.05 2.213 4.22 2.894m-5.489-.932c2.93 1.438 2.535 3.76 2.4 4.4M6.225 7.864c-1.671 1.386-3.612 1.312-4.632.082S.859 4.8 2.53 3.409A13.945 13.945 0 0 1 4.947 1.84a.723.723 0 0 1 1.038.81l-.494 2.063 2.119-.1a.724.724 0 0 1 .6 1.17 14.017 14.017 0 0 1-1.985 2.081z"/><path class="cls-1" d="M1.9 8.256A3.169 3.169 0 0 0 1 10.6c0 2.171 1.447 2.894 3.617 2.894m12.863-5.63c1.671 1.386 3.612 1.312 4.632.082s.734-3.151-.937-4.537a13.945 13.945 0 0 0-2.417-1.569.723.723 0 0 0-1.038.81l.494 2.063-2.119-.1a.724.724 0 0 0-.6 1.17 14.017 14.017 0 0 0 1.985 2.081z"/><path class="cls-1" d="M21.808 8.256a3.169 3.169 0 0 1 .9 2.344c0 2.171-1.447 2.894-3.618 2.894m-9.046-5.801a.375.375 0 0 1 .375.375m-.75 0a.375.375 0 0 1 .375-.375m0 .75a.375.375 0 0 1-.375-.375m.75 0a.375.375 0 0 1-.375.375m3.617-.75a.375.375 0 0 1 .375.375m-.75 0a.375.375 0 0 1 .375-.375m0 .75a.375.375 0 0 1-.375-.375m.75 0a.375.375 0 0 1-.375.375m-3.256 5.775v2.17m2.894-2.17v2.17"/></svg>