<svg id="Regular" xmlns="http://www.w3.org/2000/svg" viewBox="0 0 24 24" width="24" height="24"><defs><style>.cls-1{fill:none;stroke:#000;stroke-linecap:round;stroke-linejoin:round;stroke-width:1.5px}</style></defs><title>shellfish-shrimp</title><path class="cls-1" d="M9.571 10.5a4.5 4.5 0 0 1 0 9h-.75v-1.368a.752.752 0 0 0-.97-.718 2.727 2.727 0 0 0-2.03 2.836 3.026 3.026 0 0 0-2.576 1.911.75.75 0 0 0 .669 1.089h7.157a9 9 0 1 0 0-18H2.4a.751.751 0 0 0-.693 1.05c.658 1.527 2.193 4.2 4.864 4.2zm3.218 1.355L10.321 13.5m3.639-7.776c1.583 3.958-.914 5.346-1.7 5.667M14.071 15a5.132 5.132 0 0 0 5.967.024m-8.81 4.161a5.215 5.215 0 0 0-.157 4.065M9.2 7.5a.375.375 0 0 1 .375.375m-.754 0A.375.375 0 0 1 9.2 7.5m0 .75a.375.375 0 0 1-.375-.375m.746 0a.375.375 0 0 1-.371.375"/><path class="cls-1" d="M8.071 5.25a2.25 2.25 0 0 1 0-4.5h12"/></svg>