<svg id="Regular" xmlns="http://www.w3.org/2000/svg" viewBox="0 0 24 24" width="24" height="24"><defs><style>.cls-1{fill:none;stroke:#000;stroke-linecap:round;stroke-linejoin:round;stroke-width:1.5px}</style></defs><title>shelf-drawers</title><rect class="cls-1" x="3" y="12.5" width="18" height="9" rx="1.5" ry="1.5"/><path class="cls-1" d="M4.5 21.5V23m15-1.5V23M12 21.5v-9m-3 4.125a.375.375 0 1 1-.375.375.375.375 0 0 1 .375-.375m6 0a.375.375 0 1 1-.375.375.375.375 0 0 1 .375-.375M4.5 12.5V.5m15 12V.5M3 3.5h18M3 8h18"/></svg>