<svg id="Regular" xmlns="http://www.w3.org/2000/svg" viewBox="0 0 24 24" width="24" height="24"><defs><style>.cls-1{fill:none;stroke:#000;stroke-linecap:round;stroke-linejoin:round;stroke-width:1.5px}</style></defs><title>shell-1</title><path class="cls-1" d="M17.77 6.7a1.5 1.5 0 0 1-.17-2.17l1.287-1.43A1.553 1.553 0 0 0 17.6.75H6.4A1.553 1.553 0 0 0 5.113 3.1L6.4 4.53a1.505 1.505 0 0 1-.17 2.17C4.275 8.289.75 11.782.75 16.267c0 3.857 5.037 6.983 11.25 6.983s11.25-3.126 11.25-6.983c0-4.485-3.525-7.978-5.48-9.567zM6 10.5a14.262 14.262 0 0 0-.7 11.376M18 10.5a14.262 14.262 0 0 1 .7 11.376M9.75 12.75s-2.475 5.774.362 10.4m4.138-10.4a18.058 18.058 0 0 1-.2 10.384"/></svg>