<svg xmlns="http://www.w3.org/2000/svg" viewBox="0 0 24 24" width="24" height="24"><g fill="none" stroke="#000" stroke-linejoin="round" stroke-miterlimit="10"><path d="M2.55 16.073l2.971-4.037-3.073-4.252m8.464 12.992L8 17.5H3.479m17.104 0H16l-2.979 3.352m8.496-12.98L18.5 12.016l2.98 4.064M13.088 3.224L16 6.5h4.521m-17.042 0H8l2.98-3.354"/><circle cx="2" cy="6.5" r="1.5"/><circle cx="12" cy="2" r="1.5"/><circle cx="12" cy="22" r="1.5"/><circle cx="22" cy="6.5" r="1.5"/><circle cx="2" cy="17.5" r="1.5"/><circle cx="22" cy="17.5" r="1.5"/><circle cx="12" cy="12" r="4.5"/><path d="M2.55 16.073l2.971-4.037-3.073-4.252m8.464 12.992L8 17.5H3.479m17.104 0H16l-2.979 3.352m8.496-12.98L18.5 12.016l2.98 4.064M13.088 3.224L16 6.5h4.521m-17.042 0H8l2.98-3.354"/><circle cx="2" cy="6.5" r="1.5"/><circle cx="12" cy="2" r="1.5"/><circle cx="12" cy="22" r="1.5"/><circle cx="22" cy="6.5" r="1.5"/><circle cx="2" cy="17.5" r="1.5"/><circle cx="22" cy="17.5" r="1.5"/><circle cx="12" cy="12" r="4.5"/></g><path fill="none" d="M0 0h24v24H0z"/></svg>