<svg xmlns="http://www.w3.org/2000/svg" viewBox="0 0 24 24" width="24" height="24"><circle fill="none" stroke="#000" stroke-linecap="round" stroke-linejoin="round" stroke-miterlimit="10" cx="11.5" cy="11.5" r="11"/><circle fill="none" stroke="#000" stroke-linecap="round" stroke-linejoin="round" stroke-miterlimit="10" cx="11.5" cy="11.5" r="7"/><path fill="none" stroke="#000" stroke-linejoin="round" stroke-miterlimit="10" d="M7.5 5.804v11.44m4-12.744v14m4-12.746v11.49"/><path d="M11.5 2a.5.5 0 100 1 .5.5 0 000-1zm6.394 2.648a.502.502 0 10.354.854.502.502 0 00-.354-.854zm2.647 6.394a.5.5 0 10.002 1.002.5.5 0 00-.002-1.002zm-2.647 6.393a.5.5 0 100 .998.5.5 0 000-.998zM11.5 20.083a.5.5 0 10.002 1.002.5.5 0 00-.002-1.002zm-6.394-2.648a.5.5 0 100 .998.5.5 0 000-.998zm-2.648-6.393a.5.5 0 10.002 1.002.5.5 0 00-.002-1.002zm2.648-6.394a.502.502 0 10.354.854.502.502 0 00-.354-.854z"/><circle fill="none" stroke="#000" stroke-linecap="round" stroke-linejoin="round" stroke-miterlimit="10" cx="11.5" cy="11.5" r="11"/><circle fill="none" stroke="#000" stroke-linecap="round" stroke-linejoin="round" stroke-miterlimit="10" cx="11.5" cy="11.5" r="7"/><path fill="none" stroke="#000" stroke-linejoin="round" stroke-miterlimit="10" d="M7.5 5.804v11.44m4-12.744v14m4-12.746v11.49"/><path d="M11.5 2a.5.5 0 100 1 .5.5 0 000-1zm6.394 2.648a.502.502 0 10.354.854.502.502 0 00-.354-.854zm2.647 6.394a.5.5 0 10.002 1.002.5.5 0 00-.002-1.002zm-2.647 6.393a.5.5 0 100 .998.5.5 0 000-.998zM11.5 20.083a.5.5 0 10.002 1.002.5.5 0 00-.002-1.002zm-6.394-2.648a.5.5 0 100 .998.5.5 0 000-.998zm-2.648-6.393a.5.5 0 10.002 1.002.5.5 0 00-.002-1.002zm2.648-6.394a.502.502 0 10.354.854.502.502 0 00-.354-.854z"/><g><path fill="none" d="M0 0h24v24H0z"/></g></svg>