<svg xmlns="http://www.w3.org/2000/svg" viewBox="0 0 24 24" width="24" height="24"><g fill="none" stroke="#000" stroke-linejoin="round" stroke-miterlimit="10"><path stroke-linecap="round" d="M11.507.5h-.016C9 2.998 1.5 5.021 1.5 5.021v10.811s2.5 4.166 10 7.668c7.5-3.502 10-7.668 10-7.668V5.021S14 2.998 11.507.5z"/><path d="M1.5 10.498h20"/><path stroke-linecap="round" d="M11.5 10.498V23.5m5-13.002v10.137m-10-10.137v10.137m5-17.317l.708 2.18H14.5l-1.854 1.135.708 2.075-1.854-1.4-1.854 1.321.708-1.983L8.5 5.498h2.292z"/></g><path fill="none" d="M0 0h24v24H0z"/></svg>