<svg xmlns="http://www.w3.org/2000/svg" viewBox="0 0 24 24" width="24" height="24"><g fill="none" stroke="#000" stroke-linejoin="round" stroke-miterlimit="10"><path stroke-linecap="round" d="M16.486 2.896A6.378 6.378 0 0111.507.5h-.017a6.376 6.376 0 01-4.979 2.396c-1.76 0-3.354-.69-5.012-1.849v14.812s1.449 5.245 10 7.641c9.5-2.5 10-8.084 10-8.084V.604c-2.659 1.076-3.253 2.292-5.013 2.292zM1.5 11.526L21.405 11M11.5.5v23"/><path d="M5.506 2.75v8.636m-2-9.136v9.136M7.5 2.875V11.5m2-9.343V11.5m4 0v11.125m2-11.125V22m2.006-10.516v9.547m2-9.547v8.078"/></g><path fill="none" d="M0 0h24v24H0z"/></svg>