<svg xmlns="http://www.w3.org/2000/svg" viewBox="0 0 24 24" width="24" height="24"><g fill="none" stroke="#000" stroke-linejoin="round" stroke-miterlimit="10"><path d="M9.73 5.536c2.14 1.575 2.02 4.626 1.18 5.898-.577-.472-1.091-.989-1.18-1.77-1.969.781-2.949 2.323-2.949 4.13a4.719 4.719 0 109.438 0c0-3.807-2.741-7.398-6.489-8.258z"/><path stroke-linecap="round" d="M11.508.5h-.017C9 2.998 1.5 5.021 1.5 5.021c0 7.962.5 14.962 10 18.479 9.5-3.518 10-10.518 10-18.479 0 0-7.5-2.023-9.992-4.521z"/><path d="M9.73 5.536c2.14 1.575 2.02 4.626 1.18 5.898-.577-.472-1.091-.989-1.18-1.77-1.969.781-2.949 2.323-2.949 4.13a4.719 4.719 0 109.438 0c0-3.807-2.741-7.398-6.489-8.258z"/><path stroke-linecap="round" d="M11.508.5h-.017C9 2.998 1.5 5.021 1.5 5.021c0 7.962.5 14.962 10 18.479 9.5-3.518 10-10.518 10-18.479 0 0-7.5-2.023-9.992-4.521z"/></g><path fill="none" d="M0 0h24v24H0z"/></svg>