<svg xmlns="http://www.w3.org/2000/svg" viewBox="0 0 24 24" width="24" height="24"><g fill="none" stroke="#000" stroke-linecap="round" stroke-linejoin="round" stroke-miterlimit="10"><path d="M11.508.5h-.017C9 2.998 1.5 5.02 1.5 5.02c0 7.96.5 14.96 10 18.48 9.5-3.52 10-10.52 10-18.48 0 0-7.5-2.022-9.992-4.52z"/><path d="M11.506 3.5h-.013C9.652 5.345 4.108 6.84 4.108 6.84c0 5.885.37 11.059 7.392 13.66 7.022-2.601 7.392-7.775 7.392-13.66 0 0-5.544-1.495-7.386-3.34zm-7.254 7.348l7.301-7.302M5.18 14.92l9.528-9.529m-7.519 12.52L18.391 6.708m-8.113 13.113l8.417-8.417"/></g><path fill="none" d="M0 0h24v24H0z"/></svg>