<svg xmlns="http://www.w3.org/2000/svg" viewBox="0 0 24 24" width="24" height="24"><defs><style>.a{fill:none;stroke:#000;stroke-linecap:round;stroke-linejoin:round;stroke-width:1.5px}</style></defs><title>shield-bug</title><path class="a" d="M2.25 3.923v7.614A11.907 11.907 0 0 0 9.882 22.65l1.041.4a3 3 0 0 0 2.154 0l1.041-.4a11.907 11.907 0 0 0 7.632-11.113V3.923a1.487 1.487 0 0 0-.868-1.362A21.7 21.7 0 0 0 12 .75a21.7 21.7 0 0 0-8.882 1.811 1.487 1.487 0 0 0-.868 1.362z"/><path class="a" d="M17.3 12.985a2.231 2.231 0 0 0-.621-.439l1.682-1.682-1.679-1.682a2.25 2.25 0 0 1-3-3L12 4.5l-1.682 1.682a2.25 2.25 0 1 0-3 3l-1.682 1.682 1.682 1.682a2.25 2.25 0 0 1 3 3L12 17.228l1.682-1.682a2.25 2.25 0 1 0 3.618-2.561z"/></svg>