<svg xmlns="http://www.w3.org/2000/svg" viewBox="0 0 24 24" width="24" height="24"><g fill="none" stroke="#000" stroke-linecap="round" stroke-linejoin="round" stroke-miterlimit="10"><path d="M11.507.5h-.016C9 2.998 1.5 5.021 1.5 5.021c0 7.961.5 14.961 10 18.479 9.5-3.518 10-10.518 10-18.479 0 0-7.5-2.023-9.993-4.521z"/><path d="M11.506 3.5h-.012C9.652 5.346 4.108 6.842 4.108 6.842c0 5.883.37 11.058 7.392 13.658 7.022-2.6 7.392-7.774 7.392-13.658 0 0-5.544-1.496-7.386-3.342zm5.881 12.332L7.333 5.779M4.277 6.795l11.321 11.32"/></g><path fill="none" d="M0 0h24v24H0z"/></svg>