<svg xmlns="http://www.w3.org/2000/svg" viewBox="0 0 24 24" width="24" height="24"><g fill="none" stroke="#000" stroke-linecap="round" stroke-linejoin="round" stroke-miterlimit="10"><path d="M11.508.5h-.016C9 2.997 1.5 5.021 1.5 5.021c0 7.96.5 14.96 10 18.479 9.5-3.52 10-10.52 10-18.479 0 0-7.5-2.024-9.992-4.521z"/><path d="M15.5 17.5h-8v-2h-1v-6a2 2 0 012-2h6a2 2 0 012 2v6h-1v2zm-6 0v-2.979m4 2.979v-2.979m-2 2.979v-2.979"/><circle cx="9.5" cy="11" r="1"/><circle cx="13.5" cy="11" r="1"/></g><path fill="none" d="M0 0h24v24H0z"/></svg>