<svg xmlns="http://www.w3.org/2000/svg" viewBox="0 0 24 24" width="24" height="24"><defs><style>.a{fill:none;stroke:#000;stroke-linecap:round;stroke-linejoin:round;stroke-width:1.5px}</style></defs><title>shipment-smartphone-1</title><path class="a" d="M22.389 18.04V21a2.137 2.137 0 0 1-2 2.25h-4.025a2.137 2.137 0 0 1-2-2.25v-8.96a2.138 2.138 0 0 1 2-2.25h4.022a2.138 2.138 0 0 1 2 2.25zm-8.028 2.21h8.011m-8.761-13.5V4.5a1.5 1.5 0 0 0-.829-1.342l-4.5-2.25a1.5 1.5 0 0 0-1.342 0l-4.5 2.25A1.5 1.5 0 0 0 1.611 4.5v4.9a1.5 1.5 0 0 0 .829 1.342l4.5 2.249a1.5 1.5 0 0 0 1.342 0l2.983-1.491"/><path class="a" d="M13.373 3.692L7.611 6.573 1.849 3.692m5.762 2.881v6.573"/></svg>