<svg xmlns="http://www.w3.org/2000/svg" viewBox="0 0 24 24" width="24" height="24"><defs><style>.a{fill:none;stroke:#000;stroke-linecap:round;stroke-linejoin:round;stroke-width:1.5px}</style></defs><title>shipment-truck-2</title><circle class="a" cx="18" cy="19.875" r="1.5"/><circle class="a" cx="5.25" cy="19.875" r="1.5"/><path class="a" d="M14.25 15.375H1.728a.978.978 0 0 0-.978.978v2.022a1.5 1.5 0 0 0 1.5 1.5h1.5m19.5-7.5h-5a.974.974 0 0 1-1-.946V6.375m-3 13.5h-7.5m16.5-3h-1.957"/><path class="a" d="M19.5 19.875h2.25a1.5 1.5 0 0 0 1.5-1.5v-7.5a4.5 4.5 0 0 0-4.5-4.5h-4.5v13.5h2.25m-2.25-13.5v-.644a3 3 0 0 0-1.336-2.5L12 2.625"/></svg>