<svg xmlns="http://www.w3.org/2000/svg" viewBox="0 0 24 24" width="24" height="24"><defs><style>.a{fill:none;stroke:#000;stroke-linecap:round;stroke-linejoin:round;stroke-width:1.5px}</style></defs><title>shipment-lift</title><path class="a" d="M2.217 15.75L6.75 12l4.272 3.75M6.75 5.25V12"/><rect class="a" x="20.25" y="9" width="3" height="4.5" rx=".433" ry=".433"/><rect class="a" x=".75" y="15.75" width="12" height="7.5" rx=".645" ry=".645"/><path class="a" d="M3.75 18.75v1.5m3-1.5v1.5m3-1.5v1.5m12-15V9M16.967.78a.865.865 0 0 1 .767.162L23.25 5.25H.75zm.283 8.253h-.5c-4-.473-4-3.31-4-3.31V5.25m4.5-4.453V23.25"/></svg>