<svg xmlns="http://www.w3.org/2000/svg" viewBox="0 0 24 24" width="24" height="24"><defs><style>.a{fill:none;stroke:#000;stroke-linecap:round;stroke-linejoin:round;stroke-width:1.5px}</style></defs><title>shipment-sign-smartphone</title><path class="a" d="M20.25 18.04V21A2.25 2.25 0 0 1 18 23.25h-4.519a2.25 2.25 0 0 1-2.25-2.25v-8.96a2.25 2.25 0 0 1 2.25-2.25h3.769m-6.019 10.46h9"/><path class="a" d="M20.747 10.066l-6.34 4.794-.926 2.661 2.812-.168 6.339-4.8a1.557 1.557 0 0 0 .3-2.182l-.005-.008a1.557 1.557 0 0 0-2.18-.297zM12.75 6.75V4.5a1.5 1.5 0 0 0-.829-1.342l-4.5-2.25a1.5 1.5 0 0 0-1.342 0l-4.5 2.25A1.5 1.5 0 0 0 .75 4.5v4.9a1.5 1.5 0 0 0 .829 1.342l4.5 2.249a1.5 1.5 0 0 0 1.342 0l.758-.379"/><path class="a" d="M12.513 3.692L6.75 6.573.987 3.692M6.75 6.573v6.573"/></svg>