<svg xmlns="http://www.w3.org/2000/svg" viewBox="0 0 24 24" width="24" height="24"><defs><style>.a{fill:none;stroke:#000;stroke-linecap:round;stroke-linejoin:round;stroke-width:1.5px}</style></defs><title>shipment-smartphone-arrive</title><path class="a" d="M14.25 19.5v.75a3 3 0 0 1-3 3h-7.5a3 3 0 0 1-3-3V3.75a3 3 0 0 1 3-3h6.75"/><path class="a" d="M12.829 3.908l-4.5 2.25A1.5 1.5 0 0 0 7.5 7.5v4.9a1.5 1.5 0 0 0 .829 1.342l4.5 2.249a1.5 1.5 0 0 0 1.342 0l4.5-2.25A1.5 1.5 0 0 0 19.5 12.4V7.5a1.5 1.5 0 0 0-.829-1.342l-4.5-2.25a1.5 1.5 0 0 0-1.342 0z"/><path class="a" d="M19.263 6.692L13.5 9.573 7.738 6.692M13.5 9.573v6.573m6.787-13.097l-.46.592m-2.37-1.839L17.324.75m4.874 4.73l1.052-.133M.75 18.52h7.5"/></svg>