<svg xmlns="http://www.w3.org/2000/svg" viewBox="0 0 24 24" width="24" height="24"><defs><style>.a{fill:none;stroke:#000;stroke-linecap:round;stroke-linejoin:round;stroke-width:1.5px}</style></defs><title>shipment-barcode</title><path class="a" d="M15.75 9.163a.524.524 0 0 1-.271.457.547.547 0 0 1-.54-.007L12 8.25 9.033 9.691a.544.544 0 0 1-.525-.017.523.523 0 0 1-.258-.449V.75h7.5zm1.5 11.087v-6m-3 6v-1.379m-3 1.379v-5.781"/><rect class="a" x=".75" y=".75" width="22.5" height="22.5" rx="1.5" ry="1.5"/><path class="a" d="M14.25 16.426v-1.957m6 5.562v-1.379m0-2.445V14.25"/></svg>