<svg xmlns="http://www.w3.org/2000/svg" viewBox="0 0 24 24" width="24" height="24"><defs><style>.a{fill:none;stroke:#000;stroke-linecap:round;stroke-linejoin:round;stroke-width:1.5px}</style></defs><title>shipment-next</title><path class="a" d="M20.25 12l3 3-3 3"/><path class="a" d="M23.25 15h-3a7.5 7.5 0 0 0-7.5 7.5m-4.5-3h-6A1.5 1.5 0 0 1 .75 18V7.5A1.5 1.5 0 0 1 2.25 6h15a1.5 1.5 0 0 1 1.5 1.5V9"/><path class="a" d="M18.266 6.4l-2.821-4.232A1.5 1.5 0 0 0 14.2 1.5H5.3a1.5 1.5 0 0 0-1.248.668L1.234 6.4M9.75 1.5V6"/></svg>