<svg xmlns="http://www.w3.org/2000/svg" viewBox="0 0 24 24" width="24" height="24"><defs><style>.a{fill:none;stroke:#000;stroke-linecap:round;stroke-linejoin:round;stroke-width:1.5px}</style></defs><title>shipment-weight-kg</title><circle class="a" cx="12" cy="14.25" r="9"/><path class="a" d="M7.5 18v-7.5m3 7.5l-3-3.75 3-3.75m5.25 4.5h.75v1.5a1.5 1.5 0 0 1-3 0V12a1.5 1.5 0 0 1 1.5-1.5h1.5m.417-3.789C16.768 5.3 16.6 3.889 16.5 2.474a1.989 1.989 0 0 0-.345-1.185A1.5 1.5 0 0 0 15 .75H9a1.5 1.5 0 0 0-1.151.539A1.99 1.99 0 0 0 7.5 2.474c-.1 1.415-.268 2.826-.416 4.237"/></svg>