<svg xmlns="http://www.w3.org/2000/svg" viewBox="0 0 24 24" width="24" height="24"><defs><style>.a{fill:none;stroke:#000;stroke-linecap:round;stroke-linejoin:round;stroke-width:1.5px}</style></defs><title>shipment-touch</title><path class="a" d="M19.646 23.25l.306-3.372a3 3 0 0 0-2.337-3.2l-3.83-.851v-4.952a1.875 1.875 0 0 0-3.75 0v9.375l-1.841-1.381a1.67 1.67 0 0 0-2.138 2.561l1.962 1.82"/><path class="a" d="M7.035 14.25h-1.5a1.5 1.5 0 0 1-1.5-1.5V2.25a1.5 1.5 0 0 1 1.5-1.5h12a1.5 1.5 0 0 1 1.5 1.5v10.5a1.5 1.5 0 0 1-1.5 1.5h-.75"/><path class="a" d="M9.285.75h4.5V6h-4.5z"/></svg>