<svg xmlns="http://www.w3.org/2000/svg" viewBox="0 0 24 24" width="24" height="24"><defs><style>.a{fill:none;stroke:#000;stroke-linecap:round;stroke-linejoin:round;stroke-width:1.5px}</style></defs><title>shipment-crane-hook</title><path class="a" d="M12 12.75v3m3.75 3.75A3.75 3.75 0 1 1 12 15.75m2.475-3.27a.751.751 0 0 1-.576.27H10.1a.751.751 0 0 1-.576-.27l-3.35-4.021A.754.754 0 0 1 6 7.978V1.5a.75.75 0 0 1 .75-.75h10.5a.75.75 0 0 1 .75.75v6.478a.754.754 0 0 1-.174.481zM6 7.5L12.75.75M9.068 11.932L18 3"/></svg>