<svg xmlns="http://www.w3.org/2000/svg" viewBox="0 0 24 24" width="24" height="24"><defs><style>.a{fill:none;stroke:#000;stroke-linecap:round;stroke-linejoin:round;stroke-width:1.5px}</style></defs><title>shipment-online-monitor-1</title><path class="a" d="M8.25 23.25h7.5"/><rect class="a" x=".75" y=".75" width="22.5" height="18.75" rx="2" ry="2"/><path class="a" d="M12 23.25V19.5m-.671-15.414l-4.5 2.25A1.5 1.5 0 0 0 6 7.677v4.9a1.5 1.5 0 0 0 .829 1.342l4.5 2.25a1.5 1.5 0 0 0 1.342 0l4.5-2.25A1.5 1.5 0 0 0 18 12.573v-4.9a1.5 1.5 0 0 0-.829-1.341l-4.5-2.25a1.5 1.5 0 0 0-1.342.004z"/><path class="a" d="M17.762 6.869L12 9.75 6.224 6.889M12 9.75v6.573"/></svg>