<svg xmlns="http://www.w3.org/2000/svg" viewBox="0 0 24 24" width="24" height="24"><defs><style>.a{fill:none;stroke:#000;stroke-linecap:round;stroke-linejoin:round;stroke-width:1.5px}</style></defs><title>shipment-lift-1</title><path class="a" d="M2.217 12.727l4.533-3.75 4.272 3.75m-4.272-7.5v3.75"/><rect class="a" x="20.25" y="8.977" width="3" height="4.5" rx=".433" ry=".433"/><rect class="a" x=".75" y="12.727" width="12" height="7.5" rx=".645" ry=".645"/><path class="a" d="M3.75 15.727v1.5m3-1.5v1.5m3-1.5v1.5m12-12v3.75m-3 6.75v7.5m0-22.454v6.704m-3.75 3v12.75M15 .773v9.704M.75 5.227H15m3.75 0h4.5m-5.7 8.25L15 15.727l3.75 3-3.75 3m0-20.25l3.75 3L15 8.227l2.547 2.246"/></svg>