<svg xmlns="http://www.w3.org/2000/svg" viewBox="0 0 24 24" width="24" height="24"><defs><style>.a{fill:none;stroke:#000;stroke-linecap:round;stroke-linejoin:round;stroke-width:1.5px}</style></defs><title>shipment-packages</title><path class="a" d="M12 12H2.625A1.914 1.914 0 0 0 .75 13.95v5.85a1.914 1.914 0 0 0 1.875 1.95h7.5A1.913 1.913 0 0 0 12 19.8V12"/><path class="a" d="M4.5 12h3.75v5.25H4.5zm12.75 0V4.2a1.913 1.913 0 0 0-1.875-1.95h-7.5A1.914 1.914 0 0 0 6 4.2V12"/><path class="a" d="M9.75 2.25h3.75V7.5H9.75zM12 12v7.8a1.914 1.914 0 0 0 1.875 1.95h7.5a1.913 1.913 0 0 0 1.875-1.95v-5.85A1.913 1.913 0 0 0 21.375 12H12"/><path class="a" d="M15.75 12h3.75v5.25h-3.75z"/></svg>