<svg xmlns="http://www.w3.org/2000/svg" viewBox="0 0 24 24" width="24" height="24"><defs><style>.a{fill:none;stroke:#000;stroke-linecap:round;stroke-linejoin:round;stroke-width:1.5px}</style></defs><title>shipment-cargo-boat</title><path class="a" d="M.75 23.25a5.511 5.511 0 0 0 4.5-1.5 4.547 4.547 0 0 0 6.75 0 4.547 4.547 0 0 0 6.75 0 5.511 5.511 0 0 0 4.5 1.5m-.369-3.05l.264-2.111a.751.751 0 0 0-.745-.843H1.5a.751.751 0 0 0-.748.818 8.143 8.143 0 0 0 .538 2.266"/><path class="a" d="M21.75 17.25h-6v-12a1.5 1.5 0 0 1 1.5-1.5h3a1.5 1.5 0 0 1 1.5 1.5zM2.25 13.5h6v3.75h-6zm13.5 0h-7.5v3.75m0-7.5h-4.5a1.5 1.5 0 0 0-1.5 1.5v2.25h6zm7.5 0h-7.5v3.75h7.5m3-6.75h-3m3.75-3v-3"/></svg>