<svg xmlns="http://www.w3.org/2000/svg" viewBox="0 0 24 24" width="24" height="24"><defs><style>.a{fill:none;stroke:#000;stroke-linecap:round;stroke-linejoin:round;stroke-width:1.5px}</style></defs><title>shipment-fragile</title><path class="a" d="M15.75 9.163a.524.524 0 0 1-.271.457.547.547 0 0 1-.54-.007L12 8.25 9.033 9.691a.544.544 0 0 1-.525-.017.523.523 0 0 1-.258-.449V.75h7.5z"/><rect class="a" x=".75" y=".75" width="22.5" height="22.5" rx="1.5" ry="1.5"/><path class="a" d="M15.75 15L18 12.75 20.25 15M18 12.75v7.5m-6.75-3v3m-1.5 0h3m-1.5-3a2.081 2.081 0 0 1-1.974-1.423 2.278 2.278 0 0 1-.056-1.485l.53-1.592h3l.531 1.592a2.311 2.311 0 0 1-.056 1.485 2.082 2.082 0 0 1-1.975 1.423z"/></svg>