<svg xmlns="http://www.w3.org/2000/svg" viewBox="0 0 24 24" width="24" height="24"><defs><style>.a{fill:none;stroke:#000;stroke-linecap:round;stroke-linejoin:round;stroke-width:1.5px}</style></defs><title>shipment-truck</title><circle class="a" cx="17.25" cy="21" r="2.25"/><circle class="a" cx="3" cy="21" r="2.25"/><circle class="a" cx="9.75" cy="21" r="2.25"/><path class="a" d="M9.75 18.75V2.8C9.75 1.666 9.1.75 8.306.75H.75M7.5 21H5.25m18-8.25h-3.141A2.036 2.036 0 0 1 18 10.8V6M.75 15h9m-7.5-3V3.818M6 12V3.818"/><path class="a" d="M19.5 21h2.25a1.5 1.5 0 0 0 1.5-1.5v-9a4.5 4.5 0 0 0-4.5-4.5H13.5v12m0-12V2.25c2.665-.131 4.255 1.36 5.25 3.75"/></svg>