<svg xmlns="http://www.w3.org/2000/svg" viewBox="0 0 24 24" width="24" height="24"><defs><style>.a{fill:none;stroke:#000;stroke-linecap:round;stroke-linejoin:round;stroke-width:1.5px}</style></defs><title>shipment-give</title><path class="a" d="M3.75 23.25l-2.014-2.517a4.5 4.5 0 0 1-.986-2.811V12.75a1.5 1.5 0 0 1 1.5-1.5 1.5 1.5 0 0 1 1.5 1.5v3.75"/><path class="a" d="M8.25 23.114v-3a4.5 4.5 0 0 0-.757-2.5L6.351 15.9a1.4 1.4 0 0 0-1.977-.445A1.4 1.4 0 0 0 3.9 17.25l1.35 2.25m15 3.75l2.014-2.517a4.5 4.5 0 0 0 .986-2.811V12.75a1.5 1.5 0 0 0-1.5-1.5 1.5 1.5 0 0 0-1.5 1.5v3.75"/><path class="a" d="M15.75 23.114v-3a4.5 4.5 0 0 1 .757-2.5l1.142-1.714a1.4 1.4 0 0 1 1.977-.445 1.4 1.4 0 0 1 .474 1.795l-1.35 2.25M12 .75L6 4.179l6 3.428 6-3.428L12 .75z"/><path class="a" d="M7.5 12.75l4.5 2.572V7.607L6 4.179V9.75m10.5 3L12 15.322V7.607l6-3.428V9.75"/></svg>