<svg xmlns="http://www.w3.org/2000/svg" viewBox="0 0 24 24" width="24" height="24"><defs><style>.a{fill:none;stroke:#000;stroke-linecap:round;stroke-linejoin:round;stroke-width:1.5px}</style></defs><title>shipment-approve-smartphone</title><path class="a" d="M20.631 22.027a1.991 1.991 0 0 1-1.783 1.223h-4.022a2.137 2.137 0 0 1-2-2.25v-8.96a2.138 2.138 0 0 1 2-2.25l4.01-.026a2.135 2.135 0 0 1 2.015 2.249v.737m-8.028 7.5h3.355"/><path class="a" d="M23.25 14.25l-4.005 4.5-2.671-2.25M12.75 6.75V4.5a1.5 1.5 0 0 0-.829-1.342l-4.5-2.25a1.5 1.5 0 0 0-1.342 0l-4.5 2.25A1.5 1.5 0 0 0 .75 4.5v4.9a1.5 1.5 0 0 0 .829 1.342l4.5 2.249a1.5 1.5 0 0 0 1.342 0L10.4 11.5"/><path class="a" d="M12.512 3.692L6.75 6.573.988 3.692M6.75 6.573v6.573"/></svg>