<svg xmlns="http://www.w3.org/2000/svg" viewBox="0 0 24 24" width="24" height="24"><defs><style>.a{fill:none;stroke:#000;stroke-linecap:round;stroke-linejoin:round;stroke-width:1.5px}</style></defs><title>shipment-truck-1</title><circle class="a" cx="18" cy="21" r="2.25"/><path class="a" d="M23.25 21.293v-4.617a.977.977 0 0 0-.741-.948L17.25 14.25v-1.5a3.059 3.059 0 0 0-1.585-2.8l-2.2-1.373m.002 5.673h3.783m6 3.75h-1.5M.75 5.25H3m0 0h4.5V19.5H3zm3.75 0V2.581a1.5 1.5 0 0 0-1.026-1.423L4.5.75M3 19.5H.75m.069 2.283a1.948 1.948 0 0 0 3.775 0"/><path class="a" d="M7.5 19.5h6L13.467 9a3.729 3.729 0 0 0-3.711-3.75H7.5m0 17.25h4.079a1.5 1.5 0 0 0 1.455-1.136L13.5 19.5"/></svg>