<svg xmlns="http://www.w3.org/2000/svg" viewBox="0 0 24 24" width="24" height="24"><defs><style>.a{fill:none;stroke:#000;stroke-linecap:round;stroke-linejoin:round;stroke-width:1.5px}</style></defs><title>shipment-weight-lb</title><path class="a" d="M16.917 6.711C16.768 5.3 16.6 3.889 16.5 2.474a1.989 1.989 0 0 0-.345-1.185A1.5 1.5 0 0 0 15 .75H9a1.5 1.5 0 0 0-1.151.539A1.99 1.99 0 0 0 7.5 2.474c-.1 1.415-.268 2.826-.416 4.237"/><circle class="a" cx="12" cy="14.25" r="9"/><path class="a" d="M13.5 18v-7.5m0 0H15a1.5 1.5 0 0 1 1.5 1.5v.75a1.5 1.5 0 0 1-1.5 1.5h-1.5m0 0H15a1.5 1.5 0 0 1 1.5 1.5v.75A1.5 1.5 0 0 1 15 18h-1.5m-6-7.5v6A1.5 1.5 0 0 0 9 18h1.5"/></svg>