<svg xmlns="http://www.w3.org/2000/svg" viewBox="0 0 24 24" width="24" height="24"><defs><style>.a{fill:none;stroke:#000;stroke-linecap:round;stroke-linejoin:round;stroke-width:1.5px}</style></defs><title>shipment-crane</title><path class="a" d="M13.5 23.25l.75-15h3l.75 15m1.5-16.5a1.5 1.5 0 0 1-1.5 1.5h-4.5a1.5 1.5 0 0 1-1.5-1.5v-3.6a1.5 1.5 0 0 1 1.206-1.471l4.5-.9A1.5 1.5 0 0 1 19.5 2.25z"/><path class="a" d="M1.579 6.335a.751.751 0 0 0 .671.415H12v-3H1.5a.75.75 0 0 0-.671 1.085zm21.649-1.653a.75.75 0 0 0-.728-.932h-3v3h2.625a.751.751 0 0 0 .728-.568zM6.75 13.5a2.25 2.25 0 1 1-2.25-2.25m0 0v-4.5m7.5-1.5h3"/><rect class="a" x=".75" y="18.75" width="8.25" height="4.5" rx=".5" ry=".5"/></svg>