<svg xmlns="http://www.w3.org/2000/svg" viewBox="0 0 24 24" width="24" height="24"><defs><style>.a{fill:none;stroke:#000;stroke-linecap:round;stroke-linejoin:round;stroke-width:1.5px}</style></defs><title>shipment-international</title><path class="a" d="M7.538 21.75H6.75a1.5 1.5 0 0 1-1.5-1.5v-6a1.5 1.5 0 0 1 1.5-1.5h9a1.5 1.5 0 0 1 1.5 1.5v5.288m0-5.288h3a3 3 0 0 1 3 3v3a1.5 1.5 0 0 1-1.5 1.5h-2.288"/><circle class="a" cx="17.625" cy="21.375" r="1.875"/><circle class="a" cx="9.375" cy="21.375" r="1.875"/><path class="a" d="M15.788 21.75h-4.576m12.038-4.5h-3M1.757 13.891A9 9 0 1 1 18.75 9.75m-9-9a11.855 11.855 0 0 0-3.75 9m3.75-9a11.855 11.855 0 0 1 3.75 9m-12.237-3h16.971"/></svg>