<svg xmlns="http://www.w3.org/2000/svg" viewBox="0 0 24 24" width="24" height="24"><defs><style>.a{fill:none;stroke:#000;stroke-linecap:round;stroke-linejoin:round;stroke-width:1.5px}</style></defs><title>shipment-smartphone</title><path class="a" d="M16.5 16.5v3.75a3 3 0 0 1-3 3H6a3 3 0 0 1-3-3V3.75a3 3 0 0 1 3-3h1.5M3 18.52h13.5"/><path class="a" d="M14.329.908l-4.5 2.25A1.5 1.5 0 0 0 9 4.5v4.9a1.5 1.5 0 0 0 .829 1.342l4.5 2.249a1.5 1.5 0 0 0 1.342 0l4.5-2.25A1.5 1.5 0 0 0 21 9.4V4.5a1.5 1.5 0 0 0-.829-1.342l-4.5-2.25a1.5 1.5 0 0 0-1.342 0z"/><path class="a" d="M20.762 3.692L15 6.573 9.238 3.692M15 6.573v6.573"/></svg>