<svg xmlns="http://www.w3.org/2000/svg" viewBox="0 0 24 24" width="24" height="24"><defs><style>.a{fill:none;stroke:#000;stroke-linecap:round;stroke-linejoin:round;stroke-width:1.5px}</style></defs><title>shipment-in-transit</title><path class="a" d="M.766 13.222l2.937 1.487M.86 9.234l2.812 1.506M2.045 5.918l1.689 1.041m7.125-1.808l8.25 4.215m-5.047-5.852L7.874 6.676a2.113 2.113 0 0 0-1.14 1.885v6.879a2.113 2.113 0 0 0 1.141 1.885l6.187 3.161a2.022 2.022 0 0 0 1.845 0l6.187-3.161a2.112 2.112 0 0 0 1.14-1.885V8.561a2.111 2.111 0 0 0-1.14-1.885l-6.187-3.162a2.028 2.028 0 0 0-1.845 0z"/><path class="a" d="M22.908 7.425l-7.924 4.048-7.923-4.048m7.923 4.048v9.236m4.125-11.343v2.912"/></svg>