<svg xmlns="http://www.w3.org/2000/svg" viewBox="0 0 24 24" width="24" height="24"><defs><style>.a{fill:none;stroke:#000;stroke-linecap:round;stroke-linejoin:round;stroke-width:1.5px}</style></defs><title>shipment-boat</title><path class="a" d="M20.669 22.5h-6.242a1.5 1.5 0 0 1-1.342-.829L11.25 18h12l-1.158 3.474a1.5 1.5 0 0 1-1.423 1.026zm1.831-9.75h-2.25a.75.75 0 0 0-.75.75V18h3.75v-4.5a.75.75 0 0 0-.75-.75zM17.25 18h-4.5v-2.25a.75.75 0 0 1 .75-.75h3m5.25-2.25V10.5m-13.5 9h-6A1.5 1.5 0 0 1 .75 18V7.5A1.5 1.5 0 0 1 2.25 6h15a1.5 1.5 0 0 1 1.5 1.5V9"/><path class="a" d="M18.266 6.4l-2.821-4.232A1.5 1.5 0 0 0 14.2 1.5H5.3a1.5 1.5 0 0 0-1.248.668L1.234 6.4M9.75 1.5V6"/></svg>