<svg xmlns="http://www.w3.org/2000/svg" viewBox="0 0 24 24" width="24" height="24"><defs><style>.a{fill:none;stroke:#000;stroke-linecap:round;stroke-linejoin:round;stroke-width:1.5px}</style></defs><title>shipment-online-monitor</title><path class="a" d="M15.75 23.25h-7.5l.75-4.5h6l.75 4.5zm-9.75 0h12m-17.25-9h22.5"/><rect class="a" x=".75" y=".75" width="22.5" height="18" rx="2" ry="2"/><path class="a" d="M6 11.25v-3.5a1 1 0 0 1 1-1h10a1 1 0 0 1 1 1v3.5"/><path class="a" d="M17.677 7.015L15.8 4.2a1 1 0 0 0-.832-.445H9.035A1 1 0 0 0 8.2 4.2L6.32 7.02M12 3.75v3m3 3.75h-1.5"/></svg>