<svg xmlns="http://www.w3.org/2000/svg" viewBox="0 0 24 24" width="24" height="24"><g fill="none" stroke="#000" stroke-linecap="round" stroke-linejoin="round" stroke-miterlimit="10"><path d="M7.999 3.5l-2.049.586A1.999 1.999 0 004.5 6.009V20.5a2 2 0 002 2h12a2 2 0 002-2V6.009c0-.894-.592-1.678-1.451-1.923l-2.05-.586"/><path d="M12.499 5l-3-3S10 .5 12.5.5 15.499 2 15.499 2l-3 3z"/><path d="M12.499 5l3-3L17 3.5l-3 3zm-1.5 1.5l-3-3 1.5-1.5 3 3zM12.5 22.5V5m2 5h4v3l-2 1-2-1z"/></g><path fill="none" d="M0 0h24v24H0z"/></svg>