<svg id="Regular" xmlns="http://www.w3.org/2000/svg" viewBox="0 0 24 24" width="24" height="24"><defs><style>.cls-1{fill:none;stroke:#000;stroke-linecap:round;stroke-linejoin:round;stroke-width:1.5px}</style></defs><title>shooting-rifle-aim</title><path class="cls-1" d="M14.25 11.25v1.5a1.5 1.5 0 0 1-1.5 1.5h-4.5l-5.228 3.137A1.5 1.5 0 0 1 .75 16.1v-1.85a1.5 1.5 0 0 1 1.5-1.5h3l2.25-1.5h15.75m-1.5 0V9m-18.489.75A9.752 9.752 0 0 1 20.44 6.005m1.799 8.246a9.752 9.752 0 0 1-15.713 5.254M12.75 8.25V.75m0 22.5v-6m-3.674-9a5.251 5.251 0 0 1 7.353 0m1.065 6.001a5.253 5.253 0 0 1-7.453 2.249"/></svg>