<svg id="Regular" xmlns="http://www.w3.org/2000/svg" viewBox="0 0 24 24" width="24" height="24"><defs><style>.cls-1{fill:none;stroke:#000;stroke-linecap:round;stroke-linejoin:round;stroke-width:1.5px}</style></defs><title>shooting-rifle-target</title><path class="cls-1" d="M13.608 8.712l9.642-7.217m-1.607 1.203L20.185.75M3 23.01a.586.586 0 0 0 .943-.01l4.392-6.12 6.631-4.963a.75.75 0 0 0 .151-1.05l-1.509-2.155-7.232 5.413-.725 1.765-4.7 3.55a.5.5 0 0 0-.1.7z"/><circle class="cls-1" cx="5.25" cy="5.25" r="3"/><path class="cls-1" d="M5.25 2.25V.75m3 4.5h1.5m-4.5 3v1.5m-3-4.5H.75"/></svg>