<svg xmlns="http://www.w3.org/2000/svg" viewBox="0 0 24 24" width="24" height="24"><defs><style>.a{fill:none;stroke:#000;stroke-linecap:round;stroke-linejoin:round;stroke-width:1.5px}</style></defs><title>shopping-bag-smiley</title><circle class="a" cx="11.992" cy="15" r="5.25"/><path class="a" d="M9.776 13.432a.375.375 0 1 1-.375.375.374.374 0 0 1 .375-.375m4.296 0a.375.375 0 1 0 .375.375.374.374 0 0 0-.375-.375M10.015 16.5a2.068 2.068 0 0 0 1.909.954 2.068 2.068 0 0 0 1.909-.954"/><path class="a" d="M19.049 6.75H4.936A1.4 1.4 0 0 0 3.5 7.907l-2 13.915a1.357 1.357 0 0 0 1.437 1.428h18.111a1.356 1.356 0 0 0 1.436-1.428l-2-13.915a1.4 1.4 0 0 0-1.435-1.157zm-3.387-2.943A3.765 3.765 0 0 0 11.976.75 3.763 3.763 0 0 0 8.3 3.788"/></svg>