<svg xmlns="http://www.w3.org/2000/svg" viewBox="0 0 24 24" width="24" height="24"><defs><style>.a{fill:none;stroke:#000;stroke-linecap:round;stroke-linejoin:round;stroke-width:1.5px}</style></defs><title>shopping-basket-rating</title><path class="a" d="M16.7 23.25H7.3a1.116 1.116 0 0 1-1.086-.84l-1.68-6.033A1.111 1.111 0 0 1 5.62 15h12.759a1.111 1.111 0 0 1 1.087 1.377l-1.68 6.033a1.116 1.116 0 0 1-1.086.84zM6.857 15l1.393-3m8.893 3l-1.393-3M11.566 1.018a.485.485 0 0 1 .868 0l1.009 2.042a.484.484 0 0 0 .363.263l2.263.328a.479.479 0 0 1 .389.325.474.474 0 0 1-.12.489l-1.638 1.6a.476.476 0 0 0-.138.421l.387 2.255a.475.475 0 0 1-.193.467.487.487 0 0 1-.509.035l-2.021-1.059a.49.49 0 0 0-.453 0L9.758 9.243a.487.487 0 0 1-.509-.035.473.473 0 0 1-.194-.467l.387-2.255a.473.473 0 0 0-.137-.421l-1.643-1.6a.474.474 0 0 1-.121-.489.481.481 0 0 1 .389-.325l2.263-.328a.484.484 0 0 0 .364-.263zm-5.244 9.12l-.863-.454a.49.49 0 0 0-.453 0L2.99 10.743a.487.487 0 0 1-.509-.035.475.475 0 0 1-.193-.467l.387-2.255a.478.478 0 0 0-.137-.421l-1.644-1.6a.474.474 0 0 1-.12-.489.48.48 0 0 1 .389-.325l2.263-.328a.484.484 0 0 0 .364-.263L4.8 2.518a.484.484 0 0 1 .434-.268m12.444 7.888l.863-.454a.49.49 0 0 1 .453 0l2.015 1.059a.489.489 0 0 0 .51-.035.475.475 0 0 0 .193-.467l-.387-2.255a.475.475 0 0 1 .137-.421l1.644-1.6a.476.476 0 0 0 .12-.489.481.481 0 0 0-.389-.325l-2.263-.328a.484.484 0 0 1-.364-.263L19.2 2.518a.483.483 0 0 0-.434-.268M9.75 17.625v3m4.5-3v3"/></svg>