<svg xmlns="http://www.w3.org/2000/svg" viewBox="0 0 24 24" width="24" height="24"><defs><style>.a{fill:none;stroke:#000;stroke-linecap:round;stroke-linejoin:round;stroke-width:1.5px}</style></defs><title>shopping-bag-fire</title><path class="a" d="M5.99 8.25V3.684a3 3 0 0 1 6 0V8.25m6.197 3.006a.489.489 0 0 1 .623.694 3.147 3.147 0 0 0 .587 3.964 3.559 3.559 0 0 0 .907-1.5.489.489 0 0 1 .737-.257 5.1 5.1 0 0 1 2.2 4.206 4.891 4.891 0 1 1-9.782 0 7.957 7.957 0 0 1 4.728-7.107z"/><path class="a" d="M16.49 8.148l-.136-1.9a1.119 1.119 0 0 0-1.149-1H2.9a1.119 1.119 0 0 0-1.149 1L.749 20.2l-.005 1.108A2.016 2.016 0 0 0 2.83 23.25h8.41M.805 19.5H9.74"/></svg>