<svg xmlns="http://www.w3.org/2000/svg" viewBox="0 0 24 24" width="24" height="24"><defs><style>.a{fill:none;stroke:#000;stroke-linecap:round;stroke-linejoin:round;stroke-width:1.5px}</style></defs><title>shopping-voucher-mail</title><path class="a" d="M19.5 12.879V2.25A1.5 1.5 0 0 0 18 .75H6a1.5 1.5 0 0 0-1.5 1.5v10.629"/><path class="a" d="M21.284 11.464a.751.751 0 0 1 1.216.588v9.7a1.5 1.5 0 0 1-1.5 1.5H3a1.5 1.5 0 0 1-1.5-1.5v-9.7a.751.751 0 0 1 1.216-.588l7.431 5.9a3 3 0 0 0 3.706 0zm-5.476 4.344l2.942 2.942M8.192 15.808L5.25 18.75M16.606 3.646L14.55 10.5H9L7.5 6h8.4"/><path class="a" d="M9.375 12.75a.375.375 0 1 1-.375.375.375.375 0 0 1 .375-.375m4.8 0a.375.375 0 1 1-.375.375.375.375 0 0 1 .375-.375"/></svg>