<svg xmlns="http://www.w3.org/2000/svg" viewBox="0 0 24 24" width="24" height="24"><defs><style>.a{fill:none;stroke:#000;stroke-linecap:round;stroke-linejoin:round;stroke-width:1.5px}</style></defs><title>shopping-cart-woman</title><path class="a" d="M10.5 12.75l-2.25 7.5h-6l-1.5-4.5H9.6M2.625 22.5a.375.375 0 1 1-.375.375.375.375 0 0 1 .375-.375m5.25 0a.375.375 0 1 1-.375.375.375.375 0 0 1 .375-.375m11.625.75l.75-4.5h3L21 12c-.75-2.25-1.679-3.75-3.75-3.75s-3 1.5-3.75 3.75l-2.25 6.75h3l.75 4.5z"/><circle class="a" cx="17.25" cy="3.75" r="3"/></svg>