<svg xmlns="http://www.w3.org/2000/svg" viewBox="0 0 24 24" width="24" height="24"><defs><style>.a{fill:none;stroke:#000;stroke-linecap:round;stroke-linejoin:round;stroke-width:1.5px}</style></defs><title>shopping-bag-side</title><path class="a" d="M8.993 23.25H2.451a1.5 1.5 0 0 1-1.487-1.694l1.858-14.25A1.5 1.5 0 0 1 4.31 6h1.116a1.5 1.5 0 0 1 1.487 1.306zM14.243 6h5.433a1.5 1.5 0 0 1 1.487 1.306l1.859 14.25a1.5 1.5 0 0 1-1.488 1.694H8.993M5.426 6h6.567"/><path class="a" d="M17.993 10.5V3.75a3 3 0 1 0-6 0v6.75M9.578 1.253a3 3 0 0 0-1.335 2.5V6"/></svg>