<svg xmlns="http://www.w3.org/2000/svg" viewBox="0 0 24 24" width="24" height="24"><defs><style>.a{fill:none;stroke:#000;stroke-linecap:round;stroke-linejoin:round;stroke-width:1.5px}</style></defs><title>shopping-basket-smile</title><path class="a" d="M4.5 8.25l3.75-6m11.25 6l-3.75-6m3.186 19.5H5.064a1.442 1.442 0 0 1-1.383-1.136l-2.138-10.5A1.484 1.484 0 0 1 2.926 8.25h18.148a1.484 1.484 0 0 1 1.383 1.864l-2.138 10.5a1.442 1.442 0 0 1-1.383 1.136z"/><path class="a" d="M9 11.517a.375.375 0 1 1-.375.375.375.375 0 0 1 .375-.375m6 0a.375.375 0 1 1-.375.375.375.375 0 0 1 .375-.375m1.21 4.983a5.064 5.064 0 0 1-8.42 0"/></svg>