<svg xmlns="http://www.w3.org/2000/svg" viewBox="0 0 24 24" width="24" height="24"><defs><style>.a{fill:none;stroke:#000;stroke-linecap:round;stroke-linejoin:round;stroke-width:1.5px}</style></defs><title>shop-cart</title><path class="a" d="M21.148.75H2.852a.751.751 0 0 0-.733.587L.75 7.5a2.25 2.25 0 0 0 4.5 0 2.25 2.25 0 0 0 4.5 0 2.25 2.25 0 0 0 4.5 0 2.25 2.25 0 0 0 4.5 0 2.25 2.25 0 0 0 4.5 0l-1.37-6.163a.749.749 0 0 0-.732-.587zm.602 22.5v-10.5m-19.5 0v10.5m13.499-6H8.078a1.5 1.5 0 0 0-1.4 2.026l1.308 3.487a.748.748 0 0 0 .7.487h6.46a.751.751 0 0 0 .7-.487l1.307-3.487a1.5 1.5 0 0 0-1.404-2.026zm-7.586 0l1.5-3.75m6 3.75l-1.5-3.75M10.5 21v-1.5m3 1.5v-1.5"/></svg>