<svg xmlns="http://www.w3.org/2000/svg" viewBox="0 0 24 24" width="24" height="24"><defs><style>.a{fill:none;stroke:#000;stroke-linecap:round;stroke-linejoin:round;stroke-width:1.5px}</style></defs><title>shop-barista</title><path class="a" d="M.75 22.5V18a1.5 1.5 0 0 1 1.5-1.5h19.5a1.5 1.5 0 0 1 1.5 1.5v4.5M3 16.5v-4a1.94 1.94 0 0 1 1.875-2h5.25a1.941 1.941 0 0 1 1.875 2v4m-6.75-6V8.25M6 13.5h1.5"/><circle class="a" cx="17.25" cy="4.5" r="3"/><path class="a" d="M21.75 13.5a4.5 4.5 0 0 0-7.691-3.174"/><rect class="a" x="2.25" y="5.266" width="6" height="3" rx=".5" ry=".5"/></svg>