<svg xmlns="http://www.w3.org/2000/svg" viewBox="0 0 24 24" width="24" height="24"><defs><style>.a{fill:none;stroke:#000;stroke-linecap:round;stroke-linejoin:round;stroke-width:1.5px}</style></defs><title>shopping-bag-barcode</title><path class="a" d="M19.009 12.742l-.773-4.579A1.5 1.5 0 0 0 16.8 6.75H4.186A1.5 1.5 0 0 0 2.75 8.163l-2 11.842a1.533 1.533 0 0 0 1.437 1.745h8.306m3.685-17.943A3.763 3.763 0 0 0 10.493.75a3.764 3.764 0 0 0-3.682 3.038m7.432 13.462V18m0 3v2.25m9-2.25v2.25m0-6V18m-3-.75v6m-3-6v2.25m0 3v.75"/></svg>