<svg xmlns="http://www.w3.org/2000/svg" viewBox="0 0 24 24" width="24" height="24"><defs><style>.a{fill:none;stroke:#000;stroke-linecap:round;stroke-linejoin:round;stroke-width:1.5px}</style></defs><title>shopping-bag-hang</title><path class="a" d="M5.634 3a.375.375 0 1 1-.375.375A.375.375 0 0 1 5.634 3M3.779 19.5h16.427m-3.812-6.75l-3.069-8.068a1.419 1.419 0 0 0-2.666 0L7.59 12.75"/><path class="a" d="M20.2 19.4l-.832-8.685A1.064 1.064 0 0 0 18.3 9.75H5.683a1.064 1.064 0 0 0-1.062.96l-.833 8.69c-.03.32-.046.641-.046.961a2.9 2.9 0 0 0 2.913 2.889H17.33a2.9 2.9 0 0 0 2.912-2.894c0-.32-.015-.641-.042-.956zM6.742 6H3.367A2.634 2.634 0 0 1 .742 3.375 2.633 2.633 0 0 1 3.367.75h17.25a2.632 2.632 0 0 1 2.625 2.625A2.633 2.633 0 0 1 20.617 6h-3.375"/><path class="a" d="M18.351 3a.375.375 0 1 0 .375.375.375.375 0 0 0-.375-.375"/></svg>