<svg xmlns="http://www.w3.org/2000/svg" viewBox="0 0 24 24" width="24" height="24"><defs><style>.a{fill:none;stroke:#000;stroke-linecap:round;stroke-linejoin:round;stroke-width:1.5px}</style></defs><title>shop-like</title><path class="a" d="M4.785.75a.962.962 0 0 0-.895.664L2.376 5.691a2.207 2.207 0 0 0-.014 1.429A2.655 2.655 0 0 0 4.844 9a2.741 2.741 0 0 0 2.635-2.836A2.741 2.741 0 0 0 10.114 9a2.742 2.742 0 0 0 2.636-2.836A2.741 2.741 0 0 0 15.385 9a2.742 2.742 0 0 0 2.636-2.836A2.741 2.741 0 0 0 20.656 9a2.656 2.656 0 0 0 2.482-1.88 2.207 2.207 0 0 0-.014-1.429L21.61 1.414a.963.963 0 0 0-.9-.664zM3.75 12V8.744"/><path class="a" d="M21.75 8.744V19.5a1.5 1.5 0 0 1-1.5 1.5h-4.5m-12 1.5a3.026 3.026 0 0 1 .779.115l1.817.519a2.98 2.98 0 0 0 .823.116h2.443a3 3 0 0 0 2.985-2.7l.15-2.55a2.249 2.249 0 0 0-1.7-2.3l-.728-.16a.749.749 0 0 1-.568-.727v-1.688a1.125 1.125 0 0 0-2.25 0v.775a3.75 3.75 0 0 1-3.75 3.75zm-3-6h3v6.75h-3"/></svg>