<svg xmlns="http://www.w3.org/2000/svg" viewBox="0 0 24 24" width="24" height="24"><defs><style>.a{fill:none;stroke:#000;stroke-linecap:round;stroke-linejoin:round;stroke-width:1.5px}</style></defs><title>shopping-cart-full</title><path class="a" d="M6 19.125h9.921a1.5 1.5 0 0 0 1.479-1.249l2.637-15.5a1.5 1.5 0 0 1 1.479-1.248h.984M7.875 21.375a.375.375 0 1 1-.375.375.375.375 0 0 1 .375-.375m7.5 0a.375.375 0 1 1-.375.375.375.375 0 0 1 .375-.375"/><path class="a" d="M17.953 14.625H5.882a3 3 0 0 1-2.91-2.272l-1.45-5.8a.75.75 0 0 1 .728-.932h17.234"/><path class="a" d="M17.255 5.625l-3-3a1.5 1.5 0 0 0-2.121 0l-3 3m2.127-2.132L7.741 2.46A1.5 1.5 0 0 0 5.88 3.477l-.63 2.148"/></svg>