<svg xmlns="http://www.w3.org/2000/svg" viewBox="0 0 24 24" width="24" height="24"><defs><style>.a{fill:none;stroke:#000;stroke-linecap:round;stroke-linejoin:round;stroke-width:1.5px}</style></defs><title>shopping-cart-star</title><path class="a" d="M10.368 2.219l1.346 2.9h2.621a.642.642 0 0 1 .452 1.121l-2.274 2.24 1.26 2.894a.686.686 0 0 1-.977.858L9.75 10.519l-3.045 1.713a.686.686 0 0 1-.977-.858l1.26-2.894-2.275-2.238a.642.642 0 0 1 .45-1.121h2.621l1.349-2.9a.7.7 0 0 1 1.235-.002z"/><circle class="a" cx="6.375" cy="20.968" r="1.875"/><circle class="a" cx="13.875" cy="20.968" r="1.875"/><path class="a" d="M.75 7.093l2.33 7.887a1.5 1.5 0 0 0 1.449 1.113h10.819A1.5 1.5 0 0 0 16.8 14.98l3.238-12.154a2.25 2.25 0 0 1 2.174-1.67h1.038"/></svg>