<svg xmlns="http://www.w3.org/2000/svg" viewBox="0 0 24 24" width="24" height="24"><defs><style>.a{fill:none;stroke:#000;stroke-linecap:round;stroke-linejoin:round;stroke-width:1.5px}</style></defs><title>shop-street-sign</title><path class="a" d="M15.136 23.25L17.221 2.4A1.5 1.5 0 0 0 15.729.75H4.494A1.5 1.5 0 0 0 3 2.1L.886 23.25M17.04 4.211l6.073 19.034M21.2 17.25h-5.464"/><path class="a" d="M13.051 11.436a1.5 1.5 0 0 1-1.489 1.314H6.335a1.5 1.5 0 0 1-1.488-1.687l.375-3A1.5 1.5 0 0 1 6.71 6.75h5.227a1.5 1.5 0 0 1 1.489 1.686zM6.886 3.75h5.25m-10.8 15h14.25"/></svg>