<svg xmlns="http://www.w3.org/2000/svg" viewBox="0 0 24 24" width="24" height="24"><defs><style>.a{fill:none;stroke:#000;stroke-linecap:round;stroke-linejoin:round;stroke-width:1.5px}</style></defs><title>shopping-basket-sad-1</title><path class="a" d="M9 2.006A7.953 7.953 0 0 0 4.417 6m15.166 0A7.951 7.951 0 0 0 15 2.006"/><rect class="a" x="9" y=".75" width="6" height="3" rx="1.125" ry="1.125"/><path class="a" d="M18.936 23.25H5.064a1.442 1.442 0 0 1-1.383-1.136l-2.138-10.5A1.484 1.484 0 0 1 2.926 9.75h18.148a1.484 1.484 0 0 1 1.383 1.864l-2.138 10.5a1.442 1.442 0 0 1-1.383 1.136z"/><path class="a" d="M9 13.017a.375.375 0 1 1-.375.375.375.375 0 0 1 .375-.375m6 0a.375.375 0 1 1-.375.375.375.375 0 0 1 .375-.375m1.21 7.232a5.064 5.064 0 0 0-8.42 0"/></svg>