<svg xmlns="http://www.w3.org/2000/svg" viewBox="0 0 24 24" width="24" height="24"><defs><style>.a{fill:none;stroke:#000;stroke-linecap:round;stroke-linejoin:round;stroke-width:1.5px}</style></defs><title>shop-sale-1</title><path class="a" d="M21.148 1.5H2.852a.751.751 0 0 0-.733.587L.75 8.25a2.25 2.25 0 0 0 4.5 0 2.25 2.25 0 0 0 4.5 0 2.25 2.25 0 0 0 4.5 0 2.25 2.25 0 0 0 4.5 0 2.25 2.25 0 0 0 4.5 0l-1.37-6.163a.749.749 0 0 0-.732-.587zM13.5 15v6a1.5 1.5 0 0 0 1.5 1.5h1.5M4.5 15H3a1.5 1.5 0 0 0-1.5 1.5c0 2.25 3 2.25 3 4.5A1.5 1.5 0 0 1 3 22.5H1.5m6 0v-6a1.5 1.5 0 0 1 3 0v6m-3-3h3m12 3H21a1.5 1.5 0 0 1-1.5-1.5v-4.5A1.5 1.5 0 0 1 21 15h1.5m-3 4.5h3"/></svg>