<svg xmlns="http://www.w3.org/2000/svg" viewBox="0 0 24 24" width="24" height="24"><defs><style>.a{fill:none;stroke:#000;stroke-linecap:round;stroke-linejoin:round;stroke-width:1.5px}</style></defs><title>shop-arrow</title><path class="a" d="M9.7.75H1.5l2.85 3H8.4a4.747 4.747 0 0 1 2.878.938l.439.337L10.05 6.75h5.7v-4.8l-1.425 1.2-1.598-1.35A4.714 4.714 0 0 0 9.7.75z"/><path class="a" d="M1.479 7.217L.75 10.5a2.25 2.25 0 0 0 4.5 0 2.25 2.25 0 0 0 4.5 0 2.25 2.25 0 0 0 4.5 0 2.25 2.25 0 0 0 4.5 0 2.25 2.25 0 0 0 4.5 0l-1.37-6.163a.749.749 0 0 0-.732-.587h-2.4m-16.498 12v7.5h19.5v-7.5m-6 7.5v-7.5M2.25 19.5h13.5"/></svg>