<svg xmlns="http://www.w3.org/2000/svg" viewBox="0 0 24 24" width="24" height="24"><defs><style>.a{fill:none;stroke:#000;stroke-linecap:round;stroke-linejoin:round;stroke-width:1.5px}</style></defs><title>shopping-cart-cash</title><path class="a" d="M11.925 3.493h-2.44a1.61 1.61 0 0 0-.6 3.105l2.476.99a1.61 1.61 0 0 1-.6 3.1H8.325m1.8-7.195v-.9m0 9v-.9"/><circle class="a" cx="6.375" cy="20.968" r="1.875"/><circle class="a" cx="13.875" cy="20.968" r="1.875"/><path class="a" d="M.75 7.093l2.329 7.887a1.5 1.5 0 0 0 1.45 1.113h10.818A1.5 1.5 0 0 0 16.8 14.98l3.238-12.154a2.249 2.249 0 0 1 2.174-1.67h1.038"/></svg>