<svg xmlns="http://www.w3.org/2000/svg" viewBox="0 0 24 24" width="24" height="24"><defs><style>.a{fill:none;stroke:#000;stroke-linecap:round;stroke-linejoin:round;stroke-width:1.5px}</style></defs><title>shopping-basket-man</title><circle class="a" cx="18" cy="3.75" r="3"/><path class="a" d="M23.25 13.5a5.25 5.25 0 0 0-10.5 0v2.25H15l.75 7.5h4.5l.75-7.5h2.25zM9.922 17.25H2.251a1.5 1.5 0 0 0-1.4 2.026l1.307 3.487a.75.75 0 0 0 .7.487h6.459a.749.749 0 0 0 .7-.487l1.308-3.487a1.5 1.5 0 0 0-1.403-2.026zm-7.585 0l1.5-3.75m6 3.75l-1.5-3.75"/></svg>