<svg xmlns="http://www.w3.org/2000/svg" viewBox="0 0 24 24" width="24" height="24"><defs><style>.a{fill:none;stroke:#000;stroke-linecap:round;stroke-linejoin:round;stroke-width:1.5px}</style></defs><title>shop</title><path class="a" d="M21.75 12.75v9a1.5 1.5 0 0 1-1.5 1.5H3.75a1.5 1.5 0 0 1-1.5-1.5v-9m18.898-12H2.852a.751.751 0 0 0-.733.587L.75 7.5a2.25 2.25 0 0 0 4.5 0 2.25 2.25 0 0 0 4.5 0 2.25 2.25 0 0 0 4.5 0 2.25 2.25 0 0 0 4.5 0 2.25 2.25 0 0 0 4.5 0l-1.37-6.163a.749.749 0 0 0-.732-.587zM2.25 17.25H15m0 6v-10.5"/></svg>