<svg xmlns="http://www.w3.org/2000/svg" viewBox="0 0 24 24" width="24" height="24"><g fill="none" stroke="#000" stroke-linecap="round" stroke-linejoin="round" stroke-miterlimit="10"><circle cx="16" cy="22" r="1.5"/><circle cx="5" cy="22" r="1.5"/><path d="M23.5 1.5H22l-2 17H.5"/><path d="M17.5 8.5c0-1.1-.9-2-2-2h-12c-1.1 0-2 .9-2 2v6c0 1.1.9 2 2 2h12c1.1 0 2-.9 2-2v-6zM7 6.5V5c0-.825.675-1.5 1.5-1.5h2c.825 0 1.5.675 1.5 1.5v1.5m-7.5 3h10m-10 2h10m-10 2h10"/></g><path fill="none" d="M0 0h24v24H0z"/></svg>