<svg xmlns="http://www.w3.org/2000/svg" viewBox="0 0 24 24" width="24" height="24"><defs><style>.a{fill:none;stroke:#000;stroke-linecap:round;stroke-linejoin:round;stroke-width:1.5px}</style></defs><title>shopping-basket-like</title><path class="a" d="M2.25 22.5a3.026 3.026 0 0 1 .779.115l1.817.519a2.98 2.98 0 0 0 .823.116h2.443a3 3 0 0 0 2.985-2.7l.15-2.55a2.249 2.249 0 0 0-1.7-2.3l-.728-.16a.749.749 0 0 1-.568-.727v-1.688a1.125 1.125 0 0 0-2.25 0v.775a3.75 3.75 0 0 1-3.75 3.75zm-1.5-6h1.5v6.75H.75"/><path class="a" d="M2.952 10.636l-.659-2.773A1.484 1.484 0 0 1 3.676 6h18.148a1.484 1.484 0 0 1 1.383 1.863l-2.138 9A1.442 1.442 0 0 1 19.686 18H14.25m-9-12L9.75.75M20.25 6L15.75.75"/></svg>