<svg xmlns="http://www.w3.org/2000/svg" viewBox="0 0 24 24" width="24" height="24"><defs><style>.a{fill:none;stroke:#000;stroke-linecap:round;stroke-linejoin:round;stroke-width:1.5px}</style></defs><title>shopping-bag-tag</title><path class="a" d="M17.174 8.25H4.561a1.5 1.5 0 0 0-1.436 1.413l-2 11.842a1.533 1.533 0 0 0 1.437 1.745h16.611a1.533 1.533 0 0 0 1.437-1.745l-2-11.842a1.5 1.5 0 0 0-1.436-1.413zm-2.621-2.943a3.763 3.763 0 0 0-3.685-3.057 3.764 3.764 0 0 0-3.682 3.038"/><rect class="a" x="7.868" y="14.25" width="6" height="4.5" rx="1.5" ry="1.5"/><path class="a" d="M20.618.75L18.368 3v2.25h2.25L22.868 3 20.618.75z"/></svg>