<svg xmlns="http://www.w3.org/2000/svg" viewBox="0 0 24 24" width="24" height="24"><defs><style>.a{fill:none;stroke:#000;stroke-linecap:round;stroke-linejoin:round;stroke-width:1.5px}</style></defs><title>shopping-basket-dislike</title><path class="a" d="M2.553 8.956l-.26-1.093A1.484 1.484 0 0 1 3.676 6h18.148a1.484 1.484 0 0 1 1.383 1.863l-2.138 9A1.442 1.442 0 0 1 19.686 18H14.25m-9-12L9.75.75M20.25 6L15.75.75"/><path class="a" d="M2.25 12.749a3.026 3.026 0 0 0 .779-.115l1.817-.519A2.979 2.979 0 0 1 5.669 12h2.443a3 3 0 0 1 2.988 2.7l.15 2.549a2.25 2.25 0 0 1-1.7 2.3l-.728.159a.749.749 0 0 0-.568.727v1.692a1.125 1.125 0 0 1-2.25 0v-.777A3.75 3.75 0 0 0 2.25 17.6zM.75 12h1.5v6.75H.75"/></svg>