<svg xmlns="http://www.w3.org/2000/svg" viewBox="0 0 24 24" width="24" height="24"><defs><style>.a{fill:none;stroke:#000;stroke-linecap:round;stroke-linejoin:round;stroke-width:1.5px}</style></defs><title>shop-sign-close</title><path class="a" d="M.75 22.75h22.5m0-13.5H.75m15.75-3l-3.3-4.4a1.5 1.5 0 0 0-2.4 0l-3.3 4.4m-3.75 6a3 3 0 0 0-3 3v1.5a3 3 0 0 0 3 3m7.5-7.5a1.5 1.5 0 0 0-1.5 1.5v4.5a1.5 1.5 0 0 0 3 0v-4.5a1.5 1.5 0 0 0-1.5-1.5zm-6 0v6a1.5 1.5 0 0 0 1.5 1.5h1.5m9.75-7.5h-1.5a1.5 1.5 0 0 0-1.5 1.5c0 2.25 3 2.25 3 4.5a1.5 1.5 0 0 1-1.5 1.5H15m8.25 0h-1.5a1.5 1.5 0 0 1-1.5-1.5v-4.5a1.5 1.5 0 0 1 1.5-1.5h1.5m-3 4.5h3"/></svg>