<svg xmlns="http://www.w3.org/2000/svg" viewBox="0 0 24 24" width="24" height="24"><defs><style>.a{fill:none;stroke:#000;stroke-linecap:round;stroke-linejoin:round;stroke-width:1.5px}</style></defs><title>shopping-basket-arrow-in</title><path class="a" d="M18.936 23.25H5.064a1.442 1.442 0 0 1-1.383-1.137l-2.138-9a1.484 1.484 0 0 1 1.383-1.863h18.148a1.485 1.485 0 0 1 1.383 1.863l-2.138 9a1.442 1.442 0 0 1-1.383 1.137zM6 11.25l-4.5-6m16.5 6l4.5-6m-6 9.75v4.5M12 15v4.5M7.5 15v4.5M12 .75V8.5m0 0l3.75-3.75M12 8.5L8.25 4.75"/></svg>