<svg xmlns="http://www.w3.org/2000/svg" viewBox="0 0 24 24" width="24" height="24"><defs><style>.a{fill:none;stroke:#000;stroke-linecap:round;stroke-linejoin:round;stroke-width:1.5px}</style></defs><title>shopping-basket-heart</title><path class="a" d="M17.25 23.25l-5.114-5.335a3.027 3.027 0 0 1-.567-3.493 3.026 3.026 0 0 1 4.846-.786l.835.835.835-.835a3.025 3.025 0 0 1 4.845.786 3.025 3.025 0 0 1-.566 3.493z"/><path class="a" d="M7.875 17.25H4.314a1.442 1.442 0 0 1-1.383-1.137l-2.138-9A1.484 1.484 0 0 1 2.176 5.25h18.148a1.484 1.484 0 0 1 1.383 1.863l-.3 1.256M3.75 5.25l4.5-4.5m10.5 4.5L14.25.752"/></svg>