<svg xmlns="http://www.w3.org/2000/svg" viewBox="0 0 24 24" width="24" height="24"><defs><style>.a{fill:none;stroke:#000;stroke-linecap:round;stroke-linejoin:round;stroke-width:1.5px}</style></defs><title>shop-sign-open</title><path class="a" d="M.75 22.75h22.5m0-13.5H.75m15.75-3l-3.3-4.4a1.5 1.5 0 0 0-2.4 0l-3.3 4.4m0 13.499v-7.5m0 0h.75a2.25 2.25 0 1 1 0 4.5H7.5M3 12.25a1.5 1.5 0 0 0-1.5 1.5v4.5a1.5 1.5 0 0 0 3 0v-4.5a1.5 1.5 0 0 0-1.5-1.5zm13.5 7.499H15a1.5 1.5 0 0 1-1.5-1.5v-4.5a1.5 1.5 0 0 1 1.5-1.5h1.5m-3 4.5h3m3 3v-7.5l3 7.5v-7.5"/></svg>