<svg id="Regular" xmlns="http://www.w3.org/2000/svg" viewBox="0 0 24 24" width="24" height="24"><defs><style>.cls-1{fill:none;stroke:#000;stroke-linecap:round;stroke-linejoin:round;stroke-width:1.5px}</style></defs><title>shorts-2</title><path class="cls-1" d="M2.5 3.75h19a1 1 0 0 1 1 1v2h-21v-2a1 1 0 0 1 1-1zm20 7.5a4.5 4.5 0 0 1-4.5-4.5m-16.5 4.5A4.5 4.5 0 0 0 6 6.75"/><path class="cls-1" d="M10.314 14.238a1.7 1.7 0 0 1 3.372 0l.736 4.742a1.5 1.5 0 0 0 1.478 1.27H21a1.5 1.5 0 0 0 1.5-1.5v-12h-21v12a1.5 1.5 0 0 0 1.5 1.5h5.1a1.5 1.5 0 0 0 1.483-1.27z"/></svg>