<svg id="Regular" xmlns="http://www.w3.org/2000/svg" viewBox="0 0 24 24" width="24" height="24"><defs><style>.cls-1{fill:none;stroke:#000;stroke-linecap:round;stroke-linejoin:round;stroke-width:1.5px}</style></defs><title>shorts</title><path class="cls-1" d="M10.5 3.75V9m12.748 12.076L21.8 1.445a.75.75 0 0 0-.747-.695H2.947a.75.75 0 0 0-.748.7L.752 21.076a.75.75 0 0 0 .616.793L9 23.238a.75.75 0 0 0 .872-.616l1.253-7.632a.884.884 0 0 1 1.744 0l1.253 7.632a.75.75 0 0 0 .872.616l7.635-1.369a.75.75 0 0 0 .619-.793zM21.964 3.75H2.036m11.464 0V9"/><path class="cls-1" d="M1.568 10.292A6 6 0 0 0 6 4.5a5.993 5.993 0 0 0-.047-.75H2.036zm20.863 0A6 6 0 0 1 18 4.5a6.19 6.19 0 0 1 .046-.75h3.918z"/></svg>