<svg xmlns="http://www.w3.org/2000/svg" viewBox="0 0 24 24" width="24" height="24"><g fill="none" stroke="#000" stroke-linecap="round" stroke-linejoin="round" stroke-miterlimit="10"><path d="M2.229 18.047S1.865 20.136 3.877 23l2.863-2.013s-2.467-4.376-.831-5.528l-3.68 2.588z"/><path d="M7.137 14.596l1.437 2.045-2.863 2.013m2.684-9.222L20.665.804l1.15 1.636-4.499 3.164"/><path d="M19.042 8.056l-7.77 5.464-1.726-2.454 7.77-5.464zM14.862 7.329l1.726 2.454M12 9.342l1.725 2.454M8.107 9.023l-4.908 3.452a4 4 0 00-.971 5.573l8.18-5.752-2.301-3.273z"/><path d="M17.316 5.604l3.272-2.3 1.15 1.635-3.272 2.3z"/></g><path fill="none" d="M0 0h24v24H0z"/></svg>