<svg xmlns="http://www.w3.org/2000/svg" viewBox="0 0 24 24" width="24" height="24"><g fill="none" stroke="#000" stroke-linejoin="round" stroke-miterlimit="10"><path stroke-linecap="round" d="M20.53 11.531c-6.352 0-8.531-4.68-8.531-11.031m-8.562 11c6.352 0 8.562-4.648 8.562-11M.5 11.5h3v3h-3zm19.999.031h3V14.5h-3z"/><path stroke-linecap="round" d="M20.499 14.516c-2.761 0-5 3.737-5 8.984H23.5V.5H.5v23h8c0-5.247-2.239-8.984-5-8.984M8.5 3C8 5.5 6 8 4 9m-.5 7C4 16 5 18 5 19M15.499 3c.5 2.5 2.5 5 4.5 6m.5 7c-.5 0-1.5 2-1.5 3"/><path d="M7.771 18.5h8.458"/></g><path fill="none" d="M0 0h24v24H0z"/></svg>