<svg id="Regular" xmlns="http://www.w3.org/2000/svg" viewBox="0 0 24 24" width="24" height="24"><defs><style>.cls-1{fill:none;stroke:#000;stroke-linecap:round;stroke-linejoin:round;stroke-width:1.5px}</style></defs><title>show-theater-masks</title><path class="cls-1" d="M8.655 5.771a1.5 1.5 0 0 0-1.9 1.445v7.161a7.031 7.031 0 0 0 1.811 4.778 15.281 15.281 0 0 0 5.922 4 1.5 1.5 0 0 0 1.033 0 15.267 15.267 0 0 0 5.923-4 7.031 7.031 0 0 0 1.811-4.778V7.216a1.5 1.5 0 0 0-1.905-1.445 23.131 23.131 0 0 1-12.695 0z"/><path class="cls-1" d="M17.25 4.035V2.25a1.5 1.5 0 0 0-1.9-1.445 23.112 23.112 0 0 1-12.69 0A1.5 1.5 0 0 0 .75 2.25v7.162a7.031 7.031 0 0 0 1.811 4.778c.171.186.353.374.544.563M18 15.75a3 3 0 0 1-6 0m-2.25-4.5a1.5 1.5 0 0 1 3 0m4.5 0a1.5 1.5 0 0 1 3 0"/></svg>