<svg id="Regular" xmlns="http://www.w3.org/2000/svg" viewBox="0 0 24 24" width="24" height="24"><defs><style>.cls-1{fill:none;stroke:#000;stroke-linecap:round;stroke-linejoin:round;stroke-width:1.5px}</style></defs><title>show-theater</title><path class="cls-1" d="M6.75 5.25v16.5a1.5 1.5 0 0 1-3 0m0 0v-10.5m13.5-6v16.5a1.5 1.5 0 0 0 3 0"/><path class="cls-1" d="M20.25 21.75a1.5 1.5 0 0 0 3 0V2.25a1.5 1.5 0 0 0-1.5-1.5H2.25a1.5 1.5 0 0 0-1.5 1.5v19.5a1.5 1.5 0 0 0 3 0m16.5 0v-10.5m-19.5-6h22.5m-18 18h13.5"/></svg>