<svg id="Regular" xmlns="http://www.w3.org/2000/svg" viewBox="0 0 24 24" width="24" height="24"><defs><style>.cls-1{fill:none;stroke:#000;stroke-linecap:round;stroke-linejoin:round;stroke-width:1.5px}</style></defs><title>show-rabbit-hat</title><path class="cls-1" d="M6.5 14.25H17v8a1 1 0 0 1-1 1H7.5a1 1 0 0 1-1-1v-8zm-3 0H20M7.812 11.32l-2.64-6.954A2.669 2.669 0 0 1 7.029.837a2.669 2.669 0 0 1 3.287 2.257l.759 5.956m4.625 2.226l2.624-6.91A2.669 2.669 0 0 0 16.471.837a2.669 2.669 0 0 0-3.287 2.257l-.759 5.956M6.5 17.25H17"/><path class="cls-1" d="M16.25 14.25v-.75a4.5 4.5 0 0 0-9 0v.75"/></svg>