<svg id="Regular" xmlns="http://www.w3.org/2000/svg" viewBox="0 0 24 24" width="24" height="24"><defs><style>.cls-1{fill:none;stroke:#000;stroke-linecap:round;stroke-linejoin:round;stroke-width:1.5px}</style></defs><title>show-theater-play</title><path class="cls-1" d="M14.44 17.25H9.56m-8.81-3V.75h22.5v13.5"/><path class="cls-1" d="M.75.75H12V5a5.5 5.5 0 0 1-5.5 5.5H.75V.75z"/><path class="cls-1" d="M12 .75h5.75a5.5 5.5 0 0 1 5.5 5.5v4.25H12V.75z" transform="rotate(-180 17.625 5.625)"/><path class="cls-1" d="M.75 14.25h4.737a4.263 4.263 0 0 1 4.263 4.263v3.737a1 1 0 0 1-1 1h-7a1 1 0 0 1-1-1v-8z"/><path class="cls-1" d="M15.25 14.25h7a1 1 0 0 1 1 1v3.737a4.263 4.263 0 0 1-4.263 4.263H14.25v-8a1 1 0 0 1 1-1z" transform="rotate(-180 18.75 18.75)"/><path class="cls-1" d="M18.75 10.5v3.75M5.25 10.5v3.75M3.75.75V4.5m3-3.75V4.5M17.25.75V4.5m3-3.75V4.5"/></svg>