<svg id="Regular" xmlns="http://www.w3.org/2000/svg" viewBox="0 0 24 24" width="24" height="24"><defs><style>.cls-1{fill:none;stroke:#000;stroke-linecap:round;stroke-linejoin:round;stroke-width:1.5px}</style></defs><title>show-theater-show-masks</title><path class="cls-1" d="M8.739.75A9.757 9.757 0 0 1 9 3a9.751 9.751 0 0 1-8.25 9.635"/><path class="cls-1" d="M23.25 6.75v-4.5a1.5 1.5 0 0 0-1.5-1.5H2.25a1.5 1.5 0 0 0-1.5 1.5v18a1.5 1.5 0 0 0 1.5 1.5h7.5m-9-7.35a7.5 7.5 0 0 1 6 7.35m8.511-21a9.777 9.777 0 0 0 1.272 7.5"/><path class="cls-1" d="M23.25 15.143v-4.02a.75.75 0 0 0-1.056-.684 15.11 15.11 0 0 1-9.888 0 .751.751 0 0 0-1.056.685v4.019c0 4.457 4.412 8.107 6 8.107s6-3.65 6-8.107zm-7.668 3.607a2.23 2.23 0 0 0 3.336 0m.957-4.5a.375.375 0 0 1 .375.375m-.75 0a.375.375 0 0 1 .375-.375m0 .75a.375.375 0 0 1-.375-.375m.75 0a.375.375 0 0 1-.375.375m-5.25-.75a.375.375 0 0 1 .375.375m-.75 0a.375.375 0 0 1 .375-.375m0 .75a.375.375 0 0 1-.375-.375m.75 0a.375.375 0 0 1-.375.375"/></svg>