<svg xmlns="http://www.w3.org/2000/svg" viewBox="0 0 24 24" width="24" height="24"><g fill="none" stroke="#000" stroke-linecap="round" stroke-linejoin="round" stroke-miterlimit="10"><path d="M.5 1.021a5.121 5.121 0 003.621 1.5h15.758c1.357 0 2.66-.539 3.621-1.5a5.5 5.5 0 01-5.5 5.5H6a5.5 5.5 0 01-5.5-5.5z"/><path d="M7.5 6.521v5c0 8.5-3 11-3 11H1s3.5-2.5 3.5-11V6.312m12 .209v5.5c0 8.5 3 11 3 11H23s-3.5-2.5-3.5-11V6.312"/><path d="M4.432 13.521H2v-3h2.5m11 3h-7m11-3H22v3h-2.462m-11.038-3h7m-5-4h3v4h-3z"/></g><path fill="none" d="M0 0h24v24H0z"/></svg>