<svg xmlns="http://www.w3.org/2000/svg" viewBox="0 0 24 24" width="24" height="24"><path fill="none" stroke="#000" stroke-linejoin="round" stroke-miterlimit="10" d="M16.486 12a3.362 3.362 0 013.172-3.355l3.803-7.604a.374.374 0 00-.502-.501l-7.604 3.802c-.1 1.769-1.562 3.173-3.354 3.173S8.745 6.111 8.646 4.342L1.041.54C.897.469.723.497.609.61s-.142.287-.07.431l3.803 7.604c1.767.101 3.172 1.562 3.172 3.355s-1.404 3.254-3.172 3.355L.539 22.959a.374.374 0 00.502.501l7.604-3.801c.1-1.769 1.562-3.173 3.354-3.173s3.255 1.404 3.354 3.173l7.604 3.801a.374.374 0 00.502-.501l-3.803-7.604A3.362 3.362 0 0116.486 12zM12 14.243a2.243 2.243 0 110-4.487 2.243 2.243 0 010 4.487z"/><path fill="none" d="M0 0h24v24H0z"/></svg>