<svg xmlns="http://www.w3.org/2000/svg" viewBox="0 0 24 24" width="24" height="24"><g fill="none" stroke="#000" stroke-linecap="round" stroke-linejoin="round" stroke-miterlimit="10"><path d="M4 15.75A2.25 2.25 0 116.25 18M4 20.25A2.25 2.25 0 106.25 18m11.25-1.5v-1a2 2 0 00-2-2h-1a2 2 0 00-2 2v5a2 2 0 002 2h1a2 2 0 002-2v-2.001h-3M5.374 10.02a6.484 6.484 0 015.141-2.52c2.09 0 3.95.986 5.139 2.52"/><path d="M3.501 7.836a8.983 8.983 0 017.014-3.357 8.989 8.989 0 017.006 3.349"/><path d="M1.5 5.855A11.475 11.475 0 0110.515 1.5c3.658 0 6.916 1.706 9.022 4.367"/></g><path fill="none" d="M0 0h24v24H0z"/></svg>