<svg xmlns="http://www.w3.org/2000/svg" viewBox="0 0 24 24" width="24" height="24"><g fill="none" stroke="#000" stroke-linecap="round" stroke-linejoin="round" stroke-miterlimit="10"><path d="M2.5 16.5a2 2 0 002 2h14a2 2 0 002-2v-4a2 2 0 00-2-2h-14a2 2 0 00-2 2v4zm3.5-6L11.5 5l5.5 5.5"/><path d="M17.5 16.5h-2v-4h2m-2 2h1.238m-5.696 2l-1.105-4-1.107 4m.252-.979h1.708M14 16.5h-1.5v-4m-6.968 3.062c.031.525.439.938.937.938.518 0 .937-.448.937-1 0-.816-.771-.953-.936-1-.163-.049-.938-.186-.938-1 0-.553.421-1 .938-1 .498 0 .904.412.936.936"/></g><path fill="none" d="M0 0h24v24H0z"/></svg>