<svg xmlns="http://www.w3.org/2000/svg" viewBox="0 0 24 24" width="24" height="24"><path fill="none" stroke="#000" stroke-linecap="round" stroke-linejoin="round" stroke-miterlimit="10" d="M19.499 11.36c.076 4.419-3.581 8.063-7.999 8.14-4.418.077-7.922-3.443-7.999-7.86C3.423 7.222 7.082 3.576 11.5 3.5c4.417-.077 7.921 3.443 7.999 7.86zM11.5 12.5V7.499"/><path d="M11.501 14.546h-.014A.728.728 0 0011.5 16h.013a.727.727 0 00-.012-1.454z"/><path fill="none" stroke="#000" stroke-linecap="round" stroke-linejoin="round" stroke-miterlimit="10" d="M3.998 19.545A10.967 10.967 0 01.5 11.5c0-3.154 1.327-5.998 3.455-8.004m15.068-.021A10.971 10.971 0 0122.5 11.5c0 3.177-1.347 6.039-3.5 8.047"/><path fill="none" d="M0 0h24v24H0z"/></svg>