<svg xmlns="http://www.w3.org/2000/svg" viewBox="0 0 24 24" width="24" height="24"><g fill="none" stroke="#000" stroke-linejoin="round" stroke-miterlimit="10"><path d="M5.093 16.5H11.5v5H6c-.486 0-1.287-.483-1.547-.894"/><path d="M4.453 20.606S2.61 18.921 7 14h2L6 9.5H.5L2 11s-1 .612-1 2c0 1.178 1.89 5.21 3.453 7.606zm14.859-4.968l-3.449-4.984 4.338-3 3.087 4.607c.277.4.265 1.125.074 1.572"/><path d="M23.362 13.833s-.69 2.542-6.862 1.667V14l-3 4.5 2.814 5 .186-2.347s1.096.785 2.236-.004c.969-.67 3.272-4.847 4.626-7.316zM11.507 3.452L9.021 8.723l-4.768-2.25 2.391-5.066C6.851.967 7.5.5 8 .5"/><path d="M8 .5s2.5 0 4.937 5.697L11.5 7.5H17l3-5.545-2.03.748s-.051-1.154-1.305-1.747C16.03.657 14.073.541 12 .5H8z"/></g><path fill="none" d="M0 0h24v24H0z"/></svg>