<svg xmlns="http://www.w3.org/2000/svg" viewBox="0 0 24 24" width="24" height="24"><g fill="none" stroke="#000" stroke-linejoin="round" stroke-miterlimit="10"><circle cx="12" cy="12.021" r="11.5"/><path d="M13.5 3.662c3.954.728 7 4.193 7 8.358a8.461 8.461 0 01-.76 3.519L13.5 9.375V3.662zm0 9.953l4.471 4.455a8.519 8.519 0 01-4.471 2.315v-6.77zm-9.17 1.954l6.17-6.194v-5.72c-3.971.716-7 4.188-7 8.365 0 .934.27 2.819.83 3.549zm6.17 4.816a8.548 8.548 0 01-4.463-2.307l4.463-4.463v6.77z"/></g><path fill="none" d="M0 0h24v24H0z"/></svg>