<svg xmlns="http://www.w3.org/2000/svg" viewBox="0 0 24 24" width="24" height="24"><g fill="none" stroke="#000" stroke-linecap="round" stroke-linejoin="round" stroke-miterlimit="10"><path d="M4.984 16.754C3.929 14.768 3.083 13 3.083 13a1.2 1.2 0 011.761-1.602L7.5 14.5v-10a1.501 1.501 0 013 0v3.719m9-.719v10c0 2.763-2.238 5-5 5h-3.335a5.007 5.007 0 01-3.989-1.985"/><path d="M10.5 10V2.5a1.501 1.501 0 013 0V8m0 0V4.5a1.501 1.501 0 013 0V5m6-3L3 21.5"/></g><path fill="none" d="M0 0h24v24H0z"/></svg>