<svg xmlns="http://www.w3.org/2000/svg" viewBox="0 0 24 24" width="24" height="24"><g fill="none" stroke="#000" stroke-linejoin="round" stroke-miterlimit="10"><path d="M1.5.5h21v23h-21z"/><path d="M3.5 2.5h17v13h-17z"/><path d="M16.381 4l-2.178 1.783a5.448 5.448 0 00-2.201-.443 5.45 5.45 0 00-2.177.434L7.66 4c-.909 1.953-.692 3.008.406 4.055.084 1.482 1.887 4.522 3.937 4.522 2.035 0 3.826-2.997 3.935-4.491l.003.005c1.131-1.059 1.359-2.115.44-4.091zm-6.686 7.347S7.437 12.813 7.437 15.5m6.873-4.153s2.314 1.466 2.314 4.153M5.5 17v4.5H7m1.5-4h2v4h-2zm6.5 0h-2.5v2h2v2H12m4-4h3m-1.5 0V22m-7-14.75v1m3-1v1"/></g><path fill="none" d="M0 0h24v24H0z"/></svg>