<svg xmlns="http://www.w3.org/2000/svg" viewBox="0 0 24 24" width="24" height="24"><g fill="none" stroke="#000" stroke-linejoin="round" stroke-miterlimit="10"><path d="M.5.5h23v23H.5z"/><path d="M3.5 2.5h17v13h-17z"/><circle stroke-linecap="round" cx="12" cy="7.56" r="3.06"/><path stroke-linecap="round" d="M16.896 15.514h-9.79a4.894 4.894 0 119.79 0z"/></g><path d="M5.915 20.187a.75.75 0 10.75-.75.75.75 0 11.75-.75m-.75 2.25v.5m0-4v.5M9.481 21.395V17.48l-.467.447m3.872 1.51c0 1.104-.151 2-1.021 2-.871 0-1.021-.896-1.021-2s.15-2 1.021-2c.869 0 1.021.896 1.021 2zm3.354 0c0 1.104-.153 2-1.021 2-.87 0-1.021-.896-1.021-2s.151-2 1.021-2c.868 0 1.021.896 1.021 2z" fill="none" stroke="#000" stroke-linecap="round" stroke-linejoin="round" stroke-miterlimit="10"/><g fill="none" stroke="#000" stroke-linejoin="round" stroke-miterlimit="10"><path d="M.5.5h23v23H.5z"/><path d="M3.5 2.5h17v13h-17z"/><circle stroke-linecap="round" cx="12" cy="7.56" r="3.06"/><path stroke-linecap="round" d="M16.896 15.514h-9.79a4.894 4.894 0 119.79 0z"/><g stroke-linecap="round"><path d="M5.915 20.187a.75.75 0 10.75-.75.75.75 0 11.75-.75m-.75 2.25v.5m0-4v.5"/></g><path stroke-linecap="round" d="M9.481 21.395V17.48l-.467.447m3.872 1.51c0 1.104-.151 2-1.021 2-.871 0-1.021-.896-1.021-2s.15-2 1.021-2c.869 0 1.021.896 1.021 2zm3.354 0c0 1.104-.153 2-1.021 2-.87 0-1.021-.896-1.021-2s.151-2 1.021-2c.868 0 1.021.896 1.021 2z"/></g><path fill="none" d="M0 0h24v24H0z"/></svg>