<svg xmlns="http://www.w3.org/2000/svg" viewBox="0 0 24 24" width="24" height="24"><g fill="none" stroke="#000" stroke-linecap="round" stroke-linejoin="round" stroke-miterlimit="10"><path d="M2.5 4.5h17v12h-17z"/><path d="M23.5 23.5V.5H2.437m14.063 4v-4m-11 4v-4"/><path d="M15.5 12.5v-4h.5c.87 0 1.5.92 1.5 2s-.63 2-1.5 2h-.5zm-1.5 0h-1.5v-4m-2 2c0 1.104-.059 2-1 2-.943 0-1-.896-1-2 0-1.105.057-2 1-2 .941 0 1 .895 1 2zM5 11.563c.03.523.436.937.934.937.517 0 .938-.448.938-1.001 0-.815-.771-.952-.937-.999-.163-.048-.935-.186-.935-1 0-.553.419-1 .936-1 .498 0 .905.413.937.936"/></g><path fill="none" d="M0 0h24v24H0z"/></svg>