<svg xmlns="http://www.w3.org/2000/svg" viewBox="0 0 24 24" width="24" height="24"><defs><style>.a{fill:none;stroke:#000;stroke-linecap:round;stroke-linejoin:round;stroke-width:1.5px}</style></defs><title>signal-flags</title><circle class="a" cx="12" cy="4.875" r="2.625"/><path class="a" d="M19.5 9h-7.948a8.444 8.444 0 0 1-6.63-3.187 1.5 1.5 0 0 0-2.344 1.875A11.438 11.438 0 0 0 9 11.717V16.5l-2.771 4.455a1.5 1.5 0 1 0 2.543 1.591L12 17.38l3.229 5.166a1.5 1.5 0 0 0 2.543-1.591L15 16.5V12h4.5a1.5 1.5 0 0 0 0-3z"/><path class="a" d="M17.25 15v.75a1.5 1.5 0 0 0 1.5 1.5h3a1.5 1.5 0 0 0 1.5-1.5v-4.5a.75.75 0 0 0-.75-.75H21M.75 4.5V2.25a1.5 1.5 0 0 1 1.5-1.5h3a1.5 1.5 0 0 1 1.5 1.5V4.5"/></svg>