<svg xmlns="http://www.w3.org/2000/svg" viewBox="0 0 24 24" width="24" height="24"><g fill="none" stroke="#000" stroke-linejoin="round" stroke-miterlimit="10"><path stroke-linecap="round" d="M1.5 4.5h17v12h-17z"/><path stroke-linecap="round" d="M22.5 23.5V.5H1.437"/><path d="M15.5 4.5v-4m-11 4v-4"/><path d="M16.201 12.5H14.5v-4h1.701m-1.701 2h1.238M9.542 12.5l-1.106-4-1.107 4m.253-.979H9.29M13 12.5h-1.5v-4m-7.468 3.062c.031.525.438.938.936.938.518 0 .937-.448.937-1 0-.816-.771-.953-.936-1-.163-.049-.938-.186-.938-1 0-.553.421-1 .938-1 .498 0 .904.412.936.936" stroke-linecap="round"/></g><path fill="none" d="M0 0h24v24H0z"/></svg>