<svg xmlns="http://www.w3.org/2000/svg" viewBox="0 0 24 24" width="24" height="24"><path fill="none" stroke="#000" stroke-linejoin="round" stroke-miterlimit="10" d="M.5.5h23c0 16.5-8 22.958-11.5 22.958S.5 17 .5.5z"/><g fill="none" stroke="#000" stroke-linecap="round" stroke-linejoin="round" stroke-miterlimit="10"><path d="M15.436 8.117c1.648 0 1.934 1.407 1.934 2.19s-.286 2.193-1.934 2.193-1.936-1.409-1.936-2.192.288-2.191 1.936-2.191z"/><path d="M16.358 5C13.924 5 13.5 7.082 13.5 8.237v2.07M9.435 8.117c1.649 0 1.935 1.407 1.935 2.19S11.084 12.5 9.435 12.5c-1.648 0-1.935-1.409-1.935-2.192s.287-2.191 1.935-2.191z"/><path d="M10.357 5C7.924 5 7.5 7.082 7.5 8.237v2.07"/></g><path fill="none" d="M0 0h24v24H0z"/></svg>