<svg xmlns="http://www.w3.org/2000/svg" viewBox="0 0 24 24" width="24" height="24"><g fill="none" stroke="#000" stroke-linejoin="round" stroke-miterlimit="10"><path stroke-linecap="round" d="M1.5 4.5h17v12h-17z"/><path stroke-linecap="round" d="M22.5 23.5V.5H1.437"/><path d="M15.5 4.5v-4m-11 4v-4"/><path d="M9.201 12.415H7.5V8.5h1.701M7.5 10.457h1.238M11.5 12.415V8.5l2 3.915V8.5M3.5 12.415V8.5h.937c.797 0 .936.438.936.979 0 .542-.139.979-.936.979H3.5m.936-.001l.936 1.958M15.472 12.415V8.5m-.936 0h1.872" stroke-linecap="round"/></g><path fill="none" d="M0 0h24v24H0z"/></svg>