<svg xmlns="http://www.w3.org/2000/svg" viewBox="0 0 24 24" width="24" height="24"><g fill="none" stroke="#000" stroke-linejoin="round" stroke-miterlimit="10"><path d="M7 23.5h10l-5-10z"/><path stroke-linecap="round" d="M20.307 19.949A11.464 11.464 0 0023.5 12C23.5 5.648 18.352.5 12 .5S.5 5.648.5 12c0 3.084 1.217 5.883 3.193 7.949"/><path stroke-linecap="round" d="M5.908 16.363A7.455 7.455 0 014.5 12c0-4.143 3.357-7.5 7.5-7.5a7.5 7.5 0 017.5 7.5 7.455 7.455 0 01-1.408 4.363"/><path stroke-linecap="round" d="M8.508 12.153c-.002-.051-.008-.102-.008-.153 0-1.957 1.6-3.5 3.5-3.5 1.903 0 3.5 1.545 3.5 3.5 0 .051-.006.102-.008.153M12 13.5v-2"/><path d="M7.021 23.5l7.479-5m2.5 5l-7.5-5m.771-1.5h3.458"/></g><path fill="none" d="M0 0h24v24H0z"/></svg>