<svg xmlns="http://www.w3.org/2000/svg" viewBox="0 0 24 24" width="24" height="24"><g fill="none" stroke="#000" stroke-linejoin="round" stroke-miterlimit="10"><path stroke-linecap="round" d="M3.868 3.868C1.787 5.949.5 8.824.5 12s1.287 6.051 3.368 8.133M6.696 6.697A7.484 7.484 0 004.5 12c0 2.071.84 3.945 2.196 5.304m2.829-7.779C8.892 10.158 8.5 11.033 8.5 12s.392 1.842 1.025 2.475M20.132 3.868C22.213 5.949 23.5 8.824 23.5 12s-1.287 6.051-3.368 8.133M17.304 6.697A7.484 7.484 0 0119.5 12c0 2.071-.84 3.945-2.196 5.304m-2.829-7.779c.633.633 1.025 1.508 1.025 2.475s-.392 1.842-1.025 2.475"/><circle cx="12" cy="12" r=".5"/></g><path fill="none" d="M0 0h24v24H0z"/></svg>