<svg xmlns="http://www.w3.org/2000/svg" viewBox="0 0 24 24" width="24" height="24"><g fill="none" stroke="#000" stroke-linejoin="round" stroke-miterlimit="10"><path d="M1.5.5h21v19h-21zm2 19h3v4h-3zm14 0h3v4h-3z"/><path d="M11.201 15.5H9.5v-4h1.701m-1.701 2h1.238M13.5 15.415V11.5l2 3.915V11.5M5.5 15.415V11.5h.937c.797 0 .936.438.936.979 0 .542-.139.979-.936.979H5.5m.936-.001l.936 1.958M18.503 15.5v-4m-1.003 0h2M7.5 8.5v-4h1.701M7.5 6.5h1.238M13.212 6.5c0 1.104-.165 2-1.106 2-.942 0-1.106-.896-1.106-2s.164-2 1.106-2c.941 0 1.106.896 1.106 2zM15.5 8.415V4.5h.937c.797 0 .937.438.937.979 0 .542-.14.979-.937.979H15.5m.936-.001l.937 1.958" stroke-linecap="round"/></g><path fill="none" d="M0 0h24v24H0z"/></svg>