<svg xmlns="http://www.w3.org/2000/svg" viewBox="0 0 24 24" width="24" height="24"><g fill="none" stroke="#000" stroke-linecap="round" stroke-linejoin="round" stroke-miterlimit="10"><path d="M3.5 14.5a2 2 0 002 2h14a2 2 0 002-2v-4a2 2 0 00-2-2h-14a2 2 0 00-2 2v4zm3.5-6L12.5 3 18 8.5"/><path d="M17 14.5v-4h.5c.87 0 1.5.92 1.5 2s-.63 2-1.5 2H17zm-1.5 0h-2v-4m-2 2c0 1.104-.059 2-1 2-.943 0-1-.896-1-2 0-1.105.057-2 1-2 .941 0 1 .895 1 2zM6 13.563c.03.523.437.937.935.937.517 0 .938-.448.938-1.001 0-.815-.771-.952-.937-.999-.164-.048-.936-.186-.936-1 0-.553.419-1 .936-1 .498 0 .905.413.937.936"/></g><path fill="none" d="M0 0h24v24H0z"/></svg>