<svg xmlns="http://www.w3.org/2000/svg" viewBox="0 0 24 24" width="24" height="24"><g fill="none" stroke="#000" stroke-linejoin="round" stroke-miterlimit="10"><path stroke-linecap="round" d="M11.5 13.5V22m7.632-19.5c2.081 2.082 3.368 4.957 3.368 8.133s-1.287 6.051-3.368 8.131M16.303 5.329a7.48 7.48 0 012.197 5.304 7.48 7.48 0 01-2.197 5.303M3.868 2.5C1.787 4.582.5 7.457.5 10.633s1.287 6.051 3.368 8.131M6.696 5.329A7.482 7.482 0 004.5 10.633c0 2.07.84 3.945 2.196 5.303"/><circle cx="11.5" cy="10.5" r="3"/></g><path fill="none" d="M0 0h24v24H0z"/></svg>