<svg xmlns="http://www.w3.org/2000/svg" viewBox="0 0 24 24" width="24" height="24"><g fill="none" stroke="#000" stroke-linejoin="round" stroke-miterlimit="10"><path d="M1.5.5h21v19h-21zm2 19h3v4h-3zm14 0h3v4h-3z"/><path d="M19 15.5h-1.5v-4H19m-1.5 2h1M7.5 7.5v-4H9m-1.5 2H9M11.5 15.5l-1.25-3.914L9 15.5m.319-1h1.861M15.5 15.5h-2v-4m0-6c0 1.104-.309 2-1.25 2-.942 0-1.25-.896-1.25-2s.308-2 1.25-2c.941 0 1.25.896 1.25 2zM15.5 7.5v-4h1c.797 0 1 .46 1 1 0 .542-.703 1-1.5 1h-.5m1 0l1 2M5.062 14.562c.031.525.438.938.937.938.518 0 .937-.448.937-1 0-.816-.771-.953-.936-1-.163-.049-.938-.186-.938-1 0-.553.421-1 .938-1 .498 0 .904.412.936.936" stroke-linecap="round"/></g><path fill="none" d="M0 0h24v24H0z"/></svg>