<svg xmlns="http://www.w3.org/2000/svg" viewBox="0 0 24 24" width="24" height="24"><defs><style>.a{fill:none;stroke:#000;stroke-linecap:round;stroke-linejoin:round;stroke-width:1.5px}</style></defs><title>sim-card</title><path class="a" d="M21.25 6.555a1.5 1.5 0 0 0-.361-.976l-4.44-4.3A1.5 1.5 0 0 0 15.31.75H4.75a1.5 1.5 0 0 0-1.5 1.5v19.5a1.5 1.5 0 0 0 1.5 1.5h15a1.5 1.5 0 0 0 1.5-1.5z"/><rect class="a" x="7.75" y="14.25" width="7.5" height="6" rx="1.5" ry="1.5"/><path class="a" d="M7.75 17.25h1.5m6 0h-1.5m-6-16.5v4.5m4.5-4.5v4.5"/></svg>