<svg id="Regular" xmlns="http://www.w3.org/2000/svg" viewBox="0 0 24 24" width="24" height="24"><defs><style>.cls-1{fill:none;stroke:#000;stroke-linecap:round;stroke-linejoin:round;stroke-width:1.5px}</style></defs><title>single-woman-focus</title><path class="cls-1" d="M.75 6.751V2.25a1.5 1.5 0 0 1 1.5-1.5h4.5m16.5 6.001V2.25a1.5 1.5 0 0 0-1.5-1.5h-4.5M.75 17.25v4.5a1.5 1.5 0 0 0 1.5 1.5h4.5m16.5-6v4.5a1.5 1.5 0 0 1-1.5 1.5h-4.5M7.888 8.955a6.006 6.006 0 0 1-.871 3.3m9.095-3.3a6.006 6.006 0 0 0 .871 3.3m-9.095-3.3A5.487 5.487 0 0 0 12 7.055a5.487 5.487 0 0 0 4.112 1.9"/><circle class="cls-1" cx="12" cy="8.625" r="4.125"/><path class="cls-1" d="M18.337 18.75a6.712 6.712 0 0 0-12.674 0"/></svg>