<svg id="Regular" xmlns="http://www.w3.org/2000/svg" viewBox="0 0 24 24" width="24" height="24"><defs><style>.cls-1{fill:none;stroke:#000;stroke-linecap:round;stroke-linejoin:round;stroke-width:1.5px}</style></defs><title>single-woman-actions-alarm</title><path class="cls-1" d="M.75 16.875a6.753 6.753 0 0 1 9.4-6.208M3.376 4.611v1a5.918 5.918 0 0 1-.859 3.269m9.106-4.269v1a5.909 5.909 0 0 0 .86 3.273M3.387 4.83A5.489 5.489 0 0 0 7.5 2.93a5.486 5.486 0 0 0 4.112 1.9"/><circle class="cls-1" cx="7.5" cy="4.5" r="4.125"/><path class="cls-1" d="M18 11.625a3.75 3.75 0 0 1 3.75 3.75v3a1.5 1.5 0 0 0 1.5 1.5h-10.5a1.5 1.5 0 0 0 1.5-1.5v-3a3.75 3.75 0 0 1 3.75-3.75zm0 10.5a.375.375 0 1 1-.375.375.375.375 0 0 1 .375-.375"/></svg>