<svg id="Regular" xmlns="http://www.w3.org/2000/svg" viewBox="0 0 24 24" width="24" height="24"><defs><style>.cls-1{fill:none;stroke:#000;stroke-linecap:round;stroke-linejoin:round;stroke-width:1.5px}</style></defs><title>single-woman-actions-graduate</title><path class="cls-1" d="M16.5 14.308l-6.75 2.78 6.75 2.47 6.75-2.47-6.75-2.78zm-6.75 2.758v3.772"/><path class="cls-1" d="M12.75 18.186V21.3a.75.75 0 0 0 .471.7l3 1.2a.755.755 0 0 0 .557 0l3-1.2a.751.751 0 0 0 .472-.7v-3.114"/><circle class="cls-1" cx="6" cy="3.75" r="3"/><path class="cls-1" d="M11.25 13.5a5.243 5.243 0 0 0-2.365-4.385L6 13.5 3.114 9.115A5.244 5.244 0 0 0 .75 13.5v2.25H3l.75 7.5h4.5M3 3.75S3 7.5.75 7.5M9 3.75S9 7.5 11.25 7.5"/></svg>