<svg id="Regular" xmlns="http://www.w3.org/2000/svg" viewBox="0 0 24 24" width="24" height="24"><defs><style>.cls-1{fill:none;stroke:#000;stroke-linecap:round;stroke-linejoin:round;stroke-width:1.5px}</style></defs><title>single-man-megaphone</title><circle class="cls-1" cx="5.25" cy="3.75" r="3"/><path class="cls-1" d="M5.25 8.25v6m2.25 9l.75-7.5h1.5v-3a4.5 4.5 0 0 0-9 0v3h1.5l.75 7.5zM22.318 8.557L14.25 6.54V2.79L22.318.773a.749.749 0 0 1 .932.727v6.329a.751.751 0 0 1-.932.728zM14.25 1.29v6.75"/><path class="cls-1" d="M17.25 7.29v.628a3.291 3.291 0 0 0 2.25 3.122"/></svg>