<svg id="Regular" xmlns="http://www.w3.org/2000/svg" viewBox="0 0 24 24" width="24" height="24"><defs><style>.cls-1{fill:none;stroke:#000;stroke-linecap:round;stroke-linejoin:round;stroke-width:1.5px}</style></defs><title>single-woman-shopping-bag</title><circle class="cls-1" cx="5.25" cy="3.75" r="3"/><path class="cls-1" d="M9.552 11.441A4.534 4.534 0 0 0 8.07 9.269L5.25 13.5 2.43 9.269A4.471 4.471 0 0 0 .75 12.75v3h1.576l.75 7.5h4.348l.524-5.237M2.25 3.75s0 3.75-1.5 3.75m7.5-3.75s0 3.75 1.5 3.75m13.5 15.75h-12l1.5-10.5h9l1.5 10.5z"/><path class="cls-1" d="M15 15.75V10.5a2.25 2.25 0 0 1 4.5 0v5.25"/></svg>