<svg id="Regular" xmlns="http://www.w3.org/2000/svg" viewBox="0 0 24 24" width="24" height="24"><defs><style>.cls-1{fill:none;stroke:#000;stroke-linecap:round;stroke-linejoin:round;stroke-width:1.5px}</style></defs><title>single-man-actions-mail</title><path class="cls-1" d="M23.25 15.75v6a1.5 1.5 0 0 1-1.5 1.5h-9a1.5 1.5 0 0 1-1.5-1.5v-6"/><path class="cls-1" d="M23.25 15.75a1.5 1.5 0 0 0-1.5-1.5h-9a1.5 1.5 0 0 0-1.5 1.5L16.455 19a1.5 1.5 0 0 0 1.59 0z"/><circle class="cls-1" cx="6" cy="3.75" r="3"/><path class="cls-1" d="M10.742 11.245A5.251 5.251 0 0 0 .75 13.5v2.25H3l.75 7.5h4.5l.185-1.85M6 8.25v6"/></svg>