<svg id="Regular" xmlns="http://www.w3.org/2000/svg" viewBox="0 0 24 24" width="24" height="24"><defs><style>.cls-1{fill:none;stroke:#000;stroke-linecap:round;stroke-linejoin:round;stroke-width:1.5px}</style></defs><title>single-neutral-actions-chat</title><circle class="cls-1" cx="7.5" cy="4.875" r="4.125"/><path class="cls-1" d="M8.25 10.558a6.409 6.409 0 0 0-.75-.058 6.75 6.75 0 0 0-6.75 6.75m21 3h-3l-4.5 3v-3h-1.5a1.5 1.5 0 0 1-1.5-1.5v-6a1.5 1.5 0 0 1 1.5-1.5h9a1.5 1.5 0 0 1 1.5 1.5v6a1.5 1.5 0 0 1-1.5 1.5zm-7.5-6h6m-6 3h6"/></svg>