<svg id="Regular" xmlns="http://www.w3.org/2000/svg" viewBox="0 0 24 24" width="24" height="24"><defs><style>.cls-1{fill:none;stroke:#000;stroke-linecap:round;stroke-linejoin:round;stroke-width:1.5px}</style></defs><title>single-neutral-id-card-2</title><circle class="cls-1" cx="11.25" cy="13.125" r="3.375"/><path class="cls-1" d="M12.414 18.112A6.125 6.125 0 0 0 11.25 18a6.047 6.047 0 0 0-6 5.25m9-3h3"/><path class="cls-1" d="M9.75 3.75h-4.5a1.5 1.5 0 0 0-1.5 1.5v16.5a1.5 1.5 0 0 0 1.5 1.5h13.5a1.5 1.5 0 0 0 1.5-1.5V5.25a1.5 1.5 0 0 0-1.5-1.5h-4.5"/><path class="cls-1" d="M14.25 3a2.25 2.25 0 0 0-4.5 0v3a.75.75 0 0 0 .75.75h3a.75.75 0 0 0 .75-.75z"/></svg>