<svg id="Regular" xmlns="http://www.w3.org/2000/svg" viewBox="0 0 24 24" width="24" height="24"><defs><style>.cls-1{fill:none;stroke:#000;stroke-linecap:round;stroke-linejoin:round;stroke-width:1.5px}</style></defs><title>single-neutral-id-card-4</title><circle class="cls-1" cx="8.25" cy="8.625" r="2.625"/><path class="cls-1" d="M3.75 16.5a4.5 4.5 0 0 1 9 0zM14.25 9h4.5m-4.5 3h6"/><path class="cls-1" d="M21.75 3H2.25a1.5 1.5 0 0 0-1.5 1.5v15a1.5 1.5 0 0 0 1.5 1.5h3a1.5 1.5 0 0 1 3 0h7.5a1.5 1.5 0 0 1 3 0h3a1.5 1.5 0 0 0 1.5-1.5v-15a1.5 1.5 0 0 0-1.5-1.5z"/></svg>