<svg id="Regular" xmlns="http://www.w3.org/2000/svg" viewBox="0 0 24 24" width="24" height="24"><defs><style>.cls-1{fill:none;stroke:#000;stroke-linecap:round;stroke-linejoin:round;stroke-width:1.5px}</style></defs><title>single-woman</title><path class="cls-1" d="M21.476 23.25a10.483 10.483 0 0 0-18.952 0M12 5.25a5.251 5.251 0 0 1-5.25 5.25 5.25 5.25 0 0 0 10.5 0A5.25 5.25 0 0 1 12 5.25z"/><path class="cls-1" d="M17.836 19.027a14.576 14.576 0 0 0 3.391-1.007 1.5 1.5 0 0 0 .763-1.961l-1.376-3.21a4.5 4.5 0 0 1-.364-1.773V9a8.25 8.25 0 0 0-16.5 0v2.076a4.5 4.5 0 0 1-.364 1.773l-1.376 3.21a1.5 1.5 0 0 0 .763 1.961 14.576 14.576 0 0 0 3.391 1.007"/></svg>