<svg id="Regular" xmlns="http://www.w3.org/2000/svg" viewBox="0 0 24 24" width="24" height="24"><defs><style>.cls-1{fill:none;stroke:#000;stroke-linecap:round;stroke-linejoin:round;stroke-width:1.5px}</style></defs><title>single-woman-idea</title><path class="cls-1" d="M19.125 9.75V12m3.75-7.5a3.75 3.75 0 1 0-5.25 3.437V9.75h3V7.937a3.751 3.751 0 0 0 2.25-3.437z"/><circle class="cls-1" cx="5.625" cy="3.75" r="3"/><path class="cls-1" d="M8.409 9.216L5.625 12.75 2.841 9.216a4.489 4.489 0 0 0-1.716 3.534v3h1.5l.75 7.5h4.5l.75-7.5h1.5v-3a4.489 4.489 0 0 0-1.716-3.534zM2.625 3.75s0 3-1.5 3m7.5-3s0 3 1.5 3"/></svg>