<svg id="Regular" xmlns="http://www.w3.org/2000/svg" viewBox="0 0 24 24" width="24" height="24"><defs><style>.cls-1{fill:none;stroke:#000;stroke-linecap:round;stroke-linejoin:round;stroke-width:1.5px}</style></defs><title>single-woman-actions-money</title><path class="cls-1" d="M18.75 14.25h-2.034a1.342 1.342 0 0 0-.5 2.588l2.063.825a1.341 1.341 0 0 1-.5 2.587H15.75m1.5-6v-.75m0 7.5v-.75"/><circle class="cls-1" cx="17.25" cy="17.25" r="6"/><circle class="cls-1" cx="6" cy="3.75" r="3"/><path class="cls-1" d="M10.567 10.91a5.286 5.286 0 0 0-1.681-1.8L6 13.5 3.114 9.114A5.246 5.246 0 0 0 .75 13.5v2.25H3l.75 7.5h4.5l.357-3.573M3 3.75S3 7.5.75 7.5M9 3.75S9 7.5 11.25 7.5"/></svg>