<svg id="Regular" xmlns="http://www.w3.org/2000/svg" viewBox="0 0 24 24" width="24" height="24"><defs><style>.cls-1{fill:none;stroke:#000;stroke-linecap:round;stroke-linejoin:round;stroke-width:1.5px}</style></defs><title>single-woman-hierachy</title><rect class="cls-1" x="18.75" y=".75" width="4.5" height="4.5" rx=".75" ry=".75"/><rect class="cls-1" x="18.75" y="9.75" width="4.5" height="4.5" rx=".75" ry=".75"/><rect class="cls-1" x="18.75" y="18.75" width="4.5" height="4.5" rx=".75" ry=".75"/><path class="cls-1" d="M18.75 11.25h-6m6-9h-1.5a1.5 1.5 0 0 0-1.5 1.5v15a1.5 1.5 0 0 0 1.5 1.5h1.5"/><circle class="cls-1" cx="5.25" cy="3.75" r="3"/><path class="cls-1" d="M8.034 9.216L5.25 12.75 2.466 9.216A4.489 4.489 0 0 0 .75 12.75v3h1.5l.75 7.5h4.5l.75-7.5h1.5v-3a4.489 4.489 0 0 0-1.716-3.534zM2.25 3.75s0 3-1.5 3m7.5-3s0 3 1.5 3"/></svg>