<svg id="Regular" xmlns="http://www.w3.org/2000/svg" viewBox="0 0 24 24" width="24" height="24"><defs><style>.cls-1{fill:none;stroke:#000;stroke-linecap:round;stroke-linejoin:round;stroke-width:1.5px}</style></defs><title>single-woman-actions-remove</title><circle class="cls-1" cx="17.25" cy="17.249" r="6"/><path class="cls-1" d="M19.5 14.998l-4.5 4.5m0-4.5l4.5 4.5M3.377 4.987v1a5.909 5.909 0 0 1-.86 3.273m9.107-4.273v1a5.91 5.91 0 0 0 .859 3.273M3.388 5.206a5.487 5.487 0 0 0 4.112-1.9 5.487 5.487 0 0 0 4.112 1.9"/><circle class="cls-1" cx="7.5" cy="4.876" r="4.125"/><path class="cls-1" d="M.75 17.251a6.753 6.753 0 0 1 9.4-6.208"/></svg>