<svg id="Regular" xmlns="http://www.w3.org/2000/svg" viewBox="0 0 24 24" width="24" height="24"><defs><style>.cls-1{fill:none;stroke:#000;stroke-linecap:round;stroke-linejoin:round;stroke-width:1.5px}</style></defs><title>single-woman-actions-upload</title><path class="cls-1" d="M3.376 4.986v1a5.918 5.918 0 0 1-.859 3.273m9.106-4.273v1a5.909 5.909 0 0 0 .86 3.273M3.387 5.205a5.489 5.489 0 0 0 4.113-1.9 5.486 5.486 0 0 0 4.112 1.9"/><circle class="cls-1" cx="7.5" cy="4.875" r="4.125"/><path class="cls-1" d="M.75 17.25a6.753 6.753 0 0 1 9.4-6.208"/><circle class="cls-1" cx="17.25" cy="17.25" r="6"/><path class="cls-1" d="M17.25 20.25v-6m0 0L15 16.5m2.25-2.25l2.25 2.25"/></svg>