<svg id="Regular" xmlns="http://www.w3.org/2000/svg" viewBox="0 0 24 24" width="24" height="24"><defs><style>.cls-1{fill:none;stroke:#000;stroke-linecap:round;stroke-linejoin:round;stroke-width:1.5px}</style></defs><title>single-woman-actions-warning</title><path class="cls-1" d="M3.376 4.986v1a5.912 5.912 0 0 1-.859 3.272m9.106-4.272v1a5.9 5.9 0 0 0 .86 3.272M3.388 5.2A5.485 5.485 0 0 0 7.5 3.305a5.481 5.481 0 0 0 4.112 1.9"/><circle class="cls-1" cx="7.5" cy="4.875" r="4.125"/><path class="cls-1" d="M.75 17.25a6.75 6.75 0 0 1 11.3-4.983m5.2 7.983a.375.375 0 1 0 .375.375.375.375 0 0 0-.375-.375m0-2.25v-3"/><path class="cls-1" d="M23.062 20.682a1.774 1.774 0 0 1-1.587 2.568h-8.451a1.775 1.775 0 0 1-1.587-2.568l4.226-8.452a1.774 1.774 0 0 1 3.173 0z"/></svg>