<svg id="Regular" xmlns="http://www.w3.org/2000/svg" viewBox="0 0 24 24" width="24" height="24"><defs><style>.cls-1{fill:none;stroke:#000;stroke-linecap:round;stroke-linejoin:round;stroke-width:1.5px}</style></defs><title>single-man-mail</title><path class="cls-1" d="M23.25 2.25v6a1.5 1.5 0 0 1-1.5 1.5h-9a1.5 1.5 0 0 1-1.5-1.5v-6"/><path class="cls-1" d="M23.25 2.25a1.5 1.5 0 0 0-1.5-1.5h-9a1.5 1.5 0 0 0-1.5 1.5l5.2 3.253a1.5 1.5 0 0 0 1.59 0z"/><circle class="cls-1" cx="5.25" cy="3.75" r="3"/><path class="cls-1" d="M5.25 8.25v6m2.25 9l.75-7.5h1.5v-3a4.5 4.5 0 0 0-9 0v3h1.5l.75 7.5z"/></svg>