<svg id="Regular" xmlns="http://www.w3.org/2000/svg" viewBox="0 0 24 24" width="24" height="24"><defs><style>.cls-1{fill:none;stroke:#000;stroke-linecap:round;stroke-linejoin:round;stroke-width:1.5px}</style></defs><title>single-woman-actions-share-2</title><path class="cls-1" d="M3.376 4.986v1a5.912 5.912 0 0 1-.859 3.272m9.106-4.272v1a5.9 5.9 0 0 0 .86 3.272M3.387 5.2A5.485 5.485 0 0 0 7.5 3.305a5.481 5.481 0 0 0 4.112 1.9"/><circle class="cls-1" cx="7.5" cy="4.875" r="4.125"/><path class="cls-1" d="M.75 17.25A6.75 6.75 0 0 1 12 12.219"/><circle class="cls-1" cx="13.5" cy="18" r="2.25"/><circle class="cls-1" cx="21" cy="21" r="2.25"/><circle class="cls-1" cx="21" cy="13.5" r="2.25"/><path class="cls-1" d="M15.424 16.845l3.65-2.19m-3.486 4.18l3.324 1.33"/></svg>