<svg id="Regular" xmlns="http://www.w3.org/2000/svg" viewBox="0 0 24 24" width="24" height="24"><defs><style>.cls-1{fill:none;stroke:#000;stroke-linecap:round;stroke-linejoin:round;stroke-width:1.5px}</style></defs><title>single-man-actions-warning</title><path class="cls-1" d="M3.945 2.781a6.846 6.846 0 0 0 4.93 2.094 6.847 6.847 0 0 0 2.712-.558"/><circle class="cls-1" cx="7.5" cy="4.875" r="4.125"/><path class="cls-1" d="M17.25 20.25a.375.375 0 1 0 .375.375.374.374 0 0 0-.375-.375m0-2.25v-3"/><path class="cls-1" d="M23.062 20.682a1.774 1.774 0 0 1-1.587 2.568h-8.451a1.774 1.774 0 0 1-1.587-2.568l4.226-8.452a1.774 1.774 0 0 1 3.173 0zM12.21 12.425A6.743 6.743 0 0 0 .75 17.25"/></svg>