<svg id="Regular" xmlns="http://www.w3.org/2000/svg" viewBox="0 0 24 24" width="24" height="24"><defs><style>.cls-1{fill:none;stroke:#000;stroke-linecap:round;stroke-linejoin:round;stroke-width:1.5px}</style></defs><title>single-woman-actions-flag</title><circle class="cls-1" cx="6" cy="3.75" r="3"/><path class="cls-1" d="M9.756 9.833a5.329 5.329 0 0 0-.871-.719L6 13.5 3.114 9.114A5.243 5.243 0 0 0 .75 13.5v2.25H3l.75 7.5h4.5l.75-7.5h.75M3 3.75S3 7.5.75 7.5M9 3.75s0 2.528 1.245 3.433M12.75 9v14.25m0-5.982l1.5-.509a4.249 4.249 0 0 1 3.75.509 4.249 4.249 0 0 0 3.745.508l1.5-.508V8.983l-1.5.509A4.249 4.249 0 0 1 18 8.983a4.249 4.249 0 0 0-3.746-.509l-1.5.509z"/></svg>