<svg id="Regular" xmlns="http://www.w3.org/2000/svg" viewBox="0 0 24 24" width="24" height="24"><defs><style>.cls-1{fill:none;stroke:#000;stroke-linecap:round;stroke-linejoin:round;stroke-width:1.5px}</style></defs><title>single-man-actions-graduate</title><path class="cls-1" d="M16.5 14.308l-6.75 2.779 6.75 2.471 6.75-2.471-6.75-2.779zm-6.75 2.758v3.771"/><path class="cls-1" d="M12.75 18.185V21.3a.75.75 0 0 0 .471.7l3 1.2a.748.748 0 0 0 .558 0l3-1.2a.75.75 0 0 0 .471-.7v-3.115"/><circle class="cls-1" cx="6" cy="3.75" r="3"/><path class="cls-1" d="M11.25 13.5a5.25 5.25 0 0 0-10.5 0v2.25H3l.75 7.5h4.5M6 8.25v6"/></svg>