<svg id="Regular" xmlns="http://www.w3.org/2000/svg" viewBox="0 0 24 24" width="24" height="24"><defs><style>.cls-1{fill:none;stroke:#000;stroke-linecap:round;stroke-linejoin:round;stroke-width:1.5px}</style></defs><title>single-woman-statics-3</title><path class="cls-1" d="M12.75 14.25h9a1.5 1.5 0 0 0 1.5-1.5V2.25a1.5 1.5 0 0 0-1.5-1.5h-10.5"/><path class="cls-1" d="M15.75 11.25v-6a1.5 1.5 0 0 1 3 0v6m-3-3h3"/><circle class="cls-1" cx="5.25" cy="3.75" r="3"/><path class="cls-1" d="M8.034 9.216L5.25 12.75 2.466 9.216A4.489 4.489 0 0 0 .75 12.75v3h1.5l.75 7.5h4.5l.75-7.5h1.5v-3a4.489 4.489 0 0 0-1.716-3.534zM2.25 3.75s0 3-1.5 3m7.5-3s0 3 1.5 3"/></svg>