<svg id="Regular" xmlns="http://www.w3.org/2000/svg" viewBox="0 0 24 24" width="24" height="24"><defs><style>.cls-1{fill:none;stroke:#000;stroke-linecap:round;stroke-linejoin:round;stroke-width:1.5px}</style></defs><title>single-woman-actions-flash</title><path class="cls-1" d="M3.376 4.986v1a5.912 5.912 0 0 1-.859 3.272m9.106-4.272v1a5.9 5.9 0 0 0 .86 3.272M3.387 5.2A5.485 5.485 0 0 0 7.5 3.305a5.481 5.481 0 0 0 4.112 1.9"/><circle class="cls-1" cx="7.5" cy="4.875" r="4.125"/><path class="cls-1" d="M.75 17.25a6.75 6.75 0 0 1 11.957-4.295M20.25 9.75l-5.911 6.882a.375.375 0 0 0 .286.618h2.625v6l5.91-6.882a.375.375 0 0 0-.285-.618H20.25z"/></svg>