<svg id="Regular" xmlns="http://www.w3.org/2000/svg" viewBox="0 0 24 24" width="24" height="24"><defs><style>.cls-1{fill:none;stroke:#000;stroke-linecap:round;stroke-linejoin:round;stroke-width:1.5px}</style></defs><title>single-woman-actions-flash</title><path class="cls-1" d="M20.25 9.75l-5.911 6.882a.375.375 0 0 0 .286.618h2.625v6l5.91-6.882a.375.375 0 0 0-.285-.618H20.25z"/><circle class="cls-1" cx="6" cy="3.75" r="3"/><path class="cls-1" d="M8.25 23.25l.75-7.5h2.25V13.5a5.244 5.244 0 0 0-2.365-4.386L6 13.5 3.114 9.114A5.246 5.246 0 0 0 .75 13.5v2.25H3l.75 7.5zM3 3.75S3 7.5.75 7.5M9 3.75S9 7.5 11.25 7.5"/></svg>