<svg id="Regular" xmlns="http://www.w3.org/2000/svg" viewBox="0 0 24 24" width="24" height="24"><defs><style>.cls-1{fill:none;stroke:#000;stroke-linecap:round;stroke-linejoin:round;stroke-width:1.5px}</style></defs><title>single-woman-id-card</title><path class="cls-1" d="M9.75 3.75h-4.5a1.5 1.5 0 0 0-1.5 1.5v16.5a1.5 1.5 0 0 0 1.5 1.5h13.5a1.5 1.5 0 0 0 1.5-1.5V5.25a1.5 1.5 0 0 0-1.5-1.5h-4.5"/><path class="cls-1" d="M14.25 3a2.25 2.25 0 0 0-4.5 0v3a.75.75 0 0 0 .75.75h3a.75.75 0 0 0 .75-.75zm2.104 20.25a4.52 4.52 0 0 0-2.513-5.216L12 20.625l-1.841-2.591a4.522 4.522 0 0 0-2.514 5.216"/><circle class="cls-1" cx="12" cy="13.125" r="3"/><path class="cls-1" d="M9 13.125s0 3.75-2.25 3.75m8.25-3.75s0 3.75 2.25 3.75"/></svg>