<svg id="Regular" xmlns="http://www.w3.org/2000/svg" viewBox="0 0 24 24" width="24" height="24"><defs><style>.cls-1{fill:none;stroke:#000;stroke-linecap:round;stroke-linejoin:round;stroke-width:1.5px}</style></defs><title>single-neutral-actions-process</title><circle class="cls-1" cx="5.25" cy="3.75" r="3"/><path class="cls-1" d="M7.5 23.25l.75-7.5h1.5v-3a4.5 4.5 0 0 0-9 0v3h1.5l.75 7.5zm9-12h-3.75m3.75-9h-.75a1.5 1.5 0 0 0-1.5 1.5v15a1.5 1.5 0 0 0 1.5 1.5h.75m2.25-18l1.5 1.5 3-3m-4.5 10.5l1.5 1.5 3-3m-4.5 9l4.5 4.5m0-4.5l-4.5 4.5"/></svg>