<svg id="Regular" xmlns="http://www.w3.org/2000/svg" viewBox="0 0 24 24" width="24" height="24"><defs><style>.cls-1{fill:none;stroke:#000;stroke-linecap:round;stroke-linejoin:round;stroke-width:1.5px}</style></defs><title>single-woman-actions-wifi</title><path class="cls-1" d="M.75 17.25a6.753 6.753 0 0 1 9.4-6.208M3.376 4.986v1a5.912 5.912 0 0 1-.859 3.272m9.106-4.272v1a5.9 5.9 0 0 0 .86 3.272M3.387 5.2A5.485 5.485 0 0 0 7.5 3.305a5.481 5.481 0 0 0 4.112 1.9"/><circle class="cls-1" cx="7.5" cy="4.875" r="4.125"/><path class="cls-1" d="M17.25 22.424a.375.375 0 1 1-.375.375.375.375 0 0 1 .375-.375m6-6.802a9.542 9.542 0 0 0-12 0m2.499 3.616a5.567 5.567 0 0 1 7 0"/></svg>