<svg id="Regular" xmlns="http://www.w3.org/2000/svg" viewBox="0 0 24 24" width="24" height="24"><defs><style>.cls-1{fill:none;stroke:#000;stroke-linecap:round;stroke-linejoin:round;stroke-width:1.5px}</style></defs><title>single-man-focus</title><path class="cls-1" d="M8.445 6.531a6.858 6.858 0 0 0 7.643 1.536"/><circle class="cls-1" cx="12" cy="8.625" r="4.125"/><path class="cls-1" d="M.75 6.751V2.25a1.5 1.5 0 0 1 1.5-1.5h4.5m16.5 6.001V2.25a1.5 1.5 0 0 0-1.5-1.5h-4.5M.75 17.25v4.5a1.5 1.5 0 0 0 1.5 1.5h4.5m16.5-6v4.5a1.5 1.5 0 0 1-1.5 1.5h-4.5m1.087-4.5a6.712 6.712 0 0 0-12.674 0"/></svg>