<svg id="Regular" xmlns="http://www.w3.org/2000/svg" viewBox="0 0 24 24" width="24" height="24"><defs><style>.cls-1{fill:none;stroke:#000;stroke-linecap:round;stroke-linejoin:round;stroke-width:1.5px}</style></defs><title>single-man-actions-lock</title><path class="cls-1" d="M3.945 2.781a6.848 6.848 0 0 0 4.93 2.094 6.847 6.847 0 0 0 2.712-.558"/><circle class="cls-1" cx="7.5" cy="4.875" r="4.125"/><path class="cls-1" d="M12.21 12.425A6.743 6.743 0 0 0 .75 17.25"/><rect class="cls-1" x="14.25" y="15.75" width="9" height="7.5" rx="1.5" ry="1.5"/><path class="cls-1" d="M18.75 11.25a3 3 0 0 0-3 3v1.5h6v-1.5a3 3 0 0 0-3-3zm0 7.904a.375.375 0 1 0 .375.375.374.374 0 0 0-.375-.375"/></svg>