<svg id="Regular" xmlns="http://www.w3.org/2000/svg" viewBox="0 0 24 24" width="24" height="24"><defs><style>.cls-1{fill:none;stroke:#000;stroke-linecap:round;stroke-linejoin:round;stroke-width:1.5px}</style></defs><title>single-neutral-flag-2</title><path class="cls-1" d="M12.75 9v14.25m0-5.983l1.505-.509a4.249 4.249 0 0 1 3.745.509 4.246 4.246 0 0 0 3.745.509l1.5-.509V8.983l-1.5.508A4.249 4.249 0 0 1 18 8.983a4.246 4.246 0 0 0-3.745-.509l-1.505.509z"/><circle class="cls-1" cx="5.25" cy="3.75" r="3"/><path class="cls-1" d="M9.19 10.575A4.5 4.5 0 0 0 .75 12.75v3h1.5l.75 7.5h4.5l.51-5.1"/></svg>