<svg id="Regular" xmlns="http://www.w3.org/2000/svg" viewBox="0 0 24 24" width="24" height="24"><defs><style>.cls-1{fill:none;stroke:#000;stroke-linecap:round;stroke-linejoin:round;stroke-width:1.5px}</style></defs><title>single-man-book</title><path class="cls-1" d="M21 23.25H5.25A2.25 2.25 0 0 1 3 21M6 .75a3 3 0 0 0-3 3V21a2.25 2.25 0 0 1 2.25-2.25H19.5a1.5 1.5 0 0 0 1.5-1.5v-15a1.5 1.5 0 0 0-1.5-1.5zm13.5 22.5v-4.5"/><circle class="cls-1" cx="11.65" cy="7.875" r="3.375"/><path class="cls-1" d="M16.4 15a6.026 6.026 0 0 0-9.5 0m8.123-7.013a6.77 6.77 0 0 1-1.873.263 6.727 6.727 0 0 1-4.568-1.78"/></svg>