<svg id="Regular" xmlns="http://www.w3.org/2000/svg" viewBox="0 0 24 24" width="24" height="24"><defs><style>.cls-1{fill:none;stroke:#000;stroke-linecap:round;stroke-linejoin:round;stroke-width:1.5px}</style></defs><title>single-man-actions-shield</title><path class="cls-1" d="M23.25 15.75a7.669 7.669 0 0 1-6 7.5 7.668 7.668 0 0 1-6-7.5v-3a1.5 1.5 0 0 1 1.5-1.5h9a1.5 1.5 0 0 1 1.5 1.5zm-6-.75v4.5M15 17.25h4.5"/><circle class="cls-1" cx="6" cy="3.75" r="3"/><path class="cls-1" d="M9.173 9.317A5.25 5.25 0 0 0 .75 13.5v2.25H3l.75 7.5h4.5l.45-4.537M6 8.25v6"/></svg>