<svg id="Regular" xmlns="http://www.w3.org/2000/svg" viewBox="0 0 24 24" width="24" height="24"><defs><style>.cls-1{fill:none;stroke:#000;stroke-linecap:round;stroke-linejoin:round;stroke-width:1.5px}</style></defs><title>single-man-actions-graduate</title><path class="cls-1" d="M.75 17.25a6.75 6.75 0 0 1 11.787-4.494M3.945 2.781a6.848 6.848 0 0 0 4.93 2.094 6.847 6.847 0 0 0 2.712-.558"/><circle class="cls-1" cx="7.5" cy="4.875" r="4.125"/><path class="cls-1" d="M16.5 14.308l-6.75 2.779 6.75 2.471 6.75-2.471-6.75-2.779zm-6.75 2.757v3.772"/><path class="cls-1" d="M12.75 18.185V21.3a.75.75 0 0 0 .471.7l3 1.2a.745.745 0 0 0 .557 0l3-1.2a.75.75 0 0 0 .472-.7v-3.115"/></svg>