<svg id="Regular" xmlns="http://www.w3.org/2000/svg" viewBox="0 0 24 24" width="24" height="24"><defs><style>.cls-1{fill:none;stroke:#000;stroke-linecap:round;stroke-linejoin:round;stroke-width:1.5px}</style></defs><title>single-woman-actions-monitor</title><path class="cls-1" d="M.75 17.25A6.75 6.75 0 0 1 7.5 10.5a6.9 6.9 0 0 1 .75.041M3.376 4.986v1a5.912 5.912 0 0 1-.859 3.272m9.106-4.272v1a5.9 5.9 0 0 0 .86 3.272M3.387 5.2A5.485 5.485 0 0 0 7.5 3.305a5.481 5.481 0 0 0 4.112 1.9"/><circle class="cls-1" cx="7.5" cy="4.875" r="4.125"/><rect class="cls-1" x="11.25" y="11.25" width="12" height="9" rx="1.5" ry="1.5"/><path class="cls-1" d="M14.25 23.25h6m-3 0v-3"/></svg>