<svg id="Regular" xmlns="http://www.w3.org/2000/svg" viewBox="0 0 24 24" width="24" height="24"><defs><style>.cls-1{fill:none;stroke:#000;stroke-linecap:round;stroke-linejoin:round;stroke-width:1.5px}</style></defs><title>single-woman-actions-lock</title><path class="cls-1" d="M3.376 4.986v1a5.912 5.912 0 0 1-.859 3.272m9.106-4.272v1a5.9 5.9 0 0 0 .86 3.272M3.387 5.2A5.485 5.485 0 0 0 7.5 3.305a5.481 5.481 0 0 0 4.112 1.9"/><circle class="cls-1" cx="7.5" cy="4.875" r="4.125"/><path class="cls-1" d="M.75 17.25a6.75 6.75 0 0 1 11.78-4.5"/><rect class="cls-1" x="14.25" y="15.75" width="9" height="7.5" rx="1.5" ry="1.5"/><path class="cls-1" d="M18.75 11.25a3 3 0 0 0-3 3v1.5h6v-1.5a3 3 0 0 0-3-3zm0 7.904a.375.375 0 1 0 .375.375.374.374 0 0 0-.375-.375"/></svg>