<svg id="Regular" xmlns="http://www.w3.org/2000/svg" viewBox="0 0 24 24" width="24" height="24"><defs><style>.cls-1{fill:none;stroke:#000;stroke-linecap:round;stroke-linejoin:round;stroke-width:1.5px}</style></defs><title>single-woman-home</title><path class="cls-1" d="M23.25 23.25V12L12 .75.75 12v11.25m17.615 0a6.751 6.751 0 0 0-12.73 0"/><path class="cls-1" d="M7.888 13.455l-.012.777a5.91 5.91 0 0 1-.859 3.273m9.095-4.05l.012.777a5.91 5.91 0 0 0 .859 3.273m-9.095-4.05a5.484 5.484 0 0 0 4.112-1.9 5.484 5.484 0 0 0 4.112 1.9"/><circle class="cls-1" cx="12" cy="13.125" r="4.125"/></svg>