<svg id="Regular" xmlns="http://www.w3.org/2000/svg" viewBox="0 0 24 24" width="24" height="24"><defs><style>.cls-1{fill:none;stroke:#000;stroke-linecap:round;stroke-linejoin:round;stroke-width:1.5px}</style></defs><title>single-woman-actions-refresh</title><path class="cls-1" d="M15 18.75h-3.75v3.75m11.417-3.017a5.572 5.572 0 0 1-10.74-.733m7.573-3h3.75V12m-11.418 3.017a5.572 5.572 0 0 1 10.74.733"/><circle class="cls-1" cx="6" cy="3.75" r="3"/><path class="cls-1" d="M10.567 10.91a5.286 5.286 0 0 0-1.681-1.8L6 13.5 3.114 9.114A5.246 5.246 0 0 0 .75 13.5v2.25H3l.75 7.5h4.5l.357-3.573M3 3.75S3 7.5.75 7.5M9 3.75S9 7.5 11.25 7.5"/></svg>