<svg id="Regular" xmlns="http://www.w3.org/2000/svg" viewBox="0 0 24 24" width="24" height="24"><defs><style>.cls-1{fill:none;stroke:#000;stroke-linecap:round;stroke-linejoin:round;stroke-width:1.5px}</style></defs><title>single-woman-actions-check-1</title><circle class="cls-1" cx="17.25" cy="17.247" r="6"/><path class="cls-1" d="M19.924 15.5l-2.905 3.874a.751.751 0 0 1-1.131.08l-1.5-1.5M3.376 4.989v1a5.906 5.906 0 0 1-.859 3.272m9.106-4.272v1a5.905 5.905 0 0 0 .86 3.272M3.388 5.207A5.486 5.486 0 0 0 7.5 3.308a5.486 5.486 0 0 0 4.112 1.9"/><circle class="cls-1" cx="7.5" cy="4.878" r="4.125"/><path class="cls-1" d="M.75 17.253a6.753 6.753 0 0 1 9.4-6.208"/></svg>