<svg id="Regular" xmlns="http://www.w3.org/2000/svg" viewBox="0 0 24 24" width="24" height="24"><defs><style>.cls-1{fill:none;stroke:#000;stroke-linecap:round;stroke-linejoin:round;stroke-width:1.5px}</style></defs><title>single-neutral-folder-box</title><circle class="cls-1" cx="12" cy="9" r="2.25"/><path class="cls-1" d="M15.9 14.25a4.5 4.5 0 0 0-7.792 0m6.892 3a3 3 0 0 1-6 0H1.5a.75.75 0 0 0-.75.75v4.5a.75.75 0 0 0 .75.75h21a.75.75 0 0 0 .75-.75V18a.75.75 0 0 0-.75-.75z"/><path class="cls-1" d="M21.75 14.25v-9a1.5 1.5 0 0 0-1.5-1.5H9.75v-1.5a1.5 1.5 0 0 0-1.5-1.5h-4.5a1.5 1.5 0 0 0-1.5 1.5v12"/></svg>