<svg id="Regular" xmlns="http://www.w3.org/2000/svg" viewBox="0 0 24 24" width="24" height="24"><defs><style>.cls-1{fill:none;stroke:#000;stroke-linecap:round;stroke-linejoin:round;stroke-width:1.5px}</style></defs><title>single-woman-check</title><path class="cls-1" d="M23.25 6.75a6 6 0 1 1-6-6m6 1.499l-5.47 5.47a.749.749 0 0 1-1.06 0L15 6"/><circle class="cls-1" cx="5.25" cy="3.75" r="3"/><path class="cls-1" d="M8.034 9.216L5.25 12.75 2.466 9.216A4.489 4.489 0 0 0 .75 12.75v3h1.5l.75 7.5h4.5l.75-7.5h1.5v-3a4.489 4.489 0 0 0-1.716-3.534zM2.25 3.75s0 3-1.5 3"/></svg>