<svg id="Regular" xmlns="http://www.w3.org/2000/svg" viewBox="0 0 24 24" width="24" height="24"><defs><style>.cls-1{fill:none;stroke:#000;stroke-linecap:round;stroke-linejoin:round;stroke-width:1.5px}</style></defs><title>single-woman-actions-cart</title><path class="cls-1" d="M10.508 11.211A6.675 6.675 0 0 0 7.5 10.5a6.75 6.75 0 0 0-6.75 6.75M3.376 4.986v1a5.912 5.912 0 0 1-.859 3.272m9.106-4.272v1a5.9 5.9 0 0 0 .86 3.272M3.387 5.2A5.485 5.485 0 0 0 7.5 3.305a5.481 5.481 0 0 0 4.112 1.9"/><circle class="cls-1" cx="7.5" cy="4.875" r="4.125"/><path class="cls-1" d="M23.25 12l-2.821 7.756a.751.751 0 0 1-.7.494h-5.372a.752.752 0 0 1-.69-.455L12.06 15.3a.749.749 0 0 1 .69-1.045h9.681M15.375 22.5a.375.375 0 1 1-.375.375.375.375 0 0 1 .375-.375m3.75 0a.375.375 0 1 1-.375.375.375.375 0 0 1 .375-.375"/></svg>