<svg id="Regular" xmlns="http://www.w3.org/2000/svg" viewBox="0 0 24 24" width="24" height="24"><defs><style>.cls-1{fill:none;stroke:#000;stroke-linecap:round;stroke-linejoin:round;stroke-width:1.5px}</style></defs><title>single-woman-actions-lock</title><rect class="cls-1" x="14.25" y="15.721" width="9" height="7.5" rx="1.5" ry="1.5"/><path class="cls-1" d="M18.75 11.221a3 3 0 0 0-3 3v1.5h6v-1.5a3 3 0 0 0-3-3zm0 7.904a.375.375 0 1 0 .375.375.374.374 0 0 0-.375-.375"/><circle class="cls-1" cx="6" cy="3.75" r="3"/><path class="cls-1" d="M8.25 23.25l.75-7.5h2.25V13.5a5.244 5.244 0 0 0-2.365-4.386L6 13.5 3.114 9.114A5.246 5.246 0 0 0 .75 13.5v2.25H3l.75 7.5zM3 3.75S3 7.5.75 7.5M9 3.75S9 7.5 11.25 7.5"/></svg>