<svg id="Regular" xmlns="http://www.w3.org/2000/svg" viewBox="0 0 24 24" width="24" height="24"><defs><style>.cls-1{fill:none;stroke:#000;stroke-linecap:round;stroke-linejoin:round;stroke-width:1.5px}</style></defs><title>single-neutral-id-card-1</title><path class="cls-1" d="M9.75 3.75h-4.5a1.5 1.5 0 0 0-1.5 1.5v16.5a1.5 1.5 0 0 0 1.5 1.5h13.5a1.5 1.5 0 0 0 1.5-1.5V5.25a1.5 1.5 0 0 0-1.5-1.5h-4.5"/><path class="cls-1" d="M14.25 3a2.25 2.25 0 0 0-4.5 0v3a.75.75 0 0 0 .75.75h3a.75.75 0 0 0 .75-.75z"/><circle class="cls-1" cx="12" cy="13.125" r="3.375"/><path class="cls-1" d="M18 23.25a6.054 6.054 0 0 0-12 0"/></svg>