<svg id="Regular" xmlns="http://www.w3.org/2000/svg" viewBox="0 0 24 24" width="24" height="24"><defs><style>.cls-1{fill:none;stroke:#000;stroke-linecap:round;stroke-linejoin:round;stroke-width:1.5px}</style></defs><title>single-woman-actions-home</title><path class="cls-1" d="M12.75 15.948v5.8a1.5 1.5 0 0 0 1.5 1.5h6a1.5 1.5 0 0 0 1.5-1.5v-5.8"/><path class="cls-1" d="M11.25 17.26l4.518-3.954a2.25 2.25 0 0 1 2.963 0l4.519 3.954m-4.5 5.99h-3v-3a1.5 1.5 0 0 1 3 0zm-18-6A6.751 6.751 0 0 1 12 12.219M3.376 4.986v1a5.912 5.912 0 0 1-.859 3.272m9.106-4.272v1a5.9 5.9 0 0 0 .86 3.272M3.387 5.2A5.485 5.485 0 0 0 7.5 3.305a5.481 5.481 0 0 0 4.112 1.9"/><circle class="cls-1" cx="7.5" cy="4.875" r="4.125"/></svg>