<svg id="Regular" xmlns="http://www.w3.org/2000/svg" viewBox="0 0 24 24" width="24" height="24"><defs><style>.cls-1{fill:none;stroke:#000;stroke-linecap:round;stroke-linejoin:round;stroke-width:1.5px}</style></defs><title>single-woman-actions-laptop</title><path class="cls-1" d="M21.75 12.75v6h-10.5v-6a1.5 1.5 0 0 1 1.5-1.5h7.5a1.5 1.5 0 0 1 1.5 1.5zm-10.5 6h10.5l1.171 3.513a.75.75 0 0 1-.712.987H10.791a.75.75 0 0 1-.712-.987zM8.944 3.164A3 3 0 1 1 6.588.806a3 3 0 0 1 2.356 2.358zm-.058 5.95L6 13.5 3.114 9.114A5.246 5.246 0 0 0 .75 13.5v2.25H3l.75 7.5h3M3 3.75S3 7.5.75 7.5M9 3.75S9 7.5 11.25 7.5"/></svg>