<svg id="Regular" xmlns="http://www.w3.org/2000/svg" viewBox="0 0 24 24" width="24" height="24"><defs><style>.cls-1{fill:none;stroke:#000;stroke-linecap:round;stroke-linejoin:round;stroke-width:1.5px}</style></defs><title>single-man-actions-player</title><path class="cls-1" d="M.75 17.25A6.75 6.75 0 0 1 7.5 10.5a6.9 6.9 0 0 1 .75.041m-4.305-7.76a6.848 6.848 0 0 0 4.93 2.094 6.847 6.847 0 0 0 2.712-.558"/><circle class="cls-1" cx="7.5" cy="4.875" r="4.125"/><rect class="cls-1" x="11.25" y="11.25" width="12" height="12" rx="1.5" ry="1.5"/><path class="cls-1" d="M15.75 17.25v-1.82a.43.43 0 0 1 .651-.369l3.033 1.82a.429.429 0 0 1 0 .737l-3.034 1.82a.429.429 0 0 1-.651-.368z"/></svg>