<svg id="Regular" xmlns="http://www.w3.org/2000/svg" viewBox="0 0 24 24" width="24" height="24"><defs><style>.cls-1{fill:none;stroke:#000;stroke-linecap:round;stroke-linejoin:round;stroke-width:1.5px}</style></defs><title>skateboard-person</title><circle class="cls-1" cx="16.412" cy="3.375" r="2.625"/><path class="cls-1" d="M16 20.25l.121-.2a4.5 4.5 0 0 0-1.849-6.342l-1.116-.557 1.73-1.886h6.1a1.5 1.5 0 0 0 0-3h-16.5a1.5 1.5 0 1 0 0 3h6.278l-8.857 9.457a1.5 1.5 0 0 0 2.186 2.056l6.915-7.347 1.924.961a1.5 1.5 0 0 1 .615 2.114L12.5 20.25m-2 0h12"/><circle class="cls-1" cx="10.5" cy="21.75" r="1.5"/><circle class="cls-1" cx="18.75" cy="21.75" r="1.5"/></svg>