<svg id="Regular" xmlns="http://www.w3.org/2000/svg" viewBox="0 0 24 24" width="24" height="24"><defs><style>.cls-1{fill:none;stroke:#000;stroke-linecap:round;stroke-linejoin:round;stroke-width:1.5px}</style></defs><title>skateboard</title><path class="cls-1" d="M5.856 10.1a1.5 1.5 0 0 0-2.122 0l-1.591 1.589a1.5 1.5 0 0 0 2.122 2.122l1.591-1.591a1.5 1.5 0 0 0 0-2.12zm8.044 8.044a1.5 1.5 0 0 0-2.122 0l-1.591 1.591a1.5 1.5 0 0 0 2.122 2.122l1.591-1.591a1.5 1.5 0 0 0 0-2.122zM10.1 5.856a1.5 1.5 0 0 1 0-2.122l1.591-1.591a1.5 1.5 0 0 1 2.122 2.122L12.22 5.856a1.5 1.5 0 0 1-2.12 0zm8.044 8.044a1.5 1.5 0 0 1 0-2.122l1.591-1.591a1.5 1.5 0 0 1 2.122 2.122L20.266 13.9a1.5 1.5 0 0 1-2.122 0zM13.819 2.153a5.689 5.689 0 0 1 8.028 8.027m-15.991-.082l4.242-4.242m.083 15.991a5.69 5.69 0 0 1-8.028-8.028m15.991.083l-4.242 4.242m5.037-7.159L13.015 5.06m-2.03 13.88l-5.924-5.924"/></svg>