<svg id="Regular" xmlns="http://www.w3.org/2000/svg" viewBox="0 0 24 24" width="24" height="24"><defs><style>.cls-1{fill:none;stroke:#000;stroke-linecap:round;stroke-linejoin:round;stroke-width:1.5px}</style></defs><title>skating-shoes</title><path class="cls-1" d="M21.75 20.25H2.25a1.5 1.5 0 0 0 0 3h19.5a1.5 1.5 0 0 0 0-3zm-15 0v-3m10.5 3v-3m1.5 0h-12a4.5 4.5 0 0 1-4.5-4.5v-9A1.5 1.5 0 0 1 3.386 2.3l6-1.5a1.5 1.5 0 0 1 1.864 1.45v4.5a3 3 0 0 0 3 3h2.25c2.25 0 5.25 1.5 5.25 4.5a2.747 2.747 0 0 1-3 3z"/><path class="cls-1" d="M11.25 5.25h-3a1.5 1.5 0 0 0-1.5 1.5v1.5a4.5 4.5 0 0 0 4.5 4.5h10.22m-9.819-4.5H9.75"/></svg>