<svg id="Regular" xmlns="http://www.w3.org/2000/svg" viewBox="0 0 24 24" width="24" height="24"><defs><style>.cls-1{fill:none;stroke:#000;stroke-linecap:round;stroke-linejoin:round;stroke-width:1.5px}</style></defs><title>skating-1</title><path class="cls-1" d="M1.75 18h5.424a4.5 4.5 0 0 0 3.326-1.473l1.624-1.786.715.357a3 3 0 0 1 1.661 2.684v5.468"/><path class="cls-1" d="M17.5 23.25v-5.468a5.966 5.966 0 0 0-3.278-5.345l2.888-3.178A1.5 1.5 0 0 0 16 6.75H7a1.5 1.5 0 0 0 0 3h5.609l-4.326 4.759a1.5 1.5 0 0 1-1.11.491H1.75"/><circle class="cls-1" cx="20.5" cy="3.375" r="2.625"/><path class="cls-1" d="M20.5 21.75a1.5 1.5 0 0 1-1.5 1.5h-7.5M3.25 21a1.5 1.5 0 0 1-1.5-1.5V12m3 3v3m9.75 2.25h3"/></svg>