<svg id="Regular" xmlns="http://www.w3.org/2000/svg" viewBox="0 0 24 24" width="24" height="24"><defs><style>.cls-1{fill:none;stroke:#000;stroke-linecap:round;stroke-linejoin:round;stroke-width:1.5px}</style></defs><title>ski-jumping</title><circle class="cls-1" cx="16.75" cy="3.375" r="2.625"/><path class="cls-1" d="M3.249 20.25a1.5 1.5 0 0 1-1.37-2.109L4.6 12.009a4.54 4.54 0 0 1 1.185-1.588l4.736-4.059a1.5 1.5 0 1 1 1.951 2.276L7.74 12.7a1.527 1.527 0 0 0-.4.532l-2.724 6.13a1.5 1.5 0 0 1-1.367.888zm18.686-5.409a2.25 2.25 0 0 1-1.508 2.8L1.75 23.25"/></svg>