<svg xmlns="http://www.w3.org/2000/svg" viewBox="0 0 24 24" width="24" height="24"><g fill="none" stroke="#000" stroke-linejoin="round" stroke-miterlimit="10"><path d="M5.162 3.499a2.84 2.84 0 014.9-2.108c.537.566.817 1.327.775 2.107L10 17.085l1 6.418H5l1-6.5-.838-13.504zm8 0a2.84 2.84 0 014.9-2.108c.537.566.817 1.327.775 2.107L18 17.085l1 6.418h-6l1-6.5-.838-13.504zM20.5.503h2v5h-2z"/><path stroke-linecap="round" d="M21.5 5.503v18m-1.5-3h3"/><path d="M1.5.503h2v5h-2z"/><path stroke-linecap="round" d="M2.5 5.503v18.004M1 20.503h3M5 10.5h6m-6 6h6m2-6h6m-6 6h6"/></g><path fill="none" d="M0 0h24v24H0z"/></svg>