<svg id="Regular" xmlns="http://www.w3.org/2000/svg" viewBox="0 0 24 24" width="24" height="24"><defs><style>.cls-1{fill:none;stroke:#000;stroke-linecap:round;stroke-linejoin:round;stroke-width:1.5px}</style></defs><title>skiing-cable-car-1</title><circle class="cls-1" cx="4.868" cy="5.625" r="2.625"/><path class="cls-1" d="M14.033 20.3l-1.985-4.628-2.276 1.364a1.5 1.5 0 0 1-2.165-.729l-1.5-3.75a1.5 1.5 0 0 1 2.786-1.114l.845 2.114 2.24-1.343a1.5 1.5 0 0 1 2.15.7l2.535 5.914M14.25.75v7.5"/><path class="cls-1" d="M8.773 23.25l11.319-6.35a3 3 0 0 0 1.42-1.8l.238-.846m-18.757-.786l2.417 4.845a3 3 0 0 0 4.026 1.344l.314-.157"/></svg>