<svg id="Regular" xmlns="http://www.w3.org/2000/svg" viewBox="0 0 24 24" width="24" height="24"><defs><style>.cls-1{fill:none;stroke:#000;stroke-linecap:round;stroke-linejoin:round;stroke-width:1.5px}</style></defs><title>skiing-ice-skates</title><path class="cls-1" d="M4.443 3.373L11 .75v9.285a3 3 0 0 0 2.7 2.985l.747.075a4.5 4.5 0 0 1 4.053 4.477V18a1.5 1.5 0 0 1-1.5 1.5H6.5a3 3 0 0 1-3-3V4.766a1.5 1.5 0 0 1 .943-1.393z"/><path class="cls-1" d="M11.256 11.25H8.75v2.25a3 3 0 0 0 3 3h6.62M2.75 23.25h16.5a1.469 1.469 0 0 0 1.5-1.5M7.25 19.5v3.75m7.5-3.75v3.75"/></svg>