<svg id="Regular" xmlns="http://www.w3.org/2000/svg" viewBox="0 0 24 24" width="24" height="24"><defs><style>.cls-1{fill:none;stroke:#000;stroke-linecap:round;stroke-linejoin:round;stroke-width:1.5px}</style></defs><title>skiing-snow-scooter</title><path class="cls-1" d="M22.878 11.5H18.75m0 3l1.5 4.5m3-2.25A2.25 2.25 0 0 1 21 19h-5.25m-6.073 0A3.073 3.073 0 1 0 8.6 13.05l-6.7 2.518A1.773 1.773 0 0 0 2.523 19zm5.948-11.575l-1-2.494a1.5 1.5 0 0 0-1.392-.943H12"/><path class="cls-1" d="M5.768 14.115a3.007 3.007 0 0 1-.64-.474L1.067 9.694A1.7 1.7 0 0 1 2.454 7h3.675a1.5 1.5 0 0 1 1.06.439l1.372 1.372a1.5 1.5 0 0 0 1.06.439H13.5a1.5 1.5 0 0 0 1.2-.6l1.8-2.4a1.5 1.5 0 0 1 2.127-.509 11.018 11.018 0 0 1 4.573 6.887 1.5 1.5 0 0 1-1.451 1.872l-9.349-.007m-2.65 1.12a.375.375 0 0 0-.375.375m.75 0a.375.375 0 0 0-.375-.375m0 .75a.375.375 0 0 0 .375-.375m-.75 0a.375.375 0 0 0 .375.375"/></svg>