<svg id="Regular" xmlns="http://www.w3.org/2000/svg" viewBox="0 0 24 24" width="24" height="24"><defs><style>.cls-1{fill:none;stroke:#000;stroke-linecap:round;stroke-linejoin:round;stroke-width:1.5px}</style></defs><title>skiing-cross-country-1</title><circle class="cls-1" cx="13.75" cy="3" r="2.25"/><path class="cls-1" d="M20.5 9.75h-2.092a1.488 1.488 0 0 1-.832-.252l-2.988-1.992a4.483 4.483 0 0 0-2.5-.756h-3.1a4.472 4.472 0 0 0-3.177 1.318l-2.122 2.121a1.5 1.5 0 0 0 2.122 2.122l2.121-2.122a1.511 1.511 0 0 1 1.06-.439h1.736l-3.606 8.408a1.5 1.5 0 0 0 .786 1.97 1.481 1.481 0 0 0 .592.122 1.5 1.5 0 0 0 1.378-.908l1.333-3.107 1.251.416a1.5 1.5 0 0 1 .983 1.06l.35 1.4a1.5 1.5 0 0 0 1.454 1.137 1.518 1.518 0 0 0 .364-.045 1.5 1.5 0 0 0 1.087-1.816l-.351-1.4a4.48 4.48 0 0 0-2.944-3.18l-1.005-.339 1.271-2.968 2.241 1.494a4.483 4.483 0 0 0 2.5.756H20.5a1.5 1.5 0 0 0 0-3zm-9.189 12.514a4.479 4.479 0 0 1-2.811.986c-2.485 0-4.5-1.5-6.75-4.5H4m14.764 2.811a4.5 4.5 0 0 1-4.254 1.628"/></svg>