<svg id="Regular" xmlns="http://www.w3.org/2000/svg" viewBox="0 0 24 24" width="24" height="24"><defs><style>.cls-1{fill:none;stroke:#000;stroke-linecap:round;stroke-linejoin:round;stroke-width:1.5px}</style></defs><title>skiing-snow-scooter-person</title><circle class="cls-1" cx="7.5" cy="3" r="2.25"/><path class="cls-1" d="M23.25 20.25a3 3 0 0 1-3 3H.75m15.11-10.434l1.39-2.316 5.011 3.132a2.1 2.1 0 0 1 .107 3.5l-3.586 2.561a2.993 2.993 0 0 1-1.743.559H2.671a1.5 1.5 0 0 1-1.455-1.864l.75-3a1.5 1.5 0 0 1 1.455-1.138H6V8.243a1.5 1.5 0 0 1 2.971-.295c.055.245.666 2.545 3.779 2.545a1.5 1.5 0 0 1 0 3A7.3 7.3 0 0 1 9 12.549m8.25-2.049l-1.5-3M1.5 17.25h20.7"/></svg>