<svg id="Regular" xmlns="http://www.w3.org/2000/svg" viewBox="0 0 24 24" width="24" height="24"><defs><style>.cls-1{fill:none;stroke:#000;stroke-linecap:round;stroke-linejoin:round;stroke-width:1.5px}</style></defs><title>skiing-skiis</title><path class="cls-1" d="M12.786 17.122l2.92.315m-3.412-4.895l3.896.421M8.759.791a2.25 2.25 0 0 0-2 2.478l2.018 18.642a1.5 1.5 0 0 0 1.652 1.33l1.492-.161a1.5 1.5 0 0 0 1.33-1.652L11.237 2.786A2.249 2.249 0 0 0 8.759.791z"/><path class="cls-1" d="M12 23.069l.079.011 1.492.161a1.5 1.5 0 0 0 1.652-1.33l2.014-18.642a2.25 2.25 0 0 0-4.474-.483L12 9.848m.768 7.106l-4.474.483m3.99-4.957l-4.474.483M2.25 6.75v16.5m-1.5-3h3M2.25.75a1.5 1.5 0 0 0-1.5 1.5v4.5h3v-4.5a1.5 1.5 0 0 0-1.5-1.5zm19.5 6v16.5m-1.5-3h3M21.75.75a1.5 1.5 0 0 0-1.5 1.5v4.5h3v-4.5a1.5 1.5 0 0 0-1.5-1.5z"/></svg>