<svg id="Regular" xmlns="http://www.w3.org/2000/svg" viewBox="0 0 24 24" width="24" height="24"><defs><style>.cls-1{fill:none;stroke:#000;stroke-linecap:round;stroke-linejoin:round;stroke-width:1.5px}</style></defs><title>skiing-chest-slide</title><path class="cls-1" d="M.832 15.638l17.479 4.3a2.25 2.25 0 0 0 2.441-.984M1.548 12.725l9.468 2.327m12.19.679a1.5 1.5 0 0 1-1.814 1.1l-4.917-1.209a4.5 4.5 0 0 1-3.157-2.838l-.1-.279-4.4-1.081a4.512 4.512 0 0 1-1.681-.812L1.8 6.475A1.5 1.5 0 0 1 3.638 4.1l5.34 4.14a1.478 1.478 0 0 0 .557.269l5.1 1.253a1.5 1.5 0 0 1 1 .828l.358 1.1a1.5 1.5 0 0 0 1.068.991l5.045 1.24a1.5 1.5 0 0 1 1.1 1.81z"/><circle class="cls-1" cx="20.543" cy="9.284" r="2.625"/></svg>