<svg id="Regular" xmlns="http://www.w3.org/2000/svg" viewBox="0 0 24 24" width="24" height="24"><defs><style>.cls-1{fill:none;stroke:#000;stroke-linecap:round;stroke-linejoin:round;stroke-width:1.5px}</style></defs><title>skiing-cross-country</title><circle class="cls-1" cx="15.75" cy="3.375" r="2.625"/><path class="cls-1" d="M2.25 15.75h4.5a1.5 1.5 0 0 0 1.06-.439l.941-.941L10.71 16a1.5 1.5 0 0 1 .54 1.153v3.097"/><path class="cls-1" d="M14.25 20.25v-3.095a4.5 4.5 0 0 0-1.619-3.455l-1.75-1.458 1.573-1.573a7.524 7.524 0 0 0 4.077 1.22 7.46 7.46 0 0 0 2.944-.6l2.115-.907a1.5 1.5 0 1 0-1.18-2.756l-2.119.907a4.5 4.5 0 0 1-4.417-.5l-3.457-2.516A7.5 7.5 0 0 0 4.77 4.184l-2.018.337a1.5 1.5 0 0 0 .5 2.958l2.017-.336a4.5 4.5 0 0 1 3.387.8l1.319.957-3.846 3.85H.75m2.797-3.83L3.19 7.494m-.726-2.895L1.5.75m20.25 4.5v2.451m0 2.598v8.451m-1.5-1.5h3m-18 6h13.007a3 3 0 0 0 2.122-.879L21 21.75M.988 17.581l1.339 1.562a3 3 0 0 0 2.047 1.039l.876.068"/></svg>