<svg id="Regular" xmlns="http://www.w3.org/2000/svg" viewBox="0 0 24 24" width="24" height="24"><defs><style>.cls-1{fill:none;stroke:#000;stroke-linecap:round;stroke-linejoin:round;stroke-width:1.5px}</style></defs><title>skirt</title><path class="cls-1" d="M6.25 3h11.5a1 1 0 0 1 1 1v2H5.25V4a1 1 0 0 1 1-1zm12.5 3H5.25a20.059 20.059 0 0 1-3.867 12.038.751.751 0 0 0 .289 1.16A26.489 26.489 0 0 0 12 21a26.478 26.478 0 0 0 10.327-1.8.75.75 0 0 0 .29-1.16A20.052 20.052 0 0 1 18.75 6zm-9.751 9l-.722 5.803M14.999 15l.722 5.803"/></svg>