<svg xmlns="http://www.w3.org/2000/svg" viewBox="0 0 24 24" width="24" height="24"><defs><style>.a{fill:none;stroke:#000;stroke-linecap:round;stroke-linejoin:round;stroke-width:1.5px}</style></defs><title>skull-2</title><path class="a" d="M18.75 10.5a6.75 6.75 0 1 0-10.5 5.613v2.637a1.5 1.5 0 0 0 1.5 1.5h4.5a1.5 1.5 0 0 0 1.5-1.5v-2.637a6.743 6.743 0 0 0 3-5.613zM9 10.125"/><path class="a" d="M9 10.125a.375.375 0 1 0 .375.375.374.374 0 0 0-.375-.375m6 0a.375.375 0 1 0 .375.375.374.374 0 0 0-.375-.375"/><circle class="a" cx="3" cy="3" r="2.25"/><circle class="a" cx="21" cy="3" r="2.25"/><circle class="a" cx="3" cy="21" r="2.25"/><circle class="a" cx="21" cy="21" r="2.25"/><path class="a" d="M8.037 15.962l-3.446 3.447m14.82-14.82l-1.947 1.947m-1.501 9.427l3.446 3.446M4.59 4.589l1.947 1.947"/></svg>