<svg id="Regular" xmlns="http://www.w3.org/2000/svg" viewBox="0 0 24 24" width="24" height="24"><defs><style>.cls-1{fill:none;stroke:#000;stroke-linecap:round;stroke-linejoin:round;stroke-width:1.5px}</style></defs><title>skunk</title><path class="cls-1" d="M7.647 18.25A13.3 13.3 0 0 0 6.908 22m10.289-3.2l.788 3.2"/><path class="cls-1" d="M23.154 11.5c0-1.5-2.37-2.25-4.154-2.25a3.122 3.122 0 0 0-3.231 3 2.84 2.84 0 0 0 .612 1.75c-2.41.335-5.042.007-5.042-.995 0-1.5 1.477-1.5 1.477-5.25a5.954 5.954 0 0 0-5.908-6A5.953 5.953 0 0 0 1 7.75a6.031 6.031 0 0 0 1.3 3.75S2.442 6.459 6.17 7c5.169.75 1.477 11.25 1.477 11.25s.738 1.5 5.907 1.5c3.934 0 5.3-2.172 5.728-4.532 1.743-.167 3.872-2.968 3.872-3.718zm-4.062-.006a.378.378 0 0 1 .375.381m-.75 0a.378.378 0 0 1 .375-.381m0 .762a.378.378 0 0 1-.375-.381m.75 0a.378.378 0 0 1-.375.381M4.693 7.108A7.272 7.272 0 0 1 9.524 6.5"/><path class="cls-1" d="M16.732 10.114L16.508 10a1.651 1.651 0 0 1-.739-2.25"/></svg>