<svg id="Regular" xmlns="http://www.w3.org/2000/svg" viewBox="0 0 24 24" width="24" height="24"><defs><style>.cls-1{fill:none;stroke:#000;stroke-linecap:round;stroke-linejoin:round;stroke-width:1.5px}</style></defs><title>sky</title><path class="cls-1" d="M21.75 23.25v-7.302m-9 0v7.302m-1.5-5.99l6-5.25 6 5.25M4.63 5.25a4.523 4.523 0 0 0 .035.562 4.365 4.365 0 0 1 .049-1.4"/><path class="cls-1" d="M9.065 9.75a4.468 4.468 0 0 0 4.435-4.5 4.427 4.427 0 0 0-8.786-.842 2.717 2.717 0 0 0-1.192-.283 2.813 2.813 0 0 0 0 5.625zm-2.315 9l-2.25 1.5-2.25-1.5m4.5-4.5l-2.25-1.5-2.25 1.5m-1.5 9h22.5M4.5 12.75v7.5"/></svg>