<svg xmlns="http://www.w3.org/2000/svg" viewBox="0 0 24 24" width="24" height="24"><g fill="none" stroke="#000" stroke-miterlimit="10"><path d="M11.5 4h-1a2 2 0 00-2 2 8.541 8.541 0 01-3.073 6.561L2.5 15"/><path stroke-linecap="round" d="M13.469 14.562c-.988 1.7-5.966 5.935-5.969 5.938M20.5 4h-1a2 2 0 00-2 2c0 .677-.053 1.347-.155 2.006"/><path d="M22 2.5A1.5 1.5 0 0020.5 4v1.048c0 1.55-.505 3.01-1.404 4.2a2.003 2.003 0 01-3.192-.001A6.937 6.937 0 0114.5 5.048V4a1.5 1.5 0 00-3 0v1.048a9.943 9.943 0 003.33 7.458c.426.379.67.925.67 1.494v8.5a1 1 0 001 1h2a1 1 0 001-1V14c0-.57.244-1.113.67-1.494a9.943 9.943 0 003.33-7.458V4A1.5 1.5 0 0022 2.5z"/><path stroke-linejoin="round" d="M4.187 18.478a6.732 6.732 0 01-1.89-5.812 5.496 5.496 0 00.476 7.227 5.497 5.497 0 007.228.476 6.738 6.738 0 01-5.814-1.891z"/></g><path fill="none" d="M0 0h24v24H0z"/></svg>