<svg xmlns="http://www.w3.org/2000/svg" viewBox="0 0 24 24" width="24" height="24"><g fill="none" stroke="#000" stroke-linejoin="round" stroke-miterlimit="10"><path d="M13.5 6.284a4.783 4.783 0 014.783-4.783h.221a4.78 4.78 0 014.779 4.992l-.592 12.61a4.598 4.598 0 01-9.192-.2V6.284zm5.862 1.341L23 12.001m-9.5.103l3.207-4.346"/><circle cx="18" cy="7.001" r="1.5"/><path d="M10.5 6.284c0-2.642-2.225-4.783-4.866-4.783h-.222A4.78 4.78 0 00.634 6.493l.592 12.61c.106 2.46 2.173 4.398 4.635 4.398 2.539 0 4.64-2.059 4.64-4.598V6.284zM4.555 7.628L.917 12.001m9.583.203L7.22 7.742"/><circle cx="5.917" cy="7.001" r="1.5"/></g><path fill="none" d="M0 0h24v24H0z"/></svg>