<svg xmlns="http://www.w3.org/2000/svg" viewBox="0 0 24 24" width="24" height="24"><g fill="none" stroke="#000" stroke-linejoin="round" stroke-miterlimit="10"><path d="M.5 7.5h18v16H.5zm6 0v9m6-9v9m-12 0h18"/><path d="M2.5 19.5h5v2h-5zm-2-15h18v3H.5zm2 0A8.497 8.497 0 019.713.501a8.495 8.495 0 017.21 3.997"/><path stroke-linecap="round" d="M18.5 20.5h3v-11"/><circle stroke-linecap="round" cx="21.5" cy="8" r="1.5"/><path stroke-linecap="round" d="M2.718 10.5h1.521l-1.521 3.425M8.739 10.5h1.522l-1.522 3.425m5.989-3.425h1.521l-1.521 3.425"/></g><path fill="none" d="M0 0h24v24H0z"/></svg>