<svg xmlns="http://www.w3.org/2000/svg" viewBox="0 0 24 24" width="24" height="24"><path fill="none" stroke="#000" stroke-linecap="round" stroke-linejoin="round" stroke-miterlimit="10" d="M2.357 9.5c-.396 0-.857-.674-.857-1.07V1.254C1.5.857 1.961.5 2.357.5h1.436c.396 0 .707.357.707.754v.718S5.94.536 8.811.536s3.591 1.436 6.461 1.436c2.871 0 5.024-1.436 5.024-1.436l1.795 2.153s-5.616 14.537-6.07 20.151a.717.717 0 01-.714.659H8.83a.719.719 0 01-.717-.756c.125-2.42 1.124-10.19 8.597-16.467-.718.719-1.794 1.436-3.588 1.436S9.175 6.277 7.739 6.277c-1.294 0-2.88.76-3.179 2.453-.06.343-.358.77-.706.77H2.357z"/><path fill="none" d="M0 0h24v24H0z"/></svg>