<svg xmlns="http://www.w3.org/2000/svg" viewBox="0 0 24 24" width="24" height="24"><g fill="none" stroke="#000" stroke-linejoin="round" stroke-miterlimit="10"><path d="M15.5.5h-7c-5.5 0-5 4.531-5 9v11a2 2 0 002 2h13a2 2 0 002-2v-11c0-4.5.5-9-5-9z"/><path stroke-linecap="round" d="M7.52 2.5h9m-9 2h9m-9 2h9"/><path d="M16.5 16a4.5 4.5 0 00-9 0v6.5h9V16zM5.5 1.212V6.5a2 2 0 002 2h9a2 2 0 002-2V1.208"/><path stroke-linecap="round" d="M6.5 23.516V22.5m11 1.016V22.5"/></g><path fill="none" d="M0 0h24v24H0z"/></svg>