<svg xmlns="http://www.w3.org/2000/svg" viewBox="0 0 24 24" width="24" height="24"><defs><style>.a{fill:none;stroke:#000;stroke-linecap:round;stroke-linejoin:round;stroke-width:1.5px}</style></defs><title>smart-house-ventilator</title><path class="a" d="M10.75 10.5c0-2.625.875-5.25 3.5-5.25v5.25m0 3.5C11.625 14 9 13.125 9 10.5h5.25m3.5 0c0 2.625-.875 5.25-3.5 5.25V10.5m0-3.5c2.625 0 5.25.875 5.25 3.5h-5.25"/><path class="a" d="M5.25 12.75V6.862a1.5 1.5 0 0 1 .744-1.3L14.25.75l8.256 4.816a1.5 1.5 0 0 1 .744 1.3V18.75a1.5 1.5 0 0 1-1.5 1.5h-9.437m-9.875.404a3.978 3.978 0 0 1 5.625 0M.75 17.989a6.364 6.364 0 0 1 9 0M5.25 22.5a.375.375 0 1 1-.375.375.375.375 0 0 1 .375-.375"/></svg>