<svg xmlns="http://www.w3.org/2000/svg" viewBox="0 0 24 24" width="24" height="24"><defs><style>.a{fill:none;stroke:#000;stroke-linecap:round;stroke-linejoin:round;stroke-width:1.5px}</style></defs><title>smart-watch-square-dumbbell</title><rect class="a" x="3.75" y="3.75" width="16.5" height="16.5" rx="3" ry="3"/><path class="a" d="M17.25 3.75H6.75v-1.5a1.5 1.5 0 0 1 1.5-1.5h7.5a1.5 1.5 0 0 1 1.5 1.5zm-1.5 19.5h-7.5a1.5 1.5 0 0 1-1.5-1.5v-1.5h10.5v1.5a1.5 1.5 0 0 1-1.5 1.5zm-5.341-9.659l3.182-3.182"/><rect class="a" x="13.152" y="7.098" width="3" height="4.5" rx=".75" ry=".75" transform="rotate(-45 14.651 9.348)"/><rect class="a" x="7.848" y="12.402" width="3" height="4.5" rx=".75" ry=".75" transform="rotate(-45 9.349 14.652)"/><path class="a" d="M15.712 8.288L16.5 7.5m-8.212 8.212L7.5 16.5"/></svg>