<svg xmlns="http://www.w3.org/2000/svg" viewBox="0 0 24 24" width="24" height="24"><defs><style>.a{fill:none;stroke:#000;stroke-linecap:round;stroke-linejoin:round;stroke-width:1.5px}</style></defs><title>smart-watch-circle-graph-line</title><rect class="a" x="11.25" y=".75" width="12" height="9" rx="1.5" ry="1.5"/><path class="a" d="M11.25 5.25h3l.75-1.5 2.25 3.75 1.5-4.5 1.5 2.25h3M3 6.969V2.25A1.5 1.5 0 0 1 4.5.75h3.75M12 17.031v4.719a1.5 1.5 0 0 1-1.5 1.5h-6a1.5 1.5 0 0 1-1.5-1.5v-4.719"/><path class="a" d="M8.25 5.325a6.851 6.851 0 0 0-.75-.075 6.75 6.75 0 1 0 6.674 7.5"/></svg>