<svg xmlns="http://www.w3.org/2000/svg" viewBox="0 0 24 24" width="24" height="24"><defs><style>.a{fill:none;stroke:#000;stroke-linecap:round;stroke-linejoin:round;stroke-width:1.5px}</style></defs><title>smart-watch-circle-play</title><path class="a" d="M13.96 12.412a.808.808 0 0 1-1.21-.7V1.559a.808.808 0 0 1 1.21-.7l8.883 5.075a.81.81 0 0 1 0 1.4zM12 17.031v4.719a1.5 1.5 0 0 1-1.5 1.5h-6a1.5 1.5 0 0 1-1.5-1.5v-4.719M3 6.969V2.25A1.5 1.5 0 0 1 4.5.75h5.25m3.514 14.765a6.746 6.746 0 1 1-3.512-9.881"/></svg>