<svg xmlns="http://www.w3.org/2000/svg" viewBox="0 0 24 24" width="24" height="24"><defs><style>.a{fill:none;stroke:#000;stroke-linecap:round;stroke-linejoin:round;stroke-width:1.5px}</style></defs><title>smart-watch-square-settings</title><rect class="a" x="3.75" y="3.75" width="16.5" height="16.5" rx="3" ry="3"/><path class="a" d="M17.25 3.75H6.75v-1.5a1.5 1.5 0 0 1 1.5-1.5h7.5a1.5 1.5 0 0 1 1.5 1.5zm-1.5 19.5h-7.5a1.5 1.5 0 0 1-1.5-1.5v-1.5h10.5v1.5a1.5 1.5 0 0 1-1.5 1.5z"/><circle class="a" cx="12" cy="12" r="2.7"/><path class="a" d="M12 9.3V7.5m0 9v-1.8m2.7-2.7h1.8m-9 0h1.8m-.064 3.182l1.075-1.075M9.236 8.818l1.075 1.075m4.453 5.289l-1.075-1.075m1.075-5.289l-1.075 1.075"/></svg>