<svg xmlns="http://www.w3.org/2000/svg" viewBox="0 0 24 24" width="24" height="24"><g fill="none" stroke="#000" stroke-linejoin="round" stroke-miterlimit="10"><path d="M19.5 16.5a2 2 0 01-2 2h-11a2 2 0 01-2-2v-9a2 2 0 012-2h11a2 2 0 012 2v9zm-3-13h-9l-1 2h11zm-9-3h9v3h-9zm0 20h9l1-2h-11zm0 0h9v3h-9z"/><circle cx="12" cy="12" r="1.5"/><circle cx="14" cy="8.5" r=".5"/><circle cx="10" cy="8.5" r=".5"/><circle cx="14" cy="15.5" r=".5"/><circle cx="16" cy="12" r=".5"/><circle cx="8" cy="12" r=".5"/><circle cx="10" cy="15.5" r=".5"/></g><path fill="none" d="M0 0h24v24H0z"/></svg>