<svg xmlns="http://www.w3.org/2000/svg" viewBox="0 0 24 24" width="24" height="24"><defs><style>.a{fill:none;stroke:#000;stroke-linecap:round;stroke-linejoin:round;stroke-width:1.5px}</style></defs><title>smartphone-payment-touch</title><path class="a" d="M23.25 18.75V13.5c0-2-3.8-4.139-5.25-5.25m1.93 6.544l-3.648-2.924a1.3 1.3 0 0 0-1.843 1.843l3.534 3.987v2.5c0 1.181 1.687 3.045 1.687 3.045"/><path class="a" d="M8.733.75H16.5a1.5 1.5 0 0 1 1.5 1.5v11m-3 8.5H7.5a1.5 1.5 0 0 1-1.5-1.5v-7.5M6 18h6"/><path class="a" d="M10.329 9.344a2.224 2.224 0 0 0 1.858.875c1.139 0 2.063-.693 2.063-1.547s-.924-1.546-2.063-1.546-2.062-.693-2.062-1.548.924-1.547 2.062-1.547a2.221 2.221 0 0 1 1.858.875m-1.858 5.313v1.031m0-8.25v1.031M3.75 3.75v3M2.2 1.182A2.976 2.976 0 0 1 3.75.75a3.009 3.009 0 0 1 3 3v3c0 .076 0 .151-.008.225M5.383 9.263a2.972 2.972 0 0 1-1.633.487 3.009 3.009 0 0 1-3-3v-3"/></svg>