<svg xmlns="http://www.w3.org/2000/svg" viewBox="0 0 24 24" width="24" height="24"><defs><style>.a{fill:none;stroke:#000;stroke-linecap:round;stroke-linejoin:round;stroke-width:1.5px}</style></defs><title>smart-watch-square-brightness</title><rect class="a" x="3.75" y="3.75" width="16.5" height="16.5" rx="3" ry="3"/><path class="a" d="M17.25 3.75H6.75v-1.5a1.5 1.5 0 0 1 1.5-1.5h7.5a1.5 1.5 0 0 1 1.5 1.5zm-1.5 19.5h-7.5a1.5 1.5 0 0 1-1.5-1.5v-1.5h10.5v1.5a1.5 1.5 0 0 1-1.5 1.5z"/><circle class="a" cx="12" cy="12" r="1.5"/><path class="a" d="M16.875 11.625a.375.375 0 1 0 .375.375.375.375 0 0 0-.375-.375M14.625 7.5a.375.375 0 1 0 .375.375.375.375 0 0 0-.375-.375m-7.5 4.125A.375.375 0 1 0 7.5 12a.375.375 0 0 0-.375-.375M9.375 7.5a.375.375 0 1 0 .375.375.375.375 0 0 0-.375-.375m5.25 8.25a.375.375 0 1 0 .375.375.375.375 0 0 0-.375-.375m-5.25 0a.375.375 0 1 0 .375.375.375.375 0 0 0-.375-.375"/></svg>