<svg xmlns="http://www.w3.org/2000/svg" viewBox="0 0 24 24" width="24" height="24"><defs><style>.a{fill:none;stroke:#000;stroke-linecap:round;stroke-linejoin:round;stroke-width:1.5px}</style></defs><title>smart-house-phone-power-1</title><path class="a" d="M3.75 6.467V17.25a1.5 1.5 0 0 0 1.5 1.5h7.519M10.52.75L.75 9M10.52.75l3.552 3"/><rect class="a" x="15.75" y="11.25" width="7.5" height="12" rx="1.5" ry="1.5"/><path class="a" d="M15.75 20.25h7.5M10.519 7.5V10M8.4 8.879a3 3 0 1 0 4.243 0m5.18-.629a2.25 2.25 0 0 1 3.354 0M15.75 6.076a5.249 5.249 0 0 1 7.5 0"/></svg>