<svg xmlns="http://www.w3.org/2000/svg" viewBox="0 0 24 24" width="24" height="24"><g fill="none" stroke="#000" stroke-linecap="round" stroke-linejoin="round" stroke-miterlimit="10"><path d="M15 18.5h6.75c1.688 0 1.688-2 0-2H18"/><path d="M17 10.5h-3.25c-2.762 0-4.25 1-4.25 1h-9v7h9s2.25 2 4.25 2h3c.828 0 1.75-.671 1.75-1.5v-.5m.5-2h3.75c.938 0 .922-2 0-2H19m-1 0h3.75c1 0 .969-2 0-2H18"/><path d="M17 12.5h2.75c1.672 0 1.656-2 0-2H15m-10.5 3h4v3h-4zm3-2v2m0 3v2m-2-7v2m0 3v2m6.215-14.45C10.365 3.149 8.744 2.622 7 2.622s-3.365.527-4.715 1.428m8.32 1.664A6.465 6.465 0 007 4.622a6.464 6.464 0 00-3.604 1.092m6.101 1.664C8.781 6.901 7.924 6.622 7 6.622s-1.781.279-2.496.756"/></g><path fill="none" d="M0 0h24v24H0z"/></svg>