<svg xmlns="http://www.w3.org/2000/svg" viewBox="0 0 24 24" width="24" height="24"><defs><style>.a{fill:none;stroke:#000;stroke-linecap:round;stroke-linejoin:round;stroke-width:1.5px}</style></defs><title>smart-watch-circle-home</title><path class="a" d="M12 17.03v4.72a1.5 1.5 0 0 1-1.5 1.5h-6a1.5 1.5 0 0 1-1.5-1.5v-4.72M10.5.75h-6A1.5 1.5 0 0 0 3 2.25v4.72m9.75-3.022v5.8a1.5 1.5 0 0 0 1.5 1.5h6a1.5 1.5 0 0 0 1.5-1.5v-5.8"/><path class="a" d="M11.25 5.26l4.518-3.953a2.249 2.249 0 0 1 2.964 0L23.25 5.26m-4.5 5.99h-3v-3a1.5 1.5 0 0 1 3 0zM8.25 5.325a6.851 6.851 0 0 0-.75-.075 6.75 6.75 0 1 0 6.337 9"/></svg>