<svg xmlns="http://www.w3.org/2000/svg" viewBox="0 0 24 24" width="24" height="24"><defs><style>.a{fill:none;stroke:#000;stroke-linecap:round;stroke-linejoin:round;stroke-width:1.5px}</style></defs><title>smartwatch-shopping-basket</title><rect class="a" x="3.75" y="3.75" width="16.5" height="16.5" rx="3" ry="3"/><path class="a" d="M17.25 3.75H6.75v-1.5a1.5 1.5 0 0 1 1.5-1.5h7.5a1.5 1.5 0 0 1 1.5 1.5zm-1.5 19.5h-7.5a1.5 1.5 0 0 1-1.5-1.5v-1.5h10.5v1.5a1.5 1.5 0 0 1-1.5 1.5zm.086-12H8.165a1.5 1.5 0 0 0-1.4 2.027l1.308 3.486a.749.749 0 0 0 .7.487h6.461a.75.75 0 0 0 .7-.487l1.307-3.486a1.5 1.5 0 0 0-1.405-2.027zm-7.586 0l1.5-3.75m6 3.75l-1.5-3.75M10.5 15v-1.5m3 1.5v-1.5"/></svg>