<svg xmlns="http://www.w3.org/2000/svg" viewBox="0 0 24 24" width="24" height="24"><defs><style>.a{fill:none;stroke:#000;stroke-linecap:round;stroke-linejoin:round;stroke-width:1.5px}</style></defs><title>smart-watch-circle-star</title><path class="a" d="M12 17.023v4.727a1.5 1.5 0 0 1-1.5 1.5h-6a1.5 1.5 0 0 1-1.5-1.5v-4.727M17.947 1.18l1.541 3.32h3a.735.735 0 0 1 .518 1.283L20.4 8.349l1.442 3.313a.786.786 0 0 1-1.119.982l-3.483-1.961-3.487 1.961a.786.786 0 0 1-1.119-.982l1.443-3.313-2.6-2.563a.734.734 0 0 1 .511-1.286h3l1.544-3.32a.8.8 0 0 1 1.415 0zm-6.177.32A1.479 1.479 0 0 0 10.5.75h-6A1.5 1.5 0 0 0 3 2.25v4.72"/><path class="a" d="M8.25 5.325a6.851 6.851 0 0 0-.75-.075 6.75 6.75 0 1 0 5.61 10.5"/></svg>