<svg id="Regular" xmlns="http://www.w3.org/2000/svg" viewBox="0 0 24 24" width="24" height="24"><defs><style>.cls-1{fill:none;stroke:#000;stroke-linecap:round;stroke-linejoin:round;stroke-width:1.5px}</style></defs><title>smart-light-smartphone</title><path class="cls-1" d="M5.25 21.75h-1.5a1.5 1.5 0 0 1-1.5-1.5V18h4.5v2.25a1.5 1.5 0 0 1-1.5 1.5zm-.75-10.5A3.75 3.75 0 0 0 2.25 18h4.5a3.75 3.75 0 0 0-2.25-6.75zm0 10.5v1.5m6.312-10.644a6.765 6.765 0 0 0-4.326-4.059m11.34 1.398a14.285 14.285 0 0 0-9.134-8.568M7.589 4.962a10.527 10.527 0 0 1 6.73 6.313"/><path class="cls-1" d="M15.75.75h4.5a3 3 0 0 1 3 3v16.5a3 3 0 0 1-3 3h-7.5a3 3 0 0 1-3-3m3-3h10.5m-6.75 2.625"/><path class="cls-1" d="M16.5 19.875a.375.375 0 1 0 .375.375.375.375 0 0 0-.375-.375"/></svg>