<svg xmlns="http://www.w3.org/2000/svg" viewBox="0 0 24 24" width="24" height="24"><defs><style>.a{fill:none;stroke:#000;stroke-linecap:round;stroke-linejoin:round;stroke-width:1.5px}</style></defs><title>smart-watch-circle-location</title><path class="a" d="M13.121 17.031v4.719a1.5 1.5 0 0 1-1.5 1.5h-6a1.5 1.5 0 0 1-1.5-1.5v-4.719m0-10.062V2.25a1.5 1.5 0 0 1 1.5-1.5h6M14.669 15a6.747 6.747 0 1 1-4.532-9.579m7.484-.472a.375.375 0 1 0 .379.375.374.374 0 0 0-.375-.375"/><path class="a" d="M17.621.824a4.5 4.5 0 0 1 4.5 4.5c0 1.921-2.688 5.577-3.909 7.138a.751.751 0 0 1-1.183 0c-1.221-1.562-3.908-5.217-3.908-7.138a4.5 4.5 0 0 1 4.5-4.5z"/></svg>