<svg xmlns="http://www.w3.org/2000/svg" viewBox="0 0 24 24" width="24" height="24"><defs><style>.a{fill:none;stroke:#000;stroke-linecap:round;stroke-linejoin:round;stroke-width:1.5px}</style></defs><title>smart-house-phone-cctv</title><rect class="a" x="15.718" y="11.25" width="7.5" height="12" rx="1.5" ry="1.5"/><path class="a" d="M15.718 20.25h7.5m-19.5-4.5a6 6 0 0 0 6 6h2.25m11.25-13.5a6 6 0 0 0-6-6h-1.5"/><path class="a" d="M17.218.75l-1.5 1.5 1.5 1.5m-6.75 19.5l1.5-1.5-1.5-1.5M8.7 2.459L1.029 4.836a.346.346 0 0 0-.183.581l2.793 3.6a.832.832 0 0 0 .838.264l5.781-1.792A2.635 2.635 0 1 0 8.7 2.459z"/><path class="a" d="M9.629 7.687l.585 1.888a1.317 1.317 0 0 0 1.648.868l1.606-.5"/></svg>