<svg xmlns="http://www.w3.org/2000/svg" viewBox="0 0 24 24" width="24" height="24"><g fill="none" stroke="#000" stroke-linejoin="round" stroke-miterlimit="10"><path d="M8.5 5.953V.5h7v5.438m-7 12.124V23.5h7v-5.469"/><circle stroke-linecap="round" cx="12" cy="12" r="7"/><path stroke-linecap="round" d="M13.5 11.084V13.5c0 .5.567 1 1 1h1c.5 0 1-.5 1-1v-1c0-1.998-9-1.998-9 0v1c0 .5.5 1 1 1h1c.5 0 1-.5 1-1v-2.423M12 7.5V9m3.125-.818L14.5 9.545M8.875 8.182L9.5 9.545"/></g><path fill="none" d="M0 0h24v24H0z"/></svg>