<svg id="Regular" xmlns="http://www.w3.org/2000/svg" viewBox="0 0 24 24" width="24" height="24"><defs><style>.cls-1{fill:none;stroke:#000;stroke-linecap:round;stroke-linejoin:round;stroke-width:1.5px}</style></defs><title>smart-light-wifi</title><path class="cls-1" d="M7.5 16.492v-3.75l-2.25-2.25m2.25 2.25l2.25-2.25M7.5 23.242v-1.5"/><path class="cls-1" d="M10.5 18.742a3 3 0 0 1-6 0v-2.25h6z"/><path class="cls-1" d="M7.5 3.742a6.751 6.751 0 0 0-3 12.8v-.048h6v.048a6.751 6.751 0 0 0-3-12.8zm10.642 3.75a.375.375 0 1 1-.375.375.375.375 0 0 1 .375-.375m-3.285-2.77a6.006 6.006 0 0 1 6.57 0m1.823-2.37a8.982 8.982 0 0 0-10.216 0"/></svg>