<svg xmlns="http://www.w3.org/2000/svg" viewBox="0 0 24 24" width="24" height="24"><defs><style>.a{fill:none;stroke:#000;stroke-linecap:round;stroke-linejoin:round;stroke-width:1.5px}</style></defs><title>smart-watch-circle-flash</title><path class="a" d="M4.117 6.97V2.25a1.5 1.5 0 0 1 1.5-1.5h6m1.5 16.25v4.75a1.5 1.5 0 0 1-1.5 1.5h-6a1.5 1.5 0 0 1-1.5-1.5v-4.72m15-16.28l-5.911 6.882a.375.375 0 0 0 .286.618h2.625v6l5.91-6.882a.375.375 0 0 0-.285-.618h-2.625zm-8.25 4.913A6.742 6.742 0 1 0 13.615 16.5"/></svg>