<svg xmlns="http://www.w3.org/2000/svg" viewBox="0 0 24 24" width="24" height="24"><defs><style>.a{fill:none;stroke:#000;stroke-linecap:round;stroke-linejoin:round;stroke-width:1.5px}</style></defs><title>smart-house-car</title><path class="a" d="M15.75 8.25L8.25.75l-7.5 7.5"/><path class="a" d="M8.25 15.75h-4.5a1.5 1.5 0 0 1-1.5-1.5v-7.5m12 0v3m6.75 6v-1.5a1.5 1.5 0 0 0-1.5-1.5h-6a1.5 1.5 0 0 0-1.5 1.5v1.5l-2.25 3.007v2.993h13.5v-2.993zm-9 0h9m-11.25 3h3m7.5 0h3m-12 3v1.5m10.5-1.5v1.5M5.6 8.6a3.75 3.75 0 0 1 5.3 0m-2.65 2.275a.375.375 0 1 0 .375.375.375.375 0 0 0-.375-.375"/></svg>