<svg xmlns="http://www.w3.org/2000/svg" viewBox="0 0 24 24" width="24" height="24"><g fill="none" stroke="#000" stroke-linejoin="round" stroke-miterlimit="10"><path d="M19.5 16.5a2 2 0 01-2 2h-11a2 2 0 01-2-2v-9a2 2 0 012-2h11a2 2 0 012 2v9zm-3-13h-9l-1 2h11zm-9-3h9v3h-9zm0 20h9l1-2h-11zm0 0h9v3h-9z"/><path stroke-linecap="round" d="M13.5 12.084V14.5c0 .5.567 1 1 1h1c.5 0 1-.5 1-1v-1c0-1.998-9-1.998-9 0v1c0 .5.5 1 1 1h1c.5 0 1-.5 1-1v-2.427M12 8.5V10m3.125-.818l-.625 1.363M8.875 9.182l.625 1.363"/></g><path fill="none" d="M0 0h24v24H0z"/></svg>