<svg xmlns="http://www.w3.org/2000/svg" viewBox="0 0 24 24" width="24" height="24"><defs><style>.a{fill:none;stroke:#000;stroke-linecap:round;stroke-linejoin:round;stroke-width:1.5px}</style></defs><title>smart-watch-circle-temperature</title><path class="a" d="M9.372 2.25h-2.25a3 3 0 0 0-3 3v1.5a3 3 0 0 0 3 3h2.25m-7.125-9a.375.375 0 1 0 .375.375.374.374 0 0 0-.375-.375m8.625 16.281v4.719a1.5 1.5 0 0 0 1.5 1.5h6a1.5 1.5 0 0 0 1.5-1.5v-4.719m0-10.061V2.25a1.5 1.5 0 0 0-1.5-1.5h-6m-3.672 12a6.78 6.78 0 1 0 3.675-6.767"/></svg>