<svg xmlns="http://www.w3.org/2000/svg" viewBox="0 0 24 24" width="24" height="24"><g fill="none" stroke="#000" stroke-linejoin="round" stroke-miterlimit="10"><path d="M7.5 5.953V.5h7v5.438m-7 12.124V23.5h7v-5.469"/><circle stroke-linecap="round" cx="11" cy="12" r="7"/><path stroke-linecap="round" d="M15 9.506A8.467 8.467 0 0010.987 8.5 8.459 8.459 0 007 9.492m6.992 1.742c-.898-.469-1.919-.734-3.004-.734s-2.108.267-3.008.736m5.006 1.731a4.485 4.485 0 00-1.999-.467c-.719 0-1.397.168-2 .469"/><circle stroke-linecap="round" cx="10.987" cy="15.5" r="1"/></g><path fill="none" d="M0 0h24v24H0z"/></svg>