<svg xmlns="http://www.w3.org/2000/svg" viewBox="0 0 24 24" width="24" height="24"><defs><style>.a{fill:none;stroke:#000;stroke-linecap:round;stroke-linejoin:round;stroke-width:1.5px}</style></defs><title>smart-watch-circle-heart</title><path class="a" d="M13.549 15A6.751 6.751 0 1 1 7.5 5.25M3 6.969V2.25A1.5 1.5 0 0 1 4.5.75H9"/><path class="a" d="M12 17.031v4.719a1.5 1.5 0 0 1-1.5 1.5h-6a1.5 1.5 0 0 1-1.5-1.5v-4.719m14.25-5.781l-5.113-5.335a3.025 3.025 0 0 1-.567-3.492 3.025 3.025 0 0 1 4.845-.786l.835.835.836-.835a3.025 3.025 0 0 1 4.845.786 3.025 3.025 0 0 1-.567 3.492z"/></svg>