<svg xmlns="http://www.w3.org/2000/svg" viewBox="0 0 24 24" width="24" height="24"><defs><style>.a{fill:none;stroke:#000;stroke-linecap:round;stroke-linejoin:round;stroke-width:1.5px}</style></defs><title>smart-house-window</title><path class="a" d="M13.7 3a5.248 5.248 0 0 0 7.424 0m-9.542 2.122a8.251 8.251 0 0 0 11.668 0m-15 .128h-6a1.5 1.5 0 0 0-1.5 1.5v15a1.5 1.5 0 0 0 1.5 1.5h15a1.5 1.5 0 0 0 1.5-1.5v-10.5M17.416.75a.375.375 0 1 0 .375.375.375.375 0 0 0-.375-.375M.75 14.25h18m-9-6v15"/></svg>