<svg xmlns="http://www.w3.org/2000/svg" viewBox="0 0 24 24" width="24" height="24"><g fill="none" stroke="#000" stroke-linejoin="round" stroke-miterlimit="10"><path d="M19.5 16.5a2 2 0 01-2 2h-11a2 2 0 01-2-2v-9a2 2 0 012-2h11a2 2 0 012 2v9zm-3-13h-9l-1 2h11zm-9-3h9v3h-9zm0 20h9l1-2h-11zm0 0h9v3h-9z"/><path d="M6.5 13.5h11v3h-11z"/></g><path fill="none" stroke="#000" stroke-linecap="round" stroke-linejoin="round" stroke-miterlimit="10" d="M16.766 9.499c0 .83-.115 1.501-.766 1.501-.652 0-.767-.671-.767-1.501 0-.828.115-1.499.767-1.499.651 0 .766.671.766 1.499zm-3.469 1.439V8L12 9.868h1.532"/><g fill="none" stroke="#000" stroke-linecap="round" stroke-linejoin="round" stroke-miterlimit="10"><path d="M8.232 9.767c-.652 0-.766-.558-.766-.867 0-.311.113-.868.766-.868.654-.001.768.557.768.867 0 .31-.114.868-.768.868z"/><path d="M7.867 11C8.831 11 9 10.177 9 9.719v-.82"/></g><path d="M10.75 8.5a.25.25 0 100 .5.25.25 0 100-.5zm0 1.5a.25.25 0 100 .5.25.25 0 100-.5z"/><path fill="none" d="M0 0h24v24H0z"/></svg>