<svg xmlns="http://www.w3.org/2000/svg" viewBox="0 0 24 24" width="24" height="24"><defs><style>.a{fill:none;stroke:#000;stroke-linecap:round;stroke-linejoin:round;stroke-width:1.5px}</style></defs><title>smart-watch-circle-brightness</title><path class="a" d="M22.875 5.622A.375.375 0 1 0 23.25 6a.375.375 0 0 0-.375-.375m-11.25-.003A.375.375 0 1 0 12 6a.375.375 0 0 0-.375-.375M20.063.75a.376.376 0 1 0 .187.05.366.366 0 0 0-.187-.05m-5.625 9.743a.374.374 0 1 0 .187.05.373.373 0 0 0-.187-.05M14.437.75a.366.366 0 0 0-.187.05.373.373 0 1 0 .187-.05m5.625 9.743a.375.375 0 1 0 .325.188.375.375 0 0 0-.325-.188"/><circle class="a" cx="17.25" cy="5.997" r="2.25"/><path class="a" d="M8.284 5.329A6.525 6.525 0 0 0 7.5 5.25a6.75 6.75 0 1 0 6.316 9.068"/><path class="a" d="M3 17.031v4.719a1.5 1.5 0 0 0 1.5 1.5h6a1.5 1.5 0 0 0 1.5-1.5v-4.738M10.5.75h-6A1.5 1.5 0 0 0 3 2.25v4.719"/></svg>