<svg xmlns="http://www.w3.org/2000/svg" viewBox="0 0 24 24" width="24" height="24"><defs><style>.a{fill:none;stroke:#000;stroke-linecap:round;stroke-linejoin:round;stroke-width:1.5px}</style></defs><title>smart-house-open-door</title><path class="a" d="M12 14.25v4.5a1.5 1.5 0 0 1-1.5 1.5h-3"/><path class="a" d="M12 3.75a1.5 1.5 0 0 0-1.5-1.5H1.246a.5.5 0 0 0-.5.5v17.53a.5.5 0 0 0 .274.443l5.457 2.127a.75.75 0 0 0 1.023-.7V5.77a.749.749 0 0 0-.487-.7L.75 2.746M19.875 5.92a1.59 1.59 0 0 1-2.25 0m3.938 2.301a3.976 3.976 0 0 1-5.625 0m7.312 2.665a6.363 6.363 0 0 1-9 0M21.75.75v1.5a1.5 1.5 0 0 1-1.5 1.5h-3a1.5 1.5 0 0 1-1.5-1.5V.75z"/></svg>