<svg xmlns="http://www.w3.org/2000/svg" viewBox="0 0 24 24" width="24" height="24"><path d="M19.5 16.5a2 2 0 01-2 2h-11a2 2 0 01-2-2v-9a2 2 0 012-2h11a2 2 0 012 2v9zm-3-13h-9l-1 2h11zm-9-3h9v3h-9zm0 20h9l1-2h-11zm0 0h9v3h-9z" fill="none" stroke="#000" stroke-linejoin="round" stroke-miterlimit="10"/><g fill="none" stroke="#000" stroke-linecap="round" stroke-linejoin="round" stroke-miterlimit="10"><path d="M16.5 14a1.5 1.5 0 01-1.5 1.5H9A1.5 1.5 0 017.5 14v-4A1.5 1.5 0 019 8.5h6a1.5 1.5 0 011.5 1.5v4z"/><path d="M15 10.5L12 13l-3-2.5m6 3l-1.636-1.637M9 13.5l1.637-1.637"/></g><path fill="none" d="M0 0h24v24H0z"/></svg>