<svg xmlns="http://www.w3.org/2000/svg" viewBox="0 0 24 24" width="24" height="24"><defs><style>.a{fill:none;stroke:#000;stroke-linecap:round;stroke-linejoin:round;stroke-width:1.5px}</style></defs><title>smart-house-door-open</title><path class="a" d="M14.25 14.71a.749.749 0 0 1-.987.711l-3-1a.75.75 0 0 1-.513-.711V7.291a.751.751 0 0 1 .513-.712l3-1a.749.749 0 0 1 .987.712z"/><path class="a" d="M14.25 6.75h3v7.5h-3z"/><path class="a" d="M5.25 12.75V6.862a1.5 1.5 0 0 1 .744-1.3L14.25.75l8.256 4.816a1.5 1.5 0 0 1 .744 1.3V18.75a1.5 1.5 0 0 1-1.5 1.5h-9.437m-9.875.404a3.978 3.978 0 0 1 5.625 0M.75 17.989a6.364 6.364 0 0 1 9 0M5.25 22.5a.375.375 0 1 1-.375.375.375.375 0 0 1 .375-.375"/><path class="a" d="M12 10.25a.25.25 0 1 1-.25.25.25.25 0 0 1 .25-.25"/></svg>