<svg xmlns="http://www.w3.org/2000/svg" viewBox="0 0 24 24" width="24" height="24"><g fill="none" stroke="#000" stroke-linejoin="round" stroke-miterlimit="10"><path d="M15.397 15.117l1-1.732-1-.577a3.232 3.232 0 000-1.614l.999-.576-1-1.732-.999.576a3.48 3.48 0 00-1.397-.8V7.5h-2v1.162a3.49 3.49 0 00-1.397.799l-.999-.576-1 1.732.999.576a3.232 3.232 0 000 1.614l-1 .577 1 1.732 1-.578c.392.369.869.64 1.397.799V16.5h2v-1.162a3.496 3.496 0 001.397-.799l1 .578z"/><circle cx="12" cy="12" r="1.5"/></g><path d="M19.5 16.5a2 2 0 01-2 2h-11a2 2 0 01-2-2v-9a2 2 0 012-2h11a2 2 0 012 2v9zm-3-13h-9l-1 2h11zm-9-3h9v3h-9zm0 20h9l1-2h-11zm0 0h9v3h-9z" fill="none" stroke="#000" stroke-linejoin="round" stroke-miterlimit="10"/><path fill="none" d="M0 0h24v24H0z"/></svg>