<svg id="Regular" xmlns="http://www.w3.org/2000/svg" viewBox="0 0 24 24" width="24" height="24"><defs><style>.cls-1{fill:none;stroke:#000;stroke-linecap:round;stroke-linejoin:round;stroke-width:1.5px}</style></defs><title>smart-light-signal</title><path class="cls-1" d="M4.045 21.455a11.25 11.25 0 1 1 15.91 0M6.166 19.334a8.251 8.251 0 1 1 11.668 0"/><path class="cls-1" d="M12.75 20.25h-1.5a1.5 1.5 0 0 1-1.5-1.5V16.5h4.5v2.25a1.5 1.5 0 0 1-1.5 1.5zM12 9.75a3.75 3.75 0 0 0-2.25 6.75h4.5A3.75 3.75 0 0 0 12 9.75zm0 10.5v1.5"/></svg>