<svg xmlns="http://www.w3.org/2000/svg" viewBox="0 0 24 24" width="24" height="24"><defs><style>.a{fill:none;stroke:#000;stroke-linecap:round;stroke-linejoin:round;stroke-width:1.5px}</style></defs><title>smart-watch-square-location</title><rect class="a" x="3.75" y="3.75" width="16.5" height="16.5" rx="3" ry="3"/><path class="a" d="M17.25 3.75H6.75v-1.5a1.5 1.5 0 0 1 1.5-1.5h7.5a1.5 1.5 0 0 1 1.5 1.5zm-1.5 19.5h-7.5a1.5 1.5 0 0 1-1.5-1.5v-1.5h10.5v1.5a1.5 1.5 0 0 1-1.5 1.5zM12 10.125a.375.375 0 1 0 .375.375.375.375 0 0 0-.375-.375"/><path class="a" d="M15.75 10.5c0 1.566-2.145 4.556-3.19 5.745a.742.742 0 0 1-1.12 0c-1.04-1.189-3.19-4.179-3.19-5.745a3.75 3.75 0 0 1 7.5 0z"/></svg>