<svg xmlns="http://www.w3.org/2000/svg" viewBox="0 0 24 24" width="24" height="24"><g fill="none" stroke="#000" stroke-linejoin="round" stroke-miterlimit="10"><path d="M19.5 16.5a2 2 0 01-2 2h-11a2 2 0 01-2-2v-9a2 2 0 012-2h11a2 2 0 012 2v9zm-3-13h-9l-1 2h11zm-9-3h9v3h-9zm0 20h9l1-2h-11zm0 0h9v3h-9z"/><path stroke-linecap="round" d="M8.777 12.678l1.461-1.46a.78.78 0 000-1.106l-.83-.833a.783.783 0 00-1.108 0l-.457.456a1.172 1.172 0 00-.147 1.478 18.161 18.161 0 005.091 5.091 1.176 1.176 0 001.479-.147l.455-.455a.78.78 0 000-1.107l-.831-.831a.783.783 0 00-1.108 0l-1.46 1.46M12.5 11.5l3-3m-1 3h-2v-2"/></g><path fill="none" d="M0 0h24v24H0z"/></svg>