<svg xmlns="http://www.w3.org/2000/svg" viewBox="0 0 24 24" width="24" height="24"><defs><style>.a{fill:none;stroke:#000;stroke-linecap:round;stroke-linejoin:round;stroke-width:1.5px}</style></defs><title>smart-watch-circle-cash</title><path class="a" d="M3 6.969V2.25A1.5 1.5 0 0 1 4.5.75h6M12 17.03v4.72a1.5 1.5 0 0 1-1.5 1.5h-6a1.5 1.5 0 0 1-1.5-1.5v-4.72M18.75 3.75h-2.033a1.342 1.342 0 0 0-.5 2.587l2.064.826a1.342 1.342 0 0 1-.5 2.587H15.75m1.5-6V3m0 7.5v-.75"/><circle class="a" cx="17.25" cy="6.75" r="6"/><path class="a" d="M8.372 5.338A6.8 6.8 0 0 0 7.5 5.25a6.75 6.75 0 1 0 6.046 9.7"/></svg>