<svg xmlns="http://www.w3.org/2000/svg" viewBox="0 0 24 24" width="24" height="24"><defs><style>.a{fill:none;stroke:#000;stroke-linecap:round;stroke-linejoin:round;stroke-width:1.5px}</style></defs><title>smartwatch-shopping-cart</title><rect class="a" x="3.75" y="3.75" width="16.5" height="16.5" rx="3" ry="3"/><path class="a" d="M17.25 3.75H6.75v-1.5a1.5 1.5 0 0 1 1.5-1.5h7.5a1.5 1.5 0 0 1 1.5 1.5zm0 16.5v1.5a1.5 1.5 0 0 1-1.5 1.5h-7.5a1.5 1.5 0 0 1-1.5-1.5v-1.5M16.875 6.742l-2.25 7.5h-6l-1.5-4.5h8.85M9 16.492a.375.375 0 1 1-.375.375.375.375 0 0 1 .375-.375m5.25 0a.375.375 0 1 1-.375.375.375.375 0 0 1 .375-.375"/></svg>