<svg xmlns="http://www.w3.org/2000/svg" viewBox="0 0 24 24" width="24" height="24"><defs><style>.a{fill:none;stroke:#000;stroke-linecap:round;stroke-linejoin:round;stroke-width:1.5px}</style></defs><title>smart-house-garage-1</title><path class="a" d="M23.25 8.25l-7.5-7.5-7.5 7.5"/><rect class="a" x=".75" y="14.25" width="6" height="9" rx="1.5" ry="1.5"/><path class="a" d="M3.75 19.875a.375.375 0 1 0 .375.375.375.375 0 0 0-.375-.375m-2.121-9.246a3 3 0 0 1 4.242 0M21.75 6.75v7.5a1.5 1.5 0 0 1-1.5 1.5h-9a1.5 1.5 0 0 1-1.5-1.5v-7.5"/><path class="a" d="M12.75 9.75h6v6h-6zm0 3h6"/></svg>