<svg xmlns="http://www.w3.org/2000/svg" viewBox="0 0 24 24" width="24" height="24"><defs><style>.a{fill:none;stroke:#000;stroke-linecap:round;stroke-linejoin:round;stroke-width:1.5px}</style></defs><title>smart-watch-square-cash</title><rect class="a" x="3.75" y="3.75" width="16.5" height="16.5" rx="3" ry="3"/><path class="a" d="M17.25 3.75H6.75v-1.5a1.5 1.5 0 0 1 1.5-1.5h7.5a1.5 1.5 0 0 1 1.5 1.5zm-1.5 19.5h-7.5a1.5 1.5 0 0 1-1.5-1.5v-1.5h10.5v1.5a1.5 1.5 0 0 1-1.5 1.5zm-5.608-9.406a2.221 2.221 0 0 0 1.858.875c1.139 0 2.062-.692 2.062-1.547s-.923-1.546-2.062-1.546-2.063-.693-2.063-1.548.924-1.547 2.063-1.547a2.221 2.221 0 0 1 1.858.875M12 14.719v1.031m0-8.25v1.031"/></svg>