<svg xmlns="http://www.w3.org/2000/svg" viewBox="0 0 24 24" width="24" height="24"><g fill="none" stroke="#000" stroke-linejoin="round" stroke-miterlimit="10"><path d="M8.5 5.953V.5h7v5.438m-7 12.124V23.5h7v-5.469"/><circle stroke-linecap="round" cx="12" cy="12" r="7"/><path stroke-linecap="round" d="M8.778 12.676l1.46-1.458a.78.78 0 000-1.106l-.83-.832a.785.785 0 00-1.109 0l-.455.455a1.172 1.172 0 00-.148 1.478 18.194 18.194 0 005.092 5.092 1.177 1.177 0 001.479-.148l.455-.455a.78.78 0 000-1.107l-.83-.831a.782.782 0 00-1.107 0l-1.46 1.46M12.5 11.5l3-3m-1 3h-2v-2"/></g><path fill="none" d="M0 0h24v24H0z"/></svg>