<svg xmlns="http://www.w3.org/2000/svg" viewBox="0 0 24 24" width="24" height="24"><defs><style>.a,.b{fill:none;stroke:#000;stroke-linecap:round;stroke-linejoin:round;stroke-width:1.5px}.b{fill-rule:evenodd}</style></defs><title>smart-house-light-on</title><path class="a" d="M6.75 3.75v-1.5a1.5 1.5 0 0 1 1.5-1.5h9a1.5 1.5 0 0 1 1.5 1.5v1.5"/><circle class="a" cx="12" cy="17.625" r="2.625"/><path class="a" d="M15.75 23.25a4.25 4.25 0 0 0-7.5 0"/><path class="b" d="M20.871 8.872a3 3 0 0 1-4.242 0m-2.379 1.847a6 6 0 0 0 9 0M18.75 6a.375.375 0 1 1-.375.375A.375.375 0 0 1 18.75 6"/><circle class="a" cx="6.75" cy="8.25" r="2.25"/><path class="a" d="M6.75 12.75v1.5m3.182-9.182l1.061-1.06m.257 4.242h1.5M3.568 5.068l-1.061-1.06M2.25 8.25H.75m9.182 3.182l1.061 1.061m-7.425-1.061l-1.061 1.061"/></svg>