<svg xmlns="http://www.w3.org/2000/svg" viewBox="0 0 24 24" width="24" height="24"><path d="M19.5 16.5a2 2 0 01-2 2h-11a2 2 0 01-2-2v-9a2 2 0 012-2h11a2 2 0 012 2v9zm-3-13h-9l-1 2h11zm-9-3h9v3h-9zm0 20h9l1-2h-11zm0 0h9v3h-9z" fill="none" stroke="#000" stroke-linejoin="round" stroke-miterlimit="10"/><path fill="none" stroke="#000" stroke-linejoin="round" stroke-miterlimit="10" d="M12 16.5s4.5-3.272 4.5-5.697c0-2.797-3.682-3.682-4.5-.279-.818-3.402-4.5-2.518-4.5.279C7.5 13.228 12 16.5 12 16.5z"/><path fill="none" d="M0 0h24v24H0z"/></svg>