<svg xmlns="http://www.w3.org/2000/svg" viewBox="0 0 24 24" width="24" height="24"><defs><style>.a{fill:none;stroke:#000;stroke-linecap:round;stroke-linejoin:round;stroke-width:1.5px}</style></defs><title>smart-house-light</title><path class="a" d="M18.75 9.75a4.5 4.5 0 1 0-6 4.243v1.757h3v-1.757a4.5 4.5 0 0 0 3-4.243zm-4.5 6v1.5"/><path class="a" d="M5.25 12.75V6.862a1.5 1.5 0 0 1 .744-1.3L14.25.75l8.256 4.816a1.5 1.5 0 0 1 .744 1.3V18.75a1.5 1.5 0 0 1-1.5 1.5h-9.437m-9.875.404a3.978 3.978 0 0 1 5.625 0M.75 17.989a6.364 6.364 0 0 1 9 0M5.25 22.5a.375.375 0 1 1-.375.375.375.375 0 0 1 .375-.375"/></svg>