<svg xmlns="http://www.w3.org/2000/svg" viewBox="0 0 24 24" width="24" height="24"><defs><style>.a{fill:none;stroke:#000;stroke-linecap:round;stroke-linejoin:round;stroke-width:1.5px}</style></defs><title>smart-house-open</title><path class="a" d="M9.75 12.75v9a1.5 1.5 0 0 1-1.5 1.5h-6a1.5 1.5 0 0 1-1.5-1.5v-10.5a1.5 1.5 0 0 1 1.5-1.5h3"/><path class="a" d="M6.75 14.25l-3 2.25 3 2.25m7.5-6v9a1.5 1.5 0 0 0 1.5 1.5h6a1.5 1.5 0 0 0 1.5-1.5v-10.5a1.5 1.5 0 0 0-1.5-1.5h-3"/><path class="a" d="M17.25 14.25l3 2.25-3 2.25M4.75 4.875a8.253 8.253 0 0 0 14.7 0m-3.913-2.25a3.75 3.75 0 0 1-6.874 0M12.1.75a.375.375 0 1 0 .375.375A.375.375 0 0 0 12.1.75"/></svg>