<svg xmlns="http://www.w3.org/2000/svg" viewBox="0 0 24 24" width="24" height="24"><defs><style>.a{fill:none;stroke:#000;stroke-linecap:round;stroke-linejoin:round;stroke-width:1.5px}</style></defs><title>smartphone-pay-dollar-1</title><path class="a" d="M12.75 14.25v7.5a1.5 1.5 0 0 1-1.5 1.5h-9a1.5 1.5 0 0 1-1.5-1.5v-18a1.5 1.5 0 0 1 1.5-1.5H9M.75 18.75h12m6-15h-2.033a1.341 1.341 0 0 0-.5 2.587l2.063.826a1.342 1.342 0 0 1-.5 2.587h-2.03m1.5-6V3m0 7.5v-.75"/><circle class="a" cx="17.25" cy="6.75" r="6"/></svg>