<svg xmlns="http://www.w3.org/2000/svg" viewBox="0 0 24 24" width="24" height="24"><defs><style>.a{fill:none;stroke:#000;stroke-linecap:round;stroke-linejoin:round;stroke-width:1.5px}</style></defs><title>smart-watch-wrist</title><path class="a" d="M11.25 2.342a7.155 7.155 0 0 0-9 0m1.875 2.794a4.177 4.177 0 0 1 5.25 0m.375 6.114h-6l.75-3H9l.75 3zm-.75 12H4.5l-.75-3h6l-.75 3z"/><rect class="a" x="2.25" y="11.25" width="9" height="9" rx="1.5" ry="1.5"/><path class="a" d="M4.125 9.75H.75m3.375 12H.75m8.625-12h3.375l1.733-.867a6.007 6.007 0 0 1 2.683-.633h3.084a3 3 0 0 1 3 3v6a3 3 0 0 1-3 3h-3m-7.875 1.5h3.375l1.733.867a6.007 6.007 0 0 0 2.683.633h.084a3 3 0 0 0 3-3"/></svg>