<svg xmlns="http://www.w3.org/2000/svg" viewBox="0 0 24 24" width="24" height="24"><defs><style>.a{fill:none;stroke:#000;stroke-linecap:round;stroke-linejoin:round;stroke-width:1.5px}</style></defs><title>smart-watch-circle-ringing</title><path class="a" d="M13.782 14.475A6.747 6.747 0 1 1 9.43 5.53M3 6.97V2.25A1.5 1.5 0 0 1 4.5.75H9"/><path class="a" d="M12 17.031v4.719a1.5 1.5 0 0 1-1.5 1.5h-6a1.5 1.5 0 0 1-1.5-1.5v-4.719M14.25 6.37v3.38a1.5 1.5 0 0 1-1.5 1.5H12a1.5 1.5 0 0 1-1.5-1.5V9.1a1.5 1.5 0 0 1 .728-1.286A9.969 9.969 0 0 1 16.875 6a10.031 10.031 0 0 1 5.647 1.813A1.5 1.5 0 0 1 23.25 9.1v.65a1.5 1.5 0 0 1-1.5 1.5H21a1.5 1.5 0 0 1-1.5-1.5V6.38M17.25 3V.75m3.75 3l1.5-1.5m-9 1.5L12 2.25"/></svg>