<svg xmlns="http://www.w3.org/2000/svg" viewBox="0 0 24 24" width="24" height="24"><defs><style>.a{fill:none;stroke:#000;stroke-linecap:round;stroke-linejoin:round;stroke-width:1.5px}</style></defs><title>smart-watch-square-ringing</title><rect class="a" x="3.75" y="3.75" width="16.5" height="16.5" rx="3" ry="3"/><path class="a" d="M17.25 3.75H6.75v-1.5a1.5 1.5 0 0 1 1.5-1.5h7.5a1.5 1.5 0 0 1 1.5 1.5zm-1.5 19.5h-7.5a1.5 1.5 0 0 1-1.5-1.5v-1.5h10.5v1.5a1.5 1.5 0 0 1-1.5 1.5zM9.838 12.422V15.2A1.235 1.235 0 0 1 8.6 16.432h-.615A1.235 1.235 0 0 1 6.75 15.2v-.536a1.235 1.235 0 0 1 .6-1.059A8.353 8.353 0 0 1 12 12.109a8.285 8.285 0 0 1 4.65 1.491 1.235 1.235 0 0 1 .6 1.059v.541a1.235 1.235 0 0 1-1.235 1.235H15.4a1.235 1.235 0 0 1-1.238-1.235v-2.771M12 9V6.75m3 3l.75-1.5M9 9.75l-.75-1.5"/></svg>