<svg xmlns="http://www.w3.org/2000/svg" viewBox="0 0 24 24" width="24" height="24"><defs><style>.a{fill:none;stroke:#000;stroke-linecap:round;stroke-linejoin:round;stroke-width:1.5px}</style></defs><title>smart-house-phone</title><path class="a" d="M12.75 23.25l-2.764-3.11a1.557 1.557 0 1 1 2.327-2.069l1.937 2.179v-9a1.5 1.5 0 0 1 3 0V18h1.5a4.5 4.5 0 0 1 4.5 4.5v.75"/><path class="a" d="M9 23.25H3.75a3 3 0 0 1-3-3V3.75a3 3 0 0 1 3-3h9a3 3 0 0 1 3 3v3m-15 12h6"/><path class="a" d="M11.25 7v5.75h-6V7"/><path class="a" d="M3.75 8.25l4.5-3.75 4.5 3.75"/></svg>