<svg xmlns="http://www.w3.org/2000/svg" viewBox="0 0 24 24" width="24" height="24"><defs><style>.a{fill:none;stroke:#000;stroke-linecap:round;stroke-linejoin:round;stroke-width:1.5px}</style></defs><title>smart-watch-circle-microphone</title><path class="a" d="M13.878 17.031v4.719a1.5 1.5 0 0 1-1.5 1.5h-6a1.5 1.5 0 0 1-1.5-1.5v-4.719m0-10.062V2.25a1.5 1.5 0 0 1 1.5-1.5h6m5.246 6a2.25 2.25 0 0 1-2.25-2.25V3a2.25 2.25 0 0 1 2.25-2.25A2.25 2.25 0 0 1 19.874 3v1.5a2.25 2.25 0 0 1-2.25 2.25zm3.75 1.424a5.232 5.232 0 0 1-3.75 1.576 5.234 5.234 0 0 1-3.746-1.571m3.746 1.571V12m-2.197 3a6.748 6.748 0 1 1-3.48-9.244"/></svg>