<svg xmlns="http://www.w3.org/2000/svg" viewBox="0 0 24 24" width="24" height="24"><defs><style>.a{fill:none;stroke:#000;stroke-linecap:round;stroke-linejoin:round;stroke-width:1.5px}</style></defs><title>smart-watch-circle-sound</title><path class="a" d="M4.124 6.969V2.25a1.5 1.5 0 0 1 1.5-1.5h6m1.5 16.28v4.72a1.5 1.5 0 0 1-1.5 1.5h-6a1.5 1.5 0 0 1-1.5-1.5v-4.719M14.624 3h-1.5a1.5 1.5 0 0 0-1.5 1.5V6a1.5 1.5 0 0 0 1.5 1.5h1.5l3 2.25v-9zm6.798-.75a6.761 6.761 0 0 1 0 6M15.374 12a6.75 6.75 0 1 1-6.75-6.75"/></svg>