<svg xmlns="http://www.w3.org/2000/svg" viewBox="0 0 24 24" width="24" height="24"><g fill="none" stroke="#000" stroke-linejoin="round" stroke-miterlimit="10"><path stroke-linecap="round" d="M18.5 7.531V21.5a2 2 0 01-2 2h-11a2 2 0 01-2-2v-19a2 2 0 012-2h11a2 2 0 012 2v1m-1 1h-14m15 15h-15m5-17h5"/><path d="M11.5 21.5a.5.5 0 01-.5.5h0a.5.5 0 01-.5-.5h0a.5.5 0 01.5-.5h0a.5.5 0 01.5.5h0z"/><path stroke-linecap="round" d="M12 14l-3 1 1-3L20 2a1.415 1.415 0 012 2L12 14zm-2-2l2 2"/></g><path fill="none" d="M0 0h24v24H0z"/></svg>