<svg xmlns="http://www.w3.org/2000/svg" viewBox="0 0 24 24" width="24" height="24"><defs><style>.a{fill:none;stroke:#000;stroke-linecap:round;stroke-linejoin:round;stroke-width:1.5px}</style></defs><title>smart-watch-circle-power</title><path class="a" d="M12 17.031v4.719a1.5 1.5 0 0 1-1.5 1.5h-6a1.5 1.5 0 0 1-1.5-1.5v-4.719M17.25.75v5.143m4.243-2.636a6 6 0 1 1-8.486 0M10.5.75h-6A1.5 1.5 0 0 0 3 2.25v4.719"/><path class="a" d="M8.519 5.353A6.714 6.714 0 0 0 7.5 5.25a6.75 6.75 0 1 0 5.724 10.291"/></svg>