<svg xmlns="http://www.w3.org/2000/svg" viewBox="0 0 24 24" width="24" height="24"><defs><style>.a{fill:none;stroke:#000;stroke-linecap:round;stroke-linejoin:round;stroke-width:1.5px}</style></defs><title>smart-watch-circle-bell</title><path class="a" d="M15.049 15A6.751 6.751 0 1 1 9 5.25M4.5 6.969V2.25A1.5 1.5 0 0 1 6 .75h4.5"/><path class="a" d="M13.5 17.03v4.72a1.5 1.5 0 0 1-1.5 1.5H6a1.5 1.5 0 0 1-1.5-1.5v-4.72M16.5.75a3.75 3.75 0 0 1 3.75 3.75v3a1.5 1.5 0 0 0 1.5 1.5h-10.5a1.5 1.5 0 0 0 1.5-1.5v-3A3.75 3.75 0 0 1 16.5.75zm0 10.5a.375.375 0 1 0 .375.375.375.375 0 0 0-.375-.375"/></svg>