<svg xmlns="http://www.w3.org/2000/svg" viewBox="0 0 24 24" width="24" height="24"><defs><style>.a{fill:none;stroke:#000;stroke-linecap:round;stroke-linejoin:round;stroke-width:1.5px}</style></defs><title>smart-watch-square-data</title><rect class="a" x="3.75" y="3.75" width="16.5" height="16.5" rx="3" ry="3"/><path class="a" d="M17.25 3.75H6.75v-1.5a1.5 1.5 0 0 1 1.5-1.5h7.5a1.5 1.5 0 0 1 1.5 1.5zm-1.5 19.5h-7.5a1.5 1.5 0 0 1-1.5-1.5v-1.5h10.5v1.5a1.5 1.5 0 0 1-1.5 1.5zm-9-13.5L9 7.5l2.25 2.25M9 7.5v8.25m8.25-1.5L15 16.5l-2.25-2.25M15 16.5V8.25"/></svg>