<svg xmlns="http://www.w3.org/2000/svg" viewBox="0 0 24 24" width="24" height="24"><defs><style>.a{fill:none;stroke:#000;stroke-linecap:round;stroke-linejoin:round;stroke-width:1.5px}</style></defs><title>smart-watch-circle-dumbbell</title><path class="a" d="M15.69 15a6.751 6.751 0 1 1-6.658-9.723M5.141 6.97V2.25a1.5 1.5 0 0 1 1.5-1.5h4.5"/><path class="a" d="M14.141 17.031v4.719a1.5 1.5 0 0 1-1.5 1.5h-6a1.5 1.5 0 0 1-1.5-1.5v-4.719m9.402-9.697l3.182-3.182"/><rect class="a" x="17.286" y=".841" width="3" height="4.5" rx=".75" ry=".75" transform="rotate(-44.996 18.786 3.09)"/><rect class="a" x="11.982" y="6.144" width="3" height="4.5" rx=".75" ry=".75" transform="rotate(-45 13.482 8.395)"/><path class="a" d="M19.846 2.03L20.907.97m-8.485 8.485l-1.061 1.061"/></svg>