<svg xmlns="http://www.w3.org/2000/svg" viewBox="0 0 24 24" width="24" height="24"><defs><style>.a{fill:none;stroke:#000;stroke-linecap:round;stroke-linejoin:round;stroke-width:1.5px}</style></defs><title>smart-watch-square-app</title><rect class="a" x="4.5" y="5.25" width="15" height="13.5" rx="1.5" ry="1.5"/><path class="a" d="M16.5 5.25h-9L8.041 2A1.5 1.5 0 0 1 9.521.75h4.958A1.5 1.5 0 0 1 15.959 2zm-9 13.5h9L15.959 22a1.5 1.5 0 0 1-1.48 1.253H9.521A1.5 1.5 0 0 1 8.041 22zm4.5-7.875a.75.75 0 1 1-.75.75.75.75 0 0 1 .75-.75m-1.875-2.25A.375.375 0 1 1 9.75 9a.375.375 0 0 1 .375-.375m-1.5 3A.375.375 0 1 1 8.25 12a.375.375 0 0 1 .375-.375m6.75 0A.375.375 0 1 1 15 12a.375.375 0 0 1 .375-.375m-1.5-3A.375.375 0 1 1 13.5 9a.375.375 0 0 1 .375-.375m-3.75 6A.375.375 0 1 1 9.75 15a.375.375 0 0 1 .375-.375m3.75 0A.375.375 0 1 1 13.5 15a.375.375 0 0 1 .375-.375"/></svg>