<svg xmlns="http://www.w3.org/2000/svg" viewBox="0 0 24 24" width="24" height="24"><g fill="none" stroke="#000" stroke-linejoin="round" stroke-miterlimit="10"><path d="M19.5 16.5a2 2 0 01-2 2h-11a2 2 0 01-2-2v-9a2 2 0 012-2h11a2 2 0 012 2v9zm-3-13h-9l-1 2h11zm-9-3h9v3h-9zm0 20h9l1-2h-11zm0 0h9v3h-9z"/><g stroke-linecap="round"><path d="M15.5 13.5a.99.99 0 01-1 1h-5a.99.99 0 01-1-1v-3c0-.561.439-1 1-1h5a.99.99 0 011 1v3z"/><path d="M15.23 9.812L12 12.5 8.77 9.812"/></g></g><path fill="none" d="M0 0h24v24H0z"/></svg>