<svg xmlns="http://www.w3.org/2000/svg" viewBox="0 0 24 24" width="24" height="24"><defs><style>.a{fill:none;stroke:#000;stroke-linecap:round;stroke-linejoin:round;stroke-width:1.5px}</style></defs><title>smiley-oops</title><path class="a" d="M5.228 3.016a11.252 11.252 0 0 1 13.544 0m4.2 6.484a11.25 11.25 0 1 1-21.944 0m8.722 9.25h4.5M10.5 13.5L9.75 15m3.75-1.5l.75 1.5M7.125 6.75a.375.375 0 1 1-.375.375.375.375 0 0 1 .375-.375"/><circle class="a" cx="5.625" cy="7.875" r="4.875"/><path class="a" d="M19.875 6.75a.375.375 0 1 1-.375.375.375.375 0 0 1 .375-.375"/><circle class="a" cx="18.375" cy="7.875" r="4.875"/></svg>