<svg xmlns="http://www.w3.org/2000/svg" viewBox="0 0 24 24" width="24" height="24"><defs><style>.a{fill:none;stroke:#000;stroke-linecap:round;stroke-linejoin:round;stroke-width:1.5px}</style></defs><title>smiley-fever</title><path class="a" d="M21.721 17.666A11.25 11.25 0 1 1 21.6 6.127M7.768 9.143a.375.375 0 0 1 .375.375m0 0a.375.375 0 1 1-.375-.375"/><path class="a" d="M16.5 9.143a.375.375 0 1 1-.375.375.375.375 0 0 1 .375-.375M18.048 18a6.752 6.752 0 0 0-12.1 0m3.32-11.916a3.542 3.542 0 0 0-2.335.291A3.544 3.544 0 0 0 5.25 8.018M15 6.084a3.689 3.689 0 0 1 4.018 1.934"/><path class="a" d="M17.673 17.342l5.138-5.142a1.5 1.5 0 0 0 0-2.121 1.5 1.5 0 0 0-2.122 0l-5.161 5.161m3.04-3.036l2.121 2.121"/></svg>