<svg xmlns="http://www.w3.org/2000/svg" viewBox="0 0 24 24" width="24" height="24"><defs><style>.a{fill:none;stroke:#000;stroke-linecap:round;stroke-linejoin:round;stroke-width:1.5px}</style></defs><title>smiley-sick</title><path class="a" d="M23.25 18.353a3.4 3.4 0 0 0-3.4-3.4 3.349 3.349 0 0 0-2.264.876c-2.558 2.322-2.765-2.332-4.045-2.332a.971.971 0 0 0-.971.971 7.28 7.28 0 0 0 7.28 7.279 3.4 3.4 0 0 0 3.4-3.394z"/><path class="a" d="M14.277 23.019A11.251 11.251 0 1 1 23.25 12q0 .422-.031.835"/><path class="a" d="M9.95 14.743a4.507 4.507 0 0 0-2.359 3.1.759.759 0 0 0 .744.9H10.5M6 8.947a1.8 1.8 0 0 0 3 0m6 0a1.8 1.8 0 0 0 3 0"/></svg>