<svg xmlns="http://www.w3.org/2000/svg" viewBox="0 0 24 24" width="24" height="24"><g fill="none" stroke="#000" stroke-linejoin="round" stroke-miterlimit="10"><path stroke-linecap="round" d="M19.5 13.5c0 3.643-3.358 7-7.5 7-4.143 0-7.5-3.357-7.5-7h15z"/><circle stroke-linecap="round" cx="12" cy="12" r="11.5"/><path stroke-linecap="round" d="M4.5 9.5a1 1 0 001 1h4a1 1 0 001-1v-2a1 1 0 00-1-1h-4a1 1 0 00-1 1v2zm9 0a1 1 0 001 1h4a1 1 0 001-1v-2a1 1 0 00-1-1h-4a1 1 0 00-1 1v2z"/><path d="M10.5 8.5h3"/></g><path fill="none" d="M0 0h24v24H0z"/></svg>