<svg xmlns="http://www.w3.org/2000/svg" viewBox="0 0 24 24" width="24" height="24"><g fill="none" stroke="#000" stroke-linecap="round" stroke-linejoin="round" stroke-miterlimit="10"><path d="M6.083 10.602a1.39 1.39 0 102.781 0c0-.768-.623-1.393-1.39-1.393a1.39 1.39 0 111.39-1.391m-1.39 4.174v.926m0-7.418v.928m7.609 4.174a1.39 1.39 0 102.781 0c0-.768-.623-1.393-1.39-1.393a1.39 1.39 0 111.39-1.391m-1.39 4.174v.926m0-7.418v.928"/><circle cx="12" cy="12" r="11.5"/><path d="M18.5 15c-2.855 5.08-10.378 4.881-13 .016"/></g><path fill="none" d="M0 0h24v24H0z"/></svg>