<svg xmlns="http://www.w3.org/2000/svg" viewBox="0 0 24 24" width="24" height="24"><defs><style>.a{fill:none;stroke:#000;stroke-linecap:round;stroke-linejoin:round;stroke-width:1.5px}</style></defs><title>smiley-drool-1</title><path class="a" d="M7.773 9.75a.375.375 0 1 1-.375.375.375.375 0 0 1 .375-.375m8.733 0a.375.375 0 1 1-.375.375.375.375 0 0 1 .375-.375M9.273 6.691a3.54 3.54 0 0 0-2.334.291 3.544 3.544 0 0 0-1.683 1.643m9.75-1.934a3.687 3.687 0 0 1 4.017 1.934M10.908 23.2a11.251 11.251 0 1 1 8.265-2.531"/><path class="a" d="M16.355 18.75a.808.808 0 0 0 .883-.9 5.2 5.2 0 0 0-5.232-3.6 5.2 5.2 0 0 0-5.232 3.6.807.807 0 0 0 .883.9 12.984 12.984 0 0 1 8.698 0z"/><path class="a" d="M16.506 18.739v3.011a1.5 1.5 0 0 1-1.5 1.5 1.5 1.5 0 0 1-1.5-1.5v-3.661"/></svg>