<svg xmlns="http://www.w3.org/2000/svg" viewBox="0 0 24 24" width="24" height="24"><defs><style>.a{fill:none;stroke:#000;stroke-linecap:round;stroke-linejoin:round;stroke-width:1.5px}</style></defs><title>smiley-head-patch</title><path class="a" d="M12 .75A11.25 11.25 0 1 1 .75 12m7.018-1.5a.375.375 0 1 1-.375.375.375.375 0 0 1 .375-.375"/><path class="a" d="M16.5 10.5a.375.375 0 1 1-.375.375.375.375 0 0 1 .375-.375m1.548 7.5a6.752 6.752 0 0 0-12.1 0m12.886-9.834a3.689 3.689 0 0 1-4.018-1.934"/><rect class="a" x=".242" y="3.202" width="10.654" height="4.735" rx="1.5" ry="1.5" transform="rotate(-45 5.57 5.57)"/><path class="a" d="M4.5 6.75L6.75 4.5"/></svg>