<svg xmlns="http://www.w3.org/2000/svg" viewBox="0 0 24 24" width="24" height="24"><defs><style>.a{fill:none;stroke:#000;stroke-linecap:round;stroke-linejoin:round;stroke-width:1.5px}</style></defs><title>smiley-disapointed-2</title><circle class="a" cx="12" cy="12" r="11.25"/><path class="a" d="M10.5 10.5L9.75 12m3.75-1.5l.75 1.5M7.018 9.143a.375.375 0 1 1-.375.375.375.375 0 0 1 .375-.375m9.964 0a.375.375 0 1 1-.375.375.375.375 0 0 1 .375-.375m-1.317 9.607a.76.76 0 0 0 .744-.9 4.5 4.5 0 0 0-8.818 0 .759.759 0 0 0 .744.9 9.33 9.33 0 0 1 7.33 0zM8.518 6.084a3.542 3.542 0 0 0-2.335.291A3.544 3.544 0 0 0 4.5 8.018m10.982-1.934A3.689 3.689 0 0 1 19.5 8.018"/></svg>