<svg xmlns="http://www.w3.org/2000/svg" viewBox="0 0 24 24" width="24" height="24"><g fill="none" stroke="#000" stroke-linejoin="round" stroke-miterlimit="10"><path stroke-linecap="round" d="M11 19.5c2.513 0 4.845-1.398 6.205-3.295"/><circle stroke-linecap="round" cx="12" cy="12" r="11.5"/><path stroke-linecap="round" d="M18 17l-2-2"/><path d="M10.5 9.5A3.5 3.5 0 007 13a3.5 3.5 0 00-3.5-3.5A3.5 3.5 0 007 6a3.5 3.5 0 003.5 3.5zm10 0A3.5 3.5 0 0017 13a3.5 3.5 0 00-3.5-3.5A3.5 3.5 0 0017 6a3.5 3.5 0 003.5 3.5z"/></g><path fill="none" d="M0 0h24v24H0z"/></svg>