<svg xmlns="http://www.w3.org/2000/svg" viewBox="0 0 24 24" width="24" height="24"><g fill="none" stroke="#000" stroke-linejoin="round" stroke-miterlimit="10"><circle stroke-linecap="round" cx="12" cy="12" r="11.5"/><path d="M7.468 11.25s3-2.16 3-3.76c0-1.846-2.455-2.43-3-.184-.544-2.246-3-1.662-3 .184 0 1.6 3 3.76 3 3.76zm9 0s3-2.16 3-3.76c0-1.846-2.455-2.43-3-.184-.544-2.246-3-1.662-3 .184 0 1.6 3 3.76 3 3.76z"/><path stroke-linecap="round" d="M18.5 15c-1.293 2.301-3.708 3.73-6.471 3.73-2.807 0-5.252-1.346-6.529-3.715"/></g><path fill="none" d="M0 0h24v24H0z"/></svg>