<svg xmlns="http://www.w3.org/2000/svg" viewBox="0 0 24 24" width="24" height="24"><defs><style>.a{fill:none;stroke:#000;stroke-linecap:round;stroke-linejoin:round;stroke-width:1.5px}</style></defs><title>smiley-rage</title><path class="a" d="M3.685 17.894a1.4 1.4 0 1 0-1.261 2.469 1.39 1.39 0 1 0 1.963 1.963 1.4 1.4 0 1 0 2.469-1.261l3.194-5.475a.651.651 0 0 0-.89-.89zM1.177 15.08a11.25 11.25 0 1 1 21.688-.151M14.37 23a11.365 11.365 0 0 1-4.76 0M6 11.2a1.8 1.8 0 0 0 3 0m6 0a1.8 1.8 0 0 0 3 0M9 8.25l-3.75-1.5M15 8.25l3.75-1.5"/><path class="a" d="M20.315 17.894a1.386 1.386 0 0 1 .785-.242 1.4 1.4 0 0 1 .476 2.711 1.39 1.39 0 1 1-1.963 1.963 1.4 1.4 0 1 1-2.47-1.261L13.95 15.59a.651.651 0 0 1 .89-.89z"/></svg>