<svg xmlns="http://www.w3.org/2000/svg" viewBox="0 0 24 24" width="24" height="24"><defs><style>.a{fill:none;stroke:#000;stroke-linecap:round;stroke-linejoin:round;stroke-width:1.5px}</style></defs><title>smiley-lol</title><path class="a" d="M6.505 14.25c.521 3 2.791 5.25 5.513 5.25s4.991-2.255 5.512-5.25a23.481 23.481 0 0 1-11.025 0zM18.511 9a2.25 2.25 0 0 0-4.243 0m-4.5 0a2.25 2.25 0 0 0-4.243 0m17.326 0A11.237 11.237 0 0 0 1.185 9m.522 7.5a11.25 11.25 0 0 0 20.622 0m.555-4.366a1.25 1.25 0 1 1-1.768 1.766 8.277 8.277 0 0 1-.884-2.652 8.269 8.269 0 0 1 2.652.886zm-21.768 0A1.25 1.25 0 1 0 2.884 13.9a8.277 8.277 0 0 0 .884-2.652 8.269 8.269 0 0 0-2.652.886z"/></svg>