<svg xmlns="http://www.w3.org/2000/svg" viewBox="0 0 24 24" width="24" height="24"><defs><style>.a{fill:none;stroke:#000;stroke-linecap:round;stroke-linejoin:round;stroke-width:1.5px}</style></defs><title>smiley-tongue-sticking</title><circle class="a" cx="12" cy="12" r="11.25"/><path class="a" d="M6.75 15.75h10.5M6.75 7.5H9m-2.25 3H9m6-3h2.25m-2.25 3h2.25m-4.5 5.25V18a1.5 1.5 0 0 0 1.5 1.5 1.5 1.5 0 0 0 1.5-1.5v-2.25"/><circle class="a" cx="12" cy="12" r="11.25"/><path class="a" d="M6.75 15.75h10.5M6.75 7.5H9m-2.25 3H9m6-3h2.25m-2.25 3h2.25m-4.5 5.25V18a1.5 1.5 0 0 0 1.5 1.5 1.5 1.5 0 0 0 1.5-1.5v-2.25"/></svg>