<svg xmlns="http://www.w3.org/2000/svg" viewBox="0 0 24 24" width="24" height="24"><defs><style>.a{fill:none;stroke:#000;stroke-linecap:round;stroke-linejoin:round;stroke-width:1.5px}</style></defs><title>smiley-in-trouble</title><path class="a" d="M23.241 11.553q.009.222.009.447a11.24 11.24 0 1 1-6.72-10.3M18.048 18a6.752 6.752 0 0 0-12.1 0"/><path class="a" d="M8.25 8.625A.375.375 0 1 1 7.875 9a.375.375 0 0 1 .375-.375m7.5 0a.375.375 0 1 1-.375.375.375.375 0 0 1 .375-.375m7.5-2.875A2.384 2.384 0 0 1 21 8.25a2.384 2.384 0 0 1-2.25-2.5c0-1.381 2.25-5 2.25-5s2.25 3.619 2.25 5z"/></svg>