<svg xmlns="http://www.w3.org/2000/svg" viewBox="0 0 24 24" width="24" height="24"><defs><style>.a{fill:none;stroke:#000;stroke-linecap:round;stroke-linejoin:round;stroke-width:1.5px}</style></defs><title>smiley-sad-crying_1</title><path class="a" d="M8.25 10.5a.375.375 0 1 1-.375.375.375.375 0 0 1 .375-.375m7.5 0a.375.375 0 1 1-.375.375.375.375 0 0 1 .375-.375m2.566 10.811A11.25 11.25 0 1 1 22.6 8.234"/><path class="a" d="M15.728 18.75a.764.764 0 0 0 .757-.9 4.595 4.595 0 0 0-8.97 0 .764.764 0 0 0 .757.9 9.64 9.64 0 0 1 7.456 0zM5.25 8.166a3.539 3.539 0 0 0 2.334-.291 3.542 3.542 0 0 0 1.684-1.643m9.566 1.934a3.689 3.689 0 0 1-4.018-1.934M23.25 16.25a2.384 2.384 0 0 1-2.25 2.5 2.384 2.384 0 0 1-2.25-2.5c0-1.381 2.25-5 2.25-5s2.25 3.619 2.25 5z"/></svg>