<svg xmlns="http://www.w3.org/2000/svg" viewBox="0 0 24 24" width="24" height="24"><defs><style>.a{fill:none;stroke:#000;stroke-linecap:round;stroke-linejoin:round;stroke-width:1.5px}</style></defs><title>smiley-shout</title><rect class="a" x="10.5" y="15.75" width="3" height="4.5" rx="1.5" ry="1.5"/><path class="a" d="M7.5 9.375A.375.375 0 1 1 7.875 9a.375.375 0 0 1-.375.375m9 0A.375.375 0 1 1 16.875 9a.375.375 0 0 1-.375.375M6 6.053a1.8 1.8 0 0 1 3 0m6 0a1.8 1.8 0 0 1 3 0"/><circle class="a" cx="12" cy="12" r="11.25"/><path class="a" d="M9.75 12.75h.75m3 0h.75"/></svg>