<svg xmlns="http://www.w3.org/2000/svg" viewBox="0 0 24 24" width="24" height="24"><defs><style>.a{fill:none;stroke:#000;stroke-linecap:round;stroke-linejoin:round;stroke-width:1.5px}</style></defs><title>smiley-nose-blow-1</title><path class="a" d="M8.6 12.824a1.237 1.237 0 0 0-.947.44c-.722.855-2.488 2.666-4.524 2.736A2.378 2.378 0 0 0 .76 18.05a2.267 2.267 0 0 0 2.256 2.48 1.361 1.361 0 0 0-1.324 1.675A1.406 1.406 0 0 0 3.1 23.249c4.254-.064 6.227-5.038 6.641-9.16A1.151 1.151 0 0 0 8.6 12.824zM3.016 20.53a3.915 3.915 0 0 0 1.659-.4"/><path class="a" d="M.832 13.368A11.434 11.434 0 0 1 .75 12a11.238 11.238 0 1 1 8.918 11.008"/><path class="a" d="M6.75 6.75l3 3H6m11.25-3l-3 3H18m-8.356 5.145L12 17.25 14.25 15l2.25 2.25"/></svg>