<svg xmlns="http://www.w3.org/2000/svg" viewBox="0 0 24 24" width="24" height="24"><defs><style>.a{fill:none;stroke:#000;stroke-linecap:round;stroke-linejoin:round;stroke-width:1.5px}</style></defs><title>smiley-crying-rainbow</title><path class="a" d="M18.475 9a2.25 2.25 0 0 0-4.243 0m-4.5 0a2.25 2.25 0 0 0-4.243 0"/><rect class="a" x="10.5" y="14.25" width="3" height="4.5" rx="1.5" ry="1.5"/><path class="a" d="M4.5 12.75v7.5a2.25 2.25 0 0 0-2.25 2.25.75.75 0 0 0 .75.75h6a.75.75 0 0 0 .75-.75 2.25 2.25 0 0 0-2.25-2.25v-7.5m9 0v7.5a2.25 2.25 0 0 0-2.25 2.25.75.75 0 0 0 .75.75h6a.75.75 0 0 0 .75-.75 2.25 2.25 0 0 0-2.25-2.25v-7.5m3.1 3a11.251 11.251 0 1 0-21.193 0"/></svg>