<svg xmlns="http://www.w3.org/2000/svg" viewBox="0 0 24 24" width="24" height="24"><defs><style>.a{fill:none;stroke:#000;stroke-linecap:round;stroke-linejoin:round;stroke-width:1.5px}</style></defs><title>smiley-shine</title><circle class="a" cx="12" cy="12" r="11.25"/><path class="a" d="M18.366 14.25a.75.75 0 0 1 .707 1 7.5 7.5 0 0 1-14.146 0 .75.75 0 0 1 .707-1zM7.5 6a8.718 8.718 0 0 1-2.25 2.625A8.718 8.718 0 0 1 7.5 11.25a8.718 8.718 0 0 1 2.25-2.625A8.718 8.718 0 0 1 7.5 6m9 0a8.718 8.718 0 0 1-2.25 2.625 8.718 8.718 0 0 1 2.25 2.625 8.718 8.718 0 0 1 2.25-2.625A8.718 8.718 0 0 1 16.5 6"/></svg>