<svg xmlns="http://www.w3.org/2000/svg" viewBox="0 0 24 24" width="24" height="24"><defs><style>.a{fill:none;stroke:#000;stroke-linecap:round;stroke-linejoin:round;stroke-width:1.5px}</style></defs><title>smiley-lol-sideways</title><path class="a" d="M9.69 17.486c2.487 1.75 5.686 1.739 7.611-.185s1.935-5.124.185-7.611a23.471 23.471 0 0 1-7.796 7.796zm-5.105-5.501h4.243l-2.652 2.651M12.01 4.56v4.243l2.651-2.652m2.875-3.935a11.237 11.237 0 0 0-15.32 15.32m5.672 4.934A11.25 11.25 0 0 0 22.47 7.888M19.8 4.383a1.25 1.25 0 0 1 0 2.5 8.256 8.256 0 0 1-2.5-1.25 8.256 8.256 0 0 1 2.5-1.25zM4.383 19.8a1.25 1.25 0 0 0 2.5 0 8.256 8.256 0 0 0-1.25-2.5 8.256 8.256 0 0 0-1.25 2.5z"/></svg>