<svg xmlns="http://www.w3.org/2000/svg" viewBox="0 0 24 24" width="24" height="24"><defs><style>.a{fill:none;stroke:#000;stroke-linecap:round;stroke-linejoin:round;stroke-width:1.5px}</style></defs><title>smiley-crazy</title><path class="a" d="M6.756 21.956a11.25 11.25 0 1 1 10.494 0m-9-14.081a.375.375 0 1 1-.375.375.375.375 0 0 1 .375-.375"/><circle class="a" cx="8.25" cy="8.25" r="3"/><path class="a" d="M18.493 9a2.25 2.25 0 0 0-4.243 0M15 19.626a7.522 7.522 0 0 0 4.35-5.376H4.65A7.522 7.522 0 0 0 9 19.626"/><path class="a" d="M12 23.25a3 3 0 0 1-3-3v-1.5a1.5 1.5 0 0 1 1.5-1.5h3a1.5 1.5 0 0 1 1.5 1.5v1.5a3 3 0 0 1-3 3z"/></svg>