<svg xmlns="http://www.w3.org/2000/svg" viewBox="0 0 24 24" width="24" height="24"><defs><style>.a{fill:none;stroke:#000;stroke-linecap:round;stroke-linejoin:round;stroke-width:1.5px}</style></defs><title>smiley-surprised-1</title><circle class="a" cx="12" cy="12" r="11.25"/><path class="a" d="M7.125 9a.375.375 0 1 1-.375.375A.375.375 0 0 1 7.125 9m9.75 0a.375.375 0 1 1-.375.375.375.375 0 0 1 .375-.375M10.5 10.5L9.75 12m3.75-1.5l.75 1.5m1.415 7.5a.76.76 0 0 0 .744-.9 4.5 4.5 0 0 0-8.818 0 .759.759 0 0 0 .744.9 9.33 9.33 0 0 1 7.33 0z"/></svg>