<svg xmlns="http://www.w3.org/2000/svg" viewBox="0 0 24 24" width="24" height="24"><defs><style>.a{fill:none;stroke:#000;stroke-linecap:round;stroke-linejoin:round;stroke-width:1.5px}</style></defs><title>smiley-hypnotized</title><circle class="a" cx="12" cy="12" r="11.25"/><path class="a" d="M7.5 11.625a.375.375 0 1 1-.375.375.375.375 0 0 1 .375-.375"/><circle class="a" cx="7.5" cy="12" r="3"/><path class="a" d="M16.5 11.625a.375.375 0 1 1-.375.375.375.375 0 0 1 .375-.375"/><circle class="a" cx="16.5" cy="12" r="3"/><path class="a" d="M9.75 18h4.5M9.268 4.816a3.542 3.542 0 0 0-2.335.291A3.544 3.544 0 0 0 5.25 6.75M15 4.816a3.689 3.689 0 0 1 4.018 1.934"/></svg>