<svg xmlns="http://www.w3.org/2000/svg" viewBox="0 0 24 24" width="24" height="24"><defs><style>.a{fill:none;stroke:#000;stroke-linecap:round;stroke-linejoin:round;stroke-width:1.5px}</style></defs><title>smiley-shine-big-eyes</title><path class="a" d="M1 9.64a11.25 11.25 0 1 0 22-.008M15.475 1.3a11.309 11.309 0 0 0-6.975.006"/><path class="a" d="M18.366 14.25a.75.75 0 0 1 .707 1 7.5 7.5 0 0 1-14.146 0 .75.75 0 0 1 .707-1zM5.25.75A7.746 7.746 0 0 1 .75 6a7.742 7.742 0 0 1 4.5 5.25A7.742 7.742 0 0 1 9.75 6 7.746 7.746 0 0 1 5.25.75m13.5 0A7.746 7.746 0 0 1 14.25 6a7.742 7.742 0 0 1 4.5 5.25A7.742 7.742 0 0 1 23.25 6a7.746 7.746 0 0 1-4.5-5.25"/></svg>