<svg xmlns="http://www.w3.org/2000/svg" viewBox="0 0 24 24" width="24" height="24"><defs><style>.a{fill:none;stroke:#000;stroke-linecap:round;stroke-linejoin:round;stroke-width:1.5px}</style></defs><title>smiley-sad-nerd</title><circle class="a" cx="12" cy="12" r="11.25"/><path class="a" d="M18.048 18a6.752 6.752 0 0 0-12.1 0M9 7.125a.375.375 0 1 1-.375.375A.375.375 0 0 1 9 7.125m7.5 0a.375.375 0 1 1-.375.375.375.375 0 0 1 .375-.375"/><circle class="a" cx="8.25" cy="8.25" r="3.75"/><circle class="a" cx="15.75" cy="8.25" r="3.75"/><path class="a" d="M4.57 7.528L.75 6m18.68 1.528L23.25 6"/></svg>