<svg xmlns="http://www.w3.org/2000/svg" viewBox="0 0 24 24" width="24" height="24"><defs><style>.a{fill:none;stroke:#000;stroke-linecap:round;stroke-linejoin:round;stroke-width:1.5px}</style></defs><title>smiley-concerned</title><path class="a" d="M17.25 6.5l-1.095.657a2.41 2.41 0 0 1-1.238.343h-.667M12 18.75A6.75 6.75 0 0 1 18.048 15m-2.298-4.875a.375.375 0 1 1-.375.375.375.375 0 0 1 .375-.375m-8.25 0a.375.375 0 1 1-.375.375.375.375 0 0 1 .375-.375M6 7.553a1.8 1.8 0 0 1 3 0"/><circle class="a" cx="12" cy="12" r="11.25"/></svg>