<svg xmlns="http://www.w3.org/2000/svg" viewBox="0 0 24 24" width="24" height="24"><defs><style>.a{fill:none;stroke:#000;stroke-linecap:round;stroke-linejoin:round;stroke-width:1.5px}</style></defs><title>smiley-blushing</title><circle class="a" cx="12" cy="12" r="11.25"/><path class="a" d="M5.25 13.5l.75-.75m2.25.75l.75-.75m6 .75l.75-.75m2.25.75l.75-.75m-3 4.125a1.875 1.875 0 0 1-3.75 0 1.875 1.875 0 0 1-3.75 0m10.018-7.441A3.687 3.687 0 0 1 14.25 7.5M5.732 9.434a3.539 3.539 0 0 0 2.334-.291A3.542 3.542 0 0 0 9.75 7.5"/></svg>