<svg xmlns="http://www.w3.org/2000/svg" viewBox="0 0 24 24" width="24" height="24"><defs><style>.a{fill:none;stroke:#000;stroke-linecap:round;stroke-linejoin:round;stroke-width:1.5px}</style></defs><title>smiley-nauseous-1</title><circle class="a" cx="12" cy="12" r="11.25"/><path class="a" d="M16.5 10.5a.375.375 0 1 1-.375.375.375.375 0 0 1 .375-.375m-.922 5.749a6.791 6.791 0 0 0-7.149.122m10.405-8.205a3.689 3.689 0 0 1-4.018-1.934M7.5 10.5a.375.375 0 1 0 .375.375.375.375 0 0 0-.375-.375M5.166 8.166A3.54 3.54 0 0 0 7.5 7.875a3.539 3.539 0 0 0 1.683-1.643M7.5 14.25a3.181 3.181 0 0 1 0 4.5m9-4.5a3.181 3.181 0 0 0 0 4.5"/></svg>