<svg xmlns="http://www.w3.org/2000/svg" viewBox="0 0 24 24" width="24" height="24"><defs><style>.a{fill:none;stroke:#000;stroke-linecap:round;stroke-linejoin:round;stroke-width:1.5px}</style></defs><title>smiley-devastated-1</title><circle class="a" cx="12" cy="12" r="11.25"/><path class="a" d="M6 11.2a1.8 1.8 0 0 0 3 0m6 0a1.8 1.8 0 0 0 3 0m-2.244 7.7a.76.76 0 0 0 .744-.9 4.5 4.5 0 0 0-8.819 0 .76.76 0 0 0 .745.9 9.33 9.33 0 0 1 7.33 0zM5.25 8.166a3.539 3.539 0 0 0 2.334-.291 3.542 3.542 0 0 0 1.684-1.643m9.566 1.934a3.689 3.689 0 0 1-4.018-1.934"/></svg>