<svg xmlns="http://www.w3.org/2000/svg" viewBox="0 0 24 24" width="24" height="24"><defs><style>.a{fill:none;stroke:#000;stroke-linecap:round;stroke-linejoin:round;stroke-width:1.5px}</style></defs><title>smiley-decode</title><path class="a" d="M18.75 18.75h3v3h-3zm-9 3h-3m1.5 0v-3m4.5 3l1.5-3 1.5 3m-14.975-9a11.25 11.25 0 0 1 22.45 0"/><path class="a" d="M7.285 10.643a.375.375 0 1 1-.375.375.375.375 0 0 1 .375-.375m9.965 0a.375.375 0 1 1-.375.375.375.375 0 0 1 .375-.375M6 7.584a3.539 3.539 0 0 1 2.334.291 3.542 3.542 0 0 1 1.684 1.643m8.25-1.934a3.687 3.687 0 0 0-4.018 1.934M.75 15.75h22.5m-22.5 3l3 3m-3 0l3-3"/></svg>