<svg xmlns="http://www.w3.org/2000/svg" viewBox="0 0 24 24" width="24" height="24"><defs><style>.a{fill:none;stroke:#000;stroke-linecap:round;stroke-linejoin:round;stroke-width:1.5px}</style></defs><title>smiley-rich</title><circle class="a" cx="12" cy="12" r="11.25"/><path class="a" d="M18.048 15.75a6.752 6.752 0 0 1-12.1 0m.444-4.906a2.221 2.221 0 0 0 1.858.875c1.139 0 2.062-.693 2.062-1.547S9.389 8.626 8.25 8.626s-2.063-.693-2.063-1.548.924-1.547 2.063-1.547a2.223 2.223 0 0 1 1.858.875M8.25 11.719v1.031m0-8.25v1.031m5.642 5.313a2.221 2.221 0 0 0 1.858.875c1.139 0 2.062-.693 2.062-1.547s-.923-1.546-2.062-1.546-2.063-.693-2.063-1.548.924-1.547 2.063-1.547a2.223 2.223 0 0 1 1.858.875m-1.858 5.313v1.031m0-8.25v1.031"/></svg>