<svg xmlns="http://www.w3.org/2000/svg" viewBox="0 0 24 24" width="24" height="24"><defs><style>.a{fill:none;stroke:#000;stroke-linecap:round;stroke-linejoin:round;stroke-width:1.5px}</style></defs><title>smiley-explosion</title><path class="a" d="M7.5 6.75v2.184a3.059 3.059 0 0 1-1.155 2.4M16.5 6.75v2.184a3.059 3.059 0 0 0 1.155 2.4M13.5 8.25v1.043m-3-1.043v1.043"/><rect class="a" x="10.5" y="15.75" width="3" height="4.5" rx="1.5" ry="1.5"/><path class="a" d="M8.25 14.25a.375.375 0 1 1-.375.375.375.375 0 0 1 .375-.375m7.5 0a.375.375 0 1 1-.375.375.375.375 0 0 1 .375-.375"/><path class="a" d="M12 12a22.062 22.062 0 0 1-7.145-1.113 8.251 8.251 0 1 0 14.289 0A22.052 22.052 0 0 1 12 12zm8.4-7.5A2.663 2.663 0 0 0 17.6 2a2.989 2.989 0 0 0-1.687.517 5.216 5.216 0 0 0-7.826 0A2.989 2.989 0 0 0 6.4 2a2.663 2.663 0 0 0-2.8 2.5m0 0a2 2 0 0 0-2.1 1.875A2 2 0 0 0 3.6 8.25M20.4 4.5a2 2 0 0 1 2.1 1.875 2 2 0 0 1-2.1 1.875"/></svg>