<svg xmlns="http://www.w3.org/2000/svg" viewBox="0 0 24 24" width="24" height="24"><defs><style>.a{fill:none;stroke:#000;stroke-linecap:round;stroke-linejoin:round;stroke-width:1.5px}</style></defs><title>smiley-disapointed-mad</title><path class="a" d="M7.5 10.875a.375.375 0 1 1 .375-.375.375.375 0 0 1-.375.375m9 0a.375.375 0 1 1 .375-.375.375.375 0 0 1-.375.375M6 7.553a1.8 1.8 0 0 1 3 0m6 0a1.8 1.8 0 0 1 3 0"/><circle class="a" cx="12" cy="12" r="11.25"/><path class="a" d="M18.048 18a6.752 6.752 0 0 0-12.1 0"/></svg>