<svg xmlns="http://www.w3.org/2000/svg" viewBox="0 0 24 24" width="24" height="24"><defs><style>.a{fill:none;stroke:#000;stroke-linecap:round;stroke-linejoin:round;stroke-width:1.5px}</style></defs><title>smiley-drop</title><path class="a" d="M23.241 11.553q.009.222.009.447a11.24 11.24 0 1 1-6.72-10.3M18.048 18a6.752 6.752 0 0 0-12.1 0m12.545-7.5a2.25 2.25 0 0 0-4.243 0m-4.5 0a2.25 2.25 0 0 0-4.243 0"/><path class="a" d="M23.25 5.75A2.384 2.384 0 0 1 21 8.25a2.384 2.384 0 0 1-2.25-2.5c0-1.381 2.25-5 2.25-5s2.25 3.619 2.25 5z"/></svg>