<svg xmlns="http://www.w3.org/2000/svg" viewBox="0 0 24 24" width="24" height="24"><defs><style>.a{fill:none;stroke:#000;stroke-linecap:round;stroke-linejoin:round;stroke-width:1.5px}</style></defs><title>smiley-nose-blow</title><path class="a" d="M4.535 23.163a1.134 1.134 0 0 0 1.478-.6l3.657-8.358a.95.95 0 0 0-.2-1.053.856.856 0 0 0-1.025-.142l-7.11 3.98a1.141 1.141 0 0 0-.383 1.644A1.375 1.375 0 0 0 2 19.22a1.271 1.271 0 0 0 0 1.836 1.271 1.271 0 0 0 1.836 0s-.62 1.557.699 2.107z"/><path class="a" d="M.849 13.5A11.406 11.406 0 0 1 .75 12a11.238 11.238 0 1 1 9.1 11.044"/><path class="a" d="M6.75 6.75l3 3H6m11.25-3l-3 3H18m-8.547 4.953L12 17.25 14.25 15l2.25 2.25"/></svg>