<svg xmlns="http://www.w3.org/2000/svg" viewBox="0 0 24 24" width="24" height="24"><defs><style>.a{fill:none;stroke:#000;stroke-linecap:round;stroke-linejoin:round;stroke-width:1.5px}</style></defs><title>smiley-in-love</title><path class="a" d="M22.354 7.593a11.25 11.25 0 1 1-20.708 0M4.06 4.031a11.248 11.248 0 0 1 15.88 0M18.048 15a6.752 6.752 0 0 1-12.1 0"/><path class="a" d="M9.782 4.251a2.036 2.036 0 0 0-2.948 0L5.571 5.557 4.308 4.251a2.035 2.035 0 0 0-2.947 0 2.2 2.2 0 0 0 0 3.047l3.762 3.891a.62.62 0 0 0 .9 0L9.782 7.3a2.206 2.206 0 0 0 0-3.049zm12.857 0a2.035 2.035 0 0 0-2.947 0l-1.263 1.306-1.263-1.306a2.036 2.036 0 0 0-2.948 0 2.206 2.206 0 0 0 0 3.047l3.762 3.891a.62.62 0 0 0 .9 0L22.639 7.3a2.2 2.2 0 0 0 0-3.049z"/></svg>