<svg xmlns="http://www.w3.org/2000/svg" viewBox="0 0 24 24" width="24" height="24"><defs><style>.a{fill:none;stroke:#000;stroke-linecap:round;stroke-linejoin:round;stroke-width:1.5px}</style></defs><title>smiley-liar</title><path class="a" d="M20.8 19.028a11.248 11.248 0 1 1 2.083-9.945M7.778 9a.375.375 0 0 1 .375.375m-.753 0A.375.375 0 0 1 7.778 9m0 .75a.375.375 0 0 1-.378-.375m.753 0a.375.375 0 0 1-.375.375M16.51 9a.375.375 0 0 1 .375.375m-.75 0A.375.375 0 0 1 16.51 9m0 .75a.375.375 0 0 1-.375-.375m.75 0a.375.375 0 0 1-.375.375"/><path class="a" d="M9.278 5.941a3.539 3.539 0 0 0-2.334.291A3.542 3.542 0 0 0 5.26 7.875m9.75-1.934a3.689 3.689 0 0 1 4.018 1.934M12.76 12.75h8.98a1.5 1.5 0 0 1 1.5 1.5 1.5 1.5 0 0 1-1.5 1.5h-8.98M9.019 19.5a9.33 9.33 0 0 1 7.33 0"/></svg>