<svg xmlns="http://www.w3.org/2000/svg" viewBox="0 0 24 24" width="24" height="24"><defs><style>.a{fill:none;stroke:#000;stroke-linecap:round;stroke-linejoin:round;stroke-width:1.5px}</style></defs><title>smiley-look-one-eye</title><path class="a" d="M15.75 10.125a.375.375 0 1 0 .375.375.375.375 0 0 0-.375-.375"/><circle class="a" cx="15.75" cy="10.5" r="3"/><circle class="a" cx="12" cy="12" r="11.25"/><path class="a" d="M9.75 18h4.5m-7.5-6.75H9m5.25-5.95a1.8 1.8 0 0 1 3 0m-12 2.95a1.5 1.5 0 0 1 1.227-.75c.818 0 1.227.75 2.046.75A1.5 1.5 0 0 0 9.75 7.5"/></svg>