<svg xmlns="http://www.w3.org/2000/svg" viewBox="0 0 24 24" width="24" height="24"><defs><style>.a{fill:none;stroke:#000;stroke-linecap:round;stroke-linejoin:round;stroke-width:1.5px}</style></defs><title>smiley-nauseous</title><circle class="a" cx="12" cy="12" r="11.25"/><path class="a" d="M16.5 11.25a.375.375 0 1 1 .375-.375.375.375 0 0 1-.375.375m-1.177 4.85a6.794 6.794 0 0 0-6.442 0m-1.928-1.85a4.7 4.7 0 0 1 2.539 4.173m7.758-4.173a4.7 4.7 0 0 0-2.539 4.173m4.123-10.257a3.689 3.689 0 0 1-4.018-1.934M7.5 11.25a.375.375 0 1 0-.375-.375.375.375 0 0 0 .375.375M5.166 8.166A3.54 3.54 0 0 0 7.5 7.875a3.539 3.539 0 0 0 1.683-1.643"/></svg>