<svg id="Regular" xmlns="http://www.w3.org/2000/svg" viewBox="0 0 24 24" width="24" height="24"><defs><style>.cls-1{fill:none;stroke:#000;stroke-linecap:round;stroke-linejoin:round;stroke-width:1.5px}</style></defs><title>snail</title><path class="cls-1" d="M7.3 15.405A9.34 9.34 0 0 1 15.982 3a7.359 7.359 0 0 1 7.283 7.467 5.878 5.878 0 0 1-5.816 5.973 4.737 4.737 0 0 1-4.694-4.779 3.79 3.79 0 0 1 3.755-3.823 3.032 3.032 0 0 1 3 3.059"/><path class="cls-1" d="M6.815 12.186C6.852 8.667.76 7.556.76 12.338c0 3.75 1.5 7.5 6.75 7.5h15.75s-1.816-3.631-3.449-3.9M1.51 5.588l.939 3.756M5.26 5.588l-.912 3.649"/></svg>