<svg xmlns="http://www.w3.org/2000/svg" viewBox="0 0 24 24" width="24" height="24"><g fill="none" stroke="#000" stroke-linejoin="round" stroke-miterlimit="10"><path stroke-linecap="round" d="M9.5 12.501l13.336 4.764c.397.142.664.519.664.941v2.295H.5v-7a1 1 0 011-1h1c0 .829 1.756 1.5 3.5 1.5 2.209 0 3.5-.671 3.5-1.5z"/><path d="M.5 18.501h23"/><path stroke-linecap="round" d="M12.075 13.421L11 14.501m2.92-.421l-.92.921"/><path d="M17.5 15.358c0 .553-.448 1.143-1 1.143h-3a1.5 1.5 0 00-1.5 1.5v.5"/><path stroke-linecap="round" d="M3.5 18.501c0-1.656-1.344-3-3-3m14-4L1.163 6.737a.997.997 0 01-.663-.94V3.501h23v7a1 1 0 01-1 1h-1c0-.828-1.758-1.5-3.5-1.5-2.21 0-3.5.672-3.5 1.5z"/><path d="M23.5 5.501H.5"/><path stroke-linecap="round" d="M11.924 10.581L13 9.501m-2.922.421L11 9.001"/><path d="M6.5 8.644c0-.552.447-1.143 1-1.143h3a1.5 1.5 0 001.5-1.5v-.5"/><path stroke-linecap="round" d="M20.5 5.501a3 3 0 003 3"/></g><path fill="none" d="M0 0h24v24H0z"/></svg>