<svg xmlns="http://www.w3.org/2000/svg" viewBox="0 0 24 24" width="24" height="24"><g fill="none" stroke="#000" stroke-linecap="round" stroke-linejoin="round" stroke-miterlimit="10"><path d="M13 20.5h3c3.037 0 5.5-2.65 5.5-5.688V3.5m-2 8.5v2M1.498 12v2"/><circle cx="10.5" cy="20.5" r="2.5"/><path d="M21.5 1v1M19 13.812c0 1.38-1.118 2.688-2.498 2.688h-2.5c-1.934 0-3.502-1.755-3.502-3.688V8.5h4.002C16.986 8.5 19 10.326 19 12.812v1zm-17.002 0c0 1.38 1.121 2.688 2.502 2.688h2.502c1.933 0 3.498-1.755 3.498-3.688V8.5h-4c-2.486 0-4.502 1.826-4.502 4.312v1zM8 20.5H6"/></g><path fill="none" d="M0 0h24v24H0z"/></svg>