<svg xmlns="http://www.w3.org/2000/svg" viewBox="0 0 24 24" width="24" height="24"><g fill="none" stroke="#000" stroke-linejoin="round" stroke-miterlimit="10"><path d="M11.5 8V2m-2.237.9L11.5 4.244l2.223-1.357M11.5 17v6m-2.237-.9l2.237-1.344 2.223 1.357M6.992 12.493h-6m.901 2.236l1.343-2.236-1.357-2.222M16.007 12.5l5.985-.007m-.9 2.236l-1.344-2.236 1.357-2.222M8.502 9.498L4.073 5.069m-.945 2.219l2.532-.632.611-2.531M14.502 15.499l4.42 4.42m-2.219.945l.633-2.532 2.531-.611M8.491 15.491L4.062 19.92m2.219.944l-.632-2.531-2.531-.612M14.496 9.496l4.416-4.426m.944 2.218l-2.531-.631-.612-2.531" stroke-linecap="round"/><path d="M16 12.5l3-3h-4.5V5l-3 3-3-3v4.5H4l3 3-3 3h4.5V20l3-3 3 3v-4.5H19z"/></g><path fill="none" d="M0 0h24v24H0z"/></svg>