<svg xmlns="http://www.w3.org/2000/svg" viewBox="0 0 24 24" width="24" height="24"><path fill="none" stroke="#000" stroke-linecap="round" stroke-linejoin="round" stroke-miterlimit="10" d="M20.752 8.194c.916-2.109-.8-4.457-3.123-4.169A5.498 5.498 0 0012.5.5a5.5 5.5 0 00-5.477 5.024A5 5 0 007.5 15.5h11a3.999 3.999 0 002.252-7.306z"/><path d="M12.5 18a.5.5 0 100 1 .5.5 0 000-1zm6 1.5a.5.5 0 100 1 .5.5 0 000-1zm0 3a.5.5 0 100 1 .5.5 0 000-1zm-6-1.5a.5.5 0 100 1 .5.5 0 000-1zm4 0a.5.5 0 100 1 .5.5 0 000-1zm-2 1.5a.5.5 0 100 1 .5.5 0 000-1zm2-4.5a.5.5 0 100 1 .5.5 0 000-1zm-2 1.5a.5.5 0 100 1 .5.5 0 000-1zm-4 0a.5.5 0 100 1 .5.5 0 000-1zm0 3a.5.5 0 100 1 .5.5 0 000-1zm-2-1.5a.5.5 0 100 1 .5.5 0 000-1zm-2 1.5a.5.5 0 100 1 .5.5 0 000-1zm2-4.5a.5.5 0 100 1 .5.5 0 000-1zm-2 1.5a.5.5 0 100 1 .5.5 0 000-1z"/><path fill="none" d="M0 0h24v24H0z"/></svg>