<svg id="Regular" xmlns="http://www.w3.org/2000/svg" viewBox="0 0 24 24" width="24" height="24"><defs><style>.cls-1{fill:none;stroke:#000;stroke-linecap:round;stroke-linejoin:round;stroke-width:1.5px}</style></defs><title>soccer-goalkeeper-glove-1</title><path class="cls-1" d="M3.547 13.333L.909 16.064a.566.566 0 0 0 0 .78l6.033 6.244a.52.52 0 0 0 .754 0l2.681-2.774"/><path class="cls-1" d="M12.22 5.918l2.263-2.342a1.7 1.7 0 0 0 0-2.341 1.563 1.563 0 0 0-2.263 0L5.433 8.259c-1.915 1.982-2.341 3.417-1.886 5.074l6.411 6.634c1.508 1.561 4.442.52 6.787 0A40.693 40.693 0 0 0 20.9 18.8c1.131-.39 2.077-1.134 2-2.352a2.161 2.161 0 0 0-2.269-2.058l-3.5.505 5.648-5.855a1.7 1.7 0 0 0 0-2.342 1.564 1.564 0 0 0-2.263 0"/><path class="cls-1" d="M18.758 8.518l2.512-2.6a1.7 1.7 0 0 0 0-2.342 1.562 1.562 0 0 0-2.262 0l-.754.781a1.7 1.7 0 0 0 0-2.342 1.564 1.564 0 0 0-2.263 0l-1.508 1.561m3.771.781L15.753 6.96"/></svg>