<svg id="Regular" xmlns="http://www.w3.org/2000/svg" viewBox="0 0 24 24" width="24" height="24"><defs><style>.cls-1{fill:none;stroke:#000;stroke-linecap:round;stroke-linejoin:round;stroke-width:1.5px}</style></defs><title>soccer-goal-net</title><path class="cls-1" d="M22.167 20.347a.66.66 0 0 0 1.083-.507V7a3 3 0 0 0-3-3H3.75a3 3 0 0 0-3 3v12.84a.66.66 0 0 0 1.083.507L5.25 17.5v-9h13.5v9zM1.629 4.879L5.25 8.5m17.121-3.621L18.75 8.5m-13.5 9h13.5m-13.5-6h13.5m-13.5 3h13.5m-9 3v-9m4.5 9v-9"/></svg>