<svg id="Regular" xmlns="http://www.w3.org/2000/svg" viewBox="0 0 24 24" width="24" height="24"><defs><style>.cls-1{fill:none;stroke:#000;stroke-linecap:round;stroke-linejoin:round;stroke-width:1.5px}</style></defs><title>soccer-player</title><circle class="cls-1" cx="13.312" cy="3.375" r="2.625"/><circle class="cls-1" cx="4.312" cy="20.625" r="2.625"/><path class="cls-1" d="M8.881 17.951l1.176-7.451h-.14a1.491 1.491 0 0 0-1.342.829l-1.421 2.842a1.5 1.5 0 0 1-2.684-1.342l1.421-2.842A4.479 4.479 0 0 1 9.917 7.5h6.791a1.492 1.492 0 0 0 1.342-.829l1.42-2.842a1.5 1.5 0 0 1 2.684 1.342l-1.421 2.842a4.478 4.478 0 0 1-4.025 2.487h-.615l-1.8 11.405a1.5 1.5 0 0 1-1.479 1.266 1.453 1.453 0 0 1-.236-.019 1.5 1.5 0 0 1-1.247-1.715l1.022-6.47"/></svg>