<svg id="Regular" xmlns="http://www.w3.org/2000/svg" viewBox="0 0 24 24" width="24" height="24"><defs><style>.cls-1{fill:none;stroke:#000;stroke-linecap:round;stroke-linejoin:round;stroke-width:1.5px}</style></defs><title>soccer-kick-ball</title><circle class="cls-1" cx="6.375" cy="6.375" r="5.625"/><path class="cls-1" d="M14.443 14.563h-7.81a2.24 2.24 0 0 0-.677 4.375l11.621 3.691a.75.75 0 0 0 .942-.487l1.814-5.711-.706.365c-1.449.754-3.987.074-5.184-2.233zm1.367 8.687l.34-1.071m-3.553.05l.34-1.071m-6.766-.97l.34-1.071m2.873 2.092l.34-1.071"/><path class="cls-1" d="M14.443 14.563l1.47-9.213a.562.562 0 0 1 .719-.449c2.2.668 4.007 1.051 6.22 1.726a.563.563 0 0 1 .372.707l-2.891 9.1m-4.857-8.347l6.857 2.052M10.16 14.567l1.25 6.106"/></svg>