<svg xmlns="http://www.w3.org/2000/svg" viewBox="0 0 24 24" width="24" height="24"><g fill="none" stroke="#000" stroke-linejoin="round" stroke-miterlimit="10"><path d="M19.5 5.501a2 2 0 01-2 2h-7a2 2 0 01-2-2v-2a2 2 0 012-2h7a2 2 0 012 2v2zm-9 8.701l-4.004 1.539c-1.817.658-2.633 2.664-1.975 4.482.516 1.424 1.922 2.31 3.354 2.31.396 0 .829-.067 1.223-.21l6.327-2.375c1.386-.501 2.075-1.817 2.075-3.291V7.501h-7v6.701zm3.036 6.456a4 4 0 013.967-5.97"/><path d="M6.413 15.723A5.987 5.987 0 019 20.657c0 .618-.094 1.214-.267 1.774"/></g><path fill="none" d="M0 0h24v24H0z"/></svg>