<svg xmlns="http://www.w3.org/2000/svg" viewBox="0 0 24 24" width="24" height="24"><path d="M13 20a.5.5 0 100 1 .5.5 0 000-1zm-2-3a.5.5 0 100 1 .5.5 0 000-1zm2.5-2a.5.5 0 100 1 .5.5 0 000-1zM10 13a.5.5 0 100 1 .5.5 0 000-1zm3-2a.5.5 0 100 1 .5.5 0 000-1zm-2.5-1a.5.5 0 100 1 .5.5 0 000-1z"/><path fill="none" stroke="#000" stroke-linejoin="round" stroke-miterlimit="10" d="M13.5 2.5c0 5 3 6 3 10S15 17.122 15 19.561s2.195 3.939.264 3.939H8.736C6.805 23.5 9 22 9 19.561S7.5 16.5 7.5 12.5s3-5 3-10"/><path fill="none" stroke="#000" stroke-linecap="round" stroke-linejoin="round" stroke-miterlimit="10" d="M9 8h6m-.5-5L13 2.5 12 3l-1-.5-1.5.5V1.5a1 1 0 011-1h3a1 1 0 011 1V3z"/><path fill="none" d="M0 0h24v24H0z"/></svg>