<svg id="Regular" xmlns="http://www.w3.org/2000/svg" viewBox="0 0 24 24" width="24" height="24"><defs><style>.cls-1{fill:none;stroke:#000;stroke-linecap:round;stroke-linejoin:round;stroke-width:1.5px}</style></defs><title>sofa-double</title><path class="cls-1" d="M21.75 9.375a1.5 1.5 0 0 0-1.5 1.5v1.5a.75.75 0 0 1-.75.75h-15a.75.75 0 0 1-.75-.75v-1.5a1.5 1.5 0 0 0-3 0v3a3 3 0 0 0 3 3h16.5a3 3 0 0 0 3-3v-3a1.5 1.5 0 0 0-1.5-1.5zm-18 7.5v2.25m16.5-2.25v2.25"/><path class="cls-1" d="M2.25 9.375a4.5 4.5 0 0 1 4.5-4.5h10.5a4.5 4.5 0 0 1 4.5 4.5M12 13.125v-8.25"/></svg>