<svg id="Regular" xmlns="http://www.w3.org/2000/svg" viewBox="0 0 24 24" width="24" height="24"><defs><style>.cls-1{fill:none;stroke:#000;stroke-linecap:round;stroke-linejoin:round;stroke-width:1.5px}</style></defs><title>soft-drinks-juice</title><path class="cls-1" d="M17.25 14.486a6 6 0 0 0-1.757-4.243l-.8-.8a1.5 1.5 0 0 1-.439-1.06V1.5A.75.75 0 0 0 13.5.75h-3a.75.75 0 0 0-.75.75v6.879a1.5 1.5 0 0 1-.439 1.06l-.8.8a6 6 0 0 0-1.761 4.247v7.264a1.5 1.5 0 0 0 1.5 1.5h7.5a1.5 1.5 0 0 0 1.5-1.5zM9.75 3.75h4.5m-7.495 10.5h10.49m-10.448 4.5H17.25"/></svg>