<svg id="Regular" xmlns="http://www.w3.org/2000/svg" viewBox="0 0 24 24" width="24" height="24"><defs><style>.cls-1{fill:none;stroke:#000;stroke-linecap:round;stroke-linejoin:round;stroke-width:1.5px}</style></defs><title>soft-drinks-bottle-heart</title><path class="cls-1" d="M15 8.25v-4.5H9v4.5a6.582 6.582 0 0 0-4.5 6.243v7.257a1.5 1.5 0 0 0 1.5 1.5h12a1.5 1.5 0 0 0 1.5-1.5v-7.257A6.582 6.582 0 0 0 15 8.25zm1.5-6a1.5 1.5 0 0 1-1.5 1.5H9a1.5 1.5 0 0 1 0-3h6a1.5 1.5 0 0 1 1.5 1.5z"/><path class="cls-1" d="M15.93 13.6a1.9 1.9 0 0 0-2.751 0L12 14.814 10.821 13.6a1.9 1.9 0 0 0-2.751 0 2.06 2.06 0 0 0 0 2.845l3.511 3.631a.579.579 0 0 0 .838 0l3.511-3.636a2.06 2.06 0 0 0 0-2.84z"/></svg>