<svg id="Regular" xmlns="http://www.w3.org/2000/svg" viewBox="0 0 24 24" width="24" height="24"><defs><style>.cls-1{fill:none;stroke:#000;stroke-linecap:round;stroke-linejoin:round;stroke-width:1.5px}</style></defs><title>soft-drinks-bottle</title><path class="cls-1" d="M10.511 3.755l-.092.875a8.443 8.443 0 0 1-1.347 3.8L8.29 9.75a6.991 6.991 0 0 0-.343 5.861c.7 1.865-.088 4.209-.45 5.806A1.5 1.5 0 0 0 8.96 23.25h6a1.5 1.5 0 0 0 1.462-1.833c-.361-1.6-1.069-3.941-.369-5.806a6.991 6.991 0 0 0-.343-5.861l-.782-1.316a8.443 8.443 0 0 1-1.347-3.8l-.092-.88"/><rect class="cls-1" x="8.96" y=".75" width="6" height="3" rx="1" ry="1"/><path class="cls-1" d="M9.191 8.25h5.618m-1.724 3a.375.375 0 1 1-.375.375.375.375 0 0 1 .375-.375m0 5.25a.375.375 0 1 1-.375.375.375.375 0 0 1 .375-.375m-2.25-3a.375.375 0 1 1-.375.375.375.375 0 0 1 .375-.375m.75 6a.375.375 0 1 1-.375.375.375.375 0 0 1 .375-.375"/></svg>