<svg id="Regular" xmlns="http://www.w3.org/2000/svg" viewBox="0 0 24 24" width="24" height="24"><defs><style>.cls-1{fill:none;stroke:#000;stroke-linecap:round;stroke-linejoin:round;stroke-width:1.5px}</style></defs><title>soft-drinks-can-energy</title><path class="cls-1" d="M6.75 6.75h10.5m-6.75 0l-2.25-3m5.625 0a.375.375 0 1 1-.375.375.375.375 0 0 1 .375-.375m2.25-2.25a.375.375 0 1 1-.375.375.375.375 0 0 1 .375-.375m-4.5-.75a.375.375 0 1 1-.375.375.375.375 0 0 1 .375-.375M9 6.75l-2.671 3.339a1.5 1.5 0 0 0-.329.937v9.52a1.5 1.5 0 0 0 .252.832l.8 1.2a1.5 1.5 0 0 0 1.248.672h7.4a1.5 1.5 0 0 0 1.248-.668l.8-1.2a1.5 1.5 0 0 0 .252-.836v-9.52a1.5 1.5 0 0 0-.329-.937L15 6.75"/><path class="cls-1" d="M12.75 12l-3 3.75h4.5L12 19.5"/></svg>