<svg id="Regular" xmlns="http://www.w3.org/2000/svg" viewBox="0 0 24 24" width="24" height="24"><defs><style>.cls-1{fill:none;stroke:#000;stroke-linecap:round;stroke-linejoin:round;stroke-width:1.5px}</style></defs><title>soft-drinks-bottle-1</title><path class="cls-1" d="M6 18.75h12m-2.13-8.167a5.28 5.28 0 0 1-2.37-4.264V3.75h-3v2.569a5.28 5.28 0 0 1-2.37 4.264A5.051 5.051 0 0 0 6 14.7v7.05a1.5 1.5 0 0 0 1.5 1.5h9a1.5 1.5 0 0 0 1.5-1.5V14.7a5.051 5.051 0 0 0-2.13-4.117z"/><rect class="cls-1" x="9" y=".75" width="6" height="3" rx="1" ry="1"/><path class="cls-1" d="M6.02 14.25h11.96"/></svg>