<svg id="Regular" xmlns="http://www.w3.org/2000/svg" viewBox="0 0 24 24" width="24" height="24"><defs><style>.cls-1{fill:none;stroke:#000;stroke-linecap:round;stroke-linejoin:round;stroke-width:1.5px}</style></defs><title>soft-drinks-juicer</title><path class="cls-1" d="M23.25 20.25V13.5a1.5 1.5 0 0 0-1.5-1.5h-1.5m0-1.5H1.5a.751.751 0 0 0-.643 1.136L5.25 18v1.5a1.5 1.5 0 0 0 1.5 1.5h12a1.5 1.5 0 0 0 1.5-1.5zm-9.005 0L11.25 3"/><path class="cls-1" d="M15 10.5c.447-2.858-1.319-5.463-2.547-6.954a1.5 1.5 0 0 0-2.329.016C8.925 5.055 7.144 7.652 7.5 10.5"/></svg>