<svg xmlns="http://www.w3.org/2000/svg" viewBox="0 0 24 24" width="24" height="24"><g fill="none" stroke="#000" stroke-linecap="round" stroke-linejoin="round" stroke-miterlimit="10"><path d="M20.997 6.469c1.106.328 1.881.893 2.191 1.692.998 2.575-3.202 6.604-9.381 9S1.81 19.412.811 16.838c-.998-2.574 3.202-6.604 9.381-9 2.231-.865 4.416-1.398 6.343-1.607"/><path d="M5.076 13.499c1.003-1.309 3.152-2.755 5.839-3.796 4.119-1.598 7.944-1.641 8.543-.096s-2.255 4.092-6.375 5.689c-2.056.797-4.039 1.207-5.584 1.226"/><circle cx="11.5" cy="12.5" r="1.5"/><circle cx="19" cy="6" r="1"/><circle cx="5" cy="16" r="1"/></g><path fill="none" d="M0 0h24v24H0z"/></svg>