<svg xmlns="http://www.w3.org/2000/svg" viewBox="0 0 24 24" width="24" height="24"><g fill="none" stroke="#000" stroke-linecap="round" stroke-linejoin="round" stroke-miterlimit="10"><path d="M18.5 18a3 3 0 11-6 0v-3a3 3 0 116 0v3zm1.72 3.72a.75.75 0 101.061 1.061l1.5-2a.75.75 0 10-1.061-1.061l-1.5 2zm-12.501 0a.75.75 0 101.061 1.061l1.5-2a.75.75 0 10-1.061-1.061l-1.5 2zm9.955-1.653c1.16 0 2.044.371 2.842 1.093"/><path d="M14 20.595a3.237 3.237 0 01-2.25.905 3.238 3.238 0 01-1.66-.455M23 12.25a2.75 2.75 0 01-4.506 2.116M8.5 16a3.5 3.5 0 013.5-3.5h1.841m6.658-4c0-3-1.5-6-4.75-6h-4.75a3 3 0 00-3 3l3.5.75a2.25 2.25 0 00-2.25 2.25l2.75 1a2 2 0 00-2 2l5.75.5 1.5-.001c2.25.001 4.25-.999 4.25-3.499h-1z"/><path d="M20.499 8.5h-3.5a1.5 1.5 0 00-1.5 1.5v2m2.5-6.5V7m-11-4.5h-3m-3.5 0h1m3 4h2.5m-6.5 0h1m3.5 3.5h2.5m-6.5 0h1m5 4h-1.5m-3 0h-1m6 4h-1.5m-3 0h-1m4.5 4h-2m-2 0h-1"/></g><path fill="none" d="M0 0h24v24H0z"/></svg>