<svg xmlns="http://www.w3.org/2000/svg" viewBox="0 0 24 24" width="24" height="24"><defs><style>.a{fill:none;stroke:#000;stroke-linecap:round;stroke-linejoin:round;stroke-width:1.5px}</style></defs><title>sound</title><path class="a" d="M12.001 3.75v3m0 3v3"/><circle class="a" cx="12.001" cy="8.25" r="1.5"/><path class="a" d="M6.751 12.75V2.25a1.5 1.5 0 0 1 1.5-1.5h7.5a1.5 1.5 0 0 1 1.5 1.5v10.5m-2.007 2.35a.933.933 0 0 0-.96.085L11 17.25H9.167a.908.908 0 0 0-.916.9v1.2a.908.908 0 0 0 .916.9H11l3.283 2.07a.929.929 0 0 0 .96.085.9.9 0 0 0 .507-.8V15.9a.9.9 0 0 0-.506-.8z"/></svg>