<svg xmlns="http://www.w3.org/2000/svg" viewBox="0 0 24 24" width="24" height="24"><defs><style>.a{fill:none;stroke:#000;stroke-linecap:round;stroke-linejoin:round;stroke-width:1.5px}</style></defs><title>spa-board</title><path class="a" d="M10.498 18.375v-7.5m.002 0h.75a2.25 2.25 0 0 1 0 4.5h-.75m-3-4.5H6a1.5 1.5 0 0 0-1.5 1.5c0 2.25 3 2.25 3 4.5a1.5 1.5 0 0 1-1.5 1.5H4.5m12 0v-6a1.5 1.5 0 0 1 3 0v6m-3.002-3h3"/><rect class="a" x="1.498" y="7.875" width="21" height="13.5" rx="1" ry="1"/><path class="a" d="M6.614 7.875L10.343 3.4a2.154 2.154 0 0 1 3.309 0l3.729 4.475"/></svg>