<svg xmlns="http://www.w3.org/2000/svg" viewBox="0 0 24 24" width="24" height="24"><g fill="none" stroke="#000" stroke-linecap="round" stroke-linejoin="round" stroke-miterlimit="10"><path d="M22.5 8.5a6 6 0 00-6-6h-9a6 6 0 00-6 6v12a2 2 0 002 2h17a2 2 0 002-2v-12z"/><path d="M14.5 22.5v-8.67c0-.971-.698-1.799-1.654-1.966-4.219-.742-6.277-1.987-6.344-9.282m5.248 8.98s5.616.382 5.747-8.979m-8.28 13.851C9.217 17.777 8 18.867 8 18.867s-1.217-1.09-1.217-2.434S8 14 8 14s1.217 1.09 1.217 2.434z"/><path d="M10.633 19.558C9.317 19.834 8 18.867 8 18.867s.815-1.414 2.131-1.691c1.315-.278 2.633.688 2.633.688s-.816 1.416-2.131 1.694zm-5.266 0C6.682 19.834 8 18.867 8 18.867s-.815-1.414-2.131-1.691c-1.315-.278-2.633.688-2.633.688s.816 1.416 2.131 1.694z"/></g><path fill="none" d="M0 0h24v24H0z"/></svg>