<svg xmlns="http://www.w3.org/2000/svg" viewBox="0 0 24 24" width="24" height="24"><defs><style>.a{fill:none;stroke:#000;stroke-linecap:round;stroke-linejoin:round;stroke-width:1.5px}</style></defs><title>spa-therapist-robe</title><path class="a" d="M20.248 23.25h-16.5a3 3 0 0 1-3-3V6.75a6 6 0 0 1 6-6h10.5a6 6 0 0 1 6 6v13.5a3 3 0 0 1-3 3z"/><path class="a" d="M6.748.75V3a5.25 5.25 0 0 0 10.5 0V.75"/><path class="a" d="M15.748 23.25v-12a3 3 0 0 0-3-3H12"/><circle class="a" cx="12.748" cy="12.75" r=".375"/><circle class="a" cx="12.748" cy="18.375" r=".375"/></svg>