<svg xmlns="http://www.w3.org/2000/svg" viewBox="0 0 24 24" width="24" height="24"><defs><style>.a{fill:none;stroke:#000;stroke-linecap:round;stroke-linejoin:round;stroke-width:1.5px}</style></defs><title>spa-towel</title><path class="a" d="M4.5 22.5a3.75 3.75 0 0 1 0-7.5h15a3.75 3.75 0 1 1 0 7.5z"/><path class="a" d="M23.127 17.8C22.756 14.926 21.619 6.365 21 4.5a4.315 4.315 0 0 0-3.75-3H6.748A4.314 4.314 0 0 0 3 4.5C2.376 6.364 1.24 14.923.869 17.8"/><path class="a" d="M6.748 15a2.25 2.25 0 0 0 0 4.5h12M14.998 6V4.5m1.5.75l-1.5.75m-1.5-.75l1.5.75m-1.5 1.5l1.5-1.5m1.5 1.5l-1.5-1.5m-7.5 3.75v-1.5m1.5.75l-1.5.75M5.998 9l1.5.75m-1.5 1.5l1.5-1.5m1.5 1.5l-1.5-1.5"/></svg>