<svg xmlns="http://www.w3.org/2000/svg" viewBox="0 0 24 24" width="24" height="24"><defs><style>.a{fill:none;stroke:#000;stroke-linecap:round;stroke-linejoin:round;stroke-width:1.5px}</style></defs><title>spa-bamboo</title><path class="a" d="M14.215 23.25h-5.97a.75.75 0 0 1-.735-.6l-4.2-21a.75.75 0 0 1 .735-.9h5.97a.75.75 0 0 1 .736.6l4.2 21a.75.75 0 0 1-.736.9zm3.174-13.23A7.486 7.486 0 0 0 20.7 3.878a.73.73 0 0 0-.7-.7 7.162 7.162 0 0 0-5.16 2.169 7.057 7.057 0 0 0-2.121 5.814"/><path class="a" d="M16.983 10a5.53 5.53 0 0 0-4.149 1.767 5.53 5.53 0 0 0 4.149 1.767 4.908 4.908 0 0 0 3.257-1.19.773.773 0 0 0 0-1.154A4.908 4.908 0 0 0 16.983 10zM4.63 8.25l3.75-.75M6.592 18.058l4.038-.808"/></svg>