<svg xmlns="http://www.w3.org/2000/svg" viewBox="0 0 24 24" width="24" height="24"><defs><style>.a{fill:none;stroke:#000;stroke-linecap:round;stroke-linejoin:round;stroke-width:1.5px}</style></defs><title>spa-soap</title><path class="a" d="M8.487 20.25h-3.75a3 3 0 0 1-3-3v-7.5a3 3 0 0 1 3-3h6a3 3 0 0 1 3 3v.75m-12-8.25l.622-.621A3 3 0 0 1 4.48.75h7.007m-.75 6h-6v-1.5a1.5 1.5 0 0 1 1.5-1.5h3a1.5 1.5 0 0 1 1.5 1.5zm-3-3v-3"/><circle class="a" cx="16.737" cy="17.25" r="2.25"/><path class="a" d="M16.737 21.75v1.5m0-12.75V12m0 9.75v1.5m0-12.75V12m4.222 7.312l1.299.75m-11.042-6.375l1.299.75m8.444 0l1.299-.75m-11.042 6.375l1.299-.75"/></svg>