<svg xmlns="http://www.w3.org/2000/svg" viewBox="0 0 24 24" width="24" height="24"><defs><style>.a{fill:none;stroke:#000;stroke-linecap:round;stroke-linejoin:round;stroke-width:1.5px}</style></defs><title>spa-hand-flower</title><path class="a" d="M23.248 6.806a2.985 2.985 0 0 0-4.548-2.56 2.89 2.89 0 0 0 .045-.44 3 3 0 0 0-6 0 2.89 2.89 0 0 0 .044.44A2.993 2.993 0 1 0 11.167 9.8a2.989 2.989 0 1 0 4.581 3.682 2.99 2.99 0 1 0 4.58-3.682 3 3 0 0 0 2.92-2.994zm-22.5 7.388v9m15-1.5a3 3 0 0 0-3-3H9a3 3 0 0 0-3-3H.748v6zm-9.75-3h3"/><circle class="a" cx="15.748" cy="8.194" r="2.25"/></svg>