<svg xmlns="http://www.w3.org/2000/svg" viewBox="0 0 24 24" width="24" height="24"><defs><style>.a{fill:none;stroke:#000;stroke-linecap:round;stroke-linejoin:round;stroke-width:1.5px}</style></defs><title>spa-sign</title><path class="a" d="M9.748 19.5V12m0 0h.75a2.25 2.25 0 0 1 0 4.5h-.75m-3-4.5h-1.5a1.5 1.5 0 0 0-1.5 1.5c0 2.25 3 2.25 3 4.5a1.5 1.5 0 0 1-1.5 1.5h-1.5m12 0v-6a1.5 1.5 0 0 1 3 0v6m-3-3h3"/><rect class="a" x=".748" y="9" width="22.5" height="13.5" rx="1" ry="1"/><path class="a" d="M5.248 9V1.5m13.5 7.5V1.5m-18 0h22.5"/></svg>