<svg xmlns="http://www.w3.org/2000/svg" viewBox="0 0 24 24" width="24" height="24"><defs><style>.a{fill:none;stroke:#000;stroke-linecap:round;stroke-linejoin:round;stroke-width:1.5px}</style></defs><title>spa-candle-flower</title><path class="a" d="M23.25 17.475a2.089 2.089 0 0 0-3.181-1.792 2.073 2.073 0 0 0 .031-.308 2.1 2.1 0 0 0-4.2 0 2.073 2.073 0 0 0 .031.308 2.1 2.1 0 1 0-1.137 3.886A2.093 2.093 0 1 0 18 22.147a2.093 2.093 0 1 0 3.206-2.578 2.1 2.1 0 0 0 2.044-2.094z"/><path class="a" d="M18 18.15a.375.375 0 1 1-.375.375.375.375 0 0 1 .375-.375m-2.852-6.905l-2.031-5.077a1.5 1.5 0 0 1 .332-1.617l1.24-1.24A1.5 1.5 0 0 0 13.629.75h-9.9a1.5 1.5 0 0 0-1.065 2.561L3.9 4.551a1.5 1.5 0 0 1 .332 1.617l-3.16 7.911A4.5 4.5 0 0 0 5.25 20.25h4.5"/><path class="a" d="M8.083 7.5a2.991 2.991 0 0 1 .3 3.409A1.065 1.065 0 0 1 7.25 10 2.412 2.412 0 0 0 6 12.273 2.727 2.727 0 0 0 8.727 15a2.766 2.766 0 0 0 2.728-2.727A4.534 4.534 0 0 0 8.083 7.5z"/></svg>