<svg xmlns="http://www.w3.org/2000/svg" viewBox="0 0 24 24" width="24" height="24"><defs><style>.a{fill:none;stroke:#000;stroke-linecap:round;stroke-linejoin:round;stroke-width:1.5px}</style></defs><title>space-antenna-satelite</title><circle class="a" cx="6" cy="21" r="2.25"/><circle class="a" cx="21" cy="21" r="2.25"/><path class="a" d="M8.25 21h10.5m2.15-2.248l.757-5.47a1.808 1.808 0 0 0-3.567-.579l-1.125 4.547H14.25a1.5 1.5 0 0 0-1.5 1.5v.75a1.5 1.5 0 0 0 1.5 1.5h1.5m-7.5 0v-9.097M1.2 4.792a4.187 4.187 0 0 1 2.51-3.745 4.184 4.184 0 0 1 4.421.875"/><path class="a" d="M6.765 3.841a1.915 1.915 0 0 0-2.1-.484 1.915 1.915 0 0 0-1.14 1.826m8.312-.196c1.268 3.062-.569 5.648-3.63 6.916S2.018 12.641.75 9.579z"/></svg>