<svg xmlns="http://www.w3.org/2000/svg" viewBox="0 0 24 24" width="24" height="24"><path fill="none" stroke="#000" stroke-linejoin="round" stroke-miterlimit="10" d="M16.5 7.5a3 3 0 016 0v3h-6v-3zm-8-4a3 3 0 016 0v3h-6v-3zm-8 4a3 3 0 016 0v3h-6v-3zm13.006 12.146L18.5 23.5h-14l4.923-3.812"/><path fill="none" stroke="#000" stroke-linecap="round" stroke-linejoin="round" stroke-miterlimit="10" d="M11.5 11v2"/><path d="M10.5 3a.5.5 0 10.002 1.002A.5.5 0 0010.5 3zm2 0a.5.5 0 10.002 1.002A.5.5 0 0012.5 3zm-10 4a.5.5 0 10.002 1.002A.5.5 0 002.5 7zm2 0a.5.5 0 10.002 1.002A.5.5 0 004.5 7zm14 0a.5.5 0 10.002 1.002A.5.5 0 0018.5 7zm2 0a.5.5 0 10.002 1.002A.5.5 0 0020.5 7z"/><path fill="none" stroke="#000" stroke-linejoin="round" stroke-miterlimit="10" d="M13.5 17.5a2 2 0 00-4 0v6h4v-6z"/><path fill="none" d="M0 0h24v24H0z"/></svg>