<svg xmlns="http://www.w3.org/2000/svg" viewBox="0 0 24 24" width="24" height="24"><defs><style>.a{fill:none;stroke:#000;stroke-linecap:round;stroke-linejoin:round;stroke-width:1.5px}</style></defs><title>space-moon-flag</title><path class="a" d="M14.993 21.682a39.339 39.339 0 0 1 8.257 1.483m-22.5.085a39.356 39.356 0 0 1 8.912-1.592M12 23.25V12h9v6h-9m0-3h9M8.206 12.572A6 6 0 1 1 12.52 8.4"/><path class="a" d="M1.552 3.751H3a1.5 1.5 0 0 1 1.5 1.5v.7A1.5 1.5 0 0 0 5.168 7.2l.958.639a1.4 1.4 0 0 1 0 2.332L3.6 11.854m8.348-8.103h-.7a1.5 1.5 0 0 0-1.34 2.171c.427.854.525.9.789 1.054l1.9 1.138M15.75 12v3"/></svg>