<svg xmlns="http://www.w3.org/2000/svg" viewBox="0 0 24 24" width="24" height="24"><defs><style>.a{fill:none;stroke:#000;stroke-linecap:round;stroke-linejoin:round;stroke-width:1.5px}</style></defs><title>space-ship</title><path class="a" d="M12 16.5V21m-6.75 2.25a2.25 2.25 0 0 0-4.5 0h4.5zm9 0a2.25 2.25 0 0 0-4.5 0zm9 0a2.25 2.25 0 0 0-4.5 0zM18 18l-1.061-1.061a1.5 1.5 0 0 0-1.06-.439H8.121a1.5 1.5 0 0 0-1.06.439L6 18"/><path class="a" d="M21 21v-3.879a1.5 1.5 0 0 0-.439-1.06l-2.122-2.122a1.5 1.5 0 0 0-1.06-.439H6.618a1.5 1.5 0 0 0-1.057.436l-2.118 2.1A1.5 1.5 0 0 0 3 17.1V21m4.5-10.5h9v3h-9zm0 0A4.7 4.7 0 0 1 6 7.1C6 4.132 8.686.75 12 .75s6 3.382 6 6.35a4.7 4.7 0 0 1-1.5 3.4"/><path class="a" d="M13.5 10.5h-3V7.483A1.483 1.483 0 0 1 11.983 6h.034A1.483 1.483 0 0 1 13.5 7.483zm-3 0v3m3-3v3"/></svg>