<svg xmlns="http://www.w3.org/2000/svg" viewBox="0 0 24 24" width="24" height="24"><defs><style>.a{fill:none;stroke:#000;stroke-linecap:round;stroke-linejoin:round;stroke-width:1.5px}</style></defs><title>space-rocket-earth</title><path class="a" d="M5.33 17.848a9.545 9.545 0 0 1 11.136-15.36M1.982 17.78c-1.213 2.125-1.619 3.774-.934 4.46 1.04 1.039 4.294-.43 8.062-3.418m4.313-.755l-3.58-3.58L17.8 6.53a5.054 5.054 0 0 1 2.353-1.33l2.047-.514a.844.844 0 0 1 1.023 1.023l-.512 2.048a5.059 5.059 0 0 1-1.332 2.352z"/><path class="a" d="M9.843 14.487l-2.932-.977a.422.422 0 0 1-.165-.7l1.022-1.022a3.383 3.383 0 0 1 3.462-.817l1.6.532zm3.58 3.58L14.4 21a.422.422 0 0 0 .7.165l1.022-1.022a3.383 3.383 0 0 0 .817-3.462l-.532-1.6z"/></svg>