<svg xmlns="http://www.w3.org/2000/svg" viewBox="0 0 24 24" width="24" height="24"><defs><style>.a{fill:none;stroke:#000;stroke-linecap:round;stroke-linejoin:round;stroke-width:1.5px}</style></defs><title>space-astronaut-alternate</title><rect class="a" x="6.75" y="19.5" width="6" height="3.75" rx="1" ry="1"/><path class="a" d="M18.75 23.25v-3a4.5 4.5 0 0 0-3.239-4.32 1.748 1.748 0 0 1-1.261-1.68v-3a4.5 4.5 0 0 0-9 0v3a1.748 1.748 0 0 1-1.261 1.679 4.5 4.5 0 0 0-3.239 4.32v3"/><path class="a" d="M5.25 11.25l1.658-.829a6.354 6.354 0 0 1 5.684 0l1.658.829m-9 3l1.658.829a6.354 6.354 0 0 0 5.684 0l1.658-.829m-13.5 6V13.5A2.25 2.25 0 0 1 3 11.25m15.75 9V13.5a2.25 2.25 0 0 0-2.25-2.25M11.25.75v3m-1.5-1.5h3m9 6v3m-1.5-1.5h3m-4.5-9a3.024 3.024 0 0 1-3 3 3.024 3.024 0 0 1 3 3 3.024 3.024 0 0 1 3-3 3.024 3.024 0 0 1-3-3"/></svg>