<svg xmlns="http://www.w3.org/2000/svg" viewBox="0 0 24 24" width="24" height="24"><defs><style>.a{fill:none;stroke:#000;stroke-linecap:round;stroke-linejoin:round;stroke-width:1.5px}</style></defs><title>space-base</title><path class="a" d="M3.25 12.75h14.5a1 1 0 0 1 1 1v9.5H2.25v-9.5a1 1 0 0 1 1-1zm13.25 0a6 6 0 0 0-12 0"/><path class="a" d="M10.5 6.75V4.743a.917.917 0 0 1 .346-.709 1.1 1.1 0 0 1 .806-.233 9.436 9.436 0 0 1 8.575 7.889.9.9 0 0 1-.254.741 1.075 1.075 0 0 1-.77.319H17.25"/><path class="a" d="M15.975 5.258l1.904-1.922 2.809 2.835-1.843 1.86"/><path class="a" d="M19.707 5.18l-.877-.88a2.37 2.37 0 0 1 0-3.336l.033-.033a.591.591 0 0 1 .842 0l3.37 3.4a.605.605 0 0 1 0 .851 2.37 2.37 0 0 1-3.368-.002zM8.75 16.5h3.5a.5.5 0 0 1 .5.5v6.25h-4.5V17a.5.5 0 0 1 .5-.5zm-8 6.75h19.5"/></svg>