<svg xmlns="http://www.w3.org/2000/svg" viewBox="0 0 24 24" width="24" height="24"><defs><style>.a{fill:none;stroke:#000;stroke-linecap:round;stroke-linejoin:round;stroke-width:1.5px}</style></defs><title>space-rocket-launch</title><path class="a" d="M.75 23.25V3.75l4.5-3v22.5m-4.5-9h4.5m-4.5-4.5h6m-6 9h8.28M15.75 1.5l-1.357 1.7a7.5 7.5 0 0 0-1.643 4.681V21.75h6V7.881A7.5 7.5 0 0 0 17.107 3.2z"/><path class="a" d="M12.75 21.75l-3.415.957a.75.75 0 0 1-1.085-.671v-.328a6 6 0 0 1 3.317-5.366l1.183-.592z"/><path class="a" d="M12.75 21.75l-3.415.957a.75.75 0 0 1-1.085-.671v-.328a6 6 0 0 1 3.317-5.366l1.183-.592zm6 0l3.415.957a.75.75 0 0 0 1.085-.671v-.328a6 6 0 0 0-3.317-5.366l-1.183-.592z"/><path class="a" d="M18.75 21.75l3.415.957a.75.75 0 0 0 1.085-.671v-.328a6 6 0 0 0-3.317-5.366l-1.183-.592z"/></svg>