<svg xmlns="http://www.w3.org/2000/svg" viewBox="0 0 24 24" width="24" height="24"><defs><style>.a{fill:none;stroke:#000;stroke-linecap:round;stroke-linejoin:round;stroke-width:1.5px}</style></defs><title>space-rocket</title><circle class="a" cx="6.75" cy="10.5" r="3"/><path class="a" d="M5 18.75h3.5a.5.5 0 0 1 .5.5v4H4.5v-4a.5.5 0 0 1 .5-.5zm7.75-12h7.076m2.674 10.5H18V4.694l1.736-3.633a.58.58 0 0 1 1.028 0L22.5 4.694zm-2.25 0v6"/><path class="a" d="M18.273 17.25l-.6 1.156a3.735 3.735 0 0 0-.422 1.721v1.891a.5.5 0 0 0 .724.431l2.276-1.1 2.276 1.1a.5.5 0 0 0 .724-.431v-1.891a3.735 3.735 0 0 0-.422-1.721l-.6-1.156M1.75 3.75h10a1 1 0 0 1 1 1v18.5h-12V4.75a1 1 0 0 1 1-1zm11 9H15m-2.25 6h1.5M3.75 13.5l.879-.879m4.242-4.242L9.75 7.5"/></svg>