<svg xmlns="http://www.w3.org/2000/svg" viewBox="0 0 24 24" width="24" height="24"><defs><style>.a{fill:none;stroke:#000;stroke-linecap:round;stroke-linejoin:round;stroke-width:1.5px}</style></defs><title>space-rocket-base</title><path class="a" d="M1.5 17.25V7.5a2.25 2.25 0 0 1 4.5 0v5.25m12 0V7.5a2.25 2.25 0 0 1 4.5 0v9.75M6 7.5v-.75a6 6 0 0 1 12 0v.75"/><path class="a" d="M21 21.75a1.5 1.5 0 0 1-1.5 1.5h-15a1.5 1.5 0 0 1-1.5-1.5v-1.5a1.5 1.5 0 0 1 .6-1.2l4.2-3.15A3 3 0 0 0 9 13.5V8.41a3.071 3.071 0 0 1 3-3.16 3 3 0 0 1 3 3v5.25a3 3 0 0 0 1.2 2.4l4.2 3.15a1.5 1.5 0 0 1 .6 1.2zM11.25 9h1.5M12 18.75v4.5"/></svg>