<svg xmlns="http://www.w3.org/2000/svg" viewBox="0 0 24 24" width="24" height="24"><defs><style>.a{fill:none;stroke:#000;stroke-linecap:round;stroke-linejoin:round;stroke-width:1.5px}</style></defs><title>space-earth</title><circle class="a" cx="3" cy="21" r="2.25"/><circle class="a" cx="17.25" cy="21" r="2.25"/><path class="a" d="M5.25 21H15m-6 0v-1.5a1.5 1.5 0 0 1 1.5-1.5h2.98l.879-4.681a1.418 1.418 0 0 1 2.8.454l-.638 5.1M3 18.75v-7.108m5.022-1.653a3.875 3.875 0 0 1-6.794-3.728zM4.595 8.108l1.504-2.257"/><circle class="a" cx="6.75" cy="4.5" r="1.5"/><path class="a" d="M12.04 9.728a6 6 0 1 1 7.9 2.389m-7.888-8.366H13.5a1.5 1.5 0 0 1 1.5 1.5v.7a1.5 1.5 0 0 0 .668 1.249l.958.639a1.4 1.4 0 0 1 .458.5"/><path class="a" d="M22.448 3.751h-.7a1.5 1.5 0 0 0-1.342 2.171c.427.854.525.9.789 1.054l1.9 1.138"/></svg>