<svg xmlns="http://www.w3.org/2000/svg" viewBox="0 0 24 24" width="24" height="24"><defs><style>.a{fill:none;stroke:#000;stroke-linecap:round;stroke-linejoin:round;stroke-width:1.5px}</style></defs><title>space-ship-1</title><path class="a" d="M6.209 7.185l10.607 10.607-3.36 3.359a2 2 0 0 1-2.828 0L2.85 13.373a2 2 0 0 1 0-2.829l3.36-3.359z"/><path class="a" d="M16.816 17.791L6.209 7.184l4.072-2.768a6.8 6.8 0 0 1 8.656.647 6.8 6.8 0 0 1 .647 8.656z"/><circle class="a" cx="15.225" cy="8.775" r="2.25"/><path class="a" d="M6.209 7.184l-2.444-.277a3.511 3.511 0 0 0-2.543 1.022l-.216.216a.905.905 0 0 0 .019 1.28l1.517 1.517m14.274 6.849l.277 2.444a3.511 3.511 0 0 1-1.022 2.543l-.216.216a.905.905 0 0 1-1.28-.019l-1.517-1.517M2.25 21.75h3m-1.5-1.5v3m-2.25-21h3M3 .75v3m17.25 13.5h3m-1.5-1.5v3m-1.125 3a.375.375 0 0 1 .375.375m-.75 0a.375.375 0 0 1 .375-.375m0 .75a.375.375 0 0 1-.375-.375m.75 0a.375.375 0 0 1-.375.375m-19.5-6a.375.375 0 0 1 .375.375m-.75 0a.375.375 0 0 1 .375-.375m0 .75a.375.375 0 0 1-.375-.375m.75 0a.375.375 0 0 1-.375.375M9.361.75a.376.376 0 0 1 .389.361M9 1.139A.376.376 0 0 1 9.361.75m.028.75A.376.376 0 0 1 9 1.139m.75-.028a.376.376 0 0 1-.361.389"/></svg>