<svg xmlns="http://www.w3.org/2000/svg" viewBox="0 0 24 24" width="24" height="24"><g fill="none" stroke="#000" stroke-linecap="round" stroke-linejoin="round" stroke-miterlimit="10"><path d="M10.5 19.5h-2v-9c0-1.5.881-2.369 1.5-3h4c.618.632 1.5 1.5 1.5 3v9h-2M10 7.5v-3c0-1.104 1.5-4 2-4s2 2.896 2 4v3"/><path d="M13.5 14c0-.828-1-2-1.5-2s-1.5 1.172-1.5 2v7.5h3V14zm-5 .5c-1 0-3 1.344-3 3v4h3v-2m7-5c1 0 3 1.344 3 3v4h-3v-2m-9 2l-1 2h3l-1-2m4 0l-1 2h3l-1-2m4 0l-1 2h3l-1-2"/></g><path fill="none" d="M0 0h24v24H0z"/></svg>