<svg xmlns="http://www.w3.org/2000/svg" viewBox="0 0 24 24" width="24" height="24"><g fill="none" stroke="#000" stroke-linecap="round" stroke-linejoin="round" stroke-miterlimit="10"><path d="M13.5 18a2 2 0 01-4 0V8c0-1.104 1.5-2.5 2-2.5s2 1.396 2 2.5v10zm-10-1.75V8c0-.552 1-1 1-1s1 .448 1 1v7.176m12 0V8c0-.552 1-1 1-1s1 .448 1 1v8.264"/><path d="M7.5 14.088V5c0-2.209 3.5-4.5 4-4.5s4 2.291 4 4.5v9.088"/><path d="M9.5 13L3 16.536c-1.196.69-2 1.483-2 2.964l9.178-.002m2.643 0L22 19.5c0-1.479-.803-2.272-1.998-2.964L13.5 13m-2-3.5v2m-8 8l-1 3h4l-1-3"/><path d="M9.719 19.5L8 23.5h7l-1.703-4.002m4.203.002l-1 3h4l-1-3m-8 4V18"/></g><path fill="none" d="M0 0h24v24H0z"/></svg>