<svg xmlns="http://www.w3.org/2000/svg" viewBox="0 0 24 24" width="24" height="24"><defs><style>.a{fill:none;stroke:#000;stroke-linecap:round;stroke-linejoin:round;stroke-width:1.5px}</style></defs><title>space-rocket-2</title><path class="a" d="M22.5 11.25V7.062a4.506 4.506 0 0 0-.475-2.012l-.857-1.715a.189.189 0 0 0-.336 0l-.857 1.715a4.506 4.506 0 0 0-.475 2.012V8.25m-18 3V7.062a4.506 4.506 0 0 1 .475-2.012l.857-1.715a.189.189 0 0 1 .336 0l.857 1.715A4.506 4.506 0 0 1 4.5 7.062V8.25m5.994-.894a2 2 0 0 1 2.994.138M8.514 3.75h6.972M12 18v5.25"/><path class="a" d="M15.75 23.25h-7.5L7.5 7.5C7.5 5.015 9.515.75 12 .75s4.5 4.265 4.5 6.75z"/><path class="a" d="M16.363 10.38l5.113 4.474a3 3 0 0 1 1.024 2.257v3.139a1.5 1.5 0 0 1-1.5 1.5h-5.179M7.637 10.38l-5.113 4.474A3 3 0 0 0 1.5 17.111v3.139a1.5 1.5 0 0 0 1.5 1.5h5.179"/></svg>