<svg xmlns="http://www.w3.org/2000/svg" viewBox="0 0 24 24" width="24" height="24"><defs><style>.a{fill:none;stroke:#000;stroke-linecap:round;stroke-linejoin:round;stroke-width:1.5px}</style></defs><title>space-rocket-1</title><path class="a" d="M7 20.25l1.5-12h5.999l1.501 12m-1.5-12h-6V6.93a6.007 6.007 0 0 1 .633-2.683L10.606 1.3a1 1 0 0 1 1.788 0l1.473 2.944A6.007 6.007 0 0 1 14.5 6.93z"/><path class="a" d="M12.737 22.131a1.243 1.243 0 0 1-2.474 0l-.451-4.515a1.7 1.7 0 1 1 3.376 0z"/><path class="a" d="M7.556 15.8A3 3 0 0 0 4 18.75l.58 3.482a1.218 1.218 0 0 0 2.42-.2V20.25h3.075m5.369-4.45A3 3 0 0 1 19 18.75l-.58 3.482a1.218 1.218 0 0 1-2.42-.2V20.25h-3.075"/></svg>