<svg xmlns="http://www.w3.org/2000/svg" viewBox="0 0 24 24" width="24" height="24"><defs><style>.a{fill:none;stroke:#000;stroke-linecap:round;stroke-linejoin:round;stroke-width:1.5px}</style></defs><title>space-explore</title><path class="a" d="M.75 23.25v-7.56a6 6 0 0 1 12 0v7.56m-3-22.5v3m-1.5-1.5h3m9 8.25v3m-1.5-1.5h3M20.25.75a3.024 3.024 0 0 1-3 3 3.024 3.024 0 0 1 3 3 3.024 3.024 0 0 1 3-3 3.024 3.024 0 0 1-3-3m-8.727 7.042L13.3 5.465a.548.548 0 0 1 .822-.055l2.218 2.215a.548.548 0 0 1-.055.822l-2.122 1.623"/><path class="a" d="M15.75 15.925v-1.078A8.257 8.257 0 0 0 4.322 7.37M.75 15.75h12m-7.5 7.5V21a1.5 1.5 0 0 1 1.5-1.5 1.5 1.5 0 0 1 1.5 1.5v2.25"/></svg>