<svg xmlns="http://www.w3.org/2000/svg" viewBox="0 0 24 24" width="24" height="24"><defs><style>.a{fill:none;stroke:#000;stroke-linecap:round;stroke-linejoin:round;stroke-width:1.5px}</style></defs><title>space-astronaut</title><path class="a" d="M5.962 10.425l2.652-2.652"/><circle class="a" cx="17.364" cy="5.386" r="4.125"/><path class="a" d="M5.432 19.44l2.652-2.651a1.5 1.5 0 0 0-2.122-2.122l-2.651 2.652A1.5 1.5 0 0 1 1.189 15.2l4.773-4.773A1.5 1.5 0 0 1 3.841 8.3l3.182-3.179a3 3 0 0 1 4.243 0l6.364 6.364a3 3 0 0 1 0 4.243l-3.182 3.182a1.5 1.5 0 0 1-2.122-2.121l-4.773 4.773a1.5 1.5 0 1 1-2.121-2.122zm9.546-5.303l-2.652 2.652"/><path class="a" d="M7.023 5.121l3.712-3.712a2.249 2.249 0 0 1 3.182 0l.808.807m2.905 13.512l3.712-3.712a2.249 2.249 0 0 0 0-3.182l-.808-.808"/><rect class="a" x="9.766" y="9.985" width="3" height="3" rx=".5" ry=".5" transform="rotate(45 11.266 11.485)"/><path class="a" d="M20 8.557a7.363 7.363 0 0 0-1.84-3.966 7.363 7.363 0 0 0-3.966-1.844M9.545 19.57l.569.654a8.815 8.815 0 0 0 13.136.176"/></svg>