<svg xmlns="http://www.w3.org/2000/svg" viewBox="0 0 24 24" width="24" height="24"><defs><style>.a{fill:none;stroke:#000;stroke-linecap:round;stroke-linejoin:round;stroke-width:1.5px}</style></defs><title>space-science</title><path class="a" d="M4.75 16.5h10a1 1 0 0 1 1 1v5.75h-12V17.5a1 1 0 0 1 1-1zM.89 12.633L11.934.9a.479.479 0 0 1 .814.409A13.219 13.219 0 0 1 1.275 13.5a.51.51 0 0 1-.385-.867zM12 16.5v-5.027M.75 23.25h22.5"/><path class="a" d="M8.25 19.5h3v3.75h-3zm2.96-12.947A3.357 3.357 0 1 1 6.787 11.5M21.75 23.25h-6v-8.489a.5.5 0 0 1 .658-.484l5 1.7a.51.51 0 0 1 .342.485zm-1.5-7.663V12m-3 .75v1.813M4.37 8.935L3.264 6.168A1.5 1.5 0 0 1 3.6 4.551l.847-.851a1.5 1.5 0 0 1 1.618-.332L8.641 4.4m-4.619-.275L2.147 2.25"/></svg>