<svg xmlns="http://www.w3.org/2000/svg" viewBox="0 0 24 24" width="24" height="24"><path fill="none" stroke="#000" stroke-miterlimit="10" d="M17.208 17a4.005 4.005 0 01-3.708 2.5h-2a2 2 0 00-2 2 1 1 0 11-2 0c0-2.206 1.795-4 4-4h2c1.103 0 2-.897 2-2"/><path fill="none" stroke="#000" stroke-linejoin="round" stroke-miterlimit="10" d="M12.5 15.5v-9c-2.003 0-3.554 1.277-4 3h-8v3h8c.446 1.722 1.997 3 4 3z"/><path fill="none" stroke="#000" stroke-linecap="round" stroke-miterlimit="10" d="M21.5 6.5h2m-11 0h3m6 3h2m-11 0h3m6 3h2m-11 0h3m6 3h2m-11 0h3"/><path fill="none" stroke="#000" stroke-linejoin="round" stroke-miterlimit="10" d="M20.5 5a1 1 0 00-1 1v10a1 1 0 102 0V6a1 1 0 00-1-1zm-2 0a1 1 0 00-1 1v10a1 1 0 102 0V6a1 1 0 00-1-1zm-2 0a1 1 0 00-1 1v10a1 1 0 102 0V6a1 1 0 00-1-1z"/><path fill="none" d="M0 0h24v24H0z"/></svg>