<svg xmlns="http://www.w3.org/2000/svg" viewBox="0 0 24 24" width="24" height="24"><defs><style>.a{fill:none;stroke:#000;stroke-linecap:round;stroke-linejoin:round;stroke-width:1.5px}</style></defs><title>speakers</title><path class="a" d="M7.39 3.86a.375.375 0 1 0 0 .53.374.374 0 0 0 0-.53m9.75 0a.375.375 0 1 0 0 .53.374.374 0 0 0 0-.53m0 15.75a.375.375 0 1 0 0 .53.374.374 0 0 0 0-.53m-9.75 0a.375.375 0 1 0 0 .53.374.374 0 0 0 0-.53"/><rect class="a" x="3.75" y=".75" width="16.5" height="22.5" rx="1.5" ry="1.5"/><circle class="a" cx="12" cy="12" r="5.25"/><circle class="a" cx="12" cy="12" r="1.5"/></svg>