<svg xmlns="http://www.w3.org/2000/svg" viewBox="0 0 24 24" width="24" height="24"><g fill="none" stroke="#000" stroke-linecap="round" stroke-linejoin="round" stroke-miterlimit="10"><circle cx="12" cy="12" r="11.5"/><circle cx="12" cy="12" r="1.5"/><path d="M13.06 10.939l4.949-4.949M2.443 11.5h2m-1.221 4.135l1.848-.765m15.705.766l-1.847-.766m2.571-3.37l-1.999-.001m1.276-3.134l-1.848.765m-2.663-5.906L15.5 5.07m-3-2.384v2M8.365 3.223l.764 1.847m-3.846.212l1.413 1.414M3.223 8.364l1.847.766M7.5 16.5h9v3h-9z"/></g><path fill="none" d="M0 0h24v24H0z"/></svg>