<svg xmlns="http://www.w3.org/2000/svg" viewBox="0 0 24 24" width="24" height="24"><g fill="none" stroke="#000" stroke-linejoin="round" stroke-miterlimit="10"><path d="M19 8.5c-3.59 0-5.5-1.906-5.5-3s1.91-3 5.5-3c2 0 4.5.969 4.5 3s-2.438 3-4.5 3z"/><path stroke-linecap="round" d="M13.5 5.5c-2.719 0-2.615-1.958-4.959-1.958S6 8.031 3.562 8.031c-1.764 0-2.088-1.587-3.032-2.465"/><path d="M18.543 21.472c-2.359 0-3.615-1.253-3.615-1.972s1.256-1.972 3.615-1.972c1.314 0 2.957.637 2.957 1.972s-1.602 1.972-2.957 1.972z"/><path stroke-linecap="round" d="M14.928 19.5c-1.786 0-1.717-1.287-3.258-1.287-1.54 0-1.67 2.95-3.271 2.95-1.16 0-1.373-1.043-1.993-1.619"/><path d="M13.543 14.472c-2.359 0-3.615-1.253-3.615-1.972s1.256-1.972 3.615-1.972c1.314 0 2.957.637 2.957 1.972s-1.602 1.972-2.957 1.972z"/><path stroke-linecap="round" d="M9.928 12.5c-1.786 0-1.717-1.287-3.258-1.287-1.54 0-1.67 2.95-3.271 2.95-1.16 0-1.373-1.043-1.993-1.619"/></g><path fill="none" d="M0 0h24v24H0z"/></svg>