<svg id="Regular" xmlns="http://www.w3.org/2000/svg" viewBox="0 0 24 24" width="24" height="24"><defs><style>.cls-1{fill:none;stroke:#000;stroke-linecap:round;stroke-linejoin:round;stroke-width:1.5px}</style></defs><title>spider</title><path class="cls-1" d="M14.976 12.75a6.979 6.979 0 0 1 1.524 4.5c0 3.314-2.015 6-4.5 6s-4.5-2.686-4.5-6a6.979 6.979 0 0 1 1.524-4.5m1.376-1.506A3.619 3.619 0 0 1 9.75 9c0-1.657 0-3 2.25-3s2.25 1.343 2.25 3a3.615 3.615 0 0 1-.658 2.25m-3.092 7.5a2.121 2.121 0 1 1 3 0M10.643 6.263C9.662 4.588 10.5 3.75 10.5 3.75m2.857 2.513c.981-1.675.143-2.513.143-2.513"/><path class="cls-1" d="M14.2 9.721l3.789 2.165a3 3 0 0 1 1.511 2.607v7.257c0 1.5-.75 1.5-.75 1.5M14.241 8.249l4.636.662a3.012 3.012 0 0 1 1.177.432c1.044.66 3.2 2.089 3.2 2.657m-9.081-4.481L20.25 6s2.25-3 2.25-4.5m-8.494 5.454l3.534-2.945a2.062 2.062 0 0 0 .3-2.865.849.849 0 0 0-.59-.394M9.8 9.721l-3.788 2.165A3 3 0 0 0 4.5 14.493v7.257c0 1.5.75 1.5.75 1.5M9.759 8.249l-4.636.662a3.012 3.012 0 0 0-1.177.432C2.9 10 .75 11.432.75 12m9.077-4.481L4.843 6.273a3 3 0 0 1-1.782-1.266A8.563 8.563 0 0 1 1.5 1.5m8.494 5.454L6.46 4.009a2.062 2.062 0 0 1-.3-2.864.847.847 0 0 1 .59-.395"/></svg>