<svg id="Regular" xmlns="http://www.w3.org/2000/svg" viewBox="0 0 24 24" width="24" height="24"><defs><style>.cls-1{fill:none;stroke:#000;stroke-linecap:round;stroke-linejoin:round;stroke-width:1.5px}</style></defs><title>spider-hang</title><path class="cls-1" d="M9.157 13.6a5.084 5.084 0 0 1-.907-3.1A5.131 5.131 0 0 1 12 5.25a5.131 5.131 0 0 1 3.75 5.25 5.084 5.084 0 0 1-.907 3.1M13.126 15a3.2 3.2 0 0 1 1.124 2.551c0 1.768-.562 2.947-2.25 2.947s-2.25-1.179-2.25-2.947A3.2 3.2 0 0 1 10.874 15"/><path class="cls-1" d="M13.914 19.416l2 .5a3 3 0 0 1 1.956 1.569l.883 1.766M14.237 18l3.192-.532a3 3 0 0 1 2.367.617l2.7 2.163m-8.378-3.692l3.775-1.617a3 3 0 0 0 1.8-2.426L20.25 7.5M10.086 19.416l-2 .5a3 3 0 0 0-1.956 1.569l-.88 1.765M9.763 18l-3.192-.53a3 3 0 0 0-2.367.617L1.5 20.25m8.382-3.694l-3.775-1.617a3 3 0 0 1-1.8-2.426L3.75 7.5M12 .75v4.5m1.061 4.189a1.5 1.5 0 1 1-2.122 0"/></svg>