<svg xmlns="http://www.w3.org/2000/svg" viewBox="0 0 24 24" width="24" height="24"><defs><style>.a{fill:none;stroke:#000;stroke-linecap:round;stroke-linejoin:round;stroke-width:1.5px}</style></defs><title>sports-car-1</title><circle class="a" cx="18.795" cy="15.75" r="1.5"/><circle class="a" cx="6.795" cy="15.75" r="1.5"/><path class="a" d="M17.295 15.75h-9m12.005 0h1.5a1.5 1.5 0 0 0 1.5-1.5v-1.608a3 3 0 0 0-2.1-2.862A14.668 14.668 0 0 0 17.641 9H9.8c-3 0-3-1.5-9-1.5v3.75a4.5 4.5 0 0 0 4.5 4.5"/><path class="a" d="M20.3 9.513s-3.75-4.263-9-4.263c-6.75 0-6 2.25-9.75 2.25H.8m13.495 5.25h-4.5m-9-2.25h2.25"/></svg>