<svg xmlns="http://www.w3.org/2000/svg" viewBox="0 0 24 24" width="24" height="24"><g fill="none" stroke="#000" stroke-linejoin="round" stroke-miterlimit="10"><path stroke-linecap="round" d="M9 9.502c0-.553.447-.5 1-.5s1-.053 1 .5m2 0c0-.553.447-.5 1-.5s1-.053 1 .5M9.446 15.5C5.149 16.228.5 16.078.5 20.245V23.5h23v-3.255c0-4.168-4.477-3.991-8.93-4.745"/><path stroke-linecap="round" d="M12 16.5c1.5 0 5-2 5-5 1.5 0 1.5-3 0-3L16.504 6c-3.008 0-3.998-.5-4.498-1-.5.5-1.511 1-4.503 1L7 8.5c-1.5 0-1.5 3 0 3 0 3 3.5 5 5 5z"/><path d="M17.997 9.251s.229-.976.444-4.275a5.99 5.99 0 00-.84-3.474L17 .5l-1.185 1.185a1.003 1.003 0 01-1.507-.106L13.5.5l-.7.934a1 1 0 01-1.6 0L10.5.5l-.808 1.078a1.002 1.002 0 01-1.507.107L7 .5l-.601 1.002a5.982 5.982 0 00-.839 3.474c.216 3.3.46 4.275.46 4.275"/><path stroke-linecap="round" d="M7 15.855l1.701 3.886a3 3 0 002.73 1.759h1.137a2.998 2.998 0 002.73-1.759l1.703-3.886M4.5 16.271l-1 7.229m15.914-7.253L20.5 23.5"/></g><path fill="none" d="M0 0h24v24H0z"/></svg>