<svg xmlns="http://www.w3.org/2000/svg" viewBox="0 0 24 24" width="24" height="24"><defs><style>.a{fill:none;stroke:#000;stroke-linecap:round;stroke-linejoin:round;stroke-width:1.5px}</style></defs><title>sports-car-2</title><path class="a" d="M19.69 9.1L18 4.886A3 3 0 0 0 15.219 3H8.781A3 3 0 0 0 6 4.886L4.31 9.1m-2.06 7.754V19.5a1.5 1.5 0 0 0 3 0V18m16.5-1.146V19.5a1.5 1.5 0 0 1-3 0V18"/><path class="a" d="M23.25 13.5a4.5 4.5 0 0 1-4.5 4.5H5.25a4.5 4.5 0 0 1 0-9h13.5a4.5 4.5 0 0 1 4.5 4.5zm-19.5 0h16.5M9.75 9L7.5 13.5M14.25 9l2.25 4.5m-6.75 0V18m4.5-4.5V18"/><path class="a" d="M.75 7.5H3l1.311 1.599M23.25 7.5H21l-1.311 1.599"/></svg>