<svg xmlns="http://www.w3.org/2000/svg" viewBox="0 0 24 24" width="24" height="24"><defs><style>.a{fill:none;stroke:#000;stroke-linecap:round;stroke-linejoin:round;stroke-width:1.5px}</style></defs><title>sports-car-convertible-1</title><circle class="a" cx="18.75" cy="15.5" r="1.5"/><circle class="a" cx="5.25" cy="15.5" r="1.5"/><path class="a" d="M3.75 15.5h-1.5A1.5 1.5 0 0 1 .75 14a4.5 4.5 0 0 1 4.5-4.5 1.5 1.5 0 0 1 1.5 1.5h6.75A1.5 1.5 0 0 0 15 9.5h3.75a4.5 4.5 0 0 1 4.5 4.5 1.5 1.5 0 0 1-1.5 1.5h-1.5m-3 0H6.75m8.25-6l-2.25-3m-3 4.5l-1.5-3.75"/></svg>