<svg id="Regular" xmlns="http://www.w3.org/2000/svg" viewBox="0 0 24 24" width="24" height="24"><defs><style>.cls-1{fill:none;stroke:#000;stroke-linecap:round;stroke-linejoin:round;stroke-width:1.5px}</style></defs><title>sport-curling</title><circle class="cls-1" cx="13.875" cy="4.125" r="2.625"/><path class="cls-1" d="M23.25 21a1.5 1.5 0 0 1-1.5 1.5h-3a1.5 1.5 0 0 1 0-3h3a1.5 1.5 0 0 1 1.5 1.5zm-1.5-1.5V18a1.5 1.5 0 0 0-1.5-1.5h-1.5m-1.323-6.111a6.019 6.019 0 0 1-2.622-.942A12.21 12.21 0 0 0 2.5 8.963 1.5 1.5 0 0 0 3.939 11.6a8.945 8.945 0 0 1 3.977-1.048l-2.451 5.1a1.507 1.507 0 0 1-1.352.85H2.25a1.5 1.5 0 0 0 0 3h1.863a4.522 4.522 0 0 0 4.056-2.552l.246-.512L9.9 17.55a1.508 1.508 0 0 1 .6 1.2V21a1.5 1.5 0 0 0 3 0v-2.25a4.515 4.515 0 0 0-1.8-3.6l-1.961-1.47 1.306-2.72a8.706 8.706 0 0 1 2.118 1 9.034 9.034 0 0 0 3.937 1.411 1.553 1.553 0 0 0 .166.009 1.5 1.5 0 0 0 .162-2.991z"/></svg>