<svg xmlns="http://www.w3.org/2000/svg" viewBox="0 0 24 24" width="24" height="24"><defs><style>.a{fill:none;stroke:#000;stroke-linecap:round;stroke-linejoin:round;stroke-width:1.5px}</style></defs><title>sports-car</title><circle class="a" cx="18.75" cy="15.75" r="1.5"/><circle class="a" cx="6.75" cy="15.75" r="1.5"/><path class="a" d="M17.25 15.75h-9m-3 0h-3a1.5 1.5 0 0 1-1.5-1.5v-1.5a1.5 1.5 0 0 1 1.5-1.5H3c2.25 0 5.25-4.5 8.25-4.5H15a2.426 2.426 0 0 1 2.171 1.342l1.579 3.158h1.5a3 3 0 0 1 3 3 1.5 1.5 0 0 1-1.5 1.5h-1.5"/><path class="a" d="M2.25 11.25V9l-1.5-.75m18 3H3"/></svg>