<svg xmlns="http://www.w3.org/2000/svg" viewBox="0 0 24 24" width="24" height="24"><defs><style>.a{fill:none;stroke:#000;stroke-linecap:round;stroke-linejoin:round;stroke-width:1.5px}</style></defs><title>squeeze-sides</title><path class="a" d="M9.346 16.5h7.904M6.75 8.25a1.5 1.5 0 0 0-1.5 1.5v6.75a1.5 1.5 0 0 0 1.5 1.5 3 3 0 0 0 3-3v-3.75a3 3 0 0 0-3-3z"/><path class="a" d="M6.75 18v.75A2.25 2.25 0 0 0 9 21h6a2.25 2.25 0 0 0 2.25-2.25V5.25A2.25 2.25 0 0 0 15 3H9a2.25 2.25 0 0 0-2.25 2.25v3m16.5 6c-1.281-.213-1.5-1.7-1.5-3a2.25 2.25 0 0 0-4.5 0m-.118 8.221L23.25 21M.75 7.5L3 5.25.75 3m22.5 4.5L21 5.25 23.25 3"/></svg>