<svg xmlns="http://www.w3.org/2000/svg" viewBox="0 0 24 24" width="24" height="24"><defs><style>.a{fill:none;stroke:#000;stroke-linecap:round;stroke-linejoin:round;stroke-width:1.5px}</style></defs><title>stairs-person-ascend</title><circle class="a" cx="6.75" cy="3.938" r="2.625"/><path class="a" d="M16.693 11.1A5.5 5.5 0 0 0 12 8.438H5.871a3.023 3.023 0 0 0-2.121.879l-2.561 2.56A1.5 1.5 0 0 0 3.311 14l1.939-1.941v9.129a1.5 1.5 0 0 0 3 0v-3.75a1.5 1.5 0 0 0 .439 1.06l2.25 2.25a1.5 1.5 0 0 0 2.122-2.121l-1.811-1.81v-5.379H12a2.485 2.485 0 0 1 2.121 1.2 1.5 1.5 0 0 0 2.572-1.538zm6.557 5.588h-3v3h-3v3h-3"/></svg>