<svg xmlns="http://www.w3.org/2000/svg" viewBox="0 0 24 24" width="24" height="24"><defs><style>.a{fill:none;stroke:#000;stroke-linecap:round;stroke-linejoin:round;stroke-width:1.5px}</style></defs><title>stamps-famous</title><path class="a" d="M21 16.5a2.247 2.247 0 0 1 .843-1.756 3.761 3.761 0 0 0 1.407-2.935 3 3 0 0 0-1.285-2.462 2.25 2.25 0 0 1 .227-3.833A2 2 0 0 0 23.25 3.75a3 3 0 0 0-3-3 2 2 0 0 0-1.764 1.058 2.25 2.25 0 0 1-3.742.349A3.761 3.761 0 0 0 11.809.75a3 3 0 0 0-2.462 1.285 2.25 2.25 0 0 1-3.833-.227A2 2 0 0 0 3.75.75a3 3 0 0 0-3 3 2 2 0 0 0 1.058 1.764 2.25 2.25 0 0 1 .349 3.742A3.761 3.761 0 0 0 .75 12.191a3 3 0 0 0 1.285 2.462 2.25 2.25 0 0 1-.227 3.833A2 2 0 0 0 .75 20.25a3 3 0 0 0 3 3 2 2 0 0 0 1.764-1.058 2.25 2.25 0 0 1 3.742-.349 3.761 3.761 0 0 0 2.935 1.407 3 3 0 0 0 2.462-1.285 2.25 2.25 0 0 1 3.833.227 2 2 0 0 0 1.764 1.058 3 3 0 0 0 3-3 2 2 0 0 0-1.058-1.764A2.249 2.249 0 0 1 21 16.5z"/><path class="a" d="M6.75 6.75h10.5v10.5H6.75z"/><path class="a" d="M12 6.75l-3 6h3.75v4.5m1.5-7.875a.375.375 0 1 0 .375.375.375.375 0 0 0-.375-.375"/></svg>