<svg id="Regular" xmlns="http://www.w3.org/2000/svg" viewBox="0 0 24 24" width="24" height="24"><defs><style>.cls-1{fill:none;stroke:#000;stroke-linecap:round;stroke-linejoin:round;stroke-width:1.5px}</style></defs><title>standing-lamp-double</title><path class="cls-1" d="M11.253.75v22.5m-6.75 0h13.5M5.016 14.727l-3.99-3.99A.932.932 0 0 1 1.3 9.228l3.677-1.641a.932.932 0 0 1 1.038.192l1.9 1.9a.931.931 0 0 1 .2 1.02l-1.583 3.732a.931.931 0 0 1-1.516.296zm17.961-8.298l-3.945 3.945a.922.922 0 0 1-1.5-.288l-1.553-3.617a.92.92 0 0 1 .2-1.016l1.882-1.882a.924.924 0 0 1 1.017-.2l3.611 1.559a.922.922 0 0 1 .288 1.499zM11.253 2.25h3.129a1.5 1.5 0 0 1 1.06.439L17.1 4.5"/><path class="cls-1" d="M11.253 6.75H9.624a1.5 1.5 0 0 0-1.06.439L7 8.765"/></svg>