<svg xmlns="http://www.w3.org/2000/svg" viewBox="0 0 24 24" width="24" height="24"><g fill="none" stroke="#000" stroke-linejoin="round" stroke-miterlimit="10"><path d="M3.5 14.5a3 3 0 013 3v1H20a2.5 2.5 0 012.5 2.5v.5h-21a1 1 0 01-1-1v-3a3 3 0 013-3z"/><path d="M18.605 5.43l2.133 2.133a1 1 0 010 1.415l-7.475 7.474a.999.999 0 01-1.414 0L9.717 14.32"/><path d="M2.232 14.732L12.459 4.506a4.996 4.996 0 017.07 0L6.508 17.528"/><path stroke-linecap="round" d="M13 14l5.355-5.354"/></g><path fill="none" d="M0 0h24v24H0z"/></svg>