<svg xmlns="http://www.w3.org/2000/svg" viewBox="0 0 24 24" width="24" height="24"><defs><style>.a{fill:none;stroke:#000;stroke-linecap:round;stroke-linejoin:round;stroke-width:1.5px}</style></defs><title>startup-launch-1</title><path class="a" d="M5.536 21.9c-1.3 1.3-3.911.729-3.911.729s-.574-2.608.729-3.911a1.922 1.922 0 0 1 2.983.2 1.922 1.922 0 0 1 .199 2.982zM19.41 4.839l1.307-1.307m-1.133 5.874l-.174-4.567-4.567-.174a4.118 4.118 0 0 0-3.378 1.893L6.5 14.775l2.966 2.97 8.217-4.961a4.113 4.113 0 0 0 1.901-3.378z"/><path class="a" d="M8.577 11.342l-1.1-.39a1.9 1.9 0 0 0-2 .4l-1.924 1.919a.473.473 0 0 0-.1.493.57.57 0 0 0 .4.365l2.65.65m6.366.914l.424 1.078a1.9 1.9 0 0 1-.393 2L10.978 20.7a.472.472 0 0 1-.494.1.571.571 0 0 1-.364-.4l-.65-2.65"/><circle class="a" cx="14.883" cy="9.366" r="1.5"/><path class="a" d="M22.25 17.154H20.5a.955.955 0 0 0-.894 1.006 1.013 1.013 0 0 0 .562.935l1.77.618a1.014 1.014 0 0 1 .562.935.955.955 0 0 1-.894 1.006H19.5m1.5-4.5v-1m0 6.5v-1M4.249 2.154H2.5a.955.955 0 0 0-.895 1.006 1.013 1.013 0 0 0 .562.935l1.77.618a1.014 1.014 0 0 1 .562.935.955.955 0 0 1-.894 1.006H1.5m1.499-4.5v-1m0 6.5v-1"/></svg>