<svg xmlns="http://www.w3.org/2000/svg" viewBox="0 0 24 24" width="24" height="24"><defs><style>.a{fill:none;stroke:#000;stroke-linecap:round;stroke-linejoin:round;stroke-width:1.5px}</style></defs><title>startup-launch</title><path class="a" d="M17.25 5.25h1.5a1.5 1.5 0 0 1 1.5 1.5v7.5a1.5 1.5 0 0 1-1.5 1.5H16.5m-9 0H5.25a1.5 1.5 0 0 1-1.5-1.5v-7.5a1.5 1.5 0 0 1 1.5-1.5h1.5m11.821 10.5a3 3 0 0 1 2.683 1.658l1.836 3.671a1.5 1.5 0 0 1-1.342 2.171H2.252A1.5 1.5 0 0 1 .91 21.079l1.836-3.671a3 3 0 0 1 2.683-1.658M14.25 3.956C14.25 2.185 12 .75 12 .75S9.75 2.185 9.75 3.956v7.481h4.5z"/><path class="a" d="M9.75 11.437H7.012a.6.6 0 0 1-.445-.186.432.432 0 0 1-.1-.416A5.118 5.118 0 0 1 9.75 7.687m4.5 3.75h2.738a.6.6 0 0 0 .444-.186.43.43 0 0 0 .1-.416 5.129 5.129 0 0 0-3.282-3.148M10.5 14.25v2.25m3-2.25v4.5"/></svg>