<svg xmlns="http://www.w3.org/2000/svg" viewBox="0 0 24 24" width="24" height="24"><g fill="none" stroke="#000" stroke-linejoin="round" stroke-miterlimit="10"><path stroke-linecap="round" d="M17.297 12.513a5.5 5.5 0 11-10.583-.037m11.669-5.513A9.475 9.475 0 0121.5 14a9.5 9.5 0 01-9.5 9.5A9.499 9.499 0 012.5 14a9.476 9.476 0 013.07-6.993"/><path d="M12 .929L13.429 4.5H17l-2.857 2.616 1.072 3.987L12 8.633l-3.215 2.513 1.072-4.038L7 4.5h3.571z"/><path stroke-linecap="round" d="M12 8.633l-2.521 6.888M12 8.633l2.521 6.888"/></g><path fill="none" d="M0 0h24v24H0z"/></svg>