<svg xmlns="http://www.w3.org/2000/svg" viewBox="0 0 24 24" width="24" height="24"><g fill="none" stroke="#000" stroke-linecap="round" stroke-linejoin="round" stroke-miterlimit="10"><path d="M15.496 1.5h4.5a3 3 0 010 6h-.5c-.817 0-1.544-.107-2 .5l-4.62 8.736"/><path d="M16.746 21.5a1.75 1.75 0 00.247-3.482l-3.447-1.058a2.501 2.501 0 01-2.05-2.46v-2h-5.5a4.5 4.5 0 000 9h10.75z"/><circle cx="7.496" cy="17" r="1.5"/><path d="M8.557 18.061L9.996 19.5m-1.5 0h2.5m-9-15a1.5 1.5 0 000 3h5.25c.86 0 1.039-1.223.214-1.469C7.133 5.934 2.338 4.5 1.996 4.5zm2 3l4.5 5m-3 9l-1.5 1.5m14-2l2 2"/></g><path fill="none" d="M0 0h24v24H0z"/></svg>