<svg id="Regular" xmlns="http://www.w3.org/2000/svg" viewBox="0 0 24 24" width="24" height="24"><defs><style>.cls-1{fill:none;stroke:#000;stroke-linecap:round;stroke-linejoin:round;stroke-width:1.5px}</style></defs><title>steampunk-decoration</title><circle class="cls-1" cx="12" cy="12" r="11.25"/><path class="cls-1" d="M12.087 5.816a1.5 1.5 0 1 1-2.92.687c-.19-.806.945-2.534.945-2.534S11.9 5.01 12.087 5.816z"/><circle class="cls-1" cx="12" cy="12" r="1.5"/><path class="cls-1" d="M11.657 10.54l-.687-2.92m4.002 9.804a1.5 1.5 0 1 1 2.2-2.037c.562.608.426 2.67.426 2.67s-2.063-.025-2.626-.633zm-1.954-4.322l2.037 2.202M12 18.75A6.75 6.75 0 0 1 6.969 7.5m8.771-1.119A6.742 6.742 0 0 1 18.75 12"/></svg>