<svg id="Regular" xmlns="http://www.w3.org/2000/svg" viewBox="0 0 24 24" width="24" height="24"><defs><style>.cls-1{fill:none;stroke:#000;stroke-linecap:round;stroke-linejoin:round;stroke-width:1.5px}</style></defs><title>steampunk-decoration-dia-de-los-muertos</title><path class="cls-1" d="M21.851 10.5a9.75 9.75 0 1 0-16.5 7.026V21a2.25 2.25 0 0 0 4.5 0 2.25 2.25 0 0 0 4.5 0 2.25 2.25 0 0 0 4.5 0v-3.474a9.714 9.714 0 0 0 3-7.026z"/><circle class="cls-1" cx="7.601" cy="10.5" r="2.25"/><path class="cls-1" d="M12.101 15.75v1.5M2.351.75l-1.5 1.5m.75-.75l2.901 2.901"/><rect class="cls-1" x="14.351" y="8.25" width="4.5" height="4.5" rx=".75" ry=".75" transform="rotate(-45 16.6 10.5)"/><path class="cls-1" d="M18.851.75l-1.2 1.734m5.498 3.705l-1.965.767m.212-3.82l-1.653 1.309"/></svg>