<svg xmlns="http://www.w3.org/2000/svg" viewBox="0 0 24 24" width="24" height="24"><path fill="none" stroke="#000" stroke-linecap="round" stroke-linejoin="round" stroke-miterlimit="10" d="M8.949 20a2.5 2.5 0 11-4.898 0l1.035-3.5a1.5 1.5 0 012.829.002L8.949 20z"/><path fill="none" stroke="#000" stroke-linejoin="round" stroke-miterlimit="10" d="M5 17s.976.5 1.5.5S8 17 8 17"/><path fill="none" stroke="#000" stroke-linecap="round" stroke-linejoin="round" stroke-miterlimit="10" d="M6.5 17.5v2c0 .5.5 1 1 1H9m-2.5-1c0 .5-.5 1-1 1H4"/><path fill="none" stroke="#000" stroke-linecap="round" stroke-linejoin="round" stroke-miterlimit="10" d="M10.498 13.362c.438.312.818.698 1.125 1.139a4.63 4.63 0 01.828 2.649 4.621 4.621 0 01-.977 2.85s-1.427 1.334-2.975 2.053"/><path fill="none" stroke="#000" stroke-linejoin="round" stroke-miterlimit="10" d="M11.5 14.265V12.5c0-.5-.5-1.5-1.5-1.5s-1.5 1.5-1.5 1.5h-4S4 11 3 11s-1.5 1-1.5 1.5v1.718"/><path fill="none" stroke="#000" stroke-linecap="round" stroke-linejoin="round" stroke-miterlimit="10" d="M4.496 21.917c-1.383-.592-2.574-1.42-2.574-1.42A4.636 4.636 0 01.5 17.15a4.638 4.638 0 012-3.822M2 .5l8 8 5-4 8.5 9"/><path fill="none" stroke="#000" stroke-linecap="round" stroke-linejoin="round" stroke-miterlimit="10" d="M16.5 13.5h7V7"/><path d="M9.5 14.5a.5.5 0 100 1 .5.5 0 000-1zm-5.5 0a.5.5 0 100 1 .5.5 0 000-1z"/></svg>