<svg xmlns="http://www.w3.org/2000/svg" viewBox="0 0 24 24" width="24" height="24"><path fill="none" stroke="#000" stroke-linejoin="round" stroke-miterlimit="10" d="M5.317 15.05c.767.118.657.456 1.683.456.983 0 1.051-.319 1.727-.442"/><path fill="none" stroke="#000" stroke-linecap="round" stroke-linejoin="round" stroke-miterlimit="10" d="M10.197 15.509c.774.79 1.303 1.798 1.303 2.991l-2 2.5-.5 2c-.24.268-1.611.5-2 .5s-1.76-.232-2-.5l-.5-2-2-2.5c0-1.192.666-2.202 1.438-2.992"/><path fill="none" stroke="#000" stroke-linecap="round" stroke-linejoin="round" stroke-miterlimit="10" d="M2.689 17.188l-.876-.438C.938 16.312.5 15.874.5 14.559c0-.967.784-2.059 1.752-2.059h1.312c.876 0 1.314-1.752 1.314-1.752s1.313 1.185 1.313 2.499c0 1.313-.876 2.26-1.752 2.26S2.5 15.5 2.5 15.5m8.811 1.688l.876-.438c.876-.438 1.313-.876 1.313-2.19 0-.967-.784-2.059-1.752-2.059h-1.312c-.876 0-1.314-1.752-1.314-1.752s-1.313 1.185-1.313 2.499c0 1.313.876 2.254 1.752 2.254h1.94M2 .5l8 8 5-4 8.5 9"/><path fill="none" stroke="#000" stroke-linecap="round" stroke-linejoin="round" stroke-miterlimit="10" d="M16.5 13.5h7V7"/><path d="M9 17a.5.5 0 100 1 .5.5 0 000-1zm-4 0a.5.5 0 100 1 .5.5 0 000-1z"/></svg>