<svg xmlns="http://www.w3.org/2000/svg" viewBox="0 0 24 24" width="24" height="24"><path fill="none" stroke="#000" stroke-linecap="round" stroke-linejoin="round" stroke-miterlimit="10" d="M2 13.5l9-9 5 4 7.5-8"/><path fill="none" stroke="#000" stroke-linecap="round" stroke-linejoin="round" stroke-miterlimit="10" d="M16.5.5h7V7"/><path fill="none" stroke="#000" stroke-linejoin="round" stroke-miterlimit="10" d="M15.317 15.05c.767.118.656.456 1.683.456.983 0 1.051-.319 1.727-.442"/><path fill="none" stroke="#000" stroke-linecap="round" stroke-linejoin="round" stroke-miterlimit="10" d="M20.197 15.509c.774.79 1.303 1.798 1.303 2.991l-2 2.5-.5 2c-.24.268-1.611.5-2 .5s-1.76-.232-2-.5l-.5-2-2-2.5c0-1.192.666-2.202 1.438-2.992"/><path fill="none" stroke="#000" stroke-linecap="round" stroke-linejoin="round" stroke-miterlimit="10" d="M12.689 17.188l-.876-.438c-.876-.438-1.313-.876-1.313-2.19 0-.967.784-2.059 1.752-2.059h1.312c.876 0 1.314-1.752 1.314-1.752s1.313 1.185 1.313 2.499c0 1.313-.876 2.26-1.752 2.26S12.5 15.5 12.5 15.5m8.811 1.688l.876-.438c.876-.438 1.313-.876 1.313-2.19 0-.967-.784-2.059-1.752-2.059h-1.312c-.876 0-1.314-1.752-1.314-1.752s-1.313 1.185-1.313 2.499c0 1.313.876 2.254 1.752 2.254h1.94"/><path d="M19 17a.5.5 0 100 1 .5.5 0 000-1zm-4 0a.5.5 0 100 1 .5.5 0 000-1z"/></svg>