<svg xmlns="http://www.w3.org/2000/svg" viewBox="0 0 24 24" width="24" height="24"><g fill="none" stroke="#000" stroke-linejoin="round" stroke-miterlimit="10"><path stroke-linecap="round" d="M15 16.5c0 .525.115 1.022.322 1.47 0 0 .678 1.53.678 2.53s-.5 3-.5 3H18l.5-2.5s.5-.5 1.673-1.425C21.146 18.807 22 17.827 22 16.5c0-1.933-1.624-3.031-3.5-3.5-3.724-.931-2.877-4-7.5-4-3.062 0-5.477 2.2-8.142 3.977M.537 9.5s1.123 1.411.751 2.947c-.235.972-.828 2.077-.786 2.575.042.499.425 1.47 1.123 1.411.498-.042 1.326-2.119 1.158-4.112C2.614 10.328.537 9.5.537 9.5z"/><path stroke-linecap="round" d="M.5 15s0 3.5.5 4 2-.5 2.5-1 1-1.5 1-2.5M9 18s.5.5.5 1.5c0 1.5-1 4-1 4H10l2.5-4.5h3.188M4.5 17c1 0 3.5.5 4.5 1"/><path stroke-linecap="round" d="M7 17.5s-2 2-2 2.5 1 2 1 2l1-.5s0-.5.5-1 2-1 2-1"/><path d="M21.868 17.369c-.102.381-.18 1.006.132 1.631.633 1.265 1.5 1.5 1.5 1.5l-.5 3h-2s.5-1 0-2-2.016-1-2.016-1m2.61-5.531S23 14.5 23 13s-1.5-2-2.5-2-2.5-.5-3-1.5 0-2 0-2-.5-1 0-2 1.5-1 1.5-1 .5 1 0 2-1.5 1-1.5 1"/></g></svg>