<svg xmlns="http://www.w3.org/2000/svg" viewBox="0 0 24 24" width="24" height="24"><g fill="none" stroke="#000" stroke-linejoin="round" stroke-miterlimit="10"><path stroke-linecap="round" d="M13.712 17.107c.294.464.344.802.344 1.393 0 .818-.328 1.559-.858 2.1l.858 2.9h-3.5L9.5 19m3.556-4.5s.5 1 2 2 4.5 1 4.5 1l2-2s-3-1-3.854-2.295c-.872-1.32.354-3.205.354-3.205s2.5-1 3.5-2 1-3 .5-3h-4.25s-.75-1-1.75-.5 0 1 0 1c-1.475.737-3.072.855-4.5 1.5-2.167.979-2.326 2.296-4.059 2.586a6.528 6.528 0 00-4.433 2.935"/><path stroke-linecap="round" d="M3.147 12.373c-.32.383-.802.627-1.341.627H.556s-.5 3 1.5 3a6.49 6.49 0 002.533 5.15l.467 2.35H8.5V20c.713-.641 1.056-1.465 1.056-2.5 0-.981-.404-1.869-1.055-2.504"/><path stroke-linecap="round" d="M9.189 19.059s1.347-.092 2.992-.836c1.646-.745 2.259-2.176 2.259-2.176"/><path d="M17.766 10.5h2.29c2 0 3.5-.5 3.5-.5s-.5 2.5-1 3-4.04 1-4.04 1"/></g></svg>