<svg xmlns="http://www.w3.org/2000/svg" viewBox="0 0 24 24" width="24" height="24"><path fill="none" stroke="#000" stroke-linecap="round" stroke-linejoin="round" stroke-miterlimit="10" d="M2 13.5l9-9 5 4 7.5-8"/><path fill="none" stroke="#000" stroke-linecap="round" stroke-linejoin="round" stroke-miterlimit="10" d="M16.5.5h7V7m-3.551 13a2.5 2.5 0 11-4.898 0l1.035-3.5a1.5 1.5 0 012.829.002L19.949 20z"/><path fill="none" stroke="#000" stroke-linejoin="round" stroke-miterlimit="10" d="M16 17s.976.5 1.5.5S19 17 19 17"/><path fill="none" stroke="#000" stroke-linecap="round" stroke-linejoin="round" stroke-miterlimit="10" d="M17.5 17.5v2c0 .5.5 1 1 1H20m-2.5-1c0 .5-.5 1-1 1H15"/><path fill="none" stroke="#000" stroke-linecap="round" stroke-linejoin="round" stroke-miterlimit="10" d="M21.498 13.362c.438.312.818.698 1.125 1.139a4.63 4.63 0 01.828 2.649 4.621 4.621 0 01-.977 2.85s-1.427 1.334-2.975 2.053"/><path fill="none" stroke="#000" stroke-linejoin="round" stroke-miterlimit="10" d="M22.5 14.265V12.5c0-.5-.5-1.5-1.5-1.5s-1.5 1.5-1.5 1.5h-4S15 11 14 11s-1.5 1-1.5 1.5v1.718"/><path fill="none" stroke="#000" stroke-linecap="round" stroke-linejoin="round" stroke-miterlimit="10" d="M15.496 21.917c-1.383-.592-2.574-1.42-2.574-1.42A4.636 4.636 0 0111.5 17.15a4.638 4.638 0 012-3.822"/><path d="M20.5 14.5a.5.5 0 100 1 .5.5 0 000-1zm-5.5 0a.5.5 0 100 1 .5.5 0 000-1z"/></svg>