<svg xmlns="http://www.w3.org/2000/svg" viewBox="0 0 24 24" width="24" height="24"><path d="M9.5 11.5a2 2 0 00-2-2H5.34a2 2 0 00-1.993 1.834l-.667 10a2.008 2.008 0 00.521 1.521c.38.411.913.645 1.473.645H7.5a2 2 0 002-2v-10zm5 0a2 2 0 012-2h2.16a2 2 0 011.993 1.834l.667 10a2.008 2.008 0 01-.521 1.521 2.004 2.004 0 01-1.472.646H16.5a2 2 0 01-2-2V11.5zm-14-6h23v4H.5z" fill="none" stroke="#000" stroke-linecap="round" stroke-linejoin="round" stroke-miterlimit="10"/><path fill="none" d="M0 0h24v24H0z"/></svg>