<svg xmlns="http://www.w3.org/2000/svg" viewBox="0 0 24 24" width="24" height="24"><defs><style>.a{fill:none;stroke:#000;stroke-linecap:round;stroke-linejoin:round;stroke-width:1.5px}</style></defs><title>stop-sign</title><path class="a" d="M15.2 6.407l-3-1a3 3 0 0 0-3.95 2.846v4.5l-1.791-1.436a1.129 1.129 0 0 0-1.646.256 1.129 1.129 0 0 0 0 1.253l2.569 3.854a4.65 4.65 0 0 0 3.868 2.07h2.239a3.763 3.763 0 0 0 2.66-1.1 3.763 3.763 0 0 0 1.1-2.659V9.253A3 3 0 0 0 15.2 6.407z"/><path class="a" d="M6.75 23.25h10.5l6-6V6.75l-6-6H6.75l-6 6v10.5l6 6z"/></svg>