<svg xmlns="http://www.w3.org/2000/svg" viewBox="0 0 24 24" width="24" height="24"><g fill="none" stroke="#000" stroke-linecap="round" stroke-linejoin="round" stroke-miterlimit="10"><path d="M2.5 13l.007-2.662M21.5 20.5l.007 2h-19l-.007-2m19.007-10.162L21.5 13m.007-10.5h-19l-2 4h23z"/><path d="M23.507 7.5c0 2.302-2.76 4.228-5 2-1.454 2.31-4.658 2.73-6.5.64-1.862 2.117-5.065 1.638-6.5-.64-2.214 2.206-5 .327-5-2v-1h23v1z"/><path d="M5.507 9.5v-3l1-4m5.5 7.646V2.5m6.5 7v-3l-1-4M21.007 18.5H19.5v-4h1.507M19.5 16.283h1m-15-.847c-.121-.562-.394-.936-.979-.936-.906 0-1.021.895-1.021 2 0 1.104.114 2 1.021 2 .586 0 .858-.374.979-.936m3.507.936H7.5v-4m6 2c0 1.106-.558 2-1.5 2s-1.5-.894-1.5-2c0-1.102.558-2 1.5-2s1.5.898 1.5 2zm2 1.062c.03.523.437.937.935.937.518 0 .937-.448.937-1 0-.815-.771-.953-.936-.999-.163-.049-.936-.187-.936-1.001 0-.553.418-.999.936-.999.498 0 .905.412.936.935"/></g><path fill="none" d="M0 0h24v24H0z"/></svg>