<svg xmlns="http://www.w3.org/2000/svg" viewBox="0 0 24 24" width="24" height="24"><path fill="none" stroke="#000" stroke-linecap="round" stroke-linejoin="round" stroke-miterlimit="10" d="M21.502 10.338V22.5h-19V10.338"/><path fill="none" stroke="#000" stroke-linecap="round" stroke-linejoin="round" stroke-miterlimit="10" d="M4.502 13.5h8v6h-8zm10 0h5v9h-5zm7-11h-19l-2 4h23zm2 5c0 2.302-2.76 4.228-5 2-1.454 2.31-4.658 2.73-6.5.64-1.862 2.117-5.065 1.638-6.5-.64-2.214 2.206-5 .327-5-2v-1h23v1z"/><path fill="none" stroke="#000" stroke-linecap="round" stroke-linejoin="round" stroke-miterlimit="10" d="M5.502 9.5v-3l1-4m5.5 7.646V2.5m6.5 7v-3l-1-4"/><path d="M17.502 18a.5.5 0 100 1 .5.5 0 000-1z"/><path fill="none" d="M0 0h24v24H0z"/></svg>