<svg xmlns="http://www.w3.org/2000/svg" viewBox="0 0 24 24" width="24" height="24"><g fill="none" stroke="#000" stroke-linecap="round" stroke-linejoin="round" stroke-miterlimit="10"><path d="M21.505 10.338V22.5h-19V10.338m19-7.838h-19l-2 4h23z"/><path d="M23.505 7.5c0 2.302-2.76 4.228-5 2-1.454 2.31-4.658 2.73-6.5.64-1.862 2.117-5.065 1.638-6.5-.64-2.214 2.206-5 .327-5-2v-1h23v1z"/><path d="M5.505 9.5v-3l1-4m5.5 7.646V2.5m6.5 7v-3l-1-4M14.5 18.5h-2v-4h2m-2 2h1.803m2.197 2v-4l2.005 4-.005-4m-12.005 2c0 1.104-.053 2-.995 2s-1-.896-1-2 .058-2 1-2 .995.896.995 2zm2.005 2v-4h1.065c.796 0 .935.459.935 1 0 .541 0 1-.935 1H8.5"/></g><path fill="none" d="M0 0h24v24H0z"/></svg>