<svg xmlns="http://www.w3.org/2000/svg" viewBox="0 0 24 24" width="24" height="24"><g fill="none" stroke="#000" stroke-linecap="round" stroke-linejoin="round" stroke-miterlimit="10"><path d="M21.5 10.338V22.5h-19V10.338m19-7.838h-19l-2 4h23z"/><path d="M23.5 7.5c0 2.302-2.76 4.228-5 2-1.454 2.31-4.658 2.73-6.5.64-1.862 2.117-5.065 1.638-6.5-.64-2.214 2.206-5 .327-5-2v-1h23v1z"/><path d="M5.5 9.5v-3l1-4m5.5 7.646V2.5m6.5 7v-3l-1-4M19.5 19.5h-2v-4h2m-2 2h1.993m-7.993 2l-1.5-4-1.5 4m.375-1h2.264m4.361 1h-2v-4m-8.5 3c.034.584.488 1 1.046 1 .579 0 .954-.5.954-1.121 0-.913-.863-.826-1.047-.879C5.77 17.448 5 17.293 5 16.382c0-.618.421-.882 1-.882.558 0 .966.416 1 1"/></g><path fill="none" d="M0 0h24v24H0z"/></svg>