<svg id="Regular" xmlns="http://www.w3.org/2000/svg" viewBox="0 0 24 24" width="24" height="24"><defs><style>.cls-1{fill:none;stroke:#000;stroke-linecap:round;stroke-linejoin:round;stroke-width:1.5px}</style></defs><title>stove-induction</title><path class="cls-1" d="M.75 13.5h22.5v5a1 1 0 0 1-1 1H1.75a1 1 0 0 1-1-1v-5zM20.534 2.636A1.5 1.5 0 0 0 19.079 1.5H4.921a1.5 1.5 0 0 0-1.455 1.136L.75 13.5h22.5z"/><ellipse class="cls-1" cx="12" cy="7.5" rx="6" ry="3"/><path class="cls-1" d="M12 7.25c.207 0 .375.112.375.25s-.168.25-.375.25-.375-.112-.375-.25.168-.25.375-.25m8.665 14.421a1.5 1.5 0 0 1-1.342.829H4.677a1.5 1.5 0 0 1-1.342-.829L2.25 19.5h19.5zM3.75 16.5h1.5m13.5 0h1.5m-12-3h7.5v6h-7.5z"/></svg>