<svg id="Regular" xmlns="http://www.w3.org/2000/svg" viewBox="0 0 24 24" width="24" height="24"><defs><style>.cls-1{fill:none;stroke:#000;stroke-linecap:round;stroke-linejoin:round;stroke-width:1.5px}</style></defs><title>stove-gas</title><path class="cls-1" d="M11.361 1.125a3.887 3.887 0 0 1 .394 4.432 1.386 1.386 0 0 1-1.477-1.182A3.134 3.134 0 0 0 8.653 7.33a3.546 3.546 0 0 0 3.547 3.545 3.6 3.6 0 0 0 3.544-3.545 5.9 5.9 0 0 0-4.383-6.205zM21 22.875v-4.5a1.5 1.5 0 0 0-1.5-1.5h-15a1.5 1.5 0 0 0-1.5 1.5v4.5"/><circle class="cls-1" cx="16.5" cy="21.375" r="1.5"/><circle class="cls-1" cx="7.5" cy="21.375" r="1.5"/><path class="cls-1" d="M12 13.875v3m3-3a1.5 1.5 0 0 1 1.5 1.5v1.5m-7.5-3a1.5 1.5 0 0 0-1.5 1.5v1.5"/></svg>