<svg id="Regular" xmlns="http://www.w3.org/2000/svg" viewBox="0 0 24 24" width="24" height="24"><defs><style>.cls-1{fill:none;stroke:#000;stroke-linecap:round;stroke-linejoin:round;stroke-width:1.5px}</style></defs><title>stove-gas-1</title><path class="cls-1" d="M5.535.75a3.891 3.891 0 0 1 .394 4.432A1.385 1.385 0 0 1 4.452 4a3.134 3.134 0 0 0-1.625 2.955A3.545 3.545 0 0 0 6.372 10.5a3.6 3.6 0 0 0 3.546-3.545A5.9 5.9 0 0 0 5.535.75zm10.673 0a3.887 3.887 0 0 1 .392 4.432A1.386 1.386 0 0 1 15.125 4 3.134 3.134 0 0 0 13.5 6.955a3.545 3.545 0 0 0 3.545 3.545 3.6 3.6 0 0 0 3.546-3.545A5.9 5.9 0 0 0 16.208.75z"/><rect class="cls-1" x=".75" y="14.25" width="22.5" height="9" rx="1" ry="1"/><circle class="cls-1" cx="6.75" cy="18.75" r="1.5"/><circle class="cls-1" cx="17.25" cy="18.75" r="1.5"/><path class="cls-1" d="M6.75 12.75v1.5m10.5-1.5v1.5"/></svg>