<svg id="Regular" xmlns="http://www.w3.org/2000/svg" viewBox="0 0 24 24" width="24" height="24"><defs><style>.cls-1{fill:none;stroke:#000;stroke-linecap:round;stroke-linejoin:round;stroke-width:1.5px}</style></defs><title>stove-steamer-gas</title><path class="cls-1" d="M18 23.25l-1.121-2.021a.835.835 0 0 0-.691-.413.865.865 0 0 0-.744.332l-.073.1a.865.865 0 0 1-.744.332.838.838 0 0 1-.692-.413l-1.11-2a1.024 1.024 0 0 0-1.65 0l-1.11 2a.838.838 0 0 1-.692.413.865.865 0 0 1-.744-.332l-.073-.1a.865.865 0 0 0-.744-.332.835.835 0 0 0-.691.413L6 23.25m.75-19.5h10.5v11a1 1 0 0 1-1 1h-8.5a1 1 0 0 1-1-1v-11zm-1.5 0h13.5m-15 3h3m-3 4.5h3m13.5-4.5h-3m3 4.5h-3m-10.5-3h10.5M9 3.75a3 3 0 0 1 6 0"/></svg>