<svg xmlns="http://www.w3.org/2000/svg" viewBox="0 0 24 24" width="24" height="24"><defs><style>.a{fill:none;stroke:#000;stroke-linecap:round;stroke-linejoin:round;stroke-width:1.5px}</style></defs><title>strategy-chess</title><path class="a" d="M4.5 13.732h-.7a.991.991 0 0 0-.875.5l-2.175 6h22.5l-2.175-6a.991.991 0 0 0-.875-.5h-.7"/><path class="a" d="M.75 20.229l.3 1.864c.109.668.5 1.136.949 1.136H22c.449 0 .84-.468.949-1.136l.3-1.864m-15.278-6a8.938 8.938 0 0 1 1.468-5.474 16.74 16.74 0 0 1 1.467-1.494H6.993c-.657 0-.774-.358-.978-1a1.01 1.01 0 0 1 .489-1l3.424-2.479V.729s1.956 1.058 2.935 1.555c2.162 1.1 2 2.044 1.962 3.186a1 1 0 0 1-.186.55l-2.265 3.17a7.3 7.3 0 0 1 2.445 5.039m1.816 2.402a.476.476 0 0 1-.111.415.554.554 0 0 1-.416.183H6.682a.552.552 0 0 1-.415-.183.473.473 0 0 1-.111-.415l.408-1.9c.146-.408.612-.5 1.074-.5h7.515c.462 0 .927.092 1.073.5zm2.49-.152a.375.375 0 0 1 .375.375.375.375 0 0 1-.375.375.375.375 0 0 1-.375-.375.375.375 0 0 1 .375-.375"/></svg>