<svg xmlns="http://www.w3.org/2000/svg" viewBox="0 0 24 24" width="24" height="24"><defs><style>.a{fill:none;stroke:#000;stroke-linecap:round;stroke-linejoin:round;stroke-width:1.5px}</style></defs><title>strategy-split</title><path class="a" d="M9.651 6a.553.553 0 0 1-.476-.834L11.524 1a.553.553 0 0 1 .952 0l2.35 4.165a.554.554 0 0 1-.477.835zm-3.239 4.94a.555.555 0 0 0-.589-.761l-4.6.647a.553.553 0 0 0-.365.882l2.792 3.707a.555.555 0 0 0 .955-.122l.9-2.176zM5.38 13.432c4.149 1.3 6.62 3.8 6.62 8.519v1.3m5.588-12.311a.555.555 0 0 1 .589-.761l4.6.647a.553.553 0 0 1 .365.882l-2.792 3.707a.555.555 0 0 1-.955-.122l-.9-2.176zm1.032 2.492c-4.149 1.3-6.62 3.8-6.62 8.519v1.3M12 6v15.951"/></svg>