<svg xmlns="http://www.w3.org/2000/svg" viewBox="0 0 24 24" width="24" height="24"><g fill="none" stroke="#000" stroke-linejoin="round" stroke-miterlimit="10"><path d="M12 23.525c5.625 0 13-15.02 4-16.025H8c-9 1.006-1.625 16.025 4 16.025zm.75-17.587c2.485 0 4.5-2.016 4.5-4.5a4.5 4.5 0 00-4.5 4.5zm-1.5 0a4.501 4.501 0 01-4.5-4.5 4.5 4.5 0 014.5 4.5z"/><path d="M9.25 15.006l1 1m3.5-1l1 1M7 11.006l1 1m3.5-1l1 1m3.5-1l1 1M11.5 18.506l1 1" stroke-linecap="round"/></g><path fill="none" d="M0 0h24v24H0z"/></svg>