<svg xmlns="http://www.w3.org/2000/svg" viewBox="0 0 24 24" width="24" height="24"><defs><style>.a{fill:none;stroke:#000;stroke-linecap:round;stroke-linejoin:round;stroke-width:1.5px}</style></defs><title>street-light</title><path class="a" d="M.75 23.25h22.5M7.5 3.75H3A.75.75 0 0 1 2.25 3V1.5A.75.75 0 0 1 3 .75h5.25V3a.75.75 0 0 1-.75.75zm4.5 13.5V4.5m0 0A3.75 3.75 0 0 0 8.25.75m8.25 3H21a.75.75 0 0 0 .75-.75V1.5A.75.75 0 0 0 21 .75h-5.25V3a.75.75 0 0 0 .75.75zM12 4.5A3.75 3.75 0 0 1 15.75.75m-9 6v1.5m-4.5-1.5l-1.5 1.5m16.5-1.5v1.5m4.5-1.5l1.5 1.5m-7.5 15h-7.5l1.5-6h4.5l1.5 6z"/></svg>