<svg xmlns="http://www.w3.org/2000/svg" viewBox="0 0 24 24" width="24" height="24"><defs><style>.a{fill:none;stroke:#000;stroke-linecap:round;stroke-linejoin:round;stroke-width:1.5px}</style></defs><title>study-owl</title><path class="a" d="M12.4 5.144L20.25 3 12.4.859a1.512 1.512 0 0 0-.79 0L3.75 3l7.855 2.143a1.512 1.512 0 0 0 .795.001zm4.85 2.01V3.82m-9.75.204v2.823M3.75 3.001v3"/><circle class="a" cx="8.25" cy="9.751" r="3"/><path class="a" d="M8.25 9.376a.375.375 0 0 0-.375.375m.75 0a.375.375 0 0 0-.375-.375m0 .75a.375.375 0 0 0 .375-.375m-.75 0a.375.375 0 0 0 .375.375"/><circle class="a" cx="15.75" cy="9.751" r="3"/><path class="a" d="M15.75 9.376a.375.375 0 0 0-.375.375m.75 0a.375.375 0 0 0-.375-.375m0 .75a.375.375 0 0 0 .375-.375m-.75 0a.375.375 0 0 0 .375.375m-6.266 2.36L12 15.001l2.516-2.515"/><path class="a" d="M18 15v2.337a6 6 0 0 1-12 0V15"/><path class="a" d="M18.225 11.447a3.132 3.132 0 0 1 3.525 3.076v2.065a5.217 5.217 0 0 1-5.732 5.142M5.657 11.262A3.149 3.149 0 0 0 2.25 14.4v2.1a5.251 5.251 0 0 0 5.732 5.23"/></svg>