<svg xmlns="http://www.w3.org/2000/svg" viewBox="0 0 24 24" width="24" height="24"><defs><style>.a{fill:none;stroke:#000;stroke-linecap:round;stroke-linejoin:round;stroke-width:1.5px}</style></defs><title>study-brain-1</title><path class="a" d="M11.245 7.5a3.75 3.75 0 1 1 5.255.756M23.25 9a4.5 4.5 0 0 1-4.5 4.5h-1.5M4.563 10.501H6.75m.313 2.999a1.5 1.5 0 0 1 1.5 1.5v3"/><path class="a" d="M17.25 22.5V18h2.25a3.749 3.749 0 0 0 2.8-6.24 4.5 4.5 0 0 0-3.55-7.26 4.525 4.525 0 0 0-.812.075 3.75 3.75 0 0 0-7.438.675c0 .088 0 .175.01.261A4.5 4.5 0 0 0 4.563 10.5H4.5a3.75 3.75 0 0 0 0 7.5h4.063a3.75 3.75 0 0 0 5.687 1.5v3"/><path class="a" d="M14.25 19.5v-3a1.5 1.5 0 0 0-1.5-1.5h-1.5"/></svg>