<svg xmlns="http://www.w3.org/2000/svg" viewBox="0 0 24 24" width="24" height="24"><defs><style>.a{fill:none;stroke:#000;stroke-linecap:round;stroke-linejoin:round;stroke-width:1.5px}</style></defs><title>study-brain</title><path class="a" d="M9 17.366a3.286 3.286 0 0 0-3.285-3.286c-.053 0-.1.013-.154.016m0-4.075c.052 0 .1.016.154.016A3.286 3.286 0 0 0 9 6.751m3-.75v12m3-.635a3.286 3.286 0 0 1 3.285-3.286c.053 0 .1.013.154.016m0-4.075c-.052 0-.1.016-.154.016A3.286 3.286 0 0 1 15 6.751"/><path class="a" d="M23.25 12a3 3 0 0 0-2.183-2.886 2.248 2.248 0 0 0-1.383-3.854 2.3 2.3 0 0 0-.411-.364 3 3 0 0 0-5.461-2.478 2.249 2.249 0 0 0-3.624 0A3 3 0 0 0 4.727 4.9a2.3 2.3 0 0 0-.411.364 2.248 2.248 0 0 0-1.383 3.851 3 3 0 0 0 0 5.773 2.248 2.248 0 0 0 1.383 3.855 2.3 2.3 0 0 0 .411.364 3 3 0 0 0 5.461 2.477 2.249 2.249 0 0 0 3.624 0 3 3 0 0 0 5.461-2.477 2.3 2.3 0 0 0 .411-.364 2.248 2.248 0 0 0 1.383-3.855A3 3 0 0 0 23.25 12z"/></svg>