<svg xmlns="http://www.w3.org/2000/svg" viewBox="0 0 24 24" width="24" height="24"><defs><style>.a{fill:none;stroke:#000;stroke-linecap:round;stroke-linejoin:round;stroke-width:1.5px}</style></defs><title>study-maths-brain</title><path class="a" d="M5.475 3.93c-1.853 2.333-2.94 5.71-4.325 9.3a.751.751 0 0 0 .7 1.02h1.9v3a3 3 0 0 0 3 3h1.5v3m10.5.001v-6.265a9.379 9.379 0 0 0 2.787-4.868M21 1.501v4.5m-2.25-2.25h4.5m-10.5 6H18m-2.625-3a.375.375 0 0 1 .375.375m-.75 0a.375.375 0 0 1 .375-.375m0 .749A.374.374 0 0 1 15 7.126m.75 0a.374.374 0 0 1-.375.375m0 4.499a.375.375 0 0 1 .375.375m-.75.001a.375.375 0 0 1 .375-.376m0 .751a.374.374 0 0 1-.375-.375m.75 0a.374.374 0 0 1-.375.375M9 3.001l.75.75.75-3H15"/></svg>