<svg xmlns="http://www.w3.org/2000/svg" viewBox="0 0 24 24" width="24" height="24"><defs><style>.a{fill:none;stroke:#000;stroke-linecap:round;stroke-linejoin:round;stroke-width:1.5px}</style></defs><title>study-notebook-maths</title><path class="a" d="M22.822 13.387l-6.51 8.606-3.612 1.258.228-3.817 6.51-8.606a2.115 2.115 0 0 1 2.963-.411l.01.007a2.116 2.116 0 0 1 .411 2.963z"/><path class="a" d="M9 23.251H2.25a1.556 1.556 0 0 1-1.5-1.607V5.359a1.557 1.557 0 0 1 1.5-1.608h19.5a1.557 1.557 0 0 1 1.5 1.608v1.392m-18-6v4.5m4.5-4.5v4.5m4.5-4.5v4.5m4.5-4.5v4.5"/><path class="a" d="M3.75 9.376a1.125 1.125 0 0 1 1.125-1.125A1.125 1.125 0 0 1 6 9.376a1.6 1.6 0 0 1-.351 1l-1.9 2.373H6m6.75-4.498h.75a.75.75 0 0 1 .75.75v3.75m-1.5 0H15m-5.25-3.75v3m-1.5-1.5h3"/></svg>