<svg xmlns="http://www.w3.org/2000/svg" viewBox="0 0 24 24" width="24" height="24"><defs><style>.a{fill:none;stroke:#000;stroke-linecap:round;stroke-linejoin:round;stroke-width:1.5px}</style></defs><title>study-exam-math</title><path class="a" d="M7.5 3.751v6m-3-3h6m8.25 3.75l-4.5 4.5m0-4.5l4.5 4.5m-13.5 2.25h5.25m-2.625-3a.375.375 0 0 1 .375.375m-.75 0a.375.375 0 0 1 .375-.375m0 .749a.374.374 0 0 1-.375-.375m.75.001a.374.374 0 0 1-.375.374m0 4.5a.375.375 0 0 1 .375.375m-.75.001a.375.375 0 0 1 .375-.375m0 .75a.374.374 0 0 1-.375-.375m.75 0a.374.374 0 0 1-.375.375"/><path class="a" d="M22.5 21.751a1.5 1.5 0 0 1-1.5 1.5H3a1.5 1.5 0 0 1-1.5-1.5v-19.5A1.5 1.5 0 0 1 3 .751h15.036a1.5 1.5 0 0 1 1.049.427l2.962 2.882a1.5 1.5 0 0 1 .453 1.074z"/></svg>