<svg xmlns="http://www.w3.org/2000/svg" viewBox="0 0 24 24" width="24" height="24"><defs><style>.a{fill:none;stroke:#000;stroke-linecap:round;stroke-linejoin:round;stroke-width:1.5px}</style></defs><title>style-three-pin-ice-skating</title><path class="a" d="M12 .8a9 9 0 0 1 9 9c0 7.9-6.932 12.331-8.629 13.3a.751.751 0 0 1-.743 0C9.931 22.132 3 17.7 3 9.8a9 9 0 0 1 9-9z"/><path class="a" d="M8.25 6.584a.75.75 0 0 1 .513-.711l3-1a.749.749 0 0 1 .987.711v2.71a3.75 3.75 0 0 1 3.75 3.75H9a.75.75 0 0 1-.75-.75zm-.75 8.46h8.25m-6.75-3v3m5.25-3v3"/></svg>