<svg xmlns="http://www.w3.org/2000/svg" viewBox="0 0 24 24" width="24" height="24"><defs><style>.a{fill:none;stroke:#000;stroke-linecap:round;stroke-linejoin:round;stroke-width:1.5px}</style></defs><title>style-three-pin-braille</title><path class="a" d="M12 .8a9 9 0 0 1 9 9c0 7.9-6.932 12.331-8.629 13.3a.751.751 0 0 1-.743 0C9.931 22.132 3 17.7 3 9.8a9 9 0 0 1 9-9zM9.375 9.7a.375.375 0 0 1 .375.375M9 10.073a.375.375 0 0 1 .375-.373m0 .748A.375.375 0 0 1 9 10.073m.75 0a.375.375 0 0 1-.375.375m4.5-5.248a.375.375 0 0 1 .375.375m-.75-.002a.375.375 0 0 1 .375-.375m0 .75a.375.375 0 0 1-.375-.375m.75 0a.375.375 0 0 1-.375.375m0 3.752a.375.375 0 0 1 .375.375m-.75-.002a.375.375 0 0 1 .375-.375m0 .75a.375.375 0 0 1-.375-.375m.75 0a.375.375 0 0 1-.375.375m-4.5 3.752a.375.375 0 0 1 .375.375M9 14.573a.375.375 0 0 1 .375-.375m0 .75A.375.375 0 0 1 9 14.573m.75 0a.375.375 0 0 1-.375.375"/></svg>