<svg xmlns="http://www.w3.org/2000/svg" viewBox="0 0 24 24" width="24" height="24"><defs><style>.a{fill:none;stroke:#000;stroke-linecap:round;stroke-linejoin:round;stroke-width:1.5px}</style></defs><title>style-three-pin-sailing-boat</title><path class="a" d="M12 .8a9 9 0 0 1 9 9c0 7.9-6.932 12.331-8.629 13.3a.751.751 0 0 1-.743 0C9.931 22.132 3 17.7 3 9.8a9 9 0 0 1 9-9z"/><path class="a" d="M9 12.052c-1.5 0-2.25-2.25-2.25-2.25h10.5s-1.5 2.25-2.25 2.25m-8.25 1.5l2.25-1.5 3 1.5 3-1.5 2.25 1.5M12 9.052v-5.25l3.75 2.25-3.75 3z"/></svg>