<svg xmlns="http://www.w3.org/2000/svg" viewBox="0 0 24 24" width="24" height="24"><defs><style>.a{fill:none;stroke:#000;stroke-linecap:round;stroke-linejoin:round;stroke-width:1.5px}</style></defs><title>style-two-pin-wifi</title><path class="a" d="M12 15a.374.374 0 0 1 .375.375m-.747.004A.375.375 0 0 1 12 15m0 .754a.375.375 0 0 1-.375-.375m.753 0a.374.374 0 0 1-.375.375m-3.284-3.52a6 6 0 0 1 6.569 0m1.823-2.37a8.981 8.981 0 0 0-10.215 0"/><path class="a" d="M21 9.754c0 7.9-6.932 12.331-8.629 13.3a.749.749 0 0 1-.743 0C9.931 22.084 3 17.652 3 9.754a9 9 0 0 1 18 0z"/></svg>