<svg xmlns="http://www.w3.org/2000/svg" viewBox="0 0 24 24" width="24" height="24"><defs><style>.a{fill:none;stroke:#000;stroke-linecap:round;stroke-linejoin:round;stroke-width:1.5px}</style></defs><title>style-two-pin-world</title><circle class="a" cx="12" cy="9.755" r="6"/><path class="a" d="M6 9.754h12M10.706 3.9a19.432 19.432 0 0 0 .453 11.8M13.3 3.9a19.376 19.376 0 0 1 .7 5.188 19.288 19.288 0 0 1-1.159 6.612"/><path class="a" d="M21 9.754c0 7.9-6.932 12.331-8.629 13.3a.749.749 0 0 1-.743 0C9.931 22.084 3 17.652 3 9.754a9 9 0 0 1 18 0z"/></svg>