<svg xmlns="http://www.w3.org/2000/svg" viewBox="0 0 24 24" width="24" height="24"><defs><style>.a{fill:none;stroke:#000;stroke-linecap:round;stroke-linejoin:round;stroke-width:1.5px}</style></defs><title>style-three-pin-brush</title><path class="a" d="M12 .8a9 9 0 0 1 9 9c0 7.9-6.932 12.331-8.629 13.3a.751.751 0 0 1-.743 0C9.931 22.132 3 17.7 3 9.8a9 9 0 0 1 9-9z"/><path class="a" d="M9 5.948h7.5v3H9z"/><path class="a" d="M9 7.448h-.75a1.5 1.5 0 0 0-1.5 1.5v1.5a1.5 1.5 0 0 0 1.5 1.5h2.25a1.5 1.5 0 0 1 1.5 1.5v.75"/><path class="a" d="M13.5 17.2a1.5 1.5 0 0 1-3 0v-1.5a1.5 1.5 0 0 1 3 0z"/></svg>