<svg xmlns="http://www.w3.org/2000/svg" viewBox="0 0 24 24" width="24" height="24"><defs><style>.a{fill:none;stroke:#000;stroke-linecap:round;stroke-linejoin:round;stroke-width:1.5px}</style></defs><title>style-three-pin-lotus</title><path class="a" d="M12 .8a9 9 0 0 1 9 9c0 7.9-6.932 12.331-8.629 13.3a.751.751 0 0 1-.743 0C9.931 22.132 3 17.7 3 9.8a9 9 0 0 1 9-9z"/><path class="a" d="M13.5 8.2a4.677 4.677 0 0 1-1.5 3 4.677 4.677 0 0 1-1.5-3 4.677 4.677 0 0 1 1.5-3 4.677 4.677 0 0 1 1.5 3z"/><path class="a" d="M13.257 9.36a3.2 3.2 0 0 1 1.006-.637 4.675 4.675 0 0 1 3.338.325 4.676 4.676 0 0 1-2.263 2.475A4.677 4.677 0 0 1 12 11.2m-1.257-1.84a3.2 3.2 0 0 0-1.006-.637 4.675 4.675 0 0 0-3.337.325 4.676 4.676 0 0 0 2.263 2.475A4.677 4.677 0 0 0 12 11.2m0-.002v3"/></svg>