<svg xmlns="http://www.w3.org/2000/svg" viewBox="0 0 24 24" width="24" height="24"><defs><style>.a{fill:none;stroke:#000;stroke-linecap:round;stroke-linejoin:round;stroke-width:1.5px}</style></defs><title>style-three-pin-paw</title><path class="a" d="M12 .8a9 9 0 0 1 9 9c0 7.9-6.932 12.331-8.629 13.3a.751.751 0 0 1-.743 0C9.931 22.132 3 17.7 3 9.8a9 9 0 0 1 9-9zM7.125 8.3a.375.375 0 0 1 .375.375m-.75.002a.375.375 0 0 1 .375-.377m0 .752a.375.375 0 0 1-.375-.375m.75 0a.375.375 0 0 1-.375.375m9.75-.752a.375.375 0 0 0-.375.375m.75.002a.375.375 0 0 0-.375-.375m0 .75a.375.375 0 0 0 .375-.375m-.75 0a.375.375 0 0 0 .375.375m-6.75-3a.375.375 0 0 1 .375.375m-.75 0a.375.375 0 0 1 .375-.375m0 .748a.375.375 0 0 1-.375-.375m.75.002a.375.375 0 0 1-.375.375m3.75-.75a.375.375 0 0 1 .375.375m-.75 0a.375.375 0 0 1 .375-.375m0 .748a.375.375 0 0 1-.375-.375m.75.002a.375.375 0 0 1-.375.375"/><circle class="a" cx="12" cy="11.677" r="2.625"/></svg>