<svg xmlns="http://www.w3.org/2000/svg" viewBox="0 0 24 24" width="24" height="24"><defs><style>.a{fill:none;stroke:#000;stroke-linecap:round;stroke-linejoin:round;stroke-width:1.5px}</style></defs><title>style-one-pin-photography</title><path class="a" d="M12 9a.375.375 0 0 1 .375.375m-.75 0A.375.375 0 0 1 12 9m0 .75a.375.375 0 0 1-.375-.375m.75 0A.375.375 0 0 1 12 9.75"/><path class="a" d="M16.5 8.25a1.5 1.5 0 0 0-1.5-1.5h-.75v-.364A1.5 1.5 0 0 0 12.8 5.25h-1.879c-.688 0-1 .468-1.171 1.136v.364H9a1.5 1.5 0 0 0-1.5 1.5v3a1.5 1.5 0 0 0 1.5 1.5h6a1.5 1.5 0 0 0 1.5-1.5z"/><path class="a" d="M21 9.75a9 9 0 1 0-10.8 8.82l1.8 4.68 1.8-4.68A9 9 0 0 0 21 9.75z"/></svg>