<svg xmlns="http://www.w3.org/2000/svg" viewBox="0 0 24 24" width="24" height="24"><defs><style>.a{fill:none;stroke:#000;stroke-linecap:round;stroke-linejoin:round;stroke-width:1.5px}</style></defs><title>style-three-pin-arrow-all-direction</title><path class="a" d="M12 .8a9 9 0 0 1 9 9c0 7.9-6.932 12.331-8.629 13.3a.751.751 0 0 1-.743 0C9.931 22.132 3 17.7 3 9.8a9 9 0 0 1 9-9zM7.492 5.565l3.182 3.182"/><path class="a" d="M7.492 8.747V5.565h3.182m5.834 9.016l-3.182-3.182m3.182 0v3.182h-3.182m3.182-9.016l-3.182 3.182m0-3.182h3.182v3.182m-9.016 5.834l3.182-3.182m0 3.182H7.492v-3.182"/></svg>