<svg xmlns="http://www.w3.org/2000/svg" viewBox="0 0 24 24" width="24" height="24"><defs><style>.a{fill:none;stroke:#000;stroke-linecap:round;stroke-linejoin:round;stroke-width:1.5px}</style></defs><title>style-two-pin-warning</title><path class="a" d="M12.359 12.493a.375.375 0 0 1-.469.248m.22-.717a.377.377 0 0 1 .249.469m-.718-.22a.377.377 0 0 1 .469-.249m-.22.717a.375.375 0 0 1-.249-.468M12 9.758v-3"/><path class="a" d="M21 9.758c0 7.9-6.932 12.331-8.629 13.3a.749.749 0 0 1-.743 0C9.931 22.088 3 17.656 3 9.758a9 9 0 0 1 18 0z"/></svg>