<svg xmlns="http://www.w3.org/2000/svg" viewBox="0 0 24 24" width="24" height="24"><defs><style>.a{fill:none;stroke:#000;stroke-linecap:round;stroke-linejoin:round;stroke-width:1.5px}</style></defs><title>style-three-pin-signal-antenna</title><path class="a" d="M12 .8a9 9 0 0 1 9 9c0 7.9-6.932 12.331-8.629 13.3a.751.751 0 0 1-.743 0C9.931 22.132 3 17.7 3 9.8a9 9 0 0 1 9-9zm0 8.252v6.75m-2.25-5.451a1.5 1.5 0 0 1 0-2.6m-2.604 4.301a4.5 4.5 0 0 1 0-6m7.104 4.299a1.5 1.5 0 0 0 0-2.6m2.604 4.301a4.5 4.5 0 0 0 0-6"/></svg>