<svg xmlns="http://www.w3.org/2000/svg" viewBox="0 0 24 24" width="24" height="24"><defs><style>.a{fill:none;stroke:#000;stroke-linecap:round;stroke-linejoin:round;stroke-width:1.5px}</style></defs><title>style-three-pin-plane-fly</title><path class="a" d="M12 .8a9 9 0 0 1 9 9c0 7.9-6.932 12.331-8.629 13.3a.751.751 0 0 1-.743 0C9.931 22.132 3 17.7 3 9.8a9 9 0 0 1 9-9z"/><path class="a" d="M6.75 11.302L12 4.552l5.25 6.75v1.5l-5.25-1.5-5.25 1.5v-1.5z"/><path class="a" d="M9 12.159V14.3a.75.75 0 0 0 .75.75h4.5a.75.75 0 0 0 .75-.75v-2.141"/></svg>