<svg xmlns="http://www.w3.org/2000/svg" viewBox="0 0 24 24" width="24" height="24"><defs><style>.a{fill:none;stroke:#000;stroke-linecap:round;stroke-linejoin:round;stroke-width:1.5px}</style></defs><title>style-three-pin-facade</title><path class="a" d="M12 .8a9 9 0 0 1 9 9c0 7.9-6.932 12.331-8.629 13.3a.751.751 0 0 1-.743 0C9.931 22.132 3 17.7 3 9.8a9 9 0 0 1 9-9z"/><path class="a" d="M9.345 9.357a.75.75 0 0 1 1.208-.394l3.456 2.88a.75.75 0 0 1-.217 1.279L9.184 14.85a.75.75 0 0 1-.991-.884z"/><path class="a" d="M12.313 10.43l2.237-2.532-1.8-1.95 1.5-1.5"/></svg>