<svg xmlns="http://www.w3.org/2000/svg" viewBox="0 0 24 24" width="24" height="24"><defs><style>.a{fill:none;stroke:#000;stroke-linecap:round;stroke-linejoin:round;stroke-width:1.5px}</style></defs><title>style-three-pin-palette</title><path class="a" d="M11.75.8a9 9 0 0 1 9 9c0 7.9-6.932 12.331-8.629 13.3a.749.749 0 0 1-.743 0c-1.7-.967-8.628-5.4-8.628-13.3a9 9 0 0 1 9-9z"/><path class="a" d="M13.25 13.825c0-.654.6-3.487 3.448-3.361a.279.279 0 0 0 .211-.082.283.283 0 0 0 .082-.21C16.825 5.961 12.72 5.2 11.75 5.2a5.25 5.25 0 0 0 0 10.5 4.993 4.993 0 0 0 1.045-.112.749.749 0 0 0 .566-.929 3.227 3.227 0 0 1-.111-.834zM12.875 8.2a.375.375 0 0 1 .375.375m-.75 0a.375.375 0 0 1 .375-.375m0 .75a.375.375 0 0 1-.375-.375m.75 0a.375.375 0 0 1-.375.375m-3 .75a.375.375 0 0 1 .375.375m-.75 0a.375.375 0 0 1 .375-.375m0 .75a.375.375 0 0 1-.375-.375m.75 0a.375.375 0 0 1-.375.375"/></svg>