<svg xmlns="http://www.w3.org/2000/svg" viewBox="0 0 24 24" width="24" height="24"><defs><style>.a{fill:none;stroke:#000;stroke-linecap:round;stroke-linejoin:round;stroke-width:1.5px}</style></defs><title>style-one-pin-cart</title><path class="a" d="M17 5.25l-2.25 7.5h-6l-1.5-4.5h8.85M9.125 15a.375.375 0 0 1 .375.375m-.75 0A.375.375 0 0 1 9.125 15m0 .75a.375.375 0 0 1-.375-.375m.75 0a.375.375 0 0 1-.375.375m5.25-.75a.375.375 0 0 1 .375.375m-.75 0a.375.375 0 0 1 .375-.375m0 .75a.375.375 0 0 1-.375-.375m.75 0a.375.375 0 0 1-.375.375"/><path class="a" d="M20.75 9.75a9 9 0 1 0-10.8 8.82l1.8 4.68 1.8-4.68a9 9 0 0 0 7.2-8.82z"/></svg>