<svg xmlns="http://www.w3.org/2000/svg" viewBox="0 0 24 24" width="24" height="24"><defs><style>.a{fill:none;stroke:#000;stroke-linecap:round;stroke-linejoin:round;stroke-width:1.5px}</style></defs><title>style-three-pin-table</title><path class="a" d="M12 .75a9 9 0 0 1 9 9c0 7.9-6.932 12.331-8.629 13.3a.751.751 0 0 1-.743 0C9.931 22.08 3 17.648 3 9.75a9 9 0 0 1 9-9z"/><path class="a" d="M16.5 8.146H6.75v2.25"/><path class="a" d="M9.75 8.146l-1.171 3.513a.749.749 0 0 0 .712.987h5.418a.749.749 0 0 0 .712-.987L14.25 8.146"/></svg>