<svg xmlns="http://www.w3.org/2000/svg" viewBox="0 0 24 24" width="24" height="24"><defs><style>.a{fill:none;stroke:#000;stroke-linecap:round;stroke-linejoin:round;stroke-width:1.5px}</style></defs><title>style-three-pin-drink-food</title><path class="a" d="M12 .8a9 9 0 0 1 9 9c0 7.9-6.932 12.331-8.629 13.3a.751.751 0 0 1-.743 0C9.931 22.132 3 17.7 3 9.8a9 9 0 0 1 9-9z"/><circle class="a" cx="12" cy="9.802" r="2.7"/><path class="a" d="M12 7.102v-1.8m0 9v-1.8m2.7-2.7h1.8m-9 0h1.8m-.064 3.182l1.075-1.075M9.236 6.62l1.075 1.075m4.453 5.289l-1.075-1.075m1.075-5.289l-1.075 1.075"/></svg>