<svg xmlns="http://www.w3.org/2000/svg" viewBox="0 0 24 24" width="24" height="24"><defs><style>.a{fill:none;stroke:#000;stroke-linecap:round;stroke-linejoin:round;stroke-width:1.5px}</style></defs><title>style-two-pin-tunnel</title><path class="a" d="M12 5.254a.375.375 0 0 1 .375.375m-.75 0A.375.375 0 0 1 12 5.254M12 6a.375.375 0 0 1-.375-.375m.75.004A.375.375 0 0 1 12 6m-4.5 6.754a4.5 4.5 0 1 1 9 0m-10.5 0h12"/><path class="a" d="M21 9.754c0 7.9-6.932 12.331-8.629 13.3a.749.749 0 0 1-.743 0C9.931 22.084 3 17.652 3 9.754a9 9 0 0 1 18 0z"/></svg>