<svg xmlns="http://www.w3.org/2000/svg" viewBox="0 0 24 24" width="24" height="24"><defs><style>.a{fill:none;stroke:#000;stroke-linecap:round;stroke-linejoin:round;stroke-width:1.5px}</style></defs><title>style-three-pin-target-arrow</title><path class="a" d="M12 .8a9 9 0 0 1 9 9c0 7.9-6.932 12.331-8.629 13.3a.751.751 0 0 1-.743 0C9.931 22.132 3 17.7 3 9.8a9 9 0 0 1 9-9zm3.75 9A3.75 3.75 0 1 1 12 6.052m0 3.75l3-3"/><path class="a" d="M17.25 6.802H15v-2.25m-6.75 9.75l1.5-1.5m6 1.5l-1.5-1.5"/></svg>