<svg xmlns="http://www.w3.org/2000/svg" viewBox="0 0 24 24" width="24" height="24"><defs><style>.a{fill:none;stroke:#000;stroke-linecap:round;stroke-linejoin:round;stroke-width:1.5px}</style></defs><title>style-one-pin-question</title><path class="a" d="M10.125 8.25A1.875 1.875 0 1 1 12 10.125m0 3a.375.375 0 0 1 .375.375m-.75 0a.375.375 0 0 1 .375-.375m0 .75a.375.375 0 0 1-.375-.375m.75 0a.375.375 0 0 1-.375.375"/><path class="a" d="M21 9.75a9 9 0 1 0-10.8 8.82l1.8 4.68 1.8-4.68A9 9 0 0 0 21 9.75z"/></svg>