<svg xmlns="http://www.w3.org/2000/svg" viewBox="0 0 24 24" width="24" height="24"><defs><style>.a{fill:none;stroke:#000;stroke-linecap:round;stroke-linejoin:round;stroke-width:1.5px}</style></defs><title>style-three-pin-printer</title><path class="a" d="M12 .8a9 9 0 0 1 9 9c0 7.9-6.932 12.331-8.629 13.3a.751.751 0 0 1-.743 0C9.931 22.132 3 17.7 3 9.8a9 9 0 0 1 9-9z"/><path class="a" d="M9.75 13.552H9a1.5 1.5 0 0 1-1.5-1.5V9.8A1.5 1.5 0 0 1 9 8.3h6a1.5 1.5 0 0 1 1.5 1.5v2.25a1.5 1.5 0 0 1-1.5 1.5h-.75"/><path class="a" d="M9.75 8.302v-3.75h3l1.5 1.5v2.25m-4.5 3h4.5v4.5h-4.5z"/></svg>