<svg xmlns="http://www.w3.org/2000/svg" viewBox="0 0 24 24" width="24" height="24"><defs><style>.a{fill:none;stroke:#000;stroke-linecap:round;stroke-linejoin:round;stroke-width:1.5px}</style></defs><title>style-three-pin-shirt</title><path class="a" d="M12 .8a9 9 0 0 1 9 9c0 7.9-6.932 12.331-8.629 13.3a.751.751 0 0 1-.743 0C9.931 22.132 3 17.7 3 9.8a9 9 0 0 1 9-9z"/><path class="a" d="M16.055 6.366a3.881 3.881 0 0 0-2.112-1.086 1.944 1.944 0 0 1-3.886 0 3.881 3.881 0 0 0-2.112 1.086L5.681 8.629l1.944 1.944 1.459-1.458v5.347a.486.486 0 0 0 .486.486h4.86a.486.486 0 0 0 .486-.486V9.115l1.459 1.458 1.944-1.944z"/></svg>