<svg xmlns="http://www.w3.org/2000/svg" viewBox="0 0 24 24" width="24" height="24"><defs><style>.a{fill:none;stroke:#000;stroke-linecap:round;stroke-linejoin:round;stroke-width:1.5px}</style></defs><title>style-three-pin-check-radioactive</title><path class="a" d="M12 .8a9 9 0 0 1 9 9c0 7.9-6.932 12.331-8.629 13.3a.751.751 0 0 1-.743 0C9.931 22.132 3 17.7 3 9.8a9 9 0 0 1 9-9z"/><path class="a" d="M9.439 9.7A2.243 2.243 0 0 1 10.5 7.8L8.914 5.258A5.234 5.234 0 0 0 6.439 9.7c0 .028.008.054.009.082l2.995-.047c0-.014-.004-.025-.004-.035zm5.647-4.442L13.5 7.8a2.243 2.243 0 0 1 1.061 1.9v.035l2.995.047c0-.028.009-.054.009-.082a5.234 5.234 0 0 0-2.479-4.442zM12 12.7a2.227 2.227 0 0 1-.951-.218L9.78 15.19a5.1 5.1 0 0 0 4.44 0l-1.269-2.71a2.231 2.231 0 0 1-.951.22zm0-3a.375.375 0 0 1 .375.375m-.75-.002A.375.375 0 0 1 12 9.7m0 .748a.375.375 0 0 1-.375-.375m.75 0a.375.375 0 0 1-.375.375"/></svg>