<svg xmlns="http://www.w3.org/2000/svg" viewBox="0 0 24 24" width="24" height="24"><defs><style>.a{fill:none;stroke:#000;stroke-linecap:round;stroke-linejoin:round;stroke-width:1.5px}</style></defs><title>style-one-pin-car</title><path class="a" d="M21.25 9.75a9 9 0 1 0-10.8 8.819l1.8 4.681 1.8-4.681a9 9 0 0 0 7.2-8.819zm-12 1.5v1.5m6-1.5v1.5"/><path class="a" d="M16.75 9.75a1.5 1.5 0 0 1-1.5 1.5h-6a1.5 1.5 0 0 1 0-3h6a1.5 1.5 0 0 1 1.5 1.5zm-6.5-4.5h4a1 1 0 0 1 1 1v2h-6v-2a1 1 0 0 1 1-1z"/></svg>