<svg xmlns="http://www.w3.org/2000/svg" viewBox="0 0 24 24" width="24" height="24"><defs><style>.a{fill:none;stroke:#000;stroke-linecap:round;stroke-linejoin:round;stroke-width:1.5px}</style></defs><title>style-three-pin-dam</title><path class="a" d="M12 .8a9 9 0 0 1 9 9c0 7.9-6.932 12.331-8.629 13.3a.751.751 0 0 1-.743 0C9.931 22.132 3 17.7 3 9.8a9 9 0 0 1 9-9z"/><path class="a" d="M7.5 6.802v8.25h5.25l-3-8.25H7.5z"/><path class="a" d="M10.568 9.052l1.366-.7a3 3 0 0 1 3.03.175l.03.02a3 3 0 0 0 1.664.5h.592m-5.305 3.792l.758-.506a2.791 2.791 0 0 1 3.094 0 2.787 2.787 0 0 0 1.548.469H18"/></svg>