<svg xmlns="http://www.w3.org/2000/svg" viewBox="0 0 24 24" width="24" height="24"><defs><style>.a{fill:none;stroke:#000;stroke-linecap:round;stroke-linejoin:round;stroke-width:1.5px}</style></defs><title>style-three-pin-ink</title><path class="a" d="M12 .8a9 9 0 0 1 9 9c0 7.9-6.932 12.331-8.629 13.3a.751.751 0 0 1-.743 0C9.931 22.132 3 17.7 3 9.8a9 9 0 0 1 9-9zM7.5 14.198l2.947-2.947"/><path class="a" d="M14.147 10.551c-1.464 1.464-2.872 1.529-3.7.7s-.764-2.236.7-3.7 4.6-1.6 4.6-1.6-.135 3.135-1.6 4.6zm-2.897 3.647H15"/></svg>