<svg xmlns="http://www.w3.org/2000/svg" viewBox="0 0 24 24" width="24" height="24"><defs><style>.a{fill:none;stroke:#000;stroke-linecap:round;stroke-linejoin:round;stroke-width:1.5px}</style></defs><title>style-three-pin-gym</title><path class="a" d="M12 .8a9 9 0 0 1 9 9c0 7.9-6.932 12.331-8.629 13.3a.751.751 0 0 1-.743 0C9.931 22.132 3 17.7 3 9.8a9 9 0 0 1 9-9zm-1.5 8.898h3"/><path class="a" d="M16.5 11.2a1.5 1.5 0 0 1-3 0v-3a1.5 1.5 0 0 1 3 0zm-6 0a1.5 1.5 0 0 1-3 0v-3a1.5 1.5 0 0 1 3 0zm6-1.502H18m-12 0h1.5"/></svg>