<svg xmlns="http://www.w3.org/2000/svg" viewBox="0 0 24 24" width="24" height="24"><defs><style>.a{fill:none;stroke:#000;stroke-linecap:round;stroke-linejoin:round;stroke-width:1.5px}</style></defs><title>style-two-pin-drink</title><path class="a" d="M14.75 9.754a3 3 0 0 1-6 0v-1.5h6zm-3 3v3m-1.5 0h3m-2.625-10.5a.375.375 0 0 1 .375.375m-.75 0a.375.375 0 0 1 .375-.375m0 .746a.375.375 0 0 1-.375-.375m.75.004a.375.375 0 0 1-.375.371m3-2.246a.375.375 0 0 1 .375.375m-.75 0a.375.375 0 0 1 .375-.375m0 .746a.375.375 0 0 1-.375-.375m.75.004a.375.375 0 0 1-.375.375"/><path class="a" d="M20.75 9.754c0 7.9-6.932 12.331-8.629 13.3a.749.749 0 0 1-.743 0c-1.7-.967-8.628-5.4-8.628-13.3a9 9 0 0 1 18 0z"/></svg>