<svg xmlns="http://www.w3.org/2000/svg" viewBox="0 0 24 24" width="24" height="24"><defs><style>.a{fill:none;stroke:#000;stroke-linecap:round;stroke-linejoin:round;stroke-width:1.5px}</style></defs><title>style-one-pin-wifi</title><path class="a" d="M12.253 13.5a.374.374 0 0 1 .375.375m-.75 0a.375.375 0 0 1 .375-.375m0 .75a.375.375 0 0 1-.375-.375m.75 0a.374.374 0 0 1-.375.375m-3.284-3.52a6 6 0 0 1 6.569 0m1.823-2.37a8.981 8.981 0 0 0-10.215 0"/><path class="a" d="M21.25 9.75a9 9 0 1 0-10.8 8.82l1.8 4.68 1.8-4.68a9 9 0 0 0 7.2-8.82z"/></svg>