<svg xmlns="http://www.w3.org/2000/svg" viewBox="0 0 24 24" width="24" height="24"><defs><style>.a{fill:none;stroke:#000;stroke-linecap:round;stroke-linejoin:round;stroke-width:1.5px}</style></defs><title>style-three-pin-islam</title><path class="a" d="M12 .8a9 9 0 0 1 9 9c0 7.9-6.932 12.331-8.629 13.3a.751.751 0 0 1-.743 0C9.931 22.132 3 17.7 3 9.8a9 9 0 0 1 9-9z"/><path class="a" d="M12.325 12.751a4.491 4.491 0 0 1 .727-6.951 4.491 4.491 0 1 0 1.2 8.069 4.446 4.446 0 0 1-1.927-1.118zm1.925-2.949h3m-1.5-1.5v3"/></svg>