<svg xmlns="http://www.w3.org/2000/svg" viewBox="0 0 24 24" width="24" height="24"><defs><style>.a{fill:none;stroke:#000;stroke-linecap:round;stroke-linejoin:round;stroke-width:1.5px}</style></defs><title>style-three-pin-bow</title><path class="a" d="M12 .8a9 9 0 0 1 9 9c0 7.9-6.932 12.331-8.629 13.3a.751.751 0 0 1-.743 0C9.931 22.132 3 17.7 3 9.8a9 9 0 0 1 9-9zM9.187 5.3a4.5 4.5 0 1 1 0 9m-2.25-4.498h6.751m2.27.492V9.31m.229 1.367a.434.434 0 0 1-.229-.383m.676.362a.435.435 0 0 1-.447.021m1.185-.513l-.738.492m.931-.856a.435.435 0 0 1-.193.362m0-.722a.435.435 0 0 1 .193.362m-.931-.854l.738.492m-1.185-.513a.435.435 0 0 1 .447.021m-.676.362a.434.434 0 0 1 .229-.383"/><path class="a" d="M10.404 5.468L6.937 9.802l3.467 4.333"/></svg>