<svg xmlns="http://www.w3.org/2000/svg" viewBox="0 0 24 24" width="24" height="24"><defs><style>.a{fill:none;stroke:#000;stroke-linecap:round;stroke-linejoin:round;stroke-width:1.5px}</style></defs><title>style-three-pin-chemistry-epruvette</title><path class="a" d="M12 .8a9 9 0 0 1 9 9c0 7.9-6.932 12.331-8.629 13.3a.751.751 0 0 1-.743 0C9.931 22.132 3 17.7 3 9.8a9 9 0 0 1 9-9z"/><path class="a" d="M14.25 14.3a2.25 2.25 0 0 1-4.5 0V7.552h4.5zm-4.5-3.748h4.5m-1.211-6.74a.376.376 0 0 1 .451.279m-.73.172a.374.374 0 0 1 .279-.451m.172.73a.374.374 0 0 1-.451-.279m.73-.172a.375.375 0 0 1-.279.451"/></svg>