<svg xmlns="http://www.w3.org/2000/svg" viewBox="0 0 24 24" width="24" height="24"><path fill="none" stroke="#000" stroke-linecap="round" stroke-linejoin="round" stroke-miterlimit="10" d="M11.5 11.001c-1.938-2.824-4-6.5-4-6.5l1.063-1h5.833l1.088 1s-2.152 3.295-3.984 6.5z"/><path d="M13.5 15.001a.5.5 0 100 1 .5.5 0 000-1zm0 2a.5.5 0 100 1 .5.5 0 000-1zm-4-2a.5.5 0 100 1 .5.5 0 000-1zm0 2a.5.5 0 100 1 .5.5 0 000-1z"/><path fill="none" stroke="#000" stroke-linecap="round" stroke-linejoin="round" stroke-miterlimit="10" d="M11.5 17.501v-6.5m-3.968-6.5C6.311 4.501 3 6.001 3 6.001l-2.5 11.5h3l2.334-7.458A.585.585 0 017 10.107L5.5 21.501h4.562c.012-.03 1.438-4 1.438-4l1.521 4H17.5l-1.447-11.448a.53.53 0 011.058-.065l2.389 7.514h3L20 6.001s-3.535-1.5-4.578-1.5"/><path fill="none" d="M0 0h24v24H0z"/></svg>