<svg xmlns="http://www.w3.org/2000/svg" viewBox="0 0 24 24" width="24" height="24"><path fill="none" stroke="#000" stroke-linejoin="round" stroke-miterlimit="10" d="M16.159 19.19c-.188.197-.45.31-.724.31H2.516a2 2 0 010-4h11.217a.999.999 0 00.731-.318l5.517-4.844a2.032 2.032 0 112.96 2.783l-6.782 6.069z"/><path fill="none" stroke="#000" stroke-linecap="round" stroke-linejoin="round" stroke-miterlimit="10" d="M4.516 23.5l3-4m8.958 4l-3-4M6.516 2V1m3.155 2.32l.707-.707m.638 3.887h1M9.671 9.684l.707.708M6.516 11v1M3.307 9.684l-.707.708M2.016 6.5h-1m2.291-3.18L2.6 2.613"/><circle fill="none" stroke="#000" stroke-linecap="round" stroke-linejoin="round" stroke-miterlimit="10" cx="6.516" cy="6.518" r="2.5"/><path fill="none" d="M0 0h24v24H0z"/></svg>