<svg xmlns="http://www.w3.org/2000/svg" viewBox="0 0 24 24" width="24" height="24"><g fill="none" stroke="#000" stroke-linecap="round" stroke-linejoin="round" stroke-miterlimit="10"><path d="M8.5 19.5h8v4h-8zm10-16h-12v4.147c0 3.872.677 8.214 2 11.853h8.001c1.322-3.639 1.999-7.98 1.999-11.852V3.5zm-12 0l-1-3h14l-1 3m-8 16v4m2-4v4m2-4v4"/><circle cx="12.5" cy="10.5" r="2"/><path d="M12.5 7V6m2.475 2.025l.707-.707M16 10.5h1m-2.025 2.475l.707.707M12.5 14v1m-2.475-2.025l-.707.707M9 10.5H8m2.025-2.475l-.707-.707"/></g><path fill="none" d="M0 0h24v24H0z"/></svg>