<svg xmlns="http://www.w3.org/2000/svg" viewBox="0 0 24 24" width="24" height="24"><path fill="none" stroke="#000" stroke-linecap="round" stroke-linejoin="round" stroke-miterlimit="10" d="M9 9.502c0-.553.448-.5 1-.5s1-.053 1 .5m2 0c0-.553.448-.5 1-.5.553 0 1-.053 1 .5M9.444 15.5C5.147 16.228.5 16.078.5 20.245V23.5h23v-3.255c0-4.168-4.475-3.991-8.928-4.745m-3.064 1l-.008 7m-5-5.5v3M5 19.5h3"/><path d="M14.5 19a.5.5 0 10.002 1.002A.5.5 0 0014.5 19zm0 2a.5.5 0 10.002 1.002A.5.5 0 0014.5 21z"/><path fill="none" stroke="#000" stroke-linecap="round" stroke-linejoin="round" stroke-miterlimit="10" d="M10.113 6.95L7 8.5c-1.5 0-1.5 3 0 3 0 3 3.5 5 5 5s5-2 5-5c1.5 0 1.5-3 0-3l-3.122-1.55"/><path fill="none" stroke="#000" stroke-linecap="round" stroke-linejoin="round" stroke-miterlimit="10" d="M9.5 1.5c-4.5 1-3.992 4-3.992 4l.512 3.751M14.5 1.5c4.5 1 3.992 4 3.992 4l-.496 3.751m-10.868 3.2s2.373-.951 4.873-.951 4.887.957 4.887.957"/><circle fill="none" stroke="#000" stroke-linecap="round" stroke-linejoin="round" stroke-miterlimit="10" cx="12" cy="4" r="3.5"/><circle fill="none" stroke="#000" stroke-linecap="round" stroke-linejoin="round" stroke-miterlimit="10" cx="12" cy="4" r="1.5"/><path fill="none" d="M0 0h24v24H0z"/></svg>