<svg xmlns="http://www.w3.org/2000/svg" viewBox="0 0 24 24" width="24" height="24"><defs><style>.a{fill:none;stroke:#000;stroke-linecap:round;stroke-linejoin:round;stroke-width:1.5px}</style></defs><title>surveillance-cctv</title><path class="a" d="M6.75 1.75a6 6 0 0 0 0 12h9a3 3 0 0 0 3-3V8.5l3.671-1.835a1.5 1.5 0 0 0 .829-1.342V2.5a.75.75 0 0 0-.75-.75z"/><path class="a" d="M21.75 7v3.75a1.5 1.5 0 0 1-1.5 1.5h-1.9m-10.1 1.5v3.333a2.848 2.848 0 0 1-3 2.667H.75m0-2.25V22m7.5-14.25a.375.375 0 0 1 .375.375m-.75 0a.375.375 0 0 1 .375-.375m0 .75a.375.375 0 0 1-.375-.375m.75 0a.375.375 0 0 1-.375.375m-7.5-.75H4.5"/></svg>