<svg xmlns="http://www.w3.org/2000/svg" viewBox="0 0 24 24" width="24" height="24"><defs><style>.a{fill:none;stroke:#000;stroke-linecap:round;stroke-linejoin:round;stroke-width:1.5px}</style></defs><title>surveillance-cctv-wifi</title><path class="a" d="M17.25 22.424a.375.375 0 0 1 .375.375m-.75.001a.375.375 0 0 1 .375-.375m0 .749a.375.375 0 0 1-.375-.375m.75.001a.375.375 0 0 1-.375.375m6-7.552a9.539 9.539 0 0 0-12 0m2.5 3.615a5.566 5.566 0 0 1 7 0M17.25 3.75l-16.5 3v-3a3 3 0 0 1 3-3h13.786a.75.75 0 0 1 .671 1.085z"/><path class="a" d="M15.75 4.023V7.5a2.25 2.25 0 0 1-2.25 2.25h-9A2.25 2.25 0 0 1 2.25 7.5V6.477m4.5 3.273v1.5a3 3 0 0 1-3 3h-3m0-1.5v3m18-10.5v3"/></svg>