<svg xmlns="http://www.w3.org/2000/svg" viewBox="0 0 24 24" width="24" height="24"><defs><style>.a{fill:none;stroke:#000;stroke-linecap:round;stroke-linejoin:round;stroke-width:1.5px}</style></defs><title>surveillance-camera-smartphone</title><path class="a" d="M1.25.75h11a.5.5 0 0 1 .5.5v3a1 1 0 0 1-1 1h-10a1 1 0 0 1-1-1v-3a.5.5 0 0 1 .5-.5zm5.5 7.125a.375.375 0 0 1 .375.375m-.75 0a.375.375 0 0 1 .375-.375m0 .75a.375.375 0 0 1-.375-.375m.75 0a.375.375 0 0 1-.375.375m-4.5 5.625v3m0 3v1.5a1.5 1.5 0 0 0 1.5 1.5h1.5m3 0h3"/><rect class="a" x="15.75" y="11.25" width="7.5" height="12" rx="1.5" ry="1.5"/><path class="a" d="M19.875 20.25a.375.375 0 0 0-.375-.375m0 .75a.375.375 0 0 0 .375-.375m-.75 0a.375.375 0 0 0 .375.375m0-.75a.375.375 0 0 0-.375.375M17.379 7.629a3 3 0 0 1 4.242 0M16.5 4.451a6.768 6.768 0 0 1 6 0m-20.486.78a5.25 5.25 0 1 0 9.472 0"/></svg>