<svg xmlns="http://www.w3.org/2000/svg" viewBox="0 0 24 24" width="24" height="24"><defs><style>.a{fill:none;stroke:#000;stroke-linecap:round;stroke-linejoin:round;stroke-width:1.5px}</style></defs><title>surveillance-location-1</title><path class="a" d="M23.25 12a11.25 11.25 0 1 1-3.3-7.955M.75 12h22.5M12 .75v22.5M12 12l9-9m-3.375 12.75a.375.375 0 0 1 .375.375m-.75 0a.375.375 0 0 1 .375-.375m0 .75a.375.375 0 0 1-.375-.375m.75 0a.375.375 0 0 1-.375.375M6.375 6.75a.375.375 0 0 1 .375.375m-.75 0a.375.375 0 0 1 .375-.375m0 .75A.375.375 0 0 1 6 7.125m.75 0a.375.375 0 0 1-.375.375M9 5.952a6.754 6.754 0 0 1 7.773 1.275M15.1 18a6.754 6.754 0 0 1-9.466-8.25M18.75 12a6.794 6.794 0 0 1-.167 1.5"/></svg>