<svg xmlns="http://www.w3.org/2000/svg" viewBox="0 0 24 24" width="24" height="24"><defs><style>.a{fill:none;stroke:#000;stroke-linecap:round;stroke-linejoin:round;stroke-width:1.5px}</style></defs><title>surveillance-camera</title><path class="a" d="M22.562 5.838A3 3 0 0 1 19.62 8.25H4.38a3 3 0 0 1-2.942-2.412L.779 2.544A1.5 1.5 0 0 1 2.25.75h19.5a1.5 1.5 0 0 1 1.471 1.794zM3.818 8.2a9.75 9.75 0 1 0 16.364 0"/><path class="a" d="M8.25 22.5v-6a3.75 3.75 0 0 1 7.5 0v6M12 18.375a.375.375 0 0 1 .375.375m-.75 0a.375.375 0 0 1 .375-.375m0 .75a.375.375 0 0 1-.375-.375m.75 0a.375.375 0 0 1-.375.375"/></svg>