<svg id="Regular" xmlns="http://www.w3.org/2000/svg" viewBox="0 0 24 24" width="24" height="24"><defs><style>.cls-1{fill:none;stroke:#000;stroke-linecap:round;stroke-linejoin:round;stroke-width:1.5px}</style></defs><title>swan</title><path class="cls-1" d="M12 16.406a4.5 4.5 0 1 1 4.5-4.5v9.75a1.51 1.51 0 1 0 3 0c0-2.25 0-3.75 1.5-4.5s2.25-2.25 2.25-5.25A11.25 11.25 0 1 0 12 23.156m4.5-6.75s2.032 2.032 4.165.947m-.79-4.697a.375.375 0 0 0-.375.375m.75 0a.375.375 0 0 0-.375-.375m0 .75a.375.375 0 0 0 .375-.375m-.75 0a.375.375 0 0 0 .375.375"/></svg>