<svg id="Regular" xmlns="http://www.w3.org/2000/svg" viewBox="0 0 24 24" width="24" height="24"><defs><style>.cls-1{fill:none;stroke:#000;stroke-linecap:round;stroke-linejoin:round;stroke-width:1.5px}</style></defs><title>swan-water</title><path class="cls-1" d="M22.75 21.668a4.417 4.417 0 0 1-2.25-1.408 4.17 4.17 0 0 1-3 1.5 4.17 4.17 0 0 1-3-1.5 4.17 4.17 0 0 1-3 1.5 4.17 4.17 0 0 1-3-1.5 4.17 4.17 0 0 1-3 1.5 4.17 4.17 0 0 1-3-1.5 4.417 4.417 0 0 1-2.25 1.408M17.928 8.067l3.937 3.937M20.5 17.26a5.743 5.743 0 0 0-1.682-4.06l-5.379-5.38a1.5 1.5 0 0 1 0-2.12 1.5 1.5 0 0 1 2.122 0l2.367 2.367a2.25 2.25 0 0 0 3.182-3.182 2.2 2.2 0 0 0-1.688-.642 2.274 2.274 0 0 1-1.74-.665 4.5 4.5 0 0 0-6.364 6.364l1.924 1.924a1.4 1.4 0 0 1-.992 2.394h-3c-2.7 0-6.172-2.329-7.909-3.636a.682.682 0 0 0-1.091.545 11.934 11.934 0 0 0 1.5 6.091"/></svg>