<svg id="Regular" xmlns="http://www.w3.org/2000/svg" viewBox="0 0 24 24" width="24" height="24"><defs><style>.cls-1{fill:none;stroke:#000;stroke-linecap:round;stroke-linejoin:round;stroke-width:1.5px}</style></defs><title>swimming-lifeguard</title><circle class="cls-1" cx="5.249" cy="3.375" r="2.625"/><path class="cls-1" d="M10.5 18.75a1.5 1.5 0 0 1-1.343-.829L8.073 15.75H5.25a1.5 1.5 0 0 1-1.5-1.5v-4.5a1.5 1.5 0 0 1 3 0v3H9a1.5 1.5 0 0 1 1.342.829l1.5 3A1.5 1.5 0 0 1 10.5 18.75z"/><path class="cls-1" d="M7.5 15.75H.75V10.5M6 15.75l.75 7.5m-5.25-7.5l-.75 7.5m.3-3h5.4m4.8 3a3.735 3.735 0 0 0 3-1.521 3.719 3.719 0 0 0 6 0 3.735 3.735 0 0 0 3 1.521m-6-3.75a3.735 3.735 0 0 0 3-1.521 3.735 3.735 0 0 0 3 1.521"/></svg>