<svg id="Regular" xmlns="http://www.w3.org/2000/svg" viewBox="0 0 24 24" width="24" height="24"><defs><style>.cls-1{fill:none;stroke:#000;stroke-linecap:round;stroke-linejoin:round;stroke-width:1.5px}</style></defs><title>swimming-cap</title><path class="cls-1" d="M14.625 13.5a.375.375 0 0 1 .375.375m-.75 0a.375.375 0 0 1 .375-.375m0 .75a.375.375 0 0 1-.375-.375m.75 0a.375.375 0 0 1-.375.375m-5.25-.75a.375.375 0 0 1 .375.375m-.75 0a.375.375 0 0 1 .375-.375m0 .75A.375.375 0 0 1 9 13.875m.75 0a.375.375 0 0 1-.375.375"/><circle class="cls-1" cx="12" cy="15.75" r="6.75"/><path class="cls-1" d="M19.855 5.505a9.89 9.89 0 0 1-2.086 13.752"/><ellipse class="cls-1" cx="6.75" cy="4.5" rx="3.75" ry="2.25"/><ellipse class="cls-1" cx="16.5" cy="4.5" rx="3.75" ry="2.25"/><path class="cls-1" d="M12.75 4.5H10.5M6.231 19.256A9.888 9.888 0 0 1 3.847 5.938m4.129-3.565a9.71 9.71 0 0 1 7.851-.087M12 16.5V18"/></svg>