<svg id="Regular" xmlns="http://www.w3.org/2000/svg" viewBox="0 0 24 24" width="24" height="24"><defs><style>.cls-1{fill:none;stroke:#000;stroke-linecap:round;stroke-linejoin:round;stroke-width:1.5px}</style></defs><title>swimming-cap-1</title><path class="cls-1" d="M14.625 12.75a.375.375 0 0 1 .375.375m-.75 0a.375.375 0 0 1 .375-.375m0 .75a.375.375 0 0 1-.375-.375m.75 0a.375.375 0 0 1-.375.375m-5.25-.75a.375.375 0 0 1 .375.375m-.75 0a.375.375 0 0 1 .375-.375m0 .75A.375.375 0 0 1 9 13.125m.75 0a.375.375 0 0 1-.375.375"/><circle class="cls-1" cx="12" cy="14.25" r="6.75"/><path class="cls-1" d="M6.537 18.249A10.032 10.032 0 0 1 3 10.5C3 5.115 7.029.75 12 .75s9 4.365 9 9.75a10.032 10.032 0 0 1-3.537 7.749"/><path class="cls-1" d="M8.275 8.621C8.49 4.19 10.076.75 12 .75s3.51 3.44 3.725 7.871M12 15v1.5m-2.25 6.75L12 21m2.25 2.25L12 21m9-10.406a3 3 0 1 1-1.778 5.725M3 10.594a3 3 0 1 0 1.778 5.725"/></svg>