<svg id="Regular" xmlns="http://www.w3.org/2000/svg" viewBox="0 0 24 24" width="24" height="24"><defs><style>.cls-1{fill:none;stroke:#000;stroke-linecap:round;stroke-linejoin:round;stroke-width:1.5px}</style></defs><title>swimming-diving-board</title><path class="cls-1" d="M.75 5.25H13.5a8.25 8.25 0 0 0-8.25 8.25v6.75m8.25-15H18m-12.75 9h7.5m-12-9V3a.75.75 0 0 1 .75-.75h6.75A.75.75 0 0 1 9 3v2.25M.75 21.75a5.511 5.511 0 0 0 4.5-1.5 4.547 4.547 0 0 0 6.75 0 4.547 4.547 0 0 0 6.75 0 5.511 5.511 0 0 0 4.5 1.5"/></svg>