<svg xmlns="http://www.w3.org/2000/svg" viewBox="0 0 24 24" width="24" height="24"><g fill="none" stroke="#000" stroke-linecap="round" stroke-linejoin="round" stroke-miterlimit="10"><path d="M23 21.5c0-2-2.229-2-2.229 0 0 2.021-2.5 2.021-2.5 0 0-2-2.5-2-2.5 0 .003 2.017-2.493 2.02-2.496.003-.003-2.006-2.504-2.002-2.504-.003 0 2.021-2.5 2.021-2.5 0 0-2-2.5-2-2.5 0 0 2.042-2.5 2.042-2.5 0 0-2-2.271-2-2.271 0m22-5c0-2-2.229-2-2.229 0 0 2.021-2.5 2.021-2.5 0 0-2-2.5-2-2.5 0 .003 2.017-2.493 2.02-2.496.003-.003-2.006-2.504-2.002-2.504-.003 0 2.021-2.5 2.021-2.5 0 0-2-2.5-2-2.5 0 0 2.042-2.5 2.042-2.5 0 0-2-2.271-2-2.271 0"/><path d="M11.5 15.125V3a2.5 2.5 0 115 0v1m2 13.422V3a2.5 2.5 0 115 0v1m-12 5.5h7m-7-3h7m-7 6h7"/></g><path fill="none" d="M0 0h24v24H0z"/></svg>