<svg xmlns="http://www.w3.org/2000/svg" viewBox="0 0 24 24" width="24" height="24"><g fill="none" stroke="#000" stroke-linejoin="round" stroke-miterlimit="10"><path d="M23.5 20c0 1.934-1.566 3.5-3.5 3.5H4a3.5 3.5 0 110-7h16a3.5 3.5 0 013.5 3.5z"/><path d="M7.847 16.5l2.944-5.167a10.293 10.293 0 00.03-10.147L1.354 17.688"/><path stroke-linecap="round" d="M9.79 6.907l-2.744 4.814"/><circle cx="5" cy="20" r="1.5"/><circle cx="19" cy="20" r="1.5"/><path stroke-linecap="round" d="M22.5 17.584V7.5a2 2 0 00-4 0v.051a2.5 2.5 0 010 4.899v4.05"/></g><path fill="none" d="M0 0h24v24H0z"/></svg>