<svg xmlns="http://www.w3.org/2000/svg" viewBox="0 0 24 24" width="24" height="24"><defs><style>.a{fill:none;stroke:#000;stroke-linecap:round;stroke-linejoin:round;stroke-width:1.5px}</style></defs><title>synchronize-arrows-lock</title><path class="a" d="M18.707 6.246A9 9 0 0 0 3 12.247V13m2.293 5.249a9 9 0 0 0 15.707-6V11.5"/><path class="a" d="M18.75 13.747l2.25-2.25 2.25 2.25m-18-3L3 12.997l-2.25-2.25"/><rect class="a" x="8.25" y="9.997" width="7.5" height="6" rx="1.5" ry="1.5"/><path class="a" d="M12 12.622a.375.375 0 1 0 .375.375.375.375 0 0 0-.375-.375M9.75 10v-.75a2.25 2.25 0 0 1 4.5 0V10"/></svg>