<svg xmlns="http://www.w3.org/2000/svg" viewBox="0 0 24 24" width="24" height="24"><defs><style>.a{fill:none;stroke:#000;stroke-linecap:round;stroke-linejoin:round;stroke-width:1.5px}</style></defs><title>sync-location</title><circle class="a" cx="11.75" cy="6.75" r="3"/><path class="a" d="M11.75.75a6 6 0 0 1 6 6c0 2.672-3.9 7.861-5.412 9.771a.75.75 0 0 1-1.177 0C9.65 14.61 5.75 9.422 5.75 6.75a6 6 0 0 1 6-6zM5 14c-1.85.818-3 1.971-3 3.247 0 2.485 4.365 4.5 9.75 4.5h.75m6.009-7.74c1.844.818 2.991 1.969 2.991 3.243 0 1.736-2.13 3.243-5.25 3.993"/><path class="a" d="M11 23.25l1.5-1.5-1.5-1.5"/></svg>