<svg xmlns="http://www.w3.org/2000/svg" viewBox="0 0 24 24" width="24" height="24"><defs><style>.a{fill:none;stroke:#000;stroke-linecap:round;stroke-linejoin:round;stroke-width:1.5px}</style></defs><title>synchronize-arrows-square-warning</title><path class="a" d="M3.75 10.747V17.5a3 3 0 0 0 3 3h10.5a3 3 0 0 0 3-3v-.75m0-3.003V7a3 3 0 0 0-3-3H6.75a3 3 0 0 0-3 3v.75"/><path class="a" d="M6.75 13.747l-3-3-3 3m16.5-3l3 3 3-3M12 7.021v6m0 3.379a.375.375 0 1 0 .375.375A.375.375 0 0 0 12 16.4"/></svg>