<svg id="Regular" xmlns="http://www.w3.org/2000/svg" viewBox="0 0 24 24" width="24" height="24"><defs><style>.cls-1{fill:none;stroke:#000;stroke-linecap:round;stroke-linejoin:round;stroke-width:1.5px}</style></defs><title>table-lamp-retro</title><path class="cls-1" d="M21.75 12.75a.739.739 0 0 0 .75-.79c-.466-4.6-5.011-8.21-10.5-8.21S1.966 7.36 1.5 11.96a.739.739 0 0 0 .75.79z"/><path class="cls-1" d="M9.75 3.957V3a2.25 2.25 0 0 1 4.5 0v.957M10.5 12.75h3v7.5h-3zm7.5 10.5H6a3 3 0 0 1 3-3h6a3 3 0 0 1 3 3zM7.5 20.652V18.75M2.873 8.25h18.254"/></svg>