<svg xmlns="http://www.w3.org/2000/svg" viewBox="0 0 24 24" width="24" height="24"><defs><style>.a{fill:none;stroke:#000;stroke-linecap:round;stroke-linejoin:round;stroke-width:1.5px}</style></defs><title>tablet-touch-1</title><path class="a" d="M15.75 23.25l-2.929-2.344a1.637 1.637 0 0 1-.566-1.676 1.637 1.637 0 0 1 2.321-1.067l1.174.587V13.5a1.5 1.5 0 0 1 1.5-1.5 1.5 1.5 0 0 1 1.5 1.5v3l1.993.332a3 3 0 0 1 2.507 2.959v3.459m-22.503-6H9.75m0 4.5h-7.5a1.5 1.5 0 0 1-1.5-1.5v-18a1.5 1.5 0 0 1 1.5-1.5h12a1.5 1.5 0 0 1 1.5 1.5V9"/><path class="a" d="M3.75 5.25h3v3h-3zm6 0h3v3h-3zm-6 6h3v3h-3z"/></svg>