<svg id="Regular" xmlns="http://www.w3.org/2000/svg" viewBox="0 0 24 24" width="24" height="24"><defs><style>.cls-1{fill:none;stroke:#000;stroke-linecap:round;stroke-linejoin:round;stroke-width:1.5px}</style></defs><title>table-candelabra</title><path class="cls-1" d="M20.25 14.323H3.75l-2.25-3.75h21l-2.25 3.75zm-19.5-3.75h22.5m-19.5 3.75l-1.866 7.93a.75.75 0 0 0 1.377.552l4.989-8.482m12 0l1.866 7.93a.75.75 0 0 1-1.377.552l-4.989-8.482m1.5-9.75v6m3-6a3 3 0 0 1-6 0m0-3.75v1.5m3-1.5v1.5m3-1.5v1.5M4.5 10.573l-2.25-3H12l-2.25 3H4.5z"/></svg>