<svg id="Regular" xmlns="http://www.w3.org/2000/svg" viewBox="0 0 24 24" width="24" height="24"><defs><style>.cls-1{fill:none;stroke:#000;stroke-linecap:round;stroke-linejoin:round;stroke-width:1.5px}</style></defs><title>table-restaurant-beach-1</title><path class="cls-1" d="M1.5 11.25L3 18m-1.5 5.25L3 18h3a1.5 1.5 0 0 1 1.5 1.5v3.75m15-12L21 18m1.5 5.25L21 18h-3a1.5 1.5 0 0 0-1.5 1.5v3.75M12 6.75v16.5M6.75 13.5h10.5M1.5 6.75a.75.75 0 0 1-.344-1.416L11.265.943a1.5 1.5 0 0 1 1.47 0l10.109 4.391A.75.75 0 0 1 22.5 6.75z"/></svg>