<svg id="Regular" xmlns="http://www.w3.org/2000/svg" viewBox="0 0 24 24" width="24" height="24"><defs><style>.cls-1{fill:none;stroke:#000;stroke-linecap:round;stroke-linejoin:round;stroke-width:1.5px}</style></defs><title>table-candles</title><path class="cls-1" d="M12 7.875v15m2.25-17.7a2.506 2.506 0 0 1-2.25 2.7 2.506 2.506 0 0 1-2.25-2.7c0-2.025 2.25-4.05 2.25-4.05s2.25 2.025 2.25 4.05zM6 7.425a2.506 2.506 0 0 1-2.25 2.7 2.506 2.506 0 0 1-2.25-2.7c0-2.025 2.25-4.05 2.25-4.05S6 5.4 6 7.425zm16.5 0a2.506 2.506 0 0 1-2.25 2.7 2.506 2.506 0 0 1-2.25-2.7c0-2.025 2.25-4.05 2.25-4.05S22.5 5.4 22.5 7.425zm-2.25 2.7a8.25 8.25 0 0 1-16.5 0m4.5 12.75h7.5"/></svg>