<svg id="Regular" xmlns="http://www.w3.org/2000/svg" viewBox="0 0 24 24" width="24" height="24"><defs><style>.cls-1{fill:none;stroke:#000;stroke-linecap:round;stroke-linejoin:round;stroke-width:1.5px}</style></defs><title>table-lamp-retro-1</title><path class="cls-1" d="M21.75 12.75A9.75 9.75 0 0 0 11.7 3.005a10.02 10.02 0 0 0-9.45 10.154v.822a.75.75 0 0 0 1.136.643L6 13.055l2.1 1.575a1.5 1.5 0 0 0 1.8 0l2.1-1.575 2.193 1.645a1.5 1.5 0 0 0 1.672.086l2.885-1.731 1.8 1.35a.75.75 0 0 0 1.2-.6zm-9.75.305V23.25m-3.75 0h7.5M15 15v3M12 3V.75"/></svg>