<svg xmlns="http://www.w3.org/2000/svg" viewBox="0 0 24 24" width="24" height="24"><defs><style>.a{fill:none;stroke:#000;stroke-linecap:round;stroke-linejoin:round;stroke-width:1.5px}</style></defs><title>tablet-touch</title><path class="a" d="M13.5 22.5l-2.929-2.344A1.637 1.637 0 0 1 10 18.48a1.637 1.637 0 0 1 2.321-1.067L13.5 18v-5.25a1.5 1.5 0 0 1 1.5-1.5 1.5 1.5 0 0 1 1.5 1.5v3l1.993.332A3 3 0 0 1 21 19.041V22.5M5.247 6h7.5m-7.5 3h7.5m-7.5 3h3.75"/><path class="a" d="M7.5 18H2.247a1.5 1.5 0 0 1-1.5-1.5V3a1.5 1.5 0 0 1 1.5-1.5h19.5a1.5 1.5 0 0 1 1.5 1.5v12m-4.5-13.5v9"/></svg>