<svg xmlns="http://www.w3.org/2000/svg" viewBox="0 0 24 24" width="24" height="24"><path fill="none" stroke="#000" stroke-linecap="round" stroke-linejoin="round" stroke-miterlimit="10" d="M11.525 19.955l-2.49 2.49a2 2 0 01-2.828 0l-.354-.354A8.987 8.987 0 013.384 14"/><path fill="none" stroke="#000" stroke-linecap="round" stroke-linejoin="round" stroke-miterlimit="10" d="M17.546 3a2.498 2.498 0 00-4.267-1.768c-.013.012-.021.026-.032.038a2.5 2.5 0 00-3.15.315 2.488 2.488 0 00-.72 1.63c-.924-.429-2.054-.271-2.816.492S5.64 5.6 6.068 6.523a2.488 2.488 0 00-1.629.72c-.87.87-.96 2.22-.277 3.195a2.51 2.51 0 00-.43.34 2.5 2.5 0 000 3.536c.166.165.354.293.549.402a2.495 2.495 0 00.512 2.779c.51.51 1.184.746 1.852.724a2.49 2.49 0 00.623 2.458 2.5 2.5 0 003.536 0"/><path fill="none" stroke="#000" stroke-linecap="round" stroke-linejoin="round" stroke-miterlimit="10" d="M9.742 18.203a9.003 9.003 0 01.438-13.139c3.602-3.163 9.119-2.762 12.509.629l.136.135a2 2 0 010 2.829L11.511 19.971l-1.769-1.768z"/><path d="M19.5 7a.5.5 0 100 .999.5.5 0 000-.999zm-4 0a.5.5 0 10-.002.999A.5.5 0 0015.5 7zm0 4a.5.5 0 10-.002.999A.5.5 0 0015.5 11zm2-2a.5.5 0 10-.002.999A.5.5 0 0017.5 9zm-6-2a.5.5 0 100 .999.5.5 0 000-.999zm0 4a.5.5 0 100 .999.5.5 0 000-.999zm2-2a.5.5 0 100 .999.5.5 0 000-.999zm-2 6a.5.5 0 10-.002.999A.5.5 0 0011.5 15zm2-2a.5.5 0 10-.002.999A.5.5 0 0013.5 13z"/><path fill="none" d="M0 0h24v24H0z"/></svg>