<svg xmlns="http://www.w3.org/2000/svg" viewBox="0 0 24 24" width="24" height="24"><path fill="none" stroke="#000" stroke-linejoin="round" stroke-miterlimit="10" d="M12.91 5.5a2.753 2.753 0 014.217-.395c.782.783.994 1.92.637 2.895m-2.006 2.506a2 2 0 113.313.787"/><path fill="none" stroke="#000" stroke-linejoin="round" stroke-miterlimit="10" d="M13.99 10.232l5.081 1.061-4.036 4.036"/><path fill="none" stroke="#000" stroke-linejoin="round" stroke-miterlimit="10" d="M18.718 10.939a1.5 1.5 0 102.121-2.121c-.022-.023-.05-.039-.073-.061a1.5 1.5 0 00.427-.293 1.5 1.5 0 000-2.121 1.488 1.488 0 00-.995-.434c.513-.59.495-1.48-.065-2.042a1.495 1.495 0 00-2.042-.065 1.487 1.487 0 00-.433-.995 1.501 1.501 0 00-2.122 0 1.486 1.486 0 00-.293.427c-.021-.023-.037-.051-.061-.073a1.5 1.5 0 10-2.121 2.121m-2.308 14.329l-2.995 2.995a1 1 0 01-1.415 0l-4.949-4.949a1 1 0 010-1.415L12.707 4.929l2.169 9.042a3.998 3.998 0 01-1.013 3.944l-.545.544a4 4 0 01-3.943 1.014L1.394 16.95"/><path d="M11.5 10a.5.5 0 100 .999.5.5 0 000-.999zm0 3a.5.5 0 100 .999.5.5 0 000-.999zm-3 3a.5.5 0 100 .999.5.5 0 000-.999zm0-3a.5.5 0 100 .999.5.5 0 000-.999z"/><path fill="none" d="M0 0h24v24H0z"/></svg>