<svg xmlns="http://www.w3.org/2000/svg" viewBox="0 0 24 24" width="24" height="24"><defs><style>.a{fill:none;stroke:#000;stroke-linecap:round;stroke-linejoin:round;stroke-width:1.5px}</style></defs><title>tag-free</title><path class="a" d="M1.5 15.75v-6A1.5 1.5 0 0 1 3 8.25h1.5m-3 4.5h2.25m3.75 3v-7.5m0 0h1.125a1.875 1.875 0 0 1 0 3.75H7.5m3 3.75L8.25 12m8.25 3.75H15a1.5 1.5 0 0 1-1.5-1.5v-4.5a1.5 1.5 0 0 1 1.5-1.5h1.5m-3 4.5h3m6 3H21a1.5 1.5 0 0 1-1.5-1.5v-4.5a1.5 1.5 0 0 1 1.5-1.5h1.5m-3 4.5h3m.75 6v3a1.5 1.5 0 0 1-1.5 1.5H2.25a1.5 1.5 0 0 1-1.5-1.5v-3m0-13.5v-3a1.5 1.5 0 0 1 1.5-1.5h19.5a1.5 1.5 0 0 1 1.5 1.5v3"/></svg>