<svg xmlns="http://www.w3.org/2000/svg" viewBox="0 0 24 24" width="24" height="24"><defs><style>.a{fill:none;stroke:#000;stroke-linecap:round;stroke-linejoin:round;stroke-width:1.5px}</style></defs><title>tag-euro</title><path class="a" d="M10.293 16.5c-1.975-1.975-1.975-4.156 0-6.131s4.156-1.975 6.131 0m-6.131-2.043l4.087 4.087m-6.13-2.044l3.065 3.065"/><circle class="a" cx="18.244" cy="5.45" r="1.445"/><path class="a" d="M21.705.75h-9.374a1.546 1.546 0 0 0-1.127.487L1.168 11.908a1.536 1.536 0 0 0 .11 2.212l10.031 8.749a1.549 1.549 0 0 0 2.146-.108l9.379-10.017a1.538 1.538 0 0 0 .416-1.051V2.29A1.542 1.542 0 0 0 21.705.75z"/></svg>