<svg xmlns="http://www.w3.org/2000/svg" viewBox="0 0 24 24" width="24" height="24"><defs><style>.a{fill:none;stroke:#000;stroke-linecap:round;stroke-linejoin:round;stroke-width:1.5px}</style></defs><title>tag-new-circle</title><path class="a" d="M3 15.75v-7.5l3 7.5v-7.5m6 7.5h-1.5a1.5 1.5 0 0 1-1.5-1.5v-4.5a1.5 1.5 0 0 1 1.5-1.5H12m-3 4.5h3m3-4.5v2.017a8.982 8.982 0 0 0 .644 3.342l.856 2.141L18 10.5l1.5 5.25.856-2.141A9 9 0 0 0 21 10.267V8.25m2.25 10.5v3a1.5 1.5 0 0 1-1.5 1.5H2.25a1.5 1.5 0 0 1-1.5-1.5v-3m0-13.5v-3a1.5 1.5 0 0 1 1.5-1.5h19.5a1.5 1.5 0 0 1 1.5 1.5v3"/></svg>