<svg xmlns="http://www.w3.org/2000/svg" viewBox="0 0 24 24" width="24" height="24"><defs><style>.a{fill:none;stroke:#000;stroke-linecap:round;stroke-linejoin:round;stroke-width:1.5px}</style></defs><title>tag-hot-price</title><path class="a" d="M12 22.875v-7.5m8.25-4.5v-7.5m-1.5 0h3M3 10.875v-7.5m3 7.5v-7.5m-3 4.5h3m0 15v-7.5m0 0h1.125a1.875 1.875 0 0 1 0 3.75H6m3 3.75l-2.25-3.75M18 15.375a3 3 0 0 0-3 3v1.5a3 3 0 0 0 3 3m-17.25 0v-7.5m0 0h.75a2.25 2.25 0 0 1 0 4.5H.75m22.5 3h-1.5a1.5 1.5 0 0 1-1.5-1.5v-4.5a1.5 1.5 0 0 1 1.5-1.5h1.5m-3 4.5h3M11.708 1.125a3.887 3.887 0 0 1 .392 4.432 1.386 1.386 0 0 1-1.477-1.182A3.134 3.134 0 0 0 9 7.329a3.546 3.546 0 0 0 3.545 3.546 3.6 3.6 0 0 0 3.546-3.546 5.894 5.894 0 0 0-4.383-6.204z"/></svg>