<svg xmlns="http://www.w3.org/2000/svg" viewBox="0 0 24 24" width="24" height="24"><defs><style>.a{fill:none;stroke:#000;stroke-linecap:round;stroke-linejoin:round;stroke-width:1.5px}</style></defs><title>tags-favorite-star</title><path class="a" d="M9.012 19.188a1.5 1.5 0 0 1-2.121 0L1.512 13.81a1.5 1.5 0 0 1 0-2.122l10.5-10.5a1.5 1.5 0 0 1 1.061-.439h5.378a1.5 1.5 0 0 1 1.5 1.5v5.379a1.5 1.5 0 0 1-.439 1.06"/><path class="a" d="M16.2 4.124a.375.375 0 1 0 .375.375.375.375 0 0 0-.375-.375m1.424 7.555l1.541 4.07h3a.735.735 0 0 1 .519 1.283l-2.6 1.815 1.443 3.314a.786.786 0 0 1-1.119.982l-3.487-1.961-3.491 1.961a.786.786 0 0 1-1.119-.982l1.443-3.314-2.6-1.815a.734.734 0 0 1 .515-1.283h3l1.545-4.07a.8.8 0 0 1 1.41 0z"/></svg>