<svg xmlns="http://www.w3.org/2000/svg" viewBox="0 0 24 24" width="24" height="24"><defs><style>.a{fill:none;stroke:#000;stroke-linecap:round;stroke-linejoin:round;stroke-width:1.5px}</style></defs><title>tags-cash</title><path class="a" d="M9 19.188a1.5 1.5 0 0 1-2.121 0L1.5 13.81a1.5 1.5 0 0 1 0-2.122L12 1.188a1.5 1.5 0 0 1 1.061-.439h5.378a1.5 1.5 0 0 1 1.5 1.5v5.379a1.5 1.5 0 0 1-.439 1.06"/><path class="a" d="M16.189 4.124a.375.375 0 1 0 .375.375.375.375 0 0 0-.375-.375m2.25 10.125h-2.033a1.341 1.341 0 0 0-.5 2.587l2.063.826a1.342 1.342 0 0 1-.5 2.587h-2.03m1.5-6v-.75m0 7.5v-.75"/><circle class="a" cx="16.939" cy="17.249" r="6"/></svg>