<svg xmlns="http://www.w3.org/2000/svg" viewBox="0 0 24 24" width="24" height="24"><defs><style>.a{fill:none;stroke:#000;stroke-linecap:round;stroke-linejoin:round;stroke-width:1.5px}</style></defs><title>tags-double-1</title><path class="a" d="M4.5 1.353H12l10.5 10.5m-13.371-7.5H3a1.5 1.5 0 0 0-1.5 1.5v6.128a1.5 1.5 0 0 0 .439 1.061l9.161 9.163a1.5 1.5 0 0 0 2.465-.534L15 17.853l3.819-1.433a1.5 1.5 0 0 0 .534-2.465l-9.164-9.163a1.5 1.5 0 0 0-1.06-.439zM6 8.478"/><path class="a" d="M6 8.478a.375.375 0 1 0 .375.375A.374.374 0 0 0 6 8.478"/></svg>