<svg xmlns="http://www.w3.org/2000/svg" viewBox="0 0 24 24" width="24" height="24"><defs><style>.a{fill:none;stroke:#000;stroke-linecap:round;stroke-linejoin:round;stroke-width:1.5px}</style></defs><title>tags-settings</title><path class="a" d="M6.879 19.188L1.5 13.81a1.5 1.5 0 0 1 0-2.122L12 1.188a1.5 1.5 0 0 1 1.061-.439h5.378a1.5 1.5 0 0 1 1.5 1.5v5.379"/><path class="a" d="M16.564 4.5a.375.375 0 0 0-.375-.375.375.375 0 1 0 .375.375"/><circle class="a" cx="16.939" cy="16.499" r="1.5"/><path class="a" d="M18.214 10.7l.442 1.453a.994.994 0 0 0 1.173.681l1.473-.342a1.339 1.339 0 0 1 1.274 2.219l-1.03 1.111a1 1 0 0 0 0 1.362l1.03 1.111a1.339 1.339 0 0 1-1.276 2.214l-1.473-.341a.992.992 0 0 0-1.173.681l-.44 1.451a1.331 1.331 0 0 1-2.549 0l-.442-1.452a.993.993 0 0 0-1.174-.681l-1.472.341a1.338 1.338 0 0 1-1.277-2.217l1.03-1.111a1 1 0 0 0 0-1.362l-1.03-1.111a1.339 1.339 0 0 1 1.274-2.219l1.472.342a1 1 0 0 0 1.174-.681l.442-1.453a1.331 1.331 0 0 1 2.552.004z"/></svg>