<svg xmlns="http://www.w3.org/2000/svg" viewBox="0 0 24 24" width="24" height="24"><defs><style>.a{fill:none;stroke:#000;stroke-linecap:round;stroke-linejoin:round;stroke-width:1.5px}</style></defs><title>tags-favorite</title><path class="a" d="M9 19.3a1.5 1.5 0 0 1-2.121 0L1.5 13.92a1.5 1.5 0 0 1 0-2.121L12 1.3a1.5 1.5 0 0 1 1.061-.44h5.378a1.5 1.5 0 0 1 1.5 1.5v5.378A1.5 1.5 0 0 1 19.5 8.8"/><path class="a" d="M16.189 4.235a.375.375 0 1 0 .375.375.375.375 0 0 0-.375-.375m.75 18.903L11.826 17.8a3.025 3.025 0 0 1-.567-3.492 3.025 3.025 0 0 1 4.845-.786l.835.835.836-.835a3.025 3.025 0 0 1 4.845.786 3.025 3.025 0 0 1-.567 3.492z"/></svg>