<svg xmlns="http://www.w3.org/2000/svg" viewBox="0 0 24 24" width="24" height="24"><defs><style>.a{fill:none;stroke:#000;stroke-linecap:round;stroke-linejoin:round;stroke-width:1.5px}</style></defs><title>tags-refresh</title><path class="a" d="M6.879 19.188L1.5 13.81a1.5 1.5 0 0 1 0-2.122L12 1.188a1.5 1.5 0 0 1 1.061-.439h5.378a1.5 1.5 0 0 1 1.5 1.5v5.379a1.5 1.5 0 0 1-.439 1.06"/><path class="a" d="M16.189 4.124a.375.375 0 1 0 .375.375.375.375 0 0 0-.375-.375m-1.5 14.625h-3.75v3.75m11.418-3.017a5.572 5.572 0 0 1-10.74-.733m7.572-3h3.75v-3.75m-11.417 3.016a5.573 5.573 0 0 1 10.74.734"/></svg>