<svg xmlns="http://www.w3.org/2000/svg" viewBox="0 0 24 24" width="24" height="24"><defs><style>.a{fill:none;stroke:#000;stroke-linecap:round;stroke-linejoin:round;stroke-width:1.5px}</style></defs><title>tags-edit</title><path class="a" d="M6.879 19.188L1.5 13.81a1.5 1.5 0 0 1 0-2.122L12 1.188a1.5 1.5 0 0 1 1.061-.439h5.378a1.5 1.5 0 0 1 1.5 1.5v5.379m-3.75-3.504"/><path class="a" d="M16.189 4.124a.375.375 0 1 0 .375.375.375.375 0 0 0-.375-.375m6.131 10.744L14.689 22.5l-3.75.75.75-3.75 7.631-7.631a2.115 2.115 0 0 1 2.991 0l.009.009a2.115 2.115 0 0 1 0 2.99z"/></svg>