<svg xmlns="http://www.w3.org/2000/svg" viewBox="0 0 24 24" width="24" height="24"><g fill="none" stroke="#000" stroke-linecap="round" stroke-linejoin="round" stroke-miterlimit="10"><path d="M3.5 15.5h17v8h-17z"/><path d="M8.5 19a1.5 1.5 0 10-3 0v4.5h3V19zm5 0a1.5 1.5 0 10-3 0v4.5h3V19zm5 0a1.5 1.5 0 10-3 0v4.5h3V19zm2-6.5h3v11h-3z"/><path d="M23.5 11a1.5 1.5 0 11-3 0c0-.828 1.5-2.5 1.5-2.5s1.5 1.672 1.5 2.5zm-23 1.5h3v11h-3z"/><path d="M3.5 11a1.5 1.5 0 11-3 0C.5 10.172 2 8.5 2 8.5s1.5 1.672 1.5 2.5zm14 .5c0 2.486-2 4-5.5 4s-5.5-1.514-5.5-4C6.5 9.015 12 6 12 6s5.5 3.015 5.5 5.5zm-3.145-8.425a2 2 0 11-2.68-2.518M12 6V4.327"/></g><path fill="none" d="M0 0h24v24H0z"/></svg>