<svg xmlns="http://www.w3.org/2000/svg" viewBox="0 0 24 24" width="24" height="24"><defs><style>.a{fill:none;stroke:#000;stroke-linecap:round;stroke-linejoin:round;stroke-width:1.5px}</style></defs><title>taking-pictures-human</title><path class="a" d="M9.75 3.75L9 2.25H4.5l-.75 1.5h-1.5a1.5 1.5 0 0 0-1.5 1.5v4.5a1.5 1.5 0 0 0 1.5 1.5h9a1.5 1.5 0 0 0 1.5-1.5v-4.5a1.5 1.5 0 0 0-1.5-1.5z"/><circle class="a" cx="6.75" cy="7.125" r="1.875"/><path class="a" d="M5.25 23.25a9 9 0 0 1 18 0M12 1.255a5.251 5.251 0 0 1 4.5 9.49"/></svg>