<svg xmlns="http://www.w3.org/2000/svg" viewBox="0 0 24 24" width="24" height="24"><g fill="none" stroke="#000" stroke-linejoin="round" stroke-miterlimit="10"><path d="M1.5 19.5a4 4 0 004 4h13a4 4 0 000-8h-13a4 4 0 00-4 4z"/><circle cx="5.5" cy="19.5" r="2"/><circle cx="12" cy="19.5" r="2"/><circle cx="18.5" cy="19.5" r="2"/><path d="M1.5 19.5L.5 15v-3.5h18l5 4-1.379 2.298M14.5 11.5l2-3-2-3h-8L3 4.716l-.5 3L5.5 9l.5 2.5"/><path d="M7.5 5.5v-2h4v2m5 3h5m0-.5l2-.5v2l-2-.5z"/></g><path fill="none" d="M0 0h24v24H0z"/></svg>