<svg xmlns="http://www.w3.org/2000/svg" viewBox="0 0 24 24" width="24" height="24"><defs><style>.a{fill:none;stroke:#000;stroke-linecap:round;stroke-linejoin:round;stroke-width:1.5px}</style></defs><title>target-miss</title><path class="a" d="M8.261 16.49a5.21 5.21 0 0 1 .86-9.979 5.337 5.337 0 0 1 2.044.009"/><path class="a" d="M8.222 20.807a9.377 9.377 0 0 1 .651-18.476 9.553 9.553 0 0 1 2.748.038M11.323 18.2a6 6 0 1 1 4.977 4.977 6.006 6.006 0 0 1-4.977-4.977zM19.5 15L15 19.5m0-4.5l4.5 4.5m-9.75-7.641l4.167-4.167m0 0l.568-3.75L17.733.75l.502 2.624 2.624.502-3.192 3.248-3.75.568z"/></svg>