<svg xmlns="http://www.w3.org/2000/svg" viewBox="0 0 24 24" width="24" height="24"><defs><style>.a{fill:none;stroke:#000;stroke-linecap:round;stroke-linejoin:round;stroke-width:1.5px}</style></defs><title>target-center-phone</title><path class="a" d="M17 14.979v5.25a3 3 0 0 1-3 3H6.5a3 3 0 0 1-3-3v-16.5a3 3 0 0 1 3-3h6.75m-9.75 16.5H17"/><path class="a" d="M10.25 19.854a.375.375 0 1 0 .375.375.375.375 0 0 0-.375-.375m.873-9.498L15.5 5.979m0 0l.413-2.727L18.275.931l.365 1.908 1.909.365-2.322 2.362-2.727.413zm-.628 4.5a3.75 3.75 0 1 1-3.75-3.75"/></svg>