<svg xmlns="http://www.w3.org/2000/svg" viewBox="0 0 24 24" width="24" height="24"><defs><style>.a{fill:none;stroke:#000;stroke-linecap:round;stroke-linejoin:round;stroke-width:1.5px}</style></defs><title>target-path</title><path class="a" d="M20.25 12.216a5.279 5.279 0 0 0 1.819-1.425m1.154-2.834a5.3 5.3 0 0 0-.3-2.291M21.07 3.228a5.1 5.1 0 0 0-2.123-.908M3.642 13.292a5.151 5.151 0 0 0-1.853 1.558M.752 17.883a5.146 5.146 0 0 0 .516 2.364m2.2 2.332a5.261 5.261 0 0 0 2.335.638m5.444-14.988v15M8.384 11.093l2.863-2.864 2.864 2.864"/><circle class="a" cx="11.247" cy="2.979" r="2.25"/></svg>