<svg xmlns="http://www.w3.org/2000/svg" viewBox="0 0 24 24" width="24" height="24"><defs><style>.a{fill:none;stroke:#000;stroke-linecap:round;stroke-linejoin:round;stroke-width:1.5px}</style></defs><title>target-center-monitor</title><path class="a" d="M15.75 23.229h-7.5l.75-4.5h6l.75 4.5zm-9.75 0h12m-17.25-7.5h22.5m-.331-10.371a2.981 2.981 0 0 1 .331 1.371v9a3 3 0 0 1-3 3H3.75a3 3 0 0 1-3-3v-9a3 3 0 0 1 3-3h6m1.502 5.877l3.828-3.828"/><path class="a" d="M15.08 5.778l.413-2.727L17.855.729l.365 1.908 1.908.366-2.321 2.362-2.727.413zM15 9.729a3.75 3.75 0 1 1-3.75-3.75"/></svg>