<svg xmlns="http://www.w3.org/2000/svg" viewBox="0 0 24 24" width="24" height="24"><defs><style>.a{fill:none;stroke:#000;stroke-linecap:round;stroke-linejoin:round;stroke-width:1.5px}</style></defs><title>task-checklist-check</title><path class="a" d="M20.252 9V5.249a1.5 1.5 0 0 0-1.5-1.5h-4m-8.5 0h-4a1.5 1.5 0 0 0-1.5 1.5v16.5a1.5 1.5 0 0 0 1.5 1.5H10.5"/><path class="a" d="M14.423 4.736a.751.751 0 0 1-.711.513H7.293a.751.751 0 0 1-.712-.513l-1-3a.749.749 0 0 1 .712-.987h8.419a.749.749 0 0 1 .711.987zM8.252 20.249H4.5a.75.75 0 0 1-.75-.75V6.749m13.502 0v1.5"/><circle class="a" cx="17.25" cy="17.249" r="6"/><path class="a" d="M19.924 15.5l-2.905 3.874a.751.751 0 0 1-1.131.08l-1.5-1.5M6.752 9.749h4.5m-4.5 4.5h1.5"/></svg>