<svg xmlns="http://www.w3.org/2000/svg" viewBox="0 0 24 24" width="24" height="24"><defs><style>.a{fill:none;stroke:#000;stroke-linecap:round;stroke-linejoin:round;stroke-width:1.5px}</style></defs><title>task-list-search</title><circle class="a" cx="16.5" cy="16.511" r="5.25"/><path class="a" d="M23.25 23.261l-3.038-3.038M5.25 10.511h4.5m-4.5 3.75H7.5m-2.25 3.75H7.5m2.25 5.25h-7.5a1.5 1.5 0 0 1-1.5-1.5V6.011a1.5 1.5 0 0 1 1.5-1.5H6a3.75 3.75 0 0 1 7.5 0h3.75a1.5 1.5 0 0 1 1.5 1.5v2.25"/><path class="a" d="M9.75 3.761a.375.375 0 1 1-.375.375.375.375 0 0 1 .375-.375"/></svg>