<svg xmlns="http://www.w3.org/2000/svg" viewBox="0 0 24 24" width="24" height="24"><defs><style>.a{fill:none;stroke:#000;stroke-linecap:round;stroke-linejoin:round;stroke-width:1.5px}</style></defs><title>task-list-pin</title><path class="a" d="M15.75 6.761h3.75a1.5 1.5 0 0 1 1.5 1.5v9.879a1.5 1.5 0 0 1-.439 1.06l-3.622 3.622a1.5 1.5 0 0 1-1.06.439H4.5a1.5 1.5 0 0 1-1.5-1.5v-13.5a1.5 1.5 0 0 1 1.5-1.5h3.75"/><path class="a" d="M15 23.261v-4.5a1.5 1.5 0 0 1 1.5-1.5H21"/><circle class="a" cx="12" cy="3.011" r="2.25"/><path class="a" d="M12 10.511v-5.25m-5.25 9h10.5m-10.5 4.5h4.5"/></svg>