<svg xmlns="http://www.w3.org/2000/svg" viewBox="0 0 24 24" width="24" height="24"><defs><style>.a{fill:none;stroke:#000;stroke-linecap:round;stroke-linejoin:round;stroke-width:1.5px}</style></defs><title>task-list-share</title><circle class="a" cx="13.5" cy="18.011" r="2.25"/><circle class="a" cx="21" cy="21.011" r="2.25"/><circle class="a" cx="21" cy="13.511" r="2.25"/><path class="a" d="M15.425 16.856l3.65-2.19m-3.487 4.18l3.324 1.33M5.25 10.511h7.5m-7.5 3.75h3m-3 3.75h3m3.75 5.25H2.25a1.5 1.5 0 0 1-1.5-1.5V6.011a1.5 1.5 0 0 1 1.5-1.5H6a3.75 3.75 0 0 1 7.5 0h3.75a1.5 1.5 0 0 1 1.5 1.5v2.25"/><path class="a" d="M9.75 3.761a.375.375 0 1 1-.375.375.375.375 0 0 1 .375-.375"/></svg>