<svg xmlns="http://www.w3.org/2000/svg" viewBox="0 0 24 24" width="24" height="24"><defs><style>.a{fill:none;stroke:#000;stroke-linecap:round;stroke-linejoin:round;stroke-width:1.5px}</style></defs><title>task-checklist-remove</title><path class="a" d="M20.25 9V5.249a1.5 1.5 0 0 0-1.5-1.5h-4m-8.5 0h-4a1.5 1.5 0 0 0-1.5 1.5v16.5a1.5 1.5 0 0 0 1.5 1.5h8.25"/><path class="a" d="M14.421 4.736a.751.751 0 0 1-.711.513H7.291a.751.751 0 0 1-.712-.513l-1-3a.749.749 0 0 1 .712-.987h8.418a.749.749 0 0 1 .712.987zM8.25 20.249H4.5a.75.75 0 0 1-.75-.75V6.749m13.5 0v1.5m-10.5 1.5h4.5m-4.5 4.5h1.5"/><circle class="a" cx="17.25" cy="17.249" r="6"/><path class="a" d="M14.25 17.249h6"/></svg>