<svg xmlns="http://www.w3.org/2000/svg" viewBox="0 0 24 24" width="24" height="24"><defs><style>.a{fill:none;stroke:#000;stroke-linecap:round;stroke-linejoin:round;stroke-width:1.5px}</style></defs><title>task-list-text-1</title><path class="a" d="M7.5 10.51h9m-9 3.75h9m-9 3.75h9m-.75-13.5h3.75a1.5 1.5 0 0 1 1.5 1.5v15.75a1.5 1.5 0 0 1-1.5 1.5h-15a1.5 1.5 0 0 1-1.5-1.5V6.01a1.5 1.5 0 0 1 1.5-1.5h3.75a3.75 3.75 0 0 1 7.5 0z"/><path class="a" d="M12 3.76a.375.375 0 1 1-.375.375A.375.375 0 0 1 12 3.76"/></svg>