<svg xmlns="http://www.w3.org/2000/svg" viewBox="0 0 24 24" width="24" height="24"><defs><style>.a{fill:none;stroke:#000;stroke-linecap:round;stroke-linejoin:round;stroke-width:1.5px}</style></defs><title>task-list-pen</title><path class="a" d="M17.25 6.359V22.51a.75.75 0 0 1-.75.75h-12a.75.75 0 0 1-.75-.75V6.76m16.5 13.5l1.5 3 1.5-3v-9.75a1.5 1.5 0 0 0-1.5-1.5 1.5 1.5 0 0 0-1.5 1.5z"/><path class="a" d="M3.75.76a3 3 0 0 1 3 3 3 3 0 0 1-3 3h12a3 3 0 0 0 3-3 3 3 0 0 0-3-3h-12zm0 0a3 3 0 0 0-3 3v12M9 11.26l1.5 1.5 2.25-2.25m-3.75 6l1.5 1.5 2.25-2.25"/></svg>