<svg xmlns="http://www.w3.org/2000/svg" viewBox="0 0 24 24" width="24" height="24"><defs><style>.a{fill:none;stroke:#000;stroke-linecap:round;stroke-linejoin:round;stroke-width:1.5px}</style></defs><title>task-text</title><path class="a" d="M12.75 5.248h-7.5v-3a1.5 1.5 0 0 1 1.5-1.5h4.5a1.5 1.5 0 0 1 1.5 1.5z"/><path class="a" d="M8.25 20.248h-6a1.5 1.5 0 0 1-1.5-1.5v-15a1.5 1.5 0 0 1 1.5-1.5h3m7.5 0h3a1.5 1.5 0 0 1 1.5 1.5v4.5"/><path class="a" d="M8.25 17.248h-4.5v-12h10.5v2.997"/><rect class="a" x="11.25" y="11.248" width="12" height="12" rx="1.5" ry="1.5"/><path class="a" d="M14.25 14.248h6m-6 3h6m-6 3h2.25"/></svg>