<svg xmlns="http://www.w3.org/2000/svg" viewBox="0 0 24 24" width="24" height="24"><defs><style>.a{fill:none;stroke:#000;stroke-linecap:round;stroke-linejoin:round;stroke-width:1.5px}</style></defs><title>task-list-edit-1</title><path class="a" d="M22.63 14.88L15 22.51l-3.75.75.75-3.75 7.631-7.63a2.115 2.115 0 0 1 2.991 0l.009.009a2.115 2.115 0 0 1-.001 2.991zM5.249 10.51h9m-9 3.75h6m-6 3.75h3m0 5.25h-6a1.5 1.5 0 0 1-1.5-1.5V6.01a1.5 1.5 0 0 1 1.5-1.5H6a3.75 3.75 0 0 1 7.5 0h3.75a1.5 1.5 0 0 1 1.5 1.5v2.25"/><path class="a" d="M9.749 3.76a.375.375 0 1 1-.375.375.374.374 0 0 1 .375-.375"/></svg>