<svg xmlns="http://www.w3.org/2000/svg" viewBox="0 0 24 24" width="24" height="24"><defs><style>.a{fill:none;stroke:#000;stroke-linecap:round;stroke-linejoin:round;stroke-width:1.5px}</style></defs><title>task-list-download</title><path class="a" d="M8.25 13.511L12 9.761l3.75 3.75M12 9.761v9"/><path class="a" d="M15.75 4.511h3.75a1.5 1.5 0 0 1 1.5 1.5v15.75a1.5 1.5 0 0 1-1.5 1.5h-15a1.5 1.5 0 0 1-1.5-1.5V6.011a1.5 1.5 0 0 1 1.5-1.5h3.75a3.75 3.75 0 0 1 7.5 0z"/><path class="a" d="M12 3.761a.375.375 0 1 1-.375.375.375.375 0 0 1 .375-.375"/></svg>