<svg xmlns="http://www.w3.org/2000/svg" viewBox="0 0 24 24" width="24" height="24"><defs><style>.a{fill:none;stroke:#000;stroke-linecap:round;stroke-linejoin:round;stroke-width:1.5px}</style></defs><title>task-list-upload-1</title><circle class="a" cx="17.25" cy="17.261" r="6"/><path class="a" d="M17.25 20.261v-6m0 0l2.25 2.25m-2.25-2.25L15 16.511m-9.75-6h5.25m-5.25 3.75h3m-3 3.75h3m1.5 5.25h-7.5a1.5 1.5 0 0 1-1.5-1.5V6.011a1.5 1.5 0 0 1 1.5-1.5H6a3.75 3.75 0 0 1 7.5 0h3.75a1.5 1.5 0 0 1 1.5 1.5v2.25"/><path class="a" d="M9.75 3.761a.375.375 0 1 1-.375.375.375.375 0 0 1 .375-.375"/></svg>