<svg xmlns="http://www.w3.org/2000/svg" viewBox="0 0 24 24" width="24" height="24"><defs><style>.a{fill:none;stroke:#000;stroke-linecap:round;stroke-linejoin:round;stroke-width:1.5px}</style></defs><title>task-list-edit</title><path class="a" d="M8.25 23.261h-6a1.5 1.5 0 0 1-1.5-1.5v-19.5a1.5 1.5 0 0 1 1.5-1.5h10.629a1.5 1.5 0 0 1 1.06.439l5.872 5.872a1.5 1.5 0 0 1 .439 1.06v.129"/><path class="a" d="M12.75.761v6a1.5 1.5 0 0 0 1.5 1.5h6M8.169 9.619l-2.132 2.842a.75.75 0 0 1-1.13.08L3.75 11.385m4.419 4.984l-2.132 2.842a.75.75 0 0 1-1.13.08L3.75 18.134m7.5-5.373H15m7.631 2.119L15 22.511l-3.75.75.75-3.75 7.631-7.631a2.115 2.115 0 0 1 2.991 0l.009.009a2.115 2.115 0 0 1 0 2.991z"/></svg>