<svg xmlns="http://www.w3.org/2000/svg" viewBox="0 0 24 24" width="24" height="24"><defs><style>.a{fill:none;stroke:#000;stroke-linecap:round;stroke-linejoin:round;stroke-width:1.5px}</style></defs><title>taxi-wave</title><circle class="a" cx="4.5" cy="3.375" r="2.625"/><path class="a" d="M6.75 11.25a6.006 6.006 0 0 0 6-6v-3a1.5 1.5 0 0 0-3 0v3a3 3 0 0 1-3 3h-3a3 3 0 0 0-3 3v4.5a1.5 1.5 0 0 0 1.5 1.5V21a2.25 2.25 0 0 0 4.5 0zM23.25 15h-7.125l-1.939 1.939a3.624 3.624 0 0 0-1.061 2.561 1.5 1.5 0 0 0 1.5 1.5h8.625m-7.125-6l1.7-4.54A2.249 2.249 0 0 1 19.934 9h3.316m-8.625 12v.75a1.5 1.5 0 0 0 3 0V21z"/></svg>