<svg xmlns="http://www.w3.org/2000/svg" viewBox="0 0 24 24" width="24" height="24"><g fill="none" stroke="#000" stroke-linejoin="round" stroke-miterlimit="10"><circle stroke-linecap="round" cx="5.5" cy="18.5" r="2"/><path stroke-linecap="round" d="M18.5 18.5h5"/><circle stroke-linecap="round" cx="16.5" cy="18.5" r="2"/><path stroke-linecap="round" d="M7.5 18.5h7m-14 0h3m19 0v-6h-2a5.28 5.28 0 00-5.123-4H8l-2 4H1.5v6"/><path stroke-linecap="round" d="M8.5 12.5l1-2h1"/><path d="M8.5 14v1m-2-1v1m-2-1v1m6-1v1m2-1v1m2-1v1m2-1v1m2-1v1m2-1v1"/><path stroke-linecap="round" d="M9.437 8.472C9.437 8.534 10 6.5 10 6.5h2l.922 2"/></g><path fill="none" d="M0 0h24v24H0z"/></svg>