<svg xmlns="http://www.w3.org/2000/svg" viewBox="0 0 24 24" width="24" height="24"><defs><style>.a{fill:none;stroke:#000;stroke-linecap:round;stroke-linejoin:round;stroke-width:1.5px}</style></defs><title>taxi-1</title><circle class="a" cx="5.25" cy="19" r="1.5"/><circle class="a" cx="18.75" cy="19" r="1.5"/><path class="a" d="M20.25 19h1.5a1.5 1.5 0 0 0 1.5-1.5v-3a1.5 1.5 0 0 0-1.5-1.5h-3a6 6 0 0 0-6-6h-3a1.921 1.921 0 0 0-1.864 1.455L6.75 13h-3a3 3 0 0 0-3 3v1.5a1.5 1.5 0 0 0 1.5 1.5h1.5m3 0h10.5m-10.5-6h12m-10.5 3H9m3 0h.75m3 0h.75"/><path class="a" d="M9.75 7V5.5a1.5 1.5 0 0 1 1.5-1.5H12a1.5 1.5 0 0 1 1.5 1.5v1.547"/></svg>