<svg xmlns="http://www.w3.org/2000/svg" viewBox="0 0 24 24" width="24" height="24"><defs><style>.a{fill:none;stroke:#000;stroke-linecap:round;stroke-linejoin:round;stroke-width:1.5px}</style></defs><title>taxi-driver</title><circle class="a" cx="19.5" cy="6.75" r="3"/><path class="a" d="M23.25 17.25V15a3.75 3.75 0 0 0-7.5 0v2.25h1.5l.75 6h3l.75-6zM12.75.75H10.5m-3 0A1.5 1.5 0 0 0 6 2.25m9.75-1.5h1.5m-13.5 12h1.5m4.5 0h1.5m-9 3v1.5m10.5-1.5v1.5m-10.5-7.5h10.5m1.069 1.603L12.75 9.75l-1.158-3.474a1.5 1.5 0 0 0-1.423-1.026H4.831a1.5 1.5 0 0 0-1.423 1.026L2.25 9.75 1 11.622a1.5 1.5 0 0 0-.252.832v1.8a1.5 1.5 0 0 0 1.5 1.5h10.5"/></svg>