<svg xmlns="http://www.w3.org/2000/svg" viewBox="0 0 24 24" width="24" height="24"><defs><style>.a{fill:none;stroke:#000;stroke-linecap:round;stroke-linejoin:round;stroke-width:1.5px}</style></defs><title>taxi</title><path class="a" d="M12 3.75a23.723 23.723 0 0 1 3.317.2l-.725-2.176A1.5 1.5 0 0 0 13.169.75h-2.338a1.5 1.5 0 0 0-1.423 1.026l-.725 2.176A23.723 23.723 0 0 1 12 3.75z"/><path class="a" d="M20.25 12.75l-.75-6c-.188-1.5-1.5-3-7.5-3s-7.313 1.5-7.5 3l-.75 6m-1.5 7.5v1.5a1.5 1.5 0 0 0 3 0v-1.5m3 0h-6a1.5 1.5 0 0 1-1.5-1.5v-3a3 3 0 0 1 3-3h1.5a3 3 0 0 1 3 3z"/><circle class="a" cx="4.5" cy="16.5" r="1.5"/><path class="a" d="M21.75 20.25v1.5a1.5 1.5 0 0 1-3 0v-1.5m-3 0h6a1.5 1.5 0 0 0 1.5-1.5v-3a3 3 0 0 0-3-3h-1.5a3 3 0 0 0-3 3z"/><circle class="a" cx="19.5" cy="16.5" r="1.5"/><path class="a" d="M15.75 17.25s-.75-1.5-3.75-1.5-3.75 1.5-3.75 1.5v3h7.5zM4.5 12.75s1.5-3 7.5-3 7.5 3 7.5 3"/></svg>