<svg xmlns="http://www.w3.org/2000/svg" viewBox="0 0 24 24" width="24" height="24"><defs><style>.a{fill:none;stroke:#000;stroke-linecap:round;stroke-linejoin:round;stroke-width:1.5px}</style></defs><title>taxi-station</title><path class="a" d="M3.75 10.5v12.75"/><rect class="a" x=".75" y=".75" width="6" height="9.75" rx=".5" ry=".5"/><path class="a" d="M11.25 18.75h1.5m6 0h1.5m-10.5 3v1.5m12-1.5v1.5m-2.581-12a1.5 1.5 0 0 1 1.423 1.026l1.158 3.474L23 17.622a1.5 1.5 0 0 1 .252.832v1.8a1.5 1.5 0 0 1-1.5 1.5h-12a1.5 1.5 0 0 1-1.5-1.5v-1.8a1.5 1.5 0 0 1 .252-.832L9.75 15.75l1.158-3.474a1.5 1.5 0 0 1 1.423-1.026zm-9.419 4.5h12"/></svg>