<svg id="Regular" xmlns="http://www.w3.org/2000/svg" viewBox="0 0 24 24" width="24" height="24"><defs><style>.cls-1{fill:none;stroke:#000;stroke-linecap:round;stroke-linejoin:round;stroke-width:1.5px}</style></defs><title>tea-herbal-to-go</title><rect class="cls-1" x=".75" y="5.25" width="18" height="3" rx="1.5" ry="1.5"/><path class="cls-1" d="M7.5 23.25H5.093A1.5 1.5 0 0 1 3.6 21.916L2.25 8.25h15"/><path class="cls-1" d="M2.715 12.947a3.865 3.865 0 0 1 1.035-.2 3 3 0 0 1 0 6c-.1 0-.363-.024-.465-.035M.75.75l4.5 4.5m5.308 18l11.343-11.343m-5.614 1.833l.299 3.481 3.482.3m-6.963-.599l.299 3.481 3.482.3m2.583-10.145l.299 3.481 3.482.3"/></svg>