<svg id="Regular" xmlns="http://www.w3.org/2000/svg" viewBox="0 0 24 24" width="24" height="24"><defs><style>.cls-1{fill:none;stroke:#000;stroke-linecap:round;stroke-linejoin:round;stroke-width:1.5px}</style></defs><title>tea-kettle-1</title><path class="cls-1" d="M.867 20.25h17.815M3.48 8.25h12.585m-6.292-6V.75m8.976 20.95C18.41 10.827 14.521 2.25 9.773 2.25c-2.452 0-4.675 2.288-6.3 6H.75l1.35 4.037A42.656 42.656 0 0 0 .8 21.7a1.5 1.5 0 0 0 1.5 1.55h14.95a1.5 1.5 0 0 0 1.499-1.55z"/><circle class="cls-1" cx="9.75" cy="14.25" r="3"/><path class="cls-1" d="M18.4 17.235a5.25 5.25 0 1 0-2.765-9.922"/></svg>