<svg id="Regular" xmlns="http://www.w3.org/2000/svg" viewBox="0 0 24 24" width="24" height="24"><defs><style>.cls-1{fill:none;stroke:#000;stroke-linecap:round;stroke-linejoin:round;stroke-width:1.5px}</style></defs><title>tea-box-herbal</title><path class="cls-1" d="M10.529 23.192l11.343-11.343m-5.614 1.833l.3 3.482 3.481.299m-6.963-.599l.3 3.482 3.481.299M19.44 10.5l.3 3.482 3.481.299m-5.909-6.774L15.779 5.25h-12L.937 9.433a1.5 1.5 0 0 0-.158.671V21.75a1.5 1.5 0 0 0 1.5 1.5h3.75m9.75-21a1.5 1.5 0 0 0-1.5-1.5h-9a1.5 1.5 0 0 0-1.5 1.5v3h12zm-11.25 7.5h10.5m-5.25 9.75a3 3 0 1 1 1.43-5.638"/></svg>