<svg id="Regular" xmlns="http://www.w3.org/2000/svg" viewBox="0 0 24 24" width="24" height="24"><defs><style>.cls-1{fill:none;stroke:#000;stroke-linecap:round;stroke-linejoin:round;stroke-width:1.5px}</style></defs><title>tea-kettle</title><path class="cls-1" d="M6.9 12h14.7M6.136 14.25H3.621a2.121 2.121 0 0 0-1.5 3.621L6 21.75"/><path class="cls-1" d="M22.5 21.75a1.5 1.5 0 0 1-1.5 1.5H7.5a1.5 1.5 0 0 1-1.5-1.5v-6a8.25 8.25 0 0 1 16.5 0z"/><circle class="cls-1" cx="14.25" cy="6" r="1.5"/><path class="cls-1" d="M21 11.005v-3.13A6.965 6.965 0 0 0 14.25.75 6.965 6.965 0 0 0 7.5 7.875v3.13"/></svg>