<svg id="Regular" xmlns="http://www.w3.org/2000/svg" viewBox="0 0 24 24" width="24" height="24"><defs><style>.cls-1{fill:none;stroke:#000;stroke-linecap:round;stroke-linejoin:round;stroke-width:1.5px}</style></defs><title>tea-bottle-herbal</title><path class="cls-1" d="M14.83 11.138a6.574 6.574 0 0 0-3.58-2.888v-4.5h-6v4.5a6.582 6.582 0 0 0-4.5 6.243v7.257a1.5 1.5 0 0 0 1.5 1.5H7.5m5.25-21a1.5 1.5 0 0 1-1.5 1.5h-6a1.5 1.5 0 0 1 0-3h6a1.5 1.5 0 0 1 1.5 1.5zm-2.192 21l11.343-11.343m-5.614 1.833l.299 3.481 3.482.3m-6.963-.599l.299 3.481 3.482.3m2.583-10.145l.299 3.481 3.482.3"/><path class="cls-1" d="M10.5 15A2.25 2.25 0 0 1 6 15c0-1.243 2.25-3.75 2.25-3.75S10.5 13.757 10.5 15z"/></svg>