<svg id="Regular" xmlns="http://www.w3.org/2000/svg" viewBox="0 0 24 24" width="24" height="24"><defs><style>.cls-1{fill:none;stroke:#000;stroke-linecap:round;stroke-linejoin:round;stroke-width:1.5px}</style></defs><title>tea-cup-herbal</title><path class="cls-1" d="M10.526 21.75L21.84 10.349m-5.614 1.833l.299 3.482 3.482.299m-6.963-.599l.299 3.482 3.482.299M19.408 9l.299 3.482 3.482.299M7.451 21.75a8.039 8.039 0 0 1-6.676-7.921V3.857A1.608 1.608 0 0 1 2.383 2.25h11.785a1.608 1.608 0 0 1 1.608 1.607V6.75m-15.001 15h21.75"/><path class="cls-1" d="M15.772 3.75h3a4.518 4.518 0 0 1 4.45 3.826M6.775 2.25v4.5"/><rect class="cls-1" x="3.775" y="6.75" width="6" height="6" rx="1.5" ry="1.5"/></svg>