<svg xmlns="http://www.w3.org/2000/svg" viewBox="0 0 24 24" width="24" height="24"><defs><style>.a{fill:none;stroke:#000;stroke-linecap:round;stroke-linejoin:round;stroke-width:1.5px}</style></defs><title>team-meeting-chat</title><path class="a" d="M22.749 23.25a6.73 6.73 0 0 0-6.337-4.5h-.006a6.728 6.728 0 0 0-6.336 4.5m2.781-12.219a6.858 6.858 0 0 0 7.643 1.536"/><circle class="a" cx="16.406" cy="13.125" r="4.125"/><path class="a" d="M11.156 8.25h-1.5v2.25l-3-2.25h-4.5a1.5 1.5 0 0 1-1.5-1.5v-4.5a1.5 1.5 0 0 1 1.5-1.5h9a1.5 1.5 0 0 1 1.5 1.5v4.5a1.5 1.5 0 0 1-1.5 1.5zM7.406 3h-3.75m6 2.25h-6"/><circle class="a" cx="5.499" cy="15.75" r="3"/><path class="a" d="M8.162 21.132A4.436 4.436 0 0 0 5.5 20.25a4.487 4.487 0 0 0-4.225 3m15.131-4.5v4.5"/></svg>