<svg xmlns="http://www.w3.org/2000/svg" viewBox="0 0 24 24" width="24" height="24"><defs><style>.a{fill:none;stroke:#000;stroke-linecap:round;stroke-linejoin:round;stroke-width:1.5px}</style></defs><title>team-chat</title><path class="a" d="M12.749 21h1.5v2.25l3-2.25h4.5a1.5 1.5 0 0 0 1.5-1.5V15a1.5 1.5 0 0 0-1.5-1.5h-9a1.5 1.5 0 0 0-1.5 1.5v4.5a1.5 1.5 0 0 0 1.5 1.5z"/><circle class="a" cx="4.973" cy="16.875" r="2.625"/><path class="a" d="M9.2 23.25a4.474 4.474 0 0 0-8.449 0"/><circle class="a" cx="19.024" cy="4.125" r="2.625"/><path class="a" d="M23.249 10.5a4.474 4.474 0 0 0-8.449 0m1.699 5.25h3.75m-6 2.25h6m-9-9.75h-1.5v2.25l-3-2.25h-4.5a1.5 1.5 0 0 1-1.5-1.5v-4.5a1.5 1.5 0 0 1 1.5-1.5h9a1.5 1.5 0 0 1 1.5 1.5v4.5a1.5 1.5 0 0 1-1.5 1.5zM7.499 3h-3.75m6 2.25h-6"/></svg>