<svg xmlns="http://www.w3.org/2000/svg" viewBox="0 0 24 24" width="24" height="24"><defs><style>.a{fill:none;stroke:#000;stroke-linecap:round;stroke-linejoin:round;stroke-width:1.5px}</style></defs><title>team-meeting-message-question</title><path class="a" d="M10.509 23.25a28.433 28.433 0 0 0-4.177-1.734c-.7-.259-.585-2.087-.275-2.428a5.164 5.164 0 0 0 1.345-4 3.376 3.376 0 0 0-3.278-3.7 3.376 3.376 0 0 0-3.277 3.7 5.16 5.16 0 0 0 1.345 4c.31.341.425 2.169-.275 2.428l-1.168.431m22.331-7.7a4.769 4.769 0 0 1 .072.837 5.164 5.164 0 0 1-1.345 4c-.31.341-.425 2.169.275 2.428l1.168.431m-9.75 1.301a28.745 28.745 0 0 1 4.166-1.728c.7-.259.586-2.087.276-2.428a4.575 4.575 0 0 1-1.261-2.694M21 .75h.75a1.5 1.5 0 0 1 1.5 1.5v8.25a1.5 1.5 0 0 1-1.5 1.5h-4.5l-4.5 4.5V12h-3a1.5 1.5 0 0 1-1.5-1.5V2.25a1.5 1.5 0 0 1 1.5-1.5h1.5m2.625 2.625A1.875 1.875 0 1 1 15.75 5.25"/><path class="a" d="M15.75 8.25a.375.375 0 1 1-.375.375.375.375 0 0 1 .375-.375"/></svg>