<svg xmlns="http://www.w3.org/2000/svg" viewBox="0 0 24 24" width="24" height="24"><defs><style>.a{fill:none;stroke:#000;stroke-linecap:round;stroke-linejoin:round;stroke-width:1.5px}</style></defs><title>team-idea</title><circle class="a" cx="3.375" cy="18.478" r="2.625"/><path class="a" d="M6.581 23.2a4.5 4.5 0 0 0-5.831-.5"/><circle class="a" cx="20.625" cy="18.478" r="2.625"/><path class="a" d="M17.511 23.105a4.5 4.5 0 0 1 5.739-.405"/><circle class="a" cx="12" cy="17.728" r="3.375"/><path class="a" d="M14.723 23.25a6.054 6.054 0 0 0-5.392-.027M15.75 4.6a3.75 3.75 0 1 0-5.25 3.436v1.817h3V8.036A3.747 3.747 0 0 0 15.75 4.6zm-5.25 7.503h3m6.311-6.853h1.5M19.5 8.689l1.061 1.061M19.5 1.81L20.561.75M4.189 5.25h-1.5M4.5 8.689L3.439 9.75M4.5 1.81L3.439.75"/></svg>