<svg xmlns="http://www.w3.org/2000/svg" viewBox="0 0 24 24" width="24" height="24"><g fill="none" stroke="#000" stroke-linecap="round" stroke-linejoin="round" stroke-miterlimit="10"><path d="M.518 4.53c1.366-.599 2.867-1 4.441-1 6.352 0 11.5 6.5 11.5 6.5s-5.148 6.5-11.5 6.5c-1.581 0-3.088-.401-4.459-1.007"/><circle cx="4.959" cy="10.03" r="4"/><path d="M4.959 8.03a2 2 0 11-2 2m16.853 10.616a2.853 2.853 0 11-5.708 0c0-1.575 2.854-6.115 2.854-6.115s2.854 4.539 2.854 6.115z"/></g><path fill="none" d="M0 0h24v24H0z"/></svg>