<svg id="Regular" xmlns="http://www.w3.org/2000/svg" viewBox="0 0 24 24" width="24" height="24"><defs><style>.cls-1{fill:none;stroke:#000;stroke-linecap:round;stroke-linejoin:round;stroke-width:1.5px}</style></defs><title>technology-chip-hold</title><rect class="cls-1" x="2.25" y="8.25" width="6" height="6" rx="1" ry="1"/><path class="cls-1" d="M3.75 8.25v-1.5m3 1.5v-1.5m-3 9v-1.5m3 1.5v-1.5m1.5-4.5h1.5m-1.5 3h1.5m-9-3h1.5m-1.5 3h1.5m9 10.5a1.5 1.5 0 0 0-1.5-1.5h-3a2.25 2.25 0 0 1 0-4.5h3a4.5 4.5 0 0 0 4.5-4.5 7.5 7.5 0 0 0-7.5-7.5H4.5a2.25 2.25 0 0 1 0-4.5h5.25a9.01 9.01 0 0 1 9 9"/><path class="cls-1" d="M14.72 2.25h1.78A6.75 6.75 0 0 1 23.25 9v14.25"/></svg>