<svg id="Regular" xmlns="http://www.w3.org/2000/svg" viewBox="0 0 24 24" width="24" height="24"><defs><style>.cls-1{fill:none;stroke:#000;stroke-linecap:round;stroke-linejoin:round;stroke-width:1.5px}</style></defs><title>technology-hand-chip</title><rect class="cls-1" x="15.75" y="13.5" width="6" height="6" rx="1" ry="1"/><path class="cls-1" d="M17.25 13.5V12m3 1.5V12m-3 9v-1.5m3 1.5v-1.5m1.5-4.5h1.5m-1.5 3h1.5m-9-3h1.5m-1.5 3h1.5m-3-7.5a1.5 1.5 0 0 0-3 0v-6a1.5 1.5 0 0 0-3 0V3a1.5 1.5 0 0 0-3 0v3a1.5 1.5 0 0 0-3 0v16.5m3-16.5v4.5m3-6v6m3 0v3m0 9s0-3 2.25-3m-.75-3H6.694"/><path class="cls-1" d="M5.25 13.5a5.738 5.738 0 0 1 1.5 3.75A5.738 5.738 0 0 1 5.25 21a5.738 5.738 0 0 1-1.5-3.75 5.738 5.738 0 0 1 1.5-3.75z"/></svg>