<svg id="Regular" xmlns="http://www.w3.org/2000/svg" viewBox="0 0 24 24" width="24" height="24"><defs><style>.cls-1{fill:none;stroke:#000;stroke-linecap:round;stroke-linejoin:round;stroke-width:1.5px}</style></defs><title>technology-prosthetic-leg</title><path class="cls-1" d="M13.578 10.249a4.488 4.488 0 0 0 1.672-3.5v-3a3 3 0 0 0-6 0h-1.5a1.5 1.5 0 0 0-1.5 1.5v1.5a4.488 4.488 0 0 0 1.672 3.5"/><circle class="cls-1" cx="10.75" cy="11.25" r="3"/><path class="cls-1" d="M10.75 14.25v4.929m7.5 2.571a1.5 1.5 0 0 1-1.5 1.5h-7.5a1.5 1.5 0 0 1-1.5-1.5v-1.271A1.5 1.5 0 0 1 9.462 19l7.5 1.071a1.5 1.5 0 0 1 1.288 1.485z"/></svg>