<svg id="Regular" xmlns="http://www.w3.org/2000/svg" viewBox="0 0 24 24" width="24" height="24"><defs><style>.cls-1{fill:none;stroke:#000;stroke-linecap:round;stroke-linejoin:round;stroke-width:1.5px}</style></defs><title>technology-bandage-chip</title><rect class="cls-1" x="8.25" y="8.25" width="7.5" height="7.5" rx="1" ry="1" transform="rotate(45 12 12)"/><path class="cls-1" d="M13.061 7.757l1.591-1.591m1.591 4.773l1.591-1.591M6.166 14.652l1.591-1.591m1.591 4.773l1.591-1.591m5.304-3.182l1.591 1.591m-4.773 1.591l1.591 1.591M9.348 6.166l1.591 1.591M6.166 9.348l1.591 1.591m-3.75.568l-1.5 1.5a6 6 0 0 0 8.486 8.486l1.5-1.5m-.986-15.986l1.5-1.5a6 6 0 0 1 8.486 8.486l-1.5 1.5"/></svg>