<svg xmlns="http://www.w3.org/2000/svg" viewBox="0 0 24 24" width="24" height="24"><circle fill="none" stroke="#000" stroke-linecap="round" stroke-linejoin="round" stroke-miterlimit="10" cx="18" cy="20.5" r="3"/><circle fill="none" stroke="#000" stroke-linecap="round" stroke-linejoin="round" stroke-miterlimit="10" cx="6" cy="20.5" r="3"/><circle fill="none" stroke="#000" stroke-linecap="round" stroke-linejoin="round" stroke-miterlimit="10" cx="12" cy="6" r="5.5"/><circle fill="none" stroke="#000" stroke-linecap="round" stroke-linejoin="round" stroke-miterlimit="10" cx="12" cy="8.25" r="3.25"/><path fill="none" stroke="#000" stroke-linecap="round" stroke-linejoin="round" stroke-miterlimit="10" d="M16.132 2.284a2 2 0 111.327 2.642M6.526 4.93a2 2 0 111.37-2.572"/><circle fill="none" stroke="#000" stroke-linecap="round" stroke-linejoin="round" stroke-miterlimit="10" cx="12" cy="7" r=".5"/><path fill="none" stroke="#000" stroke-linecap="round" stroke-linejoin="round" stroke-miterlimit="10" d="M8.922 16c.582-1.102 1.53-2 3.078-2 1.551 0 2.5.901 3.082 2.005m.054 5.426A5.178 5.178 0 0112 22.5a5.159 5.159 0 01-3.068-1.02"/><path d="M9.5 3a.5.5 0 100 1 .5.5 0 000-1zm5 0a.5.5 0 100 1 .5.5 0 000-1z"/><path fill="none" stroke="#000" stroke-linecap="round" stroke-linejoin="round" stroke-miterlimit="10" d="M9.753 11.021c-.441.231-.887.634-1.253.979L4.054 9.6A2 2 0 001.947 13l4.604 2.733a6.26 6.26 0 00.024 1.762m7.663-6.47c.44.23.896.63 1.262.975l4.446-2.4a2 2 0 012.107 3.4l-4.604 2.733a6.223 6.223 0 01-.024 1.762"/><path fill="none" d="M0 0h24v24H0z"/></svg>