<svg xmlns="http://www.w3.org/2000/svg" viewBox="0 0 24 24" width="24" height="24"><g fill="none" stroke="#000" stroke-linecap="round" stroke-linejoin="round" stroke-miterlimit="10"><path d="M16.5 6c-4 0-4-1.5-4.5-2-.5.5-.5 2-4.5 2"/><path d="M18 7.5l.5-2s.5-5-6.5-5-6.5 5-6.5 5l.5 3c-1 .5-.5 3 1 3 0 3 3.5 5 5 5 .621 0 1.688-.35 2.635-1.025"/><path d="M9.401 15.475l-6.305 1.78A4 4 0 00.5 21v2.5h23V21a3.998 3.998 0 00-2.596-3.745l-6.27-1.78M19.5 10.5v1c-.188.935-1.047 2-2 2h-4m7-4.5a1.5 1.5 0 01-1.5 1.5h-1v-3h1A1.5 1.5 0 0120.5 9z"/><path stroke-width="2" d="M13.5 13.5h-2"/><path d="M9 9c0-.553.447-.5 1-.5s1-.053 1 .5m2 0c0-.553.447-.5 1-.5s1-.053 1 .5"/></g><path fill="none" d="M0 0h24v24H0z"/></svg>