<svg xmlns="http://www.w3.org/2000/svg" viewBox="0 0 24 24" width="24" height="24"><g fill="none" stroke="#000" stroke-linejoin="round" stroke-miterlimit="10"><path d="M4.501.5l5 5m6-5l-5 5" stroke-linecap="round"/><path d="M23.5 21.5a2 2 0 01-2 2h-19a2 2 0 01-2-2v-14a2 2 0 012-2h19a2 2 0 012 2v14z"/><path stroke-linecap="round" d="M17.5 17.5a4 4 0 01-4 4h-7a4 4 0 01-4-4v-6a4 4 0 014-4h7a4 4 0 014 4v6z"/><path d="M19.5 8.5h2v8h-2zm0 10h2v3h-2zm-6.672-6.828l-5.656 5.657"/><circle cx="10" cy="14.5" r="4"/></g><path fill="none" d="M0 0h24v24H0z"/></svg>