<svg xmlns="http://www.w3.org/2000/svg" viewBox="0 0 24 24" width="24" height="24"><g fill="none" stroke="#000" stroke-linejoin="round" stroke-miterlimit="10"><path d="M2.5 18.5c0 1 1 2 5.5 2h3c4.5 0 5.5-1 5.5-2v-8c0-1-1-2-5.5-2H8c-4.5 0-5.5 1-5.5 2v8z"/><path stroke-linecap="round" d="M16 6.5V6c-.736-1.481-2.234-2.5-4-2.5-1.768 0-3.264 1.019-4 2.5v.5m6.02-2.52L17.5.5M9.977 3.978L6.5.5"/><path d="M23.5 19.513c0 1.65-1.35 3-3 3h-17c-1.65 0-3-1.35-3-3V9.503c0-1.65 1.35-3 3-3h17c1.65 0 3 1.35 3 3v10.01z"/><path d="M21.5 11a1.5 1.5 0 01-1.5 1.5h0a1.5 1.5 0 01-1.5-1.5h0A1.5 1.5 0 0120 9.5h0a1.5 1.5 0 011.5 1.5h0zm0 5a1.5 1.5 0 01-1.5 1.5h0a1.5 1.5 0 01-1.5-1.5h0a1.5 1.5 0 011.5-1.5h0a1.5 1.5 0 011.5 1.5h0z"/></g><path fill="none" d="M0 0h24v24H0z"/></svg>