<svg xmlns="http://www.w3.org/2000/svg" viewBox="0 0 24 24" width="24" height="24"><g fill="none" stroke="#000" stroke-linejoin="round" stroke-miterlimit="10"><circle stroke-linecap="round" cx="5" cy="21.5" r="2"/><circle stroke-linecap="round" cx="19" cy="21.5" r="2"/><path stroke-linecap="round" d="M7 21.511h10m-9.5-9H6L4.5 15.5"/><path stroke-linecap="round" d="M3 21.511H.5V17l2-2L5 10.511h4.5V19.5m-9 .011h23"/><path d="M9.5 8.511h14v11h-14z"/><path stroke-linecap="round" d="M19.891 5.392a3.434 3.434 0 01-4.87 0l4.87-4.871a3.435 3.435 0 010 4.871z"/><path stroke-linecap="round" d="M19.891 5.392L22.5 8.511h-4.869zm-2.449-2.413L15.63 1.168M17.373 11.389l1.445 5.111 1.446-5.111M14.5 16.5v-4.989m-1.5 0h3"/></g><path fill="none" d="M0 0h24v24H0z"/></svg>