<svg id="Regular" xmlns="http://www.w3.org/2000/svg" viewBox="0 0 24 24" width="24" height="24"><defs><style>.cls-1{fill:none;stroke:#000;stroke-linecap:round;stroke-linejoin:round;stroke-width:1.5px}</style></defs><title>temperature-up</title><path class="cls-1" d="M23.185 6.163l-3.094 3.106a.773.773 0 0 1-.728.223l-3.4-.781a.784.784 0 0 0-.77.268L11.25 13.5m-3 1.918V3.75a3 3 0 0 0-6 0v11.668a4.493 4.493 0 1 0 7.5 3.332 4.472 4.472 0 0 0-1.5-3.332zm-3-11.668v13.5"/><circle class="cls-1" cx="5.25" cy="18.75" r="1.5"/><path class="cls-1" d="M12.75 18.75h1.5m3 0h1.5m3 0h1.5"/></svg>