<svg id="Regular" xmlns="http://www.w3.org/2000/svg" viewBox="0 0 24 24" width="24" height="24"><defs><style>.cls-1{fill:none;stroke:#000;stroke-linecap:round;stroke-linejoin:round;stroke-width:1.5px}</style></defs><title>temperature-snowflake</title><path class="cls-1" d="M12 .75v7.5m3.75-6l-3.75 3-3.75-3M2.257 6.375l6.495 3.75M5.431 3.877l.723 4.748-4.473 1.748m.576 7.252l6.495-3.75m-7.071-.248l4.473 1.748-.723 4.748M12 23.25v-7.5m-3.75 6l3.75-3 3.75 3m5.993-4.125l-6.495-3.75m3.321 6.248l-.723-4.748 4.473-1.748m-.576-7.252l-6.495 3.75m7.071.248l-4.473-1.748.723-4.748M12 8.25l-3.248 1.875v3.75L12 15.75l3.248-1.875v-3.75L12 8.25z"/></svg>