<svg xmlns="http://www.w3.org/2000/svg" viewBox="0 0 24 24" width="24" height="24"><g fill="none" stroke="#000" stroke-linecap="round" stroke-linejoin="round" stroke-miterlimit="10"><path d="M1.5 20.5h22v3h-22zm2-5h18v5h-18zm16.5-3H5s-1.5 1.666-3.5 3h22c-2-1.334-3.5-3-3.5-3zm-1-8H6s-2.5 4.666-4.5 6h22c-2-1.334-4.5-6-4.5-6z"/><path d="M7.5 18.5a1 1 0 00-2 0v2h2v-2zm4 0a1 1 0 00-2 0v2h2v-2zm4 0a1 1 0 00-2 0v2h2v-2zm4 0a1 1 0 00-2 0v2h2v-2zm-14-6v-2m14 2v-2m-.5-6s1 0 1-1.5M6 4.5S5 4.5 5 3"/></g><path fill="none" d="M0 0h24v24H0z"/></svg>