<svg id="Regular" xmlns="http://www.w3.org/2000/svg" viewBox="0 0 24 24" width="24" height="24"><defs><style>.cls-1{fill:none;stroke:#000;stroke-linecap:round;stroke-linejoin:round;stroke-width:1.5px}</style></defs><title>temperature-celsius-high</title><path class="cls-1" d="M1 7l2.25-2.25L5.5 7M3.25 4.75V17.5M1 3.25h4.5"/><circle class="cls-1" cx="15.25" cy="12.25" r="8.25"/><path class="cls-1" d="M11.875 8.5a.375.375 0 0 1 .375.375m-.75 0a.375.375 0 0 1 .375-.375m0 .75a.375.375 0 0 1-.375-.375m.75 0a.375.375 0 0 1-.375.375m5.625 0a3 3 0 0 0-3 3v1.5a3 3 0 0 0 3 3"/></svg>