<svg id="Regular" xmlns="http://www.w3.org/2000/svg" viewBox="0 0 24 24" width="24" height="24"><defs><style>.cls-1{fill:none;stroke:#000;stroke-linecap:round;stroke-linejoin:round;stroke-width:1.5px}</style></defs><title>tennis-net</title><path class="cls-1" d="M1.25 9.75h21.5a.5.5 0 0 1 .5.5v2.5H.75v-2.5a.5.5 0 0 1 .5-.5zm-.5 3v3m22.5-3v3m-3.75 0v6a1.5 1.5 0 0 1-1.5 1.5H6a1.5 1.5 0 0 1-1.5-1.5v-6m0-9v-4.5A1.5 1.5 0 0 1 6 .75h12a1.5 1.5 0 0 1 1.5 1.5v4.5m-12-6v6m0 9v7.5m9-22.5v6m0 9v7.5m0-4.5h-9m0-13.5h9M12 18.75v4.5m0-22.5v4.5"/></svg>