<svg xmlns="http://www.w3.org/2000/svg" viewBox="0 0 24 24" width="24" height="24"><g fill="none" stroke="#000" stroke-linejoin="round" stroke-miterlimit="10"><path d="M14.154 14.863c-3.097.322-5.875 1.218-5.875 1.218s.894-2.766 1.215-5.851"/><path stroke-linecap="round" d="M8.279 16.081l-3.181 3.183"/><ellipse transform="rotate(45.001 16.41 7.949)" cx="16.411" cy="7.949" rx="6.5" ry="7.501"/><path d="M14.348 1.645l8.368 8.367M11.814 3.353l9.193 9.192M10.032 5.812l8.514 8.516m.449-13.206l-9.403 9.445m12.122-7.921L11.107 13.253m12.08-7.837l-9.347 9.363"/><circle cx="4.375" cy="3.985" r="2.5"/><path stroke-linecap="round" d="M2.693 23.224c-.388.39-1.027.39-1.415 0a.999.999 0 010-1.414l3.182-3.183 1.415 1.415-3.182 3.182z"/></g><path fill="none" d="M0 0h24v24H0z"/></svg>