<svg id="Regular" xmlns="http://www.w3.org/2000/svg" viewBox="0 0 24 24" width="24" height="24"><defs><style>.cls-1{fill:none;stroke:#000;stroke-linecap:round;stroke-linejoin:round;stroke-width:1.5px}</style></defs><title>tennis-backhand</title><circle class="cls-1" cx="10.501" cy="3.375" r="2.625"/><path class="cls-1" d="M21 17.624a.375.375 0 0 1 .375.375m-.749.001a.375.375 0 0 1 .374-.376m0 .75a.375.375 0 0 1-.374-.374m.75 0a.375.375 0 0 1-.375.375"/><ellipse class="cls-1" cx="20.167" cy="6.148" rx="3.75" ry="2.813" transform="rotate(-59.388 20.168 6.148)"/><path class="cls-1" d="M16.859 11.738l1.398-2.363m-6.905 4.501a1.5 1.5 0 0 0 .99.373h3.409a1.5 1.5 0 1 0 0-3h-3.225L9.674 8.112a1.5 1.5 0 0 0-2.452.338l-3 5.994a4.526 4.526 0 0 0-.476 2.014v2.291l-2.4 1.8a1.5 1.5 0 0 0 1.8 2.4l2.4-1.8a3.011 3.011 0 0 0 1.2-2.4v-.725l2.589 1.11 1.269 3.173a1.5 1.5 0 1 0 2.785-1.115l-1.269-3.173a2.978 2.978 0 0 0-1.6-1.643L7.3 15l1.625-3.25z"/></svg>