<svg xmlns="http://www.w3.org/2000/svg" viewBox="0 0 24 24" width="24" height="24"><defs><style>.a{fill:none;stroke:#000;stroke-linecap:round;stroke-linejoin:round;stroke-width:1.5px}</style></defs><title>text-format</title><path class="a" d="M8.25 9V7.873a.376.376 0 0 1 .375-.373h6.75a.376.376 0 0 1 .375.375V9M12 7.498v9m-1.125 0h2.25M3 15.748v-7.5"/><rect class="a" x=".75" y=".748" width="4.5" height="4.5" rx=".563" ry=".563"/><rect class="a" x=".75" y="18.748" width="4.5" height="4.5" rx=".563" ry=".563"/><path class="a" d="M21 15.748v-7.5M8.25 2.998h7.5m-7.5 18h7.5"/><rect class="a" x="18.75" y=".748" width="4.5" height="4.5" rx=".563" ry=".563"/><rect class="a" x="18.75" y="18.748" width="4.5" height="4.5" rx=".563" ry=".563"/></svg>