<svg xmlns="http://www.w3.org/2000/svg" viewBox="0 0 24 24" width="24" height="24"><defs><style>.a{fill:none;stroke:#000;stroke-linecap:round;stroke-linejoin:round;stroke-width:1.5px}</style></defs><title>text-format-1</title><rect class="a" x=".75" y=".748" width="4.5" height="4.5" rx=".75" ry=".75"/><rect class="a" x=".75" y="18.748" width="4.5" height="4.5" rx=".75" ry=".75"/><rect class="a" x="17.25" y=".748" width="4.5" height="4.5" rx=".75" ry=".75"/><rect class="a" x="17.25" y="18.748" width="4.5" height="4.5" rx=".75" ry=".75"/><path class="a" d="M5.25 2.248h12m3 3v13.5m-3 3h-12m-3-3v-13.5M6.75 9A2.25 2.25 0 0 1 9 6.748h4.5A2.25 2.25 0 0 1 15.75 9m-4.5-2.252v10.5m-3.031 0h6"/></svg>