<svg xmlns="http://www.w3.org/2000/svg" viewBox="0 0 24 24" width="24" height="24"><defs><style>.a{fill:none;stroke:#000;stroke-linecap:round;stroke-linejoin:round;stroke-width:1.5px}</style></defs><title>text-input-area</title><path class="a" d="M23.25 15.748a1.5 1.5 0 0 1-1.5 1.5m0-10.5a1.5 1.5 0 0 1 1.5 1.5m-22.5 0a1.5 1.5 0 0 1 1.5-1.5m0 10.5a1.5 1.5 0 0 1-1.5-1.5m0-4.5v1.5m22.5-1.5v1.5m-18-6h1.5m3 0h1.5m6 0h1.5m-13.5 10.5h1.5m3 0h1.5m6 0h1.5m-4.5 1.5v-13.5m-4.5 18a4.5 4.5 0 0 0 4.5-4.5 4.5 4.5 0 0 0 4.5 4.5m-9-22.5a4.5 4.5 0 0 1 4.5 4.5 4.5 4.5 0 0 1 4.5-4.5m-7.5 13.5h6"/></svg>