<svg xmlns="http://www.w3.org/2000/svg" viewBox="0 0 24 24" width="24" height="24"><g fill="none" stroke="#000" stroke-linecap="round" stroke-linejoin="round" stroke-miterlimit="10"><path d="M8.99 14.624l2.51 1.686 4.006-2.81v-4L11.5 6.705 8.989 8.392m2.517-1.687V.5m-2.215.907l2.23 1.343 2.23-1.356M9.269 4.06l2.252 1.343 2.208-1.357M11.5 16.31l.006 6.19m-.007-2.243l2.23 1.356m-2.23-4.016l2.23 1.357M15.5 9.5l5.936-3.414M19.506 4.5v2.695l2.128 1.363M17.506 5.5v2.846l2.128 1.234m-.128 8.92v-2.709l2.128-1.326M17.506 17.5v-2.853l2.128-1.205M15.5 13.5l5.961 3.409M6.5 16.042V2.5a2 2 0 00-4 0v13.542a3.99 3.99 0 00-2 3.458 4 4 0 008 0 3.99 3.99 0 00-2-3.458z"/><circle cx="4.5" cy="19.5" r="1"/><path d="M4.5 18.5v-11"/></g><path fill="none" d="M0 0h24v24H0z"/></svg>