<svg xmlns="http://www.w3.org/2000/svg" viewBox="0 0 24 24" width="24" height="24"><path fill="none" stroke="#000" stroke-linecap="round" stroke-linejoin="round" stroke-miterlimit="10" d="M7.5 13.5V16l-4.404 1.255A4 4 0 00.5 21v2.5h23V21a3.998 3.998 0 00-2.596-3.745L16.5 16v-2.5"/><path fill="none" stroke="#000" stroke-linecap="round" stroke-linejoin="round" stroke-miterlimit="10" d="M12 16.5c1.5 0 4.999-2 4.999-5 1.5 0 2-2.5 1-3l.5-3S19 .5 12 .5s-6.5 5-6.5 5l.5 3c-1 .5-.5 3 1 3 0 3 3.5 5 5 5z"/><path fill="none" stroke="#000" stroke-linejoin="round" stroke-miterlimit="10" d="M18.5 5c-6 0-5 1-6.5 1s-.5-1-6.5-1"/><path fill="none" stroke="#000" stroke-linecap="round" stroke-linejoin="round" stroke-miterlimit="10" d="M18 8.5c-2.5 2-4.775-.5-6-.5s-3.5 2.5-6 .5M8.5 7h1m5 0h1M10 13l.414-.414A2.003 2.003 0 0111.829 12h.344a2 2 0 011.414.586L14 13"/><path d="M8.5 2.5a.5.5 0 10.002 1.002A.5.5 0 008.5 2.5zm7 0a.5.5 0 10.002 1.002A.5.5 0 0015.5 2.5zm-5-.5a.5.5 0 10.002 1.002A.5.5 0 0010.5 2zm3 0a.5.5 0 10.002 1.002A.5.5 0 0013.5 2zM12 3a.5.5 0 10.002 1.002A.5.5 0 0012 3z"/><path fill="none" stroke="#000" stroke-linecap="round" stroke-linejoin="round" stroke-miterlimit="10" d="M16.5 15.5c0 1.934-1.738 3.5-4.5 3.5s-4.5-1.566-4.5-3.5"/><path fill="none" d="M0 0h24v24H0z"/></svg>