<svg xmlns="http://www.w3.org/2000/svg" viewBox="0 0 24 24" width="24" height="24"><g fill="none" stroke="#000" stroke-linejoin="round" stroke-miterlimit="10"><path d="M4.5 4.5h10v16h-10zm0 2h10m-10 2h10m-10 2h10m-10 2h10m-10 2h10m-10 2h10m-10 2h10M1.5 3c0 .83.672 1.5 1.5 1.5h13a1.5 1.5 0 100-3H3A1.5 1.5 0 001.5 3zm0 19c0 .83.672 1.5 1.5 1.5h13a1.5 1.5 0 100-3H3A1.5 1.5 0 001.5 22z"/><path stroke-linecap="round" d="M14.5 19.5h6a2 2 0 002-2v-1a2 2 0 00-2-2h-1a2 2 0 010-4h1a2 2 0 002-2V6"/></g><path fill="none" d="M0 0h24v24H0z"/></svg>