<svg xmlns="http://www.w3.org/2000/svg" viewBox="0 0 24 24" width="24" height="24"><path fill="none" stroke="#000" stroke-linecap="round" stroke-linejoin="round" stroke-miterlimit="10" d="M20 15h0a1.5 1.5 0 010 3h-1a1.5 1.5 0 011.5 1.5c0 .829-.672 1-1.5 1h-6.5c-2.851 0-3.5-.5-7-1V11C7.95 11 12 6.5 12 2.5c0-1.581 2.188-2.17 3 .719C15.5 5 14 8.5 14 8.5h8a1.5 1.5 0 011.5 1.5c0 .829-.672 2-1.5 2h-1a1.5 1.5 0 010 3h-1M.5 9.5h5v12h-5z"/><path d="M3.5 19a.5.5 0 100 1 .5.5 0 000-1z"/><path fill="none" d="M0 0h24v24H0z"/></svg>