<svg xmlns="http://www.w3.org/2000/svg" viewBox="0 0 24 24" width="24" height="24"><defs><style>.a{fill:none;stroke:#000;stroke-linecap:round;stroke-linejoin:round;stroke-width:1.5px}</style></defs><title>thunderbolt-cable</title><path class="a" d="M17.25 20.25h4.5v3h-4.5zm6 0h-7.5v-5.924a1.5 1.5 0 0 1 1.5-1.5h4.5a1.5 1.5 0 0 1 1.5 1.5zM2.25.75h4.5v3h-4.5zm6 3H.75v6.076a1.5 1.5 0 0 0 1.5 1.5h4.5a1.5 1.5 0 0 0 1.5-1.5z"/><path class="a" d="M19.5 12.826V4.5a3.75 3.75 0 0 0-7.5 0v15a3.75 3.75 0 0 1-7.5 0v-8.174"/></svg>