<svg xmlns="http://www.w3.org/2000/svg" viewBox="0 0 24 24" width="24" height="24"><g fill="none" stroke="#000" stroke-linecap="round" stroke-linejoin="round" stroke-miterlimit="10"><path d="M11.106 23.5l12.021-12.021a2.998 2.998 0 010-4.242L16.764.873a2.998 2.998 0 01-4.243 0L.5 12.893a3 3 0 010 4.244L6.864 23.5a2.998 2.998 0 014.242 0z"/><path d="M11.106 19.257a2.005 2.005 0 01-2.828 0l-3.536-3.536a2.005 2.005 0 010-2.828l7.777-7.777a2.006 2.006 0 012.829 0l3.536 3.535a2.008 2.008 0 010 2.829l-7.778 7.777zm2.829-11.314l-6.364 6.365m6.717-2.476L11.46 14.66"/></g><path fill="none" d="M0 0h24v24H0z"/></svg>