<svg id="Regular" xmlns="http://www.w3.org/2000/svg" viewBox="0 0 24 24" width="24" height="24"><defs><style>.cls-1{fill:none;stroke:#000;stroke-linecap:round;stroke-linejoin:round;stroke-width:1.5px}</style></defs><title>ticket</title><path class="cls-1" d="M19.5 12.25a3.751 3.751 0 0 1 3.124-3.7.75.75 0 0 0 .626-.739V5.5a1.5 1.5 0 0 0-1.5-1.5H2.25a1.5 1.5 0 0 0-1.5 1.5v2.313a.749.749 0 0 0 .626.739 3.751 3.751 0 0 1 0 7.4.75.75 0 0 0-.626.739V19a1.5 1.5 0 0 0 1.5 1.5h19.5a1.5 1.5 0 0 0 1.5-1.5v-2.313a.749.749 0 0 0-.626-.739A3.751 3.751 0 0 1 19.5 12.25zm-3.75 5.25V16m0-3v-1.5m0-3V7m-7.5 10.5V16m0-3v-1.5m0-3V7"/></svg>