<svg xmlns="http://www.w3.org/2000/svg" viewBox="0 0 24 24" width="24" height="24"><defs><style>.a{fill:none;stroke:#000;stroke-linecap:round;stroke-linejoin:round;stroke-width:1.5px}</style></defs><title>ticket</title><path class="a" d="M19.5 12a3.751 3.751 0 0 1 3.124-3.7.749.749 0 0 0 .626-.739V5.25a1.5 1.5 0 0 0-1.5-1.5H2.25a1.5 1.5 0 0 0-1.5 1.5v2.313a.749.749 0 0 0 .626.739 3.751 3.751 0 0 1 0 7.4.75.75 0 0 0-.626.739v2.309a1.5 1.5 0 0 0 1.5 1.5h19.5a1.5 1.5 0 0 0 1.5-1.5v-2.313a.749.749 0 0 0-.626-.739A3.751 3.751 0 0 1 19.5 12zM12 9h5.25"/><circle class="a" cx="15.375" cy="14.625" r="1.875"/><path class="a" d="M7.5 7.875a.375.375 0 1 1 .375.375.375.375 0 0 1-.375-.375m0 4.5a.375.375 0 1 1 .375.375.375.375 0 0 1-.375-.375m0 4.5a.375.375 0 1 1 .375.375.375.375 0 0 1-.375-.375"/></svg>