<svg xmlns="http://www.w3.org/2000/svg" viewBox="0 0 24 24" width="24" height="24"><defs><style>.a{fill:none;stroke:#000;stroke-linecap:round;stroke-linejoin:round;stroke-width:1.5px}</style></defs><title>ticket-hold</title><path class="a" d="M7.5 15l1.673-1.255a1.57 1.57 0 0 1 2.247.385 1.569 1.569 0 0 1 0 1.74l-1.645 2.467A4.5 4.5 0 0 1 7.7 20.019L5.25 21m3-11.25l-3.595 1.541a4.5 4.5 0 0 0-2.364 2.364L1.114 16.4a4.5 4.5 0 0 0-.364 1.774v5.076"/><path class="a" d="M8.25 19.755V21a2.25 2.25 0 0 0 2.25 2.25H21A2.25 2.25 0 0 0 23.25 21V3A2.25 2.25 0 0 0 21 .75h-2.25a3 3 0 0 1-6 0H10.5A2.25 2.25 0 0 0 8.25 3v11.438m3-6.938h9m-.75 3v9.75m-5.25-4.5a2.25 2.25 0 1 1-1.5 3.925"/></svg>