<svg id="Regular" xmlns="http://www.w3.org/2000/svg" viewBox="0 0 24 24" width="24" height="24"><defs><style>.cls-1{fill:none;stroke:#000;stroke-linecap:round;stroke-linejoin:round;stroke-width:1.5px}</style></defs><title>ticket-movie</title><path class="cls-1" d="M19.5 11.75a3.751 3.751 0 0 1 3.124-3.7.75.75 0 0 0 .626-.739V5a1.5 1.5 0 0 0-1.5-1.5H2.25A1.5 1.5 0 0 0 .75 5v2.313a.749.749 0 0 0 .626.739 3.751 3.751 0 0 1 0 7.4.75.75 0 0 0-.626.739V18.5a1.5 1.5 0 0 0 1.5 1.5h19.5a1.5 1.5 0 0 0 1.5-1.5v-2.313a.749.749 0 0 0-.626-.739A3.751 3.751 0 0 1 19.5 11.75zM4.5 6.5h2.25m3.75 0h3m3.75 0h2.25M4.5 17h2.25m3.75 0h3m3.75 0h2.25"/><path class="cls-1" d="M12.624 10.436a.75.75 0 0 0-1.248 0l-1.6 2.4A.75.75 0 0 0 10.4 14h3.2a.75.75 0 0 0 .624-1.166z"/></svg>