<svg xmlns="http://www.w3.org/2000/svg" viewBox="0 0 24 24" width="24" height="24"><defs><style>.a{fill:none;stroke:#000;stroke-linecap:round;stroke-linejoin:round;stroke-width:1.5px}</style></defs><title>ticket-pass</title><path class="a" d="M6.75 14.25a3 3 0 0 0-6 0v9h6zm-3 1.5v1.5m19.5-3a3 3 0 0 0-6 0v9h6zm-3 1.5v1.5M6.75 19.5A5.25 5.25 0 0 0 12 14.25H6.75zm10.5 0A5.25 5.25 0 0 1 12 14.25h5.25z"/><rect class="a" x="6.75" y=".75" width="10.5" height="7.5" rx="1.5" ry="1.5"/><path class="a" d="M12 4.125a.375.375 0 1 1-.375.375.375.375 0 0 1 .375-.375"/></svg>