<svg id="Regular" xmlns="http://www.w3.org/2000/svg" viewBox="0 0 24 24" width="24" height="24"><defs><style>.cls-1{fill:none;stroke:#000;stroke-linecap:round;stroke-linejoin:round;stroke-width:1.5px}</style></defs><title>ticket-basketball-game</title><path class="cls-1" d="M23.25 20.25a1.5 1.5 0 0 1 0-3V15a.75.75 0 0 0-.75-.75H12a.75.75 0 0 0-.75.75v2.25a1.5 1.5 0 0 1 0 3v2.25a.75.75 0 0 0 .75.75h10.5a.75.75 0 0 0 .75-.75z"/><path class="cls-1" d="M8.25 18.626a9 9 0 1 1 10.5-8.876 9.155 9.155 0 0 1-.124 1.5M3.169 15.89c1.1-3.326 4.452-10.552 13.222-12.215m-13.364.091a18.5 18.5 0 0 1 9.53 7.483M8.569.827a6.653 6.653 0 0 1-7.591 6.9m7.634 6.523a6.7 6.7 0 0 1 10.137-4.667"/></svg>