<svg xmlns="http://www.w3.org/2000/svg" viewBox="0 0 24 24" width="24" height="24"><defs><style>.a{fill:none;stroke:#000;stroke-linecap:round;stroke-linejoin:round;stroke-width:1.5px}</style></defs><title>ticket-two</title><path class="a" d="M6.75 11.25a1.5 1.5 0 0 1 1.5-1.5 1.5 1.5 0 0 1 1.5 1.5 2.134 2.134 0 0 1-.469 1.336L6.75 15.75h3"/><rect class="a" x=".75" y="6.75" width="12" height="16.5" rx="1" ry="1"/><path class="a" d="M3.75 18.75h1.5m3 0h1.5m8.25-15h.75a.75.75 0 0 1 .75.75v5.25m-1.5 0h3"/><path class="a" d="M15.75 17.25h6a1.5 1.5 0 0 0 1.5-1.5V2.25a1.5 1.5 0 0 0-1.5-1.5h-9a1.5 1.5 0 0 0-1.5 1.5v1.5m4.5 9h.75m2.25 0h1.5"/></svg>