<svg id="Regular" xmlns="http://www.w3.org/2000/svg" viewBox="0 0 24 24" width="24" height="24"><defs><style>.cls-1{fill:none;stroke:#000;stroke-linecap:round;stroke-linejoin:round;stroke-width:1.5px}</style></defs><title>ticket-buy</title><path class="cls-1" d="M.75 17.25V15a3.75 3.75 0 0 1 7.5 0v2.25h-1.5l-.75 6H3l-.75-6z"/><circle class="cls-1" cx="4.5" cy="6.75" r="3"/><path class="cls-1" d="M23.25 15h-10.5a1.5 1.5 0 0 0-1.5 1.5v5.25a1.5 1.5 0 0 0 1.5 1.5h10.5M12.75 15V.75m3 3h6m-9 6.75h3m0 0a3 3 0 0 1 6 0m0 0h1.5"/></svg>