<svg xmlns="http://www.w3.org/2000/svg" viewBox="0 0 24 24" width="24" height="24"><defs><style>.a{fill:none;stroke:#000;stroke-linecap:round;stroke-linejoin:round;stroke-width:1.5px}</style></defs><title>ticket-person-pass</title><circle class="a" cx="12" cy="3.563" r="2.625"/><path class="a" d="M9.75 20.813a2.25 2.25 0 1 0 4.5 0v-3.75a1.5 1.5 0 0 0 1.5-1.5v-4.5a3 3 0 0 0-3-3h-1.5a3 3 0 0 0-3 3v4.5a1.5 1.5 0 0 0 1.5 1.5zm-9-.75L3 17.813l-2.25-2.25"/><path class="a" d="M.75 12.563h3a1.5 1.5 0 0 1 1.5 1.5v9H.75m22.5-3L21 17.813l2.25-2.25"/><path class="a" d="M23.25 12.563h-3a1.5 1.5 0 0 0-1.5 1.5v9h4.5"/></svg>