<svg xmlns="http://www.w3.org/2000/svg" viewBox="0 0 24 24" width="24" height="24"><defs><style>.a{fill:none;stroke:#000;stroke-linecap:round;stroke-linejoin:round;stroke-width:1.5px}</style></defs><title>ticket-remove</title><circle class="a" cx="17.25" cy="17.25" r="6"/><path class="a" d="M14.25 17.25h6m-.675-9a3.755 3.755 0 0 1 3.049-2.95.749.749 0 0 0 .626-.738V2.25a1.5 1.5 0 0 0-1.5-1.5H2.25a1.5 1.5 0 0 0-1.5 1.5v2.314a.747.747 0 0 0 .626.738 3.751 3.751 0 0 1 0 7.4.75.75 0 0 0-.626.739v2.309a1.5 1.5 0 0 0 1.5 1.5h6m0-3v-1.5m0-3v-1.5m0-3v-1.5"/></svg>