<svg xmlns="http://www.w3.org/2000/svg" viewBox="0 0 24 24" width="24" height="24"><g fill="none" stroke="#000" stroke-linecap="round" stroke-linejoin="round" stroke-miterlimit="10"><path d="M12 19c5.566 0 5.054-9.114 1.5-11.5h-3C6.946 9.886 6.434 19 12 19M10.5 7.5c.571-1.712.547-2.5 1.5-2.5s.929.788 1.5 2.5"/><path d="M14.954 9.085l.965-1.423A4.905 4.905 0 0015 2m.762 8.922C18.431 9.921 19.395 9.763 20.5 7m-4.397 5.518c2 .333 3.325 1.479 3.975 2.995l.422.987m-4.377-1.778l1.381 2.41a4.99 4.99 0 01.62 1.86L18.5 22M9.046 9.085l-.965-1.423A4.905 4.905 0 019 2m-.762 8.922C5.569 9.921 4.605 9.763 3.5 7m4.397 5.518c-2 .333-3.325 1.479-3.975 2.995L3.5 16.5m4.377-1.778l-1.381 2.41a4.99 4.99 0 00-.62 1.86L5.5 22"/></g><path fill="none" d="M0 0h24v24H0z"/></svg>