<svg id="Regular" xmlns="http://www.w3.org/2000/svg" viewBox="0 0 24 24" width="24" height="24"><defs><style>.cls-1{fill:none;stroke:#000;stroke-linecap:round;stroke-linejoin:round;stroke-width:1.5px}</style></defs><title>ticket-1</title><path class="cls-1" d="M11.479 23.1a.814.814 0 0 0 1.05-.089L23.01 12.529a.815.815 0 0 0 .089-1.05 4.081 4.081 0 0 1 0-4.728.814.814 0 0 0-.089-1.051L18.3.989A.815.815 0 0 0 17.248.9a4.081 4.081 0 0 1-4.727 0 .816.816 0 0 0-1.05.089L.99 11.471a.816.816 0 0 0-.09 1.05 4.081 4.081 0 0 1 0 4.728.814.814 0 0 0 .09 1.051l4.71 4.711a.814.814 0 0 0 1.05.087 4.081 4.081 0 0 1 4.729.002z"/><rect class="cls-1" x="7.104" y="6.288" width="9.792" height="11.424" rx="1" ry="1" transform="rotate(45 12 12)"/><path class="cls-1" d="M12.577 9.115l-3.462 3.462m4.664-.048l-1.078 1.078"/></svg>