<svg xmlns="http://www.w3.org/2000/svg" viewBox="0 0 24 24" width="24" height="24"><defs><style>.a{fill:none;stroke:#000;stroke-linecap:round;stroke-linejoin:round;stroke-width:1.5px}</style></defs><title>ticket-buy</title><path class="a" d="M17.25 5.25v9a1.5 1.5 0 0 1-1.5 1.5h-1.5a2.25 2.25 0 0 0-4.5 0h-1.5a1.5 1.5 0 0 1-1.5-1.5v-9z"/><path class="a" d="M12 9.375a.375.375 0 1 1-.375.375.375.375 0 0 1 .375-.375m-3 0a.375.375 0 1 1-.375.375A.375.375 0 0 1 9 9.375m6 0a.375.375 0 1 1-.375.375.375.375 0 0 1 .375-.375M4.5 5.25h15M9 21.75h6l-3-3-3 3zM3.75 8.25h-1.5a1.5 1.5 0 0 1-1.5-1.5v-3a1.5 1.5 0 0 1 1.5-1.5h19.5a1.5 1.5 0 0 1 1.5 1.5v3a1.5 1.5 0 0 1-1.5 1.5h-1.5"/></svg>