<svg xmlns="http://www.w3.org/2000/svg" viewBox="0 0 24 24" width="24" height="24"><defs><style>.a{fill:none;stroke:#000;stroke-linecap:round;stroke-linejoin:round;stroke-width:1.5px}</style></defs><title>ticket-day-1</title><path class="a" d="M20.25 12a3.009 3.009 0 0 0 3 3v3.75a3.009 3.009 0 0 1-3 3H3.75a3.009 3.009 0 0 1-3-3V15a3 3 0 0 0 0-6V5.25a3.009 3.009 0 0 1 3-3h16.5a3.009 3.009 0 0 1 3 3V9a3.009 3.009 0 0 0-3 3z"/><path class="a" d="M10.5 18.75v-4.5a1.5 1.5 0 0 1 3 0v4.5m-3-1.5h3m2.25-4.5v1.5a1.5 1.5 0 0 0 3 0v-1.5m-1.5 3v3m-12 0c4.008 0 3.922-6 0-6zm6-13.5H12a.75.75 0 0 1 .75.75v3.75m-1.5 0h3"/></svg>