<svg id="Regular" xmlns="http://www.w3.org/2000/svg" viewBox="0 0 24 24" width="24" height="24"><defs><style>.cls-1{fill:none;stroke:#000;stroke-linecap:round;stroke-linejoin:round;stroke-width:1.5px}</style></defs><title>tiger</title><path class="cls-1" d="M11.958 16.876a1.875 1.875 0 0 1-3.75 0m7.5 0a1.875 1.875 0 0 1-3.75 0v-2.625m-1.5 0h3m-5.625-6a.374.374 0 0 1 .375.375m-.75 0a.375.375 0 0 1 .375-.375m0 .749a.375.375 0 0 1-.375-.375m.75.001A.374.374 0 0 1 7.833 9m8.25-.749a.374.374 0 0 1 .375.375m-.75 0a.375.375 0 0 1 .375-.375m0 .749a.375.375 0 0 1-.375-.375m.75.001a.374.374 0 0 1-.375.374"/><path class="cls-1" d="M3.481 5.765A18.98 18.98 0 0 0 1.458 10.5c-1.743 6.1 1.784 9.919 7.31 10.954a3.624 3.624 0 0 0 3.19 1.8 3.624 3.624 0 0 0 3.191-1.8C20.675 20.42 24.2 16.6 22.458 10.5a18.941 18.941 0 0 0-2.022-4.736M17.185 2.28A9.2 9.2 0 0 0 11.958.751 9.2 9.2 0 0 0 6.732 2.28m13.476 11.221h2.699m-21.897 0h2.698m16.5 3h2.108m-20.704 0h2.096m8.25-15.75v5.25m-3-1.501s.75-.75 3-.75 3 .75 3 .75"/><path class="cls-1" d="M17.185 2.28l.023-.029s2-2.414 4.5-.75c2.25 1.5 0 5.25 0 5.25l-.392.654M6.732 2.28l-.024-.029s-2-2.414-4.5-.75c-2.25 1.5 0 5.25 0 5.25l.393.654"/></svg>