<svg id="Regular" xmlns="http://www.w3.org/2000/svg" viewBox="0 0 24 24" width="24" height="24"><defs><style>.cls-1{fill:none;stroke:#000;stroke-linecap:round;stroke-linejoin:round;stroke-width:1.5px}</style></defs><title>tiger-footprint</title><path class="cls-1" d="M13.308 8.3a5.868 5.868 0 0 0-11.735 0c0 3.157.954 4.885 3.214 5.547A3.516 3.516 0 0 0 7.441 15a3.516 3.516 0 0 0 2.659-1.156c2.255-.662 3.208-2.39 3.208-5.544zM2.271 5.52a2.515 2.515 0 1 1 3.56-2.866m6.778 2.864A2.515 2.515 0 1 0 9.05 2.653m-4.175 5.6a.375.375 0 0 1 .375.375m-.75 0a.375.375 0 0 1 .375-.375m0 .747a.375.375 0 0 1-.375-.372m.75 0A.375.375 0 0 1 4.875 9m5.25-.747a.375.375 0 0 1 .375.375m-.75 0a.375.375 0 0 1 .375-.375m0 .747a.375.375 0 0 1-.375-.375m.75.003a.375.375 0 0 1-.375.372M7.5 2.43v4.323M6 5.253h3m-2.25 6h1.5M17.6 22.5c1.132 0 1.51.761 2.643.761a1.383 1.383 0 0 0 1.51-1.511c0-1.51-1.649-1.549-1.888-2.265-.377-1.133-.755-2.266-2.265-2.266s-1.888 1.133-2.266 2.266c-.238.716-1.887.755-1.887 2.265a1.383 1.383 0 0 0 1.51 1.511c1.13.003 1.507-.761 2.643-.761zm-2.225-8.247a.375.375 0 0 1 .375.375m-.75 0a.375.375 0 0 1 .375-.375m0 .747a.375.375 0 0 1-.375-.372m.75 0a.375.375 0 0 1-.375.375m-3 2.25a.375.375 0 0 1 .375.375m-.75 0a.375.375 0 0 1 .375-.375m0 .747a.375.375 0 0 1-.375-.372m.75 0a.375.375 0 0 1-.375.375m10.5-.75a.375.375 0 0 1 .375.375m-.75 0a.375.375 0 0 1 .375-.375m0 .747a.375.375 0 0 1-.375-.375m.75.003a.375.375 0 0 1-.375.375m-3-3.75a.375.375 0 0 1 .375.375m-.75 0a.375.375 0 0 1 .375-.375m0 .747a.375.375 0 0 1-.375-.375m.75.003a.375.375 0 0 1-.375.375"/></svg>