<svg id="Regular" xmlns="http://www.w3.org/2000/svg" viewBox="0 0 24 24" width="24" height="24"><defs><style>.cls-1{fill:none;stroke:#000;stroke-linecap:round;stroke-linejoin:round;stroke-width:1.5px}</style></defs><title>tiger-bengal</title><path class="cls-1" d="M20.977 6.665a25.258 25.258 0 0 1 1.533 8.261c0 5.012-4.7 8.325-10.5 8.325s-10.5-3.313-10.5-8.325a25.258 25.258 0 0 1 1.533-8.261m.717.086a3 3 0 1 1 3-3m10.5 0a3 3 0 1 1 3 3"/><path class="cls-1" d="M6.679 3.055L6.76 3a10.376 10.376 0 0 1 5.25-1.5A10.376 10.376 0 0 1 17.26 3l.081.054M7.51 9a3.344 3.344 0 0 1 3 2.25 16.349 16.349 0 0 0-.75 4.5c0 .828 1.007 1.5 2.25 1.5s2.25-.672 2.25-1.5a16.349 16.349 0 0 0-.75-4.5 3.344 3.344 0 0 1 3-2.25m-7.5 11.251a2.938 2.938 0 0 0 3-3 2.938 2.938 0 0 0 3 3M7.135 12a.375.375 0 0 1 .375.375m-.75.001A.375.375 0 0 1 7.135 12m0 .751a.375.375 0 0 1-.375-.375m.75 0a.375.375 0 0 1-.375.375m9.75-.751a.375.375 0 0 1 .375.375m-.75.001a.375.375 0 0 1 .375-.376m0 .751a.375.375 0 0 1-.375-.375m.75 0a.375.375 0 0 1-.375.375m2.625 3h2.956m-3.706 3h2.693m-16.943-3H1.553m3.707 3H2.567m9.443-17.25v4.5m-2.25-1.5h4.5"/></svg>