<svg id="Regular" xmlns="http://www.w3.org/2000/svg" viewBox="0 0 24 24" width="24" height="24"><defs><style>.cls-1,.cls-2{fill:none;stroke:#000;stroke-linecap:round;stroke-linejoin:round;stroke-width:1.5px}.cls-1{fill-rule:evenodd}</style></defs><title>tiger-head</title><path class="cls-1" d="M9.66 19.21a10.532 10.532 0 0 1 3-.459c5.25 0 7.5 2.25 7.5 2.25s3.75-5.25 3-9.75M20.911 7.5a3.917 3.917 0 0 0 2.237-3.389 3.043 3.043 0 0 0-2-3.2 3.01 3.01 0 0 0-3.988 2.842c-6.776.614-13.553 5.279-15.76 6.925a1.489 1.489 0 0 0-.57 1.476l1.2 6.4a3 3 0 0 0 4.419 2.063c.233-.13.506-.283.835-.461"/><path class="cls-1" d="M2.088 18.8l.073-.052s5.25-3.75 9-3.75"/><path class="cls-1" d="M6.661 16.189v.311s0 5.25 3 6.75v-8.08m-8.416-.804l.166-.115s9.75-6.75 15-6.75"/><path class="cls-2" d="M3.484 9.221l1.019 3.056m9.658-1.777a.375.375 0 0 1 .375.375m-.75.001a.375.375 0 0 1 .375-.375m0 .75a.375.375 0 0 1-.375-.375m.75 0a.375.375 0 0 1-.375.375m6.75 2.25l2.121 1.061m-3.621 1.939l2.399 1.6"/></svg>