<svg xmlns="http://www.w3.org/2000/svg" viewBox="0 0 24 24" width="24" height="24"><defs><style>.a{fill:none;stroke:#000;stroke-linecap:round;stroke-linejoin:round;stroke-width:1.5px}</style></defs><title>time-clock-nine</title><path class="a" d="M12 .75c-.253 0-.5.022-.75.038V11.25H.788c-.017.249-.038.5-.038.75A11.25 11.25 0 1 0 12 .75z"/><path class="a" d="M19.875 11.625a.375.375 0 1 0 .375.375.375.375 0 0 0-.375-.375m-2.307-5.568a.37.37 0 0 0-.265.11.375.375 0 1 0 .265-.11m0 11.137a.37.37 0 0 0-.265.11.375.375 0 1 0 .265-.11M12 19.5a.375.375 0 1 0 .375.375A.375.375 0 0 0 12 19.5m-5.3-2.2a.372.372 0 0 0-.265-.11.375.375 0 0 0-.266.64.375.375 0 0 0 .531-.53"/></svg>