<svg xmlns="http://www.w3.org/2000/svg" viewBox="0 0 24 24" width="24" height="24"><defs><style>.a{fill:none;stroke:#000;stroke-linecap:round;stroke-linejoin:round;stroke-width:1.5px}</style></defs><title>time-clock-midnight</title><circle class="a" cx="12" cy="12" r="11.25"/><path class="a" d="M4.125 11.625A.375.375 0 1 0 4.5 12a.375.375 0 0 0-.375-.375m2.307-5.568a.375.375 0 0 0-.266.64.375.375 0 1 0 .531-.53.373.373 0 0 0-.265-.11M12 3.75a.375.375 0 1 0 .375.375A.375.375 0 0 0 12 3.75m5.568 2.307a.37.37 0 0 0-.265.11.375.375 0 1 0 .265-.11m2.307 5.568a.375.375 0 1 0 .375.375.375.375 0 0 0-.375-.375m-2.307 5.569a.37.37 0 0 0-.265.11.375.375 0 1 0 .265-.11M12 19.5a.375.375 0 1 0 .375.375A.375.375 0 0 0 12 19.5m-5.568-2.306a.375.375 0 0 0-.266.64.375.375 0 0 0 .534-.534.373.373 0 0 0-.265-.11"/></svg>