<svg xmlns="http://www.w3.org/2000/svg" viewBox="0 0 24 24" width="24" height="24"><defs><style>.a{fill:none;stroke:#000;stroke-linecap:round;stroke-linejoin:round;stroke-width:1.5px}</style></defs><title>time-clock-file-sync</title><path class="a" d="M8.25 14.25a4.5 4.5 0 1 1 4.25-5.978M9.75 9.75h-1.5v-1.5"/><path class="a" d="M7.5 20.25H2.25a1.5 1.5 0 0 1-1.5-1.5V2.25a1.5 1.5 0 0 1 1.5-1.5h10.629a1.5 1.5 0 0 1 1.06.44l2.872 2.871a1.5 1.5 0 0 1 .439 1.061V7.5m2.25 8.25h3.75v-4.5m-.189 4.5a6 6 0 1 0-1.121 5.243"/></svg>