<svg xmlns="http://www.w3.org/2000/svg" viewBox="0 0 24 24" width="24" height="24"><defs><style>.a{fill:none;stroke:#000;stroke-linecap:round;stroke-linejoin:round;stroke-width:1.5px}</style></defs><title>time-clock-file-edit</title><path class="a" d="M22.631 14.87L15 22.5l-3.75.75.75-3.75 7.631-7.63a2.115 2.115 0 0 1 2.991 0l.009.009a2.115 2.115 0 0 1 0 2.991zM8.25 20.25h-6a1.5 1.5 0 0 1-1.5-1.5V2.25a1.5 1.5 0 0 1 1.5-1.5h10.629a1.5 1.5 0 0 1 1.06.44l2.872 2.871a1.5 1.5 0 0 1 .439 1.061V8.25"/><circle class="a" cx="8.25" cy="9.75" r="4.5"/><path class="a" d="M9.75 9.75h-1.5v-1.5"/></svg>