<svg xmlns="http://www.w3.org/2000/svg" viewBox="0 0 24 24" width="24" height="24"><defs><style>.a,.b{fill:none;stroke:#000;stroke-linecap:round;stroke-linejoin:round;stroke-width:1.5px}.b{fill-rule:evenodd}</style></defs><title>time-stopwatch-3-quarters</title><path class="a" d="M12 19.5a.375.375 0 1 0 .375.375A.375.375 0 0 0 12 19.5m5.625-5.625a.375.375 0 1 0 .375.375.375.375 0 0 0-.375-.375m-1.648 3.978a.372.372 0 0 0-.265.11.375.375 0 1 0 .265-.11m-7.954 0a.375.375 0 0 0-.266.64.375.375 0 1 0 .531-.53.373.373 0 0 0-.265-.11M15.977 9.9a.372.372 0 0 0-.265.11.375.375 0 1 0 .265-.11M18 7.5l1.875-1.875M19.5 5.25l.75.75M12 5.25V.75m2.25 0h-4.5"/><path class="b" d="M12 5.25v9H3a9 9 0 1 0 9-9z"/><path class="a" d="M7.757 9.477a.374.374 0 0 0-.265-.11.376.376 0 1 0 .265.11"/></svg>