<svg xmlns="http://www.w3.org/2000/svg" viewBox="0 0 24 24" width="24" height="24"><defs><style>.a{fill:none;stroke:#000;stroke-linecap:round;stroke-linejoin:round;stroke-width:1.5px}</style></defs><title>time-clock-file-shield</title><path class="a" d="M23.25 15.75a7.669 7.669 0 0 1-6 7.5 7.669 7.669 0 0 1-6-7.5v-3.541a1.5 1.5 0 0 1 .915-1.381 12.535 12.535 0 0 1 10.17 0 1.5 1.5 0 0 1 .915 1.381zm-6-3v6m-3-3h6m-12-1.5a4.5 4.5 0 1 1 3.957-6.645"/><path class="a" d="M9.75 9.75h-1.5v-1.5"/><path class="a" d="M7.5 20.25H2.25a1.5 1.5 0 0 1-1.5-1.5V2.25a1.5 1.5 0 0 1 1.5-1.5h10.629a1.5 1.5 0 0 1 1.06.44l2.872 2.871a1.5 1.5 0 0 1 .439 1.061V6.75"/></svg>