<svg xmlns="http://www.w3.org/2000/svg" viewBox="0 0 24 24" width="24" height="24"><defs><style>.a,.b{fill:none;stroke:#000;stroke-linecap:round;stroke-linejoin:round;stroke-width:1.5px}.a{fill-rule:evenodd}</style></defs><title>time-clock-six</title><path class="a" d="M7 .75v22.5A11.25 11.25 0 0 0 7 .75z"/><path class="b" d="M14.875 11.625a.375.375 0 1 0 .375.375.375.375 0 0 0-.375-.375m-2.307-5.568a.37.37 0 0 0-.265.11.375.375 0 1 0 .265-.11m0 11.137a.37.37 0 0 0-.265.11.375.375 0 1 0 .265-.11"/></svg>