<svg xmlns="http://www.w3.org/2000/svg" viewBox="0 0 24 24" width="24" height="24"><g fill="none" stroke="#000" stroke-linejoin="round" stroke-miterlimit="10"><path d="M9.5 12.5v-4h4v4m-4 8v3h4v-3"/><path stroke-linecap="round" d="M11.5 14v2.5h1.979"/><circle cx="11.5" cy="16.5" r="4.5"/><path stroke-linecap="round" d="M11.5 5v3.5m0-8v1.979m3.371-.459l-1.482 1.311m2.577 2.222l-1.964-.243M8.045 2.02l1.483 1.311M6.951 5.553l1.964-.243M7.113 15.5H4.5v2h2.612"/><path d="M5.5 15.5v-7h4v4m0 8v3h-4v-6"/><path stroke-linecap="round" d="M15.887 15.5H18.5v2h-2.612"/><path d="M17.5 15.5v-7h-4v4m0 8v3h4v-6"/></g><path fill="none" d="M0 0h24v24H0z"/></svg>