<svg xmlns="http://www.w3.org/2000/svg" viewBox="0 0 24 24" width="24" height="24"><defs><style>.a{fill:none;stroke:#000;stroke-linecap:round;stroke-linejoin:round;stroke-width:1.5px}</style></defs><title>time-clock-file-upload</title><circle class="a" cx="17.254" cy="17.25" r="5.996"/><path class="a" d="M17.254 20.25v-6m0 0l-2.249 2.25m2.249-2.25l2.248 2.25M8.245 14.25a4.5 4.5 0 1 1 4.249-5.978"/><path class="a" d="M9.744 9.75H8.245v-1.5"/><path class="a" d="M7.5 20.25H2.249a1.5 1.5 0 0 1-1.5-1.5V2.25a1.5 1.5 0 0 1 1.5-1.5h10.622a1.5 1.5 0 0 1 1.06.44L16.8 4.061a1.5 1.5 0 0 1 .439 1.061V7.5"/></svg>