<svg xmlns="http://www.w3.org/2000/svg" viewBox="0 0 24 24" width="24" height="24"><defs><style>.a{fill:none;stroke:#000;stroke-linecap:round;stroke-linejoin:round;stroke-width:1.5px}</style></defs><title>time-stopwatch</title><path class="a" d="M17.978 7.522l1.897-1.897M19.5 5.25l.75.75M12 5.25V.75m2.25 0h-4.5"/><circle class="a" cx="12" cy="14.25" r="9"/><path class="a" d="M12 8.25a.375.375 0 1 0 .375.375A.375.375 0 0 0 12 8.25m0 11.25a.375.375 0 1 0 .375.375A.375.375 0 0 0 12 19.5m-5.625-5.625a.375.375 0 1 0 .375.375.375.375 0 0 0-.375-.375m11.25 0a.375.375 0 1 0 .375.375.375.375 0 0 0-.375-.375M8.023 9.9a.375.375 0 0 0-.266.64.375.375 0 1 0 .531-.53.373.373 0 0 0-.265-.11m7.954 7.953a.372.372 0 0 0-.265.11.375.375 0 1 0 .265-.11m-7.954 0a.375.375 0 0 0-.266.64.375.375 0 1 0 .531-.53.373.373 0 0 0-.265-.11m8.22-7.845a.374.374 0 0 0-.266-.11.372.372 0 0 0-.265.11.375.375 0 1 0 .531 0"/></svg>