<svg xmlns="http://www.w3.org/2000/svg" viewBox="0 0 24 24" width="24" height="24"><defs><style>.a{fill:none;stroke:#000;stroke-linecap:round;stroke-linejoin:round;stroke-width:1.5px}</style></defs><title>time-clock-three</title><path class="a" d="M10.523 2.25V13.5h11.25a11.25 11.25 0 0 0-11.25-11.25zm0 18.75a.375.375 0 1 0 .375.375.375.375 0 0 0-.375-.375m5.568-2.306a.37.37 0 0 0-.265.11.375.375 0 1 0 .265-.11m-11.136 0a.375.375 0 0 0-.266.64.375.375 0 0 0 .531-.53.373.373 0 0 0-.265-.11m-2.307-5.569a.375.375 0 1 0 .375.375.375.375 0 0 0-.375-.375m2.307-5.568a.375.375 0 0 0-.266.64.375.375 0 0 0 .531-.53.373.373 0 0 0-.265-.11"/><path class="a" d="M16.091 7.557a.37.37 0 0 0-.265.11.375.375 0 1 0 .265-.11"/></svg>