<svg xmlns="http://www.w3.org/2000/svg" viewBox="0 0 24 24" width="24" height="24"><defs><style>.a{fill:none;stroke:#000;stroke-linecap:round;stroke-linejoin:round;stroke-width:1.5px}</style></defs><title>time-stopwatch-quarter</title><path class="a" d="M17.228 8.772l1.897-1.897M18.75 6.5l.75.75m-8.25-.75V2m2.25 0H9m2.25 4.5v9h9a9 9 0 0 0-9-9zm0 15a.375.375 0 1 0 .375.375.375.375 0 0 0-.375-.375m-6.375-6.375a.375.375 0 1 0 .375.375.375.375 0 0 0-.375-.375m1.867 4.508a.375.375 0 0 0-.265.64.375.375 0 1 0 .53-.53.374.374 0 0 0-.265-.11m9.016 0a.375.375 0 0 0-.265.64.374.374 0 0 0 .53 0 .375.375 0 0 0-.265-.64m-9.016-9.016a.376.376 0 1 0 .265.11.374.374 0 0 0-.265-.11"/><path class="a" d="M14.962 11.258a.375.375 0 1 0 .265-.11.372.372 0 0 0-.265.11"/></svg>