<svg xmlns="http://www.w3.org/2000/svg" viewBox="0 0 24 24" width="24" height="24"><defs><style>.a,.b{fill:none;stroke:#000;stroke-linecap:round;stroke-linejoin:round;stroke-width:1.5px}.b{fill-rule:evenodd}</style></defs><title>time-stopwatch-half-1</title><path class="a" d="M7.272 7.522L5.375 5.625m.375-.375L5 6m8.25-.75V.75M11 .75h4.5"/><path class="b" d="M13.25 23.25a9 9 0 0 1 0-18z"/><path class="a" d="M19.625 13.875a.375.375 0 1 0 .375.375.375.375 0 0 0-.375-.375m-1.867-4.508a.376.376 0 1 0 .265.11.374.374 0 0 0-.265-.11m0 9.016a.375.375 0 0 0-.265.64.374.374 0 0 0 .53 0 .375.375 0 0 0-.265-.64M7.625 13.875A.375.375 0 1 0 8 14.25a.375.375 0 0 0-.375-.375M9.272 9.9a.375.375 0 0 0-.265.64.375.375 0 1 0 .265-.64m0 7.953a.375.375 0 0 0-.265.64.375.375 0 1 0 .265-.64"/></svg>