<svg xmlns="http://www.w3.org/2000/svg" viewBox="0 0 24 24" width="24" height="24"><path fill="none" stroke="#000" stroke-linecap="round" stroke-linejoin="round" stroke-miterlimit="10" d="M.5 11.5h14v12H.5z"/><path d="M6.5 15.5a.5.5 0 100 1 .5.5 0 000-1zm2 0a.5.5 0 100 1 .5.5 0 000-1z"/><path fill="none" stroke="#000" stroke-linecap="round" stroke-linejoin="round" stroke-miterlimit="10" d="M3.5 9.5h8v2h-8zm4 0v-7m3 14a3 3 0 00-6 0c0 .885.391 1.672 1 2.222V20.5h4v-1.778c.609-.55 1-1.337 1-2.222zm-8-16h10v2h-10zm12 20a3 3 0 116 0c0 1.11-.5 3-1.5 3s-1.5-1.888-1.5-3a3 3 0 116 0"/><path fill="none" d="M0 0h24v24H0z"/></svg>