<svg xmlns="http://www.w3.org/2000/svg" viewBox="0 0 24 24" width="24" height="24"><defs><style>.a{fill:none;stroke:#000;stroke-linecap:round;stroke-linejoin:round;stroke-width:1.5px}</style></defs><title>toilet-seat-1</title><path class="a" d="M6.001 11.265L5.25 3.753h13.5l-.751 7.512m2.251-9.012a1.5 1.5 0 0 1-1.5 1.5H5.25a1.5 1.5 0 0 1 0-3h13.5a1.5 1.5 0 0 1 1.5 1.5z"/><path class="a" d="M19.264 13.127a1.5 1.5 0 0 0-1.454-1.874H6.19a1.5 1.5 0 0 0-1.454 1.874 7.505 7.505 0 0 0 2.9 4.223 3 3 0 0 1 1.193 3.027l-.579 2.876h7.5l-.575-2.876a3 3 0 0 1 1.193-3.027 7.505 7.505 0 0 0 2.896-4.223z"/></svg>