<svg xmlns="http://www.w3.org/2000/svg" viewBox="0 0 24 24" width="24" height="24"><defs><style>.a{fill:none;stroke:#000;stroke-linecap:round;stroke-linejoin:round;stroke-width:1.5px}</style></defs><title>toilet-use-wrong</title><circle class="a" cx="11.625" cy="3.378" r="2.625"/><path class="a" d="M9.75 23.253a4.5 4.5 0 0 0 4.5-4.5h-9V13.5a1.5 1.5 0 0 0-1.5-1.5h-1.5a1.5 1.5 0 0 0-1.5 1.5v9.75m0-6.747h4.5m18-15.75L18 6.003m0-5.25l5.25 5.25"/><path class="a" d="M11.356 15.744l.213-1.282-2.729 1.169a1.5 1.5 0 0 1-2.04-1.742l1.5-6a1.5 1.5 0 0 1 2.91.727l-.767 3.067 2.472-1.059a1.5 1.5 0 0 1 2.069 1.625l-.587 3.527"/></svg>