<svg xmlns="http://www.w3.org/2000/svg" viewBox="0 0 24 24" width="24" height="24"><path fill="none" stroke="#000" stroke-linecap="round" stroke-linejoin="round" stroke-miterlimit="10" d="M1.5 11.5h21v10h-21zm0 10v2m21-2v2m-9-16h-10a4 4 0 004 4h2a4 4 0 004-4zm-5 0V3a1.5 1.5 0 013 0m2 8.5v10m-12-6h12"/><path d="M7.5 13a.5.5 0 100 1 .5.5 0 000-1z"/><path fill="none" stroke="#000" stroke-linecap="round" stroke-linejoin="round" stroke-miterlimit="10" d="M15.5 13.5h5v6h-5zm0 3l3-3m-1 6l3-3"/><path fill="none" d="M0 0h24v24H0z"/></svg>