<svg xmlns="http://www.w3.org/2000/svg" viewBox="0 0 24 24" width="24" height="24"><g fill="none" stroke="#000" stroke-linejoin="round" stroke-miterlimit="10"><path d="M20.5 18.548V5.497c0-6.611-17-6.611-17 0v13.051"/><path d="M19.456 18.561c-.25-1.986-2.144-3.456-4.253-2.964-.54-1.234-1.77-2.099-3.203-2.099s-2.664.865-3.205 2.099c-2.105-.49-4.002.979-4.252 2.964A2.495 2.495 0 001.5 20.997c0 2.707 3 2.5 3 2.5h15s3 .224 3-2.5a2.496 2.496 0 00-3.044-2.436z"/><path d="M11.5 10.511v-4m3 4v-4h.977c.812 0 1.023.448 1.023 1s-.211 1-1.023 1h-.957m-7.02 2v-4h1.025c.813 0 .955.448.955 1s-.142 1-.955 1h-.957m.957 0l.955 2" stroke-linecap="round"/></g><path fill="none" d="M0 0h24v24H0z"/></svg>