<svg xmlns="http://www.w3.org/2000/svg" viewBox="0 0 24 24" width="24" height="24"><g fill="none" stroke="#000" stroke-linejoin="round" stroke-miterlimit="10"><path stroke-linecap="round" d="M23.5 8.5c0-1.65-1.35-3-3-3h-17c-1.65 0-3 1.35-3 3v10c0 1.65 1.35 3 3 3h17c1.65 0 3-1.35 3-3v-10zm-15-3v-2c0-1.101.9-2 2-2h3c1.1 0 2 .899 2 2v2"/><path d="M16.297 13.531L17.5 12.5h2.316c-.413-1.163-1.512-2-2.816-2s-2.403.837-2.816 2H9.816c-.413-1.163-1.512-2-2.816-2s-2.403 1-2.816 2H6.5l1.203 1.031L6.5 14.5H4.184c.413 1 1.512 2 2.816 2s2.403-.837 2.816-2h4.367c.413 1.163 1.512 2 2.816 2s2.403-.837 2.816-2H17.5l-1.203-.969z"/></g><path fill="none" d="M0 0h24v24H0z"/></svg>