<svg xmlns="http://www.w3.org/2000/svg" viewBox="0 0 24 24" width="24" height="24"><path fill="none" stroke="#000" stroke-linejoin="round" stroke-miterlimit="10" d="M15.782 8.219c-2.239-2.24-5.705-2.074-7.944.166l-6.551 6.551c2.828 2.829 8.936-7.286 12-4.221 3.055 3.055-7.051 9.171-4.222 12l6.551-6.551c2.24-2.241 2.406-5.706.166-7.945zm-2.474 2.474l2.474-2.474"/><path fill="none" stroke="#000" stroke-linejoin="round" stroke-miterlimit="10" d="M17.34 12.708h.104c1.43.016 3.086-.753 4.219-1.886 1.977-1.976 2.408-5.114 1.051-7.415l-3.396 3.396s-.269.977-.707 1.415a2.001 2.001 0 01-2.828-2.83c.447-.447 1.41-.697 1.414-.706l3.396-3.397c-2.3-1.357-5.438-.925-7.415 1.052-1.133 1.132-1.901 2.789-1.885 4.218v.105"/><path fill="none" d="M0 0h24v24H0z"/></svg>