<svg xmlns="http://www.w3.org/2000/svg" viewBox="0 0 24 24" width="24" height="24"><defs><style>.a{fill:none;stroke:#000;stroke-linecap:round;stroke-linejoin:round;stroke-width:1.5px}</style></defs><title>tools-nail-gun</title><path class="a" d="M11.25 21.75h-6a1.5 1.5 0 0 1-1.5-1.5V3.75a1.5 1.5 0 0 1 1.5-1.5h15a1.5 1.5 0 0 1 1.5 1.5v6a1.5 1.5 0 0 1-1.5 1.5h-4.5v6a4.5 4.5 0 0 1-4.5 4.5zm12 0s-3-10.5-7.5-10.5m-12-7.5h-3m3 3h-3"/><path class="a" d="M3.75 8.25h6.219a4.5 4.5 0 0 0 4.025-2.488L15.75 2.25m-4.5 16.5h-3v-7.5h3a1.5 1.5 0 0 1 1.5 1.5v4.5a1.5 1.5 0 0 1-1.5 1.5zM18 7.125a.375.375 0 1 1-.375.375.375.375 0 0 1 .375-.375"/></svg>