<svg xmlns="http://www.w3.org/2000/svg" viewBox="0 0 24 24" width="24" height="24"><path fill="none" stroke="#000" stroke-linejoin="round" stroke-miterlimit="10" d="M21.277 11.908a6.515 6.515 0 001.19-7.565L19.156 7.5H16.5V5l3.222-3.476C17.28.275 14.171.67 12.126 2.714a6.505 6.505 0 00-1.21 7.554l-9.827 9.819a1.997 1.997 0 102.82 2.827l9.816-9.817a6.498 6.498 0 007.552-1.189zM16.5 7.5l4.5 4.813"/><path fill="none" stroke="#000" stroke-linecap="round" stroke-linejoin="round" stroke-miterlimit="10" d="M12.5 9L14 7.5m-.25 2.75l1.5-1.5M15 11.5l1.5-1.5"/><path fill="none" d="M0 0h24v24H0z"/></svg>