<svg xmlns="http://www.w3.org/2000/svg" viewBox="0 0 24 24" width="24" height="24"><defs><style>.a{fill:none;stroke:#000;stroke-linecap:round;stroke-linejoin:round;stroke-width:1.5px}</style></defs><title>tools-glue-gun</title><path class="a" d="M16.414 5.578L12.7 9.29a.749.749 0 0 1-1.06 0l-1.06-1.06a.75.75 0 0 1 0-1.061l2.652-2.652zM5.478 11.539l-2.853 5.706 5.706-2.853m9.143-11.996L19.122.748m-5.36 17.027a3.749 3.749 0 0 0 .065-5.235"/><path class="a" d="M22.125 9.168l-.408-.408a3 3 0 0 1 0-4.243l-6.551-3.275A3 3 0 0 0 11.7 1.8L5.8 7.7a3 3 0 0 0 0 4.243l2.121 2.121a3 3 0 0 0 4.243 0L13.231 13a3 3 0 0 1 4.243 0l4.651 4.651m-20.25 3.502l1.3 1.559a1.5 1.5 0 0 0 2.3 0l1.446-1.734a1.5 1.5 0 0 1 2.3 0l1.446 1.734a1.5 1.5 0 0 0 2.3 0l1.446-1.734a1.5 1.5 0 0 1 2.3 0l1.446 1.734a1.5 1.5 0 0 0 2.3 0l1.3-1.559"/></svg>