<svg xmlns="http://www.w3.org/2000/svg" viewBox="0 0 24 24" width="24" height="24"><defs><style>.a{fill:none;stroke:#000;stroke-linecap:round;stroke-linejoin:round;stroke-width:1.5px}</style></defs><title>tools-wench-hold</title><path class="a" d="M15.697 8.432l-4.318 4.318m.878 5.121a3 3 0 0 0 0-4.242l-2.068-2.068a1.5 1.5 0 0 0-2.121 0l-4.629 4.628a1.5 1.5 0 0 0 0 2.122l2.068 2.068a3 3 0 0 0 4.243 0z"/><path class="a" d="M10.629 12a2.493 2.493 0 0 1 0-3 1.511 1.511 0 0 1 2.25 0l4.06 4.061a2.742 2.742 0 0 1 0 3.878 1.5 1.5 0 0 0 0 2.122l4.19 4.189m-16.5-3.75l-3.75 3.75m6.995-2.004l2.005 2.004m10.5-16.5a1.5 1.5 0 0 1 0-3h2.742a4.5 4.5 0 1 0 0 3z"/></svg>