<svg xmlns="http://www.w3.org/2000/svg" viewBox="0 0 24 24" width="24" height="24"><defs><style>.a{fill:none;stroke:#000;stroke-linecap:round;stroke-linejoin:round;stroke-width:1.5px}</style></defs><title>tools-palette-spatula</title><path class="a" d="M6.659 14.159l-5.25 5.25a2.25 2.25 0 0 0 3.182 3.182l5.25-5.25zm15.282-7.858l-5.303-3.182m2.121 6.364l-5.303-3.182m2.121 6.364l-5.303-3.182"/><path class="a" d="M23.08 3.675a6.622 6.622 0 0 0-1.139-1.616A6.622 6.622 0 0 0 20.325.92a1.5 1.5 0 0 0-1.757.27l-8.824 8.824a1.5 1.5 0 0 0-.026 2.094l-2.555 2.555 2.121 2.121 2.554-2.554.027.026a1.5 1.5 0 0 0 2.121 0l8.824-8.824a1.5 1.5 0 0 0 .27-1.757z"/></svg>