<svg xmlns="http://www.w3.org/2000/svg" viewBox="0 0 24 24" width="24" height="24"><defs><style>.a{fill:none;stroke:#000;stroke-linecap:round;stroke-linejoin:round;stroke-width:1.5px}</style></defs><title>tools-slip-joint-pliers</title><path class="a" d="M18.75 4.2H9.737a3.1 3.1 0 0 1-1.829-.632 4.5 4.5 0 0 0-5.84 6.813l2.121-2.124a1.5 1.5 0 0 1 2.122 0l2.121 2.121A4.489 4.489 0 0 0 9.493 8.7h9.257a1.5 1.5 0 0 0 1.5-1.5V5.7a1.5 1.5 0 0 0-1.5-1.5zm4.5-.003v4.5m-3-2.25h3"/><path class="a" d="M8.25 10.2v3s10.5 3.75 12 7.5c0 0-2.883 1.365-4.5 0-2.488-2.1-6.994-4.065-8.25-3.75a3.029 3.029 0 0 1-3.75-2.25zm7.5-1.503l-5.347 5.346"/></svg>