<svg xmlns="http://www.w3.org/2000/svg" viewBox="0 0 24 24" width="24" height="24"><g fill="none" stroke="#000" stroke-linecap="round" stroke-linejoin="round" stroke-miterlimit="10"><path d="M11.295 6.392a1.5 1.5 0 01-2.121 0L6.345 3.564a1.502 1.502 0 01-.001-2.122 1.502 1.502 0 012.12 0l2.83 2.83a1.505 1.505 0 01.001 2.12z"/><path d="M11.294 6.392l2.121 2.121-4.95 4.949L12 17"/><path d="M9.5 20c-1.115-.296-1.316-1.684-.5-2.5l3.5-3.5c.825-.825 2.217-.624 2.5.5l3.5 9-9-3.5z"/></g><path fill="none" d="M0 0h24v24H0z"/></svg>