<svg xmlns="http://www.w3.org/2000/svg" viewBox="0 0 24 24" width="24" height="24"><defs><style>.a{fill:none;stroke:#000;stroke-linecap:round;stroke-linejoin:round;stroke-width:1.5px}</style></defs><title>tools-hammer</title><path class="a" d="M19.58 6.542l1.082-1.082a1.5 1.5 0 1 0-2.121-2.122l-1.083 1.083m-6.321 6.32L1.57 20.309a1.5 1.5 0 1 0 2.121 2.121l9.568-9.567"/><path class="a" d="M18.893 15.714a1.5 1.5 0 0 1-1.932.158 37.752 37.752 0 0 1-8.833-8.833 1.5 1.5 0 0 1 .158-1.931l3.538-3.539a1.5 1.5 0 0 1 1.932-.158 37.757 37.757 0 0 1 8.834 8.833 1.5 1.5 0 0 1-.159 1.932z"/></svg>