<svg xmlns="http://www.w3.org/2000/svg" viewBox="0 0 24 24" width="24" height="24"><path fill="none" stroke="#000" stroke-linejoin="round" stroke-miterlimit="10" d="M1.711 22.288a4.097 4.097 0 005.307.418l13.991-10.164a6.788 6.788 0 10-9.552-9.551L1.294 16.982a4.096 4.096 0 00.417 5.306z"/><circle fill="none" stroke="#000" stroke-linejoin="round" stroke-miterlimit="10" cx="5" cy="19" r="2.5"/><circle fill="none" stroke="#000" stroke-linejoin="round" stroke-miterlimit="10" cx="17" cy="7" r="4.5"/><circle fill="none" stroke="#000" stroke-linejoin="round" stroke-miterlimit="10" cx="17" cy="7" r="2.5"/><path d="M17 6a1 1 0 10-.002 1.998A1 1 0 0017 6zM5 18a1 1 0 10-.002 1.998A1 1 0 005 18z"/><path fill="none" d="M0 0h24v24H0z"/></svg>