<svg xmlns="http://www.w3.org/2000/svg" viewBox="0 0 24 24" width="24" height="24"><defs><style>.a{fill:none;stroke:#000;stroke-linecap:round;stroke-linejoin:round;stroke-width:1.5px}</style></defs><title>tools-hammer-hold</title><rect class="a" x="14.689" y=".825" width="6.364" height="10.607" rx="1.5" ry="1.5" transform="rotate(-45 17.871 6.128)"/><path class="a" d="M15.621 8.379L11.25 12.75m.879 5.121a3 3 0 0 0 0-4.242l-2.068-2.068a1.5 1.5 0 0 0-2.122 0l-4.628 4.628a1.5 1.5 0 0 0 0 2.122l2.068 2.068a3 3 0 0 0 4.242 0z"/><path class="a" d="M10.5 12a2.493 2.493 0 0 1 0-3 1.511 1.511 0 0 1 2.25 0l4.061 4.061a2.742 2.742 0 0 1 0 3.878 1.5 1.5 0 0 0 0 2.122L21 23.25M4.5 19.5L.75 23.25m6.996-2.004L9.75 23.25"/></svg>