<svg xmlns="http://www.w3.org/2000/svg" viewBox="0 0 24 24" width="24" height="24"><defs><style>.a{fill:none;stroke:#000;stroke-linecap:round;stroke-linejoin:round;stroke-width:1.5px}</style></defs><title>tools-pickaxe</title><path class="a" d="M19.052 7.07l1.06-1.061a1.5 1.5 0 0 0-2.121-2.121l-1.061 1.06M14.259 7.62L1.551 20.328a1.5 1.5 0 0 0 2.121 2.121L16.38 9.741"/><path class="a" d="M15.339 8.661a39.521 39.521 0 0 1 6.4 8.315 2.023 2.023 0 0 0 .493-.36c1.758-1.758-.142-6.506-4.242-10.607s-8.848-6-10.606-4.243a2.047 2.047 0 0 0-.36.494 39.521 39.521 0 0 1 8.315 6.401z"/></svg>