<svg xmlns="http://www.w3.org/2000/svg" viewBox="0 0 24 24" width="24" height="24"><g fill="none" stroke="#000" stroke-linejoin="round" stroke-miterlimit="10"><path d="M3.5 2.5a2 2 0 012-2h12a2 2 0 012 2v19a2 2 0 01-2 2h-12a2 2 0 01-2-2v-19z"/><path d="M6.5 2.5h10v9h-10z"/><circle cx="16" cy="16" r="1"/><circle cx="16" cy="20" r="1"/><circle cx="9.5" cy="17.5" r="3"/><path stroke-linecap="round" d="M11.5 9.453L9 4.5m.5 9.047V21.5"/><path d="M9.5 11.5a2 2 0 014 0"/></g><path fill="none" d="M0 0h24v24H0z"/></svg>