<svg id="Regular" xmlns="http://www.w3.org/2000/svg" viewBox="0 0 24 24" width="24" height="24"><defs><style>.cls-1{fill:none;stroke:#000;stroke-linecap:round;stroke-linejoin:round;stroke-width:1.5px}</style></defs><title>tools-kitchen-basket</title><rect class="cls-1" x="9" y=".75" width="6" height="3" rx="1.125" ry="1.125"/><path class="cls-1" d="M14.25 23.25h-4.5a9 9 0 0 1-9-9 1.5 1.5 0 0 1 1.5-1.5h19.5a1.5 1.5 0 0 1 1.5 1.5 9 9 0 0 1-9 9zM9.02 1.939a9.951 9.951 0 0 0-6.77 9.51v1.3m19.5.001v-1.3A9.951 9.951 0 0 0 15 1.946M.875 15.75h22.25M12 15.75l2.25 7.5M12 15.75l-2.25 7.5m8.25-7.5l2.048 5.384M18 15.75l-3 7.469M6 15.75l-2.048 5.384M6 15.75l3 7.469"/></svg>