<svg xmlns="http://www.w3.org/2000/svg" viewBox="0 0 24 24" width="24" height="24"><defs><style>.a{fill:none;stroke:#000;stroke-linecap:round;stroke-linejoin:round;stroke-width:1.5px}</style></defs><title>tools-hammer-2</title><path class="a" d="M14.652 11.47L3.515 22.607a1.5 1.5 0 0 1-2.122-2.122L12.53 9.348m4.243-4.242l1.061-1.061a1.5 1.5 0 1 1 2.121 2.121l-1.061 1.061m-1.979 6.506l-6.648-6.648m4.243-4.242l6.647 6.647m-1.732 5.692a1.5 1.5 0 1 1-2.125-2.121l3.182-3.182A1.5 1.5 0 1 1 22.607 12zM10.939 6.7a1.5 1.5 0 1 1-2.121-2.125L12 1.393a1.5 1.5 0 1 1 2.121 2.122z"/></svg>