<svg xmlns="http://www.w3.org/2000/svg" viewBox="0 0 24 24" width="24" height="24"><defs><style>.a{fill:none;stroke:#000;stroke-linecap:round;stroke-linejoin:round;stroke-width:1.5px}</style></defs><title>tools-pliers</title><path class="a" d="M13.061 8.22a5.113 5.113 0 0 1 2.719 2.718 5.225 5.225 0 0 0 6.689-7.285l-3.54 3.54a1.5 1.5 0 0 1-2.122-2.122l3.54-3.54a5.226 5.226 0 0 0-7.286 6.689z"/><path class="a" d="M14.686 9.314a5.251 5.251 0 0 0-7.425 0L.9 15.678a3 3 0 0 0 4.242 0l4.243-4.243a2.25 2.25 0 1 1 3.182 3.182L8.322 18.86a3 3 0 0 0 0 4.242l6.364-6.363a5.251 5.251 0 0 0 0-7.425zm0 0l-2.121 2.121"/></svg>