<svg xmlns="http://www.w3.org/2000/svg" viewBox="0 0 24 24" width="24" height="24"><defs><style>.a{fill:none;stroke:#000;stroke-linecap:round;stroke-linejoin:round;stroke-width:1.5px}</style></defs><title>tools-axe-hold</title><path class="a" d="M10.693 19.371a3 3 0 0 0 0-4.242l-2.068-2.068a1.5 1.5 0 0 0-2.121 0l-4.629 4.628a1.5 1.5 0 0 0 0 2.122l2.068 2.068a3 3 0 0 0 4.242 0z"/><path class="a" d="M9.064 13.5a2.493 2.493 0 0 1 0-3 1.511 1.511 0 0 1 2.25 0l4.061 4.061a2.742 2.742 0 0 1 0 3.878 1.5 1.5 0 0 0 0 2.122l2.689 2.689M16.124.75a6.968 6.968 0 0 0-4.5 2.25 6.968 6.968 0 0 0-2.25 4.5l4.5 2.249 3.75 3.75a1.5 1.5 0 0 0 2.121 0l2.379-2.379a1.5 1.5 0 0 0 0-2.121l-3.75-3.75zm3.596 5.844l1.344-1.344M10.922 15.393l4.298-4.299"/></svg>