<svg id="Regular" xmlns="http://www.w3.org/2000/svg" viewBox="0 0 24 24" width="24" height="24"><defs><style>.cls-1{fill:none;stroke:#000;stroke-linecap:round;stroke-linejoin:round;stroke-width:1.5px}</style></defs><title>tools-kitchen-scale-1</title><path class="cls-1" d="M20.491 22a1.614 1.614 0 0 1-1.629 1.253H5.138A1.614 1.614 0 0 1 3.509 22L1.645 11.847C.579 6.038 5.513.75 12 .75s11.421 5.288 10.355 11.1z"/><circle class="cls-1" cx="12" cy="12" r="3.75"/><path class="cls-1" d="M12 8.25V12m0-7.125a.375.375 0 1 1-.375.375.375.375 0 0 1 .375-.375M6.962 6.962a.375.375 0 1 1 0 .53.374.374 0 0 1 0-.53M5.25 11.625a.375.375 0 1 1-.375.375.375.375 0 0 1 .375-.375m1.712 4.883a.375.375 0 1 1 0 .53.374.374 0 0 1 0-.53M12 18.375a.375.375 0 1 1-.375.375.375.375 0 0 1 .375-.375m4.508-1.867a.375.375 0 1 1 0 .53.374.374 0 0 1 0-.53m2.242-4.883a.375.375 0 1 1-.375.375.375.375 0 0 1 .375-.375m-2.242-4.663a.375.375 0 1 1 0 .53.374.374 0 0 1 0-.53"/></svg>