<svg id="Regular" xmlns="http://www.w3.org/2000/svg" viewBox="0 0 24 24" width="24" height="24"><defs><style>.cls-1{fill:none;stroke:#000;stroke-linecap:round;stroke-linejoin:round;stroke-width:1.5px}</style></defs><title>tools-kitchen-scale</title><circle class="cls-1" cx="12" cy="17.25" r="3"/><path class="cls-1" d="M12 14.25v2.25m10.432 4.8A1.5 1.5 0 0 1 21 23.25H3a1.5 1.5 0 0 1-1.432-1.95l2.813-9a1.5 1.5 0 0 1 1.431-1.05h12.375a1.5 1.5 0 0 1 1.432 1.05zM3 .75a.75.75 0 0 0-.692 1.039A10.5 10.5 0 0 0 12 8.25a10.5 10.5 0 0 0 9.689-6.462A.75.75 0 0 0 21 .75zm6 7.065v3.435m6-3.435v3.435"/></svg>