<svg xmlns="http://www.w3.org/2000/svg" viewBox="0 0 24 24" width="24" height="24"><g fill="none" stroke="#000" stroke-linejoin="round" stroke-miterlimit="10"><path d="M3.561 22.56a1.497 1.497 0 01-2.121 0 1.498 1.498 0 010-2.12l6.57-6.572 2.121 2.121-6.57 6.571z"/><path stroke-linecap="round" d="M6.951 12.807l4.24 4.242"/><path d="M19.75 4.25L9.062 14.938m11.872-9.505L18.459 2.96 22 .5 23.5 2zM11.89 9.812L8.145 6.068a4 4 0 00-.854-4.39C6.104.493 4.434.21 2.977.825L5 2.934V5H2.846L.781 3.02a3.94 3.94 0 00.854 4.352c1.186 1.188 2.933 1.451 4.388.835l3.746 3.738m2.121 2.11l3.747 3.748a3.998 3.998 0 005.244 5.242l-2.034-2.11v-2h2L23 20.923a3.998 3.998 0 00-5.243-5.242l-3.745-3.747"/></g><path fill="none" d="M0 0h24v24H0z"/></svg>