<svg xmlns="http://www.w3.org/2000/svg" viewBox="0 0 24 24" width="24" height="24"><defs><style>.a{fill:none;stroke:#000;stroke-linecap:round;stroke-linejoin:round;stroke-width:1.5px}</style></defs><title>tools-wheel-unscrew</title><path class="a" d="M5.871 22.371a3 3 0 0 1-4.242-4.242zm14.304-5.614a2.25 2.25 0 0 0-3.182-3.182l-4.243 4.243A2.25 2.25 0 0 0 15.932 21zM16.5 4.5L20.25.75l3 3.001-3.75 3.75zm5.25-2.25l1.5-1.5"/><path class="a" d="M12.75 21a2.122 2.122 0 0 1-3 0l-2.314-2.314a1.5 1.5 0 0 0-2.122 0L3.75 20.25m16.425-6.675l.139-.139a1.5 1.5 0 0 0 0-2.122l-2.753-2.753a1.5 1.5 0 0 1 0-2.122L18 6"/></svg>