<svg xmlns="http://www.w3.org/2000/svg" viewBox="0 0 24 24" width="24" height="24"><defs><style>.a{fill:none;stroke:#000;stroke-linecap:round;stroke-linejoin:round;stroke-width:1.5px}</style></defs><title>tools-gasket-1</title><path class="a" d="M15 23.25H9a.75.75 0 0 1-.75-.75v-3.749l1.5-3h4.5l1.5 3V22.5a.75.75 0 0 1-.75.75zm6-22.5H3a.75.75 0 0 0-.75.75V3a.75.75 0 0 0 .75.75h6a.75.75 0 0 1 .75.75v11.25h4.5V4.5a.75.75 0 0 1 .75-.75h6a.75.75 0 0 0 .75-.75V1.5A.75.75 0 0 0 21 .75zm-11.25 12h4.5"/></svg>