<svg xmlns="http://www.w3.org/2000/svg" viewBox="0 0 24 24" width="24" height="24"><g fill="none" stroke="#000" stroke-linejoin="round" stroke-miterlimit="10"><path d="M15.286 9.467c0-1.313-.849-2.347-1.896-2.347-.677 0-1.269.356-1.604.889a1.895 1.895 0 00-1.604-.889c-1.047 0-1.896 1.034-1.896 2.347 0 1.42.456 2.326 1.038 2.906a6.023 6.023 0 00-.455 2.344c0 .452.046.888.131 1.299a.384.384 0 00.375.305.398.398 0 00.397-.355c.158-1.453 1-2.561 2.014-2.561 1.017 0 1.86 1.113 2.016 2.573a.385.385 0 00.383.343.4.4 0 00.391-.319c.083-.407.128-.838.128-1.285 0-.863-.167-1.666-.454-2.344.58-.581 1.036-1.486 1.036-2.906z"/><path stroke-linecap="round" d="M.5 10.358l2.787 4.151 3.204-3.838m16.582 3.989l-2.786-4.151-3.206 3.838"/><path stroke-linecap="round" d="M20.25 10.546c.834 4.409-2.274 8.727-6.509 9.729a8.5 8.5 0 01-7.931-2.224m-2.519-3.568C1.978 9.602 5.262 4.81 9.829 3.73a8.5 8.5 0 018.325 2.642"/></g><path fill="none" d="M0 0h24v24H0z"/></svg>