<svg id="Regular" xmlns="http://www.w3.org/2000/svg" viewBox="0 0 24 24" width="24" height="24"><defs><style>.cls-1{fill:none;stroke:#000;stroke-linecap:round;stroke-linejoin:round;stroke-width:1.5px}</style></defs><title>torch</title><path class="cls-1" d="M11.471.75a3.739 3.739 0 0 1 .379 4.263 1.333 1.333 0 0 1-1.421-1.137 3.017 3.017 0 0 0-1.563 2.842 3.411 3.411 0 0 0 3.411 3.411 3.458 3.458 0 0 0 3.41-3.411A5.671 5.671 0 0 0 11.471.75zm2.071 22.5h-3.2a.749.749 0 0 1-.742-.644l-1.286-9a.75.75 0 0 1 .742-.856h5.771a.75.75 0 0 1 .742.856l-1.285 9a.75.75 0 0 1-.742.644z"/></svg>