<svg xmlns="http://www.w3.org/2000/svg" viewBox="0 0 24 24" width="24" height="24"><g fill="none" stroke="#000" stroke-linecap="round" stroke-linejoin="round" stroke-miterlimit="10"><circle cx="12" cy="12" r="11.5"/><circle cx="12" cy="6" r="2.5"/><path d="M19.158 7.801c.211-.19.334-.458.342-.741a1.033 1.033 0 00-1.763-.757c-.479.479-1.812 1.688-3.073 2.82a3.996 3.996 0 01-5.339.004C8.14 8.066 6.877 6.916 6.263 6.303a1.033 1.033 0 10-1.421 1.498L9.5 12.5v1.501L6.878 18.5A1.277 1.277 0 009 19.917l2.181-3.71a1 1 0 011.639 0l2.681 3.71a1.274 1.274 0 001.811.289c.533-.4.669-1.144.312-1.706L14.5 14v-1.5l4.658-4.699zM15.5 7l3 3m-10-3l-3 3m8.5 9l3.5-2.5M10 19l-3.5-2.5"/></g><path fill="none" d="M0 0h24v24H0z"/></svg>