<svg xmlns="http://www.w3.org/2000/svg" viewBox="0 0 24 24" width="24" height="24"><g fill="none" stroke="#000" stroke-linejoin="round" stroke-miterlimit="10"><path stroke-linecap="round" d="M15.5 4a3.5 3.5 0 10-7 0v19.5h7V4zM15.5 6.5h8a3 3 0 01-3 3m-2.5 0h2.5a3 3 0 01-3 3h-2M8.5 6.5h-8a3 3 0 003 3m2.5 0H3.5a3 3 0 003 3h2"/><path stroke-linecap="round" d="M8.5 21.5h7m-7-3h7m-5 0v3m3-3v3m-5-5.5l1.5-1.5 2 2 2-2 1.5 1.5m-7-7.5l3.5-1 3.5 1L12 11zm2-4v1m3-1v1"/><path d="M9.502 1.549L12 3l2.498-1.451"/></g><path fill="none" d="M0 0h24v24H0z"/></svg>