<svg xmlns="http://www.w3.org/2000/svg" viewBox="0 0 24 24" width="24" height="24"><defs><style>.a{fill:none;stroke:#000;stroke-linecap:round;stroke-linejoin:round;stroke-width:1.5px}</style></defs><title>touch-id-1</title><path class="a" d="M3.749 9a8.25 8.25 0 0 1 13.5-6.364M19.687 6a8.23 8.23 0 0 1 .562 3v6A8.25 8.25 0 0 1 12 23.25a8.336 8.336 0 0 1-1.5-.136m-3.749-1.749a8.234 8.234 0 0 1-3-6.365v-2.25"/><path class="a" d="M15.749 15V9a3.75 3.75 0 0 0-6-3m-1.5 3v6a3.753 3.753 0 0 0 5.251 3.438M11.999 9.75v4.5"/></svg>