<svg xmlns="http://www.w3.org/2000/svg" viewBox="0 0 24 24" width="24" height="24"><defs><style>.a{fill:none;stroke:#000;stroke-linecap:round;stroke-linejoin:round;stroke-width:1.5px}</style></defs><title>touchpad</title><path class="a" d="M14.62 2.342a7.155 7.155 0 0 0-9 0M7.5 5.136a4.177 4.177 0 0 1 5.25 0M8.62 23.23l-4.5.016a1.5 1.5 0 0 1-1.5-1.5v-12a1.5 1.5 0 0 1 1.5-1.5h14.25a1.5 1.5 0 0 1 1.5 1.5v2.98"/><path class="a" d="M13.87 23.23l-2.929-2.344a1.638 1.638 0 0 1-.566-1.676 1.637 1.637 0 0 1 2.325-1.067l1.174.587v-5.25a1.5 1.5 0 0 1 1.5-1.5 1.5 1.5 0 0 1 1.5 1.5v3l1.993.332a3 3 0 0 1 2.507 2.959v3.459M2.62 12.73h9"/></svg>