<svg xmlns="http://www.w3.org/2000/svg" viewBox="0 0 24 24" width="24" height="24"><defs><style>.a{fill:none;stroke:#000;stroke-linecap:round;stroke-linejoin:round;stroke-width:1.5px}</style></defs><title>touch-finger-1</title><path class="a" d="M9.477 23.247l-3.85-5.132a1.534 1.534 0 0 1-.049-1.77 1.534 1.534 0 0 1 2.195-.376l1.7 1.278V7.5a1.5 1.5 0 0 1 1.5-1.5 1.5 1.5 0 0 1 1.5 1.5v6l4.174.928a3 3 0 0 1 2.337 3.2l-.511 5.622zm1.5-20.25V.747m3 3l1.5-1.5m-7.5 1.5l-1.5-1.5m8.25 3.75h2.25m-9.75 0h-2.25"/></svg>