<svg xmlns="http://www.w3.org/2000/svg" viewBox="0 0 24 24" width="24" height="24"><defs><style>.a{fill:none;stroke:#000;stroke-linecap:round;stroke-linejoin:round;stroke-width:1.5px}</style></defs><title>touch-id-5</title><path class="a" d="M6 23.25H2.251a1.5 1.5 0 0 1-1.5-1.5V2.25a1.5 1.5 0 0 1 1.5-1.5H6m12 22.5h3.75a1.5 1.5 0 0 0 1.5-1.5V2.25a1.5 1.5 0 0 0-1.5-1.5H18m0 12.75V12c0-3.713-2.7-6.75-6-6.75S6 8.287 6 12v6m12.001 0v-1.5m-9 0V18"/><path class="a" d="M15 18v-5.25C15 10.687 13.651 9 12 9c-1.65 0-3 1.687-3 3.75v.75m3.001 3.75V18m0-6v2.25"/></svg>