<svg xmlns="http://www.w3.org/2000/svg" viewBox="0 0 24 24" width="24" height="24"><defs><style>.a{fill:none;stroke:#000;stroke-linecap:round;stroke-linejoin:round;stroke-width:1.5px}</style></defs><title>touch-finger-lock</title><path class="a" d="M15.75 23.25l-2.929-2.344a1.639 1.639 0 0 1-.566-1.676 1.638 1.638 0 0 1 2.321-1.068l1.174.588V13.5a1.5 1.5 0 0 1 1.5-1.5 1.5 1.5 0 0 1 1.5 1.5v3l1.993.332a3 3 0 0 1 2.507 2.959v3.459m-15-12.375a.375.375 0 1 1-.375.375.374.374 0 0 1 .375-.375"/><rect class="a" x="3.75" y="8.25" width="9" height="6" rx=".375" ry=".375"/><path class="a" d="M5.25 8.25v-1.5a3 3 0 0 1 6 0v1.5"/><path class="a" d="M8.25 17.25h-6a1.5 1.5 0 0 1-1.5-1.5V2.25a1.5 1.5 0 0 1 1.5-1.5h12a1.5 1.5 0 0 1 1.5 1.5v6"/></svg>