<svg xmlns="http://www.w3.org/2000/svg" viewBox="0 0 24 24" width="24" height="24"><defs><style>.a{fill:none;stroke:#000;stroke-linecap:round;stroke-linejoin:round;stroke-width:1.5px}</style></defs><title>touch-id-target</title><path class="a" d="M12 22.246A7.5 7.5 0 0 1 .75 15.75m15 0a7.481 7.481 0 0 1-.624 3M8.25.75a7.489 7.489 0 0 1 1.5.15m-9 10.35v-3a7.5 7.5 0 0 1 4.5-6.876"/><path class="a" d="M12.75 13.5v2.25A4.5 4.5 0 0 1 6 19.648M3.75 15.75v-7.5a4.5 4.5 0 0 1 6-4.244"/><path class="a" d="M9.75 9.75v6a1.5 1.5 0 0 1-3 0v-3m0-4.5a1.5 1.5 0 0 1 1.5-1.5"/><circle class="a" cx="17.25" cy="6.75" r="4.5"/><path class="a" d="M17.25.75v3m0 6v3m3-6h3m-12 0h3m3-.375a.375.375 0 1 1-.375.375.375.375 0 0 1 .375-.375"/></svg>