<svg xmlns="http://www.w3.org/2000/svg" viewBox="0 0 24 24" width="24" height="24"><defs><style>.a{fill:none;stroke:#000;stroke-linecap:round;stroke-linejoin:round;stroke-width:1.5px}</style></defs><title>touch-password-approved</title><path class="a" d="M20.25 4.5L16.5 9l-2.25-2.25"/><path class="a" d="M3.75 12h-1.5a1.5 1.5 0 0 1-1.5-1.5V3a1.5 1.5 0 0 1 1.5-1.5h19.5a1.5 1.5 0 0 1 1.5 1.5v7.5a1.5 1.5 0 0 1-1.5 1.5h-9"/><path class="a" d="M5.25 22.5l-2.764-3.11a1.557 1.557 0 1 1 2.327-2.069L6.75 19.5v-9a1.5 1.5 0 0 1 3 0v6.75h1.5a4.5 4.5 0 0 1 4.5 4.5v.75"/></svg>