<svg xmlns="http://www.w3.org/2000/svg" viewBox="0 0 24 24" width="24" height="24"><defs><style>.a{fill:none;stroke:#000;stroke-linecap:round;stroke-linejoin:round;stroke-width:1.5px}</style></defs><title>touch-id-search</title><path class="a" d="M12 1.753A7.5 7.5 0 0 0 .75 8.25m15 0a7.478 7.478 0 0 0-.624-3m-6.876 18a7.563 7.563 0 0 0 1.5-.15m-9-10.35v3a7.5 7.5 0 0 0 4.5 6.876m7.5-14.376A4.5 4.5 0 0 0 6 4.352M3.75 8.25v7.5a4.5 4.5 0 0 0 4.5 4.5m1.5-10.5v-1.5a1.5 1.5 0 0 0-3 0v3m0 4.5a1.5 1.5 0 0 0 1.5 1.5"/><circle class="a" cx="15.75" cy="15.75" r="5.25"/><path class="a" d="M23.25 23.25l-3.788-3.788"/></svg>