<svg xmlns="http://www.w3.org/2000/svg" viewBox="0 0 24 24" width="24" height="24"><defs><style>.a{fill:none;stroke:#000;stroke-linecap:round;stroke-linejoin:round;stroke-width:1.5px}</style></defs><title>touch-id-lock</title><path class="a" d="M12 1.753A7.5 7.5 0 0 0 .75 8.25m15 0a7.478 7.478 0 0 0-.624-3m-6.876 18a7.563 7.563 0 0 0 1.5-.15m-9-10.35v3a7.5 7.5 0 0 0 4.5 6.876"/><path class="a" d="M12.75 12.75v-4.5A4.5 4.5 0 0 0 6 4.352M3.75 8.25v7.5a4.5 4.5 0 0 0 6 4.244"/><path class="a" d="M6.75 15.75a1.5 1.5 0 0 0 3 0v-7.5a1.5 1.5 0 0 0-3 0v3"/><rect class="a" x="14.25" y="15.75" width="9" height="7.5" rx="1.5" ry="1.5"/><path class="a" d="M18.75 11.25a3 3 0 0 0-3 3v1.5h6v-1.5a3 3 0 0 0-3-3zm0 7.904a.375.375 0 1 1-.375.375.375.375 0 0 1 .375-.375"/></svg>