<svg xmlns="http://www.w3.org/2000/svg" viewBox="0 0 24 24" width="24" height="24"><defs><style>.a{fill:none;stroke:#000;stroke-linecap:round;stroke-linejoin:round;stroke-width:1.5px}</style></defs><title>touch-id-denied-1</title><path class="a" d="M9.376 18l5.25 5.25m-5.25 0l5.25-5.25M6 23.25H2.251a1.5 1.5 0 0 1-1.5-1.5V2.25a1.5 1.5 0 0 1 1.5-1.5H6m12 22.5h3.75a1.5 1.5 0 0 0 1.5-1.5V2.25a1.5 1.5 0 0 0-1.5-1.5H18m-1.5 13.5v-6A4.477 4.477 0 0 0 15.9 6M7.501 8.25v6M13.472 4a4.507 4.507 0 0 0-5.2 1.738M10.5 9v-.75a1.5 1.5 0 0 1 3 0v6M10.501 12v2.25"/></svg>