<svg xmlns="http://www.w3.org/2000/svg" viewBox="0 0 24 24" width="24" height="24"><defs><style>.a{fill:none;stroke:#000;stroke-linecap:round;stroke-linejoin:round;stroke-width:1.5px}</style></defs><title>touch-id</title><path class="a" d="M3 14.25v9M16.478 2.144A8.311 8.311 0 0 0 11.888.75C7.37.75 3.613 4.453 3.072 9.2M21 23.25V10.375A10.187 10.187 0 0 0 20.023 6"/><path class="a" d="M18 15.75v-4.5c0-3.713-2.7-6.75-6-6.75s-6 3.037-6 6.75v12m12 0v-4.5m-9-1.5v6"/><path class="a" d="M15 23.25V12c0-2.063-1.35-3.75-3-3.75S9 9.937 9 12v2.25m3 6v3m0-12v6"/></svg>