<svg xmlns="http://www.w3.org/2000/svg" viewBox="0 0 24 24" width="24" height="24"><g fill="none" stroke="#000" stroke-linejoin="round" stroke-miterlimit="10"><path stroke-linecap="round" d="M22.5 15V7.234c0-.912-.739-1.734-1.65-1.734H7.173c-.911 0-1.673.822-1.673 1.734v12.614c0 .912.762 1.651 1.673 1.651H11"/><path d="M15.5 11.5a1 1 0 112 0v4.755l3.967 1.148c.654.189 1.047.856.894 1.521l-.085.368-.765 4.208h-6.12l-3.061-4.591c-1.215-1.856 1.789-2.48 3.17.611V11.5zm-10-3h17"/><path stroke-linecap="round" d="M3 6a3 3 0 013-3M.5 6A5.5 5.5 0 016 .5"/></g><path fill="none" d="M0 0h24v24H0z"/></svg>