<svg xmlns="http://www.w3.org/2000/svg" viewBox="0 0 24 24" width="24" height="24"><defs><style>.a{fill:none;stroke:#000;stroke-linecap:round;stroke-linejoin:round;stroke-width:1.5px}</style></defs><title>touch-id-denied</title><path class="a" d="M12 1.753A7.5 7.5 0 0 0 .75 8.25m15 0a7.478 7.478 0 0 0-.624-3m-6.876 18a7.563 7.563 0 0 0 1.5-.15m-9-10.35v3a7.5 7.5 0 0 0 4.5 6.876"/><path class="a" d="M12.75 9.75v-1.5A4.5 4.5 0 0 0 6 4.352M3.75 8.25v7.5a4.5 4.5 0 0 0 4.5 4.5"/><path class="a" d="M9.75 12V8.25a1.5 1.5 0 0 0-3 0v3m0 4.5a1.5 1.5 0 0 0 1.5 1.5"/><circle class="a" cx="17.25" cy="17.25" r="6"/><path class="a" d="M19.5 14.999l-4.5 4.5m0-4.5l4.5 4.5"/></svg>