<svg xmlns="http://www.w3.org/2000/svg" viewBox="0 0 24 24" width="24" height="24"><defs><style>.a{fill:none;stroke:#000;stroke-linecap:round;stroke-linejoin:round;stroke-width:1.5px}</style></defs><title>toy</title><path class="a" d="M9.375 3.75a.375.375 0 0 1 .375.375m-.75 0a.375.375 0 0 1 .375-.375m0 .75A.375.375 0 0 1 9 4.125m.75 0a.375.375 0 0 1-.375.375m-3-.75a.375.375 0 0 1 .375.375m-.75 0a.375.375 0 0 1 .375-.375m0 .75A.375.375 0 0 1 6 4.125m.75 0a.375.375 0 0 1-.375.375M5.25 23.25V19.5h13.5v3.75m0-3.75l3.75-3"/><path class="a" d="M18.75 23.25V19.5H5.25v3.75m0-3.75l-3.75-3"/><circle class="a" cx="7.875" cy="5.625" r="4.875"/><path class="a" d="M7.5 13.5h6m-4.5 3h6"/></svg>