<svg xmlns="http://www.w3.org/2000/svg" viewBox="0 0 24 24" width="24" height="24"><defs><style>.a{fill:none;stroke:#000;stroke-linecap:round;stroke-linejoin:round;stroke-width:1.5px}</style></defs><title>toys-dinosaur</title><path class="a" d="M17.25 12v-.75a1.474 1.474 0 0 1 1.444-1.5 4.5 4.5 0 0 0 4.532-4.972A4.643 4.643 0 0 0 18.541.75H12.75a6 6 0 0 0-6 6v4.5a6 6 0 0 1-6 6 6 6 0 0 0 6 6"/><path class="a" d="M11.408 17.566a3 3 0 0 0 1.342 5.684h6.75a.75.75 0 0 0 .75-.75 3 3 0 0 0-3-3v-3.75M7.592 3.683l-3.831 2.56A.75.75 0 0 0 3.647 7.4l3.1 3.1-3.477 1.16a.75.75 0 0 0-.348 1.18l2.1 2.624"/><path class="a" d="M15 12h3a3.751 3.751 0 0 1 3.632 2.813.75.75 0 0 1-.727.937H15M13.085 3.752a.376.376 0 0 1 .413.334m-.746.079a.375.375 0 0 1 .333-.413m.079.748a.375.375 0 0 1-.412-.333m.748-.081a.375.375 0 0 1-.334.412m9.826 2.252H18.75"/></svg>