<svg xmlns="http://www.w3.org/2000/svg" viewBox="0 0 24 24" width="24" height="24"><defs><style>.a{fill:none;stroke:#000;stroke-linecap:round;stroke-linejoin:round;stroke-width:1.5px}</style></defs><title>toys-rocking-horse-1</title><path class="a" d="M17.884 10.419c1.364 1.246 3.509 2.794 5.366 2.33m-2.012 4.5a9.02 9.02 0 0 0-2.7-3.895A1.5 1.5 0 0 1 18 12.205v-.956a3 3 0 0 0-3-3h-3.894a1.5 1.5 0 0 1-1.384-.924L7.558 2.133A1.5 1.5 0 0 0 5.6 1.325L2.135 2.768a2.25 2.25 0 0 0 1.731 4.154.75.75 0 0 1 .981.4c.479 1.151 1.442 3.463 2 4.791a1.5 1.5 0 0 1-.347 1.66 9.006 9.006 0 0 0-2.238 3.475l2.875 1.5a6.752 6.752 0 0 1 11.226 0z"/><path class="a" d="M6.043 1.215C8.074.263 9.919.855 10.5 2.249l3 6M5.25 3.874a.375.375 0 0 1 .375.375m-.75 0a.375.375 0 0 1 .375-.375m0 .75a.375.375 0 0 1-.375-.375m.75 0a.375.375 0 0 1-.375.375m10.5 3.719v2.906a1.5 1.5 0 0 1-1.5 1.5h-1.5a1.5 1.5 0 0 1-1.5-1.5v-3m-.75 11.999H15m-4.5 3H15"/></svg>