<svg xmlns="http://www.w3.org/2000/svg" viewBox="0 0 24 24" width="24" height="24"><defs><style>.a{fill:none;stroke:#000;stroke-linecap:round;stroke-linejoin:round;stroke-width:1.5px}</style></defs><title>toys-caterpillar</title><path class="a" d="M5.625 6.75A.375.375 0 0 1 6 7.125m-.75 0a.375.375 0 0 1 .375-.375m0 .75a.375.375 0 0 1-.375-.375m.75 0a.375.375 0 0 1-.375.375m3.75-.75a.375.375 0 0 1 .375.375m-.75 0a.375.375 0 0 1 .375-.375m0 .75A.375.375 0 0 1 9 7.125m.75 0a.375.375 0 0 1-.375.375m-2.737 5.93a5.252 5.252 0 1 1 4.574-1.468m-1.186-8.315L12 .75M4.974 3.647L3 .75m14.234 16.91a3 3 0 1 1-1.405 3.279m-3.806-10.022a4.5 4.5 0 1 1-7.26 1.814M13.5 14.25a3.75 3.75 0 1 1-3.689 4.427"/></svg>