<svg xmlns="http://www.w3.org/2000/svg" viewBox="0 0 24 24" width="24" height="24"><defs><style>.a{fill:none;stroke:#000;stroke-linecap:round;stroke-linejoin:round;stroke-width:1.5px}</style></defs><title>toys-furby</title><path class="a" d="M9 10.065a.375.375 0 0 1 .375.375m-.75 0A.375.375 0 0 1 9 10.065m0 .75a.375.375 0 0 1-.375-.375m.75 0a.375.375 0 0 1-.375.375m6-.75a.375.375 0 0 1 .375.375m-.75 0a.375.375 0 0 1 .375-.375m0 .75a.375.375 0 0 1-.375-.375m.75 0a.375.375 0 0 1-.375.375M9 15.69a3 3 0 1 1 6 0zm-6 7.5a3 3 0 0 1 6 0zm12 0a3 3 0 1 1 6 0zM5.811 8.168A5.213 5.213 0 0 1 2.437 5.94 7.045 7.045 0 0 1 1.6 1.127a.375.375 0 0 1 .5-.3c2.905 1.033 5.041 2.5 5.665 4.83m10.424 2.511a5.208 5.208 0 0 0 3.373-2.228 7.04 7.04 0 0 0 .838-4.813.375.375 0 0 0-.5-.3c-2.9 1.033-5.041 2.5-5.665 4.83"/><path class="a" d="M5.655 20.2a8.231 8.231 0 0 1-1.905-5.26c0-4.56 3.69-11.25 8.25-11.25s8.25 6.69 8.25 11.25a8.231 8.231 0 0 1-1.905 5.26m-3.285 2.39v.015a8.3 8.3 0 0 1-6.12 0v-.015"/></svg>