<svg xmlns="http://www.w3.org/2000/svg" viewBox="0 0 24 24" width="24" height="24"><defs><style>.a{fill:none;stroke:#000;stroke-linecap:round;stroke-linejoin:round;stroke-width:1.5px}</style></defs><title>toys-rocking-horse</title><path class="a" d="M23.024 18.635a15.75 15.75 0 0 1-22.274 0m17.134-8.216c1.364 1.246 3.509 2.794 5.366 2.33M6.011 22.116a6.751 6.751 0 0 1 13.389-.771"/><path class="a" d="M3.781 21.007A8.979 8.979 0 0 1 6.5 13.773a1.5 1.5 0 0 0 .343-1.657l-2-4.791a.75.75 0 0 0-.981-.4 2.25 2.25 0 0 1-1.727-4.157L5.6 1.325a1.5 1.5 0 0 1 1.961.808l2.161 5.192a1.5 1.5 0 0 0 1.384.924H15a3 3 0 0 1 3 3v.956a1.5 1.5 0 0 0 .536 1.149 8.981 8.981 0 0 1 3.2 6.435"/><path class="a" d="M6.043 1.215C8.074.263 9.919.855 10.5 2.249l3 6M5.25 3.874a.374.374 0 0 1 .375.375m-.75 0a.374.374 0 0 1 .375-.375m0 .75a.375.375 0 0 1-.375-.375m.75 0a.375.375 0 0 1-.375.375m10.5 3.719v2.906a1.5 1.5 0 0 1-1.5 1.5h-1.5a1.5 1.5 0 0 1-1.5-1.5v-3"/></svg>