<svg xmlns="http://www.w3.org/2000/svg" viewBox="0 0 24 24" width="24" height="24"><defs><style>.a{fill:none;stroke:#000;stroke-linecap:round;stroke-linejoin:round;stroke-width:1.5px}</style></defs><title>toys-hand-ghost</title><path class="a" d="M11.1 6a.375.375 0 0 1 .375.375m-.755 0A.375.375 0 0 1 11.1 6m0 .75a.375.375 0 0 1-.375-.375m.745 0a.375.375 0 0 1-.375.375m5.25-.75a.375.375 0 0 1 .375.375m-.75 0A.375.375 0 0 1 16.345 6m0 .75a.375.375 0 0 1-.375-.375m.75 0a.375.375 0 0 1-.375.375M6.47 23.25L3.039 18.1a1.537 1.537 0 0 1 0-1.707 1.539 1.539 0 0 1 2.241-.348L7.72 18v-3.75m12 0v6.879a5.124 5.124 0 0 1-.46 2.121"/><path class="a" d="M21.22 13.5a.75.75 0 0 1-.75.75H6.97a.75.75 0 0 1-.75-.75V8.25a7.5 7.5 0 1 1 15 0zm-8.25-3h1.5"/></svg>