<svg xmlns="http://www.w3.org/2000/svg" viewBox="0 0 24 24" width="24" height="24"><defs><style>.a{fill:none;stroke:#000;stroke-linecap:round;stroke-linejoin:round;stroke-width:1.5px}</style></defs><title>toys-clown</title><path class="a" d="M17.25 22.5a.75.75 0 0 1-.75.75h-9a.75.75 0 0 1-.75-.75v-6h10.5z"/><circle class="a" cx="12" cy="6" r="5.25"/><circle class="a" cx="12" cy="7.5" r="1.5"/><path class="a" d="M16.535 8.646A2.25 2.25 0 0 0 21 8.25v-.127a2.25 2.25 0 0 0 0-4.246V3.75a2.25 2.25 0 0 0-4.465-.4m-9.07 5.296A2.25 2.25 0 0 1 3 8.25v-.127a2.25 2.25 0 0 1 0-4.246V3.75a2.25 2.25 0 0 1 4.465-.4m2.285 7.394V16.5m4.5-5.756V16.5m3 0l6 4.5m-16.5-4.5l-6 4.5"/></svg>