<svg xmlns="http://www.w3.org/2000/svg" viewBox="0 0 24 24" width="24" height="24"><defs><style>.a{fill:none;stroke:#000;stroke-linecap:round;stroke-linejoin:round;stroke-width:1.5px}</style></defs><title>toys-duck</title><circle class="a" cx="7.5" cy="6.75" r="4.5"/><path class="a" d="M3 6.75H.75m22.5-6L15 11.25"/><circle class="a" cx="16.125" cy="19.875" r="3.375"/><path class="a" d="M7.125 5.25a.375.375 0 0 1 .375.375m-.75 0a.375.375 0 0 1 .375-.375m0 .75a.375.375 0 0 1-.375-.375m.75 0A.375.375 0 0 1 7.125 6m5.625 5.25h10.5a8.246 8.246 0 0 1-4.1 7.131m-6.334.827a8.255 8.255 0 0 1-6.066-8.02"/></svg>