<svg xmlns="http://www.w3.org/2000/svg" viewBox="0 0 24 24" width="24" height="24"><defs><style>.a{fill:none;stroke:#000;stroke-linecap:round;stroke-linejoin:round;stroke-width:1.5px}</style></defs><title>toys-propeller-hat</title><path class="a" d="M2.366 22.5a1.5 1.5 0 0 1-1.484-1.729 11.252 11.252 0 0 1 22.236 0 1.5 1.5 0 0 1-1.484 1.729zM12 11.25V1.5m11.25 2.25c0 1.243-1.343 2.25-3 2.25S12 3.75 12 3.75s6.593-2.25 8.25-2.25 3 1.007 3 2.25zm-22.5 0C.75 4.993 2.093 6 3.75 6S12 3.75 12 3.75 5.407 1.5 3.75 1.5s-3 1.007-3 2.25zM22.845 19.5H1.155"/></svg>