<svg xmlns="http://www.w3.org/2000/svg" viewBox="0 0 24 24" width="24" height="24"><defs><style>.a{fill:none;stroke:#000;stroke-linecap:round;stroke-linejoin:round;stroke-width:1.5px}</style></defs><title>toys-car</title><circle class="a" cx="5.25" cy="21.75" r="1.5"/><circle class="a" cx="14.25" cy="21.75" r="1.5"/><path class="a" d="M6.75 21.75h6m-9 0h-1.5a1.5 1.5 0 0 1-1.5-1.5v-.75a3 3 0 0 1 3-3h12.4a3 3 0 0 1 2.97 2.576l.137.962a1.5 1.5 0 0 1-1.487 1.712h-2.02m-4.5-5.25v-6"/><path class="a" d="M5.25 16.5a6 6 0 0 1 12 0v.21m-3-8.46v-3a1.5 1.5 0 0 1 1.5-1.5h6a1.5 1.5 0 0 1 1.5 1.5v12a1.5 1.5 0 0 1-1.5 1.5m-3-18v3"/><circle class="a" cx="18.75" cy="8.25" r="1.5"/></svg>