<svg xmlns="http://www.w3.org/2000/svg" viewBox="0 0 24 24" width="24" height="24"><defs><style>.a{fill:none;stroke:#000;stroke-linecap:round;stroke-linejoin:round;stroke-width:1.5px}</style></defs><title>toys-finger</title><path class="a" d="M13.238 13.5v2.25l4.174.928a3 3 0 0 1 2.337 3.2l-.306 3.372m-10.892 0l-2.162-2.883A1.53 1.53 0 0 1 6.34 18.6a1.532 1.532 0 0 1 2.194-.376l1.7 1.278v-6m4.504-.752a.75.75 0 0 1-.75.75h-4.5a.75.75 0 0 1-.75-.75V9a3 3 0 0 1 6 0z"/><path class="a" d="M13.374 6.485c.459-1.539 1.335-4.288 1.911-4.955a2.25 2.25 0 0 1 3.406 2.94c-.578.67-3.185 1.944-4.638 2.622M10.1 6.485C9.643 4.946 8.768 2.2 8.191 1.53a2.25 2.25 0 1 0-3.406 2.94c.578.67 3.186 1.944 4.639 2.622"/></svg>