<svg xmlns="http://www.w3.org/2000/svg" viewBox="0 0 24 24" width="24" height="24"><defs><style>.a{fill:none;stroke:#000;stroke-linecap:round;stroke-linejoin:round;stroke-width:1.5px}</style></defs><title>toys-car-push</title><path class="a" d="M4.5 8.25l1.158-3.474A1.5 1.5 0 0 1 7.081 3.75h5.669v4.5h9v6H19.5a2.25 2.25 0 0 0-4.5 0H7.5a2.25 2.25 0 0 0-4.5 0H.75v-4.5a1.5 1.5 0 0 1 1.5-1.5z"/><circle class="a" cx="3.75" cy="20.25" r="3"/><circle class="a" cx="18.75" cy="20.25" r="3"/><path class="a" d="M17.314 8.25A7.852 7.852 0 0 1 20.4 2.894"/><circle class="a" cx="21.75" cy="2.25" r="1.5"/><path class="a" d="M9.75 3.75v3a1.5 1.5 0 0 1-1.5 1.5H4.5m1.079 9.622l1.92-3.682m9.486 3.634l-1.983-3.678M6.75 20.25h9m3-.375a.375.375 0 1 1-.375.375.375.375 0 0 1 .375-.375m-15 0a.375.375 0 1 1-.375.375.375.375 0 0 1 .375-.375"/></svg>