<svg xmlns="http://www.w3.org/2000/svg" viewBox="0 0 24 24" width="24" height="24"><defs><style>.a{fill:none;stroke:#000;stroke-linecap:round;stroke-linejoin:round;stroke-width:1.5px}</style></defs><title>toys-lego</title><path class="a" d="M8.25 23.25H1.5a.75.75 0 0 1-.75-.75v-5.25m7.5 0H.75v-6m12 0h-12V6a.75.75 0 0 1 .75-.75H12a.75.75 0 0 1 .75.75v5.25m-11.25-6V3a.75.75 0 0 1 .75-.75H4.5a.75.75 0 0 1 .75.75v2.25m3 0V3A.75.75 0 0 1 9 2.25h2.25A.75.75 0 0 1 12 3v2.25m0 12V15a.75.75 0 0 1 .75-.75H15a.75.75 0 0 1 .75.75v2.25m3 0V15a.75.75 0 0 1 .75-.75h2.25a.75.75 0 0 1 .75.75v2.25"/><rect class="a" x="11.25" y="17.25" width="12" height="6" rx=".75" ry=".75"/></svg>