<svg xmlns="http://www.w3.org/2000/svg" viewBox="0 0 24 24" width="24" height="24"><defs><style>.a{fill:none;stroke:#000;stroke-linecap:round;stroke-linejoin:round;stroke-width:1.5px}</style></defs><title>toys-train</title><circle class="a" cx="16.499" cy="19.5" r="3"/><circle class="a" cx="5.999" cy="19.5" r="3"/><path class="a" d="M8.999 19.5h4.5m6.001 0h.75a1.5 1.5 0 0 0 1.5-1.5V4.5H11.252V12h-9a1.5 1.5 0 0 0-1.5 1.5V18a1.5 1.5 0 0 0 1.5 1.5H3M23.251 3a1.5 1.5 0 0 1-1.5 1.5h-10.5a1.5 1.5 0 0 1 0-3h10.5a1.5 1.5 0 0 1 1.5 1.5z"/><path class="a" d="M3.752 7.5h3V12h-3zm-1.5 0h6"/><circle class="a" cx="16.499" cy="9.75" r="2.25"/><path class="a" d="M11.249 12v7.5"/></svg>