<svg xmlns="http://www.w3.org/2000/svg" viewBox="0 0 24 24" width="24" height="24"><defs><style>.a{fill:none;stroke:#000;stroke-linecap:round;stroke-linejoin:round;stroke-width:1.5px}</style></defs><title>toys-teddy-bear</title><path class="a" d="M19.5 3a2.248 2.248 0 0 0-4.44-.5 5.182 5.182 0 0 0-6.12 0 2.248 2.248 0 1 0-2.19 2.75A2.337 2.337 0 0 0 7 5.225a5.166 5.166 0 0 0-.25 1.525 5.25 5.25 0 0 0 10.5 0A5.166 5.166 0 0 0 17 5.225a2.337 2.337 0 0 0 .252.025A2.25 2.25 0 0 0 19.5 3zM9.75 5.625a.375.375 0 0 1 .375.375m-.75 0a.375.375 0 0 1 .375-.375m0 .75A.375.375 0 0 1 9.375 6m.75 0a.375.375 0 0 1-.375.375m4.5-.75a.375.375 0 0 1 .375.375m-.75 0a.375.375 0 0 1 .375-.375m0 .75A.375.375 0 0 1 13.875 6m.75 0a.375.375 0 0 1-.375.375M7.277 17.3A5.239 5.239 0 0 1 6.75 15a6.427 6.427 0 0 1 .059-.845m7.491 5.568a5.265 5.265 0 0 1-4.592 0m7.482-5.576a6.564 6.564 0 0 1 .06.853 5.239 5.239 0 0 1-.527 2.3"/><circle class="a" cx="6.75" cy="20.25" r="3"/><circle class="a" cx="17.25" cy="20.25" r="3"/><path class="a" d="M6.809 14.155l-4.335-1.931a2.25 2.25 0 0 1 1.831-4.111m12.886 6.042l4.335-1.931A2.25 2.25 0 1 0 19.7 8.113"/></svg>