<svg xmlns="http://www.w3.org/2000/svg" viewBox="0 0 24 24" width="24" height="24"><g fill="none" stroke="#000" stroke-linecap="round" stroke-linejoin="round" stroke-miterlimit="10"><path d="M15.5 16.5a1 1 0 01-1 1h-5a1 1 0 01-1-1v-14a2 2 0 012-2h3a2 2 0 012 2v14z"/><circle cx="12" cy="9" r="1.5"/><circle cx="12" cy="14" r="1.5"/><circle cx="12" cy="4" r="1.5"/><path d="M11.5 17.5v6m4-21H19L15.5 6m0 1.5H19L15.5 11m0 1.5H19L15.5 16m-7-13.5H5L8.5 6m0 1.5H5L8.5 11m0 1.5H5L8.5 16"/></g><path fill="none" d="M0 0h24v24H0z"/></svg>