<svg xmlns="http://www.w3.org/2000/svg" viewBox="0 0 24 24" width="24" height="24"><g fill="none" stroke="#000" stroke-linejoin="round" stroke-miterlimit="10"><path d="M12 .518c14 0 8 19 0 19s-14-19 0-19z"/><path d="M7.5 9.5h9l2-4h-13zm4.5 3.518c-3.106 0-5.106 3.017-3.344 5.377 1.034.703 2.166 1.123 3.344 1.123s2.311-.42 3.344-1.123c1.762-2.365-.243-5.377-3.344-5.377z"/><path stroke-linecap="round" d="M.5 23.5l4.133-10.386m14.712.054L23.5 23.5"/><path d="M1.296 21.5h21.4m-6.255-4h4.646m-18.199 0h4.671"/></g><path fill="none" d="M0 0h24v24H0z"/></svg>