<svg xmlns="http://www.w3.org/2000/svg" viewBox="0 0 24 24" width="24" height="24"><g fill="none" stroke="#000" stroke-linejoin="round" stroke-miterlimit="10"><path stroke-linecap="round" d="M.614 19L2.5 17.5h2.28"/><circle stroke-linecap="round" cx="6.5" cy="18.5" r="2"/><circle stroke-linecap="round" cx="12.5" cy="18.5" r="2"/><circle stroke-linecap="round" cx="18.5" cy="18.5" r="2"/><path stroke-linecap="round" d="M11.5 4.5h12m-11 0v6H3c-1.5 0-1.5 7 0 7m18.5-13v7h2v6m-20-11h4m7 0h5v3h-5z"/><path d="M8.217 17.5h2.547m3.469 0h2.547m3.437 0H23.5"/><path stroke-linecap="round" d="M4.5 6.5v4m2-4v4"/></g><path fill="none" d="M0 0h24v24H0z"/></svg>