<svg xmlns="http://www.w3.org/2000/svg" viewBox="0 0 24 24" width="24" height="24"><g fill="none" stroke="#000" stroke-linecap="round" stroke-linejoin="round" stroke-miterlimit="10"><path d="M1 23.5h23m-14.5-4h5v2h-5z"/><circle cx="5.5" cy="21.5" r="2"/><circle cx="18.5" cy="21.5" r="2"/><path d="M5.5 21.5h13m-18-2h23m-23-10h23m-22 0v10m5-10v10m16-10v10m-5-10v10m-15-12h19m-17 0v2m15-2v2m-9.5-4h4v2h-4zm3-4.906L16 3.5l-2 2M11 .594L8 3.5l2 2M.5.5h23m-22 17h5m11 0h5m-14-6h7v4h-7z"/></g><path fill="none" d="M0 0h24v24H0z"/></svg>