<svg xmlns="http://www.w3.org/2000/svg" viewBox="0 0 24 24" width="24" height="24"><defs><style>.a{fill:none;stroke:#000;stroke-linecap:round;stroke-linejoin:round;stroke-width:1.5px}</style></defs><title>transfer-pictures-laptop</title><path class="a" d="M9.75 8.25h-6a1.5 1.5 0 0 0-1.5 1.5v6a1.5 1.5 0 0 0 1.5 1.5m12 0a1.5 1.5 0 0 0 1.5-1.5v-3m1.318 8.473a1.5 1.5 0 0 1-1.405 2.027H2.251a1.5 1.5 0 0 1-1.4-2.027l1.125-3a1.5 1.5 0 0 1 1.4-.973H16.21a1.5 1.5 0 0 1 1.4.973zM8.25 20.25h3m10.5-18L21 .75h-3l-.75 1.5h-3a1.5 1.5 0 0 0-1.5 1.5v4.5a1.5 1.5 0 0 0 1.5 1.5h7.5a1.5 1.5 0 0 0 1.5-1.5v-4.5a1.5 1.5 0 0 0-1.5-1.5z"/><path class="a" d="M19.125 5.25a.375.375 0 1 0 .375.375.375.375 0 0 0-.375-.375"/></svg>