<svg xmlns="http://www.w3.org/2000/svg" viewBox="0 0 24 24" width="24" height="24"><defs><style>.a{fill:none;stroke:#000;stroke-linecap:round;stroke-linejoin:round;stroke-width:1.5px}</style></defs><title>transportation-ticket-boat-plane-transfer</title><path class="a" d="M22.5 6.889l-2.25 2.25L18 6.889"/><path class="a" d="M17.25 3.139a3 3 0 0 1 3 3v3M1.5 17.389l2.25-2.25L6 17.389"/><path class="a" d="M6.75 21.139a3 3 0 0 1-3-3v-3m5.979 4.707l1.364 1.225m9.915-3.91l-2.288.9-4.093-3.674-2.288.9 3.33 3.974-4.576 1.805 1.974 1.772a1.642 1.642 0 0 0 1.7.306l7.447-2.937a1.64 1.64 0 0 0-1.2-3.051zM3.077 9.268L.75 5.389h13.5l-2.327 3.879m-.673-3.879h-7.5l.75-3h6l.75 3zm-2.25-3v-1.5"/><path class="a" d="M14.25 9.889a4.349 4.349 0 0 1-3.375-1.5 4.349 4.349 0 0 1-3.375 1.5 4.349 4.349 0 0 1-3.375-1.5 4.349 4.349 0 0 1-3.375 1.5"/></svg>