<svg xmlns="http://www.w3.org/2000/svg" viewBox="0 0 24 24" width="24" height="24"><defs><style>.a{fill:none;stroke:#000;stroke-linecap:round;stroke-linejoin:round;stroke-width:1.5px}</style></defs><title>translate</title><path class="a" d="M12.75 8.25V.75m-6 7.5V.75m3 7.5V.75m-3 4.5h3M6 23.25v-7.5m3 7.5v-7.5m-3 4.5h3m3.75-4.5a1.5 1.5 0 0 0-1.5 1.5v4.5a1.5 1.5 0 0 0 3 0v-4.5a1.5 1.5 0 0 0-1.5-1.5zm3.75 0v6a1.5 1.5 0 0 0 1.5 1.5m2.25 0v-6a1.5 1.5 0 0 1 3 0v6m-3-3h3M15.734 4.641A8.251 8.251 0 0 1 20.25 12M4.334 15A8.206 8.206 0 0 1 3 10.5"/><path class="a" d="M16.5 10.5l3.75 1.5 2.25-3.75M6.75 12.001L3 10.501l-2.25 3.75"/></svg>