<svg id="Regular" xmlns="http://www.w3.org/2000/svg" viewBox="0 0 24 24" width="24" height="24"><defs><style>.cls-1{fill:none;stroke:#000;stroke-linecap:round;stroke-linejoin:round;stroke-width:1.5px}</style></defs><title>transfusion-bag</title><path class="cls-1" d="M15.75 9.75h4.5m-4.5-3h4.5M5.25 21a2.25 2.25 0 0 1-4.5 0C.75 19.757 3 17.25 3 17.25S5.25 19.757 5.25 21zM3 12.75A5.25 5.25 0 0 1 8.25 18a5.25 5.25 0 0 0 5.25 5.25 4.5 4.5 0 0 0 4.5-4.5v-3"/><path class="cls-1" d="M20.25.75h-4.5a3 3 0 0 0-3 3v7.5a3 3 0 0 0 3 3v1.5h4.5v-1.5a3 3 0 0 0 3-3v-7.5a3 3 0 0 0-3-3z"/></svg>