<svg xmlns="http://www.w3.org/2000/svg" viewBox="0 0 24 24" width="24" height="24"><defs><style>.a{fill:none;stroke:#000;stroke-linecap:round;stroke-linejoin:round;stroke-width:1.5px}</style></defs><title>transportation-ticket-bus-transfer-1</title><path class="a" d="M21.75 6.763l-2.25 2.25-2.25-2.25"/><path class="a" d="M14.25 3.013h2.25a3 3 0 0 1 3 3v3m-17.25 8.25l2.25-2.25 2.25 2.25"/><path class="a" d="M9.75 21.013H7.5a3 3 0 0 1-3-3v-3"/><rect class="a" x="13.5" y="12.013" width="9.75" height="9.75" rx="1" ry="1"/><path class="a" d="M15 21.763v1.5m6.75-1.5v1.5m-8.25-6.75h9.75m-7.125 2.25a.375.375 0 0 1 .375.375m-.75 0a.375.375 0 0 1 .375-.375m0 .75a.375.375 0 0 1-.375-.375m.75 0a.375.375 0 0 1-.375.375m4.5-.75a.375.375 0 0 1 .375.375m-.75 0a.375.375 0 0 1 .375-.375m0 .75a.375.375 0 0 1-.375-.375m.75 0a.375.375 0 0 1-.375.375"/><rect class="a" x=".75" y=".763" width="9.75" height="9.75" rx="1" ry="1"/><path class="a" d="M2.25 10.513v1.5m6.75-1.5v1.5M.75 5.263h9.75m-7.125 2.25a.375.375 0 0 1 .375.375m-.75 0a.375.375 0 0 1 .375-.375m0 .75A.375.375 0 0 1 3 7.888m.75 0a.375.375 0 0 1-.375.375m4.5-.75a.375.375 0 0 1 .375.375m-.75 0a.375.375 0 0 1 .375-.375m0 .75a.375.375 0 0 1-.375-.375m.75 0a.375.375 0 0 1-.375.375"/></svg>