<svg xmlns="http://www.w3.org/2000/svg" viewBox="0 0 24 24" width="24" height="24"><defs><style>.a{fill:none;stroke:#000;stroke-linecap:round;stroke-linejoin:round;stroke-width:1.5px}</style></defs><title>transportation-ticket-boat</title><path class="a" d="M20.25 12.263a3 3 0 0 1 3-3v-3.75a1.5 1.5 0 0 0-1.5-1.5H2.25a1.5 1.5 0 0 0-1.5 1.5v3.75a3 3 0 0 1 0 6v3.75a1.5 1.5 0 0 0 1.5 1.5h19.5a1.5 1.5 0 0 0 1.5-1.5v-3.75a3 3 0 0 1-3-3z"/><path class="a" d="M6.169 16.763a4.375 4.375 0 0 0 2.456.75 4.638 4.638 0 0 0 3.375-1.5 4.638 4.638 0 0 0 3.375 1.5 4.375 4.375 0 0 0 2.456-.75m-9.581-1.5l-1.5-2.25h10.5l-1.5 2.25m-4.5-2.25v-6l4.5 3-3.75 3"/></svg>