<svg xmlns="http://www.w3.org/2000/svg" viewBox="0 0 24 24" width="24" height="24"><defs><style>.a{fill:none;stroke:#000;stroke-linecap:round;stroke-linejoin:round;stroke-width:1.5px}</style></defs><title>transportation-ticket-car-transfer-bus</title><path class="a" d="M21.75 6.013l-2.25 2.25-2.25-2.25"/><path class="a" d="M16.5 2.263a3 3 0 0 1 3 3v3m-18 9.75l2.25-2.25L6 18.013"/><path class="a" d="M6.75 21.763a3 3 0 0 1-3-3v-3m19.5 4.5v-1.629a1.5 1.5 0 0 0-.439-1.06l-1.061-1.811h-10.5l-1.061 1.811a1.5 1.5 0 0 0-.439 1.06v1.629a1.5 1.5 0 0 0 1.5 1.5h10.5a1.5 1.5 0 0 0 1.5-1.5zm-4.081-9a1.528 1.528 0 0 1 1.423.769l1.158 3.731h-10.5l1.158-3.731a1.528 1.528 0 0 1 1.423-.769zm-6.419 7.5h1.5m4.5 0h1.5m-9 3v1.5m10.5-1.5v1.5"/><rect class="a" x=".75" y=".763" width="9.75" height="9.75" rx="1" ry="1"/><path class="a" d="M2.25 10.513v1.5m6.75-1.5v1.5M.75 5.263h9.75m-7.125 2.25a.375.375 0 0 1 .375.375m-.75 0a.375.375 0 0 1 .375-.375m0 .75A.375.375 0 0 1 3 7.888m.75 0a.375.375 0 0 1-.375.375m4.5-.75a.375.375 0 0 1 .375.375m-.75 0a.375.375 0 0 1 .375-.375m0 .75a.375.375 0 0 1-.375-.375m.75 0a.375.375 0 0 1-.375.375"/></svg>