<svg xmlns="http://www.w3.org/2000/svg" viewBox="0 0 24 24" width="24" height="24"><defs><style>.a{fill:none;stroke:#000;stroke-linecap:round;stroke-linejoin:round;stroke-width:1.5px}</style></defs><title>transportation-ticket-plane</title><path class="a" d="M20.25 12.263a3 3 0 0 1 3-3v-3.75a1.5 1.5 0 0 0-1.5-1.5H2.25a1.5 1.5 0 0 0-1.5 1.5v3.75a3 3 0 0 1 0 6v3.75a1.5 1.5 0 0 0 1.5 1.5h19.5a1.5 1.5 0 0 0 1.5-1.5v-3.75a3 3 0 0 1-3-3zm-2.25.75l-1.248 1.12"/><path class="a" d="M8.8 11.049l1.724.825 3.744-3.361 2.093.825-3.046 3.636 3.436 1.159-1.806 1.622a1.5 1.5 0 0 1-1.552.279L7.7 13.839a1.5 1.5 0 1 1 1.1-2.79z"/></svg>