<svg xmlns="http://www.w3.org/2000/svg" viewBox="0 0 24 24" width="24" height="24"><defs><style>.a{fill:none;stroke:#000;stroke-linecap:round;stroke-linejoin:round;stroke-width:1.5px}</style></defs><title>transportation-ticket-plane-transfer-train</title><rect class="a" x="1.5" y=".952" width="9" height="9" rx="1" ry="1"/><path class="a" d="M1.5 6.952h9m-7.5 3l-2.25 2.25M9 9.952l2.25 2.25m10.5-5.25l-2.25 2.25-2.25-2.25"/><path class="a" d="M16.5 3.2a3 3 0 0 1 3 3v3M2.25 17.452l2.25-2.25 2.25 2.25"/><path class="a" d="M7.5 21.2a3 3 0 0 1-3-3v-3m5.229 4.396l1.364 1.225m9.915-3.91l-2.288.9-4.093-3.674-2.288.9 3.33 3.975-4.576 1.805 1.974 1.772a1.642 1.642 0 0 0 1.7.306l7.447-2.937a1.64 1.64 0 0 0-1.2-3.051z"/></svg>