<svg xmlns="http://www.w3.org/2000/svg" viewBox="0 0 24 24" width="24" height="24"><defs><style>.a{fill:none;stroke:#000;stroke-linecap:round;stroke-linejoin:round;stroke-width:1.5px}</style></defs><title>transportation-ticket-boat-bus-transfer</title><path class="a" d="M23.25 6.763L21 9.013l-2.25-2.25"/><path class="a" d="M15.75 3.013H18a3 3 0 0 1 3 3v3M.75 17.263L3 15.013l2.25 2.25"/><path class="a" d="M8.25 21.013H6a3 3 0 0 1-3-3v-3"/><rect class="a" x="13.5" y="12.013" width="9.75" height="9.75" rx="1" ry="1"/><path class="a" d="M15 21.763v1.5m6.75-1.5v1.5m-8.25-6.75h9.75m-7.125 2.25a.375.375 0 0 1 .375.375m-.75 0a.375.375 0 0 1 .375-.375m0 .75a.375.375 0 0 1-.375-.375m.75 0a.375.375 0 0 1-.375.375m4.5-.75a.375.375 0 0 1 .375.375m-.75 0a.375.375 0 0 1 .375-.375m0 .75a.375.375 0 0 1-.375-.375m.75 0a.375.375 0 0 1-.375.375M3.077 9.141L.75 5.263h13.5l-2.327 3.878m-.673-3.878h-7.5l.75-3h6l.75 3zm-2.25-3v-1.5"/><path class="a" d="M14.25 9.763a4.349 4.349 0 0 1-3.375-1.5 4.349 4.349 0 0 1-3.375 1.5 4.349 4.349 0 0 1-3.375-1.5 4.349 4.349 0 0 1-3.375 1.5"/></svg>