<svg xmlns="http://www.w3.org/2000/svg" viewBox="0 0 24 24" width="24" height="24"><defs><style>.a{fill:none;stroke:#000;stroke-linecap:round;stroke-linejoin:round;stroke-width:1.5px}</style></defs><title>transform-right</title><path class="a" d="M14.25 22.828V18.75m-13.5-4.5v1.5m13.5-1.5v1.5m0-6v1.5m-13.5 7.5v3.672m0-11.172a1.5 1.5 0 0 1 1.5-1.5m4.5 0h-1.5M23.1 11a.788.788 0 0 0-.639-1.249h-11.18a3 3 0 0 0-2.432 1.244L.9 22a.788.788 0 0 0 .639 1.249h11.177a3 3 0 0 0 2.432-1.244zm-6.161-7.25H5.25m9 3l2.47-2.47a.749.749 0 0 0 0-1.06L14.25.75"/></svg>