<svg xmlns="http://www.w3.org/2000/svg" viewBox="0 0 24 24" width="24" height="24"><defs><style>.a{fill:none;stroke:#000;stroke-linecap:round;stroke-linejoin:round;stroke-width:1.5px}</style></defs><title>transportation-ticket-bus</title><path class="a" d="M20.25 11.763a3 3 0 0 1 3-3v-3.75a1.5 1.5 0 0 0-1.5-1.5H2.25a1.5 1.5 0 0 0-1.5 1.5v3.75a3 3 0 0 1 0 6v3.75a1.5 1.5 0 0 0 1.5 1.5h19.5a1.5 1.5 0 0 0 1.5-1.5v-3.75a3 3 0 0 1-3-3z"/><rect class="a" x="7.5" y="6.513" width="9.75" height="9.75" rx="1" ry="1"/><path class="a" d="M9 16.263v1.5m6.75-1.5v1.5m-8.25-6.75h9.75m-7.125 2.25a.375.375 0 0 1 .375.375m-.75 0a.375.375 0 0 1 .375-.375m0 .75a.375.375 0 0 1-.375-.375m.75 0a.375.375 0 0 1-.375.375m4.5-.75a.375.375 0 0 1 .375.375m-.75 0a.375.375 0 0 1 .375-.375m0 .75a.375.375 0 0 1-.375-.375m.75 0a.375.375 0 0 1-.375.375"/></svg>