<svg xmlns="http://www.w3.org/2000/svg" viewBox="0 0 24 24" width="24" height="24"><defs><style>.a{fill:none;stroke:#000;stroke-linecap:round;stroke-linejoin:round;stroke-width:1.5px}</style></defs><title>transportation-ticket-plane-transfer</title><path class="a" d="M22.49 7.518l-2.248 2.247-2.248-2.247"/><path class="a" d="M17.245 3.771a3 3 0 0 1 3 3v3M1.51 16.508l2.248-2.247 2.248 2.247"/><path class="a" d="M6.755 20.255a3 3 0 0 1-3-3v-3M.761 6.975l1.363 1.223m9.906-3.905l-2.286.9-4.089-3.669-2.286.9L6.7 6.4 2.124 8.2 4.1 9.969a1.636 1.636 0 0 0 1.7.3l7.441-2.933a1.638 1.638 0 0 0-1.2-3.048zM9.752 19.089l1.363 1.223m9.906-3.905l-2.286.9-4.089-3.67-2.286.9 3.327 3.971-4.572 1.8 1.973 1.771a1.636 1.636 0 0 0 1.7.305l7.44-2.933a1.638 1.638 0 0 0-1.2-3.048z"/></svg>