<svg xmlns="http://www.w3.org/2000/svg" viewBox="0 0 24 24" width="24" height="24"><defs><style>.a{fill:none;stroke:#000;stroke-linecap:round;stroke-linejoin:round;stroke-width:1.5px}</style></defs><title>translate</title><path class="a" d="M19.652.748l-3.75 2.25 2.25 3.75m5.098 1.439a6.749 6.749 0 0 0-6.884-4.417M4.348 23.248l3.75-2.25-2.25-3.75M.75 15.808a6.749 6.749 0 0 0 6.884 4.417"/><rect class="a" x=".75" y=".748" width="12" height="12" rx="1.5" ry="1.5"/><path class="a" d="M15.75 11.248h6a1.5 1.5 0 0 1 1.5 1.5v9a1.5 1.5 0 0 1-1.5 1.5h-9a1.5 1.5 0 0 1-1.5-1.5v-6"/><path class="a" d="M15.75 20.248v-4.5a1.5 1.5 0 0 1 3 0v4.5m-3-1.5h3m-12-15v1.5m-3 0h6m-1.5 0s-1.5 4.5-4.5 4.5m2.999-1.734a3.933 3.933 0 0 0 3 1.734"/></svg>