<svg xmlns="http://www.w3.org/2000/svg" viewBox="0 0 24 24" width="24" height="24"><defs><style>.a{fill:none;stroke:#000;stroke-linecap:round;stroke-linejoin:round;stroke-width:1.5px}</style></defs><title>transportation-ticket-car-transfer-1</title><path class="a" d="M23.25 6.013L21 8.263l-2.25-2.25"/><path class="a" d="M18 2.263a3 3 0 0 1 3 3v3M.75 18.013L3 15.763l2.25 2.25"/><path class="a" d="M6 21.763a3 3 0 0 1-3-3v-3m20.25 4.5v-1.629a1.5 1.5 0 0 0-.439-1.06l-1.061-1.811h-10.5l-1.061 1.811a1.5 1.5 0 0 0-.439 1.06v1.629a1.5 1.5 0 0 0 1.5 1.5h10.5a1.5 1.5 0 0 0 1.5-1.5zm-6.75-9h2.669a1.528 1.528 0 0 1 1.423.769l1.158 3.731h-10.5l.233-.75m1.267 3.75h1.5m4.5 0h1.5m-9 3v1.5m10.5-1.5v1.5m-7.5-13.5V8.134a1.5 1.5 0 0 0-.439-1.06L12.75 5.263H2.25L1.189 7.074a1.5 1.5 0 0 0-.439 1.06v1.629a1.5 1.5 0 0 0 1.5 1.5h10.5a1.5 1.5 0 0 0 1.5-1.5zm-4.081-9a1.528 1.528 0 0 1 1.423.769l1.158 3.731H2.25l1.158-3.731A1.528 1.528 0 0 1 4.831.763zm-6.419 7.5h1.5m4.5 0h1.5m-9 3v1.5m10.5-1.5v1.5"/></svg>