<svg xmlns="http://www.w3.org/2000/svg" viewBox="0 0 24 24" width="24" height="24"><defs><style>.a{fill:none;stroke:#000;stroke-linecap:round;stroke-linejoin:round;stroke-width:1.5px}</style></defs><title>transportation-ticket-train-transfer</title><rect class="a" x="1.5" y=".763" width="9" height="9" rx="1" ry="1"/><path class="a" d="M1.5 6.763h9m-7.5 3l-2.25 2.25M9 9.763l2.25 2.25"/><rect class="a" x="13.5" y="12.013" width="9" height="9" rx="1" ry="1"/><path class="a" d="M13.5 18.013h9m-7.5 3l-2.25 2.25m8.25-2.25l2.25 2.25m-1.5-16.5l-2.25 2.25-2.25-2.25"/><path class="a" d="M14.25 3.013h2.25a3 3 0 0 1 3 3v3m-17.25 8.25l2.25-2.25 2.25 2.25"/><path class="a" d="M9.75 21.013H7.5a3 3 0 0 1-3-3v-3"/></svg>