<svg xmlns="http://www.w3.org/2000/svg" viewBox="0 0 24 24" width="24" height="24"><defs><style>.a{fill:none;stroke:#000;stroke-linecap:round;stroke-linejoin:round;stroke-width:1.5px}</style></defs><title>transportation-ticket-boat-train-transfer</title><rect class="a" x="13.5" y="12.013" width="9" height="9" rx="1" ry="1"/><path class="a" d="M13.5 18.013h9m-7.5 3l-2.25 2.25m8.25-2.25l2.25 2.25m-.75-16.5l-2.25 2.25L18 6.763"/><path class="a" d="M17.25 3.013a3 3 0 0 1 3 3v3m-18 8.25l2.25-2.25 2.25 2.25"/><path class="a" d="M7.5 21.013a3 3 0 0 1-3-3v-3M3.077 9.141L.75 5.263h13.5l-2.327 3.878m-.673-3.878h-7.5l.75-3h6l.75 3zm-2.25-3v-1.5"/><path class="a" d="M14.25 9.763a4.349 4.349 0 0 1-3.375-1.5 4.349 4.349 0 0 1-3.375 1.5 4.349 4.349 0 0 1-3.375-1.5 4.349 4.349 0 0 1-3.375 1.5"/></svg>