<svg xmlns="http://www.w3.org/2000/svg" viewBox="0 0 24 24" width="24" height="24"><defs><style>.a{fill:none;stroke:#000;stroke-linecap:round;stroke-linejoin:round;stroke-width:1.5px}</style></defs><title>transform-left</title><path class="a" d="M9.747 22.828V18.75m13.5-4.5v1.5m-13.5-1.5v1.5m0-6v1.5m13.5 7.5v3.672m0-11.172a1.5 1.5 0 0 0-1.5-1.5m-4.5 0h1.5M.9 11a.788.788 0 0 1 .638-1.25h11.178a3 3 0 0 1 2.432 1.244L23.1 22a.788.788 0 0 1-.639 1.249h-11.18a3 3 0 0 1-2.432-1.244zm6.158-7.25h11.689m-9 3l-2.47-2.47a.749.749 0 0 1 0-1.06L9.747.75"/></svg>