<svg xmlns="http://www.w3.org/2000/svg" viewBox="0 0 24 24" width="24" height="24"><defs><style>.a{fill:none;stroke:#000;stroke-linecap:round;stroke-linejoin:round;stroke-width:1.5px}</style></defs><title>transportation-ticket-boat-car-transfer</title><path class="a" d="M23.25 20.263v-1.629a1.5 1.5 0 0 0-.439-1.06l-1.061-1.811h-10.5l-1.061 1.811a1.5 1.5 0 0 0-.439 1.06v1.629a1.5 1.5 0 0 0 1.5 1.5h10.5a1.5 1.5 0 0 0 1.5-1.5zm-9-9h4.919a1.528 1.528 0 0 1 1.423.769l1.158 3.731h-10.5l.466-1.5m1.034 4.5h1.5m4.5 0h1.5m-9 3v1.5m10.5-1.5v1.5"/><rect class="a" x="1.5" y=".763" width="9" height="9" rx="1" ry="1"/><path class="a" d="M1.5 6.763h9m-7.5 3l-2.25 2.25M9 9.763l2.25 2.25m10.5-6l-2.25 2.25-2.25-2.25"/><path class="a" d="M16.5 2.263a3 3 0 0 1 3 3v3m-18 9.75l2.25-2.25L6 18.013"/><path class="a" d="M6.75 21.763a3 3 0 0 1-3-3v-3"/></svg>