<svg xmlns="http://www.w3.org/2000/svg" viewBox="0 0 24 24" width="24" height="24"><defs><style>.a{fill:none;stroke:#000;stroke-linecap:round;stroke-linejoin:round;stroke-width:1.5px}</style></defs><title>transportation-ticket-plane-transfer-bus</title><path class="a" d="M21.75 7.389l-2.25 2.25-2.25-2.25"/><path class="a" d="M16.5 3.639a3 3 0 0 1 3 3v3m-17.25 8.25l2.25-2.25 2.25 2.25"/><path class="a" d="M7.5 21.639a3 3 0 0 1-3-3v-3m5.229 3.957l1.364 1.225m9.915-3.91l-2.288.9-4.093-3.674-2.288.9 3.33 3.974-4.576 1.805 1.974 1.772a1.642 1.642 0 0 0 1.7.306l7.447-2.937a1.64 1.64 0 0 0-1.2-3.051z"/><rect class="a" x=".75" y="1.389" width="9.75" height="9.75" rx="1" ry="1"/><path class="a" d="M2.25 11.139v1.5m6.75-1.5v1.5M.75 5.889h9.75m-7.125 2.25a.375.375 0 0 1 .375.375m-.75 0a.375.375 0 0 1 .375-.375m0 .75A.375.375 0 0 1 3 8.514m.75 0a.375.375 0 0 1-.375.375m4.5-.75a.375.375 0 0 1 .375.375m-.75 0a.375.375 0 0 1 .375-.375m0 .75a.375.375 0 0 1-.375-.375m.75 0a.375.375 0 0 1-.375.375"/></svg>