<svg xmlns="http://www.w3.org/2000/svg" viewBox="0 0 24 24" width="24" height="24"><defs><style>.a{fill:none;stroke:#000;stroke-linecap:round;stroke-linejoin:round;stroke-width:1.5px}</style></defs><title>transportation-ticket-boat-transfer</title><path class="a" d="M23.25 9.013L21 11.263l-2.25-2.25"/><path class="a" d="M18 5.263a3 3 0 0 1 3 3v3M.75 15.013L3 12.763l2.25 2.25"/><path class="a" d="M6 18.763a3 3 0 0 1-3-3v-3m.077-3.622L.75 5.263h13.5l-2.327 3.878m-.673-3.878h-7.5l.75-3h6l.75 3zm-2.25-3v-1.5"/><path class="a" d="M14.25 9.763a4.349 4.349 0 0 1-3.375-1.5 4.349 4.349 0 0 1-3.375 1.5 4.349 4.349 0 0 1-3.375-1.5 4.349 4.349 0 0 1-3.375 1.5m11.327 12.878L9.75 18.763h13.5l-2.327 3.878m-.673-3.878h-7.5l.75-3h6l.75 3zm-2.25-3v-1.5"/><path class="a" d="M23.25 23.263a4.349 4.349 0 0 1-3.375-1.5 4.349 4.349 0 0 1-3.375 1.5 4.349 4.349 0 0 1-3.375-1.5 4.349 4.349 0 0 1-3.375 1.5"/></svg>