<svg xmlns="http://www.w3.org/2000/svg" viewBox="0 0 24 24" width="24" height="24"><defs><style>.a{fill:none;stroke:#000;stroke-linecap:round;stroke-linejoin:round;stroke-width:1.5px}</style></defs><title>travel-crossroad-direction-board</title><path class="a" d="M.746 23.247a11.25 11.25 0 1 1 22.5 0m-15.188-.005l-.278-1.108A1.5 1.5 0 0 0 6.325 21H.972"/><path class="a" d="M20.981 16.5h-4.063a1.5 1.5 0 0 0-1.456 1.137l-.75 3a1.5 1.5 0 0 0 1.456 1.863h1.578l.126.753M11.996 3.747v-3m-4.5 3h9.75v4.5h-9.75l-2.25-2.25 2.25-2.25zm4.5 8.25v-3.75"/></svg>