<svg xmlns="http://www.w3.org/2000/svg" viewBox="0 0 24 24" width="24" height="24"><defs><style>.a{fill:none;stroke:#000;stroke-linecap:round;stroke-linejoin:round;stroke-width:1.5px}</style></defs><title>travel-map-finger</title><path class="a" d="M12.743 23.248l-2.765-3.109a1.557 1.557 0 1 1 2.328-2.069l1.937 2.178v-9a1.5 1.5 0 1 1 3 0V18h1.5a4.5 4.5 0 0 1 4.5 4.5v.75m-20.627-.108a12.615 12.615 0 0 1-1.216-2.66m-.581-2.718a12.9 12.9 0 0 1 .034-2.926m.666-2.7a12.483 12.483 0 0 1 1.317-2.613M4.6 7.373a12.625 12.625 0 0 1 2.313-1.787m2.526-1.16a9.353 9.353 0 0 1 1.414-.385m3.39-3.293l4.5 4.5m0-4.5l-4.5 4.5"/></svg>