<svg xmlns="http://www.w3.org/2000/svg" viewBox="0 0 24 24" width="24" height="24"><defs><style>.a{fill:none;stroke:#000;stroke-linecap:round;stroke-linejoin:round;stroke-width:1.5px}</style></defs><title>travel-luggage</title><path class="a" d="M9 20.248H3.746a3 3 0 0 1-3-3v-9a3 3 0 0 1 3-3h13.5a3 3 0 0 1 3 3V9M5.996 5.248v15m9-15v3.751M13.5 5.248v-3a1.5 1.5 0 0 0-1.5-1.5H9a1.5 1.5 0 0 0-1.5 1.5v3"/><circle class="a" cx="17.246" cy="17.248" r="6"/><path class="a" d="M15.405 11.536L17.1 13.8a1.5 1.5 0 0 1-.3 2.1L15 17.248V18a1.5 1.5 0 0 1-1.5 1.5h-1.817m11.551-2.629l-2.661 1.339a1.5 1.5 0 0 0-.785 1.706l.621 2.431"/></svg>