<svg xmlns="http://www.w3.org/2000/svg" viewBox="0 0 24 24" width="24" height="24"><defs><style>.a{fill:none;stroke:#000;stroke-linecap:round;stroke-linejoin:round;stroke-width:1.5px}</style></defs><title>travel-paper-plane</title><path class="a" d="M4.084 2.753L9.473 4.8a1.5 1.5 0 0 1 .944 1.7L10.1 8.068A1.5 1.5 0 0 1 9 9.229l-2.079.519-1.158 2.885a2.991 2.991 0 0 1-1.121 1.382L2.663 15.3M16.155 3.429l-.977 1.315a3 3 0 0 0-.437 2.737l.259.767M8.25 18.625A9 9 0 1 1 18.62 8.239"/><path class="a" d="M10.851 16.815a.75.75 0 0 1-.046-1.406l12.441-5.069-5.068 12.441a.75.75 0 0 1-1.406-.045L15.291 18.3zm4.44 1.48l2.751-2.751"/></svg>