<svg xmlns="http://www.w3.org/2000/svg" viewBox="0 0 24 24" width="24" height="24"><defs><style>.a{fill:none;stroke:#000;stroke-linecap:round;stroke-linejoin:round;stroke-width:1.5px}</style></defs><title>treasure-chest-open</title><path class="a" d="M21.334 12a2.968 2.968 0 0 0 .416-1.5 2.987 2.987 0 0 0-4.789-2.395 5.216 5.216 0 0 0-9.922 0A2.984 2.984 0 0 0 2.666 12zM20.25 2.25h3m-1.5-1.5v3m-21 .75h3M2.25 3v3m-1.5 6h22.5v10.25a1 1 0 0 1-1 1H1.75a1 1 0 0 1-1-1V12zm4.5 3v8.25m4.5-6v6m4.5-6v6m4.5-8.25v8.25M.75 15h7.575m7.35 0h7.575"/><path class="a" d="M15.75 14.25a3.75 3.75 0 0 1-7.5 0V12h7.5z"/><path class="a" d="M12 14.625a.375.375 0 1 1-.375.375.375.375 0 0 1 .375-.375"/></svg>