<svg xmlns="http://www.w3.org/2000/svg" viewBox="0 0 24 24" width="24" height="24"><defs><style>.a{fill:none;stroke:#000;stroke-linecap:round;stroke-linejoin:round;stroke-width:1.5px}</style></defs><title>treasure-chest</title><path class="a" d="M.75 9.75h22.5v11a1 1 0 0 1-1 1H1.75a1 1 0 0 1-1-1v-11zm2-7.5h18.5a2 2 0 0 1 2 2v5.5H.75v-5.5a2 2 0 0 1 2-2zm2.5 10.5v9m0-19.5v7.5M9.75 15v6.75m0-19.5v7.5m4.5 5.25v6.75m0-19.5v7.5m4.5 3v9m0-19.5v7.5m-18 3h7.575m7.35 0h7.575"/><path class="a" d="M15.75 12a3.75 3.75 0 0 1-7.5 0V9.75h7.5z"/><path class="a" d="M12 12.375a.375.375 0 1 1-.375.375.375.375 0 0 1 .375-.375"/></svg>