<svg id="Regular" xmlns="http://www.w3.org/2000/svg" viewBox="0 0 24 24" width="24" height="24"><defs><style>.cls-1{fill:none;stroke:#000;stroke-linecap:round;stroke-linejoin:round;stroke-width:1.5px}</style></defs><title>trees-hive</title><path class="cls-1" d="M20 5.25v-1.5a1.5 1.5 0 0 0-1.5-1.5h-5.761a1.5 1.5 0 0 0-1.379.909L9.5 7.5 7.64 3.159a1.5 1.5 0 0 0-1.379-.909H5a1.5 1.5 0 0 0-1.5 1.5v10.581a7.046 7.046 0 0 1-2.064 4.983.548.548 0 0 0 .388.936h19.852a.548.548 0 0 0 .388-.936A7.046 7.046 0 0 1 20 14.331V12.75m0-3l3-3m-6 3h6"/></svg>