<svg id="Regular" xmlns="http://www.w3.org/2000/svg" viewBox="0 0 24 24" width="24" height="24"><defs><style>.cls-1{fill:none;stroke:#000;stroke-linecap:round;stroke-linejoin:round;stroke-width:1.5px}</style></defs><title>trees-log</title><circle class="cls-1" cx="4.5" cy="15.75" r="3.75"/><circle class="cls-1" cx="12" cy="15.75" r="3.75"/><path class="cls-1" d="M12 12h7.5a3.75 3.75 0 0 1 0 7.5H12m-7.5-4.125a.375.375 0 0 1 .375.375m-.75 0a.375.375 0 0 1 .375-.375m0 .75a.375.375 0 0 1-.375-.375m.75 0a.375.375 0 0 1-.375.375m7.5-.75a.375.375 0 0 1 .375.375m-.75 0a.375.375 0 0 1 .375-.375m0 .75a.375.375 0 0 1-.375-.375m.75 0a.375.375 0 0 1-.375.375m-6.44-6.38a3.75 3.75 0 1 1 6.878.005"/><path class="cls-1" d="M9 4.5h7.5a3.752 3.752 0 0 1 3.438 5.25M9 7.875a.375.375 0 0 1 .375.375m-.75 0A.375.375 0 0 1 9 7.875m0 .75a.375.375 0 0 1-.375-.375m.75 0A.375.375 0 0 1 9 8.625"/></svg>