<svg id="Regular" xmlns="http://www.w3.org/2000/svg" viewBox="0 0 24 24" width="24" height="24"><defs><style>.cls-1{fill:none;stroke:#000;stroke-linecap:round;stroke-linejoin:round;stroke-width:1.5px}</style></defs><title>trees</title><path class="cls-1" d="M11.166 20.4a.75.75 0 0 0 .652-1.122l-2.359-4.13h1.5l-3-5.25h1.5L7.083 6.334a.75.75 0 0 0-1.248 0L3.459 9.9h1.5l-3 5.25h1.5L1.1 19.276a.75.75 0 0 0 .651 1.124zm-4.707-.002v2.852M22.286 12.9a.671.671 0 0 0 .583-1l-1.7-3.5h1.343L19.83 3.9h1.344l-2.129-2.851a.672.672 0 0 0-1.118 0L15.8 3.9h1.343l-2.688 4.5H15.8l-1.751 3.5a.672.672 0 0 0 .584 1zm-3.827-.002v3.75"/></svg>