<svg id="Regular" xmlns="http://www.w3.org/2000/svg" viewBox="0 0 24 24" width="24" height="24"><defs><style>.cls-1{fill:none;stroke:#000;stroke-linecap:round;stroke-linejoin:round;stroke-width:1.5px}</style></defs><title>tree-log</title><circle class="cls-1" cx="7.5" cy="11.75" r="6.75"/><path class="cls-1" d="M7.5 18.5h9a6.75 6.75 0 0 0 0-13.5h-9M4.39 9.653A3.749 3.749 0 0 1 7.5 8m3.75 3.75A3.75 3.75 0 0 1 4.5 14m3-2.625a.375.375 0 0 1 .375.375m-.75 0a.375.375 0 0 1 .375-.375m0 .75a.375.375 0 0 1-.375-.375m.75 0a.375.375 0 0 1-.375.375M17.25 9.5h5.616M21 12.5h2.209"/></svg>