<svg id="Regular" xmlns="http://www.w3.org/2000/svg" viewBox="0 0 24 24" width="24" height="24"><defs><style>.cls-1{fill:none;stroke:#000;stroke-linecap:round;stroke-linejoin:round;stroke-width:1.5px}</style></defs><title>tree-2</title><path class="cls-1" d="M22.5 11.25a5.24 5.24 0 0 0-3.05-4.75A2.954 2.954 0 0 0 16.5 3c-.063 0-.122.015-.185.019a5.237 5.237 0 0 0-8.63 0C7.622 3.015 7.563 3 7.5 3a2.954 2.954 0 0 0-2.95 3.5 5.239 5.239 0 0 0 1.106 9.885A4.082 4.082 0 0 0 12 17.782a4.082 4.082 0 0 0 6.344-1.4A5.248 5.248 0 0 0 22.5 11.25zm-10.5-3v15M12 15q4.5 0 4.5-4.5M12 12a3.543 3.543 0 0 1-3.75-3.75"/></svg>