<svg id="Regular" xmlns="http://www.w3.org/2000/svg" viewBox="0 0 24 24" width="24" height="24"><defs><style>.cls-1{fill:none;stroke:#000;stroke-linecap:round;stroke-linejoin:round;stroke-width:1.5px}</style></defs><title>trees-camp-fire</title><path class="cls-1" d="M11.166 18.4a.75.75 0 0 0 .652-1.122L9.459 12.4h2.25l-3-5.25h2.25L7.083 1.334a.75.75 0 0 0-1.248 0L1.959 7.148h2.25l-3 5.25h2.25L1.1 17.276a.75.75 0 0 0 .651 1.124zm6.757-8.251l-1.714-3h2.25l-3.876-5.815a.75.75 0 0 0-1.248 0L11.959 3.4m-5.5 14.998v4.5m12.995-9.742a.375.375 0 0 0-.508.489 4.218 4.218 0 0 1-.209 3.69 1.459 1.459 0 0 1-1.561-1.235 3.272 3.272 0 0 0-1.717 3.09 3.728 3.728 0 0 0 3.747 3.71 3.779 3.779 0 0 0 3.746-3.709 6.022 6.022 0 0 0-3.498-6.035z"/></svg>