<svg xmlns="http://www.w3.org/2000/svg" viewBox="0 0 24 24" width="24" height="24"><g fill="none" stroke="#000" stroke-linejoin="round" stroke-miterlimit="10"><path d="M11.26 16.672a3.502 3.502 0 01-5.718-2.127l-.039-.293A3.247 3.247 0 013.5 11.25c0-1.334.803-2.48 1.952-2.98L5.5 8A2.5 2.5 0 018 5.5l.25-.25a3.25 3.25 0 116.5 0l.25.25A2.5 2.5 0 0117.5 8l.299.393a3.25 3.25 0 01-.283 5.852l-.058.301a3.503 3.503 0 01-5.7 2.142l-.498-.016z"/><path stroke-linecap="round" d="M11.5 8.5v15m0-9.5a4 4 0 004-4m-4 2a3 3 0 01-3-3"/></g><path fill="none" d="M0 0h24v24H0z"/></svg>