<svg id="Regular" xmlns="http://www.w3.org/2000/svg" viewBox="0 0 24 24" width="24" height="24"><defs><style>.cls-1{fill:none;stroke:#000;stroke-linecap:round;stroke-linejoin:round;stroke-width:1.5px}</style></defs><title>tree-two</title><path class="cls-1" d="M5.251.75L.811 16.83a1.5 1.5 0 0 0 1.44 1.92h6a1.5 1.5 0 0 0 1.44-1.92z"/><path class="cls-1" d="M5.251 17.25c0-2.25-1.5-4.5-3-4.5h-.313m3.313 4.5c0-2.25 1.5-4.5 3-4.5h.313M5.251 10.5v12.75"/><circle class="cls-1" cx="17.251" cy="9.75" r="6"/><path class="cls-1" d="M17.251 23.25v-15m0 5.25c0-2.25 1.5-3 2.25-3m-2.25 3c0-2.25-1.5-3-2.25-3"/></svg>