<svg id="Regular" xmlns="http://www.w3.org/2000/svg" viewBox="0 0 24 24" width="24" height="24"><defs><style>.cls-1{fill:none;stroke:#000;stroke-linecap:round;stroke-linejoin:round;stroke-width:1.5px}</style></defs><title>trees-chop</title><path class="cls-1" d="M19.671 23.25H4.329a.537.537 0 0 1-.5-.8l.3-.5a10.043 10.043 0 0 0 1.512-5.278v-.389a.558.558 0 0 1 .578-.536h11.559a.558.558 0 0 1 .578.536v.389a10.043 10.043 0 0 0 1.512 5.278l.3.5a.537.537 0 0 1-.497.8z"/><path class="cls-1" d="M12.235 15.75l5.065-5.068c-3.712-.53-6.364-4.243-6.364-4.243L6.7 10.682a12.046 12.046 0 0 1 3.922 5.065M7.84 11.66l-1.143 1.143m5.22-5.22L18.75.75m-9 22.5v-3m4.5 3v-3"/></svg>