<svg id="Regular" xmlns="http://www.w3.org/2000/svg" viewBox="0 0 24 24" width="24" height="24"><defs><style>.cls-1{fill:none;stroke:#000;stroke-linecap:round;stroke-linejoin:round;stroke-width:1.5px}</style></defs><title>trekking-stick</title><path class="cls-1" d="M12.751 12a4.545 4.545 0 0 1-4.086-2.525l-.572-1.146A1.525 1.525 0 0 0 6.657 7.5a1.5 1.5 0 0 0-1.321 1l-4.5 12.75a1.5 1.5 0 0 0 .915 1.915 1.536 1.536 0 0 0 .5.085 1.5 1.5 0 0 0 1.415-1l1.623-4.6a5.732 5.732 0 0 1 2.211 4.1 1.5 1.5 0 0 0 3 0c0-3.883-3.133-6.368-4.161-7.079l.771-2.186A7.52 7.52 0 0 0 12.751 15a1.5 1.5 0 0 0 0-3z"/><circle class="cls-1" cx="9.751" cy="3.75" r="2.625"/><path class="cls-1" d="M.751 12.75l2.25-5.25m12 12l4.5-2.25m-2.25 1.125v4.875m.75-22.5L15.751 3l2.25 2.25M15.751 3h3.75m.75 18h3m0-18v2.25m0 3.75v2.25m0 3.75v2.25"/></svg>