<svg id="Regular" xmlns="http://www.w3.org/2000/svg" viewBox="0 0 24 24" width="24" height="24"><defs><style>.cls-1{fill:none;stroke:#000;stroke-linecap:round;stroke-linejoin:round;stroke-width:1.5px}</style></defs><title>trekking-map</title><path class="cls-1" d="M6.75 17.25v4.5"/><circle class="cls-1" cx="6.75" cy="3.75" r="2.625"/><path class="cls-1" d="M3.75 17.25h-1.5a1.5 1.5 0 0 1-1.5-1.5v-4.5a3 3 0 0 1 3-3h9.75a1.5 1.5 0 0 1 0 3H9.75v10.5a1.5 1.5 0 0 1-3 0 1.5 1.5 0 0 1-3 0L3.743 12m9.007-9v-.75a1.5 1.5 0 0 1 1.5-1.5h7.5a1.5 1.5 0 0 1 1.5 1.5v9a1.5 1.5 0 0 1-1.5 1.5h-4.5m3-9.375a.375.375 0 0 1 .375.375m-.75 0a.375.375 0 0 1 .375-.375m0 .75a.375.375 0 0 1-.375-.375m.75 0a.375.375 0 0 1-.375.375M19.5 6.75A2.25 2.25 0 0 1 17.25 9m4.5 3.75v6"/></svg>