<svg xmlns="http://www.w3.org/2000/svg" viewBox="0 0 24 24" width="24" height="24"><g fill="none" stroke="#000" stroke-linejoin="round" stroke-miterlimit="10"><path stroke-linecap="round" d="M11.955 5.993A6 6 0 00.5 8.495v6H5a6 6 0 016 6"/><path stroke-linecap="round" d="M9.5 20.495h4c1-3.5 4.081-6.5 8-6.5v-3a1.5 1.5 0 00-1.5-1.5h-1.5"/><circle stroke-linecap="round" cx="5" cy="20.495" r="3"/><circle stroke-linecap="round" cx="20.5" cy="20.495" r="3"/><path stroke-linecap="round" d="M20.5 20.495l-3-5-3.5-2-3 7m0-16l-5.5 10m1.5-12l-3.5 12"/><path d="M3 3.495l-1 11"/><path stroke-linecap="round" d="M13 13.495a1 1 0 110-2l3.25.5a.75.75 0 010 1.5H13zm-12.5 1l1.5 2.5"/><circle stroke-linecap="round" cx="5" cy="20.495" r=".5"/></g><path fill="none" d="M0 0h24v24H0z"/></svg>