<svg xmlns="http://www.w3.org/2000/svg" viewBox="0 0 24 24" width="24" height="24"><defs><style>.a{fill:none;stroke:#000;stroke-linecap:round;stroke-linejoin:round;stroke-width:1.5px}</style></defs><title>trip-pin-multiple</title><path class="a" d="M12 13.875a.375.375 0 0 1 .375.375m-.75 0a.375.375 0 0 1 .375-.375m0 .75a.375.375 0 0 1-.375-.375m.75 0a.375.375 0 0 1-.375.375"/><path class="a" d="M12 9.75a4.5 4.5 0 0 1 4.5 4.5c0 1.921-2.688 5.576-3.909 7.138a.75.75 0 0 1-1.182 0C10.188 19.827 7.5 16.171 7.5 14.25a4.5 4.5 0 0 1 4.5-4.5zM5.25 6.375a.375.375 0 0 1 .375.375m-.75 0a.375.375 0 0 1 .375-.375m0 .75a.375.375 0 0 1-.375-.375m.75 0a.375.375 0 0 1-.375.375"/><path class="a" d="M4.512 13.7C3.235 12.047.75 8.6.75 6.75a4.5 4.5 0 0 1 9 0m9-.375a.375.375 0 0 1 .375.375m-.75 0a.375.375 0 0 1 .375-.375m0 .75a.375.375 0 0 1-.375-.375m.75 0a.375.375 0 0 1-.375.375"/><path class="a" d="M14.25 6.75a4.5 4.5 0 0 1 9 0c0 1.841-2.471 5.278-3.751 6.934"/></svg>