<svg xmlns="http://www.w3.org/2000/svg" viewBox="0 0 24 24" width="24" height="24"><defs><style>.a{fill:none;stroke:#000;stroke-linecap:round;stroke-linejoin:round;stroke-width:1.5px}</style></defs><title>trip-multiple-destination</title><path class="a" d="M23.25 7.75c0 1.7-2.537 5.678-3.437 7.036a.375.375 0 0 1-.625 0c-.9-1.357-3.438-5.332-3.438-7.036a3.75 3.75 0 0 1 7.5 0zm-3.75-.375a.375.375 0 0 1 .375.375m-.75 0a.375.375 0 0 1 .375-.375m0 .75a.375.375 0 0 1-.375-.375m.75 0a.375.375 0 0 1-.375.375M9 4.375a.375.375 0 0 1 .375.375m-.75 0A.375.375 0 0 1 9 4.375m0 .75a.375.375 0 0 1-.375-.375m.75 0A.375.375 0 0 1 9 5.125M6.75 22.75L22.5 17.5m-8.945-4.587l2.187 1.121M5.25 12.625a.375.375 0 0 1 .375.375m-.75 0a.375.375 0 0 1 .375-.375m0 .75A.375.375 0 0 1 4.875 13m.75 0a.375.375 0 0 1-.375.375"/><path class="a" d="M5.25 8.5a4.5 4.5 0 0 1 4.5 4.5c0 1.921-2.688 5.577-3.909 7.138a.75.75 0 0 1-1.182 0C3.438 18.576.75 14.921.75 13a4.5 4.5 0 0 1 4.5-4.5zm.115-3a3.014 3.014 0 0 1-.115-.75 3.75 3.75 0 0 1 7.5 0 10.388 10.388 0 0 1-1.5 3.864"/></svg>