<svg xmlns="http://www.w3.org/2000/svg" viewBox="0 0 24 24" width="24" height="24"><defs><style>.a,.b,.c{fill:none;stroke:#000;stroke-linecap:round;stroke-width:1.5px}.a,.b{stroke-miterlimit:10}.b{stroke-dasharray:2.025 2.025}.c{stroke-linejoin:round}</style></defs><title>trip-road-circle</title><path class="a" d="M23.25 12A11.25 11.25 0 1 1 12 .75M3.985 13.272a7.467 7.467 0 0 1 .861-.506"/><path class="b" d="M6.758 12.107c4.087-.781 6.507 2.94 10.323 3.565"/><path class="a" d="M18.091 15.76a6.945 6.945 0 0 0 1-.064"/><path class="c" d="M18.75 4.875a.375.375 0 0 1 .375.375m-.75 0a.375.375 0 0 1 .375-.375m0 .75a.375.375 0 0 1-.375-.375m.75 0a.375.375 0 0 1-.375.375"/><path class="c" d="M18.75.75a4.5 4.5 0 0 1 4.5 4.5c0 1.921-2.688 5.577-3.909 7.138a.75.75 0 0 1-1.182 0c-1.221-1.562-3.909-5.217-3.909-7.138a4.5 4.5 0 0 1 4.5-4.5z"/></svg>