<svg xmlns="http://www.w3.org/2000/svg" viewBox="0 0 24 24" width="24" height="24"><defs><style>.a{fill:none;stroke:#000;stroke-linecap:round;stroke-linejoin:round;stroke-width:1.5px}</style></defs><title>trip-pins</title><path class="a" d="M5.25 4.875a.375.375 0 0 1 .375.375m-.75 0a.375.375 0 0 1 .375-.375m0 .75a.375.375 0 0 1-.375-.375m.75 0a.375.375 0 0 1-.375.375"/><path class="a" d="M5.25.75a4.5 4.5 0 0 1 4.5 4.5c0 1.921-2.688 5.576-3.909 7.138a.75.75 0 0 1-1.182 0C3.438 10.827.75 7.171.75 5.25a4.5 4.5 0 0 1 4.5-4.5zm13.5 14.699a.375.375 0 0 1 .375.375m-.75 0a.375.375 0 0 1 .375-.375m0 .751a.375.375 0 0 1-.375-.375m.75-.001a.375.375 0 0 1-.375.375"/><path class="a" d="M18.75 11.324a4.5 4.5 0 0 1 4.5 4.5c0 1.921-2.688 5.576-3.909 7.138a.75.75 0 0 1-1.182 0c-1.221-1.562-3.909-5.217-3.909-7.138a4.5 4.5 0 0 1 4.5-4.5zM5.25 15.75v3m0 3a1.5 1.5 0 0 0 1.5 1.5h1.5m3 0h1.5"/></svg>