<svg id="Regular" xmlns="http://www.w3.org/2000/svg" viewBox="0 0 24 24" width="24" height="24"><defs><style>.cls-1{fill:none;stroke:#000;stroke-linecap:round;stroke-linejoin:round;stroke-width:1.5px}</style></defs><title>trousers-calves-2</title><path class="cls-1" d="M4 .75h16a1 1 0 0 1 1 1v2H3v-2a1 1 0 0 1 1-1zm17 7.5a4.5 4.5 0 0 1-4.5-4.5M3 8.25a4.5 4.5 0 0 0 4.5-4.5"/><path class="cls-1" d="M10.314 11.238a1.7 1.7 0 0 1 3.372 0l.736 10.742a1.5 1.5 0 0 0 1.478 1.27h3.6a1.5 1.5 0 0 0 1.5-1.5v-18H3v18a1.5 1.5 0 0 0 1.5 1.5h3.6a1.5 1.5 0 0 0 1.483-1.27z"/></svg>