<svg id="Regular" xmlns="http://www.w3.org/2000/svg" viewBox="0 0 24 24" width="24" height="24"><defs><style>.cls-1{fill:none;stroke:#000;stroke-linecap:round;stroke-linejoin:round;stroke-width:1.5px}</style></defs><title>trousers-calves</title><path class="cls-1" d="M4.25.75h15.5a.5.5 0 0 1 .5.5v2.5H3.75v-2.5a.5.5 0 0 1 .5-.5zm16 3H3.75L2.312 22.442a.75.75 0 0 0 .748.808h5.273a.751.751 0 0 0 .745-.662l1.247-10.6a1.686 1.686 0 0 1 3.35 0l1.247 10.6a.751.751 0 0 0 .745.662h5.273a.75.75 0 0 0 .748-.808z"/><path class="cls-1" d="M3.348 8.97a2.68 2.68 0 0 0 .4.03C5.821 9 7.5 6.649 7.5 3.75H3.75zm17.304 0a2.68 2.68 0 0 1-.4.03C18.179 9 16.5 6.649 16.5 3.75h3.75zM11.25 3.75v3a.75.75 0 0 0 .75.75h.75"/></svg>