<svg xmlns="http://www.w3.org/2000/svg" viewBox="0 0 24 24" width="24" height="24"><defs><style>.a{fill:none;stroke:#000;stroke-linecap:round;stroke-linejoin:round;stroke-width:1.5px}</style></defs><title>truck-cargo</title><circle class="a" cx="18.75" cy="18.213" r="1.5"/><circle class="a" cx="5.25" cy="18.213" r="1.5"/><path class="a" d="M14.25 18.213v-9.75h5.25l1.5 3.75 1.582 1.055a1.5 1.5 0 0 1 .668 1.248v2.2a1.5 1.5 0 0 1-1.5 1.5h-1.5m-6-.003v-4.5H.75v3a1.5 1.5 0 0 0 1.5 1.5h1.5m13.5 0H6.75m-5-12.75h12.5v8.25H.75v-7.25a1 1 0 0 1 1-1zm12.5 0h4.5c3 0 2.25 3 2.25 3h-1.5m-5.25 3.75H21"/></svg>