<svg xmlns="http://www.w3.org/2000/svg" viewBox="0 0 24 24" width="24" height="24"><defs><style>.a{fill:none;stroke:#000;stroke-linecap:round;stroke-linejoin:round;stroke-width:1.5px}</style></defs><title>truck-moving</title><path class="a" d="M.75 14.463v-.75a1.5 1.5 0 0 1 1.5-1.5h13.5v-5.25a.75.75 0 0 1 .75-.75h2.25a4.5 4.5 0 0 1 4.5 4.5v6a1.5 1.5 0 0 1-1.5 1.5H21"/><path class="a" d="M23.25 12.213h-3a1.5 1.5 0 0 1-1.5-1.5v-4.5"/><circle class="a" cx="16.5" cy="17.463" r="2.25"/><circle class="a" cx="4.5" cy="17.463" r="2.25"/><path class="a" d="M12 18.213H9m2.25-13.629v7.629m2-6.322l-5.5-3.595-5.696 3.595m2.196 6.322V4.505"/></svg>