<svg xmlns="http://www.w3.org/2000/svg" viewBox="0 0 24 24" width="24" height="24"><defs><style>.a{fill:none;stroke:#000;stroke-linecap:round;stroke-linejoin:round;stroke-width:1.5px}</style></defs><title>truck-empty</title><circle class="a" cx="18" cy="19.463" r="1.5"/><circle class="a" cx="5.25" cy="19.463" r="1.5"/><path class="a" d="M13.5 14.963H1.728a.978.978 0 0 0-.978.978v2.022a1.5 1.5 0 0 0 1.5 1.5h1.5m9.75 0H6.75m16.5-3h-1.956"/><path class="a" d="M19.5 19.463h2.25a1.5 1.5 0 0 0 1.5-1.5v-4.235a1.5 1.5 0 0 0-.943-1.392L19.5 11.213l-.566-3.962a1.5 1.5 0 0 0-1.485-1.288H13.5v13.5h3"/><path class="a" d="M13.5 5.963v-.644a3 3 0 0 0-1.336-2.5l-.914-.609m8.25 9.003h-6"/></svg>