<svg xmlns="http://www.w3.org/2000/svg" viewBox="0 0 24 24" width="24" height="24"><defs><style>.a{fill:none;stroke:#000;stroke-linecap:round;stroke-linejoin:round;stroke-width:1.5px}</style></defs><title>truck-2</title><circle class="a" cx="18" cy="18" r="2.25"/><circle class="a" cx="5.25" cy="18" r="2.25"/><path class="a" d="M15.75 18H7.5M3 18h-.75a1.5 1.5 0 0 1-1.5-1.5V5.25a1.5 1.5 0 0 1 1.5-1.5h15.485a3 3 0 0 1 2.622 1.543l2.232 4.018a5.241 5.241 0 0 1 .661 2.549v4.64a1.5 1.5 0 0 1-1.5 1.5h-1.5"/><path class="a" d="M.75 13.5h18.8a3 3 0 0 1 2.35 1.139l1.349 1.706M.75 6.75h20.416m-4.666 0v3.75M9 6.75v3.75m-8.25 0h22.321"/></svg>