<svg xmlns="http://www.w3.org/2000/svg" viewBox="0 0 24 24" width="24" height="24"><defs><style>.a{fill:none;stroke:#000;stroke-linecap:round;stroke-linejoin:round;stroke-width:1.5px}</style></defs><title>truck-cargo-1</title><circle class="a" cx="18.375" cy="20.588" r="1.875"/><circle class="a" cx="2.625" cy="20.588" r="1.875"/><circle class="a" cx="6.375" cy="20.588" r="1.875"/><path class="a" d="M12 20.213v-3h9.75a1.5 1.5 0 0 1 0 3h-1.537"/><path class="a" d="M22.5 17.414v-6.2a4.5 4.5 0 0 0-4.5-4.5h-6v10.5"/><path class="a" d="M12 6.713V3.272a1.5 1.5 0 0 1 1.83-1.464c1.592.357 3.714.992 4.17 1.905a8.636 8.636 0 0 1 .75 3v.063M9 15.713H.75m21.75-2.25H12m4.5-6.75v6.75M9 17.213V2.963a1.5 1.5 0 0 0-1.5-1.5H.75m15.788 18.75H8.211"/></svg>