<svg xmlns="http://www.w3.org/2000/svg" viewBox="0 0 24 24" width="24" height="24"><g fill="none" stroke="#000" stroke-linecap="round" stroke-linejoin="round" stroke-miterlimit="10"><circle cx="5" cy="21.5" r="2"/><circle cx="19" cy="21.5" r="2"/><path d="M7 21.5h10m-9.5-10H6l-1.5 3"/><path d="M3 21.5H.5V16l2-2L5 9.5h4.5v10"/><path d="M.5 19.5h23v2H21m-11.501-5h14v3h-14zm12-16l-12 16h6zm2 12c0 1.104-.896 1.75-2 1.75s-2-1.021-2-2.125.896-2.125 2-2.125V.5"/></g><path fill="none" d="M0 0h24v24H0z"/></svg>