<svg xmlns="http://www.w3.org/2000/svg" viewBox="0 0 24 24" width="24" height="24"><g fill="none" stroke="#000" stroke-linecap="round" stroke-linejoin="round" stroke-miterlimit="10"><circle cx="5" cy="20.5" r="2"/><circle cx="19" cy="20.5" r="2"/><path d="M7 20.5h10m-9.5-9H6l-1.5 3"/><path d="M3 20.5H.5V16l2-2L5 9.5h4.5v9m-9 0h23m-2.725-3.438c-3.536 3.535-6.338 2.854-8.485.707-2.147-2.148-2.829-4.95.707-8.485 2.099-2.1 8.132-2.475 8.132-2.475L23.25 6.93c0 .001-.354 6.011-2.475 8.132zM14.426 6.51l7.157 7.156"/></g><path fill="none" d="M0 0h24v24H0z"/></svg>