<svg xmlns="http://www.w3.org/2000/svg" viewBox="0 0 24 24" width="24" height="24"><g fill="none" stroke="#000" stroke-linecap="round" stroke-linejoin="round" stroke-miterlimit="10"><path d="M4.5 22.5h2v1h-2zm14 0h2v1h-2zm0-12h-12v-6a2 2 0 012-2h8a2 2 0 012 2v6zm-16 7a2 2 0 012-2h2v-5h12v5h2a2 2 0 012 2v5h-20v-5zm1-7v-3c0-1.104-1.229-2-2.333-2"/><path d="M18.5 18.5h4v2h-4zm-16 0h4v2h-4zm6-6h8v6h-8zm-2-7h12m-8 9v2m2-2v2m2-2v2m-10-1v-5h-2V18m18-2.5v-5h2V18m-1-7.5v-3a2 2 0 012-2"/></g><path fill="none" d="M0 0h24v24H0z"/></svg>