<svg xmlns="http://www.w3.org/2000/svg" viewBox="0 0 24 24" width="24" height="24"><defs><style>.a{fill:none;stroke:#000;stroke-linecap:round;stroke-linejoin:round;stroke-width:1.5px}</style></defs><title>truck-rv</title><circle class="a" cx="18.75" cy="19.5" r="1.5"/><circle class="a" cx="5.25" cy="19.5" r="1.5"/><path class="a" d="M20.25 19.5h1.5a1.5 1.5 0 0 0 1.5-1.5v-3a2.336 2.336 0 0 0-.436-1.36L19.5 9h-5.25v10.5m9-4.5h-9m0 4.5V12H.75v6a1.5 1.5 0 0 0 1.5 1.5h1.5m13.5 0H6.75"/><path class="a" d="M23.25 6a3 3 0 0 1-3 3h-6v3H.75V6a3 3 0 0 1 3-3h16.5a3 3 0 0 1 3 3zm-3 0h-1.5m-6 0h-9"/></svg>