<svg xmlns="http://www.w3.org/2000/svg" viewBox="0 0 24 24" width="24" height="24"><defs><style>.a{fill:none;stroke:#000;stroke-linecap:round;stroke-linejoin:round;stroke-width:1.5px}</style></defs><title>truck-empty-1</title><circle class="a" cx="18.75" cy="18.713" r="1.5"/><circle class="a" cx="6.75" cy="18.713" r="1.5"/><path class="a" d="M17.25 18.713h-9m10.5-6h-3a1.5 1.5 0 0 1-1.5-1.5v-3"/><path class="a" d="M20.25 18.713h1.5a1.5 1.5 0 0 0 1.5-1.5v-1.5a1.5 1.5 0 0 0-1.5-1.5h-3v-3c0-3.75-2.751-5.627-6.345-5.95A1.063 1.063 0 0 0 11.25 6.32v7.893h-9a1.5 1.5 0 0 0-1.5 1.5v1.5a1.5 1.5 0 0 0 1.5 1.5h3m12.738-10.5H11.25m0 6v4.5"/><path class="a" d="M8.25 14.213v-9a1.5 1.5 0 0 0-1.5-1.5h-1.5"/></svg>