<svg xmlns="http://www.w3.org/2000/svg" viewBox="0 0 24 24" width="24" height="24"><g fill="none" stroke="#000" stroke-linejoin="round" stroke-miterlimit="10"><circle stroke-linecap="round" cx="5" cy="21.5" r="2"/><circle stroke-linecap="round" cx="19" cy="21.5" r="2"/><path stroke-linecap="round" d="M3 21.5H.5V16l2-2L5 9.5h4.5v-4h14v16H21m-14 0h10"/><path stroke-linecap="round" d="M7.5 11.5H6l-1.5 3m5-5v10m-9 0h23m-10-15a2 2 0 00-4 0v1h4v-1z"/><path d="M16.506 7.003L18 10.5h3.5l-3 2.499 1.5 4.002-3.5-2.498-3.5 2.498 1.5-4.002-3-2.499H15z"/></g><path fill="none" d="M0 0h24v24H0z"/></svg>