<svg xmlns="http://www.w3.org/2000/svg" viewBox="0 0 24 24" width="24" height="24"><g fill="none" stroke="#000" stroke-linecap="round" stroke-linejoin="round" stroke-miterlimit="10"><path d="M4.5 21.5h3v2h-3zm13 0h3v2h-3zM2.5 20A1.5 1.5 0 004 21.5h17a1.5 1.5 0 000-3H4A1.5 1.5 0 002.5 20z"/><path d="M21.5 18.586V13l-2-6.5h-14l-2 6.5v5.586m0-5.086h18"/><path d="M8.5 15.5h8v3h-8zm-5-2.5V3.5h18V13m0 2.5a3 3 0 00-3 3m-14.999-3a3 3 0 013 3M19.5 3.5a3 3 0 00-3-3h-8a3 3 0 00-3 3h14zm-10-3v3m6-3v3"/></g><path fill="none" d="M0 0h24v24H0z"/></svg>