<svg xmlns="http://www.w3.org/2000/svg" viewBox="0 0 24 24" width="24" height="24"><defs><style>.a{fill:none;stroke:#000;stroke-linecap:round;stroke-linejoin:round;stroke-width:1.5px}</style></defs><title>truck-3</title><path class="a" d="M4.5 20.263v1.5a1.5 1.5 0 0 0 3 0v-1.5zm12 0v1.5a1.5 1.5 0 1 0 3 0v-1.5zm-13.5-9h18m-17.482-6h16.964m-8.482 6v-6m0-4.5c-4.142 0-9 2.608-9 6.75v11.25a1.5 1.5 0 0 0 1.5 1.5h15a1.5 1.5 0 0 0 1.5-1.5V7.513c0-4.142-4.858-6.75-9-6.75zM6 16.888a.375.375 0 0 1 .375.375m-.75 0A.375.375 0 0 1 6 16.888m0 .75a.375.375 0 0 1-.375-.375m.75 0a.375.375 0 0 1-.375.375m12-.75a.375.375 0 0 1 .375.375m-.75 0a.375.375 0 0 1 .375-.375m0 .75a.375.375 0 0 1-.375-.375m.75 0a.375.375 0 0 1-.375.375m-6 2.625c0-2.25-3-7.5-9-9m9 9c0-2.25 3-7.5 9-9m-18-1.5H1.5m21 0H21"/></svg>