<svg xmlns="http://www.w3.org/2000/svg" viewBox="0 0 24 24" width="24" height="24"><defs><style>.a{fill:none;stroke:#000;stroke-linecap:round;stroke-linejoin:round;stroke-width:1.5px}</style></defs><title>truck-animal</title><path class="a" d="M.75 14.25v-.75a1.5 1.5 0 0 1 1.5-1.5h13.5V6.75A.75.75 0 0 1 16.5 6h2.25a4.5 4.5 0 0 1 4.5 4.5v6a1.5 1.5 0 0 1-1.5 1.5H21"/><path class="a" d="M23.25 12h-3a1.5 1.5 0 0 1-1.5-1.5V6"/><circle class="a" cx="16.5" cy="17.25" r="2.25"/><circle class="a" cx="4.5" cy="17.25" r="2.25"/><path class="a" d="M12 18H9m-6-6V4.5m8.25 7.5V4.5M1.5 6h11.25M1.5 9h11.25"/></svg>