<svg xmlns="http://www.w3.org/2000/svg" viewBox="0 0 24 24" width="24" height="24"><defs><style>.a{fill:none;stroke:#000;stroke-linecap:round;stroke-linejoin:round;stroke-width:1.5px}</style></defs><title>truck-1</title><circle class="a" cx="18.75" cy="17.25" r="1.5"/><circle class="a" cx="5.25" cy="17.25" r="1.5"/><path class="a" d="M19.5 11.25h-6m6.75 6h1.5a1.5 1.5 0 0 0 1.5-1.5v-1.5c0-1.441-.492-1.388-3.75-3l-.932-3.728a3 3 0 0 0-2.91-2.272H2.25a1.5 1.5 0 0 0-1.5 1.5v9a1.5 1.5 0 0 0 1.5 1.5h1.5m13.5 0H6.75m6.75-12v12"/><rect class="a" x="3.75" y="8.25" width="6.75" height="3" rx=".5" ry=".5" transform="rotate(-180 7.125 9.75)"/></svg>