<svg xmlns="http://www.w3.org/2000/svg" viewBox="0 0 24 24" width="24" height="24"><defs><style>.a{fill:none;stroke:#000;stroke-linecap:round;stroke-linejoin:round;stroke-width:1.5px}</style></defs><title>truck</title><path class="a" d="M2.25 20.263v1.5a1.5 1.5 0 0 0 3 0v-1.5m-4.5-3h4.5m16.5 3v1.5a1.5 1.5 0 1 1-3 0v-1.5m4.5-4.5a3 3 0 0 0-3-3h-1.5v-9a3 3 0 0 0-3-3h-7.5a3 3 0 0 0-3 3v9h-1.5a3 3 0 0 0-3 3v3a1.5 1.5 0 0 0 1.5 1.5h19.5a1.5 1.5 0 0 0 1.5-1.5zm0 1.5h-4.5"/><path class="a" d="M5.25 3.763h13.5v6H5.25zm9.171 12.987a.751.751 0 0 1-.712.513h-3.418a.751.751 0 0 1-.712-.513l-1-3a.749.749 0 0 1 .712-.987h5.418a.749.749 0 0 1 .712.987zM.75 5.263a1.5 1.5 0 0 1 1.5 1.5v6.4m21-7.9a1.5 1.5 0 0 0-1.5 1.5v6.4"/></svg>