<svg xmlns="http://www.w3.org/2000/svg" viewBox="0 0 24 24" width="24" height="24"><g fill="none" stroke="#000" stroke-linecap="round" stroke-linejoin="round" stroke-miterlimit="10"><path d="M3.5 21.5h3v2h-3zm13 0h3v2h-3zm4-16h2v4h-2zm-19 12h20v4h-20zm1-14h18v14h-18zm1-2h3v2h-3zm13 0h3v2h-3zm-14 10h18"/><circle cx="6" cy="15" r="1"/><circle cx="17" cy="15" r="1"/><path d="M11.5 3.5v8m-9 10l3-3.938m0 3.938l3-3.938m0 3.938l3-3.938m9 3.938l-3-3.938m0 3.938l-3-3.938m0 3.938l-3-3.938M9 13.5h5m-5 2h5M.5 5.5h2v4h-2zm8-5h6v3h-6z"/></g><path fill="none" d="M0 0h24v24H0z"/></svg>