<svg xmlns="http://www.w3.org/2000/svg" viewBox="0 0 24 24" width="24" height="24"><defs><style>.a{fill:none;stroke:#000;stroke-linecap:round;stroke-linejoin:round;stroke-width:1.5px}</style></defs><title>tuk-tuk</title><circle class="a" cx="6.75" cy="18.763" r="2.25"/><path class="a" d="M18.753 18.64a2.249 2.249 0 1 0 .951-1.717m3.546-2.905a5.23 5.23 0 0 0-2.25-.505 5.333 5.333 0 0 0-.926.081M4.5 18.763h-.75a1.5 1.5 0 0 1-1.5-1.5V4.628m-1.5-.115l19.5 1.5"/><path class="a" d="M18 5.84l2.25 6.173-.6 5.415a1.5 1.5 0 0 1-1.49 1.335H9"/><path class="a" d="M2.25 13.513h7.5l3 5.25m-3-13.5v8.25m3-2.25l.75 3.75h.75a1.5 1.5 0 0 1 1.5 1.5v2.25M18 5.84V4.513a1.5 1.5 0 1 0-3 0v1.1"/></svg>