<svg xmlns="http://www.w3.org/2000/svg" viewBox="0 0 24 24" width="24" height="24"><defs><style>.a{fill:none;stroke:#000;stroke-linecap:round;stroke-linejoin:round;stroke-width:1.5px}</style></defs><title>tuk-tuk-1</title><path class="a" d="M1.5 18.763v3a1.5 1.5 0 0 0 3 0v-3m-.75-4.5a2.25 2.25 0 0 0-2.25 2.25v2.25H6v-2.25a2.25 2.25 0 0 0-2.25-2.25zm18.75 4.5v3a1.5 1.5 0 1 1-3 0v-3m.75-4.5a2.25 2.25 0 0 1 2.25 2.25v2.25H18v-2.25a2.25 2.25 0 0 1 2.25-2.25zm-9.75 6h-3a1.5 1.5 0 0 1-1.5-1.5v-7.5l2.25-7.5h7.5l2.25 7.5v7.5a1.5 1.5 0 0 1-1.5 1.5h-3m-7.5-9h12"/><path class="a" d="M12 17.263a1.5 1.5 0 0 0-1.5 1.5v3a1.5 1.5 0 1 0 3 0v-3a1.5 1.5 0 0 0-1.5-1.5zm-3-3.375a.375.375 0 0 1 .375.375m-.75 0A.375.375 0 0 1 9 13.888m0 .75a.375.375 0 0 1-.375-.375m.75 0a.375.375 0 0 1-.375.375m6-.75a.375.375 0 0 0-.375.375m.75 0a.375.375 0 0 0-.375-.375m0 .75a.375.375 0 0 0 .375-.375m-.75 0a.375.375 0 0 0 .375.375m3-10.875H6m4.75-3h2.5a1 1 0 0 1 1 1v2h-4.5v-2a1 1 0 0 1 1-1z"/></svg>