<svg xmlns="http://www.w3.org/2000/svg" viewBox="0 0 24 24" width="24" height="24"><g fill="none" stroke="#000" stroke-linejoin="round" stroke-miterlimit="10"><path d="M10.5 20.5h-3a2 2 0 01-2-2v-8l2.381-6.668a.502.502 0 01.471-.332h7.355a.5.5 0 01.472.336L18.5 10.5v8a2 2 0 01-2 2h-3"/><path d="M10.5 19a1.5 1.5 0 013 0v3a1.5 1.5 0 01-3 0v-3zm-5-8.5h13"/><path stroke-linecap="round" d="M6 3.5h12M9.5.5h5v3h-5z"/><circle stroke-linecap="round" cx="16" cy="14.5" r="1"/><circle stroke-linecap="round" cx="8" cy="14.5" r="1"/><path stroke-linecap="round" d="M4.5 19.5V22a1.5 1.5 0 01-3 0v-2.5m0 0v-3a2 2 0 014 0v3h-4zm18 0V22a1.5 1.5 0 003 0v-2.5m0 0v-3a2 2 0 00-4 0v3h4z"/></g><path fill="none" d="M0 0h24v24H0z"/></svg>