<svg xmlns="http://www.w3.org/2000/svg" viewBox="0 0 24 24" width="24" height="24"><g fill="none" stroke="#000" stroke-linejoin="round" stroke-miterlimit="10"><path d="M3.953 17.926l2.12 2.119-3.012 3.016a1.5 1.5 0 11-2.122-2.122l3.014-3.013z"/><path d="M8.196 13.683l2.122 2.122-4.243 4.242-2.122-2.122z"/><path d="M18.619 8.915l-4.949 4.95m3.182-6.719l-4.95 4.952m3.182-6.72l-4.949 4.95m12.466-.969l-8.134-8.133-5.302 5.305c-.778.778-1.296 2.307-1.151 3.397l.444 3.369c.146 1.091 1.157 2.082 2.251 2.203l3.186.355c1.094.122 2.624-.414 3.402-1.192l5.304-5.304z"/></g><path fill="none" d="M0 0h24v24H0z"/></svg>