<svg xmlns="http://www.w3.org/2000/svg" viewBox="0 0 24 24" width="24" height="24"><g fill="none" stroke="#000" stroke-linecap="round" stroke-linejoin="round" stroke-miterlimit="10"><path d="M14.5 10.5c-1.318-1.817-3.334-3-5.75-3a7.25 7.25 0 00-7.25 7.25v3.75h10.75a2.25 2.25 0 002.25-2.25V10.5z"/><path d="M14.5 10.5c1.656 0 3 1.344 3 3v4.25a3.75 3.75 0 01-3.75 3.75H3A2.5 2.5 0 01.5 19v-.5h1"/><path d="M21.5 9.5v7.25a2.75 2.75 0 01-2.75 2.75h-1.684M20 9.5A3.5 3.5 0 1016.5 6v5m-11 10.5v2H1a.488.488 0 01-.5-.5c0-.293.223-.531.5-.531l2.5-.969m7 0v2H15c.276 0 .5-.206.5-.5 0-.293-.224-.531-.5-.531l-2.5-.969m8-17v1M6.008 8.037L14.5 16.5m-2.698-8.302L1.5 18.5m.681-6.819L9 18.5m5.5-5.5L9 18.5"/></g><path fill="none" d="M0 0h24v24H0z"/></svg>