<svg id="Regular" xmlns="http://www.w3.org/2000/svg" viewBox="0 0 24 24" width="24" height="24"><defs><style>.cls-1{fill:none;stroke:#000;stroke-linecap:round;stroke-linejoin:round;stroke-width:1.5px}</style></defs><title>tux</title><path class="cls-1" d="M.893 15.75H5.25M20.889 2.758c-2.532 2.476-2.139 8.492-2.139 8.492v10.5s-1.5 1.5-6.75 1.5-6.75-1.5-6.75-1.5v-10.5s.393-6.016-2.139-8.492"/><path class="cls-1" d="M18.75 18.75h4.5l-.571-12a6 6 0 0 0-3.63-5.229L17.25.75S15.75 9 12 12C8.25 9 6.75.75 6.75.75l-1.8.771A6 6 0 0 0 1.321 6.75l-.571 12h4.5m17.857-3H18.75M12 12v11.25"/><path class="cls-1" d="M6.75.75A10.376 10.376 0 0 0 12 2.25a10.376 10.376 0 0 0 5.25-1.5m-6 4.5h1.5"/></svg>