<svg xmlns="http://www.w3.org/2000/svg" viewBox="0 0 24 24" width="24" height="24"><g fill="none" stroke="#000" stroke-linejoin="round" stroke-miterlimit="10"><path d="M19.5 8.5l4.031 5H.5l4-5zm-15 0C4.5 3.5 7.857 1 12 1s7.5 2.5 7.5 7.5h-15z"/><path stroke-linecap="round" d="M6.971 6C7.826 4 9.756 3 12 3M2.5 23.5l6-10h7l6 10"/><circle cx="6" cy="11" r="1"/><circle cx="12" cy="11" r="1"/><circle cx="18" cy="11" r="1"/><g stroke-linecap="round"><path d="M12.5 20L11 22.076M14 22l-1.5-2M11 18.5h3"/><circle cx="12.5" cy="16.5" r=".5"/></g><path stroke-linecap="round" d="M12.5 20v-1.5"/></g><path fill="none" d="M0 0h24v24H0z"/></svg>