<svg xmlns="http://www.w3.org/2000/svg" viewBox="0 0 24 24" width="24" height="24"><defs><style>.a{fill:none;stroke:#000;stroke-linecap:round;stroke-linejoin:round;stroke-width:1.5px}</style></defs><title>ui-browser-slider-1</title><rect class="a" x=".75" y=".75" width="22.5" height="22.5" rx="3" ry="3"/><path class="a" d="M7.5 19.5a.375.375 0 1 1-.375.375.375.375 0 0 1 .375-.375m4.5 0a.375.375 0 1 1-.375.375A.375.375 0 0 1 12 19.5m4.5 0a.375.375 0 1 1-.375.375.375.375 0 0 1 .375-.375M5.707 7.5L3.75 9.75 5.707 12m12.586-4.5l1.957 2.25L18.293 12"/></svg>