<svg xmlns="http://www.w3.org/2000/svg" viewBox="0 0 24 24" width="24" height="24"><defs><style>.a{fill:none;stroke:#000;stroke-linecap:round;stroke-linejoin:round;stroke-width:1.5px}</style></defs><title>ui-page-slider</title><path class="a" d="M17.024 23.25a1.087 1.087 0 0 0 1.063-.724A37.431 37.431 0 0 0 19.5 12a37.431 37.431 0 0 0-1.413-10.526A1.086 1.086 0 0 0 17.024.75H6.976a1.087 1.087 0 0 0-1.063.724A37.431 37.431 0 0 0 4.5 12a37.431 37.431 0 0 0 1.413 10.526 1.086 1.086 0 0 0 1.063.724zM5.337 3.75h13.326M5.337 20.25h13.326M4.742 16.5h14.516m-14.516-9h14.526"/><path class="a" d="M10.5 9.75h.75a.75.75 0 0 1 .75.75v3.75m-1.5 0h3"/></svg>