<svg xmlns="http://www.w3.org/2000/svg" viewBox="0 0 24 24" width="24" height="24"><defs><style>.a{fill:none;stroke:#000;stroke-linecap:round;stroke-linejoin:round;stroke-width:1.5px}</style></defs><title>ui-webpage-play</title><path class="a" d="M11.307 16.582a.519.519 0 0 0-.535-.015.538.538 0 0 0-.272.469v3.428a.538.538 0 0 0 .272.469.521.521 0 0 0 .535-.014L14 19.2a.541.541 0 0 0 0-.91z"/><rect class="a" x=".75" y=".75" width="22.5" height="22.5" rx="1.5" ry="1.5"/><path class="a" d="M6 20.25l-1.5-1.467L6 17.315"/><rect class="a" x="3.75" y="3.75" width="16.5" height="10.5" rx=".75" ry=".75"/><path class="a" d="M18 20.25l1.5-1.467-1.5-1.468"/></svg>