<svg xmlns="http://www.w3.org/2000/svg" viewBox="0 0 24 24" width="24" height="24"><defs><style>.a{fill:none;stroke:#000;stroke-linecap:round;stroke-linejoin:round;stroke-width:1.5px}</style></defs><title>ui-webpage-template-add</title><path class="a" d="M9.75 20.25h4.5M12 18v4.5m-4.5.75H2.25a1.5 1.5 0 0 1-1.5-1.5V2.25a1.5 1.5 0 0 1 1.5-1.5h19.5a1.5 1.5 0 0 1 1.5 1.5v19.5a1.5 1.5 0 0 1-1.5 1.5H16.5M.75 6.75h22.5"/><path class="a" d="M19.5 9.419a.375.375 0 1 1-.375.375.375.375 0 0 1 .375-.375M.75 12.75h22.5m-6.75 6h6.75m-22.5 0H7.5m12-3.377a.375.375 0 1 1-.375.375.375.375 0 0 1 .375-.375m0-12.042a.375.375 0 1 1-.375.375.375.375 0 0 1 .375-.375"/></svg>