<svg xmlns="http://www.w3.org/2000/svg" viewBox="0 0 24 24" width="24" height="24"><defs><style>.a{fill:none;stroke:#000;stroke-linecap:round;stroke-linejoin:round;stroke-width:1.5px}</style></defs><title>ui-webpage-play-1</title><path class="a" d="M5.25 17.25l-1.5 1.5 1.5 1.5M6 15H3V2.25A1.5 1.5 0 0 1 4.5.75h15a1.5 1.5 0 0 1 1.5 1.5V15h-3"/><path class="a" d="M6 15H2.25a1.5 1.5 0 0 0-1.5 1.5V21a1.5 1.5 0 0 0 1.5 1.5H6m12.75-5.25l1.5 1.5-1.5 1.5"/><path class="a" d="M18 15h3.75a1.5 1.5 0 0 1 1.5 1.5V21a1.5 1.5 0 0 1-1.5 1.5H18m-7.885.66a.706.706 0 0 1-.75-.038.88.88 0 0 1-.365-.728v-5.788a.88.88 0 0 1 .365-.728.706.706 0 0 1 .75-.038l5.209 2.895a.9.9 0 0 1 0 1.53z"/></svg>