<svg xmlns="http://www.w3.org/2000/svg" viewBox="0 0 24 24" width="24" height="24"><defs><style>.a{fill:none;stroke:#000;stroke-linecap:round;stroke-linejoin:round;stroke-width:1.5px}</style></defs><title>ui-webpage-slider</title><path class="a" d="M14.077 18.75H6.75a1.5 1.5 0 0 1-1.5-1.5v-15a1.5 1.5 0 0 1 1.5-1.5h10.5a1.5 1.5 0 0 1 1.5 1.5v11.206M5.25 17.25h-3a1.5 1.5 0 0 1-1.5-1.5v-12a1.5 1.5 0 0 1 1.5-1.5h3m13.5 0h3a1.5 1.5 0 0 1 1.5 1.5v12M8.25 4.5h7.5m-7.5 3.75h7.5M8.25 12h3m5.106 4.356l2.651 6.894 1.591-2.652 2.652-1.591-6.894-2.651zm6.894 6.894l-2.652-2.652"/></svg>