<svg id="Regular" xmlns="http://www.w3.org/2000/svg" viewBox="0 0 24 24" width="24" height="24"><defs><style>.cls-1{fill:none;stroke:#000;stroke-linecap:round;stroke-linejoin:round;stroke-width:1.5px}</style></defs><title>underwear-female-set</title><path class="cls-1" d="M3.751 4.669V.75m1.867 3.307a1.306 1.306 0 0 0-1.427.18c-2.4 2.062-2.254 6.32-.621 7.953 1.48 1.481 5.65.811 7.381-1.278a1.307 1.307 0 0 0 .2-1.335 10.964 10.964 0 0 0-5.533-5.52z"/><path class="cls-1" d="M3.877 4.533a6.949 6.949 0 0 0 2.3 4.4 7.117 7.117 0 0 0 4.46 2.32m9.614-6.584V.75m-1.867 3.307a1.306 1.306 0 0 1 1.427.18c2.405 2.062 2.254 6.32.621 7.953-1.481 1.481-5.65.811-7.381-1.278a1.3 1.3 0 0 1-.2-1.335 10.956 10.956 0 0 1 5.533-5.52z"/><path class="cls-1" d="M20.124 4.533a6.944 6.944 0 0 1-2.3 4.4 7.117 7.117 0 0 1-4.46 2.32m-2.183-.753h1.639m-10.571 6A42.173 42.173 0 0 0 12 18a42.146 42.146 0 0 0 9.75-1.5"/><path class="cls-1" d="M17.9 17.378l-3.649 5.872h-4.5L6.1 17.378"/></svg>