<svg id="Regular" xmlns="http://www.w3.org/2000/svg" viewBox="0 0 24 24" width="24" height="24"><defs><style>.cls-1{fill:none;stroke:#000;stroke-linecap:round;stroke-linejoin:round;stroke-width:1.5px}</style></defs><title>underwear-boxers</title><path class="cls-1" d="M9.75 15.481v3.269a1.5 1.5 0 0 1-1.5 1.5h-6a1.5 1.5 0 0 1-1.5-1.5V4.5a.75.75 0 0 1 .75-.75h21a.75.75 0 0 1 .75.75v14.25a1.5 1.5 0 0 1-1.5 1.5h-6a1.5 1.5 0 0 1-1.5-1.5v-3.269M.75 6.75h22.5"/><path class="cls-1" d="M9 6.75v6.75a3 3 0 0 0 6 0V6.75"/></svg>