<svg id="Regular" xmlns="http://www.w3.org/2000/svg" viewBox="0 0 24 24" width="24" height="24"><defs><style>.cls-1{fill:none;stroke:#000;stroke-linecap:round;stroke-linejoin:round;stroke-width:1.5px}</style></defs><title>underwear-corset</title><path class="cls-1" d="M12 6.375S9.75 10.5 6.75 10.5a14.051 14.051 0 0 1-4.65-.936"/><path class="cls-1" d="M1.294 8.357A10.324 10.324 0 0 1 6 5.25c2.6-.649 5.191.948 5.844 1.39m-3.52 3.49A22.415 22.415 0 0 1 9 15.75c0 5.449-4.395 5.931-4.395 5.931"/><path class="cls-1" d="M12 23.25c5.25 0 10.5-3 10.5-3 0-3.75-3-4.5-3-6.75s3.75-4.125 3.75-7.125A5.694 5.694 0 0 0 17.625.75 5.624 5.624 0 0 0 12 6.375 5.624 5.624 0 0 0 6.375.75 5.694 5.694 0 0 0 .75 6.375c0 3 3.75 4.875 3.75 7.125s-3 3-3 6.75c0 0 5.25 3 10.5 3z"/><path class="cls-1" d="M12 6.375s2.25 4.125 5.25 4.125a14.056 14.056 0 0 0 4.65-.936"/><path class="cls-1" d="M22.706 8.357A10.33 10.33 0 0 0 18 5.25c-2.6-.649-5.191.948-5.844 1.39m3.52 3.49A22.415 22.415 0 0 0 15 15.75c0 5.45 4.4 5.931 4.4 5.931M11.625 13.5a.375.375 0 1 1 .375.375.375.375 0 0 1-.375-.375m0 5.25a.375.375 0 1 1 .375.375.375.375 0 0 1-.375-.375"/></svg>