<svg xmlns="http://www.w3.org/2000/svg" viewBox="0 0 24 24" width="24" height="24"><g fill="none" stroke="#000" stroke-linejoin="round" stroke-miterlimit="10"><path d="M17.484 6.485c0 4.021-10.965 4.021-10.965 0h0c-5.488 5-.732 6.839-.732 10.76 0 2.302-.674 3.954-1.232 5.016a.862.862 0 00.023.809c.141.235.396.416.67.416h13.625c.275 0 .529-.236.672-.471a.879.879 0 00.023-.816c-.559-1.062-1.234-2.628-1.234-4.93 0-3.921 4.639-5.784-.85-10.784h0z"/><path stroke-linecap="round" d="M6.5 6.485V.501m11 5.984V.501"/></g><path fill="none" d="M0 0h24v24H0z"/></svg>