<svg id="Regular" xmlns="http://www.w3.org/2000/svg" viewBox="0 0 24 24" width="24" height="24"><defs><style>.cls-1{fill:none;stroke:#000;stroke-linecap:round;stroke-linejoin:round;stroke-width:1.5px}</style></defs><title>underwear-bra</title><path class="cls-1" d="M2.415 12.133A1.5 1.5 0 0 0 .75 13.624V16.5a6 6 0 0 0 6 6 5.917 5.917 0 0 0 5.25-3c-1.342-5.02-4.678-6.831-9.585-7.367zm19.17 0a1.5 1.5 0 0 1 1.665 1.491V16.5a6 6 0 0 1-6 6 5.917 5.917 0 0 1-5.25-3c1.342-5.02 4.678-6.831 9.585-7.367zm-19.371-.009L5.25 1.5m16.535 10.624L18.75 1.5"/></svg>