<svg id="Regular" xmlns="http://www.w3.org/2000/svg" viewBox="0 0 24 24" width="24" height="24"><defs><style>.cls-1{fill:none;stroke:#000;stroke-linecap:round;stroke-linejoin:round;stroke-width:1.5px}</style></defs><title>underwear-shorts-male</title><path class="cls-1" d="M21.75 23.25h-6.329a1.5 1.5 0 0 1-1.456-1.136L12 15l-1.966 7.114a1.5 1.5 0 0 1-1.455 1.136H2.25a1.5 1.5 0 0 1-1.5-1.5V2.25a1.5 1.5 0 0 1 1.5-1.5h19.5a1.5 1.5 0 0 1 1.5 1.5v19.5a1.5 1.5 0 0 1-1.5 1.5zM.75 6h22.5"/><path class="cls-1" d="M9 6v5.25a3 3 0 0 0 1.2 2.4L12 15l1.8-1.35a3 3 0 0 0 1.2-2.4V6"/></svg>