<svg id="Regular" xmlns="http://www.w3.org/2000/svg" viewBox="0 0 24 24" width="24" height="24"><defs><style>.cls-1{fill:none;stroke:#000;stroke-linecap:round;stroke-linejoin:round;stroke-width:1.5px}</style></defs><title>underwear-shorts-male-1</title><path class="cls-1" d="M4 .75h16a1 1 0 0 1 1 1v2H3v-2a1 1 0 0 1 1-1zm17 7.5a4.5 4.5 0 0 1-4.5-4.5M3 8.25a4.5 4.5 0 0 0 4.5-4.5"/><path class="cls-1" d="M9.8 18.75l.515-7.512a1.7 1.7 0 0 1 3.372 0l.513 7.512H21v-15H3v15zm-6.8 0h6v3.5a1 1 0 0 1-1 1H4a1 1 0 0 1-1-1v-3.5zm3 0v4.5m9-4.5h6v3.5a1 1 0 0 1-1 1h-4a1 1 0 0 1-1-1v-3.5zm3 0v4.5"/></svg>