<svg xmlns="http://www.w3.org/2000/svg" viewBox="0 0 24 24" width="24" height="24"><defs><style>.a{fill:none;stroke:#000;stroke-linecap:round;stroke-linejoin:round;stroke-width:1.5px}</style></defs><title>upload-square-2</title><path class="a" d="M.752 2.251a1.5 1.5 0 0 1 1.5-1.5m0 22.5a1.5 1.5 0 0 1-1.5-1.5m22.5 0a1.5 1.5 0 0 1-1.5 1.5m0-22.5a1.5 1.5 0 0 1 1.5 1.5m0 15.75v-1.5m0-3.75v-1.5m0-3.75v-1.5m-22.5 12v-1.5m0-3.75v-1.5m0-3.75v-1.5m5.25-5.25h1.5m3.75 0h1.5m3.75 0h1.5m-12 22.5h1.5m3.75 0h1.5m3.75 0h1.5m-6-5.25v-12m4.5 4.5l-4.5-4.5-4.5 4.5"/></svg>