<svg xmlns="http://www.w3.org/2000/svg" viewBox="0 0 24 24" width="24" height="24"><defs><style>.a{fill:none;stroke:#000;stroke-linecap:round;stroke-linejoin:round;stroke-width:1.5px}</style></defs><title>usb-cable</title><path class="a" d="M16.5 6.75h-9v-4.5A1.5 1.5 0 0 1 9 .75h6a1.5 1.5 0 0 1 1.5 1.5zm1.5 0H6a1.5 1.5 0 0 0-1.5 1.5v2.507a3 3 0 0 0 .879 2.122L7.5 15v2.938a1.5 1.5 0 0 0 1.5 1.5h6a1.5 1.5 0 0 0 1.5-1.5V15l2.121-2.121a3 3 0 0 0 .879-2.122V8.25a1.5 1.5 0 0 0-1.5-1.5zm-6.75-3h1.5"/><path class="a" d="M10.5 11.25l1.5-1.5 1.5 1.5M12 19.438v3.812"/></svg>