<svg xmlns="http://www.w3.org/2000/svg" viewBox="0 0 24 24" width="24" height="24"><defs><style>.a,.b{fill:none;stroke:#000;stroke-linejoin:round;stroke-width:1.5px}.a{stroke-linecap:round}</style></defs><title>user-logout</title><path class="a" d="M20.999 2.254l2.25 3h-7.5m5.251 3l2.25-3"/><circle class="b" cx="6.75" cy="3.754" r="3"/><path class="b" d="M6.75 7.5a6 6 0 0 0-6 6v2.25a1.5 1.5 0 0 0 1.5 1.5h1.5v4.5a1.5 1.5 0 0 0 1.5 1.5h3a1.5 1.5 0 0 0 1.5-1.5v-4.5h1.5a1.5 1.5 0 0 0 1.5-1.5V13.5a6 6 0 0 0-6-6z"/></svg>