<svg xmlns="http://www.w3.org/2000/svg" viewBox="0 0 24 24" width="24" height="24"><defs><style>.a{fill:none;stroke:#000;stroke-linecap:round;stroke-linejoin:round;stroke-width:1.5px}</style></defs><title>user-cash-scale</title><path class="a" d="M18.75 6.75h-2.033a1.342 1.342 0 0 0-.5 2.587l2.064.825a1.342 1.342 0 0 1-.5 2.588H15.75m1.5-6V6m0 7.5v-.75"/><circle class="a" cx="17.25" cy="9.75" r="6"/><circle class="a" cx="4.5" cy="3.375" r="2.625"/><path class="a" d="M6.375 15.75l.375-3h1.5V10.5a3.75 3.75 0 0 0-7.5 0v2.25h1.5l.375 3m-1.875 3h22.5M15 23.25H9l3-3.75 3 3.75z"/></svg>