<svg xmlns="http://www.w3.org/2000/svg" viewBox="0 0 24 24" width="24" height="24"><defs><style>.a{fill:none;stroke:#000;stroke-linecap:round;stroke-linejoin:round;stroke-width:1.5px}</style></defs><title>user-polaroid</title><circle class="a" cx="12" cy="6.75" r="3"/><path class="a" d="M15.75 17.25V15a3.75 3.75 0 0 0-7.5 0v2.25h1.5l.75 6h3l.75-6zM.75.75h22.5M.75 23.25h22.5"/><path class="a" d="M2.25.75h19.5v22.5H2.25z"/><path class="a" d="M5.25 3.375a.375.375 0 1 1-.375.375.375.375 0 0 1 .375-.375m.375 6.375a.375.375 0 1 1-.375.375.375.375 0 0 1 .375-.375m0 9.75a.375.375 0 1 1-.375.375.375.375 0 0 1 .375-.375m12 .75a.375.375 0 1 1-.375.375.375.375 0 0 1 .375-.375m1.5-6.75a.375.375 0 1 1-.375.375.375.375 0 0 1 .375-.375m-.75-7.5a.375.375 0 1 1-.375.375.375.375 0 0 1 .375-.375"/></svg>