<svg xmlns="http://www.w3.org/2000/svg" viewBox="0 0 24 24" width="24" height="24"><defs><style>.a{fill:none;stroke:#000;stroke-linecap:round;stroke-linejoin:round;stroke-width:1.5px}</style></defs><title>user-question</title><path class="a" d="M15.5 23.25v-3.739l1.007.168A3 3 0 0 0 20 16.719v-2.458l.935-.234a1.5 1.5 0 0 0 .884-2.287L20 9.011v-.75C20 3.835 15.521.3 10.182.8A8.994 8.994 0 0 0 6.5 17.547v5.7"/><path class="a" d="M8.572 8.25a3 3 0 1 1 4 2.829 1.5 1.5 0 0 0-1 1.415v.256m0 3a.375.375 0 1 0 .375.375.375.375 0 0 0-.375-.375"/></svg>