<svg xmlns="http://www.w3.org/2000/svg" viewBox="0 0 24 24" width="24" height="24"><defs><style>.a{fill:none;stroke:#000;stroke-linecap:round;stroke-linejoin:round;stroke-width:1.5px}</style></defs><title>user-live</title><path class="a" d="M9.149 23.23v-4.458m3 0v1.293a5.129 5.129 0 0 0 1.125 3.165 5.122 5.122 0 0 0 1.126-3.165v-1.293m-10.5 0v3.533a1.055 1.055 0 0 0 1.125.967h1.124m13.167 0h-.958a.931.931 0 0 1-.959-.9v-2.7a.931.931 0 0 1 .959-.9h.958m-1.917 2.25h2.25M6.2 11.907a6 6 0 1 1 11.136.022M4.69 14.414a8.664 8.664 0 1 1 14.168 0"/><circle class="a" cx="11.774" cy="9.304" r="2.625"/><path class="a" d="M16 15.679a4.474 4.474 0 0 0-8.449 0z"/></svg>