<svg xmlns="http://www.w3.org/2000/svg" viewBox="0 0 24 24" width="24" height="24"><defs><style>.a{fill:none;stroke:#000;stroke-linecap:round;stroke-linejoin:round;stroke-width:1.5px}</style></defs><title>user-woman-stress</title><path class="a" d="M20.249 1.25L18.28 3.218l.984 1.477-1.968 1.477M3.749 1.242l1.969 1.969-.985 1.476 1.969 1.477M12.327.75l-.984 1.476.984.985m-4.499 7.775v1a5.906 5.906 0 0 1-.859 3.272m9.106-4.272v1a5.905 5.905 0 0 0 .86 3.272M7.84 11.2a5.486 5.486 0 0 0 4.112-1.9 5.486 5.486 0 0 0 4.112 1.9"/><circle class="a" cx="11.952" cy="10.875" r="4.125"/><path class="a" d="M18.7 23.25a6.741 6.741 0 0 0-4.243-6.257L11.952 19.5l-2.507-2.507A6.741 6.741 0 0 0 5.2 23.25"/></svg>