<svg id="Regular" xmlns="http://www.w3.org/2000/svg" viewBox="0 0 24 24" width="24" height="24"><defs><style>.cls-1{fill:none;stroke:#000;stroke-linecap:round;stroke-linejoin:round;stroke-width:1.5px}</style></defs><title>uv-high-1</title><path class="cls-1" d="M8.25.75h-6a1.5 1.5 0 0 0-1.5 1.5v19.5a1.5 1.5 0 0 0 1.5 1.5h6a1.5 1.5 0 0 0 1.5-1.5v-4.5"/><circle class="cls-1" cx="15.75" cy="8.25" r="7.5"/><path class="cls-1" d="M11.25 6v3.75a1.5 1.5 0 0 0 3 0V6m3 0v.3a8.932 8.932 0 0 0 1.5 4.954 8.932 8.932 0 0 0 1.5-4.954V6M3.75 20.25h3m-3-3h3m-3-3h3m-3-3H6m-2.25-3h1.5m-1.5-3H6"/></svg>