<svg id="Regular" xmlns="http://www.w3.org/2000/svg" viewBox="0 0 24 24" width="24" height="24"><defs><style>.cls-1{fill:none;stroke:#000;stroke-linecap:round;stroke-linejoin:round;stroke-width:1.5px}</style></defs><title>uv-sun</title><path class="cls-1" d="M12 2.25V.75m6.894 4.356l1.061-1.061M5.106 18.894l-1.061 1.061M2.25 12H.75m21 0h1.5M5.106 5.106L4.045 4.045M18.337 14.25a6.737 6.737 0 1 0-7.837 4.32m3.75-.57v3.75a1.5 1.5 0 0 0 3 0V18m3 0v.3a8.932 8.932 0 0 0 1.5 4.954 8.932 8.932 0 0 0 1.5-4.954V18"/></svg>