<svg xmlns="http://www.w3.org/2000/svg" viewBox="0 0 24 24" width="24" height="24"><g fill="none" stroke="#000" stroke-linecap="round" stroke-linejoin="round" stroke-miterlimit="10"><path d="M3.5 19.495v-11c0-4.694 3.806-7 8.5-7s8.5 2.306 8.5 7v11m-18 0h19v2h-19zm2-14h15m-7.5 0v5m8.5.191a10.51 10.51 0 00-8.394 8.81m-.211-.002A10.513 10.513 0 003.5 10.685"/><circle cx="7" cy="16.495" r="1.5"/><circle cx="17" cy="16.495" r="1.5"/><path d="M3.5 9.995H2a1.5 1.5 0 00-.988 2.629L3.5 14.495m17-4h-17m17 4l2.488-1.872A1.5 1.5 0 0022 9.995h-1.5M5 21.513v1.232c0 .414.586.75 1 .75s1-.336 1-.75v-1.25m10 .018v1.232c0 .414.586.75 1 .75s1-.336 1-.75v-1.25"/></g><path fill="none" d="M0 0h24v24H0z"/></svg>