<svg xmlns="http://www.w3.org/2000/svg" viewBox="0 0 24 24" width="24" height="24"><defs><style>.a{fill:none;stroke:#000;stroke-linecap:round;stroke-linejoin:round;stroke-width:1.5px}</style></defs><title>vectors-pen-anchor</title><rect class="a" x="9.75" y="1.371" width="4.5" height="4.5" rx=".75" ry=".75" transform="rotate(-45 12 3.621)"/><rect class="a" x="1.371" y="9.75" width="4.5" height="4.5" rx=".75" ry=".75" transform="rotate(-45 3.62 12)"/><rect class="a" x="18.129" y="9.75" width="4.5" height="4.5" rx=".75" ry=".75" transform="rotate(-45 20.379 12)"/><path class="a" d="M10.409 5.212l-5.197 5.197m8.379-5.197l5.197 5.197m-7.496-.688l-2.985 5.97a4.187 4.187 0 0 0 .784 4.833 4.187 4.187 0 0 0 5.921 0 4.187 4.187 0 0 0 .784-4.833l-2.985-5.97a.849.849 0 0 0-1.519 0zm.76-.469v7.217M7.5 23.25h9"/></svg>