<svg xmlns="http://www.w3.org/2000/svg" viewBox="0 0 24 24" width="24" height="24"><defs><style>.a{fill:none;stroke:#000;stroke-linecap:round;stroke-linejoin:round;stroke-width:1.5px}</style></defs><title>vectors-square-link-broken</title><rect class="a" x=".75" y=".75" width="4.5" height="4.5" rx=".563" ry=".563"/><rect class="a" x="18.75" y=".75" width="4.5" height="4.5" rx=".563" ry=".563"/><path class="a" d="M5.25 3h13.5M5.25 19.5h5.25"/><rect class="a" x=".75" y="17.25" width="4.5" height="4.5" rx=".563" ry=".563"/><path class="a" d="M3 17.25v-12m18 5.25V5.25m-3.584 10.064l1.51-1.509a1.562 1.562 0 0 1 2.2-.082l1.06 1.061a1.561 1.561 0 0 1-.081 2.2L20.6 18.5m-2.123 2.118l-1.509 1.509a1.562 1.562 0 0 1-2.2.082L13.7 21.148a1.561 1.561 0 0 1 .082-2.2l1.518-1.512m.45-3.713v-1.06m-2.046 3.106h-1.061m9.546 4.5h1.061m-3 1.94v1.041"/></svg>