<svg xmlns="http://www.w3.org/2000/svg" viewBox="0 0 24 24" width="24" height="24"><defs><style>.a{fill:none;stroke:#000;stroke-linecap:round;stroke-linejoin:round;stroke-width:1.5px}</style></defs><title>vectors-pen-new-anchor</title><path class="a" d="M13.5 16.564a10.215 10.215 0 0 1 6.761 3.686M10.5 16.564a10.215 10.215 0 0 0-6.761 3.686M10.5 15h3v3h-3zm9 5.25h3v3h-3zm-18 0h3v3h-3zM9.688 3.181A3.274 3.274 0 0 0 9.07 6.96l2.33 4.672a.664.664 0 0 0 1.188 0l2.341-4.666a3.274 3.274 0 0 0-.608-3.78M15 .75H9"/></svg>