<svg xmlns="http://www.w3.org/2000/svg" viewBox="0 0 24 24" width="24" height="24"><defs><style>.a{fill:none;stroke:#000;stroke-linecap:round;stroke-linejoin:round;stroke-width:1.5px}</style></defs><title>vectors-pen-draw</title><path class="a" d="M15.246 16.692l6.354-6.333a5.626 5.626 0 0 0 1.06-6.491 5.625 5.625 0 0 0-7.543-2.527 5.626 5.626 0 0 0-3.061 5.823l1.255 8.88a1.141 1.141 0 0 0 1.935.648zm-1.167.273L16.96 8.36M.75 11.257c3.1-3.939 6.037-2.119 6.037-.145 0 2.121-3.892 5.039-3.892 8.185a4.071 4.071 0 0 0 4.317 3.953 8.327 8.327 0 0 0 5.49-2.529"/><circle class="a" cx="17.51" cy="6.719" r="1.731"/></svg>