<svg xmlns="http://www.w3.org/2000/svg" viewBox="0 0 24 24" width="24" height="24"><defs><style>.a{fill:none;stroke:#000;stroke-linecap:round;stroke-linejoin:round;stroke-width:1.5px}</style></defs><title>vectors-square-link</title><path class="a" d="M17.553 21.791l-.959.958a1.854 1.854 0 0 1-2.618-.064l-.671-.671a1.854 1.854 0 0 1-.064-2.618l2.738-2.738a1.588 1.588 0 0 1 2.244.055l.527.527"/><path class="a" d="M18.335 14.3l1.006-1a1.9 1.9 0 0 1 2.683 0l.67.67a1.9 1.9 0 0 1 0 2.683l-2.874 2.87a1.625 1.625 0 0 1-2.3 0L16.994 19"/><rect class="a" x=".75" y=".74" width="4.5" height="4.5" rx=".563" ry=".563"/><rect class="a" x="18.75" y=".74" width="4.5" height="4.5" rx=".563" ry=".563"/><path class="a" d="M5.25 2.99h13.5m-13.5 16.5h5.25"/><rect class="a" x=".75" y="17.24" width="4.5" height="4.5" rx=".563" ry=".563"/><path class="a" d="M3 17.24v-12m18 5.25V5.24"/></svg>