<svg xmlns="http://www.w3.org/2000/svg" viewBox="0 0 24 24" width="24" height="24"><defs><style>.a{fill:none;stroke:#000;stroke-linecap:round;stroke-linejoin:round;stroke-width:1.5px}</style></defs><title>vectors-pen-subtract-1</title><path class="a" d="M.75 2.625h7.5m11.897 8.401l-4.7-4.7L17.972 3.8a1.968 1.968 0 0 1 2.784 0l1.918 1.918a1.969 1.969 0 0 1 0 2.783z"/><path class="a" d="M20.147 11.026l-4.7-4.7-6.072 2.547A2.216 2.216 0 0 0 7.853 10.4L5.119 20.669a.554.554 0 0 0 .685.685l10.273-2.734A2.219 2.219 0 0 0 17.6 17.1zM5.26 21.213l7.466-7.467"/></svg>