<svg id="Regular" xmlns="http://www.w3.org/2000/svg" viewBox="0 0 24 24" width="24" height="24"><defs><style>.cls-1{fill:none;stroke:#000;stroke-linecap:round;stroke-linejoin:round;stroke-width:1.5px}</style></defs><title>vegetables-pumpkin</title><path class="cls-1" d="M12.166 23.25a3.12 3.12 0 0 1-3.248-2.616L7.845 9.361c-.21-2.213 1.784-4.111 4.321-4.111 2.536 0 4.53 1.9 4.32 4.111l-1.073 11.273a3.119 3.119 0 0 1-3.247 2.616zm0-18V.75"/><path class="cls-1" d="M8.41 7.149a3.382 3.382 0 0 0-1.592-.4A3.79 3.79 0 0 0 3.2 10.1a21.79 21.79 0 0 0 1.64 11.261 2.828 2.828 0 0 0 2.6 1.889 2.71 2.71 0 0 0 2.15-1.105m6.249-15.116a3.363 3.363 0 0 1 1.343-.279A3.79 3.79 0 0 1 20.8 10.1a21.79 21.79 0 0 1-1.64 11.261 2.828 2.828 0 0 1-2.6 1.889 2.681 2.681 0 0 1-2-.92"/></svg>