<svg id="Regular" xmlns="http://www.w3.org/2000/svg" viewBox="0 0 24 24" width="24" height="24"><defs><style>.cls-1{fill:none;stroke:#000;stroke-linecap:round;stroke-linejoin:round;stroke-width:1.5px}</style></defs><title>vegetables-plate</title><circle class="cls-1" cx="11.999" cy="12" r="11.25"/><path class="cls-1" d="M14.735 16.851a2.4 2.4 0 0 1-4.134 2.4l-4.541-6.8a1.5 1.5 0 0 1 .494-2.13L8.98 8.914a1.5 1.5 0 0 1 2.095.625zm-7.058-1.976l2.351-1.366m-2.261-3.89L4.314 8.155m3.453 1.464l.438-3.725m4.169.906a3 3 0 0 1 5.25 2.9z"/><path class="cls-1" d="M16.418 9.036a3 3 0 0 0-2.169 1.512l5.25 2.9a3 3 0 0 0-1.643-4.287"/></svg>