<svg id="Regular" xmlns="http://www.w3.org/2000/svg" viewBox="0 0 24 24" width="24" height="24"><defs><style>.cls-1{fill:none;stroke:#000;stroke-linecap:round;stroke-linejoin:round;stroke-width:1.5px}</style></defs><title>vegetables-beet</title><path class="cls-1" d="M19.5 12.162c0-3.422-3.358-5.412-7.5-5.412s-7.5 1.99-7.5 5.412c0 2.813 5.071 6.185 6.873 7.176a1.294 1.294 0 0 0 1.254 0c1.802-.991 6.873-4.363 6.873-7.176zM12 23.25V19.5"/><path class="cls-1" d="M14.722 7.064l2.217-2.021a1.932 1.932 0 1 0-2.733-2.732l-.036.036A1.815 1.815 0 0 0 12.258.75a1.816 1.816 0 0 0-1.909 1.568l-.007-.007A1.932 1.932 0 0 0 7.61 5.043l2.117 1.922M12 19.5a3.75 3.75 0 0 1 3.75 3.75M12 19.5a3.75 3.75 0 0 0-3.75 3.75"/></svg>