<svg id="Regular" xmlns="http://www.w3.org/2000/svg" viewBox="0 0 24 24" width="24" height="24"><defs><style>.cls-1{fill:none;stroke:#000;stroke-linecap:round;stroke-linejoin:round;stroke-width:1.5px}</style></defs><title>vegetables-mushroom-soup</title><ellipse class="cls-1" cx="11.999" cy="5.25" rx="11.25" ry="4.5"/><path class="cls-1" d="M21.744 12a9.925 9.925 0 0 0 1.5-5.25v-1.5m-22.495 0v1.5a10.049 10.049 0 0 0 2.633 6.75M20 8.412a1.872 1.872 0 0 0 .246-.912c0-2.071-3.693-3.75-8.25-3.75S3.749 5.429 3.749 7.5A1.873 1.873 0 0 0 4 8.412M9.749 6.75h1.5m3 0h1.5m-.349 12a1.5 1.5 0 0 1-1.3-2.25 4.5 4.5 0 0 1 7.795 0 1.5 1.5 0 0 1-1.3 2.25z"/><path class="cls-1" d="M20.249 21a2.25 2.25 0 0 1-4.5 0v-2.25h4.5zM6.5 21.407a1.5 1.5 0 0 1-2.538-.558 4.5 4.5 0 0 1 5.251-5.761A1.5 1.5 0 0 1 10 17.564z"/><path class="cls-1" d="M11.428 19.337A2.25 2.25 0 1 1 8.4 22.663l-1.666-1.515 3.031-3.326z"/></svg>