<svg id="Regular" xmlns="http://www.w3.org/2000/svg" viewBox="0 0 24 24" width="24" height="24"><defs><style>.cls-1{fill:none;stroke:#000;stroke-linecap:round;stroke-linejoin:round;stroke-width:1.5px}</style></defs><title>vegetables-corn</title><path class="cls-1" d="M13.769 16.428a13.347 13.347 0 0 0-2.422 6.822h.2a7.88 7.88 0 0 0 7.857-7.277 8.054 8.054 0 0 1 1.74-4.41l.416-.519a.415.415 0 0 0-.488-.641 16.3 16.3 0 0 0-7.303 6.025z"/><path class="cls-1" d="M11.347 23.25a6.689 6.689 0 0 1-6.669-6.176l-.085-1.1a8.046 8.046 0 0 0-1.74-4.41l-.415-.519a.415.415 0 0 1 .488-.641 15.623 15.623 0 0 1 9.012 9.7"/><path class="cls-1" d="M7.274 13.081l.748-8.595A4.09 4.09 0 0 1 12.1.75a4.091 4.091 0 0 1 4.075 3.736l.734 8.444M7.955 5.25h3.392m1.5 3h3.652m-9.065 3h3.163"/></svg>