<svg id="Regular" xmlns="http://www.w3.org/2000/svg" viewBox="0 0 24 24" width="24" height="24"><defs><style>.cls-1{fill:none;stroke:#000;stroke-linecap:round;stroke-linejoin:round;stroke-width:1.5px}</style></defs><title>vegetables-broccoli</title><path class="cls-1" d="M15.68 13.774a13.115 13.115 0 0 0-5.452-5.456m-2.349.001c-.579 3.734-2.963 6.65-6.537 9.365a1.511 1.511 0 0 0-.149 2.269l2.854 2.854a1.511 1.511 0 0 0 2.269-.15c2.715-3.573 5.631-5.958 9.364-6.536"/><path class="cls-1" d="M11.6 17.616a4.534 4.534 0 0 0 8.934-.66 4.5 4.5 0 0 0 1.387-.937 4.529 4.529 0 0 0-1.412-7.382 4.511 4.511 0 0 0-5.143-5.144 4.527 4.527 0 0 0-8.32-.024 4.538 4.538 0 0 0-.662 8.931m4.926-5.751a2.275 2.275 0 0 1-4.427.405m3.241 4.677l2.107-2.107m.038 4.251l2.105-2.106m2.977.921a2.275 2.275 0 0 0-.406 4.427"/></svg>