<svg xmlns="http://www.w3.org/2000/svg" viewBox="0 0 24 24" width="24" height="24"><g fill="none" stroke="#000" stroke-linecap="round" stroke-linejoin="round" stroke-miterlimit="10"><path d="M8.5 20.5a3 3 0 11-6 0M17.296 16H19.5c2.209 0 4 1.566 4 3.5h-8.704m-3.296-5a1 1 0 01-1 1h-7l-2-2.001V12.5h10v2zm8-1.5a2 2 0 010-4v4z"/><path d="M14.5 7.5H16A1.5 1.5 0 0117.5 9v5.5a6 6 0 01-6 6H.5a5 5 0 015-5H8a5 5 0 014.972 4.469l.021.344m3.68-.813a3 3 0 105.826 1c0-.352-.062-.686-.175-1"/></g><path fill="none" d="M0 0h24v24H0z"/></svg>