<svg id="Regular" xmlns="http://www.w3.org/2000/svg" viewBox="0 0 24 24" width="24" height="24"><defs><style>.cls-1{fill:none;stroke:#000;stroke-linecap:round;stroke-linejoin:round;stroke-width:1.5px}</style></defs><title>vest-1</title><ellipse class="cls-1" cx="12" cy="2.25" rx="3.75" ry="1.5"/><path class="cls-1" d="M8.25 2.25v3c0 .828 1.679 1.5 3.75 1.5s3.75-.672 3.75-1.5v-3M12 3.75v19.5m-3.75-6l-1.5 1.5"/><path class="cls-1" d="M15.75 5.25l3.75 1.5v1.8a5.052 5.052 0 0 0 2.25 4.2l-1.5 9a24.756 24.756 0 0 1-8.25 1.5 24.756 24.756 0 0 1-8.25-1.5l-1.5-9a5.052 5.052 0 0 0 2.25-4.2v-1.8l3.75-1.5m7.5 12l1.5 1.5"/></svg>