<svg id="Regular" xmlns="http://www.w3.org/2000/svg" viewBox="0 0 24 24" width="24" height="24"><defs><style>.cls-1{fill:none;stroke:#000;stroke-linecap:round;stroke-linejoin:round;stroke-width:1.5px}</style></defs><title>vest-male</title><path class="cls-1" d="M8.25.75h7.5m0 0l4.5 1.5v4.5a3 3 0 0 0 2 2.829 1.5 1.5 0 0 1 1 1.415v8.446a1.5 1.5 0 0 1-.943 1.393l-5.774 2.31a1.5 1.5 0 0 1-1.457-.193l-5.326-4.2v-9c6-2.25 6-9 6-9z"/><path class="cls-1" d="M12 8.521C8.251 5.684 8.25.75 8.25.75l-4.5 1.5v4.5a3 3 0 0 1-2 2.829 1.5 1.5 0 0 0-1 1.415v8.446a1.5 1.5 0 0 0 .943 1.393l5.774 2.31a1.5 1.5 0 0 0 1.457-.193L12 20.525M.75 15.75h4.5m13.5 0h4.5m-10.875-3a.375.375 0 1 1 .375.375.375.375 0 0 1-.375-.375m0 3.75a.375.375 0 1 1 .375.375.375.375 0 0 1-.375-.375"/></svg>