<svg id="Regular" xmlns="http://www.w3.org/2000/svg" viewBox="0 0 24 24" width="24" height="24"><defs><style>.cls-1{fill:none;stroke:#000;stroke-linecap:round;stroke-linejoin:round;stroke-width:1.5px}</style></defs><title>vest-female</title><path class="cls-1" d="M15.75.754l4.8 1.254a1.5 1.5 0 0 1 1.2 1.538 33.528 33.528 0 0 1-2.97 12.208l2.511 3.946a.75.75 0 0 1-.354 1.1l-4.384 2.343a1.5 1.5 0 0 1-1.483-.213l-3.82-4.172v-9c4.5-2.258 4.5-9.004 4.5-9.004z"/><path class="cls-1" d="M13.875 12.754a.375.375 0 1 1 .375.375.375.375 0 0 1-.375-.375m0 3.746a.375.375 0 1 1 .375.375.375.375 0 0 1-.375-.375M12 9.31C8.25 6.731 8.25.754 8.25.754l-4.8 1.254a1.5 1.5 0 0 0-1.2 1.538 33.52 33.52 0 0 0 2.97 12.208L2.709 19.7a.749.749 0 0 0 .354 1.1l4.384 2.342a1.5 1.5 0 0 0 1.483-.212L12 19.573M8.25.754h7.5"/></svg>