<svg xmlns="http://www.w3.org/2000/svg" viewBox="0 0 24 24" width="24" height="24"><defs><style>.a{fill:none;stroke:#000;stroke-linecap:round;stroke-linejoin:round;stroke-width:1.5px}</style></defs><title>video-player-subtitle</title><path class="a" d="M21.75 18.75h-10.5l-6 4.5v-4.5h-3a1.5 1.5 0 0 1-1.5-1.5v-15a1.5 1.5 0 0 1 1.5-1.5h19.5a1.5 1.5 0 0 1 1.5 1.5v15a1.5 1.5 0 0 1-1.5 1.5z"/><path class="a" d="M9.778 10.439a.575.575 0 0 1-.519 0 .457.457 0 0 1-.259-.4V4.214a.457.457 0 0 1 .259-.4.575.575 0 0 1 .519 0l5.71 2.911a.441.441 0 0 1 0 .806zM3.75 14.25h16.5m-13.5-1.5v3"/></svg>