<svg id="Regular" xmlns="http://www.w3.org/2000/svg" viewBox="0 0 24 24" width="24" height="24"><defs><style>.cls-1{fill:none;stroke:#000;stroke-linecap:round;stroke-linejoin:round;stroke-width:1.5px}</style></defs><title>video-game-mario-flame</title><ellipse class="cls-1" cx="14.106" cy="14.103" rx="5.615" ry="5.639"/><path class="cls-1" d="M12.702 13.399v1.409m2.808-1.409v1.409M2.875 1.415v2.82m-1.404-1.41h2.808M22.529 14.1V5a.7.7 0 0 0-1.141-.55l-2.369 1.9s-1.165-1.17-.841-4.045a.708.708 0 0 0-.222-.6.7.7 0 0 0-.611-.174A9.641 9.641 0 0 0 10.6 7.054a6.221 6.221 0 0 1-.847-2.289.7.7 0 0 0-1.267-.3 16.494 16.494 0 0 0-2.8 9.641 8.423 8.423 0 1 0 16.846 0zM2.875 10.226a.352.352 0 0 1 .351.353m-.702 0a.352.352 0 0 1 .351-.353m0 .705a.351.351 0 0 1-.351-.352m.702 0a.351.351 0 0 1-.351.352m4.212-9.868a.352.352 0 0 1 .351.352m-.702 0a.351.351 0 0 1 .351-.352m0 .704a.351.351 0 0 1-.351-.352m.702 0a.352.352 0 0 1-.351.352"/></svg>