<svg id="Regular" xmlns="http://www.w3.org/2000/svg" viewBox="0 0 24 24" width="24" height="24"><defs><style>.cls-1{fill:none;stroke:#000;stroke-linecap:round;stroke-linejoin:round;stroke-width:1.5px}</style></defs><title>video-game-kirby-2</title><path class="cls-1" d="M6.01 6.236A7.5 7.5 0 0 1 18 6.249m1.272 2.659a7.5 7.5 0 1 1-14.544 0M7.5 10.75h.75m7.5 0h.75m-6.75-3v1.5m4.5-1.5v1.5"/><path class="cls-1" d="M4.728 8.908C1.367 7.3-.132 3.691 1.279 2.279 2.557 1 5.634 2.109 7.4 4.825m11.872 4.083c3.361-1.611 4.86-5.217 3.449-6.629C21.443 1 18.366 2.109 16.6 4.825M9.76 17.91a3.477 3.477 0 0 1-.425 2.516c-.863 1.494-2.535 2.146-3.727 1.456s-1.466-2.462-.6-3.956A3.477 3.477 0 0 1 6.959 16.3m7.281 1.61a3.477 3.477 0 0 0 .425 2.516c.863 1.494 2.532 2.146 3.727 1.456s1.466-2.462.6-3.956a3.477 3.477 0 0 0-1.951-1.626M12 12.625a.375.375 0 0 1 .375.375m-.75 0a.375.375 0 0 1 .375-.375m0 .75a.375.375 0 0 1-.375-.375m.75 0a.375.375 0 0 1-.375.375"/></svg>