<svg xmlns="http://www.w3.org/2000/svg" viewBox="0 0 24 24" width="24" height="24"><defs><style>.a{fill:none;stroke:#000;stroke-linecap:round;stroke-linejoin:round;stroke-width:1.5px}</style></defs><title>video-player-movie-1</title><path class="a" d="M23.25 9v12.75a1.5 1.5 0 0 1-1.5 1.5H2.25a1.5 1.5 0 0 1-1.5-1.5V9m22.5-3H.75V2.25a1.5 1.5 0 0 1 1.5-1.5h19.5a1.5 1.5 0 0 1 1.5 1.5zM7.5 6L9 .75M15 6L16.5.75"/><path class="a" d="M9.488 18.66a.856.856 0 0 1-1.238-.766v-5.788a.856.856 0 0 1 1.238-.766l5.789 2.895a.855.855 0 0 1 0 1.53z"/></svg>