<svg xmlns="http://www.w3.org/2000/svg" viewBox="0 0 24 24" width="24" height="24"><defs><style>.a{fill:none;stroke:#000;stroke-linecap:round;stroke-linejoin:round;stroke-width:1.5px}</style></defs><title>video-file-camera</title><path class="a" d="M22.5 21.75a1.5 1.5 0 0 1-1.5 1.5H3a1.5 1.5 0 0 1-1.5-1.5V2.25A1.5 1.5 0 0 1 3 .75h15.045a1.5 1.5 0 0 1 1.048.426l2.954 2.883a1.5 1.5 0 0 1 .453 1.074z"/><path class="a" d="M17.689 10.932a.751.751 0 0 0-.676-.1L13.5 12v-.75a1.5 1.5 0 0 0-1.5-1.5H7.5a1.5 1.5 0 0 0-1.5 1.5v4.5a1.5 1.5 0 0 0 1.5 1.5H12a1.5 1.5 0 0 0 1.5-1.5V15l3.513 1.171a.749.749 0 0 0 .987-.712v-3.918a.751.751 0 0 0-.311-.609z"/></svg>