<svg xmlns="http://www.w3.org/2000/svg" viewBox="0 0 24 24" width="24" height="24"><defs><style>.a{fill:none;stroke:#000;stroke-linecap:round;stroke-linejoin:round;stroke-width:1.5px}</style></defs><title>vide-document-mp4-1</title><path class="a" d="M23.25 21v.75a1.5 1.5 0 0 1-1.5 1.5H2.25a1.5 1.5 0 0 1-1.5-1.5V21m0-13.5V2.25a1.5 1.5 0 0 1 1.5-1.5h19.5a1.5 1.5 0 0 1 1.5 1.5V7.5M7.5 18v-7.5l-2.25 3.75L3 10.5V18m7.5 0v-7.5m0 0h.75a2.25 2.25 0 0 1 0 4.5h-.75m10.481 3v-1.5m0 0v-5.985A8.26 8.26 0 0 0 16.5 16.5h4.481"/></svg>