<svg xmlns="http://www.w3.org/2000/svg" viewBox="0 0 24 24" width="24" height="24"><defs><style>.a{fill:none;stroke:#000;stroke-linecap:round;stroke-linejoin:round;stroke-width:1.5px}</style></defs><title>video-game-logo-playstation</title><path class="a" d="M10.533 1.935v18.1a.488.488 0 0 0 .27.438l2.739 1.727a.49.49 0 0 0 .708-.438V3.01L11.24 1.5a.489.489 0 0 0-.707.435zm6.852 2.647l-.135 6.575a.481.481 0 0 0 .283.45c.648.26.562.112 1.176-.244a2.286 2.286 0 0 0 1.14-1.979v-.555a4.892 4.892 0 0 0-2.464-4.247zM14.25 3.01l3.135 1.572m4.32 9.918l.169.063a2.122 2.122 0 0 1 .361 3.8L18 21.01a.489.489 0 0 1-.723-.429v-1.525a.489.489 0 0 1 .27-.438l2.037-1.318s2.651-1.2 2.121-2.8zm0 0a6.416 6.416 0 0 0-2.368-.342M6.755 15.935a.489.489 0 0 1 .661.458v1.5a.489.489 0 0 1-.322.46l-1.229.584a4 4 0 0 1-4.647-1.467 2.585 2.585 0 0 1 1.068-3.847l4.443-2.2a.489.489 0 0 1 .687.447v1.46a.488.488 0 0 1-.307.454l-2.585 1.204a.906.906 0 0 0 .654 1.689z"/></svg>