<svg id="Regular" xmlns="http://www.w3.org/2000/svg" viewBox="0 0 24 24" width="24" height="24"><defs><style>.cls-1{fill:none;stroke:#000;stroke-linecap:round;stroke-linejoin:round;stroke-width:1.5px}</style></defs><title>video-game-knight</title><path class="cls-1" d="M8.75 18.587c0 2.107-2.85 4.663-3.75 4.663s-3.75-2.556-3.75-4.663v-4.663a.448.448 0 0 1 .469-.424h6.562a.448.448 0 0 1 .469.424zM21.5 5.036c0-.711-.672-3-1.5-3s-1.5 2.289-1.5 3v12.428a1.518 1.518 0 0 0 3 0zM17 13.5h6"/><path class="cls-1" d="M12.607 9.643a.378.378 0 0 0-.11.251 3.75 3.75 0 0 1-7.497 0 .378.378 0 0 0-.11-.251l-1.5-1.5a.375.375 0 0 1 .265-.64h.97A.375.375 0 0 0 5 7.125v-.75A.375.375 0 0 1 5.375 6h6.75a.375.375 0 0 1 .375.375v.75a.375.375 0 0 0 .375.375h.97a.375.375 0 0 1 .265.64zM12.5 6A5.857 5.857 0 0 0 11 2.25 4.767 4.767 0 0 0 8.062.753a.374.374 0 0 0-.115.01l-5.183 1.3a.375.375 0 0 0-.134.664l2.22 1.661a.374.374 0 0 1 .15.3V6"/><path class="cls-1" d="M10.776 12.906A5.253 5.253 0 0 1 14.75 18v5.25"/></svg>