<svg id="Regular" xmlns="http://www.w3.org/2000/svg" viewBox="0 0 24 24" width="24" height="24"><defs><style>.cls-1{fill:none;stroke:#000;stroke-linecap:round;stroke-linejoin:round;stroke-width:1.5px}</style></defs><title>video-game-mario-tree</title><path class="cls-1" d="M18.75 7.849v12.4a3 3 0 0 0 3 3h1.5m-22.5.001h4.5a3 3 0 0 0 3-3v-12m-3 6h6m0-4.5v1.5m3-1.5v1.5m3-6a3 3 0 0 1-6 0m0 0a3 3 0 0 1-3 3h-1.5"/><path class="cls-1" d="M17.25 5.25a3 3 0 0 0 3 3h1.5m-7.5 10.5a1.5 1.5 0 0 1-3 0v-1.5h3zm-12-18v1.5m3 .75v1.5M9.75.75v1.5m10.5.75v1.5m3-3.75v1.5m-22.5 3a4.5 4.5 0 0 0 4.5 4.5 1.5 1.5 0 0 0 1.5 1.5h1.5m10.5 0h3a1.5 1.5 0 0 0 1.5-1.5"/></svg>