<svg id="Regular" xmlns="http://www.w3.org/2000/svg" viewBox="0 0 24 24" width="24" height="24"><defs><style>.cls-1{fill:none;stroke:#000;stroke-linecap:round;stroke-linejoin:round;stroke-width:1.5px}</style></defs><title>video-game-kirby-1</title><path class="cls-1" d="M9.621 7.684V9.27m4.758-1.586V9.27m-4.832 3.891a.478.478 0 0 1 .073-.735l2.115-1.41a.478.478 0 0 1 .53 0l2.115 1.41a.478.478 0 0 1 .073.735L12 15.613zm-4.684-2.305L.909 16.128a.793.793 0 0 0 .626 1.272 5.843 5.843 0 0 0 3.328-.991"/><path class="cls-1" d="M23.168 9.514a.791.791 0 0 0-.7-.442 5.835 5.835 0 0 0-3.328.991V8.477a7.137 7.137 0 0 0-14.274 0v7.929a3.172 3.172 0 0 0 3.172 3.172h7.93a3.172 3.172 0 0 0 3.172-3.172v-.793l3.954-5.273a.791.791 0 0 0 .074-.826z"/><path class="cls-1" d="M6.132 18.944l-3.627 3.108a.4.4 0 0 0 .258.7h5.272a1.586 1.586 0 0 0 1.586-1.586v-1.588"/><path class="cls-1" d="M6.132 18.944l-3.627 3.108a.4.4 0 0 0 .258.7h5.272a1.586 1.586 0 0 0 1.586-1.586v-1.588m8.247-.634l3.632 3.108a.4.4 0 0 1-.258.7h-5.277a1.586 1.586 0 0 1-1.586-1.586v-1.588"/></svg>