<svg xmlns="http://www.w3.org/2000/svg" viewBox="0 0 24 24" width="24" height="24"><defs><style>.a{fill:none;stroke:#000;stroke-linecap:round;stroke-linejoin:round;stroke-width:1.5px}</style></defs><title>video-projector</title><path class="a" d="M11.506 14.25H3.75a3 3 0 0 0-3 3v4.5a1.5 1.5 0 0 0 1.5 1.5h19.5a1.5 1.5 0 0 0 1.5-1.5v-4.5a3 3 0 0 0-3-3h-.256"/><circle class="a" cx="15.75" cy="15.75" r="4.5"/><path class="a" d="M3.75 18v1.5m3-1.5v1.5m9-5.25a1.5 1.5 0 1 0 1.5 1.5 1.5 1.5 0 0 0-1.5-1.5zM9 7.4a.856.856 0 0 0 1.239.765l5.788-2.894a.856.856 0 0 0 0-1.531L10.239.841A.856.856 0 0 0 9 1.606zM23.065.759a.25.25 0 1 1-.307.177.25.25 0 0 1 .307-.177m-.965 4.06a.25.25 0 1 1-.31.181.251.251 0 0 1 .306-.177m-1.361 4.629a.25.25 0 1 1-.306.177.25.25 0 0 1 .306-.177M.935.759a.25.25 0 1 0 .307.177.25.25 0 0 0-.307-.177m.965 4.06A.25.25 0 1 0 2.21 5a.251.251 0 0 0-.31-.181m1.365 4.633a.25.25 0 1 0 .306.177.25.25 0 0 0-.306-.177"/></svg>