<svg xmlns="http://www.w3.org/2000/svg" viewBox="0 0 24 24" width="24" height="24"><defs><style>.a{fill:none;stroke:#000;stroke-linecap:round;stroke-linejoin:round;stroke-width:1.5px}</style></defs><title>video-file-qt</title><path class="a" d="M11.25 23.25h-9a1.5 1.5 0 0 1-1.5-1.5V2.25a1.5 1.5 0 0 1 1.5-1.5h10.629a1.5 1.5 0 0 1 1.06.439l5.872 5.872a1.5 1.5 0 0 1 .439 1.06v3.129"/><path class="a" d="M20.25 8.25h-6a1.5 1.5 0 0 1-1.5-1.5v-6m9 21v-7.5m-1.5 0h3m-6 6a1.5 1.5 0 0 1-3 0v-4.5a1.5 1.5 0 0 1 3 0zm-1.5 1.5l1.5 1.5"/></svg>