<svg id="Regular" xmlns="http://www.w3.org/2000/svg" viewBox="0 0 24 24" width="24" height="24"><defs><style>.cls-1{fill:none;stroke:#000;stroke-linecap:round;stroke-linejoin:round;stroke-width:1.5px}</style></defs><title>video-game-pacman-enemy</title><ellipse class="cls-1" cx="7.5" cy="12" rx="2.25" ry="3.75"/><ellipse class="cls-1" cx="15" cy="12" rx="2.25" ry="3.75"/><path class="cls-1" d="M6.75 11.625a.375.375 0 0 1 .375.375m-.75 0a.375.375 0 0 1 .375-.375m0 .75A.375.375 0 0 1 6.375 12m.75 0a.375.375 0 0 1-.375.375m7.5-.75a.375.375 0 0 1 .375.375m-.75 0a.375.375 0 0 1 .375-.375m0 .75a.375.375 0 0 1-.375-.375m.75 0a.375.375 0 0 1-.375.375"/><path class="cls-1" d="M2.25 10.5a9.75 9.75 0 0 1 19.5 0v9c0 2.071-1.343 3.75-3 3.75s-3-1.679-3-3.75a3.75 3.75 0 0 1-7.5 0c0 2.071-1.343 3.75-3 3.75s-3-1.679-3-3.75z"/></svg>