<svg id="Regular" xmlns="http://www.w3.org/2000/svg" viewBox="0 0 24 24" width="24" height="24"><defs><style>.cls-1{fill:none;stroke:#000;stroke-linecap:round;stroke-linejoin:round;stroke-width:1.5px}</style></defs><title>video-game-pacman</title><path class="cls-1" d="M13.5 12l7.42 7.42a.751.751 0 0 1-.04 1.1A11.272 11.272 0 0 1 5.529 4.029a11.328 11.328 0 0 1 15.942 0v.016zm-3-4.875a.375.375 0 0 1 .375.375m-.753 0a.375.375 0 0 1 .375-.375m.003.75a.375.375 0 0 1-.375-.375m.747 0a.375.375 0 0 1-.375.375"/></svg>