<svg id="Regular" xmlns="http://www.w3.org/2000/svg" viewBox="0 0 24 24" width="24" height="24"><defs><style>.cls-1{fill:none;stroke:#000;stroke-linecap:round;stroke-linejoin:round;stroke-width:1.5px}</style></defs><title>video-game-controller-person</title><rect class="cls-1" x="8.25" y="14.25" width="15" height="9" rx="1.5" ry="1.5"/><path class="cls-1" d="M10.5 18.75h3m-1.5-1.5v3m7.875-3a.375.375 0 0 1 .375.375m-.75 0a.375.375 0 0 1 .375-.375m0 .75a.375.375 0 0 1-.375-.375m.75 0a.375.375 0 0 1-.375.375m-3.75 2.25a.375.375 0 0 1 .375.375m-.75 0a.375.375 0 0 1 .375-.375m0 .75a.375.375 0 0 1-.375-.375m.75 0a.375.375 0 0 1-.375.375M10.5 10.2a1.633 1.633 0 0 1 2.25 0M6 10.2a1.633 1.633 0 0 0-2.25 0m11.963-2.7C6.552 7.5 6 4.432 6 4.432 4.982 7.5 1.5 7.5 1.5 7.5H.787"/><path class="cls-1" d="M4.5 17a7.5 7.5 0 0 1-3.75-6.5V8.25a7.5 7.5 0 0 1 15 0v2.25c0 .253-.013.5-.037.75"/></svg>