<svg id="Regular" xmlns="http://www.w3.org/2000/svg" viewBox="0 0 24 24" width="24" height="24"><defs><style>.cls-1{fill:none;stroke:#000;stroke-linecap:round;stroke-linejoin:round;stroke-width:1.5px}</style></defs><title>video-game-mario-flower-1</title><path class="cls-1" d="M8.05 8.439a1.5 1.5 0 0 1 2.121 0m3.879 0a1.5 1.5 0 0 1 2.121 0m-4.06 7.061V23"/><path class="cls-1" d="M4.611 3.325a.749.749 0 0 1 1.135-.643L8.361 4.25l3.219-3.22a.75.75 0 0 1 1.061 0l3.22 3.22 2.614-1.568a.75.75 0 0 1 1.136.643V8a7.5 7.5 0 0 1-15 0zM3.25 23a.75.75 0 0 1-.55-1.26c1.237-1.332 3.292-3.24 4.911-3.24a4.5 4.5 0 0 1 4.5 4.5zm17.721 0a.75.75 0 0 0 .55-1.26c-1.237-1.332-3.292-3.24-4.91-3.24a4.5 4.5 0 0 0-4.5 4.5z"/></svg>