<svg id="Regular" xmlns="http://www.w3.org/2000/svg" viewBox="0 0 24 24" width="24" height="24"><defs><style>.cls-1{fill:none;stroke:#000;stroke-linecap:round;stroke-linejoin:round;stroke-width:1.5px}</style></defs><title>video-game-mario-enemy</title><path class="cls-1" d="M13.813 16.256A8.031 8.031 0 0 1 7.5 19.5 6.75 6.75 0 0 1 7.5 6c3.728 0 7.5 3.022 7.5 6.75"/><path class="cls-1" d="M18.725 7.331a7.513 7.513 0 1 1-8.278 12.222 7.686 7.686 0 0 1-.451-.491m7.125-3.441a3 3 0 0 1-4.242 0M4.5 9.75v1.5"/><path class="cls-1" d="M12.9 8.208c-.652-3.1.875-5.958 2.847-5.958 1.657 0 3 2.015 3 4.5 0 2.988-1.941 5.3-4.035 4.24"/><path class="cls-1" d="M9.025 6.164C9.217 3.956 10.475 2.25 12 2.25a2.463 2.463 0 0 1 1.875.987m.375 2.388a.375.375 0 0 1 .375.375m-.75 0a.375.375 0 0 1 .375-.375m0 .75A.375.375 0 0 1 13.875 6m.75 0a.375.375 0 0 1-.375.375m4.528 6.675a3.753 3.753 0 0 1 4.472 1.2M22.5 6l-1.898 2.53"/></svg>