<svg xmlns="http://www.w3.org/2000/svg" viewBox="0 0 24 24" width="24" height="24"><defs><style>.a{fill:none;stroke:#000;stroke-linecap:round;stroke-linejoin:round;stroke-width:1.5px}</style></defs><title>video-edit-peel</title><path class="a" d="M19.5 3.75h2.772a.978.978 0 0 1 .978.978v17.544a.978.978 0 0 1-.978.978H1.728a.978.978 0 0 1-.978-.978V4.728a.978.978 0 0 1 .978-.978H14.25"/><path class="a" d="M15.825 23.25a3.556 3.556 0 0 0 3.675-3.424 3.556 3.556 0 0 0-3.675-3.426H14.25V.75h1.575A3.556 3.556 0 0 1 19.5 4.174v15.652M10.5 18h-6m2.25 2.25L4.5 18l2.25-2.25M4.5 9h6M8.25 6.75L10.5 9l-2.25 2.25"/></svg>