<svg xmlns="http://www.w3.org/2000/svg" viewBox="0 0 24 24" width="24" height="24"><defs><style>.a{fill:none;stroke:#000;stroke-linecap:round;stroke-linejoin:round;stroke-width:1.5px}</style></defs><title>video-edit-camera-measure</title><path class="a" d="M23.25 19.5h-9V18a1.5 1.5 0 0 1 1.5-1.5 1.5 1.5 0 0 1 1.5 1.5v1.5m6-9h-9V12a1.5 1.5 0 0 0 1.5 1.5 1.5 1.5 0 0 0 1.5-1.5v-1.5m3.058 3h2.942m-2.942 3h2.942m-1.5 3v3.75m0-1.5h-2.192M3.748 5.625A.375.375 0 1 0 4.123 6a.375.375 0 0 0-.375-.375"/><path class="a" d="M17.25 7.5v-3a1.5 1.5 0 0 0-1.5-1.5h-3l-.408-1.224A1.5 1.5 0 0 0 10.919.75H7.081a1.5 1.5 0 0 0-1.423 1.026L5.25 3h-3a1.5 1.5 0 0 0-1.5 1.5v8.25a1.5 1.5 0 0 0 1.5 1.5h7.5"/><circle class="a" cx="9" cy="8.25" r="3"/></svg>