<svg id="Regular" xmlns="http://www.w3.org/2000/svg" viewBox="0 0 24 24" width="24" height="24"><defs><style>.cls-1{fill:none;stroke:#000;stroke-linecap:round;stroke-linejoin:round;stroke-width:1.5px}</style></defs><title>video-game-gamasutra-2</title><path class="cls-1" d="M18.2 22.59l-3.671-4.368a6.173 6.173 0 0 1-1.448-3.972 1.5 1.5 0 0 0-3 0 6.173 6.173 0 0 1-1.448 3.972L4.958 22.59a.375.375 0 0 0 .244.66h12.75a.376.376 0 0 0 .244-.66zM11.577 8.25v1.5m0-6v1.5m-8.84-2.211a.75.75 0 0 0-.861 1.127l2.663 3.995a.75.75 0 0 0 1.248 0l2.664-3.995a.75.75 0 0 0-.861-1.127l-2.19.729a.743.743 0 0 1-.475 0zm13.5-2.25a.75.75 0 0 0-.861 1.127l2.663 3.995a.75.75 0 0 0 1.248 0l2.664-3.995A.75.75 0 0 0 21.09.789l-2.19.729a.743.743 0 0 1-.475 0zm-5.41 19.461h1.5"/></svg>