<svg xmlns="http://www.w3.org/2000/svg" viewBox="0 0 24 24" width="24" height="24"><defs><style>.a{fill:none;stroke:#000;stroke-linecap:round;stroke-linejoin:round;stroke-width:1.5px}</style></defs><title>video-player-slider</title><path class="a" d="M10.341 9.092a.973.973 0 0 0-.9.039.863.863 0 0 0-.441.744v4.249a.864.864 0 0 0 .44.745.975.975 0 0 0 .9.039l3.987-1.883a1.118 1.118 0 0 0 0-2.05z"/><rect class="a" x="4.5" y="3" width="15" height="18" rx=".779" ry=".779"/><path class="a" d="M1.934 5.25A1.192 1.192 0 0 0 .75 6.45v11.1a1.192 1.192 0 0 0 1.184 1.2m20.132-13.5a1.192 1.192 0 0 1 1.184 1.2v11.1a1.192 1.192 0 0 1-1.184 1.2"/></svg>