<svg id="Regular" xmlns="http://www.w3.org/2000/svg" viewBox="0 0 24 24" width="24" height="24"><defs><style>.cls-1{fill:none;stroke:#000;stroke-linecap:round;stroke-linejoin:round;stroke-width:1.5px}</style></defs><title>video-game-tetris</title><path class="cls-1" d="M.75 10.5a.75.75 0 0 1 .75-.75h3a.75.75 0 0 1 .75.75V18a.75.75 0 0 0 .75.75h3a.75.75 0 0 1 .75.75v3.75H1.5a.75.75 0 0 1-.75-.75zM22.5 5.25a.75.75 0 0 1 .75.75v7.5a.75.75 0 0 1-.75.75h-3a.75.75 0 0 1-.75-.75v-3a.75.75 0 0 0-.75-.75h-3a.75.75 0 0 1-.75-.75V1.5A.75.75 0 0 1 15 .75h3a.75.75 0 0 1 .75.75v3a.75.75 0 0 0 .75.75z"/><path class="cls-1" d="M13.5 14.25a.75.75 0 0 1 .75.75v3a.75.75 0 0 0 .75.75h3a.75.75 0 0 1 .75.75v3a.75.75 0 0 1-.75.75H9.75V19.5a.75.75 0 0 0-.75-.75H6a.75.75 0 0 1-.75-.75v-3.75z"/></svg>