<svg xmlns="http://www.w3.org/2000/svg" viewBox="0 0 24 24" width="24" height="24"><g fill="none" stroke="#000" stroke-linecap="round" stroke-linejoin="round" stroke-miterlimit="10"><path d="M20.5 8.5h-7v-7h7V4l3-1.5v5l-3-1.5zM6 19.5V19c0-.55.433-1.123.961-1.274L9.5 17v-1.396m3 0V17l2.538.726c.529.151.962.724.962 1.274v.5"/><ellipse cx="11" cy="12.771" rx="3" ry="3.272"/><path d="M13.958 12.213c-.5.5-1.919.461-2.458-.542-1 1-2.625 1-3.434.429M20.5 10.5v9m-19 0V9A1.5 1.5 0 013 7.5h8.5m2 12v1h-5v-1h-8v2a1 1 0 001 1h19a1 1 0 001-1v-2h-8z"/></g><path fill="none" d="M0 0h24v24H0z"/></svg>