<svg id="Regular" xmlns="http://www.w3.org/2000/svg" viewBox="0 0 24 24" width="24" height="24"><defs><style>.cls-1{fill:none;stroke:#000;stroke-linecap:round;stroke-linejoin:round;stroke-width:1.5px}</style></defs><title>video-game-mario-character</title><path class="cls-1" d="M20.25 17.25a6 6 0 0 1-6 6h-7.5a6 6 0 0 1-6-6v-3.7c0-5.411 3.589-9.8 9-9.8v6c0-4.142 3.358-6 7.5-6V12a3 3 0 0 1 3-3zm0-13.5a3 3 0 0 1 3-3M12.729 1.789A3 3 0 0 1 15 .75"/><path class="cls-1" d="M9.75 17.25a3 3 0 0 1-6 0zm-6-4.5v1.5m6-1.5v1.5"/></svg>