<svg xmlns="http://www.w3.org/2000/svg" viewBox="0 0 24 24" width="24" height="24"><defs><style>.a{fill:none;stroke:#000;stroke-linecap:round;stroke-linejoin:round;stroke-width:1.5px}</style></defs><title>video-file-disable</title><circle class="a" cx="17.25" cy="17.25" r="6"/><path class="a" d="M13.008 21.491l8.484-8.483M8.25 20.25h-6a1.5 1.5 0 0 1-1.5-1.5V2.25a1.5 1.5 0 0 1 1.5-1.5h10.629a1.5 1.5 0 0 1 1.06.439l2.872 2.872a1.5 1.5 0 0 1 .439 1.06V8.25"/><path class="a" d="M6.241 12.678a.685.685 0 0 1-.991-.613v-4.63a.685.685 0 0 1 .991-.613l4.631 2.316a.684.684 0 0 1 0 1.224z"/></svg>