<svg id="Regular" xmlns="http://www.w3.org/2000/svg" viewBox="0 0 24 24" width="24" height="24"><defs><style>.cls-1{fill:none;stroke:#000;stroke-linecap:round;stroke-linejoin:round;stroke-width:1.5px}</style></defs><title>video-game-mario-flower-2</title><path class="cls-1" d="M23.1 7.5a6.75 6.75 0 0 1-6.75 6.75h-4.5a6.75 6.75 0 0 1 0-13.5h4.5A6.75 6.75 0 0 1 23.1 7.5z"/><path class="cls-1" d="M20.1 7.5a3.75 3.75 0 0 1-3.75 3.75h-4.5a3.75 3.75 0 0 1 0-7.5h4.5A3.75 3.75 0 0 1 20.1 7.5zm-3.001-.75v1.5m-6-1.5v1.5m3 6l-3.75 9m-2.249 0H5.2a3 3 0 0 1-2.5-1.336l-1.332-2A.75.75 0 0 1 2 18.75h1.493a3 3 0 0 1 2.5 1.336zm6 0h2.894a3 3 0 0 0 2.5-1.336l1.332-2a.75.75 0 0 0-.626-1.164h-1.5a3 3 0 0 0-2.5 1.336z"/></svg>