<svg id="Regular" xmlns="http://www.w3.org/2000/svg" viewBox="0 0 24 24" width="24" height="24"><defs><style>.cls-1{fill:none;stroke:#000;stroke-linecap:round;stroke-linejoin:round;stroke-width:1.5px}</style></defs><title>video-game-the-sims</title><path class="cls-1" d="M10.342 22.77l-7.15-10.15a1.1 1.1 0 0 1 0-1.24l7.15-10.15a1.1 1.1 0 0 1 1.818 0l7.15 10.15a1.1 1.1 0 0 1 0 1.24l-7.15 10.15a1.1 1.1 0 0 1-1.818 0zM19.501 12h-16.5"/><path class="cls-1" d="M11.251.75L7.501 12l3.75 11.25"/><path class="cls-1" d="M11.251.75L15.001 12l-3.75 11.25M19.501 3h3m-1.5-1.5v3M.751 21h3m-1.5-1.5v3"/></svg>