<svg id="Regular" xmlns="http://www.w3.org/2000/svg" viewBox="0 0 24 24" width="24" height="24"><defs><style>.cls-1{fill:none;stroke:#000;stroke-linecap:round;stroke-linejoin:round;stroke-width:1.5px}</style></defs><title>video-game-mario-2</title><path class="cls-1" d="M7.5 12.75v1.5m9-1.5v1.5m4.5-3c0-2-18-2-18 0v-1.5c0-4 18-4 18 0z"/><path class="cls-1" d="M17.253 2.005C20.39 3.557 22.5 6.24 22.5 8.25A6.694 6.694 0 0 1 21.454 12M2.351 12A7.636 7.636 0 0 1 1.5 8.25c0-1.5 2.1-4.353 5.233-6.074M14.25.75l-.75 3-1.5-1.5-1.5 1.5-.75-3"/><path class="cls-1" d="M20.962 14.992c.014 0 .025.008.038.008l2.25-3H21v-.75M5.3 20.252a8.989 8.989 0 0 0 13.405 0M3 11.25V12H.75L3 15c.013 0 .024-.007.038-.008m11.076 1.531a2.251 2.251 0 0 1-4.238-.029"/><path class="cls-1" d="M1.5 18l1.5.75 2.25-2.25 3 1.5 1.77-1.18M22.5 18l-1.5.75-2.25-2.25-3 1.5-1.77-1.18m-.083-3.202L18.75 12m-13.5 0l4.853 1.618"/></svg>