<svg id="Regular" xmlns="http://www.w3.org/2000/svg" viewBox="0 0 24 24" width="24" height="24"><defs><style>.cls-1{fill:none;stroke:#000;stroke-linecap:round;stroke-linejoin:round;stroke-width:1.5px}</style></defs><title>video-game-kirby</title><path class="cls-1" d="M19.977 16.178a5.593 5.593 0 1 1-1.3-4.616m-6.61 2.08v1.597m3.195-1.597v1.597"/><path class="cls-1" d="M8.884 15.609a6.16 6.16 0 0 1-1.607-1.171c-1.56-1.559-2.066-3.582-1.13-4.518s2.959-.43 4.519 1.13l.044.045m9.267 5.083c2.188-.662 3.629-2.3 3.2-3.6-.418-1.249-2.427-1.7-4.5-1.021M7.279 8.459L4.98 2.443 1.363.75.75 4.697l3.709 5.264m4.23-2.253l-5.64 3.004"/><ellipse class="cls-1" cx="8.382" cy="20.426" rx="2.396" ry="3.195" transform="rotate(-45 8.381 20.425)"/><path class="cls-1" d="M19.391 17.885c2.176 1.124 2.869 3.6 1.7 4.777-1.24 1.239-3.941.394-4.956-2.085M12.118 6.793c.222-1.252 1.424-4.615 7.936-4.315"/><circle class="cls-1" cx="21.652" cy="2.459" r="1.598"/><path class="cls-1" d="M19.272 7.907a5.183 5.183 0 0 1 2.38-3.851M11.258 7.079A8.8 8.8 0 0 1 20.071 8.5"/></svg>