<svg xmlns="http://www.w3.org/2000/svg" viewBox="0 0 24 24" width="24" height="24"><defs><style>.a{fill:none;stroke:#000;stroke-linecap:round;stroke-linejoin:round;stroke-width:1.5px}</style></defs><title>video-file-star</title><path class="a" d="M17.956 11.68l1.544 4.07h2.99a.735.735 0 0 1 .517 1.283l-2.6 1.816 1.44 3.313a.785.785 0 0 1-1.117.982l-3.48-1.961-3.48 1.961a.785.785 0 0 1-1.117-.982l1.44-3.313-2.6-1.816a.734.734 0 0 1 .514-1.283h3l1.541-4.07a.8.8 0 0 1 1.408 0z"/><path class="a" d="M8.25 20.25h-6a1.5 1.5 0 0 1-1.5-1.5V2.25a1.5 1.5 0 0 1 1.5-1.5h10.629a1.5 1.5 0 0 1 1.06.439l2.872 2.872a1.5 1.5 0 0 1 .439 1.06V8.25"/><path class="a" d="M6.241 12.678a.685.685 0 0 1-.991-.613v-4.63a.685.685 0 0 1 .991-.613l4.631 2.316a.684.684 0 0 1 0 1.224z"/></svg>