<svg xmlns="http://www.w3.org/2000/svg" viewBox="0 0 24 24" width="24" height="24"><g fill="none" stroke="#000" stroke-linejoin="round" stroke-miterlimit="10"><path d="M7 12.5V12c0-.55.433-1.123.961-1.274L10.5 10V8.604m3 0V10l2.538.726c.529.151.962.724.962 1.274v.5"/><ellipse cx="12" cy="5.771" rx="3" ry="3.272"/><path d="M14.958 5.213c-.5.5-1.919.461-2.458-.542-1 1-2.625 1-3.434.429"/><circle stroke-linecap="round" cx="4.5" cy="17.015" r="2.5"/><circle stroke-linecap="round" cx="12" cy="17.015" r="2.5"/><circle stroke-linecap="round" cx="19.5" cy="17.015" r="2.5"/><path stroke-linecap="round" d="M19.5 19.507c-1.733 0-3.194 1.112-3.75 2.654-.556-1.542-2.017-2.648-3.75-2.648s-3.194 1.109-3.75 2.65c-.556-1.541-2.017-2.656-3.75-2.656-2.21 0-4 1.993-4 3.993h23c0-2-1.79-3.993-4-3.993zm1-9.007c0 1.101-.9 2-2 2h-13c-1.1 0-2-.899-2-2v-8c0-1.1.9-2 2-2h13c1.1 0 2 .9 2 2v8z"/></g><path fill="none" d="M0 0h24v24H0z"/></svg>