<svg id="Regular" xmlns="http://www.w3.org/2000/svg" viewBox="0 0 24 24" width="24" height="24"><defs><style>.cls-1{fill:none;stroke:#000;stroke-linecap:round;stroke-linejoin:round;stroke-width:1.5px}</style></defs><title>video-game-bowl-ghost</title><path class="cls-1" d="M8.5.75V4.5a9.75 9.75 0 1 0 7.5 0V.75m-9.75 0h12"/><path class="cls-1" d="M15.442 18a1.307 1.307 0 0 0 1.308-1.308V12a4.5 4.5 0 0 0-9 0v4.692a1.308 1.308 0 0 0 2.548.414l.452-1.356.513 1.538a1.04 1.04 0 0 0 1.974 0l.513-1.538.452 1.356a1.308 1.308 0 0 0 1.24.894zm-5.067-6.75a.375.375 0 0 1 .375.375m-.75 0a.375.375 0 0 1 .375-.375m0 .75a.375.375 0 0 1-.375-.375m.75 0a.375.375 0 0 1-.375.375m3.75-.75a.375.375 0 0 1 .375.375m-.75 0a.375.375 0 0 1 .375-.375m0 .75a.375.375 0 0 1-.375-.375m.75 0a.375.375 0 0 1-.375.375"/></svg>