<svg xmlns="http://www.w3.org/2000/svg" viewBox="0 0 24 24" width="24" height="24"><g fill="none" stroke="#000" stroke-linejoin="round" stroke-miterlimit="10"><path d="M17.5 20.5c0 .55-.45 1-1 1h-14c-.55 0-1-.45-1-1v-8c0-.55.45-1 1-1h14c.55 0 1 .45 1 1v8z"/><path stroke-linecap="round" d="M4.5 14.5h10"/><circle stroke-linecap="round" cx="4.5" cy="5.5" r="4"/><circle stroke-linecap="round" cx="13" cy="7" r="2.5"/><path stroke-linecap="round" d="M17.5 18l5.077 2.115c.507.212.923-.065.923-.615v-6c0-.55-.416-.827-.923-.615L17.5 15"/></g><path fill="none" d="M0 0h24v24H0z"/></svg>