<svg id="Regular" xmlns="http://www.w3.org/2000/svg" viewBox="0 0 24 24" width="24" height="24"><defs><style>.cls-1{fill:none;stroke:#000;stroke-linecap:round;stroke-linejoin:round;stroke-width:1.5px}</style></defs><title>video-game-bottle</title><path class="cls-1" d="M12.25 18.429L8.5 20.357v-7.714l3.75 1.928v3.858zM16 20.357l-3.75-1.928v-3.858L16 12.643v7.714z"/><path class="cls-1" d="M8.5 12.643l3.75-2.893L16 12.643m-7.5 7.714l3.75 2.893L16 20.357"/><path class="cls-1" d="M17.5 23.25H19a3.047 3.047 0 0 0 3-3c0-7.5-3.666-13.5-6.75-13.5h-6c-3.084 0-6.75 6-6.75 13.5a3.046 3.046 0 0 0 3 3H7m2.25-16.5L7.76 2.777A1.5 1.5 0 0 1 9.164.75h3.086a1.5 1.5 0 0 1 1.5 1.5h1.388A1.5 1.5 0 0 1 16.5 4.388L15.385 6.75m-1.635-3v-1.5"/></svg>