<svg id="Regular" xmlns="http://www.w3.org/2000/svg" viewBox="0 0 24 24" width="24" height="24"><defs><style>.cls-1{fill:none;stroke:#000;stroke-linecap:round;stroke-linejoin:round;stroke-width:1.5px}</style></defs><title>video-game-mario-3</title><path class="cls-1" d="M7.5 12.75v.75m9-.75v.75m4.5-2.25c0-2-18-2-18 0v-1.5c0-4 18-4 18 0z"/><path class="cls-1" d="M16.505 1.665c3.545 1.471 6 4.419 6 6.585a6.674 6.674 0 0 1-1.084 3.808m-19.004.059A7.551 7.551 0 0 1 1.5 8.25c0-1.622 2.444-4.8 5.982-6.454M9.75 3.75l.75-3 1.5 1.5 1.5-1.5.75 3M12 18.62c.811.811 2.61.879 3.889.809.137-.007 1.253-.311.092-1.472-1.362-2.724-6.453-3.017-7.961 0-1.075 1.075-.18 1.457.092 1.472 1.279.071 3.078.002 3.888-.809z"/><path class="cls-1" d="M3 11.25V12a1.5 1.5 0 0 0 0 3c.013 0 .024-.007.038-.008a8.992 8.992 0 0 0 17.924 0c.014 0 .025.008.038.008a1.5 1.5 0 0 0 0-3v-.75"/></svg>