<svg xmlns="http://www.w3.org/2000/svg" viewBox="0 0 24 24" width="24" height="24"><defs><style>.a{fill:none;stroke:#000;stroke-linecap:round;stroke-linejoin:round;stroke-width:1.5px}</style></defs><title>video-game-logo-twitch</title><path class="a" d="M.75 5.912a.98.98 0 0 1 .139-.5L3.542.987a.491.491 0 0 1 .42-.237h18.8a.489.489 0 0 1 .489.489v12.7a.979.979 0 0 1-.287.692l-3.829 3.829a.978.978 0 0 1-.691.286h-7a.977.977 0 0 0-.707.3L6.484 23.1a.489.489 0 0 1-.843-.338v-3.524a.489.489 0 0 0-.489-.49H1.239a.489.489 0 0 1-.489-.489z"/><path class="a" d="M6.489 3.75A.489.489 0 0 0 6 4.239v9.522a.489.489 0 0 0 .489.489H7.5v3l2.543-3h6.867a.979.979 0 0 0 .692-.287l2.361-2.363a.979.979 0 0 0 .287-.692V4.239a.489.489 0 0 0-.489-.489zm4.761 3v3.75m4.5-3.75v3.75"/></svg>