<svg xmlns="http://www.w3.org/2000/svg" viewBox="0 0 24 24" width="24" height="24"><defs><style>.a{fill:none;stroke:#000;stroke-linecap:round;stroke-linejoin:round;stroke-width:1.5px}</style></defs><title>video-player-device-play</title><path class="a" d="M16.988 8.175a.855.855 0 0 1-1.238-.765V1.621a.855.855 0 0 1 1.238-.765l5.789 2.894a.856.856 0 0 1 0 1.531z"/><rect class="a" x=".75" y="15.75" width="22.5" height="7.5" rx="1.5" ry="1.5"/><path class="a" d="M4.5 20.25h8.25m3.75-1.125a.375.375 0 1 1-.375.375.375.375 0 0 1 .375-.375m3.75 0a.375.375 0 1 1-.375.375.375.375 0 0 1 .375-.375M21 9.75a9.01 9.01 0 0 1-.512 3m-16.979-.009A9.008 9.008 0 0 1 13.02.807m1.852 9.813a3 3 0 1 1-2.035-3.752"/></svg>