<svg xmlns="http://www.w3.org/2000/svg" viewBox="0 0 24 24" width="24" height="24"><defs><style>.a{fill:none;stroke:#000;stroke-linecap:round;stroke-linejoin:round;stroke-width:1.5px}</style></defs><title>video-edit-magic-wand-1</title><rect class="a" x=".75" y="3.75" width="18.75" height="19.5" rx="2" ry="2"/><path class="a" d="M4.089.75h17.09a2.071 2.071 0 0 1 2.071 2.071v15.536M4.5 8.25h3M6 6.75v3m7.5-2.25h3M15 6v3m-1.5 9.75h3m-1.5-1.5v3m-10.644-.606a1.5 1.5 0 0 1 0-2.121l5.833-5.834a1.5 1.5 0 0 1 2.122 2.122l-5.834 5.833a1.5 1.5 0 0 1-2.121 0zm3.958-6.08l2.122 2.122"/></svg>