<svg xmlns="http://www.w3.org/2000/svg" viewBox="0 0 24 24" width="24" height="24"><defs><style>.a{fill:none;stroke:#000;stroke-linecap:round;stroke-linejoin:round;stroke-width:1.5px}</style></defs><title>video-player-pc</title><path class="a" d="M10.924 5.331a.853.853 0 0 0-.789.033.759.759 0 0 0-.385.652v3.718a.76.76 0 0 0 .385.652.853.853 0 0 0 .789.033l3.489-1.647a.979.979 0 0 0 0-1.794zM15.75 22.5h-7.5L9 18h6l.75 4.5zM6 22.5h12M.75 14.25h22.5"/><rect class="a" x=".75" y="1.5" width="22.5" height="16.5" rx="2" ry="2"/></svg>