<svg id="Regular" xmlns="http://www.w3.org/2000/svg" viewBox="0 0 24 24" width="24" height="24"><defs><style>.cls-1{fill:none;stroke:#000;stroke-linecap:round;stroke-linejoin:round;stroke-width:1.5px}</style></defs><title>video-game-boxing</title><path class="cls-1" d="M7.932 18.75h10.5v3.5a1 1 0 0 1-1 1h-8.5a1 1 0 0 1-1-1v-3.5z"/><path class="cls-1" d="M3.4 7.681a3 3 0 0 0-.78 2.963l1.694 5.93A3 3 0 0 0 7.2 18.75h11.232a3 3 0 0 0 3-3V5.25a4.5 4.5 0 0 0-4.5-4.5h-6.511a4.5 4.5 0 0 0-4.413 5.383L7.182 12"/></svg>