<svg xmlns="http://www.w3.org/2000/svg" viewBox="0 0 24 24" width="24" height="24"><defs><style>.a{fill:none;stroke:#000;stroke-linecap:round;stroke-linejoin:round;stroke-width:1.5px}</style></defs><title>video-game-logo-dota2</title><path class="a" d="M23.25 22.272a.978.978 0 0 1-.978.978H1.728a.978.978 0 0 1-.978-.978V1.728A.978.978 0 0 1 1.728.75h11.536a.491.491 0 0 1 .346.143l1.325 1.324.377-1.133a.491.491 0 0 1 .464-.334h6.5a.978.978 0 0 1 .978.978z"/><path class="a" d="M15.157 4.885a.489.489 0 0 0-.174.8l3.794 3.8a.489.489 0 0 0 .81-.191L20.7 5.965a.489.489 0 0 0-.158-.537l-1.962-1.57a.493.493 0 0 0-.478-.076zm-11.923.381a.489.489 0 0 1 .249-.8l2.891-.723a.494.494 0 0 1 .438.1l13.794 11.899a.49.49 0 0 1 .166.431l-.41 3.276a.486.486 0 0 1-.424.424l-3.278.41a.491.491 0 0 1-.429-.163zm1.614 9.376a.489.489 0 0 1 .809-.131l3.9 4.292a.489.489 0 0 1-.19.787L6.4 20.7a.488.488 0 0 1-.485-.082L3.48 18.6a.488.488 0 0 1-.134-.574z"/></svg>