<svg id="Regular" xmlns="http://www.w3.org/2000/svg" viewBox="0 0 24 24" width="24" height="24"><defs><style>.cls-1{fill:none;stroke:#000;stroke-linecap:round;stroke-linejoin:round;stroke-width:1.5px}</style></defs><title>video-game-controller</title><path class="cls-1" d="M6 4.25h1.5a4.5 4.5 0 0 1 4.5 4.5v1.5"/><path class="cls-1" d="M18.75 10.25H5.25a4.5 4.5 0 1 0 3.332 7.5h6.836a4.493 4.493 0 1 0 3.332-7.5zm-13.5 3v3m-1.5-1.5h3m10.5.375a.375.375 0 0 1 .375.375m-.75 0a.375.375 0 0 1 .375-.375m0 .75a.375.375 0 0 1-.375-.375m.75 0a.375.375 0 0 1-.375.375m2.25-3a.375.375 0 0 1 .375.375m-.75 0a.375.375 0 0 1 .375-.375m0 .75a.375.375 0 0 1-.375-.375m.75 0a.375.375 0 0 1-.375.375"/></svg>