<svg xmlns="http://www.w3.org/2000/svg" viewBox="0 0 24 24" width="24" height="24"><defs><style>.a{fill:none;stroke:#000;stroke-linecap:round;stroke-linejoin:round;stroke-width:1.5px}</style></defs><title>video-edit-cut</title><circle class="a" cx="3.013" cy="8.25" r="2.25"/><circle class="a" cx="3.013" cy="16.446" r="2.25"/><path class="a" d="M2.34 10.397l7.391 4.381 4.201 2.489M2.34 14.299l4.317-2.558m3.08.259V2.25a1.5 1.5 0 0 1 1.5-1.5h12m0 22.5h-12a1.5 1.5 0 0 1-1.5-1.5V18m4.5-8.25v-9m0 22.5v-3m-4.5-15h4.5m9 9V.75m0 22.5v-9m-13.5-4.5h13.5m-7.5 4.5h7.5"/></svg>