<svg id="Regular" xmlns="http://www.w3.org/2000/svg" viewBox="0 0 24 24" width="24" height="24"><defs><style>.cls-1{fill:none;stroke:#000;stroke-linecap:round;stroke-linejoin:round;stroke-width:1.5px}</style></defs><title>video-game-assasin-creed</title><path class="cls-1" d="M21.739 15.047l-.8-.112s-3.476-.489-3.973-2.446a33.551 33.551 0 0 0-1.018-3.9 1.977 1.977 0 0 0-1.442-1.216 2 2 0 0 0-1.819.531L12 8.576l-.687-.676a2 2 0 0 0-1.819-.531 1.977 1.977 0 0 0-1.442 1.216 33.551 33.551 0 0 0-1.018 3.9c-.5 1.957-3.973 2.446-3.973 2.446l-.8.112m4.773-2.554a5 5 0 0 0 9.932 0M13.5 13.5a3.022 3.022 0 0 1-2.97.019"/><path class="cls-1" d="M12 23.25l7.8-4.538a3.882 3.882 0 0 0 1.565-5.051L19.2 9.182a19.469 19.469 0 0 1-1.4-3.921 5.983 5.983 0 0 0-11.6 0 19.654 19.654 0 0 1-1.4 3.921l-2.163 4.479A3.882 3.882 0 0 0 4.2 18.712L12 23.25"/></svg>