<svg id="Regular" xmlns="http://www.w3.org/2000/svg" viewBox="0 0 24 24" width="24" height="24"><defs><style>.cls-1{fill:none;stroke:#000;stroke-linecap:round;stroke-linejoin:round;stroke-width:1.5px}</style></defs><title>video-game-sonic</title><path class="cls-1" d="M2.581 15C2.581 7.877 6.64 2.107 19.9 1.545a.75.75 0 0 1 .567 1.275 6.774 6.774 0 0 0-2.136 4.68 15.645 15.645 0 0 1 4.562 1.7.752.752 0 0 1 .147 1.129 28.471 28.471 0 0 0-2.459 3.17 4.908 4.908 0 0 1 2.6 2.6.75.75 0 0 1-.685 1.064 12.408 12.408 0 0 0-5.918 1.583"/><path class="cls-1" d="M17.581 15a7.5 7.5 0 0 1-7.5 7.5c-4.556 0-8.25-2.3-8.25-3.75 0-1.49 3.9-1.5 8.633-1.5 3.678 0 1.57-4.5 4.867-4.5a2.25 2.25 0 0 1 2.25 2.25"/><path class="cls-1" d="M2.581 15c0-2.071 1.343-5.25 3-5.25 2.626 0 4.463 4.216 1.417 7.527m3.083-9.027V3.449l4.5 4.801m-9 4.5v1.5"/><circle class="cls-1" cx="1.291" cy="18.75" r=".541"/></svg>