<svg id="Regular" xmlns="http://www.w3.org/2000/svg" viewBox="0 0 24 24" width="24" height="24"><defs><style>.cls-1{fill:none;stroke:#000;stroke-linecap:round;stroke-linejoin:round;stroke-width:1.5px}</style></defs><title>video-game-ping-pong</title><path class="cls-1" d="M14.625 9a.375.375 0 0 1 .375.375m-.75 0A.375.375 0 0 1 14.625 9m0 .75a.375.375 0 0 1-.375-.375m.75 0a.375.375 0 0 1-.375.375m2.625 12H3.75a1.5 1.5 0 0 1-1.5-1.5V9.75m4.5-7.5h13.5a1.5 1.5 0 0 1 1.5 1.5v10.5m-3-9v5.25m-13.5 3v5.25M.75 2.25a1.5 1.5 0 0 1 1.5-1.5 1.5 1.5 0 0 1 1.5 1.5 2.134 2.134 0 0 1-.469 1.336L.75 6.75h3m19.5 15a1.5 1.5 0 0 1-3 0v-3a1.5 1.5 0 0 1 3 0z"/></svg>