<svg xmlns="http://www.w3.org/2000/svg" viewBox="0 0 24 24" width="24" height="24"><defs><style>.a{fill:none;stroke:#000;stroke-linecap:round;stroke-linejoin:round;stroke-width:1.5px}</style></defs><title>video-game-logo-companion-cube</title><path class="a" d="M12 17s4.4-3.2 4.4-5.569c0-2.736-3.6-3.6-4.4-.275-.8-3.325-4.4-2.461-4.4.275C7.6 13.8 12 17 12 17zM6.75.75a1 1 0 0 1 1 1v4.52a6.5 6.5 0 0 0-1.48 1.48H1.75a1 1 0 0 1-1-1v-5a1 1 0 0 1 1-1zm15.5 0a1 1 0 0 1 1 1v5a1 1 0 0 1-1 1h-4.52a6.5 6.5 0 0 0-1.48-1.48V1.75a1 1 0 0 1 1-1zM7.75 17.73v4.52a1 1 0 0 1-1 1h-5a1 1 0 0 1-1-1v-5a1 1 0 0 1 1-1h4.52a6.5 6.5 0 0 0 1.48 1.48zm14.5-1.48a1 1 0 0 1 1 1v5a1 1 0 0 1-1 1h-5a1 1 0 0 1-1-1v-4.52a6.5 6.5 0 0 0 1.48-1.48zm-19.5-8.5v8.5m5-13.5h8.5m5 5v8.5m-13.5 5h8.5"/></svg>