<svg id="Regular" xmlns="http://www.w3.org/2000/svg" viewBox="0 0 24 24" width="24" height="24"><defs><style>.cls-1{fill:none;stroke:#000;stroke-linecap:round;stroke-linejoin:round;stroke-width:1.5px}</style></defs><title>video-game-frog</title><path class="cls-1" d="M21.105 7.168a3.7 3.7 0 0 1 2.136 3.591 3.157 3.157 0 0 1-3.2 2.848H3.957a3.159 3.159 0 0 1-3.2-2.848A3.688 3.688 0 0 1 2.838 7.2m17.198-3.236c0-1.775-.636-3.214-2.411-3.214-2.411 0-4.018 4.018-5.625 4.018S8.786.75 6.375.75C4.6.75 3.964 2.189 3.964 3.964m4.822 3.215v1.607m6.428-1.607v1.607m-6.107 4.821c-2.732 3.214-2.732 4.822-.787 7.133m6.573-7.133c2.732 3.214 2.732 4.822.787 7.133"/><path class="cls-1" d="M3.161 23.25a3.214 3.214 0 0 1 3.214-3.214c2.411 0 4.018 3.214 4.018 3.214zm17.678 0a3.214 3.214 0 0 0-3.214-3.214c-2.411 0-4.018 3.214-4.018 3.214zM15.567 1.69a7.238 7.238 0 0 0-7.134 0"/></svg>