<svg id="Regular" xmlns="http://www.w3.org/2000/svg" viewBox="0 0 24 24" width="24" height="24"><defs><style>.cls-1{fill:none;stroke:#000;stroke-linecap:round;stroke-linejoin:round;stroke-width:1.5px}</style></defs><title>video-game-character</title><path class="cls-1" d="M5.878 8.25A8.74 8.74 0 0 1 6 6.75a6 6 0 0 1 12 0 8.74 8.74 0 0 1 .122 1.5m-.504 3.423A10.473 10.473 0 0 1 12 18a10.473 10.473 0 0 1-5.618-6.327"/><path class="cls-1" d="M18.122 8.25l2.744 2.35a.75.75 0 0 1-.534 1.318A34.948 34.948 0 0 1 12 10.5a34.948 34.948 0 0 1-8.332 1.419.75.75 0 0 1-.534-1.319l2.744-2.35zM9.75 5.625a.375.375 0 0 1 .375.375m-.75 0a.375.375 0 0 1 .375-.375m0 .75A.375.375 0 0 1 9.375 6m.75 0a.375.375 0 0 1-.375.375m4.5-.75a.375.375 0 0 1 .375.375m-.75 0a.375.375 0 0 1 .375-.375m0 .75A.375.375 0 0 1 13.875 6m.75 0a.375.375 0 0 1-.375.375M8.162 15H6.794a3 3 0 0 0-2.441 1.256L1.5 20.25m3.75 3L7.5 19.5v3.75M15.838 15h1.368a3 3 0 0 1 2.441 1.256L22.5 20.25m-3.75 3L16.5 19.5v3.75"/></svg>