<svg id="Regular" xmlns="http://www.w3.org/2000/svg" viewBox="0 0 24 24" width="24" height="24"><defs><style>.cls-1{fill:none;stroke:#000;stroke-linecap:round;stroke-linejoin:round;stroke-width:1.5px}</style></defs><title>video-game-mario-plant</title><path class="cls-1" d="M10.049 6.668l3.86-5.575a.8.8 0 0 1 1.447.366l.258 2.321a.8.8 0 0 0 .7.7l2.321.258a.8.8 0 0 1 .366 1.448l-5.571 3.863m-6.762 0L1.093 6.19a.8.8 0 0 1 .366-1.448l2.321-.258a.8.8 0 0 0 .7-.7l.258-2.321a.8.8 0 0 1 1.452-.37l3.859 5.575m0 6.762L6.19 19.005a.8.8 0 0 1-1.448-.366l-.258-2.321a.8.8 0 0 0-.7-.7l-2.321-.258a.8.8 0 0 1-.366-1.447l5.575-3.86m6.758-.004l5.575 3.86a.8.8 0 0 1-.366 1.447l-2.321.258a.8.8 0 0 0-.7.7l-.258 2.321a.8.8 0 0 1-1.447.366l-3.86-5.575m1.123-4.504l-2.254 2.254m0-2.254l2.254 2.254m-1.441 2.708l1.561 9.366"/><path class="cls-1" d="M19.8 20.062h3.45v1.063a2.125 2.125 0 0 1-2.125 2.125h-3.453v-1.063a2.125 2.125 0 0 1 2.128-2.125z" transform="rotate(-180 20.461 21.656)"/></svg>