<svg id="Regular" xmlns="http://www.w3.org/2000/svg" viewBox="0 0 24 24" width="24" height="24"><defs><style>.cls-1{fill:none;stroke:#000;stroke-linecap:round;stroke-linejoin:round;stroke-width:1.5px}</style></defs><title>video-game-kirby-enemy-kracko</title><path class="cls-1" d="M23.25 12a3.753 3.753 0 0 0-2.278-3.45 3.748 3.748 0 0 0-6.347-2.227 3.747 3.747 0 0 0-5.25 0A3.748 3.748 0 0 0 3.028 8.55a3.751 3.751 0 0 0 0 6.9 3.748 3.748 0 0 0 6.347 2.227 3.747 3.747 0 0 0 5.25 0 3.748 3.748 0 0 0 6.347-2.227A3.753 3.753 0 0 0 23.25 12z"/><circle class="cls-1" cx="8.25" cy="12" r="3"/><path class="cls-1" d="M8.25 11.625a.375.375 0 0 1 .375.375m-.75 0a.375.375 0 0 1 .375-.375m0 .75A.375.375 0 0 1 7.875 12m.75 0a.375.375 0 0 1-.375.375M6.75 5.25V.75M12 5.25V.75m5.25 4.5V.75m-10.5 18v4.5m5.25-4.5v4.5m5.25-4.5v4.5"/></svg>