<svg id="Regular" xmlns="http://www.w3.org/2000/svg" viewBox="0 0 24 24" width="24" height="24"><defs><style>.cls-1{fill:none;stroke:#000;stroke-linecap:round;stroke-linejoin:round;stroke-width:1.5px}</style></defs><title>video-game-mario</title><path class="cls-1" d="M17.439 6.83a3.745 3.745 0 0 0-1.662-2.976 3.239 3.239 0 0 1-1.623-2 .375.375 0 0 0-.687-.122 3.525 3.525 0 0 0 .087 3.663s-1.565-3.723-5.3-2.908c-2.22.485-3.4-.108-3.991-.67a.376.376 0 0 0-.633.255 7.582 7.582 0 0 0 1.279 4.959M2.25 13.5v3m1.5-1.5h-3m21-14.25v3m1.5-1.5h-3m-13.5 7.5h10.5v13.5H6.75zm-1.5 0h13.5m-13.5 13.5h13.5m-12-9h10.5m-10.5 4.5h10.5"/></svg>