<svg id="Regular" xmlns="http://www.w3.org/2000/svg" viewBox="0 0 24 24" width="24" height="24"><defs><style>.cls-1{fill:none;stroke:#000;stroke-linecap:round;stroke-linejoin:round;stroke-width:1.5px}</style></defs><title>video-game-flower-3</title><path class="cls-1" d="M21.5 13.5a9.75 9.75 0 0 1-19.5 0v-3a9.75 9.75 0 0 1 19.5 0z"/><path class="cls-1" d="M6.5 13.5a5.25 5.25 0 0 0 10.5 0v-3a5.25 5.25 0 0 0-10.5 0zm5.25-8.25V.75m0 18v4.5M6.5 12H2m15 0h4.5M4.512 3.968l3.462 2.885m11.014-2.885l-3.462 2.885M4.512 20.032l3.462-2.885m11.014 2.885l-3.462-2.885M9.5 10.5V12m4.5-1.5V12m-1.189 3.311a1.5 1.5 0 0 1-2.122 0M11.75 5.25c.5.161 1.838 2.021 0 3"/></svg>