<svg id="Regular" xmlns="http://www.w3.org/2000/svg" viewBox="0 0 24 24" width="24" height="24"><defs><style>.cls-1{fill:none;stroke:#000;stroke-linecap:round;stroke-linejoin:round;stroke-width:1.5px}</style></defs><title>video-game-gamasutra</title><path class="cls-1" d="M.75 22.5a.75.75 0 0 0 .75.75H3a.75.75 0 0 0 .75-.75v-2.25H1.5a.75.75 0 0 0-.75.75zm21.75.75a.75.75 0 0 0 .75-.75V21a.75.75 0 0 0-.75-.75h-2.25v2.25a.75.75 0 0 0 .75.75z"/><rect class="cls-1" x="10.5" y="20.25" width="3" height="3" rx=".75" ry=".75"/><path class="cls-1" d="M21 6.75a.75.75 0 0 1-.75-.75V4.5a.75.75 0 0 0-.75-.75H18a.75.75 0 0 1-.75-.75V1.5a.75.75 0 0 0-.75-.75h-9a.75.75 0 0 0-.75.75V3a.75.75 0 0 1-.75.75H4.5a.75.75 0 0 0-.75.75V6a.75.75 0 0 1-.75.75H1.5a.75.75 0 0 0-.75.75v9a.75.75 0 0 0 .75.75H3a.75.75 0 0 1 .75.75v2.25H6a.75.75 0 0 0 .75-.75V18a.75.75 0 0 1 .75-.75h9a.75.75 0 0 1 .75.75v1.5a.75.75 0 0 0 .75.75h2.25V18a.75.75 0 0 1 .75-.75h1.5a.75.75 0 0 0 .75-.75v-9a.75.75 0 0 0-.75-.75zm-16.5 6a.75.75 0 0 1-.75-.75v-1.5a.75.75 0 0 1 .75-.75H9a.75.75 0 0 1 .75.75V12a.75.75 0 0 1-.75.75zM20.25 12a.75.75 0 0 1-.75.75H15a.75.75 0 0 1-.75-.75v-1.5a.75.75 0 0 1 .75-.75h4.5a.75.75 0 0 1 .75.75z"/></svg>