<svg xmlns="http://www.w3.org/2000/svg" viewBox="0 0 24 24" width="24" height="24"><path fill="none" stroke="#000" stroke-linecap="round" stroke-linejoin="round" stroke-miterlimit="10" d="M16.5 9.5v12a2 2 0 01-2 2h-11a2 2 0 01-2-2v-17a2 2 0 012-2h7m0 4h-9m15 13h-15"/><circle fill="none" stroke="#000" stroke-linecap="round" stroke-linejoin="round" stroke-miterlimit="10" cx="9" cy="21.5" r=".5"/><g fill="none" stroke="#000" stroke-linecap="round" stroke-linejoin="round" stroke-miterlimit="10"><path d="M4 19.5V18c0-.55.433-1.123.961-1.274L7.5 16v-1.396m3 0V16l2.538.726c.529.151.962.724.962 1.274v1.5"/><ellipse cx="9" cy="11.771" rx="3" ry="3.272"/><path d="M11.958 11.213c-.5.5-1.919.461-2.458-.542-1 1-2.625 1-3.434.429"/></g><path fill="none" stroke="#000" stroke-linecap="round" stroke-linejoin="round" stroke-miterlimit="10" d="M19.5 7.5h-7v-7h7V3l3-1.5v5l-3-1.5zm-13-3h4"/><path fill="none" d="M0 0h24v24H0z"/></svg>