<svg xmlns="http://www.w3.org/2000/svg" viewBox="0 0 24 24" width="24" height="24"><defs><style>.a{fill:none;stroke:#000;stroke-linecap:round;stroke-linejoin:round;stroke-width:1.5px}</style></defs><title>video-edit-camera-archive</title><rect class="a" x="12.75" y="12" width="10.5" height="11.25" rx="1" ry="1"/><path class="a" d="M17.25 12v7.5m-1.5-4.5h3m-3 3h3m-15-12.375A.375.375 0 1 1 3.375 6a.375.375 0 0 1 .375-.375"/><path class="a" d="M17.25 9V4.5a1.5 1.5 0 0 0-1.5-1.5h-3l-.408-1.224A1.5 1.5 0 0 0 10.919.75H7.081a1.5 1.5 0 0 0-1.423 1.026L5.25 3h-3a1.5 1.5 0 0 0-1.5 1.5v8.25a1.5 1.5 0 0 0 1.5 1.5h7.5"/><circle class="a" cx="9" cy="8.25" r="3"/></svg>