<svg id="Regular" xmlns="http://www.w3.org/2000/svg" viewBox="0 0 24 24" width="24" height="24"><defs><style>.cls-1{fill:none;stroke:#000;stroke-linecap:round;stroke-linejoin:round;stroke-width:1.5px}</style></defs><title>video-game-controller-team</title><path class="cls-1" d="M5.25 14.25v3m-1.5-1.5h3m10.5.75a.375.375 0 0 1 .375.375m-.75 0a.375.375 0 0 1 .375-.375m0 .75a.375.375 0 0 1-.375-.375m.75 0a.375.375 0 0 1-.375.375m2.25-3a.375.375 0 0 1 .375.375m-.75 0a.375.375 0 0 1 .375-.375m0 .75a.375.375 0 0 1-.375-.375m.75 0A.375.375 0 0 1 19.5 15"/><path class="cls-1" d="M15.029 19.5a1.5 1.5 0 0 1 1.171.563l1.637 2.046a3.039 3.039 0 0 0 5.413-1.9V14.25a3 3 0 0 0-3-3H3.75a3 3 0 0 0-3 3v5.961a3.039 3.039 0 0 0 5.413 1.9L7.8 20.063a1.5 1.5 0 0 1 1.172-.563z"/><circle class="cls-1" cx="4.5" cy="3.375" r="2.625"/><path class="cls-1" d="M8.25 9a4.25 4.25 0 0 0-7.5 0"/><circle class="cls-1" cx="12" cy="3.375" r="2.625"/><path class="cls-1" d="M15.75 9a4.25 4.25 0 0 0-7.5 0"/><circle class="cls-1" cx="19.5" cy="3.375" r="2.625"/><path class="cls-1" d="M23.25 9a4.25 4.25 0 0 0-7.5 0"/></svg>