<svg xmlns="http://www.w3.org/2000/svg" viewBox="0 0 24 24" width="24" height="24"><defs><style>.a{fill:none;stroke:#000;stroke-linecap:round;stroke-linejoin:round;stroke-width:1.5px}</style></defs><title>video-player-monitor</title><path class="a" d="M15.75.75h4.5a1.5 1.5 0 0 1 1.5 1.5v10.5a1.5 1.5 0 0 1-1.5 1.5H3.75a1.5 1.5 0 0 1-1.5-1.5V2.25a1.5 1.5 0 0 1 1.5-1.5h3m14.017 21.568a.749.749 0 0 1-.728.932H3.961a.749.749 0 0 1-.728-.932l1.125-4.5a.749.749 0 0 1 .728-.568h13.828a.749.749 0 0 1 .728.568zM2.25 11.25h19.5m-15 9h1.5m7.5 0h1.5m-6 0h1.5"/><path class="a" d="M10.924 2.331a.853.853 0 0 0-.789.033.759.759 0 0 0-.385.652v3.718a.76.76 0 0 0 .385.652.853.853 0 0 0 .789.033l3.489-1.647a.979.979 0 0 0 0-1.794z"/></svg>