<svg id="Regular" xmlns="http://www.w3.org/2000/svg" viewBox="0 0 24 24" width="24" height="24"><defs><style>.cls-1{fill:none;stroke:#000;stroke-linecap:round;stroke-linejoin:round;stroke-width:1.5px}</style></defs><title>video-game-mario-mushroom</title><path class="cls-1" d="M12 .75a5.958 5.958 0 0 1 5.25 3c1.5 2.25 5.25 1.5 5.25 4.5a3 3 0 0 1-3 3h-15a3 3 0 0 1-3-3c0-3 3.75-2.25 5.25-4.5 0 0 2.25-3 5.25-3m-4.5 10.5s0 11.25-3.75 12m12.75-12s0 11.25 3.75 12m-18.75 0h21m-12-9v1.5m3-1.5v1.5m.091 3.841a2.249 2.249 0 0 1-3.182 0m-.294-18.457a3.75 3.75 0 1 1-6 4.365M15.75 11.25a3 3 0 0 1 5.87-.877"/></svg>