<svg id="Regular" xmlns="http://www.w3.org/2000/svg" viewBox="0 0 24 24" width="24" height="24"><defs><style>.cls-1{fill:none;stroke:#000;stroke-linecap:round;stroke-linejoin:round;stroke-width:1.5px}</style></defs><title>video-game-controller-wifi</title><path class="cls-1" d="M18.75 14.25H5.25a4.5 4.5 0 1 0 3.332 7.5h6.836a4.493 4.493 0 1 0 3.332-7.5zm-13.5 3v3m-1.5-1.5h3m10.5.375a.375.375 0 0 1 .375.375m-.75 0a.375.375 0 0 1 .375-.375m0 .75a.375.375 0 0 1-.375-.375m.75 0a.375.375 0 0 1-.375.375m2.25-3a.375.375 0 0 1 .375.375m-.75 0a.375.375 0 0 1 .375-.375m0 .75a.375.375 0 0 1-.375-.375m.75 0a.375.375 0 0 1-.375.375M8.818 9.568a4.5 4.5 0 0 1 6.364 0M6.166 6.916a8.252 8.252 0 0 1 11.668 0M3.515 4.265a12 12 0 0 1 16.97 0"/></svg>