<svg xmlns="http://www.w3.org/2000/svg" viewBox="0 0 24 24" width="24" height="24"><defs><style>.a{fill:none;stroke:#000;stroke-linecap:round;stroke-linejoin:round;stroke-width:1.5px}</style></defs><title>video-game-logo-youtube-gaming-2</title><path class="a" d="M1 7.406a.491.491 0 0 0-.255.43v5.555a.491.491 0 0 0 .255.43l10.766 5.869a.486.486 0 0 0 .468 0L23 13.821a.491.491 0 0 0 .255-.43V7.836a.491.491 0 0 0-.255-.43l-5.136-2.8a.486.486 0 0 0-.468 0l-5.162 2.812a.492.492 0 0 1-.468 0L6.609 4.605a.486.486 0 0 0-.468 0z"/><path class="a" d="M17.625 4.545v5.244a.489.489 0 0 0 .723.43l4.832-2.635"/></svg>