<svg id="Regular" xmlns="http://www.w3.org/2000/svg" viewBox="0 0 24 24" width="24" height="24"><defs><style>.cls-1{fill:none;stroke:#000;stroke-linecap:round;stroke-linejoin:round;stroke-width:1.5px}</style></defs><title>video-game-mario-1</title><path class="cls-1" d="M9 11.25v1.799m6-1.799v1.799"/><ellipse class="cls-1" cx="12" cy="18" rx="9" ry="5.25"/><path class="cls-1" d="M18.687 14.488C23.993 8.323 14.434 1.912 10.164.75c0 0 1.756 1.423-1.643 3.6-5.031 2.035-6.1 6.9-3.2 10.131m-2.133 2.445a16.371 16.371 0 0 0 17.624 0M12 19.503v3.746m4.5-4.42v3.719m-9-3.719v3.719m-3.586-6.856a3 3 0 0 1-.141-5.853m16.41-.011a3 3 0 0 1-.1 5.864m-9.583.058l1.5.75 1.5-.75"/><path class="cls-1" d="M19.542 7.918A4.045 4.045 0 0 0 16.5 6.75c-3 0-2.25 3-4.5 3s-1.5-3-4.5-3a3.968 3.968 0 0 0-3.256 1.41"/></svg>