<svg xmlns="http://www.w3.org/2000/svg" viewBox="0 0 24 24" width="24" height="24"><defs><style>.a{fill:none;stroke:#000;stroke-linecap:round;stroke-linejoin:round;stroke-width:1.5px}</style></defs><title>video-file-avi</title><path class="a" d="M8.25 23.25h-6a1.5 1.5 0 0 1-1.5-1.5V2.25a1.5 1.5 0 0 1 1.5-1.5h10.629a1.5 1.5 0 0 1 1.06.439l5.872 5.872a1.5 1.5 0 0 1 .439 1.06v4.629"/><path class="a" d="M20.25 8.25h-6a1.5 1.5 0 0 1-1.5-1.5v-6m-1.5 22.5v-6a1.5 1.5 0 0 1 3 0v6m-3-3h3m3-4.5v2.55a8.932 8.932 0 0 0 1.5 4.954 8.932 8.932 0 0 0 1.5-4.954v-2.55m3 7.5v-7.5"/></svg>