<svg xmlns="http://www.w3.org/2000/svg" viewBox="0 0 24 24" width="24" height="24"><defs><style>.a{fill:none;stroke:#000;stroke-linecap:round;stroke-linejoin:round;stroke-width:1.5px}</style></defs><title>video-game-logo-creeper</title><rect class="a" x=".75" y=".75" width="22.5" height="22.5" rx="1" ry="1"/><path class="a" d="M15 17.25v2.25a.75.75 0 0 0 .75.75h1.5a.75.75 0 0 0 .75-.75v-6.75a.75.75 0 0 0-.75-.75H15a.75.75 0 0 1-.75-.75V4.5a.75.75 0 0 1 .75-.75h4.5a.75.75 0 0 1 .75.75v3.75a.75.75 0 0 1-.75.75h-15a.75.75 0 0 1-.75-.75V4.5a.75.75 0 0 1 .75-.75H9a.75.75 0 0 1 .75.75v6.75A.75.75 0 0 1 9 12H6.75a.75.75 0 0 0-.75.75v6.75a.75.75 0 0 0 .75.75h1.5A.75.75 0 0 0 9 19.5v-2.25z"/></svg>