<svg xmlns="http://www.w3.org/2000/svg" viewBox="0 0 24 24" width="24" height="24"><defs><style>.a{fill:none;stroke:#000;stroke-linecap:round;stroke-linejoin:round;stroke-width:1.5px}</style></defs><title>video-game-logo-xbox-1</title><path class="a" d="M16.928 1.883a.489.489 0 0 1-.158.926 17.177 17.177 0 0 0-4.582 1.226.49.49 0 0 1-.376 0 17.184 17.184 0 0 0-4.583-1.226.489.489 0 0 1-.157-.926 11.284 11.284 0 0 1 9.856 0zm5.644 13.98a.489.489 0 0 1-.946-.114 13.631 13.631 0 0 0-5.326-9.07.489.489 0 0 1 .093-.823A13.363 13.363 0 0 1 20.179 4.6a.491.491 0 0 1 .443.17 11.293 11.293 0 0 1 1.95 11.1zm-2.312 3.514a.49.49 0 0 1-.131.4 11.246 11.246 0 0 1-16.258 0 .49.49 0 0 1-.131-.4c.418-3.349 3.936-7.528 7.964-10.591a.489.489 0 0 1 .592 0c4.028 3.062 7.546 7.242 7.964 10.591zM2.374 15.749a.489.489 0 0 1-.946.114 11.293 11.293 0 0 1 1.95-11.1.493.493 0 0 1 .443-.17 13.363 13.363 0 0 1 3.791 1.263.489.489 0 0 1 .093.823 13.631 13.631 0 0 0-5.331 9.07z"/></svg>