<svg id="Regular" xmlns="http://www.w3.org/2000/svg" viewBox="0 0 24 24" width="24" height="24"><defs><style>.cls-1{fill:none;stroke:#000;stroke-linecap:round;stroke-linejoin:round;stroke-width:1.5px}</style></defs><title>video-game-nintendo-1</title><path class="cls-1" d="M19.875 15.75a.375.375 0 0 1 .375.375m-.75 0a.375.375 0 0 1 .375-.375m0 .75a.375.375 0 0 1-.375-.375m.75 0a.375.375 0 0 1-.375.375m0 3a.375.375 0 0 1 .375.375m-.75 0a.375.375 0 0 1 .375-.375m0 .75a.375.375 0 0 1-.375-.375m.75 0a.375.375 0 0 1-.375.375M1.75.75h20.5a1 1 0 0 1 1 1V12H.75V1.75a1 1 0 0 1 1-1z"/><path class="cls-1" d="M.75 12h22.5v10.25a1 1 0 0 1-1 1H1.75a1 1 0 0 1-1-1V12z"/><rect class="cls-1" x="7.5" y="3.75" width="9" height="5.25" rx=".5" ry=".5"/><rect class="cls-1" x="7.5" y="15" width="9" height="5.25" rx=".5" ry=".5"/><path class="cls-1" d="M3 16.5h1.5m-1.5 3h1.5"/></svg>