<svg xmlns="http://www.w3.org/2000/svg" viewBox="0 0 24 24" width="24" height="24"><g fill="none" stroke="#000" stroke-linecap="round" stroke-linejoin="round" stroke-miterlimit="10"><path d="M20.5 7.5h-7v-7h7V3l3-1.5v5l-3-1.5zM5 23.5h9m-4.5-2v2m-9-5h18"/><path d="M18.5 9.5v10.412c0 .877-.671 1.588-1.5 1.588H2A1.5 1.5 0 01.5 20V8.088C.5 7.211 1.172 6.5 2 6.5h9.5"/><path d="M4.5 18.5V18c0-.55.433-1.123.961-1.274L8 16v-1.396m3 0V16l2.538.726c.529.151.962.724.962 1.274v.5"/><ellipse cx="9.5" cy="11.771" rx="3" ry="3.272"/><path d="M12.458 11.213c-.5.5-1.919.461-2.458-.542-1 1-2.625 1-3.434.429"/></g><path fill="none" d="M0 0h24v24H0z"/></svg>