<svg id="Regular" xmlns="http://www.w3.org/2000/svg" viewBox="0 0 24 24" width="24" height="24"><defs><style>.cls-1{fill:none;stroke:#000;stroke-linecap:round;stroke-linejoin:round;stroke-width:1.5px}</style></defs><title>video-game-sling</title><path class="cls-1" d="M15 1.5a2.251 2.251 0 0 0-2.25 2.25v.75a3.75 3.75 0 0 1-7.5 0v-.75a2.25 2.25 0 0 0-4.5 0v.75a8.265 8.265 0 0 0 6 7.938v7.812a2.25 2.25 0 0 0 4.5 0v-7.812a8.266 8.266 0 0 0 6-7.938v-.75A2.251 2.251 0 0 0 15 1.5zM14.25 15l4.65 4.56"/><circle class="cls-1" cx="21" cy="18.75" r="2.25"/><path class="cls-1" d="M17.25 3.75l5.354 13.423"/></svg>