<svg id="Regular" xmlns="http://www.w3.org/2000/svg" viewBox="0 0 24 24" width="24" height="24"><defs><style>.cls-1{fill:none;stroke:#000;stroke-linecap:round;stroke-linejoin:round;stroke-width:1.5px}</style></defs><title>video-game-wii-music</title><rect class="cls-1" x="8.25" y="14.25" width="15" height="9" rx="1.5" ry="1.5"/><path class="cls-1" d="M10.5 18.75h3m-1.5-1.5v3m7.875-3a.375.375 0 0 1 .375.375m-.75 0a.375.375 0 0 1 .375-.375m0 .75a.375.375 0 0 1-.375-.375m.75 0a.375.375 0 0 1-.375.375m-1.5 1.5a.375.375 0 0 1 .375.375m-.75 0a.375.375 0 0 1 .375-.375m0 .75a.375.375 0 0 1-.375-.375m.75 0a.375.375 0 0 1-.375.375"/><circle class="cls-1" cx="3" cy="15.75" r="2.25"/><path class="cls-1" d="M11.25 11.25a2.25 2.25 0 0 1 4.5 0v-9A1.5 1.5 0 0 0 13.616.891l-7.5 3.1A1.5 1.5 0 0 0 5.25 5.35v10.4"/></svg>