<svg id="Regular" xmlns="http://www.w3.org/2000/svg" viewBox="0 0 24 24" width="24" height="24"><defs><style>.cls-1{fill:none;stroke:#000;stroke-linecap:round;stroke-linejoin:round;stroke-width:1.5px}</style></defs><title>video-game-angry-birds</title><path class="cls-1" d="M21.75 13.5a9.75 9.75 0 0 1-19.5 0C2.25 8.115 6.615 2.25 12 2.25s9.75 5.865 9.75 11.25z"/><path class="cls-1" d="M2.25 4.5L12 9.75l9.75-5.25m-7.125 5.25a.375.375 0 0 1 .375.375m-.75 0a.375.375 0 0 1 .375-.375m0 .75a.375.375 0 0 1-.375-.375m.75 0a.375.375 0 0 1-.375.375m-5.25-.75a.375.375 0 0 0-.375.375m.75 0a.375.375 0 0 0-.375-.375m0 .75a.375.375 0 0 0 .375-.375m-.75 0a.375.375 0 0 0 .375.375m3.739 4.946a3 3 0 0 0-2.228 0L8.25 16.5l2.689 2.689a1.5 1.5 0 0 0 2.122 0L15.75 16.5zM12 .75v1.5L8.25.75"/><path class="cls-1" d="M8.086 7.642A3 3 0 1 0 12 10.5v-.75m3.914-2.108A3 3 0 1 1 12 10.5v-.75"/></svg>