<svg id="Regular" xmlns="http://www.w3.org/2000/svg" viewBox="0 0 24 24" width="24" height="24"><defs><style>.cls-1{fill:none;stroke:#000;stroke-linecap:round;stroke-linejoin:round;stroke-width:1.5px}</style></defs><title>video-game-wii</title><rect class="cls-1" x=".75" y="9" width="22.5" height="14.25" rx=".75" ry=".75"/><rect class="cls-1" x="6.75" y=".75" width="10.5" height="5.25" rx="1" ry="1"/><path class="cls-1" d="M13.875 3a.375.375 0 0 1 .375.375m-.75 0A.375.375 0 0 1 13.875 3m0 .75a.375.375 0 0 1-.375-.375m.75 0a.375.375 0 0 1-.375.375M12 6v3"/><circle class="cls-1" cx="12" cy="13.5" r="1.5"/><path class="cls-1" d="M9 15.75h6M12 18v-2.25m-2.25 4.5L12 18l2.25 2.25"/></svg>