<svg id="Regular" xmlns="http://www.w3.org/2000/svg" viewBox="0 0 24 24" width="24" height="24"><defs><style>.cls-1{fill:none;stroke:#000;stroke-linecap:round;stroke-linejoin:round;stroke-width:1.5px}</style></defs><title>video-game-cat</title><path class="cls-1" d="M21.75 11.961a7.908 7.908 0 0 1 1.5 4.569c0 5.012-5.037 5.775-11.25 5.775S.75 21.542.75 16.53a7.908 7.908 0 0 1 1.5-4.569M9.178 7.6A13.416 13.416 0 0 1 12 7.305a12.932 12.932 0 0 1 6 1.44m-5.25 4.56v1.5m4.5-1.5v1.5"/><path class="cls-1" d="M17.25 19.305a1.5 1.5 0 0 1-3 0v-1.5h3zm-9-3h1.5m10.5 0h1.5m-19.5-4.344V3a.75.75 0 0 1 1.255-.555L9.178 7.6m12.572 4.361l.568-8.323a.75.75 0 0 0-1.166-.624l-6.531 4.547"/></svg>