<svg xmlns="http://www.w3.org/2000/svg" viewBox="0 0 24 24" width="24" height="24"><g fill="none" stroke="#000" stroke-linecap="round" stroke-linejoin="round" stroke-miterlimit="10"><path d="M19.5 16.5v3h-15v-3m1.502-5.698A5.749 5.749 0 013 5.75c0-.472.063-.929.171-1.369A6.735 6.735 0 00.5 9.75a6.751 6.751 0 004 6.167M18 10.801a5.749 5.749 0 003-5.051 5.73 5.73 0 00-.171-1.369A6.735 6.735 0 0123.5 9.75a6.751 6.751 0 01-4 6.167"/><path d="M10 8.27a7.503 7.503 0 00-5.5 7.23v1h15v-1c0-3.45-2.33-6.357-5.503-7.231"/><path d="M13.89 7.6a1 1 0 00-.995-1.1h-1.789a1.001 1.001 0 00-.996 1.1l.89 8.9h2l.89-8.9z"/></g><path fill="none" d="M0 0h24v24H0z"/></svg>