<svg xmlns="http://www.w3.org/2000/svg" viewBox="0 0 24 24" width="24" height="24"><defs><style>.a{fill:none;stroke:#000;stroke-linecap:round;stroke-linejoin:round;stroke-width:1.5px}</style></defs><title>vintage-car-8</title><path class="a" d="M3.75 8.25h-3m19.5 0h3m-3 3v-4.5a4.5 4.5 0 0 0-4.5-4.5h-7.5a4.5 4.5 0 0 0-4.5 4.5v4.5"/><path class="a" d="M20.25 11.25s-.75-3-5.25-3H9c-4.5 0-5.25 3-5.25 3m-1.5 6.534v2.466a1.5 1.5 0 0 0 3 0v-1.5m-1.125-4.5a.375.375 0 0 0-.375.375m.75 0a.375.375 0 0 0-.375-.375m0 .75a.375.375 0 0 0 .375-.375m-.75 0a.375.375 0 0 0 .375.375"/><path class="a" d="M8.25 18.75V13.5a5.625 5.625 0 0 0-4.5-2.25 2.938 2.938 0 0 0-3 3 4.247 4.247 0 0 0 4.5 4.5zm13.5-.966v2.466a1.5 1.5 0 0 1-3 0v-1.5m1.125-4.5a.375.375 0 0 1 .375.375m-.75 0a.375.375 0 0 1 .375-.375m0 .75a.375.375 0 0 1-.375-.375m.75 0a.375.375 0 0 1-.375.375"/><path class="a" d="M15.75 18.75V13.5a5.625 5.625 0 0 1 4.5-2.25 2.938 2.938 0 0 1 3 3 4.247 4.247 0 0 1-4.5 4.5z"/><path class="a" d="M15.75 18.75h-7.5V13.5l2.89-2.023a1.5 1.5 0 0 1 1.72 0l2.89 2.023z"/></svg>