<svg xmlns="http://www.w3.org/2000/svg" viewBox="0 0 24 24" width="24" height="24"><defs><style>.a{fill:none;stroke:#000;stroke-linecap:round;stroke-linejoin:round;stroke-width:1.5px}</style></defs><title>vintage-tv-3</title><path class="a" d="M1.728 1.5a.978.978 0 0 0-.978.978v17.087a.978.978 0 0 0 .978.978h.979l.707 1.416a.978.978 0 0 0 .875.541h15.422a.978.978 0 0 0 .875-.541l.707-1.416h.979a.978.978 0 0 0 .978-.978V2.478a.978.978 0 0 0-.978-.978zm3.522 18h2.935m8.837 0H18m-5.25 0h.978"/><path class="a" d="M20.25 15.587a.434.434 0 0 1-.367.429 56.358 56.358 0 0 1-7.883.367 56.358 56.358 0 0 1-7.883-.367.433.433 0 0 1-.367-.429V5.022a.434.434 0 0 1 .367-.429A56.266 56.266 0 0 1 12 4.225a56.266 56.266 0 0 1 7.883.368.432.432 0 0 1 .367.429z"/></svg>