<svg xmlns="http://www.w3.org/2000/svg" viewBox="0 0 24 24" width="24" height="24"><defs><style>.a{fill:none;stroke:#000;stroke-linecap:round;stroke-linejoin:round;stroke-width:1.5px}</style></defs><title>vintage-man-moustache-1</title><path class="a" d="M2.25 23.25a10.669 10.669 0 0 1 19.5 0m-4.5-14.088a5.23 5.23 0 0 1-.941 3m-8.618.001a5.23 5.23 0 0 1-.941-3"/><path class="a" d="M11.25 12.162c1.1 2.344-2.968 3.412-5.4 2.531.879-2.433 4.302-4.874 5.4-2.531zm1.5 0c-1.1 2.344 2.968 3.412 5.4 2.531-.879-2.433-4.302-4.874-5.4-2.531zM3 6.75a54.753 54.753 0 0 0 18 0m-9 16.5l-3.337-5.804L6.75 21.75 9 23.25m3 0l3.337-5.804 1.913 4.304-2.25 1.5"/><path class="a" d="M6.75 7.242V6a5.25 5.25 0 0 1 10.5 0v1.242"/></svg>