<svg xmlns="http://www.w3.org/2000/svg" viewBox="0 0 24 24" width="24" height="24"><defs><style>.a{fill:none;stroke:#000;stroke-linecap:round;stroke-linejoin:round;stroke-width:1.5px}</style></defs><title>vintage-car-luggage</title><circle class="a" cx="18.751" cy="20.75" r="1.5"/><circle class="a" cx="5.25" cy="20.75" r="1.5"/><path class="a" d="M17.251 20.75H6.75m13.501 0s1.406-.7 1.921-.961c.845-.431 1.078-.539 1.078-2.039s-.367-2.2-1.224-2.309L16.5 14.75l-3.3-3.96a1.5 1.5 0 0 0-1.153-.54H5.871a1.5 1.5 0 0 0-1.06.439l-3.622 3.622a1.5 1.5 0 0 0-.439 1.06v2.379a3 3 0 0 0 3 3m12.75-6l-2.25 6"/><path class="a" d="M7.5 10.1v5.4l2.25 5.25m-9-5.25H7.5M18.59 3.737l-.75 1.35a1.575 1.575 0 0 1-1.34.663h-9A1.375 1.375 0 0 1 6 4.55V3.2A1.375 1.375 0 0 1 7.5 2h9.748c1.115 0 1.84.939 1.342 1.737zM7.5 5.75v4.35m5.25.15l1.5-4.5"/></svg>