<svg xmlns="http://www.w3.org/2000/svg" viewBox="0 0 24 24" width="24" height="24"><defs><style>.a{fill:none;stroke:#000;stroke-linecap:round;stroke-linejoin:round;stroke-width:1.5px}</style></defs><title>vintage-woman-1</title><path class="a" d="M3.723 6.75h16.5m-3-.75a5.25 5.25 0 1 1-10.5 0L7.6 2.925A3 3 0 0 1 10.486.75h2.974a3 3 0 0 1 2.885 2.175zm-10.447.75S6.723 10.5 3.723 12M17.17 6.75s.053 3.75 3.053 5.25M8.826 13.982a10.407 10.407 0 0 0-2.747 1.334L8.223 19.5l3.75-3zm6.295 0L11.973 16.5l3.75 3 2.145-4.184a10.407 10.407 0 0 0-2.747-1.334z"/><path class="a" d="M22.446 23.25a10.507 10.507 0 0 0-7.325-9.27l-3.148 2.52-3.147-2.518A10.509 10.509 0 0 0 1.5 23.25m6.723-3.75l1.5 3.75m6-3.75l-1.5 3.75"/></svg>