<svg xmlns="http://www.w3.org/2000/svg" viewBox="0 0 24 24" width="24" height="24"><defs><style>.a{fill:none;stroke:#000;stroke-linecap:round;stroke-linejoin:round;stroke-width:1.5px}</style></defs><title>vintage-car-3</title><circle class="a" cx="18.75" cy="16.75" r="1.5"/><circle class="a" cx="6.75" cy="16.75" r="1.5"/><path class="a" d="M10.89 16.75a4.139 4.139 0 0 0-4.14-4.14c-2.287 0-6 1.853-6 4.14m22.111-.493a4.14 4.14 0 0 0-4.111-3.647c-3.733 0-7.75 3.964-7.75 3.964m6.25.176h-9"/><path class="a" d="M20.25 16.75h1.5a1.5 1.5 0 0 0 1.5-1.5l-1.475-4.5a2 2 0 0 0-1.832-1.2H13l-1-3.8H6.75a6 6 0 0 0-6 6v5h4.5"/><path class="a" d="M7.707 5.75l.793 3.8H13"/></svg>