<svg xmlns="http://www.w3.org/2000/svg" viewBox="0 0 24 24" width="24" height="24"><defs><style>.a{fill:none;stroke:#000;stroke-linecap:round;stroke-linejoin:round;stroke-width:1.5px}</style></defs><title>vintage-car-carriage</title><circle class="a" cx="5.25" cy="18" r="4.5"/><circle class="a" cx="5.25" cy="18" r="1.5"/><circle class="a" cx="18.75" cy="19.5" r="3"/><path class="a" d="M9.75 16.5h9a4.5 4.5 0 0 0 4.5-4.5"/><path class="a" d="M9.493 16.5H13.5l1.917-10.864a3 3 0 0 0-1.878-3.323A14.815 14.815 0 0 0 8.25 1.5a14.815 14.815 0 0 0-5.289.813 3 3 0 0 0-1.878 3.323l1.537 8.713M1.941 10.5h12.618M5.25 1.72v8.78m6-8.78v8.78"/></svg>