<svg xmlns="http://www.w3.org/2000/svg" viewBox="0 0 24 24" width="24" height="24"><defs><style>.a{fill:none;stroke:#000;stroke-linecap:round;stroke-linejoin:round;stroke-width:1.5px}</style></defs><title>vintage-camera-polaroid</title><path class="a" d="M3.75 11.25l-2.68 3.631m19.18-3.631l2.68 3.631m-1.411 5.369a1.628 1.628 0 0 0 1.731-1.5v-3a1.628 1.628 0 0 0-1.731-1.5H2.481a1.628 1.628 0 0 0-1.731 1.5v3a1.628 1.628 0 0 0 1.731 1.5m2.769-3h13.5"/><circle class="a" cx="12" cy="6" r="3"/><path class="a" d="M6.75 7.875a.375.375 0 1 1-.375.375.375.375 0 0 1 .375-.375m0 9.375l-2.25 6h15l-2.25-6H6.75z"/><path class="a" d="M20.25 11.25H3.75v-7.5a3 3 0 0 1 3-3h10.5a3 3 0 0 1 3 3z"/></svg>