<svg xmlns="http://www.w3.org/2000/svg" viewBox="0 0 24 24" width="24" height="24"><defs><style>.a{fill:none;stroke:#000;stroke-linecap:round;stroke-linejoin:round;stroke-width:1.5px}</style></defs><title>vintage-tv</title><rect class="a" x=".75" y="6" width="22.5" height="16.5" rx="3" ry="3"/><path class="a" d="M3.75 17.578v-6.656A1.5 1.5 0 0 1 4.956 9.45 24.231 24.231 0 0 1 9.75 9a24.231 24.231 0 0 1 4.794.45 1.5 1.5 0 0 1 1.206 1.472v6.656a1.5 1.5 0 0 1-1.206 1.472 24.231 24.231 0 0 1-4.794.45 24.231 24.231 0 0 1-4.794-.45 1.5 1.5 0 0 1-1.206-1.472zM19.5 11.25a.375.375 0 1 0 .375.375.375.375 0 0 0-.375-.375m0 4.125a.375.375 0 1 0 .375.375.375.375 0 0 0-.375-.375M7.5 1.5L12.75 6l4.5-4.5"/></svg>