<svg xmlns="http://www.w3.org/2000/svg" viewBox="0 0 24 24" width="24" height="24"><defs><style>.a{fill:none;stroke:#000;stroke-linecap:round;stroke-linejoin:round;stroke-width:1.5px}</style></defs><title>vintage-tv-1</title><path class="a" d="M23.25 19.9a1.086 1.086 0 0 1-1.071 1.1H1.821A1.086 1.086 0 0 1 .75 19.9V5.6a1.086 1.086 0 0 1 1.071-1.1h20.358a1.086 1.086 0 0 1 1.071 1.1zM3.75 21v2.25M20.25 21v2.25M6.75.75L12 4.5 17.25.75"/><path class="a" d="M19.505 15.118a2.942 2.942 0 0 1-2.993 2.87l-9 .021a2.943 2.943 0 0 1-3.007-2.856l-.011-4.772A2.944 2.944 0 0 1 7.488 7.51l9-.02a2.941 2.941 0 0 1 3.006 2.856z"/></svg>