<svg xmlns="http://www.w3.org/2000/svg" viewBox="0 0 24 24" width="24" height="24"><defs><style>.a{fill:none;stroke:#000;stroke-linecap:round;stroke-linejoin:round;stroke-width:1.5px}</style></defs><title>vintage-camera-foldable</title><path class="a" d="M9.75 15.75h-7.5a1.5 1.5 0 0 1-1.5-1.5v-12a1.5 1.5 0 0 1 1.5-1.5h6a1.5 1.5 0 0 1 1.5 1.5zm0-3l9-2.25v-6l-9-2.25v10.5zm9-3.75l3.513 1.171a.75.75 0 0 0 .987-.712V5.541a.75.75 0 0 0-.987-.712L18.75 6z"/><path class="a" d="M9.75 15.75h9V2.25M4.5 15.75l10.5 7.5m0-7.5l-10.5 7.5m9.75-19.875v8.25"/></svg>