<svg xmlns="http://www.w3.org/2000/svg" viewBox="0 0 24 24" width="24" height="24"><defs><style>.a{fill:none;stroke:#000;stroke-linecap:round;stroke-linejoin:round;stroke-width:1.5px}</style></defs><title>vintage-tv-4</title><rect class="a" x=".75" y="6" width="22.5" height="16.5" rx="1.5" ry="1.5"/><path class="a" d="M3.75 17.511v-6.558a1.487 1.487 0 0 1 1.227-1.476A42.015 42.015 0 0 1 12 9a42.015 42.015 0 0 1 7.023.477 1.487 1.487 0 0 1 1.227 1.476v6.558A1.493 1.493 0 0 1 19 18.992a44.132 44.132 0 0 1-7 .508 44.132 44.132 0 0 1-6.995-.508 1.493 1.493 0 0 1-1.255-1.481zM10.5 1.5L14.25 6 18 1.5"/></svg>