<svg xmlns="http://www.w3.org/2000/svg" viewBox="0 0 24 24" width="24" height="24"><defs><style>.a{fill:none;stroke:#000;stroke-linecap:round;stroke-linejoin:round;stroke-width:1.5px}</style></defs><title>vintage-camera-flash</title><path class="a" d="M8.25 8.237h-6a1.5 1.5 0 0 0-1.5 1.5v11.511a2 2 0 0 0 2 2h8a2 2 0 0 0 2-2v-6.261"/><circle class="a" cx="17.25" cy="6.75" r="6"/><circle class="a" cx="17.25" cy="6.75" r="1.5"/><circle class="a" cx="6.75" cy="13.487" r="2.25"/><circle class="a" cx="6.75" cy="17.987" r="2.25"/><path class="a" d="M12.75 17.987h3m3-5.426v9.176a1.5 1.5 0 0 1-1.5 1.5 1.5 1.5 0 0 1-1.5-1.5v-9.176"/></svg>