<svg xmlns="http://www.w3.org/2000/svg" viewBox="0 0 24 24" width="24" height="24"><defs><style>.a{fill:none;stroke:#000;stroke-linecap:round;stroke-linejoin:round;stroke-width:1.5px}</style></defs><title>vintage-car-7</title><path class="a" d="M9.75 16.5h4.5v3h-4.5zm-7.5.75v2.25a1.5 1.5 0 0 0 3 0V18m-.75-4.125a.375.375 0 0 1 .375.375m-.75 0a.375.375 0 0 1 .375-.375m0 .75a.375.375 0 0 1-.375-.375m.75 0a.375.375 0 0 1-.375.375m17.25 2.625v2.25a1.5 1.5 0 0 1-3 0V18"/><path class="a" d="M14.25 18h5.25a3.75 3.75 0 0 0 0-7.5c-2.071 0-5.25 3-7.5 3s-5.429-3-7.5-3a3.75 3.75 0 0 0 0 7.5h5.25m9.75-4.125a.375.375 0 0 0-.375.375m.75 0a.375.375 0 0 0-.375-.375m0 .75a.375.375 0 0 0 .375-.375m-.75 0a.375.375 0 0 0 .375.375"/><path class="a" d="M18.105 10.826C17.25 9 14.709 7.5 12 7.5S6.75 9 5.9 10.826"/><path class="a" d="M19.5 10.5l-1.609-5.362A3 3 0 0 0 15.018 3H8.982a3 3 0 0 0-2.873 2.138L4.5 10.5"/></svg>