<svg xmlns="http://www.w3.org/2000/svg" viewBox="0 0 24 24" width="24" height="24"><defs><style>.a{fill:none;stroke:#000;stroke-linecap:round;stroke-linejoin:round;stroke-width:1.5px}</style></defs><title>vinyl-record-player-2</title><path class="a" d="M10.125 7.5a.375.375 0 1 1-.375.375.375.375 0 0 1 .375-.375"/><path class="a" d="M23.083 17.9a3.555 3.555 0 0 0 .167-1.078 3.39 3.39 0 0 0-.174-1.075L19.685 3.289a1.436 1.436 0 0 0-1.326-1.039H5.641a1.436 1.436 0 0 0-1.326 1.039L.924 15.75a3.39 3.39 0 0 0-.174 1.075A3.555 3.555 0 0 0 .917 17.9l1.455 2.8a1.418 1.418 0 0 0 1.313 1.05h16.63a1.417 1.417 0 0 0 1.313-1.045z"/><path class="a" d="M17.135 5.109l.9 2.248a2.954 2.954 0 0 1-.9 3.4l-.562.449"/><ellipse class="a" cx="10.125" cy="7.875" rx="4.125" ry="3.375"/><path class="a" d="M.765 16.5h22.469m-17.984-3h1.5"/></svg>