<svg xmlns="http://www.w3.org/2000/svg" viewBox="0 0 24 24" width="24" height="24"><defs><style>.a{fill:none;stroke:#000;stroke-linecap:round;stroke-linejoin:round;stroke-width:1.5px}</style></defs><title>vip-crown</title><path class="a" d="M21 18H3a2.25 2.25 0 0 0-2.25 2.25A2.25 2.25 0 0 0 3 22.5h18a2.25 2.25 0 0 0 2.25-2.25A2.25 2.25 0 0 0 21 18z"/><path class="a" d="M7.73 7.523A2.184 2.184 0 0 0 7.5 7.5a6.75 6.75 0 0 0-6.75 6.75 6.663 6.663 0 0 0 1.318 3.957A2.231 2.231 0 0 1 3 18h18a2.231 2.231 0 0 1 .932.207 6.663 6.663 0 0 0 1.318-3.957A6.75 6.75 0 0 0 16.5 7.5a2.139 2.139 0 0 0-.229.023"/><circle class="a" cx="12" cy="3.75" r="2.25"/><path class="a" d="M7.5 15a2.25 2.25 0 0 1-2.25-2.25 6.75 6.75 0 0 1 13.5 0A2.25 2.25 0 0 1 16.5 15"/></svg>