<svg xmlns="http://www.w3.org/2000/svg" viewBox="0 0 24 24" width="24" height="24"><defs><style>.a{fill:none;stroke:#000;stroke-linecap:round;stroke-linejoin:round;stroke-width:1.5px}</style></defs><title>vip-crown-queen</title><path class="a" d="M21 18.75H3A2.25 2.25 0 0 0 .75 21 2.25 2.25 0 0 0 3 23.25h18A2.25 2.25 0 0 0 23.25 21 2.25 2.25 0 0 0 21 18.75zm-9-10.5V.75M9.75 3h4.5"/><path class="a" d="M2.087 18.951a4.5 4.5 0 1 1 7.663-3.2v3m12.163.2a4.5 4.5 0 1 0-7.663-3.2v3"/><path class="a" d="M8.273 12.417A3.828 3.828 0 0 1 8.25 12a3.75 3.75 0 0 1 7.5 0c0 .129-.007.257-.019.383"/></svg>