<svg xmlns="http://www.w3.org/2000/svg" viewBox="0 0 24 24" width="24" height="24"><defs><style>.a{fill:none;stroke:#000;stroke-linecap:round;stroke-linejoin:round;stroke-width:1.5px}</style></defs><title>virtual-box</title><path class="a" d="M9.128 18.75H7.961A2.121 2.121 0 0 0 6 21v1.125a1.06 1.06 0 0 0 .98 1.125h10.789a1.061 1.061 0 0 0 .981-1.125V21a2.122 2.122 0 0 0-1.962-2.25h-3.417"/><circle class="a" cx="11.25" cy="18" r="2.25"/><path class="a" d="M16.585 4.5l-4.5 2.25m0 0L7.017 3.854m5.068 3.229v5.667M12.731.94a1.245 1.245 0 0 0-1.324 0l-4.068 2.6a1.059 1.059 0 0 0-.5.888v4.941a1.066 1.066 0 0 0 .558.921l4.069 2.3a1.246 1.246 0 0 0 1.214 0l4.1-2.3a1.062 1.062 0 0 0 .561-.922V4.434a1.06 1.06 0 0 0-.506-.89zm10.334 6.825a.25.25 0 1 1-.306.177.25.25 0 0 1 .306-.177m-.982 4.06a.25.25 0 1 1-.306.177.25.25 0 0 1 .306-.177m-1.361 4.633a.25.25 0 1 1-.129.483.25.25 0 1 1 .129-.483M.935 7.765a.25.25 0 1 0 .306.177.25.25 0 0 0-.306-.177m.982 4.06a.25.25 0 1 0 .306.175.25.25 0 0 0-.306-.177m1.361 4.635a.25.25 0 1 0 .129.483.25.25 0 0 0-.129-.483"/></svg>