<svg xmlns="http://www.w3.org/2000/svg" viewBox="0 0 24 24" width="24" height="24"><defs><style>.a{fill:none;stroke:#000;stroke-linecap:round;stroke-linejoin:round;stroke-width:1.5px}</style></defs><title>virtual-touch-board</title><path class="a" d="M14.252 21.75h6.519a1.06 1.06 0 0 0 .98-1.125V19.5a2.121 2.121 0 0 0-1.961-2.25h-5.538m-6.001 0H4.213a2.122 2.122 0 0 0-1.962 2.25v1.125a1.061 1.061 0 0 0 .981 1.125h5.019"/><circle class="a" cx="11.251" cy="19.5" r="3.75"/><path class="a" d="M11.253 19.142a.375.375 0 1 1-.392.357.376.376 0 0 1 .392-.357M4.501 21.75v1.5m15-1.5v1.5m-.017-16.5V1.5a.749.749 0 0 0-.749-.75h-15a.75.75 0 0 0-.749.749V9a.75.75 0 0 0 .75.75h2.25"/><path class="a" d="M9.735 12.75l-.75-.75a1.061 1.061 0 0 1 0-1.5 1.061 1.061 0 0 1 1.5 0l.75.75V7.125A1.125 1.125 0 0 1 12.36 6a1.125 1.125 0 0 1 1.125 1.125V9h2.25a1.5 1.5 0 0 1 1.5 1.5V12"/></svg>