<svg id="Regular" xmlns="http://www.w3.org/2000/svg" viewBox="0 0 24 24" width="24" height="24"><defs><style>.cls-1{fill:none;stroke:#000;stroke-linecap:round;stroke-linejoin:round;stroke-width:1.5px}</style></defs><title>visibility-100</title><path class="cls-1" d="M8.75.75L2 7.5l6.75 6.75"/><path class="cls-1" d="M6.88 2.62c.32.242 1.87 1.574 1.87 4.88s-1.55 4.638-1.87 4.88m4.87-4.88h1.5m3 0h1.5m3 0h1.5m-16.5 9.75h.75a.75.75 0 0 1 .75.75v5.25m-1.5 0h3m6-1.5a1.5 1.5 0 0 1-3 0v-3a1.5 1.5 0 0 1 3 0zm6 0a1.5 1.5 0 0 1-3 0v-3a1.5 1.5 0 0 1 3 0z"/></svg>