<svg xmlns="http://www.w3.org/2000/svg" viewBox="0 0 24 24" width="24" height="24"><g fill="none" stroke="#000" stroke-linejoin="round" stroke-miterlimit="10"><path d="M8.5 14.5h7c.5 4.5 8 9 8 9H.5s8-4.5 8-9z"/><g stroke-linecap="round"><path d="M16.865 3.67C15.943 2.082 14.111 1 12 1 9.888 1 8.057 2.082 7.135 3.67M9.5 10.5c1.351.679 3.648.68 5 0"/><path d="M9.004 4.104c-2.17-1.047-5.163-.113-5.477 1.688.43.259.749.671.889 1.165"/><path d="M3.527 5.792C2.18 4.979.5 5.959.5 7.5c0 1.604 1.791 2.54 3.106 1.664.742 2.066 4.498 2.205 5.894 1.336m10.234-3.423c.173-.33.432-.603.751-.793.25-2.076-3.113-3.331-5.495-2.179"/><path d="M14.5 10.5c1.215.757 4.615.828 5.723-.974 1.31 1.098 3.277.16 3.277-1.526 0-1.527-1.66-2.52-3.014-1.716"/></g><path stroke-linecap="round" d="M9.5 10.5c1 1 1 2 1 4m4-4c-1 1-1 2-1 4"/></g><path fill="none" d="M0 0h24v24H0z"/></svg>