<svg id="Regular" xmlns="http://www.w3.org/2000/svg" viewBox="0 0 24 24" width="24" height="24"><defs><style>.cls-1{fill:none;stroke:#000;stroke-linecap:round;stroke-linejoin:round;stroke-width:1.5px}</style></defs><title>volleyball-ball</title><circle class="cls-1" cx="12" cy="12" r="11.25"/><path class="cls-1" d="M20.611 19.24A11.332 11.332 0 0 0 12 12M1.365 15.679A11.159 11.159 0 0 0 12 12M13.889.908A11.166 11.166 0 0 0 12 12m-7.058 3.8A11.254 11.254 0 0 1 3.729 4.374m4.978 10.243a11.252 11.252 0 0 1 .3-13.466m3.068 2.804a11.256 11.256 0 0 1 10.5 4.207M11.3 7.861a11.314 11.314 0 0 1 11.73 6.38m-4.199 1.834A11.261 11.261 0 0 1 9.7 23.018m6.151-9.557a11.251 11.251 0 0 1-11.583 6.713"/></svg>