<svg xmlns="http://www.w3.org/2000/svg" viewBox="0 0 24 24" width="24" height="24"><defs><style>.a{fill:none;stroke:#000;stroke-linecap:round;stroke-linejoin:round;stroke-width:1.5px}</style></defs><title>volume-control-full-1</title><path class="a" d="M6.571 9H2.25a.75.75 0 0 0-.75.75v4.5a.75.75 0 0 0 .75.75h4.321a8.254 8.254 0 0 0 6.854 5.209.751.751 0 0 0 .825-.746V4.537a.75.75 0 0 0-.825-.746A8.254 8.254 0 0 0 6.571 9zm14.892 6.55a6.595 6.595 0 0 0 0-7.1m-2.901 5.791a3.491 3.491 0 0 0 0-4.4"/></svg>