<svg xmlns="http://www.w3.org/2000/svg" viewBox="0 0 24 24" width="24" height="24"><defs><style>.a{fill:none;stroke:#000;stroke-linecap:round;stroke-linejoin:round;stroke-width:1.5px}</style></defs><title>vr-controller-1</title><path class="a" d="M21.75 11.25v8.25a2.25 2.25 0 0 1-4.5 0v-.75a1.5 1.5 0 0 0-1.5-1.5h-3m-3-3h-6a3 3 0 0 0-3 3v4.609a1.391 1.391 0 0 0 1.391 1.391 1.39 1.39 0 0 0 1.244-.769L4.5 20.25H9l1.116 2.232a1.391 1.391 0 0 0 2.634-.623V17.25a3 3 0 0 0-3-3zm-6 2.625"/><path class="a" d="M3.75 16.875a.375.375 0 1 0 .375.375.375.375 0 0 0-.375-.375m6 0a.375.375 0 1 0 .375.375.375.375 0 0 0-.375-.375"/><rect class="a" x="11.25" y="5.25" width="12" height="6" rx="1.5" ry="1.5"/><path class="a" d="M23.178 6.289L21.75.75h-1.5l-.75 1.5H15l-.75-1.5h-1.5l-1.428 5.539m2.928 1.586a.375.375 0 1 0 .375.375.375.375 0 0 0-.375-.375m6 0a.375.375 0 1 0 .375.375.375.375 0 0 0-.375-.375"/></svg>