<svg xmlns="http://www.w3.org/2000/svg" viewBox="0 0 24 24" width="24" height="24"><defs><style>.a{fill:none;stroke:#000;stroke-linecap:round;stroke-linejoin:round;stroke-width:1.5px}</style></defs><title>vr-globe</title><path class="a" d="M2.2 13.181A3 3 0 0 0 .75 15.75v4.5a3 3 0 0 0 3 3h2.391a2.942 2.942 0 0 0 2.127-.885c.85-.885 2.291-2.115 3.732-2.115s2.882 1.23 3.732 2.115a2.942 2.942 0 0 0 2.127.885h2.391a3 3 0 0 0 3-3v-4.5a3 3 0 0 0-1.51-2.6"/><path class="a" d="M10.193 15.531A13.8 13.8 0 0 1 8.5 8.25 13.807 13.807 0 0 1 10.193.969m3.614 14.562A13.8 13.8 0 0 0 15.5 8.25 13.807 13.807 0 0 0 13.807.969"/><circle class="a" cx="12" cy="8.25" r="7.5"/><path class="a" d="M4.5 8.25h15M5.506 4.5h12.986M5.506 12h12.986"/></svg>