<svg xmlns="http://www.w3.org/2000/svg" viewBox="0 0 24 24" width="24" height="24"><defs><style>.a{fill:none;stroke:#000;stroke-linecap:round;stroke-linejoin:round;stroke-width:1.5px}</style></defs><title>vr-headphones</title><rect class="a" x=".75" y="17.25" width="12" height="6" rx="1.5" ry="1.5"/><path class="a" d="M12.678 18.289L11.25 12.75h-1.5L9 14.25H4.5l-.75-1.5h-1.5L.822 18.289M.75 20.25h3m6 0h3m7.5-15V4.5a3.75 3.75 0 0 0-7.5 0v.75m9 4.5h-1.5v-4.5h1.5a1.5 1.5 0 0 1 1.5 1.5v1.5a1.5 1.5 0 0 1-1.5 1.5zm-10.5 0h1.5v-4.5h-1.5a1.5 1.5 0 0 0-1.5 1.5v1.5a1.5 1.5 0 0 0 1.5 1.5zm4.5 7.5a1.5 1.5 0 0 1 1.5 1.5v.75a2.25 2.25 0 0 0 4.5 0V9.75"/></svg>