<svg xmlns="http://www.w3.org/2000/svg" viewBox="0 0 24 24" width="24" height="24"><defs><style>.a{fill:none;stroke:#000;stroke-linecap:round;stroke-linejoin:round;stroke-width:1.5px}</style></defs><title>vr-laptop-1</title><rect class="a" x="11.25" y="5.25" width="12" height="6" rx="1.5" ry="1.5"/><path class="a" d="M23.178 6.289L21.75.75h-1.5l-.75 1.5H15l-.75-1.5h-1.5l-1.428 5.539m2.928 1.586a.375.375 0 1 0 .375.375.375.375 0 0 0-.375-.375m6 0a.375.375 0 1 0 .375.375.375.375 0 0 0-.375-.375m1.5 3.375v8.25a2.25 2.25 0 0 1-4.5 0v-.75a1.5 1.5 0 0 0-1.5-1.5H12m-11.25 3a3 3 0 0 0 3 3h6a3 3 0 0 0 3-3zm9.75-6H3a1.5 1.5 0 0 0-1.5 1.5v4.5H12v-4.5a1.5 1.5 0 0 0-1.5-1.5z"/></svg>