<svg xmlns="http://www.w3.org/2000/svg" viewBox="0 0 24 24" width="24" height="24"><defs><style>.a{fill:none;stroke:#000;stroke-linecap:round;stroke-linejoin:round;stroke-width:1.5px}</style></defs><title>vr-play-device</title><rect class="a" x=".75" y="17.25" width="12" height="6" rx="1.5" ry="1.5"/><path class="a" d="M12.678 18.29l-1.428-5.54h-1.5L9 14.25H4.5l-.75-1.5h-1.5L.822 18.29M.75 20.25h3m6 0h3"/><path class="a" d="M15.75 17.25h6a1.5 1.5 0 0 0 1.5-1.5V2.25a1.5 1.5 0 0 0-1.5-1.5H8.25a1.5 1.5 0 0 0-1.5 1.5v8.25"/><path class="a" d="M11.25 9.75V6.106a.856.856 0 0 1 1.239-.765l5.788 2.894a.856.856 0 0 1 0 1.531l-3.957 1.978"/></svg>