<svg xmlns="http://www.w3.org/2000/svg" viewBox="0 0 24 24" width="24" height="24"><defs><style>.a{fill:none;stroke:#000;stroke-linecap:round;stroke-linejoin:round;stroke-width:1.5px}</style></defs><title>vr-user-laptop</title><path class="a" d="M6.75 14.25v-1.5a1.5 1.5 0 0 0-1.5-1.5H3a2.25 2.25 0 0 1 0-4.5h8.25M.75 20.25a3 3 0 0 0 3 3h6a3 3 0 0 0 3-3zm9.75-6H3a1.5 1.5 0 0 0-1.5 1.5v4.5H12v-4.5a1.5 1.5 0 0 0-1.5-1.5z"/><rect class="a" x="11.25" y="4.5" width="12" height="6" rx="1.5" ry="1.5"/><path class="a" d="M15.75 7.5h3m-6.628-2.862C12.6 2.162 14.421.75 17.25.75s4.655 1.412 5.128 3.888m-.735 5.862c-.87 2.4-2.377 4.5-4.393 4.5s-3.522-2.105-4.393-4.5"/></svg>