<svg xmlns="http://www.w3.org/2000/svg" viewBox="0 0 24 24" width="24" height="24"><defs><style>.a{fill:none;stroke:#000;stroke-linecap:round;stroke-linejoin:round;stroke-width:1.5px}</style></defs><title>vr-user-globe-human</title><path class="a" d="M15.357 15.115c-.357.941-.716 1.908-1.107 2.885h3v1.5a3 3 0 0 0 3 3h1.5v.75m1.5-18.434A7.667 7.667 0 0 0 21 5.8m-3.75.95a6.226 6.226 0 0 0-2.25 6h8.25V9z"/><circle class="a" cx="6.75" cy="6.75" r="6"/><path class="a" d="M5.114 12.525a6.015 6.015 0 0 0 .136-1.275A6 6 0 0 0 .886 5.476M5.277.933a5.899 5.899 0 0 0-.027.567 6.006 6.006 0 0 0 7.473 5.818"/></svg>