<svg xmlns="http://www.w3.org/2000/svg" viewBox="0 0 24 24" width="24" height="24"><defs><style>.a{fill:none;stroke:#000;stroke-linecap:round;stroke-linejoin:round;stroke-width:1.5px}</style></defs><title>vr-user-headphones</title><path class="a" d="M19.5 9.814V9A7.522 7.522 0 0 0 12 1.5 7.522 7.522 0 0 0 4.5 9v.814"/><path class="a" d="M5.25 15.375A1.125 1.125 0 0 1 4.125 16.5 3.375 3.375 0 0 1 .75 13.125 3.375 3.375 0 0 1 4.125 9.75a1.125 1.125 0 0 1 1.125 1.125zm13.5 0a1.125 1.125 0 0 0 1.125 1.125 3.375 3.375 0 0 0 3.375-3.375 3.375 3.375 0 0 0-3.375-3.375 1.125 1.125 0 0 0-1.125 1.125zm-1.5-4.875H6.75a1.5 1.5 0 0 0-1.5 1.5v4.5a1.5 1.5 0 0 0 1.5 1.5h3L12 16.5l2.249 1.5h3a1.5 1.5 0 0 0 1.5-1.5V12a1.5 1.5 0 0 0-1.499-1.5zm-9 3h7.5M7.5 21a7.5 7.5 0 0 0 9.749-.646"/></svg>