<svg xmlns="http://www.w3.org/2000/svg" viewBox="0 0 24 24" width="24" height="24"><defs><style>.a{fill:none;stroke:#000;stroke-linecap:round;stroke-linejoin:round;stroke-width:1.5px}</style></defs><title>vr-user-play-1</title><path class="a" d="M15.75 17.25h6a1.5 1.5 0 0 0 1.5-1.5V2.25a1.5 1.5 0 0 0-1.5-1.5H8.25a1.5 1.5 0 0 0-1.5 1.5V6"/><path class="a" d="M11.25 7.5V6.106a.856.856 0 0 1 1.239-.765l5.788 2.894a.856.856 0 0 1 0 1.531l-3.957 1.978"/><rect class="a" x=".75" y="12.75" width="12" height="6" rx="1.5" ry="1.5"/><path class="a" d="M5.25 15.75h3m-6.628-2.862C2.1 10.412 3.921 9 6.75 9s4.655 1.412 5.128 3.888m-.735 5.862c-.87 2.395-2.377 4.5-4.393 4.5s-3.522-2.105-4.393-4.5"/></svg>