<svg xmlns="http://www.w3.org/2000/svg" viewBox="0 0 24 24" width="24" height="24"><defs><style>.a{fill:none;stroke:#000;stroke-linecap:round;stroke-linejoin:round;stroke-width:1.5px}</style></defs><title>vr-user-play</title><path class="a" d="M10.459 11.359l2.291-.859V3l-6 2.25V9m-3.709 2.359L.75 10.5V3l6 2.25V9m6-6l-6-2.25L.75 3m14.607 12.115c-.357.941-.716 1.908-1.107 2.885h3v1.5a3 3 0 0 0 3 3h1.5v.75m1.5-18.434A7.667 7.667 0 0 0 21 5.8m-3.75.95a6.226 6.226 0 0 0-2.25 6h8.25V9zm-9 16.5l2.929-2.343a1.639 1.639 0 0 0 .566-1.676 1.638 1.638 0 0 0-2.321-1.068l-1.174.587V13.5a1.5 1.5 0 0 0-1.5-1.5 1.5 1.5 0 0 0-1.5 1.5v3l-1.993.333A3 3 0 0 0 .75 19.792v3.458"/></svg>