<svg xmlns="http://www.w3.org/2000/svg" viewBox="0 0 24 24" width="24" height="24"><defs><style>.a{fill:none;stroke:#000;stroke-linecap:round;stroke-linejoin:round;stroke-width:1.5px}</style></defs><title>vr-video-1</title><rect class="a" x="11.25" y="17.25" width="12" height="6" rx="1.5" ry="1.5"/><path class="a" d="M23.178 18.289L21.75 12.75h-1.5l-.75 1.5H15l-.75-1.5h-1.5l-1.428 5.539m2.928 1.586a.375.375 0 1 0 .375.375.375.375 0 0 0-.375-.375m6 0a.375.375 0 1 0 .375.375.375.375 0 0 0-.375-.375M1.189 1.19a1.5 1.5 0 0 0 0 2.121l3.182 3.182 3.182 1.061-1.06-3.182L3.311 1.19a1.5 1.5 0 0 0-2.122 0zM6.75 18.75l-6-2.25V9l6 2.25v7.5zm2.249-.843l-2.249.843v-7.5l6-2.25"/></svg>