<svg xmlns="http://www.w3.org/2000/svg" viewBox="0 0 24 24" width="24" height="24"><g fill="none" stroke="#000" stroke-linejoin="round" stroke-miterlimit="10"><circle cx="5.5" cy="17.5" r="5"/><circle cx="5.5" cy="17.5" r="1"/><circle cx="19.5" cy="19.5" r="3"/><path d="M10.083 15.5H16.5l3-11c0-4-15-4-15 0l2.184 8.152M5.838 9.5h12.298M9.5 1.653V9.5m5-7.847V9.5"/><path stroke-linecap="round" d="M16.5 15.5h4a3 3 0 003-3"/><path d="M5.5 16.5v-4m.707 4.293l2.828-2.828M6.5 17.5h4m-4.293.707l2.828 2.828M5.5 18.5v4m-.708-4.293l-2.828 2.828M4.5 17.5h-4m4.292-.707l-2.828-2.828M19.5 16.5v6m3-3h-6"/></g><path fill="none" d="M0 0h24v24H0z"/></svg>