<svg xmlns="http://www.w3.org/2000/svg" viewBox="0 0 24 24" width="24" height="24"><defs><style>.a{fill:none;stroke:#000;stroke-linecap:round;stroke-linejoin:round;stroke-width:1.5px}</style></defs><title>waiting-room-lamp</title><circle class="a" cx="8.601" cy="4.886" r="2.625"/><path class="a" d="M14.757 23.243l-.526-4.712a1.491 1.491 0 0 0-1.481-1.27h-2.129a2.994 2.994 0 0 1-2.959-2.5l-.54-3.249a1.5 1.5 0 1 1 2.959-.492l.54 3.246h2.129a4.477 4.477 0 0 1 4.45 3.802c0 .042.581 5.173.581 5.173M22.5 5.261a3 3 0 1 0-6 0 1.5 1.5 0 0 0 1.5 1.5h3a1.5 1.5 0 0 0 1.5-1.5zm-3-3v-1.5m-18 11.25H3a1.5 1.5 0 0 1 1.374 1.251l.33 1.987a5.986 5.986 0 0 0 5.918 5.009.877.877 0 0 1 .872.78l.246 2.2"/></svg>