<svg xmlns="http://www.w3.org/2000/svg" viewBox="0 0 24 24" width="24" height="24"><defs><style>.a{fill:none;stroke:#000;stroke-linecap:round;stroke-linejoin:round;stroke-width:1.5px}</style></defs><title>waiting-room-read</title><circle class="a" cx="14.25" cy="7.128" r="2.625"/><path class="a" d="M9.365 12.788a4.49 4.49 0 0 1 3.385-1.535h3a4.49 4.49 0 0 1 3.385 1.535"/><path class="a" d="M6.75 17.253v-5.25l7.5 2.25v9l-7.5-2.25v-.75m15-3v-5.25l-7.5 2.25v9l7.5-2.25v-.75"/><path class="a" d="M6.75 20.253a1.5 1.5 0 0 1 0-3h.75a.75.75 0 0 1 .75.75v1.5a.75.75 0 0 1-.75.75zm15 0a1.5 1.5 0 0 0 0-3H21a.75.75 0 0 0-.75.75v1.5a.75.75 0 0 0 .75.75z"/><circle class="a" cx="5.25" cy="5.253" r="4.5"/><path class="a" d="M5.25 3.003v2.25h1.5"/></svg>