<svg xmlns="http://www.w3.org/2000/svg" viewBox="0 0 24 24" width="24" height="24"><defs><style>.a{fill:none;stroke:#000;stroke-linecap:round;stroke-linejoin:round;stroke-width:1.5px}</style></defs><title>walking-forbidden</title><circle class="a" cx="11.401" cy="3.558" r="2.625"/><path class="a" d="M12.151 8.058a6.006 6.006 0 0 1 6 6m-9.703-1.22a5.225 5.225 0 0 1-4.1 1.97 1.5 1.5 0 0 1 0-3 2.239 2.239 0 0 0 1.756-.844m9.545 9.762a1.5 1.5 0 0 1-2.5 1.664A19.388 19.388 0 0 1 10.9 17.8a8.036 8.036 0 0 0-3.329 4.234 1.5 1.5 0 0 1-2.844-.95 11.045 11.045 0 0 1 5.425-6.307M.75.745l22.5 22.5"/></svg>