<svg xmlns="http://www.w3.org/2000/svg" viewBox="0 0 24 24" width="24" height="24"><defs><style>.a{fill:none;stroke:#000;stroke-linecap:round;stroke-linejoin:round;stroke-width:1.5px}</style></defs><title>walking-cross-street</title><circle class="a" cx="12.75" cy="3.733" r="2.25"/><path class="a" d="M20.922 10.776a1.5 1.5 0 0 0-1.9-.948c-1.3.435-2.247.356-2.8-.23a6.5 6.5 0 0 0-4.712-2.1 6.378 6.378 0 0 0-4.07 1.473L4.289 11.6a1.5 1.5 0 0 0 1.922 2.3l3.148-2.625a3.19 3.19 0 0 1 .808-.472l-2.616 9.811a1.5 1.5 0 0 0 2.9.773l1.12-4.2.784.261a1.511 1.511 0 0 1 .948.949l1.027 3.078a1.5 1.5 0 1 0 2.844-.949l-1.025-3.078A4.525 4.525 0 0 0 13.3 14.6l-.959-.319.869-3.258a3.651 3.651 0 0 1 .834.641c.8.847 2.643 2.1 5.929 1.007a1.5 1.5 0 0 0 .949-1.895zM.75 22.5l.75-2.25m2.25 2.25l.75-2.25m18.75 2.25l-.75-2.25m-2.25 2.25l-.75-2.25"/></svg>