<svg xmlns="http://www.w3.org/2000/svg" viewBox="0 0 24 24" width="24" height="24"><defs><style>.a{fill:none;stroke:#000;stroke-linecap:round;stroke-linejoin:round;stroke-width:1.5px}</style></defs><title>walkman</title><rect class="a" x=".75" y="6" width="22.5" height="15" rx="1.5" ry="1.5"/><path class="a" d="M18.75 18a1.5 1.5 0 0 0 1.5-1.5v-6a1.5 1.5 0 0 0-1.5-1.5H14.5a1.5 1.5 0 0 0-1.248.668l-4 6A1.5 1.5 0 0 0 10.5 18zm-15-9h6m-6 3h3m13.5-7.5a1.5 1.5 0 0 0-1.5-1.5h-6a1.5 1.5 0 0 0-1.5 1.5V6h9zM15.75 3v3"/><circle class="a" cx="15.75" cy="13.5" r="1.5"/></svg>