<svg xmlns="http://www.w3.org/2000/svg" viewBox="0 0 24 24" width="24" height="24"><defs><style>.a{fill:none;stroke:#000;stroke-linecap:round;stroke-linejoin:round;stroke-width:1.5px}</style></defs><title>walking-descend</title><circle class="a" cx="15.75" cy="3.933" r="2.625"/><path class="a" d="M20.25 12.933h-1.118a.382.382 0 0 1-.382-.382 3.378 3.378 0 0 0-1.762-2.97l-2.127-1.16A8.651 8.651 0 0 0 4.1 10.472a1.5 1.5 0 1 0 2.3 1.922 5.629 5.629 0 0 1 3.78-1.994l-1.015 2.977-.007.013a1.529 1.529 0 0 0-.133.4l-.5 1.457-3.2 1.6a1.5 1.5 0 1 0 1.338 2.684l3.75-1.872a1.5 1.5 0 0 0 .75-.859l.211-.616.875.438 1.311 4.258a1.5 1.5 0 0 0 2.868-.882l-1.5-4.872a1.5 1.5 0 0 0-.763-.9l-1.815-.907.814-2.387 2.381 1.29a.383.383 0 0 1 .2.336 3.387 3.387 0 0 0 3.382 3.382h1.123a1.5 1.5 0 0 0 0-3zm-18 6L18 22.683"/></svg>