<svg xmlns="http://www.w3.org/2000/svg" viewBox="0 0 24 24" width="24" height="24"><g fill="none" stroke="#000" stroke-linejoin="round" stroke-miterlimit="10"><path d="M5.5 22.5a1 1 0 01-1 1h-3a1 1 0 01-1-1v-7c0-.551.448-1 1-1h3a1 1 0 011 1v7zm17 0a1 1 0 01-1 1h-3a1 1 0 01-1-1v-7c0-.551.448-1 1-1h3a1 1 0 011 1v7zm-17-12h12v10h-12zm5-10h2v10h-2zm-5 13h12m-4-12c.047.002 1 0 4.5 0 1.446.088 2.5 1 2.5 3 0 3.523-7 4.162-7-3z"/><circle cx="17.004" cy="4.038" r="1"/><path d="M9.5 1.5c-.047.002-1 0-4.5 0-1.446.088-2.5 1-2.5 3 0 3.523 7 4.162 7-3z"/><circle cx="5.997" cy="4.038" r="1"/><path stroke-linecap="round" d="M14.5 20.5v-3m-2 3v-3"/></g><path fill="none" d="M0 0h24v24H0z"/></svg>