<svg xmlns="http://www.w3.org/2000/svg" viewBox="0 0 24 24" width="24" height="24"><defs><style>.a{fill:none;stroke:#000;stroke-linecap:round;stroke-linejoin:round;stroke-width:1.5px}</style></defs><title>wall-socket-1</title><path class="a" d="M14.244 17.25h-4.5V15a2.25 2.25 0 0 1 2.25-2.25 2.25 2.25 0 0 1 2.25 2.25zm1.5-9.75v3m-7.5-3v3"/><path class="a" d="M1.345 16.215a5.665 5.665 0 0 0 5.417 4.035h10.464a5.668 5.668 0 0 0 5.416-4.035 15.215 15.215 0 0 0 0-8.43 5.664 5.664 0 0 0-5.416-4.035H6.762a5.668 5.668 0 0 0-5.417 4.035 15.233 15.233 0 0 0 0 8.43z"/></svg>