<svg xmlns="http://www.w3.org/2000/svg" viewBox="0 0 24 24" width="24" height="24"><g fill="none" stroke="#000" stroke-linecap="round" stroke-linejoin="round" stroke-miterlimit="10"><path d="M21.5 16.5V19c0 1.934-1.566 3.5-3.5 3.5H2.5a2 2 0 01-2-2v-13a2 2 0 012-2H18c1.934 0 3.5 1.566 3.5 3.5v2.5"/><path d="M23.5 14.625c0 1.037-.774 1.875-1.73 1.875h-4.038c-.957 0-1.732-.838-1.732-1.875v-1.25c0-1.036.775-1.875 1.731-1.875h4.038c.956 0 1.73.839 1.73 1.875v1.25z"/><circle cx="18.5" cy="14" r=".5"/><path d="M18.38 5.521L17.5 2l-13 3.5m-2 2h1m2 0h1m2 0h1m2 0h1m2 0h1m2 0h1m-16 13h1m2 0h1m2 0h1m2 0h1m2 0h1m2 0h1"/></g><path fill="none" d="M0 0h24v24H0z"/></svg>