<svg xmlns="http://www.w3.org/2000/svg" viewBox="0 0 24 24" width="24" height="24"><g fill="none" stroke="#000" stroke-linecap="round" stroke-linejoin="round" stroke-miterlimit="10"><path d="M1.297 1.453L14.59 4.772c1.601.4 2.91 2.077 2.91 3.728v12c0 1.65-1.314 2.69-2.92 2.312L3.42 20.188C1.814 19.809.5 18.15.5 16.5v-13c0-1.651 1.35-3 3-3h17c1.65 0 3 1.349 3 3v11c0 1.65-1.35 3-3 3h-3m-8-14h10"/><circle cx="13" cy="13.5" r="2"/><path d="M17.5 8.5h2"/></g><path fill="none" d="M0 0h24v24H0z"/></svg>