<svg xmlns="http://www.w3.org/2000/svg" viewBox="0 0 24 24" width="24" height="24"><defs><style>.a{fill:none;stroke:#000;stroke-linecap:round;stroke-linejoin:round;stroke-width:1.5px}</style></defs><title>warehouse-truck-delivery</title><path class="a" d="M23.256 19.5v-5.25a1.5 1.5 0 0 0-1.5-1.5h-1.5v-6a1.5 1.5 0 0 0-1.5-1.5h-.889a9.609 9.609 0 0 0-7.233 3.282 9.611 9.611 0 0 0-2.378 6.329v3.889a1.5 1.5 0 0 0 1.5 1.5h1.152"/><circle class="a" cx="13.506" cy="18.75" r="3"/><circle class="a" cx="21.006" cy="19.5" r="2.25"/><path class="a" d="M5.256 2.25v18a1.5 1.5 0 0 1-1.5 1.5h-3m15.348-1.5h2.78m-13.628-1.5h3m-3-3h-2.25m17.25-3h-2.25a3 3 0 0 0-3 3v.4"/></svg>