<svg xmlns="http://www.w3.org/2000/svg" viewBox="0 0 24 24" width="24" height="24"><defs><style>.a{fill:none;stroke:#000;stroke-linecap:round;stroke-linejoin:round;stroke-width:1.5px}</style></defs><title>warehouse-package-search</title><path class="a" d="M12.756 6.26a.484.484 0 0 1-.3.426.717.717 0 0 1-.6-.006l-2.1-1.026L7.664 6.68a.717.717 0 0 1-.6.006.483.483 0 0 1-.3-.426V.75h6z"/><path class="a" d="M6.006 17.25H1.714a.965.965 0 0 1-.958-.971V1.721A.965.965 0 0 1 1.714.75H17.8a.965.965 0 0 1 .959.971V6"/><circle class="a" cx="15.006" cy="15" r="6"/><path class="a" d="M23.256 23.25l-4.008-4.008m-1.242-6.492v3.75m-3-3.75v3.75m-3-3.75v.75m0 2.25v.75"/></svg>