<svg xmlns="http://www.w3.org/2000/svg" viewBox="0 0 24 24" width="24" height="24"><defs><style>.a{fill:none;stroke:#000;stroke-linecap:round;stroke-linejoin:round;stroke-width:1.5px}</style></defs><title>warehouse-cart</title><circle class="a" cx="3.006" cy="21" r="2.25"/><path class="a" d="M5.127 20.25h4.629l-1.1-5.512a2.472 2.472 0 0 0-2.427-1.988 2.473 2.473 0 0 0-2.472 2.473v3.656"/><path class="a" d="M9.756 20.25h12a1.5 1.5 0 0 0 0-3h-12.6m6.728 3a2.251 2.251 0 1 0 4.243 0m-14.121-7.5v-12m2.248 6h-4.5a1.5 1.5 0 0 1-1.342-.829l-1.5-3A1.5 1.5 0 0 1 2.258.75h7.5A1.5 1.5 0 0 1 11.1 2.921l-1.5 3a1.5 1.5 0 0 1-1.346.829z"/></svg>