<svg xmlns="http://www.w3.org/2000/svg" viewBox="0 0 24 24" width="24" height="24"><defs><style>.a{fill:none;stroke:#000;stroke-linecap:round;stroke-linejoin:round;stroke-width:1.5px}</style></defs><title>warehouse-settings</title><path class="a" d="M21.006 12v9.75a1.5 1.5 0 0 1-1.5 1.5h-13.5a1.5 1.5 0 0 1-1.5-1.5v-9a1.5 1.5 0 0 1 1.5-1.5h2.25"/><circle class="a" cx="18.006" cy="5.25" r="2.7"/><path class="a" d="M18.006 2.55V.75m0 9v-1.8m2.7-2.7h1.8m-9 0h1.8m-.064 3.182l1.075-1.075m-1.075-5.289l1.075 1.075m4.453 5.289l-1.075-1.075m1.075-5.289l-1.075 1.075"/><circle class="a" cx="6.456" cy="4.8" r="3.3"/><path class="a" d="M4.123 7.133L1.506 9.75m12.75 10.5h3.75"/></svg>