<svg xmlns="http://www.w3.org/2000/svg" viewBox="0 0 24 24" width="24" height="24"><defs><style>.a{fill:none;stroke:#000;stroke-linecap:round;stroke-linejoin:round;stroke-width:1.5px}</style></defs><title>warehouse-cart-packages-3</title><circle class="a" cx="5.256" cy="20.25" r="3"/><path class="a" d="M7.854 21.75h10.28a1.5 1.5 0 0 1 1.061.439l1.061 1.061M3.756.75h1.5a1.5 1.5 0 0 1 1.5 1.5v15.4m6 1.1h7.5a1.5 1.5 0 0 0 1.5-1.5v-6a1.5 1.5 0 0 0-1.5-1.5h-9v7.5a1.5 1.5 0 0 0 1.5 1.5zm-1.5-9h7.5V3.321a1.072 1.072 0 0 0-1.072-1.071h-5.357a1.071 1.071 0 0 0-1.071 1.071zm6 6h1.5m-4.5-9h1.5"/></svg>