<svg xmlns="http://www.w3.org/2000/svg" viewBox="0 0 24 24" width="24" height="24"><defs><style>.a{fill:none;stroke:#000;stroke-linecap:round;stroke-linejoin:round;stroke-width:1.5px}</style></defs><title>warehouse-truck-delivery-1</title><path class="a" d="M14.658 20.25h-1.152a1.5 1.5 0 0 1-1.5-1.5v-5.087A8.418 8.418 0 0 1 13.284 9.2a8.414 8.414 0 0 1 7.134-3.95 1.338 1.338 0 0 1 1.338 1.337v6.163"/><circle class="a" cx="17.256" cy="18.75" r="3"/><path class="a" d="M9.006 2.25v18a1.5 1.5 0 0 1-1.5 1.5h-4.5m16.848-1.5h3.402m-14.25-1.5h3m11.25-6h-1.5a3 3 0 0 0-3 3v.4"/><rect class="a" x=".756" y="13.5" width="5.25" height="5.25" rx=".5" ry=".5"/></svg>