<svg xmlns="http://www.w3.org/2000/svg" viewBox="0 0 24 24" width="24" height="24"><defs><style>.a{fill:none;stroke:#000;stroke-linecap:round;stroke-linejoin:round;stroke-width:1.5px}</style></defs><title>warehouse-storage-2</title><path class="a" d="M12.005 17.15h-5.25a.75.75 0 0 0-.75.75v4.5a.75.75 0 0 0 .75.75h4.5a.75.75 0 0 0 .75-.75z"/><path class="a" d="M17.255 17.15h-5.25v5.25a.75.75 0 0 0 .75.75h4.5a.75.75 0 0 0 .75-.75v-4.5a.75.75 0 0 0-.75-.75zm-3-6h-4.5a.75.75 0 0 0-.75.75v5.25h6V11.9a.75.75 0 0 0-.75-.75z"/><path class="a" d="M23.255 23.15V7.55a1.5 1.5 0 0 0-.794-1.324l-9.75-5.2a1.5 1.5 0 0 0-1.411 0l-9.75 5.2A1.5 1.5 0 0 0 .755 7.55v15.6"/></svg>