<svg xmlns="http://www.w3.org/2000/svg" viewBox="0 0 24 24" width="24" height="24"><defs><style>.a{fill:none;stroke:#000;stroke-linecap:round;stroke-linejoin:round;stroke-width:1.5px}</style></defs><title>warehouse-package-box</title><path class="a" d="M13.881 2.25l6 2.25M9.385 7.682l5.063 2.587a1.728 1.728 0 0 1 .933 1.542v5.628a1.728 1.728 0 0 1-.933 1.542l-5.063 2.587a1.653 1.653 0 0 1-1.509 0l-5.063-2.587a1.729 1.729 0 0 1-.932-1.542v-5.628a1.728 1.728 0 0 1 .933-1.542l5.062-2.587a1.653 1.653 0 0 1 1.509 0z"/><path class="a" d="M2.147 10.881l6.484 3.313 6.483-3.313m-6.483 3.313v7.556m4.5 1.5l5.207-2.893a3 3 0 0 0 1.543-2.622V4.5l2.25-1.5m-8.25 3.75v-4.5l2.25-1.5"/></svg>