<svg xmlns="http://www.w3.org/2000/svg" viewBox="0 0 24 24" width="24" height="24"><defs><style>.a{fill:none;stroke:#000;stroke-linecap:round;stroke-linejoin:round;stroke-width:1.5px}</style></defs><title>warehouse-cart-package-ribbon-1</title><path class="a" d="M12 20.774l-8.238-1.736a1.954 1.954 0 0 0-1.784.531l-.717.717m14.385-2.951L18.992 2.28A1.954 1.954 0 0 1 20.9.75h1.852"/><circle class="a" cx="14.936" cy="20.25" r="3"/><path class="a" d="M9.115 16.823L3.163 15.4a1.5 1.5 0 0 1-1.11-1.807L4.666 2.652a1.5 1.5 0 0 1 1.808-1.111l7.3 1.743a1.5 1.5 0 0 1 1.11 1.807l-1.923 8.029"/><path class="a" d="M8.663 2.064l2.918.697-1.045 4.377-2.918-.697z"/></svg>