<svg xmlns="http://www.w3.org/2000/svg" viewBox="0 0 24 24" width="24" height="24"><defs><style>.a{fill:none;stroke:#000;stroke-linecap:round;stroke-linejoin:round;stroke-width:1.5px}</style></defs><title>warehouse-storage-1</title><path class="a" d="M2.255 20.8h-1.01a.489.489 0 0 1-.49-.489v-5.865a11.25 11.25 0 1 1 22.5 0v5.869a.489.489 0 0 1-.489.489h-.978"/><path class="a" d="M12.005 14.8h-5.25a.75.75 0 0 0-.75.75v4.5a.75.75 0 0 0 .75.75h5.25z"/><path class="a" d="M17.255 14.8h-5.25v6h5.25a.749.749 0 0 0 .75-.75v-4.5a.75.75 0 0 0-.75-.75zm-3-6h-4.5a.75.75 0 0 0-.75.75v5.25h6V9.554a.75.75 0 0 0-.75-.754z"/></svg>