<svg xmlns="http://www.w3.org/2000/svg" viewBox="0 0 24 24" width="24" height="24"><defs><style>.a{fill:none;stroke:#000;stroke-linecap:round;stroke-linejoin:round;stroke-width:1.5px}</style></defs><title>warehouse-delivery</title><path class="a" d="M18.957 21h-3.403m-2.597 0h-1.702v-6.75h9v6"/><path class="a" d="M20.255 20.25v-4.291l1.622.5a1.883 1.883 0 0 1 1.378 1.769v2.311a.482.482 0 0 1-.5.462h-1.2m-11.8-10.468V6.489A.489.489 0 0 0 9.266 6H5.745a.489.489 0 0 0-.49.489v4.044M.755 5.25l6.75-4.5 6.75 4.5m-1.5 5.282V4.25m-10.5 0l.003 6.283"/><circle class="a" cx="14.255" cy="21.75" r="1.5"/><circle class="a" cx="20.255" cy="21.75" r="1.5"/><path class="a" d="M6.755 12.75v.75m0 3v.75m0 3a1.5 1.5 0 0 0 1.5 1.5"/></svg>