<svg xmlns="http://www.w3.org/2000/svg" viewBox="0 0 24 24" width="24" height="24"><defs><style>.a{fill:none;stroke:#000;stroke-linecap:round;stroke-linejoin:round;stroke-width:1.5px}</style></defs><title>warehouse-packages</title><path class="a" d="M1.506 22.5h21m-21-3h21m-19.5 0v3m18-3v3m-12-3v3m6-3v3m-3-13.5h-7.5a1.5 1.5 0 0 0-1.5 1.5V15a1.5 1.5 0 0 0 1.5 1.5h6a1.5 1.5 0 0 0 1.5-1.5zm7.5 0h-7.5v6a1.5 1.5 0 0 0 1.5 1.5h6a1.5 1.5 0 0 0 1.5-1.5v-4.5a1.5 1.5 0 0 0-1.5-1.5zm-4.5-7.5h-6a1.5 1.5 0 0 0-1.5 1.5v6h9V3a1.5 1.5 0 0 0-1.5-1.5zm-3 0v3M7.506 9v3m9-3v3"/></svg>