<svg xmlns="http://www.w3.org/2000/svg" viewBox="0 0 24 24" width="24" height="24"><defs><style>.a{fill:none;stroke:#000;stroke-linecap:round;stroke-linejoin:round;stroke-width:1.5px}</style></defs><title>warehouse-package</title><path class="a" d="M5.255 5.213v6a.75.75 0 0 0 .75.75h12a.75.75 0 0 0 .75-.75v-6m0 0h-13.5s0-4.425 6.75-4.425c6.268 0 6.75 4.425 6.75 4.425zm-10.5 17.55a.477.477 0 0 1-.5.45h-5a.477.477 0 0 1-.5-.45v-3.6a.477.477 0 0 1 .5-.45h5a.476.476 0 0 1 .5.45zm-3-4.05v1.5m16.5 2.55a.477.477 0 0 1-.5.45h-5a.477.477 0 0 1-.5-.45v-3.6a.477.477 0 0 1 .5-.45h5a.476.476 0 0 1 .5.45zm-3-4.05v1.5"/><path class="a" d="M9.005 8.213h6v3.75h-6zm-3.75 8.212v-.975a.488.488 0 0 1 .488-.487h12.525a.487.487 0 0 1 .487.487v.975m-6.75-1.462v-3"/></svg>