<svg xmlns="http://www.w3.org/2000/svg" viewBox="0 0 24 24" width="24" height="24"><defs><style>.a{fill:none;stroke:#000;stroke-linecap:round;stroke-linejoin:round;stroke-width:1.5px}</style></defs><title>warehouse-storage</title><path class="a" d="M12.005 17.25h-5.25a.75.75 0 0 0-.75.75v4.5a.75.75 0 0 0 .75.75h5.25z"/><path class="a" d="M17.255 17.25h-5.25v6h5.25a.75.75 0 0 0 .75-.75V18a.75.75 0 0 0-.75-.75zm-3-6h-4.5a.75.75 0 0 0-.75.75v5.25h6V12a.75.75 0 0 0-.75-.75z"/><path class="a" d="M.755 6.75h22.5v15.5a1 1 0 0 1-1 1h-20.5a1 1 0 0 1-1-1V6.75zm0 0c0-3.314 5.037-6 11.25-6s11.25 2.686 11.25 6"/></svg>