<svg xmlns="http://www.w3.org/2000/svg" viewBox="0 0 24 24" width="24" height="24"><g fill="none" stroke="#000" stroke-linecap="round" stroke-linejoin="round" stroke-miterlimit="10"><path d="M18.5 10.5a3.5 3.5 0 100-7H18c0-1.656-1.344-3-3-3H9a3 3 0 00-3 3h-.5a3.5 3.5 0 100 7h13z"/><path d="M4.5 15.5v-5a3 3 0 013-3h9a3 3 0 013 3v5M9.5 3L11 5.5 12 4l1 1.5L14.5 3M17 21.59c-1.326 1.188-3.078 1.91-5 1.91s-3.674-.723-5.001-1.911m4-3.089c-.499-.484-.946-1-1.499-1-.346 0-.756.266-1 .5l-1 1-.756-.839a1.5 1.5 0 00-2.336-.19L3.006 19.55M13.5 18.5c.499-.484.946-1 1.499-1 .346 0 .756.266 1 .5l1 1 .756-.839a1.5 1.5 0 012.336-.19l1.402 1.579M4.5 12.5l-3.306-.961a.5.5 0 00-.594.76L3 16.5m16.5-4l3.306-.961a.5.5 0 01.594.76L21 16.5m-14.5-4l3.5 2m-2.5-1.429V15m6.5-.5l3.5-2m-1 .571V15"/></g><path fill="none" d="M0 0h24v24H0z"/></svg>