<svg xmlns="http://www.w3.org/2000/svg" viewBox="0 0 24 24" width="24" height="24"><path fill="none" stroke="#000" stroke-linejoin="round" stroke-miterlimit="10" d="M21.5 21.5a2 2 0 01-2 2h-15a2 2 0 01-2-2v-19a2 2 0 012-2h15a2 2 0 012 2v19zm-19-15h19"/><circle fill="none" stroke="#000" stroke-linejoin="round" stroke-miterlimit="10" cx="12" cy="15" r="5.5"/><path d="M18.5 2a.5.5 0 100 1 .5.5 0 000-1zm-2 0a.5.5 0 100 1 .5.5 0 000-1zm-2 0a.5.5 0 100 1 .5.5 0 000-1zm0 2a.5.5 0 100 1 .5.5 0 000-1zm2 0a.5.5 0 100 1 .5.5 0 000-1zm2 0a.5.5 0 100 1 .5.5 0 000-1z"/><path fill="none" stroke="#000" stroke-linejoin="round" stroke-miterlimit="10" d="M11.5 13.065V9.5m2.112 6.681l2.796 2.105m-6.02-2.105L7.59 18.286"/><circle fill="none" stroke="#000" stroke-linejoin="round" stroke-miterlimit="10" cx="12" cy="15" r="2"/><path fill="none" stroke="#000" stroke-linejoin="round" stroke-miterlimit="10" d="M5 2.5h6l-1 2H6z"/><path fill="none" d="M0 0h24v24H0z"/></svg>