<svg xmlns="http://www.w3.org/2000/svg" viewBox="0 0 24 24" width="24" height="24"><circle fill="none" stroke="#000" stroke-linecap="round" stroke-linejoin="round" stroke-miterlimit="10" cx="11.5" cy="12.5" r="7"/><path fill="none" stroke="#000" stroke-linecap="round" stroke-linejoin="round" stroke-miterlimit="10" d="M11.5 10v2.5l3 3"/><path fill="none" stroke="#000" stroke-linejoin="round" stroke-miterlimit="10" d="M14 6l3.5-3.5 4 4L18 10M5 15.047L.5 19.5v4h4l4.484-4.469"/><path fill="none" stroke="#000" stroke-linecap="round" stroke-linejoin="round" stroke-miterlimit="10" d="M17.5 2.5l2-2 4 4-2 2m-2-2l2-2"/><path d="M3.5 20a.499.499 0 10-.002.998A.499.499 0 003.5 20zM5 18.5a.499.499 0 10-.002.998A.499.499 0 005 18.5z"/><path fill="none" d="M0 0h24v24H0z"/></svg>