<svg xmlns="http://www.w3.org/2000/svg" viewBox="0 0 24 24" width="24" height="24"><g fill="none" stroke="#000" stroke-linejoin="round" stroke-miterlimit="10"><path d="M17.158 2.593c.122.11.248.213.365.33 4.033 4.033 4.034 10.573 0 14.607-4.033 4.033-10.573 4.033-14.606 0-.117-.117-.22-.243-.33-.366L.5 19.252c.112.119.213.248.33.365 5.186 5.186 13.594 5.186 18.78 0 5.187-5.187 5.187-13.596 0-18.781-.117-.117-.245-.217-.365-.33l-2.087 2.087zM2.221 17.53L17.523 2.227"/><ellipse transform="rotate(-45.02 13.35 13.356)" cx="13.35" cy="13.356" rx=".984" ry="1.475"/><ellipse cx="16.133" cy="7.792" rx="1.476" ry=".983"/><ellipse cx="7.786" cy="16.139" rx=".984" ry="1.476"/></g><path fill="none" d="M0 0h24v24H0z"/></svg>