<svg xmlns="http://www.w3.org/2000/svg" viewBox="0 0 24 24" width="24" height="24"><defs><style>.a{fill:none;stroke:#000;stroke-linecap:round;stroke-linejoin:round;stroke-width:1.5px}</style></defs><title>water-dam</title><path class="a" d="M15 13.5l4.915-2.457a.75.75 0 0 1 1.085.671V21.75a1.5 1.5 0 0 1-1.5 1.5H3a1.5 1.5 0 0 1-1.5-1.5V13.5l2.123-9.907A.75.75 0 0 1 4.356 3h1.788a.75.75 0 0 1 .733.593L9 13.5l4.915-2.457a.75.75 0 0 1 1.085.671V13.5m-6 3.75h3m-3 3h3m3-3h3m-3 3h3M9.005.869A6.954 6.954 0 0 1 12 1.491C19.429 4.662 22.5.75 22.5.75"/></svg>