<svg xmlns="http://www.w3.org/2000/svg" viewBox="0 0 24 24" width="24" height="24"><defs><style>.a{fill:none;stroke:#000;stroke-linecap:round;stroke-linejoin:round;stroke-width:1.5px}</style></defs><title>water-fountain-fill</title><path class="a" d="M23.25 5.25h-18v-3a1.5 1.5 0 0 1 1.5-1.5h16.5m-18 4.5h6v2a1 1 0 0 1-1 1h-4a1 1 0 0 1-1-1v-2zm9 6l-1.336 10.686a1.5 1.5 0 0 1-1.488 1.314H3.574a1.5 1.5 0 0 1-1.488-1.314L.75 11.25"/><path class="a" d="M5.25 17.625a.375.375 0 1 1-.375.375.375.375 0 0 1 .375-.375m4.5 0a.375.375 0 1 1-.375.375.375.375 0 0 1 .375-.375m-2.25-4.5a.375.375 0 1 1-.375.375.375.375 0 0 1 .375-.375"/></svg>