<svg id="Regular" xmlns="http://www.w3.org/2000/svg" viewBox="0 0 24 24" width="24" height="24"><defs><style>.cls-1{fill:none;stroke:#000;stroke-linecap:round;stroke-linejoin:round;stroke-width:1.5px}</style></defs><title>water-glass</title><ellipse class="cls-1" cx="12" cy="4.5" rx="8.25" ry="3.75"/><path class="cls-1" d="M3.75 4.5l2.837 15.6a2.885 2.885 0 0 0 1.038 1.774A6.958 6.958 0 0 0 12 23.25a6.958 6.958 0 0 0 4.375-1.373 2.885 2.885 0 0 0 1.038-1.777L20.25 4.5"/><path class="cls-1" d="M9.75 22.944V16.5a2.25 2.25 0 0 1 4.5 0v6.444m-8.67-8.379c1.453-1.525 4.17 1.111 4.17 1.935m8.67-1.935c-1.453-1.525-4.17 1.111-4.17 1.935"/></svg>