<svg xmlns="http://www.w3.org/2000/svg" viewBox="0 0 24 24" width="24" height="24"><defs><style>.a{fill:none;stroke:#000;stroke-linecap:round;stroke-linejoin:round;stroke-width:1.5px}</style></defs><title>water-fountain-drop</title><path class="a" d="M13.125.75a7.509 7.509 0 0 0-7.5 7.5v10.757a4.5 4.5 0 0 0-3 4.243h9a4.5 4.5 0 0 0-3-4.243V8.25a4.5 4.5 0 0 1 9 0V9a1.5 1.5 0 0 0 3 0v-.75a7.509 7.509 0 0 0-7.5-7.5zm-4.5 16.5h3m9.75.75a2.25 2.25 0 0 1-4.5 0c0-1.242 2.25-4.5 2.25-4.5s2.25 3.258 2.25 4.5z"/></svg>