<svg id="Regular" xmlns="http://www.w3.org/2000/svg" viewBox="0 0 24 24" width="24" height="24"><defs><style>.cls-1{fill:none;stroke:#000;stroke-linecap:round;stroke-linejoin:round;stroke-width:1.5px}</style></defs><title>water-protection-fish</title><path class="cls-1" d="M.75 4.8a5.511 5.511 0 0 0 4.5-1.5 4.547 4.547 0 0 0 6.75 0 4.547 4.547 0 0 0 6.75 0 5.511 5.511 0 0 0 4.5 1.5M2.329 19.879C7.148 15.06 8.7 12.7 13.053 12.7a8.783 8.783 0 0 1 7.2 3.776 8.78 8.78 0 0 1-7.2 3.776c-4.227 0-5.675-2.132-10.773-7.229M15 15.676a.375.375 0 0 1-.375.375m0-.751a.375.375 0 0 1 .375.375m-.75.001a.375.375 0 0 1 .375-.375m0 .75a.375.375 0 0 1-.375-.375m7.125-2.625a.375.375 0 0 1-.375-.375m.75 0a.375.375 0 0 1-.375.375m0-.751a.375.375 0 0 1 .375.375m-.75.001a.375.375 0 0 1 .375-.375m-1.5-3.75a.375.375 0 0 1-.375-.375m.75 0a.375.375 0 0 1-.375.375m0-.751a.375.375 0 0 1 .375.375m-.75.001a.375.375 0 0 1 .375-.375"/></svg>