<svg xmlns="http://www.w3.org/2000/svg" viewBox="0 0 24 24" width="24" height="24"><g fill="none" stroke="#000" stroke-linejoin="round" stroke-miterlimit="10"><path d="M2.366 17.5V9a8.5 8.5 0 0117 0v.5h-3v-.264c0-2.872-2.1-5.438-4.96-5.71A5.5 5.5 0 005.366 9v8.5"/><path stroke-linecap="round" d="M18.366 12.175v1.5m0 2v1.5m2-5.175l.643 1.356m.857 1.807l.643 1.355M16.224 12l-.644 1.356m-.856 1.807l-.644 1.355"/><path d="M3.906 19.783a1 1 0 10.738 1.859l4.182-1.661a1 1 0 10-.738-1.86l-4.182 1.662z"/><path d="M6.366 21v2.5h-5v-6h5v1"/></g><path fill="none" d="M0 0h24v24H0z"/></svg>