<svg id="Regular" xmlns="http://www.w3.org/2000/svg" viewBox="0 0 24 24" width="24" height="24"><defs><style>.cls-1{fill:none;stroke:#000;stroke-linecap:round;stroke-linejoin:round;stroke-width:1.5px}</style></defs><title>water-pitcher-2</title><path class="cls-1" d="M16.5 21.75H8.864a1.5 1.5 0 0 1-1.493-1.358L6 6 3 2.25l15 1.5v16.5a1.5 1.5 0 0 1-1.5 1.5zm1.5-18h2.25a3 3 0 0 1 3 3V9a6 6 0 0 1-1.485 3.951L18 17.25M7.5 18H18M3.75 10.5a1.5 1.5 0 0 1-3 0 17.382 17.382 0 0 1 1.5-3.75 17.382 17.382 0 0 1 1.5 3.75z"/></svg>