<svg id="Regular" xmlns="http://www.w3.org/2000/svg" viewBox="0 0 24 24" width="24" height="24"><defs><style>.cls-1{fill:none;stroke:#000;stroke-linecap:round;stroke-linejoin:round;stroke-width:1.5px}</style></defs><title>water-container</title><rect class="cls-1" x="6.75" y="12.75" width="10.5" height="10.5" rx=".5" ry=".5"/><path class="cls-1" d="M9.75 9.75h4.5v3h-4.5zm-1-9h6.5a.5.5 0 0 1 .5.5v7.5a1 1 0 0 1-1 1h-5.5a1 1 0 0 1-1-1v-7.5a.5.5 0 0 1 .5-.5zm-2 15h10.5m-3 3h-4.5l.75 4.5h3l.75-4.5zm-6-12h3m-3-3h3"/></svg>