<svg xmlns="http://www.w3.org/2000/svg" viewBox="0 0 24 24" width="24" height="24"><g fill="none" stroke="#000" stroke-linejoin="round" stroke-miterlimit="10"><path d="M17 11c0 2.762-2.238 5-5 5s-5-2.238-5-5c0-2.761 5-10 5-10s5 7.239 5 10z"/><path stroke-linecap="round" d="M12 13a2.333 2.333 0 01-2.333-2.333m9.321 6.816C17.252 18.723 14.764 19.5 12 19.5c-2.779 0-5.28-.785-7.018-2.037"/><path stroke-linecap="round" d="M22.94 19.061C20.363 21.158 16.419 22.5 12 22.5c-4.449 0-8.416-1.359-10.992-3.482"/></g><path fill="none" d="M0 0h24v24H0z"/></svg>