<svg id="Regular" xmlns="http://www.w3.org/2000/svg" viewBox="0 0 24 24" width="24" height="24"><defs><style>.cls-1{fill:none;stroke:#000;stroke-linecap:round;stroke-linejoin:round;stroke-width:1.5px}</style></defs><title>water-bottle</title><path class="cls-1" d="M14.25 3.875V2.25a1.5 1.5 0 0 0-1.5-1.5h-1.5a1.5 1.5 0 0 0-1.5 1.5v1.625"/><path class="cls-1" d="M10.939 3.75A5.689 5.689 0 0 0 5.25 9.439a.751.751 0 0 0 .22.531l.75.75a.749.749 0 0 1 0 1.06l-.75.75a.751.751 0 0 0-.22.531v2.378a.751.751 0 0 0 .22.531l.75.75a.749.749 0 0 1 0 1.06l-.75.75a.751.751 0 0 0-.22.531v2.689a1.5 1.5 0 0 0 1.5 1.5h10.5a1.5 1.5 0 0 0 1.5-1.5v-2.689a.751.751 0 0 0-.22-.531l-.75-.75a.749.749 0 0 1 0-1.06l.75-.75a.751.751 0 0 0 .22-.531v-2.378a.751.751 0 0 0-.22-.531l-.75-.75a.749.749 0 0 1 0-1.06l.75-.75a.751.751 0 0 0 .22-.531 5.689 5.689 0 0 0-5.689-5.689zm-4.5 7.5h11.122m-11.122 6h11.122"/></svg>