<svg id="Regular" xmlns="http://www.w3.org/2000/svg" viewBox="0 0 24 24" width="24" height="24"><defs><style>.cls-1{fill:none;stroke:#000;stroke-linecap:round;stroke-linejoin:round;stroke-width:1.5px}</style></defs><title>water-protection-faucet</title><circle class="cls-1" cx="9.75" cy="9" r="4.5"/><path class="cls-1" d="M8.25 4.756V.75h3v4.007m0-4.007h3m-9 0h3m13.781 20.344a2.156 2.156 0 0 1-4.312 0c0-1.191 1.437-3.594 2.156-3.594s2.156 2.4 2.156 3.594zM13.647 6.75h3.6a4.5 4.5 0 0 1 4.5 4.5v3H18v-1.5a1.5 1.5 0 0 0-1.5-1.5h-2.852m-7.795-4.5H.75v4.5h5.103M.75.75v16.5"/></svg>