<svg id="Regular" xmlns="http://www.w3.org/2000/svg" viewBox="0 0 24 24" width="24" height="24"><defs><style>.cls-1{fill:none;stroke:#000;stroke-linecap:round;stroke-linejoin:round;stroke-width:1.5px}</style></defs><title>water-straw</title><path class="cls-1" d="M17.25 21.874a1.5 1.5 0 0 1-1.495 1.376H6.744a1.5 1.5 0 0 1-1.494-1.376L3 7.562a.753.753 0 0 1 .75-.812h14.815a.75.75 0 0 1 .747.812z"/><path class="cls-1" d="M11.25 19.5l3.267-16.338A3 3 0 0 1 17.459.75H21"/><path class="cls-1" d="M18.373 14.079a3.755 3.755 0 0 1-4.123-1.329 3.75 3.75 0 0 1-6 0 3.752 3.752 0 0 1-4.23 1.293"/></svg>