<svg xmlns="http://www.w3.org/2000/svg" viewBox="0 0 24 24" width="24" height="24"><g fill="none" stroke="#000" stroke-linejoin="round" stroke-miterlimit="10"><path d="M16.5 22.5c0-1.105-.896-1-2-1h-6c-1.104 0-2-.105-2 1v1h10v-1zm-2-1v-2.284m-6 .013V21.5"/><path d="M2.5 13.5h18c0 8-18 8.083-18 0zm2.512-5h12.977c-.001 4.041-12.977 4.041-12.977 0zm8.488 5v-2.102m-4 0V13.5"/><path stroke-linecap="round" d="M15.5 3v-.5a2 2 0 00-4 0V8m-4-5v-.5a2 2 0 014 0v6m4-3.5v1m-8-1v1"/></g><path fill="none" d="M0 0h24v24H0z"/></svg>