<svg id="Regular" xmlns="http://www.w3.org/2000/svg" viewBox="0 0 24 24" width="24" height="24"><defs><style>.cls-1{fill:none;stroke:#000;stroke-linecap:round;stroke-linejoin:round;stroke-width:1.5px}</style></defs><title>water-pitcher</title><path class="cls-1" d="M2.25 15V9.75a1.5 1.5 0 0 1 1.5-1.5h4.319"/><path class="cls-1" d="M19.671 4.016v-.517l.371-1.873a.767.767 0 0 0-1.253-.693l-3.358 2.508a1.556 1.556 0 0 1-.934.309h-4.322A1.527 1.527 0 0 0 8.659 5l-1.625 8.944a17.579 17.579 0 0 0-.171 5.135l.019.168a4.57 4.57 0 0 0 4.58 4h5.575a4.57 4.57 0 0 0 4.58-4l.02-.175a17.58 17.58 0 0 0-.168-5.12zM6.751 17.25h14.998"/></svg>