<svg id="Regular" xmlns="http://www.w3.org/2000/svg" viewBox="0 0 24 24" width="24" height="24"><defs><style>.cls-1{fill:none;stroke:#000;stroke-linecap:round;stroke-linejoin:round;stroke-width:1.5px}</style></defs><title>water-pitcher-3</title><path class="cls-1" d="M16.912 22.2l2.408-8.748a5 5 0 0 0-.613-4.042l-1.275-1.935a5.01 5.01 0 0 1-.374-4.713L17.944.75H6.056l.886 2.012a5.01 5.01 0 0 1-.374 4.713L5.293 9.407a5 5 0 0 0-.613 4.042L7.088 22.2a1.35 1.35 0 0 0 1.26 1.053h7.3a1.35 1.35 0 0 0 1.264-1.053zM4.694 13.5h14.612"/></svg>