<svg xmlns="http://www.w3.org/2000/svg" viewBox="0 0 24 24" width="24" height="24"><defs><style>.a{fill:none;stroke:#000;stroke-linecap:round;stroke-linejoin:round;stroke-width:1.5px}</style></defs><title>water-fountain-drink</title><path class="a" d="M23.25 18.75a6 6 0 0 1-6-6h6m-1.5 0v-.427zm0-3.427V8.25a3.033 3.033 0 0 0-.03-.427 3.033 3.033 0 0 1 .03.427zm-6-1.073a3.013 3.013 0 0 1 .366-1.438 3.013 3.013 0 0 0-.366 1.438zM20 5.521a2.984 2.984 0 0 0-1.25-.271c-.082 0-.15 0-.214.008.064 0 .132-.007.214-.008a2.968 2.968 0 0 1 1.25.271z"/><circle class="a" cx="11.25" cy="3.375" r="2.625"/><path class="a" d="M2.25 23.25a1.5 1.5 0 0 1-1.5-1.5v-6.372a4.5 4.5 0 0 1 1.115-2.965l4.506-5.15A1.5 1.5 0 0 1 8.979 8l.453 2.719a1.5 1.5 0 0 0 1.006 1.181l2.787.929a1.5 1.5 0 0 1-.95 2.845l-2.786-.929a4.491 4.491 0 0 1-2.932-3.136l-2.435 2.78a1.5 1.5 0 0 0-.372.989v6.372a1.5 1.5 0 0 1-1.5 1.5z"/></svg>