<svg id="Regular" xmlns="http://www.w3.org/2000/svg" viewBox="0 0 24 24" width="24" height="24"><defs><style>.cls-1{fill:none;stroke:#000;stroke-linecap:round;stroke-linejoin:round;stroke-width:1.5px}</style></defs><title>water-glass-half-full</title><path class="cls-1" d="M18.75 21a2.25 2.25 0 0 1-4.5 0 2.25 2.25 0 0 1-4.5 0 2.25 2.25 0 0 1-4.5 0v-3.75a6.066 6.066 0 0 0 0-6v-1.5c0-2.9 2.35-6 5.25-6h3c2.9 0 5.25 3.1 5.25 6v1.5a6.059 6.059 0 0 0 0 6zM10.5.75h3v3h-3zm-5.25 10.5h13.5m-13.5 6h13.5"/></svg>