<svg xmlns="http://www.w3.org/2000/svg" viewBox="0 0 24 24" width="24" height="24"><g fill="none" stroke="#000" stroke-linejoin="round" stroke-miterlimit="10"><path d="M23.493 23.479l.005-3.021c-2.505.521-4.06-1.979-4.06-1.979h-.004c-1.487 2.58-5.445 2.875-7.236 0h-.004c-1.489 2.586-5.449 2.87-7.235 0h-.004S2.951 21.021.5 20.5l-.007 2.979h23z"/><path d="M23.493 20.479l.005-4.021c-2.505.521-4.06-1.979-4.06-1.979h-.004c-1.487 2.58-5.445 2.875-7.236 0h-.004c-1.489 2.586-5.449 2.87-7.235 0h-.004S2.951 17.021.5 16.5l-.007 3.979"/><path stroke-linecap="round" d="M6 11l2.5 2.5L11 11M8.5 5.5v8M13 11l2.5 2.5L18 11m-2.5-5.5v8"/></g><path fill="none" d="M0 0h24v24H0z"/></svg>