<svg id="Regular" xmlns="http://www.w3.org/2000/svg" viewBox="0 0 24 24" width="24" height="24"><defs><style>.cls-1{fill:none;stroke:#000;stroke-linecap:round;stroke-linejoin:round;stroke-width:1.5px}</style></defs><title>weather-night-windy</title><path class="cls-1" d="M20.677 12.285a5.982 5.982 0 0 0 2.555-1.966A5.6 5.6 0 0 1 18.361.744a5.977 5.977 0 0 0-5.886 5.23M.835 13.836a6.084 6.084 0 0 1-.1-1.112A6 6 0 0 1 12.619 11.6a3.723 3.723 0 0 1 5.229 2.374"/><path class="cls-1" d="M12.732 12.724a5.993 5.993 0 0 1-.046.75 5.993 5.993 0 0 0 .046-.75 5.848 5.848 0 0 0-.113-1.122m-7.387 8.622h17.887m-22.387-3h17.887m-17.887 6h17.887"/></svg>