<svg id="Regular" xmlns="http://www.w3.org/2000/svg" viewBox="0 0 24 24" width="24" height="24"><defs><style>.cls-1{fill:none;stroke:#000;stroke-linecap:round;stroke-linejoin:round;stroke-width:1.5px}</style></defs><title>weather-night-cloudy</title><path class="cls-1" d="M3.29 14.791a5.982 5.982 0 0 1-2.555-1.966 5.579 5.579 0 0 0 3.391-.441 5.625 5.625 0 0 0 2.682-7.489 5.586 5.586 0 0 0-1.2-1.645 5.977 5.977 0 0 1 5.886 5.23m-.259 6.75a6.19 6.19 0 0 0 .046.75 6.19 6.19 0 0 1-.046-.75 5.832 5.832 0 0 1 .113-1.122"/><path class="cls-1" d="M17.235 21.23a6 6 0 1 0-5.887-7.122 3.745 3.745 0 1 0-1.613 7.122z"/></svg>