<svg id="Regular" xmlns="http://www.w3.org/2000/svg" viewBox="0 0 24 24" width="24" height="24"><defs><style>.cls-1{fill:none;stroke:#000;stroke-linecap:round;stroke-linejoin:round;stroke-width:1.5px}</style></defs><title>weather-cloud</title><path class="cls-1" d="M8.25 6V3m-4.5 7.5h-3m10.682-3.182l2.121-2.121M5.068 7.318L2.947 5.197M4.5 12.984a4.5 4.5 0 1 1 7.65-4.736M11.25 15a5.993 5.993 0 0 0 .047.75 5.993 5.993 0 0 1-.047-.75 5.848 5.848 0 0 1 .113-1.122"/><path class="cls-1" d="M17.25 21a6 6 0 1 0-5.887-7.122A3.745 3.745 0 1 0 9.75 21z"/></svg>