<svg xmlns="http://www.w3.org/2000/svg" viewBox="0 0 24 24" width="24" height="24"><g fill="none" stroke="#000" stroke-linejoin="round" stroke-miterlimit="10"><path d="M3.5 9.453c0 4.418 3.582 8.008 8 8.008s8-3.992 8-7.992H22l-1.821-4.215A2.96 2.96 0 0014.5 6.429c0 1.679-1.821 3.04-3.5 3.04-3.729 0-7.5-6-7.5-6v5.984z"/><path stroke-linecap="round" d="M11.5 23.49v-6.021m-9.5 3l17.5.031M17 18.469l2.5 2.031-2.469 1.953m-9.26-1.984l-1.26-2H2.5l1 2zm0 0l-1.26 2H2.5l1-2z"/><path d="M15.167 4.469L13.5 1.531l2 .354L17.5.5l1.958 1.385 2.073-.385-1.948 2.844"/><path stroke-linecap="round" d="M3.5 8.469h2m-1.937 1.996l2.937.004m-2.412 2H7.5"/><circle stroke-linecap="round" cx="17.5" cy="6.719" r="1"/></g><path fill="none" d="M0 0h24v24H0z"/></svg>