<svg id="Regular" xmlns="http://www.w3.org/2000/svg" viewBox="0 0 24 24" width="24" height="24"><defs><style>.cls-1{fill:none;stroke:#000;stroke-linecap:round;stroke-linejoin:round;stroke-width:1.5px}</style></defs><title>weather-app-cloud-location</title><path class="cls-1" d="M6.75 6.75a5.993 5.993 0 0 0 .05.75 5.993 5.993 0 0 1-.047-.75 5.848 5.848 0 0 1 .113-1.122"/><path class="cls-1" d="M18.555 8.273A6 6 0 1 0 6.863 5.628 3.745 3.745 0 1 0 5.25 12.75h5.219M18 15.449a.375.375 0 0 1 .375.375m-.75 0a.375.375 0 0 1 .375-.375m0 .751a.375.375 0 0 1-.375-.375m.75-.001A.375.375 0 0 1 18 16.2"/><path class="cls-1" d="M18 11.324a4.5 4.5 0 0 1 4.5 4.5c0 1.921-2.688 5.576-3.909 7.138a.751.751 0 0 1-1.182 0C16.188 21.4 13.5 17.745 13.5 15.824a4.5 4.5 0 0 1 4.5-4.5z"/></svg>