<svg id="Regular" xmlns="http://www.w3.org/2000/svg" viewBox="0 0 24 24" width="24" height="24"><defs><style>.cls-1{fill:none;stroke:#000;stroke-linecap:round;stroke-linejoin:round;stroke-width:1.5px}</style></defs><title>weather-cloud-sun-wind</title><path class="cls-1" d="M8.25 3.75v-3m-4.5 7.5h-3m10.682-3.182l2.121-2.121M5.068 5.068L2.947 2.947M4.5 10.734A4.5 4.5 0 1 1 12.147 6m-.897 6.75a5.993 5.993 0 0 0 .047.75 5.993 5.993 0 0 1-.047-.75 5.848 5.848 0 0 1 .113-1.122"/><path class="cls-1" d="M19.916 18.126a6 6 0 1 0-8.553-6.5 3.723 3.723 0 0 0-5.275 2.563m-.791 6.061h11.25m-15.75-3h11.25m-11.25 6h11.25"/></svg>