<svg id="Regular" xmlns="http://www.w3.org/2000/svg" viewBox="0 0 24 24" width="24" height="24"><defs><style>.cls-1{fill:none;stroke:#000;stroke-linecap:round;stroke-linejoin:round;stroke-width:1.5px}</style></defs><title>weather-app-sunny</title><circle class="cls-1" cx="15.75" cy="6.75" r="2.25"/><path class="cls-1" d="M15.75 2.25V.75m4.5 6h1.5m-6 4.5v1.5m-4.5-6h-1.5m2.818-3.182l-1.061-1.061m7.425 1.061l1.061-1.061m-1.061 7.425l1.061 1.061m-7.425-1.061l-1.061 1.061m2.743 4.757v4.767a2.732 2.732 0 0 1-2.733 2.733H4.983a2.732 2.732 0 0 1-2.733-2.733V4.983A2.732 2.732 0 0 1 4.983 2.25H8.25m-6 16.5h12"/></svg>