<svg id="Regular" xmlns="http://www.w3.org/2000/svg" viewBox="0 0 24 24" width="24" height="24"><defs><style>.cls-1,.cls-2{fill:none;stroke:#000;stroke-linecap:round;stroke-linejoin:round;stroke-width:1.5px}.cls-1{fill-rule:evenodd}</style></defs><title>weather-cloud-hail</title><path class="cls-1" d="M5.232 20.739a.375.375 0 0 1 .375.375m-.75 0a.375.375 0 0 1 .375-.375m0 .75a.375.375 0 0 1-.375-.375m.75 0a.375.375 0 0 1-.375.375"/><path class="cls-2" d="M9.732 8.364a5.993 5.993 0 0 0 .047.75 5.993 5.993 0 0 1-.047-.75 5.921 5.921 0 0 1 .113-1.122"/><path class="cls-2" d="M15.732 14.364a6 6 0 1 0-5.887-7.122 3.745 3.745 0 1 0-1.613 7.122zm-6.75 3l-3.485 3.485"/><path class="cls-1" d="M9.732 20.739a.375.375 0 0 1 .375.375m-.75 0a.375.375 0 0 1 .375-.375m0 .75a.375.375 0 0 1-.375-.375m.75 0a.375.375 0 0 1-.375.375"/><path class="cls-2" d="M13.482 17.364l-3.485 3.485"/><path class="cls-1" d="M14.232 20.739a.375.375 0 0 1 .375.375m-.75 0a.375.375 0 0 1 .375-.375m0 .75a.375.375 0 0 1-.375-.375m.75 0a.375.375 0 0 1-.375.375"/><path class="cls-2" d="M17.982 17.364l-3.485 3.485"/></svg>