<svg id="Regular" xmlns="http://www.w3.org/2000/svg" viewBox="0 0 24 24" width="24" height="24"><defs><style>.cls-1,.cls-2{fill:none;stroke:#000;stroke-linecap:round;stroke-linejoin:round;stroke-width:1.5px}.cls-2{fill-rule:evenodd}</style></defs><title>weather-night-thunder-rain</title><path class="cls-1" d="M19.235 20.98l-2.25 2.25m-6.75-2.25l-2.25 2.25"/><path class="cls-2" d="M16.235 14.98l-3.75 3.75h4.5l-3.75 3.75"/><path class="cls-1" d="M3.486 12.291A5.991 5.991 0 0 1 .93 10.325a5.579 5.579 0 0 0 3.391-.441A5.625 5.625 0 0 0 7 2.4 5.6 5.6 0 0 0 5.8.75a5.977 5.977 0 0 1 5.886 5.23m8.299 11.947a6 6 0 1 0-8.885-6.319 3.745 3.745 0 1 0-1.615 7.122"/><path class="cls-1" d="M10.985 12.73a6.19 6.19 0 0 0 .046.75 6.19 6.19 0 0 1-.046-.75 5.832 5.832 0 0 1 .113-1.122"/></svg>