<svg id="Regular" xmlns="http://www.w3.org/2000/svg" viewBox="0 0 24 24" width="24" height="24"><defs><style>.cls-1,.cls-2{fill:none;stroke:#000;stroke-linecap:round;stroke-linejoin:round;stroke-width:1.5px}.cls-2{fill-rule:evenodd}</style></defs><title>weather-night-snow-thunder</title><path class="cls-1" d="M3.29 12.311a5.982 5.982 0 0 1-2.555-1.966A5.586 5.586 0 0 0 4.126 9.9a5.626 5.626 0 0 0 2.682-7.49A5.586 5.586 0 0 0 5.606.77 5.977 5.977 0 0 1 11.492 6m8.743 11.947a6 6 0 1 0-8.887-6.319 3.745 3.745 0 1 0-1.613 7.122"/><path class="cls-2" d="M16.485 15l-3.75 3.75h4.5l-3.75 3.75"/><path class="cls-1" d="M8.61 22.5a.375.375 0 0 1 .375.375m-.75 0a.375.375 0 0 1 .375-.375m0 .75a.375.375 0 0 1-.375-.375m.75 0a.375.375 0 0 1-.375.375m9.75-.75a.375.375 0 0 1 .375.375m-.75 0a.375.375 0 0 1 .375-.375m0 .75a.375.375 0 0 1-.375-.375m.75 0a.375.375 0 0 1-.375.375m-7.125-10.5a6.19 6.19 0 0 0 .046.75 6.19 6.19 0 0 1-.046-.75 5.848 5.848 0 0 1 .113-1.122"/></svg>