<svg id="Regular" xmlns="http://www.w3.org/2000/svg" viewBox="0 0 24 24" width="24" height="24"><defs><style>.cls-1{fill:none;stroke:#000;stroke-linecap:round;stroke-linejoin:round;stroke-width:1.5px}</style></defs><title>weather-app-sun-location</title><path class="cls-1" d="M11.585 18.737a6.75 6.75 0 1 1 5.969-10.575M12 2.25V.75m6.894 4.356l1.061-1.061M12 21.75v1.5m-6.894-4.356l-1.061 1.061M2.25 12H.75m4.356-6.894L4.045 4.045M18.75 15.449a.375.375 0 0 1 .375.375m-.75 0a.375.375 0 0 1 .375-.375m0 .751a.375.375 0 0 1-.375-.375m.75-.001a.375.375 0 0 1-.375.375"/><path class="cls-1" d="M18.75 11.324a4.5 4.5 0 0 1 4.5 4.5c0 1.921-2.688 5.576-3.909 7.138a.751.751 0 0 1-1.182 0c-1.221-1.562-3.909-5.217-3.909-7.138a4.5 4.5 0 0 1 4.5-4.5z"/></svg>