<svg id="Regular" xmlns="http://www.w3.org/2000/svg" viewBox="0 0 24 24" width="24" height="24"><defs><style>.cls-1{fill:none;stroke:#000;stroke-linecap:round;stroke-linejoin:round;stroke-width:1.5px}</style></defs><title>weather-wind-1</title><path class="cls-1" d="M15.75 3.75v-3m4.5 7.5h3M12.568 5.068l-2.121-2.121m8.485 2.121l2.121-2.121M19.5 10.734A4.5 4.5 0 1 0 11.853 6m-11 7.841a6 6 0 0 1 11.784-2.233 3.744 3.744 0 0 1 5.02 4.941"/><path class="cls-1" d="M12.75 12.73a5.993 5.993 0 0 1-.047.75 5.993 5.993 0 0 0 .047-.75 5.832 5.832 0 0 0-.113-1.122M.75 20.25h12a1.5 1.5 0 0 1 1.5 1.5 1.5 1.5 0 0 1-1.5 1.5H12m-11.25-6H9a1.5 1.5 0 0 0 1.5-1.5 1.5 1.5 0 0 0-1.5-1.5h-.75"/></svg>