<svg id="Regular" xmlns="http://www.w3.org/2000/svg" viewBox="0 0 24 24" width="24" height="24"><defs><style>.cls-1{fill:none;stroke:#000;stroke-linecap:round;stroke-linejoin:round;stroke-width:1.5px}</style></defs><title>weather-app-cloudy</title><path class="cls-1" d="M12.75 15.75v4.767a2.732 2.732 0 0 1-2.733 2.733H3.483A2.732 2.732 0 0 1 .75 20.517V4.983A2.732 2.732 0 0 1 3.483 2.25H6M.75 18.75h12m2.674-10.481a3.665 3.665 0 0 0 .03.471 3.665 3.665 0 0 1-.03-.471 3.564 3.564 0 0 1 .074-.7"/><path class="cls-1" d="M19.337 12a3.834 3.834 0 0 0 3.913-3.75 3.928 3.928 0 0 0-7.752-.7 2.511 2.511 0 0 0-1.052-.237A2.4 2.4 0 0 0 12 9.656 2.4 2.4 0 0 0 14.446 12zm-8.413-7.481a3.665 3.665 0 0 0 .03.471 3.665 3.665 0 0 1-.03-.471 3.564 3.564 0 0 1 .074-.7"/><path class="cls-1" d="M17.374 1.645A4 4 0 0 0 14.837.75 3.869 3.869 0 0 0 11 3.8a2.511 2.511 0 0 0-1.052-.237A2.4 2.4 0 0 0 7.5 5.906a2.348 2.348 0 0 0 1.532 2.175"/></svg>