<svg id="Regular" xmlns="http://www.w3.org/2000/svg" viewBox="0 0 24 24" width="24" height="24"><defs><style>.cls-1,.cls-2{fill:none;stroke:#000;stroke-linejoin:round;stroke-width:1.5px}.cls-1{stroke-linecap:round}</style></defs><title>weather-app-rain-umbrella</title><path class="cls-1" d="M12.75 13.5v7.017a2.732 2.732 0 0 1-2.733 2.733H3.483A2.732 2.732 0 0 1 .75 20.517V4.983A2.732 2.732 0 0 1 3.483 2.25H8.25m-7.5 16.5h12"/><path class="cls-2" d="M16.5 9.75c.409-1.669 3.268-1.669 3.677 0 .013-1.682 3.076-1.669 3.065 0a6.892 6.892 0 0 0-6.742-7.5 6.892 6.892 0 0 0-6.742 7.5c-.011-1.669 3.052-1.682 3.065 0 .409-1.669 3.268-1.669 3.677 0z"/><path class="cls-1" d="M16.5 2.25V.75m0 9V15a1.5 1.5 0 0 0 3 0"/></svg>