<svg id="Regular" xmlns="http://www.w3.org/2000/svg" viewBox="0 0 24 24" width="24" height="24"><defs><style>.cls-1{fill:none;stroke:#000;stroke-linecap:round;stroke-linejoin:round;stroke-width:1.5px}</style></defs><title>weather-cloud-sun-wind-1</title><path class="cls-1" d="M8.276 3.75v-3m-4.5 7.5h-3m10.682-3.182l2.122-2.121M5.094 5.068L2.973 2.947m1.551 7.787A4.5 4.5 0 1 1 12.173 6m-.923 6.75a5.993 5.993 0 0 0 .047.75 5.993 5.993 0 0 1-.047-.75 5.848 5.848 0 0 1 .113-1.122"/><path class="cls-1" d="M19.916 18.126a6 6 0 1 0-8.553-6.5 3.723 3.723 0 0 0-5.275 2.563M.776 17.573c8.25 3.75 6.75-3 14.25.75m-14.25 3.75c8.25 3.75 6.75-3 14.25.75"/></svg>