<svg id="Regular" xmlns="http://www.w3.org/2000/svg" viewBox="0 0 24 24" width="24" height="24"><defs><style>.cls-1{fill:none;stroke:#000;stroke-linecap:round;stroke-linejoin:round;stroke-width:1.5px}</style></defs><title>weather-night-wind</title><path class="cls-1" d="M20.7 12.291a5.982 5.982 0 0 0 2.555-1.966A5.6 5.6 0 0 1 18.379.75a5.977 5.977 0 0 0-5.887 5.23M.853 13.841a6 6 0 0 1 11.784-2.233 3.744 3.744 0 0 1 5.02 4.941"/><path class="cls-1" d="M12.75 12.73a5.993 5.993 0 0 1-.047.75 5.993 5.993 0 0 0 .047-.75 5.832 5.832 0 0 0-.113-1.122M5.25 20.23H16.5m-15.75-3H12m-11.25 6H12"/></svg>