<svg id="Regular" xmlns="http://www.w3.org/2000/svg" viewBox="0 0 24 24" width="24" height="24"><defs><style>.cls-1{fill:none;stroke:#000;stroke-linecap:round;stroke-linejoin:round;stroke-width:1.5px}</style></defs><title>weather-app-sun-cloud-location</title><path class="cls-1" d="M8.25 9.75a5.993 5.993 0 0 0 .047.75 5.993 5.993 0 0 1-.047-.75 5.848 5.848 0 0 1 .113-1.122"/><path class="cls-1" d="M20.144 8.62a6 6 0 0 0-11.781.008A3.745 3.745 0 1 0 6.75 15.75h4.5m7.5-.301a.375.375 0 0 1 .375.375m-.75 0a.375.375 0 0 1 .375-.375m0 .751a.374.374 0 0 1-.375-.375m.75-.001a.374.374 0 0 1-.375.375"/><path class="cls-1" d="M18.75 11.324a4.5 4.5 0 0 1 4.5 4.5c0 1.921-2.688 5.576-3.909 7.138a.751.751 0 0 1-1.182 0c-1.221-1.562-3.909-5.218-3.909-7.139a4.5 4.5 0 0 1 4.5-4.499zM3.064 6.836a2.7 2.7 0 0 1 4.1-3.495M5.25 2.55V.75m-2.7 4.5H.75m2.591-1.909L1.65 1.65"/></svg>