<svg id="Regular" xmlns="http://www.w3.org/2000/svg" viewBox="0 0 24 24" width="24" height="24"><defs><style>.cls-1,.cls-2{fill:none;stroke:#000;stroke-linecap:round;stroke-linejoin:round;stroke-width:1.5px}.cls-1{fill-rule:evenodd}</style></defs><title>weather-cloud-thunder-rain</title><path class="cls-1" d="M13.409 14.684l-3 3h4.5l-3.75 3.75"/><circle class="cls-2" cx="4.409" cy="21.434" r=".375"/><circle class="cls-2" cx="16.409" cy="21.434" r=".375"/><path class="cls-2" d="M10.409 8.684a5.993 5.993 0 0 0 .047.75 5.993 5.993 0 0 1-.047-.75 5.848 5.848 0 0 1 .113-1.122"/><path class="cls-2" d="M16.409 14.684a6 6 0 1 0-5.887-7.122 3.745 3.745 0 1 0-1.613 7.122zm-8.25 3l-3.485 3.485m15.485-3.485l-3.485 3.485"/></svg>