<svg id="Regular" xmlns="http://www.w3.org/2000/svg" viewBox="0 0 24 24" width="24" height="24"><defs><style>.cls-1{fill:none;stroke:#000;stroke-linecap:round;stroke-linejoin:round;stroke-width:1.5px}</style></defs><title>weather-cloud-wind</title><path class="cls-1" d="M8.641 10.309a6.9 6.9 0 0 0 .059.891 6.9 6.9 0 0 1-.057-.891 6.808 6.808 0 0 1 .138-1.332"/><path class="cls-1" d="M18.2 17.089a7.15 7.15 0 0 0 5.051-6.78A7.317 7.317 0 0 0 8.779 8.977a4.621 4.621 0 0 0-1.964-.449 4.51 4.51 0 0 0-4.565 4.453 4.371 4.371 0 0 0 .065.755M.75 16.684H12m-6.75 3H16.5m-15.75 3H12"/></svg>