<svg xmlns="http://www.w3.org/2000/svg" viewBox="0 0 24 24" width="24" height="24"><defs><style>.a{fill:none;stroke:#000;stroke-linecap:round;stroke-linejoin:round;stroke-width:1.5px}</style></defs><title>webpage-live</title><path class="a" d="M9.75 5.208V.75m2.25 0v1.293a5.12 5.12 0 0 0 1.125 3.165 5.12 5.12 0 0 0 1.125-3.165V.75m-9 0v3.533a1.055 1.055 0 0 0 1.125.967H7.5m10.917 0h-.959a.93.93 0 0 1-.958-.9v-2.7a.93.93 0 0 1 .958-.9h.959M16.5 3h2.25"/><path class="a" d="M2.25.75a1.5 1.5 0 0 0-1.5 1.5v19.5a1.5 1.5 0 0 0 1.5 1.5h19.5a1.5 1.5 0 0 0 1.5-1.5V2.25a1.5 1.5 0 0 0-1.5-1.5"/><circle class="a" cx="6" cy="9.75" r="1.5"/><path class="a" d="M10.5 8.25h6m-6 3h3"/><circle class="a" cx="6" cy="15.75" r="1.5"/><path class="a" d="M10.5 14.25h6m-6 3h3m-12.75 3h22.5m-4.5 0v3"/></svg>