<svg xmlns="http://www.w3.org/2000/svg" viewBox="0 0 24 24" width="24" height="24"><defs><style>.a{fill:none;stroke:#000;stroke-linecap:round;stroke-linejoin:round;stroke-width:1.5px}</style></defs><title>wedding-money-piggy</title><path class="a" d="M18.107 9.75l-4.383-4.572a2.6 2.6 0 0 1-.486-2.994 2.593 2.593 0 0 1 4.153-.674l.716.716.716-.716a2.593 2.593 0 0 1 4.153.674 2.594 2.594 0 0 1-.486 2.994zM7.5 10.125a.375.375 0 0 1 .375.375m-.75 0a.375.375 0 0 1 .375-.375m0 .75a.375.375 0 0 1-.375-.375m.75 0a.375.375 0 0 1-.375.375m-1.489 9.329L5.25 23.25m11.24-3.042l.76 3.042"/><path class="a" d="M9.019 5.516L7.054 3.879a.749.749 0 0 0-1.224.483l-.351 2.811A8.206 8.206 0 0 0 2.6 11.25H.75v6h2.49a9.114 9.114 0 0 0 8.01 4.5c4.971 0 9-3.694 9-8.25a7.444 7.444 0 0 0-.037-.75"/></svg>