<svg xmlns="http://www.w3.org/2000/svg" viewBox="0 0 24 24" width="24" height="24"><defs><style>.a{fill:none;stroke:#000;stroke-linecap:round;stroke-linejoin:round;stroke-width:1.5px}</style></defs><title>wedding-certificate</title><path class="a" d="M3.75 6.75h9.75m-9.75 4.5h6m-6 4.5h6m5.404.19l-.704 7.31 3.65-1.5 3.65 1.5-.695-7.216M11.25 20.25h-9a1.5 1.5 0 0 1-1.5-1.5V2.25a1.5 1.5 0 0 1 1.5-1.5H12.8a1.5 1.5 0 0 1 1.153.54L16.9 4.833a1.5 1.5 0 0 1 .348.96V8.25"/><path class="a" d="M22.6 11.208a2.154 2.154 0 0 0-3.118 0l-1.332 1.381-1.336-1.381a2.154 2.154 0 0 0-3.118 0 2.335 2.335 0 0 0 0 3.224l3.98 4.115a.654.654 0 0 0 .948 0l3.98-4.115a2.335 2.335 0 0 0-.004-3.224z"/></svg>