<svg xmlns="http://www.w3.org/2000/svg" viewBox="0 0 24 24" width="24" height="24"><defs><style>.a{fill:none;stroke:#000;stroke-linecap:round;stroke-linejoin:round;stroke-width:1.5px}</style></defs><title>wedding-dress</title><path class="a" d="M15.442 8.481l1.714-3.315A3.084 3.084 0 0 0 17.5 3.75a3 3 0 0 0-6 0 3 3 0 0 0-6 0 3.084 3.084 0 0 0 .344 1.416l1.714 3.315C6.121 9.717 4.75 11.5 4.75 13.5v3.256a.751.751 0 0 0 .463.693 15.838 15.838 0 0 0 12.574 0 .751.751 0 0 0 .463-.693V13.5c0-2-1.371-3.783-2.808-5.019zM4.75 14.25a15.938 15.938 0 0 0 13.5 0m-6.75 9v-4.5m-3 4.5h6"/></svg>