<svg xmlns="http://www.w3.org/2000/svg" viewBox="0 0 24 24" width="24" height="24"><defs><style>.a{fill:none;stroke:#000;stroke-linecap:round;stroke-linejoin:round;stroke-width:1.5px}</style></defs><title>wedding-car</title><path class="a" d="M21 9l-1.929-6.431A1.5 1.5 0 0 0 17.634 1.5H6.366a1.5 1.5 0 0 0-1.437 1.069L3 9 .964 12.394a1.5 1.5 0 0 0-.214.771V18a1.5 1.5 0 0 0 1.5 1.5h19.5a1.5 1.5 0 0 0 1.5-1.5v-4.835a1.5 1.5 0 0 0-.214-.771zM3.9 6h16.2M6.75 21a1.5 1.5 0 0 1-1.5 1.5h-1.5a1.5 1.5 0 0 1-1.5-1.5v-1.5h4.5zm15 0a1.5 1.5 0 0 1-1.5 1.5h-1.5a1.5 1.5 0 0 1-1.5-1.5v-1.5h4.5zm-6.01-7.402l6.546-2.455m-20.447-.208l6.17 2.469M.75 16.5H4.5m15 0h3.75"/><path class="a" d="M16.422 9.668a2.153 2.153 0 0 0-3.118 0l-1.336 1.381-1.336-1.381a2.153 2.153 0 0 0-3.118 0 2.335 2.335 0 0 0 0 3.224l3.98 4.114a.656.656 0 0 0 .949 0l3.979-4.114a2.335 2.335 0 0 0 0-3.224z"/></svg>