<svg xmlns="http://www.w3.org/2000/svg" viewBox="0 0 24 24" width="24" height="24"><defs><style>.a{fill:none;stroke:#000;stroke-linecap:round;stroke-linejoin:round;stroke-width:1.5px}</style></defs><title>wedding-cake-heart</title><path class="a" d="M16.5 6.026a5.465 5.465 0 0 1 4.731 1.955 2.861 2.861 0 0 1-.921 4.1l-7.516 4.692a1.5 1.5 0 0 1-1.588 0L3.69 12.08a2.861 2.861 0 0 1-.921-4.1A5.465 5.465 0 0 1 7.5 6.026"/><path class="a" d="M2.25 9.768v5.947a3.191 3.191 0 0 0 1.44 2.365l7.516 4.692a1.5 1.5 0 0 0 1.588 0l7.516-4.692a3.191 3.191 0 0 0 1.436-2.365V9.768M12 6.018v6m2.25-8.25a2.25 2.25 0 1 1-4.5 0c0-1.242 2.25-3 2.25-3s2.25 1.758 2.25 3z"/></svg>