<svg xmlns="http://www.w3.org/2000/svg" viewBox="0 0 24 24" width="24" height="24"><defs><style>.a{fill:none;stroke:#000;stroke-linecap:round;stroke-linejoin:round;stroke-width:1.5px}</style></defs><title>wedding-couple</title><path class="a" d="M23.25 23.25V15a11.227 11.227 0 0 0-4.05-8.643m-14.768.319A11.22 11.22 0 0 0 .75 15v8.25M16.883 1.482a2.361 2.361 0 0 0-3.418 0L12 3l-1.465-1.518a2.361 2.361 0 0 0-3.418 0 2.559 2.559 0 0 0 0 3.534l4.363 4.511a.718.718 0 0 0 1.04 0l4.363-4.511a2.559 2.559 0 0 0 0-3.534zM15.75 16.5h3m-1.5-1.5v3m3-15.75h3m-1.5-1.5v3M4.5 13.5h3M6 12v3"/></svg>