<svg xmlns="http://www.w3.org/2000/svg" viewBox="0 0 24 24" width="24" height="24"><defs><style>.a{fill:none;stroke:#000;stroke-linecap:round;stroke-linejoin:round;stroke-width:1.5px}</style></defs><title>wedding-fireworks</title><path class="a" d="M6.03 1.076l1.249 2.457h2.127a.583.583 0 0 1 .419 1L7.872 6.452l1.082 2.485a.589.589 0 0 1-.839.737L5.5 8.2 2.885 9.674a.589.589 0 0 1-.839-.737l1.082-2.485L1.175 4.53a.583.583 0 0 1 .419-1h2.127l1.248-2.454a.594.594 0 0 1 1.061 0zm12.75 3.747l1.249 2.457h2.127a.583.583 0 0 1 .419 1l-1.953 1.92 1.078 2.484a.589.589 0 0 1-.839.737L18.25 11.95l-2.615 1.471a.589.589 0 0 1-.839-.737l1.082-2.484-1.953-1.923a.583.583 0 0 1 .419-1h2.127l1.248-2.457a.594.594 0 0 1 1.061.003zM6.25 11.25a19.859 19.859 0 0 1 3.75 12m6 0A19.9 19.9 0 0 1 17.5 15"/></svg>