<svg xmlns="http://www.w3.org/2000/svg" viewBox="0 0 24 24" width="24" height="24"><defs><style>.a{fill:none;stroke:#000;stroke-linecap:round;stroke-linejoin:round;stroke-width:1.5px}</style></defs><title>wedding-celebration</title><path class="a" d="M15.5 15.9c-.379-2.761-3.522-2.518-3.944-.177-.306 1.7 1.872 4.338 2.717 5.285a.486.486 0 0 0 .594.108c1.122-.593 4.085-2.3 4.391-4 .42-2.349-2.441-3.673-3.758-1.216z"/><path class="a" d="M13.623 13.9a3.613 3.613 0 0 0 .069-1.876c-.843-2.889-4.951-2.682-4.78 1.081C7.033 9.837 3.458 11.871 4.3 14.76c.622 2.133 4.831 3.907 6.07 4.388a.477.477 0 0 0 .563-.164c.218-.3.577-.8.967-1.425M.75.75A68.534 68.534 0 0 0 23.25 3"/><path class="a" d="M6.577 2.03l-2.2 2.761a.75.75 0 0 1-1.312-.279L2.175 1.1m9.514 1.687l-2.012 2.9A.75.75 0 0 1 8.349 5.5L7.235 2.147m9.734 1.01L15.194 6.21a.75.75 0 0 1-1.339-.085l-1.377-3.252M22 3.082l-1.518 3.189a.751.751 0 0 1-1.342.029L17.5 3.17M3 21.75h3m-1.5-1.5v3m15.75-1.5h3m-1.5-1.5v3m-2.25-12h3M21 9.75v3M.75 9h3m-1.5-1.5v3"/></svg>