<svg xmlns="http://www.w3.org/2000/svg" viewBox="0 0 24 24" width="24" height="24"><defs><style>.a{fill:none;stroke:#000;stroke-linecap:round;stroke-linejoin:round;stroke-width:1.5px}</style></defs><title>wedding-couple-dance</title><path class="a" d="M12 22.5l-4.475-4.572a2.557 2.557 0 0 1-.5-2.994 2.677 2.677 0 0 1 4.24-.674l.731.716.731-.716a2.677 2.677 0 0 1 4.24.674 2.557 2.557 0 0 1-.5 2.994zM22.68 5.839a1.9 1.9 0 0 0-2.751 0L18.75 7.058l-1.179-1.219a1.9 1.9 0 0 0-2.751 0 2.06 2.06 0 0 0 0 2.845l3.511 3.631a.579.579 0 0 0 .838 0l3.511-3.631a2.06 2.06 0 0 0 0-2.845zM12 1.5V15m6.75-7.942V1.5M9.18 5.839a1.9 1.9 0 0 0-2.751 0L5.25 7.058 4.071 5.839a1.9 1.9 0 0 0-2.751 0 2.06 2.06 0 0 0 0 2.845l3.511 3.631a.579.579 0 0 0 .838 0L9.18 8.684a2.06 2.06 0 0 0 0-2.845zM5.25 7.058V1.5"/></svg>