<svg xmlns="http://www.w3.org/2000/svg" viewBox="0 0 24 24" width="24" height="24"><defs><style>.a{fill:none;stroke:#000;stroke-linecap:round;stroke-linejoin:round;stroke-width:1.5px}</style></defs><title>wedding-bride-groom</title><path class="a" d="M2.665 5.227a4.986 4.986 0 0 0 5.558 1.117M5.25 11.25a4.5 4.5 0 0 0-4.5 4.5v3H3l.75 4.5h3l.75-4.5h2.25v-3a4.5 4.5 0 0 0-4.5-4.5zm0 0v5.25"/><circle class="a" cx="5.25" cy="6.75" r="3"/><path class="a" d="M19.835 5.227a4.986 4.986 0 0 1-5.558 1.117"/><circle class="a" cx="17.25" cy="6.75" r="3"/><path class="a" d="M19.86 12.75h1.89a1.5 1.5 0 0 0 1.5-1.5v-4.5a6 6 0 0 0-12 0v4.5a1.5 1.5 0 0 0 1.5 1.5h1.89"/><path class="a" d="M17.25 11.25a3.024 3.024 0 0 0-2.9 2.155l-1.6 5.345H15l.75 4.5h3l.75-4.5h2.25l-1.6-5.345a3.024 3.024 0 0 0-2.9-2.155z"/><path class="a" d="M19.472 12.223L17.25 17.25s-1.873-4.591-2.222-5.027"/></svg>