<svg xmlns="http://www.w3.org/2000/svg" viewBox="0 0 24 24" width="24" height="24"><defs><style>.a{fill:none;stroke:#000;stroke-linecap:round;stroke-linejoin:round;stroke-width:1.5px}</style></defs><title>wedding-car-heart-balloon</title><circle class="a" cx="5.25" cy="21.75" r="1.5"/><circle class="a" cx="14.25" cy="21.75" r="1.5"/><path class="a" d="M6.782 21.75h5.968m-9 0h-1.5a1.5 1.5 0 0 1-1.5-1.5v-.75a3 3 0 0 1 3-3h12.4a3 3 0 0 1 2.97 2.576l.137.962a1.5 1.5 0 0 1-1.487 1.712h-2.02m-4.5-5.25v-6"/><path class="a" d="M5.25 16.5a6 6 0 0 1 12 0v.21m.52 5.04h2.48a3 3 0 0 0 3-3v-2.734A4.07 4.07 0 0 0 21 12.375a4.07 4.07 0 0 1-2.25-3.641V7.5"/><path class="a" d="M22.68 1.339a1.9 1.9 0 0 0-2.751 0L18.75 2.558l-1.179-1.219a1.9 1.9 0 0 0-2.751 0 2.06 2.06 0 0 0 0 2.845l3.511 3.137a.579.579 0 0 0 .838 0l3.511-3.137a2.06 2.06 0 0 0 0-2.845z"/></svg>