<svg xmlns="http://www.w3.org/2000/svg" viewBox="0 0 24 24" width="24" height="24"><defs><style>.a{fill:none;stroke:#000;stroke-linecap:round;stroke-linejoin:round;stroke-width:1.5px}</style></defs><title>wedding-bride-cake</title><rect class="a" x="12.75" y="11.25" width="10.5" height="6" rx=".75" ry=".75"/><path class="a" d="M21 11.25h-6V7.5a.75.75 0 0 1 .75-.75h4.5a.75.75 0 0 1 .75.75zm-3 6v6m5.25 0h-10.5"/><circle class="a" cx="6" cy="7.5" r="3"/><path class="a" d="M3 7.5s0 3.75-2.25 3.75M9 7.5s0 3.75 2.25 3.75m-7.044 2.221a1.829 1.829 0 0 1 3.588 0l2.18 7.879a1.5 1.5 0 0 1-1.445 1.9H3.471a1.5 1.5 0 0 1-1.445-1.9zM21.494 1.274a1.689 1.689 0 0 0-2.446 0L18 2.357l-1.048-1.083a1.688 1.688 0 0 0-2.445 0 1.829 1.829 0 0 0 0 2.528l3.121 2.789a.515.515 0 0 0 .744 0L21.494 3.8a1.831 1.831 0 0 0 0-2.526z"/></svg>