<svg xmlns="http://www.w3.org/2000/svg" viewBox="0 0 24 24" width="24" height="24"><circle fill="none" stroke="#000" stroke-linejoin="round" stroke-miterlimit="10" cx="4.5" cy="8" r="2"/><path fill="none" stroke="#000" stroke-linejoin="round" stroke-miterlimit="10" d="M8 11.5H1c0 4 1.5 5.758 1.5 6.631V23.5h4v-5.369C6.5 17.258 8 15.5 8 11.5z"/><circle fill="none" stroke="#000" stroke-linejoin="round" stroke-miterlimit="10" cx="13.5" cy="8" r="2"/><path fill="none" stroke="#000" stroke-linejoin="round" stroke-miterlimit="10" d="M13.5 11.652c-1.934 0-3.5 3.848-3.5 7.848h2.5v4h2v-4H17c0-4-1.567-7.848-3.5-7.848z"/><path fill="none" stroke="#000" stroke-linejoin="round" stroke-miterlimit="10" d="M11.302 13.5H9.5v-6a4 4 0 018 0v6h-1.802"/><path fill="none" stroke="#000" stroke-linecap="round" stroke-linejoin="round" stroke-miterlimit="10" d="M4.5 11.5V15"/><path fill="none" stroke="#000" stroke-linejoin="round" stroke-miterlimit="10" d="M19 16.5l2 3.5 2-3.5zm3.5 0a1 1 0 001-1c0-.73-.797-1.303-1.536-.822.135-.686-.39-1.178-.964-1.178s-1.099.492-.964 1.178c-.739-.481-1.536.092-1.536.822a1 1 0 001 1"/><path fill="none" d="M0 0h24v24H0z"/></svg>