<svg xmlns="http://www.w3.org/2000/svg" viewBox="0 0 24 24" width="24" height="24"><g fill="none" stroke="#000" stroke-linecap="round" stroke-linejoin="round" stroke-miterlimit="10"><circle cx="12" cy="3.5" r="3"/><path d="M23.5 20.5v3H.5v-3L3.87 8.703A3.036 3.036 0 016.789 6.5h10.42c1.355 0 2.547.899 2.919 2.203L23.5 20.5z"/><path d="M15.359 13.053C15.191 12.308 14.812 12 14 12c-1.258 0-1.477.999-1.477 2.463S12.742 17 14 17c1.048 0 1.375-.71 1.455-2h-1.443M8.5 17v-5m2.5 5l-2.481-2.593L11 12"/></g><path fill="none" d="M0 0h24v24H0z"/></svg>