<svg xmlns="http://www.w3.org/2000/svg" viewBox="0 0 24 24" width="24" height="24"><g fill="none" stroke="#000" stroke-linejoin="round" stroke-miterlimit="10"><path stroke-linecap="round" d="M2.5 23.5h18l2-19c-2.973-2.55-6.775-4-11-4s-8.027 1.45-11 4l2 19z"/><path stroke-linecap="round" d="M20 5.1v3.4H3V5.1C4.391 4.15 5.95 3.44 7.62 3c1.24-.33 2.54-.5 3.88-.5s2.641.17 3.88.5c1.67.44 3.23 1.15 4.62 2.1zM4.263 18.886A2.874 2.874 0 0010 18.625v-5.022a3.103 3.103 0 10-6.193.281l.456 5.002zm14.474 0A2.874 2.874 0 0113 18.625v-5.022a3.103 3.103 0 116.193.281l-.456 5.002z"/><path d="M10.5 8.5l1-3 1 3"/><path stroke-linecap="round" d="M11.5 4V2.5M14 4.233l.277-1.474m2.136 2.167l.547-1.397M9 4.233l-.277-1.474M6.587 4.926l-.546-1.397"/></g><path fill="none" d="M0 0h24v24H0z"/></svg>