<svg xmlns="http://www.w3.org/2000/svg" viewBox="0 0 24 24" width="24" height="24"><defs><style>.a{fill:none;stroke:#000;stroke-linecap:round;stroke-linejoin:round;stroke-width:1.5px}</style></defs><title>wench-double</title><path class="a" d="M9.4 16.742L16.739 9.4a4.55 4.55 0 0 0 6.066-6.066L21.38 4.763a1.516 1.516 0 0 1-2.144-2.144l1.424-1.425a4.55 4.55 0 0 0-6.066 6.066L7.257 14.6a4.55 4.55 0 0 0-6.066 6.066l1.425-1.424a1.516 1.516 0 0 1 2.144 2.141l-1.424 1.425A4.55 4.55 0 0 0 9.4 16.742z"/><path class="a" d="M7.787 9.935l-.53-.53a4.55 4.55 0 0 1-6.066-6.066l1.425 1.424A1.516 1.516 0 0 0 4.76 2.619L3.336 1.194A4.55 4.55 0 0 1 9.4 7.26l.452.453m6.257 6.255l.63.629a4.55 4.55 0 0 1 6.066 6.066l-1.425-1.424a1.516 1.516 0 0 0-2.144 2.144l1.424 1.425a4.55 4.55 0 0 1-6.066-6.066l-.629-.63"/></svg>