<svg xmlns="http://www.w3.org/2000/svg" viewBox="0 0 24 24" width="24" height="24"><defs><style>.a{fill:none;stroke:#000;stroke-linecap:round;stroke-linejoin:round;stroke-width:1.5px}</style></defs><title>wench</title><path class="a" d="M21.214 12.606a6.949 6.949 0 0 0 1.3-8.028l-3.55 3.546a1.5 1.5 0 0 1-2.121 0l-.8-.8a1.5 1.5 0 0 1 0-2.122l3.6-3.6a6.947 6.947 0 0 0-9.6 9.087L1.2 19.526a1.542 1.542 0 0 0 0 2.182L2.291 22.8a1.543 1.543 0 0 0 2.183 0l8.836-8.836a6.946 6.946 0 0 0 7.904-1.358z"/></svg>