<svg id="Regular" xmlns="http://www.w3.org/2000/svg" viewBox="0 0 24 24" width="24" height="24"><defs><style>.cls-1{fill:none;stroke:#000;stroke-linecap:round;stroke-linejoin:round;stroke-width:1.5px}</style></defs><title>whale-body</title><path class="cls-1" d="M11.75 23.25c-6.911 0-10.638-4.458-11.181-8.092a1.525 1.525 0 0 1 .572-1.451A7.886 7.886 0 0 1 5.75 12h12c3 0 3-3.75 0-3.75H16.7a.749.749 0 0 1-.6-1.189A4.53 4.53 0 0 1 20 5.25a3.667 3.667 0 0 1 1.859-3.243.749.749 0 0 1 1.141.64v11.6a8.715 8.715 0 0 1-3.444 6.459M2.75 3.75a3 3 0 0 1 6 0"/><path class="cls-1" d="M14.75 3.75a3 3 0 0 0-6 0V9M.686 15.75H5c3.75 0 5.25 3 8.25 3.75 0 0 .234 1.617 3 3 3 1.5 4.5 0 4.5 0l-3-4.5m-5.625-3a.375.375 0 0 1 .375.375m-.75 0a.375.375 0 0 1 .375-.375m0 .75a.375.375 0 0 1-.375-.375m.75 0a.375.375 0 0 1-.375.375"/></svg>