<svg xmlns="http://www.w3.org/2000/svg" viewBox="0 0 24 24" width="24" height="24"><g fill="none" stroke="#000" stroke-linejoin="round" stroke-miterlimit="10"><path d="M17.685 10.57c3.168 0 5.759 2.568 5.759 5.736v1.434c0 3.168-2.614 5.76-5.782 5.76H7.101c-5.214 0-4.497-7.182-4.497-7.182s-1.875-.551-2.1-2.115a.361.361 0 01.538-.364c1.592.949 3.24.869 4.937-.06a.358.358 0 01.527.359c-.17 1.369-2.109 2.168-2.109 2.168s-.161 3.586 2.879 3.586c3.944.001 3.238-9.322 10.409-9.322zM14.27 8.607s2.198-2.988 1.709-4.529c-.565-1.777-3.083-1.596-2.916.731-1.207-1.997-3.367-.69-2.803 1.086.49 1.54 4.01 2.712 4.01 2.712zM5.881 6.24S7.85 4.808 7.85 3.747c0-1.224-1.61-1.61-1.969-.122-.358-1.488-1.969-1.102-1.969.122 0 1.062 1.969 2.493 1.969 2.493zM18.84 5.146s3.17.5 4.158-.487c1.141-1.141 0-3.004-1.722-1.949C22.331.989 20.468-.151 19.328.989c-.988.988-.488 4.157-.488 4.157z"/><path stroke-linecap="round" d="M19.5 15v-.5m3.229 6c-1.5 0-2.645-.359-3.285-1"/></g><path fill="none" d="M0 0h24v24H0z"/></svg>