<svg id="Regular" xmlns="http://www.w3.org/2000/svg" viewBox="0 0 24 24" width="24" height="24"><defs><style>.cls-1{fill:none;stroke:#000;stroke-linecap:round;stroke-linejoin:round;stroke-width:1.5px}</style></defs><title>whale-body-1</title><path class="cls-1" d="M18 14.5a7.5 7.5 0 0 1-15 0c0-2.9 3.358-5.25 7.5-5.25S18 11.6 18 14.5zM3.208 16.135a30.484 30.484 0 0 1 14.584 0"/><path class="cls-1" d="M3.44 16.913L.75 20.5a3.129 3.129 0 0 0 4.807-.336m12.003-3.251l2.69 3.587a3.129 3.129 0 0 1-4.807-.336M7.125 12.25a.375.375 0 0 1 .375.375m-.75 0a.375.375 0 0 1 .375-.375m0 .75a.375.375 0 0 1-.375-.375m.75 0a.375.375 0 0 1-.375.375m6.75-.75a.375.375 0 0 1 .375.375m-.75 0a.375.375 0 0 1 .375-.375m0 .75a.375.375 0 0 1-.375-.375m.75 0a.375.375 0 0 1-.375.375M18.4 9.356a6.858 6.858 0 0 0 .35-.856A2.648 2.648 0 0 1 18 4.75l2.25 1.5 3-.75s0 3.75-2.25 3.75a11.386 11.386 0 0 1-3.321 7.821M6 4a2.25 2.25 0 0 1 4.5 0M15 4a2.25 2.25 0 0 0-4.5 0v2.25"/></svg>