<svg id="Regular" xmlns="http://www.w3.org/2000/svg" viewBox="0 0 24 24" width="24" height="24"><defs><style>.cls-1{fill:none;stroke:#000;stroke-linecap:round;stroke-linejoin:round;stroke-width:1.5px}</style></defs><title>whale</title><path class="cls-1" d="M21 17.114c0 4.142-4.029 6.136-9 6.136s-9-1.994-9-6.136a9 9 0 0 1 18 0z"/><path class="cls-1" d="M3 17.25a26.559 26.559 0 0 1 9-1.5 26.559 26.559 0 0 1 9 1.5m-9 1.568v4.432M7.5 19.5v3.068m9-3.068v3.068M7.875 12a.375.375 0 0 1 .375.375m-.75 0A.375.375 0 0 1 7.875 12m0 .75a.375.375 0 0 1-.375-.375m.75 0a.375.375 0 0 1-.375.375m8.25-.75a.375.375 0 0 1 .375.375m-.75 0a.375.375 0 0 1 .375-.375m0 .75a.375.375 0 0 1-.375-.375m.75 0a.375.375 0 0 1-.375.375M16.5 3A2.25 2.25 0 0 0 12 3M7.5 3A2.25 2.25 0 0 1 12 3v2.25"/></svg>