<svg xmlns="http://www.w3.org/2000/svg" viewBox="0 0 24 24" width="24" height="24"><path d="M5.5.506V23.49m-2-19.5v4C1 6.006.5 3.506.5.99l3 3zm0 7.516v4c-2.5-1.984-3-4.484-3-7l3 3zm0 7.515v4c-2.5-1.984-3-4.484-3-7l3 3zm4-15.031v4c2.5-1.984 3-4.484 3-7l-3 3zm0 7.516v4c2.5-1.984 3-4.484 3-7l-3 3zm0 7.515v4c2.5-1.984 3-4.484 3-7l-3 3zM18.5.506V23.49m-2-19.5v4c-2.5-1.984-3-4.484-3-7l3 3zm0 7.516v4c-2.5-1.984-3-4.484-3-7l3 3zm0 7.515v4c-2.5-1.984-3-4.484-3-7l3 3zm4-15.031v4c2.5-1.984 3-4.484 3-7l-3 3zm0 7.516v4c2.5-1.984 3-4.484 3-7l-3 3zm0 7.515v4c2.5-1.984 3-4.484 3-7l-3 3z" fill="none" stroke="#000" stroke-linecap="round" stroke-linejoin="round" stroke-miterlimit="10"/><path fill="none" d="M0 0h24v24H0z"/></svg>