<svg xmlns="http://www.w3.org/2000/svg" viewBox="0 0 24 24" width="24" height="24"><g fill="none" stroke="#000" stroke-linejoin="round" stroke-miterlimit="10"><path d="M4.759 16.938L.5 10.5h20l-9 9h-2"/><circle cx="6.5" cy="19.5" r="3"/><path stroke-linecap="round" d="M20.5 10.5l3.02-3m-3.02 3.083v9.402a.997.997 0 01-1.401.916l-4.845-4.155"/><path d="M18.217 10.5c0-1.819-1.152-3.026-2.572-3.026-.429 0-.83.105-1.186.292a4.047 4.047 0 00-3.96-3.245 4.048 4.048 0 00-3.961 3.245 2.526 2.526 0 00-1.183-.292c-1.422 0-2.573 1.181-2.573 3.026"/></g><path fill="none" d="M0 0h24v24H0z"/></svg>