<svg xmlns="http://www.w3.org/2000/svg" viewBox="0 0 24 24" width="24" height="24"><path fill="none" stroke="#000" stroke-linecap="round" stroke-linejoin="round" stroke-miterlimit="10" d="M12.508 20.578c-.145 1.152-.266 1.952-.266 1.952-.133.533-.692.97-1.242.97H3c-.55 0-1.109-.437-1.242-.97 0 0-.758-5.03-.758-8.03S5.5 11 5.5 9V2.5m3 0V9c0 1.539 2.665 2.19 3.894 3.775l.114.128"/><path fill="none" stroke="#000" stroke-linecap="round" stroke-linejoin="round" stroke-miterlimit="10" d="M5.5 2.5h3v3h-3zm5 12h-7l1 7h5zm13-2v9.347c0 .909-1.209 1.653-2.129 1.653H14.68c-.921 0-2.18-.744-2.18-1.653V12.5h11zm-10.992 4H23.5"/><path d="M17.5 21a.5.5 0 100 1 .5.5 0 000-1zm-2-1a.5.5 0 100 1 .5.5 0 000-1zm-1-2a.5.5 0 100 1 .5.5 0 000-1zm3 1a.5.5 0 100 1 .5.5 0 000-1zm2 0a.5.5 0 100 1 .5.5 0 000-1zm2-1a.5.5 0 100 1 .5.5 0 000-1zm-1 3a.5.5 0 100 1 .5.5 0 000-1z"/><path fill="none" d="M0 0h24v24H0z"/></svg>