<svg xmlns="http://www.w3.org/2000/svg" viewBox="0 0 24 24" width="24" height="24"><defs><style>.a{fill:none;stroke:#000;stroke-linecap:round;stroke-linejoin:round;stroke-width:1.5px}</style></defs><title>wifi-transfer</title><rect class="a" x=".75" y="5.25" width="10.5" height="18" rx="2.25" ry="2.25"/><path class="a" d="M.75 18.75h10.5m3-4.5h7.5a1.5 1.5 0 0 0 1.5-1.5V2.25a1.5 1.5 0 0 0-1.5-1.5H8.25a1.5 1.5 0 0 0-1.5 1.5m7.5 21l6-6m0 4.5v-4.5h-4.5m.143-6.75"/><path class="a" d="M15.893 10.5a.375.375 0 1 0 .375.375.374.374 0 0 0-.375-.375M21 5.36a8.984 8.984 0 0 0-7.5-1.27m0 3.159a6.009 6.009 0 0 1 5.677.481"/></svg>