<svg xmlns="http://www.w3.org/2000/svg" viewBox="0 0 24 24" width="24" height="24"><defs><style>.a{fill:none;stroke:#000;stroke-linecap:round;stroke-linejoin:round;stroke-width:1.5px}</style></defs><title>wifi-signal-5</title><path class="a" d="M8.25 23.247l3.75-7.5 3.75 7.5m-3.75-7.5v-6m0-9v3m-6.364-.364l2.121 2.122M3 9.747h3m-.364 6.364l2.121-2.121m10.607 2.121l-2.121-2.121M21 9.747h-3m.364-6.364l-2.121 2.122M4.5 23.247h15M1.125 22.5a.375.375 0 1 0 .375.375.375.375 0 0 0-.375-.375m21.75 0a.375.375 0 1 0 .375.375.375.375 0 0 0-.375-.375"/></svg>