<svg xmlns="http://www.w3.org/2000/svg" viewBox="0 0 24 24" width="24" height="24"><defs><style>.a{fill:none;stroke:#000;stroke-linecap:round;stroke-linejoin:round;stroke-width:1.5px}</style></defs><title>wifi-warning</title><path class="a" d="M5.96 11.284a5.25 5.25 0 0 1 6.629-.647M3.07 7.822a9.75 9.75 0 0 1 13.165-.029M.75 3.885a14.252 14.252 0 0 1 17.85.007M17.25 20.25a.375.375 0 1 1-.375.375.375.375 0 0 1 .375-.375m0-2.25v-3"/><path class="a" d="M23.063 20.683a1.774 1.774 0 0 1-1.587 2.567h-8.452a1.774 1.774 0 0 1-1.587-2.567l4.226-8.452a1.774 1.774 0 0 1 3.174 0z"/></svg>