<svg xmlns="http://www.w3.org/2000/svg" viewBox="0 0 24 24" width="24" height="24"><defs><style>.a{fill:none;stroke:#000;stroke-linecap:round;stroke-linejoin:round;stroke-width:1.5px}</style></defs><title>wifi-sync</title><path class="a" d="M5.96 11.284A5.234 5.234 0 0 1 9.668 9.75a5.365 5.365 0 0 1 .818.063M3.07 7.822a9.751 9.751 0 0 1 12.655-.463M.75 3.885a14.252 14.252 0 0 1 17.85.007M15 18.75h-3.75v3.75m11.417-3.017a5.572 5.572 0 0 1-10.74-.733m7.573-3h3.75V12m-11.417 3.017a5.572 5.572 0 0 1 10.74.733"/></svg>