<svg xmlns="http://www.w3.org/2000/svg" viewBox="0 0 24 24" width="24" height="24"><defs><style>.a{fill:none;stroke:#000;stroke-linecap:round;stroke-linejoin:round;stroke-width:1.5px}</style></defs><title>wifi-laptop-1</title><path class="a" d="M8.25 8.25H6a1.5 1.5 0 0 0-1.5 1.5v6a1.5 1.5 0 0 0 1.5 1.5m12 0a1.5 1.5 0 0 0 1.5-1.5v-6a1.5 1.5 0 0 0-1.5-1.5h-2.25m5.068 12.974a1.5 1.5 0 0 1-1.405 2.026H4.5a1.5 1.5 0 0 1-1.4-2.026l1.125-3a1.5 1.5 0 0 1 1.4-.974h12.836a1.5 1.5 0 0 1 1.4.974zM10.5 20.25h3M12 7.5a.375.375 0 1 0 .375.375A.375.375 0 0 0 12 7.5m6-4.627a9.542 9.542 0 0 0-12 0M8.5 5.25a5.566 5.566 0 0 1 7 0"/></svg>