<svg xmlns="http://www.w3.org/2000/svg" viewBox="0 0 24 24" width="24" height="24"><defs><style>.a{fill:none;stroke:#000;stroke-linecap:round;stroke-linejoin:round;stroke-width:1.5px}</style></defs><title>wifi-star</title><path class="a" d="M5.96 11.284a5.25 5.25 0 0 1 6.756-.559M3.07 7.822a9.75 9.75 0 0 1 13.165-.029M.75 3.885a14.252 14.252 0 0 1 17.85.007m-.653 7.788l1.541 4.07h3a.735.735 0 0 1 .518 1.283l-2.6 1.816 1.442 3.313a.785.785 0 0 1-1.119.982l-3.489-1.961-3.487 1.961a.785.785 0 0 1-1.119-.982l1.443-3.313-2.6-1.816a.734.734 0 0 1 .515-1.283h3l1.544-4.07a.8.8 0 0 1 1.411 0z"/></svg>