<svg xmlns="http://www.w3.org/2000/svg" viewBox="0 0 24 24" width="24" height="24"><defs><style>.a{fill:none;stroke:#000;stroke-linecap:round;stroke-linejoin:round;stroke-width:1.5px}</style></defs><title>wifi-laptop</title><rect class="a" x="3.75" y="1.5" width="16.5" height="13.5" rx="1.5" ry="1.5"/><path class="a" d="M18.571 15a3 3 0 0 1 2.683 1.659l1.836 3.67a1.5 1.5 0 0 1-1.342 2.171H2.252A1.5 1.5 0 0 1 .91 20.329l1.836-3.67A3 3 0 0 1 5.429 15zM9.75 19.5h4.5m-2.283-8.266a.375.375 0 1 0 .375.375.375.375 0 0 0-.375-.375m-3.285-2.77a6.006 6.006 0 0 1 6.57 0m1.823-2.37a8.982 8.982 0 0 0-10.216 0"/></svg>