<svg xmlns="http://www.w3.org/2000/svg" viewBox="0 0 24 24" width="24" height="24"><defs><style>.a{fill:none;stroke:#000;stroke-linecap:round;stroke-linejoin:round;stroke-width:1.5px}</style></defs><title>wifi-lock</title><path class="a" d="M5.96 11.284a5.25 5.25 0 0 1 7.409-.008M3.07 7.822a9.75 9.75 0 0 1 13.165-.029M.75 3.885a14.252 14.252 0 0 1 17.85.007"/><rect class="a" x="14.25" y="15.75" width="9" height="7.5" rx="1.5" ry="1.5"/><path class="a" d="M18.75 11.25a3 3 0 0 0-3 3v1.5h6v-1.5a3 3 0 0 0-3-3zm0 7.905a.375.375 0 1 1-.375.375.375.375 0 0 1 .375-.375"/></svg>