<svg id="Regular" xmlns="http://www.w3.org/2000/svg" viewBox="0 0 24 24" width="24" height="24"><defs><style>.cls-1{fill:none;stroke:#000;stroke-linecap:round;stroke-linejoin:round;stroke-width:1.5px}</style></defs><title>wildlife-protection-shield</title><path class="cls-1" d="M18.751 8.357a2.245 2.245 0 0 0-4.486-.137 5.5 5.5 0 0 0-4.528 0 2.245 2.245 0 1 0-2.519 2.359 4.439 4.439 0 0 0-.467 1.965A5.046 5.046 0 0 0 12 17.357a5.046 5.046 0 0 0 5.25-4.813 4.44 4.44 0 0 0-.468-1.965 2.244 2.244 0 0 0 1.969-2.222zm-9 3.375a.375.375 0 0 1 .375.375m-.75 0a.375.375 0 0 1 .375-.375m0 .75a.375.375 0 0 1-.375-.375m.75 0a.375.375 0 0 1-.375.375m4.5-.75a.375.375 0 0 1 .375.375m-.75 0a.375.375 0 0 1 .375-.375m0 .75a.375.375 0 0 1-.375-.375m.75 0a.375.375 0 0 1-.375.375"/><path class="cls-1" d="M2.25 3.923v7.614A11.907 11.907 0 0 0 9.882 22.65l1.041.4a3 3 0 0 0 2.154 0l1.041-.4a11.907 11.907 0 0 0 7.632-11.113V3.923a1.487 1.487 0 0 0-.868-1.362A21.7 21.7 0 0 0 12 .75a21.7 21.7 0 0 0-8.882 1.811 1.487 1.487 0 0 0-.868 1.362z"/></svg>