<svg id="Regular" xmlns="http://www.w3.org/2000/svg" viewBox="0 0 24 24" width="24" height="24"><defs><style>.cls-1{fill:none;stroke:#000;stroke-linecap:round;stroke-linejoin:round;stroke-width:1.5px}</style></defs><title>wild-bird-1</title><path class="cls-1" d="M16.073 9.481a4.125 4.125 0 1 0-4.83-6.607 4.05 4.05 0 0 0-.75.956 3.91 3.91 0 0 1-3.277 2.019 6.747 6.747 0 1 0 4.925 11.642 6.683 6.683 0 0 0 2.1-4.67 3.866 3.866 0 0 1 1.832-3.34z"/><path class="cls-1" d="M17.6 8.02l.4.114s2.96.846 5.25 4.866m-9.375-7.5a.375.375 0 0 1 .375.375m-.75 0a.375.375 0 0 1 .375-.375m0 .75a.375.375 0 0 1-.375-.375m.75 0a.375.375 0 0 1-.375.375m-1.392 10.894L15 20.5M4.133 18.426L2.25 21.25m12 .75l.75-1.5 3-.75M.75 22l1.5-.75L4.5 22"/></svg>