<svg id="Regular" xmlns="http://www.w3.org/2000/svg" viewBox="0 0 24 24" width="24" height="24"><defs><style>.cls-1{fill:none;stroke:#000;stroke-linecap:round;stroke-linejoin:round;stroke-width:1.5px}</style></defs><title>wildlife-protection-tree-shield-1</title><path class="cls-1" d="M2.251 3.923v7.614A11.907 11.907 0 0 0 9.883 22.65l1.041.4a3 3 0 0 0 2.154 0l1.041-.4a11.907 11.907 0 0 0 7.632-11.113V3.923a1.487 1.487 0 0 0-.868-1.362A21.7 21.7 0 0 0 12 .75a21.7 21.7 0 0 0-8.882 1.811 1.488 1.488 0 0 0-.867 1.362zm9.75 11.85V4.523M12 9.773a3.75 3.75 0 0 0 3.75-3.75M17.626 9a.375.375 0 0 1 .374.375m-.749 0A.375.375 0 0 1 17.626 9m0 .75a.375.375 0 0 1-.375-.375m.749 0a.375.375 0 0 1-.375.375m-11.249 3a.375.375 0 0 1 .375.375m-.751 0a.375.375 0 0 1 .375-.375m.001.75A.375.375 0 0 1 6 13.125m.751 0a.375.375 0 0 1-.375.375m5.625.023l3-1.523M12 8.273a3.75 3.75 0 0 1-3.75-3.75m3.751 8.25l-3-1.523"/><path class="cls-1" d="M7.5 16.5a11.618 11.618 0 0 1 4.5-.727 11.64 11.64 0 0 1 4.5.726"/></svg>