<svg id="Regular" xmlns="http://www.w3.org/2000/svg" viewBox="0 0 24 24" width="24" height="24"><defs><style>.cls-1{fill:none;stroke:#000;stroke-linecap:round;stroke-linejoin:round;stroke-width:1.5px}</style></defs><title>wildlife-protection-tree-shield</title><path class="cls-1" d="M23.251 15.75a7.669 7.669 0 0 1-6 7.5 7.668 7.668 0 0 1-6-7.5V13.5a1.5 1.5 0 0 1 1.5-1.5h9a1.5 1.5 0 0 1 1.5 1.5zm-6-.75v4.5m-2.25-2.25h4.5m-12.75-9A5.25 5.25 0 0 1 1.5 3m5.251 15.75v-18m0 4.5A3.75 3.75 0 0 0 10.5 1.5m-3.749 9.75H7.5a4.5 4.5 0 0 0 4.5-4.5M6.751 13.5a4.5 4.5 0 0 1-5.613-3m12.738-8.25a.375.375 0 0 1 .375.375m-.751 0a.375.375 0 0 1 .375-.375m.001.75a.375.375 0 0 1-.375-.375m.75 0a.375.375 0 0 1-.375.375m1.5 3.75a.375.375 0 0 1 .375.375m-.751 0a.375.375 0 0 1 .375-.375m.001.75A.375.375 0 0 1 15 7.125m.751 0a.375.375 0 0 1-.375.375M8.994 19.156a6.367 6.367 0 0 0-2.243-.406 6.814 6.814 0 0 0-5.913 3.4.751.751 0 0 0 .663 1.1h9.75"/></svg>