<svg id="Regular" xmlns="http://www.w3.org/2000/svg" viewBox="0 0 24 24" width="24" height="24"><defs><style>.cls-1{fill:none;stroke:#000;stroke-linecap:round;stroke-linejoin:round;stroke-width:1.5px}</style></defs><title>wild-bird-nest</title><path class="cls-1" d="M23.25 16.5c0 3.314-5.037 6.75-11.25 6.75S.75 19.814.75 16.5c0-1.5.75-2.25 3.75-2.25h15c3 0 3.75.75 3.75 2.25zm-12.216-5.25A7.321 7.321 0 0 0 9.4 7.714a3.75 3.75 0 1 0-3.808 0 7.321 7.321 0 0 0-1.63 3.536m16.525 0a4.951 4.951 0 0 0-.964-1.629 3 3 0 1 0-3.046 0 4.951 4.951 0 0 0-.964 1.629"/><path class="cls-1" d="M11.449 1.042l-.75 1.5 1.5.75m9.135.732l-.75 1.5 1.5.75M7.875 3.75a.375.375 0 0 1 .375.375m-.75 0a.375.375 0 0 1 .375-.375m0 .75a.375.375 0 0 1-.375-.375m.75 0a.375.375 0 0 1-.375.375M18 6.375a.375.375 0 0 1 .375.375m-.75 0A.375.375 0 0 1 18 6.375m0 .75a.375.375 0 0 1-.375-.375m.75 0a.375.375 0 0 1-.375.375"/></svg>