<svg id="Regular" xmlns="http://www.w3.org/2000/svg" viewBox="0 0 24 24" width="24" height="24"><defs><style>.cls-1{fill:none;stroke:#000;stroke-linecap:round;stroke-linejoin:round;stroke-width:1.5px}</style></defs><title>wild-bird-eggs</title><path class="cls-1" d="M9.526 23a11.139 11.139 0 0 1-3.932-1.729A11.139 11.139 0 0 0 9.526 23zm5.7-.194a11.186 11.186 0 0 0 3.8-2 11.169 11.169 0 0 1-3.805 2zM1.882 16.947a11.141 11.141 0 0 1-1.1-4.15 11.141 11.141 0 0 0 1.1 4.15zm20.551-.707a11.194 11.194 0 0 0 .817-4.217v-.107.107a11.194 11.194 0 0 1-.817 4.217zM1.835 7.2a11.208 11.208 0 0 1 2.552-3.46A11.208 11.208 0 0 0 1.835 7.2zm19.922-.78a11.255 11.255 0 0 0-2.814-3.25 11.255 11.255 0 0 1 2.814 3.246zM9.422 1.07A11.348 11.348 0 0 1 13.714.9a11.348 11.348 0 0 0-4.292.167zM14.053 14A4.027 4.027 0 0 1 6 14c0-2.224 1.8-7.382 4.027-7.382s4.026 5.155 4.026 7.382z"/><path class="cls-1" d="M13.26 16.4a4.01 4.01 0 0 0 5.49-3.743c0-2.224-1.8-7.382-4.026-7.382-1.063 0-2.026 1.181-2.746 2.654"/></svg>