<svg id="Regular" xmlns="http://www.w3.org/2000/svg" viewBox="0 0 24 24" width="24" height="24"><defs><style>.cls-1{fill:none;stroke:#000;stroke-linecap:round;stroke-linejoin:round;stroke-width:1.5px}</style></defs><title>wild-bird-owl-body</title><path class="cls-1" d="M6.05 10.5A10.569 10.569 0 0 1 9.3 7.517 5.216 5.216 0 0 1 9.05 6a5.25 5.25 0 1 1 9.731 2.7c.543 1.33.842 3.732-1.481 7.05-4.326 6.18-11.2 7.268-13.483 7.459A.751.751 0 0 1 3 22.49c-.072-2.037.02-7.748 3.05-11.99zm8.25-3.75v1.5"/><path class="cls-1" d="M20.3.75c-3 0-6 3.75-6 3.75S10.55.75 7.55.75m3.75 12s-3.156 2.367-2.994 9.53m5.107-2.579l.887 3.549m-1.5 0h3.75"/></svg>