<svg id="Regular" xmlns="http://www.w3.org/2000/svg" viewBox="0 0 24 24" width="24" height="24"><defs><style>.cls-1{fill:none;stroke:#000;stroke-linecap:round;stroke-linejoin:round;stroke-width:1.5px}</style></defs><title>wild-pig</title><path class="cls-1" d="M15.75 16.45c0 1.657-1.679 2.25-3.75 2.25s-3.75-.593-3.75-2.25A4.046 4.046 0 0 1 12 12.7a4.046 4.046 0 0 1 3.75 3.75zm-5.25-.75v.75m3-.75v.75"/><path class="cls-1" d="M15.615 17.2l3-3s2.25 3 0 4.5c-1.973 1.316-3-1.5-3-1.5zm-7.229 0l-3-3s-2.25 3 0 4.5c1.973 1.316 3-1.5 3-1.5zM7.5 21.7a6.57 6.57 0 0 0 4.5 1.5 6.57 6.57 0 0 0 4.5-1.5"/><path class="cls-1" d="M4.5 23.247C1.5 20.95.75 18.215.75 14.95a15 15 0 0 1 1.442-6.226c-.249-.992-1.181-4.986-.461-6.468.7-1.446 3.936.8 5.019 1.444l1.5-1.5 1.5.75L12 .75l2.25 2.2 1.5-.75 1.5 1.5c1.1-.658 4.285-2.882 4.983-1.444.71 1.463-.188 5.369-.45 6.423a15 15 0 0 1 1.467 6.271c0 3.266-.75 6-3.749 8.3M7.125 8.95a.375.375 0 0 1 .375.375m-.75 0a.375.375 0 0 1 .375-.375m0 .75a.375.375 0 0 1-.375-.375m.75 0a.375.375 0 0 1-.375.375m9.75-.75a.375.375 0 0 1 .375.375m-.75 0a.375.375 0 0 1 .375-.375m0 .75a.375.375 0 0 1-.375-.375m.75 0a.375.375 0 0 1-.375.375"/></svg>