<svg id="Regular" xmlns="http://www.w3.org/2000/svg" viewBox="0 0 24 24" width="24" height="24"><defs><style>.cls-1{fill:none;stroke:#000;stroke-linecap:round;stroke-linejoin:round;stroke-width:1.5px}</style></defs><title>wild-bird-eagle-head</title><path class="cls-1" d="M12.05.75c5.385 0 9.254 3.347 9.75 9 .3 3.468.75 9.375.75 9.375 0 2.25-2.25 2.25-3 .75.75 3-3.75 3.75-4.5.75a2.7 2.7 0 0 1-3 2.625 2.7 2.7 0 0 1-3-2.625c-.75 3-5.25 2.25-4.5-.75-.75 1.5-3 1.5-3-.75 0 0 .446-5.907.75-9.375.5-5.65 4.365-9 9.75-9z"/><path class="cls-1" d="M15.05 12.029c0 4.644-1.5 4.644-3 5.971-1.5-1.327-3-1.327-3-5.971a2.843 2.843 0 0 1 3-2.654 2.843 2.843 0 0 1 3 2.654zm1.125-4.904a.375.375 0 0 1 .375.375m-.75 0a.375.375 0 0 1 .375-.375m0 .75A.375.375 0 0 1 15.8 7.5m.75 0a.375.375 0 0 1-.375.375m-8.25-.75A.375.375 0 0 1 8.3 7.5m-.75 0a.375.375 0 0 1 .375-.375m0 .75A.375.375 0 0 1 7.55 7.5m.75 0a.375.375 0 0 1-.375.375m5.625-1.5l2.25-1.5m-5.25 1.5l-2.25-1.5"/></svg>