<svg id="Regular" xmlns="http://www.w3.org/2000/svg" viewBox="0 0 24 24" width="24" height="24"><defs><style>.cls-1{fill:none;stroke:#000;stroke-linecap:round;stroke-linejoin:round;stroke-width:1.5px}</style></defs><title>wild-bird-fly</title><path class="cls-1" d="M12.233 13.708s.731 0 2.193-2.193a4.125 4.125 0 0 0 0-4.387h3.656c.731 0 2.193 0 2.193 1.462v5.118a9.5 9.5 0 1 1-19.009 0"/><path class="cls-1" d="M20.275 10.052s2.925 0 2.925 2.194l-2.925 1.462m-2.559-4.396a.375.375 0 0 0-.375.375m.75 0a.374.374 0 0 0-.375-.375m0 .75a.374.374 0 0 0 .375-.375m-.75 0a.375.375 0 0 0 .375.375m-7.677 6.571a6.408 6.408 0 0 1-1.462-4.387 6.4 6.4 0 0 1 1.462-4.387L4.19 1.279s-1.462 4.387 0 6.58a13.639 13.639 0 0 1-2.924-2.193S-.2 9.321 2.728 11.515"/></svg>