<svg id="Regular" xmlns="http://www.w3.org/2000/svg" viewBox="0 0 24 24" width="24" height="24"><defs><style>.cls-1{fill:none;stroke:#000;stroke-linecap:round;stroke-linejoin:round;stroke-width:1.5px}</style></defs><title>wild-bird-sing</title><path class="cls-1" d="M12.658 4.218a6.752 6.752 0 0 0-2.11-.336 6.9 6.9 0 0 0-6.72 7.387 6.624 6.624 0 0 0 1.288 3.34 5.081 5.081 0 0 1 .907 4.547 21.907 21.907 0 0 1-1.475 3.476m11.252 0a14.809 14.809 0 0 1-1.109-3.232 5.751 5.751 0 0 1 1.209-4.68 6.652 6.652 0 0 0 1.362-4.826"/><path class="cls-1" d="M12.8 3.882l1.361-2.268a.75.75 0 0 1 1.364.18l1.025 3.588 3.58.511a.751.751 0 0 1 .37 1.319l-3.2 2.67a3.923 3.923 0 0 1-3.75-.75c-2.25-2.25-.75-5.25-.75-5.25zm-4.127 4.5a.375.375 0 0 1 .375.375m-.748 0a.375.375 0 0 1 .375-.375m-.002.75a.375.375 0 0 1-.373-.375m.748 0a.375.375 0 0 1-.375.375"/></svg>