<svg id="Regular" xmlns="http://www.w3.org/2000/svg" viewBox="0 0 24 24" width="24" height="24"><defs><style>.cls-1{fill:none;stroke:#000;stroke-linecap:round;stroke-linejoin:round;stroke-width:1.5px}</style></defs><title>wild-bird-woodpecker</title><path class="cls-1" d="M22.3 23.25V.75m-7.5 0v1.5m0 10.5v10.5M11.95 6.469a.75.75 0 0 0-.585-1.219H7.3a6.991 6.991 0 0 0-4.921 2.394.75.75 0 0 0 .464 1.262C5.266 9.167 5.8 11.6 5.8 13.5c0 2.25 0 6.75-2.25 8.25 3.75 0 8.25-2.25 8.25-7.5S8.8 9 8.8 9zm-.172 7.031H14.8"/><ellipse class="cls-1" cx="16.3" cy="7.5" rx="1.5" ry="3"/><path class="cls-1" d="M11.673 15.718l3.127.782m-6-3.75c0 2.25 0 3-.75 3.75"/></svg>