<svg id="Regular" xmlns="http://www.w3.org/2000/svg" viewBox="0 0 24 24" width="24" height="24"><defs><style>.cls-1{fill:none;stroke:#000;stroke-linecap:round;stroke-linejoin:round;stroke-width:1.5px}</style></defs><title>wild-bird-flock-1</title><path class="cls-1" d="M10.8 20.062l-.274.438a5.424 5.424 0 0 1-4.5 2.25c-1.5 0-4.5-.75-5.25-3A3.93 3.93 0 0 0 4 19.888 6.147 6.147 0 0 1 4.3 16l2.306 2.682a4.177 4.177 0 0 1 1.668-.432c2.25 0 3 3 3 3m11.3-8.826l-.274.438a5.424 5.424 0 0 1-4.5 2.25c-1.5 0-4.5-.75-5.25-3a3.934 3.934 0 0 0 3.225.138 6.147 6.147 0 0 1 .3-3.888l2.306 2.682a4.165 4.165 0 0 1 1.668-.432c2.25 0 3 3 3 3M10.8 5.062l-.274.438a5.424 5.424 0 0 1-4.5 2.25c-1.5 0-4.5-.75-5.25-3A3.93 3.93 0 0 0 4 4.888 6.147 6.147 0 0 1 4.3 1l2.307 2.682a4.177 4.177 0 0 1 1.668-.432c2.25 0 3 3 3 3"/></svg>