<svg id="Regular" xmlns="http://www.w3.org/2000/svg" viewBox="0 0 24 24" width="24" height="24"><defs><style>.cls-1{fill:none;stroke:#000;stroke-linecap:round;stroke-linejoin:round;stroke-width:1.5px}</style></defs><title>wild-bird-owl</title><path class="cls-1" d="M5.625 18a4.875 4.875 0 1 1 4.875-4.877m3 0A4.875 4.875 0 1 1 18.375 18"/><path class="cls-1" d="M21.6 5.248a10.654 10.654 0 0 1 1.646 6v12M5.281 2.227C6.8 1.211 9.515.748 12 .748s5.2.462 6.719 1.479M.75 23.248v-12a10.655 10.655 0 0 1 1.645-6m3.23 7.5a.375.375 0 0 1 .375.375m-.75 0a.375.375 0 0 1 .375-.375m0 .752a.375.375 0 0 1-.375-.375m.75-.002a.375.375 0 0 1-.375.375m12.75-.75a.375.375 0 0 1 .375.375m-.75 0a.375.375 0 0 1 .375-.375m0 .752a.375.375 0 0 1-.375-.377m.75 0a.375.375 0 0 1-.375.375m-4.125 5.25l-2.25 3-2.25-3S10.5 16.5 12 16.5s2.25 2.248 2.25 2.248zM14.25 6s4.5-5.25 9-5.25M9.75 6S5.25.748.75.748"/></svg>