<svg id="Regular" xmlns="http://www.w3.org/2000/svg" viewBox="0 0 24 24" width="24" height="24"><defs><style>.cls-1{fill:none;stroke:#000;stroke-linecap:round;stroke-linejoin:round;stroke-width:1.5px}</style></defs><title>wild-pig-body</title><path class="cls-1" d="M23.156 14.808a11.2 11.2 0 0 0 .094-1.308S21 12.75 21 11.25c0-2.9-2.351-6-5.25-6v-3s-3.75 3-5.25 3H6c-2.9 0-5.25 3.1-5.25 6s1.5 5.25 3 6c1.048.524 1.364 2.146 1.459 3.076a.749.749 0 0 0 .745.674h.96a.749.749 0 0 0 .728-.568L8.25 18h4.5l.608 2.432a.749.749 0 0 0 .728.568h1.078a.749.749 0 0 0 .728-.568l.683-2.734"/><path class="cls-1" d="M17.743 13.949s2.065 3.75 5.507 3.75c-4.818 2.25-7.571 0-8.26-2.25s2.065-2.249 2.753-1.5zm-.868-4.199a.375.375 0 0 1 .375.375m-.75 0a.375.375 0 0 1 .375-.375m0 .75a.375.375 0 0 1-.375-.375m.75 0a.375.375 0 0 1-.375.375M1.76 7.89L1.5 7.5a4.233 4.233 0 0 1 0-4.5"/></svg>