<svg id="Regular" xmlns="http://www.w3.org/2000/svg" viewBox="0 0 24 24" width="24" height="24"><defs><style>.cls-1{fill:none;stroke:#000;stroke-linecap:round;stroke-linejoin:round;stroke-width:1.5px}</style></defs><title>wild-bird-vulture</title><path class="cls-1" d="M6.916 8.817L6.55 9s-1.5.75-1.5 4.5a78.964 78.964 0 0 1-.75 9s4.5-.75 5.25-3.75c1.106-4.426-.75-5.25-.75-5.25M9.55 6s-3-.75-3 1.5 3 3.75 5.25 3.75a9.1 9.1 0 0 1 3.75.75 2.646 2.646 0 0 0-.75-3"/><path class="cls-1" d="M11.05 8.25A3.742 3.742 0 0 0 13.3 4.5c0-3 .75-3.75 3-3.75s3.75 1.5 3.75 6c-1.5-2.246-3.741.738-6.733-2.978M15.55 12c-.761 8.369-3.837 8.248-7.663 9.033m3.163-.704v2.921m2.095-4.138L14.8 23.25m-5.25 0h6.75"/></svg>