<svg id="Regular" xmlns="http://www.w3.org/2000/svg" viewBox="0 0 24 24" width="24" height="24"><defs><style>.cls-1{fill:none;stroke:#000;stroke-linecap:round;stroke-linejoin:round;stroke-width:1.5px}</style></defs><title>wild-bird-footstep</title><path class="cls-1" d="M18 11.75V17m0 3v3m-2.25-5.25l-3-3.75m7.5 3.75l3-3.75M.75 3.5A8.282 8.282 0 0 1 6 1.25c3 0 6.75 10.5 6.75 10.5"/><path class="cls-1" d="M2.245 2.378v.372S2.337 9.378 4.5 11c3 2.25 7.5-.75 7.5-.75l.137-.091M6 7.25s.817 4.087 5.013.314M5.625 3.5A.375.375 0 0 1 6 3.875m-.75 0a.375.375 0 0 1 .375-.375m0 .75a.375.375 0 0 1-.375-.375m.75 0a.375.375 0 0 1-.375.375M4.5 11l-.75 2.25m3.75-1.423v1.423"/></svg>