<svg id="Regular" xmlns="http://www.w3.org/2000/svg" viewBox="0 0 24 24" width="24" height="24"><defs><style>.cls-1{fill:none;stroke:#000;stroke-linecap:round;stroke-linejoin:round;stroke-width:1.5px}</style></defs><title>wild-bird-hunt</title><path class="cls-1" d="M13.621 23.25l-.701-1.402 2.25-.75.75.75"/><path class="cls-1" d="M7.264 17.983l-.344.117a16.349 16.349 0 0 1-4.5.75c-2.25 0-1.5-5.25-1.5-5.25l4.5.75a15.756 15.756 0 0 1 3.347-3.6C2.42 6.1.92.848.92.848S9.579.232 10.67 4.6a12.593 12.593 0 0 0 1.6 4.237 9.156 9.156 0 0 1 2.9-.487c6 0 6 3.75 6 3.75s2.25 1.5 1.5 3.75c-4.5-.75-9.314-.436-10.5.75-1.5 1.5-.75 3 .75 5.25 0 0-3.75 0-6-4.5"/><path class="cls-1" d="M15.913 8.368l.007-.02s.75-2.25 2.25-3 1.5-4.5 1.5-4.5-4.424-.939-6 3m3.375 7.5a.375.375 0 0 0-.375.375m.75 0a.375.375 0 0 0-.375-.375m0 .752a.375.375 0 0 0 .375-.375m-.75-.002a.375.375 0 0 0 .375.375"/></svg>