<svg id="Regular" xmlns="http://www.w3.org/2000/svg" viewBox="0 0 24 24" width="24" height="24"><defs><style>.cls-1,.cls-2{fill:none;stroke:#000;stroke-linecap:round;stroke-linejoin:round;stroke-width:1.5px}.cls-2{fill-rule:evenodd}</style></defs><title>wild-bird-eagle</title><path class="cls-1" d="M16.55 10.725V7.5"/><path class="cls-2" d="M7.55 14.953V19.5a1.5 1.5 0 0 0 3 0h3a1.5 1.5 0 0 0 3 0v-4.359m-.05-10.56a4.5 4.5 0 0 0-8.95.669v5.475"/><path class="cls-1" d="M9.05 21v2.25m-1.5 0H9.8M15.05 21v2.25m-.75 0h2.25M14.3 7.5h6a3 3 0 0 0-6 0zm2.25 3.225s2.929-.9 3.9.9c2.55 4.682-3.9 7.875-3.9 7.875m-9-8.775s-2.929-.9-3.9.9C1.1 16.307 7.55 19.5 7.55 19.5m0-9.75l2.25 3 2.25-2.25 2.25 2.25 2.25-3M11.675 4.5a.375.375 0 0 1 .375.375m-.75 0a.375.375 0 0 1 .375-.375m0 .75a.375.375 0 0 1-.375-.375m.75 0a.375.375 0 0 1-.375.375"/></svg>