<svg xmlns="http://www.w3.org/2000/svg" viewBox="0 0 24 24" width="24" height="24"><g fill="none" stroke="#000" stroke-linejoin="round" stroke-miterlimit="10"><path d="M10.5 13.27l-8.911 3.269c-.326.123-.562-.03-.562-.603 0-5.869 5.973-5.934 9.473-4.934m0-.436V.903c-.003-.349.22-.511.759-.319 5.584 1.979 3.779 7.105 2.241 9.982m.016.25l9.008 4.148c.316.141.38.415-.024.822-3.393 3.428-6.947.945-8.999-1.486"/><path stroke-linecap="round" d="M23.5 23.5H.5"/><path d="M10.5 10.566a1.5 1.5 0 113 0V23.5h-3V10.566z"/></g><path fill="none" d="M0 0h24v24H0z"/></svg>