<svg id="Regular" xmlns="http://www.w3.org/2000/svg" viewBox="0 0 24 24" width="24" height="24"><defs><style>.cls-1{fill:none;stroke:#000;stroke-linecap:round;stroke-linejoin:round;stroke-width:1.5px}</style></defs><title>wind-north</title><path class="cls-1" d="M14.25 4.023L10.5 14.25 14.25 12 18 14.25 14.25 4.023zM.75 20.25h10.5a1.5 1.5 0 0 1 1.5 1.5 1.5 1.5 0 0 1-1.5 1.5h-.75m-9.75-6H6a1.5 1.5 0 0 0 1.5-1.5 1.5 1.5 0 0 0-1.5-1.5h-.75"/><path class="cls-1" d="M16.578 18.446A9 9 0 1 0 5.25 9.75a9.1 9.1 0 0 0 .131 1.541"/></svg>