<svg xmlns="http://www.w3.org/2000/svg" viewBox="0 0 24 24" width="24" height="24"><path fill="none" stroke="#000" stroke-linejoin="round" stroke-miterlimit="10" d="M12.5 16.5v7"/><path fill="none" stroke="#000" stroke-linecap="round" stroke-linejoin="round" stroke-miterlimit="10" d="M10 23.5h5"/><path fill="none" stroke="#000" stroke-linejoin="round" stroke-miterlimit="10" d="M9 6.5h7"/><path d="M10.5 11a.5.5 0 100 1 .5.5 0 000-1zm1-3a.5.5 0 100 1 .5.5 0 000-1zm.031 6.011a.5.5 0 100 1 .5.5 0 000-1zM13.5 12a.5.5 0 100 1 .5.5 0 000-1zm1-3a.5.5 0 100 1 .5.5 0 000-1z"/><path fill="none" stroke="#000" stroke-linecap="round" stroke-linejoin="round" stroke-miterlimit="10" d="M8.5 12.5l1-12h6l1 12a4 4 0 01-8 0z"/><path fill="none" d="M0 0h24v24H0z"/></svg>