<svg xmlns="http://www.w3.org/2000/svg" viewBox="0 0 24 24" width="24" height="24"><path fill="none" stroke="#000" stroke-linecap="round" stroke-linejoin="round" stroke-miterlimit="10" d="M11 23.5H5.5c-1.1 0-2-.9-2-2v-6.242c0-1.944.582-3.817 1.51-5.526.977-1.8 1.49-3.816 1.49-5.864V.5h3v3.742c0 1.943.582 3.818 1.51 5.526"/><path fill="none" stroke="#000" stroke-linecap="round" stroke-linejoin="round" stroke-miterlimit="10" d="M5.01 9.731l.552.788c1.189 1.697 3.7 1.706 4.901.018l.547-.769M3.5 15.5h7m-7 5h7m-4-18h3"/><circle fill="none" stroke="#000" stroke-linecap="round" stroke-linejoin="round" stroke-miterlimit="10" cx="8" cy="9" r="1"/><path fill="none" stroke="#000" stroke-linejoin="round" stroke-miterlimit="10" d="M15.5 19.5v4"/><path fill="none" stroke="#000" stroke-linecap="round" stroke-linejoin="round" stroke-miterlimit="10" d="M13 23.5h5"/><path d="M16.5 15a.5.5 0 10.002 1.002A.5.5 0 0016.5 15zM15 16.5a.5.5 0 100 1 .5.5 0 000-1z"/><path fill="none" stroke="#000" stroke-linecap="round" stroke-linejoin="round" stroke-miterlimit="10" d="M17.5 9.5h-4l-1 7a3 3 0 106 0l-1-7zm-4.5 4h5"/><path fill="none" d="M0 0h24v24H0z"/></svg>