<svg id="Regular" xmlns="http://www.w3.org/2000/svg" viewBox="0 0 24 24" width="24" height="24"><defs><style>.cls-1{fill:none;stroke:#000;stroke-linecap:round;stroke-linejoin:round;stroke-width:1.5px}</style></defs><title>wine-glass-bottle</title><path class="cls-1" d="M13.811 9.311L11.25 6.75V1.5a.75.75 0 0 0-.75-.75H9a.75.75 0 0 0-.75.75v5.25L5.689 9.311a1.5 1.5 0 0 0-.439 1.06V21.75a1.5 1.5 0 0 0 1.5 1.5h3.75M8.25 4.5h3"/><path class="cls-1" d="M18.75 15.682a3 3 0 1 1-6 0V12h6zm-3 3.068v4.5m2.25 0h-4.5"/></svg>