<svg xmlns="http://www.w3.org/2000/svg" viewBox="0 0 24 24" width="24" height="24"><g fill="none" stroke="#000" stroke-linecap="round" stroke-linejoin="round" stroke-miterlimit="10"><path d="M6.707 11.489l4.61-4.61c1.414-1.414 3.182-1.414 4.242-1.414 1.062 0 1.415 0 2.476-1.061L21.924.515m1.414 1.414l-3.889 3.89c-1.061 1.06-1.061 1.414-1.061 2.474 0 .77 0 1.912-.541 3.021M10.61 7.586l3.801 3.801"/><path d="M21.924.515l1.414 1.414-2.121 2.121-1.415-1.414zM4.5 11.5h15l-3 12h-9zm15 0a2.5 2.5 0 110 5h-1.172M4.5 11.5a2.5 2.5 0 100 5h1.172"/></g><path fill="none" d="M0 0h24v24H0z"/></svg>