<svg xmlns="http://www.w3.org/2000/svg" viewBox="0 0 24 24" width="24" height="24"><path fill="none" stroke="#000" stroke-linejoin="round" stroke-miterlimit="10" d="M6.803 16.541L4.25 22.518"/><path fill="none" stroke="#000" stroke-linecap="round" stroke-linejoin="round" stroke-miterlimit="10" d="M1.95 21.536L6.549 23.5"/><path fill="none" stroke="#000" stroke-linejoin="round" stroke-miterlimit="10" d="M7.514 5.97l6.436 2.75"/><path d="M6.93 10.656a.502.502 0 00-.001 1.001.501.501 0 00.001-1.001zm2.097-2.365a.5.5 0 100 1 .5.5 0 000-1zm-2.334 5.54a.5.5 0 10.002 1.001.5.5 0 00-.002-1.001zm2.602-1.077a.5.5 0 10.001 1.002.5.5 0 00-.001-1.002zm2.099-2.365a.5.5 0 10-.002 1 .5.5 0 00.002-1z"/><path fill="none" stroke="#000" stroke-linecap="round" stroke-linejoin="round" stroke-miterlimit="10" d="M4.696 11.291l5.438-10.183 5.518 2.357-3.599 10.968a4 4 0 01-7.357-3.142z"/><path fill="none" stroke="#000" stroke-linejoin="round" stroke-miterlimit="10" d="M18.963 16.282l1.071 6.411"/><path fill="none" stroke="#000" stroke-linecap="round" stroke-linejoin="round" stroke-miterlimit="10" d="M22.5 22.282l-4.932.823m3.2-17.262l-4.29.717"/><path d="M20.113 10.521a.5.5 0 10-.003 1 .5.5 0 00.003-1zM18.632 7.728a.5.5 0 10-.001.999.5.5 0 00.001-.999zM19.593 13.661a.5.5 0 10-.002 1.002.5.5 0 00.002-1.002zM17.318 12.002a.502.502 0 00-.002 1.001.5.5 0 10.002-1.001zM15.838 9.208a.5.5 0 100 1.002.5.5 0 000-1.002z"/><path fill="none" stroke="#000" stroke-linecap="round" stroke-linejoin="round" stroke-miterlimit="10" d="M14.359 12.996a4 4 0 007.891-1.318L19.368.5l-4.358.729"/><path fill="none" d="M0 0h24v24H0z"/></svg>