<svg xmlns="http://www.w3.org/2000/svg" viewBox="0 0 24 24" width="24" height="24"><path fill="none" stroke="#000" stroke-linecap="round" stroke-linejoin="round" stroke-miterlimit="10" d="M13.502.5v3.742c0 1.943.582 3.818 1.51 5.526.979 1.8 1.49 3.815 1.49 5.864V21.5c0 1.1-.899 2-2 2h-5c-1.1 0-2-.9-2-2v-6.242c0-1.944.582-3.817 1.51-5.526a12.266 12.266 0 001.49-5.864V.5h3z"/><path fill="none" stroke="#000" stroke-linecap="round" stroke-linejoin="round" stroke-miterlimit="10" d="M9.012 9.731l.552.788c1.189 1.697 3.701 1.706 4.902.018l.546-.769M7.502 15.5h9m-9 5h9m-6-18h3"/><circle fill="none" stroke="#000" stroke-linecap="round" stroke-linejoin="round" stroke-miterlimit="10" cx="12.002" cy="9" r="1"/><path fill="none" d="M0 0h24v24H0z"/></svg>