<svg xmlns="http://www.w3.org/2000/svg" viewBox="0 0 24 24" width="24" height="24"><g fill="none" stroke="#000" stroke-miterlimit="10"><path d="M6.135 11.244a1.998 1.998 0 00-.845 2.089c.161 3.495.672 6.741 2.039 9.379.1.459.507.788.977.788h6.389a1 1 0 00.977-.788c1.367-2.638 1.878-5.884 2.039-9.379a1.998 1.998 0 00-.845-2.089l-2.475-1.65A1.998 1.998 0 0113.5 7.93V6.5h-4v1.43c0 .669-.334 1.293-.891 1.664l-2.474 1.65zM9.5 4.5h4v2h-4z"/><path stroke-linejoin="round" d="M14.5.5h-6l.5 4h5z"/><path stroke-linecap="round" stroke-linejoin="round" d="M5.5 12.5h12l-6 11z"/><path stroke-linecap="round" stroke-linejoin="round" d="M6.5 20.5l5-8 5 8z"/></g><path fill="none" d="M0 0h24v24H0z"/></svg>