<svg id="Regular" xmlns="http://www.w3.org/2000/svg" viewBox="0 0 24 24" width="24" height="24"><defs><style>.cls-1{fill:none;stroke:#000;stroke-linecap:round;stroke-linejoin:round;stroke-width:1.5px}</style></defs><title>wine-barrel</title><path class="cls-1" d="M1.634 4.385a1.786 1.786 0 0 0-.884 1.6v7.538a1.784 1.784 0 0 0 .884 1.6 16.494 16.494 0 0 0 16.232 0 1.786 1.786 0 0 0 .884-1.6V5.981a1.784 1.784 0 0 0-.884-1.6 16.494 16.494 0 0 0-16.232.004z"/><path class="cls-1" d="M18.75 8.25a29.293 29.293 0 0 0-9-1.5 28.711 28.711 0 0 0-9 1.5m18 3a29.293 29.293 0 0 1-9 1.5 28.711 28.711 0 0 1-9-1.5m13.5-8.344v13.687m-9-13.687v13.687m0 0l-3 5.157m12-5.157l3 5.157m1.5-9h3a1.5 1.5 0 0 1 1.5 1.5v1.5m-1.5-6h.75"/></svg>