<svg xmlns="http://www.w3.org/2000/svg" viewBox="0 0 24 24" width="24" height="24"><defs><style>.a{fill:none;stroke:#000;stroke-linecap:round;stroke-linejoin:round;stroke-width:1.5px}</style></defs><title>wireless-payment-smartphone-1</title><path class="a" d="M10.125 20.25h-8.25m0-7.5h3.75a1.373 1.373 0 0 0 .879-.461l4.05-3.989 3.829.766a.963.963 0 0 1 .747 1.179l-.08.318a.963.963 0 0 1-.8.721l-1.876.272a.842.842 0 0 0-.75.955v2.557a1.4 1.4 0 0 1-.44.753l-2.077 1.643M22.125 18.5a.983.983 0 0 1-.964 1h-1.447c-.7 0-1.141-.051-1.446-1a59.368 59.368 0 0 1-.964-7c0-.5.482-1 1.446-1h2.411a.983.983 0 0 1 .964 1zm-1.5 1v2.25a1.5 1.5 0 0 1-1.5 1.5h-7.5a1.5 1.5 0 0 1-1.5-1.5v-1.5"/><path class="a" d="M10.125 8.725V6a1.5 1.5 0 0 1 1.5-1.5h7.5a1.5 1.5 0 0 1 1.5 1.5v4.5M6.032.75a6.262 6.262 0 0 0-3.274 6.133M7.606 2.8a4.334 4.334 0 0 0-2.267 4.248"/></svg>