<svg xmlns="http://www.w3.org/2000/svg" viewBox="0 0 24 24" width="24" height="24"><defs><style>.a{fill:none;stroke:#000;stroke-linecap:round;stroke-linejoin:round;stroke-width:1.5px}</style></defs><title>wireless-payment-smartphone</title><path class="a" d="M9 13.5H.75l.842-5.164a.986.986 0 0 1 .965-.836h4.636a.986.986 0 0 1 .965.836zm1.5 9.484V15A1.5 1.5 0 0 0 9 13.5m-4.891-3.004h1.956M5.25 7.504v-2.25"/><rect class="a" x="2.25" y="2.246" width="6" height="3" rx="1" ry="1"/><path class="a" d="M22.5 2.138a6.222 6.222 0 0 0-7.826 0M16.3 4.5a3.633 3.633 0 0 1 4.566 0m-4.537 11.59a2.225 2.225 0 0 0 1.859.875c1.138 0 2.062-.692 2.062-1.547s-.924-1.546-2.062-1.546-2.063-.693-2.063-1.548.924-1.547 2.063-1.547a2.224 2.224 0 0 1 1.858.875m-1.858 5.313v1.031m0-8.25v1.031"/><path class="a" d="M21.3 23.246h-5.85a1.959 1.959 0 0 1-1.95-1.969V9.465A1.96 1.96 0 0 1 15.45 7.5h5.85a1.96 1.96 0 0 1 1.95 1.969v11.808a1.959 1.959 0 0 1-1.95 1.969zm-7.8-3h9.75"/></svg>