<svg xmlns="http://www.w3.org/2000/svg" viewBox="0 0 24 24" width="24" height="24"><g fill="none" stroke="#000" stroke-linecap="round" stroke-linejoin="round" stroke-miterlimit="10"><path d="M6.771 7.708a5.5 5.5 0 1110.459-.001M17 7.5H7L3 11s3 .5 5.5 0S12 9 12 9s1 1.5 3.5 2 5.5 0 5.5 0l-4-3.5z"/><path d="M7.513 11.223S7.5 12.5 8.5 14s3.5 2.5 3.5 2.5 2.949-1.27 3.975-2.635 1.015-2.676 1.015-2.676"/><path d="M10.5 10.5s.5 1 1.5 1 1.5-1 1.5-1m-3.5-6v1m4-1v1M7.5 12s-1 0-2 1-5 4.5-5 4.5l4 4.5L8 16.5l-1.5 7h11l-1.5-7 3.5 5.5 4-4.5s-4-3.5-5-4.5-1.5-1-1.5-1M1.5 19l-1 2v1.5a1 1 0 001.865.503L3.5 21m19-2l1 2v1.5a1 1 0 01-1.865.503L20.5 21"/></g><path fill="none" d="M0 0h24v24H0z"/></svg>