<svg id="Regular" xmlns="http://www.w3.org/2000/svg" viewBox="0 0 24 24" width="24" height="24"><defs><style>.cls-1,.cls-2{fill:none;stroke:#000;stroke-linecap:round;stroke-linejoin:round;stroke-width:1.5px}.cls-1{fill-rule:evenodd}</style></defs><title>wolf</title><path class="cls-1" d="M14.24 5.345s.086-1.37 2.238-2.984C19.462.123 21.7.869 21.7.869s0 5.223-2.238 6.715a10.524 10.524 0 0 0 2.81 5.129 1.492 1.492 0 0 1 .076 1.994c-.915 1.095-2.5 2.575-4.378 2.575 0 0-2.238 5.968-5.968 5.968s-5.968-5.968-5.968-5.968c-1.88 0-3.463-1.48-4.378-2.575a1.488 1.488 0 0 1 .076-1.994 10.524 10.524 0 0 0 2.81-5.129C2.3 6.092 2.3.869 2.3.869S4.542.123 7.526 2.361c2.152 1.614 2.238 2.984 2.238 2.984a4.036 4.036 0 0 1 4.476 0z"/><path class="cls-2" d="M11.256 19.52h1.492m-4.103-7.462a.375.375 0 0 1 .375.375m-.75 0a.375.375 0 0 1 .375-.375m0 .75a.375.375 0 0 1-.375-.375m.75 0a.375.375 0 0 1-.375.375m6.714-.75a.375.375 0 0 1 .375.375m-.75 0a.375.375 0 0 1 .375-.375m0 .75a.375.375 0 0 1-.375-.375m.75 0a.375.375 0 0 1-.375.375m-1.865-2.24l2.238-1.492m-5.222 1.492L8.272 9.076"/></svg>