<svg xmlns="http://www.w3.org/2000/svg" viewBox="0 0 24 24" width="24" height="24"><g fill="none" stroke="#000" stroke-linejoin="round" stroke-miterlimit="10"><path d="M4.571 14.5c-.573.86-.571 2-.571 2h2.121c.128 1 .358 1.074.668 1.617-1.461 1.664.402 3.463.402 3.463l1.501-1.539c.522.346 1.252.589 1.871.759.142 2.212 2.937 2.2 2.937 2.2v-2.121c1-.128 1.074-.359 1.617-.669 1.664 1.462 3.463-.402 3.463-.402l-1.539-1.501c.346-.521.589-1.252.759-1.87 1.324-.086 1.849-1.119 2.059-1.937"/><circle cx="12" cy="15" r="2.5"/><path d="M6.5 14.5C6.5 11.356 8.962 9 12 9s5.5 2.356 5.5 5.5h5C22.5 8.5 17.798 4 12 4S1.5 8.5 1.5 14.5h5z"/><path d="M4.5 7V2a1.5 1.5 0 10-3 0v12"/><path stroke-linecap="round" d="M1.5 3.5h3m-3 3h3"/></g><path fill="none" d="M0 0h24v24H0z"/></svg>