<svg xmlns="http://www.w3.org/2000/svg" viewBox="0 0 24 24" width="24" height="24"><g fill="none" stroke="#000" stroke-linejoin="round" stroke-miterlimit="10"><circle cx="8" cy="9" r="3.5"/><circle cx="8" cy="9" r="1.5"/><circle cx="11" cy="16" r="1.5"/><circle cx="4" cy="16" r="1.5"/><path d="M8 5.5h9a3.5 3.5 0 110 7H8"/><circle cx="11" cy="16" r="3.5"/><path d="M11 12.5h9a3.5 3.5 0 110 7h-9"/><circle cx="4" cy="16" r="3.5"/><path d="M11.001 19.5H4m0-7h7.001"/><path stroke-linecap="round" d="M13.5 7.5h3m0 2h1m-1 5h1m2 0h1m-2 2h3m-5.5 1h1m-3.5-7h1"/></g><path fill="none" d="M0 0h24v24H0z"/></svg>