<svg xmlns="http://www.w3.org/2000/svg" viewBox="0 0 24 24" width="24" height="24"><g fill="none" stroke="#000" stroke-linecap="round" stroke-linejoin="round" stroke-miterlimit="10"><path d="M23.334 13.962C22.402 19.379 17.682 23.5 12 23.5 5.648 23.5.5 18.352.5 12 .5 5.65 5.648.5 12 .5a11.49 11.49 0 019.473 4.978"/><path d="M14.794.843L10.095 3.5l.917 1.625-2 3.375-5 1.5 2 6.5 5.5 2V21M20.5 4.255L18.512 6.5"/><path d="M11.719 12.381l-2.655-1.188-2.004 1.154 4.561 2.944 4.543-1.791-1.926 5 2.273-1.182 2.771-5.062 3.456-1.522a1.278 1.278 0 00-.99-2.356l-10.029 4.003z"/><path d="M18.069 9.847L14 7.298l-2.034 1.051 3.696 2.459"/></g><path fill="none" d="M0 0h24v24H0z"/></svg>