<svg xmlns="http://www.w3.org/2000/svg" viewBox="0 0 24 24" width="24" height="24"><g fill="none" stroke="#000" stroke-linecap="round" stroke-linejoin="round" stroke-miterlimit="10"><path d="M13.822 17.5a1.999 1.999 0 01-1.978-2.297l.9-6A2.003 2.003 0 0114.723 7.5H19.5v5h4v3a2 2 0 01-2 2h-7.678zm9.678 4a2 2 0 01-2 2h-9a2 2 0 010-4h9a2 2 0 012 2z"/><path d="M14.5 12v-1.5a1 1 0 011-1H17"/><circle cx="13.5" cy="21.5" r=".5"/><circle cx="17" cy="21.5" r=".5"/><circle cx="20.5" cy="21.5" r=".5"/><path d="M3.5 6v8.5"/><circle cx="3.5" cy="17.5" r="3"/><path d="M12 13L2.167 4.571a.991.991 0 011.137-1.612L13 8.5"/></g><path fill="none" d="M0 0h24v24H0z"/></svg>