<svg xmlns="http://www.w3.org/2000/svg" viewBox="0 0 24 24" width="24" height="24"><g fill="none" stroke="#000" stroke-linejoin="round" stroke-miterlimit="10"><path d="M2.5 8.5h18v10h-18z"/><circle cx="11.5" cy="3.5" r="2.5"/><path d="M8 18.5l1 5h5l1-5m3-10l-1-2H6l-1 2"/><path stroke-linecap="round" d="M11.5 10.5v6m0-6H9.771a3.99 3.99 0 00-1.485.286L6.5 11.5m5 2h-.752c-.494 0-.984.092-1.445.271l-2.011.778M11.5 10.5h1.729a3.99 3.99 0 011.485.286l1.786.714m-5 2h.752c.494 0 .984.092 1.445.271l2.011.778M9.5 16.5h4"/></g><path fill="none" d="M0 0h24v24H0z"/></svg>