<svg id="Regular" xmlns="http://www.w3.org/2000/svg" viewBox="0 0 24 24" width="24" height="24"><defs><style>.cls-1{fill:none;stroke:#000;stroke-linecap:round;stroke-linejoin:round;stroke-width:1.5px}</style></defs><title>yoga-cobra</title><circle class="cls-1" cx="20.438" cy="4.375" r="2.625"/><path class="cls-1" d="M20.438 22a1.5 1.5 0 0 1-1.5-1.5v-5.033l-2.7 3.814A5.935 5.935 0 0 1 11.218 22H2.437a1.5 1.5 0 0 1 0-3h8.781a2.987 2.987 0 0 0 2.53-1.39l5.465-7.726a1.5 1.5 0 0 1 2.725.866v9.75a1.5 1.5 0 0 1-1.5 1.5zm-1.5-6.75v-.75m-6.235 4.108l2.328 2.036"/></svg>