<svg id="Regular" xmlns="http://www.w3.org/2000/svg" viewBox="0 0 24 24" width="24" height="24"><defs><style>.cls-1{fill:none;stroke:#000;stroke-linecap:round;stroke-linejoin:round;stroke-width:1.5px}</style></defs><title>yoga-arms-stretch</title><circle class="cls-1" cx="12" cy="7.25" r="2.25"/><path class="cls-1" d="M15.751 23a1.518 1.518 0 0 1-.364-.045l-9-2.25a1.5 1.5 0 1 1 .726-2.91l9 2.25A1.5 1.5 0 0 1 15.751 23z"/><path class="cls-1" d="M12 19.017l4.887-1.217a1.5 1.5 0 0 1 1.7.784M15.75 15.5v-.959a8.038 8.038 0 0 0 2.083-1.458 8.247 8.247 0 0 0 0-11.666 1.5 1.5 0 0 0-2.121 2.121 5.249 5.249 0 0 1 0 7.424 5.376 5.376 0 0 1-7.424 0 5.249 5.249 0 0 1 0-7.424 1.5 1.5 0 0 0-2.121-2.121 8.247 8.247 0 0 0 0 11.666 8.038 8.038 0 0 0 2.083 1.458v.959"/></svg>