<svg id="Regular" xmlns="http://www.w3.org/2000/svg" viewBox="0 0 24 24" width="24" height="24"><defs><style>.cls-1{fill:none;stroke:#000;stroke-linecap:round;stroke-linejoin:round;stroke-width:1.5px}</style></defs><title>yoga-meditate-1</title><path class="cls-1" d="M6.758 20.214A1.5 1.5 0 0 1 8.042 17.5l6.1 2.891a1.5 1.5 0 0 1-1.285 2.711z"/><circle class="cls-1" cx="12.009" cy="3.75" r="3"/><path class="cls-1" d="M10.5 12.75v.75A1.5 1.5 0 0 1 9 15h-.75a3.065 3.065 0 0 1-3-3 3.065 3.065 0 0 1 3-3h7.5a3.065 3.065 0 0 1 3 3 3.065 3.065 0 0 1-3 3H15a1.5 1.5 0 0 1-1.5-1.5v-.75m3.131 7.425a1.5 1.5 0 1 0-.936-2.85l-.7.256-.78.318"/></svg>