<svg id="Regular" xmlns="http://www.w3.org/2000/svg" viewBox="0 0 24 24" width="24" height="24"><defs><style>.cls-1{fill:none;stroke:#000;stroke-linecap:round;stroke-linejoin:round;stroke-width:1.5px}</style></defs><title>yoga-back-stretch</title><circle class="cls-1" cx="5.625" cy="20.625" r="2.625"/><path class="cls-1" d="M18.168 23.25H12a1.5 1.5 0 0 1-1.462-1.837l2.095-9.075a1.513 1.513 0 0 0 0-.676l-2.095-9.075a1.5 1.5 0 1 1 2.924-.674l2.1 9.075a4.52 4.52 0 0 1 0 2.024l-1.677 7.238h4.283l-.841-2.525a1.5 1.5 0 0 1 2.845-.95l.843 2.526a3 3 0 0 1-2.847 3.949zm-2.418-3v3m-3.446-9.487l2.911.728"/></svg>