<svg id="Regular" xmlns="http://www.w3.org/2000/svg" viewBox="0 0 24 24" width="24" height="24"><defs><style>.cls-1{fill:none;stroke:#000;stroke-linecap:round;stroke-linejoin:round;stroke-width:1.5px}</style></defs><title>yoga-down-stretch</title><path class="cls-1" d="M7.5 7.253a2.625 2.625 0 0 0-2.983 4.226M21.751 19a1.5 1.5 0 0 1-1.237-.65L13.5 8.147 6.933 17.7A3 3 0 0 1 4.46 19H2.25a1.5 1.5 0 0 1 0-3h2.21l6.567-9.552a3 3 0 0 1 4.944 0l7.015 10.2A1.5 1.5 0 0 1 21.751 19zM10.002 7.939l2.402 1.802m-6.059 3.518l2.402 1.801"/></svg>