<svg id="Regular" xmlns="http://www.w3.org/2000/svg" viewBox="0 0 24 24" width="24" height="24"><defs><style>.cls-1{fill:none;stroke:#000;stroke-linecap:round;stroke-linejoin:round;stroke-width:1.5px}</style></defs><title>yoga-stretch-1</title><circle class="cls-1" cx="3.375" cy="12.125" r="2.625"/><path class="cls-1" d="M18.03 5.716l3.845 3.466a4.161 4.161 0 0 1 .8 5.206l-1.625 2.747a4.471 4.471 0 0 1-3.814 2.115h-3.985a4.475 4.475 0 0 1-4.024-2.487l-2.171-4.342a1.5 1.5 0 0 1 .281-1.732l5.25-5.25a1.5 1.5 0 1 1 2.121 2.122l-4.485 4.485 1.687 3.375a1.491 1.491 0 0 0 1.341.829h3.984a1.489 1.489 0 0 0 1.27-.7l1.518-2.424a1.5 1.5 0 0 0-.286-1.925L17.116 8.9m-7.978-.012l2.121 2.122m5.241 5.24v3"/></svg>