<svg id="Regular" xmlns="http://www.w3.org/2000/svg" viewBox="0 0 24 24" width="24" height="24"><defs><style>.cls-1{fill:none;stroke:#000;stroke-linecap:round;stroke-linejoin:round;stroke-width:1.5px}</style></defs><title>yoga-back-stretch-1</title><path class="cls-1" d="M15.878 9.5l.916.916-2.8 2.405-2.688-3.581 2.988-2.49H17.5a1.5 1.5 0 0 0 0-3h-3.75a1.506 1.506 0 0 0-.961.347l-4.5 3.75A1.5 1.5 0 0 0 8.051 9.9l4.2 5.6v6.25a1.5 1.5 0 0 0 3 0v-6.062l4.726-4.05a1.5 1.5 0 0 0 .085-2.2"/><circle class="cls-1" cx="5.5" cy="3.375" r="2.625"/><path class="cls-1" d="M11.68 14.738l2.309-1.918"/></svg>