<svg id="Regular" xmlns="http://www.w3.org/2000/svg" viewBox="0 0 24 24" width="24" height="24"><defs><style>.cls-1{fill:none;stroke:#000;stroke-linecap:round;stroke-linejoin:round;stroke-width:1.5px}</style></defs><title>yoga-leg-grab-stretch</title><circle class="cls-1" cx="6.074" cy="3.375" r="2.625"/><path class="cls-1" d="M19.372 8.978L19.75 12h-3.68L12.7 8.625 15.32 6h3.129a1.5 1.5 0 0 0 0-3H15.32a3.021 3.021 0 0 0-2.121.879L7.328 9.75H2.7a1.5 1.5 0 0 0 0 3h4.628a3.023 3.023 0 0 0 2.121-.879l1.125-1.125 3.375 3.375v7.629a1.5 1.5 0 0 0 3 0V15h2.8a3 3 0 0 0 2.976-3.372l-.539-4.314m-8.237 6.807L16.07 12"/></svg>