<svg id="Regular" xmlns="http://www.w3.org/2000/svg" viewBox="0 0 24 24" width="24" height="24"><defs><style>.cls-1{fill:none;stroke:#000;stroke-linecap:round;stroke-linejoin:round;stroke-width:1.5px}</style></defs><title>yoga-bridge</title><circle class="cls-1" cx="10.125" cy="12" r="2.625"/><path class="cls-1" d="M2.251 20.25a1.5 1.5 0 0 1-1.489-1.686L2.155 7.418a3.009 3.009 0 0 1 1.8-2.385l.879-.378a17.611 17.611 0 0 1 17.172 1.906 3.01 3.01 0 0 1 1.244 2.432v9.757a1.5 1.5 0 0 1-3 0V8.993A14.609 14.609 0 0 0 6.012 7.412l-.879.378-1.395 11.146a1.5 1.5 0 0 1-1.487 1.314zM16.234 6.959l1.054-2.811M1.749 10.666l2.962.494"/></svg>