<svg id="Regular" xmlns="http://www.w3.org/2000/svg" viewBox="0 0 24 24" width="24" height="24"><defs><style>.cls-1{fill:none;stroke:#000;stroke-linecap:round;stroke-linejoin:round;stroke-width:1.5px}</style></defs><title>yoga-stretch</title><circle class="cls-1" cx="15" cy="3.375" r="2.625"/><path class="cls-1" d="M18 23.25l.006-12a8.264 8.264 0 0 0 5.244-7.687 1.5 1.5 0 1 0-3 0 5.25 5.25 0 0 1-10.5 0 1.5 1.5 0 0 0-3 0 8.294 8.294 0 0 0 .15 1.546"/><circle class="cls-1" cx="7.5" cy="10.688" r="2.625"/><path class="cls-1" d="M9.75 23.25v-5.243c1.406.207 2.618.507 2.637.512a1.56 1.56 0 0 0 .363.044 1.5 1.5 0 0 0 .363-2.955 27.726 27.726 0 0 0-5.613-.795 27.726 27.726 0 0 0-5.613.8 1.5 1.5 0 0 0 .726 2.911c.019 0 1.231-.3 2.637-.512v5.238"/></svg>