<svg id="Regular" xmlns="http://www.w3.org/2000/svg" viewBox="0 0 24 24" width="24" height="24"><defs><style>.cls-1{fill:none;stroke:#000;stroke-linecap:round;stroke-linejoin:round;stroke-width:1.5px}</style></defs><title>yoga-mat</title><circle class="cls-1" cx="4.5" cy="19.5" r="3.75"/><path class="cls-1" d="M.75 19.5v-15a3.75 3.75 0 0 1 7.5 0v15"/><path class="cls-1" d="M11.25 4.5h10.5a1.5 1.5 0 0 1 1.5 1.5v15.75a1.5 1.5 0 0 1-1.5 1.5H4.5m0-4.125a.375.375 0 0 1 .375.375m-.75 0a.375.375 0 0 1 .375-.375m0 .75a.375.375 0 0 1-.375-.375m.75 0a.375.375 0 0 1-.375.375"/></svg>