<svg xmlns="http://www.w3.org/2000/svg" viewBox="0 0 24 24" width="24" height="24"><g fill="none" stroke="#000" stroke-linecap="round" stroke-linejoin="round" stroke-miterlimit="10"><path d="M22.516 9.171c-1.5.5-3 .5-4-.5M17 3v1m-9.976 7.998a3.25 3.25 0 106.243-.995"/><path d="M10.016 23.5a.503.503 0 01-.488-.387l-1.54-3.584a7.02 7.02 0 01-3.538-3.037L.5 11.001c2.021.72 3.747.999 6.016.999 2.658 0 5.19-.539 7.493-1.513-.724-.754-1.493-2.134-1.493-3.487 0-1.851 1-3 2.499-3.821l.001-.679a2 2 0 014 0V4h.5a3.5 3.5 0 110 7c-.536 0-1.544-.121-1.998-.336"/><path d="M18.016 11c0 1.5-.534 2.801-.6 3.186l1.801.898a1.25 1.25 0 11-1.087 2.242l-1.557-.816a7.017 7.017 0 01-3.541 3.023L12.004 21m0 0h2.012a1.5 1.5 0 011.5 1.5c0 .828-.672 1-1.5 1h-4"/></g><path fill="none" d="M0 0h24v24H0z"/></svg>