<svg xmlns="http://www.w3.org/2000/svg" viewBox="0 0 24 24" width="24" height="24"><g fill="none" stroke="#000" stroke-linejoin="round" stroke-miterlimit="10"><path stroke-linecap="round" d="M9.5 17.5c0 2.485-3.042 5.5-4 5.5s-4-3.015-4-5.5v-6h8v6z"/><path stroke-linecap="round" d="M9.497 13.968a4.004 4.004 0 004.474-3.47L16.5 7l-2.5.5v-1H6v1L3.5 7l2.531 3.499c.044.352.133.688.261 1.004"/><path stroke-linecap="round" d="M14 7c0-3.265-2.086-5.471-4.997-6.5L2 4.5l6-1.036M6.5 4S6 5 6 6.5m6.507 6.962C15.135 14.47 16.5 17.017 16.5 20v3.5H5m8.5-9.5v9.5"/><path d="M8.374 20.5H13.5"/><path stroke-linecap="round" d="M8.5 8v1m3-1v1m-6 4.5V19m-2-3.5h4M21.5 4c0-.829-.672-3.5-1.5-3.5S18.5 3.171 18.5 4v14.5a1.5 1.5 0 103 0V4zM17 13.5h6m-4.5 3h3"/></g><path fill="none" d="M0 0h24v24H0z"/></svg>