<svg xmlns="http://www.w3.org/2000/svg" viewBox="0 0 24 24" width="24" height="24"><defs><style>.a{fill:none;stroke:#000;stroke-linecap:round;stroke-linejoin:round;stroke-width:1.5px}</style></defs><title>zip-file-download</title><circle class="a" cx="17.25" cy="17.25" r="6"/><path class="a" d="M17.25 14.25v6m0 0L15 18m2.25 2.25L19.5 18M10.226 4.557a1.951 1.951 0 0 1-.474 1.533 2.039 2.039 0 0 1-3 0 1.951 1.951 0 0 1-.474-1.533L6.75.75h3zM8.25 9.375a.375.375 0 1 1-.375.375.375.375 0 0 1 .375-.375m0 3.75a.375.375 0 1 1-.375.375.375.375 0 0 1 .375-.375m0 3.75a.375.375 0 1 1-.375.375.375.375 0 0 1 .375-.375"/><path class="a" d="M7.5 20.25H2.25a1.5 1.5 0 0 1-1.5-1.5V2.25a1.5 1.5 0 0 1 1.5-1.5h10.629a1.5 1.5 0 0 1 1.06.439l2.872 2.872a1.5 1.5 0 0 1 .439 1.06V8.25"/></svg>