<svg xmlns="http://www.w3.org/2000/svg" viewBox="0 0 24 24" width="24" height="24"><defs><style>.a{fill:none;stroke:#000;stroke-linecap:round;stroke-linejoin:round;stroke-width:1.5px}</style></defs><title>zip-file-1</title><path class="a" d="M8.25 23.25h-6a1.5 1.5 0 0 1-1.5-1.5V2.25a1.5 1.5 0 0 1 1.5-1.5h10.629a1.5 1.5 0 0 1 1.06.439l5.872 5.872a1.5 1.5 0 0 1 .439 1.06v4.629"/><path class="a" d="M20.25 8.25h-6a1.5 1.5 0 0 1-1.5-1.5v-6m-1.5 15h1.892a.75.75 0 0 1 .7 1.028l-2.178 5.443a.751.751 0 0 0 .7 1.029h1.886m3 0v-7.5m3 7.5v-7.5m0 0H21a2.25 2.25 0 0 1 0 4.5h-.75"/></svg>