<svg xmlns="http://www.w3.org/2000/svg" viewBox="0 0 24 24" width="24" height="24"><defs><style>.a{fill:none;stroke:#000;stroke-linecap:round;stroke-linejoin:round;stroke-width:1.5px}</style></defs><title>zip-file-star</title><path class="a" d="M17.956 11.68l1.544 4.07h2.99a.735.735 0 0 1 .517 1.283l-2.6 1.816 1.44 3.313a.785.785 0 0 1-1.117.982l-3.48-1.961-3.48 1.961a.785.785 0 0 1-1.117-.982l1.44-3.313-2.6-1.816a.734.734 0 0 1 .514-1.283h3l1.541-4.07a.8.8 0 0 1 1.408 0zm-7.73-7.123a1.951 1.951 0 0 1-.474 1.533 2.039 2.039 0 0 1-3 0 1.951 1.951 0 0 1-.474-1.533L6.75.75h3zM8.25 9.375a.375.375 0 1 1-.375.375.375.375 0 0 1 .375-.375m0 3.75a.375.375 0 1 1-.375.375.375.375 0 0 1 .375-.375m0 3.75a.375.375 0 1 1-.375.375.375.375 0 0 1 .375-.375"/><path class="a" d="M7.5 20.25H2.25a1.5 1.5 0 0 1-1.5-1.5V2.25a1.5 1.5 0 0 1 1.5-1.5h10.629a1.5 1.5 0 0 1 1.06.439l2.872 2.872a1.5 1.5 0 0 1 .439 1.06V8.25"/></svg>