<svg xmlns="http://www.w3.org/2000/svg" viewBox="0 0 24 24" width="24" height="24"><defs><style>.a{fill:none;stroke:#000;stroke-linecap:round;stroke-linejoin:round;stroke-width:1.5px}</style></defs><title>zip-file-rar</title><path class="a" d="M5.25 23.25h-3a1.5 1.5 0 0 1-1.5-1.5V2.25a1.5 1.5 0 0 1 1.5-1.5h10.629a1.5 1.5 0 0 1 1.061.439l5.871 5.872a1.5 1.5 0 0 1 .439 1.06v4.629"/><path class="a" d="M20.25 8.25h-6a1.5 1.5 0 0 1-1.5-1.5v-6m-4.5 22.5v-7.5m0 0h1.125a1.875 1.875 0 0 1 0 3.75H8.25m3 3.75L9 19.5m11.25 3.75v-7.5m0 0h1.125a1.875 1.875 0 0 1 0 3.75H20.25m3 3.75L21 19.5m-6.75 3.75v-6a1.5 1.5 0 0 1 3 0v6m-3-3h3"/></svg>