<svg xmlns="http://www.w3.org/2000/svg" viewBox="0 0 24 24" width="24" height="24"><defs><style>.a{fill:none;stroke:#000;stroke-linecap:round;stroke-linejoin:round;stroke-width:1.5px}</style></defs><title>zip-file-compress</title><path class="a" d="M6.75 13.5V12a1.5 1.5 0 0 0-1.5-1.5h-1.5a1.5 1.5 0 0 0-1.5 1.5v3a1.5 1.5 0 0 0 1.5 1.5H19.5a1.5 1.5 0 0 0 0-3zm10.5 6v-3h-3v3l-4.5.75v2.25h12v-2.187l-4.5-.813zm-.75-9h3m-3-3h3M21 3a1.5 1.5 0 0 0-1.5-1.5H3.75A1.5 1.5 0 0 0 2.25 3v3a1.5 1.5 0 0 0 1.5 1.5h1.5A1.5 1.5 0 0 0 6.75 6V4.5H19.5A1.5 1.5 0 0 0 21 3z"/></svg>