<svg xmlns="http://www.w3.org/2000/svg" viewBox="0 0 24 24" width="24" height="24"><g fill="none" stroke="#000" stroke-linecap="round" stroke-linejoin="round" stroke-miterlimit="10"><path d="M6.5 9.5L4 11s-1-.5-.5-1.5l1-2-2 1s-1-.5 0-2 1.5-2 1.5-2L1 5s0-2 2.5-3S7.129.698 7.129.698A3.25 3.25 0 0111.5 3.75l-1 .25 1 1-.999.749a1.25 1.25 0 101.5 2S17 5 18.5 4s3-1 4 0 .5 2 .5 2l-2.5.5-1 2s-1-2-3-1-4.5 3-4.5 3 0 .5.5 2 1.5 1 3 .5 3.5-1 4.5-1.5 2.5-2 2.5-2v4l-9 3c-1.5.5-3 2-3 2l-3 3 1.5 2H6.5c-1 0-2.5-2-2.5-2s4-4.5 4.5-5 0-2 0-2l-2-5zm0-6.5L8 4.5m-1.5 0L8 3m7.5 15v1m5.5-2.5v1"/><path d="M3.5 12s-1 1.5-1 2 1 1.5 1 1.5 1-1 1-1.5-1-2-1-2zM19 19s-1 1.5-1 2 1 1.5 1 1.5 1-1 1-1.5-1-2-1-2z"/></g><path fill="none" d="M0 0h24v24H0z"/></svg>