<svg xmlns="http://www.w3.org/2000/svg" viewBox="0 0 24 24" width="24" height="24"><defs><style>.a{fill:none;stroke:#000;stroke-linecap:round;stroke-linejoin:round;stroke-width:1.5px}</style></defs><title>zoom-out-page</title><path class="a" d="M.751 3.749v-1.5a1.5 1.5 0 0 1 1.5-1.5h1.5m0 22.5h-1.5a1.5 1.5 0 0 1-1.5-1.5v-1.5m0-12.75v3m0 3v3m22.5-9v3M7.501.749h3m3 0h3m3.75 0h1.5a1.5 1.5 0 0 1 1.5 1.5v1.5m-12.75 19.5h-3"/><circle class="a" cx="14.251" cy="14.249" r="6"/><path class="a" d="M12.001 14.249h4.5m1.992 4.242l4.758 4.758"/></svg>